<?xml version="1.0" encoding="utf-8"?>
<!-- Generator: Adobe Illustrator 25.4.1, SVG Export Plug-In . SVG Version: 6.00 Build 0)  -->
<svg version="1.1" id="Layer_1" xmlns="http://www.w3.org/2000/svg" xmlns:xlink="http://www.w3.org/1999/xlink" x="0px" y="0px"
	 width="45px" height="45px" viewBox="0 0 45 45" style="enable-background:new 0 0 45 45;" xml:space="preserve">
<g id="레이어_1" style="display:none;">
	<path style="display:inline;fill:#FC9625;" d="M22.5-50C34.9-50,45-39.9,45-27.5S34.9-5,22.5-5S0-15.1,0-27.5S10.1-50,22.5-50"/>
	<path style="display:inline;fill-rule:evenodd;clip-rule:evenodd;fill:#FCFCEF;" d="M-17.9,20.4c1.4,0.8,1.9,2.7,1.1,4.1
		c-0.3,0.5-0.6,0.8-1.1,1.1l-14,8.1c-1.4,0.8-3.3,0.3-4.1-1.1c-0.3-0.5-0.4-1-0.4-1.5V14.9c0-1.7,1.3-3,3-3c0.5,0,1,0.1,1.5,0.4
		L-17.9,20.4z"/>
	<path style="display:inline;fill:#FC9625;" d="M-55.1,4.5c12.4,0,22.5,10.1,22.5,22.5s-10.1,22.5-22.5,22.5S-77.6,39.4-77.6,27
		S-67.6,4.5-55.1,4.5"/>
	<path style="display:inline;fill-rule:evenodd;clip-rule:evenodd;fill:#FCFCEF;" d="M15.9,62.7h13.8c1.7,0,3,1.3,3,3v13.8
		c0,1.7-1.3,3-3,3H15.9c-1.7,0-3-1.3-3-3V65.7C12.9,64,14.3,62.7,15.9,62.7"/>
	<path style="display:inline;fill:#FC9625;" d="M122.5,0C134.9,0,145,10.1,145,22.5S134.9,45,122.5,45S100,34.9,100,22.5
		S110.1,0,122.5,0"/>
	<path style="display:inline;fill-rule:evenodd;clip-rule:evenodd;fill:#FCFCEF;" d="M60.2,25.1c-1.4-0.8-1.9-2.7-1.1-4.1
		c0.3-0.5,0.6-0.8,1.1-1.1L73.3,9.4c1.4-0.8,3.3-0.3,4.1,1.1c0.3,0.5,0.4,1,0.4,1.5v21c0,1.7-1.3,3-3,3c-0.5,0-1-0.1-1.5-0.4
		L60.2,25.1z"/>
	<path style="display:inline;fill-rule:evenodd;clip-rule:evenodd;fill:#FCFCEF;" d="M60.9,18c2.5,0,2,2,2,4.5s0.5,4.5-2,4.5
		s-4.5-2-4.5-4.5S58.4,18,60.9,18"/>
	<path style="display:inline;fill-rule:evenodd;clip-rule:evenodd;fill:#FCFCEF;" d="M81.7,27.4l4.3,2.5c0.5,0.3,0.6,0.9,0.4,1.4
		c-0.3,0.5-0.9,0.6-1.4,0.4l-4.3-2.5c-0.5-0.3-0.6-0.9-0.4-1.4C80.6,27.3,81.2,27.1,81.7,27.4"/>
	<path style="display:inline;fill:#FCFCEF;" d="M80.9,21.5h5c0.6,0,1,0.4,1,1s-0.4,1-1,1h-5c-0.6,0-1-0.4-1-1S80.3,21.5,80.9,21.5"
		/>
	<path style="display:inline;fill-rule:evenodd;clip-rule:evenodd;fill:#FCFCEF;" d="M80.7,15.9l4.3-2.5c0.5-0.3,1.1-0.1,1.4,0.4
		s0.1,1.1-0.4,1.4l-4.3,2.5c-0.5,0.3-1.1,0.1-1.4-0.4C80.1,16.8,80.2,16.2,80.7,15.9"/>
	<path style="display:inline;fill:#FC9625;" d="M22.5,50C34.9,50,45,60.1,45,72.5S34.9,95,22.5,95S0,84.9,0,72.5S10.1,50,22.5,50"/>
	<path style="display:inline;fill:#FCFCEF;" d="M11.8,19.6v-6.5c0-0.8,0.7-1.5,1.5-1.5h6.5v-3h-6.5c-2.5,0-4.5,2-4.5,4.5v6.5H11.8z"
		/>
	<path style="display:inline;fill:#FCFCEF;" d="M26.9,11.6h5.5c0.8,0,1.5,0.7,1.5,1.5v6.5h3v-6.5c0-2.5-2-4.5-4.5-4.5h-5.5
		C26.9,8.6,26.9,11.6,26.9,11.6z"/>
	<path style="display:inline;fill:#FCFCEF;" d="M33.8,26.6v5.5c0,0.8-0.7,1.5-1.5,1.5h-5.5v3h5.5c2.5,0,4.5-2,4.5-4.5v-5.5
		C36.8,26.6,33.8,26.6,33.8,26.6z"/>
	<path style="display:inline;fill:#FCFCEF;" d="M19.9,33.6h-6.5c-0.8,0-1.5-0.7-1.5-1.5v-5.5h-3v5.5c0,2.5,2,4.5,4.5,4.5h6.5V33.6z"
		/>
</g>
<g>
	<path style="fill:#FCFCEF;" d="M16.5,8.5V15c0,0.8-0.7,1.5-1.5,1.5H8.5v3H15c2.5,0,4.5-2,4.5-4.5V8.5H16.5z"/>
	<path style="fill:#FCFCEF;" d="M8.5,29.5H15c0.8,0,1.5,0.7,1.5,1.5v5.5h3V31c0-2.5-2-4.5-4.5-4.5H8.5V29.5z"/>
	<path style="fill:#FCFCEF;" d="M28.5,8.5V15c0,0.8,0.7,1.5,1.5,1.5h6.5v3H30c-2.5,0-4.5-2-4.5-4.5V8.5H28.5z"/>
	<path style="fill:#FCFCEF;" d="M36.5,29.5H30c-0.8,0-1.5,0.7-1.5,1.5v5.5h-3V31c0-2.5,2-4.5,4.5-4.5h6.5V29.5z"/>
</g>
</svg>
