<?xml version="1.0" encoding="utf-8"?>
<!-- Generator: Adobe Illustrator 25.2.0, SVG Export Plug-In . SVG Version: 6.00 Build 0)  -->
<svg version="1.1" id="레이어_1" xmlns="http://www.w3.org/2000/svg" xmlns:xlink="http://www.w3.org/1999/xlink" x="0px"
	 y="0px" viewBox="0 0 60 60" style="enable-background:new 0 0 60 60;" xml:space="preserve">
<path style="fill:#CC5279;" d="M30,0C13.4,0,0,13.4,0,30c0,16.6,13.4,30,30,30c16.6,0,30-13.4,30-30C60,13.4,46.6,0,30,0z M51,13.1
	c-0.4,0.2-0.9,0.3-1.3,0.5c-2.3,0.7-5,1.3-8,1.8c-0.5-2.2-1.2-4.3-1.9-6.1c-0.9-2.1-1.9-3.9-3-5.4C42.4,5.4,47.4,8.7,51,13.1z
	 M21.7,45.5c-0.9-3.3-1.6-7.2-1.8-11.4L40.1,34c-0.3,4.2-0.9,8.1-1.8,11.5c-2.6-0.2-5.4-0.3-8.3-0.3C27.1,45.2,24.4,45.3,21.7,45.5z
	 M19.8,31c0-0.3,0-0.7,0-1v0c0-4,0.4-7.8,1-11.2c2.9,0.3,6,0.5,9.2,0.5c3.2,0,6.3-0.2,9.2-0.5c0.6,3.4,1,7.2,1,11.2c0,0,0,0,0,0
	c0,0.3,0,0.6,0,0.9L19.8,31z M29.9,3.1L29.9,3.1L29.9,3.1L29.9,3.1c0.1,0,0.1,0,0.1,0c2.1-0.1,4.8,2.5,6.8,7.4
	c0.7,1.6,1.2,3.4,1.7,5.3C35.9,16,33,16.2,30,16.2c0,0,0,0,0,0c0,0,0,0-0.1,0c-3,0-5.9-0.2-8.6-0.4c0.5-2,1.1-3.7,1.7-5.3
	C25.1,5.5,27.9,3,29.9,3.1z M23.3,3.9c-1.1,1.5-2.1,3.3-3,5.4c-0.8,1.8-1.4,3.9-1.9,6.1c-3-0.4-5.7-1.1-8-1.8
	c-0.5-0.1-0.9-0.3-1.3-0.5C12.6,8.7,17.6,5.4,23.3,3.9z M3.1,30c0-5.3,1.5-10.2,4.1-14.3c0.7,0.3,1.4,0.6,2.2,0.8
	c2.4,0.8,5.2,1.4,8.3,1.9c-0.6,3.6-1,7.5-1,11.6c0,0.4,0,0.7,0,1L3.1,31.1C3.1,30.7,3.1,30.4,3.1,30z M3.4,34.2l13.4-0.1
	c0.2,4.2,0.9,8.2,1.8,11.6c-3.4,0.3-6.5,0.8-9.1,1.5c-0.1,0-0.1,0-0.2,0C6.3,43.6,4.2,39.1,3.4,34.2z M11.8,49.8
	c2.3-0.5,4.9-0.8,7.7-1.1c0.2,0.7,0.5,1.3,0.7,2c0.9,2.1,1.9,3.9,3,5.4C18.9,55,15,52.8,11.8,49.8z M30.1,57.9L30.1,57.9l0-0.1
	l0.1,0.5L30.1,57.9z M30.1,56.9C30.1,56.9,30.1,56.9,30.1,56.9C30,56.9,30,56.9,30.1,56.9L30.1,56.9c-0.1,0-0.1,0-0.1,0
	c-2.1,0.1-4.8-2.5-6.8-7.4c-0.1-0.3-0.3-0.7-0.4-1.1c2.3-0.1,4.7-0.2,7.2-0.2c0,0,0.1,0,0.1,0l0,0l0,0c2.5,0,4.9,0.1,7.3,0.2
	c-0.1,0.4-0.3,0.7-0.4,1.1C34.9,54.5,32.1,57,30.1,56.9z M36.7,56.1c1.1-1.5,2.1-3.3,3-5.4c0.3-0.6,0.5-1.3,0.7-2
	c2.8,0.3,5.5,0.6,7.7,1.1C45,52.8,41.1,55,36.7,56.1z M50.7,47.3c-2.7-0.6-5.8-1.2-9.3-1.5c0.9-3.5,1.6-7.5,1.8-11.7l13.5-0.1
	C55.9,39,53.8,43.5,50.7,47.3z M43.3,30.9c0-0.3,0-0.6,0-0.9c0-4.1-0.4-8-1-11.6c3.1-0.5,5.9-1.1,8.3-1.9c0.8-0.3,1.5-0.5,2.2-0.8
	c2.6,4.1,4.1,9,4.1,14.3c0,0.3,0,0.6,0,0.9L43.3,30.9z"/>
<g>
</g>
<g>
</g>
<g>
</g>
<g>
</g>
<g>
</g>
<g>
</g>
<g>
</g>
<g>
</g>
<g>
</g>
<g>
</g>
<g>
</g>
<g>
</g>
<g>
</g>
<g>
</g>
<g>
</g>
</svg>
