<?xml version="1.0" encoding="utf-8"?>
<!-- Generator: Adobe Illustrator 25.2.0, SVG Export Plug-In . SVG Version: 6.00 Build 0)  -->
<svg version="1.1" id="레이어_1" xmlns="http://www.w3.org/2000/svg" xmlns:xlink="http://www.w3.org/1999/xlink" x="0px"
	 y="0px" viewBox="0 0 31.7 32.6" style="enable-background:new 0 0 31.7 32.6;" xml:space="preserve">
<g>
	<g>
		<g>
			<g>
				<g>
					<path style="fill:#FFFFFF;" d="M13.6,8.3c-0.7-0.5-1.5-0.2-1.7,0.6l0.1,7.2c0.2,0.8,1.1,1.2,1.7,0.7l5.5-3.4
						c0.7-0.5,0.7-1.3,0-1.8L13.6,8.3z"/>
				</g>
			</g>
		</g>
		<g>
			<g>
				<g>
					<g>
						<path style="fill:#FFFFFF;" d="M28.2,0H3.5C1.6,0,0,1.6,0,3.5v19.1c0,0.1,0,0.2,0,0.4l0,6.2c0,1.9,1.6,3.5,3.5,3.5h24.8
							c1.9,0,3.5-1.6,3.5-3.5V3.5C31.7,1.6,30.2,0,28.2,0z M4.4,4.2h22.8v16.9H4.4V4.2z M27.5,27.6H11.7c-0.4,1.4-1.6,2.4-3.1,2.4
							c-1.5,0-2.7-1-3.1-2.4H4.3c-0.5,0-0.8-0.3-0.8-0.8c0-0.4,0.4-0.8,0.8-0.8h1.2c0.3-1.4,1.6-2.4,3.1-2.4c1.5,0,2.8,1,3.1,2.4
							h15.8c0.5,0,0.8,0.3,0.8,0.8C28.3,27.2,27.9,27.6,27.5,27.6z"/>
					</g>
				</g>
			</g>
			<g>
				<path style="fill:#FFFFFF;" d="M8.6,25.6c-0.6,0-1.2,0.5-1.2,1.2c0,0.6,0.5,1.2,1.2,1.2c0.6,0,1.2-0.5,1.2-1.2
					C9.8,26.1,9.2,25.6,8.6,25.6z"/>
			</g>
		</g>
	</g>
</g>
<g>
</g>
<g>
</g>
<g>
</g>
<g>
</g>
<g>
</g>
<g>
</g>
<g>
</g>
<g>
</g>
<g>
</g>
<g>
</g>
<g>
</g>
<g>
</g>
<g>
</g>
<g>
</g>
<g>
</g>
</svg>
