<?xml version="1.0" encoding="utf-8"?>
<!-- Generator: Adobe Illustrator 25.1.0, SVG Export Plug-In . SVG Version: 6.00 Build 0)  -->
<svg version="1.1" xmlns="http://www.w3.org/2000/svg" xmlns:xlink="http://www.w3.org/1999/xlink" x="0px" y="0px" width="99px"
	 height="40.1px" viewBox="0 0 99 40.1" style="enable-background:new 0 0 99 40.1;" xml:space="preserve">
<g id="레이어_1">
</g>
<g id="Layer_1">
	<linearGradient id="SVGID_1_" gradientUnits="userSpaceOnUse" x1="1.2342" y1="19.7696" x2="97.7658" y2="19.7696">
		<stop  offset="0" style="stop-color:#FFDFBF"/>
		<stop  offset="1" style="stop-color:#FFAB59"/>
	</linearGradient>
	<path style="fill:url(#SVGID_1_);" d="M97.8,19.8C97.8,19.8,97.8,19.8,97.8,19.8C97.8,19.8,97.8,19.7,97.8,19.8
		c0-1.8-0.6-3.5-2-4.9c-0.3-0.3-0.5-0.5-0.8-0.7L82.9,2.2c-2.6-2.6-6.9-2.6-9.5,0c-2.6,2.6-2.6,6.9,0,9.5l1.3,1.3H8
		c-3.7,0-6.8,3-6.8,6.8c0,3.7,3,6.8,6.8,6.8h66.7l-1.3,1.3c-2.6,2.6-2.6,6.9,0,9.5c1.3,1.3,3,2,4.8,2c1.7,0,3.5-0.7,4.8-2L95,25.3
		c0.3-0.2,0.6-0.4,0.8-0.7C97.1,23.3,97.8,21.5,97.8,19.8z"/>
</g>
</svg>
