<?xml version="1.0" encoding="utf-8"?>
<!-- Generator: Adobe Illustrator 25.2.0, SVG Export Plug-In . SVG Version: 6.00 Build 0)  -->
<svg version="1.1" id="레이어_1" xmlns="http://www.w3.org/2000/svg" xmlns:xlink="http://www.w3.org/1999/xlink" x="0px"
	 y="0px" viewBox="0 0 251 251" style="enable-background:new 0 0 251 251;" xml:space="preserve">
<g id="레이어_1_1_">
</g>
<g id="Layer_19">
	<g>
		
			<linearGradient id="SVGID_1_" gradientUnits="userSpaceOnUse" x1="213.1683" y1="211.7371" x2="-41.1417" y2="-35.7987" gradientTransform="matrix(1 0 0 -1 0 252)">
			<stop  offset="0.1893" style="stop-color:#808080"/>
			<stop  offset="0.3602" style="stop-color:#767676"/>
			<stop  offset="1" style="stop-color:#525252"/>
		</linearGradient>
		<path style="fill:url(#SVGID_1_);" d="M165.8,125.5l76.3-76.3c11.1-11.1,11.1-29.2,0-40.3s-29.2-11.1-40.3,0l-76.3,76.3L49.2,8.9
			C38.1-2.3,20-2.3,8.9,8.9C-2.3,20-2.3,38.1,8.9,49.2l76.3,76.3L8.9,201.8c-11.1,11.1-11.1,29.2,0,40.3c5.6,5.6,12.9,8.4,20.2,8.4
			s14.6-2.8,20.2-8.4l76.3-76.3l76.3,76.3c5.6,5.6,12.9,8.4,20.2,8.4s14.6-2.8,20.2-8.4c11.1-11.1,11.1-29.2,0-40.3L165.8,125.5z"/>
		
			<line style="fill:none;stroke:#FFFFFF;stroke-width:8;stroke-linecap:round;stroke-miterlimit:10;" x1="232.9" y1="40" x2="209.2" y2="63.7"/>
		<circle style="fill:#FFFFFF;" cx="199.2" cy="73.6" r="5"/>
	</g>
</g>
</svg>
