<?xml version="1.0" encoding="utf-8"?>
<!-- Generator: Adobe Illustrator 25.2.0, SVG Export Plug-In . SVG Version: 6.00 Build 0)  -->
<svg version="1.1" id="레이어_1" xmlns="http://www.w3.org/2000/svg" xmlns:xlink="http://www.w3.org/1999/xlink" x="0px"
	 y="0px" viewBox="0 0 26 27.4" style="enable-background:new 0 0 26 27.4;" xml:space="preserve">
<style type="text/css">
	.st0{fill:#F43414;}
	.st1{fill:#FFFFFF;}
	.st2{opacity:0.5;}
	.st3{fill:none;stroke:#FFFFFF;stroke-width:2;stroke-linecap:round;stroke-linejoin:round;stroke-miterlimit:10;}
</style>
<g id="레이어_1_1_">
</g>
<g id="Layer_19">
	<g>
		<path class="st0" d="M0.5,11.4v0.8c0,4.1,2.3,7.6,5.6,9.5c5,4.3,11.6,5.1,11.6,5.1c-2.4-1.2-3.2-3-3.5-3.7h0.4
			c6,0,10.9-4.9,10.9-10.9v-0.8c0-6-4.9-10.9-10.9-10.9h-3.2C5.4,0.5,0.5,5.4,0.5,11.4z"/>
		<path class="st1" d="M7.7,13.2l4.1-0.4l-2.6,3.5c0.6,1.9,2.1,1.4,2.1,1.4l1.8-3.9l1.8,3.9c1.9,0.2,2.1-1.4,2.1-1.4l-2.6-3.5
			l4.1,0.4c1-1.2,0-2.3,0-2.3l-4.1,0.4L17,7.8c0,0-0.1-1.6-2.3-1.4l-1.8,3.9l-1.8-3.9c0,0-1.6-0.3-2.1,1.4l2.6,3.5l-4.1-0.4
			C7.5,10.9,6.3,12.1,7.7,13.2z"/>
		<g class="st2">
			<path class="st3" d="M12,3C8.4,3,5.2,5,3.7,8"/>
			<path class="st3" d="M2.9,10.4c-0.2,0.7-0.2,1.1-0.2,1.8"/>
		</g>
	</g>
</g>
</svg>
