<?xml version="1.0" encoding="utf-8"?>
<!-- Generator: Adobe Illustrator 25.0.1, SVG Export Plug-In . SVG Version: 6.00 Build 0)  -->
<svg version="1.1" id="레이어_1" xmlns="http://www.w3.org/2000/svg" xmlns:xlink="http://www.w3.org/1999/xlink" x="0px"
	 y="0px" width="25px" height="21.5px" viewBox="0 0 25 21.5" style="enable-background:new 0 0 25 21.5;" xml:space="preserve">
<g>
	<g>
		<g>
			<circle style="fill:#FFFFFF;" cx="21.6" cy="2.9" r="2.6"/>
			<circle style="fill:#FFFFFF;" cx="3.3" cy="2.9" r="2.6"/>
		</g>
	</g>
	<path style="fill:#FFFFFF;" d="M22.6,21.2c-0.6,0-1.3-0.3-1.7-0.9c-1.6-2.4-4.9-3.9-8.4-3.9s-6.9,1.5-8.4,3.9
		c-0.6,0.9-1.8,1.2-2.7,0.6c-0.9-0.6-1.2-1.8-0.6-2.7c2.3-3.5,6.8-5.7,11.7-5.7c4.9,0,9.4,2.2,11.7,5.7c0.6,0.9,0.3,2.1-0.6,2.7
		C23.3,21.1,23,21.2,22.6,21.2z"/>
</g>
</svg>
