<?xml version="1.0" encoding="utf-8"?>
<!-- Generator: Adobe Illustrator 25.0.1, SVG Export Plug-In . SVG Version: 6.00 Build 0)  -->
<svg version="1.1" id="레이어_1" xmlns="http://www.w3.org/2000/svg" xmlns:xlink="http://www.w3.org/1999/xlink" x="0px"
	 y="0px" width="63px" height="63px" viewBox="0 0 63 63" style="enable-background:new 0 0 63 63;" xml:space="preserve">
<g id="레이어_1_1_">
</g>
<g id="Layer_6">
	<g>
		<g>
			<g>
				<path style="fill:#FFFFFF;" d="M51,62.5c-3.1,0-5.9-1.2-8.1-3.3L31.5,47.7L20,59.2c-2.2,2.2-5,3.3-8.1,3.3S6,61.3,3.8,59.2
					c-2.2-2.2-3.3-5-3.3-8.1c0-3.1,1.2-5.9,3.3-8.1l11.5-11.5L3.8,20c-2.2-2.2-3.3-5-3.3-8.1S1.7,6,3.8,3.8c2.2-2.2,5-3.3,8.1-3.3
					s5.9,1.2,8.1,3.3l11.5,11.5L42.9,3.8c2.2-2.2,5-3.3,8.1-3.3s5.9,1.2,8.1,3.3c4.5,4.5,4.5,11.7,0,16.2L47.7,31.5L59.2,43
					c4.5,4.5,4.5,11.7,0,16.2C57,61.3,54.1,62.5,51,62.5z"/>
			</g>
		</g>
		<path style="fill:#E0DECD;" d="M44.7,57.3L5.6,18.2C2.1,14.7,2.1,9,5.6,5.5l0,0C9.1,2,14.8,2,18.3,5.5l39.1,39.1
			c3.5,3.5,3.5,9.2,0,12.7l0,0C53.9,60.8,48.2,60.8,44.7,57.3z"/>
		<path style="fill:#E0DECD;" d="M5.6,44.6L44.7,5.5c3.5-3.5,9.2-3.5,12.7,0l0,0c3.5,3.5,3.5,9.2,0,12.7L18.3,57.3
			c-3.5,3.5-9.2,3.5-12.7,0l0,0C2.1,53.8,2.1,48.1,5.6,44.6z"/>
	</g>
</g>
</svg>
