<?xml version="1.0" encoding="utf-8"?>
<!-- Generator: Adobe Illustrator 25.0.1, SVG Export Plug-In . SVG Version: 6.00 Build 0)  -->
<svg version="1.1" id="레이어_1" xmlns="http://www.w3.org/2000/svg" xmlns:xlink="http://www.w3.org/1999/xlink" x="0px"
	 y="0px" width="65px" height="66.3px" viewBox="0 0 65 66.3" style="enable-background:new 0 0 65 66.3;" xml:space="preserve">
<g>
	<g>
		
			<radialGradient id="SVGID_1_" cx="-3476.8936" cy="-2122.926" r="125.8999" gradientTransform="matrix(0.258 0 0 0.2554 929.5676 576.207)" gradientUnits="userSpaceOnUse">
			<stop  offset="0.9123" style="stop-color:#C4C4C4"/>
			<stop  offset="0.9623" style="stop-color:#E4E4E4"/>
			<stop  offset="1" style="stop-color:#FFFFFF"/>
		</radialGradient>
		<path style="opacity:0.7;fill:url(#SVGID_1_);" d="M65,34.1c0,17.8-14.5,32.1-32.5,32.1S0,51.9,0,34.1C0,16.4,14.6,2,32.5,2
			S65,16.4,65,34.1z"/>
		<g>
			<defs>
				
					<ellipse id="SVGID_2_" transform="matrix(0.9959 -9.037257e-02 9.037257e-02 0.9959 -2.6669 3.0639)" cx="32.5" cy="31" rx="31" ry="31"/>
			</defs>
			<use xlink:href="#SVGID_2_"  style="overflow:visible;fill:#8CC63F;"/>
			<clipPath id="SVGID_3_">
				<use xlink:href="#SVGID_2_"  style="overflow:visible;"/>
			</clipPath>
			<path style="clip-path:url(#SVGID_3_);fill:#8CC63F;" d="M63.8,31c0,17.3-14,31.4-31.3,31.3c-17.2,0-31.3-14-31.3-31.3
				c0-17.3,14-31.3,31.3-31.3C49.8-0.4,63.8,13.7,63.8,31z"/>
		</g>
	</g>
	<g>
		<g>
			<circle style="fill:#267934;" cx="45" cy="22.1" r="3.5"/>
			<circle style="fill:#267934;" cx="20" cy="22.1" r="3.5"/>
		</g>
		<path style="fill:#267934;" d="M13.7,34.8c-0.8,0-1.4,0.8-1.1,1.6C15.3,44,23.6,50,32.9,50c9.3,0,16.8-6,19.5-13.6
			c0.3-0.8-0.3-1.6-1.1-1.6H13.7z"/>
	</g>
</g>
</svg>
