<?xml version="1.0" encoding="utf-8"?>
<!-- Generator: Adobe Illustrator 25.2.0, SVG Export Plug-In . SVG Version: 6.00 Build 0)  -->
<svg version="1.1" id="레이어_1" xmlns="http://www.w3.org/2000/svg" xmlns:xlink="http://www.w3.org/1999/xlink" x="0px"
	 y="0px" width="80px" height="80px" viewBox="0 0 80 80" style="enable-background:new 0 0 80 80;" xml:space="preserve">
<g id="레이어_1_1_">
</g>
<g id="Layer_1">
	<g>
		<g>
			<path style="fill:#FFFFFF;" d="M40,0.4C18.2,0.4,0.4,18.2,0.4,40S18.2,79.6,40,79.6S79.6,61.8,79.6,40S61.8,0.4,40,0.4z M40,59.3
				c-10.6,0-19.3-8.7-19.3-19.3S29.4,20.7,40,20.7S59.3,29.4,59.3,40S50.6,59.3,40,59.3z"/>
		</g>
		<g>
			<path style="fill:#F7F1F0;" d="M40,3.4C19.8,3.4,3.3,19.8,3.3,40.1c0,20.2,16.4,36.7,36.7,36.7c20.2,0,36.7-16.4,36.7-36.7
				S60.2,3.4,40,3.4z M40,17.8c12.3,0,22.3,10,22.3,22.3S52.3,62.4,40,62.4s-22.3-10-22.3-22.3S27.7,17.8,40,17.8z"/>
		</g>
	</g>
</g>
</svg>
