<?xml version="1.0" encoding="utf-8"?>
<!-- Generator: Adobe Illustrator 16.0.0, SVG Export Plug-In . SVG Version: 6.00 Build 0)  -->
<!DOCTYPE svg PUBLIC "-//W3C//DTD SVG 1.1//EN" "http://www.w3.org/Graphics/SVG/1.1/DTD/svg11.dtd">
<svg version="1.1" id="레이어_1" xmlns="http://www.w3.org/2000/svg" xmlns:xlink="http://www.w3.org/1999/xlink" x="0px"
	 y="0px" width="45px" height="45px" viewBox="0 0 45 45" enable-background="new 0 0 45 45" xml:space="preserve">
<path fill="#FC9625" d="M22.5-50C34.926-50,45-39.926,45-27.5S34.926-5,22.5-5C10.074-5,0-15.074,0-27.5S10.074-50,22.5-50"/>
<path fill-rule="evenodd" clip-rule="evenodd" fill="#FCFCEF" d="M-17.901,20.421c1.437,0.827,1.93,2.661,1.103,4.097
	c-0.264,0.459-0.644,0.839-1.103,1.104l-14,8.077c-1.435,0.828-3.27,0.337-4.098-1.099c-0.264-0.456-0.402-0.974-0.402-1.502V14.943
	c-0.001-1.657,1.341-3.001,2.998-3.002c0.527,0,1.045,0.139,1.502,0.401L-17.901,20.421z"/>
<path fill="#FC9625" d="M-55.125,4.5c12.426,0,22.5,10.074,22.5,22.5s-10.074,22.5-22.5,22.5c-12.426,0-22.5-10.074-22.5-22.5
	S-67.551,4.5-55.125,4.5"/>
<path fill-rule="evenodd" clip-rule="evenodd" fill="#FCFCEF" d="M15.928,62.678h13.789c1.656,0,3,1.344,3,3v13.788
	c0,1.657-1.344,3-3,3H15.928c-1.656,0-3-1.343-3-3V65.678C12.928,64.021,14.271,62.678,15.928,62.678"/>
<path fill="#FC9625" d="M72.5,0C84.927,0,95,10.074,95,22.5C95,34.927,84.927,45,72.5,45C60.074,45,50,34.927,50,22.5
	C50,10.074,60.074,0,72.5,0"/>
<path fill-rule="evenodd" clip-rule="evenodd" fill="#FCFCEF" d="M10.226,25.096c-1.434-0.831-1.921-2.668-1.09-4.101
	c0.262-0.452,0.638-0.828,1.09-1.09l13.1-10.493c1.436-0.828,3.271-0.337,4.099,1.098c0.263,0.455,0.4,0.973,0.401,1.497v20.986
	c-0.002,1.657-1.346,2.998-3.003,2.997c-0.526,0-1.042-0.139-1.497-0.402L10.226,25.096z"/>
<path fill-rule="evenodd" clip-rule="evenodd" fill="#FCFCEF" d="M10.855,18c2.49,0,2,2.015,2,4.5s0.49,4.5-2,4.5
	c-2.485,0-4.5-2.015-4.5-4.5S8.37,18,10.855,18"/>
<path fill-rule="evenodd" clip-rule="evenodd" fill="#FCFCEF" d="M31.686,27.384l4.34,2.5c0.476,0.28,0.636,0.893,0.356,1.369
	c-0.276,0.471-0.881,0.633-1.356,0.363l-4.34-2.5c-0.477-0.279-0.637-0.893-0.356-1.368C30.605,27.275,31.21,27.114,31.686,27.384"
	/>
<path fill="#FCFCEF" d="M30.855,21.5h5c0.552,0,1,0.448,1,1s-0.448,1-1,1h-5c-0.552,0-1-0.448-1-1S30.304,21.5,30.855,21.5"/>
<path fill-rule="evenodd" clip-rule="evenodd" fill="#FCFCEF" d="M30.686,15.884l4.34-2.5c0.479-0.271,1.091-0.104,1.362,0.376
	c0.271,0.476,0.109,1.08-0.362,1.356l-4.34,2.5c-0.48,0.272-1.091,0.104-1.363-0.375C30.052,16.765,30.213,16.161,30.686,15.884"/>
</svg>
