<svg xmlns="http://www.w3.org/2000/svg" viewBox="0 0 71 59.32"><defs><style>.cls-1{fill:#5ea9d3;}.cls-2{fill:#2f77bf;}</style></defs><g id="레이어_2" data-name="레이어 2"><g id="Layer_1" data-name="Layer 1"><path class="cls-1" d="M41.83,11.56a4.23,4.23,0,1,1-4.22,4.23,4.23,4.23,0,0,1,4.22-4.23Z"/><path class="cls-1" d="M8.1,30.2l6.84-12.45c.63-1.08,1.57-.76,2.41.22l8.86,10.17c.74.74,1.47,1.08,2,.22l2.95-5.14c.65-1.13,1.63-.77,2.51.11L47.29,35.6H7.56V32.93A4.5,4.5,0,0,1,8.1,30.2Z"/><path class="cls-2" d="M54.24.91h0A3.12,3.12,0,0,0,52.05,0H3.1A3.12,3.12,0,0,0,.91.91h0A3.1,3.1,0,0,0,0,3.1v37a3.08,3.08,0,0,0,.91,2.19h0a3.12,3.12,0,0,0,2.19.91H52.05a3.12,3.12,0,0,0,2.19-.91h0a3.08,3.08,0,0,0,.91-2.19V3.1A3.1,3.1,0,0,0,54.24.91Zm-3,38.39H3.86V3.86H51.29Z"/><path class="cls-2" d="M57.8,8.77,53.45,9.94V6l4.08-1.1a3.09,3.09,0,0,1,2.35.32h0A3.11,3.11,0,0,1,61.33,7L70.9,42.75a3.09,3.09,0,0,1-.32,2.35h0a3.09,3.09,0,0,1-1.88,1.44L21.42,59.21a3.13,3.13,0,0,1-2.35-.31h0A3,3,0,0,1,17.63,57l-4.18-15.6h4l3.72,13.87L67,43,57.8,8.77Z"/></g></g></svg>