<?xml version="1.0" encoding="utf-8"?>
<!-- Generator: Adobe Illustrator 25.4.1, SVG Export Plug-In . SVG Version: 6.00 Build 0)  -->
<svg version="1.1" id="Layer_1" xmlns="http://www.w3.org/2000/svg" xmlns:xlink="http://www.w3.org/1999/xlink" x="0px" y="0px"
	 width="34px" height="34px" viewBox="0 0 34 34" style="enable-background:new 0 0 34 34;" xml:space="preserve">
<g id="Layer_2_00000150796397978897448590000007253487188281164202_">
	<g id="Layer_1-2">
		<path style="fill:#FFFFFF;" d="M15.614,23.603c-0.828,0-1.5-0.672-1.5-1.5V9.04c0-0.828,0.672-1.5,1.5-1.5
			c0.828,0,1.5,0.672,1.5,1.5v13.063C17.114,22.931,16.442,23.603,15.614,23.603z"/>
		<path style="fill:#FFFFFF;" d="M22.15,17.072H9.083c-0.828,0-1.5-0.672-1.5-1.5c0-0.828,0.672-1.5,1.5-1.5H22.15
			c0.828,0,1.5,0.672,1.5,1.5C23.65,16.4,22.978,17.072,22.15,17.072z"/>
		<path style="fill:#FFFFFF;" d="M15.614,3.25c6.828,0,12.364,5.536,12.364,12.364s-5.536,12.364-12.364,12.364
			S3.25,22.442,3.25,15.614C3.257,8.789,8.789,3.257,15.614,3.25 M15.614,0.25C7.129,0.25,0.25,7.129,0.25,15.614
			s6.879,15.364,15.364,15.364s15.364-6.879,15.364-15.364S24.099,0.25,15.614,0.25C15.614,0.25,15.614,0.25,15.614,0.25z"/>
		<path style="fill:#FFFFFF;" d="M32.25,33.75c-0.398,0-0.78-0.158-1.061-0.44l-5.661-5.66c-0.586-0.586-0.586-1.536,0-2.122
			s1.536-0.586,2.122,0l5.662,5.661c0.586,0.586,0.586,1.535,0.001,2.121C33.031,33.592,32.649,33.75,32.25,33.75z"/>
	</g>
</g>
</svg>
