<svg xmlns="http://www.w3.org/2000/svg" viewBox="0 0 34 28"><defs><style>.cls-1,.cls-2{fill:#fcfcef;}.cls-1{fill-rule:evenodd;}</style></defs><g id="Layer_1" data-name="Layer 1"><path id="Triangle_2" data-name="Triangle 2" class="cls-1" d="M5.62,16.6a3,3,0,0,1-1.09-4.11,3,3,0,0,1,1.09-1.08L18.72.91a3,3,0,0,1,4.5,2.6v21a3,3,0,0,1-3,3,3,3,0,0,1-1.5-.4Z"/><path class="cls-1" d="M6.25,9.5c2.49,0,2,2,2,4.5s.49,4.5-2,4.5a4.5,4.5,0,0,1,0-9Z"/><path id="Rounded_Rectangle_1" data-name="Rounded Rectangle 1" class="cls-1" d="M27.08,18.88l4.34,2.5a1,1,0,0,1-1,1.74l-4.34-2.5a1,1,0,0,1,1-1.74Z"/><path id="Rounded_Rectangle_1_copy" data-name="Rounded Rectangle 1 copy" class="cls-2" d="M26.25,13h5a1,1,0,0,1,1,1h0a1,1,0,0,1-1,1h-5a1,1,0,0,1-1-1h0A1,1,0,0,1,26.25,13Z"/><path id="Rounded_Rectangle_1_copy_2" data-name="Rounded Rectangle 1 copy 2" class="cls-1" d="M26.08,7.38l4.34-2.5a1,1,0,0,1,1,1.74l-4.34,2.5a1,1,0,0,1-1-1.74Z"/></g></svg>