<?xml version="1.0" encoding="utf-8"?>
<!-- Generator: Adobe Illustrator 25.0.1, SVG Export Plug-In . SVG Version: 6.00 Build 0)  -->
<svg version="1.1" id="레이어_1" xmlns="http://www.w3.org/2000/svg" xmlns:xlink="http://www.w3.org/1999/xlink" x="0px"
	 y="0px" width="181px" height="181px" viewBox="0 0 181 181" style="enable-background:new 0 0 181 181;" xml:space="preserve">
<g id="레이어_2_1_">
	<g id="확인문제2">
		<circle style="fill:#FF8345;" cx="90.5" cy="90.5" r="90"/>
		
			<radialGradient id="SVGID_1_" cx="90.5" cy="92.5" r="81.82" gradientTransform="matrix(1 0 0 -1 0 183)" gradientUnits="userSpaceOnUse">
			<stop  offset="0" style="stop-color:#FF8000"/>
			<stop  offset="1" style="stop-color:#FF3F18"/>
		</radialGradient>
		<circle style="fill:url(#SVGID_1_);" cx="90.5" cy="90.5" r="81.8"/>
		<g style="opacity:0.5;">
			<path style="fill:#FFFFFF;" d="M148.3,64.9c-2,0-3.9-1.1-4.9-2.8c-0.9-1.5-1.8-3-2.8-4.4c-1.9-2.6-1.3-6.1,1.2-8
				c2.6-1.9,6.1-1.3,8,1.2c0,0.1,0.1,0.1,0.1,0.2c1.2,1.6,2.3,3.4,3.3,5.1c1.6,2.7,0.7,6.2-2,7.8C150.3,64.7,149.3,64.9,148.3,64.9
				L148.3,64.9z"/>
			<path style="fill:#FFFFFF;" d="M132.9,46.7c-1.4,0-2.7-0.5-3.7-1.4c-10.8-9.2-24.3-14.6-38.4-15.4c-3.1-0.3-5.4-3.1-5.1-6.3
				c0.3-3,2.8-5.2,5.8-5.2c16.6,1,32.5,7.3,45.1,18.1c2.4,2,2.7,5.7,0.7,8.1C136.1,45.9,134.5,46.7,132.9,46.7L132.9,46.7z"/>
		</g>
		<path style="fill:#FFFFFF;" d="M62.5,55.7c-4.1,0-7.5,3.3-7.5,7.4c0,2,0.8,3.9,2.2,5.4l53.5,53.8c3,2.8,7.7,2.7,10.6-0.3
			c2.7-2.9,2.7-7.4,0-10.3L67.8,57.9C66.4,56.5,64.5,55.7,62.5,55.7z"/>
		<path style="fill:#FFFFFF;" d="M116.1,55.8c-2,0-3.9,0.8-5.3,2.2l-53.8,53.6c-2.9,2.9-2.9,7.6,0,10.6c2.9,2.9,7.6,2.9,10.6,0
			l53.8-53.6c2.9-2.9,2.9-7.6,0-10.6C120,56.6,118.1,55.9,116.1,55.8z"/>
	</g>
</g>
</svg>
