<?xml version="1.0" encoding="utf-8"?>
<!-- Generator: Adobe Illustrator 25.2.0, SVG Export Plug-In . SVG Version: 6.00 Build 0)  -->
<svg version="1.1" id="레이어_1" xmlns="http://www.w3.org/2000/svg" xmlns:xlink="http://www.w3.org/1999/xlink" x="0px"
	 y="0px" viewBox="0 0 28.9 30.3" style="enable-background:new 0 0 28.9 30.3;" xml:space="preserve">
<g id="Layer_2_5_">
	<g>
		<path style="fill:#FFFFFF;" d="M16.2,0.5h-3.5C6,0.5,0.5,6,0.5,12.7v0.9c0,6.7,5.5,12.2,12.2,12.2h0.4c-0.3,0.8-1.3,2.8-3.9,4.1
			c0,0,7.4-0.8,13-5.7c3.7-2.1,6.3-6.1,6.3-10.6v-0.9C28.4,6,22.9,0.5,16.2,0.5z"/>
		<path style="fill:#6288D9;" d="M20,12.6L15.4,13l2.9-3.9c-0.6-1.9-2.4-1.5-2.4-1.5L13.9,12l-2.1-4.3C9.6,7.4,9.5,9.1,9.5,9.1
			l2.9,3.9l-4.6-0.4c0,0-1.1,1.2,0,2.6l4.6-0.5l-2.9,3.9c0,0,0.3,1.7,2.4,1.5l2.1-4.3l2.1,4.3c0,0,1.7,0.5,2.4-1.5l-2.9-3.9l4.6,0.4
			C21.4,14,20,12.6,20,12.6z"/>
		<g style="opacity:0.5;">
			
				<path style="fill:none;stroke:#FFFFFF;stroke-width:2.2304;stroke-linecap:round;stroke-linejoin:round;stroke-miterlimit:10;" d="
				M24.3,9.3c-1.7-3.3-5.2-5.6-9.2-5.6"/>
			
				<path style="fill:none;stroke:#FFFFFF;stroke-width:2.2304;stroke-linecap:round;stroke-linejoin:round;stroke-miterlimit:10;" d="
				M25.4,14.1c0-0.8,0-1.2-0.2-2"/>
		</g>
	</g>
</g>
<g>
</g>
<g>
</g>
<g>
</g>
<g>
</g>
<g>
</g>
<g>
</g>
<g>
</g>
<g>
</g>
<g>
</g>
<g>
</g>
<g>
</g>
<g>
</g>
<g>
</g>
<g>
</g>
<g>
</g>
</svg>
