<?xml version="1.0" encoding="utf-8"?>
<!-- Generator: Adobe Illustrator 25.2.3, SVG Export Plug-In . SVG Version: 6.00 Build 0)  -->
<svg version="1.1" id="Layer_1" xmlns="http://www.w3.org/2000/svg" xmlns:xlink="http://www.w3.org/1999/xlink" x="0px" y="0px"
	 width="52px" height="45.8px" viewBox="0 0 52 45.8" style="enable-background:new 0 0 52 45.8;" xml:space="preserve">
<style type="text/css">
	.st0{fill:url(#SVGID_1_);}
</style>
<g>
	
		<linearGradient id="SVGID_1_" gradientUnits="userSpaceOnUse" x1="-1423.0298" y1="-367.3897" x2="-1423.0298" y2="-414.7043" gradientTransform="matrix(4.489659e-11 -1 -1 -4.489659e-11 -365.9202 -1400.0798)">
		<stop  offset="0" style="stop-color:#FCCAB0"/>
		<stop  offset="0.9944" style="stop-color:#FF9999"/>
	</linearGradient>
	<path class="st0" d="M24.8,2.5L24.8,2.5c-2.5,2.5-2.5,6.5,0,9l4.9,4.9H7.1c-3.5,0-6.4,2.9-6.4,6.4s2.9,6.4,6.4,6.4H30l-5.2,5.2
		c-2.5,2.5-2.5,6.5,0,9l0,0c2.5,2.5,6.5,2.5,9,0L49.1,28c0.8-0.8,1.3-1.7,1.6-2.7c0.4-0.8,0.6-1.7,0.6-2.6c0-1.3-0.4-2.6-1.1-3.6
		c-0.3-0.5-0.6-0.9-1-1.3L33.8,2.5C31.3,0,27.3,0,24.8,2.5z"/>
</g>
</svg>
