<svg xmlns="http://www.w3.org/2000/svg" viewBox="0 0 34 28"><defs><style>.cls-1,.cls-2{fill:#fcfcef;}.cls-1{fill-rule:evenodd;}.cls-3{fill:#faa3b1;}</style></defs><g id="Layer_1" data-name="Layer 1"><path id="Triangle_2" data-name="Triangle 2" class="cls-1" d="M6.85,16.72a3,3,0,0,1-1.09-4.1,3.08,3.08,0,0,1,1.09-1.09L20,1a3,3,0,0,1,4.5,2.6v21a3,3,0,0,1-4.5,2.6Z"/><path class="cls-1" d="M7.48,9.63c2.49,0,2,2,2,4.5s.49,4.5-2,4.5a4.5,4.5,0,0,1,0-9Z"/><rect class="cls-2" x="-1" y="12.04" width="36" height="3" rx="1.5" transform="translate(11.94 -7.6) rotate(38)"/><path class="cls-3" d="M4,1.88a1.51,1.51,0,0,1,.92.32l26,20.32a1.5,1.5,0,0,1,.25,2.1A1.48,1.48,0,0,1,30,25.2a1.51,1.51,0,0,1-.92-.32L3.07,4.56a1.5,1.5,0,0,1-.25-2.1A1.48,1.48,0,0,1,4,1.88M4,.38H4A3,3,0,0,0,2.15,5.75l26,20.31a3,3,0,1,0,3.69-4.73L5.84,1A3,3,0,0,0,4,.38Z"/></g></svg>