<?xml version="1.0" encoding="utf-8"?>
<!-- Generator: Adobe Illustrator 25.2.0, SVG Export Plug-In . SVG Version: 6.00 Build 0)  -->
<svg version="1.1" id="레이어_1" xmlns="http://www.w3.org/2000/svg" xmlns:xlink="http://www.w3.org/1999/xlink" x="0px"
	 y="0px" viewBox="0 0 45 45" style="enable-background:new 0 0 45 45;" xml:space="preserve">
<style type="text/css">
	.st0{fill:#FC9625;}
	.st1{fill-rule:evenodd;clip-rule:evenodd;fill:#FCFCEF;}
	.st2{fill-rule:evenodd;clip-rule:evenodd;fill:#FFFFFF;}
</style>
<path class="st0" d="M22.5-50C34.9-50,45-39.9,45-27.5S34.9-5,22.5-5S0-15.1,0-27.5S10.1-50,22.5-50"/>
<path class="st1" d="M-17.9,20.4c1.4,0.8,1.9,2.7,1.1,4.1c-0.3,0.5-0.6,0.8-1.1,1.1l-14,8.1c-1.4,0.8-3.3,0.3-4.1-1.1
	c-0.3-0.5-0.4-1-0.4-1.5V14.9c0-1.7,1.3-3,3-3c0.5,0,1,0.1,1.5,0.4L-17.9,20.4z"/>
<path class="st0" d="M-55.1,4.5c12.4,0,22.5,10.1,22.5,22.5s-10.1,22.5-22.5,22.5S-77.6,39.4-77.6,27S-67.6,4.5-55.1,4.5"/>
<path class="st2" d="M15.9,12.7h13.8c1.7,0,3,1.3,3,3v13.8c0,1.7-1.3,3-3,3H15.9c-1.7,0-3-1.3-3-3V15.7C12.9,14,14.3,12.7,15.9,12.7
	"/>
</svg>
