<svg xmlns="http://www.w3.org/2000/svg" viewBox="0 0 71.88 105.12"><defs><style>.cls-1{fill:#fff;stroke:#3d69a7;stroke-miterlimit:10;stroke-width:6px;}</style></defs><g id="레이어_2" data-name="레이어 2"><g id="Layer_1" data-name="Layer 1"><path class="cls-1" d="M46.8,72.36c0-10.08-4.08-13.8-13.44-13.8H26v-17h7.32c6.72,0,11.16-3.12,11.16-11.28,0-6.36-3.24-10-8.64-10s-8.64,3.6-8.64,10v1.68H5.88V29.28c0-15.6,11-26.28,30-26.28S66,13.8,66,28.92c0,11.52-5.88,18-14.64,20.64C62.76,52.32,68.88,61,68.88,73.32c0,17.4-13.2,28.8-33,28.8S3,90.72,3,73.32v-3H25v2c0,8,4,12.48,10.92,12.48S46.8,80.4,46.8,72.36Z"/></g></g></svg>