<?xml version="1.0" encoding="utf-8"?>
<!-- Generator: Adobe Illustrator 25.0.1, SVG Export Plug-In . SVG Version: 6.00 Build 0)  -->
<svg version="1.1" id="레이어_1" xmlns="http://www.w3.org/2000/svg" xmlns:xlink="http://www.w3.org/1999/xlink" x="0px"
	 y="0px" width="38px" height="34.1px" viewBox="0 0 38 34.1" style="enable-background:new 0 0 38 34.1;" xml:space="preserve">
<g>
	<path style="fill:#FFFFFF;stroke:#AF78D6;stroke-width:2.3;stroke-miterlimit:10;" d="M25.4,28.6l-12.9,4.1c-2,0.6-4.2-0.5-4.8-2.5
		l-6.4-20c-0.6-2,0.5-4.2,2.5-4.8l12.9-4.1c2-0.6,4.2,0.5,4.8,2.5l6.4,20C28.6,25.8,27.4,28,25.4,28.6z"/>
	
		<line style="fill:none;stroke:#AF78D6;stroke-width:2;stroke-linecap:round;stroke-linejoin:round;stroke-miterlimit:10;" x1="18.1" y1="9.6" x2="7.5" y2="13"/>
	
		<line style="fill:none;stroke:#AF78D6;stroke-width:2;stroke-linecap:round;stroke-linejoin:round;stroke-miterlimit:10;" x1="19.9" y1="15.4" x2="9.4" y2="18.7"/>
	
		<line style="fill:none;stroke:#AF78D6;stroke-width:2;stroke-linecap:round;stroke-linejoin:round;stroke-miterlimit:10;" x1="21.8" y1="21.1" x2="11.2" y2="24.5"/>
</g>
<g>
	<g>
		<path style="fill:#FFFFFF;" d="M18.5,31.7c-1.1,0-2.1-0.4-2.8-1.2c-0.8-0.8-1.2-1.7-1.2-2.8l0-21.4c0-2.2,1.8-4,4-4l14.4,0
			c2.2,0,4,1.8,4,4l0,21.4c0,2.2-1.8,4-4,4L18.5,31.7z"/>
		<path style="fill:#AF78D6;" d="M18.5,3.5l14.4,0c1.6,0,2.8,1.3,2.8,2.8l0,21.4c0,1.6-1.3,2.8-2.8,2.8l-14.4,0
			c-1.6,0-2.8-1.3-2.8-2.8l0-21.4C15.6,4.8,16.9,3.5,18.5,3.5 M18.5,1.2L18.5,1.2c-2.8,0-5.1,2.3-5.1,5.1l0,21.4
			c0,2.8,2.3,5.1,5.1,5.1l14.4,0c1.4,0,2.7-0.5,3.6-1.5s1.5-2.3,1.5-3.6l0-21.4c0-2.8-2.3-5.1-5.1-5.1L18.5,1.2L18.5,1.2L18.5,1.2z"
			/>
	</g>
	
		<rect x="25.7" y="5.3" style="fill:#FFFFFF;stroke:#AF78D6;stroke-width:2.3;stroke-linecap:round;stroke-linejoin:round;stroke-miterlimit:10;" width="10.1" height="5.7"/>
	
		<line style="fill:none;stroke:#AF78D6;stroke-width:2.3;stroke-linecap:round;stroke-linejoin:round;stroke-miterlimit:10;" x1="30.9" y1="19.1" x2="20.4" y2="19.1"/>
	
		<line style="fill:none;stroke:#AF78D6;stroke-width:2.3;stroke-linecap:round;stroke-linejoin:round;stroke-miterlimit:10;" x1="30.9" y1="24.8" x2="20.4" y2="24.8"/>
</g>
</svg>
