<svg xmlns="http://www.w3.org/2000/svg" viewBox="0 0 45.38 43.32"><defs><style>.cls-1{fill:#4588e6;}.cls-2{fill:#a6e1ff;}</style></defs><g id="레이어_2" data-name="레이어 2"><g id="Layer_1" data-name="Layer 1"><path class="cls-1" d="M3.9,31.37.07,41.3a1.12,1.12,0,0,0,1.34,1.44l10.74-3.22a1,1,0,0,0,.33-1.73l-6.91-6.7A1,1,0,0,0,3.9,31.37Z"/><path class="cls-1" d="M4.51,30.2a2.43,2.43,0,0,0,0,3.41l5.33,5.33a2.41,2.41,0,0,0,3.41,0L38.62,13.57a.91.91,0,0,0,0-1.28L31.16,4.83a.91.91,0,0,0-1.28,0Z"/><path class="cls-1" d="M34.14.67l-1.8,1.79a.78.78,0,0,0,0,1.1L40,11.2a.77.77,0,0,0,1.09,0l1.8-1.8a2.31,2.31,0,0,0,0-3.23L37.37.67A2.29,2.29,0,0,0,34.14.67Z"/><rect class="cls-2" x="3.12" y="19.68" width="32.43" height="1.54" rx="0.77" transform="translate(-8.8 19.67) rotate(-45)"/><rect class="cls-2" x="6.88" y="23.44" width="32.43" height="1.54" rx="0.77" transform="translate(-10.35 23.42) rotate(-45)"/><path class="cls-2" d="M3.34,38.54l1.24,1.24a.85.85,0,0,0,.86.2l4.29-1.43a.84.84,0,0,0,.33-1.39L6.13,33.23a.84.84,0,0,0-1.37.26l-1.6,4.13A.85.85,0,0,0,3.34,38.54Z"/><path class="cls-1" d="M43.86,43.32H1.78a1.52,1.52,0,1,1,0-3H43.86a1.52,1.52,0,1,1,0,3Z"/></g></g></svg>