<svg xmlns="http://www.w3.org/2000/svg" viewBox="0 0 72.18 72.5"><defs><style>.cls-1{fill:#a6e1ff;}.cls-2{fill:#3886c3;}.cls-3{fill:none;stroke:#3886c3;stroke-linecap:round;stroke-miterlimit:10;stroke-width:5px;}</style></defs><g id="레이어_2" data-name="레이어 2"><g id="Layer_1" data-name="Layer 1"><path class="cls-1" d="M52.33,34A16.3,16.3,0,0,0,36.66,19.36h-.45A16.22,16.22,0,0,0,20,35.55c0,5.07,2.71,9.17,5.1,12.79,1.73,2.62,3.36,5.1,3.87,7.72a.25.25,0,0,0,.12.2,21.79,21.79,0,0,0,7.11,1.19h0a21.73,21.73,0,0,0,7.1-1.19.26.26,0,0,0,.13-.2c.51-2.62,2.14-5.1,3.87-7.72C49.94,44.36,52.91,39.84,52.33,34Z"/><path class="cls-2" d="M25.58,33.17a1.89,1.89,0,0,1-.8-.17,2,2,0,0,1-1.09-2.69,13.62,13.62,0,0,1,7.16-7.16,2.05,2.05,0,1,1,1.6,3.78,9.46,9.46,0,0,0-5,5A2.05,2.05,0,0,1,25.58,33.17Z"/><path class="cls-2" d="M50.62,50.6c2.85-4.33,6.41-9.72,5.67-17A20.42,20.42,0,0,0,36.65,15.25h-.56a20.31,20.31,0,0,0-20.3,20.3c0,6.3,3.2,11.15,5.77,15.05C23.12,53,24.47,55,24.82,56.84a4.37,4.37,0,0,0,2.83,3.31,26,26,0,0,0,8.44,1.41h0a25.94,25.94,0,0,0,8.43-1.41,4.37,4.37,0,0,0,2.83-3.31C47.7,55,49.05,53,50.62,50.6Zm-7.3,5.46a.26.26,0,0,1-.13.2,21.73,21.73,0,0,1-7.1,1.19h0A21.79,21.79,0,0,1,29,56.26a.25.25,0,0,1-.12-.2c-.51-2.62-2.14-5.1-3.87-7.72-2.39-3.62-5.1-7.72-5.1-12.79a16.22,16.22,0,0,1,16.2-16.2h.45A16.3,16.3,0,0,1,52.21,34c.59,5.8-2.39,10.32-5,14.3C45.46,51,43.83,53.44,43.32,56.06Z"/><path class="cls-2" d="M46,63a2.06,2.06,0,0,0-2.6-1.3,23.15,23.15,0,0,1-14.67,0,2.06,2.06,0,0,0-1.3,3.9,27.52,27.52,0,0,0,17.27,0A2.06,2.06,0,0,0,46,63Z"/><path class="cls-2" d="M42.93,67.22a20.46,20.46,0,0,1-13.68,0,2.05,2.05,0,1,0-1.38,3.87,24.64,24.64,0,0,0,16.43,0,2.05,2.05,0,0,0-1.37-3.87Z"/><line class="cls-3" x1="36.09" y1="9.1" x2="36.09" y2="2.5"/><line class="cls-3" x1="17" y1="17" x2="12.34" y2="12.34"/><line class="cls-3" x1="9.1" y1="36.09" x2="2.5" y2="36.09"/><line class="cls-3" x1="55.17" y1="17" x2="59.84" y2="12.34"/><line class="cls-3" x1="63.08" y1="36.09" x2="69.68" y2="36.09"/></g></g></svg>