<?xml version="1.0" encoding="utf-8"?>
<!-- Generator: Adobe Illustrator 25.0.1, SVG Export Plug-In . SVG Version: 6.00 Build 0)  -->
<svg version="1.1" xmlns="http://www.w3.org/2000/svg" xmlns:xlink="http://www.w3.org/1999/xlink" x="0px" y="0px" width="27px"
	 height="27px" viewBox="0 0 27 27" style="enable-background:new 0 0 27 27;" xml:space="preserve">
<g id="레이어_1">
</g>
<g id="Layer_1">
	<g>
		<path style="fill:#FFFFFF;" d="M22.6,23.5H4.4c-0.5,0-0.9-0.4-0.9-0.9V4.4c0-0.5,0.4-0.9,0.9-0.9h18.1c0.5,0,0.9,0.4,0.9,0.9v18.1
			C23.5,23.1,23.1,23.5,22.6,23.5z"/>
		<path style="fill:#FFFFFF;" d="M22.6,26.5H4.4c-2.2,0-3.9-1.8-3.9-3.9V4.4c0-2.2,1.8-3.9,3.9-3.9h18.1c2.2,0,3.9,1.8,3.9,3.9v18.1
			C26.5,24.7,24.7,26.5,22.6,26.5z M6.5,20.5h14v-14h-14V20.5z"/>
	</g>
</g>
</svg>
