<svg xmlns="http://www.w3.org/2000/svg" viewBox="0 0 63.2 48.49"><defs><style>.cls-1{fill:#3885c2;fill-rule:evenodd;}</style></defs><g id="레이어_2" data-name="레이어 2"><g id="Layer_1" data-name="Layer 1"><path class="cls-1" d="M18.42,4.52A23.5,23.5,0,0,1,7.71,6.92l-4,29.22c4,.07,7.43-1.2,10.61-2.36,5.42-2,10.13-3.7,15.52.86V6.25c-4.74-4.56-7.65-3.34-11.46-1.73Zm14.9,1.73V34.64c5.38-4.56,10.09-2.84,15.52-.86,3.18,1.16,6.63,2.43,10.6,2.36L55.49,6.92a23.47,23.47,0,0,1-10.71-2.4C41,2.91,38.06,1.69,33.32,6.25ZM31.6,47.6a1.16,1.16,0,0,0,.88-.42c6.67-10,16.26,1.3,26.05,1.31l.95,0c1.9-.15,1.59-.66,2-2.42l.92-3.88a49.58,49.58,0,0,1-13.8-2.67c-5.69-2.07-10.55-3.85-16.13,2.19a1.15,1.15,0,0,1-.88.41,1.14,1.14,0,0,1-.88-.41c-5.59-6-10.44-4.26-16.13-2.19A49.65,49.65,0,0,1,.79,42.16L1.71,46c.41,1.76.11,2.27,2,2.42.32,0,.63,0,.95,0,9.78,0,19.37-11.3,26.05-1.31a1.15,1.15,0,0,0,.88.42ZM5.78,4.19c5,.4,8.49-1.07,11.5-2.34,4.77-2,8.44-3.55,14.32,1.89,5.88-5.44,9.55-3.9,14.31-1.89,3,1.27,6.51,2.74,11.5,2.34h0a1.14,1.14,0,0,1,1.22,1l4.54,33.53a.59.59,0,0,1,0,.14,1.14,1.14,0,0,1-1,1.22c-5.25.43-9.58-1.15-13.53-2.6-5.69-2.07-10.55-3.85-16.13,2.19a1.16,1.16,0,0,1-.88.42,1.15,1.15,0,0,1-.88-.42c-5.59-6-10.44-4.26-16.13-2.19-4,1.45-8.28,3-13.54,2.6a1.14,1.14,0,0,1-1-1.14v-.08c0-.05,0-.1,0-.14L4.56,5.18a1.14,1.14,0,0,1,1.22-1Z"/></g></g></svg>