<?xml version="1.0" encoding="utf-8"?>
<!-- Generator: Adobe Illustrator 25.0.1, SVG Export Plug-In . SVG Version: 6.00 Build 0)  -->
<svg version="1.1" xmlns="http://www.w3.org/2000/svg" xmlns:xlink="http://www.w3.org/1999/xlink" x="0px" y="0px" width="33px"
	 height="37.4px" viewBox="0 0 33 37.4" style="enable-background:new 0 0 33 37.4;" xml:space="preserve">
<g id="레이어_1">
</g>
<g id="SPR_x5F_11_x5F_01_x5F_0103_x5F_A_x5F_02">
	<path style="fill-rule:evenodd;clip-rule:evenodd;fill:#FFFFFF;stroke:#FFFFFF;stroke-miterlimit:10;" d="M19.5,31.6h-6.1
		c-1,0-1.8-0.8-1.8-1.8v-2.9c-0.1-0.9-0.6-1.7-1.3-2.2C6,21.3,5.2,15,8.6,10.6s9.7-5.2,14.1-1.8s5.2,9.7,1.8,14.1
		c-0.5,0.7-1.1,1.3-1.8,1.8c-0.7,0.5-1.2,1.3-1.3,2.2v2.9C21.3,30.8,20.5,31.6,19.5,31.6z M19.6,26.9c0.1-1.4,0.8-2.7,1.9-3.6
		c3.6-2.8,4.3-8,1.5-11.7c-2.8-3.6-8-4.3-11.7-1.5s-4.3,8-1.5,11.7c0.4,0.6,0.9,1.1,1.5,1.5c1.1,0.9,1.8,2.2,1.9,3.6v2.9
		c0,0.1,0,0.1,0.1,0.1h6c0,0,0,0,0,0c0,0,0,0,0,0L19.6,26.9z M15.1,36.8c-0.7,0-1.2-0.3-1.3-1v-1.5h5.3v1.5
		c-0.1,0.6-0.5,0.9-1.2,0.9C17.2,36.8,15.9,36.8,15.1,36.8z M17.2,1.3c0-0.4-0.2-0.7-0.6-0.8c-0.4,0-0.7,0.2-0.8,0.6
		c0,0,0,2.4,0,2.4c0,0.4,0.2,0.7,0.6,0.8c0.4,0,0.7-0.2,0.8-0.6C17.2,3.7,17.2,1.3,17.2,1.3z M29,7c0.3-0.2,0.3-0.7,0.1-1
		c-0.2-0.3-0.7-0.3-1-0.1c0,0-1.7,1.7-1.7,1.7c-0.3,0.2-0.3,0.7-0.1,1c0.2,0.3,0.7,0.3,1,0.1C27.4,8.7,29,7,29,7z M31.7,17.3
		c0.4,0,0.7-0.2,0.8-0.6c0-0.4-0.2-0.7-0.6-0.8c0,0-2.4,0-2.4,0c-0.4,0-0.7,0.2-0.8,0.6c0,0.4,0.2,0.7,0.6,0.8
		C29.3,17.3,31.7,17.3,31.7,17.3L31.7,17.3z M27,28.2c0.2,0.3,0.7,0.3,1,0.1c0.3-0.2,0.3-0.7,0.1-1c0,0-0.1-0.1-0.1-0.1l-1.6-1.6
		c-0.2-0.3-0.7-0.3-1-0.1c-0.3,0.2-0.3,0.7-0.1,1c0,0,0.1,0.1,0.1,0.1L27,28.2z M5.1,5c-0.2-0.3-0.7-0.3-1-0.1
		C3.8,5.2,3.8,5.6,4,5.9c0,0,1.7,1.7,1.7,1.7c0.2,0.3,0.7,0.3,1,0.1C7,7.5,7.1,7,6.8,6.7C6.8,6.7,5.1,5,5.1,5z M1.3,15.8
		c-0.4,0-0.7,0.2-0.8,0.6c0,0.4,0.2,0.8,0.6,0.8c0.5,0,2.4,0,2.4,0c0.4,0,0.7-0.2,0.8-0.6c0-0.4-0.2-0.7-0.6-0.8
		C3.7,15.7,1.3,15.8,1.3,15.8z M5.1,27.2c-0.3,0.2-0.3,0.7-0.1,1c0.2,0.3,0.7,0.3,1,0.1c0,0,0.1-0.1,0.1-0.1l1.6-1.6
		c0.3-0.2,0.3-0.7,0.1-1c-0.2-0.3-0.7-0.3-1-0.1c0,0-0.1,0.1-0.1,0.1L5.1,27.2z"/>
</g>
</svg>
