<?xml version="1.0" encoding="utf-8"?>
<!-- Generator: Adobe Illustrator 25.0.1, SVG Export Plug-In . SVG Version: 6.00 Build 0)  -->
<svg version="1.1" xmlns="http://www.w3.org/2000/svg" xmlns:xlink="http://www.w3.org/1999/xlink" x="0px" y="0px" width="26px"
	 height="27.4px" viewBox="0 0 26 27.4" style="enable-background:new 0 0 26 27.4;" xml:space="preserve">
<g id="레이어_1">
</g>
<g id="Layer_19">
	<g>
		<path style="fill:#F43414;" d="M14.6,0.5h-3.2c-6,0-10.9,4.9-10.9,10.9v0.8c0,6,4.9,10.9,10.9,10.9h0.4c-0.3,0.7-1.1,2.5-3.5,3.7
			c0,0,6.6-0.8,11.6-5.1c3.3-1.9,5.6-5.4,5.6-9.5v-0.8C25.5,5.4,20.6,0.5,14.6,0.5z"/>
		<path style="fill:#FFFFFF;" d="M18.5,10.9l-4.1,0.4l2.6-3.5c-0.5-1.7-2.1-1.4-2.1-1.4l-1.8,3.9l-1.8-3.9C9.1,6.2,9,7.8,9,7.8
			l2.6,3.5l-4.1-0.4c0,0-1,1.1,0,2.3l4.1-0.4L9,16.3c0,0,0.2,1.6,2.1,1.4l1.8-3.9l1.8,3.9c0,0,1.5,0.5,2.1-1.4l-2.6-3.5l4.1,0.4
			C19.7,12.1,18.5,10.9,18.5,10.9z"/>
		<g style="opacity:0.5;">
			<path style="fill:none;stroke:#FFFFFF;stroke-width:2;stroke-linecap:round;stroke-linejoin:round;stroke-miterlimit:10;" d="
				M22.3,8c-1.5-3-4.7-5-8.3-5"/>
			<path style="fill:none;stroke:#FFFFFF;stroke-width:2;stroke-linecap:round;stroke-linejoin:round;stroke-miterlimit:10;" d="
				M23.3,12.2c0-0.7,0-1.1-0.2-1.8"/>
		</g>
	</g>
</g>
</svg>
