<?xml version="1.0" encoding="utf-8"?>
<!-- Generator: Adobe Illustrator 16.0.0, SVG Export Plug-In . SVG Version: 6.00 Build 0)  -->
<!DOCTYPE svg PUBLIC "-//W3C//DTD SVG 1.1//EN" "http://www.w3.org/Graphics/SVG/1.1/DTD/svg11.dtd">
<svg version="1.1" id="레이어_1" xmlns="http://www.w3.org/2000/svg" xmlns:xlink="http://www.w3.org/1999/xlink" x="0px"
	 y="0px" width="45px" height="45px" viewBox="0 0 45 45" enable-background="new 0 0 45 45" xml:space="preserve">
<path fill="#FC9625" d="M22.5-50C34.926-50,45-39.926,45-27.5S34.926-5,22.5-5C10.074-5,0-15.074,0-27.5S10.074-50,22.5-50"/>
<path fill-rule="evenodd" clip-rule="evenodd" fill="#FCFCEF" d="M-17.901,20.421c1.437,0.827,1.93,2.661,1.103,4.097
	c-0.264,0.459-0.644,0.839-1.103,1.104l-14,8.077c-1.435,0.828-3.27,0.337-4.098-1.099c-0.264-0.456-0.402-0.974-0.402-1.502V14.943
	c-0.001-1.657,1.341-3.001,2.998-3.002c0.527,0,1.045,0.139,1.502,0.401L-17.901,20.421z"/>
<path fill="#FC9625" d="M-55.125,4.5c12.426,0,22.5,10.074,22.5,22.5s-10.074,22.5-22.5,22.5c-12.426,0-22.5-10.074-22.5-22.5
	S-67.551,4.5-55.125,4.5"/>
<path fill-rule="evenodd" clip-rule="evenodd" fill="#FCFCEF" d="M15.928,12.678h13.789c1.656,0,3,1.344,3,3v13.788
	c0,1.657-1.344,3-3,3H15.928c-1.656,0-3-1.343-3-3V15.678C12.928,14.021,14.271,12.678,15.928,12.678"/>
</svg>
