<svg xmlns="http://www.w3.org/2000/svg" viewBox="0 0 71.52 105.12"><defs><style>.cls-1{fill:#fff;stroke:#3d69a7;stroke-miterlimit:10;stroke-width:6px;}</style></defs><g id="레이어_2" data-name="레이어 2"><g id="Layer_1" data-name="Layer 1"><path class="cls-1" d="M26.76,76.44c.48,6.12,3.24,9.12,8.52,9.12,7.8,0,11.16-7.32,11.4-26.52-3,4.92-8.88,7.8-16.2,7.8C15.24,66.84,3,55.44,3,35.28,3,15.48,15.48,3,35.28,3,47,3,56.52,7.32,62.16,16.68c5,8.28,6.36,19.92,6.36,33.48,0,37.92-10.56,52-33.48,52-17.76,0-28.92-9.6-30.12-25.68Zm9-56c-7,0-10.68,5.16-10.68,15s3.72,15,10.68,15c6.72,0,10.56-5.16,10.56-15S42.48,20.4,35.76,20.4Z"/></g></g></svg>