<?xml version="1.0" encoding="utf-8"?>
<!-- Generator: Adobe Illustrator 25.2.0, SVG Export Plug-In . SVG Version: 6.00 Build 0)  -->
<svg version="1.1" id="레이어_1" xmlns="http://www.w3.org/2000/svg" xmlns:xlink="http://www.w3.org/1999/xlink" x="0px"
	 y="0px" viewBox="0 0 63 63" style="enable-background:new 0 0 63 63;" xml:space="preserve">
<g id="레이어_1_1_">
</g>
<g>
	<g>
		<g>
			<path style="fill:#FFFFFF;" d="M0.5,51c0-3.1,1.2-5.9,3.3-8.1l11.5-11.5L3.8,20c-2.2-2.2-3.3-5-3.3-8.1c0-3.1,1.2-5.9,3.3-8.1
				c2.2-2.2,5-3.3,8.1-3.3c3.1,0,5.9,1.2,8.1,3.3l11.5,11.5L43,3.8c2.2-2.2,5-3.3,8.1-3.3c3.1,0,5.9,1.2,8.1,3.3
				c2.2,2.2,3.3,5,3.3,8.1c0,3.1-1.2,5.9-3.3,8.1L47.7,31.5l11.5,11.5c2.2,2.2,3.3,5,3.3,8.1s-1.2,5.9-3.3,8.1
				c-4.5,4.5-11.7,4.5-16.2,0L31.5,47.7L20,59.2c-4.5,4.5-11.7,4.5-16.2,0C1.7,57,0.5,54.1,0.5,51z"/>
		</g>
	</g>
	<g>
		<path style="fill:#FF5AAC;" d="M5.7,44.7L44.8,5.6c3.5-3.5,9.2-3.5,12.7,0l0,0c3.5,3.5,3.5,9.2,0,12.7L18.4,57.4
			c-3.5,3.5-9.2,3.5-12.7,0l0,0C2.2,53.9,2.2,48.2,5.7,44.7z"/>
	</g>
	<g>
		<path style="fill:#FF5AAC;" d="M18.4,5.6l39.1,39.1c3.5,3.5,3.5,9.2,0,12.7h0c-3.5,3.5-9.2,3.5-12.7,0L5.7,18.3
			c-3.5-3.5-3.5-9.2,0-12.7v0C9.2,2.1,14.9,2.1,18.4,5.6z"/>
	</g>
</g>
</svg>
