<?xml version="1.0" encoding="utf-8"?>
<!-- Generator: Adobe Illustrator 25.1.0, SVG Export Plug-In . SVG Version: 6.00 Build 0)  -->
<svg version="1.1" id="레이어_1" xmlns="http://www.w3.org/2000/svg" xmlns:xlink="http://www.w3.org/1999/xlink" x="0px"
	 y="0px" viewBox="0 0 38 38" style="enable-background:new 0 0 38 38;" xml:space="preserve">
<style type="text/css">
	.st0{fill:#FFFFFF;}
</style>
<g id="bg">
</g>
<g id="레이어_1_1_">
	<path class="st0" d="M1.5,36.7c0.4,0.5,1,0.7,1.6,0.7s1.2-0.3,1.6-0.7l9.4-9.6c2.4,1.7,5.4,2.8,8.6,2.8c8,0,14.6-6.5,14.6-14.6
		S30.7,0.6,22.6,0.7C14.6,0.7,8,7.2,8,15.3c0,3.2,1,6.2,2.8,8.6l-9.4,9.6C0.5,34.4,0.5,35.8,1.5,36.7z M22.6,25.4
		c-5.6,0-10.1-4.6-10.1-10.1c0-5.6,4.6-10.1,10.1-10.1c5.6,0,10.1,4.6,10.1,10.1S28.2,25.3,22.6,25.4z"/>
</g>
</svg>
