<?xml version="1.0" encoding="utf-8"?>
<!-- Generator: Adobe Illustrator 25.0.1, SVG Export Plug-In . SVG Version: 6.00 Build 0)  -->
<svg version="1.1" id="레이어_1" xmlns="http://www.w3.org/2000/svg" xmlns:xlink="http://www.w3.org/1999/xlink" x="0px"
	 y="0px" width="93px" height="93px" viewBox="0 0 93 93" style="enable-background:new 0 0 93 93;" xml:space="preserve">
<g>
	<g>
		
			<radialGradient id="SVGID_1_" cx="-2156.2007" cy="-3105.1873" r="21.5246" gradientTransform="matrix(1.9048 0 0 1.9048 4153.6313 5961.2612)" gradientUnits="userSpaceOnUse">
			<stop  offset="0" style="stop-color:#EC631A"/>
			<stop  offset="1" style="stop-color:#E72C19"/>
		</radialGradient>
		<path style="fill:url(#SVGID_1_);" d="M59.1,46.5l25.8-25.7c3.5-3.5,3.5-9.1,0-12.6l0,0c-3.5-3.5-9.1-3.5-12.6,0L46.5,33.9
			L20.9,8.1c-3.5-3.5-9.1-3.5-12.6,0c-3.5,3.5-3.5,9.1,0,12.6l25.7,25.8L8.1,72.1c-3.5,3.5-3.5,9.1,0,12.6c3.5,3.5,9.1,3.5,12.6,0
			l25.8-25.7l25.7,25.8c3.5,3.5,9.1,3.5,12.6,0l0,0c3.5-3.5,3.5-9.1,0-12.6L59.1,46.5z"/>
		<path style="fill:#FFFFFF;" d="M14.6,5.5c2.3,0,4.6,0.9,6.3,2.6l25.7,25.8L72.3,8.2c1.7-1.7,4-2.6,6.3-2.6c2.3,0,4.6,0.9,6.3,2.6
			c3.5,3.5,3.5,9.1,0,12.6L59.1,46.5l25.7,25.8c3.5,3.5,3.5,9.1,0,12.6c-1.7,1.7-4,2.6-6.3,2.6c-2.3,0-4.6-0.9-6.3-2.6L46.5,59.1
			L20.7,84.8c-1.7,1.7-4,2.6-6.3,2.6c-2.3,0-4.6-0.9-6.3-2.6c-3.5-3.5-3.5-9.1,0-12.6l25.8-25.7L8.2,20.7c-3.5-3.5-3.5-9.1,0-12.6
			C10,6.4,12.3,5.5,14.6,5.5 M14.6,0.5l0,5L14.6,0.5c-3.7,0-7.2,1.4-9.8,4.1c-5.4,5.4-5.4,14.2,0,19.7l22.1,22.2L4.6,68.6
			c-2.6,2.6-4.1,6.1-4.1,9.8c0,3.7,1.4,7.2,4.1,9.9c2.6,2.6,6.1,4.1,9.8,4.1c3.7,0,7.2-1.4,9.8-4.1l22.2-22.1l22.1,22.2
			c2.6,2.6,6.1,4.1,9.9,4.1c3.7,0,7.2-1.4,9.8-4.1c5.4-5.4,5.4-14.2,0-19.7L66.2,46.5l22.2-22.1c2.6-2.6,4.1-6.1,4.1-9.8
			c0-3.7-1.4-7.2-4.1-9.9c-2.6-2.6-6.1-4.1-9.8-4.1c-3.7,0-7.2,1.4-9.8,4.1L46.5,26.8L24.4,4.6C21.8,2,18.3,0.5,14.6,0.5L14.6,0.5z"
			/>
	</g>
	<g style="opacity:0.8;">
		<path style="fill:#FFFFFF;" d="M46.5,45.2C46.5,45.2,46.5,45.2,46.5,45.2c-0.7,0-1.3-0.3-1.8-0.7L19.1,18.7c-1-1-1-2.6,0-3.5
			c1-1,2.6-1,3.5,0l23.9,24l7.7-7.7c1-1,2.6-1,3.5,0c1,1,1,2.6,0,3.5l-9.5,9.5C47.8,44.9,47.2,45.2,46.5,45.2z"/>
		<path style="fill:#FFFFFF;" d="M62.2,29.6c-0.7,0-1.3-0.3-1.8-0.8c-1-1-0.9-2.6,0.1-3.5l1.4-1.3c1-1,2.6-0.9,3.5,0.1
			c1,1,0.9,2.6-0.1,3.5l-1.4,1.3C63.4,29.3,62.8,29.6,62.2,29.6z"/>
		<path style="fill:#FFFFFF;" d="M78.5,77.3c-0.6,0-1.3-0.2-1.8-0.7L57.3,57.1c-1-1-1-2.6,0-3.5c1-1,2.6-1,3.5,0l19.4,19.5
			c1,1,1,2.6,0,3.5C79.8,77.1,79.2,77.3,78.5,77.3z"/>
	</g>
</g>
</svg>
