<svg xmlns="http://www.w3.org/2000/svg" viewBox="0 0 42 36"><defs><style>.cls-1{fill:#fff;}</style></defs><g id="Layer_1" data-name="Layer 1"><path class="cls-1" d="M36.142,35.464h-14a1.5,1.5,0,1,1,0-3h14a2.5,2.5,0,0,0,2.5-2.5V12.585L29.521,3.464H16.142a2.5,2.5,0,0,0-2.5,2.5V7.179a1.5,1.5,0,0,1-3,0V5.964a5.506,5.506,0,0,1,5.5-5.5h14A1.5,1.5,0,0,1,31.2.9l10,10a1.5,1.5,0,0,1,.44,1.06v18A5.506,5.506,0,0,1,36.142,35.464Z"/><path class="cls-1" d="M40.142,13.464h-6a5.506,5.506,0,0,1-5.5-5.5v-6a1.5,1.5,0,0,1,3,0v6a2.5,2.5,0,0,0,2.5,2.5h6a1.5,1.5,0,0,1,0,3Z"/><path class="cls-1" d="M12.142,35.536a2.5,2.5,0,0,1-2.5-2.5V14.471a2.5,2.5,0,0,1,5,0V33.036A2.5,2.5,0,0,1,12.142,35.536Z"/><path class="cls-1" d="M21.424,26.253H2.858a2.5,2.5,0,0,1,0-5H21.424a2.5,2.5,0,0,1,0,5Z"/></g></svg>