<?xml version="1.0" encoding="utf-8"?>
<!-- Generator: Adobe Illustrator 25.0.1, SVG Export Plug-In . SVG Version: 6.00 Build 0)  -->
<svg version="1.1" id="레이어_1" xmlns="http://www.w3.org/2000/svg" xmlns:xlink="http://www.w3.org/1999/xlink" x="0px"
	 y="0px" width="67px" height="68.7px" viewBox="0 0 67 68.7" style="enable-background:new 0 0 67 68.7;" xml:space="preserve">
<g>
	<g>
		<g>
			
				<radialGradient id="SVGID_1_" cx="-3448.2588" cy="-1797.7485" r="125.8999" gradientTransform="matrix(0.2623 0 0 0.2596 937.9529 502.2219)" gradientUnits="userSpaceOnUse">
				<stop  offset="0.9123" style="stop-color:#C4C4C4"/>
				<stop  offset="0.9623" style="stop-color:#E4E4E4"/>
				<stop  offset="1" style="stop-color:#FFFFFF"/>
			</radialGradient>
			<path style="opacity:0.7;fill:url(#SVGID_1_);" d="M66.5,35.5c0,18-14.8,32.7-33,32.7s-33-14.6-33-32.7c0-18,14.8-32.7,33-32.7
				S66.5,17.5,66.5,35.5z"/>
			<g>
				<defs>
					
						<ellipse id="SVGID_2_" transform="matrix(0.9927 -0.1208 0.1208 0.9927 -3.6627 4.2829)" cx="33.5" cy="32.4" rx="31.5" ry="31.5"/>
				</defs>
				<use xlink:href="#SVGID_2_"  style="overflow:visible;fill:#8CC63F;"/>
				<clipPath id="SVGID_3_">
					<use xlink:href="#SVGID_2_"  style="overflow:visible;"/>
				</clipPath>
				<path style="clip-path:url(#SVGID_3_);fill:#FF0000;" d="M65.4,32.4c0,17.6-14.3,31.9-31.9,31.9C16,64.2,1.7,49.9,1.6,32.4
					c0-17.6,14.3-31.9,31.9-31.9C51.1,0.5,65.4,14.8,65.4,32.4z"/>
			</g>
		</g>
		<g>
			<g>
				<circle style="fill:#333333;" cx="46.2" cy="23.4" r="3.6"/>
				<circle style="fill:#333333;" cx="20.8" cy="23.4" r="3.6"/>
			</g>
		</g>
	</g>
	<path style="fill:#333333;" d="M47.9,48.9c-0.6,0-1.1-0.3-1.5-0.8c-2.3-3.5-7.1-5.8-12.3-5.8s-10,2.3-12.3,5.8
		c-0.5,0.8-1.6,1-2.4,0.5c-0.8-0.5-1-1.6-0.5-2.4c3-4.6,8.8-7.4,15.2-7.4s12.3,2.8,15.2,7.4c0.5,0.8,0.3,1.9-0.5,2.4
		C48.6,48.8,48.2,48.9,47.9,48.9z"/>
</g>
</svg>
