<?xml version="1.0" encoding="utf-8"?>
<!-- Generator: Adobe Illustrator 25.1.0, SVG Export Plug-In . SVG Version: 6.00 Build 0)  -->
<svg version="1.1" xmlns="http://www.w3.org/2000/svg" xmlns:xlink="http://www.w3.org/1999/xlink" x="0px" y="0px" width="182px"
	 height="369.1px" viewBox="0 0 182 369.1" style="enable-background:new 0 0 182 369.1;" xml:space="preserve">
<g id="레이어_1">
</g>
<g id="Layer_1">
	<circle style="fill:#F4824A;" cx="91" cy="277" r="90"/>
	<radialGradient id="SVGID_1_" cx="91" cy="277.0278" r="81.8182" gradientUnits="userSpaceOnUse">
		<stop  offset="0" style="stop-color:#F47F20"/>
		<stop  offset="1" style="stop-color:#EE4525"/>
	</radialGradient>
	<circle style="fill:url(#SVGID_1_);" cx="91" cy="277" r="81.8"/>
	<g style="opacity:0.8;">
		<path style="fill:#FFFFFF;" d="M148.8,251.5c-2,0-3.9-1-4.9-2.8c-0.9-1.5-1.8-3-2.8-4.4c-1.8-2.6-1.2-6.2,1.4-8
			c2.6-1.8,6.2-1.2,8,1.4c1.2,1.6,2.3,3.4,3.3,5.1c1.6,2.7,0.7,6.2-2,7.8C150.8,251.2,149.8,251.5,148.8,251.5z"/>
		<path style="fill:#FFFFFF;" d="M133.4,233.2c-1.3,0-2.6-0.4-3.7-1.4c-10.9-9.2-24.2-14.6-38.4-15.4c-3.2-0.2-5.6-2.9-5.4-6.1
			c0.2-3.2,3-5.6,6.1-5.4c16.8,1,32.4,7.3,45.1,18.1c2.4,2,2.7,5.7,0.7,8.1C136.6,232.5,135,233.2,133.4,233.2z"/>
	</g>
	<path style="fill:#F9ED36;stroke:#FFFFFF;stroke-width:3;stroke-miterlimit:10;" d="M102.8,276.7l26.7-26.6c3.6-3.6,3.6-9.5,0-13.1
		c-3.6-3.6-9.4-3.6-13.1,0l-26.7,26.6l-26.6-26.7c-3.6-3.6-9.5-3.6-13.1,0c-3.6,3.6-3.6,9.4,0,13.1l26.6,26.7l-26.7,26.6
		c-3.6,3.6-3.6,9.5,0,13.1c3.6,3.6,9.4,3.6,13.1,0l26.7-26.6l26.6,26.7c3.6,3.6,9.5,3.6,13.1,0c3.6-3.6,3.6-9.4,0-13.1L102.8,276.7z
		"/>
	<g>
		<g>
			<circle style="fill:#F4824A;" cx="91" cy="92" r="90"/>
			<radialGradient id="SVGID_2_" cx="91" cy="92.0278" r="81.8182" gradientUnits="userSpaceOnUse">
				<stop  offset="0" style="stop-color:#F47F20"/>
				<stop  offset="1" style="stop-color:#EE4525"/>
			</radialGradient>
			<circle style="fill:url(#SVGID_2_);" cx="91" cy="92" r="81.8"/>
			<g style="opacity:0.5;">
				<path style="fill:#FFFFFF;" d="M148.8,66.5c-2,0-3.9-1-4.9-2.8c-0.9-1.5-1.8-3-2.8-4.4c-1.8-2.6-1.2-6.2,1.4-8
					c2.6-1.8,6.2-1.2,8,1.4c1.2,1.6,2.3,3.4,3.3,5.1c1.6,2.7,0.7,6.2-2,7.8C150.8,66.2,149.8,66.5,148.8,66.5z"/>
				<path style="fill:#FFFFFF;" d="M133.4,48.2c-1.3,0-2.6-0.4-3.7-1.4c-10.9-9.2-24.2-14.6-38.4-15.4c-3.2-0.2-5.6-2.9-5.4-6.1
					c0.2-3.2,3-5.6,6.1-5.4c16.8,1,32.4,7.3,45.1,18.1c2.4,2,2.7,5.7,0.7,8.1C136.6,47.5,135,48.2,133.4,48.2z"/>
			</g>
		</g>
		<g>
			<g>
				<path style="fill:#FFFFFF;" d="M63,57.3c-1.9,0-3.8,0.7-5.3,2.2c-2.9,2.9-2.9,7.6,0,10.6l53.6,53.8c1.5,1.5,3.4,2.2,5.3,2.2
					c1.9,0,3.8-0.7,5.3-2.2c2.9-2.9,2.9-7.6,0-10.6L68.3,59.5C66.8,58,64.9,57.3,63,57.3L63,57.3z"/>
			</g>
			<g>
				<path style="fill:#FFFFFF;" d="M116.6,57.4c-1.9,0-3.8,0.7-5.3,2.2l-53.8,53.6c-2.9,2.9-2.9,7.7,0,10.6c1.5,1.5,3.4,2.2,5.3,2.2
					c1.9,0,3.8-0.7,5.3-2.2l53.8-53.6c2.9-2.9,2.9-7.7,0-10.6C120.5,58.1,118.6,57.4,116.6,57.4L116.6,57.4z"/>
			</g>
		</g>
	</g>
</g>
</svg>
