<?xml version="1.0" encoding="utf-8"?>
<!-- Generator: Adobe Illustrator 25.2.0, SVG Export Plug-In . SVG Version: 6.00 Build 0)  -->
<svg version="1.1" id="레이어_1" xmlns="http://www.w3.org/2000/svg" xmlns:xlink="http://www.w3.org/1999/xlink" x="0px"
	 y="0px" viewBox="0 0 36.4 33.9" style="enable-background:new 0 0 36.4 33.9;" xml:space="preserve">
<g>
	<g>
		<path style="fill:#FF901E;" d="M11.5,32.7C10.2,32.6,9,32,8.2,30.9L2,22.2c-1.4-1.9-0.9-4.6,1-5.9c0.7-0.5,1.6-0.8,2.5-0.8
			c1.4,0,2.7,0.7,3.5,1.8l3,4.2L27.7,2.7c0.8-1,2-1.5,3.3-1.5c1,0,2,0.4,2.7,1c0.9,0.7,1.4,1.8,1.5,2.9c0.1,1.1-0.2,2.2-1,3.1
			l-19.2,23c-0.8,1-2,1.5-3.3,1.5L11.5,32.7z"/>
		<path style="fill:#FFFFFF;" d="M30.9,2.4c0.7,0,1.4,0.2,1.9,0.7c1.3,1.1,1.5,3,0.4,4.3L14,30.4c-0.6,0.7-1.4,1.1-2.3,1.1
			c0,0-0.1,0-0.1,0c-0.9,0-1.8-0.5-2.4-1.3L3,21.5c-1-1.4-0.7-3.3,0.7-4.2c0.5-0.4,1.2-0.6,1.8-0.6c0.9,0,1.9,0.4,2.5,1.3l3.9,5.5
			l16.7-20C29.2,2.8,30.1,2.4,30.9,2.4 M30.9,0L30.9,0c-1.6,0-3.2,0.7-4.2,2L12,19.5l-2.1-2.9c-1-1.4-2.7-2.3-4.5-2.3
			c-1.1,0-2.2,0.4-3.2,1c-2.5,1.8-3,5.2-1.3,7.6l6.2,8.7c1,1.4,2.6,2.2,4.2,2.3c0.1,0,0.1,0,0.2,0c1.6,0,3.2-0.7,4.2-2L35.1,9
			c0.9-1.1,1.4-2.5,1.3-4c-0.1-1.5-0.8-2.8-1.9-3.7C33.5,0.5,32.2,0,30.9,0L30.9,0z"/>
	</g>
</g>
<g>
</g>
<g>
</g>
<g>
</g>
<g>
</g>
<g>
</g>
<g>
</g>
<g>
</g>
<g>
</g>
<g>
</g>
<g>
</g>
<g>
</g>
<g>
</g>
<g>
</g>
<g>
</g>
<g>
</g>
</svg>
