<?xml version="1.0" encoding="utf-8"?>
<!-- Generator: Adobe Illustrator 25.0.1, SVG Export Plug-In . SVG Version: 6.00 Build 0)  -->
<svg version="1.1" id="레이어_1" xmlns="http://www.w3.org/2000/svg" xmlns:xlink="http://www.w3.org/1999/xlink" x="0px"
	 y="0px" width="103px" height="103px" viewBox="0 0 103 103" style="enable-background:new 0 0 103 103;" xml:space="preserve">
<g>
	<g>
		<g>
			<radialGradient id="SVGID_1_" cx="51.4999" cy="51.5002" r="46" gradientUnits="userSpaceOnUse">
				<stop  offset="0" style="stop-color:#EC631A"/>
				<stop  offset="1" style="stop-color:#E72C19"/>
			</radialGradient>
			<path style="fill:url(#SVGID_1_);" d="M51.5,5.5c-25.4,0-46,20.6-46,46s20.6,46,46,46c25.4,0,46-20.6,46-46S76.9,5.5,51.5,5.5z
				 M84.1,51.5c0,6.8-2.1,13.1-5.6,18.3L33.2,24.5c5.2-3.6,11.5-5.6,18.3-5.6C69.5,18.9,84.1,33.5,84.1,51.5z M18.9,51.5
				c0-5.6,1.4-11,4-15.6l44.2,44.2c-4.6,2.5-10,4-15.6,4C33.5,84.1,18.9,69.5,18.9,51.5z"/>
			<path style="fill:#FFFFFF;" d="M51.5,5.5c25.4,0,46,20.6,46,46c0,25.4-20.6,46-46,46c-25.4,0-46-20.6-46-46
				C5.5,26.1,26.1,5.5,51.5,5.5 M78.5,69.8c3.6-5.2,5.6-11.5,5.6-18.3c0-18-14.6-32.6-32.6-32.6c-6.8,0-13.1,2.1-18.3,5.6L78.5,69.8
				 M51.5,84.1c5.6,0,11-1.4,15.6-4L22.9,35.9c-2.5,4.6-4,10-4,15.6C18.9,69.5,33.5,84.1,51.5,84.1 M51.5,0.5c-28.1,0-51,22.9-51,51
				s22.9,51,51,51c28.1,0,51-22.9,51-51S79.6,0.5,51.5,0.5L51.5,0.5z M41.5,25.8c3.2-1.2,6.6-1.9,10-1.9c15.2,0,27.6,12.4,27.6,27.6
				c0,3.5-0.6,6.8-1.9,10L41.5,25.8L41.5,25.8z M51.5,79.1c-15.2,0-27.6-12.4-27.6-27.6c0-2.3,0.3-4.5,0.8-6.7l33.5,33.5
				C56,78.8,53.8,79.1,51.5,79.1L51.5,79.1z"/>
		</g>
		<path style="opacity:0.8;fill:#FFFFFF;" d="M87.8,38.2c-1,0-1.9-0.6-2.3-1.5c-0.2-0.5-0.4-0.9-0.7-1.4c-0.6-1.2-0.1-2.7,1.1-3.3
			c1.2-0.6,2.7-0.1,3.3,1.1c0.3,0.5,0.5,1.1,0.7,1.6c0.6,1.3,0,2.7-1.3,3.3C88.5,38.1,88.2,38.2,87.8,38.2z M82.8,29.8
			c-0.7,0-1.5-0.3-2-1c-7.1-9.2-17.8-14.4-29.4-14.4c-1.4,0-2.5-1.1-2.5-2.5s1.1-2.5,2.5-2.5c13.1,0,25.3,6,33.3,16.3
			c0.8,1.1,0.6,2.7-0.4,3.5C83.9,29.6,83.4,29.8,82.8,29.8z"/>
	</g>
</g>
</svg>
