<?xml version="1.0" encoding="utf-8"?>
<!-- Generator: Adobe Illustrator 25.0.1, SVG Export Plug-In . SVG Version: 6.00 Build 0)  -->
<svg version="1.1" xmlns="http://www.w3.org/2000/svg" xmlns:xlink="http://www.w3.org/1999/xlink" x="0px" y="0px" width="32px"
	 height="33.1px" viewBox="0 0 32 33.1" style="enable-background:new 0 0 32 33.1;" xml:space="preserve">
<g id="레이어_1">
</g>
<g id="Layer_1">
	<g>
		<path style="fill:#FFFFFF;" d="M30.1,25h-2.9v-4c0-0.8-0.6-1.5-1.3-1.7l0,0c-0.1,0-0.3,0-0.4,0h-3.1c-0.3,0-0.6,0.1-0.8,0.2
			c-0.1,0.1-0.3,0.2-0.4,0.3l0,0c-0.3,0.3-0.5,0.8-0.5,1.2v4h-2.9c-0.7,0-1.3,0.6-1.3,1.3c0,0.1,0,0.3,0,0.4
			c0.1,0.3,0.2,0.5,0.4,0.7l6.2,5.1c0.5,0.4,1.2,0.4,1.7,0l6.3-5.1c0.6-0.5,0.7-1.3,0.2-1.8C30.9,25.2,30.6,25,30.1,25z"/>
		<path style="fill:#FFFFFF;" d="M14.7,28.9c-1.4-1.2-1.6-3.2-0.5-4.7c0.6-0.8,1.6-1.2,2.6-1.2h0.9v-3c0-2.1,1.7-3.7,3.8-3.7h3.1
			c0.2,0,0.5,0,0.7,0.1v-13c0-1.7-1.3-3-3-3h-19c-1.7,0-3,1.3-3,3v24c0,1.7,1.3,3,3,3h13.3L14.7,28.9z M6.8,5.2h12
			c0.8,0,1.5,0.7,1.5,1.5c0,0.8-0.7,1.5-1.5,1.5h-12C6,8.2,5.3,7.5,5.3,6.7C5.3,5.9,5.9,5.2,6.8,5.2L6.8,5.2z M6.8,11.2h12
			c0.8,0,1.5,0.7,1.5,1.5s-0.7,1.5-1.5,1.5h-12c-0.8,0-1.5-0.7-1.5-1.5S5.9,11.2,6.8,11.2L6.8,11.2z M5.3,18.7
			c0-0.8,0.7-1.5,1.5-1.5h7c0.8,0,1.5,0.7,1.5,1.5s-0.7,1.5-1.5,1.5h-7C5.9,20.2,5.3,19.6,5.3,18.7L5.3,18.7z"/>
	</g>
</g>
</svg>
