<?xml version="1.0" encoding="utf-8"?>
<!-- Generator: Adobe Illustrator 25.2.0, SVG Export Plug-In . SVG Version: 6.00 Build 0)  -->
<svg version="1.1" id="레이어_1" xmlns="http://www.w3.org/2000/svg" xmlns:xlink="http://www.w3.org/1999/xlink" x="0px"
	 y="0px" viewBox="0 0 34.6 24" style="enable-background:new 0 0 34.6 24;" xml:space="preserve">
<g id="레이어_1_1_">
</g>
<g>
	<g>
		<path style="fill-rule:evenodd;clip-rule:evenodd;fill:#FFFFFF;" d="M22.7,2.4v7.4l-1.1-0.9l-1.1,0.9V2.9
			c-0.8,0.3-1.6,0.7-2.2,1.3v16.6c3.8-1.6,9.9-1.7,14.1-0.4v-17c-1.6-0.9-5-1.2-6.5-1.2C24.8,2.2,23.7,2.2,22.7,2.4L22.7,2.4z
			 M17.3,24C14.5,20.9,2.8,20.9,0,24V2.4c2.8-3.1,14.5-3.1,17.3,0c2.8-3.1,14.5-3.1,17.3,0V24C31.8,20.9,20.2,20.9,17.3,24L17.3,24z
			 M16.2,20.8V4.2c-1.7-1.6-4.5-2-7.6-2c-1.4,0-4.9,0.3-6.5,1.2v17C6.4,19,12.4,19.2,16.2,20.8L16.2,20.8z"/>
		<path style="fill-rule:evenodd;clip-rule:evenodd;fill:none;stroke:#FFFFFF;stroke-linecap:round;stroke-miterlimit:10;" d="
			M5.9,15.4c0,0,1.4-0.4,3.6-0.4c2.3,0,3.8,0.4,3.8,0.4"/>
		<path style="fill-rule:evenodd;clip-rule:evenodd;fill:none;stroke:#FFFFFF;stroke-linecap:round;stroke-miterlimit:10;" d="
			M5.9,18.6c0,0,1.4-0.4,3.6-0.4c2.3,0,3.8,0.4,3.8,0.4"/>
		<path style="fill-rule:evenodd;clip-rule:evenodd;fill:none;stroke:#FFFFFF;stroke-linecap:round;stroke-miterlimit:10;" d="
			M5.9,21.9c0,0,1.4-0.4,3.6-0.4"/>
	</g>
</g>
</svg>
