<svg xmlns="http://www.w3.org/2000/svg" xmlns:xlink="http://www.w3.org/1999/xlink" viewBox="0 0 262 232"><defs><style>.cls-1{fill:url(#linear-gradient);}.cls-2{fill:#fff;}</style><linearGradient id="linear-gradient" x1="0.83" y1="116" x2="261.17" y2="116" gradientUnits="userSpaceOnUse"><stop offset="0.08" stop-color="#11d774"/><stop offset="1" stop-color="#4ddb94"/></linearGradient></defs><g id="레이어_1" data-name="레이어 1"><path class="cls-1" d="M157,35.6h0m-26,45,58.2,100.8H72.8L131,80.6m0-80a19.9,19.9,0,0,0-17.3,10L3.5,201.4a20,20,0,0,0,17.4,30H241.1a20,20,0,0,0,17.4-30L148.3,10.6A19.9,19.9,0,0,0,131,.6Z"/><path class="cls-2" d="M169.6,78.7a4.1,4.1,0,0,1-3.5-2L149.5,47.6a4,4,0,0,1,7-4l16.6,29.1a4.1,4.1,0,0,1-1.5,5.5A4.6,4.6,0,0,1,169.6,78.7Z"/><circle class="cls-2" cx="176.6" cy="86.8" r="5"/></g></svg>