<svg xmlns="http://www.w3.org/2000/svg" viewBox="0 0 70.5 72"><defs><style>.cls-1{fill:#6dacd9;}.cls-2{fill:#2f77bf;}.cls-3{fill:#fff;}.cls-4{fill:#5ca1e6;}</style></defs><g id="레이어_2" data-name="레이어 2"><g id="Layer_1" data-name="Layer 1"><path class="cls-1" d="M48.34,28.71c3.46,3.47,8.08,4.47,10.32,2.22s1.24-6.87-2.22-10.35Z"/><path class="cls-1" d="M55.47,33.63h0a12.16,12.16,0,0,1-8.19-3.86l-1.06-1.06L56.44,18.46l1.06,1.06c4.11,4.12,5.09,9.6,2.22,12.47A5.81,5.81,0,0,1,55.47,33.63Zm-4.95-5a8.54,8.54,0,0,0,4.95,2h0a3,3,0,0,0,2.13-.75c1.41-1.42.82-4.47-1.23-7.11Z"/><rect class="cls-2" x="20.71" y="34.87" width="3" height="33.08" transform="translate(-30.49 32.45) rotate(-46.84)"/><rect class="cls-2" x="6.06" y="20.81" width="31.97" height="3" transform="translate(-9.19 19.42) rotate(-40.05)"/><polygon class="cls-3" points="44.83 8.63 37.54 15.95 41.74 35.32 64.13 12.85 44.83 8.63"/><path class="cls-2" d="M40.85,38.33l-5-22.86L44.35,7l22.78,5Zm-1.67-21.9,3.44,15.88L61.14,13.73,45.31,10.27Z"/><path class="cls-4" d="M44.85,8.62,37.52,16l-5.81-5.83a4.4,4.4,0,0,1,0-6.21l1.14-1.14a4.36,4.36,0,0,1,6.19,0Z"/><path class="cls-2" d="M37.52,18.09,30.65,11.2a5.91,5.91,0,0,1,0-8.33l1.13-1.14a5.87,5.87,0,0,1,8.32,0L47,8.62ZM35.94,3a2.82,2.82,0,0,0-2,.85L32.77,5a2.91,2.91,0,0,0,0,4.09l4.75,4.76,5.21-5.22L38,3.85A2.82,2.82,0,0,0,35.94,3Z"/><path class="cls-1" d="M11,36.18a4.74,4.74,0,1,1-4.74-4.76A4.75,4.75,0,0,1,11,36.18Z"/><path class="cls-2" d="M6.24,42.44a6.26,6.26,0,1,1,6.24-6.26A6.26,6.26,0,0,1,6.24,42.44Zm0-9.52a3.26,3.26,0,1,0,3.24,3.26A3.25,3.25,0,0,0,6.24,32.92Z"/><path class="cls-4" d="M49.47,70.5H19.08a7.78,7.78,0,0,1,7.78-7.78H41.7a7.78,7.78,0,0,1,7.77,7.78Z"/><path class="cls-2" d="M51,72H17.58V68.8a7.59,7.59,0,0,1,7.58-7.58H43.4A7.58,7.58,0,0,1,51,68.8ZM20.58,69H48v-.2a4.58,4.58,0,0,0-4.57-4.58H25.16a4.59,4.59,0,0,0-4.58,4.58Z"/><rect class="cls-2" x="62.33" y="32.89" width="3" height="6.47" transform="translate(-6.88 55.6) rotate(-44.91)"/><rect class="cls-2" x="54.03" y="36.34" width="3" height="6.48"/><rect class="cls-2" x="64.04" y="26.29" width="6.46" height="3"/></g></g></svg>