<?xml version="1.0" encoding="utf-8"?>
<!-- Generator: Adobe Illustrator 25.2.0, SVG Export Plug-In . SVG Version: 6.00 Build 0)  -->
<svg version="1.1" id="레이어_1" xmlns="http://www.w3.org/2000/svg" xmlns:xlink="http://www.w3.org/1999/xlink" x="0px"
	 y="0px" width="38px" height="34.1px" viewBox="0 0 38 34.1" style="enable-background:new 0 0 38 34.1;" xml:space="preserve">
<g id="레이어_2_1_">
	<g id="레이어_1-2">
		<path style="fill:#FFFFFF;" d="M30.8,0H7.2C5.4,0,4,1.4,4,3.2l0,0L4,31c0,1.8,1.4,3.2,3.2,3.2c0,0,0,0,0,0h23.6
			c1.8,0,3.2-1.4,3.2-3.2l0,0l0,0l0-27.7C34,1.4,32.6,0,30.8,0z M20.1,17.8v-1.5c0-0.5,0.4-0.9,0.9-0.9c0.5,0,0.9,0.4,0.9,0.9v1.5
			c0,0.5-0.4,0.9-0.9,0.9C20.5,18.8,20.1,18.4,20.1,17.8C20.1,17.9,20.1,17.9,20.1,17.8z M17.9,16.3v1.5c0,0.5-0.4,0.9-0.9,0.9
			c-0.5,0-0.9-0.4-0.9-0.9v-1.5c0-0.5,0.4-0.9,0.9-0.9C17.5,15.4,17.9,15.8,17.9,16.3z M31.3,31c0,0.3-0.2,0.5-0.5,0.5h-3.2
			c-0.2-3.8-2.8-7.1-6.5-8.1c3.4-1.2,5.2-5,4-8.4c-0.9-2.6-3.3-4.3-6.1-4.4h0c-3.6,0.1-6.5,3.1-6.4,6.7c0.1,2.7,1.8,5.1,4.4,6.1
			c-3.7,1-6.4,4.2-6.5,8.1H7.2c-0.3,0-0.5-0.2-0.5-0.5l0-27.7c0-0.3,0.2-0.5,0.5-0.5h23.6c0.3,0,0.5,0.2,0.5,0.5L31.3,31z"/>
	</g>
</g>
</svg>
