<?xml version="1.0" encoding="utf-8"?>
<!-- Generator: Adobe Illustrator 25.2.3, SVG Export Plug-In . SVG Version: 6.00 Build 0)  -->
<svg version="1.1" id="Layer_1" xmlns="http://www.w3.org/2000/svg" xmlns:xlink="http://www.w3.org/1999/xlink" x="0px" y="0px"
	 width="99px" height="40.1px" viewBox="0 0 99 40.1" style="enable-background:new 0 0 99 40.1;" xml:space="preserve">
<style type="text/css">
	.st0{fill:url(#SVGID_1_);}
</style>
<g id="레이어_1">
</g>
<g id="Layer_1_1_">
	
		<linearGradient id="SVGID_1_" gradientUnits="userSpaceOnUse" x1="1.2" y1="22.175" x2="97.8" y2="22.175" gradientTransform="matrix(1 0 0 -1 0 42)">
		<stop  offset="0" style="stop-color:#FFE6E6"/>
		<stop  offset="1" style="stop-color:#FFB5B5"/>
	</linearGradient>
	<path class="st0" d="M97.8,19.8L97.8,19.8C97.8,19.8,97.8,19.7,97.8,19.8c0-1.8-0.6-3.5-2-4.9c-0.3-0.3-0.5-0.5-0.8-0.7l-12.1-12
		c-2.6-2.6-6.9-2.6-9.5,0s-2.6,6.9,0,9.5l1.3,1.3H8c-3.7,0-6.8,3-6.8,6.8c0,3.7,3,6.8,6.8,6.8h66.7l-1.3,1.3c-2.6,2.6-2.6,6.9,0,9.5
		c1.3,1.3,3,2,4.8,2c1.7,0,3.5-0.7,4.8-2l12-12.1c0.3-0.2,0.6-0.4,0.8-0.7C97.1,23.3,97.8,21.5,97.8,19.8z"/>
</g>
</svg>
