<svg xmlns="http://www.w3.org/2000/svg" viewBox="0 0 58.1 71.19"><defs><style>.cls-1{fill:#2f77bc;}.cls-2{fill:#6da0d6;stroke:#6da0d6;stroke-miterlimit:10;stroke-width:2px;}.cls-3{fill:#1e588e;}</style></defs><g id="레이어_2" data-name="레이어 2"><g id="Layer_1" data-name="Layer 1"><polygon class="cls-1" points="44.79 66.26 44.79 71.19 13.21 71.19 13.21 66.26 18.17 66.26 39.93 66.26 44.79 66.26"/><polygon class="cls-1" points="38.97 60.82 39.93 66.26 18.17 66.26 19.13 60.82 38.97 60.82"/><path class="cls-2" d="M49,44.35a3.15,3.15,0,1,1-5.32,2.72h0c.33-.26.65-.53,1-.82,0,0,0,0,0,0,.46-.41.89-.85,1.31-1.3a18.81,18.81,0,0,0,1.25-1.43A3.17,3.17,0,0,1,49,44.35Z"/><path class="cls-2" d="M32.2,4.15A3.13,3.13,0,0,1,31.59,6c-.42,0-.84-.08-1.26-.1h-.09l-.87,0h-.64l-.87,0h-.09c-.42,0-.84,0-1.26.1A3.15,3.15,0,1,1,32.2,4.15Z"/><path class="cls-2" d="M54,25.9a3.15,3.15,0,1,1-1.85,5.69c0-.42.08-.84.1-1.26a.28.28,0,0,0,0-.09c0-.39,0-.79,0-1.19s0-.8,0-1.19a.28.28,0,0,0,0-.09c0-.42-.05-.84-.1-1.26A3.13,3.13,0,0,1,54,25.9Z"/><path class="cls-2" d="M14.48,11h0c-.33.26-.65.53-1,.82-.16.14-.32.28-.47.43-.3.29-.6.59-.88.89l-.44.48a5.85,5.85,0,0,0-.4.47l-.41.48A3.14,3.14,0,1,1,14.48,11Z"/><path class="cls-2" d="M6,26.51c0,.21,0,.42-.06.64s0,.42,0,.62c0,.42,0,.85,0,1.28s0,.86,0,1.28c0,.21,0,.42,0,.63a6.2,6.2,0,0,0,.06.62,3.1,3.1,0,0,1-1.86.62A3.15,3.15,0,1,1,6,26.51Z"/><path class="cls-2" d="M14.62,47.18a3.14,3.14,0,1,1-5.34-2.67A3.1,3.1,0,0,1,11,43.62c.26.33.53.65.82,1a.1.1,0,0,0,0,.05c.41.45.84.89,1.29,1.3A18.81,18.81,0,0,0,14.62,47.18Z"/><path class="cls-2" d="M27.86,52.21c.39,0,.79,0,1.19,0s.8,0,1.19,0h.09c.42,0,.84-.05,1.26-.1a3.15,3.15,0,1,1-5.08,0c.42,0,.84.08,1.26.1Z"/><path class="cls-2" d="M36.4,46.31l.79,4.45a22.79,22.79,0,0,1-5.6,1.34h0c-.42,0-.84.09-1.26.11h-.09c-.39,0-.79,0-1.19,0s-.8,0-1.19,0h-.09c-.42,0-.84-.06-1.25-.11h0a22.79,22.79,0,0,1-5.6-1.34l.79-4.45a18.64,18.64,0,0,0,14.7,0Z"/><path class="cls-2" d="M48.81,9.14a3.14,3.14,0,0,1,0,4.45,3.23,3.23,0,0,1-1.75.89A22.58,22.58,0,0,0,44,11.32a6,6,0,0,0-.48-.4,3.06,3.06,0,0,1,.86-1.76A3.15,3.15,0,0,1,48.81,9.14Z"/><path class="cls-2" d="M28.73,5.87h.64l.87,0h.09c.42,0,.84.06,1.26.11h0a23.12,23.12,0,0,1,11.9,4.92h0l.48.4a23.08,23.08,0,0,1,3.09,3.16h0a23.06,23.06,0,0,1,5,12h0c0,.42.09.84.11,1.26a.28.28,0,0,1,0,.09c0,.39,0,.79,0,1.19s0,.8,0,1.19a.28.28,0,0,1,0,.09c0,.42-.06.84-.11,1.25a0,0,0,0,1,0,0,23.12,23.12,0,0,1-4.91,11.89h0c-.4.49-.81,1-1.24,1.43s-.86.88-1.31,1.3c0,0,0,0,0,0-.31.28-.63.56-1,.82h0a23.24,23.24,0,0,1-6.44,3.69l-.79-4.45a18.77,18.77,0,1,0-14.7,0l-.79,4.45a23.15,23.15,0,0,1-6.29-3.58h0c-.49-.4-1-.81-1.43-1.25s-.87-.85-1.29-1.3a.1.1,0,0,1,0-.05c-.29-.31-.56-.63-.82-1a23,23,0,0,1-5-12A6.2,6.2,0,0,1,6,31c0-.22,0-.43,0-.63,0-.42,0-.85,0-1.28s0-.86,0-1.28c0-.2,0-.41,0-.62s0-.43.06-.64a23.16,23.16,0,0,1,4.91-11.9l.41-.48.4-.47.44-.48c.29-.3.58-.6.88-.89.15-.15.31-.29.47-.43.31-.29.63-.56,1-.82h0a23,23,0,0,1,12-5h0c.41,0,.83-.09,1.25-.11h.09Z"/><path class="cls-2" d="M33.34,29.05a4.3,4.3,0,1,1-4.29-4.3A4.29,4.29,0,0,1,33.34,29.05Z"/><path class="cls-3" d="M29.05,34.25a5.2,5.2,0,1,1,5.2-5.2A5.2,5.2,0,0,1,29.05,34.25Zm0-8.59a3.39,3.39,0,1,0,3.39,3.39A3.39,3.39,0,0,0,29.05,25.66Z"/><rect class="cls-3" x="2.57" y="46.75" width="37.78" height="1.81" transform="translate(-29.19 60.51) rotate(-79.99)"/><rect class="cls-3" x="35.73" y="28.76" width="1.81" height="37.78" transform="translate(-7.74 7.11) rotate(-10.03)"/></g></g></svg>