<svg xmlns="http://www.w3.org/2000/svg" viewBox="0 0 39.53 28.86"><defs><style>.cls-1{fill:#fff;stroke:#fff;stroke-miterlimit:10;}</style></defs><g id="레이어_2" data-name="레이어 2"><g id="레이어_1-2" data-name="레이어 1"><path class="cls-1" d="M39,1.05V.87a.26.26,0,0,0,0-.1v0s0,0,0,0l0,0a0,0,0,0,1,0,0h0s0,0,0,0l-.07,0-.07,0-.06,0h-.14L6.9,3.26a.48.48,0,0,0-.4.31.45.45,0,0,0,.12.48l4.81,4.57,1.76,12v0a.41.41,0,0,0,.13.23l0,.05a.53.53,0,0,0,.27.08h.09a.42.42,0,0,0,.2-.1l4.12-3.24,3.76,5.92a.49.49,0,0,0,.37.21h0a.47.47,0,0,0,.37-.19L39,1.23h0A.33.33,0,0,0,39,1.06Zm-5.34.79-3.16.88L12,7.88,8,4.09ZM13.78,18.36,12.37,8.73l6-1.66L34.68,2.52,15.48,12.75l0,0,0,0a.48.48,0,0,0-.14.2h0Zm.68,1,1.4-5.08,1.69,2.65Zm7.77,3.2-3.46-5.42h0l-.49-.78h0l-1.93-3L34.24,3.79h0l1.61-.86L37,2.3l-.79,1.08h0Z"/><path class="cls-1" d="M8.88,13a.45.45,0,0,0-.62-.17l-.06,0c-2.26,1.29-4.59,2.63-6.11,4.83-1.38,2-2.31,4.77-.86,6.51a3.54,3.54,0,0,0,.82,2.69A5.16,5.16,0,0,0,6,28.36h.34a.47.47,0,0,0,.44-.48.47.47,0,0,0-.48-.44A4.39,4.39,0,0,1,2.74,26.3,2.31,2.31,0,0,1,2.16,25a3.8,3.8,0,0,0,3.38-.27,1.93,1.93,0,0,0,1-2,1.86,1.86,0,0,0-1.87-1.77,3.84,3.84,0,0,0-3.09,2c-.65-1.83,1-4.4,1.29-4.75,1.39-2,3.64-3.3,5.8-4.54l.06,0A.45.45,0,0,0,8.88,13ZM4.65,21.83c.2,0,.79,0,1,1a1,1,0,0,1-.57,1.09,2.77,2.77,0,0,1-2.64.13l-.22-.17A3,3,0,0,1,4.65,21.83Z"/></g></g></svg>