<svg xmlns="http://www.w3.org/2000/svg" viewBox="0 0 71.52 105.12"><defs><style>.cls-1{fill:#fff;stroke:#3d69a7;stroke-miterlimit:10;stroke-width:6px;}</style></defs><g id="레이어_2" data-name="레이어 2"><g id="Layer_1" data-name="Layer 1"><path class="cls-1" d="M44.76,28.8c-.48-6.12-3.24-9.12-8.64-9.12C28.44,19.68,25.2,27,24.84,46.2c3-4.92,9-7.92,16.2-7.92C56.28,38.28,68.52,49.8,68.52,70c0,19.68-12.6,32.16-32.16,32.16-11.88,0-21.36-4.32-27-13.56C4.32,80.28,3,68.64,3,55.08,3,17.16,13.68,3,36.48,3,54.24,3,65.4,12.6,66.6,28.8Zm-8.88,56c6.84,0,10.56-5.16,10.56-15S42.72,54.72,35.88,54.72,25.32,59.88,25.32,69.84,28.92,84.84,35.88,84.84Z"/></g></g></svg>