<?xml version="1.0" encoding="utf-8"?>
<!-- Generator: Adobe Illustrator 25.2.0, SVG Export Plug-In . SVG Version: 6.00 Build 0)  -->
<svg version="1.1" id="레이어_1" xmlns="http://www.w3.org/2000/svg" xmlns:xlink="http://www.w3.org/1999/xlink" x="0px"
	 y="0px" viewBox="0 0 81 66.2" style="enable-background:new 0 0 81 66.2;" xml:space="preserve">
<g id="레이어_1_1_">
</g>
<g>
	<g>
		<g>
			<g>
				<path style="fill:#FFFFFF;" d="M60.3,63.5c-2.2,0-4.4-0.4-6.5-1.2c0,0-21-7.7-21.1-7.8c-2.2-0.8-3.5-3-3.2-5.3
					c0.1-1,0.6-2,1.4-2.7c1-1,2.3-1.5,3.7-1.5c0.1,0,0.2,0,0.4,0l3.5,0.2L20.2,26.9c-1-1-1.6-2.4-1.6-3.8c0-1.4,0.6-2.7,1.6-3.6
					c0.9-0.8,2-1.2,3.2-1.2c1.4,0,2.7,0.6,3.7,1.6l8.9,8.9c0.2-1.2,0.7-2.2,1.6-3c0.9-0.8,2-1.2,3.2-1.2c1.1,0,2.2,0.4,3.1,1
					c0.1-1.2,0.7-2.3,1.6-3.1c0.9-0.8,2-1.2,3.2-1.2c1.1,0,2.2,0.4,3.1,1c0.1-1.2,0.7-2.3,1.6-3.1c0.9-0.8,2-1.2,3.2-1.2
					c1.4,0,2.7,0.6,3.7,1.6L72.8,32c7.1,7.1,7.2,18.8,0.4,26C69.9,61.5,65.2,63.5,60.3,63.5z"/>
				<path style="fill:#FF3333;" d="M56.7,20.2c0.8,0,1.7,0.3,2.3,1l12.3,12.3c6.4,6.4,6.5,16.7,0.3,23.3c-3,3.2-7.2,4.8-11.4,4.8
					c-1.9,0-3.9-0.3-5.8-1l-4.9-1.8c-8-2.9-16.1-5.9-16.2-6c-1.3-0.5-2.1-1.8-1.9-3.2c0.1-0.6,0.4-1.1,0.8-1.6
					c0.6-0.6,1.5-0.9,2.3-0.9c0.1,0,0.2,0,0.2,0l6.2,0.4c0,0,0,0,0.1,0c0.4,0,0.8-0.2,0.9-0.6c0.2-0.4,0.1-0.8-0.2-1.1L21.6,25.5
					c-0.6-0.6-1-1.4-1-2.3c0-0.8,0.4-1.6,1-2.1c0.5-0.5,1.2-0.7,1.9-0.7c0.8,0,1.7,0.3,2.3,1l17.8,17.8c0.2,0.2,0.5,0.3,0.7,0.3
					c0.3,0,0.5-0.1,0.7-0.3c0.4-0.4,0.4-1,0-1.4l-5.9-5.9c-0.6-0.6-1-1.4-1-2.3c0-0.8,0.4-1.6,1-2.1c0.5-0.5,1.2-0.7,1.9-0.7
					c0.8,0,1.7,0.3,2.3,1l6.1,6.1c0.2,0.2,0.5,0.3,0.7,0.3c0.3,0,0.5-0.1,0.7-0.3c0.4-0.4,0.4-1,0-1.4l-4-4
					c-0.6-0.6-0.9-1.3-0.9-2.2c0-0.8,0.4-1.6,1-2.1c0.5-0.5,1.2-0.7,1.9-0.7c0.8,0,1.7,0.3,2.3,1l4,4c0.2,0.2,0.5,0.3,0.7,0.3
					c0.3,0,0.5-0.1,0.7-0.3c0.4-0.4,0.4-1,0-1.4l-1.7-1.7c-0.6-0.6-1-1.4-1-2.3c0-0.8,0.4-1.6,1-2.1C55.4,20.4,56.1,20.2,56.7,20.2
					 M56.7,16.2C56.7,16.2,56.7,16.2,56.7,16.2c-1.7,0-3.3,0.6-4.6,1.7c-0.6,0.5-1.1,1.1-1.4,1.8c-0.6-0.2-1.2-0.3-1.9-0.3
					c-1.7,0-3.3,0.6-4.6,1.7c-0.6,0.5-1.1,1.1-1.4,1.8c-0.6-0.2-1.3-0.3-1.9-0.3c-1.7,0-3.3,0.6-4.6,1.7c-0.3,0.3-0.6,0.6-0.9,1
					l-6.9-6.9c-1.4-1.4-3.2-2.1-5.1-2.1c-1.7,0-3.3,0.6-4.6,1.7c-1.4,1.3-2.3,3.1-2.3,5c0,1.9,0.7,3.8,2.2,5.2l14.7,14.7
					c-1.5,0.2-3,0.9-4,2c-1.1,1.1-1.7,2.4-1.9,3.9c-0.4,3.2,1.5,6.4,4.5,7.5c0.2,0.1,8.3,3,16.2,5.9l4.9,1.8
					c2.3,0.8,4.7,1.3,7.2,1.3c5.5,0,10.7-2.2,14.3-6c7.6-8.1,7.4-21-0.4-28.8L61.9,18.3C60.5,16.9,58.7,16.2,56.7,16.2L56.7,16.2
					L56.7,16.2z"/>
			</g>
		</g>
	</g>
	<g>
		<g>
			<path style="fill:#FF3333;" d="M20.4,33.9c0.3-0.9-0.1-1.8-1-2.1c-1.2-0.4-2.2-1-3.2-1.8c-2-1.7-3.2-4.2-3.4-6.8
				c-0.2-2.7,0.7-5.2,2.4-7.2c1.8-2,4.2-3.2,6.8-3.4c2.7-0.2,5.2,0.7,7.2,2.4c0.9,0.8,1.7,1.8,2.3,2.9c0.4,0.8,1.4,1.1,2.2,0.7
				c0.8-0.4,1.1-1.4,0.7-2.2c-0.8-1.5-1.8-2.8-3-3.8c-2.7-2.3-6.1-3.5-9.7-3.2c-3.5,0.2-6.8,1.9-9.1,4.5c-2.3,2.7-3.5,6.1-3.2,9.7
				c0.2,3.5,1.9,6.8,4.5,9.1c1.2,1.1,2.6,1.9,4.2,2.5c0.4,0.1,0.8,0.1,1.2,0C19.8,34.8,20.2,34.4,20.4,33.9z"/>
		</g>
		<g>
			<path style="fill:#FF3333;" d="M19.7,40.5c-3.3-0.6-6.4-2-8.9-4.2c-3.7-3.2-5.9-7.7-6.2-12.5C4.2,18.9,5.8,14.1,9,10.5
				c3.2-3.7,7.7-5.9,12.5-6.2c4.9-0.3,9.6,1.2,13.3,4.5c2.5,2.2,4.4,5.1,5.4,8.3c0.3,0.9,1.2,1.4,2.1,1.1c0.9-0.3,1.4-1.2,1.1-2.1
				c-1.2-3.8-3.4-7.2-6.4-9.8C32.6,2.4,27,0.5,21.3,0.9c-5.8,0.4-11,3-14.8,7.4C2.7,12.6,0.8,18.2,1.2,24c0.4,5.8,3,11,7.4,14.8
				c3,2.6,6.6,4.3,10.6,5c0.3,0.1,0.6,0,0.9-0.1c0.5-0.2,0.9-0.7,1-1.3C21.2,41.5,20.6,40.6,19.7,40.5z"/>
		</g>
	</g>
</g>
</svg>
