<?xml version="1.0" encoding="utf-8"?>
<!-- Generator: Adobe Illustrator 25.2.0, SVG Export Plug-In . SVG Version: 6.00 Build 0)  -->
<svg version="1.1" id="레이어_1" xmlns="http://www.w3.org/2000/svg" xmlns:xlink="http://www.w3.org/1999/xlink" x="0px"
	 y="0px" viewBox="0 0 33 29" style="enable-background:new 0 0 33 29;" xml:space="preserve">
<g>
	<path style="fill:#FFFFFF;" d="M31.8,0H1.2C0.5,0,0,0.5,0,1.2v26.7C0,28.5,0.5,29,1.2,29h30.6c0.7,0,1.2-0.5,1.2-1.2V1.2
		C33,0.5,32.5,0,31.8,0z M30.6,26.7H2.4v-3.7l6.5-8.9l8.5,7.9c0.4,0.4,1,0.4,1.4,0.1l6.8-4.3l4.9,5.7c0.1,0,0.1,0.1,0.2,0.1V26.7z
		 M30.6,20.5l-4.2-5.1c-0.4-0.3-1-0.4-1.4-0.1l-6.8,4.3l-8.7-8.1c-0.5-0.4-1.2-0.4-1.7,0.1l-5.5,7.9V2.4h28.2V20.5z M18.7,15
		c1.6,0,2.9-1.3,2.9-2.9c0-1.6-1.3-2.9-2.9-2.9c-1.6,0-2.9,1.3-2.9,2.9C15.8,13.7,17.1,15,18.7,15z"/>
</g>
<g>
</g>
<g>
</g>
<g>
</g>
<g>
</g>
<g>
</g>
<g>
</g>
<g>
</g>
<g>
</g>
<g>
</g>
<g>
</g>
<g>
</g>
<g>
</g>
<g>
</g>
<g>
</g>
<g>
</g>
</svg>
