<svg xmlns="http://www.w3.org/2000/svg" viewBox="0 0 60 60.12"><defs><style>.cls-1{fill:#d4e7fa;}.cls-2{fill:#2f77bf;}.cls-3{fill:#afd3fa;stroke:#2f77bf;stroke-miterlimit:10;stroke-width:2px;}.cls-4{fill:#5ca0e6;}.cls-5{fill:#fff;}</style></defs><g id="레이어_2" data-name="레이어 2"><g id="Layer_1" data-name="Layer 1"><circle class="cls-1" cx="34.6" cy="34.71" r="24.18"/><path class="cls-2" d="M34.6,60.12A25.41,25.41,0,1,1,60,34.71,25.43,25.43,0,0,1,34.6,60.12Zm0-48.36a23,23,0,1,0,22.95,23A23,23,0,0,0,34.6,11.76Z"/><circle class="cls-3" cx="34.6" cy="34.71" r="16.43" transform="translate(-7.17 60.35) rotate(-76.64)"/><circle class="cls-4" cx="34.6" cy="34.71" r="9.47" transform="translate(-5.22 63.29) rotate(-80.76)"/><path class="cls-2" d="M34.6,45.41a10.7,10.7,0,1,1,10.69-10.7A10.7,10.7,0,0,1,34.6,45.41Zm0-18.94a8.25,8.25,0,1,0,8.24,8.24A8.25,8.25,0,0,0,34.6,26.47Z"/><path class="cls-5" d="M36.86,34.71a2.27,2.27,0,1,1-2.26-2.26A2.27,2.27,0,0,1,36.86,34.71Z"/><path class="cls-2" d="M34.6,38.2a3.49,3.49,0,1,1,3.49-3.49A3.49,3.49,0,0,1,34.6,38.2Zm0-4.53a1,1,0,1,0,1,1A1,1,0,0,0,34.6,33.67Z"/><polygon class="cls-5" points="15.64 6.47 15.64 6.47 11.74 2.57 10.5 10.5 2.57 11.74 6.47 15.64 6.47 15.64 10.37 19.54 18.3 18.3 19.54 10.37 15.64 6.47"/><path class="cls-2" d="M10,20.84,0,10.9,9.43,9.43,10.9,0l9.94,10-1.47,9.42ZM7.3,14.74l3.5,3.49,6.43-1,1-6.43L12.57,5.14l-1,6.43-6.43,1Z"/><line class="cls-5" x1="34.6" y1="34.6" x2="10.5" y2="10.5"/><path class="cls-2" d="M32.87,34.6,9.63,11.36l1.73-1.73L34.6,32.87a1.22,1.22,0,0,1,0,1.73h0A1.22,1.22,0,0,1,32.87,34.6Z"/></g></g></svg>