<svg xmlns="http://www.w3.org/2000/svg" viewBox="0 0 73.56 105.12"><defs><style>.cls-1{fill:#fff;stroke:#3d69a7;stroke-miterlimit:10;stroke-width:6px;}</style></defs><g id="레이어_2" data-name="레이어 2"><g id="Layer_1" data-name="Layer 1"><path class="cls-1" d="M60.6,92.88c-5.28,6.12-13.2,9.24-23.76,9.24S18.24,99,13,92.88C6,84.72,3,72.48,3,52.56S6,20.4,13,12.24C18.24,6.12,26.16,3,36.84,3S55.32,6.12,60.6,12.24c7,8.16,10,20.4,10,40.32S67.56,84.72,60.6,92.88ZM45.12,24.72a9.09,9.09,0,0,0-8.28-4.44,9.16,9.16,0,0,0-8.4,4.44c-2.52,4.2-3.36,12.84-3.36,27.84s.84,23.52,3.36,27.84a9.16,9.16,0,0,0,8.4,4.44,9.09,9.09,0,0,0,8.28-4.44c2.52-4.32,3.36-12.84,3.36-27.84S47.64,28.92,45.12,24.72Z"/></g></g></svg>