<svg xmlns="http://www.w3.org/2000/svg" viewBox="0 0 57.88 71.24"><defs><style>.cls-1,.cls-8{fill:#1e588f;}.cls-2{fill:#2f77bd;}.cls-3{fill:#6da1d7;}.cls-4{fill:#dee7ef;}.cls-4,.cls-5,.cls-6,.cls-7,.cls-8,.cls-9{fill-rule:evenodd;}.cls-5{fill:#d7dee4;}.cls-6{fill:#538bc5;}.cls-7{fill:#6da7e4;}.cls-9{fill:#114273;}.cls-10{fill:#9fc1e4;}.cls-11{fill:#6ca0d7;}.cls-12{fill:#4d84bd;}</style></defs><g id="레이어_2" data-name="레이어 2"><g id="Layer_1" data-name="Layer 1"><path class="cls-1" d="M.26,53.56l27.3-16.38a2.68,2.68,0,0,1,2.76,0l27.3,16.38a.53.53,0,0,1,0,.92L30.32,70.86a2.68,2.68,0,0,1-2.76,0L.26,54.48A.53.53,0,0,1,.26,53.56Z"/><path class="cls-2" d="M.26,42.81l27.3-16.38a2.68,2.68,0,0,1,2.76,0l27.3,16.38a.53.53,0,0,1,0,.92L30.32,60.11a2.68,2.68,0,0,1-2.76,0L.26,43.73A.53.53,0,0,1,.26,42.81Z"/><path class="cls-3" d="M.26,32.06l27.3-16.38a2.68,2.68,0,0,1,2.76,0l27.3,16.38a.54.54,0,0,1,0,.93L30.32,49.36a2.64,2.64,0,0,1-2.76,0L.26,33A.54.54,0,0,1,.26,32.06Z"/><path class="cls-4" d="M23,19.6l-.11.11-2.16,11a.71.71,0,0,0,.19.62.68.68,0,0,0,.62.19l11-2.16.12-.11Z"/><path class="cls-5" d="M20.91,31.2s0,.06,0,.09a.68.68,0,0,0,.62.19l11-2.16-.27-.27a4.07,4.07,0,0,0-3.54-.41h0S20.91,31.2,20.91,31.2Z"/><path class="cls-6" d="M42,.67l-6,6,9.61,9.61,6-6a2.29,2.29,0,0,0,0-3.23L45.18.67A2.29,2.29,0,0,0,42,.67Z"/><path class="cls-7" d="M42,.67l-6,6,7.71,7.71,6-6a2.29,2.29,0,0,0,0-3.23L45.18.67A2.29,2.29,0,0,0,42,.67Z"/><path class="cls-8" d="M21.66,26.05l-.91,4.62a.71.71,0,0,0,.19.62.68.68,0,0,0,.62.19l4.62-.91Z"/><polygon class="cls-9" points="20.87 31.21 20.87 31.21 20.88 31.21 20.88 31.22 20.88 31.22 20.88 31.22 20.88 31.22 20.88 31.23 20.89 31.23 20.89 31.23 20.89 31.23 20.89 31.23 20.89 31.23 20.89 31.23 20.89 31.24 20.9 31.24 20.9 31.24 20.9 31.24 20.9 31.25 20.9 31.25 20.91 31.25 20.91 31.25 20.91 31.25 20.91 31.25 20.91 31.26 20.91 31.26 20.91 31.26 20.92 31.26 20.92 31.27 20.92 31.27 20.92 31.27 20.92 31.27 20.93 31.27 20.93 31.27 20.93 31.27 20.93 31.28 20.93 31.28 20.93 31.28 20.93 31.28 20.94 31.29 20.94 31.29 20.94 31.29 20.95 31.3 20.96 31.3 20.97 31.31 20.97 31.32 20.98 31.33 20.99 31.33 21 31.34 21.01 31.35 21.02 31.35 21.02 31.36 21.03 31.37 21.03 31.37 21.04 31.37 21.05 31.38 21.06 31.38 21.07 31.39 21.08 31.39 21.08 31.4 21.09 31.4 21.09 31.4 21.09 31.41 21.09 31.41 21.1 31.41 21.11 31.42 21.12 31.42 21.13 31.43 21.14 31.43 21.14 31.43 21.15 31.43 21.15 31.43 21.16 31.44 21.16 31.44 21.17 31.44 21.19 31.45 21.19 31.45 21.2 31.45 21.21 31.46 21.22 31.46 21.22 31.46 21.23 31.46 21.23 31.46 21.24 31.47 21.25 31.47 21.25 31.47 21.26 31.47 21.26 31.47 21.27 31.47 21.27 31.47 21.28 31.48 21.28 31.48 21.29 31.48 21.3 31.48 21.3 31.48 21.31 31.48 21.31 31.48 21.32 31.48 21.33 31.48 21.33 31.48 21.35 31.49 21.35 31.49 21.36 31.49 21.37 31.49 21.37 31.49 21.38 31.49 21.38 31.49 21.41 31.49 21.42 31.49 21.42 31.49 21.43 31.49 21.43 31.49 21.44 31.49 21.45 31.49 21.45 31.49 21.46 31.49 21.47 31.49 21.48 31.49 21.49 31.49 21.49 31.49 21.5 31.49 21.52 31.48 21.52 31.48 21.53 31.48 21.54 31.48 21.55 31.48 21.56 31.48 26.18 30.57 25.31 29.69 20.87 31.21"/><rect class="cls-10" x="20.68" y="10.77" width="23.66" height="3.17" transform="translate(0.79 26.61) rotate(-45)"/><rect class="cls-11" x="24.37" y="12.41" width="23.66" height="7.25" transform="translate(-0.74 30.29) rotate(-45)"/><rect class="cls-12" x="28.05" y="18.14" width="23.66" height="3.17" transform="translate(-2.27 33.98) rotate(-45)"/></g></g></svg>