<?xml version="1.0" encoding="utf-8"?>
<!-- Generator: Adobe Illustrator 16.0.0, SVG Export Plug-In . SVG Version: 6.00 Build 0)  -->
<!DOCTYPE svg PUBLIC "-//W3C//DTD SVG 1.1//EN" "http://www.w3.org/Graphics/SVG/1.1/DTD/svg11.dtd">
<svg version="1.1" id="레이어_1" xmlns="http://www.w3.org/2000/svg" xmlns:xlink="http://www.w3.org/1999/xlink" x="0px"
	 y="0px" width="130px" height="130px" viewBox="0 0 130 130" enable-background="new 0 0 130 130" xml:space="preserve">
<path fill="#FFFFFF" d="M50.499,95.333h-3.866c-2.762,0-5-2.237-5-5V39.667c0-2.761,2.238-5,5-5h3.866c2.762,0,5,2.239,5,5v50.667
	C55.499,93.096,53.261,95.333,50.499,95.333"/>
<path fill="#FFFFFF" d="M83.368,95.333h-3.867c-2.761,0-5-2.237-5-5V39.667c0-2.761,2.239-5,5-5h3.867c2.761,0,5,2.239,5,5v50.667
	C88.368,93.096,86.129,95.333,83.368,95.333"/>
<path fill="#FF512A" d="M-85,0c35.897,0,65,29.102,65,65c0,35.898-29.103,65-65,65c-35.898,0-65-29.102-65-65
	C-150,29.102-120.898,0-85,0"/>
<path fill="#FFFFFF" d="M-57.27,58.994c4.147,2.388,5.574,7.687,3.188,11.835c-0.763,1.325-1.863,2.424-3.188,3.187L-97.714,97.35
	c-4.146,2.394-9.446,0.974-11.839-3.172c-0.762-1.318-1.162-2.815-1.161-4.339v-46.67c-0.003-4.787,3.875-8.67,8.661-8.673
	c1.523-0.001,3.019,0.4,4.339,1.162L-57.27,58.994z"/>
</svg>
