<svg xmlns="http://www.w3.org/2000/svg" viewBox="0 0 70.39 103.44"><defs><style>.cls-1{fill:#fff;stroke:#3d69a7;stroke-miterlimit:10;stroke-width:6px;}</style></defs><g id="레이어_2" data-name="레이어 2"><g id="Layer_1" data-name="Layer 1"><path class="cls-1" d="M27.07,58H6.55L9,3H62.59V20.28H29.47l-1.2,21.84c2.76-3.24,7.56-5.52,13.8-5.52,14.76,0,25.32,10.08,25.32,32,0,19.56-11.28,31.8-32.16,31.8-19.92,0-31-11.16-32-28.92h22.2c.6,7.56,3.72,11.64,9.84,11.64,6.6,0,10.08-4.56,10.08-15.12,0-9.6-2.76-15.12-10.08-15.12A8.69,8.69,0,0,0,27.07,58Z"/></g></g></svg>