<?xml version="1.0" encoding="utf-8"?>
<!-- Generator: Adobe Illustrator 25.0.1, SVG Export Plug-In . SVG Version: 6.00 Build 0)  -->
<svg version="1.1" xmlns="http://www.w3.org/2000/svg" xmlns:xlink="http://www.w3.org/1999/xlink" x="0px" y="0px" width="41px"
	 height="41px" viewBox="0 0 41 41" style="enable-background:new 0 0 41 41;" xml:space="preserve">
<g id="레이어_1">
</g>
<g id="Layer_4">
	<g>
		<defs>
			<path id="SVGID_1_" d="M20.5,0.5c11,0,20,8.9,20,20c0,11-8.9,20-20,20c-11,0-20-8.9-20-20c0,0,0,0,0,0C0.5,9.5,9.4,0.5,20.5,0.5z
				"/>
		</defs>
		<clipPath id="SVGID_2_">
			<use xlink:href="#SVGID_1_"  style="overflow:visible;"/>
		</clipPath>
		<path style="clip-path:url(#SVGID_2_);fill:#FFFFFF;" d="M20.5,0.5c11,0,20,8.9,20,20c0,11-8.9,20-20,20c-11,0-20-8.9-20-20
			c0,0,0,0,0,0C0.5,9.5,9.4,0.5,20.5,0.5z"/>
		<g style="clip-path:url(#SVGID_2_);">
			<path style="fill:#9B938E;" d="M22.9,14c0,2.7-2.2,5-5,5c-2.7,0-5-2.2-5-5s2.2-5,5-5C20.7,9,22.9,11.2,22.9,14"/>
			<g style="opacity:0.6;">
				<g>
					<defs>
						<rect id="SVGID_3_" x="4.4" y="1.6" width="27.1" height="21.2"/>
					</defs>
					<clipPath id="SVGID_4_">
						<use xlink:href="#SVGID_3_"  style="overflow:visible;"/>
					</clipPath>
					<path style="clip-path:url(#SVGID_4_);fill:#B5AEA5;" d="M18,7.5c-3.5,0-6.4,2.9-6.4,6.4c0,3.5,2.9,6.4,6.4,6.4
						c3.5,0,6.4-2.9,6.4-6.4C24.4,10.4,21.5,7.5,18,7.5 M18,22.2c-4.5,0-8.2-3.7-8.2-8.2c0-4.5,3.7-8.2,8.2-8.2
						c4.5,0,8.2,3.7,8.2,8.2C26.2,18.5,22.5,22.2,18,22.2"/>
				</g>
			</g>
			<g style="opacity:0.2;">
				<g>
					<defs>
						<rect id="SVGID_5_" x="1.7" y="-1.1" width="32.5" height="26.5"/>
					</defs>
					<clipPath id="SVGID_6_">
						<use xlink:href="#SVGID_5_"  style="overflow:visible;"/>
					</clipPath>
					<path style="clip-path:url(#SVGID_6_);fill:#AFAAA3;" d="M18,4.4c-5.3,0-9.5,4.3-9.5,9.5c0,5.3,4.3,9.5,9.5,9.5
						c5.3,0,9.5-4.3,9.5-9.5C27.5,8.7,23.2,4.4,18,4.4 M18,24.8C12,24.8,7.1,20,7.1,14C7.1,8,12,3.1,18,3.1C24,3.1,28.8,8,28.8,14
						C28.8,20,24,24.8,18,24.8"/>
				</g>
			</g>
			<path style="fill:#FFD9C0;" d="M31.9,21.1c-1.3,0-2.3,1.1-2.3,2.5v2.2h-0.1v-0.4v-0.2v-2.6c0-1.4-1-2.5-2.3-2.5
				c-1.3,0-2.3,1.1-2.3,2.5v2.6v0.2v0.4h-0.1v-0.4v-0.2v-3.3c0-1.4-1-2.5-2.3-2.5c-1.3,0-2.3,1.1-2.3,2.5v3.3v0.2v0.4h-0.1V14.2
				c0-1.4-1-2.5-2.3-2.5c-1.3,0-2.3,1.1-2.3,2.5v11.6v2.3v2.3L13.5,28c-0.9-1-2.3-1-3.2,0c-0.9,1-0.9,2.5,0,3.5l7,7.5
				c0.2,0.2,0.4,0.5,0.6,0.7l0.1,0.1c0.2,0.2,0.4,0.3,0.6,0.5c1,0.7,2.1,1.1,3.3,1.1h6.3c3.4,0,6.1-3,6.1-6.6v-0.7v-1.6V29v-2.6
				v-0.2v-0.4v-2.2C34.2,22.2,33.2,21.1,31.9,21.1"/>
			<path style="fill:#898379;" d="M11.8,27.7c-0.5,0-0.9,0.2-1.3,0.6c-0.7,0.8-0.7,2.1,0,2.8l7,7.5c0,0,0,0,0,0
				c0.2,0.2,0.4,0.4,0.6,0.6c0,0,0,0,0,0l0.1,0.1c0.1,0.1,0.3,0.3,0.5,0.4c0,0,0,0,0,0c0.9,0.6,2,1,3.1,1h6.3c3.1,0,5.6-2.7,5.6-6.1
				v-11c0-1.1-0.8-2-1.8-2c-1,0-1.8,0.9-1.8,2v2.2c0,0.3-0.2,0.5-0.5,0.5h-0.1c-0.3,0-0.5-0.2-0.5-0.5v-3.1c0-1.1-0.8-2-1.8-2
				c-1,0-1.8,0.9-1.8,2v3.1c0,0.3-0.2,0.5-0.5,0.5h-0.1c-0.3,0-0.5-0.2-0.5-0.5v-3.8c0-1.1-0.8-2-1.8-2c-1,0-1.8,0.9-1.8,2v3.8
				c0,0.3-0.2,0.5-0.5,0.5h-0.1c-0.3,0-0.5-0.2-0.5-0.5V14.2c0-1.1-0.8-2-1.8-2c-1,0-1.8,0.9-1.8,2v16.1c0,0.2-0.1,0.4-0.3,0.5
				c-0.2,0.1-0.4,0-0.5-0.1l-2.2-2.4C12.8,27.9,12.3,27.7,11.8,27.7 M28.1,41.7h-6.3c-1.3,0-2.5-0.4-3.6-1.1
				c-0.3-0.1-0.5-0.3-0.7-0.5L17.5,40c-0.2-0.2-0.4-0.4-0.6-0.7l-6.9-7.5c-1.1-1.1-1.1-3,0-4.2c0.5-0.6,1.2-0.9,2-0.9
				c0.8,0,1.5,0.3,2,0.9l1.4,1.5V14.2c0-1.6,1.2-3,2.8-3c1.5,0,2.8,1.3,2.8,3v5.5c0.5-0.5,1.1-0.8,1.9-0.8c1.1,0,2.1,0.7,2.5,1.8
				c0.5-0.6,1.3-1,2.1-1c1.2,0,2.2,0.8,2.6,1.9c0.5-0.6,1.2-1,2-1c1.5,0,2.8,1.3,2.8,3v11C34.7,38.5,31.8,41.7,28.1,41.7"/>
		</g>
	</g>
</g>
</svg>
