<svg xmlns="http://www.w3.org/2000/svg" viewBox="0 0 74.52 105.12"><defs><style>.cls-1{fill:#fff;stroke:#3d69a7;stroke-miterlimit:10;stroke-width:6px;}</style></defs><g id="레이어_2" data-name="레이어 2"><g id="Layer_1" data-name="Layer 1"><path class="cls-1" d="M68.76,28.8c0,9.84-5.76,17.76-14,20.76C65,53.28,71.52,61.08,71.52,73.32c0,17.76-13.44,28.8-34.2,28.8S3,91.08,3,73.32c0-12.24,6.48-20,16.8-23.76-8.28-3-13.92-10.92-13.92-20.76C5.88,13.56,17.76,3,37.32,3S68.76,13.56,68.76,28.8ZM49.56,71.28c0-8.76-4.92-13.44-12.24-13.44S25,62.52,25,71.28s4.92,13.56,12.36,13.56S49.56,80,49.56,71.28ZM47,30.84c0-6.6-3.6-10.56-9.72-10.56s-10,4-10,10.56,3.72,10.44,10,10.44S47,37.44,47,30.84Z"/></g></g></svg>