<?xml version="1.0" encoding="utf-8"?>
<!-- Generator: Adobe Illustrator 23.0.0, SVG Export Plug-In . SVG Version: 6.00 Build 0)  -->
<svg version="1.1" id="레이어_1" xmlns="http://www.w3.org/2000/svg" xmlns:xlink="http://www.w3.org/1999/xlink" x="0px"
	 y="0px" width="37.4px" height="41.8px" viewBox="0 0 37.4 41.8" style="enable-background:new 0 0 37.4 41.8;"
	 xml:space="preserve">
<g>
	<path style="fill:none;stroke:#FFFFFF;stroke-width:5;stroke-linecap:round;stroke-linejoin:round;stroke-miterlimit:10;" d="
		M14.3,14.2c3.7-3.7,9.7-3.7,13.4,0c3.7,3.7,3.7,9.7,0,13.4c-3.7,3.7-9.7,3.7-13.4,0C10.6,23.9,10.6,17.9,14.3,14.2z"/>
</g>
<g>
	<defs>
		<path id="SVGID_1_" d="M6.9,6.8c-7.8,7.8-7.8,20.5,0,28.3c7.8,7.8,20.5,7.8,28.3,0c1.6-1.6,1.6-4.1,0-5.7c-1.6-1.6-4.1-1.6-5.7,0
			c-4.7,4.7-12.3,4.7-16.9,0s-4.7-12.3,0-16.9c4.7-4.7,12.3-4.7,16.9,0c1.6,1.6,4.1,1.6,5.7,0c1.6-1.6,1.6-4.1,0-5.7
			c-3.9-3.9-9-5.8-14.1-5.8S10.8,2.9,6.9,6.8"/>
	</defs>
	<clipPath id="SVGID_2_">
		<use xlink:href="#SVGID_1_"  style="overflow:visible;"/>
	</clipPath>
	
		<linearGradient id="SVGID_3_" gradientUnits="userSpaceOnUse" x1="-471.5545" y1="558.6683" x2="-470.5545" y2="558.6683" gradientTransform="matrix(32.9362 78.1277 78.1277 -32.9362 -28103.1641 55252.2188)">
		<stop  offset="0" style="stop-color:#FFBA4C"/>
		<stop  offset="0.8313" style="stop-color:#FF1D25"/>
		<stop  offset="1" style="stop-color:#FF1D25"/>
	</linearGradient>
	<polygon style="clip-path:url(#SVGID_2_);fill:url(#SVGID_3_);" points="31.1,-12.5 51.7,36.5 4.8,56.3 -15.9,7.3 	"/>
</g>
<g>
	<path style="fill:#FFBA4C;" d="M16,15.9c2.8-2.8,7.3-2.8,10.1,0c2.8,2.8,2.8,7.3,0,10.1c-2.8,2.8-7.3,2.8-10.1,0
		C13.2,23.2,13.2,18.7,16,15.9"/>
</g>
</svg>
