<?xml version="1.0" encoding="utf-8"?>
<!-- Generator: Adobe Illustrator 25.1.0, SVG Export Plug-In . SVG Version: 6.00 Build 0)  -->
<svg version="1.1" xmlns="http://www.w3.org/2000/svg" xmlns:xlink="http://www.w3.org/1999/xlink" x="0px" y="0px" width="182px"
	 height="368.7px" viewBox="0 0 182 368.7" style="enable-background:new 0 0 182 368.7;" xml:space="preserve">
<g id="레이어_1">
</g>
<g id="Layer_1">
	<g>
		<circle style="fill:#23BCEE;stroke:#094D83;stroke-width:0.25;stroke-miterlimit:10;" cx="91" cy="276.8" r="90"/>
		<radialGradient id="SVGID_1_" cx="91.0001" cy="276.7725" r="81.8182" gradientUnits="userSpaceOnUse">
			<stop  offset="0" style="stop-color:#47C6EE"/>
			<stop  offset="1" style="stop-color:#4981C2"/>
		</radialGradient>
		<circle style="fill:url(#SVGID_1_);" cx="91" cy="276.8" r="81.8"/>
		<g style="opacity:0.63;">
			<path style="fill:#FFFFFF;" d="M148.8,251.2c-2,0-3.9-1-4.9-2.8c-0.9-1.5-1.8-3-2.8-4.4c-1.8-2.6-1.2-6.2,1.4-8
				c2.6-1.8,6.2-1.2,8,1.4c1.2,1.6,2.3,3.4,3.3,5.1c1.6,2.7,0.7,6.2-2,7.8C150.8,251,149.8,251.2,148.8,251.2z"/>
			<path style="fill:#FFFFFF;" d="M133.4,232.9c-1.3,0-2.6-0.4-3.7-1.4c-10.9-9.2-24.2-14.6-38.4-15.4c-3.2-0.2-5.6-2.9-5.4-6.1
				c0.2-3.2,3-5.6,6.1-5.4c16.8,1,32.4,7.3,45.1,18.1c2.4,2,2.7,5.7,0.7,8.1C136.6,232.2,135,232.9,133.4,232.9z"/>
		</g>
	</g>
	<g>
		<path style="fill:#F9ED36;stroke:#FFFFFF;stroke-width:3;stroke-miterlimit:10;" d="M91,241.5c19.5,0,35.3,15.8,35.3,35.3
			c0,19.5-15.8,35.3-35.3,35.3c-19.5,0-35.3-15.8-35.3-35.3C55.7,257.3,71.5,241.5,91,241.5 M91,227.2c-27.4,0-49.6,22.2-49.6,49.6
			c0,27.4,22.2,49.6,49.6,49.6s49.6-22.2,49.6-49.6C140.6,249.4,118.4,227.2,91,227.2L91,227.2z"/>
	</g>
	<g>
		<g>
			<circle style="fill:#23BCEE;" cx="91" cy="91.8" r="90"/>
			<radialGradient id="SVGID_2_" cx="91.0001" cy="91.7725" r="81.8182" gradientUnits="userSpaceOnUse">
				<stop  offset="0" style="stop-color:#47C6EE"/>
				<stop  offset="1" style="stop-color:#4981C2"/>
			</radialGradient>
			<circle style="fill:url(#SVGID_2_);" cx="91" cy="91.8" r="81.8"/>
			<g style="opacity:0.5;">
				<path style="fill:#FFFFFF;" d="M148.8,66.2c-2,0-3.9-1-4.9-2.8c-0.9-1.5-1.8-3-2.8-4.4c-1.8-2.6-1.2-6.2,1.4-8
					c2.6-1.8,6.2-1.2,8,1.4c1.2,1.6,2.3,3.4,3.3,5.1c1.6,2.7,0.7,6.2-2,7.8C150.8,66,149.8,66.2,148.8,66.2z"/>
				<path style="fill:#FFFFFF;" d="M133.4,47.9c-1.3,0-2.6-0.4-3.7-1.4c-10.9-9.2-24.2-14.6-38.4-15.4c-3.2-0.2-5.6-2.9-5.4-6.1
					c0.2-3.2,3-5.6,6.1-5.4c16.8,1,32.4,7.3,45.1,18.1c2.4,2,2.7,5.7,0.7,8.1C136.6,47.2,135,47.9,133.4,47.9z"/>
			</g>
		</g>
		<g>
			<path style="fill:#FFFFFF;" d="M91,59.8c17.6,0,32,14.4,32,32c0,17.6-14.4,32-32,32c-17.6,0-32-14.4-32-32
				C59,74.1,73.4,59.8,91,59.8 M91,46.8c-24.9,0-45,20.1-45,45c0,24.9,20.1,45,45,45s45-20.1,45-45C136,66.9,115.9,46.8,91,46.8
				L91,46.8z"/>
		</g>
	</g>
</g>
</svg>
