<svg xmlns="http://www.w3.org/2000/svg" viewBox="0 0 38.56 55"><defs><style>.cls-1{fill:#83e8d3;}.cls-2{fill:#47d7ac;}.cls-3{fill:#f4f4f4;}.cls-4{fill:#d8d8d8;}.cls-5{fill:#fff;}.cls-6{fill:#faffff;}.cls-7{fill:#d6e3e8;}.cls-8{fill:#9683e5;}.cls-9{fill:#6e69d1;}.cls-10{fill:#f8b242;}.cls-11{fill:#01b593;}.cls-12{fill:#ffb9b8;}.cls-13{fill:#ff88a1;}.cls-14{fill:#1cb594;}</style></defs><g id="레이어_2" data-name="레이어 2"><g id="Layer_1" data-name="Layer 1"><path class="cls-1" d="M7.18,46.71A54.43,54.43,0,0,1,6.32,36,50.9,50.9,0,0,1,1.23,24.4c-1.65-6.61-.43-8,.5-8.58.77-.49,5.53-1.69,4.1,5.75l13.88,8.69L26,36.19l2.78,5.93-5.73,3.45L7.56,46.71Z"/><path class="cls-2" d="M6.86,46.78A56.26,56.26,0,0,1,6,36.11,51.52,51.52,0,0,1,.91,24.48c-1.64-6.55-.52-8.22.64-8.94A3.57,3.57,0,0,1,5,15.6c1.3.89,1.69,2.84,1.16,5.81L19.88,30l.05,0L26.27,36a.36.36,0,0,1,.07.1L29.12,42a.32.32,0,0,1-.13.42l-5.73,3.45a.33.33,0,0,1-.14,0L7.56,47H7.18A.32.32,0,0,1,6.86,46.78ZM28.4,42l-2.63-5.6L19.5,30.52,5.66,21.85a.33.33,0,0,1-.15-.35c.53-2.76.24-4.62-.84-5.36a2.94,2.94,0,0,0-2.77,0c-.57.35-2.08,1.3-.35,8.22A50.65,50.65,0,0,0,6.6,35.85a.41.41,0,0,1,.05.19,53.1,53.1,0,0,0,.81,10.34h.07L23,45.24Z"/><path class="cls-3" d="M29.56,47.4a26.46,26.46,0,0,1,4.13,6.41s-3.59-.5-16.84-.2c0,0-10.39-.54-16.2.2,0,0,1.24-4.39,2-5.19s11.45-1.29,14.31.27A19.68,19.68,0,0,1,29.56,47.4"/><path class="cls-4" d="M.53,53.92a.17.17,0,0,1,0-.15c.05-.18,1.26-4.45,2.05-5.26s11.51-1.29,14.43.2A20.12,20.12,0,0,1,29.6,47.24h0c.4.09,3.31,4.18,4.24,6.51a.13.13,0,0,1,0,.16.18.18,0,0,1-.15.07s-3.75-.5-16.83-.2c-.1,0-10.44-.54-16.17.2h0A.14.14,0,0,1,.53,53.92ZM17.05,49a.15.15,0,0,1-.16,0C14.06,47.49,3.51,48,2.78,48.73c-.56.58-1.45,3.32-1.9,4.89,5.8-.69,15.87-.18,16-.17a160.29,160.29,0,0,1,16.58.17,28.41,28.41,0,0,0-3.92-6.06A19.67,19.67,0,0,0,17.05,49Z"/><path class="cls-5" d="M16.85,52.76A26.36,26.36,0,0,1,17,48.48"/><path class="cls-6" d="M3.61,43.29c-1.27,1.64-2.26,7.19-2.5,8.45s7.54-3.63,16.17.86c8-4.58,14.76-1.18,14.58-1.86-.23-.86-3.87-8.31-3.87-8.31-.31-.09-9.66-.06-11.25,1,0,0-9.45-1.85-13.13-.13"/><path class="cls-7" d="M17.18,52.81c-6-3.11-11.57-1.64-14.26-.93-1.15.3-1.67.44-1.93.2a.4.4,0,0,1-.1-.38l0-.15c.84-4.5,1.68-7.32,2.52-8.4a.27.27,0,0,1,.08-.07c3.56-1.67,12.16-.1,13.18.09,1.88-1,11-1.08,11.37-1a.24.24,0,0,1,.14.12c.15.3,3.65,7.48,3.89,8.35A.3.3,0,0,1,32,51c-.16.17-.43.12-1.23-.05A18,18,0,0,0,17.4,52.8a.28.28,0,0,1-.12,0A.19.19,0,0,1,17.18,52.81Zm13.7-2.35c.26,0,.51.11.69.13-.45-1.15-2.55-5.53-3.73-7.94-1.08-.06-9.55,0-11,1a.21.21,0,0,1-.17,0c-.09,0-9.32-1.81-12.93-.17C3,44.53,2.18,47.27,1.37,51.63l0,.11a7.34,7.34,0,0,0,1.46-.31c2.73-.72,8.39-2.2,14.47.91a17.84,17.84,0,0,1,9-2.42A21.85,21.85,0,0,1,30.88,50.46Z"/><path class="cls-8" d="M31.93,53.07H15.41L1,53.19A.87.87,0,0,0,.16,54a.77.77,0,0,0,.81.8H33.11s1.24,0,1-1-1-.75-2.22-.74"/><path class="cls-9" d="M.26,54.73A.94.94,0,0,1,0,54a1,1,0,0,1,1-1l14.39-.13H32.32c1,0,1.8,0,2,.88a.94.94,0,0,1-.15.78,1.52,1.52,0,0,1-1,.44H1A1.07,1.07,0,0,1,.26,54.73Zm32.06-1.5H15.41L1,53.36a.68.68,0,0,0-.7.68.59.59,0,0,0,.16.45.76.76,0,0,0,.48.18H33.11a1.2,1.2,0,0,0,.79-.32.59.59,0,0,0,.09-.5c-.12-.55-.48-.62-1.34-.62Z"/><path class="cls-10" d="M25.76,39.65a9.15,9.15,0,0,1,.07,3.26"/><path class="cls-2" d="M25.83,43.17a.26.26,0,0,0,.25-.2,7.67,7.67,0,0,0,0-3.29v0a.31.31,0,0,0,0-.08.28.28,0,0,0-.32-.16c-.23.07-.19.3-.17.39a7.33,7.33,0,0,1,.06,3.06.26.26,0,0,0,.19.32Z"/><path class="cls-1" d="M27.08,41s-3.89-.24-5.16.77A2.35,2.35,0,0,0,21.3,45c.58.71,2.35,2,6.68,1.64s5-3.59,4.8-5.36-1.94-6-8.2-6.74"/><path class="cls-2" d="M26.45,47.09c.48,0,1,0,1.56-.08a5.61,5.61,0,0,0,4-1.88,5.33,5.33,0,0,0,1.08-3.85c-.22-2.12-2.27-6.33-8.49-7a.34.34,0,0,0-.37.29.33.33,0,0,0,.29.36c5.8.66,7.71,4.51,7.91,6.45a4.73,4.73,0,0,1-.93,3.36A5,5,0,0,1,28,46.35c-4.45.41-6-1.06-6.39-1.52a1.74,1.74,0,0,1-.32-1.26,2.21,2.21,0,0,1,.88-1.51c1-.77,3.89-.76,4.94-.7a.33.33,0,1,0,0-.65c-.16,0-4-.25-5.39.83a3,3,0,0,0-1.13,2,2.41,2.41,0,0,0,.47,1.75C21.53,45.84,23,47.09,26.45,47.09Z"/><path class="cls-7" d="M17.33,52.36l.07,0c.12-.06.12-.06,0-1a40.68,40.68,0,0,1-.29-8,.17.17,0,1,0-.33-.05,40,40,0,0,0,.3,8.08c0,.37.07.69.07.78a.18.18,0,0,0,.06.17A.15.15,0,0,0,17.33,52.36Z"/><path class="cls-5" d="M35.07,5.41a3.46,3.46,0,0,1,.65-.14c1.19-.12,1.89.51,2.13,1.87a6.14,6.14,0,0,1-.58,3.32,10.53,10.53,0,0,1-2.22,3.12,11.36,11.36,0,0,1-5.43-4,12.09,12.09,0,0,1,5.45-4.2"/><path class="cls-2" d="M35,14h0a11.89,11.89,0,0,1-5.61-4.11.38.38,0,0,1,0-.46A12.49,12.49,0,0,1,35,5a2.85,2.85,0,0,1,.72-.14c1-.1,2.21.19,2.55,2.19a6.62,6.62,0,0,1-.61,3.54,11.1,11.1,0,0,1-2.3,3.23A.4.4,0,0,1,35,14m.79-8.3a2.51,2.51,0,0,0-.56.11,11.5,11.5,0,0,0-5.08,3.85A11,11,0,0,0,35,13.14a10.26,10.26,0,0,0,2-2.83,5.78,5.78,0,0,0,.55-3.11c-.18-1-.61-1.4-1.08-1.52A2,2,0,0,0,35.75,5.66Z"/><path class="cls-5" d="M12.69,4.69a6.31,6.31,0,0,1,1-3.25C14.49.33,15.4.1,16.41.74a3,3,0,0,1,.52.41,12,12,0,0,1,3,6.19,11.4,11.4,0,0,1-6.63,1.12,10.57,10.57,0,0,1-.6-3.77"/><path class="cls-2" d="M13.2,8.84a.41.41,0,0,1-.28-.25,11.14,11.14,0,0,1-.61-3.91,6.66,6.66,0,0,1,1.06-3.46C14.56-.4,15.79-.11,16.6.41a2.74,2.74,0,0,1,.6.47,12.39,12.39,0,0,1,3.09,6.38.36.36,0,0,1-.2.42,11.8,11.8,0,0,1-6.85,1.16h0m3.46-7.42a2.5,2.5,0,0,0-.46-.36C15.64.7,14.88.45,14,1.65a6,6,0,0,0-.91,3.05,10.31,10.31,0,0,0,.49,3.41,11,11,0,0,0,5.91-1A11.51,11.51,0,0,0,16.66,1.42Z"/><path class="cls-5" d="M9.43,9.44A12.78,12.78,0,0,1,17.4,5a21.39,21.39,0,0,1,7.84.25l.1,0,.12,0,.11,0a21.42,21.42,0,0,1,7.12,3.28A12.76,12.76,0,0,1,38,17a18.37,18.37,0,0,1-.2,6.44,11.29,11.29,0,0,0-.25,3q.59,6.84-4.61,9.13a11.53,11.53,0,0,1-1.13.43l-.05,0-1,.3a21.77,21.77,0,0,1-8.39.66l-.6-.07a26.62,26.62,0,0,1-3.54-.57l-.33-.08a27,27,0,0,1-3.41-1.07l-.57-.2a24.14,24.14,0,0,1-3.29-1.52A21.61,21.61,0,0,1,6.7,30.67c-.27-.25-.54-.5-.79-.76A9.37,9.37,0,0,1,5.1,29q-3.63-4.38,0-10.24A11.13,11.13,0,0,0,6.19,16,17.9,17.9,0,0,1,9.43,9.44"/><path class="cls-1" d="M3.71,26.69c-.87-2.36-.43-5,1.35-7.9A11.13,11.13,0,0,0,6.19,16c.15-.53.31-1,.49-1.52l-.11-.16a.27.27,0,0,1,.06-.38A.28.28,0,0,1,7,14,18.63,18.63,0,0,1,9,17.43a4.91,4.91,0,0,1-.37,4.25c-.14.25-.28.48-.42.71A21.34,21.34,0,0,1,4,27.17a.28.28,0,0,1-.25.06.42.42,0,0,1-.14-.09.27.27,0,0,1,0-.39Z"/><path class="cls-1" d="M34.64,23.5a18.42,18.42,0,0,1,3.3-2.22.27.27,0,0,1,.26.48l-.18.1c-.06.52-.14,1-.24,1.58a11.29,11.29,0,0,0-.25,3c.29,3.4-.49,6-2.34,7.67l0,.09a.27.27,0,0,1-.14.36.33.33,0,0,1-.17,0,.28.28,0,0,1-.19-.16,21.33,21.33,0,0,1-1.59-6.15c0-.27-.05-.54-.06-.83A4.9,4.9,0,0,1,34.64,23.5Z"/><path class="cls-2" d="M18.13,36.75l-.33-.08a28.82,28.82,0,0,1-3.45-1.09l-.58-.21a23.09,23.09,0,0,1-3.34-1.54,21.9,21.9,0,0,1-4-2.88c-.27-.25-.55-.51-.79-.77a9,9,0,0,1-.85-.91c-2.52-3-2.54-6.64-.07-10.67a10.72,10.72,0,0,0,1.09-2.73A18.07,18.07,0,0,1,9.14,9.2a13.22,13.22,0,0,1,8.2-4.61,21.71,21.71,0,0,1,8,.26l.34.08a21.85,21.85,0,0,1,7.26,3.34,13.21,13.21,0,0,1,5.43,8.67,18.91,18.91,0,0,1-.19,6.58,10.88,10.88,0,0,0-.25,2.92c.4,4.72-1.22,7.92-4.84,9.51a9.79,9.79,0,0,1-1.15.44l-.06,0c-.33.11-.67.22-1,.31a22.31,22.31,0,0,1-8.54.67l-.59-.07a27.36,27.36,0,0,1-3.59-.57m7-31.15a20.8,20.8,0,0,0-7.69-.25A12.4,12.4,0,0,0,9.73,9.69a17.27,17.27,0,0,0-3.17,6.38A11.86,11.86,0,0,1,5.39,19c-2.32,3.79-2.32,7,0,9.8.24.28.5.56.8.85a9,9,0,0,0,.77.74,20.85,20.85,0,0,0,3.85,2.78A22.65,22.65,0,0,0,14,34.65l.58.21A26.2,26.2,0,0,0,18,35.92l.33.08a27,27,0,0,0,3.49.56l.6.07A21.63,21.63,0,0,0,30.65,36l1-.29.08,0a10.53,10.53,0,0,0,1.08-.41c3.33-1.46,4.77-4.33,4.39-8.75h0a11.17,11.17,0,0,1,.26-3.12,18.09,18.09,0,0,0,.18-6.31A12.38,12.38,0,0,0,32.47,8.9a20.87,20.87,0,0,0-7-3.23ZM37.53,26.47Z"/><path d="M25.47,24.56a3.82,3.82,0,0,1,0-1.87,4,4,0,0,1,.82-1.7,1.18,1.18,0,0,1,1.13-.51c.38.09.64.41.79,1a3.75,3.75,0,0,1,0,1.88A3.77,3.77,0,0,1,27.39,25a1.2,1.2,0,0,1-1.14.53q-.57-.14-.78-1"/><path class="cls-1" d="M27.29,18h0a.73.73,0,0,1-.52-.28.71.71,0,0,1-.2-.56.76.76,0,0,1,.27-.54.72.72,0,0,1,.52-.21l3,.18a.71.71,0,0,1,.51.26.78.78,0,0,1,.2.57.79.79,0,0,1-.73.74h-.06L27.29,18"/><path class="cls-2" d="M27.08,18.29a.93.93,0,0,1-.54-.34,1,1,0,0,1-.26-.75,1,1,0,0,1,.35-.73,1,1,0,0,1,.72-.28l3,.18a1,1,0,0,1,.69.35,1,1,0,0,1,.26.77,1,1,0,0,1-.34.71,1,1,0,0,1-.63.28H30.2l-2.89-.16h-.06a.51.51,0,0,1-.17,0m.15,0Zm0,0Zm.18,0Zm-.09-.51,2.93.16h0a.5.5,0,0,0,.31-.15.46.46,0,0,0,.16-.34.5.5,0,0,0-.12-.37.48.48,0,0,0-.32-.17l-3-.17a.46.46,0,0,0-.33.13.48.48,0,0,0-.17.36.41.41,0,0,0,.11.34l0,0a.44.44,0,0,0,.28.17Zm2.91.17Zm.07,0Z"/><path d="M17.52,20.81a3.78,3.78,0,0,1-.82,1.68,1.17,1.17,0,0,1-1.14.53c-.38-.09-.64-.42-.78-1a3.75,3.75,0,0,1,0-1.88,3.77,3.77,0,0,1,.82-1.69A1.17,1.17,0,0,1,16.76,18a1.16,1.16,0,0,1,.78,1,3.68,3.68,0,0,1,0,1.89"/><path class="cls-1" d="M15.34,13.24a.73.73,0,0,1,.58,0l2.73,1.17a.71.71,0,0,1,.38.42.83.83,0,0,1,0,.6.71.71,0,0,1-.42.41.72.72,0,0,1-.59,0l0,0-2.71-1.17,0,0a.78.78,0,0,1-.33-.4.81.81,0,0,1,.44-1"/><path class="cls-2" d="M18.06,16.16l-.16-.05,0,0-2.66-1.15-.11,0a1,1,0,0,1-.43-.53,1,1,0,0,1,0-.79,1.1,1.1,0,0,1,.58-.58A1.05,1.05,0,0,1,16,13l2.75,1.19a1,1,0,0,1,.52.56,1.08,1.08,0,0,1,0,.81.94.94,0,0,1-.57.55,1,1,0,0,1-.64.07m-.13-.05Zm0,0ZM17.77,16Zm-2.32-2.51a.48.48,0,0,0-.28.28.46.46,0,0,0,0,.38.43.43,0,0,0,.21.26h0l2.7,1.17.06,0a.39.39,0,0,0,.33,0h0a.42.42,0,0,0,.26-.26.55.55,0,0,0,0-.4.47.47,0,0,0-.22-.26l-2.73-1.17-.08,0A.41.41,0,0,0,15.45,13.49Zm0,.95Z"/><path d="M19.72,29.27a3.52,3.52,0,0,0,2.12-.11,1.93,1.93,0,0,0,1-.86.24.24,0,0,0-.1-.33.25.25,0,0,0-.33.1,1.47,1.47,0,0,1-.79.63,3,3,0,0,1-1.83.09,3,3,0,0,1-1.58-.89,1.46,1.46,0,0,1-.43-.93.25.25,0,0,0-.26-.23.24.24,0,0,0-.23.25,1.91,1.91,0,0,0,.55,1.23,3.38,3.38,0,0,0,1.84,1.05"/><path class="cls-11" d="M27.66,31.17a6.51,6.51,0,0,1-3.8-2.5,6.69,6.69,0,0,1-1.36-5.25,7.11,7.11,0,0,1,2.84-4.73,7.22,7.22,0,0,1,5.32-1.47,6.88,6.88,0,0,1,6.09,7.91,7.17,7.17,0,0,1-2.83,4.73,7.25,7.25,0,0,1-5.35,1.47,8.63,8.63,0,0,1-.91-.16m2.9-13.06a6.26,6.26,0,0,0-4.68,1.29,6.14,6.14,0,0,0-2.5,4.16h0a5.71,5.71,0,0,0,1.19,4.57,5.67,5.67,0,0,0,4.1,2.31A6.51,6.51,0,0,0,35.87,25a5.87,5.87,0,0,0-1.16-4.58,5.78,5.78,0,0,0-3.32-2.17A7.18,7.18,0,0,0,30.56,18.11Z"/><path class="cls-5" d="M27.9,30.38a5.91,5.91,0,0,1-3.39-2.22,5.84,5.84,0,0,1-1.19-4.65,6.25,6.25,0,0,1,2.52-4.2A6.38,6.38,0,0,1,30.56,18,6.09,6.09,0,0,1,36,25a6.34,6.34,0,0,1-2.52,4.2,6.49,6.49,0,0,1-4.74,1.31c-.28,0-.54-.08-.8-.14m2.61-11.93a5.94,5.94,0,0,0-4.4,1.22,5.83,5.83,0,0,0-2.36,3.9h0a5.68,5.68,0,0,0,5,6.5,6.16,6.16,0,0,0,6.77-5.13,5.54,5.54,0,0,0-1.09-4.3,5.47,5.47,0,0,0-3.15-2.06A6.51,6.51,0,0,0,30.51,18.45Z"/><path class="cls-11" d="M11.28,27.3a6.61,6.61,0,0,1-3.8-2.5,6.65,6.65,0,0,1-1.36-5.25A7.11,7.11,0,0,1,9,14.82a7.22,7.22,0,0,1,5.32-1.47,6.87,6.87,0,0,1,6.09,7.91A7.17,7.17,0,0,1,17.54,26a7.24,7.24,0,0,1-5.35,1.46,6.64,6.64,0,0,1-.91-.15m2.9-13.06A6.21,6.21,0,0,0,9.5,15.53,6.14,6.14,0,0,0,7,19.68H7a5.71,5.71,0,0,0,1.19,4.57,5.67,5.67,0,0,0,4.1,2.31A6.26,6.26,0,0,0,17,25.29a6.25,6.25,0,0,0,2.49-4.16,5.86,5.86,0,0,0-1.16-4.58A5.73,5.73,0,0,0,15,14.38,5.53,5.53,0,0,0,14.18,14.24Z"/><path class="cls-5" d="M11.52,26.51a5.88,5.88,0,0,1-3.39-2.23,5.83,5.83,0,0,1-1.19-4.65,6.23,6.23,0,0,1,2.52-4.19,6.38,6.38,0,0,1,4.72-1.3,6.09,6.09,0,0,1,5.4,7,6.59,6.59,0,0,1-7.26,5.5,6.68,6.68,0,0,1-.8-.13m2.61-11.93a5.93,5.93,0,0,0-4.4,1.21A5.85,5.85,0,0,0,7.37,19.7h0A5.45,5.45,0,0,0,8.48,24a5.49,5.49,0,0,0,3.89,2.19A5.93,5.93,0,0,0,16.79,25a5.93,5.93,0,0,0,2.35-3.91,5.54,5.54,0,0,0-1.09-4.3,5.47,5.47,0,0,0-3.15-2.06A6.51,6.51,0,0,0,14.13,14.58Z"/><path class="cls-11" d="M19.9,22.76a.39.39,0,0,0,.26,0,2.65,2.65,0,0,1,1.23-.13,2.57,2.57,0,0,1,1.07.53.44.44,0,1,0,.59-.65,3.45,3.45,0,0,0-1.5-.75,3.46,3.46,0,0,0-1.72.19.44.44,0,0,0-.24.57A.45.45,0,0,0,19.9,22.76Z"/><path class="cls-12" d="M27.4,34.44a1.47,1.47,0,0,0-1-1,1.93,1.93,0,0,0-1.43,0l-3.9,12.8s-.11,2.3.42,2.53,1.76-1.35,2.07-1.9S27.4,34.44,27.4,34.44Z"/><path class="cls-13" d="M21.44,49.06c-.88-.29-.65-2.67-.51-3.67,0,0,0,0,0,0l1.88-6c1.67-5.28,1.9-6,2-6.12h0a1.93,1.93,0,0,1,1.64,0,1.54,1.54,0,0,1,1.15,1.21.28.28,0,0,1,0,.09L23.85,47l0,.06c-.3.5-1.31,2-2.17,2Zm5.7-14.62a1.1,1.1,0,0,0-.79-.71,1.53,1.53,0,0,0-1.14-.06c-.29.8-2.37,7.38-3.76,11.81-.21,1.52-.13,3,.16,3.08s1.17-.82,1.75-1.76Z"/><path class="cls-14" d="M14.53,41.71a3.39,3.39,0,0,1,.27-1.26,2.89,2.89,0,0,1,.7-1,3.06,3.06,0,0,1,2.3-.95,3,3,0,0,1,2.27,1,3.09,3.09,0,0,1,.69,1A3.28,3.28,0,0,1,21,41.75v.19H19.25v-.19a1.5,1.5,0,0,0-.42-1.06,1.46,1.46,0,0,0-1-.44,1.51,1.51,0,0,0-1.06.43,1.41,1.41,0,0,0-.45,1.06v.18H14.53v-.2"/><path class="cls-1" d="M27.4,41.08s-6.34-.78-6.68,2.51,5.52,3.12,7.28,2.69,3.4-2,2.53-3.5S27.4,41.08,27.4,41.08Z"/><path class="cls-2" d="M26.4,47.09A7.26,7.26,0,0,0,28,46.94a.26.26,0,0,0,.19-.32.25.25,0,0,0-.32-.19c-1.34.32-4.71.15-6.2-1.12a1.93,1.93,0,0,1-.73-1.7,2,2,0,0,1,.78-1.44c1.7-1.36,5.56-.84,5.6-.83a.26.26,0,0,0,.3-.23.27.27,0,0,0-.22-.3c-.17,0-4.13-.56-6,.94a2.53,2.53,0,0,0-1,1.81,2.43,2.43,0,0,0,.91,2.15A8.41,8.41,0,0,0,26.4,47.09Z"/></g></g></svg>