<?xml version="1.0" encoding="utf-8"?>
<!-- Generator: Adobe Illustrator 25.2.0, SVG Export Plug-In . SVG Version: 6.00 Build 0)  -->
<svg version="1.1" id="레이어_1" xmlns="http://www.w3.org/2000/svg" xmlns:xlink="http://www.w3.org/1999/xlink" x="0px"
	 y="0px" viewBox="0 0 246.2 55" style="enable-background:new 0 0 246.2 55;" xml:space="preserve">
<g>
	<g>
		<path style="fill:#FFFFFF;" d="M27.5,53.5c-14.3,0-26-11.7-26-26s11.7-26,26-26h191.2c14.3,0,26,11.7,26,26s-11.7,26-26,26H27.5z"
			/>
		<path style="fill:#00BBE0;" d="M218.7,3c13.5,0,24.5,11,24.5,24.5c0,13.5-11,24.5-24.5,24.5H27.5C14,52,3,41,3,27.5
			C3,14,14,3,27.5,3H218.7 M218.7,0H27.5C12.4,0,0,12.4,0,27.5v0C0,42.6,12.4,55,27.5,55h191.2c15.1,0,27.5-12.4,27.5-27.5v0
			C246.2,12.4,233.8,0,218.7,0L218.7,0z"/>
	</g>
	<path style="fill:#00BBE0;" d="M85.3,42c-0.9,0-1.7-0.1-2.5-0.3c-0.6-0.1-1.1-0.4-1.5-0.9c-0.4-0.5-0.6-1-0.7-1.6
		c-0.1-0.8-0.2-1.7-0.2-2.5V19.6c0-0.8,0.1-1.7,0.2-2.5c0.1-0.6,0.3-1.2,0.7-1.6c0.4-0.4,0.9-0.7,1.5-0.9c0.8-0.2,1.7-0.3,2.5-0.3
		h7.5c0.9,0,1.7,0.1,2.5,0.3c0.6,0.1,1.1,0.4,1.5,0.9c0.4,0.5,0.6,1,0.7,1.6c0.1,0.8,0.2,1.7,0.2,2.5V42L85.3,42z M86.6,35.8
		c0,0.3,0.1,0.6,0.2,0.8c0.2,0.2,0.5,0.3,0.8,0.3h3.9V20.4c0-0.3,0-0.5-0.2-0.8c-0.1-0.2-0.3-0.3-0.7-0.3h-3.3
		c-0.4,0-0.6,0.1-0.7,0.3c-0.1,0.2-0.2,0.5-0.1,0.8V35.8z M101.2,16.3c-0.1-0.9,0.3-1.7,1-2.3c0.6-0.5,1.4-0.8,2.2-0.8
		c0.4,0,0.8,0.1,1.2,0.2c0.4,0.1,0.7,0.4,1,0.6c0.3,0.3,0.5,0.6,0.7,1c0.2,0.4,0.3,0.9,0.3,1.3v8.1h1.1c0.4,0,0.8,0.1,1.2,0.3
		c0.3,0.2,0.6,0.4,0.8,0.7c0.2,0.3,0.3,0.6,0.4,0.9c0.2,0.6,0.2,1.3,0,1.9c-0.1,0.3-0.2,0.6-0.4,0.9c-0.2,0.3-0.5,0.5-0.8,0.7
		c-0.4,0.2-0.8,0.3-1.2,0.3h-1.1v13.2h-6.3V16.3z"/>
	<path style="fill:#00BBE0;" d="M138.2,37.2c0.4,0,0.9,0.1,1.2,0.2c0.3,0.1,0.6,0.4,0.9,0.6c0.2,0.2,0.4,0.5,0.5,0.9
		c0.1,0.3,0.1,0.6,0.1,1c0,0.3-0.1,0.7-0.2,1c-0.1,0.3-0.3,0.6-0.5,0.9c-0.2,0.3-0.5,0.5-0.8,0.6c-0.4,0.2-0.8,0.2-1.2,0.2h-24.4
		c-0.4,0-0.9-0.1-1.2-0.2c-0.3-0.1-0.6-0.4-0.8-0.6c-0.2-0.3-0.4-0.5-0.5-0.9c-0.1-0.3-0.2-0.7-0.2-1c0-0.3,0.1-0.6,0.1-1
		c0.1-0.3,0.3-0.6,0.5-0.9c0.2-0.3,0.5-0.5,0.9-0.6c0.4-0.2,0.8-0.2,1.2-0.2H138.2z M137,14.2c0.4,0,0.8,0.1,1.1,0.2
		c0.3,0.1,0.6,0.3,0.8,0.6c0.2,0.2,0.3,0.5,0.4,0.8c0.1,0.3,0.1,0.6,0.1,0.9c0,0.6-0.2,1.2-0.6,1.7c-0.5,0.5-1.2,0.8-1.9,0.8h-17
		c-0.6,0-1,0.3-1,0.8v1.2h17.7c0.7-0.1,1.4,0.2,1.9,0.8c0.4,0.5,0.6,1,0.6,1.6c0,0.6-0.2,1.2-0.6,1.6c-0.5,0.5-1.2,0.8-1.9,0.7H119
		v1.2c0,0.2,0.1,0.5,0.2,0.7c0.2,0.1,0.5,0.2,0.7,0.2h17.5c0.4,0,0.8,0.1,1.1,0.2c0.3,0.1,0.6,0.3,0.8,0.6c0.2,0.2,0.3,0.5,0.4,0.8
		c0.1,0.3,0.1,0.6,0.1,0.9c0,0.6-0.2,1.2-0.6,1.7c-0.5,0.5-1.2,0.8-1.9,0.8h-19.9c-1.9,0-3.2-0.4-3.9-1.2c-0.8-0.8-1.1-2.1-1.1-3.8
		v-8.8c0-1.7,0.4-3,1.1-3.8c0.8-0.8,2.1-1.2,3.9-1.2H137z"/>
	<path style="fill:#00BBE0;" d="M30.5,20c0.1,0.1,0.3,0.2,0.4,0.3c0.1,0.1,0.1,0.2,0.2,0.3c0,0.1,0,0.2,0,0.4c0,0.1-0.1,0.2-0.1,0.3
		c-0.1,0.1-0.1,0.2-0.2,0.3c-0.2,0.2-0.4,0.2-0.7,0.2c-0.2,0-0.3-0.1-0.4-0.1l-2.8-1.6c-0.1-0.1-0.3-0.2-0.3-0.3
		c-0.1-0.1-0.1-0.2-0.1-0.4c0-0.1,0-0.2,0-0.4c0-0.1,0.1-0.2,0.1-0.3c0.1-0.1,0.1-0.2,0.2-0.3c0.1-0.1,0.2-0.1,0.3-0.2
		c0.1,0,0.3-0.1,0.4,0c0.2,0,0.3,0.1,0.4,0.1L30.5,20z"/>
	<path style="fill:#00BBE0;" d="M28.8,24.4c0.1,0,0.3-0.1,0.5,0c0.1,0,0.3,0.1,0.4,0.1c0.1,0.1,0.2,0.2,0.2,0.3
		C30,24.9,30,25,30,25.1c0,0.1,0.1,0.2,0,0.4c0,0.1,0,0.2-0.1,0.3c-0.1,0.1-0.1,0.2-0.2,0.3c-0.1,0.1-0.3,0.2-0.4,0.2l-3.1,0.9
		c-0.1,0-0.3,0.1-0.5,0c-0.1,0-0.2-0.1-0.4-0.1c-0.1-0.1-0.2-0.1-0.3-0.2c-0.1-0.1-0.1-0.2-0.1-0.3c0-0.1,0-0.2,0-0.4
		c0-0.1,0-0.2,0.1-0.3c0.1-0.1,0.1-0.2,0.2-0.3c0.1-0.1,0.3-0.2,0.4-0.2L28.8,24.4z"/>
	<path style="fill:#00BBE0;" d="M34.1,17.2c0,0.1,0.1,0.3,0,0.5c0,0.1-0.1,0.3-0.1,0.4c-0.1,0.1-0.2,0.2-0.3,0.2
		c-0.2,0.1-0.4,0.2-0.7,0.2c-0.1,0-0.2,0-0.3-0.1c-0.1-0.1-0.2-0.1-0.3-0.2c-0.1-0.1-0.2-0.3-0.2-0.4l-0.9-3.1c0-0.1-0.1-0.3,0-0.5
		c0-0.1,0.1-0.2,0.1-0.3c0.1-0.1,0.1-0.2,0.2-0.3c0.1-0.1,0.2-0.1,0.3-0.2c0.1,0,0.2,0,0.3,0c0.1,0,0.2,0,0.4,0.1
		c0.1,0.1,0.2,0.1,0.3,0.2c0.1,0.1,0.2,0.3,0.2,0.4L34.1,17.2z"/>
	<path style="fill:#00BBE0;" d="M38.3,18.8c-3.6,0-6.5,2.9-6.5,6.5s2.9,6.5,6.5,6.5s6.5-2.9,6.5-6.5S41.9,18.8,38.3,18.8L38.3,18.8z
		 M38.3,29.1c-2.1,0-3.8-1.7-3.8-3.8s1.7-3.8,3.8-3.8s3.8,1.7,3.8,3.8c0,0,0,0,0,0C42.1,27.4,40.4,29.1,38.3,29.1z"/>
	<path style="fill:#00BBE0;" d="M40.9,24.7c-0.3-1.1-1.3-1.8-2.4-1.8c-0.6,0-1.2,0.2-1.6,0.6c-0.2,0.2-0.3,0.5-0.1,0.8c0,0,0,0,0,0
		c0.2,0.2,0.4,0.2,0.7,0.1c0.6-0.6,1.5-0.6,2.1,0c0.2,0.2,0.3,0.3,0.3,0.6c0.1,0.2,0.4,0.4,0.6,0.3C40.8,25.2,40.9,25,40.9,24.7z"/>
	<path style="fill:#00BBE0;" d="M77.6,38.9c-0.1-0.3-0.3-0.6-0.5-0.9c-0.2-0.3-0.5-0.5-0.9-0.6c-0.4-0.2-0.8-0.3-1.2-0.2H50.6
		c-0.4,0-0.9,0.1-1.2,0.2c-0.3,0.1-0.6,0.4-0.9,0.6c-0.2,0.3-0.4,0.6-0.5,0.9c-0.1,0.3-0.1,0.6-0.1,1c0,0.3,0.1,0.7,0.2,1
		c0.1,0.3,0.3,0.6,0.5,0.9c0.2,0.3,0.5,0.5,0.8,0.6c0.4,0.2,0.8,0.2,1.2,0.2H75c0.4,0,0.9-0.1,1.2-0.2c0.3-0.1,0.6-0.4,0.8-0.6
		c0.2-0.3,0.4-0.5,0.5-0.9c0.1-0.3,0.2-0.7,0.2-1C77.7,39.6,77.7,39.2,77.6,38.9z"/>
	<path style="fill:#00BBE0;" d="M54.6,31.5c1.1-0.3,2.1-0.8,3.1-1.4c1-0.6,2-1.3,2.9-2.1c0.9-0.8,1.8-1.7,2.5-2.7
		c0.9,0,1.8,0.1,2.7,0.4c0.8,0.3,1.6,0.7,2.3,1.3c0.7,0.6,1.2,1.4,1.7,2.2c0.5,0.9,0.8,1.9,0.9,2.9h6.5c-0.1-1.8-0.5-3.6-1.3-5.3
		c-0.6-1.4-1.5-2.7-2.7-3.7c-1-1-2.3-1.7-3.6-2.2c-1.3-0.5-2.6-0.7-4-0.8C65.8,19,66,18,66,17c0.1-0.9-0.2-1.7-0.8-2.4
		c-0.6-0.6-1.4-0.9-2.3-1c-0.8-0.1-1.7,0.1-2.4,0.6c-0.7,0.5-1.2,1.4-1.2,2.3c-0.2,1.3-0.5,2.5-1.1,3.7c-0.5,1.1-1.2,2.1-2,2.9
		c-0.7,0.9-1.6,1.6-2.7,2.1c-5.6,2.1-9.3-0.3-11,0.1c-0.2,0-0.4,0.1-0.5,0.2c0.1,0.3,0.1,0.5,0.1,0.8c0,1.2-0.7,2.2-1.7,2.7
		c0.1,0.5,0.5,1,0.9,1.3c0.6,0.4,1.2,0.7,1.9,0.8C44.4,31.4,49.9,32.7,54.6,31.5z"/>
	<path style="fill:#00BBE0;" d="M40.7,26.5c0,0.3-0.2,0.6-0.6,0.7c-0.3,0-0.6-0.2-0.7-0.6s0.2-0.6,0.6-0.7c0,0,0,0,0,0
		C40.4,25.9,40.7,26.2,40.7,26.5z"/>
	<path style="fill:#4E5254;" d="M169.5,36.8v6.9h-6.6v-6.9h-9.1c-1.9,0-2.7-1.3-2.7-2.6c0-1.3,0.7-2.7,2.7-2.7h24.9
		c2,0,2.7,1.4,2.7,2.7c0,1.3-0.8,2.6-2.7,2.6H169.5z M169.1,18.7c5.5,0.1,11,3.6,11.6,11.5h-6.5c-0.6-4-3.6-6.4-7.4-6.3
		c-2.9,3.9-7.8,6.4-12.2,6.4c-1.6,0-2.9-0.9-3-2.5c-0.1-1.6,0.7-2.8,2.4-3.1c4.2-0.7,8.1-3.8,8.8-8.5c0.3-2,1.8-3,3.6-2.9
		c1.9,0.2,3.1,1.4,3,3.4C169.4,17.4,169.3,18,169.1,18.7z"/>
	<path style="fill:#4E5254;" d="M184.2,24.4v-1.9c0-0.8,0.2-1.5,0.6-2.1c-1.6,0-2.4-1.1-2.4-2.3c0-1.2,0.8-2.4,2.4-2.4h4.7
		c0-1.8,1.3-2.9,3.2-2.9c1.9,0,3.2,1.1,3.3,2.9h4.7c1.6,0,2.4,1.2,2.4,2.4c0,1.2-0.7,2.3-2.3,2.3h0c0.4,0.6,0.6,1.4,0.6,2.1v1.9
		c0,4.7-4,6.8-8.6,6.8C188.2,31.2,184.2,29.1,184.2,24.4z M187.6,37.6c-1.8,0-2.8-1-2.8-2.6c0-1.5,1-2.6,2.8-2.6H207
		c4,0,4.8,1.1,4.8,5v6.1h-6.5v-5.2c0-0.5-0.3-0.8-0.8-0.8H187.6z M195.4,24.2v-1.7c0-1.6-1.3-2.4-2.7-2.4c-1.3,0-2.7,0.8-2.7,2.4
		v1.7c0,1.6,1.3,2.4,2.7,2.4C194.1,26.6,195.4,25.8,195.4,24.2z M205,16.4c0-2.1,1.5-3.2,3.2-3.2c1.7,0,3.2,1.1,3.2,3.2v2.9h1
		c2,0,2.6,1.5,2.6,2.8c0,1.3-0.6,2.8-2.6,2.8h-1v6.5H205V16.4z"/>
</g>
<g>
</g>
<g>
</g>
<g>
</g>
<g>
</g>
<g>
</g>
<g>
</g>
<g>
</g>
<g>
</g>
<g>
</g>
<g>
</g>
<g>
</g>
<g>
</g>
<g>
</g>
<g>
</g>
<g>
</g>
</svg>
