<?xml version="1.0" encoding="utf-8"?>
<!-- Generator: Adobe Illustrator 25.4.1, SVG Export Plug-In . SVG Version: 6.00 Build 0)  -->
<svg version="1.1" id="Layer_1" xmlns="http://www.w3.org/2000/svg" xmlns:xlink="http://www.w3.org/1999/xlink" x="0px" y="0px"
	 width="248px" height="60px" viewBox="0 0 248 60" style="enable-background:new 0 0 248 60;" xml:space="preserve">
<g id="Layer_2_00000140708509936882422740000004850449283266482309_">
	<g id="Layer_1-2">
		<path style="fill:#0E8C8C;" d="M28.422,4.5h191.157c15.188,0,27.5,12.312,27.5,27.5l0,0c0,15.188-12.312,27.5-27.5,27.5H28.422
			c-15.188,0-27.5-12.312-27.5-27.5l0,0C0.922,16.812,13.234,4.5,28.422,4.5z"/>
		<path style="fill:#FFFFFF;" d="M28.422,0.5h191.157c15.188,0,27.5,12.312,27.5,27.5l0,0c0,15.188-12.312,27.5-27.5,27.5H28.422
			c-15.188,0-27.5-12.312-27.5-27.5l0,0C0.922,12.812,13.234,0.5,28.422,0.5z"/>
		<path style="fill:#26BFBF;" d="M219.578,3.5c13.531,0,24.5,10.969,24.5,24.5s-10.969,24.5-24.5,24.5H28.422
			c-13.531,0-24.5-10.969-24.5-24.5s10.969-24.5,24.5-24.5H219.578 M219.578,0.5H28.422c-15.188,0-27.5,12.312-27.5,27.5
			s12.312,27.5,27.5,27.5h191.157c15.188,0,27.5-12.312,27.5-27.5S234.766,0.5,219.578,0.5z"/>
		<path style="fill:#26BFBF;" d="M86.257,42.471c-0.855,0.019-1.708-0.067-2.542-0.256c-0.577-0.124-1.101-0.425-1.5-0.86
			c-0.383-0.469-0.633-1.034-0.723-1.633c-0.135-0.824-0.197-1.657-0.187-2.492v-17.2c-0.01-0.835,0.052-1.668,0.187-2.492
			c0.091-0.602,0.343-1.168,0.729-1.638c0.399-0.435,0.923-0.735,1.5-0.86c0.834-0.189,1.687-0.275,2.542-0.255h7.478
			c0.853-0.02,1.704,0.066,2.536,0.255c0.576,0.127,1.099,0.427,1.5,0.86c0.381,0.47,0.628,1.034,0.716,1.633
			c0.138,0.823,0.202,1.657,0.193,2.492v22.433L86.257,42.471z M87.504,36.308c-0.02,0.287,0.052,0.573,0.206,0.816
			c0.227,0.213,0.539,0.312,0.847,0.268h3.926v-16.5c0.012-0.265-0.043-0.529-0.162-0.766c-0.106-0.193-0.336-0.287-0.7-0.287
			h-3.288c-0.361,0-0.623,0.094-0.685,0.287c-0.109,0.24-0.158,0.503-0.144,0.766L87.504,36.308z M102.154,16.808
			c-0.061-0.88,0.295-1.738,0.96-2.318c0.618-0.511,1.398-0.787,2.2-0.779c0.404,0,0.804,0.07,1.184,0.206
			c0.37,0.141,0.71,0.353,1,0.623c0.296,0.269,0.534,0.596,0.7,0.96c0.189,0.421,0.283,0.879,0.274,1.34v8.1h1.053
			c0.418-0.014,0.833,0.074,1.209,0.256c0.305,0.152,0.568,0.377,0.767,0.654c0.194,0.272,0.335,0.577,0.417,0.9
			c0.166,0.637,0.166,1.307,0,1.944c-0.082,0.323-0.223,0.628-0.417,0.9c-0.205,0.276-0.472,0.5-0.779,0.654
			c-0.374,0.18-0.785,0.267-1.2,0.256h-1.053v13.182h-6.325L102.154,16.808z"/>
		<path style="fill:#26BFBF;" d="M139.121,37.685c0.428-0.012,0.853,0.069,1.246,0.237c0.331,0.142,0.626,0.355,0.866,0.623
			c0.219,0.249,0.383,0.542,0.48,0.86c0.094,0.311,0.142,0.634,0.144,0.959c-0.001,0.337-0.055,0.671-0.162,0.991
			c-0.105,0.317-0.273,0.609-0.493,0.86c-0.233,0.268-0.522,0.48-0.847,0.623c-0.396,0.159-0.82,0.236-1.246,0.224h-24.375
			c-0.426,0.012-0.85-0.065-1.246-0.224c-0.326-0.141-0.615-0.354-0.847-0.623c-0.22-0.251-0.388-0.543-0.493-0.86
			c-0.107-0.319-0.162-0.654-0.162-0.991c0.002-0.325,0.05-0.648,0.144-0.959c0.097-0.318,0.261-0.611,0.48-0.86
			c0.239-0.266,0.532-0.478,0.859-0.623c0.394-0.167,0.819-0.248,1.247-0.237H139.121z M137.875,14.666
			c0.389-0.01,0.776,0.064,1.134,0.218c0.292,0.14,0.552,0.337,0.766,0.58c0.2,0.232,0.347,0.505,0.43,0.8
			c0.086,0.289,0.13,0.589,0.131,0.891c0.003,0.616-0.201,1.214-0.579,1.7c-0.461,0.545-1.159,0.831-1.87,0.767h-17.03
			c-0.623,0-0.954,0.274-0.954,0.829v1.246h17.747c0.711-0.063,1.408,0.223,1.87,0.766c0.358,0.467,0.555,1.038,0.561,1.627
			c-0.001,0.597-0.203,1.177-0.574,1.645c-0.47,0.53-1.163,0.808-1.869,0.748h-17.732v1.207c-0.026,0.246,0.061,0.491,0.237,0.666
			c0.21,0.145,0.463,0.213,0.717,0.194h17.5c0.39-0.012,0.778,0.065,1.134,0.224c0.29,0.14,0.55,0.334,0.766,0.573
			c0.196,0.229,0.342,0.497,0.43,0.785c0.087,0.285,0.131,0.581,0.131,0.879c0.002,0.612-0.203,1.207-0.58,1.689
			c-0.461,0.544-1.158,0.83-1.869,0.766h-19.874c-1.853,0-3.161-0.4-3.926-1.2c-0.854-1.067-1.264-2.422-1.146-3.783v-8.838
			c-0.12-1.361,0.291-2.716,1.146-3.782c0.765-0.794,2.073-1.194,3.926-1.2L137.875,14.666z"/>
		<path style="fill:#26BFBF;" d="M31.403,20.5c0.139,0.073,0.26,0.175,0.355,0.3c0.155,0.198,0.215,0.454,0.164,0.7
			c-0.029,0.115-0.073,0.226-0.131,0.33c-0.055,0.11-0.131,0.207-0.225,0.287c-0.184,0.168-0.431,0.249-0.679,0.224
			c-0.152-0.021-0.299-0.067-0.436-0.137L27.627,20.6c-0.133-0.062-0.252-0.151-0.349-0.261c-0.072-0.11-0.117-0.237-0.131-0.368
			c-0.022-0.117-0.022-0.238,0-0.355c0.026-0.118,0.068-0.231,0.125-0.337c0.058-0.104,0.131-0.198,0.218-0.28
			c0.167-0.184,0.415-0.273,0.661-0.237c0.154,0.018,0.303,0.069,0.436,0.15L31.403,20.5z"/>
		<path style="fill:#26BFBF;" d="M29.752,24.9c0.149-0.045,0.306-0.058,0.461-0.037c0.129,0.016,0.253,0.061,0.362,0.131
			c0.101,0.068,0.186,0.157,0.249,0.261c0.065,0.099,0.113,0.209,0.143,0.324c0.037,0.117,0.052,0.24,0.044,0.362
			c-0.009,0.251-0.128,0.486-0.324,0.642c-0.123,0.091-0.263,0.157-0.412,0.193l-3.115,0.872c-0.147,0.047-0.302,0.062-0.455,0.044
			c-0.127-0.017-0.248-0.062-0.355-0.131c-0.101-0.065-0.188-0.15-0.256-0.249c-0.065-0.1-0.115-0.209-0.149-0.324
			c-0.031-0.118-0.046-0.24-0.044-0.362c0.001-0.121,0.029-0.24,0.081-0.349c0.057-0.116,0.138-0.218,0.237-0.3
			c0.122-0.098,0.264-0.167,0.417-0.2L29.752,24.9z"/>
		<path style="fill:#26BFBF;" d="M35.061,17.682c0.047,0.147,0.062,0.302,0.044,0.455c-0.02,0.129-0.067,0.252-0.137,0.361
			c-0.063,0.104-0.151,0.19-0.256,0.25c-0.201,0.136-0.442,0.202-0.685,0.187c-0.119-0.007-0.235-0.037-0.343-0.088
			c-0.117-0.054-0.22-0.135-0.3-0.236c-0.096-0.121-0.164-0.262-0.2-0.412l-0.872-3.115c-0.042-0.148-0.055-0.302-0.038-0.455
			c0.014-0.124,0.057-0.244,0.125-0.349c0.065-0.101,0.15-0.188,0.249-0.256c0.103-0.067,0.214-0.119,0.331-0.155
			c0.114-0.031,0.231-0.045,0.349-0.044c0.123,0.002,0.244,0.029,0.355,0.081c0.115,0.06,0.217,0.143,0.3,0.243
			c0.093,0.122,0.161,0.262,0.2,0.411L35.061,17.682z"/>
		<path style="fill:#26BFBF;" d="M39.199,19.271c-3.607-0.001-6.531,2.923-6.532,6.53s2.923,6.531,6.53,6.532
			s6.531-2.923,6.532-6.53v-0.001C45.729,22.195,42.805,19.272,39.199,19.271z M39.199,29.584c-2.093,0.004-3.792-1.689-3.796-3.782
			s1.689-3.792,3.782-3.796c2.093-0.004,3.792,1.689,3.796,3.782v0.001V25.8C42.978,27.888,41.287,29.581,39.199,29.584z"/>
		<path style="fill:#26BFBF;" d="M41.853,25.21c-0.33-1.076-1.324-1.811-2.449-1.81c-0.605,0.004-1.189,0.225-1.645,0.623
			c-0.237,0.183-0.282,0.522-0.1,0.76c0.01,0.013,0.021,0.025,0.032,0.037c0.164,0.192,0.44,0.242,0.66,0.119
			c0.584-0.58,1.527-0.577,2.107,0.007c0.156,0.157,0.274,0.346,0.348,0.554c0.104,0.241,0.376,0.361,0.624,0.274
			C41.685,25.708,41.86,25.474,41.853,25.21z"/>
		<path style="fill:#26BFBF;" d="M78.511,39.392c-0.091-0.325-0.255-0.625-0.479-0.878c-0.237-0.269-0.531-0.482-0.86-0.624
			c-0.395-0.17-0.821-0.253-1.251-0.243h-24.4c-0.428-0.009-0.853,0.074-1.246,0.243c-0.328,0.144-0.621,0.357-0.86,0.624
			c-0.224,0.253-0.388,0.553-0.48,0.878c-0.092,0.316-0.14,0.643-0.143,0.972c0.002,0.337,0.059,0.672,0.168,0.991
			c0.109,0.316,0.279,0.608,0.5,0.86c0.232,0.269,0.521,0.482,0.847,0.623c0.395,0.161,0.82,0.237,1.246,0.224h24.36
			c0.426,0.012,0.85-0.065,1.246-0.224c0.323-0.143,0.61-0.356,0.841-0.623c0.223-0.25,0.393-0.543,0.5-0.86
			c0.105-0.32,0.158-0.654,0.156-0.991C78.656,40.035,78.608,39.707,78.511,39.392z"/>
		<path style="fill:#26BFBF;" d="M55.493,31.933c1.098-0.32,2.146-0.792,3.115-1.4c1.034-0.612,2.003-1.328,2.892-2.137
			c0.923-0.828,1.758-1.749,2.492-2.748c0.921-0.025,1.84,0.117,2.711,0.417c0.84,0.286,1.615,0.735,2.281,1.321
			c0.687,0.612,1.249,1.35,1.657,2.175c0.466,0.913,0.77,1.899,0.9,2.916h6.48c-0.099-1.827-0.54-3.619-1.3-5.284
			c-0.638-1.406-1.542-2.675-2.661-3.739c-1.037-0.961-2.252-1.71-3.577-2.205c-1.279-0.481-2.628-0.751-3.994-0.8
			c0.274-0.955,0.425-1.942,0.449-2.935c0.094-0.872-0.185-1.744-0.767-2.4c-0.607-0.592-1.414-0.934-2.262-0.96
			c-0.84-0.077-1.68,0.144-2.374,0.623c-0.73,0.53-1.186,1.356-1.246,2.256c-0.153,1.272-0.511,2.512-1.059,3.67
			c-0.505,1.07-1.171,2.056-1.976,2.923c-0.719,0.889-1.631,1.603-2.667,2.087c-5.608,2.107-9.347-0.293-10.992,0.056
			c-0.182,0.041-0.361,0.093-0.536,0.156c0.078,0.267,0.118,0.544,0.119,0.823c0.011,1.15-0.655,2.199-1.7,2.679
			c0.144,0.519,0.455,0.975,0.885,1.3c0.581,0.407,1.241,0.687,1.938,0.822C45.322,31.858,50.858,33.155,55.493,31.933z"/>
		<path style="fill:#26BFBF;" d="M41.653,26.967c0.017,0.344-0.247,0.636-0.591,0.653s-0.636-0.247-0.653-0.591
			c-0.017-0.343,0.247-0.636,0.59-0.653h0.031C41.362,26.376,41.636,26.635,41.653,26.967z"/>
		<path style="fill:#424649;" d="M156.181,37.733v-9.981c0-2.106,1.361-2.916,3.078-2.916c1.685,0,3.079,0.843,3.079,2.916v9.981
			h7.874c1.343-0.154,2.557,0.81,2.711,2.153c0.017,0.146,0.02,0.293,0.011,0.439c0.092,1.362-0.938,2.541-2.3,2.633
			c-0.141,0.009-0.282,0.007-0.422-0.008h-15.425c-1.441,0.075-2.669-1.033-2.744-2.473c-0.075-1.441,1.033-2.669,2.473-2.744
			c0.09-0.005,0.18-0.005,0.27,0H156.181z M165.513,22.924v-1.976c0-0.551-0.259-0.778-0.778-0.778h-9.4
			c-1.45,0.071-2.683-1.047-2.754-2.498c-0.004-0.086-0.004-0.172,0-0.257c-0.081-1.44,1.02-2.673,2.46-2.754
			c0.098-0.006,0.196-0.006,0.294,0h11.569c3.661,0,4.8,1.394,4.8,4.472v3.824c0,4.86-0.389,7.939-1.264,10.337
			c-0.756,1.696-2.704,2.506-4.44,1.847c-1.49-0.454-1.912-2.074-1.425-3.565C165.328,28.757,165.644,25.839,165.513,22.924z
			 M174.1,16.8c-0.07-1.668,1.225-3.077,2.894-3.147c0.104-0.004,0.209-0.003,0.313,0.003c1.688-0.086,3.126,1.213,3.211,2.901
			c0.004,0.081,0.005,0.162,0.003,0.243V25h1.069c1.976,0,2.56,1.523,2.56,2.819c0,1.329-0.616,2.819-2.56,2.819h-1.069v13.446
			h-6.416L174.1,16.8z"/>
		<path style="fill:#424649;" d="M185.083,24.933v-1.879c0.005-0.756,0.218-1.496,0.616-2.139c-1.227,0.095-2.299-0.822-2.394-2.049
			c-0.006-0.073-0.008-0.146-0.006-0.219c-0.041-1.285,0.967-2.359,2.252-2.4c0.049-0.002,0.099-0.002,0.148,0h4.7
			c0.033-1.847,1.329-2.916,3.241-2.916c1.627-0.172,3.085,1.008,3.257,2.634c0.01,0.094,0.015,0.187,0.016,0.282h4.666
			c1.259-0.049,2.319,0.932,2.367,2.191c0.003,0.07,0.002,0.139-0.001,0.209c0.066,1.189-0.844,2.206-2.033,2.272
			c-0.1,0.006-0.2,0.004-0.3-0.004h-0.033c0.398,0.643,0.611,1.383,0.616,2.139v1.879c0,4.7-3.986,6.773-8.555,6.773
			S185.083,29.632,185.083,24.933z M188.522,38.09c-1.414,0.134-2.669-0.903-2.803-2.318c-0.134-1.414,0.903-2.669,2.318-2.803
			c0.162-0.015,0.324-0.015,0.486,0H207.9c4.051,0,4.8,1.1,4.8,4.991v6.124h-6.488v-5.217c0.045-0.384-0.229-0.732-0.613-0.777
			c-0.055-0.006-0.11-0.006-0.165,0H188.522z M196.298,24.739v-1.685c-0.171-1.467-1.499-2.518-2.967-2.347
			c-1.232,0.144-2.204,1.115-2.347,2.347v1.685c0.171,1.467,1.499,2.518,2.967,2.347C195.183,26.943,196.155,25.971,196.298,24.739z
			 M205.922,16.865c-0.095-1.677,1.188-3.114,2.865-3.209c0.114-0.006,0.229-0.006,0.343,0c1.698-0.074,3.134,1.242,3.208,2.94
			c0.004,0.09,0.004,0.179,0,0.269v2.916h1.005c1.366-0.057,2.52,1.004,2.578,2.37c0.006,0.139,0,0.279-0.018,0.417
			c0.171,1.359-0.793,2.599-2.152,2.77c-0.135,0.017-0.272,0.023-0.408,0.017h-1.005v6.48h-6.416V16.865z"/>
	</g>
</g>
</svg>
