<svg xmlns="http://www.w3.org/2000/svg" viewBox="0 0 172 70"><defs><style>.cls-1{fill:#d95278;}.cls-2{fill:#ff7aa0;}.cls-3{fill:#fff;}.cls-4{fill:#47d7ac;}.cls-5{fill:#83e8d3;}</style></defs><g id="Layer_1" data-name="Layer 1"><path class="cls-1" d="M152.821,21.816H47.858a10.7,10.7,0,0,0-.634-3.795l-.057-.143c-1.05-2.471-2.905-3.832-5.223-3.832a6.148,6.148,0,0,0-1.985.345,6.941,6.941,0,0,0-1.369.619l-.1.059a14.759,14.759,0,0,0-2.677,2.169l-.546.558-.765-.153a28.546,28.546,0,0,0-5.321-.555h-.445a28.405,28.405,0,0,0-5.515.6l-.776.162-.553-.569a14.746,14.746,0,0,0-2.744-2.239L19.078,15a7.042,7.042,0,0,0-1.384-.638,6.172,6.172,0,0,0-1.989-.344c-1.347,0-3.821.5-5.242,3.856l-.019.042-.037.1a10.876,10.876,0,0,0-.394,5.957c.027.132.056.264.085.4l.147.649-.4.533a19.126,19.126,0,0,0-2.324,4.08A23.877,23.877,0,0,0,6,35.258l-.037.187-.051.357s-.048.412-.059.526c-.09.794-.148,1.522-.178,2.221l0,.054a10.732,10.732,0,0,1-.4,2.776c-.154.473-.292.961-.437,1.537-.034.134-.067.268-.1.4-.129.563-.225,1.065-.293,1.536l-.023.189c-.059.451-.1.92-.124,1.386l-.014.347a14.436,14.436,0,0,0,.035,1.45c.006.085.015.17.027.274a13.358,13.358,0,0,0,.2,1.347c.015.084.031.168.05.242A11.906,11.906,0,0,0,5,51.477c.03.084.062.166.109.282a11.626,11.626,0,0,0,.529,1.177c.034.071.069.14.11.215a12.1,12.1,0,0,0,.733,1.172c.044.069.093.14.142.2l.3.4.019.012.132.16a13.8,13.8,0,0,0,2.294,2.184,16.324,16.324,0,0,0,1.459.985l.061.039c.409.26.842.515,1.264.746a30.615,30.615,0,0,0,11.105,3.564l.713.077a36.15,36.15,0,0,0,4.79.347h.442A36.211,36.211,0,0,0,34,62.69l.725-.08a31.867,31.867,0,0,0,4.871-.993A29.607,29.607,0,0,0,44.132,59.9H152.821a19.043,19.043,0,0,0,19.043-19.042h0A19.043,19.043,0,0,0,152.821,21.816Z"/><path class="cls-2" d="M28.766,59.5a36.15,36.15,0,0,1-4.79-.346l-.713-.078a30.577,30.577,0,0,1-11.105-3.564c-.422-.23-.855-.486-1.264-.745l-.061-.039a16.544,16.544,0,0,1-1.459-.986A13.8,13.8,0,0,1,7.08,51.555L6.948,51.4l-.019-.013-.3-.4c-.049-.066-.1-.137-.142-.2a11.99,11.99,0,0,1-.733-1.173c-.041-.074-.076-.144-.11-.215a11.527,11.527,0,0,1-.529-1.177c-.047-.116-.079-.2-.109-.281a11.978,11.978,0,0,1-.4-1.394c-.019-.074-.035-.158-.05-.241a13.419,13.419,0,0,1-.2-1.348c-.012-.1-.021-.189-.027-.274a14.436,14.436,0,0,1-.035-1.45l.014-.346c.023-.467.065-.936.124-1.387l.023-.188c.068-.472.164-.974.293-1.536.029-.129.062-.263.1-.4.145-.576.283-1.063.437-1.537a10.732,10.732,0,0,0,.4-2.776l0-.054c.03-.7.088-1.427.178-2.221.011-.114.059-.525.059-.526L5.96,31.9,6,31.715A23.877,23.877,0,0,1,7.523,26.09a19.126,19.126,0,0,1,2.324-4.08l.4-.533-.147-.649c-.029-.132-.058-.264-.085-.4a10.878,10.878,0,0,1,.394-5.957l.037-.1.019-.042c1.421-3.354,3.9-3.855,5.242-3.855a6.171,6.171,0,0,1,1.989.343,7.047,7.047,0,0,1,1.384.639l.072.044a14.7,14.7,0,0,1,2.744,2.238l.553.569.776-.161a28.251,28.251,0,0,1,5.515-.6h.445A28.462,28.462,0,0,1,34.5,14.1l.765.152.546-.557a14.674,14.674,0,0,1,2.677-2.169l.1-.06a6.853,6.853,0,0,1,1.369-.618,6.121,6.121,0,0,1,1.985-.345c2.318,0,4.173,1.361,5.223,3.831l.057.144a11.009,11.009,0,0,1,.4,5.986l-.142.747.4.514a18.647,18.647,0,0,1,2.015,3.2,23.568,23.568,0,0,1,2.15,7.424l.012.108c.1.828.168,1.613.206,2.413l.012.22a10.449,10.449,0,0,0,.391,2.719c.17.522.318,1.045.463,1.632l.071.3A17.3,17.3,0,0,1,53.658,43l.007.144a14.121,14.121,0,0,1-.04,1.622l-.009.1A13,13,0,0,1,53.4,46.32c-.015.081-.026.134-.038.186a11.882,11.882,0,0,1-.411,1.426c-.03.083-.059.159-.09.235a12.1,12.1,0,0,1-.515,1.158c-.06.123-.105.214-.154.3a11.555,11.555,0,0,1-.649,1.047c-.082.129-.13.2-.18.268l-.289.392-.05.035-.125.152a13.761,13.761,0,0,1-2.33,2.224,15.924,15.924,0,0,1-1.475.993c-.447.286-.881.542-1.322.782A29.492,29.492,0,0,1,39.6,58.075a31.866,31.866,0,0,1-4.871.992L34,59.148a36.209,36.209,0,0,1-4.794.349Z"/><rect class="cls-2" x="16.326" y="18.274" width="155.538" height="38.084" rx="19.042"/><polygon class="cls-2" points="48.326 12.44 59.28 6.857 56.323 2.057 48.326 12.44"/><polygon class="cls-2" points="46.505 10.076 50.513 0 45.061 0.064 46.505 10.076"/><polygon class="cls-2" points="50.856 13.557 55.688 11.87 57.226 14.341 50.856 13.557"/><polygon class="cls-2" points="9.745 59.383 0.136 63.193 2.233 67.444 9.745 59.383"/><polygon class="cls-2" points="11.083 61.506 6.934 69.624 11.503 70 11.083 61.506"/><polygon class="cls-2" points="7.716 58.249 3.539 59.28 2.446 57.09 7.716 58.249"/><path class="cls-3" d="M17.367,14.343a4.048,4.048,0,0,0-.74-.35q-2.074-.713-3.069,1.629a7.541,7.541,0,0,0-.255,4.145,13.089,13.089,0,0,0,1.776,4.36A14.032,14.032,0,0,0,22.7,20.911a14.837,14.837,0,0,0-5.33-6.568"/><path class="cls-4" d="M15.079,24.6a.471.471,0,0,1-.4-.222,13.628,13.628,0,0,1-1.839-4.51,8.055,8.055,0,0,1,.275-4.4c.972-2.293,2.529-2.3,3.665-1.906a4.2,4.2,0,0,1,.826.383,15.365,15.365,0,0,1,5.517,6.774A.471.471,0,0,1,23,21.27,14.539,14.539,0,0,1,15.134,24.6l-.055,0m.629-10.3c-.594,0-1.215.327-1.715,1.509a7.1,7.1,0,0,0-.228,3.874,12.521,12.521,0,0,0,1.559,3.942,13.609,13.609,0,0,0,6.789-2.842,14.179,14.179,0,0,0-5-6.037,3.078,3.078,0,0,0-.635-.294A2.367,2.367,0,0,0,15.708,14.3Z"/><path class="cls-3" d="M44.336,19.807a7.614,7.614,0,0,0-.255-4.158q-1-2.343-3.068-1.615a3.5,3.5,0,0,0-.741.336,14.842,14.842,0,0,0-5.329,6.568,14.029,14.029,0,0,0,7.617,3.216,13.074,13.074,0,0,0,1.776-4.347"/><path class="cls-4" d="M42.56,24.625l-.054,0A14.55,14.55,0,0,1,34.639,21.3a.469.469,0,0,1-.122-.558,15.354,15.354,0,0,1,5.5-6.768,4.076,4.076,0,0,1,.852-.387c1.118-.393,2.674-.391,3.64,1.88A8.142,8.142,0,0,1,44.8,19.9a13.633,13.633,0,0,1-1.839,4.5.471.471,0,0,1-.4.222m-7.034-3.818a13.612,13.612,0,0,0,6.79,2.842,12.546,12.546,0,0,0,1.559-3.935,7.189,7.189,0,0,0-.237-3.9c-.72-1.692-1.7-1.6-2.47-1.331a3.106,3.106,0,0,0-.657.3A14.188,14.188,0,0,0,35.526,20.807Z"/><path class="cls-3" d="M46.893,26.415a15.727,15.727,0,0,0-8.263-7.6A26.1,26.1,0,0,0,29.183,16.9h-.417a26.121,26.121,0,0,0-9.448,1.911,15.691,15.691,0,0,0-8.706,8.573,22.666,22.666,0,0,0-1.588,7.765,13.752,13.752,0,0,1-.552,3.688q-2.638,8.02,2.934,12.232a12.416,12.416,0,0,0,1.224.821l.054.041q.545.341,1.1.646a27.006,27.006,0,0,0,9.85,3.162l.741.081a32.66,32.66,0,0,0,4.387.323h.417a32.662,32.662,0,0,0,4.388-.323l.74-.081a28.556,28.556,0,0,0,4.36-.888,26.2,26.2,0,0,0,5.491-2.274q.591-.322,1.157-.687a12.433,12.433,0,0,0,1.225-.821q5.571-4.212,2.933-12.232a13.792,13.792,0,0,1-.552-3.688,21.678,21.678,0,0,0-2.032-8.734"/><path class="cls-4" d="M28.766,56.614a33.1,33.1,0,0,1-4.453-.328l-.727-.079a27.571,27.571,0,0,1-10.028-3.219c-.375-.2-.753-.427-1.12-.659l-.064-.044a13.046,13.046,0,0,1-1.254-.841c-3.873-2.928-4.915-7.218-3.1-12.751a13.35,13.35,0,0,0,.53-3.556A23.153,23.153,0,0,1,10.184,27.2a16.185,16.185,0,0,1,8.95-8.824,26.736,26.736,0,0,1,9.628-1.949h.421A26.71,26.71,0,0,1,38.8,18.374a16.268,16.268,0,0,1,8.512,7.832,22.258,22.258,0,0,1,2.08,8.923,13.357,13.357,0,0,0,.532,3.569c1.817,5.526.775,9.817-3.1,12.747a13.077,13.077,0,0,1-1.268.851c-.371.238-.77.475-1.172.694A26.649,26.649,0,0,1,38.8,55.3a28.992,28.992,0,0,1-4.432.9l-.748.082a33,33,0,0,1-4.435.326h-.42m0-39.242a25.724,25.724,0,0,0-9.274,1.877,15.275,15.275,0,0,0-8.439,8.316,22.211,22.211,0,0,0-1.559,7.6,14.232,14.232,0,0,1-.572,3.806l0,.009c-1.7,5.181-.8,9.012,2.771,11.71a12.3,12.3,0,0,0,1.18.791l.09.059c.332.211.692.422,1.053.619A26.638,26.638,0,0,0,23.7,55.272l.732.08a32.485,32.485,0,0,0,4.34.32h.414a32.349,32.349,0,0,0,4.321-.318l.754-.083a28.352,28.352,0,0,0,4.283-.872,25.807,25.807,0,0,0,5.392-2.234c.386-.21.765-.435,1.132-.671a12.182,12.182,0,0,0,1.193-.8c3.57-2.7,4.476-6.53,2.772-11.711a14.272,14.272,0,0,1-.575-3.823,21.328,21.328,0,0,0-1.984-8.538,15.339,15.339,0,0,0-8.025-7.378,25.7,25.7,0,0,0-9.267-1.873ZM8.472,38.837h0Z"/><path class="cls-5" d="M44.767,41.205q.135.484.3.942a25.447,25.447,0,0,0,3.594,6.809q2.852-3.915.82-10.119a13.792,13.792,0,0,1-.552-3.688q-.052-1.225-.2-2.369a22.591,22.591,0,0,0-3.257,3.526,5.685,5.685,0,0,0-.7,4.9"/><path class="cls-5" d="M48.657,49.293a.336.336,0,0,1-.273-.139,25.924,25.924,0,0,1-3.64-6.9c-.108-.307-.21-.632-.3-.96A6.032,6.032,0,0,1,45.2,36.1a22.955,22.955,0,0,1,3.3-3.574.337.337,0,0,1,.448.5,22.3,22.3,0,0,0-3.209,3.473A5.39,5.39,0,0,0,45.1,41.13c.084.3.181.609.286.9a25.227,25.227,0,0,0,3.548,6.724.337.337,0,0,1-.272.534"/><path class="cls-4" d="M48.656,49.427a.47.47,0,0,1-.38-.748c1.8-2.469,2.052-5.731.754-9.7a14.27,14.27,0,0,1-.575-3.822c-.035-.791-.1-1.574-.2-2.321a.471.471,0,1,1,.934-.12c.1.772.168,1.582.2,2.408a13.358,13.358,0,0,0,.532,3.57c1.4,4.261,1.1,7.808-.891,10.536a.47.47,0,0,1-.381.193"/><path class="cls-5" d="M9.225,32.767q-.147,1.145-.2,2.382a13.752,13.752,0,0,1-.552,3.688q-2.046,6.2.834,10.133A25.657,25.657,0,0,0,12.9,42.147q.16-.458.3-.942a5.685,5.685,0,0,0-.7-4.9,22.738,22.738,0,0,0-3.271-3.539"/><path class="cls-5" d="M9.306,49.306a.329.329,0,0,1-.2-.064.335.335,0,0,1-.075-.469,25.443,25.443,0,0,0,3.547-6.734c.106-.3.2-.61.29-.924a5.375,5.375,0,0,0-.643-4.605A22.476,22.476,0,0,0,9,33.018a.336.336,0,1,1,.447-.5,23.088,23.088,0,0,1,3.319,3.592,6.024,6.024,0,0,1,.755,5.172c-.095.343-.2.668-.306.979a26.117,26.117,0,0,1-3.638,6.908.336.336,0,0,1-.273.139"/><path class="cls-4" d="M9.307,49.441a.473.473,0,0,1-.381-.193c-2.006-2.737-2.309-6.289-.9-10.559a13.3,13.3,0,0,0,.529-3.552c.036-.843.106-1.659.206-2.43a.471.471,0,1,1,.934.12c-.1.746-.164,1.534-.2,2.342a14.232,14.232,0,0,1-.572,3.806c-1.31,3.973-1.052,7.239.764,9.717a.47.47,0,0,1-.379.749"/><path d="M23.437,39.966a4.694,4.694,0,0,0,.5-2.247,4.776,4.776,0,0,0-.5-2.26q-.5-.928-1.211-.929t-1.212.929a4.683,4.683,0,0,0-.511,2.26,4.6,4.6,0,0,0,.511,2.247q.5.957,1.212.956t1.211-.956"/><path class="cls-5" d="M23.1,31.65l.027.014a.851.851,0,0,0,.7-.189.839.839,0,0,0,.39-.606.971.971,0,0,0-.161-.726.873.873,0,0,0-.565-.39l-3.607-.633a.931.931,0,0,0-.686.161.974.974,0,0,0-.391.633.912.912,0,0,0,.148.7.95.95,0,0,0,.512.39l.067.014,3.566.632"/><path class="cls-4" d="M23.279,32.013a1.174,1.174,0,0,1-.211-.019L23,31.973l-3.5-.62a.484.484,0,0,1-.149-.034,1.276,1.276,0,0,1-.672-.516,1.237,1.237,0,0,1-.2-.946,1.3,1.3,0,0,1,.52-.845,1.267,1.267,0,0,1,.935-.225l3.618.634a1.212,1.212,0,0,1,.788.538,1.3,1.3,0,0,1,.212.97,1.181,1.181,0,0,1-.528.821,1.2,1.2,0,0,1-.742.263m-.18-.027h0Zm0,0Zm-.208-.083h0Zm.342-.564a.522.522,0,0,0,.385-.128l.031-.022a.5.5,0,0,0,.236-.375.638.638,0,0,0-.111-.487.543.543,0,0,0-.356-.246l-3.592-.63a.589.589,0,0,0-.436.106.627.627,0,0,0-.251.414.57.57,0,0,0,.092.45.614.614,0,0,0,.334.261h0l.026,0,3.554.631ZM19.618,30.7h0Z"/><path d="M34,37.719a4.6,4.6,0,0,0,.511,2.247q.5.957,1.212.956t1.211-.956a4.592,4.592,0,0,0,.511-2.247,4.672,4.672,0,0,0-.511-2.26q-.5-.928-1.211-.929t-1.212.929A4.683,4.683,0,0,0,34,37.719"/><path class="cls-5" d="M38.752,29.281a.934.934,0,0,0-.687-.161l-3.606.633a.875.875,0,0,0-.566.39.976.976,0,0,0-.161.726.839.839,0,0,0,.39.606.852.852,0,0,0,.7.189l.027-.014,3.566-.632L38.482,31a.947.947,0,0,0,.512-.39.912.912,0,0,0,.148-.7.976.976,0,0,0-.39-.633"/><path class="cls-4" d="M34.67,32.013a1.2,1.2,0,0,1-.742-.263,1.18,1.18,0,0,1-.528-.825,1.307,1.307,0,0,1,.212-.966,1.2,1.2,0,0,1,.774-.535l3.621-.636a1.27,1.27,0,0,1,.936.217,1.3,1.3,0,0,1,.53.851,1.237,1.237,0,0,1-.2.95,1.275,1.275,0,0,1-.669.513.5.5,0,0,1-.15.034l-3.5.62-.073.021a1.166,1.166,0,0,1-.211.019m.18-.027h0Zm0,0,.208-.083Zm3.157-2.458-.1.008-3.6.631a.535.535,0,0,0-.342.243.637.637,0,0,0-.112.483.511.511,0,0,0,.237.379l.031.022a.517.517,0,0,0,.385.128l.087-.022,3.553-.631.027,0h0a.613.613,0,0,0,.332-.257.576.576,0,0,0,.094-.454.635.635,0,0,0-.26-.421A.576.576,0,0,0,38.215,29.445Zm.116,1.258h0Z"/><path d="M28.981,46.481a4.766,4.766,0,0,1-2.79-.815A2.7,2.7,0,0,1,25.077,44.2a.337.337,0,1,1,.649-.18,2.048,2.048,0,0,0,.852,1.094,4.1,4.1,0,0,0,2.4.692,4.047,4.047,0,0,0,2.39-.692,2.043,2.043,0,0,0,.866-1.094.336.336,0,1,1,.648.18,2.68,2.68,0,0,1-1.128,1.464,4.694,4.694,0,0,1-2.776.815"/></g></svg>