<?xml version="1.0" encoding="utf-8"?>
<!-- Generator: Adobe Illustrator 25.2.0, SVG Export Plug-In . SVG Version: 6.00 Build 0)  -->
<svg version="1.1" id="레이어_1" xmlns="http://www.w3.org/2000/svg" xmlns:xlink="http://www.w3.org/1999/xlink" x="0px"
	 y="0px" viewBox="0 0 99 60.3" style="enable-background:new 0 0 99 60.3;" xml:space="preserve">
<g id="레이어_1_1_">
</g>
<g id="Layer_19">
	<g>
		<path style="fill:#47B3A1;" d="M69.7,0.2H29.3c-16,0-29,13-29,29v2c0,16,13,29,29,29h40.4c16,0,29-13,29-29v-2
			C98.7,13.2,85.7,0.2,69.7,0.2z"/>
		<g>
			<path style="fill:#FFFFFF;" d="M74.4,18.9L74.4,18.9c1,1,1,2.6,0,3.5L55.3,41.5c-1,1-2.6,1-3.5,0l0,0c-1-1-1-2.6,0-3.5l19.1-19.1
				C71.9,17.9,73.4,17.9,74.4,18.9z"/>
			<path style="fill:#FFFFFF;" d="M51.8,18.9L51.8,18.9c1-1,2.6-1,3.5,0L74.4,38c1,1,1,2.6,0,3.5l0,0c-1,1-2.6,1-3.5,0L51.8,22.4
				C50.8,21.4,50.8,19.8,51.8,18.9z"/>
		</g>
	</g>
</g>
</svg>
