<?xml version="1.0" encoding="utf-8"?>
<!-- Generator: Adobe Illustrator 25.0.1, SVG Export Plug-In . SVG Version: 6.00 Build 0)  -->
<svg version="1.1" id="Layer_1" xmlns="http://www.w3.org/2000/svg" xmlns:xlink="http://www.w3.org/1999/xlink" x="0px" y="0px"
	 width="237px" height="50.4px" viewBox="0 0 237 50.4" style="enable-background:new 0 0 237 50.4;" xml:space="preserve">
<path style="fill:#00BDD6;" d="M26,0.2h185c13.8,0,25,11.2,25,25l0,0c0,13.8-11.2,25-25,25H26c-13.8,0-25-11.2-25-25l0,0
	C1,11.4,12.2,0.2,26,0.2z"/>
<path style="fill:#FFFFFF;" d="M52.1,35h-2.9v-4c0-0.8-0.6-1.5-1.3-1.7l0,0c-0.1,0-0.3,0-0.4,0h-3.1c-0.3,0-0.6,0.1-0.8,0.2
	c-0.1,0.1-0.3,0.2-0.4,0.3l0,0c-0.3,0.3-0.5,0.8-0.5,1.2v4h-2.9c-0.7,0-1.3,0.6-1.3,1.3c0,0.1,0,0.3,0,0.4c0.1,0.3,0.2,0.5,0.4,0.7
	l6.2,5.1c0.5,0.4,1.2,0.4,1.7,0l6.3-5.1c0.6-0.5,0.7-1.3,0.2-1.8C52.9,35.2,52.6,35,52.1,35z"/>
<path style="fill:#FFFFFF;" d="M36.7,38.9c-1.4-1.2-1.6-3.2-0.5-4.7c0.6-0.8,1.6-1.2,2.6-1.2h0.9v-3c0-2.1,1.7-3.7,3.8-3.7h3.1
	c0.2,0,0.5,0,0.7,0.1V13.4c0-1.7-1.3-3-3-3h-19c-1.7,0-3,1.3-3,3v24c0,1.7,1.3,3,3,3h13.3L36.7,38.9z M28.8,15.2h12
	c0.8,0,1.5,0.7,1.5,1.5c0,0.8-0.7,1.5-1.5,1.5h-12c-0.8,0-1.5-0.7-1.5-1.5C27.3,15.9,27.9,15.2,28.8,15.2L28.8,15.2z M28.8,21.2h12
	c0.8,0,1.5,0.7,1.5,1.5s-0.7,1.5-1.5,1.5h-12c-0.8,0-1.5-0.7-1.5-1.5S27.9,21.2,28.8,21.2L28.8,21.2z M27.3,28.7
	c0-0.8,0.7-1.5,1.5-1.5h7c0.8,0,1.5,0.7,1.5,1.5s-0.7,1.5-1.5,1.5h-7C27.9,30.2,27.3,29.6,27.3,28.7L27.3,28.7z"/>
</svg>
