<?xml version="1.0" encoding="utf-8"?>
<!-- Generator: Adobe Illustrator 25.4.1, SVG Export Plug-In . SVG Version: 6.00 Build 0)  -->
<svg version="1.1" id="Layer_1" xmlns="http://www.w3.org/2000/svg" xmlns:xlink="http://www.w3.org/1999/xlink" x="0px" y="0px"
	 width="248px" height="60px" viewBox="0 0 248 60" style="enable-background:new 0 0 248 60;" xml:space="preserve">
<g id="Layer_2_00000106842227013905520350000003347030641877262993_">
	<g id="레이어_1">
		<path style="fill:#D15E7B;" d="M28.422,4.5h191.157c15.188,0,27.5,12.312,27.5,27.5l0,0c0,15.188-12.312,27.5-27.5,27.5H28.422
			c-15.188,0-27.5-12.312-27.5-27.5l0,0C0.922,16.812,13.234,4.5,28.422,4.5z"/>
		<path style="fill:#FFFFFF;" d="M28.422,54c-14.359,0-26-11.641-26-26s11.641-26,26-26h191.157c14.359,0,26,11.641,26,26
			s-11.641,26-26,26H28.422z"/>
		<path style="fill:#F794AD;" d="M219.578,3.5c13.531,0,24.5,10.969,24.5,24.5s-10.969,24.5-24.5,24.5H28.422
			c-13.531,0-24.5-10.969-24.5-24.5s10.969-24.5,24.5-24.5H219.578 M219.578,0.5H28.422C13.252,0.544,0.966,12.831,0.922,28l0,0
			c0.044,15.169,12.331,27.456,27.5,27.5h191.157c15.169-0.044,27.456-12.331,27.5-27.5l0,0
			C247.034,12.831,234.748,0.544,219.578,0.5z"/>
		<path style="fill:#424649;" d="M154.41,37.507c1.141-0.755,2.141-1.705,2.953-2.807c0.812-1.136,1.447-2.389,1.882-3.716
			c0.507-1.549,0.844-3.148,1.006-4.769c0.206-1.993,0.303-3.996,0.292-6v-2.534c-0.062-0.894,0.299-1.764,0.974-2.353
			c0.628-0.523,1.421-0.805,2.238-0.795c0.409,0,0.815,0.072,1.2,0.211c0.379,0.134,0.727,0.344,1.022,0.617
			c0.3,0.281,0.542,0.616,0.714,0.989c0.189,0.418,0.284,0.872,0.276,1.331v2.5c0,0.974-0.022,1.91-0.065,2.807
			s-0.108,1.768-0.195,2.612c1.3,0.503,2.507,1.222,3.569,2.125c1.049,0.919,1.894,2.046,2.483,3.31
			c0.686,1.501,1.135,3.099,1.33,4.737c0.255,2.127,0.294,4.274,0.114,6.409h-6.295c0.375-2.154,0.358-4.358-0.049-6.506
			c-0.295-1.537-1.087-2.934-2.255-3.975c-1.406,4.889-3.806,8.253-7.2,10.092c-0.399,0.212-0.824,0.37-1.265,0.47
			c-0.414,0.097-0.841,0.131-1.265,0.1c-0.388-0.026-0.768-0.125-1.12-0.291c-0.327-0.154-0.613-0.384-0.833-0.671
			c-0.219-0.265-0.389-0.567-0.5-0.892c-0.119-0.332-0.169-0.686-0.146-1.038c0.025-0.37,0.13-0.73,0.308-1.055
			C153.783,38.051,154.066,37.739,154.41,37.507z M176.41,16.707c-0.062-0.893,0.299-1.764,0.974-2.352
			c0.628-0.523,1.422-0.805,2.239-0.795c0.409,0,0.815,0.071,1.2,0.211c0.376,0.132,0.723,0.336,1.022,0.6
			c0.301,0.273,0.544,0.604,0.714,0.973c0.192,0.428,0.286,0.894,0.276,1.363v8.21h1.071c0.426-0.016,0.849,0.073,1.233,0.259
			c0.307,0.159,0.574,0.387,0.779,0.665c0.196,0.274,0.339,0.582,0.421,0.909c0.173,0.648,0.173,1.331,0,1.979
			c-0.082,0.327-0.225,0.635-0.421,0.909c-0.21,0.282-0.484,0.51-0.8,0.665c-0.379,0.183-0.796,0.272-1.217,0.26h-1.071v13.466
			h-6.425L176.41,16.707z"/>
		<path style="fill:#424649;" d="M196.951,13.333c0.894-0.052,1.771,0.258,2.434,0.86c0.615,0.651,0.942,1.522,0.908,2.417h4.929
			c0.685-0.044,1.357,0.203,1.85,0.681c0.436,0.464,0.67,1.083,0.649,1.72c0.015,0.624-0.205,1.231-0.617,1.7
			c-0.443,0.48-1.065,0.756-1.719,0.762c0.338,0.925,0.503,1.904,0.486,2.888v1.363c0.118,1.833-0.429,3.648-1.541,5.11
			c-1.087,1.236-2.554,2.075-4.17,2.385v4.446h5.362c0.79-0.081,1.572,0.215,2.11,0.8c0.828,1.072,0.821,2.57-0.017,3.634
			c-0.534,0.579-1.309,0.875-2.093,0.8h-16.326c-0.789,0.073-1.567-0.222-2.109-0.8c-0.858-1.057-0.864-2.569-0.016-3.634
			c0.545-0.583,1.331-0.879,2.125-0.8h4.543v-4.442c-1.626-0.305-3.105-1.145-4.2-2.385c-1.113-1.462-1.66-3.277-1.542-5.11v-1.363
			c-0.017-0.984,0.148-1.964,0.487-2.888c-0.646-0.014-1.259-0.289-1.7-0.762c-0.421-0.465-0.647-1.073-0.632-1.7
			c-0.021-0.637,0.213-1.256,0.649-1.72c0.493-0.478,1.164-0.725,1.849-0.681h4.965c-0.034-0.895,0.293-1.766,0.908-2.417
			C195.183,13.595,196.058,13.283,196.951,13.333z M194.095,25.89c-0.085,0.813,0.229,1.618,0.843,2.158
			c1.209,0.843,2.815,0.843,4.024,0c0.614-0.541,0.928-1.345,0.844-2.158v-1.849c0.084-0.813-0.23-1.617-0.844-2.158
			c-1.209-0.844-2.815-0.844-4.024,0c-0.614,0.54-0.928,1.345-0.843,2.158V25.89z M209.41,44.029V16.772
			c-0.063-0.907,0.296-1.793,0.974-2.4c1.321-1.081,3.221-1.081,4.542,0c0.678,0.607,1.037,1.493,0.974,2.4v27.257H209.41z"/>
		<path style="fill:#F794AD;" d="M87.243,42.8c-0.867,0.021-1.734-0.067-2.58-0.26c-0.586-0.13-1.118-0.436-1.525-0.876
			c-0.387-0.477-0.639-1.048-0.73-1.655c-0.142-0.847-0.208-1.705-0.195-2.563V19.985c-0.013-0.859,0.053-1.717,0.195-2.564
			c0.091-0.607,0.343-1.178,0.73-1.655c0.407-0.44,0.939-0.746,1.525-0.876c0.846-0.193,1.713-0.28,2.58-0.259h7.593
			c0.867-0.021,1.733,0.066,2.579,0.259c0.586,0.13,1.118,0.436,1.525,0.876c0.387,0.476,0.639,1.048,0.73,1.655
			c0.144,0.847,0.211,1.705,0.2,2.564V42.8H87.243z M88.508,36.537c-0.021,0.291,0.053,0.582,0.211,0.827
			c0.23,0.218,0.546,0.319,0.86,0.276h3.991V20.861c0.012-0.269-0.044-0.537-0.162-0.779c-0.109-0.2-0.346-0.292-0.714-0.292h-3.342
			c-0.368,0-0.6,0.1-0.7,0.292c-0.107,0.245-0.157,0.512-0.146,0.779L88.508,36.537z M103.402,16.711
			c-0.061-0.893,0.299-1.763,0.973-2.352c0.628-0.523,1.422-0.804,2.239-0.795c0.409,0,0.815,0.071,1.2,0.211
			c0.376,0.133,0.723,0.336,1.022,0.6c0.301,0.273,0.544,0.604,0.714,0.973c0.192,0.428,0.286,0.894,0.276,1.363v8.21h1.071
			c0.426-0.016,0.849,0.073,1.233,0.259c0.307,0.159,0.573,0.386,0.778,0.665c0.196,0.274,0.339,0.582,0.422,0.909
			c0.173,0.648,0.173,1.331,0,1.979c-0.082,0.327-0.226,0.635-0.422,0.909c-0.209,0.283-0.484,0.511-0.8,0.665
			c-0.379,0.183-0.796,0.272-1.216,0.26h-1.071v13.462h-6.425L103.402,16.711z"/>
		<path style="fill:#F794AD;" d="M140.978,37.928c0.44-0.011,0.877,0.072,1.282,0.244c0.334,0.146,0.633,0.361,0.876,0.632
			c0.224,0.254,0.389,0.553,0.486,0.877c0.096,0.315,0.146,0.643,0.146,0.973c0.001,0.342-0.054,0.682-0.162,1.006
			c-0.107,0.322-0.277,0.62-0.5,0.876c-0.237,0.267-0.531,0.478-0.86,0.617c-0.402,0.162-0.832,0.239-1.265,0.227h-24.794
			c-0.433,0.012-0.863-0.065-1.265-0.227c-0.329-0.139-0.623-0.35-0.86-0.617c-0.223-0.256-0.393-0.554-0.5-0.876
			c-0.108-0.324-0.163-0.664-0.162-1.006c0.001-0.33,0.05-0.658,0.146-0.973c0.097-0.324,0.263-0.624,0.487-0.877
			c0.243-0.271,0.542-0.487,0.876-0.632c0.405-0.172,0.841-0.255,1.281-0.244H140.978z M139.677,14.533
			c0.396-0.012,0.79,0.066,1.152,0.227c0.297,0.14,0.562,0.338,0.779,0.584c0.203,0.236,0.353,0.513,0.438,0.812
			c0.085,0.295,0.128,0.601,0.129,0.908c0.002,0.622-0.204,1.227-0.584,1.72c-0.473,0.556-1.187,0.847-1.914,0.779h-17.256
			c-0.649,0-0.974,0.281-0.973,0.843v1.266h18.041c0.733-0.075,1.456,0.216,1.931,0.779c0.363,0.475,0.563,1.056,0.568,1.654
			c0,0.607-0.206,1.197-0.584,1.672c-0.479,0.547-1.191,0.83-1.915,0.762h-18.046v1.233c-0.028,0.252,0.062,0.504,0.244,0.681
			c0.213,0.147,0.47,0.217,0.729,0.2h17.782c0.396-0.012,0.79,0.066,1.152,0.227c0.297,0.14,0.562,0.338,0.779,0.584
			c0.201,0.232,0.351,0.505,0.438,0.8c0.086,0.29,0.13,0.591,0.13,0.893c0.002,0.622-0.204,1.227-0.584,1.719
			c-0.473,0.557-1.188,0.847-1.915,0.779h-20.183c-1.882,0-3.212-0.406-3.991-1.217c-0.869-1.084-1.288-2.461-1.168-3.845V19.6
			c-0.122-1.385,0.295-2.765,1.165-3.85c0.779-0.811,2.11-1.216,3.991-1.217L139.677,14.533z"/>
		<path style="fill:#F794AD;" d="M31.494,20.464c0.14,0.073,0.262,0.176,0.359,0.3c0.079,0.105,0.135,0.225,0.163,0.353
			c0.025,0.121,0.024,0.246-0.005,0.366c-0.027,0.118-0.07,0.231-0.129,0.336c-0.06,0.108-0.137,0.205-0.229,0.287
			c-0.091,0.083-0.197,0.146-0.313,0.186c-0.121,0.042-0.251,0.056-0.378,0.041c-0.155-0.02-0.303-0.072-0.437-0.152l-2.867-1.616
			c-0.139-0.074-0.26-0.176-0.357-0.3c-0.079-0.102-0.134-0.219-0.161-0.345c-0.024-0.12-0.024-0.244,0-0.364
			c0.023-0.121,0.066-0.237,0.127-0.344c0.06-0.105,0.134-0.201,0.221-0.285c0.088-0.086,0.194-0.153,0.31-0.194
			c0.124-0.042,0.256-0.056,0.387-0.043c0.157,0.017,0.309,0.069,0.445,0.15L31.494,20.464z"/>
		<path style="fill:#F794AD;" d="M29.822,24.943c0.151-0.047,0.311-0.06,0.468-0.04c0.13,0.019,0.254,0.065,0.365,0.135
			c0.103,0.067,0.191,0.157,0.255,0.262c0.064,0.102,0.113,0.213,0.147,0.329c0.033,0.119,0.047,0.242,0.041,0.365
			c-0.006,0.122-0.036,0.242-0.09,0.352c-0.056,0.116-0.137,0.219-0.238,0.3c-0.124,0.094-0.266,0.162-0.417,0.2l-3.17,0.885
			c-0.149,0.046-0.306,0.061-0.461,0.044c-0.128-0.017-0.25-0.061-0.358-0.131c-0.103-0.067-0.191-0.153-0.259-0.255
			c-0.069-0.102-0.121-0.214-0.154-0.333c-0.031-0.116-0.047-0.236-0.045-0.357c0.001-0.124,0.029-0.245,0.082-0.357
			c0.059-0.116,0.142-0.218,0.243-0.3c0.124-0.099,0.267-0.17,0.421-0.209L29.822,24.943z"/>
		<path style="fill:#F794AD;" d="M35.213,17.6c0.047,0.151,0.06,0.311,0.04,0.468c-0.019,0.13-0.065,0.254-0.135,0.365
			c-0.067,0.103-0.157,0.191-0.262,0.255c-0.102,0.064-0.213,0.113-0.329,0.146c-0.119,0.033-0.242,0.047-0.365,0.041
			c-0.122-0.006-0.242-0.036-0.352-0.089c-0.117-0.056-0.219-0.138-0.3-0.239c-0.095-0.124-0.163-0.266-0.2-0.417l-0.885-3.17
			c-0.045-0.149-0.06-0.305-0.042-0.46c0.017-0.127,0.061-0.249,0.131-0.357c0.067-0.103,0.153-0.191,0.255-0.26
			c0.102-0.069,0.214-0.121,0.333-0.153c0.116-0.032,0.236-0.048,0.357-0.045c0.124,0,0.246,0.028,0.357,0.082
			c0.116,0.059,0.218,0.142,0.3,0.243c0.099,0.124,0.17,0.267,0.209,0.42L35.213,17.6z"/>
		<path style="fill:#F794AD;" d="M39.415,19.214c-3.666-0.001-6.638,2.971-6.639,6.637s2.971,6.638,6.637,6.639
			c3.666,0.001,6.638-2.971,6.639-6.637c0,0,0-0.001,0-0.001c0.001-3.666-2.97-6.637-6.636-6.638
			C39.415,19.214,39.415,19.214,39.415,19.214z M39.415,29.698c-2.125,0-3.847-1.722-3.847-3.847s1.722-3.847,3.847-3.847
			c2.125,0,3.847,1.722,3.847,3.847c0,0,0,0.001,0,0.001c0.001,2.125-1.721,3.847-3.846,3.848c0,0-0.001,0-0.001,0V29.698z"/>
		<path style="fill:#F794AD;" d="M42.111,25.254c-0.419-1.373-1.873-2.147-3.246-1.727c-0.334,0.102-0.644,0.27-0.912,0.495
			c-0.243,0.188-0.287,0.537-0.1,0.78c0.009,0.012,0.019,0.023,0.029,0.034c0.166,0.194,0.446,0.244,0.669,0.12
			c0.585-0.593,1.541-0.6,2.134-0.015c0.165,0.163,0.29,0.361,0.366,0.58c0.109,0.249,0.393,0.37,0.648,0.276
			C41.941,25.727,42.109,25.506,42.111,25.254z"/>
		<path style="fill:#F794AD;" d="M79.375,39.664c-0.095-0.33-0.261-0.634-0.487-0.892c-0.243-0.272-0.542-0.488-0.876-0.633
			c-0.405-0.171-0.842-0.254-1.281-0.243H51.94c-0.44-0.011-0.877,0.071-1.282,0.243c-0.334,0.146-0.633,0.362-0.876,0.633
			c-0.226,0.258-0.392,0.562-0.486,0.892c-0.096,0.321-0.145,0.655-0.146,0.99c-0.001,0.342,0.054,0.682,0.162,1.006
			c0.107,0.322,0.277,0.62,0.5,0.876c0.237,0.267,0.531,0.478,0.86,0.617c0.402,0.162,0.832,0.239,1.265,0.227H76.73
			c0.433,0.012,0.863-0.065,1.265-0.227c0.329-0.139,0.623-0.35,0.86-0.617c0.223-0.256,0.393-0.554,0.5-0.876
			c0.108-0.324,0.163-0.664,0.162-1.006C79.517,40.319,79.469,39.986,79.375,39.664z"/>
		<path style="fill:#F794AD;" d="M55.979,32.088c1.12-0.328,2.19-0.809,3.18-1.428c1.05-0.622,2.034-1.351,2.936-2.174
			c0.928-0.841,1.766-1.776,2.5-2.791c0.937-0.026,1.872,0.117,2.758,0.422c0.853,0.296,1.64,0.753,2.32,1.347
			c0.7,0.622,1.277,1.37,1.7,2.206c0.471,0.93,0.778,1.935,0.908,2.969h6.59c-0.098-1.862-0.544-3.688-1.314-5.386
			c-0.654-1.417-1.574-2.694-2.71-3.764c-1.053-0.977-2.288-1.738-3.634-2.239c-1.299-0.489-2.669-0.763-4.056-0.811
			c0.274-0.972,0.427-1.975,0.455-2.985c0.094-0.885-0.189-1.768-0.779-2.434c-0.607-0.604-1.416-0.962-2.271-1.006
			c-0.855-0.079-1.711,0.145-2.418,0.633c-0.734,0.54-1.191,1.378-1.249,2.287c-0.155,1.294-0.518,2.554-1.074,3.732
			c-0.515,1.087-1.194,2.088-2.012,2.969c-0.729,0.906-1.655,1.633-2.709,2.125c-5.706,2.137-9.514-0.3-11.171,0.056
			c-0.185,0.04-0.367,0.093-0.544,0.159c0.424,1.445-0.301,2.977-1.687,3.566c0.146,0.528,0.462,0.992,0.9,1.321
			c0.599,0.421,1.281,0.708,2,0.843C45.643,32.01,51.267,33.327,55.979,32.088z"/>
		<path style="fill:#F794AD;" d="M41.91,27.04c0,0.331-0.269,0.6-0.6,0.6c-0.331,0-0.6-0.269-0.6-0.6c0-0.331,0.269-0.6,0.6-0.6l0,0
			C41.642,26.44,41.91,26.709,41.91,27.04z"/>
	</g>
</g>
</svg>
