<?xml version="1.0" encoding="utf-8"?>
<!-- Generator: Adobe Illustrator 25.0.1, SVG Export Plug-In . SVG Version: 6.00 Build 0)  -->
<svg version="1.1" id="레이어_1" xmlns="http://www.w3.org/2000/svg" xmlns:xlink="http://www.w3.org/1999/xlink" x="0px"
	 y="0px" width="52px" height="52px" viewBox="0 0 52 52" style="enable-background:new 0 0 52 52;" xml:space="preserve">
<g>
	<g>
		<circle style="fill:#ED6D46;" cx="26" cy="26" r="25"/>
		<radialGradient id="SVGID_1_" cx="26" cy="26" r="22.7272" gradientUnits="userSpaceOnUse">
			<stop  offset="0" style="stop-color:#EF7D1B"/>
			<stop  offset="1" style="stop-color:#E83619"/>
		</radialGradient>
		<circle style="fill:url(#SVGID_1_);" cx="26" cy="26" r="22.7"/>
		<g style="opacity:0.5;">
			<path style="fill:#FFFFFF;" d="M42,18.9c-0.5,0-1.1-0.3-1.4-0.8c-0.2-0.4-0.5-0.8-0.8-1.2c-0.5-0.7-0.3-1.7,0.4-2.2
				c0.7-0.5,1.7-0.3,2.2,0.4c0.3,0.5,0.6,0.9,0.9,1.4c0.4,0.8,0.2,1.7-0.6,2.2C42.6,18.8,42.3,18.9,42,18.9z"/>
			<path style="fill:#FFFFFF;" d="M37.8,13.8c-0.4,0-0.7-0.1-1-0.4c-3-2.6-6.7-4-10.7-4.3c-0.9-0.1-1.5-0.8-1.5-1.7
				c0.1-0.9,0.8-1.5,1.7-1.5c4.7,0.3,9,2,12.5,5c0.7,0.6,0.8,1.6,0.2,2.2C38.7,13.6,38.2,13.8,37.8,13.8z"/>
		</g>
	</g>
	
		<polyline style="fill:none;stroke:#FFFFFF;stroke-width:5;stroke-linecap:round;stroke-linejoin:round;stroke-miterlimit:10;" points="
		17.3,25.6 24.7,33 34.7,19 	"/>
</g>
</svg>
