<?xml version="1.0" encoding="utf-8"?>
<!-- Generator: Adobe Illustrator 25.2.0, SVG Export Plug-In . SVG Version: 6.00 Build 0)  -->
<svg version="1.1" id="레이어_1" xmlns="http://www.w3.org/2000/svg" xmlns:xlink="http://www.w3.org/1999/xlink" x="0px"
	 y="0px" viewBox="0 0 257 122.6" style="enable-background:new 0 0 257 122.6;" xml:space="preserve">
<g>
	<g>
		<path style="fill:#FF5959;" d="M64,111l31,11c5.9,2.1,12.1-2.4,11.9-8.7L106,80.4l20.1-26.1c3.8-5,1.5-12.2-4.6-14L90,31.1
			L71.4,3.9c-3.5-5.2-11.2-5.2-14.7,0L38,31.1L6.4,40.4c-6,1.8-8.4,9-4.6,14l20.1,26.1L21,113.4c-0.2,6.3,6,10.8,11.9,8.7L64,111
			L64,111z"/>
	</g>
	<g>
		<path style="fill:#FFD5D5;" d="M193,111l31,11c5.9,2.1,12.1-2.4,11.9-8.7L235,80.4l20.1-26.1c3.8-5,1.5-12.2-4.6-14L219,31.1
			L200.4,3.9c-3.5-5.2-11.2-5.2-14.7,0L167,31.1l-31.6,9.3c-6,1.8-8.4,9-4.6,14l20.1,26.1l-0.9,32.9c-0.2,6.3,6,10.8,11.9,8.7
			L193,111L193,111z"/>
	</g>
</g>
</svg>
