<?xml version="1.0" encoding="utf-8"?>
<!-- Generator: Adobe Illustrator 25.4.1, SVG Export Plug-In . SVG Version: 6.00 Build 0)  -->
<svg version="1.1" id="Layer_1" xmlns="http://www.w3.org/2000/svg" xmlns:xlink="http://www.w3.org/1999/xlink" x="0px" y="0px"
	 width="248px" height="60px" viewBox="0 0 248 60" style="enable-background:new 0 0 248 60;" xml:space="preserve">
<g id="Layer_2_00000084521382714607257580000011389294276705310390_">
	<g id="레이어_1">
		<path style="fill:#008BA6;" d="M28.422,4.5h191.157c15.188,0,27.5,12.312,27.5,27.5l0,0c0,15.188-12.312,27.5-27.5,27.5H28.422
			c-15.188,0-27.5-12.312-27.5-27.5l0,0C0.922,16.812,13.234,4.5,28.422,4.5z"/>
		<path style="fill:#FFFFFF;" d="M28.422,54c-14.359,0-26-11.641-26-26s11.641-26,26-26h191.157c14.359,0,26,11.641,26,26
			s-11.641,26-26,26H28.422z"/>
		<path style="fill:#00BBE0;" d="M219.578,3.5c13.531,0,24.5,10.969,24.5,24.5s-10.969,24.5-24.5,24.5H28.422
			c-13.531,0-24.5-10.969-24.5-24.5s10.969-24.5,24.5-24.5H219.578 M219.578,0.5H28.422C13.252,0.544,0.966,12.831,0.922,28l0,0
			c0.044,15.169,12.331,27.456,27.5,27.5h191.157c15.169-0.044,27.456-12.331,27.5-27.5l0,0
			C247.034,12.831,234.748,0.544,219.578,0.5z"/>
		<path style="fill:#00BBE0;" d="M86.257,42.5c-0.855,0.019-1.708-0.067-2.542-0.256c-0.577-0.124-1.101-0.425-1.5-0.86
			c-0.383-0.469-0.633-1.033-0.723-1.632c-0.135-0.824-0.197-1.658-0.187-2.493V20.053c-0.01-0.835,0.052-1.668,0.187-2.492
			c0.09-0.599,0.34-1.163,0.723-1.633c0.399-0.435,0.923-0.735,1.5-0.86c0.834-0.189,1.687-0.274,2.542-0.255h7.478
			c0.853-0.019,1.704,0.066,2.536,0.255c0.576,0.127,1.099,0.427,1.5,0.86c0.38,0.471,0.628,1.034,0.716,1.633
			c0.138,0.823,0.202,1.657,0.193,2.492v22.433L86.257,42.5z M87.504,36.337c-0.02,0.287,0.052,0.573,0.206,0.816
			c0.227,0.213,0.539,0.312,0.847,0.268h3.926V20.92c0.012-0.265-0.043-0.529-0.162-0.767c-0.106-0.193-0.336-0.286-0.7-0.286
			h-3.288c-0.361,0-0.623,0.093-0.685,0.286c-0.109,0.24-0.158,0.503-0.144,0.767L87.504,36.337z M102.154,16.837
			c-0.061-0.88,0.295-1.738,0.96-2.318c0.618-0.512,1.398-0.788,2.2-0.779c0.404,0,0.804,0.069,1.184,0.205
			c0.37,0.142,0.71,0.353,1,0.624c0.296,0.269,0.534,0.595,0.7,0.959c0.189,0.421,0.283,0.879,0.274,1.34v8.1h1.053
			c0.418-0.014,0.833,0.073,1.209,0.255c0.305,0.152,0.569,0.377,0.767,0.655c0.194,0.271,0.335,0.577,0.417,0.9
			c0.166,0.637,0.166,1.307,0,1.944c-0.082,0.323-0.223,0.629-0.417,0.9c-0.205,0.276-0.472,0.501-0.779,0.655
			c-0.374,0.179-0.785,0.266-1.2,0.255h-1.053v13.182h-6.325L102.154,16.837z"/>
		<path style="fill:#00BBE0;" d="M139.121,37.713c0.428-0.012,0.853,0.069,1.246,0.237c0.33,0.142,0.626,0.355,0.866,0.623
			c0.219,0.25,0.383,0.543,0.48,0.86c0.093,0.312,0.142,0.635,0.144,0.96c-0.001,0.337-0.055,0.671-0.162,0.99
			c-0.105,0.317-0.273,0.609-0.493,0.86c-0.233,0.268-0.522,0.481-0.847,0.624c-0.396,0.159-0.82,0.235-1.247,0.224h-24.374
			c-0.426,0.011-0.85-0.065-1.246-0.224c-0.326-0.142-0.615-0.355-0.847-0.624c-0.22-0.251-0.388-0.543-0.493-0.86
			c-0.107-0.319-0.162-0.653-0.162-0.99c0.002-0.325,0.05-0.649,0.144-0.96c0.097-0.317,0.261-0.61,0.479-0.86
			c0.24-0.266,0.533-0.478,0.86-0.623c0.394-0.166,0.819-0.247,1.247-0.237H139.121z M137.879,14.7
			c0.389-0.011,0.776,0.063,1.134,0.218c0.292,0.139,0.553,0.336,0.766,0.579c0.2,0.232,0.347,0.505,0.43,0.8
			c0.086,0.289,0.13,0.589,0.131,0.891c0.003,0.616-0.201,1.214-0.579,1.7c-0.462,0.543-1.159,0.829-1.87,0.766h-17.03
			c-0.623,0-0.954,0.274-0.954,0.829v1.246h17.747c0.711-0.064,1.409,0.222,1.87,0.767c0.358,0.467,0.555,1.038,0.561,1.626
			c-0.001,0.597-0.203,1.177-0.574,1.645c-0.473,0.525-1.165,0.797-1.869,0.733h-17.735v1.215c-0.026,0.247,0.061,0.492,0.237,0.667
			c0.21,0.144,0.463,0.212,0.717,0.193h17.5c0.39-0.012,0.778,0.065,1.134,0.224c0.29,0.14,0.55,0.335,0.766,0.574
			c0.196,0.229,0.342,0.496,0.43,0.785c0.087,0.285,0.131,0.58,0.131,0.878c0.001,0.612-0.203,1.207-0.58,1.689
			c-0.461,0.544-1.158,0.83-1.869,0.766h-19.874c-1.853,0-3.161-0.4-3.926-1.2c-0.854-1.067-1.264-2.421-1.146-3.782v-8.836
			c-0.12-1.361,0.291-2.716,1.146-3.782c0.765-0.794,2.073-1.194,3.926-1.2L137.879,14.7z"/>
		<path style="fill:#00BBE0;" d="M31.403,20.527c0.139,0.073,0.26,0.175,0.355,0.3c0.155,0.198,0.214,0.454,0.163,0.7
			c-0.029,0.116-0.073,0.227-0.131,0.331c-0.055,0.11-0.131,0.207-0.225,0.286c-0.184,0.168-0.431,0.249-0.679,0.225
			c-0.152-0.021-0.299-0.068-0.436-0.138l-2.823-1.607c-0.133-0.063-0.251-0.152-0.349-0.262c-0.073-0.11-0.118-0.237-0.131-0.368
			c-0.022-0.117-0.022-0.238,0-0.355c0.026-0.117,0.068-0.23,0.125-0.336c0.058-0.104,0.131-0.199,0.218-0.281
			c0.08-0.082,0.175-0.147,0.28-0.193c0.122-0.043,0.252-0.058,0.381-0.044c0.154,0.018,0.303,0.069,0.436,0.15L31.403,20.527z"/>
		<path style="fill:#00BBE0;" d="M29.752,24.933c0.149-0.046,0.306-0.058,0.461-0.038c0.129,0.016,0.253,0.061,0.362,0.131
			c0.101,0.068,0.186,0.157,0.249,0.262c0.065,0.099,0.114,0.209,0.143,0.324c0.037,0.117,0.052,0.239,0.044,0.361
			c-0.007,0.121-0.037,0.239-0.088,0.349c-0.058,0.112-0.138,0.212-0.236,0.293c-0.123,0.091-0.263,0.157-0.412,0.193l-3.115,0.873
			c-0.147,0.046-0.302,0.061-0.455,0.043c-0.127-0.017-0.248-0.061-0.355-0.131c-0.102-0.064-0.189-0.149-0.256-0.249
			c-0.065-0.1-0.115-0.209-0.149-0.324c-0.031-0.118-0.046-0.239-0.044-0.361c0.001-0.121,0.029-0.24,0.081-0.349
			c0.056-0.116,0.137-0.218,0.237-0.3c0.121-0.1,0.264-0.171,0.417-0.206L29.752,24.933z"/>
		<path style="fill:#00BBE0;" d="M35.061,17.71c0.047,0.147,0.062,0.302,0.044,0.455c-0.02,0.129-0.067,0.252-0.137,0.362
			c-0.062,0.104-0.151,0.19-0.256,0.249c-0.201,0.136-0.442,0.202-0.685,0.187c-0.119-0.007-0.235-0.036-0.343-0.087
			c-0.117-0.054-0.22-0.136-0.3-0.237c-0.096-0.121-0.164-0.261-0.2-0.411l-0.872-3.116c-0.042-0.148-0.055-0.302-0.038-0.455
			c0.014-0.124,0.057-0.244,0.125-0.349c0.065-0.101,0.15-0.188,0.249-0.255c0.2-0.137,0.438-0.207,0.68-0.2
			c0.123,0.002,0.243,0.03,0.355,0.081c0.115,0.061,0.217,0.143,0.3,0.243c0.093,0.123,0.162,0.263,0.2,0.412L35.061,17.71z"/>
		<path style="fill:#00BBE0;" d="M39.199,19.3c-3.607-0.001-6.531,2.923-6.532,6.53s2.923,6.531,6.53,6.532s6.531-2.923,6.532-6.53
			c0,0,0-0.001,0-0.001C45.729,22.224,42.805,19.301,39.199,19.3z M39.199,29.613c-2.093,0.004-3.792-1.689-3.796-3.782
			c-0.004-2.093,1.689-3.792,3.782-3.796c2.093-0.004,3.792,1.689,3.796,3.782c0,0,0,0.001,0,0.001v0.013
			C42.977,27.918,41.286,29.609,39.199,29.613L39.199,29.613z"/>
		<path style="fill:#00BBE0;" d="M41.853,25.238c-0.403-1.341-1.816-2.103-3.158-1.7c-0.345,0.104-0.664,0.28-0.936,0.516
			c-0.237,0.183-0.282,0.522-0.1,0.76c0.01,0.013,0.021,0.026,0.032,0.038c0.164,0.191,0.44,0.24,0.66,0.118
			c0.582-0.581,1.525-0.58,2.106,0.002c0.156,0.156,0.275,0.345,0.349,0.553c0.106,0.238,0.376,0.357,0.624,0.274
			C41.684,25.733,41.859,25.5,41.853,25.238z"/>
		<path style="fill:#00BBE0;" d="M78.511,39.421c-0.091-0.326-0.255-0.626-0.479-0.879c-0.237-0.269-0.531-0.482-0.86-0.623
			c-0.394-0.171-0.821-0.254-1.251-0.243h-24.4c-0.428-0.01-0.853,0.073-1.246,0.243c-0.328,0.143-0.622,0.356-0.86,0.623
			c-0.224,0.253-0.388,0.554-0.48,0.879c-0.092,0.316-0.141,0.643-0.143,0.972c0.002,0.337,0.059,0.671,0.168,0.99
			c0.109,0.317,0.279,0.609,0.5,0.86c0.232,0.269,0.521,0.482,0.847,0.624c0.395,0.16,0.82,0.237,1.246,0.224h24.36
			c0.426,0.011,0.85-0.065,1.246-0.224c0.323-0.143,0.611-0.356,0.841-0.624c0.223-0.25,0.393-0.542,0.5-0.86
			c0.105-0.319,0.158-0.654,0.156-0.99C78.656,40.064,78.608,39.736,78.511,39.421z"/>
		<path style="fill:#00BBE0;" d="M55.493,31.962c1.098-0.321,2.146-0.792,3.115-1.4c1.034-0.613,2.003-1.329,2.892-2.138
			c0.923-0.828,1.758-1.749,2.492-2.748c0.921-0.025,1.84,0.117,2.711,0.418c0.84,0.286,1.615,0.735,2.281,1.321
			c0.687,0.612,1.249,1.35,1.657,2.174c0.466,0.913,0.77,1.9,0.9,2.917h6.48c-0.099-1.827-0.54-3.62-1.3-5.284
			c-0.638-1.406-1.542-2.676-2.661-3.739c-1.037-0.962-2.252-1.711-3.577-2.206c-1.28-0.48-2.628-0.75-3.994-0.8
			c0.274-0.955,0.425-1.942,0.449-2.935c0.094-0.872-0.185-1.744-0.767-2.4c-0.607-0.592-1.415-0.934-2.262-0.959
			c-0.84-0.078-1.68,0.143-2.374,0.623c-0.73,0.529-1.186,1.356-1.246,2.255c-0.153,1.273-0.511,2.512-1.059,3.671
			c-0.505,1.07-1.171,2.055-1.976,2.922c-0.719,0.889-1.631,1.603-2.667,2.088c-5.608,2.106-9.347-0.293-10.992,0.056
			c-0.182,0.041-0.361,0.093-0.536,0.156c0.078,0.267,0.118,0.544,0.119,0.822c0.011,1.15-0.655,2.2-1.7,2.68
			c0.144,0.519,0.455,0.975,0.885,1.3c0.581,0.408,1.241,0.688,1.938,0.822C45.322,31.887,50.858,33.183,55.493,31.962z"/>
		<path style="fill:#00BBE0;" d="M41.653,27c0.017,0.344-0.247,0.636-0.591,0.653s-0.636-0.247-0.653-0.591
			c-0.017-0.343,0.247-0.636,0.59-0.653h0.031C41.362,26.409,41.636,26.669,41.653,27z"/>
		<path style="fill:#4E5254;" d="M170.452,37.305v6.932h-6.608v-6.932h-9.136c-1.458,0.049-2.68-1.093-2.729-2.551
			c-0.049-1.458,1.093-2.68,2.551-2.73c0.059-0.002,0.119-0.002,0.178,0h24.879c1.458-0.049,2.68,1.093,2.73,2.551
			s-1.093,2.68-2.551,2.73c-0.059,0.002-0.119,0.002-0.178,0H170.452z M170.062,19.164c5.54,0.064,11.047,3.628,11.6,11.532h-6.541
			c-0.386-3.741-3.629-6.529-7.386-6.349c-2.887,3.886-7.377,6.256-12.214,6.446c-1.526,0.123-2.869-1.002-3.013-2.527
			c-0.203-1.512,0.859-2.903,2.372-3.105c0.009-0.001,0.019-0.002,0.028-0.004c4.244-0.746,8.1-3.79,8.779-8.455
			c0.155-1.774,1.719-3.086,3.493-2.931c0.045,0.004,0.09,0.009,0.135,0.015c1.702,0.031,3.057,1.435,3.026,3.137
			c-0.002,0.099-0.008,0.198-0.02,0.297C170.285,17.874,170.198,18.524,170.062,19.164L170.062,19.164z"/>
		<path style="fill:#4E5254;" d="M185.092,24.93v-1.879c0.005-0.756,0.218-1.496,0.616-2.138c-1.227,0.095-2.299-0.824-2.394-2.051
			c-0.006-0.072-0.008-0.145-0.006-0.217c-0.04-1.285,0.969-2.36,2.254-2.4c0.049-0.002,0.098-0.002,0.146,0h4.7
			c0.032-1.846,1.328-2.915,3.239-2.915c1.626-0.173,3.084,1.004,3.257,2.629c0.01,0.096,0.016,0.192,0.017,0.289h4.665
			c1.258-0.049,2.318,0.932,2.367,2.19c0.003,0.07,0.002,0.14-0.002,0.21c0.066,1.189-0.844,2.206-2.033,2.272
			c-0.1,0.006-0.199,0.004-0.299-0.004h-0.033c0.398,0.642,0.611,1.382,0.616,2.138v1.876c0,4.7-3.985,6.771-8.553,6.771
			S185.092,29.627,185.092,24.93z M188.527,38.082c-1.413,0.137-2.67-0.898-2.807-2.311s0.898-2.67,2.311-2.807
			c0.165-0.016,0.331-0.016,0.496,0h19.372c4.049,0,4.795,1.1,4.795,4.989v6.122h-6.479V38.86c0.046-0.384-0.228-0.732-0.612-0.778
			c-0.055-0.007-0.111-0.007-0.166,0H188.527z M196.302,24.736v-1.685c-0.169-1.467-1.495-2.52-2.962-2.351
			c-1.235,0.142-2.209,1.116-2.351,2.351v1.685c0.173,1.467,1.503,2.516,2.971,2.342C195.188,26.933,196.156,25.965,196.302,24.736z
			 M205.922,16.864c-0.095-1.677,1.188-3.113,2.864-3.208c0.114-0.006,0.229-0.006,0.343,0c1.697-0.075,3.132,1.24,3.207,2.937
			c0.004,0.09,0.004,0.181,0,0.271v2.915h1c1.366-0.057,2.52,1.004,2.578,2.37c0.006,0.139,0,0.278-0.018,0.416
			c0.171,1.358-0.792,2.598-2.151,2.769c-0.136,0.017-0.273,0.023-0.409,0.017h-1v6.479h-6.414V16.864z"/>
	</g>
</g>
</svg>
