<?xml version="1.0" encoding="utf-8"?>
<!-- Generator: Adobe Illustrator 25.2.0, SVG Export Plug-In . SVG Version: 6.00 Build 0)  -->
<svg version="1.1" id="레이어_1" xmlns="http://www.w3.org/2000/svg" xmlns:xlink="http://www.w3.org/1999/xlink" x="0px"
	 y="0px" viewBox="0 0 246.2 55" style="enable-background:new 0 0 246.2 55;" xml:space="preserve">
<g>
	<g>
		<path style="fill:#FFFFFF;" d="M27.5,53.5c-14.3,0-26-11.7-26-26s11.7-26,26-26h191.2c14.3,0,26,11.7,26,26s-11.7,26-26,26H27.5z"
			/>
		<path style="fill:#F794AD;" d="M218.7,3c13.5,0,24.5,11,24.5,24.5c0,13.5-11,24.5-24.5,24.5H27.5C14,52,3,41,3,27.5
			C3,14,14,3,27.5,3H218.7 M218.7,0H27.5C12.4,0,0,12.4,0,27.5v0C0,42.6,12.4,55,27.5,55h191.2c15.1,0,27.5-12.4,27.5-27.5v0
			C246.2,12.4,233.8,0,218.7,0L218.7,0z"/>
	</g>
	<g>
		<path style="fill:#424649;" d="M153.5,37c1.2-0.8,2.2-1.7,3-2.8c0.8-1.1,1.4-2.3,1.9-3.7c0.5-1.4,0.8-3,1-4.8
			c0.2-1.8,0.3-3.8,0.3-6v-2.5c0-1,0.3-1.8,1-2.4c0.6-0.5,1.4-0.8,2.2-0.8c0.4,0,0.8,0.1,1.2,0.2c0.4,0.1,0.7,0.3,1,0.6
			c0.3,0.3,0.5,0.6,0.7,1c0.2,0.4,0.3,0.8,0.3,1.3v2.5c0,1,0,1.9-0.1,2.8c0,0.9-0.1,1.8-0.2,2.6c1.4,0.5,2.6,1.2,3.6,2.1
			c1,0.9,1.8,2,2.5,3.3c0.6,1.3,1.1,2.9,1.3,4.7c0.2,1.8,0.3,4,0.1,6.4H167c0.4-2.6,0.4-4.8,0-6.5c-0.4-1.7-1.2-3-2.3-4
			c-1.4,4.9-3.8,8.3-7.2,10.1c-0.4,0.2-0.8,0.4-1.3,0.5c-0.4,0.1-0.9,0.1-1.3,0.1c-0.4,0-0.8-0.1-1.1-0.3c-0.3-0.2-0.6-0.4-0.8-0.7
			c-0.2-0.3-0.4-0.6-0.5-0.9c-0.1-0.3-0.2-0.7-0.1-1c0-0.4,0.1-0.7,0.3-1.1C152.8,37.6,153.1,37.3,153.5,37z M175.5,16.2
			c0-1,0.3-1.8,1-2.4c0.6-0.5,1.4-0.8,2.2-0.8c0.4,0,0.8,0.1,1.2,0.2c0.4,0.1,0.7,0.3,1,0.6c0.3,0.3,0.5,0.6,0.7,1
			c0.2,0.4,0.3,0.8,0.3,1.4v8.2h1.1c0.5,0,0.9,0.1,1.2,0.3c0.3,0.2,0.6,0.4,0.8,0.7c0.2,0.3,0.3,0.6,0.4,0.9c0.1,0.3,0.1,0.7,0.1,1
			c0,0.3,0,0.7-0.1,1c-0.1,0.3-0.2,0.6-0.4,0.9c-0.2,0.3-0.5,0.5-0.8,0.7c-0.3,0.2-0.7,0.3-1.2,0.3h-1.1v13.5h-6.4V16.2z"/>
		<path style="fill:#424649;" d="M196,12.8c1,0,1.8,0.3,2.4,0.9c0.6,0.6,0.9,1.4,0.9,2.4h4.9c0.8,0,1.4,0.2,1.8,0.7
			c0.4,0.5,0.6,1,0.6,1.7c0,0.7-0.2,1.2-0.6,1.7c-0.4,0.5-1,0.7-1.7,0.8c0.3,0.8,0.5,1.8,0.5,2.9v1.4c0,2.2-0.5,3.9-1.5,5.1
			c-1,1.2-2.4,2-4.2,2.4v4.4h5.4c1,0,1.7,0.3,2.1,0.8c0.4,0.5,0.6,1.1,0.6,1.8c0,0.7-0.2,1.3-0.6,1.8c-0.4,0.5-1.1,0.8-2.1,0.8
			h-16.3c-1,0-1.7-0.3-2.1-0.8c-0.4-0.5-0.6-1.1-0.6-1.8c0-0.7,0.2-1.3,0.6-1.8c0.4-0.5,1.1-0.8,2.1-0.8h4.5v-4.4
			c-1.8-0.4-3.2-1.2-4.2-2.4c-1-1.2-1.5-2.9-1.5-5.1v-1.4c0-1.1,0.2-2,0.5-2.9c-0.7,0-1.3-0.3-1.7-0.8c-0.4-0.5-0.6-1-0.6-1.7
			c0-0.7,0.2-1.3,0.6-1.7c0.4-0.5,1-0.7,1.8-0.7h5c0-1,0.3-1.8,0.9-2.4C194.2,13.1,195,12.8,196,12.8z M193.2,25.4
			c0,1,0.3,1.7,0.8,2.2c0.6,0.4,1.2,0.6,2,0.6c0.8,0,1.4-0.2,2-0.6c0.6-0.4,0.8-1.1,0.8-2.2v-1.8c0-1-0.3-1.7-0.8-2.2
			c-0.6-0.4-1.2-0.6-2-0.6c-0.8,0-1.4,0.2-2,0.6c-0.6,0.4-0.8,1.1-0.8,2.2V25.4z M208.5,43.5V16.3c0-1.1,0.3-1.9,1-2.4
			c0.6-0.5,1.4-0.8,2.3-0.8c0.9,0,1.6,0.3,2.3,0.8c0.6,0.5,1,1.3,1,2.4v27.3H208.5z"/>
	</g>
	<g>
		<path style="fill:#F794AD;" d="M86.3,42.3c-1.1,0-1.9-0.1-2.6-0.3c-0.7-0.2-1.2-0.5-1.5-0.9c-0.4-0.4-0.6-1-0.7-1.7
			c-0.1-0.7-0.2-1.5-0.2-2.6V19.5c0-1,0.1-1.9,0.2-2.6c0.1-0.7,0.4-1.2,0.7-1.7c0.4-0.4,0.9-0.7,1.5-0.9c0.7-0.2,1.5-0.3,2.6-0.3
			h7.6c1.1,0,1.9,0.1,2.6,0.3c0.7,0.2,1.2,0.5,1.5,0.9c0.4,0.4,0.6,1,0.7,1.7c0.1,0.7,0.2,1.5,0.2,2.6v22.8H86.3z M87.6,36
			c0,0.4,0.1,0.6,0.2,0.8c0.1,0.2,0.4,0.3,0.9,0.3h4V20.4c0-0.3-0.1-0.6-0.2-0.8c-0.1-0.2-0.3-0.3-0.7-0.3h-3.3
			c-0.4,0-0.6,0.1-0.7,0.3c-0.1,0.2-0.1,0.5-0.1,0.8V36z M102.5,16.2c0-1,0.3-1.8,1-2.4c0.6-0.5,1.4-0.8,2.2-0.8
			c0.4,0,0.8,0.1,1.2,0.2c0.4,0.1,0.7,0.3,1,0.6c0.3,0.3,0.5,0.6,0.7,1c0.2,0.4,0.3,0.8,0.3,1.4v8.2h1.1c0.5,0,0.9,0.1,1.2,0.3
			c0.3,0.2,0.6,0.4,0.8,0.7c0.2,0.3,0.3,0.6,0.4,0.9c0.1,0.3,0.1,0.7,0.1,1c0,0.3,0,0.7-0.1,1c-0.1,0.3-0.2,0.6-0.4,0.9
			c-0.2,0.3-0.5,0.5-0.8,0.7c-0.3,0.2-0.7,0.3-1.2,0.3h-1.1v13.5h-6.4V16.2z"/>
		<path style="fill:#F794AD;" d="M140.1,37.4c0.5,0,0.9,0.1,1.3,0.2c0.4,0.2,0.6,0.4,0.9,0.6c0.2,0.3,0.4,0.6,0.5,0.9
			c0.1,0.3,0.1,0.6,0.1,1c0,0.3-0.1,0.7-0.2,1c-0.1,0.3-0.3,0.6-0.5,0.9c-0.2,0.3-0.5,0.5-0.9,0.6c-0.3,0.2-0.8,0.2-1.3,0.2h-24.8
			c-0.5,0-0.9-0.1-1.3-0.2c-0.3-0.2-0.6-0.4-0.9-0.6c-0.2-0.3-0.4-0.6-0.5-0.9c-0.1-0.3-0.2-0.7-0.2-1c0-0.3,0-0.6,0.1-1
			c0.1-0.3,0.3-0.6,0.5-0.9c0.2-0.3,0.5-0.5,0.9-0.6c0.4-0.2,0.8-0.2,1.3-0.2H140.1z M138.8,14c0.5,0,0.8,0.1,1.2,0.2
			c0.3,0.2,0.6,0.3,0.8,0.6c0.2,0.2,0.4,0.5,0.4,0.8c0.1,0.3,0.1,0.6,0.1,0.9c0,0.6-0.2,1.2-0.6,1.7c-0.4,0.5-1,0.8-1.9,0.8h-17.3
			c-0.6,0-1,0.3-1,0.8v1.3h18c0.9,0,1.6,0.3,1.9,0.8c0.4,0.5,0.6,1.1,0.6,1.7c0,0.6-0.2,1.2-0.6,1.7c-0.4,0.5-1,0.8-1.9,0.8h-18v1.2
			c0,0.3,0.1,0.6,0.2,0.7c0.2,0.1,0.4,0.2,0.7,0.2h17.8c0.5,0,0.8,0.1,1.2,0.2c0.3,0.2,0.6,0.3,0.8,0.6c0.2,0.2,0.4,0.5,0.4,0.8
			c0.1,0.3,0.1,0.6,0.1,0.9c0,0.6-0.2,1.2-0.6,1.7c-0.4,0.5-1,0.8-1.9,0.8h-20.2c-1.9,0-3.2-0.4-4-1.2c-0.8-0.8-1.2-2.1-1.2-3.8v-9
			c0-1.8,0.4-3,1.2-3.8c0.8-0.8,2.1-1.2,4-1.2H138.8z"/>
		<path style="fill:#F794AD;" d="M30.6,20c0.2,0.1,0.3,0.2,0.4,0.3c0.1,0.1,0.1,0.2,0.2,0.4c0,0.1,0,0.2,0,0.4
			c0,0.1-0.1,0.2-0.1,0.3c-0.1,0.1-0.1,0.2-0.2,0.3c-0.1,0.1-0.2,0.1-0.3,0.2c-0.1,0-0.2,0.1-0.4,0c-0.1,0-0.3-0.1-0.4-0.2l-2.9-1.6
			c-0.2-0.1-0.3-0.2-0.4-0.3c-0.1-0.1-0.1-0.2-0.2-0.3c0-0.1,0-0.2,0-0.4c0-0.1,0.1-0.2,0.1-0.3c0.1-0.1,0.1-0.2,0.2-0.3
			c0.1-0.1,0.2-0.2,0.3-0.2c0.1,0,0.2-0.1,0.4,0c0.1,0,0.3,0.1,0.4,0.2L30.6,20z"/>
		<path style="fill:#F794AD;" d="M28.9,24.4c0.2,0,0.3-0.1,0.5,0c0.1,0,0.3,0.1,0.4,0.1c0.1,0.1,0.2,0.2,0.3,0.3
			c0.1,0.1,0.1,0.2,0.1,0.3c0,0.1,0,0.2,0,0.4c0,0.1,0,0.2-0.1,0.4c-0.1,0.1-0.1,0.2-0.2,0.3c-0.1,0.1-0.2,0.2-0.4,0.2l-3.2,0.9
			c-0.2,0-0.3,0.1-0.5,0c-0.1,0-0.3-0.1-0.4-0.1c-0.1-0.1-0.2-0.2-0.3-0.3c-0.1-0.1-0.1-0.2-0.2-0.3c0-0.1,0-0.2,0-0.4
			c0-0.1,0-0.2,0.1-0.4c0.1-0.1,0.1-0.2,0.2-0.3c0.1-0.1,0.2-0.2,0.4-0.2L28.9,24.4z"/>
		<path style="fill:#F794AD;" d="M34.3,17.1c0,0.2,0.1,0.3,0,0.5c0,0.1-0.1,0.3-0.1,0.4c-0.1,0.1-0.2,0.2-0.3,0.3
			c-0.1,0.1-0.2,0.1-0.3,0.1c-0.1,0-0.2,0-0.4,0c-0.1,0-0.2,0-0.4-0.1c-0.1-0.1-0.2-0.1-0.3-0.2c-0.1-0.1-0.2-0.2-0.2-0.4l-0.9-3.2
			c0-0.2-0.1-0.3,0-0.5c0-0.1,0.1-0.3,0.1-0.4c0.1-0.1,0.2-0.2,0.3-0.3c0.1-0.1,0.2-0.1,0.3-0.2c0.1,0,0.2,0,0.4,0
			c0.1,0,0.2,0,0.4,0.1c0.1,0.1,0.2,0.1,0.3,0.2c0.1,0.1,0.2,0.2,0.2,0.4L34.3,17.1z"/>
		<path style="fill:#F794AD;" d="M38.5,18.7c-3.7,0-6.6,3-6.6,6.6c0,3.7,3,6.6,6.6,6.6c3.7,0,6.6-3,6.6-6.6
			C45.1,21.7,42.2,18.7,38.5,18.7z M38.5,29.2c-2.1,0-3.8-1.7-3.8-3.8c0-2.1,1.7-3.8,3.8-3.8c2.1,0,3.8,1.7,3.8,3.8
			C42.3,27.5,40.6,29.2,38.5,29.2z"/>
		<path style="fill:#F794AD;" d="M41.2,24.8c-0.3-1.1-1.3-1.8-2.5-1.8c-0.6,0-1.2,0.2-1.7,0.6c0,0-0.4,0.3-0.1,0.8
			c0.3,0.3,0.7,0.1,0.7,0.1c0.3-0.3,0.7-0.4,1.1-0.4c0.7,0,1.2,0.4,1.4,1c0,0,0.2,0.4,0.6,0.3C41.2,25.2,41.2,24.8,41.2,24.8z"/>
		<path style="fill:#F794AD;" d="M78.5,39.2c-0.1-0.3-0.3-0.6-0.5-0.9c-0.2-0.3-0.5-0.5-0.9-0.6c-0.4-0.2-0.8-0.2-1.3-0.2H51
			c-0.5,0-0.9,0.1-1.3,0.2c-0.4,0.2-0.6,0.4-0.9,0.6c-0.2,0.3-0.4,0.6-0.5,0.9c-0.1,0.3-0.1,0.7-0.1,1c0,0.3,0.1,0.7,0.2,1
			c0.1,0.3,0.3,0.6,0.5,0.9c0.2,0.3,0.5,0.5,0.9,0.6c0.3,0.2,0.8,0.2,1.3,0.2h24.8c0.5,0,0.9-0.1,1.3-0.2c0.3-0.2,0.6-0.4,0.9-0.6
			c0.2-0.3,0.4-0.6,0.5-0.9c0.1-0.3,0.2-0.7,0.2-1C78.6,39.8,78.6,39.5,78.5,39.2z"/>
		<path style="fill:#F794AD;" d="M55.1,31.6c1.1-0.3,2.2-0.8,3.2-1.4c1-0.6,2-1.3,2.9-2.2c0.9-0.8,1.8-1.8,2.5-2.8
			c1,0,1.9,0.1,2.8,0.4c0.9,0.3,1.6,0.8,2.3,1.3c0.7,0.6,1.2,1.3,1.7,2.2c0.5,0.9,0.8,1.9,0.9,3H78c-0.2-2.1-0.6-3.9-1.3-5.4
			C75.9,25.2,75,24,73.9,23c-1.1-1-2.3-1.7-3.6-2.2c-1.3-0.5-2.7-0.8-4.1-0.8c0.3-1,0.4-2,0.5-3c0-1-0.2-1.8-0.8-2.4
			c-0.6-0.6-1.3-0.9-2.3-1c-0.9-0.1-1.7,0.1-2.4,0.6c-0.7,0.5-1.1,1.2-1.2,2.3c-0.2,1.4-0.5,2.6-1.1,3.7c-0.5,1.1-1.2,2.1-2,3
			c-0.8,0.9-1.6,1.7-2.7,2.1c-5.7,2.1-9.5-0.3-11.2,0.1c-0.2,0-0.4,0.1-0.5,0.2c0.1,0.3,0.1,0.5,0.1,0.8c0,1.2-0.7,2.3-1.8,2.7
			c0.2,0.5,0.5,1,0.9,1.3c0.6,0.4,1,0.5,2,0.8C44.7,31.5,50.3,32.8,55.1,31.6z"/>
		<path style="fill:#F794AD;" d="M41,26.5c0,0.3-0.3,0.6-0.6,0.6c-0.3,0-0.6-0.3-0.6-0.6c0-0.3,0.3-0.6,0.6-0.6
			C40.7,25.9,41,26.2,41,26.5z"/>
	</g>
</g>
<g>
</g>
<g>
</g>
<g>
</g>
<g>
</g>
<g>
</g>
<g>
</g>
<g>
</g>
<g>
</g>
<g>
</g>
<g>
</g>
<g>
</g>
<g>
</g>
<g>
</g>
<g>
</g>
<g>
</g>
</svg>
