<?xml version="1.0" encoding="utf-8"?>
<!-- Generator: Adobe Illustrator 23.0.0, SVG Export Plug-In . SVG Version: 6.00 Build 0)  -->
<svg version="1.1" id="레이어_1" xmlns="http://www.w3.org/2000/svg" xmlns:xlink="http://www.w3.org/1999/xlink" x="0px"
	 y="0px" width="245.3px" height="50.3px" viewBox="0 0 245.3 50.3" style="enable-background:new 0 0 245.3 50.3;"
	 xml:space="preserve">
<g id="Layer_14">
	<g>
		<path style="fill:#FF512A;" d="M220.5,50.1h-195c-13.8,0-25-11.2-25-25l0,0c0-13.8,11.2-25,25-25h195c13.8,0,25,11.2,25,25l0,0
			C245.5,38.9,234.3,50.1,220.5,50.1z"/>
		<g>
			<g>
				<g>
					<g>
						<path style="fill:#FFFFFF;" d="M34.8,17.8c-0.6-0.4-1.3-0.2-1.6,0.6l0.1,6.6c0.2,0.8,1,1.1,1.6,0.7l5.1-3.1
							c0.6-0.5,0.6-1.2,0-1.7L34.8,17.8z"/>
					</g>
				</g>
			</g>
			<g>
				<g>
					<g>
						<path style="fill:none;" d="M47.4,34H33c-0.3-1.3-1.4-2.2-2.8-2.2s-2.5,1-2.8,2.2h-1.1c-0.4,0-0.8,0.3-0.8,0.7
							s0.3,0.7,0.8,0.7h1.1c0.3,1.2,1.4,2.2,2.8,2.2c1.3,0,2.5-0.9,2.8-2.2h14.5c0.4,0,0.8-0.3,0.8-0.7C48.2,34.3,47.8,34,47.4,34z"
							/>
						<g>
							<path style="fill:#FFFFFF;" d="M48.1,10.2H25.5c-1.8,0-3.2,1.4-3.2,3.2v17.5c0,0.1,0,0.2,0,0.3v5.7c0,1.8,1.4,3.2,3.2,3.2
								h22.6c1.8,0,3.2-1.4,3.2-3.2V13.4C51.3,11.6,49.9,10.2,48.1,10.2z M26.4,14h20.9v15.5H26.4V14z M47.4,35.4H33
								c-0.3,1.2-1.4,2.2-2.8,2.2c-1.3,0-2.5-0.9-2.8-2.2h-1.1c-0.4,0-0.8-0.3-0.8-0.7s0.3-0.7,0.8-0.7h1.1c0.3-1.3,1.4-2.2,2.8-2.2
								s2.5,1,2.8,2.2h14.4c0.4,0,0.8,0.3,0.8,0.7C48.2,35.1,47.8,35.4,47.4,35.4z"/>
						</g>
					</g>
				</g>
				<g>
					<path style="fill:#FFFFFF;" d="M30.2,33.6c-0.6,0-1.1,0.5-1.1,1.1s0.5,1.1,1.1,1.1s1.1-0.5,1.1-1.1
						C31.2,34.1,30.8,33.6,30.2,33.6z"/>
				</g>
			</g>
		</g>
	</g>
</g>
</svg>
