<?xml version="1.0" encoding="utf-8"?>
<!-- Generator: Adobe Illustrator 25.4.1, SVG Export Plug-In . SVG Version: 6.00 Build 0)  -->
<svg version="1.1" id="레이어_1" xmlns="http://www.w3.org/2000/svg" xmlns:xlink="http://www.w3.org/1999/xlink" x="0px"
	 y="0px" viewBox="0 0 12.1 57.3" style="enable-background:new 0 0 12.1 57.3;" xml:space="preserve">
<style type="text/css">
	.st0{fill:#0080FF;}
</style>
<path class="st0" d="M1.6,0C0.9,0,0.3,0.5,0.2,1.1c0,0-0.1,0.1-0.1,0.2C0,1.7,0,2.1,0.3,2.6c2.4,3.7,4.1,7.6,5.2,11.7
	c1.1,4.2,1.6,8.6,1.6,13.4v1.9c0,4.7-0.5,9.2-1.6,13.4s-2.9,8.1-5.2,11.8C0,55.2-0.1,55.6,0.1,56c0.1,0.4,0.4,0.7,0.8,1
	c0.9,0.5,1.8,0.3,2.5-0.6c2.8-3.5,5.1-7.6,6.5-12.3s2.2-9.6,2.2-14.9V28c0-5.3-0.8-10.2-2.2-14.9C8.7,9.4,7.1,6,5,3"/>
</svg>
