<?xml version="1.0" encoding="utf-8"?>
<!-- Generator: Adobe Illustrator 25.2.0, SVG Export Plug-In . SVG Version: 6.00 Build 0)  -->
<svg version="1.1" id="레이어_1" xmlns="http://www.w3.org/2000/svg" xmlns:xlink="http://www.w3.org/1999/xlink" x="0px"
	 y="0px" viewBox="0 0 10.9 57" style="enable-background:new 0 0 10.9 57;" xml:space="preserve">
<g>
	<path style="fill:#222222;" d="M10.9,28.4c0,2.8-0.2,5.4-0.5,7.7C10,38.4,9.6,40.5,9,42.3c-0.6,1.9-1.2,3.5-1.9,5
		c-0.7,1.5-1.4,2.8-2.1,3.9c-0.7,1.2-1.4,2.2-2.1,3.1c-0.7,0.9-1.3,1.7-1.8,2.4C1.1,56.9,0.9,57,0.7,57c-0.2,0-0.4,0-0.5-0.1
		C0.1,56.8,0,56.7,0,56.4c0-0.2,0.1-0.5,0.3-0.8c0.4-0.6,0.9-1.4,1.5-2.2s1.1-1.7,1.7-2.8s1.2-2.3,1.8-3.7c0.6-1.4,1.1-2.9,1.5-4.7
		c0.4-1.8,0.8-3.8,1.1-6c0.3-2.2,0.4-4.7,0.4-7.4c0-2.8-0.1-5.3-0.4-7.5c-0.3-2.3-0.6-4.3-1.1-6.1c-0.4-1.8-1-3.5-1.5-4.9
		C4.7,8.9,4.1,7.6,3.5,6.5C2.9,5.4,2.3,4.4,1.8,3.6C1.2,2.7,0.7,2,0.3,1.3C0.1,1,0,0.8,0,0.6c0-0.2,0.1-0.4,0.2-0.5
		C0.3,0,0.5,0,0.7,0c0.2,0,0.3,0.1,0.5,0.3C1.7,1,2.3,1.8,2.9,2.7c0.7,0.9,1.4,1.8,2.1,3S6.5,8,7.2,9.4c0.7,1.4,1.3,3.1,1.9,4.9
		c0.6,1.9,1,3.9,1.3,6.2C10.7,22.9,10.9,25.5,10.9,28.4z"/>
</g>
</svg>
