<?xml version="1.0" encoding="utf-8"?>
<!-- Generator: Adobe Illustrator 25.2.0, SVG Export Plug-In . SVG Version: 6.00 Build 0)  -->
<svg version="1.1" id="레이어_1" xmlns="http://www.w3.org/2000/svg" xmlns:xlink="http://www.w3.org/1999/xlink" x="0px"
	 y="0px" viewBox="0 0 844.9 430.4" style="enable-background:new 0 0 844.9 430.4;" xml:space="preserve">
<g>
	<g>
		<path style="fill:none;stroke:#D4CFBC;stroke-width:3.6065;stroke-miterlimit:10;" d="M823.1,428.6H21.8c-11,0-20-9-20-20V21.8
			c0-11,9-20,20-20h801.3c11,0,20,9,20,20v386.8C843.1,419.7,834.2,428.6,823.1,428.6z"/>
		<g>
			<g>
				<line style="fill:none;stroke:#D4CFBC;stroke-width:3.6065;stroke-miterlimit:10;" x1="421.8" y1="4.4" x2="421.8" y2="9"/>
				
					<line style="fill:none;stroke:#D4CFBC;stroke-width:3.6065;stroke-miterlimit:10;stroke-dasharray:9.2122,9.2122;" x1="421.8" y1="18.2" x2="421.8" y2="418.9"/>
				<line style="fill:none;stroke:#D4CFBC;stroke-width:3.6065;stroke-miterlimit:10;" x1="421.8" y1="423.5" x2="421.8" y2="428"/>
			</g>
		</g>
	</g>
</g>
<g>
	<linearGradient id="SVGID_1_" gradientUnits="userSpaceOnUse" x1="725.725" y1="124.4137" x2="471.415" y2="371.9495">
		<stop  offset="0.1893" style="stop-color:#808080"/>
		<stop  offset="0.3602" style="stop-color:#767676"/>
		<stop  offset="1" style="stop-color:#525252"/>
	</linearGradient>
	<path style="fill:url(#SVGID_1_);" d="M678.4,209.7l76.3-76.3c11.1-11.1,11.1-29.2,0-40.3c-11.1-11.1-29.2-11.1-40.3,0l-76.3,76.3
		l-76.3-76.3c-11.1-11.1-29.2-11.1-40.3,0c-11.1,11.1-11.1,29.2,0,40.3l76.3,76.3L521.5,286c-11.1,11.1-11.1,29.2,0,40.3
		c5.6,5.6,12.9,8.4,20.2,8.4c7.3,0,14.6-2.8,20.2-8.4l76.3-76.3l76.3,76.3c5.6,5.6,12.9,8.4,20.2,8.4c7.3,0,14.6-2.8,20.2-8.4
		c11.1-11.1,11.1-29.2,0-40.3L678.4,209.7z"/>
	
		<line style="fill:none;stroke:#FFFFFF;stroke-width:8;stroke-linecap:round;stroke-miterlimit:10;" x1="745.5" y1="124.2" x2="721.8" y2="147.9"/>
	<circle style="fill:#FFFFFF;" cx="711.8" cy="157.8" r="5"/>
</g>
<g>
	<linearGradient id="SVGID_2_" gradientUnits="userSpaceOnUse" x1="83.338" y1="380.1164" x2="236.6821" y2="178.2427">
		<stop  offset="7.604335e-02" style="stop-color:#6E6E6E"/>
		<stop  offset="0.9809" style="stop-color:#898989"/>
	</linearGradient>
	<path style="fill:url(#SVGID_2_);" d="M211.3,338.5c-69.9,0-126.8-56.9-126.8-126.8S141.3,84.9,211.3,84.9s126.8,56.9,126.8,126.8
		S281.2,338.5,211.3,338.5z M211.3,136.5c-41.5,0-75.2,33.7-75.2,75.2s33.7,75.2,75.2,75.2s75.2-33.7,75.2-75.2
		S252.7,136.5,211.3,136.5z"/>
	<path style="fill:none;stroke:#FFFFFF;stroke-width:8;stroke-linecap:round;stroke-miterlimit:10;" d="M286,128
		c11.8,10.6,19.4,21.3,25.8,34.8"/>
	<circle style="fill:#FFFFFF;" cx="317.4" cy="174.8" r="4.5"/>
</g>
</svg>
