<?xml version="1.0" encoding="utf-8"?>
<!-- Generator: Adobe Illustrator 25.2.0, SVG Export Plug-In . SVG Version: 6.00 Build 0)  -->
<svg version="1.1" id="레이어_1" xmlns="http://www.w3.org/2000/svg" xmlns:xlink="http://www.w3.org/1999/xlink" x="0px"
	 y="0px" viewBox="0 0 1600 900" style="enable-background:new 0 0 1600 900;" xml:space="preserve">
<g id="bg">
	<rect style="fill:#D3ECF9;" width="1600" height="900"/>
</g>
<g id="Layer_1">
	<path style="fill:#F0C060;" d="M1234.5,151.5v-6.3c-0.1-10.4-8.6-18.8-19-18.7c-10.3,0.1-18.7,8.4-18.7,18.7v6.3H1234.5z"/>
	<path style="fill:#FFDF80;" d="M1237.5,154.5h-43.8v-9.3c-0.1-12.1,9.6-21.9,21.7-22s21.9,9.6,22,21.7c0,0.1,0,0.2,0,0.3
		L1237.5,154.5z M1199.8,148.5h31.8v-3.3c0.1-8.8-7-15.9-15.8-16c-8.8-0.1-15.9,7-16,15.8c0,0.1,0,0.2,0,0.3V148.5z"/>
	<path style="fill:#49AAF1;" d="M815.4,209.1c-8.9,0-17.1-4.5-21.9-12h-23.8c-3.4,0-6.9-0.5-10.2-1.5c-4.6,8.3-13.3,13.5-22.8,13.5
		h-56.2c-3.9,0-7.8-0.4-11.6-1.2c-2.6,0.8-5.3,1.2-8,1.2h-16c-10,0-19.1-5.8-23.5-14.8h-20.2c-8.7,0.1-17.1-3.2-23.3-9.2
		c-6.2-6.1-9.7-14.4-9.6-23.1c0-3.4,0.5-6.8,1.5-10.1c-2-4.9-3-10.1-3.1-15.4c-2.9-4.9-4.4-10.5-4.4-16.2c0-7.3,2.5-14.4,7.1-20.1
		c5.6-7,13.9-11.3,22.9-11.7c12.2-9.2,28.8-9.7,41.5-1.2c12.8-7.9,29.2-6.7,40.7,3c0.8,0.7,1.6,1.4,2.3,2.2c2.3-2.6,5.1-4.8,8.1-6.5
		c5.3-3,11.3-4.6,17.4-4.6c1.5,0,3,0.1,4.5,0.3c7.6,0.9,14.6,4.2,20.1,9.5c0.4,0.4,0.8,0.9,1.2,1.3c4.9,1.4,9.5,3.5,13.7,6.2
		c0.2,0.1,0.4,0.2,0.6,0.4c4.5-7.2,11.6-12.4,19.9-14.4c4-0.9,8.1-1.4,12.2-1.3h45.5c4.1-0.1,8.2,0.4,12.1,1.3
		c1.4,0.4,2.8,0.8,4.2,1.3c2.9-0.8,5.9-1.2,8.9-1.2h55.8c4.9,0,9.7,1,14.2,3.1c8.3,3.8,14.5,11,17.1,19.8c1.9,6.4,1.9,13.3,0,19.7
		c-0.4,1.4-0.9,2.8-1.5,4.1c4.6,8.6,5.2,18.7,1.7,27.8c6.5,11.7,5.2,26.1-3.1,36.6c-6,7.6-15.1,11.8-25.5,11.8h-61.4
		c-0.7,0-1.4,0-2.1-0.1c-2.9,1.1-6,1.7-9.1,1.7L815.4,209.1z"/>
	<path style="fill:#49AAF1;" d="M965.8,214.6c-4.2,0-8.3-0.3-12.4-0.9c-0.6-0.1-1.5-0.2-1.6-0.2c-10.6-1.3-20.9-4.6-30.3-9.8
		c-0.9-0.5-2-1.1-3-1.7c-0.3-0.2-0.6-0.3-0.8-0.5c-1.5-0.9-3-1.9-4.4-3c-3.3-2.5-6.3-5.4-8.9-8.7c-0.3-0.4-0.6-0.8-0.9-1.2
		c-0.3-0.3-0.5-0.7-0.7-1c-0.2-0.3-0.4-0.5-0.5-0.8c-0.5-0.7-0.9-1.4-1.4-2.2c-0.2-0.4-0.4-0.7-0.5-1c-0.6-1.1-1.1-2.2-1.6-3.3
		c-0.1-0.3-0.3-0.6-0.4-0.9c-0.4-0.9-0.7-1.7-1-2.6c-0.1-0.3-0.2-0.6-0.3-1l-0.1-0.2c-0.2-0.8-0.5-1.6-0.7-2.4
		c-0.1-0.5-0.2-0.9-0.3-1.2c-0.2-0.9-0.4-1.7-0.5-2.6c0-0.3-0.1-0.5-0.1-0.8c-0.2-1.2-0.3-2.3-0.4-3.5c0-0.3,0-0.6-0.1-1
		c0-0.9-0.1-1.7-0.1-2.5c0,0,0-0.8,0-1.1c0-0.9,0.1-1.7,0.1-2.5c0-0.3,0-0.7,0.1-1.1c0.1-1,0.2-2.1,0.4-3.2c0-0.2,0.1-0.5,0.1-0.7
		c0.1-0.8,0.3-1.8,0.5-2.7c0,0,0.2-0.8,0.2-0.8c0.2-0.9,0.4-1.8,0.6-2.6c0,0,0.2-0.7,0.2-0.8c0.2-0.8,0.5-1.6,0.7-2.4
		c0-0.1,0-0.4,0-0.7c0-0.1,0-0.4,0-0.4c0-1.1,0.1-2.3,0.2-3.5c0-0.4,0.1-0.8,0.1-1.2l0-0.3c0.1-0.6,0.1-1.2,0.2-1.7c0,0,0-0.4,0-0.4
		c0-0.4,0.1-0.7,0.2-1.1c0.8-5.9,2.4-11.7,4.7-17.3c0.9-2.2,2-4.4,3.2-6.5c-0.3-5.7,0.5-11.4,2.5-16.8c0.2-0.4,0.3-0.9,0.5-1.3
		c5.4-12.6,16.3-20.2,29.3-20.2c3.6,0,7.1,0.6,10.5,1.8c2.3,0.8,4.6,1.8,6.7,3.1c0,0,0.5,0.3,0.6,0.4c0.8,0.5,1.6,1,2.3,1.6
		c2.3-0.2,4.6-0.3,6.8-0.4h1.2c2.1,0,4.3,0.1,6.4,0.3c0.7-0.5,1.5-1,2.2-1.5c0,0,0.5-0.3,0.6-0.4c2.1-1.3,4.4-2.3,6.8-3.1
		c3.3-1.1,6.9-1.7,10.4-1.7c12.8,0,24,7.7,29.3,20.1c0,0,0,0.1,0,0.1c0.2,0.4,0.3,0.8,0.5,1.2c1.8,5,2.7,10.3,2.5,15.7
		c0.8,1.3,1.5,2.6,2.2,4c4.2,8.8,6.6,18.3,6.9,28.1c0,0.3,0,0.6,0.1,0.8c0,0.1,0,0.5,0,0.5c0,0.3,0,0.5,0.1,0.8
		c0.2,0.7,0.5,1.5,0.7,2.3c0.1,0.3,0.2,0.8,0.3,1.2l0,0.1c0.1,0.5,0.3,1.1,0.4,1.7s0.2,1.1,0.3,1.6l0,0.1c0.1,0.5,0.2,0.9,0.2,1.3
		c0.4,2.3,0.7,4.6,0.8,6.9c0,0.3,0,0.7,0,1v0.1c0,0.7,0,1.4,0,2.1c0,0.3,0,0.7,0,1c0,0,0,0.2,0,0.3c0,0.8-0.1,1.4-0.1,2.1
		c0,0,0,0.1,0,0.1c0,0.4-0.1,0.8-0.1,1.1c-0.1,1.2-0.3,2.4-0.5,3.5c-0.1,0.6-0.2,1.2-0.4,1.8c-0.1,0.6-0.3,1.1-0.4,1.6
		c-0.2,0.6-0.4,1.3-0.6,2c-0.2,0.5-0.3,0.9-0.4,1.2c0,0,0,0.1,0,0.1c-0.4,1-0.7,2-1.1,2.9c-0.1,0.2-0.1,0.3-0.2,0.4
		c-0.5,1.2-1.1,2.3-1.7,3.5c-0.1,0.2-0.3,0.5-0.3,0.6c-0.6,1-1.1,1.9-1.7,2.8c0,0-0.2,0.3-0.2,0.3c-0.3,0.4-0.5,0.8-0.8,1.2
		c-0.3,0.5-0.7,0.9-1.1,1.4c-2.6,3.2-5.5,6.2-8.9,8.7c-1.5,1.1-3,2.2-4.6,3.1c-1.2,0.7-2.4,1.4-3.6,2.1c-5.4,3-11,5.3-16.9,7
		c-4.3,1.2-8.7,2.1-13.2,2.7l-1.6,0.2c-4.1,0.6-8.2,0.8-12.3,0.9L965.8,214.6L965.8,214.6z"/>
	<path style="fill:#49AAF1;" d="M231.9,148.5h1140c33.1,0,60,26.9,60,60v480c0,33.1-26.9,60-60,60h-1140c-33.1,0-60-26.9-60-60v-480
		C171.9,175.4,198.8,148.5,231.9,148.5z"/>
	<path style="fill:#FFFFFF;" d="M231.9,164.5h1140c24.3,0,44,19.7,44,44v480c0,24.3-19.7,44-44,44h-1140c-24.3,0-44-19.7-44-44v-480
		C187.9,184.2,207.6,164.5,231.9,164.5z"/>
	<path style="fill:#FFDF80;" d="M1215.6,126.4L1215.6,126.4c10.4,0,18.9,8.5,18.9,18.9v108.5c0,4.6,3.8,8.4,8.4,8.4
		c2.3,0,4.4-0.9,6-2.5l36-36.6l36,36.6c3.2,3.3,8.6,3.4,11.9,0.1c1.6-1.6,2.5-3.7,2.5-6V143.2c0-9.3-7.5-16.8-16.8-16.8c0,0,0,0,0,0
		H1215.6"/>
	<path style="fill:#FFDF80;" d="M1243,265.1c-1.5,0-3-0.3-4.4-0.9c-4.3-1.7-7.1-5.9-7.1-10.5V145.2c0-8.8-7.1-15.9-15.9-15.9v-6
		h102.8c10.9,0,19.8,8.9,19.8,19.8v110.6c0,6.3-5.1,11.4-11.4,11.4c-3.1,0-6-1.2-8.1-3.4l-33.8-34.5l-33.8,34.5
		C1248.9,263.9,1246,265.1,1243,265.1z M1230.7,129.4c4.4,4.1,6.8,9.9,6.8,15.9v108.5c0,3,2.4,5.4,5.4,5.4c1.4,0,2.8-0.6,3.8-1.6
		l38.1-38.8l38.1,38.8c2.1,2.1,5.5,2.2,7.6,0.1c1-1,1.6-2.4,1.6-3.9V143.2c0-7.6-6.2-13.8-13.8-13.8H1230.7z"/>
	<path style="fill:#FFFFFF;" d="M917.2,164.7c-1.3-1.7-3-3.2-5-4.1c1.1-0.8,2.1-1.7,3-2.8c2.4-3,3.7-6.8,3.7-10.7
		c0-3.8-1.3-7.5-3.6-10.5c-1.5-2-3.5-3.6-5.8-4.6c1.7-0.9,3.2-2.1,4.4-3.5c1.5-1.7,2.6-3.7,3.3-5.9c1-3.4,1-7.1,0-10.5
		c-0.6-2.1-1.7-4-3.1-5.7c-1.5-1.8-3.4-3.2-5.5-4.2c-2.3-1.1-4.8-1.6-7.4-1.5h-55.8c-2.5,0-5,0.5-7.4,1.5c-0.9,0.4-1.7,0.9-2.5,1.5
		c-2.1-1.8-4.5-3-7.2-3.7c-2.7-0.6-5.5-0.9-8.3-0.9h-45.5c-2.8-0.1-5.6,0.2-8.3,0.9c-3.3,0.8-6.3,2.5-8.5,5c-2.1,2.4-3.5,5.3-4,8.5
		c-0.4,2.5-0.6,5.1-0.6,7.6v4.6c0,2.6,0.2,5.2,0.6,7.7c0.2,1.2,0.5,2.3,1,3.5c-0.4,0.4-0.8,0.8-1.1,1.2c-1.6,1.9-2.7,4.2-3.3,6.6
		c-0.1-2.7-0.8-5.3-2.1-7.6c0-0.8,0-1.5-0.2-2.2c-0.9-4.8-2.7-9.5-5.4-13.6c-2.5-3.7-5.7-6.9-9.4-9.3c-3.6-2.3-7.5-3.9-11.6-4.8
		c-1-0.2-1.9-0.4-2.9-0.5c-0.7-1.5-1.8-3-3-4.2c-3-2.8-6.8-4.6-10.9-5c-0.8-0.1-1.7-0.2-2.5-0.2c-3.3,0-6.6,0.8-9.6,2.5
		c-4.1,2.4-7.1,6.4-8.3,11c-0.7,0.6-1.4,1.2-2.3,1.6c-1.1,0.6-2.3,1-3.5,1.2c-1.1,0.3-2.1,0.4-3.2,0.4c0,0-0.5,0-0.6,0
		c-1.7,0-3.3,0.2-4.9,0.6c-0.2-4.7-2.3-9.1-5.9-12.2c-6.9-5.9-17.1-5.9-24,0c-0.9,0.8-1.7,1.6-2.4,2.5c-1.4-0.3-2.8-0.5-4.2-0.5
		h-4.7c-0.7-1-1.6-1.9-2.5-2.8c-7.2-5.9-17.5-5.9-24.7-0.1c-1,0.8-1.8,1.8-2.6,2.9h-4.7c-4.8-0.1-9.3,2-12.3,5.7
		c-2.3,2.9-3.6,6.5-3.6,10.2c0,3.8,1.4,7.5,3.9,10.4c0.2,0.2,0.3,0.4,0.5,0.6v4.6c-0.1,4.3,0.9,8.5,2.9,12.3
		c0.7,1.2,1.4,2.4,2.2,3.4c-5.3,6.6-4.8,16.1,1.2,22.2c3.3,3.1,7.6,4.8,12.2,4.6h33.7v4.8c0,5.5,4.5,10,10,10h16c2.5,0,5-1,6.8-2.7
		c1.4,0.8,2.8,1.4,4.3,1.8c2.8,0.7,5.6,1,8.4,0.9h56.2c5.5,0,10-4.5,10-10v-23c0-1.4-0.2-2.8-0.5-4.2c0.1-0.1,0.2-0.3,0.4-0.4
		c1.6-1.9,2.7-4.1,3.2-6.5c0.1,3.7,1.4,7.3,3.7,10.2c0.1,0.1,0.2,0.2,0.3,0.3c-0.6,1.8-0.9,3.6-0.9,5.5c-0.1,4.3,1.6,8.5,4.7,11.5
		c3.2,3.1,7.5,4.7,12,4.5h35.7v2c0,5.5,4.5,10,10,10h16c2.3,0,4.5-0.8,6.3-2.2c1.6,0.4,3.3,0.6,4.9,0.6h61.4c7,0,10.9-3.1,13-5.7
		c2.4-3,3.7-6.8,3.7-10.7C920.8,171.3,919.5,167.7,917.2,164.7z"/>
	<path style="fill:#3C3B3B;" d="M613.9,152.6c-2.7,0-5.4-0.3-8.1-1c-2.4-0.6-4.7-1.6-6.7-3c-1.9-1.4-3.5-3.1-4.6-5.2
		c-1.2-2.3-1.8-4.9-1.7-7.5v-4.6c0-1.9,0.5-3.7,1.5-5.3c-1.7,0.1-3.3-0.5-4.4-1.7c-1-1.1-1.5-2.4-1.5-3.9c0-1.5,0.5-2.9,1.5-4
		c1.1-1.3,2.7-2,4.4-1.9h11.6c-0.1-2,0.8-4,2.2-5.3c1.6-1.3,3.7-2,5.8-1.9c2.1-0.1,4.1,0.6,5.8,1.9c1.5,1.4,2.3,3.3,2.3,5.3h11.5
		c1.7-0.1,3.4,0.6,4.4,1.9c0.9,1.2,1.4,2.6,1.4,4c0,1.4-0.5,2.8-1.4,3.9c-1.1,1.2-2.7,1.9-4.4,1.7h-0.1c1,1.6,1.5,3.4,1.5,5.3v4.6
		c0.1,2.6-0.5,5.2-1.7,7.5c-1.1,2.1-2.7,3.8-4.6,5.2c-2,1.4-4.3,2.4-6.7,3C619.3,152.2,616.6,152.6,613.9,152.6z M601.3,168.3
		c-1.9,0.1-3.7-0.5-5.2-1.8c-2.4-2.6-2.4-6.6,0-9.1c1.4-1.3,3.3-1.9,5.2-1.8h47.8c2,0,4.1,0.1,6.1,0.6c1.4,0.3,2.6,1,3.6,2
		c0.9,1.1,1.5,2.4,1.7,3.8c0.3,2,0.5,4,0.4,6v15.1h-16v-12.9c0.1-0.9-0.5-1.8-1.4-1.9c-0.2,0-0.3,0-0.5,0H601.3z M613.9,141.2
		c1.6,0,3.2-0.5,4.5-1.5c1.4-1,2.1-2.7,2-4.4v-4.2c0.1-1.7-0.7-3.3-2-4.4c-2.7-2-6.3-2-9,0c-1.4,1-2.1,2.7-2,4.4v4.2
		c-0.1,1.7,0.7,3.3,2,4.4C610.7,140.7,612.3,141.2,613.9,141.2z M644.2,115.9c-0.2-2.2,0.7-4.4,2.4-5.9c3.2-2.7,7.9-2.7,11.1,0
		c1.7,1.5,2.5,3.7,2.4,5.9v7.2h2.5c1.1,0,2.1,0.2,3,0.6c0.8,0.4,1.4,0.9,1.9,1.6c0.5,0.7,0.8,1.4,1,2.2c0.4,1.6,0.4,3.3,0,4.9
		c-0.2,0.8-0.6,1.6-1,2.2c-0.5,0.7-1.2,1.2-2,1.6c-0.9,0.4-2,0.6-3,0.6h-2.5v16h-15.8L644.2,115.9z"/>
	<path style="fill:#3C3B3B;" d="M734.1,139.3c2.3,0,3.9,0.6,4.8,1.8c0.9,1.1,1.4,2.6,1.4,4c0,1.5-0.5,2.9-1.4,4.1
		c-1,1.2-2.6,1.8-4.8,1.8h-62.4c-2.2,0-3.8-0.6-4.8-1.8c-0.9-1.1-1.5-2.6-1.4-4.1c0-1.5,0.5-2.9,1.4-4c0.9-1.2,2.5-1.8,4.8-1.8
		H734.1z M710.5,115.4c0,0.1,0,0.3,0,0.4c0,0.1,0,0.2,0,0.4c3.1-0.2,6.2,0.1,9.2,0.8c3,0.6,5.8,1.8,8.4,3.4c2.6,1.7,4.8,3.9,6.5,6.5
		c1.9,3,3.2,6.4,3.8,9.9h-16.2c-0.6-1.7-1.6-3.3-2.8-4.6c-1.2-1.3-2.7-2.3-4.3-3c-1.7-0.7-3.5-1.2-5.4-1.3c-2-0.2-4.1,0-6.1,0.3
		c-1.8,1.6-3.9,3-6,4.1c-2.3,1.2-4.7,2.1-7.2,2.9c-2.5,0.8-5.1,1.3-7.8,1.6c-2.6,0.3-5.3,0.4-7.9,0.2c-2,0-3.9-0.7-5.3-2.1
		c-1.1-1.1-1.7-2.7-1.6-4.3c0-0.8,0.2-1.6,0.5-2.4c0.3-0.8,0.8-1.5,1.4-2.1c0.6-0.6,1.4-1.1,2.3-1.4c1-0.4,2.1-0.5,3.2-0.5
		c2,0,4.1-0.2,6-0.6c2-0.5,4-1.1,5.8-2.1c1.7-0.9,3.3-2,4.7-3.3c1.3-1.2,2.2-2.7,2.6-4.3c0.4-2.2,1.8-4.1,3.6-5.2
		c1.8-1,3.9-1.4,6-1.1c1.9,0.2,3.7,0.9,5.1,2.2C710.1,110.8,710.6,112.7,710.5,115.4z M677.3,153.3c1.7,0,3.4,0.4,4.9,1.3
		c1.5,0.9,2.6,2.4,2.9,4.1h35.8c0.2-1.8,1.2-3.3,2.8-4.2c1.6-0.8,3.3-1.2,5.1-1.2c1,0,2,0.1,3,0.4c0.9,0.2,1.8,0.6,2.6,1.2
		c0.8,0.5,1.4,1.3,1.8,2.1c0.5,1,0.7,2.1,0.7,3.2v23h-56.2c-2,0-3.9-0.2-5.8-0.6c-1.3-0.3-2.5-1-3.5-2c-0.9-1.1-1.5-2.4-1.7-3.7
		c-0.3-1.9-0.5-3.9-0.4-5.8v-10.8c0-1.1,0.2-2.2,0.7-3.2c0.4-0.8,1-1.6,1.8-2.1c0.8-0.5,1.7-0.9,2.6-1.2
		C675.2,153.4,676.2,153.3,677.3,153.3L677.3,153.3z M720.7,172.7v-4.2h-35.5v1.8c0,0.7,0.1,1.3,0.5,1.8c0.5,0.5,1.2,0.7,2,0.6
		L720.7,172.7z"/>
	<path style="fill:#3C3B3B;" d="M789,142.5v-4.7h-14.4c-2,0-3.9-0.2-5.8-0.6c-1.3-0.3-2.5-1-3.5-2c-0.9-1-1.5-2.3-1.7-3.7
		c-0.3-1.9-0.5-3.9-0.4-5.8v-4.6c0-1.9,0.1-3.9,0.4-5.8c0.2-1.4,0.8-2.7,1.7-3.7c0.9-1,2.1-1.7,3.5-2c1.9-0.4,3.9-0.6,5.8-0.6h45.5
		c2,0,3.9,0.1,5.8,0.6c1.3,0.3,2.5,1,3.5,2c0.9,1.1,1.5,2.4,1.7,3.7c0.3,1.9,0.5,3.8,0.4,5.8v16.6h-26.2v4.7h22.8
		c2.4,0,4.1,0.6,5.1,1.9c2,2.5,2,6.1,0,8.6c-1,1.3-2.7,1.9-5.1,1.9h-61.6c-2.4,0-4.1-0.6-5.1-1.9c-2-2.5-2-6.1,0-8.6
		c1-1.3,2.7-1.9,5.1-1.9H789z M769.7,171.1c-1.8,0.1-3.6-0.5-5-1.7c-1.2-1.2-1.8-2.8-1.7-4.4c-0.1-1.6,0.5-3.2,1.7-4.3
		c1.4-1.2,3.2-1.7,5-1.6H820c2,0,3.9,0.2,5.8,0.6c1.3,0.3,2.5,1,3.5,2c0.9,1.1,1.5,2.3,1.7,3.7c0.3,1.9,0.5,3.9,0.4,5.8v11.9h-16
		v-10.2c0.1-0.9-0.5-1.6-1.3-1.8c-0.1,0-0.3,0-0.4,0L769.7,171.1z M779.2,124.2c0,0.6,0.1,1.2,0.4,1.7c0.2,0.3,0.8,0.5,1.6,0.5h34.6
		v-3.9c0-0.6-0.1-1.1-0.4-1.6c-0.4-0.4-1-0.6-1.6-0.5h-32.6c-0.8,0-1.3,0.2-1.6,0.5c-0.3,0.5-0.4,1.1-0.4,1.6L779.2,124.2z"/>
	<path style="fill:#3C3B3B;" d="M849.8,168.7v-5c0-2.9,0.7-5,2.2-6.2c1.7-1.3,3.8-2,5.9-1.9c2.1-0.1,4.2,0.6,5.8,2
		c1.5,1.3,2.2,3.4,2.2,6.2v5h14.7v-5c0-2.9,0.7-5,2.2-6.2c1.7-1.3,3.8-2,5.9-1.9c2.1-0.1,4.2,0.6,5.8,2c1.5,1.3,2.2,3.4,2.2,6.2v5
		h7.2c2.5,0,4.2,0.7,5.2,2c1,1.3,1.5,2.8,1.5,4.4c0,1.6-0.5,3.2-1.6,4.4c-1,1.3-2.8,2-5.2,2h-61.4c-2.4,0-4.1-0.7-5.2-2
		c-1-1.3-1.6-2.8-1.6-4.4c0-1.6,0.5-3.1,1.5-4.4c1-1.3,2.7-2,5.2-2H849.8z M850,140.6v-5.5c0-2.9,0.7-5,2.2-6.2
		c1.7-1.3,3.8-2,5.9-1.9c2.1-0.1,4.2,0.6,5.8,2c1.5,1.3,2.2,3.4,2.2,6.2v5.5h14.4v-5.5c0-2.9,0.7-5,2.2-6.2c1.7-1.3,3.8-2,5.9-1.9
		c2.1-0.1,4.2,0.6,5.8,2c1.5,1.3,2.2,3.4,2.2,6.2v5.5h5.5c2.5,0,4.2,0.7,5.2,2c1,1.3,1.5,2.8,1.5,4.4c0,1.6-0.5,3.2-1.6,4.4
		c-1,1.3-2.8,2-5.2,2h-57.8c-2.4,0-4.1-0.7-5.2-2c-1-1.3-1.6-2.8-1.6-4.4c0-1.6,0.5-3.1,1.5-4.4c1-1.3,2.7-2,5.2-2H850z
		 M901.3,110.6c1.1,0,2.1,0.2,3.1,0.6c0.8,0.4,1.5,0.9,2.1,1.6c0.5,0.6,0.9,1.4,1.2,2.2c0.5,1.6,0.5,3.2,0,4.8
		c-0.2,0.8-0.6,1.5-1.2,2.2c-0.6,0.7-1.3,1.2-2.1,1.6c-1,0.4-2,0.6-3,0.6h-55.8c-1.1,0-2.1-0.2-3.1-0.6c-0.8-0.4-1.5-0.9-2.1-1.6
		c-0.6-0.6-1-1.4-1.2-2.2c-0.5-1.6-0.5-3.2,0-4.8c0.2-0.8,0.6-1.5,1.2-2.2c0.6-0.7,1.3-1.2,2.1-1.6c1-0.4,2-0.6,3.1-0.6H901.3z"/>
	<path style="fill:#FFFFFF;" d="M1021.6,160.5c0-0.3,0-0.5,0-0.7c-0.1-1.6-0.3-3.3-0.6-4.9c-0.1-0.3-0.1-0.6-0.2-1
		c-0.1-0.4-0.2-0.8-0.2-1.2c-0.1-0.4-0.2-0.9-0.3-1.3l0-0.1c-0.1-0.3-0.2-0.6-0.2-0.9c-0.2-0.7-0.4-1.5-0.7-2.2
		c-0.1-0.3-0.2-0.7-0.3-1.1c-0.2-1.2-0.4-2.4-0.4-3.5c0,0,0-0.1,0-0.1c0-0.2,0-0.4,0-0.6c-0.3-7.6-2.1-15.1-5.3-22
		c-1.2-2.5-2.7-4.8-4.3-7c1-4.8,0.6-9.7-1-14.3c-0.1-0.2-0.1-0.3-0.2-0.5c-2.8-6.5-8.2-10.4-14.5-10.4c-1.8,0-3.6,0.3-5.4,0.9
		c-1.3,0.4-2.5,1-3.7,1.7c-0.1,0-0.2,0.1-0.2,0.2c-2.1,1.3-4.1,2.9-5.9,4.7c-3.7-0.7-7.5-1.1-11.3-1.1h-1c-3.9,0-7.9,0.5-11.7,1.2
		c-1.8-1.9-3.9-3.5-6.1-4.9c-0.1,0-0.1-0.1-0.2-0.1c-1.1-0.7-2.4-1.2-3.6-1.7c-1.7-0.6-3.6-0.9-5.4-0.9c-6.5,0-11.8,3.8-14.6,10.5
		c-0.1,0.2-0.1,0.3-0.2,0.5c-1.7,4.7-2,9.7-1,14.6c0,0.2,0.1,0.3,0.1,0.5c-2,2.8-3.7,5.8-5,9c-1.8,4.3-3,8.9-3.6,13.6
		c0,0.2-0.1,0.4-0.1,0.6l0,0.3c-0.1,0.5-0.1,1-0.2,1.5l0,0.3c0,0.3-0.1,0.6-0.1,0.8c-0.1,0.9-0.1,1.9-0.2,2.9c0,0.1,0,0.1,0,0.2
		c0,1.6-0.2,3.1-0.6,4.7c-0.3,0.8-0.5,1.5-0.7,2.3l-0.2,0.6c-0.2,0.6-0.3,1.2-0.5,1.9l-0.1,0.6c-0.1,0.7-0.3,1.4-0.4,2
		c0,0.1,0,0.3-0.1,0.4c-0.1,0.8-0.2,1.6-0.3,2.3c0,0.2,0,0.4,0,0.6c0,0.6-0.1,1.2-0.1,1.9c0,0.2,0,0.5,0,0.7c0,0.6,0,1.2,0.1,1.8
		c0,0.2,0,0.4,0,0.6c0.1,0.8,0.1,1.6,0.3,2.3c0,0.2,0.1,0.3,0.1,0.5c0.1,0.6,0.2,1.2,0.3,1.8c0.1,0.2,0.1,0.5,0.2,0.8
		c0.1,0.5,0.3,1,0.5,1.6l0,0.1c0.1,0.2,0.1,0.4,0.2,0.6c0.2,0.6,0.4,1.1,0.7,1.7c0.1,0.2,0.1,0.3,0.2,0.5c0.3,0.7,0.7,1.4,1.1,2.1
		c0.1,0.2,0.2,0.3,0.3,0.6c0.3,0.5,0.6,1,0.9,1.5c0.1,0.2,0.3,0.4,0.4,0.6c0.1,0.2,0.2,0.4,0.4,0.6c0.2,0.2,0.3,0.4,0.5,0.6
		c1.8,2.3,3.8,4.3,6.1,6c1,0.8,2.1,1.5,3.2,2.2c0.2,0.1,0.4,0.2,0.6,0.4c0.8,0.5,1.7,1,2.5,1.4c7.6,4.2,15.9,6.8,24.5,7.9
		c0,0,1.1,0.1,1.5,0.2c3.5,0.5,7,0.7,10.5,0.8h0.9c3.5,0,7-0.3,10.4-0.8c0,0,1.5-0.2,1.6-0.2c3.6-0.5,7.2-1.2,10.8-2.2
		c4.7-1.4,9.3-3.3,13.6-5.6c1-0.5,2-1.1,2.9-1.7c1.2-0.7,2.3-1.5,3.4-2.3c2.3-1.7,4.3-3.7,6.1-6c0.2-0.2,0.4-0.5,0.6-0.7
		c0.1-0.2,0.3-0.4,0.5-0.7l-0.1,0.1l0.2-0.3c0.4-0.6,0.8-1.2,1.1-1.8l0,0c0.1-0.1,0.1-0.2,0.2-0.3c0.4-0.8,0.8-1.5,1.1-2.2
		c0-0.1,0.1-0.3,0.1-0.3c0.3-0.6,0.5-1.2,0.7-1.8c0.1-0.2,0.2-0.5,0.3-0.8c0.1-0.4,0.3-0.9,0.4-1.3c0.1-0.3,0.2-0.7,0.3-1
		c0.1-0.4,0.2-0.8,0.2-1.2c0.1-0.8,0.3-1.6,0.4-2.4c0-0.2,0.1-0.4,0.1-0.7c0-0.4,0.1-0.9,0.1-1.4c0,0,0-0.1,0-0.1c0-0.2,0-0.5,0-0.7
		C1021.6,161.5,1021.6,161,1021.6,160.5z"/>
	<g id="Layer3_2_MEMBER_6_MEMBER_0_FILL">
		<path style="fill:#FFFFFF;" d="M942.1,100.6c-0.5-0.3-1-0.5-1.5-0.7c-2.9-1-5,0.1-6.4,3.4c-1,2.8-1.2,5.8-0.5,8.6
			c0.7,3.2,1.9,6.3,3.7,9.1c5.8-0.6,11.4-2.9,15.8-6.7C950.2,107.9,946.5,103.4,942.1,100.6z"/>
	</g>
	<g id="Layer3_2_MEMBER_6_MEMBER_0_1_STROKES">
		<path style="fill:#47D7AC;" d="M937.3,121.9c-0.3,0-0.7-0.2-0.8-0.5c-1.8-2.9-3.1-6.1-3.8-9.4c-0.7-3-0.5-6.2,0.6-9.2
			c2-4.8,5.3-4.8,7.6-4c0.6,0.2,1.2,0.5,1.7,0.8c4.6,2.9,8.5,7.6,11.5,14.1c0.2,0.4,0.1,0.9-0.3,1.2c-4.6,3.9-10.3,6.3-16.4,6.9
			C937.4,121.9,937.4,121.9,937.3,121.9z M938.6,100.5c-1.2,0-2.5,0.7-3.6,3.1c-0.9,2.6-1.1,5.4-0.5,8.1c0.6,2.9,1.7,5.7,3.2,8.2
			c5.2-0.6,10.1-2.7,14.1-5.9c-2.8-5.8-6.3-10-10.4-12.6c-0.4-0.3-0.9-0.5-1.3-0.6C939.7,100.6,939.2,100.5,938.6,100.5z"/>
	</g>
	<g id="Layer3_2_MEMBER_6_MEMBER_1_FILL">
		<path style="fill:#FFFFFF;" d="M998.2,112c0.6-2.9,0.4-5.9-0.5-8.7c-1.4-3.2-3.5-4.4-6.4-3.4c-0.5,0.2-1.1,0.4-1.5,0.7
			c-4.4,2.8-8.1,7.3-11.1,13.7c4.5,3.8,10,6.1,15.8,6.7C996.3,118.2,997.5,115.2,998.2,112z"/>
	</g>
	<g id="Layer3_2_MEMBER_6_MEMBER_1_1_STROKES">
		<path style="fill:#47D7AC;" d="M994.5,122c0,0-0.1,0-0.1,0c-6-0.6-11.7-3-16.4-6.9c-0.3-0.3-0.4-0.8-0.3-1.2
			c3-6.5,6.9-11.2,11.5-14.1c0.6-0.3,1.2-0.6,1.8-0.8c2.3-0.8,5.6-0.8,7.6,3.9c1,3,1.3,6.2,0.6,9.2c-0.7,3.3-2,6.5-3.8,9.4
			C995.2,121.8,994.8,122,994.5,122z M979.9,114.1c4.1,3.2,9,5.3,14.1,5.9c1.5-2.5,2.6-5.3,3.2-8.2c0.6-2.7,0.4-5.5-0.5-8.1
			c-1.5-3.5-3.5-3.3-5.1-2.8c-0.5,0.2-0.9,0.4-1.4,0.6C986.2,104.1,982.7,108.3,979.9,114.1L979.9,114.1z"/>
	</g>
	<g id="Layer3_2_MEMBER_7_MEMBER_0_FILL">
		<path style="fill:#FFFFFF;" d="M966.7,105.9h-0.9c-6.7,0.1-13.4,1.4-19.7,4c-8.6,3.7-14.7,9.6-18.1,17.8
			c-2.1,5.1-3.2,10.6-3.3,16.2c0,2.6-0.4,5.2-1.1,7.7c-3.7,11.1-1.6,19.6,6.1,25.5c0.8,0.6,1.7,1.2,2.5,1.7c0,0,0.1,0.1,0.1,0.1
			c0.7,0.5,1.5,0.9,2.3,1.3c6.3,3.5,13.3,5.7,20.5,6.6c0.5,0.1,1,0.1,1.5,0.2c3,0.4,6.1,0.7,9.1,0.7h0.9c3.1,0,6.1-0.2,9.1-0.7
			c0.5-0.1,1-0.1,1.5-0.2c3.1-0.4,6.1-1,9.1-1.8c4-1.1,7.8-2.7,11.4-4.7c0.8-0.4,1.6-0.9,2.4-1.4c0.9-0.5,1.7-1.1,2.5-1.7
			c7.7-5.8,9.8-14.3,6.1-25.5c-0.7-2.5-1.1-5.1-1.1-7.7c-0.1-6.3-1.6-12.5-4.2-18.2c-3.6-7.2-9.7-12.8-17.2-15.8
			C980.1,107.4,973.4,106,966.7,105.9z"/>
	</g>
	<path style="fill:#83E8D3;" d="M1007.6,172c3.6-5.3,4-12.2,1.3-20.4c-0.7-2.5-1.1-5.1-1.1-7.7c-0.1-1.4-0.2-2.7-0.3-4.1
		c0.1-0.1,0.2-0.2,0.4-0.3c0.3-0.3,0.3-0.7,0.1-1c-0.3-0.3-0.7-0.3-1-0.1l0,0c-2.5,2.2-4.8,4.7-6.9,7.4c-2.1,2.7-2.6,6.3-1.6,10.8
		c0.2,0.7,0.4,1.4,0.6,2c1.8,5.1,4.3,10,7.6,14.4c0.2,0.3,0.7,0.4,1,0.2c0.3-0.2,0.4-0.7,0.2-1
		C1007.7,172.1,1007.7,172.1,1007.6,172z"/>
	<path style="fill:#83E8D3;" d="M932.5,145.9c-2-2.7-4.3-5.2-6.9-7.5c-0.3-0.3-0.7-0.2-1,0.1c-0.2,0.3-0.2,0.7,0.1,1
		c0.1,0.1,0.2,0.2,0.4,0.3c-0.2,1.3-0.3,2.7-0.3,4.1c0,2.6-0.4,5.2-1.1,7.7c-2.7,8.3-2.3,15.1,1.3,20.5c0,0.1-0.1,0.1-0.1,0.2
		c-0.2,0.3-0.2,0.8,0.2,1c0.3,0.2,0.7,0.2,1-0.2c3.2-4.4,5.8-9.2,7.6-14.4c0.2-0.6,0.4-1.3,0.6-2
		C935.1,152.2,934.6,148.6,932.5,145.9z"/>
	<path style="fill:#47D7AC;" d="M1011.6,160.8c0-0.2,0-0.4,0-0.5c-0.1-1.2-0.2-2.4-0.4-3.6c0-0.3-0.1-0.5-0.1-0.8
		c-0.1-0.3-0.1-0.6-0.2-0.9s-0.2-0.7-0.2-1c-0.1-0.3-0.1-0.5-0.2-0.8c-0.2-0.6-0.4-1.2-0.6-1.9c-0.2-0.7-0.4-1.4-0.5-2.2
		c-0.3-1.7-0.5-3.5-0.6-5.3c0-0.2,0-0.3,0-0.5c-0.2-6.3-1.6-12.4-4.3-18.1c-3.7-7.4-10-13.2-17.7-16.3c-6.4-2.6-13.2-3.9-20-4h-0.9
		c-6.9,0.1-13.7,1.5-20,4.1c-8.8,3.8-15.1,10-18.6,18.4c-1.5,3.6-2.5,7.4-3,11.3c0,0,0,0.1,0,0.1c0,0.1,0,0.2,0,0.3
		c-0.1,0.5-0.1,0.9-0.2,1.4c0,0.3-0.1,0.6-0.1,0.9c-0.1,0.8-0.1,1.6-0.2,2.4c0,2.5-0.4,5-1.1,7.4l0,0c-0.2,0.7-0.4,1.3-0.6,1.9
		c0,0.2-0.1,0.3-0.1,0.5c-0.1,0.5-0.3,1-0.4,1.5c0,0.2-0.1,0.3-0.1,0.5c-0.1,0.5-0.2,1.1-0.3,1.6c0,0.1,0,0.1,0,0.2
		c-0.1,0.6-0.2,1.2-0.2,1.8c0,0.1,0,0.3,0,0.4c0,0.5,0,0.9-0.1,1.3c0,0.2,0,0.4,0,0.5c0,0.4,0,0.8,0,1.2c0,0.2,0,0.3,0,0.5
		c0,0.5,0.1,1.1,0.2,1.6c0,0.1,0,0.2,0,0.2c0.1,0.4,0.2,0.9,0.3,1.3c0,0.2,0.1,0.3,0.1,0.5c0.1,0.3,0.2,0.7,0.3,1
		c0.1,0.2,0.1,0.3,0.2,0.5c0.1,0.4,0.3,0.8,0.5,1.2c0,0.1,0.1,0.1,0.1,0.2c0.2,0.5,0.4,0.9,0.7,1.4c0.1,0.1,0.1,0.2,0.2,0.4
		c0.2,0.3,0.4,0.7,0.6,1c0.1,0.1,0.2,0.3,0.3,0.4c0.1,0.1,0.1,0.2,0.2,0.3c0,0,0.1,0.1,0.1,0.1c1.3,1.7,2.8,3.2,4.5,4.5
		c0.8,0.6,1.7,1.2,2.6,1.7c0.1,0.1,0.2,0.1,0.3,0.2c0.7,0.5,1.5,0.9,2.2,1.3c6.5,3.6,13.5,5.8,20.9,6.7c0.5,0.1,1,0.1,1.5,0.2
		c3.1,0.4,6.2,0.7,9.3,0.7h0.9c3.1,0,6.2-0.2,9.2-0.7c0.5-0.1,1-0.1,1.6-0.2c3.1-0.4,6.2-1,9.2-1.9c4-1.2,7.9-2.8,11.6-4.8
		c0.8-0.5,1.7-1,2.4-1.4c0.9-0.5,1.8-1.1,2.6-1.8c1.7-1.3,3.2-2.8,4.4-4.4c0.1,0,0.1-0.1,0.1-0.2c0.1-0.1,0.2-0.3,0.3-0.4
		c0-0.1,0.1-0.1,0.1-0.2c0.3-0.4,0.5-0.8,0.7-1.2c0-0.1,0.1-0.1,0.1-0.2c0.3-0.5,0.5-0.9,0.7-1.4c0,0,0-0.1,0-0.1
		c0.2-0.4,0.4-0.9,0.5-1.3c0.1-0.2,0.1-0.4,0.2-0.6c0.1-0.3,0.2-0.6,0.3-0.9c0.1-0.2,0.1-0.5,0.2-0.7c0.1-0.3,0.1-0.5,0.2-0.8
		c0.1-0.5,0.2-1.1,0.2-1.6c0-0.2,0-0.3,0.1-0.5c0-0.3,0-0.7,0.1-1c0-0.2,0-0.4,0-0.6C1011.6,161.5,1011.6,161.1,1011.6,160.8z
		 M1007.2,170.8c-0.1,0.1-0.2,0.3-0.2,0.4c-0.1,0.2-0.3,0.4-0.4,0.6c-1.2,1.7-2.7,3.2-4.3,4.4c-0.8,0.6-1.6,1.2-2.5,1.7
		c-0.8,0.5-1.5,1-2.4,1.4c-3.6,2-7.3,3.5-11.2,4.6c-2.9,0.8-5.9,1.4-8.9,1.8l-1.6,0.2c-3,0.4-6,0.6-9,0.7h-0.9c-3,0-6-0.2-9-0.7
		c-0.5-0.1-1-0.1-1.5-0.2c-7.1-0.8-13.9-3-20.1-6.5c-0.8-0.4-1.5-0.9-2.2-1.3c0,0-0.1,0-0.1-0.1c0,0,0,0-0.1,0
		c-0.8-0.5-1.7-1.1-2.5-1.6c-1.6-1.2-3-2.6-4.2-4.3c-0.2-0.3-0.4-0.6-0.6-0.8c0,0,0-0.1-0.1-0.1c-2.5-3.9-3.2-8.8-2.1-14.4
		c0-0.1,0-0.2,0.1-0.4c0.1-0.3,0.1-0.6,0.2-1c0.1-0.3,0.1-0.6,0.2-0.9c0.1-0.2,0.1-0.5,0.2-0.7c0.2-0.6,0.3-1.2,0.5-1.8v0v0
		c0.6-2.1,1-4.3,1.1-6.5c0-0.5,0.1-0.9,0.1-1.4c0-0.8,0.1-1.6,0.2-2.4c0-0.3,0.1-0.5,0.1-0.8c0-0.5,0.1-1,0.2-1.5
		c0.4-3.9,1.4-7.6,2.9-11.2c3.3-7.9,9.2-13.7,17.5-17.3c6.1-2.5,12.7-3.8,19.3-3.9h0.9c6.6,0.1,13.1,1.4,19.3,3.9
		c7.3,2.9,13.2,8.4,16.7,15.4c1.9,4.1,3.2,8.4,3.7,12.9c0,0,0,0,0,0c0.2,1.5,0.3,3,0.4,4.5c0,0.1,0,0.2,0,0.3c0,2.7,0.4,5.4,1.2,8
		c0.2,0.6,0.4,1.1,0.5,1.7c0.1,0.3,0.2,0.7,0.3,1c0,0.2,0.1,0.4,0.1,0.5C1010.3,161.3,1009.8,166.6,1007.2,170.8L1007.2,170.8z"/>
	<g id="Layer3_2_MEMBER_8_MEMBER_0_FILL">
		<path style="fill:#FCC5C5;" d="M962.4,169.3c0.2,0.1,0.5,0.1,0.8,0.2c2.2,0.6,4.5,0.6,6.7,0c0.2-0.1,0.4-0.1,0.6-0.2
			c3.1-1.2,4.4-3.4,3.9-6.7c0.1-1.3-0.9-2.5-2.3-2.5c-0.2,0-0.5,0-0.7,0.1c-3.3,0.3-6.6,0.3-9.9,0c-1.3-0.3-2.6,0.5-2.9,1.8
			c-0.1,0.2-0.1,0.4-0.1,0.7C958,165.9,959.3,168.1,962.4,169.3z"/>
	</g>
	<g id="Layer3_2_MEMBER_8_MEMBER_0_1_STROKES">
		<path style="fill:#F3A5A4;" d="M966.3,170.6c-1.1,0-2.3-0.2-3.4-0.5c-0.3-0.1-0.5-0.1-0.8-0.2c-3.4-1.3-4.9-3.8-4.4-7.4
			c0-1.7,1.3-3.1,3-3.1c0.2,0,0.5,0,0.7,0.1c3.2,0.3,6.5,0.3,9.7,0c1.7-0.3,3.3,0.7,3.6,2.4c0,0.2,0.1,0.5,0.1,0.7
			c0.8,3.2-1.1,6.5-4.3,7.4c0,0,0,0-0.1,0c-0.2,0-0.3,0.1-0.5,0.2c0,0-0.1,0-0.1,0C968.8,170.5,967.5,170.6,966.3,170.6z M961,160.8
			c-1.2,0-1.7,0.6-1.8,1.8c0,0,0,0,0,0.1c-0.5,3,0.6,4.9,3.4,5.9c0.2,0.1,0.4,0.1,0.7,0.2c2,0.6,4.2,0.6,6.3,0
			c0.2-0.1,0.4-0.1,0.6-0.2c2.8-1.1,3.9-2.9,3.4-5.9c-0.1-1.5-0.8-2-2.2-1.9c-1.7,0.2-3.3,0.2-5,0.2c-1.7,0-3.3-0.1-5-0.2
			C961.3,160.8,961.1,160.8,961,160.8L961,160.8z M958.5,162.6L958.5,162.6z"/>
	</g>
	<g id="Layer3_2_MEMBER_8_MEMBER_1_MEMBER_0_FILL">
		<path style="fill:#83E8D3;" d="M956.6,135c0.1-0.2,0.2-0.5,0.2-0.7c0-0.5-0.1-1.1-0.4-1.5c-0.3-0.4-0.7-0.7-1.2-0.9
			c-2.4-0.8-5-1.1-7.6-0.8c-0.5,0.1-1.1,0.3-1.5,0.7c-0.4,0.4-0.6,0.9-0.7,1.4c0,0.2,0,0.5,0.1,0.7c0.2,1,1,1.4,2.4,1.4
			c0.2,0,0.3,0,0.5,0c1.8-0.2,3.6,0,5.4,0.5C955.1,136.1,956.1,135.9,956.6,135z"/>
	</g>
	<g id="Layer3_2_MEMBER_8_MEMBER_1_MEMBER_0_1_STROKES">
		<path style="fill:#47D7AC;" d="M954.9,136.6c-0.5,0-0.9-0.1-1.3-0.2c-1.7-0.5-3.4-0.7-5.1-0.5c-0.2,0-0.3,0-0.5,0
			c-2.3,0.1-2.9-1.1-3.1-1.9c-0.1-0.3-0.1-0.6-0.1-0.9c0.1-0.7,0.4-1.4,0.9-1.8c0.5-0.4,1.2-0.7,1.8-0.8c2.7-0.4,5.4-0.1,7.9,0.8
			c0.6,0.2,1.1,0.6,1.5,1.1c0.4,0.6,0.6,1.2,0.6,1.9l0,0c0,0.4-0.1,0.7-0.3,1C956.8,136.1,955.8,136.6,954.9,136.6z M949.8,134.4
			c1.4,0,2.8,0.2,4.2,0.6c1.5,0.4,1.9-0.2,2.1-0.5c0.1-0.1,0.1-0.3,0.1-0.4c0-0.4-0.1-0.7-0.3-1c-0.2-0.3-0.5-0.5-0.8-0.6
			c-2.3-0.8-4.8-1.1-7.3-0.7c-0.4,0.1-0.8,0.3-1.1,0.5c-0.2,0.2-0.4,0.6-0.4,0.9c0,0.1,0,0.3,0,0.4c0.1,0.3,0.2,0.9,1.7,0.9
			c0.1,0,0.3,0,0.4,0C948.8,134.5,949.3,134.4,949.8,134.4z M956.8,134.2L956.8,134.2z"/>
	</g>
	<g id="Layer3_2_MEMBER_8_MEMBER_1_MEMBER_1_FILL">
		<path style="fill:#83E8D3;" d="M976.2,135c-0.1-0.2-0.2-0.5-0.2-0.7c0-0.5,0.1-1.1,0.4-1.5c0.3-0.4,0.7-0.7,1.2-0.9
			c2.4-0.8,5-1.1,7.6-0.8c0.5,0.1,1.1,0.3,1.5,0.7c0.4,0.4,0.6,0.9,0.7,1.4c0,0.2,0,0.5-0.1,0.7c-0.2,1-1,1.4-2.4,1.4
			c-0.2,0-0.3,0-0.5,0c-1.8-0.2-3.6,0-5.4,0.5C977.7,136.1,976.7,135.9,976.2,135z"/>
	</g>
	<g id="Layer3_2_MEMBER_8_MEMBER_1_MEMBER_1_1_STROKES">
		<path style="fill:#47D7AC;" d="M977.9,136.6c-1,0-1.9-0.4-2.3-1.3c-0.2-0.3-0.3-0.7-0.3-1.1c-0.1-0.7,0.2-1.4,0.6-1.9
			c0.4-0.5,0.9-0.9,1.5-1.1c2.5-0.9,5.2-1.1,7.9-0.8c0.7,0.1,1.3,0.4,1.8,0.8c0.5,0.5,0.9,1.1,0.9,1.9c0,0.3,0,0.6-0.1,0.9
			c-0.2,0.7-0.8,2-3.1,1.9c-0.2,0-0.4,0-0.5-0.1c-1.7-0.2-3.4,0-5.1,0.5C978.9,136.5,978.4,136.6,977.9,136.6z M983,131.7
			c-1.8,0-3.5,0.3-5.1,0.9c-0.3,0.1-0.7,0.3-0.9,0.6c-0.2,0.3-0.3,0.6-0.3,1l0,0c0,0.2,0.1,0.3,0.1,0.5c0.1,0.2,0.5,0.8,2.1,0.4
			c1.8-0.6,3.7-0.8,5.6-0.6c0.2,0,0.3,0,0.4,0c1.4,0.1,1.6-0.6,1.7-0.8c0.1-0.5,0-1-0.4-1.4c-0.3-0.3-0.7-0.4-1.1-0.5
			C984.4,131.7,983.7,131.7,983,131.7L983,131.7z"/>
	</g>
	<path d="M957.5,146.8c-1.3-1.1-2.9-1.7-4.6-1.8c-0.2,0-0.4,0-0.7,0c-1.8,0-3.6,0.5-5.1,1.6c-0.6,0.4-0.7,1.3-0.3,1.9
		c-0.4,0.7-0.2,1.5,0.4,1.9c0.5,0.3,1.1,0.3,1.6,0c1-0.7,2.2-1.1,3.4-1c0.2,0,0.3,0,0.5,0c1.1,0.1,2.1,0.5,3,1.2
		c0.6,0.5,1.5,0.4,2-0.2c0.4-0.5,0.4-1.1,0.1-1.6C958.2,148,958.1,147.2,957.5,146.8z"/>
	<g id="Layer3_2_MEMBER_8_MEMBER_2_MEMBER_0_MEMBER_2_FILL">
		<path style="fill:#FFFFFF;" d="M951.3,146.9c0.2-0.2,0.3-0.3,0.3-0.5c0-0.2-0.2-0.3-0.5-0.4c-0.3-0.1-0.6,0-0.9,0.1
			c-0.3,0-0.6,0.2-0.8,0.4c-0.2,0.2-0.3,0.4-0.3,0.5c0.1,0.2,0.3,0.3,0.5,0.4c0.3,0.1,0.6,0.1,1,0
			C950.8,147.3,951.1,147.1,951.3,146.9z"/>
	</g>
	<path d="M985.6,146.8c-1.3-1.1-2.9-1.7-4.6-1.8c-0.2,0-0.4,0-0.7,0c-1.8,0-3.6,0.5-5.1,1.6c-0.6,0.4-0.7,1.3-0.3,1.9
		c-0.4,0.7-0.2,1.5,0.4,1.9c0.5,0.3,1.1,0.3,1.6,0c1-0.7,2.2-1.1,3.4-1c0.2,0,0.3,0,0.5,0c1.1,0.1,2.1,0.5,3,1.2
		c0.6,0.5,1.5,0.4,2-0.2c0.4-0.5,0.4-1.1,0.1-1.6C986.3,148,986.1,147.2,985.6,146.8z"/>
	<g id="Layer3_2_MEMBER_8_MEMBER_2_MEMBER_1_MEMBER_2_FILL">
		<path style="fill:#FFFFFF;" d="M979.3,146.9c0.2-0.2,0.3-0.3,0.3-0.5c0-0.2-0.2-0.3-0.5-0.4c-0.3-0.1-0.6,0-0.9,0.1
			c-0.3,0-0.6,0.2-0.8,0.4c-0.2,0.2-0.3,0.4-0.3,0.5c0.1,0.2,0.3,0.3,0.5,0.4c0.3,0.1,0.6,0.1,1,0
			C978.8,147.3,979.1,147.1,979.3,146.9z"/>
	</g>
</g>
</svg>
