<?xml version="1.0" encoding="utf-8"?>
<!-- Generator: Adobe Illustrator 25.2.0, SVG Export Plug-In . SVG Version: 6.00 Build 0)  -->
<svg version="1.1" id="레이어_1" xmlns="http://www.w3.org/2000/svg" xmlns:xlink="http://www.w3.org/1999/xlink" x="0px"
	 y="0px" viewBox="0 0 1600 900" style="enable-background:new 0 0 1600 900;" xml:space="preserve">
<rect style="fill:#FAE6E9;" width="1600" height="900"/>
<g>
	<path style="fill:#F58798;" d="M514,264.9l27-36c-0.5-0.4-0.9-0.9-1.4-1.3c-0.1-0.1-0.3-0.3-0.4-0.4c-0.9-0.9-1.8-1.9-2.7-2.9
		l-0.3-0.3c-1-1.1-1.9-2.2-2.8-3.4l-0.3-0.4c-1-1.3-1.8-2.5-2.6-3.6c-3.3-5.1-6-10.7-8.1-16.7l-0.2-0.6c-2.2-7-3.3-14-3.3-20.9v-0.2
		c0-1.4,0.1-2.8,0.2-4.3l0-0.5c0-0.6,0.1-1.1,0.2-1.7c0,0,0.1-0.7,0.1-0.9c0-0.4,0.1-0.9,0.2-1.3c0.1-0.4,0.1-0.9,0.2-1.3
		c0-0.3,0.1-0.6,0.2-1c0.1-0.6,0.2-1.1,0.3-1.6l0.1-0.7c0.4-1.8,0.8-3.5,1.3-5.1l0.1-0.2c0.2-0.7,0.4-1.4,0.7-2.1c0.3-1,0.7-2,1.1-3
		c0.1-0.3,0.3-0.7,0.5-1.1l0.1-0.3c0.1-0.3,0.2-0.6,0.4-0.9c0.1-0.4,0.3-0.7,0.4-1l1.5-3.4l0.2-0.2c0.4-0.8,0.9-1.7,1.3-2.5l0.1-0.2
		c0.5-0.8,0.9-1.6,1.4-2.3c0.3-0.6,0.8-1.2,1.2-1.9l0.5-0.8l0.5-0.7c0.4-0.7,0.9-1.3,1.4-1.9l0.2-0.2l0.2-0.3c0.5-0.7,1-1.3,1.6-2
		c0-5.2,0.8-10.3,2.6-15.2l0.2-0.6l0.3-0.6c5.4-12.6,16.3-20.2,29.1-20.2c3.5,0,7,0.6,10.4,1.7c2.3,0.8,4.6,1.8,6.8,3.1l0.6,0.4
		c1.7,1.1,3.4,2.3,5,3.6c0.3,0,0.5,0,0.8-0.1c1.3-0.1,2.6-0.2,4-0.2c0.8,0,1.6,0,2.5-0.1c8-6.9,16-8.4,21.5-8.4
		c8,0,15.7,3.2,21.7,8.9c1.8,1.7,3.4,3.6,4.9,5.7l0.4,0.6c2.5,3.9,4.5,8.2,6,12.8c8,7.3,13.8,16.2,17.3,26.7c0.2,0.5,0.4,1,0.5,1.5
		c0.5,1.5,0.9,2.9,1.2,4.4c0.1,0.4,0.2,0.8,0.2,1.1c0.5,2,0.8,4.1,1.1,6.4c0.1,0.4,0.1,0.9,0.2,1.3c0,0.4,0.1,0.7,0.1,1.1l0,0.3
		c0.2,1.6,0.3,3.1,0.3,4.6l0,0.3c0.1,1.6,0.1,3.1,0.1,4.6l0,0.8c0,0.9,0.1,1.3,0.1,1.3c0,0,0,0.2,0.1,0.3c0.2,0.7,0.4,1.4,0.5,2.2
		l0.2,0.7c0.8,3.8,1.3,7.4,1.4,11c2.5,4.6,3.7,9.8,3.4,15c2.2,5.3,3.3,10.9,3.4,16.5c0,6.5-1.2,12.6-3.4,18.2
		c-1.7,4-3.7,7.6-6.1,10.8l-7.5,9.8H514z"/>
	<path style="fill:#F58798;" d="M822.8,267.9v-9.9H820v9.9H682.5v-12.2h-5c-9.9,0-19.1-3.6-25.9-10.3c-6.9-6.8-10.8-16-10.8-25.9
		c0-2.7,0.3-5.3,0.8-7.8c-1.1-3.4-1.7-6.9-2-10.6c-2.4-4.9-3.7-10.3-3.7-15.9c0-8.2,2.7-15.9,7.9-22.5c5.6-7.1,13.7-11.7,22.8-13
		c4.9-3.3,12-6.3,21.3-6.3c6.7,0,12.2,1.5,16.6,3.6c4.6-2,9.6-3,14.9-3c7.2,0,14.1,2,20.1,5.8c0.7-0.5,1.4-0.9,2.2-1.3
		c5.9-3.3,12.3-5,19.1-5c1.6,0,3.2,0.1,4.8,0.3c8.3,1,15.7,4.5,21.5,9.9c1.5,0.5,2.9,1.1,4.3,1.7c4.5-4.3,10.2-7.4,16.5-9
		c3.7-0.9,7.8-1.4,12.3-1.4h37.5c4.5,0,8.6,0.5,12.3,1.4c0.6,0.1,1.1,0.3,1.7,0.5c2.2-0.4,4.5-0.6,6.8-0.6h46
		c5.6,0,10.9,1.2,15.7,3.4c4.8,2.3,9,5.4,12.3,9.5c3.2,3.8,5.5,8.1,6.8,12.7c1.1,3.5,1.6,7.2,1.6,10.8c0,3.7-0.5,7.3-1.6,10.9
		c0,0.1-0.1,0.2-0.1,0.3c1.6,4.2,2.5,8.7,2.5,13.3c0,3.1-0.4,6.3-1.2,9.3c1.8,4.4,2.7,9,2.7,13.8c0,8.4-2.8,16.3-8,22.9
		c-6.7,8.5-17.1,13.3-28.5,13.3h-28.8v1.3H822.8z"/>
	<path style="fill-rule:evenodd;clip-rule:evenodd;fill:#F58798;" d="M1355,224.9H245c-33.1,0-60,26.9-60,60v360
		c0,33.1,26.9,60,60,60h1110c33.1,0,60-26.9,60-60v-360C1415,251.7,1388.1,224.9,1355,224.9z"/>
	<path style="fill-rule:evenodd;clip-rule:evenodd;fill:#FFFFFF;" d="M1355,239.9H245c-24.9,0-45,20.1-45,45v360
		c0,24.9,20.1,45,45,45h1110c24.9,0,45-20.1,45-45v-360C1400,260,1379.9,239.9,1355,239.9z"/>
	<path style="fill-rule:evenodd;clip-rule:evenodd;fill:#F5F5F5;" d="M1354.6,669.9h-1110c-24.9,0-45-20.1-45-45v20
		c0,24.9,20.1,45,45,45h1110c24.9,0,45-20.1,45-45v-20C1399.6,649.7,1379.4,669.9,1354.6,669.9z"/>
	<path style="fill:#FFFFFF;" d="M840.6,252.9v-9.9H819c-4.7,0-8.4-1.3-11.2-2.9v12.7H700.3v-12.2h-20c-7.7,0-12.6-3.3-15.4-6
		c-4-4-6.3-9.3-6.3-15.1c0-3,0.6-5.8,1.7-8.5c-2-3.9-3-8.3-3-13V197c-2.4-3.5-3.6-7.5-3.6-11.7c0-4.8,1.6-9.3,4.6-13.2
		c3.9-4.9,9.6-7.6,16.2-7.6h0.4c0.2-0.2,0.3-0.3,0.5-0.5c2.9-2.5,7.8-5.5,15.2-5.5c7.5,0,12.4,3,15.3,5.6c0.1,0.1,0.2,0.2,0.4,0.3
		h0.5c0.2,0,0.4,0,0.6,0c4.2-3.5,9.2-5.3,14.7-5.3c5.5,0,10.6,1.9,14.9,5.5c2.4,2,4.3,4.5,5.6,7.4c2.4-5.5,6.3-8.7,9.3-10.4
		c3.6-2,7.5-3.1,11.7-3.1c1,0,2,0.1,3,0.2c5.2,0.7,9.9,2.8,13.4,6.3c0.6,0.6,1.2,1.3,1.8,2c4.1,1,7.9,2.6,11.4,4.8
		c2,1.3,3.8,2.8,5.5,4.5c0.9-3.3,2.5-6.3,4.7-8.8c2.8-3.2,6.6-5.4,10.9-6.5c2.5-0.6,5.4-0.9,8.7-0.9h37.5c3.3,0,6.1,0.3,8.7,0.9
		c1.6,0.4,3.1,0.9,4.5,1.6c2.4-0.9,5-1.3,7.7-1.3h46c3.4,0,6.5,0.7,9.3,2c2.8,1.3,5.2,3.2,7.2,5.5c1.8,2.2,3.2,4.7,4,7.4
		c0.6,2.1,1,4.3,1,6.5c0,2.2-0.3,4.4-1,6.6c-0.5,1.8-1.3,3.5-2.3,5.1c2.7,3.8,4.1,8.2,4.1,12.7c0,3.7-0.9,7.2-2.6,10.4
		c2.7,3.8,4.1,8.2,4.1,12.8c0,5-1.6,9.7-4.7,13.6c-2.3,2.9-7.5,7.6-16.7,7.6h-43.9v1.3H840.6z"/>
	<rect x="661.8" y="233.4" style="fill:#FFFFFF;" width="12.1" height="6.5"/>
	<g>
		<path style="fill:#3C3B3B;" d="M687.9,208.9c-2.3,0-4.5-0.3-6.6-0.8s-4-1.4-5.5-2.5s-2.8-2.5-3.8-4.3c-0.9-1.7-1.4-3.8-1.4-6.2
			v-3.8c0-1.5,0.4-2.9,1.3-4.3c-1.6,0-2.8-0.5-3.7-1.4c-0.8-0.9-1.2-2-1.2-3.2c0-1.2,0.4-2.3,1.2-3.3c0.8-1,2-1.5,3.7-1.5h9.5
			c0-1.9,0.7-3.3,1.8-4.4c1.2-1,2.8-1.5,4.7-1.5c2,0,3.6,0.5,4.7,1.6c1.2,1.1,1.8,2.5,1.9,4.3h9.5c1.7,0,2.9,0.5,3.7,1.5
			c0.8,1,1.2,2.1,1.2,3.3c0,1.2-0.4,2.2-1.1,3.2c-0.7,0.9-2,1.4-3.6,1.4H704c0.8,1.4,1.2,2.9,1.2,4.3v3.8c0,2.4-0.5,4.4-1.4,6.2
			c-0.9,1.7-2.2,3.2-3.8,4.3s-3.4,2-5.5,2.5S690.2,208.9,687.9,208.9z M677.5,221.8c-1.8,0-3.3-0.5-4.2-1.4c-1-1-1.5-2.2-1.5-3.8
			c0-1.5,0.5-2.8,1.5-3.8s2.4-1.4,4.2-1.4h39.4c2.1,0,3.7,0.2,5,0.5c1.3,0.3,2.3,0.9,3,1.6c0.7,0.8,1.2,1.8,1.4,3.1
			c0.2,1.3,0.4,2.9,0.4,4.9V234h-13.2v-10.6c0-1.1-0.5-1.6-1.6-1.6H677.5z M687.9,199.5c1.4,0,2.6-0.4,3.7-1.2
			c1.1-0.8,1.7-2,1.7-3.6v-3.4c0-1.6-0.6-2.8-1.7-3.6c-1.1-0.8-2.4-1.2-3.7-1.2c-1.4,0-2.6,0.4-3.7,1.2c-1.1,0.8-1.7,2-1.7,3.6v3.4
			c0,1.6,0.6,2.8,1.7,3.6C685.3,199.1,686.5,199.5,687.9,199.5z M712.9,178.7c0-2.1,0.6-3.8,1.9-4.9c1.3-1.1,2.8-1.6,4.6-1.6
			c1.7,0,3.2,0.6,4.5,1.7s2,2.7,2,4.8v5.9h2c1,0,1.8,0.2,2.5,0.5c0.7,0.4,1.2,0.8,1.6,1.3c0.4,0.5,0.7,1.1,0.9,1.8
			c0.2,0.7,0.3,1.3,0.3,2s-0.1,1.3-0.3,2c-0.2,0.7-0.5,1.3-0.9,1.8c-0.4,0.5-0.9,1-1.6,1.3s-1.5,0.5-2.5,0.5h-2v13.2h-13V178.7z"/>
		<path style="fill:#3C3B3B;" d="M786.9,197.9c1.9,0,3.2,0.5,4,1.5c0.8,1,1.2,2.1,1.2,3.3c0,1.3-0.4,2.4-1.2,3.4
			c-0.8,1-2.1,1.4-4,1.4h-51.4c-1.8,0-3.2-0.5-4-1.4c-0.8-1-1.2-2.1-1.2-3.4c0-1.2,0.4-2.3,1.2-3.3c0.8-1,2.1-1.5,4-1.5H786.9z
			 M767.4,178.2c0,0.1,0,0.3,0,0.4c0,0.1,0,0.2,0,0.3c2.5-0.1,5.1,0.1,7.6,0.6s4.8,1.5,6.9,2.8c2.1,1.3,3.9,3.1,5.4,5.3
			c1.5,2.2,2.5,4.9,3.2,8.1h-13.4c-0.5-1.4-1.3-2.7-2.3-3.8c-1-1.1-2.2-1.9-3.6-2.5c-1.3-0.6-2.8-1-4.4-1.1c-1.6-0.1-3.3,0-5,0.3
			c-1.4,1.3-3.1,2.4-5,3.4c-1.9,1-3.8,1.8-5.9,2.4c-2.1,0.6-4.2,1.1-6.4,1.3c-2.2,0.3-4.4,0.3-6.5,0.1c-2-0.1-3.4-0.7-4.4-1.7
			c-0.9-1-1.4-2.2-1.3-3.5c0-0.7,0.1-1.3,0.4-2c0.3-0.7,0.6-1.2,1.2-1.7c0.5-0.5,1.1-0.9,1.9-1.2c0.7-0.3,1.6-0.4,2.6-0.4
			c1.6,0,3.2-0.1,5-0.5c1.7-0.4,3.3-1,4.8-1.7c1.5-0.7,2.8-1.6,3.9-2.7c1.1-1.1,1.8-2.2,2.2-3.6c0.5-2,1.5-3.4,3-4.3
			c1.5-0.8,3.1-1.1,4.9-0.9c1.8,0.2,3.1,0.8,4.2,1.8C767.1,174.5,767.5,176.1,767.4,178.2z M740,209.4c1.4,0,2.8,0.4,4,1.1
			c1.2,0.7,2,1.8,2.4,3.4h29.4c0.3-1.7,1.1-2.8,2.3-3.5c1.2-0.6,2.6-1,4.2-1c0.8,0,1.6,0.1,2.4,0.3c0.8,0.2,1.5,0.5,2.1,1
			c0.6,0.4,1.1,1,1.5,1.7c0.4,0.7,0.6,1.6,0.6,2.7V234h-46.3c-2,0-3.6-0.2-4.8-0.5c-1.2-0.3-2.2-0.9-2.9-1.6
			c-0.7-0.8-1.1-1.8-1.4-3.1c-0.2-1.3-0.4-2.9-0.4-4.8v-8.9c0-1.1,0.2-1.9,0.6-2.7c0.4-0.7,0.9-1.3,1.5-1.7c0.6-0.4,1.3-0.8,2.1-1
			C738.3,209.5,739.2,209.4,740,209.4z M775.8,225.4V222h-29.2v1.4c0,0.7,0.1,1.2,0.4,1.5c0.3,0.4,0.8,0.5,1.6,0.5H775.8z"/>
		<path style="fill:#3C3B3B;" d="M832,200.6v-3.9h-11.8c-2,0-3.6-0.2-4.8-0.5s-2.2-0.9-2.9-1.6c-0.7-0.7-1.1-1.8-1.4-3
			c-0.2-1.3-0.4-2.9-0.4-4.8V183c0-1.9,0.1-3.5,0.4-4.7c0.2-1.3,0.7-2.3,1.4-3.1c0.7-0.8,1.6-1.3,2.9-1.6c1.2-0.3,2.8-0.5,4.8-0.5
			h37.5c2,0,3.6,0.2,4.8,0.5c1.2,0.3,2.2,0.8,2.9,1.6c0.7,0.8,1.1,1.8,1.4,3.1c0.2,1.3,0.4,2.9,0.4,4.7v13.7h-21.6v3.9h18.8
			c2,0,3.4,0.5,4.2,1.5c0.8,1,1.3,2.2,1.3,3.5s-0.4,2.5-1.3,3.5c-0.8,1-2.2,1.5-4.2,1.5h-50.7c-2,0-3.4-0.5-4.2-1.5
			c-0.8-1-1.3-2.2-1.3-3.5s0.4-2.5,1.3-3.5c0.8-1,2.2-1.5,4.2-1.5H832z M816.2,224.1c-1.8,0-3.2-0.5-4.1-1.4
			c-0.9-0.9-1.4-2.1-1.4-3.6c0-1.5,0.5-2.7,1.4-3.6c0.9-0.9,2.3-1.3,4.1-1.3h41.3c2,0,3.6,0.2,4.8,0.5s2.2,0.9,2.9,1.6
			c0.7,0.7,1.1,1.8,1.4,3.1c0.2,1.3,0.4,2.9,0.4,4.8v9.8h-13.2v-8.4c0-1-0.5-1.4-1.4-1.4H816.2z M823.9,185.5c0,0.7,0.1,1.1,0.3,1.4
			c0.2,0.3,0.6,0.4,1.3,0.4h28.4v-3.2c0-0.6-0.1-1.1-0.3-1.3c-0.2-0.3-0.7-0.4-1.3-0.4h-26.8c-0.7,0-1.1,0.1-1.3,0.4
			c-0.2,0.3-0.3,0.7-0.3,1.3V185.5z"/>
		<path style="fill:#3C3B3B;" d="M882.1,222.1v-4.1c0-2.4,0.6-4.1,1.8-5.1c1.2-1.1,2.9-1.6,4.9-1.6c2,0,3.6,0.5,4.8,1.6
			s1.8,2.8,1.8,5.1v4.1h12.1v-4.1c0-2.4,0.6-4.1,1.8-5.1s2.9-1.6,4.9-1.6c2,0,3.6,0.5,4.8,1.6c1.2,1.1,1.8,2.8,1.8,5.1v4.1h5.9
			c2,0,3.4,0.5,4.3,1.6c0.8,1.1,1.3,2.3,1.3,3.6c0,1.4-0.4,2.6-1.3,3.7c-0.9,1.1-2.3,1.6-4.2,1.6h-50.6c-2,0-3.4-0.5-4.2-1.6
			c-0.9-1.1-1.3-2.3-1.3-3.7c0-1.3,0.4-2.5,1.3-3.6c0.8-1.1,2.3-1.6,4.3-1.6H882.1z M882.2,199v-4.5c0-2.4,0.6-4.1,1.8-5.1
			c1.2-1.1,2.9-1.6,4.9-1.6c2,0,3.6,0.5,4.8,1.6c1.2,1.1,1.8,2.8,1.8,5.1v4.5h11.9v-4.5c0-2.4,0.6-4.1,1.8-5.1
			c1.2-1.1,2.9-1.6,4.9-1.6c2,0,3.6,0.5,4.8,1.6c1.2,1.1,1.8,2.8,1.8,5.1v4.5h4.5c2,0,3.4,0.5,4.3,1.6c0.8,1.1,1.3,2.3,1.3,3.6
			c0,1.4-0.4,2.6-1.3,3.7c-0.9,1.1-2.3,1.6-4.2,1.6h-47.5c-2,0-3.4-0.5-4.2-1.6c-0.9-1.1-1.3-2.3-1.3-3.7c0-1.3,0.4-2.5,1.3-3.6
			c0.8-1.1,2.3-1.6,4.3-1.6H882.2z M924.4,174.4c1,0,1.9,0.2,2.6,0.5c0.7,0.3,1.3,0.8,1.7,1.3s0.8,1.1,1,1.8s0.3,1.3,0.3,2
			c0,0.7-0.1,1.3-0.3,2s-0.5,1.3-1,1.8c-0.5,0.5-1,1-1.7,1.3s-1.5,0.5-2.5,0.5h-46c-1,0-1.9-0.2-2.5-0.5c-0.7-0.3-1.3-0.8-1.7-1.3
			c-0.5-0.5-0.8-1.1-1-1.8s-0.3-1.3-0.3-2c0-0.7,0.1-1.3,0.3-2s0.5-1.3,1-1.8c0.4-0.5,1-1,1.7-1.3s1.6-0.5,2.6-0.5H924.4z"/>
	</g>
	<path style="fill:#FFFFFF;" d="M662.8,211.9c1.3-4.9,0.1-9.6-3-12.9c0-0.2,0-0.4,0-0.6c0.2-3.6-0.1-7.5-1-11.6l-0.1-0.6
		c-0.1-0.6-0.3-1.3-0.5-1.9c0-0.1-0.1-0.3-0.1-0.4c0-0.1-0.1-0.3-0.1-0.4l0-0.2c-0.2-1.3-0.4-2.7-0.4-4.3l0-0.7l0-0.2
		c0-1.2,0-2.4-0.1-3.8l0-0.2c-0.1-1.2-0.1-2.5-0.3-3.8l0-0.3c0-0.3-0.1-0.5-0.1-0.8c0-0.3-0.1-0.5-0.1-0.8c-0.3-2-0.6-3.9-0.9-5.6
		l0-0.1c0-0.3-0.1-0.5-0.2-0.8c-0.3-1.2-0.6-2.4-1-3.5c-0.1-0.3-0.2-0.7-0.3-1c-3.1-9.4-8.5-17.2-16.3-23.2
		c-1.1-4.9-2.9-9.3-5.3-13.1l-0.2-0.2c-0.9-1.3-1.8-2.4-2.8-3.3c-3.2-3.1-7.2-4.8-11.3-4.8c-2.9,0-7.3,0.9-11.9,4.9l-0.2,0.2
		l-0.2,0.2c-1,1-2,2.1-2.8,3.3c-0.1,0-0.2,0-0.3,0c-0.2,0-0.4,0-0.5-0.1c-0.3,0-0.6-0.1-1-0.1c-1.3-0.1-2.6-0.1-3.9-0.1
		c-0.9,0-1.7,0-2.6,0c-1.1,0-2.1,0.1-3.2,0.2c-2.5,0.2-4.9,0.5-7.2,0.9c-2.4-2.6-5-4.8-7.9-6.6l-0.2-0.2c-1.3-0.8-2.6-1.4-3.9-1.8
		c-1.9-0.6-3.8-1-5.7-1c-3.2,0-11.1,1.1-15.3,11l-0.1,0.3l-0.1,0.3c-1.7,4.8-2.2,10-1.2,15.3c-1.3,1.3-2.5,2.7-3.7,4.1
		c-0.4,0.5-0.9,1.1-1.3,1.7l-0.1,0.1l-0.3,0.4c-0.4,0.5-0.7,1-1.1,1.5l-0.6,0.8l-0.2,0.3c-0.3,0.5-0.7,1.1-1,1.6
		c-0.4,0.7-0.8,1.3-1.2,2l-0.1,0.1c-0.6,1.1-1.2,2.2-1.8,3.4l0,0l-0.6,1.4c-0.1,0.2-0.2,0.5-0.3,0.7c-0.1,0.2-0.2,0.5-0.3,0.7
		l-0.2,0.4c-0.1,0.3-0.2,0.5-0.3,0.8c-0.3,0.8-0.6,1.6-0.9,2.3c-0.2,0.6-0.4,1.1-0.6,1.7l0,0.1c-0.4,1.3-0.7,2.6-1,4l-0.1,0.5
		c-0.1,0.4-0.2,0.8-0.2,1.3c0,0.3-0.1,0.6-0.1,0.8c-0.1,0.3-0.1,0.7-0.1,1c0,0.4-0.1,0.7-0.1,1c0,0.2-0.1,0.7-0.1,0.7
		c0,0.4-0.1,0.8-0.1,1.3l0,0.4c-0.1,1.2-0.1,2.3-0.1,3.3v0.1c0,5.4,0.9,11,2.6,16.5l0.1,0.2c1.6,4.8,3.8,9.2,6.4,13.3
		c0.6,0.9,1.2,1.8,2,2.8l0.3,0.3c0.7,0.9,1.4,1.8,2.2,2.7l0.2,0.3c0.7,0.8,1.5,1.6,2.2,2.3c0.1,0.1,0.2,0.2,0.3,0.3
		c0.7,0.7,1.4,1.4,2.3,2.1c0.1,0.1,0.3,0.2,0.4,0.3l1,0.9l0.1,0c0.6,0.5,1.1,0.9,1.7,1.3c0.5,0.4,1.1,0.8,1.6,1.2l0.1,0.1
		c1.6,1.1,3.3,2.2,5.1,3.1c-1.7,2-3.3,3.9-4.8,5.9c-0.5,0.7-1.1,1.4-1.6,2.1l-12,16h113.2l3-3.9c1.6-2.1,3-4.5,4.1-7.3
		c1.6-3.9,2.3-8.1,2.3-12.6C666.6,221.1,665.3,216.3,662.8,211.9z"/>
	<g>
		<defs>
			<rect id="SVGID_1_" x="538.1" y="115.6" width="124.3" height="124.3"/>
		</defs>
		<clipPath id="SVGID_2_">
			<use xlink:href="#SVGID_1_"  style="overflow:visible;"/>
		</clipPath>
		<g style="clip-path:url(#SVGID_2_);">
			<path style="fill:#83E8D3;" d="M645.1,207c-2.5,2.7-2.8,6.2-1,10.7l6.3,2.1c0.2-4.3,0.8-7.7,1.8-10.3c0.6-1.9,0-3.1-1.9-3.8
				C648.3,205,646.6,205.4,645.1,207"/>
			<g>
				<path style="fill:#3FD8B1;" d="M643.3,218.2l-0.2-0.4c-1.9-4.8-1.5-8.7,1.2-11.6l0,0c1.8-1.8,3.9-2.4,6.1-1.6
					c2.4,0.8,3.2,2.6,2.5,5c-1,2.4-1.6,5.8-1.8,10l-0.1,1.2L643.3,218.2z M645.7,207.5c-2.2,2.3-2.5,5.4-1,9.3l4.7,1.6
					c0.3-3.9,0.9-7,1.8-9.3c0.4-1.4,0.1-2.2-1.4-2.7c-0.5-0.2-0.9-0.3-1.3-0.3C647.5,206.1,646.6,206.5,645.7,207.5z"/>
			</g>
			<g>
				<path style="fill:#83E8D3;" d="M599.9,258.3l-0.9,22.7c1.3,0.8,2,1.8,2.1,3.2c0.1,2.1-1.5,3.2-5,3.3c-3.4,0.1-6.5,0.1-9.2-0.2
					c-3.1-0.3-4.3-2.4-3.6-6.5l-0.8-22.6H599.9L599.9,258.3z"/>
				<path style="fill:#47D7AC;" d="M581.3,258.4l0.1,2.8l0.1,1.3l0,0.3v0l0.1,1.5v0l0.1,3.7l0,0.5l0,0.5v0l0.4,11.9
					c-0.4,2.6-0.1,4.5,0.9,5.8c0.8,1.1,2.1,1.7,3.7,1.8c1.8,0.2,3.8,0.2,5.9,0.2c1.1,0,2.3,0,3.5-0.1c2.5-0.1,4.2-0.7,5.2-1.8
					c0.3-0.4,0.5-0.8,0.7-1.2c0.2-0.5,0.2-1,0.2-1.5c-0.1-0.8-0.3-1.5-0.7-2.1c-0.3-0.6-0.8-1.1-1.4-1.6l0.3-7.5l0-0.8l0.1-2.7
					l0-0.6l0-0.2l0-0.3l0-0.5l0-0.6l0.2-5.5l0-0.3l0-1.1v0l0.1-2c0-0.2,0-0.3-0.1-0.4v0c-0.1-0.1-0.1-0.3-0.3-0.4
					c-0.2-0.2-0.4-0.3-0.7-0.3c-0.6,0-1.1,0.5-1.2,1.1v0l-0.1,3.6l-0.3,6l0,0.4c0,0,0,0,0,0c0,0,0,0,0,0.1c0,0,0,0,0,0v0l0,0.2
					l0,0.3l-0.1,3.2l0,0.9l-0.3,8c0,0.4,0.2,0.8,0.5,1c1,0.6,1.5,1.3,1.6,2.3c0,0.6-0.2,0.9-0.3,1.1c-0.4,0.4-1.3,0.9-3.6,1
					c-3.4,0.1-6.4,0.1-9.1-0.2c-1-0.1-1.7-0.4-2.1-1c-0.6-0.8-0.8-2.2-0.4-4.1c0-0.1,0-0.2,0-0.3l-0.4-11.2v0l0-0.7l0-1l-0.1-2.8
					l0-0.7v0l0-0.8v0l0-1.2l-0.2-4.1v0c0-0.6-0.5-1.1-1.2-1.1C581.8,257.2,581.3,257.8,581.3,258.4z"/>
				<g>
					<path style="fill:#83E8D3;" d="M601.5,258.4l1.3,3.5l2.1,5.4l0.4,1.1l0.4,1.1l1.1,2.9l3.3,8.6c-0.7,4.1,0.5,6.2,3.6,6.5
						c2.7,0.2,5.8,0.3,9.2,0.2c3.5-0.1,5.2-1.2,5-3.3c-0.1-1.4-0.8-2.4-2.1-3.2l-1.4-4.5l0,0l-2.9-9.5l-1.2-3.9l-0.4-1.2l-0.1-0.4v0
						l-0.1-0.3l-0.2-0.5l-0.7-2.4H601.5z"/>
					<path style="fill:#47D7AC;" d="M617.4,260.3l7.4,20.7c0,0.4,0.2,0.8,0.5,1c1,0.6,1.5,1.3,1.6,2.3c0,0.6-0.2,0.9-0.3,1.1
						c-0.4,0.4-1.3,0.9-3.6,1c-3.3,0.1-6.4,0.1-9.1-0.2c-1-0.1-1.7-0.4-2.1-1c-0.6-0.8-0.8-2.2-0.4-4.2l0-0.2l-3.4-8.8l-1.3-3.3
						l-0.5-1.4l-0.1-0.3l-2.1-5.4l-1.3-3.4v0c0-0.6-0.5-1.1-1.2-1.1c-0.3,0-0.6,0.1-0.7,0.3c-0.1,0.1-0.2,0.2-0.3,0.4v0
						c-0.1,0.1-0.1,0.3-0.1,0.4l0.1,2v0l0.5,1.1l0.1,0.3l2.3,5.4l0.5,1.1l0.5,1.1l1.3,3.1l3.5,8.3c-0.1,0.4-0.1,0.8-0.2,1.2
						c-0.1,1.5,0,2.7,0.5,3.7c0.1,0.3,0.3,0.7,0.6,0.9c0.8,1.1,2.1,1.7,3.7,1.8c1.8,0.2,3.8,0.2,5.9,0.2c1.1,0,2.3,0,3.5-0.1
						c2.5-0.1,4.2-0.7,5.2-1.8c0.7-0.7,1-1.7,0.9-2.7c-0.1-1.5-0.8-2.8-2.1-3.7l-1-1.3l-6.5-19L617.4,260.3z"/>
				</g>
				<path style="fill:#83E8D3;" d="M599.6,218.5v-6.9h10.6c4.1,6.8,7.4,13,9.9,18.8c1.8,4.2,3.1,8,3.9,11.5
					c2.4,10.7,0,18.3-7.3,22.7l-7.2-3.5l-3.8,7.3c-1.9,0.1-3.4,0.1-4.7,0.2c-0.5,0-0.9,0-1.4,0h-0.2c-1.2,0-2.3-0.1-3.5-0.3
					l-3.9-7.4l-8.1,3.8c-0.5-0.3-0.9-0.6-1.3-0.9c-6.2-4.5-8.2-11.8-5.9-21.8c0.8-3.5,2.1-7.3,3.9-11.5l12.8-11.9H599.6L599.6,218.5
					z"/>
				<path style="fill:#83E8D3;" d="M559.8,247.6c2-3.1,4.1-6.1,6.4-9c5.5-7.1,11.9-13.9,19.1-20.4l7.1,3.7
					c-3.4,6.4-6.5,11.9-9.1,16.7c-4.4,7.8-7.7,13.4-10,16.9c-1.3,2-2.7,3.6-4.3,4.9c-1.7,1.3-3.3,2-4.9,2.2c-1.4,0.1-2.7-0.2-4-1
					C555.7,258.6,555.6,253.9,559.8,247.6L559.8,247.6z"/>
				<path style="fill:#3FD8B1;" d="M598.4,268.5C598.4,268.5,598.4,268.5,598.4,268.5L598.4,268.5c0,0.1,0,0.1,0,0.2
					c0,0.1,0.1,0.2,0.1,0.3c0.2,0.4,0.5,0.6,1,0.6h1.6c0.1,0,0.1,0,0.2,0c0.4,0,0.7,0,1.1,0c0.4,0,0.7,0,1.1,0c0.2,0,0.5,0,0.7,0
					c0.5,0,1,0,1.5-0.1c0.4,0,0.7-0.2,0.9-0.4c0,0,0-0.1,0.1-0.1c0.1-0.1,0.1-0.3,0.1-0.4c0-0.1,0-0.1,0-0.2c0-0.1,0-0.2-0.1-0.3
					c-0.1-0.3-0.3-0.5-0.5-0.6c-0.1,0-0.1-0.1-0.2-0.1c-0.1,0-0.2-0.1-0.3-0.1c-0.3,0-0.5,0-0.8,0c-0.5,0-1,0-1.5,0.1h-0.1
					c-0.4,0-0.7,0-1,0c-0.4,0-0.8,0-1.1,0c-0.1,0-0.1,0-0.2,0h-1.5c-0.4,0-0.8,0.3-1,0.6C598.4,268.1,598.4,268.2,598.4,268.5
					C598.4,268.4,598.4,268.4,598.4,268.5C598.4,268.4,598.4,268.4,598.4,268.5z"/>
				<path style="fill:#1CB594;" d="M598.1,244.9c0-1.3,0.3-2.5,0.8-3.7c0.5-1.2,1.2-2.2,2-3c1.9-1.9,4.1-2.8,6.7-2.8
					c2.6,0,4.8,0.9,6.6,2.8c0.9,0.9,1.5,1.9,2,3.1c0.5,1.2,0.7,2.4,0.7,3.7v0.5l-5.1,0V245c0-1.2-0.4-2.2-1.2-3.1
					c-0.9-0.9-1.9-1.3-3-1.3c-1.2,0-2.2,0.4-3.1,1.2c-0.9,0.8-1.3,1.9-1.3,3.1v0.5h-5.1V244.9L598.1,244.9z"/>
			</g>
			<path style="fill:#83E8D3;" d="M621.7,222.7c4.5,3.9,9.4,6.3,14.7,7.3c-1.3-1.4-2.3-3-2.9-5c-0.7-2.2-0.8-4.3-0.4-6.3
				c0.1-0.4,0.2-0.7,0.3-1.1c0.1-0.3,0.2-0.5,0.3-0.8c0.2-0.4,0.4-0.8,0.6-1.2c1.3-2.5,3.3-4.1,6-4.9c0.4-0.1,0.9-0.2,1.3-0.3
				c1-0.1,1.9-0.1,2.9,0.1c1.1,0.2,2.3,0.7,3.4,1.4c0.8,0.5,1.6,1.1,2.3,1.8c3.4,3.6,5.1,7.6,5.3,12.1c0.1,3-0.3,5.8-1.3,8.4
				c-1.4,3.8-3.4,6.5-6,8.2c-1.5,1-3.2,1.6-5.1,2c-5.9,1.1-11.8,0.3-17.8-2.5c-0.9-0.4-1.7-0.8-2.6-1.3c-0.4-1.6-1-3.3-1.6-5.1
				c-0.5-1.5-1.2-3-1.9-4.6c-0.8-1.8-1.6-3.7-2.6-5.6l-0.1-1.5l3.3-0.7L621.7,222.7z"/>
			<path style="fill:#3FD8B1;" d="M558.9,247c2-3.1,4.2-6.1,6.5-9.1c5.5-7.1,12-14,19.2-20.5c0.5-0.4,1.2-0.4,1.6,0.1
				c0.4,0.5,0.4,1.2-0.1,1.6c-7.1,6.4-13.5,13.2-18.9,20.2c-2.3,2.9-4.4,5.9-6.4,8.9c-5.6,8.4-1.5,11.4-0.1,12.4
				c1.1,0.7,2.2,0.9,3.3,0.8c1.3-0.1,2.8-0.8,4.2-1.9c1.5-1.2,2.9-2.8,4.1-4.7c2.3-3.4,5.6-9,10-16.8c0.3-0.5,1-0.7,1.5-0.4
				c0.5,0.3,0.7,1,0.4,1.5c-2.9,5.3-5.4,9.6-7.5,12.9c0,0.1,0.1,0.2,0.1,0.3c0.5,8.7,9.7,12.3,9.8,12.3c0.4,0.2,0.7,0.7,0.5,1.1
				c-0.1,0.3-0.5,0.5-0.8,0.5c-0.1,0-0.2,0-0.3-0.1c-0.4-0.2-9-3.5-10.6-11.9c-0.4,0.7-0.8,1.3-1.2,1.9c-1.4,2.1-2.9,3.8-4.6,5.2
				c-1.9,1.5-3.7,2.3-5.4,2.4c-0.2,0-0.5,0-0.7,0c-1.4,0-2.8-0.4-4-1.2l-0.1,0C556,260.1,553.2,255.5,558.9,247z"/>
			<g>
				<path style="fill:#FFFFFF;" d="M561.4,138c-0.7-3.5-0.5-6.8,0.6-9.9c1.6-3.7,4-5,7.3-3.8c0.6,0.2,1.1,0.4,1.8,0.8
					c4.1,2.6,7.6,6.4,10.6,11.6c0.1,0.3,0.3,0.5,0.4,0.8l0.1,0.1c0.1,0.2,0.2,0.4,0.4,0.6c0.1,0.3,0.3,0.5,0.4,0.8
					c0.3,0.6,0.6,1.1,0.8,1.7c-0.5,0.4-1,0.8-1.6,1.2c-0.4,0.3-0.8,0.6-1.2,0.8c-0.2,0.1-0.3,0.2-0.5,0.3l-0.1,0.1
					c-3.2,2.1-6.7,3.6-10.6,4.4l-0.1,0l-0.3,0.1c-1.2,0.3-2.5,0.5-3.7,0.6c-0.5-0.8-1-1.6-1.4-2.4l-0.3-0.5
					C562.8,143,561.9,140.5,561.4,138L561.4,138z"/>
				<path style="fill:#FFFFFF;" d="M609.3,134.7c0.9-3.5,2.4-6.4,4.8-8.7c3-2.7,5.7-2.8,8.2-0.4c0.4,0.4,0.8,0.9,1.3,1.5
					c2.6,4.1,4.2,9.1,4.6,15c0,0.3,0.1,0.6,0.1,0.9l0,0.1c0,0.2,0,0.5,0,0.7c0,0.3,0,0.6,0,0.9c0,0.6,0,1.2,0,1.9
					c-0.6,0.2-1.3,0.3-1.9,0.5c-0.5,0.1-0.9,0.2-1.4,0.3c-0.2,0-0.4,0.1-0.6,0.1l-0.1,0c-3.8,0.5-7.6,0.3-11.5-0.5l-0.1,0l-0.3-0.1
					c-1.2-0.3-2.4-0.6-3.6-1c-0.1-0.9-0.2-1.9-0.2-2.8c0-0.1,0-0.2,0-0.3c0-0.1,0-0.2,0-0.3C608.4,139.8,608.7,137.2,609.3,134.7
					L609.3,134.7z"/>
				<path style="fill:#47D7AC;" d="M564.2,147c0.2,0,0.3,0,0.5-0.1c0.6-0.3,0.8-0.9,0.5-1.5l-0.3-0.5c-1.2-2.3-2-4.7-2.5-7.1
					c-0.7-3.3-0.5-6.4,0.6-9.3c1.7-4,4-3.8,5.9-3.2c0.5,0.2,1,0.4,1.6,0.7c3.9,2.4,7.3,6.2,10.2,11.2c0.1,0.2,0.3,0.5,0.4,0.7
					l0.1,0.1c0.1,0.2,0.2,0.4,0.3,0.6c0.3,0.6,0.9,0.8,1.5,0.5c0.6-0.3,0.8-0.9,0.5-1.5c-0.1-0.2-0.2-0.5-0.4-0.7l0-0.1l0-0.1
					c-0.1-0.3-0.3-0.5-0.4-0.8c-3.1-5.3-6.7-9.3-11-12c-0.7-0.4-1.4-0.7-2-0.9c-2.7-0.9-6.3-0.9-8.6,4.5c-1.2,3.3-1.4,6.8-0.7,10.5
					c0.5,2.6,1.4,5.2,2.7,7.7l0.3,0.5C563.4,146.8,563.8,147,564.2,147L564.2,147z"/>
				<path style="fill:#47D7AC;" d="M628.3,145c-0.6,0-1.1-0.5-1.1-1.1l0-0.7l-0.1-1c-0.5-5.7-2-10.6-4.4-14.5
					c-0.4-0.5-0.7-0.9-1.1-1.3c-1.4-1.4-3.4-2.5-6.6,0.4c-2.2,2.1-3.7,4.9-4.5,8.2c-0.6,2.4-0.9,4.9-0.8,7.5l0,0.2
					c0,0.2,0,0.4,0,0.6c-0.1,0.6-0.7,1-1.3,0.9c-0.6-0.1-1-0.6-0.9-1.2l0-0.1l0-0.3c-0.1-2.8,0.2-5.5,0.9-8.1
					c0.9-3.7,2.6-6.8,5.1-9.2c4.4-3.9,7.7-2.3,9.7-0.4c0.5,0.4,1,1,1.4,1.7c2.7,4.2,4.3,9.4,4.8,15.5l0.1,0.9l0,0.1l0,0.9
					C629.4,144.5,628.9,145,628.3,145L628.3,145L628.3,145z"/>
				<path style="fill:#FFFFFF;" d="M554.3,152c0.3-0.4,0.6-0.8,1-1.2c7.1-8.6,16-14.1,26.7-16.6c3.4-0.7,7-1.3,11-1.6
					c0.9-0.1,1.7-0.1,2.6-0.2c1.9-0.1,3.8,0,5.7,0.1c0.1,0,0.2,0,0.3,0.1c0.1,0,0.2,0,0.4,0c0.1,0,0.2,0,0.3,0
					c7.5,0.6,14.8,2.6,22.1,6.1c10,5,16.6,12.6,19.8,22.6c0.1,0.1,0.1,0.3,0.2,0.5c0.3,0.9,0.6,1.9,0.8,2.9c0,0.2,0.1,0.3,0.1,0.5
					l0,0.1c0.9,3.9,1.3,8.2,1.3,12.8c-0.1,3.2,0.2,6.1,0.8,8.6c1.1,4,1.6,7.8,1.4,11.1c0,0.8-0.1,1.6-0.3,2.4c0,0.1,0,0.3-0.1,0.4
					c-0.1,0.6-0.2,1.2-0.4,1.8c-0.4,1.5-0.9,2.9-1.6,4.2c-0.3,0.5-0.6,1-0.9,1.4c0,0.1-0.1,0.2-0.2,0.3c-1.5,2.3-3.7,4.4-6.4,6.2
					c-0.9,0.6-1.9,1.2-2.9,1.8c-0.9,0.5-1.8,1-2.8,1.4c-7.2,3.4-15.1,5.3-23.6,5.8c-0.6,0-1.1,0.1-1.7,0.1c-3.5,0.3-7,0.3-10.4,0.1
					c-0.3,0-0.6-0.1-1-0.1c-1.5-0.1-3.1-0.2-4.6-0.4c-2.2-0.3-4.3-0.6-6.3-1c-0.3-0.1-0.5-0.1-0.8-0.2c-4.4-0.9-8.4-2.1-12.1-3.6
					l-0.2-0.1c-3.2-1.4-6.1-3-8.8-4.8c-0.4-0.3-0.9-0.6-1.3-1c-3.9-3-7.2-6.5-9.9-10.6c-2.1-3.2-3.8-6.8-5.1-10.7
					c-1.4-4.5-2.1-8.9-2.1-13.2c0-4.3,0.7-8.5,2.1-12.6c0.9-2.7,2.1-5.3,3.5-7.9c0.3-0.6,0.7-1.2,1.1-1.8c0.3-0.5,0.6-0.9,0.9-1.4
					c0.2-0.3,0.5-0.6,0.7-1c0.2-0.3,0.4-0.6,0.6-0.8C553.9,152.5,554.1,152.2,554.3,152L554.3,152z"/>
				<path style="fill:#83E8D3;" d="M546.6,167c0.1-0.5,0.3-1,0.4-1.4c0.3-0.9,0.7-1.9,1.1-2.8c-0.4-0.2-0.6-0.6-0.5-1
					c0.1-0.4,0.6-0.6,1-0.5c7.7,2.7,14.3,6.9,19.8,12.6c2.8,2.9,4.3,5.4,4.8,7.6c0.4,2.2,0.3,4.7-0.3,7.6c-0.2,0.8-0.5,1.6-0.7,2.3
					c-1.9,5.6-4.8,11.1-8.6,16.4c-0.6,0.8-1.6,2.1-3.1,3.7c-0.2,0.2-0.4,0.3-0.6,0.3c-0.2,0-0.4-0.1-0.5-0.2
					c-0.3-0.3-0.4-0.8-0.1-1.1c0,0,0,0,0,0c-2.7-2.4-5.1-5.2-7.2-8.3c-2.1-3.2-3.8-6.8-5.1-10.7c-1.4-4.5-2.1-8.9-2.1-13.2
					C544.9,174.3,545.5,170.6,546.6,167z"/>
				<path style="fill:#333333;" d="M623.7,185.9c-0.8-1.5-1.2-3.2-1.2-5.3c0-2.1,0.4-3.9,1.2-5.4c0.8-1.5,1.7-2.2,2.9-2.2
					c1.1,0,2.1,0.7,2.9,2.2c0.8,1.5,1.2,3.3,1.2,5.4c0,2.1-0.4,3.9-1.2,5.3c-0.8,1.5-1.7,2.3-2.9,2.3
					C625.5,188.2,624.5,187.4,623.7,185.9L623.7,185.9z"/>
				<path style="fill:#83E8D3;" d="M624.7,166.1L624.7,166.1c-0.6,0.2-1.2,0.1-1.8-0.2c-0.5-0.3-0.9-0.7-1.1-1.3
					c-0.2-0.6-0.1-1.2,0.2-1.8c0.3-0.5,0.7-0.9,1.2-1.1l8.4-2.4c0.6-0.1,1.1-0.1,1.7,0.2c0.5,0.3,0.9,0.8,1.1,1.4
					c0.2,0.6,0.1,1.2-0.2,1.7c-0.3,0.5-0.6,0.8-1.1,1l-0.2,0L624.7,166.1L624.7,166.1z"/>
				<path style="fill:#47D7AC;" d="M624.1,167c-0.5,0-1-0.2-1.5-0.5c-0.7-0.4-1.2-1-1.4-1.8c-0.2-0.8-0.1-1.6,0.3-2.3
					c0.4-0.7,0.9-1.2,1.7-1.5l8.4-2.4c0.8-0.2,1.5-0.1,2.3,0.3c0.7,0.4,1.2,1.1,1.4,1.9c0.2,0.8,0.1,1.6-0.2,2.3
					c-0.3,0.6-0.8,1.1-1.5,1.4c-0.1,0.1-0.2,0.1-0.3,0.1l-8.1,2.3l-0.2,0.1C624.6,167,624.3,167,624.1,167L624.1,167z M624.8,166.9
					L624.8,166.9L624.8,166.9z M625.2,166.7L625.2,166.7L625.2,166.7z M624.5,165.4l8.2-2.4l0.1,0l0,0c0.3-0.1,0.5-0.4,0.7-0.7
					c0.2-0.3,0.2-0.7,0.1-1.1c-0.1-0.4-0.3-0.7-0.7-0.9c-0.3-0.2-0.7-0.2-1.1-0.1l-8.3,2.4c-0.4,0.1-0.6,0.3-0.8,0.7
					c-0.2,0.4-0.3,0.8-0.1,1.2c0.1,0.4,0.3,0.7,0.7,0.8l0.1,0c0.3,0.2,0.6,0.3,0.9,0.2L624.5,165.4z M632.7,163L632.7,163L632.7,163
					z"/>
				<path style="fill:#83E8D3;" d="M588.6,160.5c0.5-0.3,1-0.5,1.6-0.4l8.6,1.5c0.6,0.1,1,0.4,1.3,0.9c0.4,0.6,0.5,1.1,0.4,1.7
					c-0.1,0.6-0.4,1.1-0.9,1.4c-0.5,0.4-1.1,0.6-1.7,0.4l-0.1,0l-8.5-1.5l-0.2,0c-0.5-0.1-0.9-0.5-1.2-0.9c-0.3-0.5-0.5-1-0.4-1.7
					C587.8,161.4,588.1,160.9,588.6,160.5L588.6,160.5z"/>
				<path style="fill:#47D7AC;" d="M598.3,167c-0.2,0-0.3,0-0.5,0l-0.2-0.1l-8.3-1.5c-0.1,0-0.2,0-0.4-0.1c-0.6-0.2-1.2-0.6-1.6-1.2
					c-0.5-0.7-0.6-1.4-0.5-2.3c0.1-0.8,0.6-1.5,1.3-2c0.7-0.5,1.4-0.6,2.2-0.5l8.6,1.5c0.8,0.2,1.4,0.6,1.8,1.3
					c0.5,0.7,0.6,1.5,0.5,2.3c-0.1,0.8-0.6,1.5-1.3,2C599.5,166.8,598.9,167,598.3,167L598.3,167z M597.9,166.9L597.9,166.9
					L597.9,166.9z M597.9,166.9L597.9,166.9L597.9,166.9z M597.4,166.7L597.4,166.7L597.4,166.7z M589.1,161.2
					c-0.3,0.3-0.5,0.6-0.6,1c-0.1,0.4,0,0.8,0.2,1.1c0.2,0.3,0.5,0.5,0.8,0.6l0,0l0.1,0l8.4,1.5l0.2,0.1c0.3,0,0.6-0.1,0.9-0.3
					l0.1-0.1c0.3-0.2,0.5-0.5,0.6-0.9c0.1-0.4,0-0.8-0.3-1.1c-0.2-0.3-0.5-0.5-0.8-0.6l-8.5-1.5l-0.2,0
					C589.6,160.9,589.4,161,589.1,161.2z M589.6,163.9L589.6,163.9L589.6,163.9z"/>
				<path style="fill:#83E8D3;" d="M646,170.4c0.3,2.4,0.4,4.9,0.4,7.5c-0.1,3.2,0.2,6.1,0.8,8.6c0.4,1.5,0.8,3,1,4.5
					c-2-2.5-3.6-4.7-4.9-6.4c-1.4-2-1.7-4.2-0.9-6.6C643,176.4,644.2,173.9,646,170.4L646,170.4z"/>
				<path style="fill:#83E8D3;" d="M648.2,191.9c0.2,0,0.3-0.1,0.5-0.2c0.3-0.3,0.4-0.8,0.1-1.1c-2-2.5-3.6-4.6-4.8-6.4
					c-1.3-1.8-1.5-3.7-0.8-5.9c0.5-1.6,1.7-4.1,3.5-7.5c0.2-0.4,0.1-0.9-0.3-1.1c-0.4-0.2-0.9-0.1-1.1,0.3c-1.9,3.5-3.1,6-3.6,7.8
					c-0.9,2.7-0.5,5.1,1.1,7.3c1.3,1.8,2.9,3.9,4.9,6.4C647.8,191.8,648,191.9,648.2,191.9L648.2,191.9z"/>
				<path style="fill:#47D7AC;" d="M543.8,178.1c0,4.4,0.8,9,2.2,13.6c1.4,4,3.1,7.7,5.3,11c0.5,0.8,1.1,1.6,1.6,2.3
					c0.1,0.1,0.1,0.2,0.2,0.3c0.6,0.7,1.1,1.4,1.8,2.1c0.1,0.1,0.1,0.1,0.2,0.2c0.6,0.7,1.2,1.3,1.8,1.9c0.1,0.1,0.1,0.1,0.2,0.2
					c0.6,0.6,1.3,1.2,1.9,1.8c0.1,0.1,0.1,0.1,0.2,0.2c0,0,0,0,0,0c0.7,0.6,1.4,1.2,2.2,1.8c0.5,0.3,0.9,0.7,1.4,1
					c2.7,1.9,5.8,3.5,9,4.9l0.2,0.1c3.8,1.6,7.9,2.8,12.4,3.7c0.3,0.1,0.5,0.1,0.8,0.2l0.1,0c2,0.4,4.2,0.7,6.4,1
					c1.6,0.2,3.1,0.3,4.7,0.4c0.3,0,0.6,0.1,0.9,0.1l0.1,0c1.4,0.1,2.8,0.1,4.2,0.1c2.1,0,4.3-0.1,6.4-0.2c0.6,0,1.2-0.1,1.7-0.1
					c2.3-0.1,4.6-0.4,6.8-0.7c0.2,0,0.4-0.1,0.6-0.1c0.6-0.1,1.1-0.2,1.7-0.3c0.1,0,0.1,0,0.2,0c1.2-0.2,2.3-0.5,3.4-0.8
					c2.2-0.6,4.4-1.2,6.5-2c1.6-0.6,3.2-1.3,4.7-2c0,0,0.1,0,0.1-0.1c1-0.5,1.9-0.9,2.8-1.4c1.1-0.6,2.1-1.2,3-1.8
					c2.2-1.4,4-3.1,5.5-4.9c0.4-0.5,0.8-1,1.1-1.5c0.1-0.1,0.2-0.3,0.3-0.5c0.3-0.5,0.6-0.9,0.9-1.4c0.8-1.4,1.3-2.9,1.7-4.4
					c0.2-0.6,0.3-1.3,0.4-1.9c0-0.2,0.1-0.4,0.1-0.5c0.1-0.8,0.2-1.6,0.3-2.5c0.2-2.7-0.1-5.7-0.8-8.9c0-0.2-0.1-0.3-0.1-0.5
					c-0.1-0.5-0.2-1-0.4-1.6c0-0.2-0.1-0.3-0.1-0.5c-0.1-0.4-0.2-0.8-0.3-1.2c-0.4-1.9-0.5-4-0.5-6.2c0-0.3,0-0.6,0-0.9
					c0-1.1,0-2.2-0.1-3.3c0-0.1,0-0.2,0-0.2c0-1.1-0.1-2.1-0.2-3.2c0,0,0-0.1,0-0.1c0-0.3-0.1-0.6-0.1-0.9c0,0,0-0.1,0-0.1
					c-0.2-1.8-0.5-3.5-0.9-5.2l-0.1-0.2c0-0.2-0.1-0.3-0.1-0.5c-0.2-1-0.5-2-0.8-2.9c-0.1-0.2-0.1-0.4-0.2-0.6
					c-3.3-10.3-10.1-18.1-20.4-23.2c-7.4-3.5-14.9-5.6-22.5-6.2l-0.2,0c-0.1,0-0.3,0-0.5,0c-0.1,0-0.3,0-0.4,0
					c-1.8-0.1-3.8-0.1-5.7-0.1c-0.9,0-1.7,0.1-2.6,0.2c-4,0.3-7.7,0.9-11.1,1.7c-10.9,2.5-20.1,8.2-27.3,17c-0.3,0.4-0.7,0.8-1,1.3
					l-0.1,0.1c-0.1,0.2-0.3,0.4-0.4,0.6c-0.2,0.3-0.5,0.6-0.6,0.9l-0.7,0.9l0,0.1c-0.3,0.5-0.6,0.9-0.9,1.4
					c-0.4,0.6-0.7,1.2-1.1,1.8c-0.7,1.3-1.4,2.6-2,3.9c0,0,0,0,0,0c-0.1,0.2-0.2,0.4-0.2,0.6c-0.1,0.3-0.2,0.6-0.4,0.9
					c-0.1,0.3-0.2,0.5-0.3,0.8c-0.2,0.6-0.5,1.3-0.7,1.9c-0.2,0.5-0.3,1-0.5,1.5c-0.3,1.1-0.6,2.1-0.8,3.2c0,0.1-0.1,0.3-0.1,0.4
					c-0.1,0.3-0.1,0.7-0.2,1c0,0.2-0.1,0.5-0.1,0.7c0,0.3-0.1,0.5-0.1,0.8c0,0.3-0.1,0.6-0.1,0.8c0,0.2,0,0.4-0.1,0.6
					c0,0.3-0.1,0.7-0.1,1c0,0.1,0,0.2,0,0.3C543.8,176.4,543.8,177.2,543.8,178.1z M560.4,209.8c-0.6-0.5-1.2-1-1.7-1.6
					c-0.1-0.1-0.2-0.2-0.3-0.4c-0.5-0.5-1-1.1-1.5-1.6c-0.1-0.1-0.2-0.2-0.3-0.3c-0.6-0.7-1.1-1.3-1.7-2c-0.1-0.1-0.1-0.2-0.2-0.2
					c-0.5-0.7-1.1-1.4-1.6-2.2c-2-3.1-3.7-6.7-5-10.4c-1.4-4.3-2.1-8.7-2.1-12.9c0-0.9,0-1.8,0.1-2.7c0,0,0,0,0,0
					c0-0.4,0.1-0.7,0.1-1.1c0-0.1,0-0.2,0-0.4c0-0.3,0.1-0.6,0.1-0.9c0-0.2,0.1-0.4,0.1-0.6c0-0.2,0.1-0.5,0.1-0.7
					c0.1-0.3,0.1-0.6,0.2-0.9c0-0.2,0.1-0.3,0.1-0.5c0.3-1.5,0.7-2.9,1.2-4.4c0.2-0.6,0.4-1.2,0.7-1.8c0.1-0.3,0.3-0.7,0.4-1
					c0.7-1.6,1.5-3.2,2.3-4.8c0.3-0.6,0.7-1.2,1-1.7c0.3-0.4,0.6-0.9,0.8-1.3l0.7-0.9l0.1-0.1c0.1-0.2,0.3-0.5,0.5-0.7
					c0.2-0.3,0.4-0.6,0.6-0.9c0.3-0.4,0.6-0.8,0.9-1.1c6.9-8.4,15.7-13.8,26.1-16.2c3.3-0.7,6.9-1.3,10.8-1.6
					c0.8-0.1,1.7-0.1,2.5-0.2c1.9-0.1,3.8,0,5.6,0.1c0.1,0,0.2,0.1,0.4,0.1c0.1,0,0.1,0,0.2,0c0.1,0,0.3,0.1,0.4,0.1
					c7.3,0.6,14.6,2.6,21.6,6c9.7,4.8,16.2,12.2,19.2,21.9l0,0.1c0,0.1,0.1,0.2,0.1,0.3l0,0.1c0.3,0.9,0.5,1.8,0.8,2.8
					c0,0.1,0.1,0.3,0.1,0.4l0,0.2l0,0c0.4,1.9,0.8,3.9,1,6c0,0,0,0.1,0,0.1c0.1,1,0.2,2,0.2,3c0,0.1,0,0.2,0,0.3c0,1,0.1,2,0.1,3.1
					c0,0.1,0,0.3,0,0.4c-0.1,3.1,0.2,6,0.9,8.5v0c0.1,0.2,0.1,0.4,0.2,0.6c0.1,0.4,0.2,0.9,0.3,1.3c0,0.2,0.1,0.3,0.1,0.5
					c0.1,0.7,0.3,1.3,0.4,1.9c0,0,0,0,0,0c0.4,2.3,0.5,4.4,0.4,6.4c0,0.8-0.1,1.6-0.2,2.3l0,0.2l0,0.1l0,0.2
					c-0.1,0.5-0.2,1.1-0.3,1.5l0,0.1c-0.4,1.4-0.9,2.7-1.5,4c-0.2,0.4-0.5,0.9-0.8,1.3l-0.1,0.2l-0.1,0.1c-0.6,0.9-1.3,1.8-2.2,2.7
					c-1.1,1.1-2.4,2.2-3.8,3.1c-0.9,0.6-1.8,1.2-2.9,1.7c-0.2,0.1-0.4,0.2-0.6,0.3c-0.7,0.4-1.4,0.8-2.2,1.1
					c-3.9,1.8-8,3.2-12.3,4.2c-0.9,0.2-1.8,0.4-2.7,0.6c-0.3,0-0.5,0.1-0.8,0.1c-0.5,0.1-1,0.2-1.6,0.3c-1.9,0.3-3.9,0.5-5.9,0.6
					c-0.6,0.1-1.1,0.1-1.7,0.1c-3.4,0.3-6.9,0.3-10.3,0.1c-0.3,0-0.7-0.1-1-0.1c-1.5-0.1-3.1-0.3-4.6-0.4c-2.1-0.3-4.2-0.6-6.2-0.9
					c-0.3-0.1-0.6-0.1-0.9-0.2c-4.2-0.9-8.3-2.1-11.9-3.6l-0.2-0.1c-3.1-1.3-6-2.9-8.6-4.7c-0.4-0.3-0.9-0.6-1.3-1
					C562,211.1,561.2,210.4,560.4,209.8z"/>
				<g>
					<path style="fill:#333333;" d="M615.1,201c0.2,0,0.4,0,0.6,0c2.4-0.3,3.7-2.6,3.8-2.7c0.2-0.3,0.1-0.7-0.2-0.9
						c-0.3-0.2-0.7-0.1-0.9,0.2c0,0-1.1,1.8-2.8,2c-1.3,0.2-2.8-0.6-4.4-2.2c-0.2-0.3-0.7-0.3-0.9,0c-0.3,0.2-0.3,0.7,0,0.9
						C611.9,200.1,613.5,201,615.1,201z"/>
				</g>
				<path style="fill:#333333;" d="M589.6,190.8c-0.6,0-1.2-0.3-1.5-0.9c-0.4-0.8,0-1.8,0.8-2.1l6.3-3l-6.8-3.1
					c-0.8-0.4-1.2-1.3-0.8-2.1c0.4-0.8,1.3-1.2,2.1-0.8l9.9,4.6c0.6,0.3,0.9,0.8,0.9,1.5c0,0.6-0.4,1.2-0.9,1.5l-9.5,4.4
					C590.1,190.7,589.8,190.8,589.6,190.8"/>
			</g>
			<path style="fill:#47D7AC;" d="M615,263.6c0.3-0.1,7.3-3.2,8.8-11.8c1.6-8.8-5.4-20.4-5.5-20.5c-0.3-0.4-0.1-1,0.3-1.3
				c0.4-0.3,1-0.1,1.3,0.3c0.2,0.3,2.6,4.3,4.3,9.5c0.2,0.1,0.4,0.2,0.6,0.3c5.9,3,11.7,4.1,17.5,3.2c1.8-0.3,3.4-0.9,4.8-1.7
				c2.4-1.5,4.4-4,5.8-7.5c1-2.4,1.5-5.1,1.5-8c0-4.2-1.6-8.1-4.6-11.6c-0.6-0.6-1.2-1.1-2-1.6c-1.4-0.9-2.7-1.4-4.1-1.5
				c-0.5,0-1,0-1.6,0c-0.3,0-0.7,0.1-1,0.2c-0.5,0.1-0.9,0.3-1.3,0.4c-1.1,0.4-2,1.1-2.8,2c-0.6,0.6-1,1.3-1.5,2.2
				c-0.1,0.2-0.2,0.4-0.3,0.7c-0.1,0.2-0.2,0.4-0.3,0.6c0,0.1-0.1,0.2-0.1,0.3c-0.7,2.1-0.7,4.3-0.1,6.5c0.5,1.8,1.3,3.4,2.5,4.7
				l0.1,0.1c0.6,0.7,1.3,1.3,2,1.8l0.1,0.1c1.3,0.8,2.6,1.3,4,1.5c0.7,0.1,1.4,0.1,2.2,0c0.6-0.1,1.1,0.3,1.2,0.9
				c0.1,0.6-0.3,1.1-0.9,1.2c-0.9,0.1-1.9,0.2-2.7,0.1c-1.7-0.2-3.3-0.8-4.9-1.8l-0.1,0c-0.9-0.6-1.7-1.2-2.3-2
				c-5.3-1.2-10.2-3.9-14.6-7.9c0,0,0,0,0,0c-0.1-0.1-0.1-0.1-0.2-0.2c0.2,0,0.5-0.1,0.7-0.2c0.6-0.2,1.2-0.3,1.8-0.5
				c0.1,0,0.1,0.1,0.2,0.1c0,0,0,0,0,0c1.1,1,2.3,1.8,3.5,2.6c2.1,1.3,4.3,2.4,6.5,3.1c-0.5-0.9-0.9-1.9-1.2-3c-0.5-2-0.7-4-0.4-5.9
				c0.1-0.5,0.2-0.9,0.3-1.4c0.1-0.3,0.2-0.6,0.3-0.8c0.1-0.2,0.1-0.4,0.3-0.6c0-0.1,0.1-0.2,0.1-0.3c1.5-3.4,4.1-5.6,7.5-6.5
				c0.7-0.2,1.4-0.3,2.1-0.3c0.5,0,0.9,0,1.4,0c0.4,0,0.8,0.1,1.2,0.2c1.3,0.3,2.5,0.8,3.8,1.7c0.9,0.6,1.7,1.2,2.4,2
				c3.4,3.9,5.2,8.3,5.2,13c0,3.2-0.5,6.1-1.6,8.8c-1.6,3.9-3.9,6.8-6.7,8.6c-1.1,0.7-2.4,1.2-3.8,1.6c-0.6,0.2-1.2,0.3-1.8,0.4
				c-5.7,0.9-11.5,0-17.2-2.6c-0.1-0.1-0.2-0.1-0.4-0.2c0.8,3.1,1.1,6.4,0.6,9.5c-1.7,9.6-9.6,13-9.9,13.2c-0.1,0-0.2,0.1-0.4,0.1
				c-0.4,0-0.7-0.2-0.8-0.6C614.3,264.4,614.5,263.8,615,263.6z"/>
			<path style="fill:#83E8D3;" d="M634.1,220.5c0,3.2,2.3,4.5,5.8,4.5c3.5,0,9.2-3.3,9.2-7c0-3.7-2.6-6.6-6.1-6.6
				C639.5,211.4,634.2,213.6,634.1,220.5z"/>
		</g>
	</g>
</g>
<g>
</g>
<g>
</g>
<g>
</g>
<g>
</g>
<g>
</g>
<g>
</g>
<g>
</g>
<g>
</g>
<g>
</g>
<g>
</g>
<g>
</g>
<g>
</g>
<g>
</g>
<g>
</g>
<g>
</g>
</svg>
