<?xml version="1.0" encoding="utf-8"?>
<!-- Generator: Adobe Illustrator 25.2.0, SVG Export Plug-In . SVG Version: 6.00 Build 0)  -->
<svg version="1.1" id="레이어_1" xmlns="http://www.w3.org/2000/svg" xmlns:xlink="http://www.w3.org/1999/xlink" x="0px"
	 y="0px" viewBox="0 0 1600 900" style="enable-background:new 0 0 1600 900;" xml:space="preserve">
<rect style="fill:#FFFFFF;" width="1600" height="900"/>
<linearGradient id="SVGID_1_" gradientUnits="userSpaceOnUse" x1="800" y1="-132" x2="800" y2="768" gradientTransform="matrix(1 0 0 1 0 132)">
	<stop  offset="0" style="stop-color:#FFFFFF"/>
	<stop  offset="0" style="stop-color:#FFFFFF;stop-opacity:0"/>
	<stop  offset="9.514225e-02" style="stop-color:#F9FEFD;stop-opacity:9.514226e-03"/>
	<stop  offset="0.2244" style="stop-color:#E7F9F6;stop-opacity:2.244384e-02"/>
	<stop  offset="0.3734" style="stop-color:#CBF2EB;stop-opacity:3.733708e-02"/>
	<stop  offset="0.5371" style="stop-color:#A3E9DD;stop-opacity:5.370532e-02"/>
	<stop  offset="0.7127" style="stop-color:#70DCC9;stop-opacity:7.127271e-02"/>
	<stop  offset="0.8957" style="stop-color:#32CDB2;stop-opacity:8.956538e-02"/>
	<stop  offset="1" style="stop-color:#0CC4A4;stop-opacity:0.1"/>
</linearGradient>
<rect style="fill:url(#SVGID_1_);" width="1600" height="900"/>
<rect style="fill:#FADCE0;" width="1600" height="900"/>
<linearGradient id="SVGID_2_" gradientUnits="userSpaceOnUse" x1="800" y1="-132.5" x2="800" y2="768.5" gradientTransform="matrix(1 0 0 1 0 132)">
	<stop  offset="0" style="stop-color:#FFFFFF"/>
	<stop  offset="0" style="stop-color:#FFFFFF;stop-opacity:0"/>
	<stop  offset="9.514225e-02" style="stop-color:#F9FEFD;stop-opacity:9.514226e-03"/>
	<stop  offset="0.2244" style="stop-color:#E7F9F6;stop-opacity:2.244384e-02"/>
	<stop  offset="0.3734" style="stop-color:#CBF2EB;stop-opacity:3.733708e-02"/>
	<stop  offset="0.5371" style="stop-color:#A3E9DD;stop-opacity:5.370532e-02"/>
	<stop  offset="0.7127" style="stop-color:#70DCC9;stop-opacity:7.127271e-02"/>
	<stop  offset="0.8957" style="stop-color:#32CDB2;stop-opacity:8.956538e-02"/>
	<stop  offset="1" style="stop-color:#0CC4A4;stop-opacity:0.1"/>
</linearGradient>
<rect style="fill:none;stroke:url(#SVGID_2_);stroke-miterlimit:10;" width="1600" height="900"/>
<linearGradient id="SVGID_3_" gradientUnits="userSpaceOnUse" x1="800" y1="-132.5" x2="800" y2="768.5" gradientTransform="matrix(1 0 0 1 0 132)">
	<stop  offset="0" style="stop-color:#FFFFFF"/>
	<stop  offset="0" style="stop-color:#FFFFFF;stop-opacity:0"/>
	<stop  offset="0.1253" style="stop-color:#FEF9FA;stop-opacity:1.253017e-02"/>
	<stop  offset="0.2955" style="stop-color:#FCE7EB;stop-opacity:2.954947e-02"/>
	<stop  offset="0.4915" style="stop-color:#F8CBD3;stop-opacity:4.914898e-02"/>
	<stop  offset="0.7067" style="stop-color:#F3A3B1;stop-opacity:7.067242e-02"/>
	<stop  offset="0.9352" style="stop-color:#EC7186;stop-opacity:9.351528e-02"/>
	<stop  offset="1" style="stop-color:#EA6179;stop-opacity:0.1"/>
</linearGradient>
<rect style="fill:none;stroke:url(#SVGID_3_);stroke-miterlimit:10;" width="1600" height="900"/>
<g style="opacity:0.1;">
	<path d="M810.1,478.9c3.3,8,12.6,21.8,38.5,35.2c0,0-72.5-2.8-127.6-50.4C684.3,443.2,810.1,478.9,810.1,478.9z"/>
	<path d="M330.9,482.2h452.7c97,0,175.6-78.6,175.6-175.6l0,0c0-95.8-77.7-173.6-173.6-173.6H330.9c-95.8,0-173.6,77.7-173.6,173.6
		v2C157.4,404.5,235.1,482.2,330.9,482.2z"/>
</g>
<g>
	<path style="fill:#FFFFFF;" d="M823.9,470.1c3.3,8,12.6,21.8,38.5,35.2c0,0-72.5-2.8-127.6-50.4
		C698.1,434.4,823.9,470.1,823.9,470.1z"/>
	<path style="fill:#FFFFFF;" d="M344.8,473.4h452.7c97,0,175.6-78.6,175.6-175.6l0,0c0-95.8-77.7-173.6-173.6-173.6H344.8
		c-95.8,0-173.6,77.7-173.6,173.6v2C171.2,395.7,248.9,473.4,344.8,473.4z"/>
</g>
<g>
	<g>
		<path style="fill:#F4F2F2;" d="M1425.8,583.5c0,0,0.3,10.5,2,17.5c9.3,5.1,21.8,6.8,21.8,6.8s2.8-7.9,2.8-17.5
			C1452.4,590.3,1443.9,583.8,1425.8,583.5"/>
		<path style="fill:#D5D3CC;" d="M1425.8,583.5l-3.1,0.1c0,0,0.1,2.7,0.4,6.3s0.8,8.1,1.7,11.9c0.2,0.8,0.8,1.6,1.5,2
			c5,2.7,10.7,4.5,15.1,5.6s7.6,1.5,7.7,1.5c1.4,0.2,2.8-0.6,3.3-2c0.1-0.2,3-8.4,3-18.6c0-1-0.4-1.9-1.2-2.4
			c-0.4-0.3-9.6-7.1-28.4-7.4c-0.8,0-1.7,0.3-2.2,0.9c-0.6,0.6-0.9,1.4-0.9,2.3L1425.8,583.5v3.1c8.7,0.1,15,1.8,19,3.3
			c2,0.8,3.5,1.5,4.5,2.1c0.5,0.3,0.8,0.5,1,0.6l0.2,0.1l0,0l0.7-0.9l-0.7,0.9l0,0l0.7-0.9l-0.7,0.9l1.9-2.4h-3.1
			c0,4.5-0.7,8.7-1.3,11.7c-0.3,1.5-0.7,2.7-0.9,3.6c-0.1,0.4-0.2,0.7-0.3,0.9l-0.1,0.2v0.1l2.9,1l0.4-3.1h-0.1
			c-0.6-0.1-3.7-0.6-7.7-1.6s-8.8-2.6-12.9-4.8l-1.5,2.7l3-0.7c-0.8-3.3-1.3-7.5-1.5-10.9c-0.1-1.7-0.2-3.2-0.3-4.3
			c0-0.5,0-1-0.1-1.2c0-0.3,0-0.4,0-0.4L1425.8,583.5v3.1V583.5z"/>
		<path style="fill:#B1DDE8;" d="M1337.9,342.8c-0.4,5.3,2.6,12.8,5.7,15.5c0,0,19.2-5.3,27.9-7.2c0,0-4.5-9-4.9-15.8
			C1366.6,335.3,1348.9,339.8,1337.9,342.8"/>
		<path style="fill:#88CDD3;" d="M1337.9,342.8l-3.1-0.2c0,0.4,0,0.8,0,1.1c0,3.2,0.8,6.4,2,9.4s2.7,5.6,4.7,7.4
			c0.8,0.7,1.8,0.9,2.9,0.7c0,0,1.2-0.3,3.1-0.8c5.8-1.6,18.3-4.9,24.6-6.3c0.9-0.2,1.7-0.8,2.1-1.7c0.4-0.9,0.4-1.9,0-2.7v-0.1
			c-0.2-0.4-1.3-2.7-2.4-5.6s-2.1-6.4-2.2-9c-0.1-0.9-0.5-1.8-1.3-2.3c-0.7-0.5-1.7-0.7-2.6-0.5c0,0-17.7,4.5-28.7,7.6
			c-1.3,0.4-2.2,1.5-2.3,2.8L1337.9,342.8l0.8,3c5.4-1.5,12.6-3.4,18.4-4.9s10.2-2.6,10.2-2.6l-0.8-3l-3.1,0.2
			c0.2,4,1.6,8.1,2.8,11.4c1.2,3.3,2.4,5.6,2.4,5.7l2.8-1.4l-0.7-3c-8.9,1.9-28,7.2-28.1,7.2l0.8,3l2-2.3c-0.8-0.7-2.2-2.7-3.1-5.1
			c-1-2.4-1.6-5.1-1.6-7.1v-0.7L1337.9,342.8l0.8,3L1337.9,342.8z"/>
		<path style="fill:#C9E0B5;" d="M1438.7,482.5c0,0-7,5.5-11.3,12c0,0,5.5,11.3,12.3,17.5c0,0,8.9-6.5,13.2-12.6
			C1452.8,499.3,1444.8,489.6,1438.7,482.5"/>
		<path style="fill:#84C071;" d="M1438.7,482.5l-1.9-2.4c-0.1,0.1-7.3,5.7-12,12.7c-0.6,0.9-0.7,2.1-0.2,3.1c0,0.1,1.4,3,3.7,6.7
			c2.3,3.7,5.5,8.3,9.2,11.7c1.1,1,2.7,1.1,3.9,0.2c0.1,0,2.3-1.7,5.2-4.2c2.9-2.5,6.3-5.7,8.7-9.2c0.8-1.1,0.7-2.7-0.1-3.7
			c0,0-8-9.7-14.2-16.8c-1.1-1.2-2.9-1.4-4.2-0.4L1438.7,482.5l-2.3,2c3,3.5,6.6,7.7,9.3,11c2.8,3.3,4.8,5.7,4.8,5.7l2.4-2l-2.5-1.8
			c-1.9,2.7-5,5.8-7.7,8.1c-1.3,1.2-2.6,2.1-3.4,2.8c-0.4,0.3-0.8,0.6-1,0.8l-0.3,0.2l-0.1,0.1l1.8,2.5l2.1-2.3
			c-3-2.7-6-6.9-8.1-10.4c-1.1-1.7-1.9-3.3-2.5-4.4c-0.3-0.6-0.5-1-0.7-1.3l-0.2-0.3l-0.1-0.1l-2.8,1.4l2.6,1.7
			c1.9-2.9,4.6-5.8,6.8-7.9c1.1-1,2.1-1.9,2.8-2.5c0.3-0.3,0.6-0.5,0.8-0.7l0.2-0.2h0.1L1438.7,482.5l-2.3,2L1438.7,482.5z"/>
		<path style="fill:#EA5045;" d="M1059.3,333.6c0,0-8.7,2.4-16.9,8.1c0,0,0.6,14.1,1.4,23.2c0,0,6.3-7.4,18.7-12.2
			C1062.6,352.8,1061.9,341.2,1059.3,333.6"/>
		<path style="fill:#E7343F;" d="M1059.3,333.6l-0.8-3c-0.2,0.1-9.1,2.5-17.8,8.5c-0.9,0.6-1.4,1.6-1.3,2.7c0,0,0.6,14.2,1.4,23.4
			c0.1,1.2,1,2.3,2.1,2.7c1.2,0.4,2.5,0,3.3-0.9l-0.3-0.2l0.2,0.2l0,0l-0.3-0.2l0.2,0.2c0.2-0.2,6.1-6.9,17.5-11.3
			c1.2-0.5,2-1.7,2-3c0-0.1-0.2-3-0.7-7s-1.3-8.9-2.7-13c-0.5-1.5-2.2-2.4-3.7-2L1059.3,333.6l-2.9,1c1.2,3.4,2,8,2.4,11.8
			c0.2,1.9,0.4,3.5,0.5,4.7c0,0.6,0.1,1.1,0.1,1.4s0,0.5,0,0.5l3.1-0.2l-1.1-2.9c-13.1,5.1-19.7,12.8-20,13l2.3,2l3.1-0.3
			c-0.4-4.4-0.8-10.2-1-14.9c-0.2-4.7-0.4-8.2-0.4-8.2l-3.1,0.1l1.8,2.5c3.8-2.7,7.9-4.6,11-5.8c1.5-0.6,2.8-1.1,3.7-1.4
			c0.4-0.2,0.8-0.3,1-0.3l0.3-0.1h0.1L1059.3,333.6l-2.9,1L1059.3,333.6z"/>
		<path style="fill:#73CAEA;" d="M929.4,397.2c0,0-7.4,6.8-12.4,15c0,0,4,4.8,8.5,8.2c0,0,7.4-9.3,13.9-14.4
			C939.3,406,935,401.2,929.4,397.2"/>
		<path style="fill:#50B3D8;" d="M929.4,397.2l-2.1-2.3c-0.1,0.1-7.6,7-13,15.6c-0.7,1.1-0.6,2.6,0.2,3.6c0.1,0.1,4.1,5,9,8.7
			c1.3,1,3.2,0.8,4.3-0.6l0.3-0.4c0.7-0.9,2.6-3.2,5.1-5.9c2.4-2.6,5.4-5.6,8-7.6c0.7-0.5,1.1-1.3,1.2-2.1c0.1-0.8-0.2-1.7-0.8-2.3
			c-0.1-0.1-4.4-5-10.4-9.3c-1.2-0.8-2.8-0.7-3.9,0.3L929.4,397.2l-1.8,2.5c2.6,1.9,5,3.9,6.7,5.6c0.8,0.8,1.5,1.5,2,2l0.5,0.6
			l0.1,0.1l0,0l2.3-2l-1.9-2.4c-3.5,2.8-7.1,6.5-9.8,9.5s-4.6,5.4-4.6,5.5l2.4,1.9l1.9-2.5c-2.1-1.5-4.1-3.5-5.6-5
			c-0.7-0.8-1.4-1.5-1.8-1.9l-0.5-0.5l-0.2-0.2l-2.4,2l2.6,1.6c2.4-3.9,5.4-7.5,7.8-10.1c1.2-1.3,2.2-2.4,3-3.1
			c0.4-0.4,0.7-0.7,0.9-0.8l0.2-0.2l0.1-0.1L929.4,397.2l-1.8,2.5L929.4,397.2z"/>
		<path style="fill:#FEDEA9;" d="M1035.9,436.7c0,0-7.6,5.4-13.9,12.2c0,0,7.1,8.5,13.9,15.3c0,0,9.9-8.2,15.3-13.6
			C1051.2,450.6,1045,442.6,1035.9,436.7"/>
		<path style="fill:#FDC75F;" d="M1035.9,436.7l-1.8-2.5c-0.1,0.1-7.8,5.5-14.4,12.6c-1,1.1-1.1,2.9-0.1,4.1c0,0,7.1,8.6,14.1,15.5
			c1.1,1.1,2.9,1.2,4.1,0.2c0,0,9.9-8.2,15.5-13.8c1.1-1.1,1.2-2.9,0.2-4.1c-0.1-0.1-6.5-8.3-16-14.5c-1.1-0.7-2.4-0.7-3.5,0.1
			L1035.9,436.7l-1.7,2.6c4.3,2.8,8,6.1,10.5,8.7c1.3,1.3,2.3,2.4,3,3.2c0.3,0.4,0.6,0.7,0.8,0.9l0.2,0.2l0.1,0.1l2.4-1.9l-2.2-2.2
			c-2.6,2.6-6.4,6-9.5,8.6c-1.6,1.4-3,2.5-4,3.4c-1,0.8-1.6,1.4-1.6,1.4l2,2.4l2.2-2.2c-3.3-3.3-6.8-7.1-9.3-10
			c-1.3-1.5-2.4-2.7-3.1-3.6c-0.8-0.9-1.2-1.4-1.2-1.4l-2.4,2l2.3,2.1c3-3.2,6.3-6.2,8.9-8.3c1.3-1.1,2.4-1.9,3.2-2.5
			c0.4-0.3,0.7-0.5,0.9-0.7l0.3-0.2L1035.9,436.7l-1.7,2.6L1035.9,436.7z"/>
		<path style="fill:#F4F2F2;" d="M956.4,460c0,0,4.2,12.3,8.5,21.9c0,0,10.2-2,20.7-5.1c0,0-6.8-12.7-10.5-18.4
			C975.1,458.5,963.5,459.2,956.4,460"/>
		<path style="fill:#D5D3CC;" d="M956.4,460l-2.9,1c0,0,4.3,12.4,8.6,22.2c0.6,1.3,2,2.1,3.4,1.8c0.1,0,10.3-2,20.9-5.2
			c0.9-0.3,1.6-0.9,2-1.8s0.3-1.8-0.1-2.6c0,0-1.7-3.2-3.9-7.1s-4.8-8.5-6.7-11.5c-0.6-0.9-1.7-1.5-2.8-1.4c0,0-11.6,0.7-18.9,1.6
			c-0.9,0.1-1.7,0.6-2.2,1.4s-0.6,1.8-0.3,2.6L956.4,460l0.4,3.1c3.4-0.4,8.1-0.8,11.8-1.1c3.8-0.3,6.6-0.4,6.6-0.4l-0.2-3.1
			l-2.6,1.7c1.7,2.7,4.4,7.3,6.5,11.1c1.1,1.9,2,3.7,2.7,5s1.1,2.1,1.1,2.1l2.7-1.5l-0.9-3c-5.1,1.5-10.2,2.8-14.1,3.7
			c-1.9,0.4-3.5,0.8-4.6,1s-1.7,0.4-1.7,0.4l0.6,3l2.8-1.2c-2.1-4.7-4.2-10.2-5.8-14.4c-0.8-2.1-1.4-4-1.9-5.2c-0.5-1.3-0.7-2-0.7-2
			L956.4,460l0.4,3.1L956.4,460z"/>
		<path style="fill:#EA5045;" d="M908.2,623.2c0,0,2.5,6.8,6.2,11.9c0,0,13.3-9.6,22.4-15.3c0,0-3.1-7.6-5.9-11.9
			C930.8,607.9,918.4,615.2,908.2,623.2"/>
		<path style="fill:#E7343F;" d="M908.2,623.2l-2.9,1.1c0.1,0.1,2.6,7,6.6,12.6c0.5,0.7,1.2,1.1,2,1.2c0.8,0.1,1.6-0.1,2.3-0.5
			c0,0,0.8-0.6,2.2-1.6c4.1-3,13.3-9.4,20-13.6c1.3-0.8,1.8-2.4,1.2-3.8c0,0-0.8-2-2-4.5s-2.7-5.6-4.3-8c-0.9-1.4-2.7-1.8-4.1-0.9
			c-0.1,0-12.6,7.4-23,15.5c-1.1,0.8-1.5,2.3-1,3.5L908.2,623.2l1.9,2.4c5-3.9,10.6-7.7,14.9-10.5c2.2-1.4,4-2.6,5.3-3.4
			c0.7-0.4,1.2-0.7,1.5-0.9c0.4-0.2,0.5-0.3,0.5-0.3l-1.6-2.7l-2.6,1.7c1.2,1.9,2.7,4.8,3.8,7.1c0.6,1.2,1,2.3,1.3,3
			c0.2,0.4,0.3,0.7,0.4,0.9l0.1,0.3l2.9-1.2L935,617c-9.2,5.8-22.5,15.4-22.5,15.4l1.8,2.5l2.5-1.8c-1.7-2.3-3.2-5.1-4.2-7.4
			c-0.5-1.1-0.9-2.1-1.2-2.8c-0.1-0.3-0.2-0.6-0.3-0.8l-0.1-0.3L908.2,623.2l1.9,2.4L908.2,623.2z"/>
		<path style="fill:#FEDEA9;" d="M949.3,726.1c0,0-5.1,2.5-11.9,8.2c7.6,11.3,17.3,14.1,17.3,14.1c8.5-3.1,12.7-9.6,12.7-9.6
			S958.6,732.4,949.3,726.1"/>
		<path style="fill:#FDC75F;" d="M949.3,726.1l-1.4-2.8c-0.2,0.1-5.5,2.7-12.5,8.6c-1.2,1-1.5,2.8-0.6,4.1
			c8.2,12.1,18.5,15.3,18.9,15.4c0.6,0.2,1.3,0.2,1.9-0.1c9.5-3.5,14-10.6,14.3-10.8c0.9-1.4,0.6-3.2-0.7-4.2c0,0-8.8-6.5-18.2-12.8
			c-0.9-0.6-2.1-0.7-3.1-0.2L949.3,726.1l-1.7,2.6c4.6,3.1,9.1,6.2,12.5,8.6c1.7,1.2,3,2.2,4,2.9s1.5,1.1,1.5,1.1l1.8-2.5l-2.6-1.7
			l0.8,0.5l-0.8-0.6l0,0l0.8,0.5l-0.8-0.6c-0.1,0.1-4,5.8-11.2,8.4l1.1,2.9l0.9-3l-0.3,0.9l0.3-0.9l0,0l-0.3,0.9l0.3-0.9
			c-0.2-0.1-8.7-2.8-15.6-12.9l-2.6,1.7l2,2.4c3.3-2.7,6.1-4.7,8.2-6c1-0.6,1.8-1.1,2.4-1.4l0.6-0.3l0.1-0.1l0,0L949.3,726.1
			l-1.7,2.6L949.3,726.1z"/>
	</g>
	<g>
		<path style="fill:#83E8D3;" d="M1120.8,680.6l16.3-22.6c-26.6-39.9-56.1-74.1-88.6-102.6c-19.5-17.5-35.6-19.5-48.2-6.2
			c-3.4,4-5.2,8.5-5.4,13.4c-0.3,5.4,1.4,11.4,5.1,17.8c3.7,6.1,8.6,11.9,14.8,17.3C1031.9,613.3,1067.2,640.9,1120.8,680.6"/>
		<path style="fill:#47D7AC;" d="M991.2,560c0.7-4.8,2.7-9.3,6.1-13.3l0.2-0.2c9.8-10.4,27.2-17.7,53.7,6
			c32.5,28.6,62.5,63.4,89.2,103.3c0.9,1.4,0.9,3.1-0.1,4.4l-16.3,22.6c-0.6,0.8-1.5,1.4-2.6,1.6c-1,0.2-2.1-0.1-2.9-0.7
			c-53.5-39.6-89.2-67.6-106.4-83.1c-6.4-5.7-11.6-11.8-15.5-18.2c-4.1-7.2-6-13.9-5.6-20.1C991.1,561.6,991.1,560.8,991.2,560
			 M1003.2,551.8c-2.8,3.4-4.2,6.9-4.5,11c-0.3,4.7,1.2,9.9,4.6,15.7c3.4,5.6,8.2,11.2,14,16.4c16.6,15.1,51.1,42.1,102.6,80.3
			l12.4-17.2c-25.9-38.4-55-71.9-86.4-99.6C1019.7,534.9,1007.4,547.5,1003.2,551.8z"/>
	</g>
	<g>
		<path style="fill:#83E8D3;" d="M1253.1,779.3l67.4,14c1.3,4.3,3.9,7.2,7.8,8.5c6,2,10.4-2.1,13.3-12.3c2.9-9.9,5-19,6.3-27.2
			c1.5-9.3-4-14.3-16.4-15.3l-65.6-19L1253.1,779.3L1253.1,779.3z"/>
		<path style="fill:#47D7AC;" d="M1266.9,724.8l8.1,2.4l3.8,1.1l0.8,0.2l0,0l4.3,1.2h0.1l10.7,3.1l1.5,0.4l1.5,0.4l0,0l34.6,10
			c7.9,0.6,13.3,2.9,16.4,6.8c2.6,3.2,3.4,7.3,2.7,12.3c-0.9,5.4-2.1,11.2-3.6,17.4c-0.8,3.3-1.8,6.8-2.8,10.2
			c-2.1,7.4-5.1,11.9-9,14c-1.3,0.7-2.6,1-4,1.1c-1.5,0.1-3-0.1-4.7-0.6c-2.3-0.8-4.2-2-5.8-3.5c-1.5-1.4-2.6-3.2-3.5-5.3l-22.1-4.6
			l-2.4-0.5l-7.9-1.6l-1.8-0.4l-0.5-0.1l-1-0.2l-1.5-0.3l-1.8-0.4l-16.2-3.4l-1-0.2l-3.2-0.7h-0.1l-6-1.2c-0.5-0.1-0.9-0.3-1.3-0.5
			l0,0c-0.4-0.3-0.7-0.6-0.9-1c-0.4-0.7-0.6-1.6-0.4-2.4c0.4-1.8,2.2-3,4-2.6h0.1l10.6,2.2l17.8,3.7l1.3,0.3h0.1c0.1,0,0.1,0,0.2,0
			c0,0,0,0,0.1,0l0,0l0.5,0.1l0.9,0.2l9.5,2l2.6,0.5l23.7,4.9c1.2,0.2,2.2,1.1,2.5,2.3c1,3.3,2.8,5.3,5.7,6.3
			c1.7,0.6,2.7,0.2,3.3-0.1c1.5-0.8,3.7-3.1,5.6-9.9c2.8-9.7,4.9-18.8,6.2-26.8c0.5-3,0.1-5.3-1.3-7c-1.9-2.4-5.9-3.9-11.8-4.4
			c-0.3,0-0.6,0-0.9-0.1l-32.6-9.5h-0.1l-2.1-0.6l-2.9-0.9l-8.1-2.4l-2.1-0.6l0,0l-2.3-0.7h-0.1l-3.5-1L1265,731h-0.1
			c-1.8-0.5-2.8-2.4-2.3-4.2C1263.2,725.3,1265.1,724.3,1266.9,724.8z"/>
	</g>
	<path style="fill:#83E8D3;" d="M1188.7,624.9v-25.1h-38.5c-14.8,24.5-26.8,47.3-35.9,68.3c-6.6,15.1-12.9,22.1-15.7,34.8
		c-8.8,38.8,1.5,73,27.9,89l26.2-12.9l13.8,26.4c6.9,0.2,12.5,0.4,16.9,0.6c1.7,0,3.4,0,5.1,0h0.6c4.3-0.1,8.5-0.4,12.6-0.9
		l22.7-3.7l20.9-9.5c1.7-1,3.3-2.1,4.9-3.2c22.6-16.4,29.8-42.7,21.5-79c-2.9-12.7-7.6-26.5-14.2-41.6l-46.6-43.2L1188.7,624.9"/>
	<path style="fill:#47D7AC;" d="M1189,810.2L1189,810.2h-5.7c-4.5-0.2-10.2-0.4-17-0.6c-2.2-0.1-4-2-3.9-4.2s2-4,4.2-3.9
		c6.9,0.2,12.5,0.4,16.9,0.6h5h0.6c2.2,0,4,1.9,4,4.1C1193.1,808.4,1191.2,810.2,1189,810.2z"/>
	<path style="fill:#1CB594;" d="M1197.6,725.9c-0.1-4.5-1-8.7-2.7-12.8c-1.7-4.2-4.1-7.7-7.1-10.6c-6.5-6.5-14.2-9.8-23.4-9.7
		c-9.1,0-16.8,3.3-23.1,9.9c-3,3-5.4,6.6-7,10.7c-1.7,4.1-2.6,8.4-2.6,12.9v1.9l17.9-0.1v-1.9c0-4.2,1.4-7.8,4.3-10.8
		c3-3,6.6-4.5,10.6-4.5c4.2,0,7.7,1.4,10.7,4.3c3,2.9,4.6,6.5,4.6,10.8v1.8h17.8L1197.6,725.9"/>
	<g>
		<path style="fill:#83E8D3;" d="M1372.5,629.4c-12.7,0.4-25.5,1.3-38.4,2.7c-31.1,3.4-62.8,9.9-95.3,19.6l-1.9,27.8
			c25.2,1.4,47.2,2.5,66.2,3.2c31.2,1.2,54,1.5,68.4,0.9c8.2-0.3,15.7-1.5,22.5-3.9c7-2.6,12.1-6.1,15.3-10.5
			c2.9-3.9,4.4-8.5,4.4-13.8C1412.4,637.1,1398.7,628.4,1372.5,629.4"/>
	</g>
	<g>
		<path style="fill:#83E8D3;" d="M1155.5,751.9l-63.3,59c-5.4-1.8-10.2-1.2-14.4,1.8c-6.3,4.7-5.3,12.2,2.9,22.6
			c8.1,10.1,15.9,18.9,23.3,26.2c8.4,8.2,21.4,7.5,31.4-4.6l66.2-51.8L1155.5,751.9L1155.5,751.9z"/>
	</g>
	<g>
		<path style="fill:#FFFFFF;" d="M1278.6,366.5l-2-9.1c-9.5-2.4-20.9-0.5-34,5.6l-14.2,11.5C1251.1,365.2,1267.8,362.5,1278.6,366.5
			 M1283.2,386.3l-2.4-10.2c-17-4.8-39.1-1.5-66.3,9.8l-13.4,10.9C1241.3,384.8,1268.7,381.3,1283.2,386.3z"/>
		<path style="fill:#FCC5C5;" d="M1300.1,312l-8.4-11.4c-10.9,7.1-16.5,16.8-16.8,29.4C1281.9,321,1290.3,315,1300.1,312
			 M1274.9,329.9l0.2,0.7c7.3-0.7,15.8,0,25.6,1.8v-10.8C1292.5,322.2,1283.9,324.9,1274.9,329.9z"/>
		<g>
			<path style="fill:#FFD65E;" d="M1280.8,376.1l-2.2-9.6c-10.7-4-27.5-1.3-50.2,8.1l-13.9,11.3
				C1241.7,374.6,1263.8,371.4,1280.8,376.1 M1293.8,433.2l-10.7-46.8c-14.5-5-41.8-1.5-82,10.5l-5.3,4.3
				C1224.7,418.4,1257.4,429,1293.8,433.2 M1272.5,339.6c-0.4,0.1-0.8,0.1-1.2,0.1l-28.6,23.4c13.1-6.2,24.4-8,34-5.6L1272.5,339.6
				 M1272.3,338.9l-1,0.8c0.4,0,0.9,0,1.2-0.1L1272.3,338.9z"/>
			<g>
				<path style="fill:#FFD65E;" d="M1293.9,421.4c-0.1,0-0.2,0-0.3,0c-51.4-4.4-88.1-28.2-89.6-29.2c-1-0.7-1.7-1.8-1.7-3
					c-0.1-1.2,0.5-2.4,1.4-3.2l68.6-55.8c1-0.8,2.4-1.1,3.7-0.7c1.3,0.4,2.2,1.5,2.5,2.8l19.3,84.4c0.3,1.2,0,2.4-0.8,3.4
					C1296,420.9,1295,421.4,1293.9,421.4z M1212.7,388.5c10.7,6.1,39.5,20.5,76.3,24.7l-16.7-73.2L1212.7,388.5z"/>
			</g>
		</g>
		<path style="fill:#FFFFFF;" d="M1183,394.7c-1.4-10.5-5.2-19.6-11.3-27.1c-8-8.9-16-10.3-24-4c-1.4,1-2.8,2.3-4.1,3.9
			c-8.9,11-15,25.1-18.3,42.4c-0.2,0.9-0.3,1.7-0.5,2.6l-0.1,0.4c-0.1,0.7-0.2,1.4-0.3,2.1c-0.2,0.9-0.3,1.7-0.4,2.5
			c-0.2,1.8-0.5,3.7-0.7,5.5c1.8,0.7,3.7,1.4,5.6,2c1.3,0.4,2.7,0.8,4,1.3c0.6,0.1,1.2,0.3,1.8,0.5l0.4,0.1
			c11,2.8,22.3,3.7,33.9,2.6h0.4l0.8-0.1c3.6-0.4,7.3-1,11-1.8c0.6-2.7,1.2-5.5,1.6-8.1l0.1-0.8l0.1-0.8
			C1184,409.9,1184,402.2,1183,394.7"/>
		<path style="fill:#47D7AC;" d="M1182.7,422.9c-1.7,0-3.2-1.3-3.3-3.1c0-0.6,0-1.2,0.2-1.8l0.1-0.6c1-7.6,1-15.1,0-22.2
			c-1.4-9.9-4.9-18.5-10.6-25.5c-8.7-9.7-14.9-6.9-19.4-3.4c-1.3,0.9-2.5,2-3.7,3.4c-8.5,10.4-14.4,24.2-17.5,40.8l-0.5,2.8
			l-0.3,2.1c-0.2,1.8-1.9,3.1-3.7,2.9c-1.8-0.2-3.1-1.9-2.9-3.7l0.3-2.1v-0.2v-0.2v-0.2l0.5-2.6c3.3-17.7,9.7-32.5,19-43.8
			c1.6-1.9,3.2-3.3,4.8-4.5c6.5-5.1,16.9-8.5,28.5,4.5c6.5,8.2,10.6,17.8,12.1,28.9c1.1,7.7,1.1,15.8,0,24l-0.1,0.8l-0.1,0.4
			c0,1.7-1.3,3.2-3,3.3L1182.7,422.9"/>
		<path style="fill:#FFFFFF;" d="M1230.6,389.9c-2.5-0.6-5-1-7.4-1.3c-5.7-0.9-11.2-1.5-16.7-1.9l-1,0.1c-0.4-0.1-0.7-0.1-1-0.1
			c-0.4,0-0.7,0-1,0c-22.1-0.9-44.3,2.4-66.7,10c-31,11.2-52.8,31-65.3,59.3c-0.3,0.4-0.5,0.9-0.7,1.4c-1.1,2.5-2.1,5.2-3.1,8.1
			c-0.2,0.4-0.3,0.9-0.5,1.4l-0.1,0.4c-3.9,11.3-6.5,23.7-7.7,37.2c-0.8,9.5-2.6,17.8-5.2,25.1c-4.6,11.5-7.1,22.2-7.5,32.1
			c-0.1,2.5-0.1,4.9,0,7.2c-0.1,0.4,0,0.8,0.1,1.2c-0.1,1.8,0.1,3.7,0.5,5.4c0.7,4.5,1.8,8.8,3.4,13c0.7,1.5,1.4,3,2.2,4.5
			c0.1,0.3,0.2,0.6,0.5,1c3.8,7.4,9.4,14.1,16.8,20.3c2.5,2.2,5.1,4.2,8,6.2c2.5,1.7,5.2,3.5,7.9,5.2c20.1,12.5,42.6,21,67.5,25.5
			c1.6,0.3,3.2,0.7,5,1.1c10.1,2,20.3,3.3,30.7,4.1c1-0.1,1.9-0.1,2.9,0c4.6,0.3,9.2,0.4,13.7,0.4c6.5,0,12.9-0.2,19-0.6
			c0.8-0.1,1.5-0.1,2.3-0.1c13.2-1.1,25.4-3.3,36.8-6.5l0.7-0.2c9.8-2.9,18.9-6.5,27.4-11c1.4-0.8,2.8-1.6,4.2-2.5
			c12.5-7.3,23.3-16.4,32.5-27.5c7.2-8.7,13.4-18.6,18.5-29.6c5.5-12.7,8.9-25.4,10.3-38.1c1.3-12.5,0.5-25.1-2.2-37.7
			c-1.8-8.1-4.5-16.2-7.9-24.3c-0.8-1.9-1.6-3.7-2.4-5.4c-0.8-1.5-1.5-3-2.3-4.5c-0.6-1-1.1-2-1.7-3c-0.4-1-0.9-1.8-1.4-2.6
			c-0.6-0.9-1-1.7-1.3-2.6c-0.8-1.3-1.7-2.6-2.5-3.9c-18.2-27.8-42.6-47.3-73.2-58.3C1252.8,395.2,1242.2,392.3,1230.6,389.9"/>
		<path style="fill:#83E8D3;" d="M1355.2,503.2c-0.8-3.6-1.8-7.1-2.9-10.8c-23.1,5.1-43.5,15-61.3,29.5
			c-8.6,7.1-13.8,13.7-15.6,19.6c-1.9,6-2.4,13.1-1.4,21.2c0.4,2.3,0.9,4.6,1.4,6.9c3.8,16.8,10.4,33.6,20,50.4
			c1.4,2.6,4,6.6,7.7,11.8c9.5-6.5,18-14.3,25.5-23.2c7.2-8.7,13.4-18.6,18.5-29.6c5.5-12.7,8.9-25.4,10.3-38.1
			c1.1-11.1,0.7-22.2-1.2-33.3C1355.8,506.1,1355.5,504.6,1355.2,503.2"/>
		<path style="fill:#83E8D3;" d="M1303.1,634.1c-0.7,0-1.5-0.4-1.9-1c-3.8-5.4-6.4-9.4-7.9-12.1c-9.6-16.8-16.5-34-20.3-51
			c-0.6-2.3-1.1-4.7-1.5-7c-1-8.5-0.5-15.9,1.5-22.3c2-6.5,7.4-13.3,16.4-20.8c18-14.7,39-24.8,62.3-30c1.3-0.3,2.6,0.5,2.8,1.8
			c0.3,1.3-0.5,2.6-1.8,2.9c-22.6,5-42.9,14.8-60.3,29c-8.2,6.8-13.2,13-14.9,18.5c-1.8,5.7-2.2,12.5-1.3,20.2
			c0.4,2.1,0.8,4.4,1.4,6.6c3.7,16.6,10.3,33.3,19.8,49.7c1.4,2.6,3.9,6.5,7.6,11.6c0.8,1.1,0.5,2.6-0.6,3.3
			C1304.1,634,1303.6,634.1,1303.1,634.1"/>
		<path style="fill:#47D7AC;" d="M1205.7,660.2c-4.6,0-9.3-0.1-13.9-0.4c-0.8,0-1.6,0-2.5,0h-0.5c-10.4-0.8-20.9-2.2-31.1-4.1
			c-1.8-0.4-3.4-0.7-5-1.1c-25.2-4.6-48.3-13.3-68.6-25.9c-2.8-1.8-5.5-3.6-8-5.3c-3-2-5.8-4.2-8.3-6.4
			c-7.6-6.3-13.5-13.5-17.5-21.1c-0.3-0.5-0.5-0.9-0.7-1.4c-0.7-1.5-1.4-2.9-2.1-4.3l-0.1-0.3c-1.7-4.4-2.9-9-3.6-13.6
			c-0.4-1.7-0.6-3.7-0.5-5.6c-0.1-0.6-0.1-1.1-0.1-1.7c-0.1-2.4-0.1-4.8,0-7.3c0.5-10.2,3.1-21.4,7.8-33.2c2.5-6.9,4.2-15.1,5-24.2
			c1.3-13.6,3.9-26.3,7.8-37.7l0.2-0.7c0.1-0.5,0.3-1.1,0.5-1.6c1-2.9,2.1-5.7,3.2-8.2c0.2-0.5,0.4-1.1,0.8-1.6
			c12.9-29,35.5-49.5,67.2-61c22.7-7.7,45.6-11.1,67.9-10.2h0.9c0.3,0,0.7,0,1,0.1c0.4,0,0.8-0.1,1.2,0c5.5,0.4,11.2,1,17,1.9
			c2.4,0.3,5,0.8,7.7,1.4c11.6,2.4,22.4,5.4,32.1,8.8c31.2,11.2,56.4,31.3,74.9,59.6c0.8,1.3,1.7,2.6,2.5,4l0.3,0.6
			c0.2,0.6,0.5,1.2,1,1.9c0.7,0.9,1.2,1.9,1.7,3l1.6,2.9c0.8,1.6,1.6,3.1,2.4,4.6c0.9,1.8,1.7,3.7,2.5,5.7
			c3.5,8.2,6.2,16.5,8.1,24.8c2.8,12.9,3.6,25.9,2.3,38.7c-1.4,13-5,26.2-10.6,39.1c-5.2,11.3-11.6,21.5-19,30.4
			c-9.4,11.3-20.7,20.8-33.4,28.2c-1.3,0.9-2.8,1.7-4.3,2.5c-8.7,4.6-18.1,8.3-28,11.2l-0.4,0.1l-0.3,0.1
			c-11.5,3.2-24.1,5.4-37.4,6.6c-0.8,0.1-1.5,0-2.3,0.1C1218.8,660,1212.3,660.2,1205.7,660.2 M1190.6,653c0.6,0,1.1,0,1.7,0.1
			c10.8,0.6,22.1,0.4,32.3-0.2c0.7-0.1,1.5-0.1,2.3-0.1c12.8-1.1,24.8-3.2,35.8-6.3c0.4-0.2,0.8-0.3,1.2-0.3
			c9.4-2.8,18.3-6.3,26.5-10.6c1.3-0.7,2.6-1.5,4-2.3c12.2-7.1,22.8-16.1,31.8-26.8c7-8.4,13.1-18.1,18-28.8
			c5.3-12.3,8.7-24.8,10-37.1c1.2-12.1,0.5-24.4-2.1-36.6c-1.8-7.9-4.4-15.9-7.7-23.7c-0.8-1.9-1.5-3.7-2.3-5.3
			c-0.7-1.5-1.5-2.9-2.2-4.4l-1.7-3l-0.2-0.4c-0.3-0.7-0.6-1.3-1-1.8l-0.1-0.2c-0.6-1-1.1-1.9-1.5-2.9c-0.8-1.2-1.5-2.4-2.3-3.6
			c-17.7-27.1-41.8-46.3-71.6-57c-9.4-3.3-19.9-6.2-31.3-8.6c-2.5-0.6-4.9-1-7.2-1.3c-5.6-0.9-11-1.5-16.3-1.9h-0.2
			c-0.4,0.1-0.8,0.1-1.2,0l-0.5-0.1h-1c-21.7-0.9-43.7,2.4-65.6,9.8c-29.9,10.8-51.3,30.1-63.3,57.5l-0.2,0.3l-0.4,0.9
			c-1.1,2.6-2.1,5.3-3.1,8.1l-0.1,0.2l-0.3,0.9l-0.1,0.2l-0.1,0.5c-3.8,10.9-6.3,23.2-7.6,36.4c-0.8,9.7-2.7,18.4-5.4,25.9v0.1
			c-4.4,11.1-6.9,21.6-7.3,31.1c-0.1,2.4-0.1,4.7,0,6.9v0.5l0.1,1c-0.1,1.6,0.1,3.1,0.4,4.6c0.7,4.3,1.8,8.4,3.2,12.4
			c0.7,1.4,1.4,2.8,2.1,4.3l0.2,0.5l0.3,0.4c3.6,6.9,9,13.4,16,19.3c2.4,2.1,5,4.1,7.8,6c2.5,1.7,5.1,3.4,7.8,5.2
			c19.6,12.1,41.9,20.6,66.3,25c1.7,0.3,3.3,0.7,5.1,1.1c9.8,1.9,19.9,3.3,30,4C1189.6,653.1,1190.1,653,1190.6,653z M1056,592.3
			L1056,592.3L1056,592.3z M1054.1,529.6L1054.1,529.6L1054.1,529.6z"/>
		<path style="fill:#FFFFFF;" d="M1328.1,419.9c3.2-10.1,3.6-19.8,1.3-29.2c-3.5-11.4-10.2-16-20.2-13.8c-1.7,0.3-3.5,0.9-5.4,1.7
			c-12.8,6.1-24.4,16.2-34.7,30.3c-0.5,0.7-1,1.4-1.6,2.1l-0.2,0.4c-0.4,0.6-0.8,1.2-1.1,1.8c-0.5,0.7-1,1.4-1.5,2.1
			c-1,1.5-2,3.1-3,4.7c1.4,1.4,2.8,2.8,4.2,4.2c1,0.9,2.1,1.9,3.1,2.8c0.5,0.4,0.9,0.8,1.4,1.2l0.4,0.2c8.8,7.2,18.7,12.8,29.8,16.8
			l0.4,0.1l0.7,0.3c3.5,1.2,7.1,2.2,10.8,3.1c1.8-2.2,3.4-4.4,4.9-6.6l0.5-0.7l0.5-0.7C1322.6,434,1325.9,427,1328.1,419.9"/>
		<path style="fill:#47D7AC;" d="M1317.3,445.4c-0.4,0-0.8-0.1-1.2-0.2c-1.7-0.6-2.6-2.6-2-4.3c0.2-0.6,0.5-1.1,0.9-1.6l0.3-0.5
			c4.1-6.4,7.3-13.1,9.4-19.9c3-9.4,3.4-18.7,1.2-27.4c-3.8-12.4-10.7-12.6-16.2-11.4c-1.5,0.3-3.1,0.8-4.8,1.5
			c-12.2,5.7-23.4,15.6-33.3,29.2l-1.7,2.3l-1.1,1.8c-1,1.5-3.1,2-4.6,1s-2-3.1-1-4.6l1.3-2l0.2-0.3l1.6-2.1
			c10.6-14.5,22.7-25.1,35.9-31.3c2.2-1,4.3-1.6,6.2-2c8.1-1.8,18.9-0.5,24,16.1c2.5,10.1,2,20.6-1.3,31.2
			c-2.3,7.4-5.7,14.6-10.2,21.6l-0.5,0.7l-0.2,0.3C1319.8,444.7,1318.6,445.4,1317.3,445.4"/>
		<path style="fill:#47D7AC;" d="M1303.1,635.1c-1.1,0-2.1-0.5-2.8-1.4c-1-1.5-0.7-3.6,0.9-4.6c9.2-6.3,17.6-13.9,24.8-22.6
			c7-8.4,13.1-18.1,18-28.8c5.3-12.3,8.7-24.8,10-37.1c1.1-10.7,0.7-21.6-1.2-32.3l-0.9-4.3c-0.8-3.4-1.7-6.9-2.8-10.4l-0.5-1.4
			c-0.6-1.7,0.2-3.7,2-4.3c1.7-0.6,3.7,0.2,4.3,2l0.6,1.5l0.1,0.2c1.1,3.7,2.1,7.4,2.9,11l1,4.4c2,11.4,2.5,22.9,1.3,34.3
			c-1.4,13-5,26.2-10.6,39.1c-5.2,11.3-11.6,21.5-19,30.4c-7.6,9.1-16.4,17.1-26.1,23.8C1304.4,634.9,1303.7,635.1,1303.1,635.1"/>
		<path style="fill:#83E8D3;" d="M1119.7,469.3l0.4,0.3l21.3,14.1l0.2,0.1c1.5,1.1,3.2,1.4,5,0.8c1.8-0.3,3.2-1.2,4.2-2.8
			c0.9-1.5,1.2-3.2,0.8-5.1c-0.3-1.9-1.1-3.2-2.6-4.1l-21.6-14.3c-1.5-0.9-3.1-1.2-4.9-0.8c-1.7,0.4-3,1.4-4,3
			c-1.1,1.5-1.4,3.2-1,4.9C1117.8,467.1,1118.5,468.4,1119.7,469.3"/>
		<path style="fill:#47D7AC;" d="M1144.7,487.3c-1.6,0-3.1-0.5-4.5-1.5l-0.2-0.1l-21.3-14.1l-0.1-0.1l-0.5-0.4c-1.6-1.2-2.6-3-3-5.3
			c-0.5-2.3,0-4.7,1.4-6.7c1.3-2,3.1-3.4,5.4-3.9c2.5-0.5,4.7-0.1,6.7,1.1l21.6,14.3c2,1.2,3.3,3.2,3.6,5.8c0.5,2.3,0.1,4.6-1.2,6.7
			c-1.3,2.1-3.3,3.5-5.7,3.9C1146.2,487.2,1145.5,487.3,1144.7,487.3 M1141.2,486.1L1141.2,486.1L1141.2,486.1z M1143,482
			c0.9,0.6,1.7,0.7,2.8,0.4l0.4-0.1c1.1-0.2,1.9-0.7,2.5-1.7s0.8-2.1,0.5-3.4c-0.2-1.6-0.9-2.2-1.5-2.5l-21.7-14.4
			c-0.9-0.6-1.9-0.7-3.1-0.5c-1,0.2-1.8,0.9-2.5,1.9c-0.7,1.1-0.9,2-0.7,3.1c0.2,1.2,0.6,2,1.3,2.5l0.3,0.3l21,13.9L1143,482z"/>
		<path style="fill:#83E8D3;" d="M1238.1,473.2c-1.5-0.9-3.1-1.1-5-0.8l-24.8,6.5c-1.6,0.6-2.8,1.6-3.6,3.1c-0.8,1.7-1,3.4-0.6,5.1
			c0.4,1.8,1.5,3.2,3.1,4c1.7,1,3.4,1.3,5,0.8l0.2-0.1l24.6-6.3l0.5-0.2c1.4-0.6,2.5-1.6,3.2-3c1-1.5,1.2-3.2,0.7-5.1
			C1240.8,475.7,1239.7,474.3,1238.1,473.2"/>
		<path style="fill:#47D7AC;" d="M1210.5,494.7c-1.5,0-3-0.5-4.6-1.4c-2.1-1.1-3.6-3-4.2-5.5c-0.6-2.3-0.3-4.6,0.8-6.8
			c1.1-2.1,2.8-3.6,4.9-4.3l0.2-0.1l24.8-6.5c2.6-0.5,4.8-0.2,6.8,1c2.2,1.4,3.6,3.3,4.3,5.6c0.7,2.5,0.4,4.9-0.9,7
			c-1,1.8-2.4,3.1-4.4,3.9l-0.6,0.2h-0.2L1213,494l-0.3,0.1C1212.1,494.5,1211.3,494.7,1210.5,494.7 M1212.3,494.3L1212.3,494.3
			L1212.3,494.3z M1209,481.2c-1,0.4-1.7,1-2.2,2c-0.5,1.1-0.7,2.2-0.4,3.4c0.3,1.2,0.9,2,1.8,2.5c1.4,0.8,2.3,0.8,2.9,0.7l0.7-0.2
			l24.4-6.2h0.1c1.1-0.4,1.7-1,2.2-2c0.7-1.1,0.8-2.1,0.5-3.3c-0.3-1.1-1.1-2.1-2.2-2.8c-0.9-0.5-1.9-0.7-3.2-0.4L1209,481.2z
			 M1236.9,485.6L1236.9,485.6L1236.9,485.6z"/>
		<path style="fill:#83E8D3;" d="M1062.6,482c-1.6,7-2.7,14.3-3.5,22.1c-0.7,9.4-2.5,17.8-5.1,25c-1.7,4.4-3.2,8.6-4.3,12.7
			c6.6-6.7,12-12.4,16.3-17c4.8-5.3,6.4-11.6,4.9-19C1069.7,500.7,1066.9,492.8,1062.6,482"/>
		<path style="fill:#83E8D3;" d="M1049.6,544.2c-0.6,0-1.2-0.2-1.7-0.7c-0.9-0.9-0.9-2.4,0-3.4c6.5-6.6,12-12.3,16.2-17
			c4.3-4.8,5.7-10.3,4.3-16.9c-1.1-5-3.8-12.8-8.1-23.4c-0.5-1.2,0.1-2.6,1.3-3.1c1.2-0.5,2.6,0.1,3.1,1.3c4.5,11,7.2,18.9,8.3,24.2
			c1.7,8.1-0.1,15.2-5.4,21.1c-4.2,4.7-9.7,10.4-16.3,17.1C1050.9,544,1050.2,544.2,1049.6,544.2"/>
		<path style="fill:#47D7AC;" d="M1049.6,545.2l-0.9-0.1c-1.8-0.5-2.8-2.3-2.3-4.1c1.2-4.2,2.6-8.6,4.4-13c2.5-6.9,4.2-15,4.9-24.1
			c0.8-7.9,2-15.5,3.6-22.6c0.4-1.8,2.2-2.9,4-2.5s2.9,2.2,2.5,4c-1.5,6.8-2.7,14.1-3.4,21.7c-0.8,9.6-2.6,18.3-5.3,25.9
			c-1.7,4.3-3.1,8.5-4.2,12.4C1052.4,544.2,1051.1,545.2,1049.6,545.2"/>
		<g>
			<path style="fill:#FFFFFF;" d="M931.1,511.6c0.6,0.2,1.2,0.2,1.6,0.1l20.3-13.6l1.2-1c0.3-0.4,0.4-0.9,0.4-1.5
				c0-0.8-0.3-1.7-1-2.6c-0.6-1-1.4-1.7-2.3-1.9c-0.8-0.3-1.5-0.2-2.2,0.2l-20,13.7c-0.6,0.6-1,1.3-1,1.9c0.1,1.1,0.4,2,1,2.9
				C929.7,510.6,930.4,511.2,931.1,511.6"/>
			<path style="fill:#D7D7D7;" d="M932.2,515.1c-0.6,0-1.3-0.1-2-0.3l-0.3-0.1c-1.3-0.6-2.5-1.6-3.5-3c-1-1.3-1.6-2.9-1.7-4.6v-0.5
				c0.1-1.4,0.8-2.7,2-3.9l0.5-0.4l20.2-13.7l0.3-0.2c1.5-0.8,3.2-1,4.8-0.4c1.5,0.4,2.9,1.5,4,3.2c1,1.4,1.5,2.9,1.5,4.4
				c0,1.2-0.3,2.3-0.8,3.2c-0.4,0.7-0.9,1.2-1.5,1.6c-0.3,0.2-0.6,0.4-1,0.6l-20.1,13.5l-0.9,0.4C933.2,515,932.7,515.1,932.2,515.1
				 M931.5,507.4l0.2,0.4l0.3,0.4l19.2-12.9L951,495l-0.1-0.2l-0.3-0.4L931.5,507.4z"/>
			<polyline style="fill:#F8F8F8;" points="1088.1,558 1092.2,550.4 953.6,498.2 936.1,510.1 1088.1,558 			"/>
			<path style="fill:#D7D7D7;" d="M1088.1,561.4l-1-0.2l-152-47.9c-1.2-0.4-2.1-1.4-2.3-2.7c-0.2-1.3,0.4-2.5,1.4-3.2l17.5-11.9
				c0.9-0.6,2-0.7,3.1-0.4l138.7,52.2c0.9,0.3,1.6,1,1.9,1.9s0.3,1.9-0.2,2.8l-4.1,7.6C1090.5,560.7,1089.3,561.4,1088.1,561.4
				 M943.7,509l142.8,45l1-1.8L954,501.9L943.7,509z"/>
			<path style="fill:#6FD7F8;" d="M1148.8,582.6l-0.8-0.1l-12.5-3.1l-55.9-14c-0.9-0.2-1.7-0.9-2.2-1.7c-0.4-0.9-0.5-1.9-0.1-2.8
				l7.8-19.2c0.7-1.7,2.6-2.5,4.3-1.8l61.2,24.4c1.7,0.7,2.5,2.5,2,4.2c-0.6,1.9-1,3.9-1,6.1c0,1.4,0.1,2.8,0.4,4.1
				c0.2,1.1-0.1,2.3-1,3.1C1150.5,582.3,1149.6,582.6,1148.8,582.6 M1137.1,572.9L1137.1,572.9l7.9,2v-0.4c0-1.8,0.2-3.5,0.5-5.1
				l-0.7-0.3h-0.1l-25.6-10.3l-29.1-11.6l-5.1,12.5L1137.1,572.9z"/>
			<path style="fill:#6FD7F8;" d="M1080.4,562.1l11.7,3l15-14.6l-18.9-7.5L1080.4,562.1 M1120.4,555.7l-13.4,13.1l14.9,3.7
				l11.7-11.5L1120.4,555.7 M1148.8,579.3c-0.3-1.5-0.5-3.1-0.5-4.8c0-2.5,0.4-4.9,1.1-7.1l-3.4-1.3l-9.7,10.1L1148.8,579.3z"/>
			<path style="fill:#FFFFFF;" d="M1133.5,561l-11.7,11.5l14.5,3.6l9.7-10.1L1133.5,561 M1106.9,568.8l13.4-13.1l-13.3-5.2l-15,14.6
				L1106.9,568.8z"/>
			<path d="M1154.3,591c-0.7,0-1.4-0.3-1.8-0.9c-3.7-4.4-5.5-9.6-5.5-15.5c0-6.7,2.4-12.4,7.1-17.1c1.3-1.3,2.8-2.5,4.3-3.5
				c1.1-0.7,2.6-0.4,3.3,0.7c0.7,1.1,0.4,2.6-0.7,3.3c-1.2,0.8-2.4,1.7-3.5,2.8c-3.8,3.8-5.7,8.3-5.7,13.8c0,4.8,1.4,8.9,4.4,12.4
				c0.8,1,0.7,2.5-0.3,3.4C1155.4,590.8,1154.9,591,1154.3,591"/>
		</g>
		<path style="fill:none;stroke:#F3A5A4;stroke-linecap:round;stroke-linejoin:round;stroke-miterlimit:10;" d="M1300.1,312
			l-8.4-11.4c-10.9,7.1-16.5,16.8-16.8,29.4C1281.9,321,1290.3,315,1300.1,312 M1274.9,329.9l0.2,0.7c7.3-0.7,15.8,0,25.6,1.8v-10.8
			C1292.5,322.2,1283.9,324.9,1274.9,329.9z"/>
	</g>
	<path d="M1109.2,525.5l-1.1-1.7l0.9,1.9L1109.2,525.5l-1.1-1.7l0.9,1.9l-0.2-0.5l0.2,0.5l0,0l-0.2-0.5l0.2,0.5l0.4-0.1
		c0.8-0.2,2.6-0.5,4.5-0.7c2.9-0.3,6.4-0.6,9.1-0.8c1.4-0.1,2.5-0.2,3.4-0.2c0.8-0.1,1.3-0.1,1.3-0.1c1.5-0.1,2.8-0.9,3.4-2.3
		c0.6-1.3,0.5-2.9-0.4-4.1l-10.9-14.5c-1.3-1.7-3.8-2.1-5.5-0.8c-1.7,1.3-2.1,3.8-0.8,5.5l10.9,14.5l3.2-2.4l-0.2-4
		c0,0-3.6,0.2-7.9,0.5c-2.1,0.2-4.4,0.4-6.5,0.6c-2.1,0.2-4,0.5-5.5,0.9c-0.4,0.1-0.8,0.2-1.1,0.3c-0.4,0.1-0.8,0.3-1.3,0.6
		c-1.8,1.2-2.4,3.6-1.2,5.5C1104.9,526.1,1107.3,526.7,1109.2,525.5z"/>
	<path d="M1222,532.7c-0.1,0-3.4-1.2-7.9-2.4c-2.2-0.6-4.8-1.2-7.3-1.6c-2.6-0.4-5.1-0.7-7.6-0.6l0.1,2.4l0.8-2.3
		c-0.6-0.2-0.8-0.1-0.9-0.1l0.1,2.4l0.8-2.3l-1.1,3.4l2.3-2.6c-0.5-0.4-0.9-0.6-1.2-0.7l-1.1,3.4l2.3-2.6l-2.5,2.8l3.6-1
		c-0.2-0.7-0.6-1.4-1.1-1.8l-2.5,2.8l3.6-1l-3.5,0.9l3.4,1.1c0.1-0.4,0.3-1.1,0-2l-3.5,0.9l3.4,1.1l-2.3-0.7l1.9,1.6
		c0,0,0.2-0.1,0.5-0.9l-2.3-0.7l1.9,1.6c0,0,0.4-0.4,1-0.9c1-0.8,2.7-1.9,4.5-3.1c2.7-1.7,5.8-3.6,8.2-5c1.2-0.7,2.2-1.3,3-1.7
		c0.7-0.4,1.2-0.7,1.2-0.7c1.9-1.1,2.6-3.5,1.5-5.4s-3.5-2.6-5.4-1.5c0,0-5,2.8-9.9,5.8c-2.5,1.5-4.9,3.1-6.9,4.5
		c-1,0.7-1.8,1.4-2.5,2.1c-0.4,0.4-0.7,0.7-1.1,1.3c-0.2,0.3-0.4,0.7-0.6,1.2s-0.3,1.4,0,2.4c0.2,0.8,0.7,1.6,1.3,2
		c0.9,0.7,1.6,0.9,2.2,1s1,0.1,1.4,0.1c1.6-0.1,3.7,0.1,5.9,0.5c3.3,0.6,6.8,1.5,9.5,2.2c1.3,0.4,2.4,0.7,3.2,1
		c0.4,0.1,0.7,0.2,0.9,0.3l0.2,0.1h0.1c2.1,0.7,4.3-0.3,5.1-2.4C1225.2,535.7,1224.1,533.4,1222,532.7z"/>
	<g>
		<path style="fill:#47D7AC;" d="M1117.4,871.2c-4.7,0-9.2-2.2-12.3-5.2c-4.6-4.4-16.3-17.1-23.9-26.3c-7.5-9-8-13.7-7.9-15.1
			c0-6.5,2-11.4,6-14.7c5.4-4.4,12.7-4.2,15.7-3.9l28.7-23.9c1.2-1,2.9-0.8,3.9,0.3c1,1.2,0.8,2.9-0.3,3.9l-29.6,24.7
			c-0.6,0.5-1.5,0.8-2.3,0.6c-0.1,0-7.8-1.4-12.5,2.5c-2.6,2.2-4,5.7-4,10.5c0,0.1,0,0.2,0,0.3l0,0c0,0,0.3,3.5,6.7,11.2
			c7.5,9.1,19,21.5,23.4,25.8c3.1,3,8.6,5.4,13.7,2.1c5.5-3.6,10.8-8.9,10.9-9s0.2-0.2,0.3-0.2l61.1-48.7c1.2-0.9,2.9-0.8,3.9,0.4
			c0.9,1.2,0.8,2.9-0.4,3.9l-60.9,48.5c-0.9,0.9-6.1,6-11.7,9.6C1122.9,870.4,1120.1,871.2,1117.4,871.2z"/>
	</g>
	<g>
		<path style="fill:#47D7AC;" d="M1119.7,790c-0.6,0-1.2-0.2-1.7-0.6c-18.5-14.2-28.6-29.6-25.2-66.7c4-43,19.1-56.2,19.7-56.8
			c1.2-1,2.9-0.8,3.9,0.3c1,1.2,0.8,2.9-0.3,3.9c-0.2,0.2-14.1,12.8-17.8,53.1c-3.2,34.5,6,48.8,23,61.8c1.2,0.9,1.4,2.7,0.5,3.9
			C1121.3,789.7,1120.5,790,1119.7,790z"/>
	</g>
	<g>
		<path style="fill:#47D7AC;" d="M1187.5,808.5c-8.8,0-14.5-0.7-15.1-0.8c-1.5-0.2-2.6-1.6-2.4-3.1s1.6-2.6,3.1-2.4
			c0.4,0,36.9,4.7,70.5-10.5c25.6-11.6,35-37.9,28-78.1c-4.4-25.6-14.6-43.9-14.7-44.1c-0.7-1.3-0.3-3,1.1-3.7
			c1.3-0.7,3-0.3,3.7,1.1c0.4,0.8,10.7,19.3,15.3,45.9c7.4,42.5-3.4,71.5-31.2,84.1C1224.1,806.6,1201.7,808.5,1187.5,808.5z"/>
	</g>
	<g>
		<path style="fill:#47D7AC;" d="M1266.4,686.9c-1.5,0-2.7-1.2-2.8-2.7c0-1.5,1.1-2.8,2.7-2.8c0.8,0,79.2-2.4,100.7-3.4
			c1.8-0.1,4-0.1,6.3-0.1c10.5-0.1,26.4-0.2,33.8-7.9c3.2-3.4,4.6-7.9,4.4-13.9c-1.1-24.4-23.3-25.2-59.8-23.6
			c-33.6,1.4-75.4,16.1-75.8,16.3c-1.4,0.5-3-0.2-3.5-1.7c-0.5-1.4,0.2-3,1.7-3.5c1.7-0.6,42.9-15.1,77.4-16.6
			c31.5-1.3,64.1-2.7,65.5,28.9c0.3,7.4-1.6,13.5-5.9,17.9c-9,9.5-26.3,9.6-37.7,9.7c-2.3,0-4.4,0-6.1,0.1
			C1345.7,684.4,1267.3,686.8,1266.4,686.9C1266.5,686.9,1266.5,686.9,1266.4,686.9z"/>
	</g>
</g>
</svg>
