<?xml version="1.0" encoding="utf-8"?>
<!-- Generator: Adobe Illustrator 25.4.1, SVG Export Plug-In . SVG Version: 6.00 Build 0)  -->
<svg version="1.1" id="Layer_1" xmlns="http://www.w3.org/2000/svg" xmlns:xlink="http://www.w3.org/1999/xlink" x="0px" y="0px"
	 width="1600px" height="900px" viewBox="0 0 1600 900" style="enable-background:new 0 0 1600 900;" xml:space="preserve">
<rect style="fill:#D3F2ED;" width="1600" height="900"/>
<path style="fill:#6BB3A8;" d="M723.82,858.854h152.368c22.441,0,41.406,0.4,48.912-17.562H674.9
	C682.4,859.255,701.379,858.854,723.82,858.854z"/>
<path style="fill:#A1E0D3;" d="M170.012,839.557V171.612c0.102-23.284,19.027-42.094,42.311-42.055h1175.361
	c23.299-0.068,42.245,18.756,42.328,42.055v667.945H170.012z"/>
<polygon style="fill:#FFFFFF;" points="225.012,779.414 225.023,184.557 1375.012,184.557 1375.012,779.414 "/>
<path style="fill:#76CCBE;" d="M1600,873.653v-36.239H926.457c-6.328,21.9-26.319,21.44-50.269,21.44H723.82
	c-23.95,0-43.957,0.458-50.27-21.44H0v36.239c0,0,54.451,26.347,95.152,26.347h1409.7C1545.534,900,1600,873.653,1600,873.653z"/>
<path style="fill:#43BFA8;" d="M101.872,30.969h361.39c17.949,0,32.5,14.551,32.5,32.5l0,0c0,17.949-14.551,32.5-32.5,32.5h-361.39
	c-17.949,0-32.5-14.551-32.5-32.5l0,0C69.372,45.52,83.923,30.969,101.872,30.969z"/>
<path style="fill:#FFFFFF;" d="M170.274,76.113h-13.462v-29.3h16.012v4.929h-10.1v19.48h8.227c2.584,0,4.148-0.34,5.2-1.258V46.265
	h5.95v12.272h4.385V63.5h-4.385v14.619h-5.95v-3.468C175.067,75.706,173.164,76.113,170.274,76.113z"/>
<path style="fill:#FFFFFF;" d="M215.6,64.827h-28.83v-4.692h28.83V64.827z M188.2,52.588c-0.071-1.613,0.685-3.151,2.006-4.08
	c2.209-1.632,5.984-2.243,11.015-2.243c4.963,0,8.805,0.611,10.946,2.243c2.253,1.643,2.748,4.801,1.105,7.054
	c-0.309,0.423-0.681,0.796-1.105,1.105c-2.141,1.632-5.983,2.278-10.946,2.278c-5.031,0-8.806-0.646-11.015-2.278
	c-1.324-0.927-2.083-2.465-2.013-4.079L188.2,52.588z M213.656,66.73v11.695H188.7V66.73H213.656z M208.356,52.588
	c-0.014-0.37-0.204-0.71-0.51-0.918c-0.951-0.68-3.161-0.85-6.629-0.85c-3.5,0-5.712,0.17-6.663,0.85
	c-0.507,0.278-0.693,0.914-0.415,1.421c0.096,0.175,0.24,0.319,0.415,0.415c0.951,0.646,3.161,0.849,6.663,0.849
	c3.468,0,5.678-0.2,6.629-0.849c0.305-0.208,0.493-0.549,0.507-0.918L208.356,52.588z M194.556,73.972h13.224v-2.754h-13.229
	L194.556,73.972z"/>
<path style="fill:#FFFFFF;" d="M235.248,70.368c-1.563,2.822-5.269,5.168-9.213,5.915v-5.167c3.705-1.5,6.255-4.046,6.255-12.919
	V46.639h5.949V58.2c0,8.873,2.483,11.355,6.222,12.919v5.167C240.722,75.624,237.404,73.493,235.248,70.368z M247.148,46.268h5.95
	v31.851h-5.95V46.268z"/>
<path style="fill:#FFFFFF;" d="M267.854,51.466H257.62v-4.827h16.18V49.9c0,9.723-5.032,15.162-16.9,16.08v-4.893
	C264.182,60.339,267.785,57.109,267.854,51.466z M259.286,66.7h5.949v6.766h18.494v4.827h-24.443V66.7z M277.338,46.269h5.95v8.023
	h4.182v4.929h-4.182V68.6h-5.95V46.269z"/>
<path style="fill:#FFFFFF;" d="M288.458,61.427c0-7.717,0.714-11.8,2.754-13.769c1.062-0.968,2.475-1.46,3.909-1.36
	c1.442-0.081,2.858,0.407,3.943,1.36c1.666,1.666,2.449,4.862,2.653,10.539h1.835V46.468h5.168v31.345h-5.168V63.2h-1.8
	c-0.136,6.629-0.884,10.233-2.686,12.034c-1.081,0.957-2.503,1.436-3.943,1.327c-1.432,0.127-2.851-0.355-3.909-1.327
	C289.172,73.292,288.458,69.212,288.458,61.427z M296.583,61.427c0-6.391-0.136-9.043-0.748-9.927
	c-0.233-0.394-0.741-0.525-1.135-0.293c-0.121,0.071-0.221,0.172-0.293,0.293c-0.646,0.884-0.782,3.536-0.782,9.927
	c0,6.426,0.136,9.077,0.782,9.995c0.274,0.394,0.815,0.492,1.209,0.219c0.085-0.059,0.159-0.133,0.219-0.219
	C296.447,70.5,296.583,67.853,296.583,61.427z M315.417,46.265v31.854h-5.27V46.265H315.417z"/>
<path style="fill:#FFFFFF;" d="M333.337,46.809v10.4h2.516v-10.4h5.065V76.08h-12.681V46.809H333.337z M333.337,71.388h2.516v-9.383
	h-2.516V71.388z M354.721,46.265v31.854h-5.27V63.127h-1.767v14.686h-5.168V46.468h5.168v11.695h1.767v-11.9L354.721,46.265z"/>
<path style="fill:#FFFFFF;" d="M387.021,62.379h-11.492v1.564h9.553v9.281h-19.105v1.19h19.752v4.011h-25.6v-9.213H379.2v-1.224
	h-19.071v-4.045h9.485v-1.564H358.19v-4.352h28.831V62.379z M359.621,51.636c-0.052-1.28,0.534-2.503,1.564-3.264
	c2.04-1.53,5.881-2.107,11.457-2.107c5.506,0,9.382,0.577,11.388,2.107c1.793,1.333,2.166,3.868,0.833,5.661
	c-0.236,0.317-0.516,0.598-0.833,0.833c-2.006,1.53-5.882,2.141-11.388,2.141c-5.576,0-9.417-0.611-11.457-2.141
	c-1.024-0.752-1.61-1.961-1.566-3.23H359.621z M379.78,51.636c0-0.267-0.161-0.509-0.407-0.612c-0.816-0.51-2.992-0.646-6.731-0.646
	c-3.774,0-5.95,0.136-6.8,0.646c-0.237,0.115-0.392,0.349-0.407,0.612c0.032,0.257,0.182,0.484,0.407,0.612
	c0.85,0.51,3.026,0.612,6.8,0.612c3.739,0,5.915-0.1,6.731-0.612c0.234-0.117,0.389-0.35,0.405-0.612H379.78z"/>
<path style="fill:#FFFFFF;" d="M406.945,76.08h-8.465V46.639h5.542v24.579h3.671c2.142,0,3.6-0.238,4.624-1.054v-23.7h5.236v11.699
	h2.04v-11.9h5.371v31.856h-5.371V63.127h-2.04v14.686h-5.236V74.89C411.264,75.773,409.6,76.08,406.945,76.08z"/>
<path style="fill:#FFFFFF;" d="M429.862,52.588c-0.071-1.613,0.685-3.151,2.006-4.08c2.209-1.632,5.984-2.243,11.015-2.243
	c4.963,0,8.805,0.611,10.946,2.243c2.253,1.643,2.748,4.801,1.105,7.054c-0.309,0.423-0.681,0.796-1.105,1.105
	c-0.679,0.507-1.437,0.897-2.243,1.156v2.652h5.677v4.658h-28.828v-4.658h5.812v-2.618c-0.85-0.271-1.652-0.673-2.379-1.19
	C430.547,55.739,429.791,54.201,429.862,52.588z M429.862,72.578c-0.038-1.762,0.887-3.404,2.413-4.284
	c2.21-1.428,5.882-2.04,10.608-2.04c4.691,0,8.363,0.612,10.573,2.04c2.366,1.395,3.152,4.444,1.757,6.81
	c-0.428,0.725-1.032,1.33-1.757,1.757c-2.21,1.462-5.882,2.006-10.573,2.006c-4.726,0-8.4-0.544-10.608-2.006
	C430.749,75.981,429.824,74.339,429.862,72.578z M450.021,52.588c-0.014-0.37-0.203-0.71-0.509-0.918
	c-0.952-0.68-3.161-0.85-6.629-0.85c-3.5,0-5.712,0.17-6.663,0.85c-0.507,0.278-0.693,0.914-0.415,1.421
	c0.096,0.175,0.24,0.319,0.415,0.415c0.951,0.646,3.161,0.849,6.663,0.849c3.468,0,5.677-0.2,6.629-0.849
	C449.818,53.298,450.007,52.958,450.021,52.588z M435.676,72.578c0.009,0.407,0.245,0.775,0.611,0.952
	c0.986,0.612,3.094,0.816,6.6,0.816c3.468,0,5.575-0.2,6.561-0.816c0.359-0.181,0.583-0.55,0.577-0.952
	c-0.01-0.406-0.228-0.778-0.577-0.986c-0.986-0.544-3.093-0.816-6.561-0.816c-3.5,0-5.61,0.272-6.6,0.816
	C435.93,71.797,435.701,72.167,435.676,72.578z M445.776,58.878c-0.918,0.034-1.87,0.068-2.889,0.068
	c-0.987,0-1.9-0.034-2.788-0.068v1.6h5.677V58.878z"/>
<circle style="fill:#62D9C3;" cx="102.301" cy="63.469" r="28.676"/>
<circle style="fill:#FFFFFF;" cx="102.301" cy="63.469" r="24.853"/>
<path style="fill:#43BFA8;" d="M114.257,60.975h2.526c-1.072-6.39-6.136-11.364-12.544-12.322v2.515
	C109.272,52.076,113.242,55.963,114.257,60.975z M87.296,60.975h2.529c0.973-4.797,4.658-8.583,9.426-9.687v-2.564
	c-6.153,1.184-10.919,6.071-11.951,12.251H87.296z M89.841,65.962h-2.533c1.066,6.142,5.821,10.983,11.943,12.16v-2.566
	C94.514,74.462,90.843,70.719,89.841,65.962z M104.241,75.676V78.2c6.378-0.954,11.427-5.886,12.531-12.24h-2.527
	c-1.047,4.973-5.004,8.815-10.006,9.716L104.241,75.676z"/>
<path style="fill:#43BFA8;" d="M101.745,44.352c-0.726-0.036-1.345,0.522-1.385,1.248v8.59c0.08,0.765,0.765,1.321,1.53,1.241
	c0.655-0.068,1.173-0.586,1.241-1.241V45.6C103.091,44.874,102.472,44.316,101.745,44.352z"/>
<path style="fill:#43BFA8;" d="M101.745,71.5c-0.726-0.036-1.345,0.521-1.385,1.247v8.59c0.08,0.765,0.765,1.321,1.53,1.241
	c0.655-0.068,1.173-0.586,1.241-1.241V72.75C103.092,72.023,102.472,71.464,101.745,71.5z"/>
<path style="fill:#43BFA8;" d="M120.172,62.083h-8.589c-0.765,0.082-1.319,0.77-1.237,1.535c0.07,0.652,0.585,1.167,1.237,1.237
	h8.589c0.765-0.082,1.319-0.77,1.237-1.535C121.339,62.668,120.824,62.153,120.172,62.083z"/>
<path style="fill:#43BFA8;" d="M93.02,62.083h-8.588c-0.765,0.082-1.319,0.77-1.237,1.535c0.07,0.652,0.585,1.167,1.237,1.237h8.588
	c0.765-0.082,1.319-0.77,1.237-1.535C94.187,62.668,93.672,62.153,93.02,62.083z"/>
<g>
	<g>
		<path style="fill:#FCC5C5;" d="M1489.033,775.532c0,0,24.064-5.886,23.445-30.661c0,0-20.283-10.684-20.593-11.15
			c-0.31-0.463-15.019,33.652-15.019,33.652L1489.033,775.532z"/>
		<g>
			<path style="fill:#F3A5A4;" d="M1487.59,776.974c-0.283,0-0.564-0.083-0.803-0.245l-12.167-8.158
				c-0.578-0.386-0.797-1.13-0.521-1.768c14.831-34.397,15.067-34.418,16.203-34.523c0.42-0.038,0.806,0.103,1.101,0.365
				c1.189,0.813,13.029,7.119,20.305,10.95c0.462,0.244,0.756,0.718,0.771,1.24c0.641,25.639-24.294,32.036-24.546,32.098
				C1487.819,776.96,1487.704,776.974,1487.59,776.974z M1477.223,766.844l10.622,7.123c3.64-1.069,21.797-7.45,21.76-28.219
				c-11.587-6.108-16.5-8.781-18.633-10.025C1488.828,740.16,1481.888,756.036,1477.223,766.844z"/>
		</g>
		<path style="fill:#83E8D3;" d="M1469.504,783.458l-46.383-2.248l-15.897-34.169c0,0-34.377-119.538-34.891-119.436l91.769,48.93
			l38.814,3.096l20.195,15.122l10.156,19.985c0,0,0.994,19.028,1.148,19.491c0.156,0.466-8.261,9.605-8.261,9.605l-19.133,3.537
			l-20.019-7.602"/>
		<path style="fill:#83E8D3;" d="M1372.332,605.169c0,0-15.943-18.853-27.557-17.807c-11.613,1.045-15.181,17.141-10.69,32.814
			c5.227,18.246,20.263,47.927,62.833,85.4c0,0-21.463,46.255,2.664,70.504c15.718,15.792,35.102,10.293,35.165,10.071"/>
		<g>
			<path style="fill:#47D7AC;" d="M1399.584,778.243c-0.632,0-1.259-0.276-1.687-0.807c-22.837-28.378-7.543-63.56-3.675-71.358
				c-41.834-37.15-56.93-66.858-62.216-85.307c-3.259-11.375-2.43-22.604,2.164-29.303c2.544-3.712,6.146-5.877,10.412-6.262
				c11.998-1.077,20.145,9.323,21.333,10.937l7.903,7.451c0.869,0.82,0.91,2.189,0.09,3.058c-0.823,0.87-2.189,0.911-3.059,0.09
				l-8.052-7.591c-0.107-0.101-0.203-0.212-0.287-0.332c-0.068-0.099-7.35-10.222-17.539-9.302
				c-2.982,0.268-5.416,1.748-7.233,4.398c-3.823,5.577-4.44,15.651-1.57,25.665c5.178,18.078,20.171,47.391,62.182,84.372
				c0.769,0.677,0.956,1.803,0.451,2.695c-0.217,0.38-21.378,38.445,2.469,68.077c0.748,0.931,0.602,2.293-0.33,3.043
				C1400.539,778.087,1400.06,778.243,1399.584,778.243z"/>
		</g>
		<path style="fill:#83E8D3;" d="M1507.617,694c0,0,2.71,35.56-8.23,57.165c-9.01,17.793-13.929,28.605-31.36,26.381
			c-10.937-1.392-14.103-22.578-6.155-47.435"/>
		<g>
			<path style="fill:#47D7AC;" d="M1485.755,774.906c-0.704,0-1.396-0.344-1.811-0.979c-0.655-1-0.375-2.341,0.625-2.995
				c20.751-13.584,15.377-53.159,15.32-53.557c-0.168-1.183,0.655-2.279,1.837-2.448c1.189-0.168,2.278,0.654,2.448,1.837
				c0.061,0.432,1.489,10.704,0.173,22.937c-1.775,16.507-7.794,28.557-17.408,34.851
				C1486.573,774.792,1486.162,774.906,1485.755,774.906z"/>
		</g>
		<path style="fill:#83E8D3;" d="M1444.718,768.93l2.139,52.456c-2.948,1.768-4.569,4.225-4.863,7.369
			c-0.344,4.765,2.851,7.753,11.567,7.59c7.862-0.147,14.304-0.369,21.294-0.369c7.33,0,11.734-7.108,8.25-14.956l1.917-52.09
			H1444.718L1444.718,768.93z"/>
		<g>
			<path style="fill:#83E8D3;" d="M1441.099,768.958l-3.083,7.973l-4.818,12.406l-0.988,2.529l-0.988,2.553l-2.625,6.745
				l-7.684,19.849c1.614,9.346-1.132,14.332-8.262,14.959c-6.336,0.554-13.417,0.675-21.294,0.385
				c-8.045-0.313-11.899-2.842-11.562-7.612c0.29-3.132,1.927-5.588,4.866-7.347l3.18-10.358l0.024-0.024l6.721-21.872l2.794-9.081
				l0.844-2.77l0.313-0.94v-0.024l0.193-0.602l0.361-1.204l1.936,0.115L1441.099,768.958z"/>
			<path style="fill:#47D7AC;" d="M1398.68,780.135"/>
		</g>
		<path style="fill:#FCC5C5;" d="M1504.539,683.621c0,0-14.266,10.929-10.238,34.931l11.082,3.5c0,0-7.963-24.073,9.446-37.618"/>
		<g>
			<path style="fill:#F3A5A4;" d="M1505.381,723.494c-0.144,0-0.29-0.023-0.432-0.068l-11.083-3.5
				c-0.517-0.162-0.899-0.601-0.989-1.137c-4.124-24.575,10.174-35.845,10.784-36.313c0.635-0.483,1.539-0.363,2.023,0.268
				c0.483,0.632,0.365,1.535-0.265,2.02l0,0c-0.548,0.424-13.191,10.497-9.836,32.68l7.75,2.448
				c-1.51-6.796-3.944-25.272,10.609-36.596c0.632-0.492,1.537-0.373,2.024,0.252c0.489,0.63,0.376,1.535-0.252,2.024
				c-16.383,12.748-9.039,35.796-8.963,36.027c0.171,0.514,0.037,1.081-0.344,1.465
				C1506.133,723.343,1505.761,723.494,1505.381,723.494z"/>
		</g>
		<path style="fill:#83E8D3;stroke:#47D7AC;stroke-width:2.8847;stroke-miterlimit:10;" d="M1516.955,717.105
			c0,0-4.957,1.704-8.983,0c-4.025-1.704-14.863-4.488-21.059,0c-6.193,4.488-7.119,18.269,2.17,24.312
			c9.289,6.039,30.967,10.681,40.879-0.932"/>
		<g>
			<path style="fill:#47D7AC;" d="M1511.673,749.797c-9.106,0-18.403-3.079-23.768-6.567c-4.852-3.157-7.723-8.488-7.878-14.628
				c-0.141-5.56,2.011-10.636,5.616-13.25c7.185-5.202,19.165-1.938,23.174-0.239c3.168,1.341,7.393-0.041,7.436-0.055
				c1.128-0.379,2.361,0.214,2.75,1.344c0.387,1.13-0.213,2.361-1.344,2.75c-0.231,0.08-5.791,1.952-10.529-0.055
				c-3.971-1.679-13.823-3.948-18.947-0.239c-2.43,1.762-3.934,5.544-3.83,9.636c0.119,4.695,2.274,8.743,5.912,11.109
				c8.437,5.489,28.947,10.145,38.054-0.521c3.721-4.361,5.181-11.628,3.904-19.437c-2.306-14.112-12.566-27.568-28.147-36.919
				c-1.026-0.614-1.358-1.944-0.742-2.968c0.614-1.025,1.947-1.359,2.968-0.742c16.676,10.005,27.68,24.56,30.193,39.931
				c1.5,9.184-0.279,17.546-4.885,22.943C1526.673,747.672,1519.24,749.797,1511.673,749.797z"/>
		</g>
		<g>
			<path style="fill:#47D7AC;" d="M1511.676,748.572c-8.818,0-17.865-3.01-23.081-6.403c-4.497-2.924-7.158-7.881-7.303-13.598
				c-0.13-5.148,1.821-9.821,5.095-12.193c6.71-4.861,18.109-1.72,21.937-0.1c3.661,1.554,8.292-0.006,8.34-0.023
				c0.464-0.155,0.98,0.087,1.141,0.558c0.161,0.469-0.089,0.979-0.558,1.141c-0.215,0.073-5.333,1.796-9.625-0.023
				c-3.326-1.407-14.174-4.453-20.182-0.1c-2.758,2-4.467,6.198-4.354,10.694c0.13,5.117,2.495,9.542,6.488,12.139
				c8.764,5.698,30.129,10.46,39.706-0.762c0.321-0.379,0.89-0.42,1.266-0.1c0.377,0.323,0.421,0.889,0.1,1.266
				C1525.966,746.551,1518.898,748.571,1511.676,748.572z"/>
		</g>
		<path style="fill:#1CB594;" d="M1464.689,739.228c-0.051-2.985-0.646-5.846-1.792-8.58c-1.141-2.787-2.734-5.148-4.773-7.087
			c-4.327-4.375-9.548-6.541-15.664-6.49c-6.068,0-11.24,2.212-15.516,6.639c-2.039,2.039-3.607,4.426-4.699,7.163
			c-1.144,2.734-1.717,5.617-1.717,8.653v1.266l12.011-0.073v-1.271c0-2.783,0.968-5.197,2.91-7.233
			c2.036-1.99,4.4-2.985,7.085-2.985c2.785,0,5.173,0.971,7.163,2.909c2.039,1.939,3.058,4.351,3.058,7.236v1.192h11.935V739.228
			L1464.689,739.228z"/>
		<path style="fill:#FCC5C5;" d="M1397.521,674.832c0,0-4.779,3.82-8.229,10.114c-3.464,6.32-2.967,14.321-2.967,14.321l8.729,5.581
			c0,0,0.799-8.71,4.529-15.008c3.73-6.299,7.029-10.13,7.029-10.13"/>
		<g>
			<path style="fill:#F3A5A4;" d="M1393.982,706.974c-0.328,0-0.652-0.113-0.913-0.325l-8.768-7.174
				c-0.369-0.303-0.565-0.766-0.524-1.241c0.025-0.303,0.682-7.471,4.251-13.981c3.547-6.472,8.389-10.385,8.594-10.549
				c0.621-0.496,1.527-0.394,2.026,0.225c0.497,0.621,0.397,1.528-0.224,2.027c-0.045,0.037-4.609,3.738-7.865,9.682
				c-2.637,4.81-3.558,10.174-3.819,12.104l6.355,5.201c0.807-3.25,2.541-9.27,5.247-13.838c3.751-6.336,7.039-10.175,7.177-10.336
				c0.52-0.604,1.428-0.671,2.034-0.152c0.603,0.52,0.672,1.43,0.152,2.034c-0.032,0.038-3.269,3.824-6.881,9.925
				c-3.557,6.006-5.409,15.146-5.427,15.238c-0.099,0.497-0.451,0.906-0.928,1.076
				C1394.31,706.946,1394.146,706.974,1393.982,706.974z"/>
		</g>
		<g>
			<path style="fill:#FFFFFF;" d="M1467.536,506.27c-0.745-7.488-3.171-13.97-7.276-19.452c-5.439-6.476-11.096-7.551-16.98-3.229
				c-1.006,0.682-2.021,1.574-3.036,2.682c-6.646,7.639-11.353,17.564-14.124,29.775c-0.142,0.603-0.285,1.209-0.427,1.814
				l-0.048,0.295c-0.085,0.494-0.168,0.986-0.253,1.48c-0.142,0.603-0.262,1.201-0.361,1.794c-0.216,1.281-0.427,2.585-0.631,3.911
				c1.288,0.541,2.592,1.055,3.91,1.54c0.939,0.322,1.878,0.641,2.818,0.962c0.409,0.111,0.823,0.242,1.242,0.393l0.298,0.049
				c7.725,2.176,15.734,2.981,24.024,2.412l0.274-0.015l0.554-0.028c2.596-0.23,5.221-0.589,7.879-1.075
				c0.529-1.938,0.973-3.85,1.332-5.737l0.102-0.592l0.096-0.59C1467.878,517.037,1468.078,511.574,1467.536,506.27"/>
			<path style="fill:#47D7AC;" d="M1425.053,521.947c1.259,0.183,2.44-0.675,2.653-1.935l0.696-3.439
				c2.674-11.789,7.252-21.466,13.608-28.774c0.847-0.917,1.731-1.701,2.583-2.277c3.356-2.464,7.89-4.319,13.865,2.796
				c3.744,5.004,6.04,11.152,6.735,18.172c0.523,5.078,0.328,10.379-0.583,15.766l-0.072,0.422
				c-0.125,0.428-0.179,0.854-0.158,1.273c0.068,1.295,1.174,2.287,2.468,2.224c1.224-0.064,2.179-1.053,2.223-2.256l0.07-0.292
				l0.099-0.59c0.979-5.802,1.19-11.528,0.626-17.018c-0.783-7.877-3.383-14.818-7.733-20.621
				c-7.992-9.524-15.414-7.264-20.245-3.715c-1.078,0.726-2.239,1.75-3.377,2.984c-6.915,7.951-11.84,18.313-14.685,30.845
				l-0.421,1.796l-0.029,0.14l-0.303,1.783c-0.213,1.279,0.649,2.491,1.927,2.706L1425.053,521.947"/>
			<path style="fill:#FFFFFF;" d="M1577.101,556.633c-0.538-0.982-1.098-1.943-1.686-2.886
				c-12.154-20.013-28.973-34.19-50.448-42.536c-6.77-2.56-14.221-4.789-22.351-6.687c-1.791-0.437-3.545-0.804-5.265-1.097
				c-3.965-0.71-7.911-1.234-11.837-1.576l-0.683,0.037c-0.257-0.084-0.503-0.117-0.731-0.106l-0.674-0.03
				c-15.713-1.006-31.614,0.989-47.701,5.987c-22.355,7.434-38.364,21.117-48.022,41.049c-0.178,0.29-0.336,0.607-0.476,0.949
				c-0.895,1.812-1.736,3.723-2.525,5.736c-0.139,0.342-0.257,0.684-0.351,1.033l-0.105,0.254
				c-3.041,7.921-5.213,16.689-6.513,26.309c-0.78,6.664-2.219,12.558-4.317,17.677c-3.561,8.071-5.648,15.632-6.259,22.683
				c-0.162,1.738-0.228,3.447-0.199,5.12c-0.039,0.267-0.035,0.561,0.011,0.884c-0.053,1.305,0.033,2.581,0.26,3.834
				c0.354,3.169,1.06,6.253,2.117,9.253c0.431,1.103,0.905,2.188,1.43,3.255l0.31,0.658c2.483,5.328,6.27,10.238,11.362,14.722
				c1.718,1.559,3.579,3.069,5.579,4.536c1.711,1.286,3.516,2.564,5.412,3.831c13.988,9.205,29.756,15.619,47.309,19.239
				c1.139,0.255,2.321,0.517,3.549,0.785c7.137,1.573,14.36,2.705,21.671,3.402c0.677,0.006,1.372,0.039,2.088,0.096
				c3.219,0.239,6.469,0.417,9.75,0.529c4.642,0.081,9.12,0.051,13.433-0.093c0.553-0.056,1.121-0.088,1.71-0.092
				c9.386-0.543,18.159-1.849,26.322-3.923l0.493-0.133c7.004-1.88,13.57-4.319,19.7-7.322c1.025-0.529,2.052-1.082,3.083-1.654
				c9.034-4.975,16.976-11.307,23.825-18.993c5.354-6.095,9.989-12.994,13.902-20.698c4.272-8.918,7.078-17.867,8.421-26.843
				c1.242-8.904,1.042-17.834-0.603-26.792c-1.06-5.805-2.707-11.599-4.942-17.392c-0.53-1.34-1.062-2.659-1.598-3.957
				c-0.477-1.063-0.957-2.127-1.438-3.188c-0.389-0.734-0.78-1.469-1.172-2.204c-0.265-0.67-0.578-1.304-0.944-1.899
				C1577.632,557.794,1577.333,557.209,1577.101,556.633"/>
			<path style="fill:#47D7AC;" d="M1456.757,694.201c-4.363-0.634-8.705-1.426-12.977-2.367c-1.23-0.269-2.418-0.529-3.52-0.778
				c-17.761-3.664-33.954-10.252-48.14-19.589c-1.923-1.287-3.78-2.6-5.491-3.886c-2.063-1.509-4.006-3.087-5.745-4.669
				c-5.253-4.627-9.238-9.773-11.849-15.301c-0.235-0.353-0.401-0.704-0.502-1.059c-0.502-1.04-0.97-2.115-1.412-3.252
				c-1.103-3.131-1.854-6.394-2.229-9.697c-0.236-1.333-0.331-2.706-0.289-4.08c-0.038-0.376-0.039-0.744-0.005-1.093
				c-0.025-1.705,0.048-3.46,0.209-5.206c0.631-7.269,2.797-15.142,6.436-23.398c1.999-4.894,3.395-10.622,4.153-17.075
				c1.311-9.694,3.527-18.674,6.59-26.69l0.165-0.444c0.102-0.347,0.222-0.687,0.356-1.005c0.797-2.035,1.66-4.001,2.568-5.849
				c0.163-0.388,0.347-0.756,0.549-1.097c9.905-20.381,26.509-34.562,49.394-42.17c16.284-5.06,32.617-7.106,48.546-6.088
				l0.394,0.027c0.313-0.017,0.631,0.005,0.958,0.06c0.29-0.026,0.572-0.042,0.788,0.014c3.98,0.347,8.03,0.886,12.029,1.601
				c1.762,0.299,3.588,0.682,5.402,1.125c8.196,1.915,15.816,4.193,22.667,6.784c21.871,8.496,39.233,23.134,51.593,43.484
				c0.605,0.97,1.193,1.982,1.751,2.999l0.117,0.246c0.184,0.454,0.428,0.931,0.721,1.409c0.412,0.67,0.776,1.39,1.078,2.137
				l1.115,2.092l0.064,0.138l1.468,3.258c0.54,1.309,1.076,2.64,1.618,4.009c2.277,5.899,3.982,11.893,5.061,17.812
				c1.681,9.162,1.889,18.429,0.616,27.563c-1.37,9.168-4.272,18.422-8.65,27.561c-3.982,7.839-8.77,14.966-14.241,21.194
				c-6.995,7.85-15.222,14.41-24.435,19.481c-1.055,0.59-2.103,1.148-3.195,1.714c-6.23,3.051-13,5.569-20.121,7.479l-0.197,0.045
				l-0.159,0.048l-0.168,0.049c-8.27,2.101-17.277,3.445-26.883,3.996c-0.513,0.005-1.009,0.03-1.488,0.081l-0.159,0.01
				c-4.315,0.146-8.878,0.178-13.594,0.094c-3.308-0.116-6.623-0.295-9.858-0.536c-0.66-0.052-1.301-0.083-1.923-0.092l-0.2-0.01
				C1462.739,694.994,1459.744,694.635,1456.757,694.201 M1468.215,690.698c3.163,0.236,6.41,0.414,9.618,0.523
				c4.571,0.081,9.022,0.05,13.236-0.089c0.6-0.06,1.217-0.09,1.729-0.092c9.161-0.529,17.844-1.819,25.803-3.835l0.62-0.166
				c6.799-1.831,13.258-4.233,19.148-7.119c1.004-0.519,2.014-1.058,3.033-1.626c8.755-4.822,16.562-11.045,23.191-18.486
				c5.201-5.921,9.769-12.719,13.549-20.162c4.151-8.663,6.914-17.471,8.214-26.154c1.2-8.613,1.002-17.374-0.589-26.047
				c-1.028-5.631-2.652-11.337-4.817-16.946c-0.526-1.329-1.054-2.639-1.556-3.856l-1.404-3.12l-1.136-2.131l-0.114-0.245
				c-0.213-0.54-0.468-1.054-0.761-1.529c-0.403-0.657-0.745-1.32-1.02-1.973c-0.495-0.905-1.018-1.801-1.568-2.684
				c-11.825-19.464-28.41-33.45-49.273-41.554c-6.639-2.511-14.058-4.73-22.08-6.606c-1.733-0.423-3.448-0.781-5.117-1.068
				c-3.835-0.685-7.703-1.201-11.629-1.548c-0.385,0.08-0.704,0.064-1.089-0.06c-0.343,0.018-0.69,0.006-1.026-0.038
				c-15.327-0.969-31.065,1.012-46.727,5.878c-21.628,7.189-37.325,20.596-46.651,39.843l-0.108,0.202l-0.307,0.612l-0.068,0.151
				c-0.861,1.746-1.682,3.614-2.456,5.585c-0.102,0.252-0.191,0.506-0.261,0.763l-0.148,0.401l-0.028,0.08
				c-2.964,7.711-5.109,16.383-6.373,25.738c-0.804,6.843-2.308,13-4.477,18.291l-0.022,0.059
				c-3.441,7.794-5.483,15.174-6.07,21.951c-0.152,1.647-0.215,3.283-0.19,4.866l-0.021,0.373l0.01,0.233l0.019,0.414
				c-0.046,1.121,0.029,2.237,0.225,3.322l0.021,0.153c0.335,2.979,1.008,5.917,1.974,8.663c0.407,1.039,0.859,2.074,1.351,3.074
				l0.141,0.364l0.188,0.332c2.335,5.009,5.964,9.706,10.811,13.977c1.646,1.492,3.458,2.967,5.415,4.395
				c1.667,1.255,3.452,2.519,5.288,3.748c13.675,8.999,29.318,15.356,46.534,18.909c1.134,0.255,2.311,0.515,3.538,0.784
				c6.984,1.54,14.146,2.665,21.293,3.347C1466.778,690.606,1467.491,690.641,1468.215,690.698z M1373.098,645.54l0.001-0.005
				L1373.098,645.54z M1485.168,504.172l0.07,0.007L1485.168,504.172z M1485.367,504.169"/>
			<path style="fill:#FFFFFF;" d="M1568.083,526.148c2.514-7.091,3.084-13.993,1.703-20.698c-2.164-8.176-6.825-11.56-13.986-10.152
				c-1.203,0.185-2.5,0.565-3.892,1.131c-9.266,4.083-17.752,11.061-25.459,20.925c-0.387,0.486-0.773,0.974-1.16,1.46l-0.172,0.245
				c-0.283,0.411-0.569,0.821-0.855,1.234c-0.386,0.486-0.752,0.975-1.093,1.467c-0.743,1.068-1.487,2.158-2.237,3.27
				c0.935,1.04,1.896,2.059,2.88,3.06c0.714,0.692,1.428,1.381,2.141,2.073c0.32,0.272,0.639,0.567,0.956,0.882l0.247,0.172
				c6.062,5.259,12.966,9.397,20.71,12.414l0.255,0.103l0.511,0.21c2.446,0.894,4.978,1.69,7.586,2.382
				c1.306-1.526,2.523-3.067,3.651-4.622l0.341-0.492l0.344-0.495C1563.806,536.037,1566.318,531.18,1568.083,526.148"/>
			<path style="fill:#47D7AC;" d="M1559.515,544.057l-0.552-0.151c-1.201-0.488-1.778-1.859-1.287-3.06
				c0.157-0.391,0.39-0.755,0.686-1.088l0.244-0.351c3.116-4.484,5.552-9.198,7.243-14.014c2.358-6.65,2.902-13.191,1.646-19.312
				c-2.377-8.983-7.269-9.234-11.355-8.436c-1.02,0.16-2.152,0.491-3.307,0.963c-8.865,3.905-17.126,10.708-24.567,20.236
				l-1.113,1.401l-0.982,1.415c-0.738,1.066-2.2,1.333-3.269,0.59c-1.066-0.738-1.33-2.2-0.591-3.264l1.033-1.489l0.085-0.116
				l1.146-1.443c7.912-10.129,16.782-17.407,26.423-21.654c1.551-0.632,3.038-1.062,4.325-1.262
				c5.889-1.157,13.563-0.036,16.737,11.984c1.463,7.099,0.861,14.486-1.784,21.95c-1.829,5.205-4.458,10.296-7.813,15.13
				l-0.344,0.492l-0.187,0.237C1561.469,543.712,1560.489,544.198,1559.515,544.057 M1561.847,542.906"/>
			<path style="fill:#83E8D3;" d="M1542.006,599.212c-6.313,4.918-10.203,9.461-11.661,13.634c-1.519,4.253-2.04,9.262-1.562,15.025
				c0.214,1.657,0.477,3.277,0.789,4.858c2.232,12.072,6.524,24.124,12.874,36.156c0.95,1.856,2.688,4.682,5.213,8.483
				c6.926-4.47,13.167-9.804,18.715-16.005c5.354-6.095,9.989-12.994,13.902-20.698c4.272-8.918,7.078-17.867,8.421-26.843
				c1.094-7.885,1.083-15.773-0.037-23.661c-0.164-1.064-0.352-2.11-0.566-3.132c-0.489-2.557-1.066-5.127-1.734-7.708
				C1569.805,582.577,1555.019,589.208,1542.006,599.212"/>
			<path style="fill:#83E8D3;" d="M1547.402,679.022c0.395,0.057,0.81-0.026,1.169-0.266c0.771-0.511,0.982-1.551,0.468-2.32
				c-2.477-3.734-4.2-6.53-5.117-8.319c-6.25-11.844-10.526-23.848-12.718-35.696c-0.307-1.561-0.568-3.157-0.775-4.769
				c-0.446-5.421,0.047-10.24,1.479-14.247c1.349-3.853,5.086-8.182,11.113-12.875c12.737-9.791,27.423-16.376,43.648-19.565
				c0.908-0.178,1.499-1.062,1.321-1.97c-0.178-0.908-1.056-1.504-1.97-1.321c-16.735,3.29-31.891,10.09-45.051,20.206
				c-6.645,5.172-10.64,9.883-12.226,14.407c-1.587,4.453-2.143,9.745-1.647,15.718c0.223,1.761,0.492,3.434,0.816,5.047
				c2.247,12.161,6.635,24.486,13.034,36.613c0.98,1.912,2.715,4.738,5.301,8.626C1546.52,678.7,1546.949,678.956,1547.402,679.022"
				/>
			<path style="fill:#47D7AC;" d="M1547.306,679.686c0.541,0.079,1.113-0.032,1.608-0.349c7.07-4.56,13.528-10.081,19.194-16.411
				c5.475-6.233,10.263-13.36,14.245-21.199c4.378-9.14,7.28-18.393,8.65-27.561c1.124-8.09,1.109-16.27-0.037-24.336
				c-0.173-1.133-0.367-2.215-0.588-3.282c-0.488-2.546-1.08-5.181-1.755-7.79l-0.028-0.107l-0.028-0.088
				c-0.096-0.292-0.176-0.584-0.241-0.874c-0.276-1.266-1.526-2.071-2.795-1.792c-1.266,0.276-2.068,1.527-1.792,2.795
				c0.093,0.425,0.208,0.855,0.349,1.287c0.645,2.498,1.21,5.017,1.681,7.49c0.214,1.02,0.395,2.023,0.552,3.046
				c1.078,7.61,1.092,15.35,0.034,22.982c-1.299,8.68-4.063,17.488-8.214,26.152c-3.78,7.443-8.349,14.24-13.549,20.162
				c-5.371,6.003-11.506,11.249-18.223,15.578c-1.091,0.705-1.403,2.16-0.701,3.248
				C1546.051,679.228,1546.657,679.591,1547.306,679.686"/>
			<path d="M1431.012,596.945c-0.63,4.339-1.986,7.916-4.067,10.732c-2.094,2.904-4.311,4.185-6.658,3.844s-4.11-2.201-5.292-5.581
				c-1.237-3.298-1.542-7.116-0.912-11.455c0.63-4.336,2.013-7.931,4.143-10.786c2.081-2.815,4.295-4.051,6.642-3.711
				c2.347,0.341,4.115,2.155,5.308,5.447C1431.363,588.772,1431.641,592.609,1431.012,596.945"/>
			<path d="M1490.644,607.067c-0.63,4.339-1.986,7.916-4.067,10.732c-2.094,2.904-4.311,4.185-6.658,3.844
				c-2.347-0.341-4.11-2.201-5.292-5.581c-1.237-3.298-1.542-7.116-0.912-11.455c0.63-4.336,2.013-7.931,4.143-10.786
				c2.081-2.815,4.295-4.051,6.642-3.711c2.347,0.341,4.115,2.155,5.308,5.447C1490.995,598.894,1491.274,602.731,1490.644,607.067"
				/>
			<path style="fill:#83E8D3;" d="M1429.136,566.915l0.116,0.099c1.158,0.522,2.361,0.504,3.611-0.058
				c1.205-0.386,2.081-1.204,2.624-2.451c0.522-1.158,0.561-2.396,0.106-3.71c-0.398-1.161-1.153-2.019-2.257-2.574l-16.66-7.456
				c-1.169-0.48-2.34-0.498-3.516-0.056c-1.235,0.518-2.122,1.377-2.657,2.58c-0.535,1.205-0.579,2.391-0.137,3.564
				c0.41,1.119,1.075,1.956,1.994,2.509l0.311,0.149L1429.136,566.915"/>
			<path style="fill:#47D7AC;" d="M1430.166,569.05c-0.536-0.078-1.064-0.231-1.577-0.463l-0.326-0.194l-16.151-7.265
				c-0.247-0.08-0.476-0.192-0.675-0.338c-1.205-0.755-2.087-1.869-2.611-3.301c-0.602-1.593-0.542-3.221,0.174-4.835
				c0.712-1.601,1.902-2.763,3.6-3.471c1.578-0.591,3.173-0.568,4.789,0.097l16.726,7.487c1.508,0.758,2.547,1.944,3.09,3.529
				c0.594,1.723,0.54,3.387-0.155,4.928c-0.721,1.643-1.948,2.799-3.558,3.344C1432.385,569.048,1431.259,569.208,1430.166,569.05
				 M1428.728,568.58l-0.003,0L1428.728,568.58z M1427.834,567.91l0-0.003L1427.834,567.91z M1429.152,566.958l0.013,0.002
				L1429.152,566.958z M1413.835,552.297c-0.847,0.356-1.408,0.904-1.772,1.719c-0.356,0.801-0.388,1.528-0.095,2.303
				c0.277,0.754,0.697,1.297,1.288,1.649l0.01,0.007l0.121,0.048l16.41,7.381l0.391,0.212c0.642,0.23,1.289,0.182,2.014-0.146
				l0.173-0.068c0.743-0.238,1.251-0.722,1.611-1.544c0.349-0.772,0.362-1.557,0.046-2.474c-0.256-0.748-0.707-1.263-1.354-1.591
				l-16.612-7.435c-0.27-0.11-0.537-0.184-0.798-0.222C1414.781,552.066,1414.307,552.123,1413.835,552.297z M1413.483,558.135
				l0-0.003L1413.483,558.135z M1413.118,557.93"/>
			<path style="fill:#83E8D3;" d="M1502.646,565.244c-0.916-0.857-2.008-1.286-3.271-1.287l-18.245,0.548
				c-1.233,0.093-2.255,0.601-3.067,1.523c-0.92,1.043-1.357,2.199-1.316,3.469c0.031,1.363,0.529,2.451,1.494,3.267
				c0.939,0.994,2.046,1.471,3.319,1.43l0.143-0.047l18.045-0.578l0.34-0.018c1.064-0.164,1.998-0.685,2.803-1.562
				c0.855-0.916,1.264-2.03,1.227-3.348C1504.083,567.326,1503.591,566.193,1502.646,565.244"/>
			<path style="fill:#47D7AC;" d="M1480.523,575.857c-1.296-0.188-2.48-0.81-3.467-1.83c-1.279-1.114-1.976-2.651-2.014-4.429
				c-0.057-1.705,0.526-3.265,1.73-4.634c1.109-1.258,2.523-1.959,4.276-2.088l18.297-0.552c1.695,0.007,3.182,0.588,4.455,1.78
				c1.257,1.258,1.915,2.783,1.963,4.539c0.051,1.764-0.514,3.291-1.668,4.526c-1.041,1.131-2.279,1.831-3.683,2.068
				c-0.24,0.058-0.493,0.076-0.757,0.056l-17.695,0.569l-0.375,0.054C1481.223,575.927,1480.869,575.908,1480.523,575.857
				 M1481.43,575.85l0.003,0L1481.43,575.85z M1481.436,575.851 M1482.528,575.585l0.003-0.002L1482.528,575.585z M1481.681,572.513
				l17.98-0.576l0.139,0.001l0.003-0.002c0.682-0.102,1.276-0.441,1.829-1.044c0.557-0.594,0.804-1.283,0.779-2.158
				c-0.023-0.894-0.338-1.612-0.941-2.22c-0.612-0.568-1.284-0.832-2.076-0.835l-18.171,0.546c-0.796,0.061-1.409,0.364-1.934,0.96
				c-0.639,0.724-0.925,1.456-0.896,2.323c0.02,0.874,0.305,1.518,0.899,2.021l0.136,0.129c0.545,0.578,1.121,0.866,1.807,0.905
				L1481.681,572.513z M1499.531,572.002l0.003,0L1499.531,572.002z"/>
			<path style="fill:#83E8D3;" d="M1380.843,567.4c-1.298,4.92-2.321,10.125-3.07,15.62c-0.78,6.664-2.219,12.558-4.317,17.677
				c-1.343,3.059-2.476,6.037-3.389,8.932c4.869-4.63,8.875-8.568,12.011-11.821c3.558-3.688,4.882-8.151,3.966-13.39
				C1385.4,580.757,1383.667,575.084,1380.843,567.4"/>
			<path style="fill:#83E8D3;" d="M1369.84,611.304c0.493,0.072,1.01-0.074,1.399-0.442c4.872-4.632,8.93-8.625,12.062-11.874
				c3.936-4.076,5.421-9.07,4.411-14.842c-0.668-3.798-2.395-9.457-5.276-17.307c-0.32-0.872-1.283-1.311-2.154-0.996
				c-0.868,0.318-1.313,1.282-0.996,2.151c2.775,7.554,4.497,13.182,5.123,16.731c0.826,4.719-0.327,8.625-3.523,11.935
				c-3.097,3.212-7.12,7.173-11.959,11.768c-0.67,0.638-0.696,1.699-0.059,2.372C1369.137,611.082,1369.48,611.251,1369.84,611.304"
				/>
			<path style="fill:#47D7AC;" d="M1369.749,611.969c1.117,0.162,2.222-0.505,2.571-1.617c0.885-2.796,1.996-5.72,3.303-8.694
				c2.193-5.351,3.698-11.504,4.499-18.348c0.728-5.332,1.742-10.492,3.009-15.294c0.332-1.254-0.416-2.538-1.669-2.87
				c-1.252-0.34-2.539,0.418-2.871,1.672c-1.316,4.988-2.368,10.339-3.127,15.903c-0.757,6.464-2.157,12.205-4.162,17.103
				c-1.35,3.072-2.523,6.158-3.456,9.113c-0.392,1.237,0.293,2.556,1.529,2.948L1369.749,611.969"/>
		</g>
		<g>
			<path d="M1440.948,640.711c-0.456,0-0.909-0.03-1.346-0.088c-5.615-0.731-8.585-5.723-8.905-6.29
				c-0.635-1.135-0.231-2.573,0.899-3.208c0.36-0.197,0.755-0.299,1.152-0.299c0.851,0,1.638,0.459,2.052,1.198
				c0.076,0.128,2.106,3.512,5.43,3.934c0.225,0.028,0.455,0.043,0.687,0.043c2.385,0,5.141-1.543,7.971-4.462
				c0.446-0.46,1.045-0.715,1.688-0.715c0.615,0,1.198,0.236,1.64,0.664c0.452,0.439,0.706,1.026,0.715,1.655
				c0.01,0.629-0.227,1.225-0.665,1.676C1448.476,638.728,1444.667,640.711,1440.948,640.711z"/>
			<path d="M1440.948,639.743c-0.408,0-0.814-0.025-1.219-0.08c-5.26-0.684-8.073-5.599-8.19-5.807
				c-0.374-0.668-0.137-1.513,0.531-1.889c0.672-0.368,1.513-0.135,1.887,0.529c0.049,0.083,2.299,3.931,6.152,4.42
				c2.867,0.359,6.089-1.214,9.474-4.705c0.533-0.551,1.41-0.562,1.961-0.029c0.549,0.533,0.563,1.41,0.029,1.961
				C1447.966,637.863,1444.396,639.743,1440.948,639.743z"/>
		</g>
		<g>
			<path style="fill:#47D7AC;" d="M1401.593,838.624c-5.955,0-11.919-0.246-13.766-0.411c-1.94-0.173-4.431-0.531-6.491-1.765
				c-1.907-1.142-4.098-3.441-3.696-7.898c0.496-5.505,3.572-7.858,5.289-8.756l16.053-45.871c0.395-1.127,1.627-1.723,2.757-1.328
				c1.128,0.394,1.723,1.63,1.328,2.757l-16.365,46.76c-0.234,0.668-0.779,1.179-1.461,1.369c-0.261,0.086-2.896,1.061-3.292,5.458
				c-0.215,2.382,0.748,3.281,1.61,3.797c1.304,0.782,3.172,1.034,4.652,1.166c3.583,0.321,18.317,0.737,24.14-0.075
				c4.048-0.566,7.698-2.234,6.993-10.533c-0.024-0.276,0.006-0.552,0.086-0.817l12.152-39.654c0.349-1.144,1.564-1.788,2.703-1.435
				c1.142,0.351,1.785,1.561,1.435,2.703l-12.032,39.262c0.614,8.713-2.997,13.679-10.74,14.759
				C1410.212,838.495,1405.904,838.624,1401.593,838.624z"/>
		</g>
		<g>
			<path style="fill:#47D7AC;" d="M1454.663,838.343c-2.169,0-4.121-0.079-5.624-0.285c-6.915-0.946-9.237-3.297-9.209-9.313
				c0.017-3.514,2.626-7.786,3.683-9.374l0.256-37.071c0.009-1.189,0.975-2.148,2.164-2.148c0.004,0,0.01,0,0.016,0
				c1.194,0.008,2.156,0.983,2.148,2.179l-0.261,37.733c-0.003,0.445-0.145,0.879-0.403,1.242c-1.262,1.769-3.267,5.358-3.276,7.458
				c-0.016,3.183-0.02,4.255,5.468,5.006c4.426,0.606,14.129-0.049,19.928-0.442c2.383-0.161,4.267-0.287,5.272-0.301
				c2.113-0.028,3.628-0.602,4.633-1.752c1.564-1.79,2.08-5.245,1.497-9.991c-0.016-0.127-0.02-0.255-0.013-0.382l2.65-48.277
				c0.066-1.193,1.049-2.086,2.279-2.042c1.193,0.066,2.107,1.086,2.042,2.279l-2.64,48.088c0.719,6.069-0.12,10.378-2.557,13.171
				c-1.834,2.1-4.469,3.188-7.834,3.233c-0.889,0.011-2.811,0.142-5.038,0.292C1465.457,837.943,1459.518,838.343,1454.663,838.343z
				"/>
		</g>
		<g>
			<path style="fill:#47D7AC;" d="M1441.099,784.245c-6.92,0-11.791-3.159-11.995-3.294c-0.997-0.658-1.272-2-0.614-2.998
				c0.658-0.994,1.993-1.269,2.992-0.618c0.08,0.052,4.075,2.583,9.618,2.583c8.13,0,10.346-1.061,10.705-1.272
				c0.685-0.724,1.804-0.897,2.689-0.363c1.023,0.618,1.351,1.948,0.734,2.971C1454.026,783.238,1449.274,784.245,1441.099,784.245z
				 M1451.525,779.013c-0.001,0.001-0.001,0.003-0.003,0.004C1451.523,779.015,1451.523,779.014,1451.525,779.013z M1451.526,779.01
				c0,0,0,0.001-0.001,0.003C1451.526,779.011,1451.526,779.01,1451.526,779.01z M1451.529,779.005c0,0.001-0.001,0.001-0.001,0.001
				S1451.529,779.007,1451.529,779.005z M1451.857,778.612L1451.857,778.612L1451.857,778.612z"/>
		</g>
	</g>
</g>
<circle style="fill:#43BFA8;" cx="101.746" cy="63.469" r="2.361"/>
</svg>
