<svg xmlns="http://www.w3.org/2000/svg" xmlns:xlink="http://www.w3.org/1999/xlink" viewBox="0 0 1600 900"><defs><style>.cls-1{fill:none;}.cls-2{isolation:isolate;}.cls-3{fill:#fff;}.cls-4{fill:#fae6e9;}.cls-5{fill:url(#linear-gradient);}.cls-6{mix-blend-mode:multiply;}.cls-7{fill:#f1eced;}.cls-8{clip-path:url(#clip-path);}.cls-9{fill:#eab9c8;}.cls-10{fill:#f9e4e9;}.cls-11{fill:#f9e5eb;}.cls-12{fill:#333;}.cls-13{fill:#fadadf;}.cls-14{fill:#f593a2;}.cls-15{fill:#83e8d3;}.cls-16{fill:#47d7ac;}.cls-17{fill:#1cb594;}</style><linearGradient id="linear-gradient" x1="800" x2="800" y2="900" gradientUnits="userSpaceOnUse"><stop offset="0" stop-color="#fff"/><stop offset="0" stop-color="#fff" stop-opacity="0"/><stop offset="0.416" stop-color="#fcd7dd" stop-opacity="0.025"/><stop offset="0.979" stop-color="#f2667d" stop-opacity="0.097"/><stop offset="1" stop-color="#f26179" stop-opacity="0.1"/></linearGradient><clipPath id="clip-path"><rect class="cls-1" width="1600" height="900"/></clipPath></defs><g class="cls-2"><g id="bg"><rect class="cls-3" y="-0.359" width="1600" height="900"/></g><g id="Layer_1" data-name="Layer 1"><rect class="cls-4" width="1600" height="900"/><rect class="cls-5" width="1600" height="900"/><g class="cls-6"><ellipse class="cls-7" cx="148.276" cy="875.553" rx="121.251" ry="9.14"/></g><g class="cls-8"><path class="cls-9" d="M560.2-21.828s-187.1,549.044-303.195,754.839L662.72-26.788Z"/><path class="cls-3" d="M1389.074,1413.677c-91.283-10-1122.4-653.713-1127.372-671.657-.569-5.488-2.252-7.756-4.695-9.009,16.2-19.246,21.535-27.14,36.033-47.547C360.485,590.531,408.245,484.329,461.1,381.1Q543.7,219.786,634.8,63.026,684.079-21.76,735.785-105.1c32.38-52.192,63.037-107.157,103.323-153.64,51.566-59.832,94.744-118.45,152.912-171.885,40.472-37.179,84.5-72.623,135.9-93.419,27.389-11.082,57.428-16.76,86.325-22.928a1431.03,1431.03,0,0,1,187.032-27.287c142.982-11.179,467.562-4.758,589.339,80.373,39.053,27.3,71.708,62.971,94.478,104.9,26.485,48.763,224.8,1015.94,236.112,1065.585C2362.924,859.7,1504.83,1426.325,1389.074,1413.677Z"/><path class="cls-10" d="M261.691,743.151s155.477,124.328,505.787,359.105H935.422Z"/><polygon class="cls-11" points="257.007 733.011 302.564 700.509 261.474 736.001 257.007 733.011"/><polygon class="cls-11" points="257.781 736.715 291.784 737.35 258.878 739.792 257.781 736.715"/><path class="cls-11" d="M257.007,733.011c16.2-19.246,21.535-27.14,36.033-47.546C365.834,583,423.137,454.681,480.458,343.085,537.9,231.257,593.977,130.981,660.123,24.106q7.545-12.191,14.8-24.465H590.811c-35.228,86.28-213.133,518.067-328.559,724.084l-5.245,9.286h0Z"/></g><rect class="cls-3" x="30" y="28.759" width="426.39" height="65" rx="32.5"/><path class="cls-12" d="M130.9,73.9H117.435v-29.3h16.012v4.929h-10.1V69h8.227c2.584,0,4.148-.34,5.2-1.257V44.05h5.951V56.323h4.384v4.964h-4.384V75.905h-5.951V72.437C135.69,73.491,133.787,73.9,130.9,73.9Z"/><path class="cls-12" d="M176.218,62.612h-28.83V57.921h28.83Zm-27.4-12.239a4.732,4.732,0,0,1,2.006-4.079c2.209-1.632,5.984-2.244,11.015-2.244,4.963,0,8.805.612,10.946,2.244a5.049,5.049,0,0,1,0,8.159c-2.141,1.632-5.983,2.278-10.946,2.278-5.031,0-8.806-.646-11.015-2.278A4.734,4.734,0,0,1,148.816,50.373Zm25.463,14.143V76.211H149.326V64.516Zm-5.3-14.143a1.164,1.164,0,0,0-.51-.918c-.951-.679-3.161-.85-6.629-.85-3.5,0-5.712.171-6.663.85a1.047,1.047,0,0,0,0,1.836c.951.646,3.161.85,6.663.85,3.468,0,5.678-.2,6.629-.85A1.164,1.164,0,0,0,168.976,50.373Zm-13.8,21.384H168.4V69H155.174Z"/><path class="cls-12" d="M195.871,68.154c-1.563,2.821-5.269,5.167-9.213,5.915V68.9c3.705-1.5,6.255-4.046,6.255-12.919V44.424h5.949V55.983c0,8.873,2.483,11.355,6.222,12.919v5.167A14.2,14.2,0,0,1,195.871,68.154Zm11.9-24.1h5.949V75.905H207.77Z"/><path class="cls-12" d="M228.477,49.251H218.243V44.424h16.183v3.264c0,9.723-5.031,15.162-16.9,16.08v-4.9C224.805,58.124,228.408,54.9,228.477,49.251Zm-8.568,15.231h5.949v6.765h18.5v4.828H219.909ZM237.961,44.05h5.95v8.023h4.182V57h-4.182v9.383h-5.95Z"/><path class="cls-12" d="M249.081,59.212c0-7.716.714-11.8,2.754-13.768a5.26,5.26,0,0,1,3.909-1.36,5.51,5.51,0,0,1,3.944,1.36c1.666,1.666,2.448,4.862,2.652,10.539h1.835V44.254h5.168V75.6h-5.168V60.98h-1.8c-.136,6.63-.884,10.233-2.685,12.035a5.349,5.349,0,0,1-3.944,1.326,5.114,5.114,0,0,1-3.909-1.326C249.8,71.078,249.081,67,249.081,59.212Zm8.125,0c0-6.391-.136-9.043-.748-9.926a.828.828,0,0,0-1.428,0c-.646.883-.782,3.535-.782,9.926,0,6.426.136,9.077.782,9.995a.869.869,0,0,0,1.428,0C257.07,68.289,257.206,65.638,257.206,59.212ZM276.04,44.05V75.905h-5.269V44.05Z"/><path class="cls-12" d="M293.96,44.594V55h2.516v-10.4h5.065V73.865H288.86V44.594Zm0,24.579h2.516V59.79H293.96ZM315.344,44.05V75.905h-5.27V60.913h-1.767V75.6h-5.168V44.254h5.168v11.7h1.767V44.05Z"/><path class="cls-12" d="M347.644,60.164H336.152v1.564h9.553v9.281H326.6V72.2h19.752v4.012h-25.6V67h19.072V65.774H320.752V61.728h9.485V60.164H318.813V55.813h28.831Zm-27.4-10.743a3.862,3.862,0,0,1,1.564-3.263c2.04-1.53,5.882-2.108,11.457-2.108,5.507,0,9.383.578,11.388,2.108a4.045,4.045,0,0,1,0,6.493c-2,1.53-5.881,2.142-11.388,2.142-5.575,0-9.417-.612-11.457-2.142A3.843,3.843,0,0,1,320.242,49.421Zm20.159,0a.664.664,0,0,0-.407-.612c-.816-.509-2.992-.646-6.731-.646-3.774,0-5.95.137-6.8.646a.726.726,0,0,0-.407.612.824.824,0,0,0,.407.613c.85.509,3.026.611,6.8.611,3.739,0,5.915-.1,6.731-.611A.739.739,0,0,0,340.4,49.421Z"/><path class="cls-12" d="M367.568,73.865H359.1V44.424h5.542V69h3.67c2.142,0,3.6-.237,4.624-1.053v-23.7h5.236v11.7h2.04V44.05h5.371V75.905h-5.371V60.913h-2.04V75.6H372.94V72.675C371.887,73.559,370.221,73.865,367.568,73.865Z"/><path class="cls-12" d="M390.485,50.373a4.732,4.732,0,0,1,2.006-4.079c2.209-1.632,5.984-2.244,11.015-2.244,4.963,0,8.805.612,10.946,2.244a5.049,5.049,0,0,1,0,8.159,7.719,7.719,0,0,1-2.243,1.156v2.652h5.677v4.657H389.058V58.261h5.812V55.643a8.649,8.649,0,0,1-2.379-1.19A4.734,4.734,0,0,1,390.485,50.373Zm0,19.99A4.823,4.823,0,0,1,392.9,66.08c2.21-1.428,5.882-2.04,10.608-2.04,4.691,0,8.363.612,10.573,2.04a4.973,4.973,0,0,1,0,8.567c-2.21,1.462-5.882,2.006-10.573,2.006-4.726,0-8.4-.544-10.608-2.006A4.824,4.824,0,0,1,390.485,70.363Zm20.16-19.99a1.164,1.164,0,0,0-.51-.918c-.952-.679-3.161-.85-6.629-.85-3.5,0-5.712.171-6.663.85a1.047,1.047,0,0,0,0,1.836c.951.646,3.161.85,6.663.85,3.468,0,5.677-.2,6.629-.85A1.164,1.164,0,0,0,410.645,50.373ZM396.3,70.363a1.082,1.082,0,0,0,.611.952c.986.612,3.094.816,6.6.816,3.468,0,5.575-.2,6.561-.816a1.05,1.05,0,0,0,.578-.952,1.184,1.184,0,0,0-.578-.986c-.986-.544-3.093-.816-6.561-.816-3.5,0-5.61.272-6.6.816A1.222,1.222,0,0,0,396.3,70.363Zm10.1-13.7c-.918.034-1.871.068-2.89.068-.986,0-1.9-.034-2.788-.068v1.6H406.4Z"/><circle class="cls-13" cx="62.93" cy="61.259" r="28.676"/><circle class="cls-14" cx="62.93" cy="61.259" r="24.853"/><path class="cls-3" d="M74.886,58.765h2.526A14.962,14.962,0,0,0,64.867,46.443v2.514A12.485,12.485,0,0,1,74.886,58.765Zm-26.961,0h2.529a12.49,12.49,0,0,1,9.425-9.688V46.513A14.99,14.99,0,0,0,47.925,58.765Zm2.545,4.987H47.936A14.994,14.994,0,0,0,59.879,75.911V73.346A12.488,12.488,0,0,1,50.47,63.752Zm14.4,9.714v2.526A14.969,14.969,0,0,0,77.4,63.752H74.871A12.485,12.485,0,0,1,64.867,73.466Z"/><path class="cls-3" d="M62.373,42.141a1.322,1.322,0,0,0-1.384,1.247v8.59a1.393,1.393,0,0,0,2.77,0v-8.59A1.323,1.323,0,0,0,62.373,42.141Z"/><path class="cls-3" d="M62.373,69.293a1.322,1.322,0,0,0-1.384,1.247v8.59a1.393,1.393,0,0,0,2.77,0V70.54A1.322,1.322,0,0,0,62.373,69.293Z"/><path class="cls-3" d="M80.8,59.873H72.212a1.394,1.394,0,0,0,0,2.772H80.8a1.394,1.394,0,0,0,0-2.772Z"/><path class="cls-3" d="M53.649,59.873H45.06a1.394,1.394,0,0,0,0,2.772h8.589a1.394,1.394,0,0,0,0-2.772Z"/><circle class="cls-3" cx="62.375" cy="61.259" r="2.361"/><path class="cls-15" d="M94.369,755.65l9.782-13.539Q80.237,706.3,51.082,680.636q-17.535-15.686-28.908-3.725a13.365,13.365,0,0,0-3.252,8.018q-.3,4.874,3.032,10.682A45.512,45.512,0,0,0,30.825,706q15.36,13.954,63.544,49.655"/><path class="cls-16" d="M16.731,683.375a15.844,15.844,0,0,1,3.654-7.962l.1-.111c5.9-6.205,16.268-10.617,32.151,3.594,19.486,17.146,37.476,37.984,53.457,61.92a2.333,2.333,0,0,1-.052,2.662L96.26,757.017a2.333,2.333,0,0,1-3.282.508c-32.034-23.735-53.474-40.491-63.724-49.8a48.153,48.153,0,0,1-9.3-10.9c-2.47-4.3-3.594-8.338-3.364-12.037.025-.474.07-.946.137-1.41m7.19-4.911a10.991,10.991,0,0,0-2.669,6.59c-.171,2.79.745,5.946,2.728,9.395a43.312,43.312,0,0,0,8.391,9.8c9.954,9.043,30.629,25.223,61.49,48.12l7.446-10.306c-15.527-23.033-32.938-43.106-51.769-59.674C33.792,668.3,26.4,675.857,23.921,678.464Z"/><path class="cls-15" d="M173.643,814.777l40.387,8.382a7.3,7.3,0,0,0,4.688,5.112q5.349,1.758,7.993-7.367a137.759,137.759,0,0,0,3.783-16.3q1.306-8.323-9.824-9.142l-39.335-11.4-7.692,30.718Z"/><path class="cls-16" d="M181.906,782.1l4.856,1.411,2.254.662.454.133.018,0,2.584.745.074.018,6.384,1.852.872.258.89.262.019,0,20.754,6.017c4.746.369,7.958,1.72,9.839,4.1a9.013,9.013,0,0,1,1.595,7.345c-.52,3.245-1.256,6.729-2.176,10.4q-.751,3-1.655,6.141c-1.282,4.419-3.041,7.159-5.383,8.406a6.181,6.181,0,0,1-2.4.688,6.774,6.774,0,0,1-2.8-.368,9.151,9.151,0,0,1-3.469-2.118,9.442,9.442,0,0,1-2.115-3.163l-13.26-2.755-1.464-.308-4.714-.966-1.092-.235-.3-.055-.611-.133-.89-.184-1.074-.23-9.7-2.019-.615-.115-1.927-.4-.037-.009-3.58-.74a1.954,1.954,0,0,1-.757-.326l-.018,0a1.8,1.8,0,0,1-.551-.606,1.94,1.94,0,0,1-.261-1.451,2.029,2.029,0,0,1,2.4-1.564l.074.019,6.379,1.324,10.649,2.2.757.17c.018,0,.041-.009.055.014a.246.246,0,0,1,.115.009l.036.01.019,0,.3.055.519.111,5.691,1.191,1.579.317,14.224,2.957a1.993,1.993,0,0,1,1.523,1.4,5.272,5.272,0,0,0,3.423,3.784,2.381,2.381,0,0,0,1.992-.086c.877-.463,2.208-1.886,3.376-5.925a136.219,136.219,0,0,0,3.729-16.059,5.159,5.159,0,0,0-.765-4.191c-1.138-1.456-3.533-2.329-7.091-2.615a2.4,2.4,0,0,1-.527-.074L200.6,791.741l-.055-.014-1.239-.349-1.762-.52-4.856-1.411-1.257-.354-.019,0-1.381-.405-.037-.009-2.093-.6-7.054-2.059-.074-.019a2.027,2.027,0,0,1,1.131-3.892Z"/><path class="cls-15" d="M135.036,722.272v-15.06H111.994a344.748,344.748,0,0,0-21.516,40.949c-3.98,9.025-7.708,13.269-9.419,20.858-5.276,23.227.882,43.714,16.7,53.338l15.687-7.7,8.26,15.823q6.174.209,10.132.348h3.4q3.843-.093,7.566-.554l13.625-2.223,12.543-5.692q1.518-.923,2.914-1.942,20.313-14.721,12.909-47.335a137.326,137.326,0,0,0-8.537-24.919l-27.9-25.889H135.036"/><path class="cls-16" d="M135.247,833.256l-.043,0-3.361,0c-2.721-.1-6.1-.211-10.214-.35a2.429,2.429,0,0,1,.164-4.856q6.177.212,10.136.348l2.968,0h.388a2.431,2.431,0,0,1-.038,4.861Z"/><path class="cls-17" d="M140.363,782.774a20.566,20.566,0,0,0-1.6-7.67,18.05,18.05,0,0,0-4.266-6.335,19.637,19.637,0,0,0-32.075,6.536,19.827,19.827,0,0,0-1.535,7.735v1.132l10.737-.066V782.97a9.06,9.06,0,0,1,2.6-6.466,9.013,9.013,0,0,1,12.737-.068,8.562,8.562,0,0,1,2.734,6.469v1.066h10.67v-1.2"/><path class="cls-15" d="M245.183,724.917q-11.411.321-23.037,1.608a326.469,326.469,0,0,0-57.076,11.728l-1.135,16.664q22.608,1.269,39.647,1.918,28.058,1.1,40.96.534A45.481,45.481,0,0,0,258,755.056q6.276-2.331,9.16-6.273a13.358,13.358,0,0,0,2.626-8.245q-1.093-16.47-24.606-15.621"/><path class="cls-15" d="M115.175,798.354l-37.9,35.361a9.173,9.173,0,0,0-8.647,1.1q-5.684,4.213,1.761,13.546a173.252,173.252,0,0,0,13.98,15.708c5.062,4.92,12.851,4.476,18.8-2.744l39.649-31.053-27.635-31.918Z"/><path class="cls-16" d="M92.318,869.8a10.924,10.924,0,0,1-7.374-3.1c-2.751-2.63-9.745-10.239-14.306-15.744-4.483-5.406-4.8-8.182-4.752-9.073.013-3.9,1.217-6.86,3.579-8.808,3.228-2.664,7.627-2.52,9.422-2.324l17.174-14.344a1.65,1.65,0,1,1,2.114,2.533L80.44,833.759a1.627,1.627,0,0,1-1.369.353c-.044-.006-4.669-.843-7.517,1.525-1.572,1.3-2.368,3.427-2.368,6.316a1.643,1.643,0,0,1-.011.2h0c.013,0,.174,2.088,4,6.706,4.494,5.424,11.36,12.895,14.048,15.465,1.883,1.8,5.168,3.207,8.234,1.237a44.347,44.347,0,0,0,6.521-5.387,1.958,1.958,0,0,1,.152-.137l36.581-29.149a1.65,1.65,0,1,1,2.056,2.581l-36.5,29.089a46.909,46.909,0,0,1-7.022,5.781A9.012,9.012,0,0,1,92.318,869.8Z"/><path class="cls-16" d="M93.675,821.184a1.641,1.641,0,0,1-1-.338c-11.111-8.479-17.139-17.73-15.08-39.935,2.39-25.768,11.433-33.686,11.816-34.01a1.65,1.65,0,0,1,2.139,2.514c-.14.124-8.431,7.67-10.668,31.8-1.92,20.68,3.605,29.229,13.794,37a1.65,1.65,0,0,1-1,2.962Z"/><path class="cls-16" d="M134.3,832.267a73.416,73.416,0,0,1-9.04-.487,1.65,1.65,0,0,1,.439-3.271c.22.029,22.092,2.815,42.236-6.3,15.329-6.936,20.982-22.688,16.8-46.817a92.2,92.2,0,0,0-8.785-26.425,1.651,1.651,0,1,1,2.881-1.612,94.116,94.116,0,0,1,9.156,27.473c4.407,25.437-2.056,42.861-18.692,50.388C156.274,831.107,142.854,832.267,134.3,832.267Z"/><path class="cls-16" d="M181.622,759.366a1.65,1.65,0,0,1-.048-3.3c.472-.013,47.434-1.451,60.332-2.065,1.094-.052,2.383-.06,3.8-.068,6.3-.037,15.813-.094,20.244-4.762,1.924-2.025,2.78-4.749,2.615-8.326-.668-14.6-13.982-15.09-35.832-14.165-20.152.854-45.151,9.657-45.4,9.745a1.65,1.65,0,1,1-1.1-3.11c1.041-.369,25.709-9.057,46.367-9.932,18.871-.805,38.4-1.628,39.268,17.311.2,4.458-.98,8.076-3.519,10.749-5.4,5.689-15.761,5.75-22.618,5.79-1.366.008-2.608.015-3.662.064-12.927.616-59.916,2.055-60.39,2.069Z"/><path class="cls-3" d="M241.888,555.069a40.214,40.214,0,0,0,.566-21.95q-4.154-12.751-15.369-9.89a18.6,18.6,0,0,0-4.04,1.427q-14.275,7.292-25.7,23.6c-.342.532-.7,1.071-1.066,1.616l-.168.271c-.3.445-.594.891-.9,1.344l-1,1.621q-1.105,1.75-2.164,3.584,1.569,1.579,3.219,3.061,1.173,1.053,2.386,2.059.528.417,1.067.8l.264.237a72.972,72.972,0,0,0,22.6,11.875l.278.094.551.192q3.952,1.2,8.151,2.066,1.9-2.534,3.507-5.105l.665-1.083a64.915,64.915,0,0,0,7.152-15.819Z"/><path class="cls-3" d="M136.475,538.488a40.214,40.214,0,0,0-8.835-20.1q-9.187-9.768-18.114-2.4a18.442,18.442,0,0,0-3.05,3.011q-9.84,12.693-13.137,32.27l-.345,1.941-.037.316q-.085.789-.175,1.574c-.114.647-.2,1.288-.277,1.918q-.228,2.051-.432,4.166,2.087.741,4.217,1.393l3.033.849c.437.092.883.206,1.335.341l.316.034a74.257,74.257,0,0,0,25.5,1.119l.289-.031.583-.063q4.086-.6,8.253-1.6.667-3.115,1.067-6.136a1.56,1.56,0,0,1,.069-.629c.024-.212.047-.422.072-.632a64.316,64.316,0,0,0-.336-17.336Z"/><path class="cls-16" d="M233.889,574.448a2.483,2.483,0,0,1-1.906-3.756l.661-1.081a63.418,63.418,0,0,0,6.861-15.242,37.927,37.927,0,0,0,.549-20.615c-3-9.211-8.184-9.185-12.353-8.118a16.4,16.4,0,0,0-3.59,1.262c-9.045,4.621-17.375,12.295-24.7,22.779q-.515.744-1.036,1.517l-.186.3c-.3.447-.567.87-.831,1.3a2.482,2.482,0,1,1-4.227-2.6c.3-.479.6-.956.914-1.424l.084-.141.086-.137q.563-.834,1.122-1.643c7.8-11.164,16.736-19.369,26.578-24.4a21.414,21.414,0,0,1,4.65-1.642c6.05-1.547,14.22-.82,18.247,11.548a42.866,42.866,0,0,1-.545,23.416,68.393,68.393,0,0,1-7.382,16.426l-.656,1.064a2.48,2.48,0,0,1-2.342,1.192Z"/><path class="cls-16" d="M92.631,557.6l-.06,0a2.483,2.483,0,0,1-2.192-2.741l.209-1.884.024-.17.346-1.939c2.253-13.378,6.837-24.609,13.619-33.356a21.344,21.344,0,0,1,3.506-3.467c4.817-3.973,12.516-6.8,21.428,2.675a42.913,42.913,0,0,1,9.479,21.421,67.054,67.054,0,0,1,.35,17.994l-.071.627-.055.316a2.482,2.482,0,0,1-4.95.305,4.047,4.047,0,0,1,.09-1.349l.051-.454a62.142,62.142,0,0,0-.318-16.665A37.946,37.946,0,0,0,125.8,520.01c-6.641-7.052-11.314-4.826-14.636-2.085a16.532,16.532,0,0,0-2.71,2.674c-6.232,8.04-10.487,18.524-12.608,31.106l-.36,2.124-.175,1.57a2.484,2.484,0,0,1-2.683,2.2Zm46.551-.406"/><path class="cls-3" d="M254.942,587.323q-.937-1.5-1.95-2.945-21.03-30.6-55.784-41.9a186.854,186.854,0,0,0-23.991-5.73q-2.873-.538-5.622-.848-6.339-.771-12.588-.96a1.9,1.9,0,0,0-.719.079,2.109,2.109,0,0,0-.779-.068,3.6,3.6,0,0,1-.711.01,138.9,138.9,0,0,0-50,9.155Q68.061,557.871,54.545,590.3a6.758,6.758,0,0,0-.447,1.03q-1.255,2.947-2.323,6.2a9.184,9.184,0,0,0-.309,1.114l-.1.275a123.547,123.547,0,0,0-5.313,28.157,71.164,71.164,0,0,1-3.505,18.916,76.168,76.168,0,0,0-5.261,24.316,49.927,49.927,0,0,0,.1,5.421,3.333,3.333,0,0,0,.061.931,18.634,18.634,0,0,0,.5,4.032,44.126,44.126,0,0,0,2.788,9.641q.775,1.706,1.7,3.352a1.459,1.459,0,0,0,.368.672,47.708,47.708,0,0,0,12.868,14.869,71.8,71.8,0,0,0,6.16,4.454q2.825,1.884,5.939,3.722a142.315,142.315,0,0,0,51.085,17.5q1.824.3,3.791.616a189.65,189.65,0,0,0,23.081,2.306q1.073-.049,2.208-.021,5.118.092,10.326-.021,7.356-.285,14.175-.9.867-.139,1.8-.2a148.713,148.713,0,0,0,27.554-5.7l.513-.169a115.129,115.129,0,0,0,20.358-8.9q1.578-.931,3.159-1.931a94.616,94.616,0,0,0,24.02-21.467,104.95,104.95,0,0,0,13.448-22.673A99.623,99.623,0,0,0,270.581,647a88.358,88.358,0,0,0-2.226-28.247A101.742,101.742,0,0,0,262.1,600.7q-.963-2.057-1.991-4.091-.792-1.641-1.637-3.274l-1.369-2.257a12.591,12.591,0,0,0-1.112-1.948,12.67,12.67,0,0,1-1.052-1.8Z"/><path class="cls-15" d="M269.066,622.022q-.318-1.634-.711-3.265c-.512-2.122-1.136-4.237-1.819-6.348a1.767,1.767,0,0,0-.945-3.4,113.414,113.414,0,0,0-46.333,24.019c-6.675,5.845-10.622,11.047-12.072,15.923a40.33,40.33,0,0,0-.76,16.772c.329,1.768.714,3.519,1.141,5.179A136.464,136.464,0,0,0,223.5,708.771a100.944,100.944,0,0,0,6.086,8.81,1.773,1.773,0,1,0,2.84-2.122l-.031-.041a94.435,94.435,0,0,0,17.451-16.9,104.95,104.95,0,0,0,13.448-22.673A99.658,99.658,0,0,0,270.582,647,87.746,87.746,0,0,0,269.066,622.022Z"/><path class="cls-12" d="M94.767,648.924a24.76,24.76,0,0,0,3.647-11.571,25.158,25.158,0,0,0-1.576-12.1q-2.187-5.107-5.931-5.435t-6.786,4.323A24.613,24.613,0,0,0,80.4,635.777a24.226,24.226,0,0,0,1.652,12.034q2.174,5.247,5.921,5.574t6.8-4.461Z"/><path class="cls-15" d="M96.407,604.959l.124.1a5.3,5.3,0,0,0,6.435-3.019,5.141,5.141,0,0,0-.109-3.922,4.631,4.631,0,0,0-2.534-2.585l-18.03-6.88a4.909,4.909,0,0,0-3.714.148,5.126,5.126,0,0,0-2.652,2.885,4.793,4.793,0,0,0,.066,3.767,4.971,4.971,0,0,0,2.258,2.532l.332.137,17.824,6.838Z"/><path class="cls-16" d="M97.628,607.177a6.255,6.255,0,0,1-1.7-.4l-.352-.182L78.1,599.887a2.544,2.544,0,0,1-.736-.318,6.731,6.731,0,0,1-2.959-3.346,6.519,6.519,0,0,1-.1-5.1,6.861,6.861,0,0,1,3.535-3.85,6.669,6.669,0,0,1,5.067-.23l18.083,6.9a6.412,6.412,0,0,1,3.543,3.571,6.88,6.88,0,0,1,.121,5.232,6.211,6.211,0,0,1-3.547,3.723,6.451,6.451,0,0,1-3.481.708Zm-1.524-.408h0Zm0,0-1-.647,0,0Zm2.343-2.569a2.73,2.73,0,0,0,2.119-.273l.179-.08a2.683,2.683,0,0,0,1.6-1.709,3.368,3.368,0,0,0-.086-2.633,2.85,2.85,0,0,0-1.6-1.63L81.7,590.376a3.1,3.1,0,0,0-2.363.115,3.3,3.3,0,0,0-1.711,1.887,3,3,0,0,0,.03,2.423,3.23,3.23,0,0,0,1.461,1.683l.009,0,.133.047,17.758,6.816Zm-18.073-6.905,0,0Zm-.411-.2"/><path class="cls-15" d="M177.258,599.61a4.9,4.9,0,0,0-3.529-1.166L154.5,600.112a4.622,4.622,0,0,0-3.148,1.789,5.146,5.146,0,0,0-1.181,3.74,5.294,5.294,0,0,0,5.359,4.67l.147-.059,19.014-1.681.359-.041a5,5,0,0,0,2.866-1.814,4.794,4.794,0,0,0,1.1-3.608,5.122,5.122,0,0,0-1.759-3.5Z"/><path class="cls-16" d="M154.571,612.078a6.342,6.342,0,0,1-3.772-1.722,6.24,6.24,0,0,1-2.393-4.576,6.869,6.869,0,0,1,1.555-4.976,6.36,6.36,0,0,1,4.309-2.451l19.306-1.675a6.674,6.674,0,0,1,4.819,1.572,6.9,6.9,0,0,1,2.388,4.71,6.511,6.511,0,0,1-1.5,4.89,6.706,6.706,0,0,1-3.755,2.39,2.545,2.545,0,0,1-.8.107L156.082,612l-.391.077a6.256,6.256,0,0,1-1.12,0Zm.959-.058h0Zm0,0h0Zm1.138-.35,0,0Zm17.7-11.445-.542-.008-19.17,1.661a2.808,2.808,0,0,0-1.906,1.116,3.385,3.385,0,0,0-.811,2.489,2.7,2.7,0,0,0,1.073,2.1l.152.127a2.715,2.715,0,0,0,1.96.844l.468-.075,18.948-1.676.142-.008,0,0a3.226,3.226,0,0,0,1.86-1.2,3.031,3.031,0,0,0,.705-2.333,3.343,3.343,0,0,0-1.177-2.329A2.993,2.993,0,0,0,174.367,600.225Zm.037,6.653,0,0Z"/><path class="cls-15" d="M48.37,610.405a134.744,134.744,0,0,0-2.307,16.6,69.973,69.973,0,0,1-3.505,18.914,99,99,0,0,0-3.056,9.7q7.29-7.77,11.982-13.263a15.326,15.326,0,0,0,3.323-14.376q-1.32-5.664-6.437-17.579Z"/><path class="cls-15" d="M39.348,657.388a1.771,1.771,0,0,1-1.139-2.979c4.816-5.133,8.828-9.563,11.928-13.168a13.632,13.632,0,0,0,2.976-12.812c-.872-3.682-3.018-9.512-6.371-17.326a1.773,1.773,0,1,1,3.258-1.4c3.485,8.112,5.631,13.97,6.564,17.909a17.167,17.167,0,0,1-3.739,15.939c-3.13,3.644-7.18,8.112-12.03,13.282a1.764,1.764,0,0,1-1.447.553Z"/><path class="cls-16" d="M273.342,641.324c0-.232.013-.464.016-.7.006-.753,0-1.506-.015-2.259-.006-.419-.011-.838-.023-1.257-.019-.633-.047-1.267-.079-1.9q-.043-.861-.1-1.721c-.036-.5-.073-1.01-.117-1.515-.066-.772-.145-1.543-.231-2.313-.035-.317-.068-.634-.107-.95-.293-2.41-.672-4.814-1.157-7.206q-.357-1.669-.76-3.332c-.351-1.455-.748-2.916-1.174-4.376-.181-.627-.392-1.254-.587-1.881-.2-.652-.393-1.306-.61-1.954-.13-.425-.268-.847-.411-1.262-.01-.029-.034-.048-.045-.076q-1.571-4.507-3.585-8.965c-.647-1.383-1.294-2.767-1.988-4.154-.553-1.119-1.109-2.215-1.688-3.314l-.081-.146-1.3-2.139a13.229,13.229,0,0,0-1.252-2.182,9.332,9.332,0,0,1-.852-1.448l-.141-.245c-.652-1.058-1.332-2.071-2.013-3.062-14.269-20.755-33.467-35.191-57.074-42.866a191.385,191.385,0,0,0-24.283-5.8q-2.955-.538-5.791-.856c-4.259-.536-8.583-.867-12.671-.969a4.423,4.423,0,0,0-.955.01,4.873,4.873,0,0,0-1.025,0l-.417-.013a142.482,142.482,0,0,0-50.933,9.324c-23.655,9.383-40.344,25.334-49.589,47.454a9.527,9.527,0,0,0-.522,1.188c-.85,2-1.641,4.116-2.343,6.289-.125.362-.227.725-.33,1.112l-.158.475a115.842,115.842,0,0,0-2.888,11.3,2.454,2.454,0,0,0-.12.285c-.131.637-.243,1.294-.365,1.941-.018.1-.037.2-.055.293q-.639,3.422-1.115,7c-.022.165-.04.333-.061.5-.305,2.375-.567,4.787-.761,7.252-.038.653-.116,1.266-.168,1.906a70.615,70.615,0,0,1-2.394,13.673c-.256.884-.5,1.784-.792,2.621-.129.346-.23.684-.354,1.029q-.622,1.713-1.169,3.4-.181.563-.356,1.121a73.9,73.9,0,0,0-3.537,19.578,52.032,52.032,0,0,0,.1,5.525,5.186,5.186,0,0,0,.061,1.169,20.256,20.256,0,0,0,.556,4.285,46.272,46.272,0,0,0,2.951,10.175c.51,1.092,1.063,2.211,1.644,3.286a4.033,4.033,0,0,0,.6,1.077,37.268,37.268,0,0,0,2.16,3.518,51.631,51.631,0,0,0,11.226,11.9,76.009,76.009,0,0,0,6.348,4.606q2.773,1.814,5.826,3.652a1.194,1.194,0,0,1,.243.138c3.28,1.893,6.662,3.678,10.106,5.283a139.142,139.142,0,0,0,14.09,5.772c2.463.844,4.954,1.644,7.474,2.376l.34.1c1.227.34,2.478.682,3.73,1,.433.108.866.216,1.273.344,4.877,1.195,9.842,2.188,14.92,2.935q1.825.3,3.788.611,6.954,1.132,14.024,1.739,4.678.409,9.374.611l.21,0c.655-.036,1.33-.047,2.05-.03,3.439.068,6.933.047,10.453-.017,4.93-.2,9.728-.5,14.3-.913l.164-.01c.52-.094,1.036-.142,1.694-.2a150.851,150.851,0,0,0,28.068-5.808l.5-.166a116.964,116.964,0,0,0,20.84-9.117c1.079-.627,2.137-1.279,3.22-1.953,1.775-1.115,3.5-2.3,5.189-3.518.036-.023.077-.028.112-.053.169-.122.325-.26.493-.382,1.585-1.16,3.139-2.356,4.648-3.606.162-.134.317-.274.478-.409q2.227-1.869,4.339-3.871c.157-.148.318-.292.474-.442q2.22-2.128,4.3-4.4c.18-.2.356-.395.535-.592,1.4-1.549,2.77-3.13,4.076-4.775a108.63,108.63,0,0,0,13.79-23.258,102.656,102.656,0,0,0,7.476-29.583C273.229,645.252,273.309,643.288,273.342,641.324ZM224.5,717.891c-1.035.655-2.069,1.286-3.051,1.875a114.524,114.524,0,0,1-19.894,8.688l-.5.165a146.869,146.869,0,0,1-26.98,5.6c-.655.035-1.314.117-1.926.2-4.459.4-9.163.688-13.928.876-3.4.075-6.852.1-10.221.037-.767-.021-1.535-.018-2.259.012a187.011,187.011,0,0,1-22.684-2.264c-1.309-.208-2.571-.411-3.831-.638-4.368-.638-8.67-1.48-12.868-2.453-1.139-.285-2.277-.571-3.393-.855-.57-.143-1.114-.307-1.66-.448-1.978-.545-3.907-1.11-5.83-1.744a133.749,133.749,0,0,1-26.423-11.669c-1.593-.954-3.139-1.9-4.635-2.9-.421-.246-.816-.514-1.212-.781a69.444,69.444,0,0,1-5.977-4.317,47.7,47.7,0,0,1-7.892-7.7A37.714,37.714,0,0,1,45,693.2l-.225-.345-.176-.388c-.562-1.027-1.12-2.1-1.568-3.094a40.759,40.759,0,0,1-2.626-9.1l-.032-.166a15.339,15.339,0,0,1-.44-3.483l-.033-.422-.024-.258-.012-.4a50.99,50.99,0,0,1-.084-5.152,64.5,64.5,0,0,1,2.113-14.125c0-.013.012-.021.015-.033.353-1.377.766-2.79,1.211-4.221q.155-.489.314-.98c.3-.931.637-1.881.974-2.831.162-.446.311-.889.48-1.338l.006-.07a71.866,71.866,0,0,0,3.568-18.7c.02-.294.059-.57.077-.866.181-2.314.426-4.584.713-6.82.031-.246.058-.494.091-.738q.456-3.414,1.071-6.7l.042-.229a110.831,110.831,0,0,1,3.285-13.062l.031-.09.131-.431a7.221,7.221,0,0,1,.239-.863c.694-2.081,1.43-4.112,2.247-6l.06-.157a4.91,4.91,0,0,1,.292-.673l.112-.223c8.693-20.864,24.469-35.964,46.821-44.809a136.854,136.854,0,0,1,49.018-9,3.885,3.885,0,0,0,.981-.031,2.958,2.958,0,0,0,.435.085,2.4,2.4,0,0,0,.82-.068c4.086.125,8.248.442,12.394.944,1.775.2,3.613.48,5.468.828a185.4,185.4,0,0,1,23.669,5.632c22.52,7.324,40.845,21.1,54.516,40.966.621.892,1.216,1.806,1.788,2.717a19.684,19.684,0,0,0,1.2,2.037,12.015,12.015,0,0,1,.91,1.569l.119.243,1.321,2.187q.84,1.575,1.611,3.144c.65,1.337,1.3,2.7,1.928,4.033a99.621,99.621,0,0,1,4.256,11.127c.25.782.5,1.562.734,2.347.4,1.382.772,2.764,1.1,4.145a86.971,86.971,0,0,1,1.816,9.928c.042.34.078.681.115,1.023q.114,1.007.2,2.015c.047.545.09,1.089.126,1.635.032.449.057.9.081,1.349.036.693.068,1.385.086,2.078.008.267.011.535.016.8.015.835.025,1.669.016,2.5,0,.03,0,.059,0,.088q-.036,3.006-.281,6a97.577,97.577,0,0,1-7.095,28.066,103.183,103.183,0,0,1-13.116,22.13c-1.248,1.569-2.552,3.087-3.893,4.567-.154.17-.306.342-.462.511q-1.959,2.133-4.043,4.137c-.21.2-.427.395-.639.594q-1.817,1.715-3.725,3.323c-.279.235-.55.48-.832.712-1.328,1.1-2.7,2.145-4.083,3.166C228.364,715.348,226.461,716.66,224.5,717.891Z"/><path class="cls-12" d="M110.852,683.916a9.506,9.506,0,0,1-1.236-.19c-5.3-1.167-7.734-6.431-7.835-6.653a1.42,1.42,0,0,1,2.587-1.171c.042.089,1.993,4.214,5.879,5.057,2.893.622,6.318-.694,10.082-3.953a1.42,1.42,0,1,1,1.857,2.148C118.177,682.625,114.369,684.224,110.852,683.916Z"/><path class="cls-12" d="M169.3,666.317a3.581,3.581,0,0,0,2.114-6.662l-13.433-7.8,15.547-5.622A3.579,3.579,0,1,0,171.1,639.5l-22.761,8.229a3.581,3.581,0,0,0-.581,6.462l20.063,11.657a3.581,3.581,0,0,0,1.484.472"/><path class="cls-17" d="M121.191,651.264a2.691,2.691,0,0,1-.839-.132c-4.244-1.367-7.823-1.661-10.638-.873A2.728,2.728,0,1,1,108.247,645c3.861-1.078,8.5-.763,13.777.936a2.728,2.728,0,0,1-.833,5.324"/><path class="cls-17" d="M69.369,685.915a46.8,46.8,0,0,1-5.629-.343,44.484,44.484,0,0,1-29.946-16.285,43.972,43.972,0,0,1-10.26-32.3A42.245,42.245,0,0,1,71.079,598.25a44.132,44.132,0,0,1,29.751,16.293,43.431,43.431,0,0,1,10.323,32.3A40.766,40.766,0,0,1,95.645,676.3a40.3,40.3,0,0,1-26.276,9.613M65.29,603.356a35.251,35.251,0,0,0-22.946,8.334,35.732,35.732,0,0,0-13.373,25.741A38.167,38.167,0,0,0,38,665.815a38.678,38.678,0,0,0,26.376,14.339,34.973,34.973,0,0,0,27.812-8.073,35.069,35.069,0,0,0,13.525-25.676l0-.012c.89-10.633-2.082-19.914-9.092-28.37a38.33,38.33,0,0,0-26.183-14.354A43.412,43.412,0,0,0,65.29,603.356Z"/><path class="cls-3" d="M69.06,680.832a42.086,42.086,0,0,1-4.953-.295,39.437,39.437,0,0,1-26.539-14.514,38.976,38.976,0,0,1-9.129-28.657,37.379,37.379,0,0,1,42.145-34.283,39.237,39.237,0,0,1,26.4,14.446,38.565,38.565,0,0,1,9.194,28.658,36.022,36.022,0,0,1-13.714,26.125,36,36,0,0,1-23.4,8.52M65.492,605.5a34.647,34.647,0,0,0-34.333,32.09,36.319,36.319,0,0,0,8.512,26.7,36.789,36.789,0,0,0,24.756,13.54A33.719,33.719,0,0,0,90.741,670.2a33.405,33.405,0,0,0,12.719-24.228v-.007a35.932,35.932,0,0,0-8.576-26.7,36.606,36.606,0,0,0-24.626-13.476A39.363,39.363,0,0,0,65.492,605.5Z"/><path class="cls-17" d="M165.975,696.736a47.569,47.569,0,0,1-5.515-.322,45.543,45.543,0,0,1-40.152-48.588,42.339,42.339,0,0,1,47.47-38.806,44.211,44.211,0,0,1,29.764,16.367,43.3,43.3,0,0,1,10.317,32.3,42.459,42.459,0,0,1-41.884,39.052m-3.832-82.591a35.239,35.239,0,0,0-23.018,8.379,35.742,35.742,0,0,0-13.378,25.746A40.085,40.085,0,0,0,161.085,691c10.656,1.23,19.776-1.411,27.888-8.081a35.129,35.129,0,0,0,13.448-25.67l0-.011a37.539,37.539,0,0,0-9.083-28.366,38.432,38.432,0,0,0-26.2-14.429A43.3,43.3,0,0,0,162.143,614.145Z"/><path class="cls-3" d="M165.766,691.876a42.027,42.027,0,0,1-4.951-.295,39.441,39.441,0,0,1-26.541-14.514,38.971,38.971,0,0,1-9.127-28.656,37.384,37.384,0,0,1,42.146-34.284,39.224,39.224,0,0,1,26.4,14.446,38.555,38.555,0,0,1,9.195,28.658,37.718,37.718,0,0,1-37.12,34.645M162.2,616.54a34.643,34.643,0,0,0-34.333,32.09,36.312,36.312,0,0,0,8.512,26.7,36.787,36.787,0,0,0,24.756,13.542,34.939,34.939,0,0,0,39.032-31.857v-.006a35.929,35.929,0,0,0-8.575-26.7,36.608,36.608,0,0,0-24.626-13.477A39.178,39.178,0,0,0,162.2,616.54Z"/></g></g></svg>