<?xml version="1.0" encoding="utf-8"?>
<!-- Generator: Adobe Illustrator 25.2.0, SVG Export Plug-In . SVG Version: 6.00 Build 0)  -->
<svg version="1.1" id="레이어_1" xmlns="http://www.w3.org/2000/svg" xmlns:xlink="http://www.w3.org/1999/xlink" x="0px"
	 y="0px" viewBox="0 0 1600 900" style="enable-background:new 0 0 1600 900;" xml:space="preserve">
<rect y="0" style="fill:#FFFFFF;" width="1600" height="900"/>
<rect x="0" style="fill:#CDEAE5;" width="1600" height="900"/>
<linearGradient id="SVGID_1_" gradientUnits="userSpaceOnUse" x1="800" y1="-0.5" x2="800" y2="900.5">
	<stop  offset="0" style="stop-color:#FFFFFF"/>
	<stop  offset="0" style="stop-color:#FFFFFF;stop-opacity:0"/>
	<stop  offset="9.514225e-02" style="stop-color:#F9FEFD;stop-opacity:9.514226e-03"/>
	<stop  offset="0.2244" style="stop-color:#E7F9F6;stop-opacity:2.244384e-02"/>
	<stop  offset="0.3734" style="stop-color:#CBF2EB;stop-opacity:3.733708e-02"/>
	<stop  offset="0.5371" style="stop-color:#A3E9DD;stop-opacity:5.370532e-02"/>
	<stop  offset="0.7127" style="stop-color:#70DCC9;stop-opacity:7.127271e-02"/>
	<stop  offset="0.8957" style="stop-color:#32CDB2;stop-opacity:8.956538e-02"/>
	<stop  offset="1" style="stop-color:#0CC4A4;stop-opacity:0.1"/>
</linearGradient>
<rect style="fill:none;stroke:url(#SVGID_1_);stroke-miterlimit:10;" width="1600" height="900"/>
<linearGradient id="SVGID_2_" gradientUnits="userSpaceOnUse" x1="800" y1="-0.5" x2="800" y2="900.5">
	<stop  offset="0" style="stop-color:#FFFFFF"/>
	<stop  offset="0" style="stop-color:#FFFFFF;stop-opacity:0"/>
	<stop  offset="0.1253" style="stop-color:#FEF9FA;stop-opacity:1.253017e-02"/>
	<stop  offset="0.2955" style="stop-color:#FCE7EB;stop-opacity:2.954947e-02"/>
	<stop  offset="0.4915" style="stop-color:#F8CBD3;stop-opacity:4.914898e-02"/>
	<stop  offset="0.7067" style="stop-color:#F3A3B1;stop-opacity:7.067242e-02"/>
	<stop  offset="0.9352" style="stop-color:#EC7186;stop-opacity:9.351528e-02"/>
	<stop  offset="1" style="stop-color:#EA6179;stop-opacity:0.1"/>
</linearGradient>
<rect style="fill:none;stroke:url(#SVGID_2_);stroke-miterlimit:10;" width="1600" height="900"/>
<linearGradient id="SVGID_3_" gradientUnits="userSpaceOnUse" x1="800" y1="0" x2="800" y2="900">
	<stop  offset="0" style="stop-color:#FFFFFF"/>
	<stop  offset="0" style="stop-color:#FFFFFF;stop-opacity:0"/>
	<stop  offset="9.514225e-02" style="stop-color:#F9FEFD;stop-opacity:9.514226e-03"/>
	<stop  offset="0.2244" style="stop-color:#E7F9F6;stop-opacity:2.244384e-02"/>
	<stop  offset="0.3734" style="stop-color:#CBF2EB;stop-opacity:3.733708e-02"/>
	<stop  offset="0.5371" style="stop-color:#A3E9DD;stop-opacity:5.370532e-02"/>
	<stop  offset="0.7127" style="stop-color:#70DCC9;stop-opacity:7.127271e-02"/>
	<stop  offset="0.8957" style="stop-color:#32CDB2;stop-opacity:8.956538e-02"/>
	<stop  offset="1" style="stop-color:#0CC4A4;stop-opacity:0.1"/>
</linearGradient>
<rect style="fill:url(#SVGID_3_);" width="1600" height="900"/>
<path style="fill:#FFFFFF;" d="M602.8,886.1c0.2-0.1,0.5-0.2,0.7-0.3c2.8-1,5.6-2.1,8.4-3.1c3.5-1.3,7-2.6,10.5-3.9
	c4.2-1.6,8.4-3.1,12.5-4.7c4.8-1.8,9.7-3.6,14.5-5.4c5.4-2,10.9-4.1,16.3-6.1c6-2.2,12-4.5,18-6.7c6.5-2.4,13.1-4.9,19.6-7.3
	c7.1-2.6,14.1-5.3,21.2-7.9c7.5-2.8,15-5.6,22.6-8.4c8-3,15.9-5.9,23.9-8.9c8.3-3.1,16.7-6.2,25-9.3c8.7-3.2,17.4-6.5,26.1-9.7
	c9-3.4,18.1-6.7,27.1-10.1c9.3-3.5,18.7-7,28-10.4c9.6-3.6,19.2-7.2,28.8-10.7c9.8-3.7,19.6-7.3,29.4-11c10-3.7,20-7.5,30-11.2
	c10.1-3.8,20.3-7.6,30.4-11.3c10.3-3.8,20.5-7.6,30.8-11.5c10.3-3.9,20.7-7.7,31-11.6c10.4-3.9,20.8-7.7,31.1-11.6
	c10.4-3.9,20.8-7.7,31.2-11.6c10.4-3.9,20.7-7.7,31.1-11.6c10.3-3.8,20.6-7.7,30.9-11.5c10.2-3.8,20.4-7.6,30.6-11.4
	c10.1-3.8,20.1-7.5,30.2-11.3c9.9-3.7,19.8-7.4,29.7-11.1c9.7-3.6,19.4-7.2,29.1-10.8c9.5-3.5,18.9-7.1,28.4-10.6
	c9.2-3.4,18.4-6.8,27.5-10.3c8.9-3.3,17.7-6.6,26.6-9.9c8.5-3.2,17.1-6.4,25.6-9.5c8.1-3,16.3-6.1,24.4-9.1
	c7.7-2.9,15.5-5.8,23.2-8.7c7.3-2.7,14.6-5.4,21.8-8.1c6.8-2.5,13.6-5.1,20.4-7.6c6.3-2.3,12.5-4.7,18.8-7
	c5.7-2.1,11.4-4.3,17.1-6.4c5.1-1.9,10.2-3.8,15.4-5.7c4.5-1.7,9-3.4,13.5-5c3.8-1.4,7.7-2.9,11.5-4.3c3.1-1.2,6.3-2.3,9.4-3.5
	c2.4-0.9,4.8-1.8,7.2-2.7c1.6-0.6,3.3-1.2,4.9-1.8c0.8-0.3,1.7-0.6,2.5-0.9c0.1,0,0.2-0.1,0.3-0.1v0v-5.1v-14.3V359.9
	c-54.5-46.4-121.4-116.8-173.8-216.5c-27.1-51.6-44.9-100.7-56.7-143.5H26.1c18.5,106.1,53.4,235.6,120.5,373.1
	c101.1,207.2,211.4,355.8,320,457.2c0.2,0.2,0.4,0.4,0.6,0.6c14.8,13.8,29.6,26.7,44.3,38.8c3.6,2.3,7.3,4.5,11.4,6.7
	c14.2,7.5,29.3,11.1,45.3,12.3c11.2,0.9,21.8,1.4,32.5-1.9c0,0-0.1,0-0.1,0l0.2-0.1c0.2-0.1,0.4-0.1,0.6-0.2L602.8,886.1z"/>
<path style="fill:#FFFFFF;" d="M602.8,886.1c0.2-0.1,0.5-0.2,0.7-0.3c2.8-1,5.6-2.1,8.4-3.1c3.5-1.3,7-2.6,10.5-3.9
	c4.2-1.6,8.4-3.1,12.5-4.7c4.8-1.8,9.7-3.6,14.5-5.4c5.4-2,10.9-4.1,16.3-6.1c6-2.2,12-4.5,18-6.7c6.5-2.4,13.1-4.9,19.6-7.3
	c7.1-2.6,14.1-5.3,21.2-7.9c7.5-2.8,15-5.6,22.6-8.4c8-3,15.9-5.9,23.9-8.9c8.3-3.1,16.7-6.2,25-9.3c8.7-3.2,17.4-6.5,26.1-9.7
	c9-3.4,18.1-6.7,27.1-10.1c9.3-3.5,18.7-7,28-10.4c9.6-3.6,19.2-7.2,28.8-10.7c9.8-3.7,19.6-7.3,29.4-11c10-3.7,20-7.5,30-11.2
	c10.1-3.8,20.3-7.6,30.4-11.3c10.3-3.8,20.5-7.6,30.8-11.5c10.3-3.9,20.7-7.7,31-11.6c10.4-3.9,20.8-7.7,31.1-11.6
	c10.4-3.9,20.8-7.7,31.2-11.6c10.4-3.9,20.7-7.7,31.1-11.6c10.3-3.8,20.6-7.7,30.9-11.5c10.2-3.8,20.4-7.6,30.6-11.4
	c10.1-3.8,20.1-7.5,30.2-11.3c9.9-3.7,19.8-7.4,29.7-11.1c9.7-3.6,19.4-7.2,29.1-10.8c9.5-3.5,18.9-7.1,28.4-10.6
	c9.2-3.4,18.4-6.8,27.5-10.3c8.9-3.3,17.7-6.6,26.6-9.9c8.5-3.2,17.1-6.4,25.6-9.5c8.1-3,16.3-6.1,24.4-9.1
	c7.7-2.9,15.5-5.8,23.2-8.7c7.3-2.7,14.6-5.4,21.8-8.1c6.8-2.5,13.6-5.1,20.4-7.6c6.3-2.3,12.5-4.7,18.8-7
	c5.7-2.1,11.4-4.3,17.1-6.4c5.1-1.9,10.2-3.8,15.4-5.7c4.5-1.7,9-3.4,13.5-5c3.8-1.4,7.7-2.9,11.5-4.3c3.1-1.2,6.3-2.3,9.4-3.5
	c2.4-0.9,4.8-1.8,7.2-2.7c1.6-0.6,3.3-1.2,4.9-1.8c0.8-0.3,1.7-0.6,2.5-0.9c0.1,0,0.2-0.1,0.3-0.1v0v-5.1v-14.3V359.9
	c-54.5-46.4-121.4-116.8-173.8-216.5c-27.1-51.6-44.9-100.7-56.7-143.5H26.1c18.5,106.1,53.4,235.6,120.5,373.1
	c101.1,207.2,211.4,355.8,320,457.2c0.2,0.2,0.4,0.4,0.6,0.6c14.8,13.8,29.6,26.7,44.3,38.8c3.6,2.3,7.3,4.5,11.4,6.7
	c14.2,7.5,29.3,11.1,45.3,12.3c11.2,0.9,21.8,1.4,32.5-1.9c0,0-0.1,0-0.1,0l0.2-0.1c0.2-0.1,0.4-0.1,0.6-0.2L602.8,886.1z"/>
<path style="fill:#E1EFEC;" d="M600.7,886.8c0.2-0.1,0.4-0.1,0.6-0.2l1.5-0.5c0.2-0.1,0.5-0.2,0.7-0.3c2.8-1,5.6-2.1,8.4-3.1
	c3.5-1.3,7-2.6,10.5-3.9c4.2-1.6,8.4-3.1,12.5-4.7c4.8-1.8,9.7-3.6,14.5-5.4c5.4-2,10.9-4.1,16.3-6.1c6-2.2,12-4.5,18-6.7
	c6.5-2.4,13.1-4.9,19.6-7.3c7.1-2.6,14.1-5.3,21.2-7.9c7.5-2.8,15-5.6,22.6-8.4c8-3,15.9-5.9,23.9-8.9c8.3-3.1,16.7-6.2,25-9.3
	c8.7-3.2,17.4-6.5,26.1-9.7c9-3.4,18.1-6.7,27.1-10.1c9.3-3.5,18.7-7,28-10.4c9.6-3.6,19.2-7.2,28.8-10.7c9.8-3.7,19.6-7.3,29.4-11
	c10-3.7,20-7.5,30-11.2c10.1-3.8,20.3-7.6,30.4-11.3c10.3-3.8,20.5-7.6,30.8-11.5c10.3-3.9,20.7-7.7,31-11.6
	c10.4-3.9,20.8-7.7,31.1-11.6c10.4-3.9,20.8-7.7,31.2-11.6c10.4-3.9,20.7-7.7,31.1-11.6c10.3-3.8,20.6-7.7,30.9-11.5
	c10.2-3.8,20.4-7.6,30.6-11.4c10.1-3.8,20.1-7.5,30.2-11.3c9.9-3.7,19.8-7.4,29.7-11.1c9.7-3.6,19.4-7.2,29.1-10.8
	c9.5-3.5,18.9-7.1,28.4-10.6c9.2-3.4,18.4-6.8,27.5-10.3c8.9-3.3,17.7-6.6,26.6-9.9c8.5-3.2,17.1-6.4,25.6-9.5
	c8.1-3,16.3-6.1,24.4-9.1c7.7-2.9,15.5-5.8,23.2-8.7c7.3-2.7,14.6-5.4,21.8-8.1c6.8-2.5,13.6-5.1,20.4-7.6c6.3-2.3,12.5-4.7,18.8-7
	c5.7-2.1,11.4-4.3,17.1-6.4c5.1-1.9,10.2-3.8,15.4-5.7c4.5-1.7,9-3.4,13.5-5c3.8-1.4,7.7-2.9,11.5-4.3c3.1-1.2,6.3-2.3,9.4-3.5
	c2.4-0.9,4.8-1.8,7.2-2.7c1.6-0.6,3.3-1.2,4.9-1.8c0.8-0.3,1.7-0.6,2.5-0.9c0.1,0,0.2-0.1,0.3-0.1v0v-5.1l0,0
	c-153,40.6-997.6,264.8-998.5,265.1c2.8,1.9,8.5,6.6,9.8,7.7c3.5,3,8.6,7.8,11.3,11.6c7.2,10.2,10.5,21.4,10.8,34.7
	c0.3,14.6-1.7,26.5-10,37.9C616.4,875.7,611.5,882.3,600.7,886.8C600.6,886.8,600.6,886.8,600.7,886.8c-0.1,0-0.1,0.1-0.2,0.1
	L600.7,886.8z"/>
<path style="fill:#FFFFFF;" d="M0-0.4v181.6c12,67.7,45.4,148.7,73.6,227C148,615.3,271.1,782.8,352.1,900h89.5
	c25.1-8.9,50.3-17.8,75.4-26.7c-2-1.2-3.9-2.3-5.7-3.5c-14.7-12.1-29.5-25-44.3-38.8c-0.2-0.2-0.4-0.4-0.6-0.6
	C358,728.9,247.6,580.3,146.5,373.1C79.4,235.6,44.5,106.1,26.1,0"/>
<g>
	<path style="opacity:5.000000e-02;" d="M73.6,408.3C45.4,330,12,248.9,0,181.3v59.6c14.8,56.4,38.6,118.7,59.2,179.4
		C126.9,619,239.5,782.5,318.3,900h33.8C271.1,782.8,148,615.3,73.6,408.3z"/>
	<path style="opacity:5.000000e-02;" d="M522.8,876.4c-2-1-3.9-2.1-5.7-3.2c0,0,0,0,0,0c-14.2,5-61.2,21.7-75.4,26.7h31.3
		c7.3-2.4,49.8-17.6,57.1-20.1c0,0,0,0-0.1,0C527.6,878.8,525.2,877.7,522.8,876.4z"/>
</g>
<path style="opacity:5.000000e-02;" d="M1600,514.2c-0.1,0-999.1,372.6-999.3,372.6l-0.2,0.1c0,0,0.1,0,0.1,0
	c-10.7,3.3-21.3,2.8-32.5,1.9c-16-1.2-31.1-4.7-45.3-12.3c-4.1-2.2-7.9-4.4-11.4-6.7c-14.7-12.1-29.5-25-44.3-38.8
	c-0.2-0.2-0.4-0.4-0.6-0.6C358,728.9,247.6,580.3,146.5,373.1C79.4,235.6,44.5,106.1,26.1,0h-20c18.7,108.4,54.1,240.9,122,381.5
	C230.5,593.3,330.3,745.3,440.3,849c0.2,0.2,0.4,0.4,0.6,0.6c6.5,6.2,12.1,12.3,18.7,18.4c6.4,5.9,12.9,12.8,19.6,18.4
	c6.3,5.3,12.6,10.2,19.3,13.6h158.1c1.3-0.5,942.8-373.7,943.5-374V514.2z"/>
<g>
	<path style="fill:#A9E5DB;" d="M463.3,95.6H101.9c-17.9,0-32.5-14.6-32.5-32.5v0c0-17.9,14.6-32.5,32.5-32.5h361.4
		c17.9,0,32.5,14.6,32.5,32.5v0C495.8,81.1,481.2,95.6,463.3,95.6z"/>
	<g>
		<g>
			<path style="fill:#333333;" d="M170.5,75.8h-13.6V46.1H173v5h-10.2v19.7h8.3c2.6,0,4.2-0.3,5.3-1.3v-24h6V58h4.4v5h-4.4v14.8h-6
				v-3.5C175.3,75.3,173.4,75.8,170.5,75.8z"/>
			<path style="fill:#333333;" d="M216.3,64.3h-29.2v-4.7h29.2V64.3z M188.6,51.9c0-1.8,0.7-3.2,2-4.1c2.2-1.7,6.1-2.3,11.1-2.3
				c5,0,8.9,0.6,11.1,2.3c1.4,1,2.1,2.3,2.1,4.1c0,1.8-0.7,3.1-2.1,4.1c-2.2,1.7-6.1,2.3-11.1,2.3c-5.1,0-8.9-0.7-11.1-2.3
				C189.3,55.1,188.6,53.8,188.6,51.9z M214.4,66.3v11.8h-25.3V66.3H214.4z M209,51.9c0-0.4-0.2-0.7-0.5-0.9c-1-0.7-3.2-0.9-6.7-0.9
				c-3.5,0-5.8,0.2-6.7,0.9c-0.3,0.2-0.6,0.6-0.6,0.9s0.2,0.7,0.6,0.9c1,0.7,3.2,0.9,6.7,0.9c3.5,0,5.7-0.2,6.7-0.9
				C208.8,52.6,209,52.3,209,51.9z M195,73.6h13.4v-2.8H195V73.6z"/>
			<path style="fill:#333333;" d="M236.2,69.9c-1.6,2.9-5.3,5.2-9.3,6v-5.2c3.8-1.5,6.3-4.1,6.3-13.1V45.9h6v11.7
				c0,9,2.5,11.5,6.3,13.1v5.2C241.6,75.2,238,72.8,236.2,69.9z M248.3,45.5h6v32.2h-6V45.5z"/>
			<path style="fill:#333333;" d="M269.2,50.8h-10.4v-4.9h16.4v3.3c0,9.8-5.1,15.3-17.1,16.3v-5C265.5,59.8,269.2,56.5,269.2,50.8z
				 M260.6,66.2h6v6.8h18.7V78h-24.7V66.2z M278.8,45.5h6v8.1h4.2v5h-4.2v9.5h-6V45.5z"/>
			<path style="fill:#333333;" d="M290.1,60.9c0-7.8,0.7-11.9,2.8-13.9c0.9-0.9,2.2-1.4,4-1.4c1.7,0,3,0.4,4,1.4
				c1.7,1.7,2.5,4.9,2.7,10.7h1.9V45.8h5.2v31.7h-5.2V62.7h-1.8c-0.1,6.7-0.9,10.4-2.7,12.2c-1,1-2.3,1.3-4,1.3c-1.7,0-3-0.4-4-1.3
				C290.8,72.9,290.1,68.8,290.1,60.9z M298.3,60.9c0-6.5-0.1-9.2-0.8-10c-0.2-0.3-0.4-0.4-0.7-0.4c-0.3,0-0.6,0.1-0.7,0.4
				c-0.7,0.9-0.8,3.6-0.8,10c0,6.5,0.1,9.2,0.8,10.1c0.1,0.2,0.4,0.4,0.7,0.4c0.3,0,0.5-0.1,0.7-0.4
				C298.2,70.1,298.3,67.4,298.3,60.9z M317.4,45.5v32.2H312V45.5H317.4z"/>
			<path style="fill:#333333;" d="M335.5,46.1v10.5h2.5V46.1h5.1v29.6h-12.8V46.1H335.5z M335.5,71h2.5v-9.5h-2.5V71z M357.1,45.5
				v32.2h-5.3V62.6H350v14.9h-5.2V45.8h5.2v11.8h1.8v-12H357.1z"/>
			<path style="fill:#333333;" d="M389.8,61.9h-11.6v1.6h9.7v9.4h-19.3V74h20v4.1h-25.9v-9.3h19.3v-1.2h-19.3v-4.1h9.6v-1.6h-11.6
				v-4.4h29.2V61.9z M362.1,51c0-1.4,0.5-2.5,1.6-3.3c2.1-1.5,6-2.1,11.6-2.1c5.6,0,9.5,0.6,11.5,2.1c1.1,0.8,1.7,1.9,1.7,3.3
				c0,1.4-0.6,2.4-1.7,3.3c-2,1.5-6,2.2-11.5,2.2c-5.6,0-9.5-0.6-11.6-2.2C362.6,53.4,362.1,52.4,362.1,51z M382.5,51
				c0-0.2-0.1-0.4-0.4-0.6c-0.8-0.5-3-0.7-6.8-0.7c-3.8,0-6,0.1-6.9,0.7c-0.3,0.2-0.4,0.4-0.4,0.6c0,0.2,0.1,0.4,0.4,0.6
				c0.9,0.5,3.1,0.6,6.9,0.6c3.8,0,6-0.1,6.8-0.6C382.4,51.4,382.5,51.2,382.5,51z"/>
			<path style="fill:#333333;" d="M410,75.7h-8.6V45.9h5.6v24.9h3.7c2.2,0,3.6-0.2,4.7-1.1v-24h5.3v11.8h2.1v-12h5.4v32.2h-5.4V62.6
				h-2.1v14.9h-5.3v-3C414.4,75.4,412.7,75.7,410,75.7z"/>
			<path style="fill:#333333;" d="M433.2,51.9c0-1.8,0.7-3.2,2-4.1c2.2-1.7,6.1-2.3,11.1-2.3c5,0,8.9,0.6,11.1,2.3
				c1.4,1,2.1,2.3,2.1,4.1c0,1.8-0.7,3.1-2.1,4.1c-0.6,0.5-1.4,0.9-2.3,1.2v2.7h5.7v4.7h-29.2v-4.7h5.9v-2.6
				c-0.9-0.3-1.8-0.7-2.4-1.2C433.9,55.1,433.2,53.8,433.2,51.9z M433.2,72.2c0-1.9,0.9-3.3,2.4-4.3c2.2-1.4,6-2.1,10.7-2.1
				c4.7,0,8.5,0.6,10.7,2.1c1.6,1,2.5,2.4,2.5,4.3c0,1.9-0.9,3.3-2.5,4.3c-2.2,1.5-6,2-10.7,2c-4.8,0-8.5-0.6-10.7-2
				C434.1,75.5,433.2,74.1,433.2,72.2z M453.6,51.9c0-0.4-0.2-0.7-0.5-0.9c-1-0.7-3.2-0.9-6.7-0.9c-3.5,0-5.8,0.2-6.7,0.9
				c-0.3,0.2-0.6,0.6-0.6,0.9s0.2,0.7,0.6,0.9c1,0.7,3.2,0.9,6.7,0.9c3.5,0,5.7-0.2,6.7-0.9C453.4,52.6,453.6,52.3,453.6,51.9z
				 M439.1,72.2c0,0.4,0.2,0.7,0.6,1c1,0.6,3.1,0.8,6.7,0.8c3.5,0,5.6-0.2,6.6-0.8c0.4-0.2,0.6-0.5,0.6-1c0-0.4-0.2-0.7-0.6-1
				c-1-0.6-3.1-0.8-6.6-0.8c-3.5,0-5.7,0.3-6.7,0.8C439.3,71.5,439.1,71.8,439.1,72.2z M449.3,58.3c-0.9,0-1.9,0.1-2.9,0.1
				c-1,0-1.9,0-2.8-0.1v1.6h5.7V58.3z"/>
		</g>
	</g>
	<circle style="fill:#D2EAE6;" cx="102.3" cy="63.1" r="28.7"/>
	<circle style="fill:#FFFFFF;" cx="102.3" cy="63.1" r="24.9"/>
	<g>
		<g>
			<path style="fill:#80D1C2;" d="M114.3,60.6h2.5c-1.1-6.4-6.1-11.4-12.5-12.3v2.5C109.3,51.7,113.3,55.6,114.3,60.6z M87.3,60.6
				h2.5c1-4.8,4.7-8.6,9.4-9.7v-2.6C93.1,49.5,88.3,54.4,87.3,60.6z M89.8,65.6h-2.5c1.1,6.1,5.8,11,11.9,12.2v-2.6
				C94.5,74.1,90.8,70.4,89.8,65.6z M104.2,75.3v2.5c6.4-0.9,11.4-5.9,12.5-12.2h-2.5C113.2,70.6,109.2,74.4,104.2,75.3z"/>
		</g>
		<g>
			<path style="fill:#80D1C2;" d="M101.7,44c-0.8,0-1.4,0.6-1.4,1.2v8.6c0,0.7,0.6,1.2,1.4,1.2c0.8,0,1.4-0.6,1.4-1.2v-8.6
				C103.1,44.6,102.5,44,101.7,44z"/>
		</g>
		<g>
			<path style="fill:#80D1C2;" d="M101.7,71.1c-0.8,0-1.4,0.6-1.4,1.2V81c0,0.7,0.6,1.2,1.4,1.2c0.8,0,1.4-0.6,1.4-1.2v-8.6
				C103.1,71.7,102.5,71.1,101.7,71.1z"/>
		</g>
		<g>
			<path style="fill:#80D1C2;" d="M120.2,61.7h-8.6c-0.7,0-1.2,0.6-1.2,1.4c0,0.8,0.6,1.4,1.2,1.4h8.6c0.7,0,1.2-0.6,1.2-1.4
				C121.4,62.3,120.9,61.7,120.2,61.7z"/>
		</g>
		<g>
			<path style="fill:#80D1C2;" d="M93,61.7h-8.6c-0.7,0-1.2,0.6-1.2,1.4c0,0.8,0.6,1.4,1.2,1.4H93c0.7,0,1.2-0.6,1.2-1.4
				C94.3,62.3,93.7,61.7,93,61.7z"/>
		</g>
		<g>
			<circle style="fill:#80D1C2;" cx="101.7" cy="63.1" r="2.4"/>
		</g>
	</g>
</g>
<g>
	<path style="fill:#83E8D3;" d="M1310.2,815.6c17.2,2.6,33.5-12,33.5-12l12.8-73.6l-7.4-1.9c0,0-12.4-8.4-35.2,17
		c-6.4,7.1-23.6,24.7-23.2,42.7C1291,805.3,1303.6,814.6,1310.2,815.6z"/>
	<path style="fill:#83E8D3;" d="M1413.2,706.8c0,0-22.3,23.7-28,38.7s-24.9,58.5-4.3,79.9c20.6,21.3,37.9,31.9,67.5,31.9
		c29.6,0,75.3-26.8,76.8-59.7c1.6-33-41.1-85.6-41.1-85.6L1413.2,706.8z"/>
	<g>
		<path style="fill:#1CB594;" d="M1446.2,780.1c-0.1-3.7-0.8-7.2-2.2-10.5c-1.4-3.4-3.4-6.3-5.9-8.7c-5.3-5.4-11.7-8-19.2-8
			c-7.4,0-13.8,2.7-19,8.1c-2.5,2.5-4.4,5.4-5.8,8.8c-1.4,3.4-2.1,6.9-2.1,10.6v1.6l14.7-0.1v-1.6c0-3.4,1.2-6.4,3.6-8.9
			c2.5-2.4,5.4-3.7,8.7-3.7c3.4,0,6.3,1.2,8.8,3.6c2.5,2.4,3.8,5.3,3.8,8.9v1.5h14.6V780.1"/>
	</g>
	<g>
		<g>
			<path style="fill:#FFFFFF;" d="M1356.4,523c-1.4-0.8-2.7-1.4-3.9-1.9c-7.4-2.5-12.8,0.4-16.3,8.7c-2.5,6.9-2.9,14.2-1.4,22
				c1.6,7.9,4.7,15.6,9.4,23.2c15.6-1.8,29.1-7.5,40.5-17.1C1377.2,541.7,1367.8,530.1,1356.4,523"/>
			<path style="fill:#47D7AC;" d="M1344.3,577.5c-0.9,0-1.7-0.4-2.1-1.2c-4.9-7.8-8.1-15.9-9.8-24c-1.7-8.3-1.2-16.2,1.5-23.4
				c5.2-12.2,13.4-12.2,19.5-10.1c1.4,0.4,2.9,1.1,4.4,2c11.8,7.4,21.6,19.5,29.3,36c0.5,1,0.2,2.2-0.7,3
				c-11.7,9.9-25.8,15.8-41.8,17.7L1344.3,577.5 M1347.6,522.7c-3.2,0-6.5,1.7-9.1,8c-2.3,6.3-2.7,13.2-1.2,20.6
				c1.4,7.1,4.2,14.1,8.3,21c13.7-1.9,25.9-6.9,36.1-15.1c-7.2-14.8-16.1-25.5-26.6-32.1c-1.2-0.7-2.3-1.2-3.4-1.6
				C1350.4,523.1,1349,522.7,1347.6,522.7z"/>
			<path style="fill:#FFFFFF;" d="M1499.8,552c1.6-7.9,1.1-15.2-1.4-22.1c-3.5-8.3-9-11.2-16.3-8.6c-1.2,0.4-2.6,1-3.9,1.8
				c-11.4,7.1-20.8,18.7-28.3,34.9c11.4,9.6,24.9,15.3,40.5,17.1C1495.1,567.5,1498.3,559.8,1499.8,552"/>
			<path style="fill:#47D7AC;" d="M1490.4,577.6l-0.3,0c-16.1-1.9-30.1-7.8-41.8-17.7c-0.9-0.7-1.1-1.9-0.7-3
				c7.7-16.5,17.6-28.6,29.3-36c1.6-0.9,3.1-1.6,4.5-2.1c5.9-2.1,14.2-2.1,19.4,10c2.7,7.4,3.2,15.3,1.5,23.6
				c-1.6,8.1-4.9,16.1-9.8,23.9C1492,577.2,1491.2,577.6,1490.4,577.6 M1453,557.3c10.2,8.2,22.4,13.3,36.1,15.1
				c4.1-6.9,6.9-13.9,8.3-20.9c1.5-7.4,1.1-14.4-1.3-20.8c-3.8-9-9-8.5-13.1-7.1c-1.1,0.4-2.3,0.9-3.5,1.6
				C1469.1,531.8,1460.1,542.6,1453,557.3z"/>
			<path style="fill:#FFFFFF;" d="M1513.4,587.2c-9.1-18.3-23.7-31.8-43.9-40.4c-16.7-6.6-33.5-10-50.2-10.2c-0.2,0-0.5,0-0.7,0
				c-0.2,0-0.5,0-0.8,0c-0.2,0-0.5,0-0.7,0c-16.7,0.1-33.5,3.5-50.2,10.2c-22.1,9.4-37.5,24.6-46.3,45.6c-5,11.9-7.8,25.7-8.4,41.3
				c-0.2,7.3-1.2,13.9-2.9,19.6c-9.4,28.4-4.2,50.1,15.6,65c2,1.5,4.2,3,6.5,4.4l0.3,0.2c1.9,1.2,3.9,2.4,5.9,3.4
				c15.9,8.8,33.3,14.4,52.4,16.8c1.3,0.1,2.6,0.3,3.9,0.4c7.7,1.1,15.5,1.7,23.3,1.7c0.7,0,1.5,0,2.2,0c7.8,0,15.6-0.6,23.3-1.7
				c1.3-0.1,2.6-0.3,3.9-0.4c8-1,15.7-2.6,23.2-4.7c10.3-3,20-7,29.2-12.1c2.1-1.1,4.2-2.4,6.2-3.6c2.3-1.4,4.5-2.8,6.5-4.4
				c19.7-14.9,24.9-36.6,15.6-65c-1.8-5.7-2.7-12.3-2.9-19.6C1523.5,615.7,1519.8,600.2,1513.4,587.2"/>
			<path style="fill:#83E8D3;" d="M1523.9,705.4c9.1-13.7,10.2-31.1,3.3-52.2c-1.8-5.7-2.7-12.3-2.9-19.6c-0.2-3.6-0.5-7-0.8-10.4
				c0.3-0.3,0.6-0.6,1-0.9c0.7-0.7,0.8-1.8,0.1-2.5c-0.7-0.7-1.8-0.8-2.5-0.1c-7,6.2-12.9,12.6-17.6,19c-5.3,6.9-6.6,16.2-4,27.6
				c0.5,1.7,1,3.5,1.6,5.1c4.2,12.5,10.7,24.9,19.4,36.7c0.3,0.5,0.9,0.7,1.4,0.7c0.4,0,0.7-0.1,1.1-0.3c0.8-0.6,1-1.7,0.4-2.5
				C1524.1,705.8,1524,705.6,1523.9,705.4z"/>
			<path style="fill:#83E8D3;" d="M1332,638.7c-4.7-6.4-10.6-12.8-17.6-19.1c-0.7-0.7-1.9-0.6-2.5,0.1c-0.7,0.7-0.6,1.9,0.1,2.5
				c0.3,0.3,0.6,0.6,1,0.9c-0.4,3.4-0.7,6.8-0.8,10.4c-0.2,7.3-1.2,13.9-2.9,19.6c-7,21.2-5.8,38.6,3.4,52.3
				c-0.1,0.2-0.2,0.4-0.4,0.5c-0.6,0.8-0.4,1.9,0.4,2.5c0.3,0.2,0.7,0.3,1.1,0.3c0.6,0,1.1-0.3,1.4-0.7
				c8.6-11.9,15.1-24.2,19.3-36.7c0.6-1.7,1.1-3.4,1.6-5.2C1338.6,654.9,1337.2,645.6,1332,638.7z"/>
			<path style="fill:#47D7AC;" d="M1417,747.7c-7.9,0-15.9-0.6-23.7-1.7c-1.3-0.1-2.6-0.3-3.9-0.4c-19.3-2.4-37.2-8.2-53.3-17.1
				c-2-1.1-4-2.3-6-3.5l-0.3-0.2c-2.3-1.4-4.6-2.9-6.7-4.5c-20.6-15.6-26.1-38.4-16.5-67.8c1.7-5.5,2.6-11.8,2.8-18.9
				c0.7-15.9,3.6-30.1,8.7-42.2c9-21.5,25-37.3,47.6-46.9c17-6.7,34.2-10.2,51.2-10.4h2.2c17,0.1,34.2,3.6,51.2,10.3
				c20.8,8.9,36,22.9,45.3,41.6c6.6,13.3,10.3,29.2,11.1,47.4c0.2,7.1,1.1,13.5,2.8,19c9.7,29.4,4.1,52.2-16.5,67.8
				c-2.1,1.6-4.3,3.1-6.7,4.5c-2,1.3-4.1,2.5-6.2,3.7c-9.3,5.2-19.3,9.3-29.7,12.3c-7.5,2.2-15.5,3.8-23.6,4.8
				c-1.3,0.1-2.6,0.3-4,0.4c-7.7,1.1-15.7,1.7-23.6,1.7H1417 M1417,539.1c-16.3,0.1-32.9,3.5-49.3,10c-21.3,9.1-36.4,24-44.9,44.2
				c-4.8,11.6-7.6,25.2-8.3,40.4c-0.2,7.5-1.2,14.3-3,20.2l0,0c-9.1,27.6-4.2,47.9,14.7,62.3c1.9,1.5,4,2.9,6.3,4.2
				c0.2,0.1,0.3,0.2,0.5,0.3c1.8,1.1,3.7,2.2,5.6,3.3c15.5,8.6,32.9,14.2,51.5,16.5c1.3,0.1,2.6,0.3,3.9,0.4
				c7.7,1.1,15.4,1.7,23.1,1.7h2.2c7.7,0,15.4-0.6,23-1.7c1.4-0.2,2.7-0.3,4-0.4c7.8-1,15.5-2.5,22.8-4.6c10-2.9,19.7-6.9,28.7-11.9
				c2-1.1,4.1-2.3,6-3.6c2.3-1.4,4.4-2.8,6.3-4.2c19-14.4,23.8-34.7,14.7-62.3c-1.8-6-2.9-12.8-3.1-20.3
				c-0.8-17.5-4.3-32.7-10.5-45.4c-8.7-17.7-23.1-30.9-42.7-39.2c-16.3-6.5-32.9-9.8-49.3-10H1417z M1309.1,653.2L1309.1,653.2
				L1309.1,653.2z"/>
			<path d="M1388.7,659.2c1.8-3.3,2.6-7.3,2.6-11.9c0-4.7-0.9-8.7-2.6-12c-1.8-3.3-3.9-4.9-6.4-4.9c-2.5,0-4.7,1.6-6.4,4.9
				c-1.8,3.3-2.7,7.3-2.7,12c0,4.7,0.9,8.7,2.7,11.9c1.8,3.4,3.9,5.1,6.4,5.1C1384.8,664.3,1386.9,662.6,1388.7,659.2"/>
			<path style="fill:#83E8D3;" d="M1386.9,615l0.1,0.1c1.3,0.2,2.6-0.1,3.7-1c1.1-0.7,1.8-1.8,2.1-3.2c0.2-1.3,0-2.6-0.9-3.9
				c-0.7-1.1-1.7-1.8-3-2.1l-19.2-3.4c-1.3-0.2-2.6,0.1-3.6,0.9c-1.1,0.9-1.8,2-2.1,3.4c-0.2,1.4,0,2.6,0.8,3.7
				c0.7,1.1,1.6,1.7,2.7,2.1l0.4,0.1L1386.9,615"/>
			<path style="fill:#47D7AC;" d="M1387.9,616.9c-0.4,0-0.7,0-1.1-0.1l-0.4-0.1l-18.6-3.3c-0.3,0-0.5-0.1-0.8-0.2
				c-1.4-0.5-2.6-1.4-3.6-2.7c-1-1.5-1.4-3.2-1.1-5c0.3-1.8,1.2-3.4,2.8-4.5c1.5-1.1,3.2-1.5,5-1.2l19.2,3.4
				c1.8,0.4,3.2,1.4,4.2,2.9c1.1,1.6,1.4,3.4,1.1,5.2c-0.3,1.9-1.3,3.4-2.8,4.4C1390.6,616.4,1389.3,616.9,1387.9,616.9
				 M1386.9,616.8L1386.9,616.8L1386.9,616.8z M1386.9,616.8L1386.9,616.8L1386.9,616.8z M1385.8,616.3L1385.8,616.3L1385.8,616.3z
				 M1387.6,613.3c0.7,0.1,1.4-0.2,2-0.7l0.2-0.1c0.7-0.4,1.1-1.1,1.3-2c0.2-0.9,0-1.7-0.6-2.6c-0.5-0.7-1.1-1.1-1.9-1.3l-19.1-3.3
				c-0.8-0.1-1.6,0.1-2.3,0.6c-0.7,0.5-1.2,1.3-1.3,2.2c-0.2,0.9,0,1.7,0.5,2.4c0.5,0.7,1.1,1.2,1.8,1.4l0,0l0.1,0l18.9,3.4
				L1387.6,613.3z M1368.4,609.9L1368.4,609.9L1368.4,609.9z M1367.9,609.8L1367.9,609.8L1367.9,609.8z"/>
			<path d="M1444.9,647.3c0,4.7,0.9,8.7,2.7,11.9c1.8,3.4,3.9,5.1,6.4,5.1c2.5,0,4.7-1.7,6.4-5.1c1.8-3.3,2.7-7.3,2.7-11.9
				c0-4.7-0.9-8.7-2.7-12c-1.8-3.3-3.9-4.9-6.4-4.9c-2.5,0-4.7,1.6-6.4,4.9C1445.8,638.6,1444.9,642.6,1444.9,647.3"/>
			<path style="fill:#83E8D3;" d="M1470.1,602.4c-1.1-0.8-2.3-1-3.6-0.9l-19.2,3.4c-1.3,0.3-2.3,1-3,2.1c-0.8,1.2-1.1,2.5-0.9,3.9
				c0.2,1.4,0.9,2.5,2.1,3.2c1.1,0.9,2.4,1.2,3.7,1l0.1-0.1l19-3.4l0.4-0.1c1.1-0.3,2-1,2.7-2.1c0.8-1.1,1-2.3,0.8-3.7
				C1472,604.4,1471.3,603.3,1470.1,602.4"/>
			<path style="fill:#47D7AC;" d="M1448.4,616.9c-1.4,0-2.7-0.5-3.9-1.4c-1.5-1-2.5-2.5-2.8-4.4c-0.3-1.8,0.1-3.5,1.1-5.1
				c1-1.5,2.4-2.5,4.1-2.8l19.3-3.4c1.8-0.3,3.5,0.1,5,1.2c1.6,1.2,2.5,2.7,2.8,4.5c0.3,1.9,0,3.6-1.1,5c-0.9,1.3-2.1,2.3-3.6,2.7
				c-0.2,0.1-0.5,0.2-0.8,0.2l-18.6,3.3l-0.4,0.1C1449.2,616.9,1448.8,616.9,1448.4,616.9 M1449.4,616.8L1449.4,616.8L1449.4,616.8z
				 M1449.4,616.8L1449.4,616.8L1449.4,616.8z M1450.5,616.3L1450.5,616.3L1450.5,616.3z M1467.3,603.3l-0.5,0l-19.1,3.4
				c-0.8,0.2-1.4,0.6-1.8,1.3c-0.6,0.9-0.8,1.7-0.6,2.6c0.2,0.9,0.6,1.6,1.3,2l0.2,0.1c0.7,0.5,1.3,0.7,2,0.7l0.5-0.1l18.9-3.4
				l0.1,0l0,0c0.7-0.2,1.3-0.7,1.8-1.4c0.5-0.7,0.7-1.5,0.5-2.4c-0.2-0.9-0.6-1.6-1.4-2.2C1468.5,603.5,1467.9,603.3,1467.3,603.3z
				 M1467.9,610L1467.9,610L1467.9,610z M1468.3,609.8"/>
			<path d="M1418.2,697.8c-5.2,0-9.6-1.3-13.3-3.9c-2.8-2-4.6-4.3-5.3-7c-0.2-0.9,0.3-1.7,1.1-2c0.9-0.2,1.7,0.3,2,1.1
				c0.5,1.9,1.9,3.7,4.1,5.2c3.1,2.2,7,3.3,11.5,3.3c4.5,0,8.3-1.1,11.4-3.3c2.2-1.5,3.6-3.3,4.1-5.2c0.2-0.9,1.1-1.4,2-1.1
				c0.9,0.2,1.4,1.1,1.1,2c-0.7,2.7-2.6,5-5.4,7C1427.8,696.5,1423.3,697.8,1418.2,697.8"/>
		</g>
		<g>
			<g>
				<g>
					<path style="fill:#01B593;" d="M1364.8,697.9c-2,0-3.9-0.1-6-0.4c-12.8-1.5-23.5-7.3-31.8-17.3c-8.3-10.1-11.9-21.6-10.9-34.4
						c1.1-12.8,6.6-23.3,16.3-31.4c9.9-8,21.4-11.3,34.2-9.8c12.7,1.5,23.3,7.3,31.6,17.3c8.3,10.1,12,21.6,11,34.4
						c-1,12.8-6.6,23.3-16.5,31.3C1384.5,694.5,1375.2,697.9,1364.8,697.9 M1360.5,610.2c-9.1,0-17.1,2.9-24.4,8.8
						c-8.6,7.1-13.3,16.1-14.2,27.4c-0.9,11.3,2.2,21.2,9.6,30.2c7.4,8.9,16.6,13.9,28,15.3c11.3,1.4,21-1.4,29.6-8.6
						c8.8-7.1,13.5-16,14.4-27.3v0c1-11.3-2.2-21.2-9.6-30.2c-7.4-9-16.5-14-27.8-15.3C1364.1,610.3,1362.3,610.2,1360.5,610.2z"/>
					<path style="fill:#FFFFFF;" d="M1364.5,692.5c-1.7,0-3.5-0.1-5.3-0.3c-11.3-1.3-20.8-6.5-28.2-15.5
						c-7.3-8.9-10.6-19.2-9.7-30.5c0.9-11.3,5.8-20.6,14.4-27.8c8.8-7.1,19-10.1,30.4-8.7c11.3,1.3,20.7,6.5,28.1,15.4
						c7.4,9,10.7,19.2,9.8,30.5c-0.9,11.3-5.8,20.7-14.6,27.8C1382.1,689.5,1373.7,692.5,1364.5,692.5 M1360.7,612.4
						c-8.5,0-16.3,2.8-23.1,8.3c-8,6.6-12.5,15.3-13.4,25.7c-0.8,10.5,2.2,20.1,9,28.4c6.9,8.3,15.7,13.2,26.3,14.4
						c10.5,1.2,19.9-1.5,28-8.1c8.2-6.6,12.7-15.2,13.5-25.7v0c0.9-10.5-2.2-20-9.1-28.4c-6.8-8.3-15.6-13.1-26.2-14.3
						C1364.1,612.5,1362.4,612.4,1360.7,612.4z"/>
				</g>
				<g>
					<path style="fill:#01B593;" d="M1474.8,697.9c-2,0-3.9-0.1-6-0.4c-12.8-1.5-23.5-7.3-31.8-17.3c-8.3-10.1-11.9-21.6-10.9-34.4
						c1.1-12.8,6.6-23.3,16.3-31.4c9.9-8,21.4-11.3,34.2-9.8c12.7,1.5,23.3,7.3,31.6,17.3c8.3,10.1,12,21.6,11,34.4
						c-1,12.8-6.6,23.3-16.5,31.3C1494.5,694.5,1485.2,697.9,1474.8,697.9 M1470.5,610.2c-9.1,0-17.1,2.9-24.4,8.8
						c-8.6,7.1-13.3,16.1-14.2,27.4c-0.9,11.3,2.2,21.2,9.6,30.2c7.4,8.9,16.6,13.9,28,15.3c11.3,1.4,21-1.4,29.6-8.6
						c8.8-7.1,13.5-16,14.4-27.3v0c1-11.3-2.2-21.2-9.6-30.2c-7.4-9-16.5-14-27.8-15.3C1474.1,610.3,1472.3,610.2,1470.5,610.2z"/>
					<path style="fill:#FFFFFF;" d="M1474.5,692.5c-1.7,0-3.5-0.1-5.3-0.3c-11.3-1.3-20.8-6.5-28.2-15.5
						c-7.3-8.9-10.6-19.2-9.7-30.5c0.9-11.3,5.8-20.6,14.4-27.8c8.8-7.1,19-10.1,30.4-8.7c11.3,1.3,20.7,6.5,28.1,15.4
						c7.4,9,10.7,19.2,9.8,30.5c-0.9,11.3-5.8,20.7-14.6,27.8C1492.1,689.5,1483.7,692.5,1474.5,692.5 M1470.7,612.4
						c-8.5,0-16.3,2.8-23.1,8.3c-8,6.6-12.5,15.3-13.4,25.7c-0.8,10.5,2.2,20.1,9,28.4c6.9,8.3,15.7,13.2,26.3,14.4
						c10.5,1.2,19.9-1.5,28-8.1c8.2-6.6,12.7-15.2,13.5-25.7v0c0.9-10.5-2.2-20-9.1-28.4c-6.8-8.3-15.6-13.1-26.2-14.3
						C1474.1,612.5,1472.4,612.4,1470.7,612.4z"/>
				</g>
			</g>
			<g>
				<path style="fill:#01B593;" d="M1426.8,656.1c-0.6,0-1.1-0.2-1.7-0.5c0,0-3.6-2.5-7.6-2.7c-4-0.2-7.6,1.8-7.6,1.8
					c-1.4,0.8-3.1,0.3-3.9-1.1c-0.8-1.4-0.3-3.1,1.1-3.9c0.2-0.1,5-2.8,10.7-2.5c5.7,0.3,10.4,3.6,10.6,3.7c1.3,0.9,1.6,2.7,0.7,4
					C1428.6,655.7,1427.7,656.1,1426.8,656.1z"/>
			</g>
		</g>
	</g>
	<g>
		<path style="fill:#83E8D3;" d="M1325.4,828.5l-16.9,4.6c-3.4-3.6-7.4-5.1-11.9-4.6c-6.8,1-9.2,7.2-7.1,18.7
			c2,11.2,4.4,21.2,7.1,30c3.1,9.9,11,12.2,23.7,7l85.8-19.6L1325.4,828.5L1325.4,828.5z"/>
		<g>
			<path style="fill:#47D7AC;" d="M1308.9,889c-2.4,0-4.6-0.5-6.5-1.4c-3.6-1.7-6.3-5-7.8-9.8c-2.7-8.8-5.2-19-7.2-30.2
				c-1.4-7.9-0.9-13.4,1.7-17c1.6-2.3,4.1-3.7,7.2-4.1c4.9-0.6,9.2,0.9,12.9,4.4l23.2-4.5c1.1-0.2,2.2,0.5,2.5,1.7
				c0.2,1.1-0.5,2.2-1.7,2.5l-24.3,4.7c-0.7,0.1-1.4-0.1-1.9-0.6c-3-3.1-6.3-4.4-10.1-3.9c-1.9,0.3-3.4,1.1-4.3,2.4
				c-1.9,2.6-2.2,7.2-1,13.8c2,11.1,4.4,21.1,7,29.7c1.2,3.7,3,6.1,5.6,7.3c3.5,1.7,8.7,1.1,15.3-1.6c0.1,0,0.2-0.1,0.3-0.1
				l85.8-19.6c1.1-0.3,2.3,0.4,2.5,1.6c0.3,1.1-0.4,2.3-1.6,2.5l-85.6,19.5C1316.3,888,1312.4,889,1308.9,889z"/>
		</g>
	</g>
	<g>
		<path style="fill:#83E8D3;" d="M1515.4,828.5l16.9,4.6c3.4-3.6,7.4-5.1,11.9-4.6c6.8,1,9.2,7.2,7.1,18.7c-2,11.2-4.4,21.2-7.1,30
			c-3.1,9.9-11,12.2-23.7,7l-85.8-19.6L1515.4,828.5L1515.4,828.5z"/>
		<g>
			<path style="fill:#47D7AC;" d="M1531.9,889c-3.5,0-7.4-0.9-12-2.8l-85.6-19.5c-1.1-0.3-1.8-1.4-1.6-2.5c0.3-1.1,1.4-1.8,2.5-1.6
				l85.8,19.6c0.1,0,0.2,0.1,0.3,0.1c6.6,2.7,11.8,3.2,15.3,1.6c2.6-1.2,4.4-3.6,5.6-7.3c2.7-8.6,5.1-18.6,7-29.7
				c1.2-6.6,0.9-11.2-1-13.8c-1-1.3-2.4-2.1-4.4-2.4c-3.8-0.5-7.1,0.8-10.1,4c-0.5,0.5-1.2,0.8-1.9,0.6l-24.3-4.7
				c-1.1-0.2-1.9-1.3-1.7-2.5c0.2-1.1,1.3-1.9,2.5-1.7l23.2,4.5c3.7-3.5,8-5,12.9-4.4c3.2,0.5,5.6,1.8,7.2,4.1
				c2.6,3.6,3.1,9.1,1.7,17c-2,11.2-4.4,21.4-7.2,30.2c-1.5,4.8-4.1,8.1-7.8,9.8C1536.5,888.5,1534.3,889,1531.9,889z"/>
		</g>
	</g>
	<path style="fill:#F29100;" d="M1318.2,724.1C1318.2,724.1,1318.2,724.1,1318.2,724.1C1318.2,724.1,1318.2,724.1,1318.2,724.1
		C1318.2,724.1,1318.2,724.1,1318.2,724.1"/>
	<g>
		<g>
			<path style="fill:#83E8D3;" d="M1352.1,783.9c-0.1-0.5-0.1-0.9-0.1-1.1l0-0.3l0,0c-0.1-0.2-0.1-0.3-0.2-0.6
				c-0.3-1.1-1.2-3.4-3-5.3c-1.8-1.9-4.3-3.6-8.4-3.6c-1.3,0-2.7,0.2-4.3,0.5c-3.2,0.7-5.9,1.2-8.2,1.4c-0.2,12.4-0.4,25.7-0.6,37.2
				c3.5-0.2,7.2-0.8,11.1-1.9c6-1.7,9.3-5.3,11.4-9.6c2-4.3,2.5-9.2,2.5-12.9C1352.3,786.2,1352.2,784.9,1352.1,783.9z"/>
		</g>
	</g>
	<g>
		<path style="fill:#83E8D3;" d="M1515.7,817c-17.2,2.6-33.5-12-33.5-12l-12.8-73.6l7.4-1.9c0,0,12.4-8.4,35.2,17
			c6.4,7.1,23.6,24.7,23.2,42.7C1534.9,806.7,1522.3,816,1515.7,817z"/>
		<g>
			<path style="fill:#47D7AC;" d="M1531.8,799.8c-0.2,0-0.4,0-0.6-0.1c-1.1-0.3-1.7-1.5-1.4-2.6c7.1-23.3-14.3-44.3-21.3-51.2
				c-18.2-17.9-36.7-18.3-36.9-18.3c-1.2,0-2.1-1-2.1-2.1c0-1.2,1-2.1,2.1-2.1c0,0,0,0,0,0c0.8,0,20.3,0.5,39.8,19.5
				c7.5,7.3,30.3,29.7,22.4,55.4C1533.6,799.2,1532.7,799.8,1531.8,799.8z"/>
		</g>
	</g>
	<g>
		<path style="fill:#47D7AC;" d="M1294.6,798.4c-0.9,0-1.7-0.6-2-1.4c-5.8-17,1.6-35.6,21.8-55.5c19.4-19,39-19.5,39.8-19.5
			c0,0,0,0,0,0c1.1,0,2.1,0.9,2.1,2.1c0,1.2-0.9,2.1-2.1,2.1c-0.2,0-18.7,0.5-36.9,18.3c-19.3,18.9-26.1,35.6-20.8,51.1
			c0.4,1.1-0.2,2.3-1.3,2.7C1295.1,798.3,1294.9,798.4,1294.6,798.4z"/>
	</g>
	<g id="오픈북_00000013155947526837094400000002516912180323875461_">
		<path style="fill:#FCFCFC;stroke:#D3D3D3;stroke-miterlimit:10;" d="M1419.4,869.5l0-111.9c23.3-29.6,60.8-40,68-41
			c11.4-1.5,10.1,4.5,9,9.4c0,37.3-2,74.1-2,111.4L1419.4,869.5z"/>
		<path style="fill:#F2F2F2;stroke:#D3D3D3;stroke-miterlimit:10;" d="M1426.2,874.1V759.7c10.6-11.9,23.2-21.1,45.9-30
			c2.8-1.1,16.2-5.3,23.6-5.3c8.4,0,10,1.9,15.1,4.1c0,37.3,0,74.6,0,112L1426.2,874.1z"/>
		<path style="fill:#FFCFD9;" d="M1426.2,759.6v114.5l81.5-29.6c3.2-1.1,5.3-4,5.3-7.4l5.8-101.2c0-5.4-5.4-9.2-10.5-7.3
			L1426.2,759.6z"/>
		<g>
			<path style="fill:#FF9FB6;" d="M1426.2,876c-0.4,0-0.8-0.1-1.1-0.4c-0.5-0.4-0.8-1-0.8-1.6V759.7c0-0.8,0.5-1.5,1.3-1.8
				l82.1-31.1c3-1.1,6.4-0.7,9,1.1s4.2,4.8,4.2,8l-5.9,101.3c0,4.1-2.7,7.8-6.7,9.1l-81.4,29.6C1426.7,876,1426.4,876,1426.2,876z
				 M1428.2,761v110.3l78.8-28.6c2.5-0.8,4.1-3,4.1-5.6l5.9-101.3c0-1.8-0.9-3.6-2.5-4.7c-1.6-1.1-3.6-1.4-5.4-0.7L1428.2,761z"/>
		</g>
		<path style="fill:#FCFCFC;stroke:#D3D3D3;stroke-miterlimit:10;" d="M1416.9,869.5l0-111.9c-23.3-29.6-60.8-40-68-41
			c-11.4-1.5-10.1,4.5-9,9.4c0,37.3,2,74.1,2,111.4L1416.9,869.5z"/>
		<path style="fill:#F2F2F2;stroke:#D3D3D3;stroke-miterlimit:10;" d="M1410.1,874.1V759.7c-10.6-11.9-23.2-21.1-45.9-30
			c-2.8-1.1-16.2-5.3-23.6-5.3c-8.4,0-10,1.9-15.1,4.1c0,37.3,0,74.6,0,112L1410.1,874.1z"/>
		<path style="fill:#FFCFD9;" d="M1410.1,759.6v114.5l-81.5-29.6c-3.2-1.1-5.3-4-5.3-7.4l-5.8-101.2c0-5.4,5.4-9.2,10.5-7.3
			L1410.1,759.6z"/>
		<g>
			<path style="fill:#FF9FB6;" d="M1410.1,876c-0.2,0-0.4,0-0.7-0.1l-81.5-29.6c-3.9-1.3-6.6-5-6.6-9.2l-5.8-101.1
				c0-3.3,1.6-6.3,4.2-8.1c2.6-1.8,6-2.3,9-1.1l82.2,31.1c0.8,0.3,1.3,1,1.3,1.8v114.4c0,0.6-0.3,1.2-0.8,1.6
				C1410.9,875.9,1410.5,876,1410.1,876z M1325.2,730c-1.2,0-2.3,0.4-3.3,1.1c-1.6,1.1-2.5,2.9-2.5,4.8l5.8,101.1
				c0,2.6,1.6,4.9,4,5.7l78.9,28.7V761l-80.9-30.6C1326.6,730.1,1325.9,730,1325.2,730z"/>
		</g>
		<path style="fill:#FFCFD9;" d="M1424.2,875.4h-12.9c-1.1,0-2-0.9-2-2V761.5c0-1.1,0.9-2,2-2h12.9c1.1,0,2,0.9,2,2v111.9
			C1426.2,874.5,1425.3,875.4,1424.2,875.4z"/>
		<g>
			<path style="fill:#FF9FB6;" d="M1422.4,877.4h-9.2c-3.2,0-5.8-2.6-5.8-5.8V763.4c0-3.2,2.6-5.8,5.8-5.8h9.2
				c3.2,0,5.8,2.6,5.8,5.8v108.2C1428.2,874.8,1425.6,877.4,1422.4,877.4z M1413.2,761.5c-1,0-1.9,0.8-1.9,1.9v108.2
				c0,1,0.8,1.9,1.9,1.9h9.2c1,0,1.9-0.8,1.9-1.9V763.4c0-1-0.8-1.9-1.9-1.9H1413.2z"/>
		</g>
	</g>
	<g>
		<path style="fill:#83E8D3;" d="M1311.4,780.2c7.6-2.1,25.3-3.3,26.7,13.6c1.6,18.5-4.2,19.7-10.9,22.8
			c-9.1,4.3-23.7-2.2-29.6-15.6"/>
		<g>
			<path style="fill:#47D7AC;" d="M1319.4,821.4c-3.6,0-7.3-1-10.8-3c-8.4-4.7-14.3-13.7-15.9-20.2c-0.3-1.1,0.4-2.3,1.6-2.5
				c1.1-0.3,2.3,0.4,2.5,1.6c1.3,5.5,6.6,13.5,13.8,17.5c4.6,2.6,9.2,3.1,13.6,1.7c10.9-3.7,14.4-10.3,12.1-23
				c-1.6-8.6-10.5-12.4-18.5-11.8c-1.2,0.1-2.2-0.8-2.2-1.9c-0.1-1.2,0.8-2.2,1.9-2.2c9.8-0.7,20.9,4.3,22.9,15.2
				c1.7,9.2,2,22.1-14.9,27.8C1323.5,821.1,1321.5,821.4,1319.4,821.4z"/>
		</g>
	</g>
	<path style="fill:#83E8D3;" d="M1328.9,777.6"/>
	<g>
		<path style="fill:#83E8D3;" d="M1522.8,779.5c-7.6-2.1-31.9-3.2-33.3,13.7c-1.6,18.5,3.5,20.4,10.2,23.5
			c14.9,6.7,24.8-2.2,30.7-15.5"/>
		<g>
			<path style="fill:#47D7AC;" d="M1508.5,820.8c-2.1,0-4.3-0.4-6.4-1.1c-13.2-4.4-18.3-14.1-14.8-27.9c4.3-17,31.1-15.7,32.3-15.7
				c1.2,0.1,2,1,2,2.2c-0.1,1.2-1.1,2-2.2,2c-0.3,0-24.6-1.1-28,12.5c-2.9,11.7,1,19.2,12.1,22.9c4.5,1.5,9,1,13.5-1.5
				c7-3.9,11.5-11.3,12.7-16.6c0.3-1.1,1.4-1.8,2.5-1.6c1.1,0.3,1.8,1.4,1.6,2.5c-1.8,7.5-7.9,15.5-14.8,19.3
				C1515.6,819.9,1512.1,820.8,1508.5,820.8z"/>
		</g>
	</g>
</g>
<g>
</g>
<g>
</g>
<g>
</g>
<g>
</g>
<g>
</g>
<g>
</g>
<g>
</g>
<g>
</g>
<g>
</g>
<g>
</g>
<g>
</g>
<g>
</g>
<g>
</g>
<g>
</g>
<g>
</g>
</svg>
