<?xml version="1.0" encoding="utf-8"?>
<!-- Generator: Adobe Illustrator 25.2.3, SVG Export Plug-In . SVG Version: 6.00 Build 0)  -->
<svg version="1.1" id="레이어_1" xmlns="http://www.w3.org/2000/svg" xmlns:xlink="http://www.w3.org/1999/xlink" x="0px"
	 y="0px" viewBox="0 0 1600 900" style="enable-background:new 0 0 1600 900;" xml:space="preserve">
<style type="text/css">
	.st0{fill:#FAE6E9;}
	.st1{fill:url(#SVGID_1_);}
	.st2{fill:url(#SVGID_2_);}
	.st3{fill:#FFFFFF;}
	.st4{fill:#FCF2F4;}
	.st5{opacity:5.000000e-02;enable-background:new    ;}
	.st6{fill:#FADADF;}
	.st7{fill:#333333;}
	.st8{fill:#FFEBEE;}
	.st9{fill:#F593A2;}
	.st10{fill:#83E8D3;}
	.st11{fill:#1CB594;}
	.st12{fill:#47D7AC;}
	.st13{fill:#01B593;}
	.st14{fill:#F29100;}
	.st15{fill:#FCFCFC;stroke:#D3D3D3;stroke-width:2.2554;stroke-miterlimit:10;}
	.st16{fill:#F2F2F2;stroke:#D3D3D3;stroke-width:2.2554;stroke-miterlimit:10;}
	.st17{fill:#FFCFD9;}
	.st18{fill:#FF9FB6;}
</style>
<g>
	<rect class="st0" width="1600" height="900"/>
	
		<linearGradient id="SVGID_1_" gradientUnits="userSpaceOnUse" x1="800" y1="902" x2="800" y2="2" gradientTransform="matrix(1 0 0 -1 0 902)">
		<stop  offset="0" style="stop-color:#FFFFFF"/>
		<stop  offset="0" style="stop-color:#FFFFFF;stop-opacity:0"/>
		<stop  offset="0.1253" style="stop-color:#FEF9FA;stop-opacity:1.002413e-02"/>
		<stop  offset="0.2955" style="stop-color:#FDE7EB;stop-opacity:2.363957e-02"/>
		<stop  offset="0.4915" style="stop-color:#FBCBD3;stop-opacity:3.931918e-02"/>
		<stop  offset="0.7067" style="stop-color:#F7A3B1;stop-opacity:5.653793e-02"/>
		<stop  offset="0.9352" style="stop-color:#F37186;stop-opacity:7.481222e-02"/>
		<stop  offset="1" style="stop-color:#F26179;stop-opacity:8.000000e-02"/>
	</linearGradient>
	<rect class="st1" width="1600" height="900"/>
	
		<linearGradient id="SVGID_2_" gradientUnits="userSpaceOnUse" x1="800" y1="902" x2="800" y2="2" gradientTransform="matrix(1 0 0 -1 0 902)">
		<stop  offset="0" style="stop-color:#FFFFFF"/>
		<stop  offset="0" style="stop-color:#FFFFFF;stop-opacity:0"/>
		<stop  offset="0.1253" style="stop-color:#FEF9FA;stop-opacity:1.002413e-02"/>
		<stop  offset="0.2955" style="stop-color:#FDE7EB;stop-opacity:2.363957e-02"/>
		<stop  offset="0.4915" style="stop-color:#FBCBD3;stop-opacity:3.931918e-02"/>
		<stop  offset="0.7067" style="stop-color:#F7A3B1;stop-opacity:5.653793e-02"/>
		<stop  offset="0.9352" style="stop-color:#F37186;stop-opacity:7.481222e-02"/>
		<stop  offset="1" style="stop-color:#F26179;stop-opacity:8.000000e-02"/>
	</linearGradient>
	<rect class="st2" width="1600" height="900"/>
	<path class="st3" d="M602.8,886.1c0.2-0.1,0.5-0.2,0.7-0.3c2.8-1,5.6-2.1,8.4-3.1c3.5-1.3,7-2.6,10.5-3.9c4.2-1.6,8.4-3.1,12.5-4.7
		c4.8-1.8,9.7-3.6,14.5-5.4c5.4-2,10.9-4.1,16.3-6.1c6-2.2,12-4.5,18-6.7c6.5-2.4,13.1-4.9,19.6-7.3c7.1-2.6,14.1-5.3,21.2-7.9
		c7.5-2.8,15-5.6,22.6-8.4c8-3,15.9-5.9,23.9-8.9c8.3-3.1,16.7-6.2,25-9.3c8.7-3.2,17.4-6.5,26.1-9.7c9-3.4,18.1-6.7,27.1-10.1
		c9.3-3.5,18.7-7,28-10.4c9.6-3.6,19.2-7.2,28.8-10.7c9.8-3.7,19.6-7.3,29.4-11c10-3.7,20-7.5,30-11.2c10.1-3.8,20.3-7.6,30.4-11.3
		c10.3-3.8,20.5-7.6,30.8-11.5c10.3-3.9,20.7-7.7,31-11.6c10.4-3.9,20.8-7.7,31.1-11.6c10.4-3.9,20.8-7.7,31.2-11.6
		c10.4-3.9,20.7-7.7,31.1-11.6c10.3-3.8,20.6-7.7,30.9-11.5c10.2-3.8,20.4-7.6,30.6-11.4c10.1-3.8,20.1-7.5,30.2-11.3
		c9.9-3.7,19.8-7.4,29.7-11.1c9.7-3.6,19.4-7.2,29.1-10.8c9.5-3.5,18.9-7.1,28.4-10.6c9.2-3.4,18.4-6.8,27.5-10.3
		c8.9-3.3,17.7-6.6,26.6-9.9c8.5-3.2,17.1-6.4,25.6-9.5c8.1-3,16.3-6.1,24.4-9.1c7.7-2.9,15.5-5.8,23.2-8.7
		c7.3-2.7,14.6-5.4,21.8-8.1c6.8-2.5,13.6-5.1,20.4-7.6c6.3-2.3,12.5-4.7,18.8-7c5.7-2.1,11.4-4.3,17.1-6.4
		c5.1-1.9,10.2-3.8,15.4-5.7c4.5-1.7,9-3.4,13.5-5c3.8-1.4,7.7-2.9,11.5-4.3c3.1-1.2,6.3-2.3,9.4-3.5c2.4-0.9,4.8-1.8,7.2-2.7
		c1.6-0.6,3.3-1.2,4.9-1.8c0.8-0.3,1.7-0.6,2.5-0.9c0.1,0,0.2-0.1,0.3-0.1l0,0v-5.1v-14.3V359.9c-54.5-46.4-121.4-116.8-173.8-216.5
		c-27.1-51.6-44.9-100.7-56.7-143.5H26.1C44.6,106,79.5,235.5,146.6,373c101.1,207.2,211.4,355.8,320,457.2c0.2,0.2,0.4,0.4,0.6,0.6
		c14.8,13.8,29.6,26.7,44.3,38.8c3.6,2.3,7.3,4.5,11.4,6.7c14.2,7.5,29.3,11.1,45.3,12.3c11.2,0.9,21.8,1.4,32.5-1.9h-0.1l0.2-0.1
		c0.2-0.1,0.4-0.1,0.6-0.2L602.8,886.1z"/>
	<path class="st3" d="M602.8,886.1c0.2-0.1,0.5-0.2,0.7-0.3c2.8-1,5.6-2.1,8.4-3.1c3.5-1.3,7-2.6,10.5-3.9c4.2-1.6,8.4-3.1,12.5-4.7
		c4.8-1.8,9.7-3.6,14.5-5.4c5.4-2,10.9-4.1,16.3-6.1c6-2.2,12-4.5,18-6.7c6.5-2.4,13.1-4.9,19.6-7.3c7.1-2.6,14.1-5.3,21.2-7.9
		c7.5-2.8,15-5.6,22.6-8.4c8-3,15.9-5.9,23.9-8.9c8.3-3.1,16.7-6.2,25-9.3c8.7-3.2,17.4-6.5,26.1-9.7c9-3.4,18.1-6.7,27.1-10.1
		c9.3-3.5,18.7-7,28-10.4c9.6-3.6,19.2-7.2,28.8-10.7c9.8-3.7,19.6-7.3,29.4-11c10-3.7,20-7.5,30-11.2c10.1-3.8,20.3-7.6,30.4-11.3
		c10.3-3.8,20.5-7.6,30.8-11.5c10.3-3.9,20.7-7.7,31-11.6c10.4-3.9,20.8-7.7,31.1-11.6c10.4-3.9,20.8-7.7,31.2-11.6
		c10.4-3.9,20.7-7.7,31.1-11.6c10.3-3.8,20.6-7.7,30.9-11.5c10.2-3.8,20.4-7.6,30.6-11.4c10.1-3.8,20.1-7.5,30.2-11.3
		c9.9-3.7,19.8-7.4,29.7-11.1c9.7-3.6,19.4-7.2,29.1-10.8c9.5-3.5,18.9-7.1,28.4-10.6c9.2-3.4,18.4-6.8,27.5-10.3
		c8.9-3.3,17.7-6.6,26.6-9.9c8.5-3.2,17.1-6.4,25.6-9.5c8.1-3,16.3-6.1,24.4-9.1c7.7-2.9,15.5-5.8,23.2-8.7
		c7.3-2.7,14.6-5.4,21.8-8.1c6.8-2.5,13.6-5.1,20.4-7.6c6.3-2.3,12.5-4.7,18.8-7c5.7-2.1,11.4-4.3,17.1-6.4
		c5.1-1.9,10.2-3.8,15.4-5.7c4.5-1.7,9-3.4,13.5-5c3.8-1.4,7.7-2.9,11.5-4.3c3.1-1.2,6.3-2.3,9.4-3.5c2.4-0.9,4.8-1.8,7.2-2.7
		c1.6-0.6,3.3-1.2,4.9-1.8c0.8-0.3,1.7-0.6,2.5-0.9c0.1,0,0.2-0.1,0.3-0.1l0,0v-5.1v-14.3V359.9c-54.5-46.4-121.4-116.8-173.8-216.5
		c-27.1-51.6-44.9-100.7-56.7-143.5H26.1C44.6,106,79.5,235.5,146.6,373c101.1,207.2,211.4,355.8,320,457.2c0.2,0.2,0.4,0.4,0.6,0.6
		c14.8,13.8,29.6,26.7,44.3,38.8c3.6,2.3,7.3,4.5,11.4,6.7c14.2,7.5,29.3,11.1,45.3,12.3c11.2,0.9,21.8,1.4,32.5-1.9h-0.1l0.2-0.1
		c0.2-0.1,0.4-0.1,0.6-0.2L602.8,886.1z"/>
	<path class="st4" d="M600.7,886.8c0.2-0.1,0.4-0.1,0.6-0.2l1.5-0.5c0.2-0.1,0.5-0.2,0.7-0.3c2.8-1,5.6-2.1,8.4-3.1
		c3.5-1.3,7-2.6,10.5-3.9c4.2-1.6,8.4-3.1,12.5-4.7c4.8-1.8,9.7-3.6,14.5-5.4c5.4-2,10.9-4.1,16.3-6.1c6-2.2,12-4.5,18-6.7
		c6.5-2.4,13.1-4.9,19.6-7.3c7.1-2.6,14.1-5.3,21.2-7.9c7.5-2.8,15-5.6,22.6-8.4c8-3,15.9-5.9,23.9-8.9c8.3-3.1,16.7-6.2,25-9.3
		c8.7-3.2,17.4-6.5,26.1-9.7c9-3.4,18.1-6.7,27.1-10.1c9.3-3.5,18.7-7,28-10.4c9.6-3.6,19.2-7.2,28.8-10.7c9.8-3.7,19.6-7.3,29.4-11
		c10-3.7,20-7.5,30-11.2c10.1-3.8,20.3-7.6,30.4-11.3c10.3-3.8,20.5-7.6,30.8-11.5c10.3-3.9,20.7-7.7,31-11.6
		c10.4-3.9,20.8-7.7,31.1-11.6c10.4-3.9,20.8-7.7,31.2-11.6c10.4-3.9,20.7-7.7,31.1-11.6c10.3-3.8,20.6-7.7,30.9-11.5
		c10.2-3.8,20.4-7.6,30.6-11.4c10.1-3.8,20.1-7.5,30.2-11.3c9.9-3.7,19.8-7.4,29.7-11.1c9.7-3.6,19.4-7.2,29.1-10.8
		c9.5-3.5,18.9-7.1,28.4-10.6c9.2-3.4,18.4-6.8,27.5-10.3c8.9-3.3,17.7-6.6,26.6-9.9c8.5-3.2,17.1-6.4,25.6-9.5
		c8.1-3,16.3-6.1,24.4-9.1c7.7-2.9,15.5-5.8,23.2-8.7c7.3-2.7,14.6-5.4,21.8-8.1c6.8-2.5,13.6-5.1,20.4-7.6c6.3-2.3,12.5-4.7,18.8-7
		c5.7-2.1,11.4-4.3,17.1-6.4c5.1-1.9,10.2-3.8,15.4-5.7c4.5-1.7,9-3.4,13.5-5c3.8-1.4,7.7-2.9,11.5-4.3c3.1-1.2,6.3-2.3,9.4-3.5
		c2.4-0.9,4.8-1.8,7.2-2.7c1.6-0.6,3.3-1.2,4.9-1.8c0.8-0.3,1.7-0.6,2.5-0.9c0.1,0,0.2-0.1,0.3-0.1l0,0v-5.1l0,0
		C1447,550,602.4,774.2,601.5,774.5c2.8,1.9,8.5,6.6,9.8,7.7c3.5,3,8.6,7.8,11.3,11.6c7.2,10.2,10.5,21.4,10.8,34.7
		c0.3,14.6-1.7,26.5-10,37.9C616.4,875.7,611.5,882.3,600.7,886.8C600.6,886.8,600.6,886.8,600.7,886.8c-0.1,0-0.1,0.1-0.2,0.1
		L600.7,886.8z"/>
	<path class="st3" d="M0,0v181.3C12,249,45.4,330,73.6,408.3C148,615.3,271.1,782.8,352.1,900h89.5c25.1-8.9,50.3-17.8,75.4-26.7
		c-2-1.2-3.9-2.3-5.7-3.5c-14.7-12.1-29.5-25-44.3-38.8c-0.2-0.2-0.4-0.4-0.6-0.6C358,728.9,247.6,580.3,146.5,373.1
		C79.4,235.6,44.5,106.1,26.1,0"/>
	<g>
		<path class="st5" d="M73.6,408.3C45.4,330,12,248.9,0,181.3v59.6c14.8,56.4,38.6,118.7,59.2,179.4
			C126.9,619,239.5,782.5,318.3,900h33.8C271.1,782.8,148,615.3,73.6,408.3z"/>
		<path class="st5" d="M522.8,876.4c-2-1-3.9-2.1-5.7-3.2l0,0c-14.2,5-61.2,21.7-75.4,26.7H473c7.3-2.4,49.8-17.6,57.1-20.1
			c0,0,0,0-0.1,0C527.6,878.8,525.2,877.7,522.8,876.4z"/>
	</g>
	<path class="st5" d="M1600,514.2c-0.1,0-999.1,372.6-999.3,372.6l-0.2,0.1h0.1c-10.7,3.3-21.3,2.8-32.5,1.9
		c-16-1.2-31.1-4.7-45.3-12.3c-4.1-2.2-7.9-4.4-11.4-6.7c-14.7-12.1-29.5-25-44.3-38.8c-0.2-0.2-0.4-0.4-0.6-0.6
		C358,728.9,247.6,580.3,146.5,373.1C79.4,235.6,44.5,106.1,26.1,0h-20c18.7,108.4,54.1,240.9,122,381.5
		C230.5,593.3,330.3,745.3,440.3,849c0.2,0.2,0.4,0.4,0.6,0.6c6.5,6.2,12.1,12.3,18.7,18.4c6.4,5.9,12.9,12.8,19.6,18.4
		c6.3,5.3,12.6,10.2,19.3,13.6h158.1c1.3-0.5,942.8-373.7,943.5-374L1600,514.2L1600,514.2z"/>
	<g>
		<path class="st6" d="M463.3,95.6H101.9C84,95.6,69.4,81,69.4,63.1l0,0c0-17.9,14.6-32.5,32.5-32.5h361.4
			c17.9,0,32.5,14.6,32.5,32.5l0,0C495.8,81.1,481.2,95.6,463.3,95.6z"/>
		<g>
			<g>
				<path class="st7" d="M170.3,75.8h-13.5V46.4h16v4.9h-10.1v19.5h8.2c2.6,0,4.1-0.3,5.2-1.3V45.9h6v12.3h4.4v5h-4.4v14.6h-6v-3.5
					C175.1,75.3,173.2,75.8,170.3,75.8z"/>
				<path class="st7" d="M215.6,64.5h-28.8v-4.7h28.8V64.5z M188.2,52.2c0-1.8,0.7-3.1,2-4.1c2.2-1.6,6-2.2,11-2.2s8.8,0.6,10.9,2.2
					c1.4,1,2.1,2.3,2.1,4.1s-0.7,3.1-2.1,4.1c-2.1,1.6-6,2.3-10.9,2.3c-5,0-8.8-0.6-11-2.3C188.9,55.3,188.2,54,188.2,52.2z
					 M213.7,66.4v11.7h-25V66.4H213.7z M208.3,52.2c0-0.4-0.2-0.7-0.5-0.9c-1-0.7-3.2-0.9-6.6-0.9c-3.5,0-5.7,0.2-6.7,0.9
					c-0.3,0.2-0.5,0.5-0.5,0.9s0.2,0.7,0.5,0.9c1,0.6,3.2,0.8,6.7,0.8s5.7-0.2,6.6-0.8C208.1,52.9,208.3,52.6,208.3,52.2z
					 M194.5,73.6h13.2v-2.8h-13.2V73.6z"/>
				<path class="st7" d="M235.2,70c-1.6,2.8-5.3,5.2-9.2,5.9v-5.2c3.7-1.5,6.3-4,6.3-12.9V46.3h5.9v11.6c0,8.9,2.5,11.4,6.2,12.9V76
					C240.5,75.2,237,72.8,235.2,70z M247.1,45.9h5.9v31.9h-5.9V45.9z"/>
				<path class="st7" d="M267.8,51.1h-10.2v-4.8h16.2v3.3c0,9.7-5,15.2-16.9,16.1v-4.9C264.2,60,267.8,56.7,267.8,51.1z M259.3,66.3
					h5.9v6.8h18.5v4.8h-24.4V66.3z M277.3,45.9h6v8h4.2v4.9h-4.2v9.4h-6V45.9z"/>
				<path class="st7" d="M288.5,61.1c0-7.7,0.7-11.8,2.8-13.8c0.9-0.9,2.2-1.4,3.9-1.4c1.7,0,3,0.4,3.9,1.4
					c1.7,1.7,2.4,4.9,2.7,10.5h1.8V46.1h5.2v31.3h-5.2V62.8h-1.8c-0.1,6.6-0.9,10.2-2.7,12c-1,1-2.3,1.3-3.9,1.3
					c-1.7,0-3-0.4-3.9-1.3C289.2,72.9,288.5,68.8,288.5,61.1z M296.6,61.1c0-6.4-0.1-9-0.7-9.9c-0.2-0.3-0.4-0.4-0.7-0.4
					c-0.3,0-0.6,0.1-0.7,0.4c-0.6,0.9-0.8,3.5-0.8,9.9s0.1,9.1,0.8,10c0.1,0.2,0.4,0.4,0.7,0.4c0.3,0,0.5-0.1,0.7-0.4
					C296.4,70.1,296.6,67.5,296.6,61.1z M315.4,45.9v31.9h-5.3V45.9H315.4z"/>
				<path class="st7" d="M333.3,46.4v10.4h2.5V46.4h5.1v29.3h-12.7V46.4H333.3z M333.3,71h2.5v-9.4h-2.5V71z M354.7,45.9v31.9h-5.3
					v-15h-1.8v14.7h-5.2V46.1h5.2v11.7h1.8V45.9H354.7z"/>
				<path class="st7" d="M387,62h-11.5v1.6h9.6v9.3H366v1.2h19.8v4h-25.6v-9.2h19.1v-1.2h-19.1v-4h9.5V62h-11.4v-4.4H387V62z
					 M359.6,51.3c0-1.4,0.5-2.4,1.6-3.3c2-1.5,5.9-2.1,11.5-2.1c5.5,0,9.4,0.6,11.4,2.1c1.1,0.8,1.6,1.9,1.6,3.3
					c0,1.4-0.5,2.4-1.6,3.2c-2,1.5-5.9,2.1-11.4,2.1c-5.6,0-9.4-0.6-11.5-2.1C360.1,53.7,359.6,52.6,359.6,51.3z M379.8,51.3
					c0-0.2-0.1-0.4-0.4-0.6c-0.8-0.5-3-0.6-6.7-0.6c-3.8,0-5.9,0.1-6.8,0.6c-0.3,0.2-0.4,0.4-0.4,0.6c0,0.2,0.1,0.4,0.4,0.6
					c0.9,0.5,3,0.6,6.8,0.6c3.7,0,5.9-0.1,6.7-0.6C379.7,51.7,379.8,51.5,379.8,51.3z"/>
				<path class="st7" d="M406.9,75.7h-8.5V46.3h5.5v24.6h3.7c2.1,0,3.6-0.2,4.6-1.1V46.1h5.2v11.7h2V45.9h5.4v31.9h-5.4v-15h-2v14.7
					h-5.2v-2.9C411.3,75.4,409.6,75.7,406.9,75.7z"/>
				<path class="st7" d="M429.9,52.2c0-1.8,0.7-3.1,2-4.1c2.2-1.6,6-2.2,11-2.2s8.8,0.6,10.9,2.2c1.4,1,2.1,2.3,2.1,4.1
					s-0.7,3.1-2.1,4.1c-0.6,0.5-1.4,0.9-2.2,1.2v2.7h5.7v4.7h-28.8v-4.7h5.8v-2.6c-0.9-0.3-1.7-0.7-2.4-1.2
					C430.5,55.3,429.9,54,429.9,52.2z M429.9,72.2c0-1.9,0.8-3.3,2.4-4.3c2.2-1.4,5.9-2,10.6-2s8.4,0.6,10.6,2
					c1.6,1,2.4,2.4,2.4,4.3s-0.9,3.3-2.4,4.3c-2.2,1.5-5.9,2-10.6,2s-8.4-0.5-10.6-2C430.7,75.5,429.9,74.1,429.9,72.2z M450,52.2
					c0-0.4-0.2-0.7-0.5-0.9c-1-0.7-3.2-0.9-6.6-0.9c-3.5,0-5.7,0.2-6.7,0.9c-0.3,0.2-0.5,0.5-0.5,0.9s0.2,0.7,0.5,0.9
					c1,0.6,3.2,0.8,6.7,0.8s5.7-0.2,6.6-0.8C449.8,52.9,450,52.6,450,52.2z M435.7,72.2c0,0.4,0.2,0.7,0.6,1c1,0.6,3.1,0.8,6.6,0.8
					s5.6-0.2,6.6-0.8c0.4-0.2,0.6-0.5,0.6-1c0-0.4-0.2-0.7-0.6-1c-1-0.5-3.1-0.8-6.6-0.8s-5.6,0.3-6.6,0.8
					C435.9,71.5,435.7,71.8,435.7,72.2z M445.8,58.5c-0.9,0-1.9,0.1-2.9,0.1s-1.9,0-2.8-0.1v1.6h5.7L445.8,58.5L445.8,58.5z"/>
			</g>
		</g>
		<circle class="st8" cx="102.3" cy="63.1" r="28.7"/>
		<circle class="st3" cx="102.3" cy="63.1" r="24.9"/>
		<g>
			<g>
				<g>
					<path class="st9" d="M114.3,60.6h2.5c-1.1-6.4-6.1-11.4-12.5-12.3v2.5C109.3,51.7,113.3,55.6,114.3,60.6z M87.3,60.6h2.5
						c1-4.8,4.7-8.6,9.4-9.7v-2.6C93.1,49.5,88.3,54.4,87.3,60.6z M89.8,65.6h-2.5c1.1,6.1,5.8,11,11.9,12.2v-2.6
						C94.5,74.1,90.8,70.4,89.8,65.6z M104.2,75.3v2.5c6.4-0.9,11.4-5.9,12.5-12.2h-2.5C113.2,70.6,109.2,74.4,104.2,75.3z"/>
				</g>
				<g>
					<path class="st9" d="M101.7,44c-0.8,0-1.4,0.6-1.4,1.2v8.6c0,0.7,0.6,1.2,1.4,1.2s1.4-0.6,1.4-1.2v-8.6
						C103.1,44.6,102.5,44,101.7,44z"/>
				</g>
				<g>
					<path class="st9" d="M101.7,71.1c-0.8,0-1.4,0.6-1.4,1.2V81c0,0.7,0.6,1.2,1.4,1.2s1.4-0.6,1.4-1.2v-8.6
						C103.1,71.7,102.5,71.1,101.7,71.1z"/>
				</g>
				<g>
					<path class="st9" d="M120.2,61.7h-8.6c-0.7,0-1.2,0.6-1.2,1.4c0,0.8,0.6,1.4,1.2,1.4h8.6c0.7,0,1.2-0.6,1.2-1.4
						C121.4,62.3,120.9,61.7,120.2,61.7z"/>
				</g>
				<g>
					<path class="st9" d="M93,61.7h-8.6c-0.7,0-1.2,0.6-1.2,1.4c0,0.8,0.6,1.4,1.2,1.4H93c0.7,0,1.2-0.6,1.2-1.4
						C94.3,62.3,93.7,61.7,93,61.7z"/>
				</g>
				<g>
					<circle class="st9" cx="101.7" cy="63.1" r="2.4"/>
				</g>
			</g>
		</g>
	</g>
	<g>
		<path class="st10" d="M1332.6,769.7c16.7,2.5,32.5-11.7,32.5-11.7l12.4-71.4l-7.2-1.8c0,0-12-8.1-34.2,16.5
			c-6.2,6.9-22.9,23.9-22.6,41.5C1314,759.7,1326.2,768.7,1332.6,769.7z"/>
		<path class="st10" d="M1432.6,664.1c0,0-21.6,23-27.2,37.5c-5.6,14.5-24.2,56.8-4.1,77.6c20.1,20.7,36.8,31,65.6,31
			c28.8,0,73.1-26,74.6-58c1.5-32-40-83.2-40-83.2L1432.6,664.1z"/>
		<g>
			<path class="st11" d="M1464.7,735.2c-0.1-3.5-0.8-7-2.1-10.2c-1.3-3.4-3.3-6.1-5.7-8.5c-5.1-5.2-11.4-7.8-18.6-7.7
				c-7.2,0-13.3,2.6-18.5,7.9c-2.4,2.4-4.3,5.3-5.6,8.6s-2,6.7-2,10.3v1.5l14.3-0.1v-1.5c0-3.4,1.2-6.2,3.4-8.6
				c2.4-2.4,5.2-3.5,8.5-3.5c3.3,0,6.1,1.2,8.6,3.4c2.4,2.4,3.6,5.2,3.6,8.6v1.4h14.2V735.2"/>
		</g>
		<g>
			<g>
				<path class="st3" d="M1377.5,485.6c-1.3-0.8-2.6-1.4-3.9-1.8c-7.1-2.4-12.4,0.3-15.9,8.4c-2.4,6.6-2.9,13.8-1.3,21.4
					c1.5,7.6,4.6,15.2,9.1,22.5c15.2-1.8,28.3-7.3,39.3-16.6C1397.7,503.7,1388.5,492.5,1377.5,485.6"/>
				<path class="st12" d="M1365.7,538.5c-0.8,0-1.6-0.4-2.1-1.2c-4.7-7.6-7.9-15.4-9.5-23.2c-1.6-8.1-1.2-15.7,1.4-22.7
					c5-11.8,13.1-11.8,18.9-9.8c1.3,0.4,2.8,1.1,4.3,2c11.4,7.1,21,18.9,28.5,35c0.5,1,0.2,2.2-0.7,2.9c-11.3,9.6-25,15.4-40.6,17.1
					H1365.7 M1368.9,485.4c-3.1,0-6.3,1.7-8.9,7.8c-2.2,6-2.6,12.8-1.2,20c1.3,6.9,4.1,13.7,8.1,20.3c13.3-1.8,25.1-6.7,35.1-14.7
					c-7-14.4-15.6-24.8-25.8-31.1c-1.1-0.7-2.3-1.2-3.3-1.5C1371.7,485.7,1370.3,485.4,1368.9,485.4z"/>
				<path class="st3" d="M1516.7,513.8c1.5-7.6,1.1-14.8-1.3-21.5c-3.4-8.1-8.7-10.8-15.9-8.3c-1.2,0.3-2.5,0.9-3.9,1.8
					c-11,6.9-20.2,18.2-27.5,33.9c11,9.3,24.1,14.9,39.3,16.6C1512.2,528.8,1515.2,521.4,1516.7,513.8"/>
				<path class="st12" d="M1507.5,538.7h-0.3c-15.6-1.8-29.3-7.6-40.6-17.1c-0.8-0.7-1.1-1.9-0.7-2.9c7.5-16,17-27.8,28.5-34.9
					c1.6-0.9,3-1.6,4.4-2c5.8-2,13.8-2,18.8,9.7c2.6,7.2,3.1,14.9,1.4,22.9c-1.6,7.8-4.8,15.7-9.5,23.2
					C1509.1,538.2,1508.4,538.7,1507.5,538.7 M1471.2,518.9c9.9,8,21.7,12.8,35.1,14.7c3.9-6.6,6.7-13.5,8.1-20.3
					c1.4-7.1,1-13.9-1.3-20.1c-3.7-8.7-8.7-8.2-12.8-6.9c-1.1,0.3-2.2,0.8-3.4,1.5C1486.8,494.2,1478.2,504.6,1471.2,518.9z"/>
				<path class="st3" d="M1529.9,547.9c-8.8-17.8-23-30.9-42.6-39.3c-16.3-6.5-32.5-9.7-48.8-9.9c-0.3,0-0.5,0-0.7,0
					c-0.3,0-0.5,0-0.8,0s-0.4,0-0.7,0c-16.3,0.2-32.5,3.4-48.8,9.9c-21.4,9.1-36.4,23.9-45,44.2c-4.8,11.6-7.6,24.9-8.2,40.1
					c-0.2,7.1-1.2,13.5-2.9,19.1c-9.1,27.6-4,48.7,15.1,63.1c1.9,1.5,4,2.9,6.3,4.2l0.3,0.2c1.8,1.2,3.8,2.3,5.7,3.4
					c15.4,8.6,32.4,14,50.9,16.4c1.3,0.2,2.5,0.3,3.9,0.4c7.5,1.1,15,1.6,22.7,1.7c0.7,0,1.4,0,2.2,0c7.6-0.1,15.1-0.6,22.7-1.7
					c1.3-0.2,2.6-0.3,3.9-0.4c7.8-1,15.3-2.5,22.5-4.6c10-2.9,19.4-6.8,28.4-11.8c2-1.1,4-2.3,6-3.5c2.3-1.3,4.4-2.8,6.3-4.2
					c19.1-14.5,24.3-35.5,15.1-63.1c-1.7-5.5-2.7-11.9-2.9-19.1C1539.6,575.6,1536.2,560.6,1529.9,547.9"/>
				<path class="st10" d="M1540,662.7c8.8-13.3,9.9-30.1,3.2-50.7c-1.7-5.5-2.7-11.9-2.9-19.1c-0.2-3.4-0.4-6.8-0.8-10.1
					c0.3-0.3,0.6-0.6,0.9-0.8c0.8-0.7,0.8-1.8,0.2-2.4c-0.7-0.8-1.8-0.8-2.4-0.2c-6.8,6-12.5,12.3-17,18.5
					c-5.1,6.7-6.5,15.7-3.9,26.8c0.5,1.7,1,3.4,1.6,5c4.1,12.2,10.4,24.2,18.8,35.6c0.3,0.5,0.8,0.7,1.4,0.7c0.3,0,0.7-0.1,1-0.3
					c0.8-0.6,0.9-1.7,0.4-2.4C1540.3,663,1540.2,662.9,1540,662.7z"/>
				<path class="st10" d="M1353.8,597.9c-4.5-6.2-10.3-12.5-17.1-18.5c-0.8-0.7-1.8-0.6-2.4,0.2c-0.7,0.8-0.6,1.8,0.2,2.4
					c0.3,0.3,0.6,0.6,0.9,0.8c-0.3,3.3-0.7,6.6-0.8,10.2c-0.2,7.1-1.2,13.5-2.9,19.1c-6.8,20.6-5.7,37.4,3.3,50.8
					c-0.1,0.2-0.3,0.3-0.3,0.5c-0.6,0.8-0.4,1.8,0.4,2.4c0.3,0.3,0.7,0.3,1,0.3c0.5,0,1.1-0.3,1.4-0.8c8.4-11.5,14.7-23.5,18.8-35.7
					c0.6-1.6,1.1-3.3,1.6-5C1360.2,613.6,1358.8,604.6,1353.8,597.9z"/>
				<path class="st12" d="M1436.4,703.8c-7.7-0.1-15.4-0.6-23-1.7c-1.3-0.2-2.5-0.3-3.8-0.4c-18.7-2.4-36.2-8-51.8-16.6
					c-1.9-1.1-3.9-2.2-5.8-3.4l-0.3-0.3c-2.3-1.3-4.4-2.9-6.5-4.4c-20-15.1-25.3-37.3-15.9-65.8c1.6-5.3,2.5-11.5,2.8-18.4
					c0.7-15.4,3.5-29.2,8.4-41c8.7-20.8,24.3-36.2,46.2-45.6c16.5-6.5,33.2-9.9,49.7-10.1h2.2c16.5,0.2,33.2,3.5,49.7,10.1
					c20.1,8.6,34.9,22.2,44,40.5c6.4,12.9,10,28.4,10.7,46.1c0.2,6.9,1.1,13.1,2.8,18.4c9.4,28.5,4,50.7-16,65.8
					c-2,1.5-4.2,3-6.5,4.4c-1.9,1.3-3.9,2.4-6,3.6c-9.1,5-18.7,9.1-28.9,11.9c-7.3,2.1-15,3.7-22.9,4.7c-1.3,0.2-2.6,0.3-3.9,0.4
					c-7.5,1.1-15.2,1.6-22.9,1.7L1436.4,703.8 M1436.4,501.2c-15.9,0.2-32,3.4-47.8,9.7c-20.6,8.8-35.3,23.2-43.6,42.9
					c-4.7,11.2-7.4,24.4-8.1,39.3c-0.2,7.3-1.2,13.9-2.9,19.6v0.1c-8.8,26.8-4.1,46.5,14.3,60.4c1.8,1.4,3.9,2.8,6.1,4.1
					c0.2,0.2,0.3,0.3,0.4,0.3c1.7,1.1,3.6,2.2,5.5,3.2c15.1,8.4,31.9,13.8,50,16c1.2,0.2,2.5,0.3,3.8,0.4c7.5,1.1,14.9,1.6,22.4,1.7
					h2.1c7.5-0.1,14.9-0.6,22.3-1.7c1.3-0.2,2.7-0.3,3.9-0.4c7.6-0.9,15-2.4,22.1-4.5c9.7-2.8,19.1-6.7,27.9-11.5
					c2-1.1,3.9-2.3,5.9-3.4c2.3-1.3,4.3-2.7,6.1-4.1c18.5-13.9,23.1-33.7,14.3-60.4c-1.8-5.8-2.8-12.4-2.9-19.7
					c-0.8-17-4.2-31.8-10.2-44.1c-8.5-17.1-22.4-30-41.5-38.1c-15.9-6.3-32-9.6-47.8-9.7L1436.4,501.2L1436.4,501.2z M1331.5,612
					L1331.5,612L1331.5,612z"/>
				<path d="M1408.8,617.8c1.7-3.2,2.6-7.1,2.6-11.6s-0.8-8.4-2.6-11.7c-1.7-3.2-3.8-4.8-6.2-4.8s-4.5,1.6-6.2,4.8
					c-1.8,3.3-2.6,7.1-2.6,11.7c0,4.5,0.8,8.4,2.6,11.6c1.7,3.3,3.8,5,6.2,5S1407.1,621.2,1408.8,617.8"/>
				<path class="st10" d="M1407.1,574.9l0.2,0.1c1.3,0.3,2.5-0.1,3.6-1c1.1-0.7,1.8-1.8,2-3.1c0.3-1.3-0.1-2.5-0.8-3.8
					c-0.7-1.1-1.7-1.8-2.9-2l-18.6-3.3c-1.3-0.2-2.5,0.1-3.5,0.8c-1.1,0.8-1.8,1.9-2,3.3s0,2.5,0.8,3.6c0.7,1,1.6,1.7,2.6,2l0.3,0.1
					L1407.1,574.9"/>
				<path class="st12" d="M1408,576.8c-0.3,0-0.8,0-1.1-0.1l-0.3-0.1l-18-3.2c-0.3,0-0.5-0.1-0.8-0.2c-1.4-0.4-2.6-1.3-3.4-2.7
					c-1-1.4-1.3-3.1-1-4.9c0.3-1.8,1.2-3.3,2.7-4.4c1.5-1,3.1-1.4,4.9-1.2l18.6,3.3c1.8,0.4,3.1,1.3,4.1,2.8c1,1.6,1.4,3.3,1.1,5
					c-0.3,1.8-1.3,3.3-2.7,4.3C1410.7,576.3,1409.3,576.8,1408,576.8 M1407.1,576.7L1407.1,576.7L1407.1,576.7z M1407.1,576.7
					L1407.1,576.7L1407.1,576.7z M1406,576.2L1406,576.2L1406,576.2z M1407.8,573.3c0.7,0.1,1.3-0.2,2-0.7l0.2-0.1
					c0.7-0.4,1.1-1,1.3-1.9c0.2-0.8,0-1.7-0.6-2.5c-0.4-0.7-1-1.1-1.8-1.3l-18.5-3.3c-0.8-0.1-1.5,0.1-2.3,0.6
					c-0.7,0.5-1.2,1.3-1.3,2.1c-0.2,0.9,0,1.6,0.5,2.4c0.5,0.7,1,1.2,1.7,1.3l0,0h0.2l18.4,3.3L1407.8,573.3z M1389.1,570.1
					L1389.1,570.1L1389.1,570.1z M1388.7,569.9L1388.7,569.9L1388.7,569.9z"/>
				<path d="M1463.4,606.2c0,4.5,0.8,8.4,2.6,11.6c1.7,3.3,3.8,5,6.2,5c2.4,0,4.5-1.7,6.2-5c1.8-3.2,2.6-7.1,2.6-11.6
					s-0.8-8.4-2.6-11.7c-1.7-3.2-3.8-4.8-6.2-4.8c-2.4,0-4.5,1.6-6.2,4.8C1464.2,597.8,1463.4,601.7,1463.4,606.2"/>
				<path class="st10" d="M1487.9,562.7c-1.1-0.8-2.3-1-3.5-0.8l-18.6,3.3c-1.3,0.3-2.2,0.9-2.9,2c-0.8,1.2-1.1,2.4-0.8,3.8
					c0.3,1.4,0.9,2.4,2,3.1c1.1,0.8,2.4,1.2,3.6,1l0.2-0.1l18.4-3.3l0.3-0.1c1.1-0.3,1.9-1,2.6-2c0.8-1.1,1-2.3,0.8-3.6
					C1489.7,564.6,1489,563.5,1487.9,562.7"/>
				<path class="st12" d="M1466.8,576.8c-1.3,0-2.7-0.4-3.9-1.3c-1.5-0.9-2.4-2.4-2.7-4.3c-0.3-1.8,0.1-3.4,1.1-5
					c0.9-1.4,2.3-2.4,4-2.8l18.7-3.3c1.8-0.3,3.4,0.1,4.9,1.1c1.5,1.2,2.4,2.6,2.8,4.4s-0.1,3.4-1.1,4.9c-0.9,1.3-2.1,2.2-3.4,2.7
					c-0.3,0.1-0.5,0.2-0.8,0.2l-18,3.2l-0.3,0.1C1467.5,576.8,1467.2,576.8,1466.8,576.8 M1467.8,576.7L1467.8,576.7L1467.8,576.7z
					 M1467.8,576.7L1467.8,576.7L1467.8,576.7z M1468.9,576.2L1468.9,576.2L1468.9,576.2z M1485.1,563.5h-0.5l-18.5,3.3
					c-0.8,0.2-1.3,0.6-1.8,1.3c-0.6,0.8-0.8,1.6-0.6,2.5c0.2,0.9,0.5,1.5,1.3,1.9l0.2,0.1c0.7,0.5,1.3,0.8,2,0.7l0.4-0.1l18.4-3.3
					h0.2l0,0c0.7-0.2,1.3-0.7,1.7-1.3c0.5-0.7,0.7-1.4,0.5-2.4c-0.2-0.9-0.6-1.6-1.3-2.2C1486.3,563.7,1485.7,563.5,1485.1,563.5z
					 M1485.7,570.1L1485.7,570.1L1485.7,570.1z"/>
				<path d="M1437.5,655.3c-5,0-9.4-1.3-12.9-3.8c-2.7-1.9-4.4-4.2-5.2-6.8c-0.3-0.8,0.3-1.7,1.1-1.9c0.8-0.3,1.7,0.3,1.9,1.1
					c0.5,1.8,1.8,3.6,3.9,5c3,2.1,6.8,3.2,11.2,3.2s8.1-1.1,11.1-3.2c2.2-1.5,3.5-3.2,4-5c0.3-0.8,1.1-1.3,1.9-1.1s1.3,1.1,1.1,1.9
					c-0.8,2.6-2.5,4.9-5.2,6.8C1446.8,654.1,1442.5,655.3,1437.5,655.3"/>
			</g>
			<g>
				<g>
					<g>
						<path class="st13" d="M1385.6,655.4c-1.9,0-3.9-0.1-5.8-0.3c-12.4-1.4-22.8-7.1-30.9-16.9c-8-9.8-11.6-21-10.6-33.3
							c1-12.3,6.4-22.6,15.9-30.5c9.6-7.8,20.8-11,33.2-9.5c12.3,1.4,22.7,7.1,30.7,16.9c8.1,9.8,11.7,21,10.7,33.3
							s-6.4,22.6-16,30.4C1404.8,652.1,1395.7,655.4,1385.6,655.4 M1381.5,570.2c-8.8,0-16.6,2.9-23.7,8.6
							c-8.4,6.9-12.9,15.6-13.8,26.5c-0.9,11,2.2,20.6,9.3,29.3c7.2,8.6,16.1,13.5,27.2,14.9c10.9,1.3,20.3-1.4,28.7-8.3
							c8.6-6.9,13.1-15.5,14-26.5l0,0c0.9-11-2.1-20.6-9.4-29.3c-7.2-8.7-16-13.5-27-14.9C1385,570.3,1383.2,570.2,1381.5,570.2z"/>
						<path class="st3" d="M1385.3,650.2c-1.7,0-3.4-0.1-5.1-0.3c-11-1.3-20.2-6.4-27.4-15c-7.1-8.6-10.2-18.6-9.4-29.6
							c0.9-11,5.6-20.1,14-26.9c8.6-7,18.5-9.7,29.5-8.4c11,1.3,20.1,6.3,27.3,14.9c7.2,8.7,10.4,18.6,9.5,29.6
							c-0.8,11-5.6,20.1-14.2,26.9C1402.4,647.3,1394.2,650.2,1385.3,650.2 M1381.7,572.4c-8.3,0-15.9,2.7-22.5,8.1
							c-7.8,6.5-12.2,14.9-13,25c-0.8,10.2,2.2,19.5,8.7,27.5c6.6,8.1,15.3,12.8,25.5,14c10.2,1.2,19.4-1.4,27.2-7.9
							c7.9-6.4,12.3-14.8,13.2-25l0,0c0.8-10.2-2.1-19.5-8.8-27.5c-6.6-8.1-15.2-12.8-25.4-13.9
							C1384.9,572.6,1383.3,572.4,1381.7,572.4z"/>
					</g>
					<g>
						<path class="st13" d="M1492.4,655.4c-1.9,0-3.9-0.1-5.8-0.3c-12.4-1.4-22.8-7.1-30.9-16.9c-8-9.8-11.6-21-10.6-33.3
							c1-12.3,6.4-22.6,15.9-30.5c9.6-7.8,20.8-11,33.2-9.5c12.3,1.4,22.7,7.1,30.7,16.9c8.1,9.8,11.7,21,10.7,33.3
							s-6.4,22.6-16,30.4C1511.6,652.1,1502.5,655.4,1492.4,655.4 M1488.2,570.2c-8.8,0-16.6,2.9-23.7,8.6
							c-8.4,6.9-12.9,15.6-13.8,26.5c-0.9,11,2.2,20.6,9.3,29.3c7.2,8.6,16.1,13.5,27.2,14.9c10.9,1.3,20.3-1.4,28.7-8.3
							c8.6-6.9,13.1-15.5,14-26.5l0,0c0.9-11-2.1-20.6-9.4-29.3c-7.2-8.7-16-13.5-27-14.9C1491.8,570.3,1490,570.2,1488.2,570.2z"/>
						<path class="st3" d="M1492.1,650.2c-1.7,0-3.4-0.1-5.1-0.3c-11-1.3-20.2-6.4-27.4-15c-7.1-8.6-10.2-18.6-9.4-29.6
							c0.9-11,5.6-20.1,14-26.9c8.6-7,18.5-9.7,29.5-8.4c11,1.3,20.1,6.3,27.3,14.9c7.2,8.7,10.4,18.6,9.5,29.6
							c-0.8,11-5.6,20.1-14.2,26.9C1509.1,647.3,1501.1,650.2,1492.1,650.2 M1488.5,572.4c-8.3,0-15.9,2.7-22.5,8.1
							c-7.8,6.5-12.2,14.9-13,25c-0.8,10.2,2.2,19.5,8.7,27.5c6.6,8.1,15.3,12.8,25.5,14c10.2,1.2,19.3-1.4,27.2-7.9
							c7.9-6.4,12.3-14.8,13.2-25l0,0c0.8-10.2-2.1-19.5-8.8-27.5c-6.6-8.1-15.2-12.8-25.4-13.9
							C1491.8,572.6,1490.1,572.4,1488.5,572.4z"/>
					</g>
				</g>
				<g>
					<path class="st13" d="M1445.9,614.9c-0.6,0-1.1-0.2-1.6-0.5c0,0-3.5-2.4-7.4-2.6c-3.9-0.2-7.4,1.7-7.4,1.8
						c-1.3,0.8-3,0.3-3.8-1.1c-0.8-1.3-0.3-3,1.1-3.8c0.2-0.1,4.9-2.7,10.4-2.4c5.5,0.3,10.2,3.5,10.3,3.6c1.3,0.9,1.6,2.6,0.7,3.9
						C1447.6,614.5,1446.7,614.9,1445.9,614.9z"/>
				</g>
			</g>
		</g>
		<g>
			<path class="st10" d="M1347.4,782.2l-16.4,4.4c-3.3-3.5-7.1-5-11.6-4.4c-6.6,0.9-9,7-7,18.1c1.9,10.8,4.3,20.6,6.9,29.1
				c3,9.6,10.7,11.8,23,6.8l83.3-19.1L1347.4,782.2L1347.4,782.2z"/>
			<g>
				<path class="st12" d="M1331.4,840.9c-2.4,0-4.4-0.4-6.3-1.3c-3.5-1.7-6-4.9-7.6-9.6c-2.7-8.6-5-18.5-7-29.4
					c-1.3-7.6-0.8-13,1.7-16.5c1.6-2.2,3.9-3.6,7-4c4.8-0.6,9,0.8,12.5,4.3l22.6-4.4c1.1-0.2,2.2,0.5,2.4,1.6
					c0.3,1.1-0.5,2.2-1.6,2.4l-23.6,4.5c-0.7,0.2-1.4-0.1-1.8-0.6c-2.9-3-6.1-4.3-9.8-3.9c-1.8,0.3-3.3,1-4.2,2.4
					c-1.8,2.5-2.1,7.1-1,13.4c1.9,10.7,4.2,20.4,6.9,28.9c1.1,3.6,2.9,5.9,5.4,7.1c3.4,1.6,8.5,1.1,14.9-1.5
					c0.1-0.1,0.2-0.1,0.3-0.1l83.3-19.1c1.1-0.3,2.2,0.4,2.4,1.5c0.3,1.1-0.4,2.2-1.5,2.4l-83.1,19
					C1338.6,840,1334.7,840.9,1331.4,840.9z"/>
			</g>
		</g>
		<g>
			<path class="st10" d="M1531.8,782.2l16.4,4.4c3.3-3.5,7.1-5,11.6-4.4c6.6,0.9,9,7,7,18.1c-1.9,10.8-4.3,20.6-6.9,29.1
				c-3,9.6-10.7,11.8-23,6.8l-83.3-19.1L1531.8,782.2L1531.8,782.2z"/>
			<g>
				<path class="st12" d="M1547.8,840.9c-3.4,0-7.2-0.9-11.7-2.7l-83.1-19c-1.1-0.3-1.8-1.3-1.5-2.4c0.3-1.1,1.3-1.8,2.4-1.5
					l83.3,19.1c0.1,0,0.3,0.1,0.3,0.1c6.5,2.6,11.4,3.1,14.9,1.5c2.5-1.2,4.3-3.5,5.4-7.1c2.6-8.4,4.9-18.1,6.8-28.9
					c1.2-6.4,0.8-10.9-1-13.4c-0.9-1.3-2.4-2.1-4.3-2.4c-3.7-0.4-7,0.8-9.8,3.9c-0.5,0.5-1.2,0.8-1.8,0.6l-23.6-4.5
					c-1.1-0.3-1.8-1.3-1.6-2.4c0.3-1.1,1.3-1.8,2.4-1.6l22.6,4.4c3.6-3.4,7.8-4.9,12.5-4.3c3.1,0.4,5.5,1.8,7.1,4
					c2.5,3.4,3,8.9,1.7,16.5c-1.9,10.9-4.3,20.7-7,29.3c-1.5,4.7-4,7.9-7.6,9.6C1552.3,840.5,1550.2,840.9,1547.8,840.9z"/>
			</g>
		</g>
		<path class="st14" d="M1340.4,680.8L1340.4,680.8C1340.3,680.9,1340.4,680.9,1340.4,680.8C1340.4,680.8,1340.4,680.8,1340.4,680.8
			"/>
		<g>
			<g>
				<path class="st10" d="M1373.3,738.9c-0.1-0.5-0.1-0.8-0.2-1.1l-0.1-0.3l0,0c-0.1-0.2-0.1-0.3-0.2-0.6c-0.3-1-1.2-3.3-2.9-5.2
					c-1.8-1.8-4.1-3.4-8.2-3.4c-1.3,0-2.6,0.2-4.1,0.5c-3.1,0.8-5.7,1.2-8,1.3c-0.2,12-0.4,25-0.6,36.1c3.4-0.2,7-0.8,10.8-1.8
					c5.9-1.7,9.1-5.1,11.1-9.3c1.9-4.1,2.4-9,2.4-12.5C1373.4,741.1,1373.3,739.8,1373.3,738.9z"/>
			</g>
		</g>
		<g>
			<path class="st10" d="M1532.1,771.1c-16.7,2.5-32.5-11.7-32.5-11.7l-12.4-71.4l7.2-1.8c0,0,12-8.1,34.2,16.5
				c6.2,6.9,22.9,23.9,22.6,41.5C1550.8,761,1538.6,770.1,1532.1,771.1z"/>
			<g>
				<path class="st12" d="M1547.8,754.3c-0.2,0-0.4,0-0.6-0.1c-1.1-0.3-1.7-1.4-1.3-2.5c7-22.6-13.8-43-20.7-49.7
					c-17.7-17.4-35.7-17.8-35.8-17.8c-1.1,0-2-0.9-2-2.1c0-1.1,0.9-2,2-2l0,0c0.8,0,19.7,0.4,38.6,19c7.3,7.1,29.4,28.9,21.7,53.8
					C1549.4,753.8,1548.7,754.3,1547.8,754.3z"/>
			</g>
		</g>
		<g>
			<path class="st12" d="M1317.5,752.9c-0.8,0-1.7-0.5-1.9-1.3c-5.6-16.5,1.5-34.6,21.2-53.9c18.9-18.5,37.9-19,38.6-19l0,0
				c1.1,0,2,0.9,2,2s-0.9,2-2,2.1c-0.2,0-18.2,0.5-35.8,17.8c-18.7,18.3-25.3,34.6-20.1,49.7c0.3,1.1-0.2,2.2-1.3,2.6
				C1317.9,752.9,1317.7,752.9,1317.5,752.9z"/>
		</g>
		<g id="오픈북_2_">
			<path class="st15" d="M1438.6,822V713.4c22.7-28.7,59-38.9,66.1-39.8c11.1-1.5,9.8,4.4,8.7,9.1c0,36.3-1.9,71.9-1.9,108.1
				L1438.6,822z"/>
			<path class="st16" d="M1445.3,826.5V715.3c10.3-11.6,22.5-20.5,44.6-29.1c2.8-1.1,15.8-5.2,22.8-5.2c8.1,0,9.7,1.8,14.7,3.9
				c0,36.3,0,72.4,0,108.7L1445.3,826.5z"/>
			<path class="st17" d="M1445.3,715.3v111.2l79.1-28.7c3.1-1,5.2-3.9,5.2-7.2l5.7-98.3c0-5.3-5.3-8.9-10.2-7.1L1445.3,715.3z"/>
			<g>
				<path class="st18" d="M1445.3,828.3c-0.4,0-0.8-0.1-1.1-0.3c-0.5-0.3-0.8-0.9-0.8-1.5V715.3c0-0.8,0.5-1.5,1.3-1.8l79.7-30.2
					c2.9-1.1,6.1-0.7,8.7,1.1c2.5,1.8,4,4.7,4,7.8l-5.7,98.4c0,3.9-2.6,7.6-6.5,8.9l-79.1,28.7
					C1445.7,828.3,1445.4,828.3,1445.3,828.3z M1447.1,716.7v107.1l76.5-27.8c2.4-0.8,3.9-2.9,3.9-5.4l5.7-98.4
					c0-1.8-0.9-3.4-2.4-4.5s-3.4-1.3-5.2-0.7L1447.1,716.7z"/>
			</g>
			<path class="st15" d="M1436.1,822V713.4c-22.7-28.7-59-38.9-66.1-39.8c-11.1-1.5-9.8,4.4-8.7,9.1c0,36.3,1.9,71.9,1.9,108.1
				L1436.1,822z"/>
			<path class="st16" d="M1429.6,826.5V715.3c-10.3-11.6-22.5-20.5-44.6-29.1c-2.8-1.1-15.8-5.2-22.8-5.2c-8.1,0-9.7,1.8-14.7,3.9
				c0,36.3,0,72.4,0,108.7L1429.6,826.5z"/>
			<path class="st17" d="M1429.6,715.3v111.2l-79.1-28.7c-3.1-1-5.2-3.9-5.2-7.2l-5.7-98.3c0-5.3,5.3-8.9,10.2-7.1L1429.6,715.3z"/>
			<g>
				<path class="st18" d="M1429.6,828.3c-0.3,0-0.4,0-0.7-0.1l-79.1-28.7c-3.9-1.3-6.5-4.9-6.5-9l-5.7-98.2c0-3.2,1.5-6.1,4-7.9
					s5.8-2.2,8.7-1.1l79.7,30.2c0.8,0.3,1.3,1,1.3,1.8v111c0,0.6-0.3,1.2-0.8,1.5C1430.3,828.2,1430,828.3,1429.6,828.3z
					 M1347.2,686.5c-1.2,0-2.3,0.3-3.2,1c-1.5,1.1-2.4,2.8-2.4,4.7l5.7,98.2c0,2.6,1.6,4.7,3.9,5.5l76.6,27.8V716.7l-78.6-29.8
					C1348.5,686.7,1347.8,686.5,1347.2,686.5z"/>
			</g>
			<path class="st17" d="M1441.5,827.7h-8.9c-2.1,0-3.7-1.7-3.7-3.7V719c0-2.1,1.7-3.7,3.7-3.7h8.9c2.1,0,3.7,1.7,3.7,3.7v105
				C1445.3,826,1443.6,827.7,1441.5,827.7z"/>
			<g>
				<path class="st18" d="M1441.5,829.7h-8.9c-3.1,0-5.6-2.5-5.6-5.6V718.9c0-3.1,2.5-5.6,5.6-5.6h8.9c3.1,0,5.6,2.5,5.6,5.6v105
					C1447.1,827.1,1444.6,829.7,1441.5,829.7z M1432.6,717.2c-1,0-1.8,0.8-1.8,1.8v105c0,1,0.8,1.8,1.8,1.8h8.9c1,0,1.8-0.8,1.8-1.8
					V718.9c0-1-0.8-1.8-1.8-1.8L1432.6,717.2L1432.6,717.2z"/>
			</g>
		</g>
		<g>
			<path class="st10" d="M1333.7,735.3c7.4-2,24.5-3.2,25.9,13.2c1.5,18-4.1,19.1-10.6,22.2c-8.8,4.1-23.1-2.2-28.8-15.1"/>
			<g>
				<path class="st12" d="M1341.5,775.3c-3.5,0-7.1-1-10.5-2.9c-8.1-4.5-13.9-13.3-15.4-19.6c-0.3-1.1,0.4-2.2,1.5-2.4
					c1.1-0.3,2.2,0.4,2.4,1.5c1.3,5.3,6.4,13.1,13.4,17c4.5,2.5,9,3,13.2,1.6c10.7-3.6,14-10.1,11.8-22.3
					c-1.5-8.3-10.2-12.1-18-11.5c-1.1,0.1-2.1-0.8-2.2-1.8c-0.1-1.1,0.8-2.1,1.8-2.2c9.6-0.8,20.2,4.1,22.2,14.8
					c1.7,8.9,1.9,21.4-14.4,26.9C1345.6,775,1343.5,775.3,1341.5,775.3z"/>
			</g>
		</g>
		<path class="st10" d="M1350.8,732.8"/>
		<g>
			<path class="st10" d="M1539,734.6c-7.4-2-31-3.1-32.4,13.3c-1.5,18,3.4,19.9,9.9,22.7c14.5,6.5,24.1-2.1,29.8-15.1"/>
			<g>
				<path class="st12" d="M1525.2,774.8c-2.1,0-4.2-0.3-6.2-1c-12.8-4.3-17.8-13.7-14.4-27c4.1-16.5,30.2-15.3,31.3-15.2
					c1.1,0.1,2,1,1.9,2.1c-0.1,1.1-1,2-2.1,1.9c-0.3,0-23.8-1.1-27.2,12.2c-2.9,11.3,1,18.6,11.8,22.2c4.4,1.4,8.7,1,13.1-1.4
					c6.8-3.8,11.2-11,12.3-16.1c0.3-1.1,1.3-1.8,2.4-1.5c1.1,0.3,1.8,1.3,1.5,2.4c-1.7,7.3-7.6,15-14.4,18.7
					C1532.1,773.8,1528.6,774.8,1525.2,774.8z"/>
			</g>
		</g>
	</g>
</g>
</svg>
