<svg xmlns="http://www.w3.org/2000/svg" viewBox="0 0 1600 900"><defs><style>.cls-1{fill:#d3ecf9;}.cls-2{fill:#88bdd9;}.cls-3{fill:#9bcae3;}.cls-4{fill:#8fbfd9;}.cls-5{fill:#b7d8eb;}.cls-6{fill:#fff;}.cls-7{fill:#a1cde6;}.cls-8{fill:#5aa7e0;}.cls-9{fill:#76baeb;}.cls-10{fill:#add7f0;}.cls-11{fill:none;stroke:#23384c;stroke-linecap:round;stroke-miterlimit:10;stroke-width:2px;opacity:0.58;}.cls-12{fill:#92c2e0;}.cls-13{fill:#b2d5eb;}.cls-14{fill:#79afd1;}.cls-15{fill:#98c4e0;}.cls-16{fill:#a4cfeb;}.cls-17{fill:#c4e2f5;}.cls-18{fill:#bbdcf0;}.cls-19{fill:#c0dff0;}.cls-20{fill:#66a7cc;}.cls-21{fill:#86bfe0;}.cls-22{fill:#d3e6f0;}.cls-23{fill:#97cded;}.cls-24{fill:#83e8d3;}.cls-25{fill:#3fd8b1;}.cls-26{fill:#47d7ac;}.cls-27{fill:#1cb594;}.cls-28{fill:#333;}</style></defs><g id="Layer_1" data-name="Layer 1"><rect class="cls-1" width="1600" height="900"/><rect class="cls-2" x="-0.916" y="850" width="1600" height="50"/><polygon class="cls-3" points="913.474 836.022 686.442 836.022 707.061 770.267 892.801 770.267 913.474 836.022"/><polygon class="cls-4" points="913.474 836.022 892.801 770.267 707.061 770.267 855.593 836.022 913.474 836.022"/><path class="cls-3" d="M974.256,852.984h-348.6v-6.326A10.62,10.62,0,0,1,636.3,836.022h327.29a10.64,10.64,0,0,1,10.667,10.636Z"/><path class="cls-5" d="M1365.665,720.5V147.179a21.306,21.306,0,0,0-21.245-21.21H255.5a21.269,21.269,0,0,0-21.148,21.21V720.5Z"/><rect class="cls-6" x="278.345" y="169.991" width="1043.226" height="506.489"/><path class="cls-7" d="M1365.675,720.5v28.584a21.284,21.284,0,0,1-21.249,21.184H255.519a21.278,21.278,0,0,1-21.194-21.184V720.5Z"/><rect class="cls-8" x="1104.238" y="30.969" width="426.39" height="65" rx="32.5"/><path class="cls-6" d="M1205.141,76.113h-13.463v-29.3h16.012v4.929h-10.1v19.48h8.227c2.584,0,4.148-.34,5.2-1.258V46.265h5.951V58.537h4.384V63.5h-4.384V78.119h-5.951V74.651C1209.934,75.706,1208.03,76.113,1205.141,76.113Z"/><path class="cls-6" d="M1250.461,64.827h-28.83V60.135h28.83Zm-27.4-12.239a4.733,4.733,0,0,1,2.005-4.08c2.209-1.632,5.984-2.243,11.015-2.243,4.963,0,8.805.611,10.946,2.243a5.048,5.048,0,0,1,0,8.159c-2.141,1.632-5.983,2.278-10.946,2.278-5.031,0-8.806-.646-11.015-2.278A4.73,4.73,0,0,1,1223.06,52.588Zm25.462,14.142V78.425h-24.953V66.73Zm-5.3-14.142a1.162,1.162,0,0,0-.51-.918c-.951-.68-3.161-.85-6.629-.85-3.5,0-5.712.17-6.663.85a1.047,1.047,0,0,0,0,1.836c.951.646,3.161.849,6.663.849,3.468,0,5.678-.2,6.629-.849A1.162,1.162,0,0,0,1243.219,52.588Zm-13.8,21.384h13.225V71.218h-13.225Z"/><path class="cls-6" d="M1270.114,70.368c-1.563,2.822-5.269,5.168-9.213,5.915V71.116c3.7-1.5,6.255-4.046,6.255-12.919V46.639h5.949V58.2c0,8.873,2.483,11.355,6.222,12.919v5.167A14.2,14.2,0,0,1,1270.114,70.368Zm11.9-24.1h5.949V78.119h-5.949Z"/><path class="cls-6" d="M1302.72,51.466h-10.234V46.639h16.183V49.9c0,9.723-5.031,15.162-16.9,16.08V61.087C1299.048,60.339,1302.651,57.109,1302.72,51.466Zm-8.568,15.23h5.95v6.766H1318.6v4.827h-24.444ZM1312.2,46.265h5.95v8.023h4.182v4.929h-4.182V68.6h-5.95Z"/><path class="cls-6" d="M1323.324,61.427c0-7.717.714-11.8,2.754-13.769a5.26,5.26,0,0,1,3.909-1.36,5.51,5.51,0,0,1,3.944,1.36c1.666,1.666,2.448,4.862,2.652,10.539h1.835V46.468h5.168V77.813h-5.168V63.2h-1.8c-.136,6.629-.884,10.233-2.685,12.034a5.345,5.345,0,0,1-3.944,1.327,5.11,5.11,0,0,1-3.909-1.327C1324.038,73.292,1323.324,69.212,1323.324,61.427Zm8.125,0c0-6.391-.136-9.043-.748-9.927a.829.829,0,0,0-1.428,0c-.646.884-.782,3.536-.782,9.927,0,6.426.136,9.077.782,9.995a.869.869,0,0,0,1.428,0C1331.313,70.5,1331.449,67.853,1331.449,61.427Zm18.834-15.162V78.119h-5.269V46.265Z"/><path class="cls-6" d="M1368.2,46.809v10.4h2.516v-10.4h5.065V76.08H1363.1V46.809Zm0,24.579h2.516V62.005H1368.2Zm21.384-25.123V78.119h-5.27V63.127h-1.767V77.813h-5.168V46.468h5.168V58.163h1.767v-11.9Z"/><path class="cls-6" d="M1421.887,62.379H1410.4v1.564h9.552v9.281h-19.105v1.19H1420.6v4.011H1395V69.212h19.072V67.988H1395V63.943h9.485V62.379h-11.423V58.027h28.83Zm-27.4-10.743a3.862,3.862,0,0,1,1.564-3.264c2.04-1.53,5.882-2.107,11.457-2.107,5.507,0,9.383.577,11.389,2.107a4.048,4.048,0,0,1,0,6.494c-2.006,1.53-5.882,2.141-11.389,2.141-5.575,0-9.417-.611-11.457-2.141A3.843,3.843,0,0,1,1394.485,51.636Zm20.16,0a.665.665,0,0,0-.408-.612c-.816-.51-2.992-.646-6.731-.646-3.774,0-5.949.136-6.8.646a.728.728,0,0,0-.407.612.823.823,0,0,0,.407.612c.851.51,3.026.612,6.8.612,3.739,0,5.915-.1,6.731-.612A.738.738,0,0,0,1414.645,51.636Z"/><path class="cls-6" d="M1441.812,76.08h-8.465V46.639h5.542V71.218h3.671c2.141,0,3.6-.238,4.624-1.054v-23.7h5.235V58.163h2.04v-11.9h5.371V78.119h-5.371V63.127h-2.04V77.813h-5.235V74.89C1446.13,75.773,1444.464,76.08,1441.812,76.08Z"/><path class="cls-6" d="M1464.729,52.588a4.733,4.733,0,0,1,2-4.08c2.209-1.632,5.984-2.243,11.015-2.243,4.963,0,8.805.611,10.946,2.243a5.048,5.048,0,0,1,0,8.159,7.67,7.67,0,0,1-2.243,1.156v2.652h5.677v4.658H1463.3V60.475h5.812V57.857a8.621,8.621,0,0,1-2.379-1.19A4.73,4.73,0,0,1,1464.729,52.588Zm0,19.99a4.822,4.822,0,0,1,2.413-4.284c2.21-1.428,5.881-2.04,10.607-2.04,4.691,0,8.363.612,10.573,2.04a4.972,4.972,0,0,1,0,8.567c-2.21,1.462-5.882,2.006-10.573,2.006-4.726,0-8.4-.544-10.607-2.006A4.822,4.822,0,0,1,1464.729,72.578Zm20.159-19.99a1.162,1.162,0,0,0-.51-.918c-.952-.68-3.161-.85-6.629-.85-3.5,0-5.712.17-6.663.85a1.047,1.047,0,0,0,0,1.836c.951.646,3.161.849,6.663.849,3.468,0,5.677-.2,6.629-.849A1.162,1.162,0,0,0,1484.888,52.588Zm-14.346,19.99a1.083,1.083,0,0,0,.611.952c.987.612,3.094.816,6.6.816,3.468,0,5.575-.2,6.562-.816a1.05,1.05,0,0,0,.577-.952,1.183,1.183,0,0,0-.577-.986c-.987-.544-3.094-.816-6.562-.816-3.5,0-5.609.272-6.6.816A1.222,1.222,0,0,0,1470.542,72.578Zm10.1-13.7c-.918.034-1.87.068-2.89.068-.986,0-1.9-.034-2.788-.068v1.6h5.678Z"/><circle class="cls-9" cx="1137.168" cy="63.469" r="28.676"/><circle class="cls-6" cx="1137.168" cy="63.469" r="24.853"/><path class="cls-8" d="M1149.124,60.975h2.526a14.963,14.963,0,0,0-12.545-12.322v2.515A12.484,12.484,0,0,1,1149.124,60.975Zm-26.961,0h2.529a12.489,12.489,0,0,1,9.425-9.687V48.724A14.988,14.988,0,0,0,1122.163,60.975Zm2.545,4.987h-2.534a15,15,0,0,0,11.943,12.16V75.556A12.487,12.487,0,0,1,1124.708,65.962Zm14.4,9.714V78.2a14.968,14.968,0,0,0,12.532-12.24h-2.528A12.484,12.484,0,0,1,1139.105,75.676Z"/><path class="cls-8" d="M1136.611,44.352a1.322,1.322,0,0,0-1.384,1.247v8.59a1.393,1.393,0,0,0,2.771,0V45.6A1.323,1.323,0,0,0,1136.611,44.352Z"/><path class="cls-8" d="M1136.611,71.5a1.322,1.322,0,0,0-1.384,1.247v8.59a1.393,1.393,0,0,0,2.771,0V72.75A1.323,1.323,0,0,0,1136.611,71.5Z"/><path class="cls-8" d="M1155.038,62.083h-8.588a1.394,1.394,0,0,0,0,2.772h8.588a1.394,1.394,0,0,0,0-2.772Z"/><path class="cls-8" d="M1127.887,62.083H1119.3a1.394,1.394,0,0,0,0,2.772h8.589a1.394,1.394,0,0,0,0-2.772Z"/><circle class="cls-8" cx="1136.613" cy="63.469" r="2.361"/><rect class="cls-10" x="1470.716" y="627.221" width="37.078" height="220.268" transform="translate(231.442 -348.684) rotate(14.468)"/><line class="cls-11" x1="1531.871" y1="640.534" x2="1523.65" y2="638.412"/><line class="cls-11" x1="1530.448" y1="646.05" x2="1522.227" y2="643.929"/><line class="cls-11" x1="1529.079" y1="651.354" x2="1520.858" y2="649.233"/><line class="cls-11" x1="1527.656" y1="656.871" x2="1519.435" y2="654.749"/><line class="cls-11" x1="1526.232" y1="662.387" x2="1508.795" y2="657.887"/><line class="cls-11" x1="1524.836" y1="667.798" x2="1516.615" y2="665.676"/><line class="cls-11" x1="1523.412" y1="673.314" x2="1515.192" y2="671.192"/><line class="cls-11" x1="1522.044" y1="678.618" x2="1513.823" y2="676.497"/><line class="cls-11" x1="1520.62" y1="684.135" x2="1512.399" y2="682.013"/><line class="cls-11" x1="1519.197" y1="689.651" x2="1501.759" y2="685.151"/><line class="cls-11" x1="1517.773" y1="695.168" x2="1509.552" y2="693.046"/><line class="cls-11" x1="1516.35" y1="700.684" x2="1508.129" y2="698.562"/><line class="cls-11" x1="1514.981" y1="705.988" x2="1506.76" y2="703.867"/><line class="cls-11" x1="1513.557" y1="711.505" x2="1505.337" y2="709.383"/><line class="cls-11" x1="1512.134" y1="717.021" x2="1494.696" y2="712.521"/><line class="cls-11" x1="1510.738" y1="722.432" x2="1502.517" y2="720.31"/><line class="cls-11" x1="1509.314" y1="727.948" x2="1501.093" y2="725.826"/><line class="cls-11" x1="1507.946" y1="733.252" x2="1499.725" y2="731.131"/><line class="cls-11" x1="1506.522" y1="738.769" x2="1498.301" y2="736.647"/><line class="cls-11" x1="1505.099" y1="744.285" x2="1487.661" y2="739.785"/><line class="cls-11" x1="1503.666" y1="749.838" x2="1495.445" y2="747.717"/><line class="cls-11" x1="1502.242" y1="755.355" x2="1494.021" y2="753.233"/><line class="cls-11" x1="1500.873" y1="760.659" x2="1492.652" y2="758.537"/><line class="cls-11" x1="1499.45" y1="766.175" x2="1491.229" y2="764.054"/><line class="cls-11" x1="1498.026" y1="771.692" x2="1480.589" y2="767.192"/><line class="cls-11" x1="1496.63" y1="777.102" x2="1488.409" y2="774.981"/><line class="cls-11" x1="1495.207" y1="782.618" x2="1486.986" y2="780.497"/><line class="cls-11" x1="1493.838" y1="787.923" x2="1485.617" y2="785.801"/><line class="cls-11" x1="1492.414" y1="793.439" x2="1484.194" y2="791.318"/><line class="cls-11" x1="1490.991" y1="798.956" x2="1473.553" y2="794.456"/><line class="cls-11" x1="1489.567" y1="804.472" x2="1481.346" y2="802.351"/><line class="cls-11" x1="1488.144" y1="809.989" x2="1479.923" y2="807.867"/><line class="cls-11" x1="1486.775" y1="815.293" x2="1478.554" y2="813.171"/><line class="cls-11" x1="1485.352" y1="820.809" x2="1477.131" y2="818.688"/><line class="cls-11" x1="1483.928" y1="826.326" x2="1466.491" y2="821.826"/><line class="cls-11" x1="1482.532" y1="831.736" x2="1474.311" y2="829.614"/><line class="cls-11" x1="1481.109" y1="837.252" x2="1472.888" y2="835.131"/><line class="cls-11" x1="1479.74" y1="842.557" x2="1471.519" y2="840.435"/><rect class="cls-12" x="1459.063" y="680.544" width="12.315" height="168.616" transform="translate(-109.823 263.747) rotate(-9.916)"/><path class="cls-13" d="M1444.941,654.839l-.3,28.025,6.065-1.061,6.065-1.06-9.794-26.259A1.049,1.049,0,0,0,1444.941,654.839Z"/><path class="cls-12" d="M1444.942,654.725l-.122,11.307,6.065-1.061-3.952-10.594A1.028,1.028,0,0,0,1444.942,654.725Z"/><rect class="cls-14" x="1445.222" y="679.745" width="12.315" height="168.615" transform="translate(-161.487 465.824) rotate(-17.288)"/><path class="cls-15" d="M1417.154,657.551l3.293,27.832,5.88-1.83,5.879-1.83-13.083-24.785A1.049,1.049,0,0,0,1417.154,657.551Z"/><path class="cls-14" d="M1417.14,657.438l1.329,11.229,5.879-1.83-5.278-10A1.028,1.028,0,0,0,1417.14,657.438Z"/><rect class="cls-16" x="1494.43" y="687.26" width="12.315" height="168.615" transform="translate(581.242 -643.312) rotate(29.774)"/><path class="cls-17" d="M1555.241,673.961l-18.132,21.37,5.345,3.058,5.344,3.058,9.234-26.462A1.049,1.049,0,0,0,1555.241,673.961Z"/><path class="cls-16" d="M1555.315,673.874,1548,682.5l5.345,3.057,3.725-10.675A1.028,1.028,0,0,0,1555.315,673.874Z"/><path class="cls-18" d="M1514.779,850H1446.53a8.175,8.175,0,0,1-8.175-8.175V749.64h84.6v92.185A8.175,8.175,0,0,1,1514.779,850Z"/><path class="cls-6" d="M193.325,734.6H44.816a11.151,11.151,0,0,0-11.152,11.152v21.288a11.151,11.151,0,0,0,11.152,11.152H193.325"/><path class="cls-19" d="M44.816,781.524H202.444V731.258H44.816a14.488,14.488,0,0,0-14.488,14.488v21.29A14.488,14.488,0,0,0,44.816,781.524Z"/><path class="cls-20" d="M45.318,850h150.4a.009.009,0,0,0,.01-.01v-5.78a.01.01,0,0,0-.01-.01V809.983a.01.01,0,0,0,.01-.01v-5.78a.009.009,0,0,0-.01-.01H45.082A22.909,22.909,0,1,0,45.318,850Z"/><path class="cls-21" d="M33.472,689.989H180.179a18.437,18.437,0,0,1,18.437,18.437v3.144a18.437,18.437,0,0,1-18.437,18.437H33.472a0,0,0,0,1,0,0V689.989A0,0,0,0,1,33.472,689.989Z" transform="translate(232.088 1419.996) rotate(-180)"/><path class="cls-22" d="M40.89,807.18H186.025a20.009,20.009,0,0,1,20.009,20.009v0A20.009,20.009,0,0,1,186.025,847.2H40.89a0,0,0,0,1,0,0V807.18A0,0,0,0,1,40.89,807.18Z" transform="translate(246.923 1654.376) rotate(-180)"/><path class="cls-21" d="M61.137,850H208.619a2.9,2.9,0,0,0,2.9-2.9h0a2.9,2.9,0,0,0-2.9-2.9H61.1a17.109,17.109,0,1,1-.228-34.217H208.619a2.9,2.9,0,0,0,2.9-2.9h0a2.9,2.9,0,0,0-2.9-2.9H60.874A22.909,22.909,0,1,0,61.137,850Z"/><path class="cls-20" d="M48.641,803.487h157.5a2,2,0,0,0,2-2h0a2,2,0,0,0-2-2V786.361a2,2,0,0,0,2-2h0a2,2,0,0,0-2-2H48.454a10.575,10.575,0,0,0-10.562,10.759A10.686,10.686,0,0,0,48.641,803.487Z"/><path class="cls-23" d="M62.164,781.468H207.337a3.337,3.337,0,0,0,3.336-3.336h0a3.336,3.336,0,0,0-3.336-3.336H62.164a7.817,7.817,0,0,1-7.816-7.816V745.691a7.816,7.816,0,0,1,7.816-7.816H207.337a3.336,3.336,0,0,0,3.336-3.336h0a3.336,3.336,0,0,0-3.336-3.336H62.164a14.488,14.488,0,0,0-14.488,14.488V766.98A14.489,14.489,0,0,0,62.164,781.468Z"/><path class="cls-22" d="M52.286,784.8H207.257a0,0,0,0,1,0,0v15.124a0,0,0,0,1,0,0H52.286a3.386,3.386,0,0,1-3.386-3.386V788.19a3.386,3.386,0,0,1,3.386-3.386Z"/><path class="cls-21" d="M56.426,803.487H208.369a2,2,0,0,0,2-2h0a2,2,0,0,0-2-2H56.388a6.66,6.66,0,0,1-6.708-6.372,6.569,6.569,0,0,1,6.559-6.75h152.13a2,2,0,0,0,2-2h0a2,2,0,0,0-2-2H56.239a10.576,10.576,0,0,0-10.563,10.759A10.687,10.687,0,0,0,56.426,803.487Z"/><path class="cls-22" d="M171.136,689.989H187.51a18.437,18.437,0,0,1,18.437,18.437v3.144a18.437,18.437,0,0,1-18.437,18.437H171.136a0,0,0,0,1,0,0V689.989A0,0,0,0,1,171.136,689.989Z" transform="translate(377.082 1419.996) rotate(-180)"/><path class="cls-20" d="M186.977,689.989h23.161a2.037,2.037,0,0,1,2.036,2.037v.375a2.036,2.036,0,0,1-2.036,2.036H186.977a11.393,11.393,0,0,0-11.393,11.393v8.336a11.392,11.392,0,0,0,11.393,11.392h23.161a2.037,2.037,0,0,1,2.036,2.037v.375a2.037,2.037,0,0,1-2.036,2.037H186.977a15.841,15.841,0,0,1-15.841-15.841V705.83A15.841,15.841,0,0,1,186.977,689.989Z"/><path class="cls-6" d="M183.26,697.876h21.685a1,1,0,0,1,1,1v0a1,1,0,0,1-1,1H183.26a0,0,0,0,1,0,0v-2A0,0,0,0,1,183.26,697.876Z" transform="translate(389.207 1397.755) rotate(-180)"/><path class="cls-6" d="M183.26,702.325h21.685a1,1,0,0,1,1,1v0a1,1,0,0,1-1,1H183.26a0,0,0,0,1,0,0v-2A0,0,0,0,1,183.26,702.325Z" transform="translate(389.207 1406.651) rotate(180)"/><path class="cls-6" d="M183.26,706.773h21.685a1,1,0,0,1,1,1v0a1,1,0,0,1-1,1H183.26a0,0,0,0,1,0,0v-2A0,0,0,0,1,183.26,706.773Z" transform="translate(389.207 1415.548) rotate(-180)"/><path class="cls-6" d="M183.26,711.221h21.685a1,1,0,0,1,1,1v0a1,1,0,0,1-1,1H183.26a0,0,0,0,1,0,0v-2a0,0,0,0,1,0,0Z" transform="translate(389.207 1424.444) rotate(180)"/><path class="cls-6" d="M183.26,715.669h21.685a1,1,0,0,1,1,1v0a1,1,0,0,1-1,1H183.26a0,0,0,0,1,0,0v-2A0,0,0,0,1,183.26,715.669Z" transform="translate(389.207 1433.34) rotate(180)"/><path class="cls-6" d="M183.26,720.118h21.685a1,1,0,0,1,1,1v0a1,1,0,0,1-1,1H183.26a0,0,0,0,1,0,0v-2a0,0,0,0,1,0,0Z" transform="translate(389.207 1442.237) rotate(180)"/><path class="cls-6" d="M61.212,740.044H201.443a1,1,0,0,1,1,1v0a1,1,0,0,1-1,1H61.212a0,0,0,0,1,0,0v-2A0,0,0,0,1,61.212,740.044Z" transform="translate(263.655 1482.089) rotate(180)"/><path class="cls-6" d="M61.212,745.159H201.443a1,1,0,0,1,1,1v0a1,1,0,0,1-1,1H61.212a0,0,0,0,1,0,0v-2a0,0,0,0,1,0,0Z" transform="translate(263.655 1492.32) rotate(180)"/><path class="cls-6" d="M61.212,750.275H201.443a1,1,0,0,1,1,1v0a1,1,0,0,1-1,1H61.212a0,0,0,0,1,0,0v-2a0,0,0,0,1,0,0Z" transform="translate(263.655 1502.551) rotate(-180)"/><path class="cls-6" d="M61.212,755.39H201.443a1,1,0,0,1,1,1v0a1,1,0,0,1-1,1H61.212a0,0,0,0,1,0,0v-2A0,0,0,0,1,61.212,755.39Z" transform="translate(263.655 1512.782) rotate(-180)"/><path class="cls-6" d="M61.212,760.506H201.443a1,1,0,0,1,1,1v0a1,1,0,0,1-1,1H61.212a0,0,0,0,1,0,0v-2A0,0,0,0,1,61.212,760.506Z" transform="translate(263.655 1523.013) rotate(-180)"/><path class="cls-6" d="M61.212,765.621H201.443a1,1,0,0,1,1,1v0a1,1,0,0,1-1,1H61.212a0,0,0,0,1,0,0v-2A0,0,0,0,1,61.212,765.621Z" transform="translate(263.655 1533.244) rotate(-180)"/><path class="cls-6" d="M61.212,770.737H201.443a1,1,0,0,1,1,1v0a1,1,0,0,1-1,1H61.212a0,0,0,0,1,0,0v-2A0,0,0,0,1,61.212,770.737Z" transform="translate(263.655 1543.475) rotate(-180)"/><path class="cls-6" d="M64.8,813.4H205.033a1,1,0,0,1,1,1v0a1,1,0,0,1-1,1H64.8a0,0,0,0,1,0,0v-2A0,0,0,0,1,64.8,813.4Z" transform="translate(270.835 1628.799) rotate(-180)"/><path class="cls-6" d="M64.8,818.514H205.033a1,1,0,0,1,1,1v0a1,1,0,0,1-1,1H64.8a0,0,0,0,1,0,0v-2A0,0,0,0,1,64.8,818.514Z" transform="translate(270.835 1639.03) rotate(180)"/><path class="cls-6" d="M64.8,823.63H205.033a1,1,0,0,1,1,1v0a1,1,0,0,1-1,1H64.8a0,0,0,0,1,0,0v-2A0,0,0,0,1,64.8,823.63Z" transform="translate(270.835 1649.261) rotate(180)"/><path class="cls-6" d="M64.8,828.745H205.033a1,1,0,0,1,1,1v0a1,1,0,0,1-1,1H64.8a0,0,0,0,1,0,0v-2a0,0,0,0,1,0,0Z" transform="translate(270.835 1659.492) rotate(-180)"/><path class="cls-6" d="M64.8,833.861H205.033a1,1,0,0,1,1,1v0a1,1,0,0,1-1,1H64.8a0,0,0,0,1,0,0v-2A0,0,0,0,1,64.8,833.861Z" transform="translate(270.835 1669.723) rotate(-180)"/><path class="cls-6" d="M64.8,838.976H205.033a1,1,0,0,1,1,1v0a1,1,0,0,1-1,1H64.8a0,0,0,0,1,0,0v-2a0,0,0,0,1,0,0Z" transform="translate(270.835 1679.954) rotate(-180)"/><path class="cls-6" d="M66.025,788.808H206.256a1,1,0,0,1,1,1v0a1,1,0,0,1-1,1H66.025a0,0,0,0,1,0,0v-2A0,0,0,0,1,66.025,788.808Z" transform="translate(273.282 1579.617) rotate(-180)"/><path class="cls-6" d="M66.025,793.923H206.256a1,1,0,0,1,1,1v0a1,1,0,0,1-1,1H66.025a0,0,0,0,1,0,0v-2A0,0,0,0,1,66.025,793.923Z" transform="translate(273.282 1589.848) rotate(-180)"/><path class="cls-24" d="M196.339,549.318q-6.514,6.967-1.782,18.613l10.925,3.64q.5-11.321,3.231-17.979,1.557-4.923-3.364-6.655-4.939-1.782-9.01,2.381"/><path class="cls-25" d="M193.277,568.918l-.277-.684c-3.4-8.356-2.691-15.189,2.094-20.309l.025-.026c3.136-3.2,6.836-4.157,10.686-2.771,4.118,1.446,5.667,4.518,4.314,8.774-1.744,4.248-2.791,10.116-3.113,17.441l-.093,2.12Zm4.144-18.792c-3.776,4.051-4.343,9.364-1.722,16.223l8.222,2.741c.44-6.729,1.523-12.228,3.19-16.279.776-2.448.089-3.8-2.381-4.666a6.337,6.337,0,0,0-7.309,1.981Z"/><path class="cls-24" d="M117.447,639l-1.62,39.736a7.04,7.04,0,0,1,3.684,5.582q.392,5.414-8.762,5.749a132.838,132.838,0,0,1-16.13-.279q-8.091-.727-6.25-11.329L86.917,639Z"/><path class="cls-26" d="M84.954,639.075l.182,4.872.092,2.263.018.456v.018l.091,2.591v.073l.237,6.405.037.876.036.894v.018l.767,20.819c-.767,4.525-.256,7.846,1.532,10.164a8.691,8.691,0,0,0,6.5,3.211c3.157.274,6.587.4,10.237.4q2.984,0,6.13-.11c4.434-.164,7.409-1.168,9.124-3.065a5.978,5.978,0,0,0,1.2-2.08,6.544,6.544,0,0,0,.311-2.7,8.835,8.835,0,0,0-1.169-3.741,9.1,9.1,0,0,0-2.463-2.718l.529-13.047.055-1.441.2-4.635.036-1.076.019-.292.018-.6.036-.876.037-1.059.383-9.542.037-.6.072-1.9v-.037l.146-3.521a1.862,1.862,0,0,0-.127-.785v-.018a1.726,1.726,0,0,0-.438-.657,1.867,1.867,0,0,0-1.3-.584,1.956,1.956,0,0,0-2.025,1.879V639l-.256,6.277-.438,10.474-.018.748c0,.018-.018.036,0,.055a.232.232,0,0,0-.018.109v.055l-.018.292-.018.511-.219,5.6-.073,1.551-.566,14a1.922,1.922,0,0,0,.949,1.751,5.085,5.085,0,0,1,2.737,4.087,2.293,2.293,0,0,1-.548,1.843c-.638.712-2.28,1.624-6.331,1.77a131.33,131.33,0,0,1-15.893-.273,4.978,4.978,0,0,1-3.74-1.7c-1.1-1.405-1.351-3.85-.785-7.244a2.34,2.34,0,0,0,.055-.511l-.73-19.579v-.055l-.037-1.24-.073-1.77-.182-4.872-.037-1.259V649.6l-.054-1.387v-.037l-.073-2.1L88.859,639v-.073a1.954,1.954,0,0,0-3.905.146Z"/><path class="cls-24" d="M120.188,639.021l2.336,6.039,3.649,9.4.748,1.916.748,1.934,1.989,5.109,5.821,15.036q-1.833,10.618,6.258,11.331a131.4,131.4,0,0,0,16.131.292q9.141-.357,8.758-5.766a7.025,7.025,0,0,0-3.686-5.565l-2.408-7.846-.019-.019-5.091-16.568-2.116-6.879-.639-2.1-.237-.712V644.6l-.146-.456-.273-.912-1.3-4.215Z"/><path class="cls-26" d="M147.978,642.464l13.01,36.207a1.918,1.918,0,0,0,.949,1.751,5.09,5.09,0,0,1,2.737,4.087,2.293,2.293,0,0,1-.548,1.843c-.638.712-2.281,1.624-6.35,1.77a131.464,131.464,0,0,1-15.892-.273,4.969,4.969,0,0,1-3.723-1.7c-1.113-1.424-1.368-3.905-.766-7.354l.037-.4-5.949-15.327-2.226-5.711-.931-2.409-.182-.456-3.686-9.507-2.317-5.966v-.073a1.958,1.958,0,0,0-2.025-1.88,1.927,1.927,0,0,0-1.3.566,1.868,1.868,0,0,0-.438.675v.018a1.568,1.568,0,0,0-.146.767l.128,3.54v.036l.8,1.879.255.6,4,9.4.8,1.916.821,1.934,2.3,5.42,6.167,14.506c-.127.73-.2,1.441-.273,2.116a13.009,13.009,0,0,0,.857,6.442,7.377,7.377,0,0,0,.967,1.642,8.691,8.691,0,0,0,6.5,3.211c3.157.274,6.587.4,10.236.4q2.983,0,6.131-.11c4.434-.164,7.409-1.168,9.124-3.065a6.2,6.2,0,0,0,1.514-4.781,8.712,8.712,0,0,0-3.631-6.459l-1.816-2.28-11.376-33.234Z"/><path class="cls-24" d="M116.889,569.347V557.236h18.527a277.279,277.279,0,0,1,17.3,32.928,110.524,110.524,0,0,1,6.864,20.037q6.364,28.015-12.723,39.624l-12.614-6.193L127.6,656.356q-4.965.167-8.147.279h-2.735q-3.09-.073-6.084-.445l-6.809-12.95L89.6,649.825q-1.22-.741-2.342-1.562Q70.918,636.426,76.872,610.2a110.456,110.456,0,0,1,6.865-20.037l22.436-20.817Z"/><path class="cls-24" d="M47.347,620.3q5.217-8,11.218-15.738a273.252,273.252,0,0,1,33.32-35.608l12.39,6.474Q95.3,592.121,88.313,604.564q-11.48,20.507-17.524,29.467a38.09,38.09,0,0,1-7.536,8.6,16.133,16.133,0,0,1-8.481,3.8,11.18,11.18,0,0,1-7.032-1.73q-11.277-7.98-.393-24.39Z"/><path class="cls-25" d="M114.769,656.665v.055a1.819,1.819,0,0,0,.036.31,1.463,1.463,0,0,0,.183.493,1.928,1.928,0,0,0,1.66,1.076h2.81a2.473,2.473,0,0,0,.365-.018q.932-.027,1.971-.055c.621-.036,1.259-.054,1.953-.073l1.3-.055c.821-.036,1.7-.054,2.627-.091a1.916,1.916,0,0,0,1.5-.784.77.77,0,0,0,.091-.164,1.522,1.522,0,0,0,.255-.676,1.606,1.606,0,0,0-.073-.93,2.01,2.01,0,0,0-.949-1.131,1.106,1.106,0,0,0-.346-.128,1.606,1.606,0,0,0-.6-.092l-1.369.055c-.912.037-1.77.073-2.573.091h-.182c-.62.019-1.2.055-1.77.074q-1.068.027-1.97.054a1.7,1.7,0,0,1-.293.018h-2.7a1.935,1.935,0,0,0-1.7,1.059,1.476,1.476,0,0,0-.2.748c0,.018-.018.036,0,.055A.232.232,0,0,0,114.769,656.665Z"/><path class="cls-27" d="M114.208,615.448a17.243,17.243,0,0,1,1.341-6.419,15.123,15.123,0,0,1,3.571-5.3,16.435,16.435,0,0,1,26.845,5.47,16.616,16.616,0,0,1,1.284,6.474v.947l-8.986-.055v-.95a7.583,7.583,0,0,0-2.177-5.412,7.543,7.543,0,0,0-10.66-.057,7.168,7.168,0,0,0-2.288,5.414v.892h-8.93v-1Z"/><path class="cls-24" d="M155.532,576.727a53.545,53.545,0,0,0,25.618,12.681,21.5,21.5,0,0,1-5.054-8.758,21.757,21.757,0,0,1-.639-11.021,14,14,0,0,1,.475-1.916,9.232,9.232,0,0,1,.492-1.351c.31-.748.639-1.441.986-2.116a16.489,16.489,0,0,1,10.437-8.521,20.875,20.875,0,0,1,2.262-.475,15.256,15.256,0,0,1,5.073.183,17.874,17.874,0,0,1,5.966,2.39,19.391,19.391,0,0,1,3.96,3.066q8.814,9.36,9.233,21.074a37.87,37.87,0,0,1-2.189,14.689q-3.669,9.907-10.493,14.36a25.267,25.267,0,0,1-8.959,3.5q-15.354,2.957-31.147-4.361c-1.532-.693-3.047-1.478-4.58-2.335q-1.122-4.242-2.809-8.832-1.423-3.913-3.248-8.046c-1.369-3.157-2.865-6.405-4.526-9.744l-.145-2.536,5.768-1.2Z"/><path class="cls-25" d="M45.711,619.236c3.488-5.355,7.294-10.694,11.31-15.87A276.634,276.634,0,0,1,90.577,567.5a1.954,1.954,0,0,1,2.615,2.9,272.509,272.509,0,0,0-33.083,35.352c-3.952,5.093-7.693,10.344-11.132,15.62-9.768,14.725-2.619,19.938-.163,21.678a9.212,9.212,0,0,0,5.8,1.416,14.28,14.28,0,0,0,7.4-3.355,36.314,36.314,0,0,0,7.158-8.182c3.982-5.9,9.85-15.769,17.44-29.33a1.954,1.954,0,0,1,3.409,1.911c-5.145,9.19-9.507,16.7-13.04,22.451a1.461,1.461,0,0,1,.117.445c.928,15.14,16.883,21.476,17.044,21.537a1.49,1.49,0,0,1-1.069,2.781c-.682-.262-15.685-6.19-18.53-20.865-.754,1.179-1.463,2.266-2.117,3.236a40.325,40.325,0,0,1-7.961,9.059,18.072,18.072,0,0,1-9.514,4.2c-.4.039-.8.057-1.2.057a13.251,13.251,0,0,1-7.038-2.067l-.1-.07C40.76,642.145,35.859,634.089,45.711,619.236Z"/><path class="cls-6" d="M50.125,428.76a31.638,31.638,0,0,1,1.062-17.245q4.13-9.711,12.725-6.7a14.582,14.582,0,0,1,3.069,1.4q10.691,6.694,18.53,20.259c.231.44.474.887.724,1.339l.113.225q.3.552.613,1.114c.221.442.446.889.67,1.34q.747,1.447,1.451,2.958-1.34,1.13-2.734,2.178c-.66.5-1.33.982-2.01,1.451q-.444.289-.893.556l-.222.168a57.444,57.444,0,0,1-18.53,7.759l-.224.054-.445.114q-3.181.671-6.531,1.06-1.314-2.116-2.4-4.243l-.447-.894a51.055,51.055,0,0,1-4.522-12.891Z"/><path class="cls-6" d="M133.894,422.992a31.633,31.633,0,0,1,8.3-15.152q7.87-7.026,14.363-.638a14.464,14.464,0,0,1,2.184,2.569q6.843,10.624,8.086,26.2l.136,1.546.008.25q.014.624.029,1.246c.045.515.073,1.024.086,1.522q.037,1.623.053,3.3-1.686.438-3.4.8l-2.436.458c-.348.042-.706.1-1.069.175l-.25.006a58.462,58.462,0,0,1-20.069-.872l-.225-.044-.452-.09q-3.162-.747-6.359-1.822-.309-2.488-.416-4.883a1.22,1.22,0,0,0-.011-.5c0-.168-.007-.334-.013-.5a50.594,50.594,0,0,1,1.453-13.567Z"/><path class="cls-26" d="M55.066,444.5a1.954,1.954,0,0,0,1.752-2.814l-.443-.892a49.938,49.938,0,0,1-4.334-12.419,29.864,29.864,0,0,1,.983-16.2c2.986-7.014,7.045-6.638,10.24-5.515a12.817,12.817,0,0,1,2.728,1.235c6.773,4.242,12.777,10.829,17.8,19.549.235.413.471.832.708,1.261l.126.245c.2.37.385.72.562,1.074a1.953,1.953,0,1,0,3.492-1.751c-.2-.4-.405-.79-.618-1.179L88,426.979l-.058-.113q-.384-.693-.766-1.365c-5.347-9.286-11.791-16.331-19.161-20.945a16.833,16.833,0,0,0-3.533-1.606c-4.636-1.627-11.09-1.618-15.095,7.8a33.722,33.722,0,0,0-1.179,18.392,53.788,53.788,0,0,0,4.66,13.382l.442.88a1.95,1.95,0,0,0,1.753,1.1Z"/><path class="cls-26" d="M166.951,440.978A1.955,1.955,0,0,1,165,439.071l-.03-1.242-.136-1.69c-.8-10.008-3.416-18.519-7.75-25.248a13.026,13.026,0,0,0-1.941-2.283c-2.416-2.375-5.927-4.441-11.616.632a29.862,29.862,0,0,0-7.79,14.243,48.932,48.932,0,0,0-1.392,13.041l.009.359a3.182,3.182,0,0,1-.022,1.064,1.953,1.953,0,0,1-3.859-.578l-.022-.252-.012-.5a52.75,52.75,0,0,1,1.509-14.081,33.743,33.743,0,0,1,8.9-16.141c7.636-6.815,13.476-4.073,16.98-.628a16.726,16.726,0,0,1,2.51,2.958c4.717,7.322,7.54,16.44,8.388,27.082l.139,1.543.007.135.035,1.491a1.954,1.954,0,0,1-1.907,2Zm-36.462-3.511"/><path class="cls-6" d="M37.681,453.148q.837-1.113,1.73-2.175a83.217,83.217,0,0,1,46.6-29.021,147.154,147.154,0,0,1,19.2-2.846q2.287-.225,4.465-.279,5.022-.171,9.933.111a1.48,1.48,0,0,1,.558.111,1.67,1.67,0,0,1,.615,0,2.846,2.846,0,0,0,.557.057,109.308,109.308,0,0,1,38.566,10.605q26.286,13.167,34.658,39.513a5.335,5.335,0,0,1,.279.837q.783,2.4,1.4,5.022a7.545,7.545,0,0,1,.166.894l.056.222a97.228,97.228,0,0,1,2.234,22.436,55.988,55.988,0,0,0,1.45,15.068,59.937,59.937,0,0,1,2.456,19.422,39.107,39.107,0,0,1-.447,4.243,2.63,2.63,0,0,1-.111.726,14.635,14.635,0,0,1-.67,3.125,34.66,34.66,0,0,1-2.846,7.367q-.726,1.283-1.564,2.51a1.141,1.141,0,0,1-.334.5,37.531,37.531,0,0,1-11.107,10.773,56.48,56.48,0,0,1-5.134,3.069q-2.343,1.284-4.91,2.511a112,112,0,0,1-41.245,10.214q-1.451.113-3.014.223a149.113,149.113,0,0,1-18.251.224c-.558-.075-1.135-.129-1.729-.168q-4.019-.279-8.093-.724-5.748-.727-11.05-1.675-.671-.169-1.4-.281A117.01,117.01,0,0,1,69.492,569.4l-.39-.168a90.577,90.577,0,0,1-15.348-8.371q-1.173-.839-2.344-1.73a74.487,74.487,0,0,1-17.357-18.475,82.6,82.6,0,0,1-8.986-18.695,78.435,78.435,0,0,1-3.739-23.106,69.564,69.564,0,0,1,3.683-21.989A80.062,80.062,0,0,1,31.15,463.14q.9-1.547,1.841-3.071.735-1.232,1.508-2.454.615-.837,1.228-1.675a9.96,9.96,0,0,1,1.005-1.45,10.072,10.072,0,0,0,.949-1.342Z"/><path class="cls-24" d="M24.229,479.38q.361-1.26.781-2.511c.548-1.629,1.182-3.244,1.862-4.852a1.39,1.39,0,0,1,.974-2.6,89.216,89.216,0,0,1,34.672,22c4.832,5.04,7.569,9.388,8.372,13.309a31.758,31.758,0,0,1-.555,13.2c-.38,1.363-.8,2.709-1.25,3.981A107.383,107.383,0,0,1,54,550.505a79.555,79.555,0,0,1-5.376,6.489,1.395,1.395,0,1,1-2.08-1.858l.027-.031a74.308,74.308,0,0,1-12.521-14.446,82.578,82.578,0,0,1-8.986-18.695,78.435,78.435,0,0,1-3.739-23.106A69.047,69.047,0,0,1,24.229,479.38Z"/><path class="cls-28" d="M159.014,512.421a19.48,19.48,0,0,1-2.066-9.321,19.793,19.793,0,0,1,2.066-9.375q2.064-3.854,5.021-3.853t5.023,3.853a19.365,19.365,0,0,1,2.121,9.375,19.06,19.06,0,0,1-2.121,9.321q-2.062,3.963-5.023,3.963t-5.021-3.963Z"/><path class="cls-24" d="M160.743,477.845l-.1.07a4.172,4.172,0,0,1-4.837-2.809,4.048,4.048,0,0,1,.354-3.067,3.643,3.643,0,0,1,2.164-1.852l14.605-4.156a3.857,3.857,0,0,1,2.9.37,4.035,4.035,0,0,1,1.881,2.443,3.769,3.769,0,0,1-.31,2.949,3.914,3.914,0,0,1-1.943,1.83l-.27.084-14.441,4.138Z"/><path class="cls-26" d="M159.634,479.5a5.085,5.085,0,0,1-2.68-.793,4.893,4.893,0,0,1-2.526-3.163,5.409,5.409,0,0,1,.455-4.092A5.051,5.051,0,0,1,157.9,468.9l14.649-4.167a5.245,5.245,0,0,1,3.955.527,5.4,5.4,0,0,1,2.508,3.261,5.133,5.133,0,0,1-.425,3.99,5.293,5.293,0,0,1-2.55,2.42,1.978,1.978,0,0,1-.6.2l-14.163,4.061-.288.119a4.91,4.91,0,0,1-1.358.195Zm1.219-.215h0Zm0,0,.829-.436,0,0Zm-1.31-2.305,14.387-4.125.108-.027.007,0a2.547,2.547,0,0,0,1.261-1.219,2.371,2.371,0,0,0,.19-1.9,2.6,2.6,0,0,0-1.212-1.6,2.437,2.437,0,0,0-1.845-.252l-14.544,4.138a2.242,2.242,0,0,0-1.367,1.168,2.65,2.65,0,0,0-.248,2.058,2.114,2.114,0,0,0,1.137,1.449l.135.075a2.148,2.148,0,0,0,1.642.359Zm14.29-4.043,0,0Zm.338-.13"/><path class="cls-24" d="M97.732,468.107a3.858,3.858,0,0,1,2.847-.671l14.957,2.625a3.636,3.636,0,0,1,2.344,1.619,4.048,4.048,0,0,1,.67,3.012,4.168,4.168,0,0,1-4.522,3.294l-.111-.057-14.789-2.622-.279-.056a3.929,3.929,0,0,1-2.122-1.619,3.772,3.772,0,0,1-.613-2.9,4.035,4.035,0,0,1,1.618-2.622Z"/><path class="cls-26" d="M114.662,479.436a4.949,4.949,0,0,1-.878-.078l-.3-.088-14.5-2.572a2.042,2.042,0,0,1-.617-.139,5.275,5.275,0,0,1-2.779-2.131,5.121,5.121,0,0,1-.843-3.936,5.432,5.432,0,0,1,2.2-3.529,5.247,5.247,0,0,1,3.885-.9l15.018,2.636a5,5,0,0,1,3.21,2.217,5.4,5.4,0,0,1,.878,4.007,4.907,4.907,0,0,1-2.19,3.423,4.985,4.985,0,0,1-3.074,1.091Zm-.745-.111h0Zm0,0h0Zm-.869-.35,0,0ZM98.57,469.224a2.632,2.632,0,0,0-1.082,1.744,2.389,2.389,0,0,0,.392,1.878,2.538,2.538,0,0,0,1.376,1.069l0,0,.111.016,14.738,2.613.361.091a2.136,2.136,0,0,0,1.595-.527l.128-.089a2.127,2.127,0,0,0,.985-1.573,2.664,2.664,0,0,0-.466-2.007,2.213,2.213,0,0,0-1.417-1.006l-14.913-2.616-.425-.031A2.358,2.358,0,0,0,98.57,469.224Zm.9,4.778h0Z"/><path class="cls-24" d="M198.025,485.408a106.13,106.13,0,0,1,.67,13.173,55.03,55.03,0,0,0,1.45,15.066,77.857,77.857,0,0,1,1.73,7.815q-5.181-6.591-8.483-11.218a12.056,12.056,0,0,1-1.618-11.5,93.815,93.815,0,0,1,6.251-13.339Z"/><path class="cls-24" d="M201.875,522.856a1.394,1.394,0,0,0,1.1-2.257c-3.423-4.354-6.264-8.1-8.447-11.14a10.725,10.725,0,0,1-1.454-10.247,95.59,95.59,0,0,1,6.182-13.145,1.395,1.395,0,0,0-2.458-1.319,96,96,0,0,0-6.373,13.588,13.508,13.508,0,0,0,1.837,12.751c2.2,3.071,5.072,6.851,8.519,11.236a1.389,1.389,0,0,0,1.1.533Z"/><path class="cls-26" d="M19.366,498.85a80.757,80.757,0,0,0,3.831,23.7,85.465,85.465,0,0,0,9.215,19.178c.911,1.378,1.876,2.712,2.867,4.022.127.167.252.335.379.5q1.481,1.923,3.072,3.747c.112.128.228.252.341.379q1.52,1.712,3.136,3.332c.117.117.229.238.346.354,1.1,1.082,2.234,2.127,3.4,3.145.123.107.236.226.36.333.025.022.058.029.084.05,1.244,1.071,2.511,2.117,3.827,3.113.8.6,1.587,1.186,2.39,1.752a92.147,92.147,0,0,0,15.71,8.576l.384.164a118.66,118.66,0,0,0,21.6,6.478c.511.091.913.164,1.314.273l.128.018c3.558.639,7.3,1.205,11.149,1.7,2.755.292,5.492.548,8.192.73.566.037,1.1.091,1.606.164l.164.019q3.694.164,7.39.164,5.583,0,11.112-.4,1.561-.11,3.011-.218c4.032-.238,7.992-.676,11.9-1.278.328-.073.675-.127,1.022-.182,1-.164,2.007-.347,2.992-.529l.274-.055c2.025-.4,4.032-.858,6.021-1.35a109.832,109.832,0,0,0,11.441-3.558c2.81-1.022,5.583-2.19,8.284-3.449a.933.933,0,0,1,.2-.091q2.519-1.231,4.817-2.464a59.441,59.441,0,0,0,5.292-3.175,40.6,40.6,0,0,0,9.616-8.557,29.388,29.388,0,0,0,1.934-2.609,3.177,3.177,0,0,0,.548-.8c.529-.8,1.04-1.642,1.514-2.464a36.437,36.437,0,0,0,3.011-7.773,15.808,15.808,0,0,0,.729-3.321,4.062,4.062,0,0,0,.128-.912,41.007,41.007,0,0,0,.457-4.324,58.186,58.186,0,0,0-1.431-15.59c-.065-.3-.133-.6-.2-.9q-.312-1.361-.683-2.745c-.074-.279-.13-.551-.207-.831-.171-.676-.3-1.4-.441-2.109a55.59,55.59,0,0,1-.939-10.882c0-.5-.015-.991,0-1.506.017-1.945-.023-3.854-.1-5.737,0-.131-.008-.264-.014-.394q-.123-2.842-.393-5.566l-.023-.234c-.052-.515-.095-1.038-.154-1.546a1.679,1.679,0,0,0-.074-.231A90.917,90.917,0,0,0,198.4,475.9l-.091-.383c-.054-.311-.109-.6-.182-.895-.4-1.751-.876-3.466-1.406-5.09a7.413,7.413,0,0,0-.328-.967c-5.729-17.973-17.717-31.622-35.617-40.6a112.106,112.106,0,0,0-39.285-10.8l-.329-.018a3.843,3.843,0,0,0-.8-.073,3.459,3.459,0,0,0-.749-.073c-3.211-.2-6.623-.238-10-.11q-2.244.055-4.6.274a150.562,150.562,0,0,0-19.432,2.883A85.538,85.538,0,0,0,37.9,449.73c-.6.73-1.2,1.478-1.788,2.263l-.128.182a7.427,7.427,0,0,1-.766,1.077,10.287,10.287,0,0,0-1.132,1.624l-1.167,1.587-.073.11c-.529.821-1.04,1.642-1.551,2.481-.639,1.04-1.241,2.08-1.843,3.12q-1.885,3.348-3.426,6.782c-.01.021-.03.034-.04.056q-.21.474-.409.962c-.214.492-.407.992-.612,1.489-.2.478-.4.955-.589,1.435-.434,1.114-.845,2.233-1.22,3.349q-.429,1.275-.824,2.56c-.545,1.842-1.007,3.7-1.4,5.569-.052.245-.1.492-.149.737q-.18.9-.339,1.8c-.069.393-.133.786-.2,1.18q-.105.671-.2,1.341c-.068.5-.134.989-.192,1.485-.038.327-.071.655-.105.983-.061.59-.119,1.179-.166,1.77-.014.182-.023.364-.035.546C19.445,495.758,19.373,497.3,19.366,498.85Zm29.005,55.278c-1.018-.9-2.018-1.81-2.984-2.761-.2-.2-.4-.412-.6-.615q-1.383-1.395-2.692-2.86c-.153-.171-.309-.338-.46-.51q-1.5-1.713-2.886-3.52c-.11-.143-.218-.288-.327-.432-.949-1.253-1.868-2.532-2.738-3.847a81.214,81.214,0,0,1-8.764-18.247,76.755,76.755,0,0,1-3.636-22.487q.012-2.364.191-4.724c0-.023,0-.046,0-.069.05-.654.116-1.308.185-1.961.022-.209.042-.419.067-.628.062-.541.134-1.082.21-1.622.05-.351.1-.7.156-1.053.065-.425.136-.849.21-1.273q.14-.785.3-1.566c.053-.265.1-.529.161-.794a68.327,68.327,0,0,1,2.1-7.657c.354-1.06.741-2.118,1.149-3.174.234-.6.487-1.193.737-1.789a78.21,78.21,0,0,1,4.1-8.431c.584-1,1.186-2.025,1.788-3.029q.711-1.176,1.478-2.353L37.3,457.1l.109-.183a9.508,9.508,0,0,1,.821-1.167,15.367,15.367,0,0,0,1.077-1.515c.511-.675,1.04-1.35,1.588-2.007A81.768,81.768,0,0,1,86.44,423.856a145.89,145.89,0,0,1,18.94-2.791c1.478-.146,2.938-.237,4.343-.274,3.284-.11,6.568-.073,9.78.109a1.883,1.883,0,0,0,.639.11,2.14,2.14,0,0,0,.346-.037,3.032,3.032,0,0,0,.767.092,107.716,107.716,0,0,1,37.807,10.418c16.914,8.467,28.245,21.386,33.628,38.337l.073.182a3.743,3.743,0,0,1,.182.548l.037.127c.511,1.533.949,3.175,1.35,4.854a5.541,5.541,0,0,1,.128.693l.073.347.018.073a87.282,87.282,0,0,1,1.68,10.464c.006.06.011.121.017.182q.26,2.613.38,5.324c.009.194.013.39.021.584.071,1.773.108,3.569.091,5.4-.006.233.006.452,0,.684a56.528,56.528,0,0,0,1.515,14.9v.055c.1.364.188.721.284,1.082.2.768.4,1.536.57,2.286q.091.4.178.79c.251,1.152.478,2.288.66,3.391,0,.01.008.017.01.027a50.775,50.775,0,0,1,.688,11.218,40.047,40.047,0,0,1-.42,4.032l-.036.311-.037.2-.055.329a12.044,12.044,0,0,1-.584,2.7l-.036.128a32.133,32.133,0,0,1-2.682,6.952c-.42.748-.931,1.551-1.442,2.317l-.164.292-.2.256a29.64,29.64,0,0,1-3.832,4.707,37.545,37.545,0,0,1-6.714,5.493,54.538,54.538,0,0,1-4.982,2.974c-.328.182-.657.365-1,.529-1.241.675-2.518,1.314-3.832,1.952a105.286,105.286,0,0,1-21.513,7.336c-1.551.364-3.1.675-4.689.966-.438.073-.876.165-1.332.238-.894.146-1.807.292-2.719.438-3.357.474-6.787.839-10.255,1.04-1,.091-2.007.164-3.047.237a146.974,146.974,0,0,1-17.936.219c-.566-.073-1.168-.128-1.77-.164-2.646-.183-5.346-.438-8.01-.73-3.722-.475-7.39-1.022-10.857-1.642-.475-.11-.985-.219-1.5-.292A115.527,115.527,0,0,1,70.237,567.6l-.383-.164a90.132,90.132,0,0,1-15-8.174c-.73-.53-1.5-1.1-2.263-1.679C51.136,556.486,49.734,555.327,48.371,554.128Z"/><path class="cls-28" d="M144.005,538.747a7.328,7.328,0,0,0,.982-.064c4.237-.551,6.5-4.51,6.6-4.678a1.117,1.117,0,0,0-1.948-1.1c-.039.067-1.851,3.167-4.955,3.561-2.31.289-4.905-.978-7.632-3.791a1.117,1.117,0,1,0-1.6,1.557C138.352,537.233,141.227,538.747,144.005,538.747Z"/><path class="cls-28" d="M99.4,520.943a2.818,2.818,0,0,1-1.2-5.367l11.065-5.2-11.8-5.474a2.816,2.816,0,1,1,2.37-5.109l17.277,8.011a2.818,2.818,0,0,1,.012,5.105l-16.526,7.762a2.817,2.817,0,0,1-1.2.268"/><path class="cls-26" d="M143.811,648.265a28.028,28.028,0,0,0,15.38-20.6c2.752-15.383-9.518-35.69-9.642-35.893a1.6,1.6,0,0,1,2.732-1.672,88.312,88.312,0,0,1,7.55,16.543c.343.182.685.378,1.029.552,10.236,5.291,20.455,7.152,30.508,5.565a23.412,23.412,0,0,0,8.412-2.956c4.27-2.573,7.718-6.989,10.218-13.1a36.624,36.624,0,0,0,2.536-13.922c-.018-7.336-2.736-14.123-8.064-20.181A17.967,17.967,0,0,0,201,559.757a15.429,15.429,0,0,0-7.225-2.682,12.667,12.667,0,0,0-2.755.073,12.532,12.532,0,0,0-1.807.31,16.124,16.124,0,0,0-2.354.767,13.982,13.982,0,0,0-4.963,3.466,18.223,18.223,0,0,0-2.59,3.759c-.2.383-.4.785-.584,1.2a6.132,6.132,0,0,0-.457,1.131,5.091,5.091,0,0,0-.146.492,20.929,20.929,0,0,0,4.215,19.543l.128.146a14.665,14.665,0,0,0,3.576,3.12l.165.109a14.686,14.686,0,0,0,6.915,2.536,14.272,14.272,0,0,0,3.832-.072,1.909,1.909,0,0,1,2.153,1.623,1.885,1.885,0,0,1-1.606,2.154,18.379,18.379,0,0,1-4.781.109,18.706,18.706,0,0,1-8.575-3.138l-.146-.073a18.991,18.991,0,0,1-4.106-3.485,55.878,55.878,0,0,1-25.436-13.868l.032-.007c-.11-.1-.226-.191-.335-.293.364-.073.9-.187,1.269-.278,1.131-.292,2.044-.477,3.157-.8.092.079.188.151.28.229l.05-.014a57.36,57.36,0,0,0,6.137,4.589,51.115,51.115,0,0,0,11.325,5.483,25.671,25.671,0,0,1-2.044-5.2,24.646,24.646,0,0,1-.657-10.254,21.193,21.193,0,0,1,.511-2.373c.128-.492.292-.985.456-1.477a8.1,8.1,0,0,1,.438-1.132,4.734,4.734,0,0,1,.2-.438c2.7-6,7.1-9.816,13.046-11.276a17.588,17.588,0,0,1,3.595-.493,15.669,15.669,0,0,1,2.445.073,14.431,14.431,0,0,1,2.153.365,19.668,19.668,0,0,1,6.569,2.883,20.558,20.558,0,0,1,4.215,3.485c6,6.806,9.032,14.451,9.068,22.717a40.968,40.968,0,0,1-2.828,15.382c-2.828,6.9-6.787,11.915-11.787,14.944a27,27,0,0,1-6.606,2.774,28.805,28.805,0,0,1-3.175.675c-9.962,1.587-20.016.054-30.033-4.562-.214-.1-.427-.206-.641-.305,1.346,5.409,2.008,11.2,1.049,16.559a31.258,31.258,0,0,1-17.3,22.986,1.6,1.6,0,0,1-1.237-2.954Z"/><path class="cls-24" d="M177.126,572.848c-.082,5.608,3.963,7.893,10.087,7.893s16.057-5.755,16.057-12.246-4.46-11.459-10.583-11.459S177.3,560.8,177.126,572.848Z"/><path class="cls-27" d="M137.148,512.441a2.1,2.1,0,0,0,.667-.045c3.42-.781,6.246-.766,8.4.045a2.147,2.147,0,0,0,1.51-4.019c-2.953-1.11-6.61-1.181-10.863-.211a2.146,2.146,0,0,0,.287,4.23"/><path class="cls-27" d="M175.393,543.157a31.7,31.7,0,0,1-19.937-9.337,32.076,32.076,0,0,1-10.137-24.157,34.179,34.179,0,0,1,10.308-24.609,34.724,34.724,0,0,1,24.438-10.732,33.242,33.242,0,0,1,34.613,33.624,34.6,34.6,0,0,1-10.258,24.617,35,35,0,0,1-24.591,10.712,36.975,36.975,0,0,1-4.436-.118m4.8-64.543a30.161,30.161,0,0,0-21.509,9.455,29.635,29.635,0,0,0-9.072,21.615v.01a29.172,29.172,0,0,0,30.089,29.29,30.438,30.438,0,0,0,21.659-9.431,30.034,30.034,0,0,0,9.025-21.63,28.119,28.119,0,0,0-8.717-21.1,27.736,27.736,0,0,0-17.415-8.106A33.967,33.967,0,0,0,180.193,478.614Z"/><path class="cls-6" d="M175.984,539.194a29.682,29.682,0,0,1-26.719-29.7,30.342,30.342,0,0,1,9.172-21.833,30.875,30.875,0,0,1,21.685-9.514,29.414,29.414,0,0,1,30.685,29.764,30.668,30.668,0,0,1-9.122,21.837,31.03,31.03,0,0,1-21.8,9.558,33.329,33.329,0,0,1-3.9-.109m4.207-58.9a28.8,28.8,0,0,0-20.227,8.876,28.263,28.263,0,0,0-8.553,20.338v.006a27.494,27.494,0,0,0,28.411,27.647,28.948,28.948,0,0,0,20.335-8.915,28.579,28.579,0,0,0,8.5-20.346,27.261,27.261,0,0,0-24.712-27.509A31.308,31.308,0,0,0,180.191,480.289Z"/><path class="cls-27" d="M98.925,545.014A33.41,33.41,0,0,1,68.771,511.53a34.074,34.074,0,0,1,10.3-24.608,34.784,34.784,0,0,1,24.454-10.789,33.317,33.317,0,0,1,34.549,33.674A35.837,35.837,0,0,1,103.27,545.14a37.343,37.343,0,0,1-4.345-.126m4.73-64.591a30.249,30.249,0,0,0-21.526,9.514,29.536,29.536,0,0,0-9.065,21.613v.008a29.093,29.093,0,0,0,30.088,29.291,31.539,31.539,0,0,0,30.63-31.067,28.125,28.125,0,0,0-8.721-21.1,27.736,27.736,0,0,0-17.468-8.147A34.5,34.5,0,0,0,103.655,480.423Z"/><path class="cls-6" d="M99.422,541.219a29.678,29.678,0,0,1-26.721-29.7,30.332,30.332,0,0,1,9.173-21.833,30.86,30.86,0,0,1,21.683-9.513,29.414,29.414,0,0,1,30.686,29.764,30.669,30.669,0,0,1-9.12,21.837,31.04,31.04,0,0,1-21.8,9.557,33.09,33.09,0,0,1-3.9-.109m4.206-58.9A28.8,28.8,0,0,0,83.4,491.19a28.272,28.272,0,0,0-8.553,20.338v.006a27.492,27.492,0,0,0,28.411,27.648,28.95,28.95,0,0,0,20.334-8.917,28.578,28.578,0,0,0,8.5-20.346,27.259,27.259,0,0,0-24.712-27.509A30.9,30.9,0,0,0,103.628,482.315Z"/></g></svg>