<?xml version="1.0" encoding="utf-8"?>
<!-- Generator: Adobe Illustrator 25.2.0, SVG Export Plug-In . SVG Version: 6.00 Build 0)  -->
<svg version="1.1" id="레이어_1" xmlns="http://www.w3.org/2000/svg" xmlns:xlink="http://www.w3.org/1999/xlink" x="0px"
	 y="0px" viewBox="0 0 1600 900" style="enable-background:new 0 0 1600 900;" xml:space="preserve">
<rect y="0" style="fill:#FFFFFF;" width="1600" height="900"/>
<rect x="0" style="fill:#CDEAE5;" width="1600" height="900"/>
<linearGradient id="SVGID_1_" gradientUnits="userSpaceOnUse" x1="800" y1="0" x2="800" y2="900">
	<stop  offset="0" style="stop-color:#FFFFFF"/>
	<stop  offset="0" style="stop-color:#FFFFFF;stop-opacity:0"/>
	<stop  offset="9.514225e-02" style="stop-color:#F9FEFD;stop-opacity:9.514226e-03"/>
	<stop  offset="0.2244" style="stop-color:#E7F9F6;stop-opacity:2.244384e-02"/>
	<stop  offset="0.3734" style="stop-color:#CBF2EB;stop-opacity:3.733708e-02"/>
	<stop  offset="0.5371" style="stop-color:#A3E9DD;stop-opacity:5.370532e-02"/>
	<stop  offset="0.7127" style="stop-color:#70DCC9;stop-opacity:7.127271e-02"/>
	<stop  offset="0.8957" style="stop-color:#32CDB2;stop-opacity:8.956538e-02"/>
	<stop  offset="1" style="stop-color:#0CC4A4;stop-opacity:0.1"/>
</linearGradient>
<rect style="fill:url(#SVGID_1_);" width="1600" height="900"/>
<linearGradient id="SVGID_2_" gradientUnits="userSpaceOnUse" x1="800" y1="-0.5" x2="800" y2="900.5">
	<stop  offset="0" style="stop-color:#FFFFFF"/>
	<stop  offset="0" style="stop-color:#FFFFFF;stop-opacity:0"/>
	<stop  offset="9.514225e-02" style="stop-color:#F9FEFD;stop-opacity:9.514226e-03"/>
	<stop  offset="0.2244" style="stop-color:#E7F9F6;stop-opacity:2.244384e-02"/>
	<stop  offset="0.3734" style="stop-color:#CBF2EB;stop-opacity:3.733708e-02"/>
	<stop  offset="0.5371" style="stop-color:#A3E9DD;stop-opacity:5.370532e-02"/>
	<stop  offset="0.7127" style="stop-color:#70DCC9;stop-opacity:7.127271e-02"/>
	<stop  offset="0.8957" style="stop-color:#32CDB2;stop-opacity:8.956538e-02"/>
	<stop  offset="1" style="stop-color:#0CC4A4;stop-opacity:0.1"/>
</linearGradient>
<rect style="fill:none;stroke:url(#SVGID_2_);stroke-miterlimit:10;" width="1600" height="900"/>
<linearGradient id="SVGID_3_" gradientUnits="userSpaceOnUse" x1="800" y1="-0.5" x2="800" y2="900.5">
	<stop  offset="0" style="stop-color:#FFFFFF"/>
	<stop  offset="0" style="stop-color:#FFFFFF;stop-opacity:0"/>
	<stop  offset="0.1253" style="stop-color:#FEF9FA;stop-opacity:1.253017e-02"/>
	<stop  offset="0.2955" style="stop-color:#FCE7EB;stop-opacity:2.954947e-02"/>
	<stop  offset="0.4915" style="stop-color:#F8CBD3;stop-opacity:4.914898e-02"/>
	<stop  offset="0.7067" style="stop-color:#F3A3B1;stop-opacity:7.067242e-02"/>
	<stop  offset="0.9352" style="stop-color:#EC7186;stop-opacity:9.351528e-02"/>
	<stop  offset="1" style="stop-color:#EA6179;stop-opacity:0.1"/>
</linearGradient>
<rect style="fill:none;stroke:url(#SVGID_3_);stroke-miterlimit:10;" width="1600" height="900"/>
<path style="fill:#FFFFFF;" d="M602.8,886.1c0.2-0.1,0.5-0.2,0.7-0.3c2.8-1,5.6-2.1,8.4-3.1c3.5-1.3,7-2.6,10.5-3.9
	c4.2-1.6,8.4-3.1,12.5-4.7c4.8-1.8,9.7-3.6,14.5-5.4c5.4-2,10.9-4.1,16.3-6.1c6-2.2,12-4.5,18-6.7c6.5-2.4,13.1-4.9,19.6-7.3
	c7.1-2.6,14.1-5.3,21.2-7.9c7.5-2.8,15-5.6,22.6-8.4c8-3,15.9-5.9,23.9-8.9c8.3-3.1,16.7-6.2,25-9.3c8.7-3.2,17.4-6.5,26.1-9.7
	c9-3.4,18.1-6.7,27.1-10.1c9.3-3.5,18.7-7,28-10.4c9.6-3.6,19.2-7.2,28.8-10.7c9.8-3.7,19.6-7.3,29.4-11c10-3.7,20-7.5,30-11.2
	c10.1-3.8,20.3-7.6,30.4-11.3c10.3-3.8,20.5-7.6,30.8-11.5c10.3-3.9,20.7-7.7,31-11.6c10.4-3.9,20.8-7.7,31.1-11.6
	c10.4-3.9,20.8-7.7,31.2-11.6c10.4-3.9,20.7-7.7,31.1-11.6c10.3-3.8,20.6-7.7,30.9-11.5c10.2-3.8,20.4-7.6,30.6-11.4
	c10.1-3.8,20.1-7.5,30.2-11.3c9.9-3.7,19.8-7.4,29.7-11.1c9.7-3.6,19.4-7.2,29.1-10.8c9.5-3.5,18.9-7.1,28.4-10.6
	c9.2-3.4,18.4-6.8,27.5-10.3c8.9-3.3,17.7-6.6,26.6-9.9c8.5-3.2,17.1-6.4,25.6-9.5c8.1-3,16.3-6.1,24.4-9.1
	c7.7-2.9,15.5-5.8,23.2-8.7c7.3-2.7,14.6-5.4,21.8-8.1c6.8-2.5,13.6-5.1,20.4-7.6c6.3-2.3,12.5-4.7,18.8-7
	c5.7-2.1,11.4-4.3,17.1-6.4c5.1-1.9,10.2-3.8,15.4-5.7c4.5-1.7,9-3.4,13.5-5c3.8-1.4,7.7-2.9,11.5-4.3c3.1-1.2,6.3-2.3,9.4-3.5
	c2.4-0.9,4.8-1.8,7.2-2.7c1.6-0.6,3.3-1.2,4.9-1.8c0.8-0.3,1.7-0.6,2.5-0.9c0.1,0,0.2-0.1,0.3-0.1v0v-5.1v-14.3V359.9
	c-54.5-46.4-121.4-116.8-173.8-216.5c-27.1-51.6-44.9-100.7-56.7-143.5H26.1c18.5,106.1,53.4,235.6,120.5,373.1
	c101.1,207.2,211.4,355.8,320,457.2c0.2,0.2,0.4,0.4,0.6,0.6c14.8,13.8,29.6,26.7,44.3,38.8c3.6,2.3,7.3,4.5,11.4,6.7
	c14.2,7.5,29.3,11.1,45.3,12.3c11.2,0.9,21.8,1.4,32.5-1.9c0,0-0.1,0-0.1,0l0.2-0.1c0.2-0.1,0.4-0.1,0.6-0.2L602.8,886.1z"/>
<path style="fill:#FFFFFF;" d="M602.8,886.1c0.2-0.1,0.5-0.2,0.7-0.3c2.8-1,5.6-2.1,8.4-3.1c3.5-1.3,7-2.6,10.5-3.9
	c4.2-1.6,8.4-3.1,12.5-4.7c4.8-1.8,9.7-3.6,14.5-5.4c5.4-2,10.9-4.1,16.3-6.1c6-2.2,12-4.5,18-6.7c6.5-2.4,13.1-4.9,19.6-7.3
	c7.1-2.6,14.1-5.3,21.2-7.9c7.5-2.8,15-5.6,22.6-8.4c8-3,15.9-5.9,23.9-8.9c8.3-3.1,16.7-6.2,25-9.3c8.7-3.2,17.4-6.5,26.1-9.7
	c9-3.4,18.1-6.7,27.1-10.1c9.3-3.5,18.7-7,28-10.4c9.6-3.6,19.2-7.2,28.8-10.7c9.8-3.7,19.6-7.3,29.4-11c10-3.7,20-7.5,30-11.2
	c10.1-3.8,20.3-7.6,30.4-11.3c10.3-3.8,20.5-7.6,30.8-11.5c10.3-3.9,20.7-7.7,31-11.6c10.4-3.9,20.8-7.7,31.1-11.6
	c10.4-3.9,20.8-7.7,31.2-11.6c10.4-3.9,20.7-7.7,31.1-11.6c10.3-3.8,20.6-7.7,30.9-11.5c10.2-3.8,20.4-7.6,30.6-11.4
	c10.1-3.8,20.1-7.5,30.2-11.3c9.9-3.7,19.8-7.4,29.7-11.1c9.7-3.6,19.4-7.2,29.1-10.8c9.5-3.5,18.9-7.1,28.4-10.6
	c9.2-3.4,18.4-6.8,27.5-10.3c8.9-3.3,17.7-6.6,26.6-9.9c8.5-3.2,17.1-6.4,25.6-9.5c8.1-3,16.3-6.1,24.4-9.1
	c7.7-2.9,15.5-5.8,23.2-8.7c7.3-2.7,14.6-5.4,21.8-8.1c6.8-2.5,13.6-5.1,20.4-7.6c6.3-2.3,12.5-4.7,18.8-7
	c5.7-2.1,11.4-4.3,17.1-6.4c5.1-1.9,10.2-3.8,15.4-5.7c4.5-1.7,9-3.4,13.5-5c3.8-1.4,7.7-2.9,11.5-4.3c3.1-1.2,6.3-2.3,9.4-3.5
	c2.4-0.9,4.8-1.8,7.2-2.7c1.6-0.6,3.3-1.2,4.9-1.8c0.8-0.3,1.7-0.6,2.5-0.9c0.1,0,0.2-0.1,0.3-0.1v0v-5.1v-14.3V359.9
	c-54.5-46.4-121.4-116.8-173.8-216.5c-27.1-51.6-44.9-100.7-56.7-143.5H26.1c18.5,106.1,53.4,235.6,120.5,373.1
	c101.1,207.2,211.4,355.8,320,457.2c0.2,0.2,0.4,0.4,0.6,0.6c14.8,13.8,29.6,26.7,44.3,38.8c3.6,2.3,7.3,4.5,11.4,6.7
	c14.2,7.5,29.3,11.1,45.3,12.3c11.2,0.9,21.8,1.4,32.5-1.9c0,0-0.1,0-0.1,0l0.2-0.1c0.2-0.1,0.4-0.1,0.6-0.2L602.8,886.1z"/>
<path style="fill:#E1EFEC;" d="M600.7,886.8c0.2-0.1,0.4-0.1,0.6-0.2l1.5-0.5c0.2-0.1,0.5-0.2,0.7-0.3c2.8-1,5.6-2.1,8.4-3.1
	c3.5-1.3,7-2.6,10.5-3.9c4.2-1.6,8.4-3.1,12.5-4.7c4.8-1.8,9.7-3.6,14.5-5.4c5.4-2,10.9-4.1,16.3-6.1c6-2.2,12-4.5,18-6.7
	c6.5-2.4,13.1-4.9,19.6-7.3c7.1-2.6,14.1-5.3,21.2-7.9c7.5-2.8,15-5.6,22.6-8.4c8-3,15.9-5.9,23.9-8.9c8.3-3.1,16.7-6.2,25-9.3
	c8.7-3.2,17.4-6.5,26.1-9.7c9-3.4,18.1-6.7,27.1-10.1c9.3-3.5,18.7-7,28-10.4c9.6-3.6,19.2-7.2,28.8-10.7c9.8-3.7,19.6-7.3,29.4-11
	c10-3.7,20-7.5,30-11.2c10.1-3.8,20.3-7.6,30.4-11.3c10.3-3.8,20.5-7.6,30.8-11.5c10.3-3.9,20.7-7.7,31-11.6
	c10.4-3.9,20.8-7.7,31.1-11.6c10.4-3.9,20.8-7.7,31.2-11.6c10.4-3.9,20.7-7.7,31.1-11.6c10.3-3.8,20.6-7.7,30.9-11.5
	c10.2-3.8,20.4-7.6,30.6-11.4c10.1-3.8,20.1-7.5,30.2-11.3c9.9-3.7,19.8-7.4,29.7-11.1c9.7-3.6,19.4-7.2,29.1-10.8
	c9.5-3.5,18.9-7.1,28.4-10.6c9.2-3.4,18.4-6.8,27.5-10.3c8.9-3.3,17.7-6.6,26.6-9.9c8.5-3.2,17.1-6.4,25.6-9.5
	c8.1-3,16.3-6.1,24.4-9.1c7.7-2.9,15.5-5.8,23.2-8.7c7.3-2.7,14.6-5.4,21.8-8.1c6.8-2.5,13.6-5.1,20.4-7.6c6.3-2.3,12.5-4.7,18.8-7
	c5.7-2.1,11.4-4.3,17.1-6.4c5.1-1.9,10.2-3.8,15.4-5.7c4.5-1.7,9-3.4,13.5-5c3.8-1.4,7.7-2.9,11.5-4.3c3.1-1.2,6.3-2.3,9.4-3.5
	c2.4-0.9,4.8-1.8,7.2-2.7c1.6-0.6,3.3-1.2,4.9-1.8c0.8-0.3,1.7-0.6,2.5-0.9c0.1,0,0.2-0.1,0.3-0.1v0v-5.1l0,0
	c-153,40.6-997.6,264.8-998.5,265.1c2.8,1.9,8.5,6.6,9.8,7.7c3.5,3,8.6,7.8,11.3,11.6c7.2,10.2,10.5,21.4,10.8,34.7
	c0.3,14.6-1.7,26.5-10,37.9C616.4,875.7,611.5,882.3,600.7,886.8C600.6,886.8,600.6,886.8,600.7,886.8c-0.1,0-0.1,0.1-0.2,0.1
	L600.7,886.8z"/>
<path style="fill:#FFFFFF;" d="M0-0.4v181.6c12,67.7,45.4,148.7,73.6,227C148,615.3,271.1,782.8,352.1,900h89.5
	c25.1-8.9,50.3-17.8,75.4-26.7c-2-1.2-3.9-2.3-5.7-3.5c-14.7-12.1-29.5-25-44.3-38.8c-0.2-0.2-0.4-0.4-0.6-0.6
	C358,728.9,247.6,580.3,146.5,373.1C79.4,235.6,44.5,106.1,26.1,0"/>
<g>
	<path style="opacity:5.000000e-02;" d="M73.6,408.3C45.4,330,12,248.9,0,181.3v59.6c14.8,56.4,38.6,118.7,59.2,179.4
		C126.9,619,239.5,782.5,318.3,900h33.8C271.1,782.8,148,615.3,73.6,408.3z"/>
	<path style="opacity:5.000000e-02;" d="M522.8,876.4c-2-1-3.9-2.1-5.7-3.2c0,0,0,0,0,0c-14.2,5-61.2,21.7-75.4,26.7h31.3
		c7.3-2.4,49.8-17.6,57.1-20.1c0,0,0,0-0.1,0C527.6,878.8,525.2,877.7,522.8,876.4z"/>
</g>
<path style="opacity:5.000000e-02;" d="M1600,514.2c-0.1,0-999.1,372.6-999.3,372.6l-0.2,0.1c0,0,0.1,0,0.1,0
	c-10.7,3.3-21.3,2.8-32.5,1.9c-16-1.2-31.1-4.7-45.3-12.3c-4.1-2.2-7.9-4.4-11.4-6.7c-14.7-12.1-29.5-25-44.3-38.8
	c-0.2-0.2-0.4-0.4-0.6-0.6C358,728.9,247.6,580.3,146.5,373.1C79.4,235.6,44.5,106.1,26.1,0h-20c18.7,108.4,54.1,240.9,122,381.5
	C230.5,593.3,330.3,745.3,440.3,849c0.2,0.2,0.4,0.4,0.6,0.6c6.5,6.2,12.1,12.3,18.7,18.4c6.4,5.9,12.9,12.8,19.6,18.4
	c6.3,5.3,12.6,10.2,19.3,13.6h158.1c1.3-0.5,942.8-373.7,943.5-374V514.2z"/>
<g>
	<path style="fill:#A9E5DB;" d="M463.3,95.6H101.9c-17.9,0-32.5-14.6-32.5-32.5v0c0-17.9,14.6-32.5,32.5-32.5h361.4
		c17.9,0,32.5,14.6,32.5,32.5v0C495.8,81.1,481.2,95.6,463.3,95.6z"/>
	<g>
		<g>
			<path style="fill:#333333;" d="M156.6,60.9c0-6.4,0.8-10.7,3-13c1.4-1.5,3.3-2.3,5.7-2.3c2.4,0,4.4,0.8,5.7,2.3
				c2.2,2.4,3,6.7,3,13c0,6.4-0.8,10.7-3,13.1c-1.3,1.5-3.3,2.2-5.7,2.2c-2.4,0-4.3-0.7-5.7-2.2C157.4,71.6,156.6,67.3,156.6,60.9z
				 M168.1,60.9c0-5.4-0.4-8.4-1.3-9.6c-0.4-0.5-1-0.7-1.5-0.7c-0.6,0-1.2,0.2-1.5,0.7c-0.9,1.2-1.2,4.2-1.2,9.6
				c0,5.5,0.3,8.5,1.2,9.7c0.4,0.5,0.9,0.7,1.5,0.7c0.6,0,1.1-0.2,1.5-0.7C167.7,69.4,168.1,66.4,168.1,60.9z M177.2,45.5h6v32.2h-6
				V45.5z"/>
			<path style="fill:#333333;" d="M193.9,45.9v5h5.2v-5h5.7v6.8h3.8v-7.2h6v23h-6V57.7h-3.8v7.1h-16.6V45.9H193.9z M215,73.1V78h-25
				V66.7h6v6.3H215z M193.9,60h5.2v-4.3h-5.2V60z"/>
			<path style="fill:#333333;" d="M236.2,69.9c-1.6,2.9-5.3,5.2-9.3,6v-5.2c3.8-1.5,6.3-4.1,6.3-13.1V45.9h6v11.7
				c0,9,2.5,11.5,6.3,13.1v5.2C241.6,75.2,238,72.8,236.2,69.9z M248.3,45.5h6v32.2h-6V45.5z"/>
			<path style="fill:#333333;" d="M269.2,50.8h-10.4v-4.9h16.4v3.3c0,9.8-5.1,15.3-17.1,16.3v-5C265.5,59.8,269.2,56.5,269.2,50.8z
				 M260.6,66.2h6v6.8h18.7V78h-24.7V66.2z M278.8,45.5h6v8.1h4.2v5h-4.2v9.5h-6V45.5z"/>
			<path style="fill:#333333;" d="M290.1,60.9c0-7.8,0.7-11.9,2.8-13.9c0.9-0.9,2.2-1.4,4-1.4c1.7,0,3,0.4,4,1.4
				c1.7,1.7,2.5,4.9,2.7,10.7h1.9V45.8h5.2v31.7h-5.2V62.7h-1.8c-0.1,6.7-0.9,10.4-2.7,12.2c-1,1-2.3,1.3-4,1.3c-1.7,0-3-0.4-4-1.3
				C290.8,72.9,290.1,68.8,290.1,60.9z M298.3,60.9c0-6.5-0.1-9.2-0.8-10c-0.2-0.3-0.4-0.4-0.7-0.4c-0.3,0-0.6,0.1-0.7,0.4
				c-0.7,0.9-0.8,3.6-0.8,10c0,6.5,0.1,9.2,0.8,10.1c0.1,0.2,0.4,0.4,0.7,0.4c0.3,0,0.5-0.1,0.7-0.4
				C298.2,70.1,298.3,67.4,298.3,60.9z M317.4,45.5v32.2H312V45.5H317.4z"/>
			<path style="fill:#333333;" d="M335.5,46.1v10.5h2.5V46.1h5.1v29.6h-12.8V46.1H335.5z M335.5,71h2.5v-9.5h-2.5V71z M357.1,45.5
				v32.2h-5.3V62.6H350v14.9h-5.2V45.8h5.2v11.8h1.8v-12H357.1z"/>
			<path style="fill:#333333;" d="M389.8,61.9h-11.6v1.6h9.7v9.4h-19.3V74h20v4.1h-25.9v-9.3h19.3v-1.2h-19.3v-4.1h9.6v-1.6h-11.6
				v-4.4h29.2V61.9z M362.1,51c0-1.4,0.5-2.5,1.6-3.3c2.1-1.5,6-2.1,11.6-2.1c5.6,0,9.5,0.6,11.5,2.1c1.1,0.8,1.7,1.9,1.7,3.3
				c0,1.4-0.6,2.4-1.7,3.3c-2,1.5-6,2.2-11.5,2.2c-5.6,0-9.5-0.6-11.6-2.2C362.6,53.4,362.1,52.4,362.1,51z M382.5,51
				c0-0.2-0.1-0.4-0.4-0.6c-0.8-0.5-3-0.7-6.8-0.7c-3.8,0-6,0.1-6.9,0.7c-0.3,0.2-0.4,0.4-0.4,0.6c0,0.2,0.1,0.4,0.4,0.6
				c0.9,0.5,3.1,0.6,6.9,0.6c3.8,0,6-0.1,6.8-0.6C382.4,51.4,382.5,51.2,382.5,51z"/>
			<path style="fill:#333333;" d="M410,75.7h-8.6V45.9h5.6v24.9h3.7c2.2,0,3.6-0.2,4.7-1.1v-24h5.3v11.8h2.1v-12h5.4v32.2h-5.4V62.6
				h-2.1v14.9h-5.3v-3C414.4,75.4,412.7,75.7,410,75.7z"/>
			<path style="fill:#333333;" d="M433.2,51.9c0-1.8,0.7-3.2,2-4.1c2.2-1.7,6.1-2.3,11.1-2.3c5,0,8.9,0.6,11.1,2.3
				c1.4,1,2.1,2.3,2.1,4.1c0,1.8-0.7,3.1-2.1,4.1c-0.6,0.5-1.4,0.9-2.3,1.2v2.7h5.7v4.7h-29.2v-4.7h5.9v-2.6
				c-0.9-0.3-1.8-0.7-2.4-1.2C433.9,55.1,433.2,53.8,433.2,51.9z M433.2,72.2c0-1.9,0.9-3.3,2.4-4.3c2.2-1.4,6-2.1,10.7-2.1
				c4.7,0,8.5,0.6,10.7,2.1c1.6,1,2.5,2.4,2.5,4.3c0,1.9-0.9,3.3-2.5,4.3c-2.2,1.5-6,2-10.7,2c-4.8,0-8.5-0.6-10.7-2
				C434.1,75.5,433.2,74.1,433.2,72.2z M453.6,51.9c0-0.4-0.2-0.7-0.5-0.9c-1-0.7-3.2-0.9-6.7-0.9c-3.5,0-5.8,0.2-6.7,0.9
				c-0.3,0.2-0.6,0.6-0.6,0.9s0.2,0.7,0.6,0.9c1,0.7,3.2,0.9,6.7,0.9c3.5,0,5.7-0.2,6.7-0.9C453.4,52.6,453.6,52.3,453.6,51.9z
				 M439.1,72.2c0,0.4,0.2,0.7,0.6,1c1,0.6,3.1,0.8,6.7,0.8c3.5,0,5.6-0.2,6.6-0.8c0.4-0.2,0.6-0.5,0.6-1c0-0.4-0.2-0.7-0.6-1
				c-1-0.6-3.1-0.8-6.6-0.8c-3.5,0-5.7,0.3-6.7,0.8C439.3,71.5,439.1,71.8,439.1,72.2z M449.3,58.3c-0.9,0-1.9,0.1-2.9,0.1
				c-1,0-1.9,0-2.8-0.1v1.6h5.7V58.3z"/>
		</g>
	</g>
	<circle style="fill:#D2EAE6;" cx="102.3" cy="63.1" r="28.7"/>
	<circle style="fill:#FFFFFF;" cx="102.3" cy="63.1" r="24.9"/>
	<g>
		<g>
			<path style="fill:#80D1C2;" d="M114.3,60.6h2.5c-1.1-6.4-6.1-11.4-12.5-12.3v2.5C109.3,51.7,113.3,55.6,114.3,60.6z M87.3,60.6
				h2.5c1-4.8,4.7-8.6,9.4-9.7v-2.6C93.1,49.5,88.3,54.4,87.3,60.6z M89.8,65.6h-2.5c1.1,6.1,5.8,11,11.9,12.2v-2.6
				C94.5,74.1,90.8,70.4,89.8,65.6z M104.2,75.3v2.5c6.4-0.9,11.4-5.9,12.5-12.2h-2.5C113.2,70.6,109.2,74.4,104.2,75.3z"/>
		</g>
		<g>
			<path style="fill:#80D1C2;" d="M101.7,44c-0.8,0-1.4,0.6-1.4,1.2v8.6c0,0.7,0.6,1.2,1.4,1.2c0.8,0,1.4-0.6,1.4-1.2v-8.6
				C103.1,44.6,102.5,44,101.7,44z"/>
		</g>
		<g>
			<path style="fill:#80D1C2;" d="M101.7,71.1c-0.8,0-1.4,0.6-1.4,1.2V81c0,0.7,0.6,1.2,1.4,1.2c0.8,0,1.4-0.6,1.4-1.2v-8.6
				C103.1,71.7,102.5,71.1,101.7,71.1z"/>
		</g>
		<g>
			<path style="fill:#80D1C2;" d="M120.2,61.7h-8.6c-0.7,0-1.2,0.6-1.2,1.4c0,0.8,0.6,1.4,1.2,1.4h8.6c0.7,0,1.2-0.6,1.2-1.4
				C121.4,62.3,120.9,61.7,120.2,61.7z"/>
		</g>
		<g>
			<path style="fill:#80D1C2;" d="M93,61.7h-8.6c-0.7,0-1.2,0.6-1.2,1.4c0,0.8,0.6,1.4,1.2,1.4H93c0.7,0,1.2-0.6,1.2-1.4
				C94.3,62.3,93.7,61.7,93,61.7z"/>
		</g>
		<g>
			<circle style="fill:#80D1C2;" cx="101.7" cy="63.1" r="2.4"/>
		</g>
	</g>
</g>
<g>
	<defs>
		<rect id="SVGID_4_" x="0" width="1600" height="900"/>
	</defs>
	<clipPath id="SVGID_5_">
		<use xlink:href="#SVGID_4_"  style="overflow:visible;"/>
	</clipPath>
	<g style="clip-path:url(#SVGID_5_);">
		<path style="fill:#83E8D3;" d="M1435.3,839.7c0,0,7.5-39.7,6-73.5c0,0,25.5-42.1,34.9-79.9c11.4-45.4,3-55-3.4-58.9
			c-5.3-3.3-38-11.6-28.2,39.5l-95.3,59.7l-43.5,40.7l-19.1,40.7l39.4,23.7l106.7,7.9H1435.3z"/>
		<g>
			<path style="fill:#47D7AC;" d="M1435.3,841.9h-2.6l-106.9-7.9c-0.4,0-0.7-0.1-1-0.3l-39.4-23.7c-1-0.6-1.4-1.9-0.9-2.9l19.1-40.7
				c0.1-0.3,0.3-0.5,0.5-0.7l43.5-40.7c0.1-0.1,0.2-0.2,0.3-0.3l94-58.9c-3.7-20.3-1-33.8,8-39.9c9-6.1,20.7-2.4,24-0.4
				c8,5,15.7,16.4,4.4,61.4c-8.8,35.2-31.7,74.6-34.8,79.9c1.4,33.5-6,72.9-6,73.3C1437.3,841.2,1436.4,841.9,1435.3,841.9z
				 M1326.7,829.6l106.2,7.9h0.5c1.4-8.2,6.9-42.1,5.6-71.1c0-0.4,0.1-0.9,0.3-1.3c0.3-0.4,25.4-42.2,34.7-79.2
				c11.9-47.5,1.5-54-2.4-56.5c-2.1-1.3-11.9-4.5-19,0.3c-7.4,5.1-9.4,17.8-5.8,36.8c0.2,0.9-0.2,1.9-1,2.3l-95.1,59.6l-43,40.3
				l-18.1,38.5L1326.7,829.6z"/>
		</g>
		<path style="fill:#FCE7C2;" d="M1153.9,899.8l80.4-75.3l276-3.8c0,0,88.3,79.2,89,79.1"/>
		<path style="fill:none;stroke:#EDB892;stroke-width:1.245;stroke-linecap:round;stroke-linejoin:round;stroke-miterlimit:10;" d="
			M1153.9,899.8l80.4-75.3l276-3.8c0,0,88.3,79.2,89,79.1"/>
		<path style="fill:#F4F4F4;" d="M1281.6,844.4c-1.7,0.4-21.5,27-28.4,44c0,0,24.7-3.4,115.7-1.4c0,0,71.4-3.7,111.3,1.4
			c0,0-8.5-30.2-13.8-35.7c-5.3-5.5-78.7-8.9-98.3,1.9C1368.1,854.6,1331.2,834.2,1281.6,844.4"/>
		<path style="fill:none;stroke:#D8D8D8;stroke-width:1.245;stroke-linecap:round;stroke-linejoin:round;stroke-miterlimit:10;" d="
			M1281.6,844.4c-1.7,0.4-21.5,27-28.4,44c0,0,24.7-3.4,115.7-1.4c0,0,71.4-3.7,111.3,1.4c0,0-8.5-30.2-13.8-35.7
			c-5.3-5.5-78.7-8.9-98.3,1.9C1368.1,854.6,1331.2,834.2,1281.6,844.4z"/>
		<path style="fill:#FFFFFF;" d="M1368.9,881.2c-0.6,0.5,1.3-14.7-1.2-29.4"/>
		<path style="fill:#FAFFFF;" d="M1459.9,816.2c8.7,11.2,15.6,49.4,17.2,58c1.7,8.9-51.8-25-111.1,5.9
			c-54.6-31.5-101.4-8.1-100.2-12.8c1.6-5.9,26.6-57.1,26.6-57.1c2.1-0.6,66.4-0.4,77.3,6.8C1369.7,817,1434.6,804.3,1459.9,816.2"
			/>
		<g>
			<path style="fill:#D6E3E8;" d="M1365.9,881.7c-0.3,0-0.5-0.1-0.8-0.2c-40.8-23.5-76.7-16.1-92-13c-5.5,1.1-7.3,1.5-8.5,0.3
				c-0.5-0.5-0.6-1.2-0.5-1.9c1.6-6,25.7-55.3,26.7-57.4c0.2-0.4,0.6-0.7,1-0.8c2.7-0.8,65.2-0.6,78.1,6.6c7-1.3,66.1-12.1,90.5-0.6
				c0.2,0.1,0.4,0.3,0.6,0.5c5.7,7.4,11.6,26.8,17.3,57.7l0.2,1c0.3,1.4-0.4,2.2-0.7,2.6c-1.8,1.6-5.4,0.7-13.3-1.4
				c-18.5-4.8-56.9-14.9-97.9,6.4C1366.4,881.7,1366.2,881.7,1365.9,881.7z M1304.3,861.7c17.2,0,38.6,3.5,61.6,16.6
				c41.8-21.4,80.7-11.2,99.4-6.3c4.2,1.1,8.4,2.2,10,2.1l-0.1-0.7c-5.5-30-11.1-48.8-16.4-56c-24.8-11.2-88.2,1-88.8,1.1
				c-0.4,0.1-0.8,0-1.2-0.2c-9.8-6.5-68-7.1-75.4-6.6c-8.1,16.6-22.6,46.7-25.6,54.6c1.2-0.2,3-0.5,4.7-0.9
				C1279.4,864,1290.5,861.7,1304.3,861.7z"/>
		</g>
		<path style="fill:#9683E5;" d="M1265.3,883.3h113.5l98.9,0.9c0,0,5.9,0.2,5.9,5.8s-5.6,5.5-5.6,5.5h-220.8c0,0-8.5-0.2-7.1-7
			C1251.3,882.5,1256.7,883.3,1265.3,883.3"/>
		<g>
			<path style="fill:#6E69D1;" d="M1478,896.6C1478,896.6,1477.9,896.6,1478,896.6l-220.8,0c-0.2,0-4.9-0.1-7.2-3
				c-1.1-1.4-1.5-3.2-1.1-5.4c1.3-6.2,6.5-6.1,13.7-6.1c0.8,0,1.7,0,2.6,0h113.5l98.9,0.9c2.4,0.1,7,1.6,7,6.9c0,2-0.6,3.6-1.8,4.8
				C1481,896.5,1478.4,896.6,1478,896.6z M1260.4,884.4c-5.9,0-8.4,0.5-9.2,4.3c-0.3,1.5-0.1,2.6,0.6,3.5c1.6,2.1,5.4,2.2,5.4,2.2
				H1478c0,0,2.1,0,3.3-1.2c0.7-0.7,1.1-1.8,1.1-3.1c0-4.5-4.6-4.7-4.8-4.7l-98.8-0.9h-113.5h0c-0.9,0-1.8,0-2.7,0
				C1261.8,884.4,1261.1,884.4,1260.4,884.4z"/>
		</g>
		<path style="fill:#F8B242;" d="M1307.7,791.1c0.2-0.5-2.9,13.2-0.5,22.4"/>
		<path style="fill:none;stroke:#47D7AC;stroke-width:2;stroke-linecap:round;stroke-linejoin:round;stroke-miterlimit:10;" d="
			M1307.7,791.1c0.2-0.5-2.9,13.2-0.5,22.4"/>
		<path style="fill:#83E8D3;" d="M1298.6,800.7c0,0,26.7-1.7,35.5,5.2c8.8,6.9,8.2,17.4,4.2,22.3c-4,4.9-16.2,14-45.9,11.3
			c-29.7-2.7-34.3-24.7-33-36.9c1.2-12.2,13.3-41.4,56.3-46.3"/>
		<g>
			<path style="fill:#47D7AC;" d="M1302.9,842.2c-3.3,0-6.8-0.2-10.7-0.5c-12.2-1.1-21.5-5.5-27.6-12.9c-8.1-9.9-7.9-21.8-7.4-26.5
				c1.5-14.6,15.6-43.5,58.3-48.3c1.2-0.1,2.4,0.8,2.5,2c0.1,1.2-0.8,2.4-2,2.5c-39.8,4.5-53,31-54.3,44.3
				c-0.3,3.2-0.8,14.3,6.4,23.1c5.3,6.5,13.6,10.3,24.5,11.3c30.5,2.8,41.3-7.3,43.9-10.4c1.7-2.1,2.5-5.4,2.2-8.7
				c-0.3-2.8-1.6-6.9-6-10.4c-6.6-5.2-26.7-5.2-34-4.8c-1.2,0.1-2.3-0.9-2.4-2.1c-0.1-1.2,0.9-2.3,2.1-2.4
				c1.1-0.1,27.7-1.7,37.1,5.7c4.4,3.5,7.2,8.3,7.7,13.5c0.5,4.5-0.7,9-3.2,12C1336.8,833.7,1326.9,842.2,1302.9,842.2z"/>
		</g>
		<g>
			<path style="fill:#D6E3E8;" d="M1365.6,878.5c-0.2,0-0.4,0-0.5-0.1c-0.8-0.4-0.8-0.4-0.1-6.9c1.3-11.6,4.2-38.8,2-54.9
				c-0.1-0.6,0.3-1.2,1-1.3c0.6-0.1,1.2,0.3,1.3,1c2.3,16.4-0.7,43.8-2,55.5c-0.3,2.5-0.5,4.8-0.5,5.4c0.1,0.4,0,0.9-0.4,1.2
				C1366.1,878.4,1365.9,878.5,1365.6,878.5z"/>
		</g>
		<g>
			<g>
				<path style="fill:#FFFFFF;" d="M1243.7,555.9c-1.6-0.5-3.1-0.8-4.5-1c-8.1-0.8-13,3.5-14.6,12.8c-0.9,7.6,0.4,15.2,3.9,22.9
					c3.5,7.7,8.6,14.8,15.3,21.4c15.6-5.6,28-14.7,37.3-27.3C1269.5,570.1,1257.1,560.4,1243.7,555.9"/>
				<path style="fill:#47D7AC;" d="M1244.5,614.6c-0.9,0.2-1.8,0-2.5-0.7c-6.9-6.8-12.2-14.3-15.8-22.2c-3.7-8.1-5.1-16.2-4.2-24.3
					c2.3-13.7,10.8-15.8,17.5-15.1c1.5,0.1,3.2,0.5,5,1c13.8,4.7,26.8,14.7,38.7,29.8c0.7,0.9,0.8,2.2,0.1,3.2
					c-9.6,12.9-22.5,22.4-38.5,28.2L1244.5,614.6 M1234.6,557.8c-3.2,0.8-6.2,3.3-7.4,10.4c-0.8,7,0.4,14.2,3.7,21.4
					c3.2,6.9,7.7,13.4,13.5,19.4c13.6-5.2,24.8-13.3,33.3-24.2c-10.9-13.4-22.6-22.2-34.9-26.4c-1.3-0.4-2.7-0.7-3.8-0.8
					C1237.6,557.5,1236.1,557.4,1234.6,557.8z"/>
				<path style="fill:#FFFFFF;" d="M1397.5,551c-0.3-8.4-2.5-15.9-6.7-22.3c-5.6-7.6-11.9-9.3-18.8-4.8c-1.2,0.7-2.4,1.6-3.6,2.8
					c-9.9,10-16.7,24.2-20.5,42.6c13.9,7.1,29.1,9.6,45.6,7.7C1396.4,568,1397.7,559.3,1397.5,551"/>
				<path style="fill:#47D7AC;" d="M1394,579.4l-0.3,0.1c-16.9,2-32.7-0.7-47.1-8c-1.1-0.5-1.6-1.7-1.4-2.9
					c3.9-18.8,11-33.6,21.3-43.9c1.4-1.3,2.8-2.4,4.1-3.2c5.6-3.6,14-5.6,22.2,5.6c4.5,6.9,6.9,14.9,7.2,23.8
					c0.3,8.7-1.1,17.7-4.2,26.9C1395.6,578.6,1394.9,579.2,1394,579.4 M1350.8,567.7c12.4,5.9,26.1,8.2,40.6,6.7
					c2.5-8,3.7-15.9,3.4-23.4c-0.3-7.9-2.4-15-6.3-20.9c-6.1-8.3-11.3-6.5-15.1-4.1c-1.1,0.6-2.1,1.5-3.2,2.5
					C1361.1,537.7,1354.6,550.9,1350.8,567.7z"/>
				<path style="fill:#FFFFFF;" d="M1419.9,583.6c-13.7-16.5-31.9-26.8-54.7-30.7c-18.7-2.7-36.7-2.1-53.8,1.8
					c-0.2,0.1-0.5,0.1-0.7,0.2c-0.2,0.1-0.5,0.1-0.8,0.2c-0.2,0.1-0.5,0.1-0.7,0.2c-17.1,4.2-33.4,11.7-48.9,22.5
					c-20.3,15-32.4,34.3-36.3,57.8c-2.2,13.4-1.7,28.1,1.3,44.3c1.6,7.6,2.2,14.5,1.7,20.8c-2.7,31.3,7.9,52.3,31.7,62.8
					c2.4,1.1,5,2,7.7,2.9l0.3,0.1c2.3,0.8,4.5,1.5,6.8,2.1c18.4,5.2,37.6,6.7,57.6,4.5c1.4-0.2,2.7-0.3,4.1-0.5
					c8.2-0.7,16.3-2,24.3-3.9c0.7-0.2,1.5-0.4,2.3-0.5c8-1.9,15.8-4.4,23.4-7.4c1.3-0.5,2.6-0.9,3.9-1.4c7.9-3,15.5-6.4,22.6-10.4
					c9.8-5.5,18.8-12,26.9-19.4c1.9-1.7,3.7-3.4,5.4-5.2c2.1-2,3.9-4,5.6-6c16.6-20,16.7-43.5,0.2-70.3c-3.2-5.4-5.8-11.9-7.7-19.3
					C1437,610.4,1429.6,595.4,1419.9,583.6"/>
				<path style="fill:#83E8D3;" d="M1459.1,702.1c6-16.2,3-34.2-9.3-54.2c-3.2-5.4-5.8-11.9-7.7-19.3c-1-3.6-2.2-7.1-3.4-10.4
					c0.3-0.4,0.5-0.8,0.8-1.1c0.6-0.9,0.4-2-0.5-2.6c-0.8-0.6-2-0.4-2.6,0.5c-5.6,8-10.1,16-13.4,23.7c-3.7,8.4-2.9,18.2,2.6,29.2
					c0.9,1.7,1.9,3.3,2.9,4.8c7.4,11.8,17,22.8,28.7,32.9c0.5,0.4,1.1,0.5,1.7,0.4c0.4-0.1,0.7-0.3,1-0.6c0.7-0.8,0.6-2-0.2-2.7
					C1459.5,702.4,1459.3,702.2,1459.1,702.1z"/>
				<path style="fill:#83E8D3;" d="M1246.7,680.2c-6.3-5.4-14-10.6-22.7-15.3c-0.9-0.5-2.1-0.2-2.5,0.8c-0.5,0.9-0.2,2.1,0.8,2.5
					c0.4,0.2,0.8,0.5,1.2,0.7c0.4,3.5,1,7.2,1.7,10.9c1.6,7.6,2.2,14.5,1.7,20.8c-2,23.3,3.4,40.9,16.1,52.7
					c-0.1,0.2-0.2,0.4-0.3,0.6c-0.4,1,0.1,2.1,1,2.5c0.4,0.2,0.8,0.2,1.2,0.1c0.6-0.1,1.1-0.5,1.3-1.1c5.9-14.2,9.6-28.5,10.9-42.3
					c0.2-1.8,0.3-3.7,0.4-5.7C1257.4,695.2,1253.7,686,1246.7,680.2z"/>
				<path style="fill:#47D7AC;" d="M1360.1,771.2c-8.1,1.9-16.4,3.2-24.6,3.9c-1.3,0.2-2.7,0.3-4.1,0.5c-20.3,2.2-40.1,0.6-58.7-4.6
					c-2.3-0.6-4.7-1.4-6.9-2.1l-0.4-0.1c-2.7-0.8-5.4-1.9-7.9-3c-24.8-10.9-36-32.9-33.2-65.4c0.4-6-0.2-12.7-1.7-20
					c-3.1-16.4-3.6-31.6-1.3-45.3c4-24.1,16.5-44.2,37.3-59.5c15.8-11,32.5-18.7,49.9-23l2.3-0.5c17.4-4,35.9-4.6,54.8-1.8
					c23.4,4,42.3,14.7,56.4,31.7c9.9,12,17.6,27.4,22.8,45.9c1.9,7.2,4.4,13.5,7.5,18.7c17,27.7,16.8,52.4-0.5,73.3
					c-1.7,2.1-3.7,4.2-5.8,6.3c-1.7,1.8-3.6,3.6-5.5,5.3c-8.3,7.5-17.5,14.2-27.4,19.8c-7.2,4-14.9,7.6-22.9,10.6
					c-1.3,0.5-2.6,0.9-4,1.4c-7.6,3-15.6,5.5-23.7,7.5L1360.1,771.2 M1309.6,557.7c-16.7,4.1-32.8,11.5-48,22.1
					c-19.6,14.5-31.5,33.3-35.2,56.1c-2.2,13-1.7,27.6,1.3,43.4c1.6,7.7,2.2,14.9,1.8,21.4l0,0.1c-2.6,30.4,7.2,50,30.1,60.1
					c2.3,1,4.8,2,7.4,2.8c0.2,0.1,0.4,0.1,0.6,0.2c2.1,0.7,4.3,1.4,6.5,2c18,5.1,37.1,6.6,56.7,4.5c1.3-0.2,2.7-0.3,4.1-0.5
					c8.1-0.7,16.2-2,24-3.8l2.3-0.5c7.8-1.9,15.6-4.3,23.1-7.3c1.4-0.5,2.7-1,4-1.4c7.7-2.9,15.2-6.3,22.2-10.3
					c9.6-5.4,18.5-11.8,26.5-19.1c1.8-1.6,3.6-3.4,5.3-5.1c2-2,3.9-3.9,5.5-5.9c15.9-19.3,16-41.3,0-67.3c-3.3-5.7-6-12.4-8-20.1
					c-5-17.7-12.3-32.5-21.8-43.9c-13.2-16-31.1-26-53.1-29.8c-18.3-2.7-36-2.1-52.8,1.7L1309.6,557.7z M1226.8,700.6L1226.8,700.6
					L1226.8,700.6z"/>
				<path d="M1309.7,687.5c1-3.8,1-8.1-0.2-12.9c-1.1-4.8-3-8.7-5.6-11.7c-2.6-2.9-5.2-4.1-7.8-3.5c-2.6,0.6-4.4,2.8-5.4,6.6
					c-1,3.9-1,8.2,0.1,13c1.1,4.8,3,8.6,5.7,11.6c2.6,3,5.2,4.3,7.8,3.6C1306.9,693.6,1308.7,691.4,1309.7,687.5"/>
				<path style="fill:#83E8D3;" d="M1297.2,642.7l0.2,0c1.4-0.1,2.6-0.7,3.6-1.9c1-1,1.4-2.3,1.3-3.8c-0.1-1.4-0.7-2.7-1.8-3.7
					c-1-1-2.2-1.4-3.6-1.4l-20.4,1.2c-1.4,0.1-2.6,0.7-3.5,1.8c-1,1.2-1.4,2.5-1.3,3.9c0.1,1.5,0.7,2.7,1.7,3.6
					c1,0.9,2.1,1.4,3.3,1.5l0.4,0L1297.2,642.7"/>
				<path style="fill:#47D7AC;" d="M1298.6,644.4c-0.4,0.1-0.8,0.1-1.2,0.2l-0.4,0l-19.8,1.1c-0.3,0-0.6,0.1-0.9,0
					c-1.6-0.1-3-0.8-4.3-1.9c-1.4-1.3-2.2-2.9-2.3-4.9c-0.1-2,0.5-3.7,1.7-5.3c1.3-1.5,2.9-2.3,4.8-2.4l20.5-1.2c2,0,3.6,0.6,5,1.9
					c1.5,1.4,2.3,3.1,2.4,5c0.1,2-0.5,3.8-1.8,5.1C1301.3,643.3,1300,644.1,1298.6,644.4 M1297.6,644.5L1297.6,644.5L1297.6,644.5z
					 M1297.6,644.5L1297.6,644.5L1297.6,644.5z M1296.3,644.3L1296.3,644.3L1296.3,644.3z M1297.5,640.8c0.8-0.1,1.4-0.5,1.9-1.2
					l0.1-0.2c0.6-0.6,0.9-1.4,0.8-2.3c-0.1-1-0.4-1.8-1.2-2.5c-0.6-0.6-1.4-0.9-2.3-0.9l-20.3,1.2c-0.9,0.1-1.6,0.4-2.2,1.1
					c-0.6,0.7-0.9,1.6-0.8,2.6c0.1,1,0.4,1.7,1.1,2.3c0.7,0.6,1.4,0.9,2.1,1h0l0.1,0l20.1-1.1L1297.5,640.8z M1277,642L1277,642
					L1277,642z M1276.5,642L1276.5,642L1276.5,642z"/>
				<path d="M1364.3,661.7c1.1,4.8,3,8.6,5.7,11.6c2.6,3,5.2,4.3,7.8,3.6c2.6-0.6,4.4-2.9,5.4-6.8c1.1-3.8,1-8.1-0.1-12.9
					c-1.1-4.8-3-8.7-5.7-11.6c-2.6-2.9-5.2-4.1-7.8-3.5c-2.6,0.6-4.4,2.8-5.4,6.6C1363.1,652.6,1363.1,656.9,1364.3,661.7"/>
				<path style="fill:#83E8D3;" d="M1379.3,609.7c-1.3-0.5-2.6-0.5-3.9,0l-18.8,8.1c-1.2,0.6-2.1,1.6-2.6,2.9
					c-0.5,1.5-0.5,2.9,0.1,4.2c0.6,1.4,1.6,2.3,2.9,2.8c1.4,0.7,2.7,0.7,4.1,0.1l0.1-0.1l18.6-8l0.3-0.2c1-0.6,1.8-1.5,2.3-2.8
					c0.5-1.3,0.5-2.6-0.1-4C1381.6,611.3,1380.6,610.3,1379.3,609.7"/>
				<path style="fill:#47D7AC;" d="M1360.6,629.8c-1.4,0.3-2.9,0.2-4.4-0.5c-1.8-0.6-3.2-2-3.9-3.8c-0.8-1.7-0.8-3.6-0.1-5.5
					c0.6-1.8,1.8-3.1,3.5-3.9l18.9-8.1c1.8-0.7,3.6-0.7,5.4,0c1.9,0.8,3.2,2.1,4,4c0.8,1.8,0.8,3.6,0.1,5.4c-0.6,1.6-1.6,2.8-3,3.7
					c-0.2,0.2-0.5,0.3-0.8,0.4l-18.2,7.9l-0.4,0.2C1361.3,629.6,1360.9,629.7,1360.6,629.8 M1361.5,629.4L1361.5,629.4L1361.5,629.4
					z M1361.5,629.4L1361.5,629.4L1361.5,629.4z M1362.5,628.7L1362.5,628.7L1362.5,628.7z M1376.5,611.3l-0.5,0.2l-18.7,8.1
					c-0.7,0.4-1.2,0.9-1.5,1.8c-0.4,1-0.4,1.9,0,2.8c0.4,0.9,1,1.5,1.8,1.8l0.2,0.1c0.8,0.4,1.5,0.4,2.3,0.2l0.4-0.2l18.5-8l0.1-0.1
					l0,0c0.7-0.4,1.1-1,1.5-1.8c0.3-0.9,0.3-1.7-0.1-2.6c-0.4-0.9-1-1.5-2-2C1377.9,611.1,1377.2,611.1,1376.5,611.3z M1378.8,617.9
					L1378.8,617.9L1378.8,617.9z M1379.2,617.7"/>
				<path d="M1349.2,719.8c-5.3,1.2-10.2,1-14.6-0.8c-3.3-1.3-5.7-3.3-7.1-5.9c-0.4-0.8-0.2-1.8,0.7-2.3c0.8-0.4,1.8-0.1,2.3,0.7
					c1,1.9,2.8,3.3,5.4,4.4c3.7,1.5,8,1.7,12.5,0.6c4.6-1.1,8.2-3.2,10.9-6.1c1.9-2.1,2.9-4.2,3-6.4c0-0.9,0.8-1.7,1.8-1.6
					c0.9,0,1.7,0.8,1.6,1.8c-0.1,2.9-1.4,5.8-3.8,8.5C1358.7,716.2,1354.5,718.6,1349.2,719.8"/>
			</g>
			<g>
				<g>
					<g>
						<path style="fill:#01B593;" d="M1294.6,732.9c-2,0.5-4.1,0.8-6.2,1.1c-13.4,1.6-25.8-1.8-36.8-10
							c-10.9-8.3-17.4-19.3-19.4-32.5c-2-13.3,1.1-25.4,9.1-36c8.2-10.6,19.2-16.8,32.7-18.3c13.3-1.5,25.6,1.8,36.5,10.1
							c11,8.3,17.5,19.2,19.5,32.5c2,13.3-1.1,25.4-9.3,36C1314,724.6,1305.2,730.4,1294.6,732.9 M1269,644.1
							c-9.3,2.2-16.8,7.1-22.8,14.9c-7.1,9.4-9.7,19.7-7.9,31.4c1.8,11.8,7.4,21.1,17.1,28.6c9.8,7.3,20.4,10.2,32.4,8.8
							c11.9-1.3,21.1-6.5,28.2-15.9c7.3-9.4,9.9-19.7,8.1-31.4l0,0c-1.8-11.8-7.4-21.1-17.2-28.5c-9.7-7.4-20.3-10.3-32.2-8.9
							C1272.7,643.4,1270.8,643.7,1269,644.1z"/>
						<path style="fill:#FFFFFF;" d="M1293,727.4c-1.8,0.4-3.6,0.7-5.5,0.9c-11.9,1.4-22.9-1.7-32.6-9c-9.6-7.4-15.5-17.1-17.3-28.8
							c-1.8-11.8,1-22.5,8.1-31.9c7.3-9.4,17-14.9,29-16.2c11.9-1.4,22.8,1.7,32.4,8.9c9.8,7.4,15.6,17.1,17.3,28.8
							c1.8,11.8-0.9,22.6-8.2,31.9C1310.2,720.1,1302.4,725.2,1293,727.4 M1269.8,646.4c-8.7,2.1-16,6.8-21.7,14.1
							c-6.6,8.7-9.1,18.7-7.5,29.6c1.7,11,7.1,20,16.1,26.9c9,6.8,19.3,9.7,30.4,8.4c11.1-1.3,20-6.3,26.7-15
							c6.7-8.7,9.3-18.7,7.6-29.6l0,0c-1.6-10.9-7.1-20-16.2-26.8c-9-6.8-19.2-9.6-30.2-8.4C1273.2,645.7,1271.5,646,1269.8,646.4z"
							/>
					</g>
					<g>
						<path style="fill:#01B593;" d="M1407.1,706.3c-2,0.5-4.1,0.8-6.2,1.1c-13.4,1.6-25.8-1.8-36.8-10
							c-10.9-8.3-17.4-19.3-19.4-32.5c-2-13.3,1.1-25.4,9.1-36c8.2-10.6,19.2-16.8,32.7-18.3c13.3-1.5,25.6,1.8,36.5,10.1
							c11,8.3,17.5,19.2,19.5,32.5c2,13.3-1.1,25.4-9.3,36C1426.5,698,1417.7,703.8,1407.1,706.3 M1381.5,617.5
							c-9.3,2.2-16.8,7.1-22.8,14.9c-7.1,9.4-9.7,19.7-7.9,31.4c1.8,11.8,7.4,21.1,17.1,28.6c9.8,7.3,20.4,10.2,32.4,8.8
							c11.9-1.3,21.1-6.5,28.2-15.9c7.3-9.4,9.9-19.7,8.1-31.4l0,0c-1.8-11.8-7.4-21.1-17.2-28.5c-9.7-7.4-20.3-10.3-32.2-8.9
							C1385.3,616.8,1383.4,617.1,1381.5,617.5z"/>
						<path style="fill:#FFFFFF;" d="M1405.5,700.8c-1.8,0.4-3.6,0.7-5.5,0.9c-11.9,1.4-22.9-1.7-32.6-9
							c-9.6-7.3-15.5-17.1-17.3-28.8c-1.8-11.8,1-22.5,8.1-31.9c7.3-9.4,17-14.9,29-16.2c11.9-1.4,22.8,1.7,32.4,8.9
							c9.8,7.4,15.6,17.1,17.3,28.8c1.8,11.8-0.9,22.6-8.2,31.9C1422.8,693.5,1414.9,698.6,1405.5,700.8 M1382.3,619.8
							c-8.7,2.1-16,6.8-21.7,14.1c-6.6,8.7-9.1,18.7-7.5,29.6c1.7,11,7.1,20,16.1,26.9c9,6.8,19.3,9.7,30.4,8.4
							c11.1-1.3,20-6.3,26.7-15c6.7-8.7,9.3-18.7,7.6-29.6l0,0c-1.6-10.9-7.1-20-16.2-26.8c-9-6.8-19.2-9.6-30.2-8.4
							C1385.8,619.1,1384,619.4,1382.3,619.8z"/>
					</g>
				</g>
				<g>
					<path style="fill:#01B593;" d="M1348,675.1c-0.6,0.1-1.2,0.1-1.8-0.1c0,0-4.3-1.7-8.4-0.9c-4.1,0.8-7.3,3.6-7.4,3.7
						c-1.2,1.1-3.1,1-4.3-0.2c-1.1-1.2-1-3.1,0.2-4.2c0.2-0.2,4.5-4.1,10.3-5.2c5.9-1.1,11.5,1.2,11.8,1.3c1.5,0.6,2.3,2.4,1.7,3.9
						C1349.7,674.2,1348.9,674.9,1348,675.1z"/>
				</g>
			</g>
		</g>
		<path style="fill:#FFB9B8;" d="M1296.4,755.4c0,0,1-4.7,6.7-6.7c5.7-2,9.8,0,9.8,0l26.8,88c0,0,0.8,15.8-2.9,17.3
			c-3.6,1.5-12.1-9.2-14.2-13C1320.5,837.1,1296.4,755.4,1296.4,755.4z"/>
		<g>
			<path style="fill:#FF88A1;" d="M1335.9,856c-5.9,0-12.8-10.6-14.9-14c-0.1-0.1-0.1-0.3-0.2-0.4l-26.2-85.6
				c-0.1-0.2-0.1-0.4-0.1-0.7c0-0.2,0.5-5.6,7.9-8.3c6.4-2.3,10.3-0.5,11.3,0.1c0,0,0.1,0,0.1,0c0.1,0,0.1,0.1,0.1,0.1l0,0
				c1,0.9,2.5,5.8,14,42c6.5,20.5,12.9,41,12.9,41c0,0.1,0.1,0.2,0.1,0.3c1,6.9,2.5,23.2-3.5,25.2
				C1336.9,855.9,1336.4,856,1335.9,856z M1324.2,840.3c4,6.5,9.7,12.8,12,12.1c2-0.6,2.5-10.7,1.1-21.1
				c-9.6-30.4-23.9-75.7-25.8-81.2c-1-0.4-3.6-1.1-7.8,0.4c-4.3,1.6-5.3,4.1-5.5,4.9L1324.2,840.3z"/>
		</g>
		<path style="fill:#1CB594;" d="M1384.8,805.3c0-3-0.7-5.9-1.8-8.7c-1.2-2.8-2.8-5.2-4.8-7.1c-4.4-4.4-9.6-6.6-15.8-6.5
			c-6.1,0-11.3,2.2-15.7,6.7c-2.1,2.1-3.6,4.5-4.7,7.2c-1.2,2.8-1.7,5.7-1.7,8.7v1.3l12.1-0.1v-1.3c0-2.8,1-5.2,2.9-7.3
			c2.1-2,4.4-3,7.1-3c2.8,0,5.2,1,7.2,2.9c2.1,2,3.1,4.4,3.1,7.3v1.2h12V805.3"/>
		<path style="fill:#83E8D3;" d="M1296.4,800.9c0,0,43.6-5.3,45.9,17.2c2.3,22.6-37.9,21.5-50,18.5c-12.1-3-23.3-13.7-17.4-24.1
			C1280.8,802.3,1296.4,800.9,1296.4,800.9z"/>
		<path style="fill:none;stroke:#47D7AC;stroke-width:2;stroke-linecap:round;stroke-linejoin:round;stroke-miterlimit:10;" d="
			M1296.4,800.9c0,0,43.9-6.2,45.9,17.2c1.8,21.8-37.8,24.2-49.9,21.3"/>
	</g>
</g>
<g>
</g>
<g>
</g>
<g>
</g>
<g>
</g>
<g>
</g>
<g>
</g>
<g>
</g>
<g>
</g>
<g>
</g>
<g>
</g>
<g>
</g>
<g>
</g>
<g>
</g>
<g>
</g>
<g>
</g>
</svg>
