<svg xmlns="http://www.w3.org/2000/svg" viewBox="0 0 1600 900"><defs><style>.cls-1{fill:#d3f2ed;}.cls-2{fill:#8dd9cc;}.cls-3{fill:#9de0d0;}.cls-4{fill:#23384c;opacity:0.58;}.cls-5{fill:#95ccc3;}.cls-6{fill:#b8e0d7;}.cls-7{fill:#82bfb5;}.cls-8{fill:#abd1c8;}.cls-9{fill:#9ed6cb;}.cls-10{fill:#bce6dc;}.cls-11{fill:#a9ded3;}.cls-12{fill:#76ccbe;}.cls-13{fill:#63bfb0;}.cls-14{fill:#a1e0d3;}.cls-15{fill:#fff;}.cls-16{fill:#ace6d9;}.cls-17{fill:#5ba694;}.cls-18{fill:#77c7b5;}.cls-19{fill:#c7ebe1;}.cls-20{fill:#75d4bf;}.cls-21{fill:#43bfa8;}.cls-22{fill:#62d9c3;}.cls-23{fill:#83e8d3;}.cls-24{fill:#47d7ac;}.cls-25{fill:#3fd8b1;}.cls-26{fill:#1cb594;}.cls-27{fill:#333;}</style></defs><g id="Layer_1" data-name="Layer 1"><rect class="cls-1" width="1600" height="900"/><rect class="cls-2" x="-0.916" y="850" width="1600" height="50"/><rect class="cls-3" x="99.508" y="627.221" width="37.078" height="220.268" transform="translate(187.96 -6.11) rotate(14.468)"/><path class="cls-4" d="M160.664,641.534a1.035,1.035,0,0,1-.251-.032l-8.221-2.122a1,1,0,0,1,.5-1.936l8.221,2.121a1,1,0,0,1-.249,1.969Z"/><path class="cls-4" d="M159.24,647.05a1.031,1.031,0,0,1-.25-.031l-8.221-2.122a1,1,0,1,1,.5-1.937l8.221,2.122a1,1,0,0,1-.25,1.968Z"/><path class="cls-4" d="M157.871,652.354a1.031,1.031,0,0,1-.25-.031L149.4,650.2a1,1,0,1,1,.5-1.936l8.221,2.121a1,1,0,0,1-.25,1.968Z"/><path class="cls-4" d="M156.448,657.871a1.035,1.035,0,0,1-.251-.032l-8.22-2.121a1,1,0,1,1,.5-1.937l8.22,2.121a1,1,0,0,1-.249,1.969Z"/><path class="cls-4" d="M155.024,663.387a.986.986,0,0,1-.25-.032l-17.438-4.5a1,1,0,1,1,.5-1.936l17.438,4.5a1,1,0,0,1-.25,1.968Z"/><path class="cls-4" d="M153.628,668.8a1.031,1.031,0,0,1-.25-.031l-8.221-2.121a1,1,0,1,1,.5-1.937l8.221,2.121a1,1,0,0,1-.25,1.968Z"/><path class="cls-4" d="M152.205,674.314a.988.988,0,0,1-.251-.032l-8.221-2.121a1,1,0,0,1,.5-1.937l8.221,2.122a1,1,0,0,1-.249,1.968Z"/><path class="cls-4" d="M150.836,679.618a.988.988,0,0,1-.251-.032l-8.221-2.121a1,1,0,0,1,.5-1.937l8.221,2.122a1,1,0,0,1-.249,1.968Z"/><path class="cls-4" d="M149.413,685.135a.988.988,0,0,1-.251-.032l-8.221-2.122a1,1,0,0,1,.5-1.936l8.221,2.122a1,1,0,0,1-.249,1.968Z"/><path class="cls-4" d="M147.989,690.651a1.033,1.033,0,0,1-.251-.031l-17.437-4.5a1,1,0,0,1,.5-1.937l17.437,4.5a1,1,0,0,1-.249,1.968Z"/><path class="cls-4" d="M146.565,696.167a1.031,1.031,0,0,1-.25-.031l-8.221-2.122a1,1,0,0,1,.5-1.936l8.221,2.121a1,1,0,0,1-.25,1.968Z"/><path class="cls-4" d="M145.142,701.684a.986.986,0,0,1-.25-.032l-8.222-2.121a1,1,0,0,1,.5-1.937l8.222,2.122a1,1,0,0,1-.25,1.968Z"/><path class="cls-4" d="M143.773,706.988a1.033,1.033,0,0,1-.251-.031l-8.22-2.122a1,1,0,1,1,.5-1.937l8.22,2.122a1,1,0,0,1-.249,1.968Z"/><path class="cls-4" d="M142.35,712.505a.988.988,0,0,1-.251-.032l-8.221-2.121a1,1,0,0,1,.5-1.937l8.221,2.122a1,1,0,0,1-.249,1.968Z"/><path class="cls-4" d="M140.926,718.021a.986.986,0,0,1-.25-.032l-17.438-4.5a1,1,0,1,1,.5-1.936l17.438,4.5a1,1,0,0,1-.25,1.968Z"/><path class="cls-4" d="M139.53,723.432a1.035,1.035,0,0,1-.251-.032l-8.22-2.122a1,1,0,1,1,.5-1.936l8.22,2.121a1,1,0,0,1-.249,1.969Z"/><path class="cls-4" d="M138.106,728.948a.986.986,0,0,1-.25-.032l-8.221-2.121a1,1,0,0,1,.5-1.937l8.221,2.121a1,1,0,0,1-.25,1.969Z"/><path class="cls-4" d="M136.738,734.252a1.033,1.033,0,0,1-.251-.031l-8.221-2.122a1,1,0,0,1,.5-1.936l8.221,2.121a1,1,0,0,1-.249,1.968Z"/><path class="cls-4" d="M135.314,739.769a1.035,1.035,0,0,1-.251-.032l-8.22-2.121a1,1,0,0,1,.5-1.937l8.22,2.121a1,1,0,0,1-.249,1.969Z"/><path class="cls-4" d="M133.891,745.285a.988.988,0,0,1-.251-.032l-17.437-4.5a1,1,0,1,1,.5-1.936l17.437,4.5a1,1,0,0,1-.249,1.968Z"/><path class="cls-4" d="M132.458,750.838a.98.98,0,0,1-.25-.032l-8.222-2.121a1,1,0,0,1,.5-1.937l8.222,2.122a1,1,0,0,1-.25,1.968Z"/><path class="cls-4" d="M131.034,756.354a1.031,1.031,0,0,1-.25-.031l-8.221-2.122a1,1,0,1,1,.5-1.936l8.221,2.121a1,1,0,0,1-.25,1.968Z"/><path class="cls-4" d="M129.666,761.659a1.035,1.035,0,0,1-.251-.032l-8.221-2.121a1,1,0,0,1,.5-1.937l8.221,2.121a1,1,0,0,1-.249,1.969Z"/><path class="cls-4" d="M128.242,767.175a1.031,1.031,0,0,1-.25-.031l-8.221-2.122a1,1,0,1,1,.5-1.937l8.221,2.122a1,1,0,0,1-.25,1.968Z"/><path class="cls-4" d="M126.818,772.692a.986.986,0,0,1-.25-.032l-17.438-4.5a1,1,0,0,1,.5-1.936l17.438,4.5a1,1,0,0,1-.25,1.968Z"/><path class="cls-4" d="M125.422,778.1a.986.986,0,0,1-.25-.032l-8.221-2.121a1,1,0,0,1,.5-1.937l8.221,2.122a1,1,0,0,1-.25,1.968Z"/><path class="cls-4" d="M124,783.619a1.033,1.033,0,0,1-.25-.032l-8.222-2.122a1,1,0,1,1,.5-1.936l8.222,2.121a1,1,0,0,1-.25,1.969Z"/><path class="cls-4" d="M122.63,788.923a.988.988,0,0,1-.251-.032l-8.22-2.121a1,1,0,1,1,.5-1.937l8.22,2.122a1,1,0,0,1-.249,1.968Z"/><path class="cls-4" d="M121.207,794.439a.988.988,0,0,1-.251-.032l-8.221-2.121a1,1,0,0,1,.5-1.936l8.221,2.121a1,1,0,0,1-.249,1.968Z"/><path class="cls-4" d="M119.783,799.956a1.033,1.033,0,0,1-.25-.032l-17.438-4.5a1,1,0,0,1,.5-1.937l17.438,4.5a1,1,0,0,1-.25,1.969Z"/><path class="cls-4" d="M118.36,805.472a.988.988,0,0,1-.251-.032l-8.221-2.121a1,1,0,0,1,.5-1.937l8.221,2.122a1,1,0,0,1-.249,1.968Z"/><path class="cls-4" d="M116.936,810.989a.986.986,0,0,1-.25-.032l-8.221-2.122a1,1,0,1,1,.5-1.936l8.221,2.122a1,1,0,0,1-.25,1.968Z"/><path class="cls-4" d="M115.567,816.293a.986.986,0,0,1-.25-.032L107.1,814.14a1,1,0,0,1,.5-1.937l8.221,2.122a1,1,0,0,1-.25,1.968Z"/><path class="cls-4" d="M114.144,821.809a.986.986,0,0,1-.25-.032l-8.222-2.121a1,1,0,0,1,.5-1.937l8.222,2.122a1,1,0,0,1-.25,1.968Z"/><path class="cls-4" d="M112.72,827.326a1.033,1.033,0,0,1-.25-.032l-17.438-4.5a1,1,0,0,1,.5-1.937l17.438,4.5a1,1,0,0,1-.25,1.969Z"/><path class="cls-4" d="M111.324,832.736a.986.986,0,0,1-.25-.032l-8.221-2.121a1,1,0,0,1,.5-1.937l8.221,2.122a1,1,0,0,1-.25,1.968Z"/><path class="cls-4" d="M109.9,838.252a1.033,1.033,0,0,1-.251-.031l-8.221-2.122a1,1,0,1,1,.5-1.936l8.221,2.121a1,1,0,0,1-.249,1.968Z"/><path class="cls-4" d="M108.532,843.557a1.035,1.035,0,0,1-.251-.032l-8.22-2.122a1,1,0,1,1,.5-1.936l8.22,2.121a1,1,0,0,1-.249,1.969Z"/><rect class="cls-5" x="87.855" y="680.544" width="12.315" height="168.616" transform="translate(-130.308 27.616) rotate(-9.916)"/><path class="cls-6" d="M73.733,654.839l-.305,28.025,6.066-1.061,6.065-1.06-9.794-26.259A1.049,1.049,0,0,0,73.733,654.839Z"/><path class="cls-5" d="M73.734,654.725l-.123,11.307,6.066-1.061-3.952-10.594A1.028,1.028,0,0,0,73.734,654.725Z"/><rect class="cls-7" x="74.014" y="679.745" width="12.315" height="168.615" transform="matrix(0.955, -0.297, 0.297, 0.955, -223.432, 58.341)"/><path class="cls-8" d="M45.945,657.551l3.294,27.832,5.879-1.83,5.88-1.83L47.915,656.938A1.049,1.049,0,0,0,45.945,657.551Z"/><path class="cls-7" d="M45.932,657.438l1.329,11.229,5.879-1.83-5.278-10A1.028,1.028,0,0,0,45.932,657.438Z"/><rect class="cls-9" x="123.222" y="687.26" width="12.315" height="168.615" transform="translate(400.227 37.608) rotate(29.774)"/><path class="cls-10" d="M184.033,673.961,165.9,695.331l5.344,3.058,5.345,3.058,9.233-26.462A1.049,1.049,0,0,0,184.033,673.961Z"/><path class="cls-9" d="M184.106,673.874l-7.315,8.622,5.345,3.057,3.725-10.675A1.028,1.028,0,0,0,184.106,673.874Z"/><path class="cls-11" d="M143.571,850H75.322a8.175,8.175,0,0,1-8.175-8.175V749.64h84.6v92.185A8.175,8.175,0,0,1,143.571,850Z"/><polygon class="cls-12" points="913.474 836.022 686.442 836.022 707.061 770.267 892.801 770.267 913.474 836.022"/><polygon class="cls-13" points="913.474 836.022 892.801 770.267 707.061 770.267 855.593 836.022 913.474 836.022"/><path class="cls-12" d="M974.256,852.984h-348.6v-6.326A10.62,10.62,0,0,1,636.3,836.022h327.29a10.64,10.64,0,0,1,10.667,10.636Z"/><path class="cls-14" d="M1365.665,720.5V147.179a21.306,21.306,0,0,0-21.245-21.21H255.5a21.269,21.269,0,0,0-21.148,21.21V720.5Z"/><rect class="cls-15" x="278.345" y="169.991" width="1043.226" height="506.489"/><path class="cls-12" d="M1365.675,720.5v28.584a21.284,21.284,0,0,1-21.249,21.184H255.519a21.278,21.278,0,0,1-21.194-21.184V720.5Z"/><path class="cls-15" d="M1412.143,734.6h148.509a11.151,11.151,0,0,1,11.152,11.152v21.288a11.151,11.151,0,0,1-11.152,11.152H1412.143"/><path class="cls-16" d="M1560.652,781.524H1403.025V731.258h157.627a14.488,14.488,0,0,1,14.488,14.488v21.29A14.488,14.488,0,0,1,1560.652,781.524Z"/><path class="cls-17" d="M1560.15,850h-150.4a.009.009,0,0,1-.01-.01v-5.78a.01.01,0,0,1,.01-.01V809.983a.01.01,0,0,1-.01-.01v-5.78a.009.009,0,0,1,.01-.01h150.635A22.909,22.909,0,1,1,1560.15,850Z"/><path class="cls-18" d="M1406.852,689.989H1553.56A18.437,18.437,0,0,1,1572,708.426v3.144a18.437,18.437,0,0,1-18.437,18.437H1406.852a0,0,0,0,1,0,0V689.989A0,0,0,0,1,1406.852,689.989Z"/><path class="cls-19" d="M1399.435,807.18H1544.57a20.009,20.009,0,0,1,20.009,20.009v0A20.009,20.009,0,0,1,1544.57,847.2H1399.435a0,0,0,0,1,0,0V807.18A0,0,0,0,1,1399.435,807.18Z"/><path class="cls-18" d="M1544.331,850H1396.849a2.9,2.9,0,0,1-2.9-2.9h0a2.9,2.9,0,0,1,2.9-2.9h147.517a17.109,17.109,0,1,0,.228-34.217H1396.849a2.9,2.9,0,0,1-2.9-2.9h0a2.9,2.9,0,0,1,2.9-2.9h147.745a22.909,22.909,0,1,1-.263,45.817Z"/><path class="cls-17" d="M1556.827,803.487h-157.5a2,2,0,0,1-2-2h0a2,2,0,0,1,2-2V786.361a2,2,0,0,1-2-2h0a2,2,0,0,1,2-2h157.691a10.575,10.575,0,0,1,10.562,10.759A10.686,10.686,0,0,1,1556.827,803.487Z"/><path class="cls-20" d="M1543.3,781.468H1398.132a3.337,3.337,0,0,1-3.337-3.336h0a3.336,3.336,0,0,1,3.337-3.336H1543.3a7.816,7.816,0,0,0,7.816-7.816V745.691a7.816,7.816,0,0,0-7.816-7.816H1398.132a3.336,3.336,0,0,1-3.337-3.336h0a3.336,3.336,0,0,1,3.337-3.336H1543.3a14.487,14.487,0,0,1,14.488,14.488V766.98A14.488,14.488,0,0,1,1543.3,781.468Z"/><path class="cls-19" d="M1401.6,784.8h154.971a0,0,0,0,1,0,0v15.124a0,0,0,0,1,0,0H1401.6a3.386,3.386,0,0,1-3.386-3.386V788.19A3.386,3.386,0,0,1,1401.6,784.8Z" transform="translate(2954.78 1584.732) rotate(180)"/><path class="cls-18" d="M1549.042,803.487H1397.1a2,2,0,0,1-2-2h0a2,2,0,0,1,2-2H1549.08a6.659,6.659,0,0,0,6.708-6.372,6.569,6.569,0,0,0-6.559-6.75H1397.1a2,2,0,0,1-2-2h0a2,2,0,0,1,2-2h152.13a10.576,10.576,0,0,1,10.563,10.759A10.686,10.686,0,0,1,1549.042,803.487Z"/><path class="cls-19" d="M1399.522,689.989H1415.9a18.437,18.437,0,0,1,18.437,18.437v3.144a18.437,18.437,0,0,1-18.437,18.437h-16.374a0,0,0,0,1,0,0V689.989A0,0,0,0,1,1399.522,689.989Z"/><path class="cls-17" d="M1418.491,689.989h-23.16a2.037,2.037,0,0,0-2.037,2.037v.375a2.036,2.036,0,0,0,2.037,2.036h23.16a11.393,11.393,0,0,1,11.393,11.393v8.336a11.392,11.392,0,0,1-11.393,11.392h-23.16a2.037,2.037,0,0,0-2.037,2.037v.375a2.037,2.037,0,0,0,2.037,2.037h23.16a15.841,15.841,0,0,0,15.841-15.841V705.83A15.841,15.841,0,0,0,1418.491,689.989Z"/><path class="cls-15" d="M1399.522,697.876h21.685a1,1,0,0,1,1,1v0a1,1,0,0,1-1,1h-21.685a0,0,0,0,1,0,0v-2A0,0,0,0,1,1399.522,697.876Z"/><path class="cls-15" d="M1399.522,702.325h21.685a1,1,0,0,1,1,1v0a1,1,0,0,1-1,1h-21.685a0,0,0,0,1,0,0v-2A0,0,0,0,1,1399.522,702.325Z"/><path class="cls-15" d="M1399.522,706.773h21.685a1,1,0,0,1,1,1v0a1,1,0,0,1-1,1h-21.685a0,0,0,0,1,0,0v-2A0,0,0,0,1,1399.522,706.773Z"/><path class="cls-15" d="M1399.522,711.221h21.685a1,1,0,0,1,1,1v0a1,1,0,0,1-1,1h-21.685a0,0,0,0,1,0,0v-2A0,0,0,0,1,1399.522,711.221Z"/><path class="cls-15" d="M1399.522,715.669h21.685a1,1,0,0,1,1,1v0a1,1,0,0,1-1,1h-21.685a0,0,0,0,1,0,0v-2A0,0,0,0,1,1399.522,715.669Z"/><path class="cls-15" d="M1399.522,720.118h21.685a1,1,0,0,1,1,1v0a1,1,0,0,1-1,1h-21.685a0,0,0,0,1,0,0v-2a0,0,0,0,1,0,0Z"/><path class="cls-15" d="M1403.025,740.044h140.231a1,1,0,0,1,1,1v0a1,1,0,0,1-1,1H1403.025a0,0,0,0,1,0,0v-2a0,0,0,0,1,0,0Z"/><path class="cls-15" d="M1403.025,745.159h140.231a1,1,0,0,1,1,1v0a1,1,0,0,1-1,1H1403.025a0,0,0,0,1,0,0v-2A0,0,0,0,1,1403.025,745.159Z"/><path class="cls-15" d="M1403.025,750.275h140.231a1,1,0,0,1,1,1v0a1,1,0,0,1-1,1H1403.025a0,0,0,0,1,0,0v-2A0,0,0,0,1,1403.025,750.275Z"/><path class="cls-15" d="M1403.025,755.39h140.231a1,1,0,0,1,1,1v0a1,1,0,0,1-1,1H1403.025a0,0,0,0,1,0,0v-2A0,0,0,0,1,1403.025,755.39Z"/><path class="cls-15" d="M1403.025,760.506h140.231a1,1,0,0,1,1,1v0a1,1,0,0,1-1,1H1403.025a0,0,0,0,1,0,0v-2A0,0,0,0,1,1403.025,760.506Z"/><path class="cls-15" d="M1403.025,765.621h140.231a1,1,0,0,1,1,1v0a1,1,0,0,1-1,1H1403.025a0,0,0,0,1,0,0v-2A0,0,0,0,1,1403.025,765.621Z"/><path class="cls-15" d="M1403.025,770.737h140.231a1,1,0,0,1,1,1v0a1,1,0,0,1-1,1H1403.025a0,0,0,0,1,0,0v-2A0,0,0,0,1,1403.025,770.737Z"/><path class="cls-15" d="M1399.435,813.4h140.231a1,1,0,0,1,1,1v0a1,1,0,0,1-1,1H1399.435a0,0,0,0,1,0,0v-2A0,0,0,0,1,1399.435,813.4Z"/><path class="cls-15" d="M1399.435,818.514h140.231a1,1,0,0,1,1,1v0a1,1,0,0,1-1,1H1399.435a0,0,0,0,1,0,0v-2A0,0,0,0,1,1399.435,818.514Z"/><path class="cls-15" d="M1399.435,823.63h140.231a1,1,0,0,1,1,1v0a1,1,0,0,1-1,1H1399.435a0,0,0,0,1,0,0v-2a0,0,0,0,1,0,0Z"/><path class="cls-15" d="M1399.435,828.745h140.231a1,1,0,0,1,1,1v0a1,1,0,0,1-1,1H1399.435a0,0,0,0,1,0,0v-2a0,0,0,0,1,0,0Z"/><path class="cls-15" d="M1399.435,833.861h140.231a1,1,0,0,1,1,1v0a1,1,0,0,1-1,1H1399.435a0,0,0,0,1,0,0v-2A0,0,0,0,1,1399.435,833.861Z"/><path class="cls-15" d="M1399.435,838.976h140.231a1,1,0,0,1,1,1v0a1,1,0,0,1-1,1H1399.435a0,0,0,0,1,0,0v-2a0,0,0,0,1,0,0Z"/><path class="cls-15" d="M1398.211,788.808h140.231a1,1,0,0,1,1,1v0a1,1,0,0,1-1,1H1398.211a0,0,0,0,1,0,0v-2a0,0,0,0,1,0,0Z"/><path class="cls-15" d="M1398.211,793.923h140.231a1,1,0,0,1,1,1v0a1,1,0,0,1-1,1H1398.211a0,0,0,0,1,0,0v-2A0,0,0,0,1,1398.211,793.923Z"/><rect class="cls-21" x="69.372" y="30.969" width="426.39" height="65" rx="32.5"/><path class="cls-15" d="M156.54,61.427c0-6.289.781-10.539,2.991-12.885a8.219,8.219,0,0,1,11.287,0c2.176,2.346,2.992,6.6,2.992,12.885,0,6.357-.816,10.607-2.992,12.953a8.406,8.406,0,0,1-11.287,0C157.321,72.034,156.54,67.784,156.54,61.427Zm11.423,0c0-5.338-.374-8.261-1.259-9.485a1.978,1.978,0,0,0-1.529-.714,1.885,1.885,0,0,0-1.53.714c-.884,1.224-1.224,4.147-1.224,9.485,0,5.406.34,8.363,1.224,9.553a1.856,1.856,0,0,0,1.53.68,1.945,1.945,0,0,0,1.529-.68C167.589,69.79,167.963,66.833,167.963,61.427Zm8.94-15.162h5.95V78.119H176.9Z"/><path class="cls-15" d="M193.429,46.639V51.6h5.133V46.639h5.609V53.37h3.706v-7.1h5.949V68.974h-5.949V58.231h-3.706V65.2h-16.42V46.639Zm20.805,26.823v4.827H189.519V67.207h5.949v6.255ZM193.429,60.509h5.133V56.293h-5.133Z"/><path class="cls-15" d="M235.248,70.368c-1.563,2.822-5.269,5.168-9.213,5.915V71.116c3.705-1.5,6.255-4.046,6.255-12.919V46.639h5.949V58.2c0,8.873,2.483,11.355,6.222,12.919v5.167A14.2,14.2,0,0,1,235.248,70.368Zm11.9-24.1h5.95V78.119h-5.95Z"/><path class="cls-15" d="M267.854,51.466H257.62V46.639H273.8V49.9c0,9.723-5.032,15.162-16.9,16.08V61.087C264.182,60.339,267.785,57.109,267.854,51.466ZM259.286,66.7h5.949v6.766h18.494v4.827H259.286Zm18.052-20.431h5.95v8.023h4.182v4.929h-4.182V68.6h-5.95Z"/><path class="cls-15" d="M288.458,61.427c0-7.717.714-11.8,2.754-13.769a5.26,5.26,0,0,1,3.909-1.36,5.506,5.506,0,0,1,3.943,1.36c1.666,1.666,2.449,4.862,2.653,10.539h1.835V46.468h5.168V77.813h-5.168V63.2h-1.8c-.136,6.629-.884,10.233-2.686,12.034a5.341,5.341,0,0,1-3.943,1.327,5.11,5.11,0,0,1-3.909-1.327C289.172,73.292,288.458,69.212,288.458,61.427Zm8.125,0c0-6.391-.136-9.043-.748-9.927a.829.829,0,0,0-1.428,0c-.646.884-.782,3.536-.782,9.927,0,6.426.136,9.077.782,9.995a.869.869,0,0,0,1.428,0C296.447,70.5,296.583,67.853,296.583,61.427Zm18.834-15.162V78.119h-5.27V46.265Z"/><path class="cls-15" d="M333.337,46.809v10.4h2.516v-10.4h5.065V76.08H328.237V46.809Zm0,24.579h2.516V62.005h-2.516Zm21.384-25.123V78.119h-5.27V63.127h-1.767V77.813h-5.168V46.468h5.168V58.163h1.767v-11.9Z"/><path class="cls-15" d="M387.021,62.379H375.529v1.564h9.553v9.281H365.977v1.19h19.752v4.011h-25.6V69.212H379.2V67.988H360.129V63.943h9.485V62.379H358.19V58.027h28.831Zm-27.4-10.743a3.862,3.862,0,0,1,1.564-3.264c2.04-1.53,5.881-2.107,11.457-2.107,5.506,0,9.382.577,11.388,2.107a4.046,4.046,0,0,1,0,6.494c-2.006,1.53-5.882,2.141-11.388,2.141-5.576,0-9.417-.611-11.457-2.141A3.843,3.843,0,0,1,359.619,51.636Zm20.159,0a.664.664,0,0,0-.407-.612c-.816-.51-2.992-.646-6.731-.646-3.774,0-5.95.136-6.8.646a.726.726,0,0,0-.407.612.821.821,0,0,0,.407.612c.85.51,3.026.612,6.8.612,3.739,0,5.915-.1,6.731-.612A.736.736,0,0,0,379.778,51.636Z"/><path class="cls-15" d="M406.945,76.08H398.48V46.639h5.542V71.218h3.671c2.142,0,3.6-.238,4.624-1.054v-23.7h5.236V58.163h2.04v-11.9h5.371V78.119h-5.371V63.127h-2.04V77.813h-5.236V74.89C411.264,75.773,409.6,76.08,406.945,76.08Z"/><path class="cls-15" d="M429.862,52.588a4.734,4.734,0,0,1,2.006-4.08c2.209-1.632,5.984-2.243,11.015-2.243,4.963,0,8.805.611,10.946,2.243a5.049,5.049,0,0,1,0,8.159,7.67,7.67,0,0,1-2.243,1.156v2.652h5.677v4.658H428.435V60.475h5.812V57.857a8.621,8.621,0,0,1-2.379-1.19A4.731,4.731,0,0,1,429.862,52.588Zm0,19.99a4.824,4.824,0,0,1,2.413-4.284c2.21-1.428,5.882-2.04,10.608-2.04,4.691,0,8.363.612,10.573,2.04a4.973,4.973,0,0,1,0,8.567c-2.21,1.462-5.882,2.006-10.573,2.006-4.726,0-8.4-.544-10.608-2.006A4.824,4.824,0,0,1,429.862,72.578Zm20.159-19.99a1.163,1.163,0,0,0-.509-.918c-.952-.68-3.161-.85-6.629-.85-3.5,0-5.712.17-6.663.85a1.047,1.047,0,0,0,0,1.836c.951.646,3.161.849,6.663.849,3.468,0,5.677-.2,6.629-.849A1.163,1.163,0,0,0,450.021,52.588Zm-14.345,19.99a1.083,1.083,0,0,0,.611.952c.986.612,3.094.816,6.6.816,3.468,0,5.575-.2,6.561-.816a1.05,1.05,0,0,0,.577-.952,1.183,1.183,0,0,0-.577-.986c-.986-.544-3.093-.816-6.561-.816-3.5,0-5.61.272-6.6.816A1.222,1.222,0,0,0,435.676,72.578Zm10.1-13.7c-.918.034-1.87.068-2.889.068-.987,0-1.9-.034-2.788-.068v1.6h5.677Z"/><circle class="cls-22" cx="102.301" cy="63.469" r="28.676"/><circle class="cls-15" cx="102.301" cy="63.469" r="24.853"/><path class="cls-21" d="M114.257,60.975h2.526a14.962,14.962,0,0,0-12.544-12.322v2.515A12.484,12.484,0,0,1,114.257,60.975Zm-26.961,0h2.529a12.492,12.492,0,0,1,9.426-9.687V48.724A14.989,14.989,0,0,0,87.3,60.975Zm2.545,4.987H87.308a14.994,14.994,0,0,0,11.943,12.16V75.556A12.488,12.488,0,0,1,89.841,65.962Zm14.4,9.714V78.2a14.967,14.967,0,0,0,12.531-12.24h-2.527A12.487,12.487,0,0,1,104.239,75.676Z"/><path class="cls-21" d="M101.745,44.352A1.322,1.322,0,0,0,100.36,45.6v8.59a1.393,1.393,0,0,0,2.771,0V45.6A1.323,1.323,0,0,0,101.745,44.352Z"/><path class="cls-21" d="M101.745,71.5a1.322,1.322,0,0,0-1.385,1.247v8.59a1.393,1.393,0,0,0,2.771,0V72.75A1.323,1.323,0,0,0,101.745,71.5Z"/><path class="cls-21" d="M120.172,62.083h-8.589a1.394,1.394,0,0,0,0,2.772h8.589a1.394,1.394,0,0,0,0-2.772Z"/><path class="cls-21" d="M93.02,62.083H84.432a1.394,1.394,0,0,0,0,2.772H93.02a1.394,1.394,0,0,0,0-2.772Z"/><circle class="cls-21" cx="101.746" cy="63.469" r="2.361"/><path class="cls-23" d="M1455.2,575.808c-1.628,3.257-5.184,8.307-6.511,11.359-1.06,2.387-1.992,4.711-2.815,6.971a39.012,39.012,0,0,1-5.375,5.581,28.36,28.36,0,0,1-7.319,4.521c-9.122,3.81-20.109,4.205-27.761-2.877-8.615-7.968-12.6-20.741-13.232-32.171-.49-8.822-.031-26.781,11.651-28.678,2.72-.442,2.259,3.873,4.567,5.375,6.892,4.458,9.722,12.884,11.7,20.409,1.2,4.537,3.056,6.852,3.435,11.515,3.383-1.8,8.8-4.716,12.171-6.534a5.309,5.309,0,0,1,2.53-.854,5.218,5.218,0,0,1,2.387.79c3.162,1.629,7.2,1.838,10.364,3.482C1451.984,575.219,1454.2,575.286,1455.2,575.808Z"/><path class="cls-24" d="M1421.458,580.9a1.489,1.489,0,0,1-.739-2.783l14.251-8.129a1.489,1.489,0,1,1,1.475,2.586l-14.251,8.129A1.47,1.47,0,0,1,1421.458,580.9Z"/><path class="cls-23" d="M1481.477,636.857l1.62,39.737a7.039,7.039,0,0,0-3.684,5.581q-.391,5.415,8.762,5.75a132.859,132.859,0,0,0,16.131-.279q8.09-.729,6.249-11.33l1.453-39.459Z"/><path class="cls-24" d="M1513.967,636.927l-.183,4.872-.2,5.328v.073l-.238,6.4-.073,1.77v.018l-.766,20.82c.766,4.525.255,7.846-1.533,10.163a8.69,8.69,0,0,1-6.495,3.212c-3.157.274-6.588.4-10.237.4q-2.984,0-6.131-.109c-4.434-.164-7.408-1.168-9.124-3.066a5.96,5.96,0,0,1-1.2-2.08,6.521,6.521,0,0,1-.31-2.7,8.833,8.833,0,0,1,1.167-3.741,9.13,9.13,0,0,1,2.464-2.719l-.584-14.488-.2-4.635-.036-1.076-.018-.292-.055-1.478-.037-1.059-.492-12.043v-.036l-.147-3.522a1.876,1.876,0,0,1,.128-.784v-.018a1.946,1.946,0,0,1,3.759.638v.073l.694,16.751.018.748a.51.51,0,0,1,.018.164v.055l.018.292.019.511.219,5.6.638,15.546a1.919,1.919,0,0,1-.949,1.752,5.086,5.086,0,0,0-2.737,4.087,2.293,2.293,0,0,0,.548,1.843c.639.712,2.281,1.624,6.331,1.77a131.127,131.127,0,0,0,15.894-.274,4.971,4.971,0,0,0,3.74-1.7c1.1-1.4,1.35-3.85.785-7.244a2.274,2.274,0,0,1-.055-.511l.73-19.579.037-1.295.073-1.77.182-4.872.091-2.664v-.037l.347-9.178v-.073a1.954,1.954,0,0,1,3.905.146Z"/><path class="cls-23" d="M1447.322,636.857l1.617,39.737a7.04,7.04,0,0,0-3.683,5.581q-.39,5.415,8.763,5.75a132.792,132.792,0,0,0,16.128-.279q8.094-.729,6.252-11.33l1.452-39.459Z"/><path class="cls-24" d="M1479.809,636.927l-.128,3.54v.036l-.438,12.025-.055,1.077-.055,1.5v.274l-.036,1.058-.183,4.635-.547,15.108c.128.73.2,1.442.273,2.117a12.991,12.991,0,0,1-.857,6.441,7.317,7.317,0,0,1-.967,1.642,8.69,8.69,0,0,1-6.5,3.212c-3.157.274-6.587.4-10.237.4q-2.984,0-6.131-.109c-4.434-.164-7.408-1.168-9.123-3.066a6.193,6.193,0,0,1-1.514-4.78,8.713,8.713,0,0,1,3.631-6.46l-.822-20.2-.072-1.77-.092-2.153-.237-6.058v-.073l-.237-5.876-.11-2.5a1.944,1.944,0,0,1,1.861-2.043,1.983,1.983,0,0,1,2.044,1.879v.073l.274,6.678.183,4.508.018.474.2,5.091.018.383.055,1.387.858,21.148a1.922,1.922,0,0,1-.949,1.752,5.084,5.084,0,0,0-2.737,4.087,2.3,2.3,0,0,0,.547,1.843c.639.712,2.281,1.624,6.35,1.77a131.261,131.261,0,0,0,15.893-.274,4.963,4.963,0,0,0,3.723-1.7c1.113-1.423,1.368-3.9.766-7.353l-.036-.4.565-15.327.165-4.617.036-.93.018-.329.055-1.441.037-1.205.583-15.546v-.073a1.957,1.957,0,0,1,2.026-1.879,1.925,1.925,0,0,1,1.733,1.241v.018A1.553,1.553,0,0,1,1479.809,636.927Z"/><path class="cls-23" d="M1482.035,567.2V555.092h-18.528a277.286,277.286,0,0,0-17.3,32.929c-3.2,7.257-7.079,15.449-8.455,21.55-4.243,18.678,1.591,30.373,14.314,38.112l12.615-6.193,6.641,12.724q4.965.166,8.148.279h2.735q3.09-.074,6.084-.445l6.809-12.95,14.233,6.585q1.221-.741,2.343-1.562,16.335-11.838,10.381-38.063a110.456,110.456,0,0,0-6.865-20.037L1492.752,567.2h-10.717"/><path class="cls-24" d="M1523.966,607.622a114.246,114.246,0,0,0-6.989-20.382,1.953,1.953,0,0,0-3.576,1.57,108.81,108.81,0,0,1,6.751,19.688c3.376,14.872,1.3,25.82-6.368,33.3a23.457,23.457,0,0,1-2.025,1.788c-.4.329-.8.639-1.223.949l-.073.037a1.871,1.871,0,0,0-.51.638,1.72,1.72,0,0,0-.22.767l-.018.054v.037l-.091,2.664-.182,4.872-.073,1.77-.037,1.295-.73,19.579a2.274,2.274,0,0,0,.055.511,1.951,1.951,0,0,0,1.825,1.515h.072a1.221,1.221,0,0,0,.256-.018,1.971,1.971,0,0,0,1.7-1.862v-.182l.766-20.82v-.018l.073-1.77.238-6.4v-.073C1524.514,638.734,1528,625.45,1523.966,607.622Z"/><path class="cls-23" d="M1551.578,618.159q-5.217-8-11.218-15.738a273.268,273.268,0,0,0-33.321-35.609l-12.39,6.474q8.978,16.691,15.963,29.135,11.479,20.506,17.524,29.467a38.075,38.075,0,0,0,7.536,8.6,16.133,16.133,0,0,0,8.481,3.795,11.184,11.184,0,0,0,7.033-1.73q11.277-7.981.392-24.391"/><path class="cls-24" d="M1545.174,646.28c-.4,0-.8-.018-1.2-.057a18.088,18.088,0,0,1-9.514-4.2,40.309,40.309,0,0,1-7.961-9.06c-4.027-5.972-9.952-15.931-17.6-29.585a1.954,1.954,0,0,1,3.408-1.911c7.591,13.561,13.459,23.429,17.441,29.33a36.292,36.292,0,0,0,7.158,8.182,14.279,14.279,0,0,0,7.4,3.356,9.218,9.218,0,0,0,5.8-1.416c2.456-1.741,9.6-6.954-.162-21.679-3.44-5.275-7.181-10.527-11.133-15.62a272.392,272.392,0,0,0-33.084-35.353,1.954,1.954,0,0,1,2.615-2.9,276.581,276.581,0,0,1,33.557,35.863c4.016,5.176,7.822,10.515,11.311,15.871,9.851,14.853,4.95,22.909-.9,27.049l-.1.07a13.25,13.25,0,0,1-7.037,2.067"/><path class="cls-25" d="M1484.133,654.353a1.476,1.476,0,0,0-.2-.748,1.935,1.935,0,0,0-1.7-1.059h-2.7a1.68,1.68,0,0,1-.291-.018q-.9-.027-1.971-.055c-.62-.018-1.259-.054-1.952-.073-1.2-.036-2.519-.091-3.942-.145a1.928,1.928,0,0,0-1.9,1.35,1.615,1.615,0,0,0-.072.93,1.716,1.716,0,0,0,.346.84,1.916,1.916,0,0,0,1.5.784c1.423.055,2.718.092,3.923.146.693.019,1.332.037,1.952.073l1.971.055a2.479,2.479,0,0,0,.365.018h2.809a1.927,1.927,0,0,0,1.661-1.076,1.463,1.463,0,0,0,.183-.493,1.819,1.819,0,0,0,.036-.31v-.055A.51.51,0,0,0,1484.133,654.353Z"/><path class="cls-26" d="M1486.7,613.306a17.2,17.2,0,0,0-1.341-6.42,15.114,15.114,0,0,0-3.571-5.3,16.435,16.435,0,0,0-26.845,5.47,16.6,16.6,0,0,0-1.285,6.474v.947l8.987-.054v-.951a7.585,7.585,0,0,1,2.177-5.412,7.543,7.543,0,0,1,10.66-.057,7.169,7.169,0,0,1,2.288,5.414v.892h8.93v-1"/><path class="cls-15" d="M1466.078,420.845a31.628,31.628,0,0,0-8.3-15.152q-7.872-7.026-14.364-.639a14.509,14.509,0,0,0-2.184,2.57q-6.843,10.624-8.086,26.2c-.045.514-.091,1.031-.136,1.545l-.008.25q-.014.624-.029,1.247c-.046.514-.073,1.023-.086,1.521q-.038,1.623-.053,3.3,1.686.438,3.4.8c.812.153,1.624.3,2.436.458.348.042.706.1,1.069.175l.25,0a58.469,58.469,0,0,0,20.07-.872l.224-.044.453-.089q3.16-.747,6.359-1.823.309-2.488.416-4.883a1.2,1.2,0,0,1,.011-.5c0-.168.007-.334.013-.5a50.635,50.635,0,0,0-1.453-13.567"/><path class="cls-24" d="M1433.02,438.831h-.047a1.953,1.953,0,0,1-1.907-2l.034-1.49.008-.135.138-1.544c.849-10.642,3.672-19.76,8.389-27.082a16.726,16.726,0,0,1,2.51-2.958c3.5-3.445,9.345-6.188,16.981.628a33.76,33.76,0,0,1,8.9,16.141,52.754,52.754,0,0,1,1.509,14.081l-.013.5-.022.252a1.953,1.953,0,0,1-3.859.579,3.209,3.209,0,0,1-.022-1.064l.009-.36a48.891,48.891,0,0,0-1.392-13.041,29.848,29.848,0,0,0-7.789-14.243c-5.69-5.073-9.2-3.008-11.617-.632a13.112,13.112,0,0,0-1.941,2.283c-4.334,6.729-6.95,15.24-7.75,25.248l-.136,1.69-.03,1.243a1.954,1.954,0,0,1-1.952,1.906m36.463-3.51"/><path class="cls-15" d="M1562.293,451q-.839-1.113-1.73-2.175a83.219,83.219,0,0,0-46.6-29.022,147.154,147.154,0,0,0-19.2-2.846q-2.289-.225-4.465-.279-5.024-.171-9.934.111a1.48,1.48,0,0,0-.558.111,1.67,1.67,0,0,0-.615,0,2.854,2.854,0,0,1-.557.057,109.313,109.313,0,0,0-38.567,10.605q-26.286,13.168-34.658,39.514a5.335,5.335,0,0,0-.279.837q-.783,2.4-1.4,5.022a7.194,7.194,0,0,0-.166.894l-.057.223a97.224,97.224,0,0,0-2.233,22.436,55.986,55.986,0,0,1-1.451,15.068,59.967,59.967,0,0,0-2.456,19.423,39.367,39.367,0,0,0,.447,4.242,2.662,2.662,0,0,0,.111.726,14.692,14.692,0,0,0,.67,3.126,34.709,34.709,0,0,0,2.847,7.366q.724,1.284,1.563,2.511a1.15,1.15,0,0,0,.334.5,37.543,37.543,0,0,0,11.107,10.773,56.5,56.5,0,0,0,5.135,3.069q2.343,1.284,4.91,2.511a112.008,112.008,0,0,0,41.246,10.215q1.45.111,3.014.222a149.312,149.312,0,0,0,18.251.225q.837-.113,1.73-.168,4.017-.279,8.092-.725,5.748-.727,11.051-1.675.671-.169,1.395-.281a116.941,116.941,0,0,0,21.209-6.361l.39-.168a90.577,90.577,0,0,0,15.348-8.371q1.174-.839,2.345-1.73a74.482,74.482,0,0,0,17.356-18.475,82.63,82.63,0,0,0,8.987-18.7,78.435,78.435,0,0,0,3.739-23.106,69.565,69.565,0,0,0-3.683-21.99,79.99,79.99,0,0,0-6.14-13.729q-.894-1.547-1.841-3.071-.734-1.232-1.507-2.454-.615-.837-1.228-1.675a9.97,9.97,0,0,0-1.005-1.451,9.974,9.974,0,0,1-.949-1.341"/><path class="cls-24" d="M1576.809,474.109a81.493,81.493,0,0,0-6.3-14.087c-.6-1.04-1.2-2.08-1.843-3.12-.511-.839-1.022-1.66-1.551-2.481l-.073-.11-1.168-1.587a10.271,10.271,0,0,0-1.131-1.625,7.367,7.367,0,0,1-.766-1.076l-.128-.183c-.584-.784-1.186-1.532-1.788-2.262a85.546,85.546,0,0,0-47.68-29.688,150.578,150.578,0,0,0-19.433-2.883q-2.353-.219-4.6-.274c-3.376-.128-6.788-.091-10,.11a3.444,3.444,0,0,0-.748.073,3.846,3.846,0,0,0-.8.073l-.328.018a112.1,112.1,0,0,0-39.286,10.8c-17.9,8.978-29.889,22.626-35.619,40.6a7.566,7.566,0,0,0-.328.967c-.529,1.624-1,3.339-1.4,5.091-.073.292-.128.584-.183.894l-.091.383a101.12,101.12,0,0,0-2.244,22.791,54.5,54.5,0,0,1-1.387,14.524,62.247,62.247,0,0,0-2.518,20.017,40.766,40.766,0,0,0,.456,4.325,4.062,4.062,0,0,0,.128.912,15.838,15.838,0,0,0,.73,3.321,36.454,36.454,0,0,0,3.01,7.773c.475.821.986,1.661,1.515,2.464a3.129,3.129,0,0,0,.548.8,39.554,39.554,0,0,0,11.55,11.168,59.806,59.806,0,0,0,5.291,3.175c1.588.857,3.267,1.715,5.018,2.554,2.7,1.259,5.475,2.427,8.285,3.449a111.293,111.293,0,0,0,17.462,4.908,122.848,122.848,0,0,0,16.185,2.044q1.45.11,3.011.219c3.686.274,7.39.4,11.112.4q3.695,0,7.39-.164l.164-.018c.511-.073,1.04-.128,1.606-.164,2.7-.183,5.438-.438,8.193-.73,3.85-.493,7.591-1.058,11.149-1.7l.128-.018c.4-.11.8-.183,1.313-.274a118.626,118.626,0,0,0,21.605-6.478l.383-.164a92.157,92.157,0,0,0,15.711-8.576c.8-.566,1.587-1.15,2.39-1.752a76.9,76.9,0,0,0,17.809-18.977,85.479,85.479,0,0,0,9.215-19.177,80.8,80.8,0,0,0,3.832-23.7A71.482,71.482,0,0,0,1576.809,474.109ZM1573.05,519.2a81.02,81.02,0,0,1-8.758,18.247,73.062,73.062,0,0,1-16.915,17.992c-.766.584-1.533,1.149-2.263,1.679a90.02,90.02,0,0,1-15,8.174l-.383.164a115.471,115.471,0,0,1-20.765,6.241c-.511.073-1.022.182-1.5.292-3.467.62-7.135,1.168-10.857,1.642-2.664.292-5.365.548-8.011.73-.6.037-1.2.091-1.77.164a146.976,146.976,0,0,1-17.936-.219c-1.04-.073-2.044-.146-3.048-.237a110.745,110.745,0,0,1-40.508-10.018c-1.679-.8-3.3-1.623-4.835-2.481a54.538,54.538,0,0,1-4.982-2.974,35.76,35.76,0,0,1-10.547-10.2l-.2-.256-.165-.292c-.51-.766-1.021-1.569-1.441-2.317a32.03,32.03,0,0,1-2.682-6.952l-.037-.128a12.108,12.108,0,0,1-.584-2.7l-.055-.328-.036-.2-.037-.31a40.375,40.375,0,0,1-.419-4.032,57.8,57.8,0,0,1,2.39-18.795v-.055a57.016,57.016,0,0,0,1.515-15.546,96.128,96.128,0,0,1,2.189-21.988l.019-.073.073-.346a5.764,5.764,0,0,1,.127-.694c.4-1.679.84-3.321,1.35-4.854l.037-.127a3.741,3.741,0,0,1,.183-.548l.073-.182c5.382-16.952,16.714-29.871,33.629-38.337a107.7,107.7,0,0,1,37.807-10.419,3.026,3.026,0,0,0,.767-.092,2.14,2.14,0,0,0,.347.037,1.9,1.9,0,0,0,.638-.109c3.212-.183,6.5-.219,9.781-.11,1.4.037,2.864.128,4.342.274a145.7,145.7,0,0,1,18.941,2.792,81.761,81.761,0,0,1,45.544,28.374c.548.657,1.077,1.332,1.588,2.007a15.511,15.511,0,0,0,1.076,1.514,9.489,9.489,0,0,1,.821,1.168l.11.183,1.186,1.624q.766,1.176,1.478,2.354c.6,1,1.2,2.025,1.788,3.029a76.91,76.91,0,0,1,5.985,13.393,67.537,67.537,0,0,1,3.6,21.349A76.81,76.81,0,0,1,1573.05,519.2Z"/><path class="cls-15" d="M1549.848,426.613a31.629,31.629,0,0,0-1.062-17.245q-4.13-9.711-12.725-6.7a14.685,14.685,0,0,0-3.069,1.4q-10.692,6.7-18.53,20.26c-.232.44-.475.887-.724,1.339l-.114.225q-.3.552-.613,1.115-.332.661-.669,1.339-.749,1.447-1.451,2.958,1.338,1.129,2.733,2.179.992.744,2.011,1.45.444.291.892.557l.223.168a57.442,57.442,0,0,0,18.53,7.758l.224.055.446.113q3.18.671,6.53,1.06,1.314-2.115,2.4-4.242l.447-.894a51.072,51.072,0,0,0,4.521-12.892"/><path class="cls-24" d="M1544.907,442.353a1.928,1.928,0,0,1-.859-.2,1.951,1.951,0,0,1-.893-2.613l.444-.892a49.88,49.88,0,0,0,4.333-12.419,29.844,29.844,0,0,0-.983-16.2c-2.985-7.014-7.045-6.638-10.24-5.516a12.873,12.873,0,0,0-2.728,1.236c-6.774,4.242-12.777,10.829-17.8,19.549-.236.413-.471.832-.708,1.261l-.126.245c-.2.37-.385.721-.562,1.075a1.954,1.954,0,0,1-3.493-1.752c.2-.4.4-.79.619-1.179l.056-.117.059-.113q.382-.692.766-1.365c5.347-9.286,11.791-16.331,19.161-20.945a16.782,16.782,0,0,1,3.533-1.606c4.637-1.628,11.091-1.619,15.1,7.8A33.736,33.736,0,0,1,1551.762,427a53.8,53.8,0,0,1-4.66,13.383l-.441.879a1.951,1.951,0,0,1-1.754,1.1"/><path class="cls-23" d="M1575.744,477.234q-.36-1.258-.781-2.511c-.547-1.629-1.181-3.243-1.861-4.851a1.39,1.39,0,0,0-.974-2.6,89.219,89.219,0,0,0-34.673,22.005c-4.832,5.04-7.569,9.389-8.372,13.31a31.758,31.758,0,0,0,.555,13.2c.38,1.363.8,2.709,1.25,3.981a107.407,107.407,0,0,0,15.083,28.6,79.491,79.491,0,0,0,5.375,6.489,1.395,1.395,0,0,0,2.081-1.858l-.028-.031a74.24,74.24,0,0,0,12.521-14.446,82.63,82.63,0,0,0,8.987-18.7,78.435,78.435,0,0,0,3.739-23.106A69.019,69.019,0,0,0,1575.744,477.234Z"/><path class="cls-24" d="M1552.388,555.873a1.953,1.953,0,0,1-1.279-3.432,73.107,73.107,0,0,0,13.184-15,81.194,81.194,0,0,0,8.764-18.247,76.755,76.755,0,0,0,3.636-22.487,67.979,67.979,0,0,0-2.8-18.915c-.246-.8-.511-1.624-.787-2.442-.671-2-1.447-4-2.306-5.97l-.016-.04-.015-.033q-.172-.43-.358-.843a1.954,1.954,0,0,1,3.568-1.6c.14.316.277.637.408.962.9,2.067,1.717,4.177,2.422,6.273q.429,1.275.825,2.56A71.894,71.894,0,0,1,1580.6,496.7a80.793,80.793,0,0,1-3.828,23.7,85.124,85.124,0,0,1-9.213,19.181,77.082,77.082,0,0,1-13.895,15.817,1.957,1.957,0,0,1-1.276.474"/><path class="cls-27" d="M1440.957,510.276a19.48,19.48,0,0,0,2.066-9.321,19.793,19.793,0,0,0-2.066-9.375q-2.062-3.853-5.021-3.854t-5.024,3.854a19.377,19.377,0,0,0-2.12,9.375,19.071,19.071,0,0,0,2.12,9.321q2.064,3.963,5.024,3.963t5.021-3.963"/><path class="cls-23" d="M1439.228,475.7l.1.07a4.168,4.168,0,0,0,4.837-2.808,4.045,4.045,0,0,0-.354-3.068,3.646,3.646,0,0,0-2.164-1.852l-14.605-4.156a3.857,3.857,0,0,0-2.9.37,4.043,4.043,0,0,0-1.882,2.443,3.772,3.772,0,0,0,.311,2.949,3.91,3.91,0,0,0,1.943,1.83l.27.084,14.441,4.138"/><path class="cls-24" d="M1440.337,477.355a4.911,4.911,0,0,1-1.358-.2l-.288-.118-14.163-4.062a1.993,1.993,0,0,1-.6-.2,5.294,5.294,0,0,1-2.549-2.419,5.127,5.127,0,0,1-.425-3.991,5.4,5.4,0,0,1,2.507-3.261,5.248,5.248,0,0,1,3.956-.527l14.649,4.167a5.053,5.053,0,0,1,3.022,2.557,5.415,5.415,0,0,1,.454,4.093,4.895,4.895,0,0,1-2.525,3.162,5.087,5.087,0,0,1-2.681.794m-1.222-.216h0Zm0,0-.831-.438,0,0Zm1.661-2.175a2.143,2.143,0,0,0,1.642-.359l.135-.075a2.112,2.112,0,0,0,1.137-1.449,2.65,2.65,0,0,0-.248-2.058,2.242,2.242,0,0,0-1.367-1.168l-14.545-4.138a2.436,2.436,0,0,0-1.844.252,2.593,2.593,0,0,0-1.212,1.6,2.367,2.367,0,0,0,.19,1.9,2.543,2.543,0,0,0,1.261,1.219l.007,0,.108.027,14.387,4.126Zm-14.641-4.173v0Zm-.336-.127"/><path class="cls-27" d="M1482.539,500.955a19.071,19.071,0,0,0,2.12,9.321q2.064,3.963,5.023,3.963t5.024-3.963a19.094,19.094,0,0,0,2.12-9.321,19.4,19.4,0,0,0-2.12-9.375q-2.067-3.853-5.024-3.854t-5.023,3.854a19.377,19.377,0,0,0-2.12,9.375"/><path class="cls-23" d="M1502.24,465.961a3.857,3.857,0,0,0-2.846-.671l-14.958,2.625a3.636,3.636,0,0,0-2.344,1.619,4.048,4.048,0,0,0-.67,3.012,4.167,4.167,0,0,0,4.522,3.294l.111-.057,14.789-2.622.279-.056a3.929,3.929,0,0,0,2.122-1.619,3.772,3.772,0,0,0,.614-2.9,4.04,4.04,0,0,0-1.619-2.622"/><path class="cls-24" d="M1485.31,477.291a4.986,4.986,0,0,1-3.074-1.092,4.907,4.907,0,0,1-2.19-3.423,5.4,5.4,0,0,1,.878-4.007,5,5,0,0,1,3.21-2.217l15.019-2.636a5.246,5.246,0,0,1,3.884.9,5.428,5.428,0,0,1,2.195,3.529,5.12,5.12,0,0,1-.842,3.936,5.281,5.281,0,0,1-2.78,2.131,2.007,2.007,0,0,1-.616.139l-14.5,2.573-.3.087a4.942,4.942,0,0,1-.878.079m.749-.112h0Zm0,0h0Zm.869-.352,0,0Zm13.087-10.185-.425.031-14.914,2.616a2.217,2.217,0,0,0-1.418,1.006,2.667,2.667,0,0,0-.465,2.007,2.126,2.126,0,0,0,.986,1.573l.127.089a2.142,2.142,0,0,0,1.6.528l.361-.092,14.738-2.613.112-.016,0,0a2.531,2.531,0,0,0,1.376-1.069,2.389,2.389,0,0,0,.393-1.878,2.63,2.63,0,0,0-1.083-1.744A2.357,2.357,0,0,0,1500.016,466.642Zm.485,5.213,0,0Z"/><path class="cls-23" d="M1409.549,496.191a96.1,96.1,0,0,0-6.374-13.589,1.4,1.4,0,0,0-2.458,1.32c.342.636.664,1.246.98,1.847q-.464,5.16-.421,10.666a55.032,55.032,0,0,1-1.451,15.067c-.448,1.639-.816,3.229-1.144,4.8-.552.709-1.1,1.411-1.682,2.156a1.395,1.395,0,1,0,2.193,1.724c3.447-4.384,6.315-8.165,8.519-11.236A13.511,13.511,0,0,0,1409.549,496.191Z"/><path class="cls-24" d="M1398.1,521.271l-.321-.027a1.952,1.952,0,0,1-1.608-2.246,78.85,78.85,0,0,1,1.774-7.985,53.5,53.5,0,0,0,1.381-14.5,108.625,108.625,0,0,1,.683-13.478,1.952,1.952,0,1,1,3.879.449,105.5,105.5,0,0,0-.655,12.958,57.431,57.431,0,0,1-1.511,15.566,75.167,75.167,0,0,0-1.7,7.626,1.955,1.955,0,0,1-1.925,1.634"/><path class="cls-27" d="M1455.964,536.211a7.194,7.194,0,0,1-.928-.06c-4.045-.526-6.217-4.32-6.307-4.482a.725.725,0,0,1,1.264-.711c.019.034,1.921,3.332,5.24,3.756,2.469.316,5.151-1,7.97-3.9a.725.725,0,0,1,1.041,1.009C1461.415,534.737,1458.634,536.211,1455.964,536.211Z"/><path class="cls-23" d="M1415.281,606.76a20.593,20.593,0,0,1-10.782-5.217c-8.616-7.968-12.6-20.741-13.232-32.171-.49-8.822-.032-26.781,11.651-28.678a11.347,11.347,0,0,1,7.857,1.913c6.893,4.458,9.723,12.885,11.7,20.41a74.835,74.835,0,0,1,2.071,12.552c.031.427.079.869.11,1.3.316-.158.617-.332.933-.506C1426.442,580.517,1429.635,600.025,1415.281,606.76Z"/><path class="cls-24" d="M1420.4,609.915c-10.747,0-15.306-4.153-16.047-4.911-12.226-9.882-14.9-26.369-15.4-35.329-.619-10.974.345-29.7,13.744-31.846,3.461-.559,6.3.88,8.844,2.515,7.846,5,11.12,13.982,13.286,22.109,1.322,4.915,2.723,17.1,3.146,22.231a1.49,1.49,0,0,1-2.97.244c-.441-5.354-1.839-17.186-3.053-21.7-2.019-7.576-5.026-15.917-12.012-20.37-2.444-1.565-4.423-2.455-6.769-2.084-11.505,1.841-11.695,20.711-11.243,28.737.812,14.438,6.048,26.553,14.37,33.238a1.654,1.654,0,0,1,.182.173c.029.032,4.09,4.217,14.776,4.008,7.516-.161,12.61-2.47,18.166-8.239a1.489,1.489,0,1,1,2.147,2.065c-6.092,6.325-11.958,8.976-20.249,9.152C1421.011,609.91,1420.706,609.915,1420.4,609.915Z"/><path class="cls-26" d="M1461.825,510.294a2.128,2.128,0,0,1-.667-.045c-3.42-.781-6.246-.766-8.4.044a2.146,2.146,0,0,1-1.51-4.018c2.953-1.11,6.61-1.181,10.863-.211a2.146,2.146,0,0,1-.287,4.23"/><path class="cls-26" d="M1423.58,541.01a36.771,36.771,0,0,1-4.436.117,35,35,0,0,1-24.591-10.711A34.6,34.6,0,0,1,1384.3,505.8a33.242,33.242,0,0,1,34.613-33.624,34.725,34.725,0,0,1,24.438,10.731,34.176,34.176,0,0,1,10.307,24.61,32.073,32.073,0,0,1-10.136,24.157,31.709,31.709,0,0,1-19.937,9.337m-8.86-64.436a27.738,27.738,0,0,0-17.415,8.107,28.116,28.116,0,0,0-8.717,21.094,30.034,30.034,0,0,0,9.025,21.63,30.439,30.439,0,0,0,21.659,9.432,29.172,29.172,0,0,0,30.089-29.29v-.01a29.635,29.635,0,0,0-9.072-21.615,30.161,30.161,0,0,0-21.509-9.455A33.97,33.97,0,0,0,1414.72,476.574Z"/><path class="cls-15" d="M1422.989,537.046a32.9,32.9,0,0,1-3.9.109,31.025,31.025,0,0,1-21.8-9.557,30.67,30.67,0,0,1-9.122-21.837A29.414,29.414,0,0,1,1418.851,476a30.874,30.874,0,0,1,21.685,9.513,30.344,30.344,0,0,1,9.172,21.834,29.68,29.68,0,0,1-26.719,29.7m-7.964-58.807a27.262,27.262,0,0,0-24.711,27.509,28.577,28.577,0,0,0,8.5,20.345,28.949,28.949,0,0,0,20.334,8.916,27.494,27.494,0,0,0,28.412-27.648v0a28.267,28.267,0,0,0-8.553-20.339,28.805,28.805,0,0,0-20.227-8.875A30.92,30.92,0,0,0,1415.025,478.239Z"/><path class="cls-26" d="M1500.048,542.867a37.343,37.343,0,0,1-4.345.126A35.837,35.837,0,0,1,1460.9,507.66a33.317,33.317,0,0,1,34.549-33.675,34.792,34.792,0,0,1,24.454,10.789,34.076,34.076,0,0,1,10.3,24.609,33.41,33.41,0,0,1-30.154,33.484m-8.668-64.478a27.731,27.731,0,0,0-17.469,8.147,28.128,28.128,0,0,0-8.72,21.1,31.539,31.539,0,0,0,30.63,31.067,29.093,29.093,0,0,0,30.087-29.291V509.4a29.535,29.535,0,0,0-9.065-21.613,30.245,30.245,0,0,0-21.526-9.514A34.27,34.27,0,0,0,1491.38,478.389Z"/><path class="cls-15" d="M1499.551,539.072a33.093,33.093,0,0,1-3.9.108,31.03,31.03,0,0,1-21.8-9.557,30.667,30.667,0,0,1-9.12-21.837,29.416,29.416,0,0,1,30.686-29.764,30.861,30.861,0,0,1,21.683,9.514,30.334,30.334,0,0,1,9.173,21.833,29.68,29.68,0,0,1-26.721,29.7m-7.962-58.809a27.259,27.259,0,0,0-24.712,27.509,28.574,28.574,0,0,0,8.5,20.345,28.942,28.942,0,0,0,20.334,8.917,27.491,27.491,0,0,0,28.411-27.648v-.005a28.276,28.276,0,0,0-8.553-20.339,28.8,28.8,0,0,0-20.228-8.874A30.5,30.5,0,0,0,1491.589,480.263Z"/><path class="cls-24" d="M1452.243,650.3a1.579,1.579,0,0,1-.615-.124,31.247,31.247,0,0,1-17.3-22.984c-2.958-16.541,10.249-41.239,10.813-42.282a1.6,1.6,0,0,1,2.818,1.521c-.134.246-13.239,24.759-10.477,40.2a28.025,28.025,0,0,0,15.38,20.6,1.6,1.6,0,0,1-.621,3.078Z"/></g></svg>