<?xml version="1.0" encoding="utf-8"?>
<!-- Generator: Adobe Illustrator 25.2.0, SVG Export Plug-In . SVG Version: 6.00 Build 0)  -->
<svg version="1.1" id="레이어_1" xmlns="http://www.w3.org/2000/svg" xmlns:xlink="http://www.w3.org/1999/xlink" x="0px"
	 y="0px" viewBox="0 0 1600 900" style="enable-background:new 0 0 1600 900;" xml:space="preserve">
<rect x="0" style="fill:#FAE6E9;" width="1600" height="900"/>
<linearGradient id="SVGID_1_" gradientUnits="userSpaceOnUse" x1="800" y1="-9.094947e-13" x2="800" y2="900">
	<stop  offset="0" style="stop-color:#FFFFFF"/>
	<stop  offset="0" style="stop-color:#FFFFFF;stop-opacity:0"/>
	<stop  offset="0.1253" style="stop-color:#FEF9FA;stop-opacity:1.002413e-02"/>
	<stop  offset="0.2955" style="stop-color:#FDE7EB;stop-opacity:2.363957e-02"/>
	<stop  offset="0.4915" style="stop-color:#FBCBD3;stop-opacity:3.931918e-02"/>
	<stop  offset="0.7067" style="stop-color:#F7A3B1;stop-opacity:5.653793e-02"/>
	<stop  offset="0.9352" style="stop-color:#F37186;stop-opacity:7.481222e-02"/>
	<stop  offset="1" style="stop-color:#F26179;stop-opacity:8.000000e-02"/>
</linearGradient>
<rect style="fill:url(#SVGID_1_);" width="1600" height="900"/>
<linearGradient id="SVGID_2_" gradientUnits="userSpaceOnUse" x1="800" y1="-9.094947e-13" x2="800" y2="900">
	<stop  offset="0" style="stop-color:#FFFFFF"/>
	<stop  offset="0" style="stop-color:#FFFFFF;stop-opacity:0"/>
	<stop  offset="0.1253" style="stop-color:#FEF9FA;stop-opacity:1.002413e-02"/>
	<stop  offset="0.2955" style="stop-color:#FDE7EB;stop-opacity:2.363957e-02"/>
	<stop  offset="0.4915" style="stop-color:#FBCBD3;stop-opacity:3.931918e-02"/>
	<stop  offset="0.7067" style="stop-color:#F7A3B1;stop-opacity:5.653793e-02"/>
	<stop  offset="0.9352" style="stop-color:#F37186;stop-opacity:7.481222e-02"/>
	<stop  offset="1" style="stop-color:#F26179;stop-opacity:8.000000e-02"/>
</linearGradient>
<rect style="fill:url(#SVGID_2_);" width="1600" height="900"/>
<path style="fill:#FFFFFF;" d="M602.8,886.1c0.2-0.1,0.5-0.2,0.7-0.3c2.8-1,5.6-2.1,8.4-3.1c3.5-1.3,7-2.6,10.5-3.9
	c4.2-1.6,8.4-3.1,12.5-4.7c4.8-1.8,9.7-3.6,14.5-5.4c5.4-2,10.9-4.1,16.3-6.1c6-2.2,12-4.5,18-6.7c6.5-2.4,13.1-4.9,19.6-7.3
	c7.1-2.6,14.1-5.3,21.2-7.9c7.5-2.8,15-5.6,22.6-8.4c8-3,15.9-5.9,23.9-8.9c8.3-3.1,16.7-6.2,25-9.3c8.7-3.2,17.4-6.5,26.1-9.7
	c9-3.4,18.1-6.7,27.1-10.1c9.3-3.5,18.7-7,28-10.4c9.6-3.6,19.2-7.2,28.8-10.7c9.8-3.7,19.6-7.3,29.4-11c10-3.7,20-7.5,30-11.2
	c10.1-3.8,20.3-7.6,30.4-11.3c10.3-3.8,20.5-7.6,30.8-11.5c10.3-3.9,20.7-7.7,31-11.6c10.4-3.9,20.8-7.7,31.1-11.6
	c10.4-3.9,20.8-7.7,31.2-11.6c10.4-3.9,20.7-7.7,31.1-11.6c10.3-3.8,20.6-7.7,30.9-11.5c10.2-3.8,20.4-7.6,30.6-11.4
	c10.1-3.8,20.1-7.5,30.2-11.3c9.9-3.7,19.8-7.4,29.7-11.1c9.7-3.6,19.4-7.2,29.1-10.8c9.5-3.5,18.9-7.1,28.4-10.6
	c9.2-3.4,18.4-6.8,27.5-10.3c8.9-3.3,17.7-6.6,26.6-9.9c8.5-3.2,17.1-6.4,25.6-9.5c8.1-3,16.3-6.1,24.4-9.1
	c7.7-2.9,15.5-5.8,23.2-8.7c7.3-2.7,14.6-5.4,21.8-8.1c6.8-2.5,13.6-5.1,20.4-7.6c6.3-2.3,12.5-4.7,18.8-7
	c5.7-2.1,11.4-4.3,17.1-6.4c5.1-1.9,10.2-3.8,15.4-5.7c4.5-1.7,9-3.4,13.5-5c3.8-1.4,7.7-2.9,11.5-4.3c3.1-1.2,6.3-2.3,9.4-3.5
	c2.4-0.9,4.8-1.8,7.2-2.7c1.6-0.6,3.3-1.2,4.9-1.8c0.8-0.3,1.7-0.6,2.5-0.9c0.1,0,0.2-0.1,0.3-0.1v0v-5.1v-14.3V359.9
	c-54.5-46.4-121.4-116.8-173.8-216.5c-27.1-51.6-44.9-100.7-56.7-143.5H26.1c18.5,106.1,53.4,235.6,120.5,373.1
	c101.1,207.2,211.4,355.8,320,457.2c0.2,0.2,0.4,0.4,0.6,0.6c14.8,13.8,29.6,26.7,44.3,38.8c3.6,2.3,7.3,4.5,11.4,6.7
	c14.2,7.5,29.3,11.1,45.3,12.3c11.2,0.9,21.8,1.4,32.5-1.9c0,0-0.1,0-0.1,0l0.2-0.1c0.2-0.1,0.4-0.1,0.6-0.2L602.8,886.1z"/>
<path style="fill:#FFFFFF;" d="M602.8,886.1c0.2-0.1,0.5-0.2,0.7-0.3c2.8-1,5.6-2.1,8.4-3.1c3.5-1.3,7-2.6,10.5-3.9
	c4.2-1.6,8.4-3.1,12.5-4.7c4.8-1.8,9.7-3.6,14.5-5.4c5.4-2,10.9-4.1,16.3-6.1c6-2.2,12-4.5,18-6.7c6.5-2.4,13.1-4.9,19.6-7.3
	c7.1-2.6,14.1-5.3,21.2-7.9c7.5-2.8,15-5.6,22.6-8.4c8-3,15.9-5.9,23.9-8.9c8.3-3.1,16.7-6.2,25-9.3c8.7-3.2,17.4-6.5,26.1-9.7
	c9-3.4,18.1-6.7,27.1-10.1c9.3-3.5,18.7-7,28-10.4c9.6-3.6,19.2-7.2,28.8-10.7c9.8-3.7,19.6-7.3,29.4-11c10-3.7,20-7.5,30-11.2
	c10.1-3.8,20.3-7.6,30.4-11.3c10.3-3.8,20.5-7.6,30.8-11.5c10.3-3.9,20.7-7.7,31-11.6c10.4-3.9,20.8-7.7,31.1-11.6
	c10.4-3.9,20.8-7.7,31.2-11.6c10.4-3.9,20.7-7.7,31.1-11.6c10.3-3.8,20.6-7.7,30.9-11.5c10.2-3.8,20.4-7.6,30.6-11.4
	c10.1-3.8,20.1-7.5,30.2-11.3c9.9-3.7,19.8-7.4,29.7-11.1c9.7-3.6,19.4-7.2,29.1-10.8c9.5-3.5,18.9-7.1,28.4-10.6
	c9.2-3.4,18.4-6.8,27.5-10.3c8.9-3.3,17.7-6.6,26.6-9.9c8.5-3.2,17.1-6.4,25.6-9.5c8.1-3,16.3-6.1,24.4-9.1
	c7.7-2.9,15.5-5.8,23.2-8.7c7.3-2.7,14.6-5.4,21.8-8.1c6.8-2.5,13.6-5.1,20.4-7.6c6.3-2.3,12.5-4.7,18.8-7
	c5.7-2.1,11.4-4.3,17.1-6.4c5.1-1.9,10.2-3.8,15.4-5.7c4.5-1.7,9-3.4,13.5-5c3.8-1.4,7.7-2.9,11.5-4.3c3.1-1.2,6.3-2.3,9.4-3.5
	c2.4-0.9,4.8-1.8,7.2-2.7c1.6-0.6,3.3-1.2,4.9-1.8c0.8-0.3,1.7-0.6,2.5-0.9c0.1,0,0.2-0.1,0.3-0.1v0v-5.1v-14.3V359.9
	c-54.5-46.4-121.4-116.8-173.8-216.5c-27.1-51.6-44.9-100.7-56.7-143.5H26.1c18.5,106.1,53.4,235.6,120.5,373.1
	c101.1,207.2,211.4,355.8,320,457.2c0.2,0.2,0.4,0.4,0.6,0.6c14.8,13.8,29.6,26.7,44.3,38.8c3.6,2.3,7.3,4.5,11.4,6.7
	c14.2,7.5,29.3,11.1,45.3,12.3c11.2,0.9,21.8,1.4,32.5-1.9c0,0-0.1,0-0.1,0l0.2-0.1c0.2-0.1,0.4-0.1,0.6-0.2L602.8,886.1z"/>
<path style="fill:#FCF2F4;" d="M600.7,886.8c0.2-0.1,0.4-0.1,0.6-0.2l1.5-0.5c0.2-0.1,0.5-0.2,0.7-0.3c2.8-1,5.6-2.1,8.4-3.1
	c3.5-1.3,7-2.6,10.5-3.9c4.2-1.6,8.4-3.1,12.5-4.7c4.8-1.8,9.7-3.6,14.5-5.4c5.4-2,10.9-4.1,16.3-6.1c6-2.2,12-4.5,18-6.7
	c6.5-2.4,13.1-4.9,19.6-7.3c7.1-2.6,14.1-5.3,21.2-7.9c7.5-2.8,15-5.6,22.6-8.4c8-3,15.9-5.9,23.9-8.9c8.3-3.1,16.7-6.2,25-9.3
	c8.7-3.2,17.4-6.5,26.1-9.7c9-3.4,18.1-6.7,27.1-10.1c9.3-3.5,18.7-7,28-10.4c9.6-3.6,19.2-7.2,28.8-10.7c9.8-3.7,19.6-7.3,29.4-11
	c10-3.7,20-7.5,30-11.2c10.1-3.8,20.3-7.6,30.4-11.3c10.3-3.8,20.5-7.6,30.8-11.5c10.3-3.9,20.7-7.7,31-11.6
	c10.4-3.9,20.8-7.7,31.1-11.6c10.4-3.9,20.8-7.7,31.2-11.6c10.4-3.9,20.7-7.7,31.1-11.6c10.3-3.8,20.6-7.7,30.9-11.5
	c10.2-3.8,20.4-7.6,30.6-11.4c10.1-3.8,20.1-7.5,30.2-11.3c9.9-3.7,19.8-7.4,29.7-11.1c9.7-3.6,19.4-7.2,29.1-10.8
	c9.5-3.5,18.9-7.1,28.4-10.6c9.2-3.4,18.4-6.8,27.5-10.3c8.9-3.3,17.7-6.6,26.6-9.9c8.5-3.2,17.1-6.4,25.6-9.5
	c8.1-3,16.3-6.1,24.4-9.1c7.7-2.9,15.5-5.8,23.2-8.7c7.3-2.7,14.6-5.4,21.8-8.1c6.8-2.5,13.6-5.1,20.4-7.6c6.3-2.3,12.5-4.7,18.8-7
	c5.7-2.1,11.4-4.3,17.1-6.4c5.1-1.9,10.2-3.8,15.4-5.7c4.5-1.7,9-3.4,13.5-5c3.8-1.4,7.7-2.9,11.5-4.3c3.1-1.2,6.3-2.3,9.4-3.5
	c2.4-0.9,4.8-1.8,7.2-2.7c1.6-0.6,3.3-1.2,4.9-1.8c0.8-0.3,1.7-0.6,2.5-0.9c0.1,0,0.2-0.1,0.3-0.1v0v-5.1l0,0
	c-153,40.6-997.6,264.8-998.5,265.1c2.8,1.9,8.5,6.6,9.8,7.7c3.5,3,8.6,7.8,11.3,11.6c7.2,10.2,10.5,21.4,10.8,34.7
	c0.3,14.6-1.7,26.5-10,37.9C616.4,875.7,611.5,882.3,600.7,886.8C600.6,886.8,600.6,886.8,600.7,886.8c-0.1,0-0.1,0.1-0.2,0.1
	L600.7,886.8z"/>
<path style="fill:#FFFFFF;" d="M0,0v181.3c12,67.7,45.4,148.7,73.6,227C148,615.3,271.1,782.8,352.1,900h89.5
	c25.1-8.9,50.3-17.8,75.4-26.7c-2-1.2-3.9-2.3-5.7-3.5c-14.7-12.1-29.5-25-44.3-38.8c-0.2-0.2-0.4-0.4-0.6-0.6
	C358,728.9,247.6,580.3,146.5,373.1C79.4,235.6,44.5,106.1,26.1,0"/>
<g>
	<path style="opacity:5.000000e-02;" d="M73.6,408.3C45.4,330,12,248.9,0,181.3v59.6c14.8,56.4,38.6,118.7,59.2,179.4
		C126.9,619,239.5,782.5,318.3,900h33.8C271.1,782.8,148,615.3,73.6,408.3z"/>
	<path style="opacity:5.000000e-02;" d="M522.8,876.4c-2-1-3.9-2.1-5.7-3.2c0,0,0,0,0,0c-14.2,5-61.2,21.7-75.4,26.7h31.3
		c7.3-2.4,49.8-17.6,57.1-20.1c0,0,0,0-0.1,0C527.6,878.8,525.2,877.7,522.8,876.4z"/>
</g>
<path style="opacity:5.000000e-02;" d="M1600,514.2c-0.1,0-999.1,372.6-999.3,372.6l-0.2,0.1c0,0,0.1,0,0.1,0
	c-10.7,3.3-21.3,2.8-32.5,1.9c-16-1.2-31.1-4.7-45.3-12.3c-4.1-2.2-7.9-4.4-11.4-6.7c-14.7-12.1-29.5-25-44.3-38.8
	c-0.2-0.2-0.4-0.4-0.6-0.6C358,728.9,247.6,580.3,146.5,373.1C79.4,235.6,44.5,106.1,26.1,0h-20c18.7,108.4,54.1,240.9,122,381.5
	C230.5,593.3,330.3,745.3,440.3,849c0.2,0.2,0.4,0.4,0.6,0.6c6.5,6.2,12.1,12.3,18.7,18.4c6.4,5.9,12.9,12.8,19.6,18.4
	c6.3,5.3,12.6,10.2,19.3,13.6h158.1c1.3-0.5,942.8-373.7,943.5-374V514.2z"/>
<g>
	<path style="fill:#FADADF;" d="M463.3,95.6H101.9c-17.9,0-32.5-14.6-32.5-32.5v0c0-17.9,14.6-32.5,32.5-32.5h361.4
		c17.9,0,32.5,14.6,32.5,32.5v0C495.8,81.1,481.2,95.6,463.3,95.6z"/>
	<g>
		<g>
			<path style="fill:#333333;" d="M156.5,61.1c0-6.3,0.8-10.5,3-12.9c1.4-1.5,3.3-2.2,5.6-2.2s4.3,0.7,5.6,2.2c2.2,2.3,3,6.6,3,12.9
				c0,6.4-0.8,10.6-3,13c-1.3,1.5-3.3,2.2-5.6,2.2s-4.3-0.7-5.6-2.2C157.3,71.7,156.5,67.4,156.5,61.1z M168,61.1
				c0-5.3-0.4-8.3-1.3-9.5c-0.4-0.5-1-0.7-1.5-0.7c-0.6,0-1.2,0.2-1.5,0.7c-0.9,1.2-1.2,4.1-1.2,9.5c0,5.4,0.3,8.4,1.2,9.6
				c0.4,0.5,0.9,0.7,1.5,0.7c0.6,0,1.1-0.2,1.5-0.7C167.6,69.4,168,66.5,168,61.1z M176.9,45.9h5.9v31.9h-5.9V45.9z"/>
			<path style="fill:#333333;" d="M193.4,46.3v5h5.1v-5h5.6V53h3.7v-7.1h5.9v22.7h-5.9V57.9h-3.7v7h-16.4V46.3H193.4z M214.2,73.1
				v4.8h-24.7V66.8h5.9v6.3H214.2z M193.4,60.1h5.1v-4.2h-5.1V60.1z"/>
			<path style="fill:#333333;" d="M235.2,70c-1.6,2.8-5.3,5.2-9.2,5.9v-5.2c3.7-1.5,6.3-4,6.3-12.9V46.3h5.9v11.6
				c0,8.9,2.5,11.4,6.2,12.9v5.2C240.6,75.2,237,72.8,235.2,70z M247.1,45.9h5.9v31.9h-5.9V45.9z"/>
			<path style="fill:#333333;" d="M267.9,51.1h-10.2v-4.8h16.2v3.3c0,9.7-5,15.2-16.9,16.1v-4.9C264.2,60,267.8,56.8,267.9,51.1z
				 M259.3,66.3h5.9v6.8h18.5v4.8h-24.4V66.3z M277.3,45.9h6v8h4.2v4.9h-4.2v9.4h-6V45.9z"/>
			<path style="fill:#333333;" d="M288.5,61.1c0-7.7,0.7-11.8,2.8-13.8c0.9-0.9,2.2-1.4,3.9-1.4c1.7,0,3,0.4,3.9,1.4
				c1.7,1.7,2.4,4.9,2.7,10.5h1.8V46.1h5.2v31.3h-5.2V62.8h-1.8c-0.1,6.6-0.9,10.2-2.7,12c-1,1-2.3,1.3-3.9,1.3
				c-1.7,0-3-0.4-3.9-1.3C289.2,72.9,288.5,68.9,288.5,61.1z M296.6,61.1c0-6.4-0.1-9-0.7-9.9c-0.2-0.3-0.4-0.4-0.7-0.4
				c-0.3,0-0.6,0.1-0.7,0.4c-0.6,0.9-0.8,3.5-0.8,9.9c0,6.4,0.1,9.1,0.8,10c0.1,0.2,0.4,0.4,0.7,0.4c0.3,0,0.5-0.1,0.7-0.4
				C296.4,70.1,296.6,67.5,296.6,61.1z M315.4,45.9v31.9h-5.3V45.9H315.4z"/>
			<path style="fill:#333333;" d="M333.3,46.4v10.4h2.5V46.4h5.1v29.3h-12.7V46.4H333.3z M333.3,71h2.5v-9.4h-2.5V71z M354.7,45.9
				v31.9h-5.3v-15h-1.8v14.7h-5.2V46.1h5.2v11.7h1.8V45.9H354.7z"/>
			<path style="fill:#333333;" d="M387,62h-11.5v1.6h9.6v9.3H366v1.2h19.8v4h-25.6v-9.2h19.1v-1.2h-19.1v-4h9.5V62h-11.4v-4.4H387
				V62z M359.6,51.3c0-1.4,0.5-2.4,1.6-3.3c2-1.5,5.9-2.1,11.5-2.1c5.5,0,9.4,0.6,11.4,2.1c1.1,0.8,1.6,1.9,1.6,3.3
				c0,1.4-0.5,2.4-1.6,3.2c-2,1.5-5.9,2.1-11.4,2.1c-5.6,0-9.4-0.6-11.5-2.1C360.1,53.7,359.6,52.6,359.6,51.3z M379.8,51.3
				c0-0.2-0.1-0.4-0.4-0.6c-0.8-0.5-3-0.6-6.7-0.6c-3.8,0-5.9,0.1-6.8,0.6c-0.3,0.2-0.4,0.4-0.4,0.6c0,0.2,0.1,0.4,0.4,0.6
				c0.9,0.5,3,0.6,6.8,0.6c3.7,0,5.9-0.1,6.7-0.6C379.7,51.7,379.8,51.5,379.8,51.3z"/>
			<path style="fill:#333333;" d="M406.9,75.7h-8.5V46.3h5.5v24.6h3.7c2.1,0,3.6-0.2,4.6-1.1V46.1h5.2v11.7h2V45.9h5.4v31.9h-5.4
				v-15h-2v14.7h-5.2v-2.9C411.3,75.4,409.6,75.7,406.9,75.7z"/>
			<path style="fill:#333333;" d="M429.9,52.2c0-1.8,0.7-3.1,2-4.1c2.2-1.6,6-2.2,11-2.2c5,0,8.8,0.6,10.9,2.2
				c1.4,1,2.1,2.3,2.1,4.1c0,1.8-0.7,3.1-2.1,4.1c-0.6,0.5-1.4,0.9-2.2,1.2v2.7h5.7v4.7h-28.8v-4.7h5.8v-2.6
				c-0.9-0.3-1.7-0.7-2.4-1.2C430.5,55.3,429.9,54,429.9,52.2z M429.9,72.2c0-1.9,0.8-3.3,2.4-4.3c2.2-1.4,5.9-2,10.6-2
				c4.7,0,8.4,0.6,10.6,2c1.6,1,2.4,2.4,2.4,4.3s-0.9,3.3-2.4,4.3c-2.2,1.5-5.9,2-10.6,2c-4.7,0-8.4-0.5-10.6-2
				C430.7,75.5,429.9,74.1,429.9,72.2z M450,52.2c0-0.4-0.2-0.7-0.5-0.9c-1-0.7-3.2-0.9-6.6-0.9c-3.5,0-5.7,0.2-6.7,0.9
				c-0.3,0.2-0.5,0.5-0.5,0.9s0.2,0.7,0.5,0.9c1,0.6,3.2,0.8,6.7,0.8c3.5,0,5.7-0.2,6.6-0.8C449.8,52.9,450,52.6,450,52.2z
				 M435.7,72.2c0,0.4,0.2,0.7,0.6,1c1,0.6,3.1,0.8,6.6,0.8c3.5,0,5.6-0.2,6.6-0.8c0.4-0.2,0.6-0.5,0.6-1c0-0.4-0.2-0.7-0.6-1
				c-1-0.5-3.1-0.8-6.6-0.8c-3.5,0-5.6,0.3-6.6,0.8C435.9,71.5,435.7,71.8,435.7,72.2z M445.8,58.5c-0.9,0-1.9,0.1-2.9,0.1
				c-1,0-1.9,0-2.8-0.1v1.6h5.7V58.5z"/>
		</g>
	</g>
	<circle style="fill:#FFEBEE;" cx="102.3" cy="63.1" r="28.7"/>
	<circle style="fill:#FFFFFF;" cx="102.3" cy="63.1" r="24.9"/>
	<g>
		<g>
			<g>
				<path style="fill:#F593A2;" d="M114.3,60.6h2.5c-1.1-6.4-6.1-11.4-12.5-12.3v2.5C109.3,51.7,113.3,55.6,114.3,60.6z M87.3,60.6
					h2.5c1-4.8,4.7-8.6,9.4-9.7v-2.6C93.1,49.5,88.3,54.4,87.3,60.6z M89.8,65.6h-2.5c1.1,6.1,5.8,11,11.9,12.2v-2.6
					C94.5,74.1,90.8,70.4,89.8,65.6z M104.2,75.3v2.5c6.4-0.9,11.4-5.9,12.5-12.2h-2.5C113.2,70.6,109.2,74.4,104.2,75.3z"/>
			</g>
			<g>
				<path style="fill:#F593A2;" d="M101.7,44c-0.8,0-1.4,0.6-1.4,1.2v8.6c0,0.7,0.6,1.2,1.4,1.2c0.8,0,1.4-0.6,1.4-1.2v-8.6
					C103.1,44.6,102.5,44,101.7,44z"/>
			</g>
			<g>
				<path style="fill:#F593A2;" d="M101.7,71.1c-0.8,0-1.4,0.6-1.4,1.2V81c0,0.7,0.6,1.2,1.4,1.2c0.8,0,1.4-0.6,1.4-1.2v-8.6
					C103.1,71.7,102.5,71.1,101.7,71.1z"/>
			</g>
			<g>
				<path style="fill:#F593A2;" d="M120.2,61.7h-8.6c-0.7,0-1.2,0.6-1.2,1.4c0,0.8,0.6,1.4,1.2,1.4h8.6c0.7,0,1.2-0.6,1.2-1.4
					C121.4,62.3,120.9,61.7,120.2,61.7z"/>
			</g>
			<g>
				<path style="fill:#F593A2;" d="M93,61.7h-8.6c-0.7,0-1.2,0.6-1.2,1.4c0,0.8,0.6,1.4,1.2,1.4H93c0.7,0,1.2-0.6,1.2-1.4
					C94.3,62.3,93.7,61.7,93,61.7z"/>
			</g>
			<g>
				<circle style="fill:#F593A2;" cx="101.7" cy="63.1" r="2.4"/>
			</g>
		</g>
	</g>
</g>
<g>
	<path style="fill:#83E8D3;" d="M1266.9,700.9c7.9,4.5,11.3,12.7,10.2,24.6l-13.4,9.5c-3.6-10.1-7.6-17.8-12-23.1
		c-2.8-4-2.2-7.5,1.8-10.5C1257.6,698.5,1262,698.3,1266.9,700.9"/>
	<path style="fill:#47D7AC;" d="M1263.8,737.8c-0.3,0-0.5,0-0.8-0.1c-0.8-0.3-1.5-0.9-1.7-1.7c-3.5-9.8-7.4-17.3-11.5-22.3l-0.1-0.2
		c-3.6-5.2-2.7-10.4,2.4-14.2c4.8-3.6,10.4-3.9,16.3-0.7c8.8,5.1,12.7,14.2,11.6,27.2c-0.1,0.8-0.5,1.5-1.1,2l-13.4,9.5
		C1264.9,737.6,1264.3,737.8,1263.8,737.8 M1265.6,703.3c-3.9-2.1-7.2-2-10.4,0.3c-2.8,2.1-3.1,3.9-1.2,6.7
		c4,4.9,7.7,11.8,11.1,20.5l9.4-6.7C1275.1,713.9,1272.2,707.1,1265.6,703.3z"/>
	<path style="fill:#83E8D3;" d="M1301.2,716.2c0.5,0.5,0.9,1.1,1.2,1.6c3.5,5.1,5.2,11,5.2,17.7c0,5.2-1.1,9.9-3.2,14
		c-1,2.3-2.5,4.5-4.3,6.4l-0.2,0.2c-2.8,3.2-6,5.5-9.6,6.8c-1.8,0.7-3.8,1.2-5.9,1.5c2.1-0.3,4.1-0.7,5.9-1.5
		c3.6-1.3,6.8-3.6,9.6-6.8l0.2-0.2c1.8-2,3.2-4.1,4.3-6.4c17.1-8.9,30-24.3,38.7-46.3l12.3,48.9c-16.1,22-34.9,34.1-56.2,36.5
		c-4.9,0.5-9.4,0.2-13.7-1c-7.5-2.1-14.2-7.2-20.3-15.1c-4.1-5.4-7.2-11.8-9.2-19.1c-2.9-10.8-1.7-21.6,3.7-32.6
		c1.1-2.1,2.5-4,4.1-5.8c4.8-5.4,10.5-8.3,17.2-8.5C1289,706.3,1295.7,709.5,1301.2,716.2"/>
	<path style="fill:#47D7AC;" d="M1294.9,791.6c-3.5,0-6.9-0.4-10.1-1.3c-8-2.3-15.3-7.7-21.8-16.1c-4.3-5.7-7.6-12.4-9.6-20
		c-3.1-11.4-1.7-23,3.9-34.6c1.2-2.3,2.7-4.4,4.5-6.3c5.3-6,11.7-9.2,19.2-9.4c8.7-0.2,16.2,3.4,22.1,10.6c0.6,0.6,1.1,1.3,1.5,1.9
		c3.8,5.5,5.7,12,5.7,19.2c0,2.8-0.3,5.4-0.8,7.9c13.4-8.9,23.8-22.7,31.1-41.2c0.4-1.1,1.5-1.8,2.7-1.7c1.2,0.1,2.2,0.9,2.5,2
		l12.3,48.9c0.2,0.8,0,1.6-0.4,2.3c-16.5,22.5-36.1,35.2-58.1,37.6C1298,791.5,1296.4,791.6,1294.9,791.6 M1342.5,711.7
		c-8.7,18.3-20.8,31.7-36,39.9c-1.1,2.3-2.6,4.4-4.3,6.3l-0.2,0.2c-3.1,3.5-6.7,6-10.6,7.5c-2,0.8-4.2,1.4-6.6,1.6
		c-1.5,0.2-2.8-0.9-3-2.4c-0.2-1.5,0.9-2.8,2.4-3c1.9-0.2,3.6-0.7,5.3-1.3c3.2-1.2,6-3.2,8.5-6.1l0.2-0.2c1.5-1.7,2.8-3.5,3.7-5.6
		l0.1-0.2c1.9-3.8,2.9-8.1,2.9-12.8c0-6.1-1.6-11.6-4.8-16.2c-0.3-0.4-0.6-0.9-1.1-1.4c-5-6-10.8-8.9-17.8-8.7
		c-6,0.2-11,2.6-15.3,7.6c-1.5,1.6-2.7,3.4-3.7,5.2c-5.1,10.3-6.2,20.6-3.5,30.7c1.9,6.9,4.8,13,8.7,18.1
		c5.7,7.5,12.1,12.2,18.9,14.2c3.9,1.1,8.1,1.4,12.6,0.9c20.1-2.2,38.1-13.8,53.5-34.4L1342.5,711.7z"/>
	<path style="fill:#83E8D3;" d="M1427.3,741.3c4.4,7.3,8.1,14.1,11,20.6c1.6,3.5,3,6.9,4.2,10.2c9.2,25.6,4.8,43.2-13.2,52.8
		c-0.8,0.4-1.7,0.8-2.6,1.2l-29-3.5l-46.9,58.8c-3.1,3.9-7.2,4.7-12.2,2.3c-11-5.6-20.1-11.1-27.2-16.5c-7.1-5.3-9.3-10.3-6.4-15
		c3.9-6.2,10.2-7,18.9-2.3l26.3-34.3c-0.3-0.5-0.6-0.9-0.9-1.4c-20.6-30.7-23.7-71.1-9.2-121.2l74.6-8.1l7.2,47.6
		C1423.7,735.5,1425.6,738.4,1427.3,741.3"/>
	<path style="fill:#47D7AC;" d="M1343.8,887.7c-2,0-4.2-0.5-6.5-1.6c-11.1-5.6-20.4-11.3-27.6-16.7c-10.5-7.8-9.6-14.4-7-18.6
		c3.1-4.9,9.2-9.5,20.4-4.2l23.8-31c-20.8-31.3-24-72.7-9.4-123.3c0.3-1.1,1.2-1.8,2.3-1.9l74.6-8.1c1.4-0.2,2.8,0.9,3,2.3l7.1,47
		c1.8,2.8,3.6,5.6,5.2,8.4c4.4,7.3,8.2,14.4,11.2,20.8c1.6,3.6,3.1,7.1,4.2,10.4c9.7,27,4.8,45.8-14.5,56.1
		c-0.9,0.4-1.8,0.9-2.8,1.3c-0.4,0.2-0.9,0.3-1.4,0.2l-27.5-3.3l-45.9,57.6C1350.5,886.2,1347.4,887.7,1343.8,887.7 M1398,819.8
		l28.3,3.4c0.6-0.3,1.2-0.6,1.8-0.9c16.8-8.9,20.6-25.1,11.9-49.5c-1.1-3.2-2.5-6.5-4.1-9.9c-2.9-6.3-6.5-13.1-10.9-20.3
		c-1.7-2.8-3.5-5.7-5.5-8.7c-0.2-0.3-0.4-0.7-0.4-1.1l-6.8-45l-70.2,7.7c-13.6,48.2-10.4,87.6,9.3,117.1c0.4,0.5,0.8,1.1,1.1,1.7
		c0.5,0.9,0.4,2.1-0.2,3l-26.3,34.3c-0.8,1.1-2.3,1.4-3.5,0.7c-9.6-5.2-13.3-1.8-15.2,1.3c-0.8,1.4-3,4.9,5.7,11.4
		c7,5.3,16,10.7,26.8,16.2c4.9,2.3,7.3,0.4,8.9-1.6l46.9-58.8c0.5-0.7,1.3-1,2.1-1L1398,819.8z"/>
	<path style="fill:#1CB594;" d="M1386.4,751.8c-0.4-3.1-1.4-5.9-2.9-8.6c-1.5-2.7-3.4-5-5.8-6.7c-5-4-10.6-5.6-16.9-4.8
		c-6.3,0.7-11.3,3.6-15.2,8.7c-1.9,2.4-3.2,5-4,8c-0.8,3-1.1,6-0.7,9.1l0.2,1.3l12.4-1.5l-0.2-1.3c-0.3-2.9,0.4-5.5,2.1-7.8
		c1.9-2.3,4.2-3.6,6.9-3.9c2.9-0.3,5.4,0.4,7.7,2.1c2.3,1.8,3.7,4.1,4,7.1l0.1,1.2l12.3-1.5L1386.4,751.8"/>
	<path style="fill:#FFB9B8;" d="M1532,767c0.4-0.7,0.5-1.5,0.2-2.3l-2.4-8c-0.3-1-0.1-1.9,0.5-2.6c0.8-0.8,1.6-1.1,2.6-0.9l8.3,1.7
		c0.7,0.2,1.4,0,2.2-0.5l6.8-4.7c0.9-0.6,1.8-0.7,2.8-0.3c1,0.4,1.5,1.2,1.6,2.3l1,8.3c0.1,0.8,0.4,1.5,1,1.9l6.7,5
		c0.8,0.6,1.2,1.4,1.1,2.5c-0.1,1.1-0.6,1.8-1.6,2.3l-7.6,3.5c-0.7,0.3-1.2,0.8-1.6,1.6l-2.6,7.9c-0.4,1-1.1,1.6-2.1,1.8
		c-1.1,0.3-2,0-2.6-0.9l-5.7-6.1c-0.5-0.6-1.2-0.9-2-0.9l-8.3-0.2c-1,0-1.8-0.5-2.4-1.4c-0.5-0.9-0.5-1.8,0.1-2.7L1532,767"/>
	<path style="fill:#FF88A1;" d="M1560.7,590.3c-0.1-0.8,0.2-1.4,0.9-1.9c0.7-0.5,1.4-0.6,2.2-0.2l6.1,3c0.5,0.3,1.1,0.3,1.8,0
		l6.2-2.3c0.8-0.3,1.6-0.2,2.3,0.3c0.7,0.6,0.9,1.3,0.7,2.2l-1,6.5c-0.1,0.7,0.1,1.2,0.5,1.6l4,5.3c0.6,0.7,0.7,1.5,0.3,2.3
		c-0.2,0.8-0.8,1.3-1.6,1.4l-6.6,1.2c-0.6,0.1-1.1,0.3-1.6,0.9l-3.6,5.6c-0.5,0.7-1.1,1-2,0.9c-0.8-0.1-1.5-0.4-1.9-1.2l-3-6
		c-0.4-0.5-0.8-0.9-1.4-1.1l-6.4-1.8c-0.8-0.3-1.3-0.8-1.6-1.6c-0.2-0.8,0-1.5,0.5-2.1l4.7-4.7c0.5-0.5,0.7-1,0.6-1.6L1560.7,590.3z
		"/>
	<path style="fill:#FFE090;" d="M1489.5,802.9l-5.4,11.6c-0.5,1.2-1.4,2-2.6,2.3l-12.3,4.2c-1.5,0.5-2.4,1.6-2.8,3.2
		c-0.4,1.5,0.1,2.8,1.2,4l9.5,8.8c0.9,0.8,1.4,1.9,1.4,3.2l0.1,12.9c0.1,1.6,0.7,2.8,2.1,3.6c1.5,0.9,2.9,0.9,4.3,0.2l11.3-6.3
		c1-0.6,2.2-0.7,3.4-0.4l12.3,3.9c1.6,0.5,3,0.2,4.2-0.9c1.2-1.1,1.7-2.4,1.4-4l-2.5-12.7c-0.2-1.3,0.1-2.4,0.8-3.3l7.5-10.5
		c0.9-1.3,1-2.8,0.3-4.3c-0.7-1.5-1.8-2.3-3.4-2.5l-12.7-1.6c-1.2-0.2-2.2-0.7-2.9-1.7l-7.8-10.4c-0.9-1.3-2.2-1.9-3.8-1.7
		C1491.3,800.5,1490.2,801.4,1489.5,802.9 M1257.8,813.3l-5-6.6c-0.6-0.9-1.5-1.2-2.5-1.1c-1,0.1-1.8,0.6-2.3,1.6l-3.4,7.5
		c-0.4,0.8-0.9,1.3-1.6,1.6l-7.8,2.8c-0.9,0.3-1.5,1-1.8,2c-0.3,1,0,1.8,0.9,2.6l6.1,5.6c0.6,0.5,0.9,1.2,0.9,2l0.1,8.3
		c0.1,1,0.5,1.8,1.4,2.3c0.9,0.5,1.8,0.5,2.7,0l7.3-4.1c0.6-0.4,1.3-0.5,2.2-0.2l7.8,2.3c1,0.4,1.9,0.2,2.7-0.5
		c0.8-0.7,1.1-1.5,0.9-2.6l-1.6-8.2c-0.2-0.8,0-1.5,0.4-2.1l4.8-6.8c0.6-0.8,0.6-1.7,0.2-2.6c-0.5-1-1.2-1.5-2.2-1.6l-8.2-1
		C1258.9,814.3,1258.3,813.9,1257.8,813.3z"/>
	<path style="fill:#7FE8D2;" d="M1378.9,800.5c-0.1-0.3-0.1-0.7-0.2-1c-0.9-6.2,0.7-11.8,4.6-16.5c2.8-3,6.4-5.1,10.8-6.1
		c8.2-2,16.3-1.3,24.4,2c4.1,1.6,7.7,3.6,10.8,6.2l-5.9,17.4c4.1,10.8,6.5,22.2,7,34.5c-0.3,4.9-4.7,8.2-13.4,9.9
		c-7,0.9-14,1.1-20.9,0.7c-0.8-0.1-1.6-0.1-2.4-0.2c-0.3-0.1-0.5-0.1-0.8-0.1c-0.7-0.1-1.3-0.2-2-0.2c-4.3-0.5-7.4-1.4-9.5-2.5
		c-3.6-2-5.2-4.8-4.7-8.5c1-4.3,3.4-7,7.2-8.1c0.4-0.1,0.8-0.1,1.2-0.2h0.3c1.6-0.2,3-0.4,4.4-0.4c1.5-0.1,3-0.1,4.5-0.1
		c-1.5-0.1-3,0-4.5,0.1c-1.4,0.1-2.8,0.2-4.4,0.4C1382.5,818.2,1380.3,809.1,1378.9,800.5"/>
	<path style="fill:#47D7AC;" d="M1403.3,850.4c4.7,0,9.4-0.3,14.1-0.9l0.2,0c10-2,15.2-6.2,15.5-12.5l0-0.3
		c-0.6-12.5-3-24.3-7.2-35.3c-0.5-1.4-2.1-2.1-3.5-1.6c-1.4,0.5-2.1,2.1-1.6,3.5c4,10.4,6.3,21.7,6.8,33.5c-0.3,3.4-4,5.8-11.1,7.3
		c-6.8,0.9-13.6,1.1-20.2,0.6c-0.8-0.1-1.5-0.1-2.2-0.2c-0.2-0.1-0.6-0.1-1-0.1c-0.7-0.1-1.3-0.2-2-0.2c-4.8-0.6-7.2-1.5-8.3-2.2
		c-3.3-1.8-3.6-4-3.4-5.6c0.8-3.2,2.4-5.1,5-5.9c0.3,0,0.6-0.1,0.9-0.1h0.1l0.5,0c1.5-0.2,2.8-0.3,4.1-0.4c1.5-0.1,2.9-0.1,4.3-0.1
		c1.5,0.1,2.8-1.1,2.8-2.6c0.1-1.5-1.1-2.8-2.6-2.8c-1.6-0.1-3.2,0-4.8,0.1c-0.7,0-1.5,0.1-2.3,0.2c-2.7-8.6-4.7-16.9-5.9-24.7
		l-0.2-1c-0.8-5.4,0.5-10.2,4-14.4c2.3-2.5,5.4-4.3,9.3-5.2c7.6-1.8,15.3-1.2,22.7,1.8c3.8,1.5,7.2,3.4,10.1,5.8
		c1.2,0.9,2.9,0.8,3.8-0.4c0.9-1.2,0.8-2.9-0.4-3.8c-3.4-2.7-7.2-4.9-11.6-6.6c-8.5-3.4-17.3-4.1-26-2.1c-4.9,1.2-9,3.5-12.1,6.9
		c-4.5,5.5-6.2,11.7-5.2,18.7l0.2,1c1.2,7.8,3.2,16.1,5.9,24.7c-3,1.2-6.5,3.8-7.9,9.7l0,0.3c-0.4,3.3,0.2,8,6.1,11.2
		c2.3,1.3,5.7,2.3,10.4,2.8c0.7,0.1,1.3,0.1,1.9,0.2c0.2,0,0.5,0,0.7,0.1c1,0.1,1.8,0.2,2.7,0.3
		C1398.4,850.3,1400.8,850.4,1403.3,850.4"/>
	<path style="fill:#FFFFFF;" d="M1348.1,502.9c-2.1-8.4-6-15.5-11.6-21.1c-7.3-6.5-14-6.8-20-0.9c-1,0.9-2,2.1-3,3.6
		c-6.3,9.9-10.1,22-11.2,36.4c-0.1,0.7-0.1,1.4-0.2,2.1l0,0.3c0,0.6,0,1.2,0,1.7c-0.1,0.7-0.1,1.4-0.1,2.1c0,1.5-0.1,3-0.1,4.6
		c1.6,0.4,3.1,0.8,4.7,1.1c1.1,0.2,2.3,0.4,3.4,0.6c0.5,0.1,1,0.1,1.5,0.2l0.3,0c9.2,1.2,18.5,0.8,27.9-1.2l0.3-0.1
		c0.2,0,0.4-0.1,0.6-0.1c2.9-0.7,5.9-1.5,8.8-2.5c0.3-2.3,0.5-4.6,0.6-6.8c0-0.2,0-0.4,0-0.7c0-0.2,0-0.5,0-0.7
		C1350.3,515.2,1349.6,508.9,1348.1,502.9"/>
	<path style="fill:#47D7AC;" d="M1302.1,528c1.5,0,2.7-1.2,2.7-2.7l0.2-4.1c1.1-13.9,4.7-25.8,10.8-35.2c0.8-1.2,1.7-2.2,2.6-3
		c3.4-3.4,8.3-6.3,16.3,0.9c5.1,5.1,8.8,11.8,10.7,19.7c1.4,5.7,2.1,11.8,2,18.1l0,0.5c-0.1,0.5-0.1,1,0,1.5
		c0.3,1.5,1.7,2.4,3.2,2.1c1.4-0.3,2.3-1.6,2.2-2.9l0-0.3l0-0.7c0.2-6.8-0.6-13.4-2.1-19.6c-2.2-8.9-6.3-16.4-12.3-22.3
		c-10.7-9.6-18.9-5.8-23.8-0.9c-1.1,1-2.3,2.4-3.4,4c-6.6,10.3-10.5,22.9-11.7,37.8l-0.2,2.1l0,0.2l0,2.1
		C1299.4,526.7,1300.6,528,1302.1,528L1302.1,528"/>
	<path style="fill:#FFFFFF;" d="M1481.9,542.4c-0.8-1-1.6-2-2.4-3c-17.2-20.9-38.9-34.3-64.8-40.3c-8.2-1.8-17.1-3.1-26.7-3.9
		c-2.1-0.2-4.2-0.3-6.2-0.4c-4.7-0.2-9.3-0.1-13.8,0.2c-0.3,0-0.5,0.1-0.8,0.2c-0.3-0.1-0.6-0.1-0.9,0c-0.3,0.1-0.5,0.1-0.8,0.1
		c-18.2,1.5-36,6.4-53.6,14.8c-24.4,12.2-40.4,30.6-48.2,55c-0.2,0.4-0.3,0.7-0.4,1.2c-0.7,2.2-1.4,4.6-1.9,7
		c-0.1,0.4-0.2,0.8-0.2,1.2l-0.1,0.3c-2.2,9.6-3.2,20-3.1,31.2c0.2,7.8-0.5,14.7-2,21c-2.7,9.8-3.9,18.8-3.4,27c0.1,2,0.3,4,0.6,5.9
		c0,0.3,0.1,0.6,0.2,1c0.2,1.5,0.5,2.9,0.9,4.3c0.9,3.6,2.3,7,4,10.2c0.7,1.2,1.4,2.4,2.2,3.5c0.1,0.2,0.2,0.4,0.5,0.7
		c3.7,5.7,8.9,10.7,15.5,15c2.2,1.5,4.6,2.9,7.1,4.3c2.2,1.2,4.5,2.4,6.8,3.5c17.5,8.2,36.7,12.9,57.4,14.2c1.3,0.1,2.7,0.2,4.2,0.3
		c8.4,0.6,16.9,0.7,25.4,0.3c0.8-0.1,1.6-0.2,2.4-0.2c3.7-0.3,7.5-0.6,11.3-1c5.3-0.7,10.5-1.5,15.4-2.3c0.6-0.2,1.3-0.3,1.9-0.4
		c10.7-2.2,20.5-5.1,29.5-8.9c0.2-0.1,0.4-0.2,0.5-0.2c7.7-3.3,14.8-7.2,21.3-11.7c1.1-0.8,2.2-1.6,3.3-2.4
		c9.5-7.2,17.6-15.8,24.1-25.7c5.1-7.9,9.3-16.5,12.5-26c3.4-10.9,5.1-21.6,5.2-32.1c-0.1-10.4-1.8-20.6-5.1-30.6
		c-2.2-6.5-5-12.8-8.6-19.1c-0.8-1.4-1.7-2.9-2.5-4.3c-0.7-1.1-1.5-2.3-2.2-3.4c-0.6-0.8-1.1-1.6-1.7-2.3c-0.4-0.7-0.9-1.4-1.4-2
		C1482.7,543.6,1482.3,543,1481.9,542.4"/>
	<path style="fill:#47D7AC;" d="M1367.1,719.9c-5.1,0-10.2-0.2-15.3-0.6c-1.5-0.1-2.9-0.2-4.2-0.3c-20.9-1.2-40.6-6.1-58.4-14.4
		c-2.4-1.2-4.8-2.4-6.9-3.5c-2.6-1.4-5.1-2.9-7.4-4.4c-6.8-4.4-12.2-9.7-16.1-15.5c-0.3-0.4-0.6-0.7-0.8-1.1
		c-0.8-1.1-1.5-2.3-2.2-3.5c-1.8-3.4-3.2-7-4.2-10.7c-0.5-1.5-0.8-3-1-4.6c-0.1-0.4-0.2-0.8-0.2-1.3c-0.3-1.9-0.5-4-0.6-6
		c-0.5-8.4,0.7-17.8,3.5-27.9c1.5-5.9,2.1-12.7,1.9-20.2c-0.1-11.3,0.9-22,3.1-31.6c0-0.2,0.1-0.4,0.1-0.6c0.1-0.4,0.1-0.8,0.2-1.2
		c0.6-2.5,1.2-4.9,2-7.1c0.1-0.5,0.3-0.9,0.4-1.3c8-25,24.6-44,49.5-56.5c17.8-8.5,36.2-13.6,54.6-15l0.5,0c0.4-0.1,0.7-0.1,1.1-0.1
		c0.3-0.1,0.7-0.1,0.9-0.1c4.6-0.3,9.3-0.3,14-0.2c2.1,0.1,4.2,0.2,6.4,0.4c9.7,0.8,18.8,2.2,27.1,4c26.5,6.1,48.8,20,66.3,41.2
		c0.9,1,1.7,2.1,2.5,3.1l0.2,0.3c0.3,0.5,0.6,1,1.1,1.5c0.6,0.7,1.1,1.5,1.6,2.3l1.6,2.2l0.1,0.1l2.2,3.5c0.8,1.4,1.7,2.8,2.5,4.3
		c3.6,6.4,6.5,13,8.8,19.5c3.4,10.2,5.2,20.8,5.3,31.5c0,10.7-1.8,21.8-5.3,33c-3.3,9.6-7.6,18.6-12.8,26.6
		c-6.7,10.2-15,19-24.7,26.4c-1.1,0.8-2.2,1.7-3.4,2.5c-6.6,4.5-14,8.5-21.8,11.9l-0.2,0.1l-0.2,0.1l-0.2,0.1
		c-9.1,3.8-19.2,6.8-30.1,9c-0.6,0.1-1.1,0.2-1.7,0.3l-0.2,0c-4.9,0.9-10.2,1.7-15.5,2.4c-3.8,0.4-7.6,0.8-11.4,1
		c-0.8,0-1.5,0.1-2.2,0.2l-0.2,0C1374.1,719.8,1370.6,719.9,1367.1,719.9 M1379.6,714c3.7-0.3,7.4-0.6,11.1-1
		c5.2-0.7,10.3-1.4,15.1-2.3c0.7-0.2,1.4-0.3,2-0.4c10.4-2.1,20.1-5.1,28.9-8.7c0.2-0.1,0.5-0.2,0.7-0.3c7.5-3.2,14.5-7,20.7-11.3
		c1.1-0.8,2.1-1.5,3.2-2.4c9.2-7,17.1-15.4,23.5-25c5-7.6,9.1-16.2,12.2-25.3c3.3-10.6,5-21.2,5.1-31.3c-0.1-10.1-1.7-20.1-5-29.7
		c-2.1-6.3-4.9-12.5-8.3-18.6c-0.8-1.4-1.6-2.8-2.4-4.2l-2.1-3.3l-1.7-2.3l-0.2-0.3c-0.3-0.6-0.7-1.1-1.1-1.6
		c-0.6-0.7-1.1-1.4-1.5-2.1c-0.7-0.9-1.5-1.9-2.2-2.8c-16.8-20.3-38.1-33.6-63.3-39.4c-8-1.8-16.9-3.1-26.4-3.9
		c-2.1-0.2-4.1-0.3-6-0.4c-4.5-0.1-9-0.1-13.6,0.2c-0.4,0.2-0.8,0.2-1.3,0.1c-0.4,0.1-0.8,0.1-1.2,0.1c-17.7,1.4-35.4,6.3-52.5,14.5
		c-23.6,11.8-39.3,29.8-46.8,53.4l-0.1,0.2c-0.1,0.2-0.2,0.5-0.2,0.8l-0.1,0.2c-0.7,2.1-1.3,4.4-1.9,6.8c-0.1,0.3-0.1,0.6-0.2,0.9
		l-0.1,0.5l0,0.1c-2.1,9.3-3.1,19.6-3,30.5c0.2,8-0.5,15.3-2.1,21.7l0,0.1c-2.6,9.5-3.8,18.3-3.3,26.1c0.1,1.9,0.3,3.8,0.6,5.6
		l0,0.4c0,0,0,0.1,0.1,0.3l0.1,0.5c0.1,1.3,0.4,2.6,0.8,3.8l0.1,0.2c0.9,3.4,2.1,6.6,3.7,9.6c0.6,1.1,1.3,2.2,2.1,3.3l0.2,0.4
		l0.3,0.3c3.5,5.3,8.4,10.1,14.7,14.2c2.1,1.4,4.5,2.8,6.9,4.1c2.1,1.2,4.4,2.3,6.7,3.4c17.2,8,36.1,12.7,56.4,13.9
		c1.3,0.1,2.7,0.2,4.2,0.3c8.2,0.6,16.6,0.7,24.9,0.3C1378,714.1,1378.8,714,1379.6,714z M1263.2,678.1L1263.2,678.1L1263.2,678.1z
		 M1368,497.6L1368,497.6L1368,497.6z M1368.2,497.6"/>
	<path style="fill:#FFFFFF;" d="M1466.5,509c1.7-8.5,1.2-16.5-1.5-24c-3.8-9-9.7-12.1-17.7-9.3c-1.3,0.4-2.8,1.1-4.3,1.9
		c-9.9,6.2-18.5,15.6-25.7,28.2c-0.4,0.6-0.7,1.2-1.1,1.9l-0.2,0.3c-0.3,0.5-0.5,1-0.8,1.6c-0.4,0.6-0.7,1.2-1,1.9
		c-0.7,1.3-1.3,2.7-2,4.1c1.2,1,2.5,2,3.8,3c0.9,0.7,1.9,1.3,2.8,2c0.4,0.3,0.8,0.5,1.2,0.9l0.3,0.2c7.8,5,16.4,8.6,25.8,10.8
		l0.3,0.1c0.2,0.1,0.4,0.1,0.6,0.2c2.9,0.6,6,1.1,9.1,1.5c1.2-2,2.4-3.9,3.4-5.9c0.1-0.2,0.2-0.4,0.3-0.6c0.1-0.2,0.2-0.4,0.3-0.6
		C1463.3,521,1465.3,515,1466.5,509"/>
	<path style="fill:#47D7AC;" d="M1459.8,530.9c-0.2,0-0.4,0-0.7-0.1c-1.5-0.4-2.3-1.8-2-3.3c0.1-0.5,0.3-0.9,0.6-1.4l0.2-0.4
		c2.8-5.7,4.8-11.5,6-17.3c1.6-8,1.1-15.6-1.3-22.4c-4.2-9.9-9.9-9.4-14.4-7.8c-1.1,0.4-2.4,0.9-3.6,1.7
		c-9.5,5.9-17.8,15.1-24.8,27.3l-0.8,1.4l-1.1,2.2c-0.7,1.3-2.3,1.9-3.6,1.2s-1.9-2.3-1.2-3.6l0.9-1.9l0.1-0.2l1.1-1.8
		c7.4-12.9,16.3-22.7,26.6-29.2c1.7-1,3.3-1.7,4.7-2.2c6.5-2.3,15.5-2.3,21.2,10.9c2.9,7.9,3.4,16.4,1.6,25.4
		c-1.2,6.3-3.4,12.5-6.4,18.6l-0.3,0.6l-0.2,0.3C1461.9,530.2,1460.9,530.9,1459.8,530.9 M1462.2,529.2"/>
	<path style="fill:#83E8D3;" d="M1435.9,614.1c1.1-5.4,4.9-11.5,11.6-18.5c13.4-13.8,29.6-24.1,48.2-30.6c1-0.4,2.1,0.2,2.5,1.2
		c0.4,1-0.2,2.1-1.2,2.5c0.9,2.2,1.8,4.5,2.5,6.7c0.4,1.1,0.8,2.3,1.2,3.5c2.6,8.8,3.9,17.9,4,27.1c0,10.5-1.8,21.2-5.2,32.1
		c-3.2,9.5-7.4,18.1-12.5,26c-5,7.5-10.7,14.1-17.3,20.1c0,0,0,0,0,0.1c0.7,0.8,0.6,2-0.2,2.7c-0.4,0.3-0.8,0.5-1.3,0.5
		c-0.5,0-1.1-0.2-1.4-0.6c-3.6-4-6.1-7-7.5-9c-9.3-12.8-16.4-26.2-21-39.8c-0.6-1.8-1.2-3.7-1.8-5.6
		C1435,625.6,1434.8,619.5,1435.9,614.1z"/>
	<path style="fill:#47D7AC;" d="M1468.3,688.2c0.6,0,1.3-0.2,1.8-0.7c7.3-6.4,13.8-13.8,19.2-22c5.2-8,9.5-17,12.8-26.6
		c3.5-11.2,5.3-22.3,5.3-33c-0.1-9.5-1.4-18.8-4.1-27.9c-0.4-1.3-0.8-2.5-1.2-3.7c-1-2.8-2.1-5.7-3.3-8.6l-0.1-0.1l0-0.1
		c-0.2-0.3-0.3-0.6-0.4-1c-0.5-1.4-2.1-2.1-3.5-1.6c-1.4,0.5-2.1,2.1-1.6,3.5c0.2,0.5,0.4,0.9,0.6,1.4c1.2,2.8,2.2,5.5,3.2,8.3
		c0.4,1.1,0.8,2.3,1.1,3.4c2.5,8.5,3.8,17.4,3.9,26.3c0,10.2-1.7,20.7-5.1,31.3c-3.1,9.2-7.2,17.7-12.2,25.3
		c-5.1,7.8-11.3,14.8-18.3,20.9c-1.1,1-1.2,2.7-0.3,3.8C1466.8,687.9,1467.6,688.2,1468.3,688.2"/>
	<path style="fill:#333333;" d="M1321.4,612.8c0,5.1-1,9.4-2.9,13c-1.9,3.7-4.2,5.5-7,5.5c-2.7,0-5.1-1.8-7-5.5
		c-2-3.6-2.9-7.9-2.9-13c0-5.1,1-9.4,2.9-13c1.9-3.6,4.2-5.4,7-5.4c2.7,0,5.1,1.8,7,5.4C1320.4,603.4,1321.4,607.8,1321.4,612.8"/>
	<path style="fill:#83E8D3;" d="M1314.2,578.8l0.1,0.1c1.4,0.4,2.8,0.2,4.1-0.7c1.3-0.6,2.2-1.7,2.6-3.2c0.4-1.4,0.2-2.8-0.5-4.3
		c-0.6-1.3-1.7-2.1-3-2.6l-20.3-5.8c-1.4-0.4-2.8-0.2-4,0.5c-1.3,0.8-2.2,1.9-2.6,3.4c-0.4,1.5-0.3,2.8,0.4,4.1
		c0.7,1.2,1.6,2.1,2.7,2.5l0.4,0.1L1314.2,578.8"/>
	<path style="fill:#47D7AC;" d="M1315.7,581c-0.6,0-1.3-0.1-1.9-0.3l-0.4-0.2l-19.7-5.6c-0.3-0.1-0.6-0.1-0.8-0.3
		c-1.5-0.7-2.7-1.8-3.5-3.3c-1-1.7-1.2-3.6-0.6-5.6c0.5-2,1.7-3.5,3.5-4.6c1.7-0.9,3.5-1.2,5.5-0.7l20.4,5.8
		c1.8,0.6,3.2,1.8,4.1,3.5c1,1.9,1.2,3.8,0.6,5.7c-0.6,2-1.8,3.5-3.5,4.4C1318.3,580.6,1317,581,1315.7,581 M1314,580.7L1314,580.7
		L1314,580.7z M1314,580.7 M1312.9,580.1L1312.9,580.1L1312.9,580.1z M1314.2,578.7L1314.2,578.7L1314.2,578.7z M1294.2,564.5
		c-0.9,0.5-1.5,1.3-1.7,2.3c-0.3,1-0.2,1.8,0.3,2.7c0.4,0.8,1,1.4,1.7,1.7l0,0l0.1,0l20,5.7l0.5,0.2c0.8,0.2,1.5,0,2.3-0.5l0.2-0.1
		c0.8-0.4,1.3-1,1.6-2c0.3-0.9,0.2-1.8-0.4-2.8c-0.4-0.8-1-1.3-1.8-1.6l-20.3-5.8c-0.3-0.1-0.6-0.1-1-0.1
		C1295.3,564.1,1294.7,564.2,1294.2,564.5z M1294.8,571.3L1294.8,571.3L1294.8,571.3z M1294.3,571.1"/>
	<path style="fill:#333333;" d="M1395.5,626.6c1.3,0,2.6-0.7,3.2-2c0.8-1.7,0.1-3.8-1.7-4.6l-13.7-6.4l14.6-6.8
		c1.8-0.8,2.5-2.9,1.7-4.6c-0.8-1.8-2.9-2.5-4.6-1.7l-21.4,9.9c-1.2,0.6-2,1.8-2,3.2c0,1.4,0.8,2.6,2,3.2l20.5,9.6
		C1394.5,626.5,1395,626.6,1395.5,626.6"/>
	<path style="fill:#83E8D3;" d="M1398.1,564.6c-1.2-0.8-2.5-1.1-4-0.9l-20.8,3.7c-1.4,0.3-2.5,1.1-3.3,2.3c-0.9,1.3-1.2,2.7-0.9,4.2
		c0.3,1.6,1,2.7,2.3,3.5c1.2,1,2.6,1.3,4,1.1l0.2-0.1l20.6-3.7l0.4-0.1c1.2-0.4,2.2-1.1,2.9-2.3c0.8-1.2,1.1-2.5,0.9-4
		C1400.1,566.8,1399.3,565.5,1398.1,564.6"/>
	<path style="fill:#47D7AC;" d="M1374.6,580.4c-1.5,0-3-0.5-4.3-1.5c-1.7-1.1-2.7-2.7-3-4.7c-0.3-1.9,0.1-3.8,1.2-5.6
		c1.1-1.6,2.6-2.7,4.5-3.1l20.9-3.7c1.9-0.3,3.7,0.1,5.4,1.3c1.6,1.2,2.7,2.9,3,4.9c0.4,2,0,3.9-1.2,5.5c-1,1.5-2.3,2.5-3.9,3
		c-0.3,0.1-0.6,0.2-0.9,0.2l-20.2,3.6l-0.4,0.1C1375.4,580.3,1375,580.4,1374.6,580.4 M1375.6,580.2L1375.6,580.2L1375.6,580.2z
		 M1375.6,580.2L1375.6,580.2L1375.6,580.2z M1376.9,579.7L1376.9,579.7L1376.9,579.7z M1375.4,576.3l20.5-3.7l0.2,0h0
		c0.8-0.2,1.4-0.7,1.9-1.5c0.5-0.8,0.7-1.6,0.5-2.6c-0.2-1-0.7-1.8-1.4-2.4c-0.8-0.6-1.6-0.7-2.5-0.6l-20.7,3.6
		c-0.9,0.2-1.6,0.7-2.1,1.4c-0.6,0.9-0.8,1.8-0.6,2.8c0.2,1,0.6,1.7,1.4,2.2l0.2,0.1c0.7,0.6,1.4,0.8,2.2,0.7L1375.4,576.3z
		 M1395.7,572.8L1395.7,572.8L1395.7,572.8z M1396.2,572.7L1396.2,572.7L1396.2,572.7z"/>
	<path style="fill:#333333;" d="M1339.1,672.4c-1.9,0-3.3-0.7-4.2-1.5c-1.2-0.9-2.6-2.7-2.6-5.9c0-2.3,0.8-4.5,2.3-6.5l0.2-0.3
		c0.3-0.3,0.5-0.6,0.8-0.9c-0.3-0.3-0.5-0.6-0.8-0.9l-0.1-0.1c-1.6-2-2.4-4.3-2.4-6.6c0-3.2,1.4-4.9,2.6-5.9c1.2-1,3.4-2,6.5-1.1
		c2.2,0.6,4.1,2,5.7,4c0.2,0.3,0.4,0.5,0.5,0.8c0.6,0.9,0.3,2.1-0.6,2.7c-0.9,0.6-2.1,0.3-2.7-0.6l-0.3-0.4
		c-1.1-1.4-2.3-2.3-3.7-2.7c-1.6-0.5-2.5,0-3,0.4c-0.5,0.4-1.1,1.1-1.1,2.8c0,1.5,0.5,2.9,1.6,4.3l0.1,0.1c0.6,0.7,1.2,1.3,1.8,1.7
		c0.5,0.4,0.9,1,0.9,1.6c0,0.7-0.3,1.3-0.9,1.6c-0.6,0.4-1.2,0.9-1.7,1.5l-0.3,0.4c-1.1,1.4-1.6,2.7-1.6,4.2c0,1.7,0.6,2.4,1.1,2.8
		c0.5,0.4,1.4,0.9,3,0.4c1.4-0.4,2.6-1.3,3.7-2.7l0.3-0.4c0.6-0.9,1.9-1,2.7-0.4c0.9,0.6,1,1.9,0.4,2.7l-0.4,0.5
		c-1.6,2-3.5,3.4-5.7,4C1340.5,672.3,1339.8,672.4,1339.1,672.4 M1334.4,659.5L1334.4,659.5L1334.4,659.5z M1334.4,659.5
		L1334.4,659.5L1334.4,659.5z"/>
	<path style="fill:#83E8D3;" d="M1252.2,636.4c0.8-1,1.5-2,2.3-2.9c0.5-2.2,1-4.4,1.6-6.7c1.5-6.2,2.2-13.2,2-21
		c0-5.1,0.2-10.1,0.6-14.9c-0.4-0.8-0.9-1.6-1.3-2.5c-0.5-0.9-0.2-2.1,0.8-2.6c0.9-0.5,2.1-0.2,2.6,0.8c4.6,8.5,7.5,14.7,8.9,18.9
		c2.1,6.4,1.2,12.4-2.6,17.7c-3.1,4.3-7,9.5-11.8,15.6c-0.4,0.5-1,0.7-1.5,0.7c-0.4,0-0.8-0.1-1.2-0.4
		C1251.7,638.4,1251.5,637.2,1252.2,636.4z"/>
	<path style="fill:#47D7AC;" d="M1253.7,640.3c1.3,0,2.5-0.9,2.7-2.3c0.5-3.4,1.3-6.9,2.3-10.5c1.6-6.5,2.3-13.8,2.1-21.8
		c-0.1-6.2,0.2-12.3,0.9-18c0.2-1.5-0.9-2.8-2.4-3c-1.5-0.2-2.8,0.9-3,2.4c-0.7,5.9-1,12.2-0.9,18.7c0.2,7.5-0.4,14.3-1.9,20.3
		c-1,3.7-1.9,7.5-2.4,11c-0.2,1.5,0.8,2.9,2.2,3.1L1253.7,640.3"/>
	<path style="fill:#83E8D3;" d="M1492.4,611.3c4.7-5.1,10-6.7,16-4.8c6,1.8,8.1,5.7,6.5,11.7c-3,8.1-4.5,18.9-4.6,32.4l-19.9-5.7
		C1484.3,631.2,1484.9,620,1492.4,611.3"/>
	<path style="fill:#47D7AC;" d="M1510.3,653.3c-0.3,0-0.5,0-0.8-0.1l-19.9-5.7c-0.8-0.2-1.4-0.8-1.7-1.5c-6.7-14.7-5.9-27,2.4-36.6
		c5.3-5.9,11.8-7.8,18.8-5.6c7.4,2.2,10.3,7.6,8.4,15l-0.1,0.2c-2.9,7.7-4.4,18.3-4.4,31.5c0,0.9-0.4,1.7-1.1,2.2
		C1511.5,653.2,1510.9,653.3,1510.3,653.3 M1507.6,609.1c-5-1.6-9.2-0.3-13.1,4c-6.6,7.7-7.3,17.3-2,29.6l15.2,4.4
		c0.3-12.1,1.9-22.1,4.7-29.7C1513.5,612.8,1512.1,610.4,1507.6,609.1z M1490.5,644.9L1490.5,644.9L1490.5,644.9z"/>
	<path style="fill:#83E8D3;" d="M1500.4,628.5c2.6,1.4,4.9,3.1,7,5c10.4,10.3,16.1,22.1,17.2,35.5c0.7,9-0.2,17.4-2.7,25.2
		c-1.4,4.1-3.1,7.9-5,11.3c-13.4,24.7-36.8,38.6-70.2,41.5c-4.1,0.3-8.4,0.5-12.8,0.5c-0.9,0-1.9,0-2.8,0c-0.2,0-1.2,0.6-3.1,1.7
		c-2,1.1-3.6,1.7-5,1.9c-1.4,0.1-1.7-2.5-0.9-8l-28.3-25.8c4.8-6.6,12.9-9.8,24.4-9.5c4.6,0.1,7.9,0.1,10,0.1
		c2.7-0.1,4.6-0.1,5.7-0.2c4.3-0.3,8.6-0.9,12.8-1.9c11.5-2.7,22.2-8.3,32.2-16.6c1,0.2,2,0.2,2.9,0.2c-1,0-2-0.1-2.9-0.2
		c-3.6-0.6-7.2-2.5-10.8-5.7c-4-3.8-7-8.6-8.9-14.4c-2.7-7.7-3.1-15.1-1.2-22.2c0.2-0.7,0.5-1.5,0.9-2.3c3.4-9.7,9.7-16,18.7-18.9
		C1485.2,623.4,1492.9,624.3,1500.4,628.5"/>
	<path style="fill:#47D7AC;" d="M1431,750.3h2.8c4.5-0.1,8.8-0.2,13-0.6c34.3-3,58.7-17.5,72.4-42.9c2-3.4,3.7-7.4,5.2-11.7
		c2.6-8.1,3.6-17,2.9-26.3c-1.1-14-7.1-26.5-18-37.2c-2.3-2.1-4.8-3.9-7.6-5.5c-8.2-4.6-16.6-5.6-25-2.9
		c-9.9,3.2-16.7,10.1-20.4,20.5c-0.4,0.9-0.7,1.8-0.9,2.6c-2.1,7.7-1.7,15.7,1.2,23.8c2.1,6.1,5.3,11.3,9.6,15.4
		c2.3,2,4.7,3.6,7,4.7c-8.5,6.3-17.6,10.7-27.2,13c-4,0.9-8.2,1.5-12.3,1.8c-1,0.1-2.9,0.1-5.6,0.2c-2.1,0-5.4,0-9.9-0.1
		c-12.3-0.2-21.3,3.4-26.6,10.7c-0.9,1.2-0.6,2.9,0.6,3.8c1.2,0.9,2.9,0.6,3.8-0.6c4.3-5.9,11.5-8.6,22.1-8.4
		c4.6,0.1,7.9,0.1,10.1,0.1c2.8-0.1,4.7-0.1,5.8-0.2c4.5-0.3,9-0.9,13.3-1.9c11.5-2.7,22.4-8.3,32.4-16.4c0.7,0.1,1.4,0.1,2.1,0.1
		c1.5,0,2.7-1.2,2.7-2.7c0-1.5-1.2-2.7-2.7-2.7c-0.8,0-1.7-0.1-2.5-0.2c-3.1-0.5-6.2-2.2-9.4-5c-3.6-3.4-6.3-7.9-8.1-13.2
		c-2.5-7.1-2.9-14-1.1-20.6c0.2-0.6,0.4-1.2,0.7-1.9l0.1-0.2c3.1-8.9,8.7-14.6,17-17.3c7-2.2,13.8-1.4,20.7,2.5
		c2.4,1.3,4.6,2.9,6.5,4.7c9.8,9.7,15.3,21.1,16.3,33.7c0.7,8.6-0.2,16.7-2.6,24.2c-1.3,3.9-2.9,7.6-4.7,10.7
		c-12.9,23.8-35.8,37.3-68.1,40.2c-4,0.3-8.3,0.5-12.6,0.5h-2.8c-1.5,0-2.7,1.2-2.7,2.7C1428.3,749.1,1429.5,750.3,1431,750.3"/>
</g>
<g>
</g>
<g>
</g>
<g>
</g>
<g>
</g>
<g>
</g>
<g>
</g>
<g>
</g>
<g>
</g>
<g>
</g>
<g>
</g>
<g>
</g>
<g>
</g>
<g>
</g>
<g>
</g>
<g>
</g>
</svg>
