<svg xmlns="http://www.w3.org/2000/svg" viewBox="0 0 1600 900"><defs><style>.cls-1{fill:#d3ecf9;}.cls-2{fill:#5aa7e0;}.cls-3{fill:#fff;}.cls-4{fill:#76baeb;}.cls-5{fill:#77aac7;}.cls-6{fill:#b7d8eb;}.cls-7{fill:#92c4e0;}.cls-8{fill:#fcc5c5;}.cls-9{fill:#f3a5a4;}.cls-10,.cls-12{fill:#83e8d3;}.cls-11{fill:#47d7ac;}.cls-12{stroke:#47d7ac;stroke-miterlimit:10;stroke-width:2.885px;}.cls-13{fill:#1cb594;}</style></defs><g id="Layer_1" data-name="Layer 1"><rect class="cls-1" width="1600" height="900"/><rect class="cls-2" x="69.372" y="30.969" width="426.39" height="65" rx="32.5"/><path class="cls-3" d="M156.54,61.427c0-6.289.781-10.539,2.991-12.885a8.219,8.219,0,0,1,11.287,0c2.176,2.346,2.992,6.6,2.992,12.885,0,6.357-.816,10.607-2.992,12.953a8.406,8.406,0,0,1-11.287,0C157.321,72.034,156.54,67.784,156.54,61.427Zm11.423,0c0-5.338-.374-8.261-1.259-9.485a1.978,1.978,0,0,0-1.529-.714,1.885,1.885,0,0,0-1.53.714c-.884,1.224-1.224,4.147-1.224,9.485,0,5.4.34,8.363,1.224,9.553a1.856,1.856,0,0,0,1.53.68,1.945,1.945,0,0,0,1.529-.68C167.589,69.79,167.963,66.832,167.963,61.427Zm8.94-15.162h5.95V78.119H176.9Z"/><path class="cls-3" d="M193.429,46.639V51.6h5.133V46.639h5.609V53.37h3.706v-7.1h5.949V68.974h-5.949V58.231h-3.706V65.2h-16.42V46.639Zm20.805,26.823v4.827H189.519V67.206h5.949v6.256ZM193.429,60.509h5.133V56.293h-5.133Z"/><path class="cls-3" d="M235.248,70.368c-1.563,2.822-5.269,5.168-9.213,5.915V71.116c3.705-1.5,6.255-4.046,6.255-12.919V46.639h5.949V58.2c0,8.873,2.483,11.355,6.222,12.919v5.167A14.2,14.2,0,0,1,235.248,70.368Zm11.9-24.1h5.95V78.119h-5.95Z"/><path class="cls-3" d="M267.854,51.466H257.62V46.639H273.8V49.9c0,9.723-5.032,15.162-16.9,16.08V61.087C264.182,60.339,267.785,57.109,267.854,51.466ZM259.286,66.7h5.949v6.766h18.494v4.827H259.286Zm18.052-20.431h5.95v8.023h4.182v4.929h-4.182V68.6h-5.95Z"/><path class="cls-3" d="M288.458,61.427c0-7.717.714-11.8,2.754-13.769a5.26,5.26,0,0,1,3.909-1.36,5.506,5.506,0,0,1,3.943,1.36c1.666,1.666,2.449,4.862,2.653,10.539h1.835V46.468h5.168V77.813h-5.168V63.2h-1.8c-.136,6.629-.884,10.233-2.686,12.034a5.341,5.341,0,0,1-3.943,1.327,5.11,5.11,0,0,1-3.909-1.327C289.172,73.292,288.458,69.212,288.458,61.427Zm8.125,0c0-6.391-.136-9.043-.748-9.927a.829.829,0,0,0-1.428,0c-.646.884-.782,3.536-.782,9.927,0,6.425.136,9.077.782,9.995a.869.869,0,0,0,1.428,0C296.447,70.5,296.583,67.852,296.583,61.427Zm18.834-15.162V78.119h-5.27V46.265Z"/><path class="cls-3" d="M333.336,46.809v10.4h2.516v-10.4h5.065V76.08H328.236V46.809Zm0,24.579h2.516V62.005h-2.516ZM354.72,46.265V78.119h-5.27V63.127h-1.767V77.813h-5.168V46.468h5.168V58.163h1.767v-11.9Z"/><path class="cls-3" d="M387.021,62.379H375.529v1.564h9.553v9.281H365.977v1.19h19.752v4.011h-25.6V69.212H379.2V67.988H360.129V63.943h9.485V62.379H358.19V58.027h28.831Zm-27.4-10.743a3.862,3.862,0,0,1,1.564-3.264c2.04-1.53,5.881-2.107,11.457-2.107,5.506,0,9.382.577,11.388,2.107a4.046,4.046,0,0,1,0,6.494c-2.006,1.529-5.882,2.141-11.388,2.141-5.576,0-9.417-.612-11.457-2.141A3.843,3.843,0,0,1,359.619,51.636Zm20.159,0a.664.664,0,0,0-.407-.612c-.816-.51-2.992-.646-6.731-.646-3.774,0-5.95.136-6.8.646a.726.726,0,0,0-.407.612.821.821,0,0,0,.407.612c.85.51,3.026.612,6.8.612,3.739,0,5.915-.1,6.731-.612A.736.736,0,0,0,379.778,51.636Z"/><path class="cls-3" d="M406.944,76.08h-8.465V46.639h5.542V71.218h3.671c2.142,0,3.6-.238,4.624-1.054v-23.7h5.236V58.163h2.04v-11.9h5.371V78.119h-5.371V63.127h-2.04V77.813h-5.236V74.89C411.263,75.773,409.6,76.08,406.944,76.08Z"/><path class="cls-3" d="M429.861,52.588a4.734,4.734,0,0,1,2.006-4.08c2.209-1.632,5.984-2.243,11.015-2.243,4.963,0,8.805.611,10.946,2.243a5.049,5.049,0,0,1,0,8.159,7.67,7.67,0,0,1-2.243,1.156v2.652h5.678v4.658h-28.83V60.475h5.813V57.857a8.635,8.635,0,0,1-2.379-1.19A4.731,4.731,0,0,1,429.861,52.588Zm0,19.99a4.824,4.824,0,0,1,2.413-4.284c2.21-1.428,5.882-2.04,10.608-2.04,4.691,0,8.363.612,10.572,2.04a4.972,4.972,0,0,1,0,8.567c-2.209,1.462-5.881,2.006-10.572,2.006-4.726,0-8.4-.544-10.608-2.006A4.824,4.824,0,0,1,429.861,72.578Zm20.16-19.99a1.164,1.164,0,0,0-.51-.918c-.951-.68-3.161-.85-6.629-.85-3.5,0-5.712.17-6.663.85a1.047,1.047,0,0,0,0,1.836c.951.646,3.161.849,6.663.849,3.468,0,5.678-.2,6.629-.849A1.164,1.164,0,0,0,450.021,52.588Zm-14.346,19.99a1.084,1.084,0,0,0,.611.952c.986.612,3.094.816,6.6.816,3.468,0,5.575-.2,6.561-.816a1.052,1.052,0,0,0,.578-.952,1.184,1.184,0,0,0-.578-.986c-.986-.544-3.093-.816-6.561-.816-3.5,0-5.61.272-6.6.816A1.222,1.222,0,0,0,435.675,72.578Zm10.1-13.7c-.917.034-1.87.068-2.889.068-.986,0-1.9-.034-2.788-.068v1.6h5.677Z"/><circle class="cls-4" cx="102.301" cy="63.469" r="28.676"/><circle class="cls-3" cx="102.301" cy="63.469" r="24.853"/><path class="cls-2" d="M114.257,60.975h2.526a14.962,14.962,0,0,0-12.544-12.322v2.515A12.484,12.484,0,0,1,114.257,60.975Zm-26.961,0h2.529a12.492,12.492,0,0,1,9.426-9.687V48.724A14.989,14.989,0,0,0,87.3,60.975Zm2.545,4.987H87.308a14.994,14.994,0,0,0,11.943,12.16V75.556A12.488,12.488,0,0,1,89.841,65.962Zm14.4,9.714V78.2a14.967,14.967,0,0,0,12.531-12.24h-2.527A12.487,12.487,0,0,1,104.239,75.676Z"/><path class="cls-2" d="M101.745,44.352A1.322,1.322,0,0,0,100.36,45.6v8.59a1.393,1.393,0,0,0,2.771,0V45.6A1.323,1.323,0,0,0,101.745,44.352Z"/><path class="cls-2" d="M101.745,71.5a1.322,1.322,0,0,0-1.385,1.247v8.59a1.393,1.393,0,0,0,2.771,0V72.75A1.323,1.323,0,0,0,101.745,71.5Z"/><path class="cls-2" d="M120.172,62.083h-8.589a1.394,1.394,0,0,0,0,2.772h8.589a1.394,1.394,0,0,0,0-2.772Z"/><path class="cls-2" d="M93.02,62.083H84.432a1.394,1.394,0,0,0,0,2.772H93.02a1.394,1.394,0,0,0,0-2.772Z"/><circle class="cls-2" cx="101.746" cy="63.469" r="2.361"/><path class="cls-5" d="M723.82,858.854H876.188c22.441,0,41.406.4,48.912-17.562h-250.2C682.4,859.255,701.379,858.854,723.82,858.854Z"/><path class="cls-6" d="M170.012,839.557V171.612a42.24,42.24,0,0,1,42.311-42.055H1387.684a42.205,42.205,0,0,1,42.328,42.055V839.557Z"/><polygon class="cls-3" points="225.012 779.414 225.023 184.557 1375.012 184.557 1375.012 779.414 225.012 779.414"/><path class="cls-7" d="M1600,873.653V837.414H926.457c-6.328,21.9-26.319,21.44-50.269,21.44H723.82c-23.95,0-43.957.458-50.27-21.44H0v36.239S54.451,900,95.152,900h1409.7C1545.534,900,1600,873.653,1600,873.653Z"/><path class="cls-8" d="M1489.033,775.532s24.064-5.886,23.444-30.661c0,0-20.283-10.684-20.592-11.15s-15.02,33.652-15.02,33.652Z"/><path class="cls-9" d="M1487.59,776.974a1.432,1.432,0,0,1-.8-.245l-12.167-8.158a1.439,1.439,0,0,1-.522-1.768c14.831-34.4,15.068-34.418,16.2-34.522a1.443,1.443,0,0,1,1.1.364c1.188.813,13.029,7.119,20.3,10.951a1.445,1.445,0,0,1,.771,1.239c.64,25.639-24.294,32.036-24.546,32.1A1.474,1.474,0,0,1,1487.59,776.974Zm-10.367-10.13,10.622,7.123c3.639-1.069,21.8-7.45,21.759-28.219-11.587-6.108-16.5-8.781-18.632-10.025C1488.828,740.16,1481.888,756.036,1477.223,766.844Z"/><path class="cls-10" d="M1469.5,783.458l-46.384-2.247-15.9-34.169s-34.376-119.538-34.891-119.436l91.77,48.93,38.813,3.1,20.2,15.122,10.155,19.985s.995,19.028,1.148,19.49-8.261,9.6-8.261,9.6l-19.133,3.537-20.019-7.6"/><path class="cls-10" d="M1372.332,605.169s-15.943-18.853-27.556-17.807-15.181,17.141-10.69,32.814c5.227,18.246,20.263,47.927,62.833,85.4,0,0-21.463,46.255,2.664,70.5,15.718,15.792,35.1,10.292,35.165,10.071"/><path class="cls-11" d="M1399.584,778.243a2.163,2.163,0,0,1-1.688-.807c-22.837-28.378-7.542-63.56-3.674-71.358-41.835-37.149-56.93-66.858-62.217-85.306-3.259-11.376-2.43-22.6,2.164-29.3a13.855,13.855,0,0,1,10.412-6.261c12-1.077,20.145,9.322,21.333,10.936l7.9,7.452a2.164,2.164,0,1,1-2.969,3.148l-8.052-7.591a2.173,2.173,0,0,1-.287-.333c-.068-.1-7.35-10.222-17.539-9.3a9.537,9.537,0,0,0-7.233,4.4c-3.823,5.577-4.44,15.651-1.571,25.665,5.178,18.078,20.171,47.391,62.183,84.372a2.166,2.166,0,0,1,.45,2.694c-.217.38-21.377,38.445,2.47,68.077a2.163,2.163,0,0,1-1.685,3.52Z"/><path class="cls-10" d="M1507.617,694s2.71,35.56-8.23,57.165c-9.01,17.793-13.929,28.605-31.36,26.381-10.937-1.392-14.1-22.578-6.155-47.435"/><path class="cls-11" d="M1485.755,774.906a2.163,2.163,0,0,1-1.186-3.973c20.751-13.584,15.377-53.159,15.32-53.556a2.164,2.164,0,1,1,4.284-.612,102.262,102.262,0,0,1,.174,22.937c-1.775,16.507-7.794,28.557-17.409,34.851A2.152,2.152,0,0,1,1485.755,774.906Z"/><path class="cls-10" d="M1444.718,768.93l2.138,52.456a9.292,9.292,0,0,0-4.863,7.369c-.344,4.764,2.851,7.753,11.567,7.59,7.862-.147,14.3-.369,21.294-.369,7.33,0,11.734-7.108,8.25-14.956l1.917-52.09Z"/><path class="cls-10" d="M1441.1,768.958l-3.084,7.973-4.817,12.4-.988,2.529-.987,2.554-2.626,6.744-7.684,19.849q2.421,14.019-8.262,14.958a173.089,173.089,0,0,1-21.294.386q-12.068-.469-11.562-7.612a9.275,9.275,0,0,1,4.866-7.347l3.179-10.358.025-.024,6.72-21.872,2.794-9.081.843-2.77.313-.939v-.024l.193-.6.361-1.2,1.936.115Z"/><path class="cls-8" d="M1504.539,683.621s-14.267,10.929-10.239,34.931l11.082,3.5s-7.963-24.073,9.446-37.618"/><path class="cls-9" d="M1505.381,723.494a1.437,1.437,0,0,1-.432-.068l-11.083-3.5a1.442,1.442,0,0,1-.989-1.137c-4.124-24.575,10.174-35.845,10.784-36.312a1.442,1.442,0,0,1,1.758,2.287h0c-.548.424-13.191,10.5-9.836,32.68l7.75,2.448c-1.51-6.8-3.944-25.272,10.61-36.6a1.442,1.442,0,1,1,1.771,2.277c-16.383,12.747-9.038,35.8-8.962,36.026a1.444,1.444,0,0,1-1.371,1.895Z"/><path class="cls-12" d="M1516.955,717.105s-4.957,1.7-8.982,0-14.863-4.488-21.059,0-7.119,18.269,2.17,24.312,30.968,10.681,40.879-.932"/><path class="cls-11" d="M1511.673,749.8c-9.106,0-18.4-3.079-23.768-6.566a17.615,17.615,0,0,1-7.878-14.628c-.141-5.56,2.011-10.636,5.616-13.251,7.185-5.2,19.165-1.938,23.174-.239,3.168,1.341,7.393-.041,7.435-.055a2.164,2.164,0,1,1,1.406,4.093c-.231.081-5.79,1.953-10.529-.055-3.971-1.679-13.823-3.948-18.946-.239-2.43,1.762-3.934,5.544-3.83,9.636a13.343,13.343,0,0,0,5.912,11.109c8.437,5.489,28.947,10.145,38.053-.521,3.722-4.361,5.181-11.628,3.9-19.437-2.306-14.112-12.566-27.568-28.147-36.918a2.163,2.163,0,1,1,2.225-3.71c16.676,10,27.68,24.559,30.193,39.931,1.5,9.184-.279,17.547-4.885,22.943C1526.673,747.672,1519.24,749.8,1511.673,749.8Z"/><path class="cls-11" d="M1511.676,748.572c-8.818,0-17.865-3.01-23.081-6.4a16.367,16.367,0,0,1-7.3-13.6c-.13-5.148,1.821-9.82,5.1-12.192,6.71-4.861,18.108-1.72,21.937-.1,3.661,1.553,8.292-.006,8.34-.023a.9.9,0,1,1,.583,1.7c-.216.073-5.333,1.8-9.625-.022-3.325-1.408-14.174-4.453-20.182-.1-2.758,2-4.466,6.2-4.354,10.694a14.6,14.6,0,0,0,6.488,12.139c8.764,5.7,30.129,10.46,39.706-.762a.9.9,0,0,1,1.367,1.167C1525.966,746.551,1518.9,748.571,1511.676,748.572Z"/><path class="cls-13" d="M1464.689,739.228a23,23,0,0,0-1.792-8.579,20.2,20.2,0,0,0-4.773-7.088,21.967,21.967,0,0,0-35.88,7.312,22.188,22.188,0,0,0-1.717,8.653v1.265l12.011-.072v-1.271a10.133,10.133,0,0,1,2.91-7.234,10.082,10.082,0,0,1,14.247-.075,9.577,9.577,0,0,1,3.059,7.236v1.192h11.935v-1.339Z"/><path class="cls-8" d="M1397.521,674.832a36.855,36.855,0,0,0-8.229,10.113c-3.464,6.32-2.967,14.322-2.967,14.322l8.729,5.581s.8-8.709,4.529-15.008a77.419,77.419,0,0,1,7.029-10.13"/><path class="cls-9" d="M1393.982,706.974a1.445,1.445,0,0,1-.913-.325l-8.768-7.174a1.444,1.444,0,0,1-.524-1.241,39.544,39.544,0,0,1,4.251-13.981,38.015,38.015,0,0,1,8.594-10.549,1.442,1.442,0,0,1,1.8,2.252,35.779,35.779,0,0,0-7.865,9.683,37.054,37.054,0,0,0-3.819,12.1l6.356,5.2a55.53,55.53,0,0,1,5.247-13.838,78.228,78.228,0,0,1,7.176-10.336,1.442,1.442,0,1,1,2.186,1.882,76.982,76.982,0,0,0-6.881,9.925c-3.556,6.006-5.408,15.146-5.427,15.238a1.438,1.438,0,0,1-.928,1.076A1.458,1.458,0,0,1,1393.982,706.974Z"/><path class="cls-3" d="M1467.536,506.27a38.035,38.035,0,0,0-7.276-19.452q-8.159-9.714-16.98-3.229a17.427,17.427,0,0,0-3.036,2.682q-9.969,11.459-14.124,29.775-.213.9-.427,1.814l-.048.295c-.086.494-.168.986-.253,1.48-.143.6-.262,1.2-.362,1.794q-.324,1.922-.631,3.911,1.932.811,3.91,1.54,1.409.483,2.817.962.614.168,1.242.393l.3.049a70.224,70.224,0,0,0,24.024,2.412l.274-.014.554-.029q3.894-.345,7.879-1.074.793-2.907,1.332-5.738l.1-.592.1-.59a60.872,60.872,0,0,0,.608-16.389"/><path class="cls-11" d="M1425.053,521.947a2.351,2.351,0,0,0,2.653-1.935l.7-3.439c2.675-11.789,7.253-21.466,13.608-28.774a15.267,15.267,0,0,1,2.583-2.277c3.356-2.464,7.89-4.319,13.865,2.8a35.808,35.808,0,0,1,6.736,18.172,58.654,58.654,0,0,1-.584,15.766l-.072.423a3.838,3.838,0,0,0-.158,1.273,2.348,2.348,0,0,0,4.691-.032l.07-.292.1-.59a63.433,63.433,0,0,0,.627-17.018,40.5,40.5,0,0,0-7.733-20.621c-7.992-9.523-15.414-7.263-20.246-3.715a19.877,19.877,0,0,0-3.377,2.984c-6.914,7.952-11.84,18.314-14.685,30.846l-.421,1.795-.029.141-.3,1.783a2.352,2.352,0,0,0,1.927,2.706l.054.008"/><path class="cls-3" d="M1577.1,556.633q-.807-1.473-1.686-2.886-18.229-30.019-50.448-42.537a176.99,176.99,0,0,0-22.352-6.686q-2.685-.657-5.265-1.1-5.947-1.064-11.836-1.575l-.684.037a2.037,2.037,0,0,0-.731-.106l-.673-.03a131.411,131.411,0,0,0-47.7,5.987q-33.534,11.151-48.022,41.049a6.479,6.479,0,0,0-.476.95q-1.342,2.716-2.524,5.735a8.859,8.859,0,0,0-.352,1.033l-.105.254a117.01,117.01,0,0,0-6.513,26.309,67.206,67.206,0,0,1-4.316,17.677,72.005,72.005,0,0,0-6.259,22.683,46.516,46.516,0,0,0-.2,5.121,3.127,3.127,0,0,0,.01.883,17.515,17.515,0,0,0,.26,3.834,41.651,41.651,0,0,0,2.117,9.253q.645,1.655,1.43,3.255l.311.658a45.079,45.079,0,0,0,11.362,14.721,68.812,68.812,0,0,0,5.579,4.536q2.567,1.929,5.412,3.831a134.608,134.608,0,0,0,47.309,19.239q1.708.382,3.549.785a179.713,179.713,0,0,0,21.671,3.4q1.015.009,2.088.1,4.829.357,9.751.529,6.963.12,13.433-.094.828-.084,1.709-.092a139.529,139.529,0,0,0,26.322-3.922l.493-.133a108.579,108.579,0,0,0,19.7-7.322q1.536-.793,3.083-1.654a89.529,89.529,0,0,0,23.825-18.993,99.333,99.333,0,0,0,13.9-20.7,94.237,94.237,0,0,0,8.421-26.843,83.523,83.523,0,0,0-.6-26.793,96.241,96.241,0,0,0-4.943-17.391q-.793-2.01-1.6-3.957-.716-1.6-1.437-3.188-.583-1.1-1.172-2.205a12.129,12.129,0,0,0-.944-1.9,11.552,11.552,0,0,1-.9-1.756"/><path class="cls-11" d="M1456.757,694.2c-4.363-.634-8.705-1.426-12.977-2.367-1.23-.269-2.418-.529-3.52-.779a137.587,137.587,0,0,1-48.14-19.588c-1.923-1.288-3.78-2.6-5.491-3.886a70.241,70.241,0,0,1-5.746-4.669,47.709,47.709,0,0,1-11.849-15.3,3.772,3.772,0,0,1-.5-1.058c-.5-1.04-.969-2.116-1.412-3.253a44.363,44.363,0,0,1-2.229-9.7,19.964,19.964,0,0,1-.289-4.081,5.542,5.542,0,0,1-.005-1.092,49.412,49.412,0,0,1,.209-5.206,74.7,74.7,0,0,1,6.436-23.4,65.524,65.524,0,0,0,4.153-17.075,120.106,120.106,0,0,1,6.59-26.69l.166-.444a9.661,9.661,0,0,1,.355-1c.8-2.035,1.66-4,2.568-5.849a8.98,8.98,0,0,1,.549-1.1c9.9-20.381,26.509-34.562,49.394-42.17a134.37,134.37,0,0,1,48.546-6.088l.394.027a4.343,4.343,0,0,1,.958.06,2.483,2.483,0,0,1,.787.014c3.98.347,8.03.886,12.03,1.6,1.761.3,3.587.682,5.4,1.125a180.575,180.575,0,0,1,22.667,6.784,102.727,102.727,0,0,1,51.593,43.485c.605.97,1.193,1.981,1.751,3l.117.246a9.7,9.7,0,0,0,.721,1.409,14.529,14.529,0,0,1,1.078,2.136l1.115,2.093.064.137,1.468,3.258c.54,1.309,1.076,2.64,1.618,4.009a98.927,98.927,0,0,1,5.061,17.811,86.364,86.364,0,0,1,.616,27.563,97.113,97.113,0,0,1-8.65,27.561,102.161,102.161,0,0,1-14.241,21.194,92.227,92.227,0,0,1-24.435,19.482c-1.055.589-2.1,1.148-3.195,1.714a111.49,111.49,0,0,1-20.121,7.478l-.2.045-.16.048-.168.049a142.555,142.555,0,0,1-26.882,4c-.513,0-1.009.031-1.488.081l-.159.009c-4.316.147-8.879.178-13.594.1-3.308-.116-6.623-.3-9.858-.537q-.99-.078-1.923-.091l-.2-.01q-4.488-.428-8.974-1.078m11.458-3.5c3.163.236,6.41.414,9.618.523,4.572.081,9.023.05,13.237-.089.6-.06,1.216-.09,1.729-.092a137.871,137.871,0,0,0,25.8-3.835l.62-.166a106.764,106.764,0,0,0,19.149-7.118q1.506-.779,3.033-1.627a87.545,87.545,0,0,0,23.19-18.485,97.359,97.359,0,0,0,13.549-20.162,92.37,92.37,0,0,0,8.215-26.154,81.68,81.68,0,0,0-.589-26.047,94.247,94.247,0,0,0-4.817-16.946c-.525-1.329-1.054-2.639-1.555-3.856l-1.4-3.12-1.136-2.131-.114-.246a9.685,9.685,0,0,0-.761-1.529,14.841,14.841,0,0,1-1.021-1.973q-.741-1.357-1.568-2.684a98.156,98.156,0,0,0-49.273-41.554,176.16,176.16,0,0,0-22.08-6.606c-1.733-.424-3.448-.782-5.116-1.068-3.836-.685-7.7-1.2-11.629-1.548a1.971,1.971,0,0,1-1.088-.06,5.762,5.762,0,0,1-1.027-.037,129.654,129.654,0,0,0-46.727,5.878c-21.628,7.189-37.324,20.6-46.651,39.843l-.108.2-.307.612-.068.151c-.861,1.746-1.683,3.614-2.456,5.585a6.856,6.856,0,0,0-.261.762l-.148.4-.028.08a114.832,114.832,0,0,0-6.373,25.739,69.916,69.916,0,0,1-4.477,18.291l-.022.059a69.963,69.963,0,0,0-6.07,21.951,45.1,45.1,0,0,0-.19,4.866l-.021.372.009.233.019.414a15.137,15.137,0,0,0,.226,3.322l.021.153a39.632,39.632,0,0,0,1.973,8.663c.408,1.039.859,2.074,1.351,3.074l.141.364.188.332a43.073,43.073,0,0,0,10.811,13.977,66.006,66.006,0,0,0,5.415,4.395c1.667,1.256,3.452,2.52,5.288,3.748a133.018,133.018,0,0,0,46.535,18.909c1.134.254,2.31.515,3.538.783a177.561,177.561,0,0,0,21.292,3.347Q1467.128,690.612,1468.215,690.7ZM1373.1,645.54v0Zm112.07-141.368.07.008Zm.2,0"/><path class="cls-3" d="M1568.083,526.148a38.03,38.03,0,0,0,1.7-20.7q-3.247-12.264-13.987-10.153a17.55,17.55,0,0,0-3.892,1.131q-13.9,6.126-25.459,20.926-.581.729-1.16,1.46l-.172.244q-.424.617-.854,1.235-.581.729-1.093,1.467-1.115,1.6-2.237,3.269,1.4,1.56,2.88,3.06l2.142,2.073q.48.408.955.882l.248.172a70.231,70.231,0,0,0,20.71,12.415l.255.1.511.211q3.669,1.341,7.586,2.382,1.959-2.289,3.651-4.622l.341-.492.344-.5a60.79,60.79,0,0,0,7.527-14.569"/><path class="cls-11" d="M1559.515,544.057l-.552-.151a2.346,2.346,0,0,1-1.288-3.06,3.765,3.765,0,0,1,.687-1.088l.244-.351a58.733,58.733,0,0,0,7.243-14.014,35.855,35.855,0,0,0,1.646-19.312c-2.377-8.983-7.269-9.234-11.355-8.436a15.12,15.12,0,0,0-3.307.963c-8.865,3.9-17.126,10.707-24.566,20.235l-1.114,1.4-.981,1.414a2.348,2.348,0,0,1-3.86-2.673l1.034-1.489.084-.116,1.147-1.443c7.912-10.129,16.782-17.407,26.423-21.654a19.781,19.781,0,0,1,4.325-1.261c5.889-1.157,13.563-.037,16.737,11.984a40.51,40.51,0,0,1-1.784,21.95,63.614,63.614,0,0,1-7.813,15.129l-.344.492-.187.237a2.349,2.349,0,0,1-2.419,1.242m2.332-1.151"/><path class="cls-10" d="M1542.006,599.212q-9.47,7.377-11.661,13.634a35.756,35.756,0,0,0-1.563,15.024q.323,2.486.79,4.859a126.784,126.784,0,0,0,12.874,36.156,98.632,98.632,0,0,0,5.213,8.483,91.858,91.858,0,0,0,18.715-16,99.333,99.333,0,0,0,13.9-20.7,94.237,94.237,0,0,0,8.421-26.843,84.7,84.7,0,0,0-.037-23.661q-.246-1.6-.566-3.132-.734-3.836-1.734-7.707a104.955,104.955,0,0,0-44.354,19.89"/><path class="cls-10" d="M1547.4,679.022a1.677,1.677,0,0,0,1.636-2.586c-2.477-3.734-4.2-6.531-5.116-8.319a125.768,125.768,0,0,1-12.718-35.7c-.307-1.561-.568-3.157-.775-4.769a34.2,34.2,0,0,1,1.479-14.247c1.35-3.853,5.086-8.182,11.113-12.875a103.756,103.756,0,0,1,43.648-19.565,1.677,1.677,0,0,0-.649-3.291,107.091,107.091,0,0,0-45.051,20.205c-6.644,5.173-10.64,9.883-12.226,14.407A37.615,37.615,0,0,0,1527.1,628c.223,1.761.492,3.435.816,5.047a128.984,128.984,0,0,0,13.033,36.613,99.393,99.393,0,0,0,5.3,8.626,1.683,1.683,0,0,0,1.155.732"/><path class="cls-11" d="M1547.306,679.686a2.355,2.355,0,0,0,1.608-.349,94.616,94.616,0,0,0,19.194-16.412,102.223,102.223,0,0,0,14.244-21.2,97.113,97.113,0,0,0,8.65-27.561,87.429,87.429,0,0,0-.036-24.336c-.173-1.133-.367-2.215-.588-3.282-.488-2.546-1.08-5.181-1.755-7.79l-.028-.107-.028-.089c-.1-.292-.176-.584-.24-.873a2.348,2.348,0,1,0-4.587,1,13.25,13.25,0,0,0,.349,1.287c.645,2.5,1.21,5.018,1.681,7.491.214,1.019.395,2.023.552,3.045a82.862,82.862,0,0,1,.034,22.982,92.342,92.342,0,0,1-8.214,26.152,97.359,97.359,0,0,1-13.549,20.162,89.629,89.629,0,0,1-18.223,15.577,2.35,2.35,0,0,0,.936,4.3"/><path d="M1431.012,596.945a23.438,23.438,0,0,1-4.068,10.732q-3.141,4.355-6.658,3.844T1415,605.94a22.935,22.935,0,0,1-.912-11.455,23.329,23.329,0,0,1,4.143-10.785q3.121-4.224,6.642-3.711t5.308,5.447a23.844,23.844,0,0,1,.836,11.509"/><path d="M1490.644,607.067a23.438,23.438,0,0,1-4.068,10.732q-3.14,4.355-6.658,3.844t-5.291-5.581a22.932,22.932,0,0,1-.912-11.454,23.328,23.328,0,0,1,4.143-10.786q3.122-4.224,6.642-3.711t5.308,5.447a23.832,23.832,0,0,1,.836,11.509"/><path class="cls-10" d="M1429.136,566.915l.117.1a4.221,4.221,0,0,0,3.611-.058,4.176,4.176,0,0,0,2.624-2.451,4.862,4.862,0,0,0,.106-3.71,4.375,4.375,0,0,0-2.256-2.574l-16.661-7.456a4.641,4.641,0,0,0-3.515-.056,4.853,4.853,0,0,0-2.657,2.58,4.528,4.528,0,0,0-.136,3.563,4.692,4.692,0,0,0,1.993,2.509l.311.149,16.463,7.4"/><path class="cls-11" d="M1430.166,569.05a5.85,5.85,0,0,1-1.578-.464l-.325-.194-16.152-7.265a2.346,2.346,0,0,1-.675-.337,6.359,6.359,0,0,1-2.611-3.3,6.173,6.173,0,0,1,.174-4.835,6.53,6.53,0,0,1,3.6-3.471,6.329,6.329,0,0,1,4.789.1l16.726,7.487a6.012,6.012,0,0,1,3.09,3.529,6.5,6.5,0,0,1-.155,4.928,5.9,5.9,0,0,1-3.557,3.344,6.075,6.075,0,0,1-3.327.484m-1.438-.471h0Zm-.894-.669v0Zm1.318-.952.013,0ZM1413.835,552.3a3.176,3.176,0,0,0-1.772,1.719,2.856,2.856,0,0,0-.1,2.3,3.047,3.047,0,0,0,1.288,1.65l.01.007.121.047,16.41,7.381.391.212a2.574,2.574,0,0,0,2.015-.145l.173-.068a2.538,2.538,0,0,0,1.61-1.544,3.178,3.178,0,0,0,.046-2.474,2.657,2.657,0,0,0-1.353-1.591l-16.612-7.435a3.462,3.462,0,0,0-.8-.222A2.875,2.875,0,0,0,1413.835,552.3Zm-.352,5.838v0Zm-.365-.205"/><path class="cls-10" d="M1502.646,565.244a4.633,4.633,0,0,0-3.272-1.287l-18.245.549a4.378,4.378,0,0,0-3.067,1.523,4.866,4.866,0,0,0-1.315,3.469,5.014,5.014,0,0,0,4.812,4.7l.144-.047,18.045-.578.34-.018a4.72,4.72,0,0,0,2.8-1.562,4.525,4.525,0,0,0,1.227-3.348,4.843,4.843,0,0,0-1.472-3.4"/><path class="cls-11" d="M1480.523,575.857a5.981,5.981,0,0,1-3.468-1.83,5.886,5.886,0,0,1-2.014-4.429,6.524,6.524,0,0,1,1.73-4.634,6.067,6.067,0,0,1,4.276-2.088l18.3-.552a6.335,6.335,0,0,1,4.455,1.781,6.48,6.48,0,0,1,1.963,4.538,6.15,6.15,0,0,1-1.668,4.526,6.392,6.392,0,0,1-3.683,2.068,2.428,2.428,0,0,1-.757.056l-17.695.569-.376.054a6.108,6.108,0,0,1-1.061-.059m.907-.007h0Zm.006,0,1.092-.266,0,0Zm-.847-3.072,17.98-.577h.138l0,0a3.052,3.052,0,0,0,1.829-1.044,2.849,2.849,0,0,0,.779-2.158,3.12,3.12,0,0,0-.941-2.219,2.929,2.929,0,0,0-2.076-.836l-18.172.546a2.7,2.7,0,0,0-1.934.961,3.185,3.185,0,0,0-.895,2.323,2.536,2.536,0,0,0,.9,2.02l.136.129a2.6,2.6,0,0,0,1.808.9Zm17.851-.511h0Z"/><path class="cls-10" d="M1380.843,567.4a130.294,130.294,0,0,0-3.07,15.62,67.2,67.2,0,0,1-4.316,17.677,88.5,88.5,0,0,0-3.39,8.932q7.3-6.943,12.011-11.821a14.627,14.627,0,0,0,3.966-13.39q-.966-5.492-5.2-17.018"/><path class="cls-10" d="M1369.84,611.3a1.674,1.674,0,0,0,1.4-.442c4.872-4.632,8.929-8.626,12.062-11.874a16.275,16.275,0,0,0,4.411-14.842c-.668-3.8-2.395-9.457-5.276-17.307a1.678,1.678,0,0,0-3.15,1.155c2.775,7.554,4.5,13.182,5.123,16.731a12.924,12.924,0,0,1-3.523,11.935c-3.1,3.213-7.12,7.173-11.959,11.769a1.678,1.678,0,0,0,.913,2.875"/><path class="cls-11" d="M1369.749,611.969a2.347,2.347,0,0,0,2.572-1.617,87.27,87.27,0,0,1,3.3-8.694,69.816,69.816,0,0,0,4.5-18.348,128.378,128.378,0,0,1,3.009-15.294,2.348,2.348,0,1,0-4.54-1.2,133.4,133.4,0,0,0-3.127,15.9,65.326,65.326,0,0,1-4.163,17.1,90.908,90.908,0,0,0-3.456,9.113,2.348,2.348,0,0,0,1.53,2.948l.374.085"/><path d="M1440.948,640.711a10.3,10.3,0,0,1-1.347-.088c-5.614-.731-8.585-5.723-8.905-6.29a2.362,2.362,0,0,1,.9-3.209,2.4,2.4,0,0,1,1.152-.3,2.356,2.356,0,0,1,2.053,1.2c.076.128,2.106,3.512,5.43,3.934a5.566,5.566,0,0,0,.686.042c2.385,0,5.141-1.543,7.971-4.461a2.355,2.355,0,1,1,3.379,3.28C1448.476,638.728,1444.667,640.711,1440.948,640.711Z"/><path d="M1440.948,639.743a9.186,9.186,0,0,1-1.219-.08c-5.26-.684-8.073-5.6-8.191-5.807a1.387,1.387,0,0,1,2.418-1.359c.049.083,2.3,3.931,6.152,4.42,2.867.359,6.088-1.213,9.474-4.705a1.387,1.387,0,1,1,1.99,1.932C1447.966,637.863,1444.4,639.743,1440.948,639.743Z"/><path class="cls-11" d="M1401.593,838.624c-5.956,0-11.92-.246-13.766-.411a15.353,15.353,0,0,1-6.491-1.765c-1.907-1.142-4.1-3.441-3.7-7.9.5-5.5,3.572-7.858,5.289-8.755l16.053-45.872a2.164,2.164,0,0,1,4.085,1.429l-16.364,46.76a2.165,2.165,0,0,1-1.461,1.369c-.261.086-2.9,1.06-3.292,5.458-.215,2.382.748,3.281,1.61,3.8a11.547,11.547,0,0,0,4.653,1.166c3.583.321,18.317.736,24.14-.075,4.048-.566,7.7-2.234,6.993-10.533a2.171,2.171,0,0,1,.086-.817l12.152-39.654a2.164,2.164,0,0,1,4.138,1.268l-12.032,39.262c.614,8.713-3,13.679-10.74,14.759A94.33,94.33,0,0,1,1401.593,838.624Z"/><path class="cls-11" d="M1454.663,838.343a43.855,43.855,0,0,1-5.624-.285c-6.915-.946-9.238-3.3-9.21-9.313.017-3.515,2.626-7.787,3.684-9.374l.256-37.071a2.164,2.164,0,0,1,2.164-2.148h.015a2.162,2.162,0,0,1,2.148,2.179l-.26,37.733a2.172,2.172,0,0,1-.4,1.242c-1.262,1.769-3.267,5.358-3.276,7.458-.016,3.184-.02,4.256,5.468,5.006,4.425.606,14.129-.049,19.928-.442,2.383-.16,4.267-.287,5.272-.3a5.891,5.891,0,0,0,4.633-1.753c1.564-1.79,2.081-5.245,1.5-9.99a2.218,2.218,0,0,1-.012-.382l2.649-48.277a2.164,2.164,0,1,1,4.322.236l-2.64,48.089c.718,6.069-.12,10.378-2.557,13.171a10.076,10.076,0,0,1-7.834,3.233c-.889.011-2.811.142-5.039.291C1465.457,837.943,1459.518,838.343,1454.663,838.343Z"/><path class="cls-11" d="M1441.1,784.245a23.432,23.432,0,0,1-12-3.294,2.164,2.164,0,0,1,2.378-3.616,19.37,19.37,0,0,0,9.618,2.583c8.13,0,10.345-1.06,10.705-1.272a2.164,2.164,0,0,1,3.423,2.607C1454.026,783.238,1449.274,784.245,1441.1,784.245Zm10.426-5.233,0,.005Zm0,0v0Zm0,0v0Zm.328-.392Z"/></g></svg>