<svg xmlns="http://www.w3.org/2000/svg" viewBox="0 0 1600 900"><defs><style>.cls-1{fill:#d3ecf9;}.cls-2{fill:#6cc7f5;}.cls-3{fill:#b3e1f9;}.cls-4{fill:#98d0ed;}.cls-5{fill:#afd8ed;}.cls-6{fill:#fff;}.cls-7{fill:#add3f0;}.cls-8{fill:#73b5e6;}.cls-9{fill:#83e8d3;}.cls-10{fill:#1cb594;}.cls-11{fill:#47d7ac;}.cls-12{fill:#01b593;}.cls-13{fill:#f29100;}.cls-14{fill:#fcfcfc;}.cls-15{fill:#d3d3d3;}.cls-16{fill:#f2f2f2;}.cls-17{fill:#ffcfd9;}.cls-18{fill:#ff9fb6;}</style></defs><g id="bg"><rect class="cls-1" width="1600" height="900"/></g><g id="Layer_1" data-name="Layer 1"><polygon class="cls-2" points="384.802 664.319 384.802 664.319 384.802 664.319 384.802 664.319"/><polygon class="cls-2" points="362.628 691.754 362.628 691.754 362.628 691.754 362.628 691.754"/><path class="cls-3" d="M264.707,0V302.207h1135.86a1.77,1.77,0,0,0,.23-.01c13.61-.5,21.23-12.8,23.76-29.71V0Z"/><path class="cls-4" d="M1369.723,258.815c0-1.149.042-2.283.106-3.41h-.106v-13.2c.626-3.405.961-56.968.961-60.64a92.7,92.7,0,0,0-.961-13.652c-2.529-16.91-10.144-29.206-23.755-29.711l-.236-.009c-17.176.467-31,19.7-31,43.372,0,1.149.042,2.283.106,3.41h-.106v117.23h86.621C1383.885,302.208,1369.723,282.781,1369.723,258.815Z"/><path class="cls-5" d="M1228.011,841.46H93.57a44.648,44.648,0,0,0,40.787,26.489H1268.8A44.648,44.648,0,0,1,1228.011,841.46Z"/><path class="cls-6" d="M1346.368,138.174H196.852a43.393,43.393,0,0,0-43.393,43.394c0,1.149.058,2.283.146,3.41h-.146V841.46H1229.29a44.653,44.653,0,0,0,85.445-18.213V184.978h.106c-.064-1.127-.106-2.261-.106-3.41C1314.735,157.6,1328.9,138.174,1346.368,138.174Z"/><rect class="cls-6" x="30" y="30.969" width="426.39" height="65" rx="32.5"/><path d="M117.168,61.427c0-6.289.782-10.539,2.992-12.885a8.219,8.219,0,0,1,11.287,0c2.176,2.346,2.991,6.6,2.991,12.885,0,6.357-.815,10.607-2.991,12.953a8.406,8.406,0,0,1-11.287,0C117.95,72.034,117.168,67.784,117.168,61.427Zm11.423,0c0-5.338-.374-8.261-1.258-9.485a1.982,1.982,0,0,0-1.53-.714,1.886,1.886,0,0,0-1.53.714c-.884,1.224-1.224,4.147-1.224,9.485,0,5.406.34,8.363,1.224,9.553a1.857,1.857,0,0,0,1.53.68,1.948,1.948,0,0,0,1.53-.68C128.217,69.79,128.591,66.833,128.591,61.427Zm8.941-15.162h5.949V78.119h-5.949Z"/><path d="M154.057,46.639V51.6h5.133V46.639H164.8V53.37h3.706v-7.1h5.95V68.974h-5.95V58.231H164.8V65.2h-16.42V46.639Zm20.806,26.823v4.827H150.147V67.207H156.1v6.255ZM154.057,60.509h5.133V56.293h-5.133Z"/><path d="M195.876,70.368c-1.563,2.822-5.269,5.168-9.212,5.915V71.116c3.705-1.5,6.254-4.046,6.254-12.919V46.639h5.95V58.2c0,8.873,2.482,11.355,6.221,12.919v5.167A14.2,14.2,0,0,1,195.876,70.368Zm11.9-24.1h5.949V78.119h-5.949Z"/><path d="M228.482,51.466H218.249V46.639h16.182V49.9c0,9.723-5.031,15.162-16.9,16.08V61.087C224.81,60.339,228.414,57.109,228.482,51.466ZM219.915,66.7h5.949v6.766h18.494v4.827H219.915Zm18.051-20.431h5.951v8.023H248.1v4.929h-4.181V68.6h-5.951Z"/><path d="M249.086,61.427c0-7.717.714-11.8,2.754-13.769a5.261,5.261,0,0,1,3.91-1.36,5.506,5.506,0,0,1,3.943,1.36c1.666,1.666,2.448,4.862,2.652,10.539h1.835V46.468h5.168V77.813H264.18V63.2h-1.8c-.135,6.629-.883,10.233-2.685,12.034a5.341,5.341,0,0,1-3.943,1.327,5.111,5.111,0,0,1-3.91-1.327C249.8,73.292,249.086,69.212,249.086,61.427Zm8.125,0c0-6.391-.135-9.043-.748-9.927a.828.828,0,0,0-1.427,0c-.647.884-.783,3.536-.783,9.927,0,6.426.136,9.077.783,9.995a.868.868,0,0,0,1.427,0C257.076,70.5,257.211,67.853,257.211,61.427Zm18.834-15.162V78.119h-5.269V46.265Z"/><path d="M293.965,46.809v10.4h2.516v-10.4h5.065V76.08h-12.68V46.809Zm0,24.579h2.516V62.005h-2.516Zm21.384-25.123V78.119H310.08V63.127h-1.768V77.813h-5.168V46.468h5.168V58.163h1.768v-11.9Z"/><path d="M347.649,62.379H336.158v1.564h9.552v9.281h-19.1v1.19h19.752v4.011h-25.6V69.212H339.83V67.988H320.757V63.943h9.486V62.379H318.819V58.027h28.83Zm-27.4-10.743a3.862,3.862,0,0,1,1.563-3.264c2.04-1.53,5.882-2.107,11.457-2.107,5.507,0,9.383.577,11.389,2.107a4.046,4.046,0,0,1,0,6.494c-2.006,1.53-5.882,2.141-11.389,2.141-5.575,0-9.417-.611-11.457-2.141A3.842,3.842,0,0,1,320.248,51.636Zm20.159,0a.665.665,0,0,0-.407-.612c-.817-.51-2.993-.646-6.732-.646-3.773,0-5.949.136-6.8.646a.728.728,0,0,0-.407.612.823.823,0,0,0,.407.612c.851.51,3.027.612,6.8.612,3.739,0,5.915-.1,6.732-.612A.738.738,0,0,0,340.407,51.636Z"/><path d="M367.574,76.08h-8.465V46.639h5.542V71.218h3.671c2.141,0,3.6-.238,4.624-1.054v-23.7h5.235V58.163h2.04v-11.9h5.371V78.119h-5.371V63.127h-2.04V77.813h-5.235V74.89C371.892,75.773,370.226,76.08,367.574,76.08Z"/><path d="M390.491,52.588a4.731,4.731,0,0,1,2.006-4.08c2.209-1.632,5.983-2.243,11.014-2.243,4.963,0,8.8.611,10.947,2.243a5.049,5.049,0,0,1,0,8.159,7.689,7.689,0,0,1-2.244,1.156v2.652h5.677v4.658H389.063V60.475h5.812V57.857a8.615,8.615,0,0,1-2.378-1.19A4.728,4.728,0,0,1,390.491,52.588Zm0,19.99a4.822,4.822,0,0,1,2.413-4.284c2.21-1.428,5.882-2.04,10.607-2.04,4.692,0,8.364.612,10.573,2.04a4.972,4.972,0,0,1,0,8.567c-2.209,1.462-5.881,2.006-10.573,2.006-4.725,0-8.4-.544-10.607-2.006A4.822,4.822,0,0,1,390.491,72.578Zm20.159-19.99a1.162,1.162,0,0,0-.51-.918c-.952-.68-3.161-.85-6.629-.85-3.5,0-5.712.17-6.663.85a1.047,1.047,0,0,0,0,1.836c.951.646,3.161.849,6.663.849,3.468,0,5.677-.2,6.629-.849A1.162,1.162,0,0,0,410.65,52.588ZM396.3,72.578a1.084,1.084,0,0,0,.612.952c.986.612,3.093.816,6.6.816,3.468,0,5.575-.2,6.562-.816a1.05,1.05,0,0,0,.577-.952,1.183,1.183,0,0,0-.577-.986c-.987-.544-3.094-.816-6.562-.816-3.5,0-5.609.272-6.6.816A1.223,1.223,0,0,0,396.3,72.578Zm10.1-13.7c-.918.034-1.87.068-2.89.068-.986,0-1.9-.034-2.788-.068v1.6H406.4Z"/><circle class="cls-7" cx="62.93" cy="63.469" r="28.676"/><circle class="cls-8" cx="62.93" cy="63.469" r="24.853"/><path class="cls-6" d="M74.886,60.975h2.526A14.963,14.963,0,0,0,64.867,48.653v2.515A12.484,12.484,0,0,1,74.886,60.975Zm-26.961,0h2.529a12.489,12.489,0,0,1,9.425-9.687V48.724A14.988,14.988,0,0,0,47.925,60.975Zm2.545,4.987H47.936a15,15,0,0,0,11.943,12.16V75.556A12.487,12.487,0,0,1,50.47,65.962Zm14.4,9.714V78.2A14.968,14.968,0,0,0,77.4,65.962H74.871A12.484,12.484,0,0,1,64.867,75.676Z"/><path class="cls-6" d="M62.373,44.352A1.322,1.322,0,0,0,60.989,45.6v8.59a1.393,1.393,0,0,0,2.77,0V45.6A1.322,1.322,0,0,0,62.373,44.352Z"/><path class="cls-6" d="M62.373,71.5a1.322,1.322,0,0,0-1.384,1.247v8.59a1.393,1.393,0,0,0,2.77,0V72.75A1.322,1.322,0,0,0,62.373,71.5Z"/><path class="cls-6" d="M80.8,62.083H72.212a1.394,1.394,0,0,0,0,2.772H80.8a1.394,1.394,0,0,0,0-2.772Z"/><path class="cls-6" d="M53.649,62.083H45.06a1.394,1.394,0,0,0,0,2.772h8.589a1.394,1.394,0,0,0,0-2.772Z"/><circle class="cls-6" cx="62.375" cy="63.469" r="2.361"/><path class="cls-9" d="M1379.953,816.667c12.867,1.917,25.033-8.978,25.033-8.978l9.586-55.024-5.531-1.414s-9.257-6.279-26.3,12.713c-4.761,5.3-17.653,18.438-17.37,31.923C1365.642,808.956,1375.019,815.932,1379.953,816.667Z"/><path class="cls-9" d="M1457,735.277s-16.645,17.726-20.977,28.907-18.617,43.781-3.191,59.732,28.349,23.863,50.509,23.863,56.309-20.02,57.47-44.673-30.77-64.047-30.77-64.047Z"/><path class="cls-10" d="M1481.682,790.089a21.123,21.123,0,0,0-1.642-7.87,18.6,18.6,0,0,0-4.381-6.5,20.159,20.159,0,0,0-32.921,6.706,20.378,20.378,0,0,0-1.576,7.941v1.164l11.021-.069V790.3a9.313,9.313,0,0,1,2.669-6.639,9.254,9.254,0,0,1,13.073-.067,8.787,8.787,0,0,1,2.806,6.639v1.094h10.951v-1.233"/><path class="cls-6" d="M1414.545,597.8a15.82,15.82,0,0,0-2.945-1.391q-8.253-2.837-12.2,6.474a29.931,29.931,0,0,0-1.016,16.482,51.969,51.969,0,0,0,7.063,17.338,55.765,55.765,0,0,0,30.288-12.787q-8.455-18.145-21.19-26.116"/><path class="cls-11" d="M1405.447,638.58a1.869,1.869,0,0,1-1.589-.882,54.125,54.125,0,0,1-7.311-17.934,32,32,0,0,1,1.094-17.517c3.862-9.12,10.054-9.147,14.573-7.577a16.475,16.475,0,0,1,3.284,1.52c8.8,5.511,16.17,14.565,21.934,26.935a1.871,1.871,0,0,1-.488,2.223,57.857,57.857,0,0,1-31.282,13.22l-.215.012m2.5-40.961c-2.362,0-4.83,1.3-6.821,6a28.253,28.253,0,0,0-.907,15.408,49.892,49.892,0,0,0,6.2,15.675,54.1,54.1,0,0,0,27-11.3c-5.353-11.033-12.031-19.107-19.864-24.011a12.937,12.937,0,0,0-2.526-1.17A9.5,9.5,0,0,0,1407.947,597.619Z"/><path class="cls-6" d="M1521.786,619.529a30.314,30.314,0,0,0-1.019-16.535q-3.957-9.31-12.2-6.421a14.056,14.056,0,0,0-2.943,1.337q-12.736,7.973-21.192,26.114a55.784,55.784,0,0,0,30.288,12.791,52.132,52.132,0,0,0,7.065-17.286"/><path class="cls-11" d="M1514.723,638.687l-.217-.012a57.864,57.864,0,0,1-31.282-13.22,1.871,1.871,0,0,1-.489-2.222c5.765-12.369,13.133-21.425,21.9-26.912a16.1,16.1,0,0,1,3.386-1.539c4.445-1.559,10.633-1.552,14.475,7.479a32.363,32.363,0,0,1,1.129,17.636,54.176,54.176,0,0,1-7.31,17.906,1.872,1.872,0,0,1-1.588.884m-27.971-15.181a54.1,54.1,0,0,0,27,11.3,49.852,49.852,0,0,0,6.2-15.645,28.617,28.617,0,0,0-.941-15.531c-2.864-6.723-6.755-6.366-9.82-5.291a12.456,12.456,0,0,0-2.614,1.187C1498.782,604.4,1492.106,612.475,1486.752,623.506Z"/><path class="cls-6" d="M1531.952,645.8q-10.158-20.544-32.856-30.236a103.871,103.871,0,0,0-37.567-7.6h-1.659a103.862,103.862,0,0,0-37.566,7.6q-24.778,10.581-34.624,34.089-5.558,13.351-6.314,30.877a54.691,54.691,0,0,1-2.194,14.664q-10.489,31.893,11.666,48.643a50.06,50.06,0,0,0,4.869,3.264l.214.159q2.165,1.357,4.389,2.57a107.3,107.3,0,0,0,39.171,12.576q1.446.161,2.945.32a129.515,129.515,0,0,0,17.444,1.286h1.659a129.554,129.554,0,0,0,17.445-1.286q1.5-.159,2.943-.32a113.59,113.59,0,0,0,17.338-3.532,103.875,103.875,0,0,0,21.834-9.044q2.355-1.285,4.6-2.729a49.835,49.835,0,0,0,4.87-3.264q22.155-16.749,11.666-48.643a54.731,54.731,0,0,1-2.194-14.664q-.869-20.109-8.081-34.73"/><path class="cls-9" d="M1539.765,734.255q10.222-15.318,2.462-39.057a54.651,54.651,0,0,1-2.194-14.664c-.117-2.664-.34-5.237-.625-7.756.243-.22.465-.443.711-.662a1.338,1.338,0,0,0-1.777-2,91.288,91.288,0,0,0-13.127,14.212c-3.946,5.2-4.96,12.122-3.006,20.646.362,1.307.768,2.6,1.2,3.816a103,103,0,0,0,14.475,27.436,1.337,1.337,0,1,0,2.162-1.572C1539.948,734.522,1539.86,734.388,1539.765,734.255Z"/><path class="cls-9" d="M1396.253,684.349a91.879,91.879,0,0,0-13.195-14.284,1.337,1.337,0,1,0-1.779,2c.247.221.469.444.713.665-.286,2.526-.508,5.114-.626,7.808a54.691,54.691,0,0,1-2.194,14.664q-7.83,23.751,2.512,39.113c-.1.132-.182.265-.278.4a1.337,1.337,0,1,0,2.166,1.569,103.769,103.769,0,0,0,14.467-27.471c.436-1.236.842-2.525,1.22-3.893C1401.2,696.45,1400.183,689.524,1396.253,684.349Z"/><path class="cls-11" d="M1459.87,765.888a131.889,131.889,0,0,1-17.709-1.3c-.937-.1-1.921-.206-2.886-.315a109.7,109.7,0,0,1-39.876-12.8c-1.5-.819-3-1.706-4.455-2.624l-.25-.168a52.422,52.422,0,0,1-4.991-3.349c-15.4-11.643-19.546-28.7-12.315-50.7a53.146,53.146,0,0,0,2.106-14.144c.511-11.879,2.693-22.485,6.486-31.551,6.709-16.063,18.683-27.869,35.589-35.087a106.217,106.217,0,0,1,38.284-7.749h1.676a106.211,106.211,0,0,1,38.256,7.729c15.529,6.631,26.9,17.1,33.847,31.148,4.9,9.934,7.686,21.871,8.272,35.479a53.165,53.165,0,0,0,2.113,14.191c7.226,21.974,3.083,39.041-12.325,50.69a53.244,53.244,0,0,1-5.046,3.383c-1.475.949-3.062,1.89-4.659,2.761a106.262,106.262,0,0,1-22.214,9.2,115.765,115.765,0,0,1-17.624,3.59c-.99.111-1.973.217-2.976.326a131.559,131.559,0,0,1-17.633,1.294h-1.67m0-156.044a102.4,102.4,0,0,0-36.877,7.467c-15.931,6.8-27.237,17.934-33.558,33.068-3.62,8.657-5.7,18.829-6.2,30.236a56.7,56.7,0,0,1-2.274,15.134l-.011.035c-6.776,20.6-3.173,35.834,11.016,46.562a48.986,48.986,0,0,0,4.695,3.148c.16.1.256.166.35.231,1.32.834,2.752,1.679,4.194,2.465a105.953,105.953,0,0,0,38.508,12.361c.936.1,1.914.211,2.909.318a128.4,128.4,0,0,0,17.26,1.272h1.646a128.136,128.136,0,0,0,17.183-1.263c1.06-.116,2.038-.223,3-.331a112,112,0,0,0,17.029-3.469,102.53,102.53,0,0,0,21.44-8.881c1.533-.836,3.043-1.732,4.5-2.668a49.425,49.425,0,0,0,4.747-3.177c14.194-10.734,17.8-25.964,11.022-46.568a56.758,56.758,0,0,1-2.287-15.2c-.565-13.052-3.219-24.484-7.888-33.949-6.537-13.219-17.274-23.09-31.912-29.341a102.363,102.363,0,0,0-36.848-7.448Zm-80.7,85.354h0Z"/><path d="M1438.678,699.692a18.668,18.668,0,0,0,1.981-8.937,19.006,19.006,0,0,0-1.981-8.991q-1.979-3.689-4.816-3.691t-4.815,3.691a18.6,18.6,0,0,0-2.035,8.991,18.271,18.271,0,0,0,2.035,8.937q1.978,3.8,4.815,3.8t4.816-3.8"/><path class="cls-9" d="M1437.341,666.622l.107.053a4,4,0,0,0,4.334-3.158,3.878,3.878,0,0,0-.642-2.889,3.494,3.494,0,0,0-2.249-1.554l-14.341-2.514a3.705,3.705,0,0,0-2.727.642,3.875,3.875,0,0,0-1.554,2.515,3.619,3.619,0,0,0,.59,2.783,3.746,3.746,0,0,0,2.033,1.552l.267.054,14.182,2.516"/><path class="cls-11" d="M1438.053,668.067a4.882,4.882,0,0,1-.839-.075l-.291-.088-13.907-2.465a1.908,1.908,0,0,1-.591-.131,5.092,5.092,0,0,1-2.672-2.054,4.919,4.919,0,0,1-.8-3.763,5.173,5.173,0,0,1,2.068-3.358,5.052,5.052,0,0,1,3.721-.9l14.383,2.521a4.831,4.831,0,0,1,3.137,2.14,5.189,5.189,0,0,1,.838,3.856,4.694,4.694,0,0,1-2.1,3.266,4.775,4.775,0,0,1-2.95,1.048m-.715-.108h0Zm0,0h0Zm-.839-.345v0Zm1.377-2.231a2.071,2.071,0,0,0,1.529-.5l.12-.088a2.013,2.013,0,0,0,.942-1.494,2.549,2.549,0,0,0-.441-1.937,2.158,2.158,0,0,0-1.421-.978l-14.281-2.5a2.313,2.313,0,0,0-1.734.422,2.488,2.488,0,0,0-1,1.643,2.278,2.278,0,0,0,.37,1.793,2.453,2.453,0,0,0,1.324,1.036l.007,0,.105.014,14.129,2.5Zm-14.387-2.531h0Zm-.326-.083h0Z"/><path d="M1480.687,690.755a18.271,18.271,0,0,0,2.033,8.937q1.981,3.8,4.816,3.8t4.817-3.8a18.271,18.271,0,0,0,2.033-8.937,18.6,18.6,0,0,0-2.033-8.991q-1.982-3.689-4.817-3.691t-4.816,3.691a18.6,18.6,0,0,0-2.033,8.991"/><path class="cls-9" d="M1499.577,657.2a3.715,3.715,0,0,0-2.73-.642l-14.341,2.514a3.483,3.483,0,0,0-2.246,1.554,3.879,3.879,0,0,0-.644,2.889,4,4,0,0,0,4.335,3.158l.107-.053,14.18-2.516.268-.054a3.758,3.758,0,0,0,2.035-1.552,3.618,3.618,0,0,0,.588-2.783,3.868,3.868,0,0,0-1.552-2.515"/><path class="cls-11" d="M1483.346,668.067a4.78,4.78,0,0,1-2.95-1.048,4.7,4.7,0,0,1-2.1-3.282,5.185,5.185,0,0,1,.841-3.84,4.8,4.8,0,0,1,3.078-2.128l14.4-2.526a5.056,5.056,0,0,1,3.725.861,5.216,5.216,0,0,1,2.107,3.389,4.934,4.934,0,0,1-.809,3.772,5.082,5.082,0,0,1-2.664,2.043,1.933,1.933,0,0,1-.593.131l-13.906,2.465-.29.088a4.9,4.9,0,0,1-.84.075m.716-.108h0Zm0,0h0Zm.84-.345,0,0Zm12.541-9.759-.408.03-14.3,2.509a2.108,2.108,0,0,0-1.357.964,2.536,2.536,0,0,0-.447,1.924,2.033,2.033,0,0,0,.943,1.508l.123.088a2.063,2.063,0,0,0,1.529.5l.346-.089,14.132-2.5.105-.014.007,0a2.454,2.454,0,0,0,1.317-1.025,2.279,2.279,0,0,0,.374-1.8,2.51,2.51,0,0,0-1.035-1.671A2.259,2.259,0,0,0,1497.444,657.855Zm.465,5v0Zm.329-.084"/><path d="M1460.726,728.547a17.021,17.021,0,0,1-9.971-2.91,9.636,9.636,0,0,1-3.981-5.233,1.2,1.2,0,0,1,2.317-.644,7.307,7.307,0,0,0,3.048,3.909,14.654,14.654,0,0,0,8.587,2.474,14.464,14.464,0,0,0,8.54-2.472,7.283,7.283,0,0,0,3.1-3.911,1.2,1.2,0,0,1,2.317.644,9.568,9.568,0,0,1-4.031,5.234,16.774,16.774,0,0,1-9.921,2.909"/><path class="cls-12" d="M1420.807,728.658a37.337,37.337,0,0,1-4.472-.274,35.364,35.364,0,0,1-23.8-12.966,34.969,34.969,0,0,1-8.142-25.692,33.591,33.591,0,0,1,37.828-30.773,35.1,35.1,0,0,1,23.646,12.971,34.538,34.538,0,0,1,8.19,25.691,32.412,32.412,0,0,1-12.348,23.416,32.039,32.039,0,0,1-20.9,7.627m-3.191-65.649a28.044,28.044,0,0,0-18.253,6.613,28.42,28.42,0,0,0-10.647,20.461,30.35,30.35,0,0,0,7.164,22.575,30.76,30.76,0,0,0,20.965,11.418,29.477,29.477,0,0,0,32.888-26.813v-.009a29.95,29.95,0,0,0-7.21-22.564,30.493,30.493,0,0,0-20.812-11.429A34.5,34.5,0,0,0,1417.616,663.009Z"/><path class="cls-6" d="M1420.565,724.616a32.638,32.638,0,0,1-3.936-.238,31.354,31.354,0,0,1-21.095-11.555,30.987,30.987,0,0,1-7.241-22.792,29.724,29.724,0,0,1,33.531-27.234,31.189,31.189,0,0,1,20.984,11.5,30.666,30.666,0,0,1,7.293,22.793,29.988,29.988,0,0,1-29.536,27.525m-2.792-59.9a26.808,26.808,0,0,0-17.3,6.238,27.081,27.081,0,0,0-10.015,19.257,28.89,28.89,0,0,0,6.754,21.238,29.266,29.266,0,0,0,19.678,10.781,27.78,27.78,0,0,0,31.054-25.308v0a28.566,28.566,0,0,0-6.8-21.233,29.1,29.1,0,0,0-19.574-10.731A31.2,31.2,0,0,0,1417.773,664.712Z"/><path class="cls-12" d="M1503.073,728.658a37.337,37.337,0,0,1-4.472-.274,35.364,35.364,0,0,1-23.8-12.966,34.965,34.965,0,0,1-8.142-25.692,33.591,33.591,0,0,1,37.828-30.773,35.1,35.1,0,0,1,23.646,12.971,34.538,34.538,0,0,1,8.19,25.691,32.415,32.415,0,0,1-12.348,23.416,32.041,32.041,0,0,1-20.9,7.627m-3.191-65.649a28.044,28.044,0,0,0-18.253,6.613,28.42,28.42,0,0,0-10.647,20.461,30.35,30.35,0,0,0,7.164,22.575,30.76,30.76,0,0,0,20.964,11.418A29.478,29.478,0,0,0,1532,697.263v-.009a29.95,29.95,0,0,0-7.21-22.564,30.493,30.493,0,0,0-20.813-11.429A34.469,34.469,0,0,0,1499.882,663.009Z"/><path class="cls-6" d="M1502.831,724.616a32.626,32.626,0,0,1-3.936-.238,31.359,31.359,0,0,1-21.1-11.555,30.982,30.982,0,0,1-7.24-22.792A29.724,29.724,0,0,1,1504.09,662.8a31.191,31.191,0,0,1,20.984,11.5,30.666,30.666,0,0,1,7.293,22.793,29.988,29.988,0,0,1-29.536,27.525m-2.793-59.9a26.805,26.805,0,0,0-17.3,6.238,27.081,27.081,0,0,0-10.015,19.257,28.89,28.89,0,0,0,6.754,21.238,29.264,29.264,0,0,0,19.678,10.781,27.78,27.78,0,0,0,31.054-25.308v0a28.567,28.567,0,0,0-6.8-21.233,29.09,29.09,0,0,0-19.573-10.731A31.2,31.2,0,0,0,1500.038,664.712Z"/><path class="cls-12" d="M1467.2,697.387a2.13,2.13,0,0,1-1.234-.392,12.549,12.549,0,0,0-5.68-2.013,11.98,11.98,0,0,0-5.69,1.337,2.146,2.146,0,0,1-2.093-3.746,16.6,16.6,0,0,1,7.993-1.877,16.8,16.8,0,0,1,7.942,2.794,2.144,2.144,0,0,1-1.238,3.9Z"/><path class="cls-9" d="M1391.35,826.326l-12.614,3.42a10.046,10.046,0,0,0-8.908-3.432q-7.668,1.109-5.341,13.974A189.924,189.924,0,0,0,1369.8,862.7q3.486,11.059,17.707,5.254l64.163-14.65-60.323-26.973Z"/><path class="cls-11" d="M1379,871.525a11.3,11.3,0,0,1-4.872-1.016c-2.727-1.281-4.683-3.75-5.816-7.343a192.483,192.483,0,0,1-5.364-22.6c-1.062-5.877-.639-10.036,1.29-12.716a7.669,7.669,0,0,1,5.369-3.086,11.41,11.41,0,0,1,9.655,3.285l17.363-3.356a1.567,1.567,0,1,1,.595,3.078l-18.182,3.515a1.572,1.572,0,0,1-1.438-.464,8.495,8.495,0,0,0-7.577-2.951,4.573,4.573,0,0,0-3.241,1.811c-1.387,1.926-1.639,5.4-.749,10.328a189.2,189.2,0,0,0,5.271,22.222c.869,2.754,2.229,4.535,4.156,5.439,2.65,1.245,6.508.852,11.462-1.173a1.491,1.491,0,0,1,.243-.077l64.163-14.649a1.567,1.567,0,0,1,.7,3.056l-64.039,14.621A24.408,24.408,0,0,1,1379,871.525Z"/><path class="cls-9" d="M1533.4,826.326l12.614,3.42a10.048,10.048,0,0,1,8.909-3.432q7.668,1.109,5.34,13.974a189.528,189.528,0,0,1-5.316,22.407q-3.486,11.059-17.707,5.254l-64.162-14.65,60.322-26.973Z"/><path class="cls-11" d="M1545.754,871.525a24.408,24.408,0,0,1-8.986-2.077l-64.039-14.621a1.567,1.567,0,1,1,.7-3.056l64.163,14.649a1.5,1.5,0,0,1,.244.077c4.957,2.025,8.81,2.418,11.462,1.173,1.926-.9,3.286-2.685,4.156-5.446a189.306,189.306,0,0,0,5.269-22.214c.89-4.927.638-8.4-.749-10.327a4.6,4.6,0,0,0-3.275-1.819,8.507,8.507,0,0,0-7.542,2.957,1.572,1.572,0,0,1-1.438.464l-18.184-3.515a1.568,1.568,0,1,1,.6-3.078l17.364,3.356a11.455,11.455,0,0,1,9.62-3.291,7.7,7.7,0,0,1,5.4,3.093c1.93,2.68,2.351,6.84,1.289,12.717a192.214,192.214,0,0,1-5.362,22.592c-1.133,3.6-3.09,6.069-5.817,7.35A11.3,11.3,0,0,1,1545.754,871.525Z"/><path class="cls-13" d="M1385.956,748.192l-.048.039c.013.007.028.02.043.027a.528.528,0,0,1,0-.066"/><path class="cls-9" d="M1411.291,792.961c-.037-.356-.076-.641-.105-.835l-.035-.213,0,0c-.039-.128-.068-.233-.134-.438a11.2,11.2,0,0,0-2.247-3.98,8.07,8.07,0,0,0-6.306-2.675,14.1,14.1,0,0,0-3.19.395,47.674,47.674,0,0,1-6.13,1.055c-.127,9.26-.294,19.248-.447,27.786a38.8,38.8,0,0,0,8.332-1.4,12.676,12.676,0,0,0,8.511-7.171,23.318,23.318,0,0,0,1.895-9.644A28.577,28.577,0,0,0,1411.291,792.961Z"/><path class="cls-9" d="M1533.686,817.7c-12.867,1.917-25.033-8.978-25.033-8.978l-9.586-55.024,5.531-1.414S1513.855,746,1530.9,765c4.761,5.305,17.653,18.438,17.37,31.923C1548,809.988,1538.62,816.964,1533.686,817.7Z"/><path class="cls-11" d="M1545.726,804.808a1.57,1.57,0,0,1-1.5-2.028c5.344-17.415-10.686-33.131-15.954-38.3-13.639-13.373-27.453-13.69-27.591-13.692a1.568,1.568,0,0,1,.019-3.135h.018c.615.007,15.219.344,29.75,14.589,5.6,5.5,22.659,22.216,16.754,41.454A1.568,1.568,0,0,1,1545.726,804.808Z"/><path class="cls-11" d="M1368.337,803.775a1.566,1.566,0,0,1-1.484-1.064c-4.306-12.7,1.183-26.661,16.315-41.5,14.533-14.245,29.135-14.584,29.75-14.591h.019a1.568,1.568,0,0,1,.021,3.136c-.15,0-14.018.384-27.594,13.693-14.4,14.117-19.483,26.63-15.543,38.252a1.569,1.569,0,0,1-1.484,2.07Z"/><g id="오픈북"><path class="cls-14" d="M1461.662,856.982l.026-83.692c17.457-22.116,45.453-29.914,50.89-30.635,8.535-1.131,7.584,3.332,6.7,7.05,0,27.909-1.491,55.4-1.491,83.307Z"/><path class="cls-15" d="M1460.933,858.086l.025-85.049.157-.2c17.464-22.123,45.39-30.113,51.367-30.9,3.549-.469,5.87-.039,7.1,1.317,1.551,1.719.942,4.38.427,6.541,0,13.937-.38,27.991-.745,41.586-.366,13.613-.745,27.689-.745,41.635v.481Zm1.484-84.542-.025,82.333,54.665-23.347c.008-13.807.383-27.726.745-41.192.366-13.612.745-27.689.745-41.633l.02-.169c.439-1.844.986-4.138-.072-5.308-.867-.961-2.825-1.246-5.821-.85C1506.832,744.152,1479.588,751.953,1462.417,773.544Z"/><path class="cls-16" d="M1466.726,860.384V774.82c7.962-8.9,17.33-15.754,34.307-22.407,2.12-.83,12.131-3.993,17.616-3.993,6.3,0,7.5,1.453,11.313,3.049V835.2Z"/><path class="cls-15" d="M1466,861.459V774.542l.185-.208c8.854-9.9,18.874-16.443,34.585-22.6,2.187-.856,12.215-4.044,17.882-4.044,5.07,0,6.978.924,9.393,2.094.675.327,1.374.665,2.2,1.012l.447.187v84.709l-.46.184Zm1.458-86.359v84.209l61.778-24.605V751.949c-.671-.293-1.257-.576-1.826-.852-2.335-1.131-4.023-1.948-8.758-1.948-5.381,0-15.3,3.14-17.35,3.943C1485.928,759.115,1476.1,765.5,1467.455,775.1Z"/><path class="cls-17" d="M1466.726,774.735v85.649l60.919-22.126a5.832,5.832,0,0,0,4-5.536l4.374-75.71a5.832,5.832,0,0,0-7.857-5.47Z"/><path class="cls-18" d="M1466.725,861.842a1.458,1.458,0,0,1-1.458-1.458V774.82a1.46,1.46,0,0,1,.941-1.364l61.435-23.279a7.292,7.292,0,0,1,9.833,6.836l-4.377,75.793a7.247,7.247,0,0,1-5,6.836l-60.879,22.112A1.454,1.454,0,0,1,1466.725,861.842Zm1.459-86.015V858.3l58.962-21.415a4.382,4.382,0,0,0,3.039-4.166l4.377-75.793a4.38,4.38,0,0,0-5.9-4.021Z"/><path class="cls-14" d="M1459.737,856.982l-.026-83.692c-17.457-22.116-45.453-29.914-50.89-30.635-8.535-1.131-7.584,3.332-6.7,7.05,0,27.909,1.491,55.4,1.491,83.307Z"/><path class="cls-15" d="M1460.466,858.086l-57.582-24.593v-.481c0-13.946-.379-28.022-.745-41.635-.366-13.595-.744-27.649-.745-41.586-.515-2.162-1.123-4.823.428-6.541,1.225-1.356,3.546-1.786,7.1-1.317,5.977.792,33.9,8.782,51.367,30.9l.156.2Zm-56.124-25.556,54.665,23.347-.025-82.333c-17.172-21.591-44.415-29.392-50.257-30.166-2.995-.4-4.953-.112-5.821.85-1.057,1.17-.511,3.464-.072,5.308l.02.169c0,13.944.378,28.021.745,41.633C1403.959,804.8,1404.333,818.723,1404.342,832.53Z"/><path class="cls-16" d="M1454.673,860.384V774.82c-7.962-8.9-17.33-15.754-34.307-22.407-2.12-.83-12.131-3.993-17.616-3.993-6.3,0-7.5,1.453-11.313,3.049V835.2Z"/><path class="cls-15" d="M1455.4,861.459l-64.694-25.767V750.983l.447-.187c.828-.347,1.527-.685,2.2-1.012,2.415-1.17,4.323-2.094,9.393-2.094,5.667,0,15.695,3.188,17.881,4.044,15.713,6.157,25.733,12.7,34.586,22.6l.185.208ZM1392.166,834.7l61.778,24.605V775.1c-8.643-9.6-18.472-15.985-33.844-22.008-2.05-.8-11.969-3.943-17.35-3.943-4.735,0-6.423.817-8.758,1.948-.569.276-1.155.559-1.826.852Z"/><path class="cls-17" d="M1454.673,774.735v85.649l-60.919-22.126a5.832,5.832,0,0,1-4-5.536l-4.375-75.71a5.833,5.833,0,0,1,7.858-5.47Z"/><path class="cls-18" d="M1454.674,861.842a1.462,1.462,0,0,1-.5-.088l-60.92-22.126a7.261,7.261,0,0,1-4.957-6.906l-4.372-75.625a7.288,7.288,0,0,1,9.819-6.923l61.446,23.282a1.46,1.46,0,0,1,.941,1.364v85.564a1.458,1.458,0,0,1-1.458,1.458ZM1391.2,752.629a4.392,4.392,0,0,0-4.364,4.384l4.372,75.625a4.4,4.4,0,0,0,3,4.236l59,21.429V775.827l-60.494-22.921A4.331,4.331,0,0,0,1391.2,752.629Z"/><rect class="cls-17" x="1454.136" y="774.735" width="12.589" height="86.649" rx="2.873"/><path class="cls-18" d="M1463.853,862.842h-6.844a4.335,4.335,0,0,1-4.33-4.331v-80.9a4.335,4.335,0,0,1,4.33-4.331h6.844a4.336,4.336,0,0,1,4.331,4.331v80.9A4.336,4.336,0,0,1,1463.853,862.842Zm-6.844-86.649a1.415,1.415,0,0,0-1.414,1.414v80.9a1.415,1.415,0,0,0,1.414,1.414h6.844a1.415,1.415,0,0,0,1.414-1.414v-80.9a1.415,1.415,0,0,0-1.414-1.414Z"/></g><path class="cls-9" d="M1380.854,790.206c5.661-1.579,18.9-2.472,19.973,10.136,1.175,13.857-3.161,14.729-8.143,17.079-6.776,3.2-17.75-1.666-22.173-11.642"/><path class="cls-11" d="M1386.839,821.016a16.619,16.619,0,0,1-8.1-2.236c-6.283-3.494-10.73-10.251-11.877-15.119a1.568,1.568,0,0,1,3.053-.718c.963,4.1,4.918,10.077,10.349,13.1a12.26,12.26,0,0,0,10.172,1.251c8.184-2.751,10.8-7.738,9.04-17.213-1.189-6.4-7.854-9.31-13.821-8.844a1.568,1.568,0,0,1-.236-3.128c7.358-.559,15.61,3.182,17.138,11.4,1.28,6.874,1.518,16.506-11.122,20.755A14.353,14.353,0,0,1,1386.839,821.016Z"/><path class="cls-9" d="M1538.962,789.634c-5.66-1.579-23.868-2.4-24.937,10.21-1.174,13.857,2.587,15.292,7.614,17.545,11.158,5,18.54-1.634,22.962-11.61"/><path class="cls-11" d="M1528.3,820.557a14.993,14.993,0,0,1-4.794-.794c-9.857-3.314-13.7-10.524-11.1-20.851,3.188-12.692,23.286-11.767,24.14-11.717a1.566,1.566,0,0,1,1.481,1.648,1.585,1.585,0,0,1-1.648,1.482c-.188-.01-18.373-.84-20.932,9.35-2.194,8.731.769,14.329,9.06,17.117a12.108,12.108,0,0,0,10.087-1.1,20.842,20.842,0,0,0,9.529-12.426,1.569,1.569,0,0,1,3.054.718,24.22,24.22,0,0,1-11.06,14.448A16,16,0,0,1,1528.3,820.557Z"/></g></svg>