<?xml version="1.0" encoding="utf-8"?>
<!-- Generator: Adobe Illustrator 25.2.0, SVG Export Plug-In . SVG Version: 6.00 Build 0)  -->
<svg version="1.1" id="레이어_1" xmlns="http://www.w3.org/2000/svg" xmlns:xlink="http://www.w3.org/1999/xlink" x="0px"
	 y="0px" viewBox="0 0 116.9 110.3" style="enable-background:new 0 0 116.9 110.3;" xml:space="preserve">
<g>
	<g>
		<g>
			<path style="fill:#333333;" d="M30.9,67.6c0.5,0.5,1.1,1,1.7,1.3c0.7,0.3,1.4,0.4,2.2,0.4h18.9c0.8,0,1.5-0.1,2.2-0.4
				c0,0,0.1,0,0.1,0c0,0,0.1,0,0.1,0c0.7,0.3,1.4,0.4,2.2,0.4h18.9c0.8,0,1.5-0.1,2.2-0.4c0,0,0,0,0.1,0c0.6,0.3,1.4,0.5,2.3,0.5h19
				c2.2,0,3.4-1,4-1.8c0.7-1,1.1-2.1,1.1-3.3c0-0.6-0.1-1.1-0.3-1.6c-0.2-0.6-0.5-1.2-1-1.8c-0.2-0.3-0.5-0.5-0.8-0.7
				c0,0,0.1-0.1,0.1-0.1c0.7-0.9,1.1-2,1.1-3.2c0-0.5-0.1-1-0.2-1.5c-0.1-0.3-0.2-0.6-0.3-0.9v-6.2c0-0.9-0.1-1.7-0.3-2.5
				c-0.3-1-0.8-1.8-1.5-2.5c-0.7-0.7-1.5-1.2-2.6-1.6c-0.9-0.3-1.9-0.4-3.1-0.4H82.7c-1.5,0-2.9,0.6-3.8,1.7c-0.8,1-1.2,2.1-1.2,3.3
				c0,1.2,0.4,2.3,1.1,3.2c-0.1,0.1-0.1,0.2-0.2,0.2c-0.3-0.3-0.6-0.6-0.9-0.9c-1.1-1-2.4-1.8-3.8-2.3c-0.2-0.1-0.5-0.2-0.7-0.2
				c0-1.9-0.8-3-1.5-3.7c-0.9-1-2.2-1.6-3.7-1.7c-0.2,0-0.3,0-0.5,0c-1.2,0-2.4,0.4-3.4,1c-0.9,0.6-2,1.8-2.3,3.9
				c-0.1,0.7-0.3,1.3-0.5,1.9c-0.3,0.6-0.6,1.1-1,1.5c-0.4,0.4-0.8,0.8-1.3,1c-0.5,0.3-1,0.5-1.5,0.6c-0.5,0.1-1,0.3-1.4,0.5
				c-0.6-0.9-1.2-1.7-2-2.4c-1.1-1-2.4-1.8-3.8-2.3c-0.2-0.1-0.5-0.2-0.7-0.2c0-1.9-0.8-3-1.5-3.7c-0.9-1-2.2-1.6-3.7-1.7
				c-0.2,0-0.3,0-0.5,0c-1.2,0-2.4,0.4-3.4,1c-0.9,0.6-2,1.8-2.3,3.9c-0.1,0.7-0.3,1.3-0.5,1.9c-0.3,0.6-0.6,1.1-1,1.5
				c-0.4,0.4-0.8,0.8-1.3,1c-0.5,0.3-1,0.5-1.5,0.6c-1.4,0.3-2.5,1-3.3,2.1c-0.7,1.1-1.1,2.3-0.9,3.7c0.1,1.4,0.8,2.5,1.8,3.4
				c-0.3,0.2-0.7,0.5-0.9,0.8c-0.5,0.5-0.8,1.2-1,1.9c-0.2,0.5-0.2,1.1-0.2,1.6c0,0.6,0.1,1.2,0.3,1.7
				C30.2,66.5,30.5,67.1,30.9,67.6z M70.7,58.4l0.1,0.5h-5c0.8-0.5,1.6-1.1,2.3-1.8c0.4-0.3,0.8-0.7,1.1-1.1
				c0.2,0.1,0.4,0.2,0.6,0.4c0.2,0.2,0.4,0.5,0.6,0.8C70.6,57.5,70.7,57.9,70.7,58.4z M47.3,58.4l0.1,0.5h-5
				c0.8-0.5,1.6-1.1,2.3-1.8c0.4-0.3,0.8-0.7,1.1-1.1c0.2,0.1,0.4,0.2,0.6,0.4c0.2,0.2,0.4,0.5,0.6,0.8
				C47.1,57.5,47.2,57.9,47.3,58.4z"/>
			<path style="fill:#333333;" d="M115,75.4c-1-0.9-2.3-1.3-3.7-1.3c-1.4,0-2.7,0.5-3.7,1.3c-0.4,0.3-0.8,0.7-1.1,1.3
				c-1.2-1.1-2.9-1.7-5-1.7h-7.3c-0.8,0-1.6,0.2-2.3,0.5c-0.2,0.1-0.4,0.2-0.6,0.3c-0.1-0.1-0.2-0.3-0.4-0.4
				c-0.5-0.5-1.1-0.8-1.8-1.1c-0.6-0.2-1.3-0.3-2-0.3c-1.3,0-2.6,0.4-3.7,1.3c-0.5,0.4-0.9,0.9-1.2,1.4c-0.3-0.1-0.6-0.1-1-0.1h-1.1
				c-0.3-0.5-0.6-0.9-0.9-1.2c-0.7-0.7-2-1.5-4-1.5c-2,0-3.3,0.8-4,1.5c-0.3,0.3-0.6,0.7-0.9,1.2h-1c-0.3,0-0.5,0-0.8,0.1
				c-0.3-0.6-0.7-1-1.1-1.3c-1-0.9-2.3-1.4-3.7-1.4c-1.4,0-2.6,0.4-3.7,1.3c-0.7-0.4-1.4-0.5-2.2-0.5H46.6c-0.7,0-1.4,0.2-2.1,0.5
				c-1-0.8-2.2-1.2-3.6-1.2c-1.4,0-2.7,0.5-3.7,1.3c-0.8,0.7-1.8,2-1.8,4.2v5.9c-0.5-0.4-0.9-0.7-1.5-1c0-0.7,0.1-1.5,0.1-2.3v-1.9
				c0-0.8-0.2-1.6-0.5-2.3c-0.3-0.7-0.7-1.3-1.3-1.7c-0.5-0.5-1.1-0.8-1.8-1.1c-0.6-0.2-1.3-0.3-2-0.3c-0.7,0-1.3,0.1-1.9,0.3
				c-0.7,0.2-1.3,0.6-1.9,1.1c-0.5,0.5-1,1.1-1.3,1.7c-0.3,0.7-0.5,1.5-0.5,2.4v1.9c0,1.6-0.1,3-0.2,4.2c-0.1,1.1-0.4,2.1-0.7,2.9
				c-0.3,0.7-0.6,1.4-1,1.9c-0.4,0.6-1,1.1-1.6,1.5c-0.7,0.5-1.2,1-1.6,1.7c-0.4,0.7-0.6,1.4-0.6,2.1c0,0.7,0.1,1.4,0.3,2
				c0.2,0.6,0.5,1.1,0.9,1.6c0.5,0.6,1,1,1.7,1.4c0.6,0.3,1.2,0.5,1.9,0.5c0.2,0,0.4,0,0.6,0c0.4,0,0.9-0.1,1.3-0.2
				c0.6-0.1,1.2-0.4,1.8-0.7c1.1-0.6,2.1-1.4,3-2.3l-0.4,3h7.1v1.4h11.1v-4.9c0.5,0.1,1,0.2,1.6,0.2h10.4v4.7h11.1v-2.2
				c0.7,0.5,1.5,0.9,2.3,1.2c1.1,0.4,2.3,0.5,3.5,0.5c1.2,0,2.4-0.2,3.5-0.5c1-0.3,2-0.8,2.8-1.5v2.5h11.1v-1.1
				c0.5,0.1,0.9,0.2,1.4,0.2l0.1,0c1.9,0,3.7-0.3,5.3-0.9c1.8-0.6,3.4-1.6,4.8-2.9c0.6-0.5,1.1-1.1,1.5-1.8v6.6h11.1V79.5
				C116.9,77.4,115.9,76.1,115,75.4z M95.3,86.4c-0.1-0.3-0.2-0.7-0.4-1h2.4v1.5c0,1.2-0.1,2.2-0.3,2.9c-0.2,0.6-0.4,1-0.7,1.3
				c-0.3,0.3-0.6,0.5-1,0.6c-0.5,0.2-1.2,0.3-1.8,0.4c0.4-0.3,0.7-0.6,0.9-1c0.4-0.5,0.6-1.1,0.8-1.7c0.1-0.5,0.2-1,0.2-1.5
				C95.5,87.4,95.4,86.9,95.3,86.4z"/>
		</g>
	</g>
	<g>
		<path style="fill:#FFFFFF;" d="M53.7,62c0.4,0,0.7,0.1,1,0.2c0.3,0.1,0.5,0.3,0.7,0.5c0.2,0.2,0.3,0.4,0.4,0.7
			c0.1,0.3,0.1,0.5,0.1,0.8c0,0.3,0,0.5-0.1,0.8c-0.1,0.2-0.2,0.5-0.4,0.7c-0.2,0.2-0.4,0.4-0.7,0.5c-0.3,0.1-0.6,0.2-1,0.2H34.9
			c-0.4,0-0.7-0.1-1-0.2c-0.3-0.1-0.5-0.3-0.7-0.5c-0.2-0.2-0.3-0.4-0.4-0.7c-0.1-0.2-0.1-0.5-0.1-0.8c0-0.2,0-0.5,0.1-0.8
			s0.2-0.5,0.4-0.7s0.4-0.4,0.7-0.5c0.3-0.1,0.6-0.2,1-0.2H53.7z M46.8,46.5c0,0.7-0.1,1.5-0.3,2.3c1,0,2.1,0.2,3.1,0.6
			c1,0.4,1.9,0.9,2.8,1.7c0.8,0.8,1.5,1.7,2.1,2.9c0.6,1.2,0.9,2.5,1,4.1h-5c-0.1-0.8-0.3-1.6-0.7-2.3c-0.3-0.7-0.8-1.2-1.3-1.7
			c-0.5-0.5-1.1-0.8-1.8-1c-0.7-0.2-1.4-0.3-2.1-0.3c-0.6,0.8-1.2,1.5-1.9,2.1c-0.7,0.6-1.5,1.2-2.2,1.7c-0.8,0.5-1.6,0.8-2.4,1.1
			c-0.8,0.3-1.6,0.4-2.5,0.4c-0.6,0-1.1-0.1-1.6-0.5s-0.7-0.8-0.8-1.4c-0.1-0.6,0.1-1.1,0.4-1.6c0.3-0.4,0.8-0.7,1.4-0.9
			c0.8-0.2,1.6-0.5,2.4-0.9s1.5-1,2.1-1.6c0.6-0.6,1.1-1.4,1.5-2.3c0.4-0.9,0.7-1.8,0.8-2.8c0.1-0.8,0.4-1.4,0.9-1.7
			s1.1-0.5,1.8-0.5c0.7,0.1,1.3,0.3,1.7,0.8C46.6,45,46.8,45.7,46.8,46.5z"/>
		<path style="fill:#FFFFFF;" d="M77.2,62c0.4,0,0.7,0.1,1,0.2c0.3,0.1,0.5,0.3,0.7,0.5s0.3,0.4,0.4,0.7s0.1,0.5,0.1,0.8
			c0,0.3,0,0.5-0.1,0.8c-0.1,0.2-0.2,0.5-0.4,0.7s-0.4,0.4-0.7,0.5c-0.3,0.1-0.6,0.2-1,0.2H58.3c-0.4,0-0.7-0.1-1-0.2
			c-0.3-0.1-0.5-0.3-0.7-0.5s-0.3-0.4-0.4-0.7c-0.1-0.2-0.1-0.5-0.1-0.8c0-0.2,0-0.5,0.1-0.8c0.1-0.3,0.2-0.5,0.4-0.7
			s0.4-0.4,0.7-0.5c0.3-0.1,0.6-0.2,1-0.2H77.2z M70.2,46.5c0,0.7-0.1,1.5-0.3,2.3c1,0,2.1,0.2,3.1,0.6c1,0.4,1.9,0.9,2.8,1.7
			c0.8,0.8,1.5,1.7,2.1,2.9c0.6,1.2,0.9,2.5,1,4.1h-5c-0.1-0.8-0.3-1.6-0.7-2.3c-0.3-0.7-0.8-1.2-1.3-1.7c-0.5-0.5-1.1-0.8-1.8-1
			s-1.4-0.3-2.1-0.3c-0.6,0.8-1.2,1.5-1.9,2.1c-0.7,0.6-1.5,1.2-2.2,1.7c-0.8,0.5-1.6,0.8-2.4,1.1c-0.8,0.3-1.6,0.4-2.5,0.4
			c-0.6,0-1.1-0.1-1.6-0.5c-0.4-0.3-0.7-0.8-0.8-1.4c-0.1-0.6,0.1-1.1,0.4-1.6c0.3-0.4,0.8-0.7,1.4-0.9c0.8-0.2,1.6-0.5,2.4-0.9
			c0.8-0.4,1.5-1,2.1-1.6c0.6-0.6,1.1-1.4,1.5-2.3c0.4-0.9,0.7-1.8,0.8-2.8c0.1-0.8,0.4-1.4,1-1.7c0.5-0.4,1.1-0.5,1.8-0.5
			c0.7,0.1,1.3,0.3,1.7,0.8C70.1,45,70.3,45.7,70.2,46.5z"/>
		<path style="fill:#FFFFFF;" d="M88.7,62.2v-3.5h-3.2c-1.6,0-2.9-0.4-3.7-1.1s-1.2-1.8-1.2-3.1v-0.5c0-1.3,0.4-2.4,1.2-3.2
			c0.8-0.8,2-1.2,3.7-1.2h10.8v-0.7c0-0.2,0-0.3-0.1-0.5s-0.3-0.2-0.5-0.2H82.7c-0.6,0-1.1-0.2-1.4-0.6c-0.3-0.4-0.5-0.9-0.5-1.4
			c0-0.5,0.2-0.9,0.5-1.4c0.3-0.4,0.8-0.6,1.4-0.6H97c0.9,0,1.6,0.1,2.1,0.3c0.6,0.2,1,0.5,1.3,0.8s0.6,0.7,0.7,1.2
			c0.1,0.5,0.2,1,0.2,1.6v5.2H86.7c-0.6,0-0.8,0.2-0.8,0.7v0.1c0,0.5,0.3,0.7,0.8,0.7H100c0.3,0,0.6,0.1,0.9,0.2
			c0.2,0.1,0.4,0.3,0.6,0.4c0.2,0.2,0.3,0.4,0.3,0.6c0.1,0.2,0.1,0.5,0.1,0.7c0,0.5-0.1,0.9-0.4,1.3c-0.3,0.4-0.8,0.6-1.5,0.6h-6.3
			v3.5h7c0.4,0,0.7,0.1,1,0.2c0.3,0.1,0.5,0.3,0.6,0.5c0.2,0.2,0.3,0.4,0.4,0.6c0.1,0.2,0.1,0.5,0.1,0.7c0,0.5-0.2,1-0.5,1.4
			c-0.3,0.4-0.9,0.6-1.6,0.6h-19c-0.7,0-1.3-0.2-1.6-0.6c-0.3-0.4-0.5-0.9-0.5-1.4c0-0.2,0-0.5,0.1-0.7c0.1-0.2,0.2-0.5,0.4-0.6
			c0.2-0.2,0.4-0.3,0.6-0.5c0.3-0.1,0.6-0.2,1-0.2H88.7z"/>
		<path style="fill:#FFFFFF;" d="M21.1,95.7c0.9-0.6,1.7-1.3,2.3-2.1c0.6-0.8,1.1-1.7,1.5-2.8s0.6-2.3,0.8-3.6
			c0.2-1.3,0.2-2.9,0.2-4.6v-1.9c0-0.4,0.1-0.7,0.2-1c0.1-0.3,0.3-0.5,0.6-0.8c0.2-0.2,0.5-0.4,0.8-0.5c0.3-0.1,0.6-0.1,0.9-0.1
			c0.3,0,0.6,0.1,0.9,0.2c0.3,0.1,0.6,0.3,0.8,0.5c0.2,0.2,0.4,0.5,0.6,0.8c0.1,0.3,0.2,0.6,0.2,1v1.9c0,1.4-0.1,2.8-0.2,4.1
			c1.1,0.4,2,0.9,2.8,1.6c0.8,0.7,1.4,1.5,1.9,2.5s0.9,2.2,1,3.6s0.2,3,0.1,4.9h-4.8c0.3-2,0.2-3.7-0.1-5.1c-0.3-1.3-1-2.3-1.9-3
			c-0.6,1.9-1.3,3.5-2.3,4.8c-1,1.3-2.1,2.3-3.4,3c-0.3,0.2-0.6,0.3-1,0.4c-0.3,0.1-0.6,0.1-1,0.1s-0.6-0.1-0.9-0.2
			s-0.5-0.3-0.6-0.5c-0.2-0.2-0.3-0.4-0.4-0.7s-0.1-0.5-0.1-0.8c0-0.3,0.1-0.5,0.2-0.8C20.6,96.1,20.9,95.9,21.1,95.7z M38.5,100.7
			V79.9c0-0.8,0.2-1.4,0.7-1.8s1.1-0.6,1.7-0.6c0.7,0,1.2,0.2,1.7,0.6s0.7,1,0.7,1.8v20.7H38.5z"/>
		<path style="fill:#FFFFFF;" d="M54.4,82.2V83c0,0.2,0,0.3,0,0.5c0,0.2,0,0.3,0,0.5c1.9,0.1,3.3,0.7,4.2,1.7c0.9,1.1,1.3,2.7,1.3,5
			h-4.6c0.1-1-0.1-1.8-0.5-2.3s-0.9-0.8-1.6-0.9c-0.7,1.1-1.6,2-2.8,2.6c-1.1,0.6-2.3,0.9-3.5,1c-0.6,0-1.1-0.1-1.6-0.5
			s-0.7-0.8-0.7-1.3c0-0.6,0.1-1,0.4-1.4c0.3-0.4,0.7-0.6,1.1-0.7c1.1-0.2,2-0.7,2.6-1.4c0.6-0.8,0.9-1.7,0.9-2.8v-0.8h-3.1
			c-0.3,0-0.6-0.1-0.8-0.2c-0.2-0.1-0.4-0.3-0.6-0.5S45,81.2,45,80.9c-0.1-0.2-0.1-0.5-0.1-0.7c0-0.2,0-0.4,0.1-0.7
			c0.1-0.2,0.2-0.5,0.3-0.7c0.1-0.2,0.3-0.4,0.6-0.5c0.2-0.1,0.5-0.2,0.8-0.2h11.3c0.3,0,0.6,0.1,0.8,0.2c0.2,0.1,0.4,0.3,0.6,0.5
			c0.1,0.2,0.3,0.4,0.3,0.7c0.1,0.2,0.1,0.5,0.1,0.7c0,0.2,0,0.5-0.1,0.7c-0.1,0.2-0.2,0.4-0.3,0.6c-0.1,0.2-0.3,0.3-0.6,0.5
			c-0.2,0.1-0.5,0.2-0.8,0.2H54.4z M48.1,96c-0.7,0-1.2-0.2-1.6-0.5C46.1,95,46,94.6,46,94c0-0.6,0.2-1,0.6-1.4
			c0.4-0.4,0.9-0.5,1.6-0.5h14.8c0.8,0,1.4,0.1,1.9,0.2c0.5,0.1,0.8,0.3,1.1,0.6c0.3,0.3,0.4,0.7,0.5,1.2c0.1,0.5,0.1,1.1,0.1,1.8
			v4.8h-4.9v-4.1c0-0.4-0.2-0.6-0.6-0.6H48.1z M61.4,79.9c0-0.8,0.2-1.4,0.7-1.8c0.5-0.4,1.1-0.6,1.7-0.6c0.6,0,1.2,0.2,1.7,0.6
			c0.5,0.4,0.7,1,0.7,1.8v2.2H67c0.4,0,0.7,0.1,0.9,0.2c0.2,0.1,0.4,0.3,0.6,0.5c0.1,0.2,0.3,0.4,0.3,0.7c0.1,0.3,0.1,0.5,0.1,0.8
			s0,0.5-0.1,0.8c-0.1,0.3-0.2,0.5-0.3,0.7c-0.1,0.2-0.3,0.4-0.6,0.5c-0.3,0.1-0.6,0.2-0.9,0.2h-0.8v4.7h-4.9V79.9z"/>
		<path style="fill:#FFFFFF;" d="M75.4,77.4c0.8,0,1.4,0.2,1.9,0.7c0.5,0.4,0.7,1,0.7,1.8v0.2h3.5c0.6,0,1.1,0.2,1.4,0.6
			c0.3,0.4,0.5,0.8,0.5,1.4c0,0.5-0.2,1-0.5,1.4C82.4,83.8,82,84,81.4,84h0c0.1,0.3,0.2,0.7,0.3,1c0.1,0.4,0.1,0.7,0.1,1.2v7.7
			c0,1.1-0.2,2-0.5,2.8s-0.8,1.5-1.3,2c-0.6,0.5-1.2,0.9-2,1.2c-0.8,0.3-1.6,0.4-2.5,0.4c-0.9,0-1.7-0.1-2.5-0.4s-1.4-0.6-2-1.2
			c-0.6-0.5-1-1.2-1.3-2c-0.3-0.8-0.5-1.7-0.5-2.8v-7.7c0-0.8,0.1-1.5,0.4-2.2c-0.6,0-1-0.2-1.4-0.6c-0.3-0.4-0.5-0.8-0.5-1.4
			c0-0.5,0.2-1,0.5-1.4c0.3-0.4,0.8-0.6,1.4-0.6h3.4v-0.2c0-0.8,0.2-1.4,0.7-1.8C74,77.6,74.6,77.4,75.4,77.4z M75.4,96.2
			c0.5,0,0.9-0.2,1.3-0.6s0.5-1,0.5-1.7V86c0-0.8-0.2-1.4-0.5-1.7c-0.4-0.3-0.8-0.5-1.3-0.5c-0.5,0-0.9,0.2-1.2,0.5
			c-0.4,0.3-0.5,0.9-0.5,1.7v7.9c0,0.8,0.2,1.4,0.5,1.7C74.5,96,74.9,96.2,75.4,96.2z M84.8,79.9c0-0.8,0.2-1.4,0.7-1.8
			c0.5-0.4,1.1-0.6,1.7-0.6c0.3,0,0.6,0.1,0.9,0.2c0.3,0.1,0.6,0.3,0.8,0.5c0.2,0.2,0.4,0.4,0.5,0.7c0.1,0.3,0.2,0.6,0.2,1v6.2h0.8
			c0.4,0,0.7,0.1,0.9,0.2c0.2,0.1,0.4,0.3,0.6,0.5s0.3,0.4,0.3,0.7c0.1,0.3,0.1,0.5,0.1,0.8s0,0.5-0.1,0.8c-0.1,0.3-0.2,0.5-0.3,0.7
			c-0.1,0.2-0.3,0.4-0.6,0.5c-0.3,0.1-0.6,0.2-0.9,0.2h-0.8v10.2h-4.9V79.9z"/>
		<path style="fill:#FFFFFF;" d="M93.6,95.6c1-0.1,2-0.3,2.8-0.6c0.8-0.3,1.6-0.8,2.2-1.4c0.6-0.6,1-1.4,1.4-2.5
			c0.3-1,0.5-2.3,0.5-3.8v-4c0-0.2-0.1-0.3-0.2-0.4c-0.1-0.1-0.3-0.2-0.5-0.2h-5.6c-0.4,0-0.7-0.1-1-0.2s-0.5-0.3-0.7-0.5
			s-0.3-0.4-0.4-0.7c-0.1-0.3-0.1-0.5-0.1-0.8c0-0.2,0-0.5,0.1-0.8c0.1-0.3,0.2-0.5,0.4-0.7c0.2-0.2,0.4-0.4,0.7-0.5
			c0.3-0.1,0.6-0.2,1-0.2h7.3c1.4,0,2.4,0.3,3,0.9c0.6,0.6,0.9,1.5,0.9,2.7v5.3c0,2.2-0.3,4.1-0.9,5.6c-0.6,1.5-1.4,2.8-2.4,3.8
			c-1,1-2.2,1.7-3.6,2.2c-1.4,0.5-2.8,0.7-4.4,0.7c-0.3,0-0.6,0-0.9-0.1c-0.3-0.1-0.6-0.2-0.8-0.4s-0.4-0.4-0.5-0.7
			c-0.1-0.3-0.2-0.6-0.2-1c0-0.5,0.2-1,0.5-1.3C92.5,95.9,93,95.6,93.6,95.6z M108.9,100.7V79.9c0-0.8,0.2-1.4,0.7-1.8
			s1.1-0.6,1.7-0.6s1.2,0.2,1.7,0.6s0.7,1,0.7,1.8v20.7H108.9z"/>
	</g>
	<path style="fill:#FFCB61;" d="M19,103.4C15.1,100,8.8,93.8,4.5,84.1c-7-15.9-4.1-30.3-2.9-35.9c3.7-17,13.5-27.4,16.4-30.3
		c3.2-3.3,13.7-13,30.3-16.6c25-5.4,44.7,7.2,48.6,9.9c2.8-3.5,5.6-7.1,8.4-10.6c1.1,10.2,2.2,20.4,3.4,30.6
		c-10,1.8-20.1,3.7-30.1,5.5c2.2-3.4,4.5-6.7,6.7-10.1c-2.8-1.8-7-4-12.5-5.5c-15.6-4.2-28.7,1.3-33,3.1
		c-4.2,1.8-17.7,7.9-25.7,23.3C6.7,61.8,8.6,75.2,9.3,79.8C11.1,91.1,16,99.2,19,103.4z"/>
</g>
<g>
</g>
<g>
</g>
<g>
</g>
<g>
</g>
<g>
</g>
<g>
</g>
<g>
</g>
<g>
</g>
<g>
</g>
<g>
</g>
<g>
</g>
<g>
</g>
<g>
</g>
<g>
</g>
<g>
</g>
</svg>
