<?xml version="1.0" encoding="utf-8"?>
<!-- Generator: Adobe Illustrator 25.2.0, SVG Export Plug-In . SVG Version: 6.00 Build 0)  -->
<svg version="1.1" id="레이어_1" xmlns="http://www.w3.org/2000/svg" xmlns:xlink="http://www.w3.org/1999/xlink" x="0px"
	 y="0px" viewBox="0 0 35.5 27.2" style="enable-background:new 0 0 35.5 27.2;" xml:space="preserve">
<g>
	<g>
		<path style="fill:#FFFFFF;stroke:#FFFFFF;stroke-width:0.5;stroke-miterlimit:10;" d="M6.7,5.6l-2-2.8c-0.1-0.1-0.1-0.3,0-0.4
			C4.8,2.3,5,2.2,5.1,2.2h8.8V3h-8l1.5,2.1L6.7,5.6z"/>
		<path style="fill:#FFFFFF;stroke:#FFFFFF;stroke-width:0.5;stroke-miterlimit:10;" d="M30.9,5.4l-0.8,0l0-2.4h-3.7l0-0.8h4.1
			c0.1,0,0.2,0,0.3,0.1c0.1,0.1,0.1,0.2,0.1,0.3L30.9,5.4z"/>
		<rect x="5.1" y="7.7" style="fill:#FFFFFF;stroke:#FFFFFF;stroke-width:0.5;stroke-miterlimit:10;" width="8.8" height="0.8"/>
		<rect x="7.1" y="5" style="fill:#FFFFFF;stroke:#FFFFFF;stroke-width:0.5;stroke-miterlimit:10;" width="6.8" height="0.8"/>
		<path style="fill:#FFFFFF;stroke:#FFFFFF;stroke-width:0.5;stroke-miterlimit:10;" d="M30.5,8.5h-4V7.7h3.6l0-2h-3.6V5h4
			c0.2,0,0.4,0.2,0.4,0.4l0,2.8C30.9,8.3,30.7,8.5,30.5,8.5z"/>
		<path style="fill:#FFFFFF;stroke:#FFFFFF;stroke-width:0.5;stroke-miterlimit:10;" d="M32.3,8.5h-1.8c-0.2,0-0.4-0.2-0.4-0.4V2.6
			c0-0.2,0.2-0.4,0.4-0.4h1.8V3h-1.4v4.7h1.4V8.5z"/>
		<path style="fill:#FFFFFF;stroke:#FFFFFF;stroke-width:0.5;stroke-miterlimit:10;" d="M33.6,8.5h-1.3c-0.2,0-0.4-0.2-0.4-0.4V2.6
			c0-0.2,0.2-0.4,0.4-0.4h1.3c0.9,0,1.6,0.7,1.6,1.5v3.2C35.2,7.8,34.5,8.5,33.6,8.5z M32.7,7.7h1c0.5,0,0.8-0.3,0.8-0.8V3.8
			c0-0.4-0.4-0.8-0.8-0.8h-1V7.7z"/>
		<path style="fill:#FFFFFF;stroke:#FFFFFF;stroke-width:0.5;stroke-miterlimit:10;" d="M5.1,8.5C5,8.5,5,8.5,4.9,8.4L0.4,5.7
			C0.3,5.6,0.2,5.5,0.2,5.4S0.3,5.1,0.4,5l4.5-2.7c0.2-0.1,0.4-0.1,0.5,0.1l2,2.7c0.1,0.1,0.1,0.3,0,0.5l-2,2.8
			C5.3,8.4,5.2,8.5,5.1,8.5z M1.4,5.4L5,7.6l1.6-2.2L5,3.2L1.4,5.4z"/>
		<rect x="2.9" y="3.7" style="fill:#FFFFFF;stroke:#FFFFFF;stroke-width:0.5;stroke-miterlimit:10;" width="0.8" height="3.2"/>
		<path style="fill:#FFFFFF;stroke:#FFFFFF;stroke-width:0.5;stroke-miterlimit:10;" d="M22.9,27H14c-0.2,0-0.4-0.2-0.4-0.4V15.1
			l-3.1-2.6c0,0,0,0-0.1-0.1C10,12,9.8,11.5,9.8,11V8.5h0.8V11c0,0.3,0.1,0.6,0.4,0.9c0,0,0,0,0,0l3.2,2.7c0.1,0.1,0.1,0.2,0.1,0.3
			v11.3h8.1V14.8c0-0.1,0.1-0.3,0.2-0.3c0.5-0.3,2.8-2,3.4-4.2V2.9c0-0.1,0-0.2,0-0.2c-0.1-0.6-0.6-1-1.2-1c-0.7,0-1.2,0.5-1.2,1.2
			v2.9c0,0.2-0.2,0.4-0.4,0.4c-0.2,0-0.4-0.2-0.4-0.4V2.3c0-0.7-0.5-1.2-1.2-1.2c-0.7,0-1.2,0.5-1.2,1.2v3.6c0,0.2-0.2,0.4-0.4,0.4
			c-0.2,0-0.4-0.2-0.4-0.4V2.3c0-0.7-0.5-1.2-1.2-1.2c-0.7,0-1.2,0.5-1.2,1.2v3.6c0,0.2-0.2,0.4-0.4,0.4c-0.2,0-0.4-0.2-0.4-0.4V2.2
			c0-0.7-0.5-1.2-1.2-1.2c-0.7,0-1.2,0.5-1.2,1.2v7.2c0,0.2-0.2,0.4-0.4,0.4h-1V9.1h0.6V2.2c0-1.1,0.9-2,2-2c0.7,0,1.2,0.3,1.6,0.8
			c0.4-0.5,0.9-0.8,1.6-0.8c0.6,0,1.2,0.3,1.6,0.8c0.4-0.5,0.9-0.8,1.6-0.8c0.8,0,1.5,0.5,1.8,1.2c0.4-0.3,0.8-0.5,1.4-0.5
			c0.9,0,1.8,0.7,1.9,1.6c0,0.1,0,0.3,0,0.4v7.4c0,0,0,0.1,0,0.1c-0.6,2.3-2.8,4-3.6,4.6v11.6C23.3,26.8,23.1,27,22.9,27z"/>
	</g>
</g>
<g>
</g>
<g>
</g>
<g>
</g>
<g>
</g>
<g>
</g>
<g>
</g>
<g>
</g>
<g>
</g>
<g>
</g>
<g>
</g>
<g>
</g>
<g>
</g>
<g>
</g>
<g>
</g>
<g>
</g>
</svg>
