<?xml version="1.0" encoding="utf-8"?>
<!-- Generator: Adobe Illustrator 25.2.0, SVG Export Plug-In . SVG Version: 6.00 Build 0)  -->
<svg version="1.1" id="레이어_1" xmlns="http://www.w3.org/2000/svg" xmlns:xlink="http://www.w3.org/1999/xlink" x="0px"
	 y="0px" viewBox="0 0 110.8 108.6" style="enable-background:new 0 0 110.8 108.6;" xml:space="preserve">
<g>
	<g>
		<path style="fill:#F46279;" d="M103.3,53.5l-1.2-5.9c-1.5-7.4-7.9-12.5-15.2-12.7l-2.1-10.5c-1.7-8.6-10.1-14.1-18.7-12.4
			L12.7,22.8C4.1,24.5-1.4,32.9,0.3,41.5l6.4,31.6c1.7,8.6,10.1,14.1,18.7,12.4l53.4-10.8c0.2,0,0.3-0.1,0.5-0.1l11.6-2.4
			C99.5,70.4,105.1,62,103.3,53.5z"/>
		<g>
			<g>
				
					<path style="fill:none;stroke:#333333;stroke-width:6.0833;stroke-linecap:round;stroke-linejoin:round;stroke-miterlimit:10;" d="
					M26.1,30.8l-3.4,0.6l0.6,3.1c0.2,1.2,0.2,2.2,0,3.2c-0.2,1-0.5,1.8-1.1,2.5c-0.5,0.7-1.2,1.3-2,1.8c-0.8,0.5-1.8,0.8-2.9,1
					c-1.1,0.2-2.1,0.2-3.1,0.1c-1-0.1-1.8-0.4-2.6-0.9c-0.8-0.5-1.4-1.1-1.9-1.9c-0.5-0.8-0.9-1.8-1.1-3l-1.8-9.6
					c-0.2-1.2-0.2-2.2,0-3.2c0.2-0.9,0.5-1.8,1.1-2.5c0.5-0.7,1.2-1.3,2.1-1.8c0.8-0.5,1.8-0.8,2.9-1c1.1-0.2,2.1-0.2,3.1-0.1
					c1,0.1,1.8,0.4,2.5,0.9c0.7,0.5,1.4,1.1,1.9,2c0.5,0.8,0.9,1.8,1.1,3l0.4,2l3.4-0.6l-1.3-6.9c-0.2-0.8,0-1.5,0.4-2.1
					c0.4-0.5,1-0.9,1.7-1c0.3-0.1,0.7-0.1,1,0c0.3,0.1,0.6,0.2,0.9,0.3c0.3,0.2,0.5,0.4,0.7,0.7c0.2,0.3,0.4,0.6,0.4,1.1l4.1,22.2
					l-5.2,1L26.1,30.8z M13.8,36.4c0.2,0.9,0.5,1.5,1,1.9c0.5,0.4,1,0.5,1.7,0.4c0.6-0.1,1.1-0.4,1.4-0.9c0.3-0.5,0.4-1.2,0.2-2.1
					l-1.8-9.9c-0.2-0.9-0.5-1.5-1-1.9c-0.5-0.4-1-0.5-1.7-0.4c-0.6,0.1-1.1,0.4-1.4,0.9s-0.4,1.2-0.2,2.1L13.8,36.4z"/>
				
					<path style="fill:none;stroke:#333333;stroke-width:6.0833;stroke-linecap:round;stroke-linejoin:round;stroke-miterlimit:10;" d="
					M36.3,27.5c-0.8,0.1-1.4,0.2-1.9,0.2c-0.5,0-0.9-0.1-1.2-0.3c-0.3-0.2-0.5-0.6-0.7-1c-0.2-0.5-0.3-1.1-0.5-1.8l-0.9-4.8
					C31.1,19,31,18.4,31,17.9s0.1-0.9,0.3-1.2c0.2-0.3,0.5-0.6,1-0.7c0.4-0.2,1.1-0.3,1.8-0.5l11.1-2c0.7-0.1,1.2-0.1,1.6,0.2
					s0.6,0.7,0.7,1.2c0.1,0.5,0,1-0.2,1.4c-0.2,0.4-0.7,0.7-1.3,0.8l-1.7,0.3c-0.2,0-0.4,0.1-0.5,0.2c-0.1,0.1-0.1,0.2,0,0.5
					l0.7,3.6c0,0.2,0.1,0.4,0.2,0.5c0.1,0.1,0.2,0.1,0.5,0l2.8-0.5c0.7-0.1,1.3,0,1.6,0.2c0.3,0.3,0.6,0.7,0.7,1.2s0,1-0.2,1.4
					s-0.7,0.7-1.4,0.8L36.3,27.5z M41.6,39.1c-0.8,0.2-1.6,0.2-2.3,0c-0.7-0.1-1.3-0.4-1.8-0.8C37,38,36.6,37.5,36.2,37
					c-0.3-0.5-0.5-1.1-0.6-1.7c-0.1-0.4-0.1-0.7,0-1.1c-0.5,0-0.9-0.2-1.2-0.5s-0.5-0.7-0.6-1.2c-0.1-0.6,0-1.1,0.3-1.5
					c0.3-0.4,0.7-0.7,1.4-0.8l7.2-1.3c0-0.7,0.3-1.2,0.7-1.5c0.4-0.4,1-0.6,1.8-0.8s1.4-0.1,2,0.1s0.9,0.6,1.2,1.2l7.2-1.3
					c0.6-0.1,1.2,0,1.6,0.3c0.4,0.3,0.7,0.7,0.8,1.3c0.1,0.5,0,0.9-0.2,1.3s-0.5,0.7-0.9,0.9c0.2,0.3,0.3,0.7,0.4,1
					c0.1,0.6,0.1,1.2,0,1.8c-0.1,0.6-0.3,1.2-0.7,1.7c-0.3,0.5-0.8,1-1.4,1.3c-0.6,0.4-1.3,0.6-2.2,0.8L41.6,39.1z M36.7,23.1
					c0,0.2,0.1,0.4,0.2,0.5c0.1,0.1,0.3,0.1,0.5,0l2.4-0.4l-0.9-4.8l-2.4,0.4c-0.2,0-0.4,0.1-0.5,0.2C36,19,36,19.2,36,19.5
					L36.7,23.1z M40.9,34.3c0,0.2,0.2,0.5,0.4,0.7c0.2,0.2,0.6,0.3,1.1,0.2l8.4-1.5c0.5-0.1,0.8-0.3,0.9-0.6
					c0.1-0.3,0.2-0.6,0.1-0.8c0-0.3-0.2-0.5-0.4-0.7c-0.2-0.2-0.6-0.3-1.1-0.2L42,32.9c-0.5,0.1-0.8,0.3-0.9,0.6
					C40.9,33.7,40.8,34,40.9,34.3z M50.3,20.4l-1.8,0.3c-0.6,0.1-1.1,0-1.5-0.3c-0.4-0.3-0.6-0.7-0.7-1.2c-0.1-0.5,0-0.9,0.2-1.4
					c0.2-0.4,0.7-0.7,1.3-0.8l1.8-0.3l-0.4-2.2c-0.2-0.8,0-1.5,0.4-2.1c0.4-0.5,1-0.9,1.7-1c0.3-0.1,0.7-0.1,1,0
					c0.3,0.1,0.6,0.2,0.9,0.3c0.3,0.2,0.5,0.4,0.7,0.7c0.2,0.3,0.4,0.6,0.4,1.1L56.5,25l-5.2,1L50.3,20.4z"/>
				
					<path style="fill:none;stroke:#333333;stroke-width:6.0833;stroke-linecap:round;stroke-linejoin:round;stroke-miterlimit:10;" d="
					M60.4,30.2c0.7-0.3,1.4-0.6,2-1c0.6-0.4,1-0.9,1.4-1.5c0.4-0.6,0.6-1.4,0.7-2.4c0.1-0.9,0-2.1-0.2-3.5L63,15.7
					c0-0.2-0.1-0.3-0.3-0.4c-0.1-0.1-0.3-0.1-0.5-0.1l-4,0.7c-0.4,0.1-0.8,0.1-1,0c-0.3-0.1-0.6-0.2-0.8-0.4
					c-0.2-0.2-0.4-0.4-0.5-0.6c-0.1-0.2-0.2-0.5-0.3-0.8c0-0.3-0.1-0.5,0-0.8c0-0.3,0.1-0.5,0.2-0.8c0.1-0.2,0.3-0.5,0.6-0.6
					c0.3-0.2,0.6-0.3,1-0.4l5.6-1c0.7-0.1,1.4-0.2,1.9-0.2c0.5,0,1,0.2,1.3,0.4c0.4,0.2,0.7,0.5,0.9,1c0.2,0.4,0.4,1,0.5,1.6l1,5.2
					l1.8-0.3L69,10.7c-0.1-0.7,0-1.3,0.3-1.8c0.4-0.5,0.9-0.7,1.5-0.9C71.1,8,71.4,8,71.7,8c0.3,0,0.6,0.1,0.8,0.3
					c0.3,0.2,0.5,0.4,0.7,0.6c0.2,0.2,0.3,0.6,0.4,0.9l4.2,22.5l-4.6,0.8l-2-10.7l-1.9,0.4c0.2,1.8,0.1,3.4-0.2,4.7
					c-0.3,1.3-0.8,2.4-1.5,3.4c-0.7,0.9-1.5,1.7-2.5,2.2c-1,0.6-2,1-3.1,1.3c-0.7,0.2-1.3,0.2-1.9-0.1c-0.6-0.2-1-0.7-1.1-1.4
					c-0.1-0.6-0.1-1.1,0.1-1.6C59.2,30.8,59.7,30.4,60.4,30.2z M74.9,9.6c-0.1-0.7,0-1.3,0.4-1.8c0.4-0.5,0.9-0.8,1.5-0.9
					c0.3-0.1,0.6-0.1,0.9,0c0.3,0,0.6,0.1,0.8,0.3s0.5,0.4,0.7,0.6c0.2,0.2,0.3,0.6,0.4,0.9l4.2,22.5L79,32.1L74.9,9.6z"/>
				
					<path style="fill:none;stroke:#333333;stroke-width:6.0833;stroke-linecap:round;stroke-linejoin:round;stroke-miterlimit:10;" d="
					M21.1,63.4c-0.9,0.2-1.8,0.2-2.7,0.2c-0.9-0.1-1.7-0.2-2.4-0.6c-0.7-0.3-1.3-0.8-1.8-1.3c-0.5-0.6-0.8-1.3-1-2.2l-0.2-1
					c-0.1-0.5,0-1,0.2-1.5c-0.6,0.1-1.1,0-1.5-0.3c-0.4-0.3-0.6-0.7-0.7-1.1c-0.1-0.5,0-0.9,0.3-1.4c0.3-0.4,0.7-0.7,1.4-0.8
					l3.8-0.7c-0.1-0.7,0.1-1.3,0.5-1.8c0.4-0.5,1-0.8,1.7-0.9c0.8-0.1,1.4-0.1,2,0.3c0.5,0.3,0.9,0.8,1.1,1.5l3.8-0.7
					c0.7-0.1,1.2,0,1.6,0.3c0.4,0.3,0.6,0.7,0.7,1.2c0.1,0.5,0,0.9-0.2,1.3c-0.2,0.4-0.7,0.7-1.3,0.8c0.4,0.4,0.6,0.9,0.7,1.4l0.2,1
					c0.2,0.9,0.1,1.7-0.1,2.4c-0.3,0.7-0.7,1.4-1.2,1.9c-0.6,0.5-1.2,1-2,1.4C22.9,62.9,22,63.2,21.1,63.4z M17,68
					c-0.5,0.1-0.9,0-1.2-0.3c-0.3-0.3-0.5-0.6-0.5-1c-0.1-0.4,0-0.7,0.2-1.1c0.2-0.4,0.5-0.6,1-0.7l17-3.1c1.1-0.2,2-0.2,2.5,0.1
					s0.9,1,1.1,2l0.8,4.1L22.2,71c-0.2,0-0.3,0.1-0.4,0.2c-0.1,0.1-0.1,0.2-0.1,0.4l0,0.1c0,0.1,0.1,0.2,0.2,0.3
					c0.1,0.1,0.3,0.1,0.5,0.1l14.9-2.7c0.5-0.1,0.9,0,1.2,0.3c0.3,0.3,0.5,0.6,0.6,1c0.1,0.4,0,0.7-0.2,1.1s-0.5,0.6-1,0.7
					l-17.4,3.2c-0.6,0.1-1.1,0.1-1.6,0c-0.5-0.1-0.9-0.3-1.3-0.6c-0.4-0.3-0.7-0.6-0.9-1c-0.2-0.4-0.4-0.8-0.5-1.3l-0.1-0.3
					c-0.2-0.9,0-1.7,0.5-2.4c0.5-0.7,1.4-1.1,2.5-1.3L32,66.3l-0.1-0.7c0-0.1-0.1-0.2-0.1-0.3c-0.1-0.1-0.2-0.1-0.4,0L17,68z
					 M20.4,59.9c0.5-0.1,1-0.3,1.4-0.7c0.4-0.4,0.5-0.9,0.4-1.5l-0.2-0.9c-0.1-0.6-0.4-1-0.9-1.2c-0.5-0.2-1-0.3-1.6-0.2
					c-0.5,0.1-1,0.3-1.4,0.7c-0.4,0.4-0.5,0.9-0.4,1.5l0.2,0.9c0.1,0.6,0.4,1,0.9,1.2C19.4,59.9,19.9,60,20.4,59.9z M29.1,51.1
					c-0.2-0.9,0-1.6,0.4-2.1c0.4-0.5,1-0.9,1.7-1c0.7-0.1,1.3,0,1.9,0.3c0.6,0.4,1,0.9,1.1,1.8l0.3,1.7l0.8-0.2c0.4-0.1,0.7-0.1,1,0
					c0.3,0.1,0.5,0.2,0.7,0.4c0.2,0.2,0.4,0.4,0.5,0.7c0.1,0.2,0.2,0.5,0.3,0.8c0,0.3,0.1,0.5,0,0.8c0,0.3-0.1,0.5-0.2,0.8
					c-0.1,0.2-0.3,0.4-0.6,0.6c-0.2,0.2-0.6,0.3-1,0.4l-0.8,0.2l0.8,4.4l-5.2,1L29.1,51.1z"/>
				
					<path style="fill:none;stroke:#333333;stroke-width:6.0833;stroke-linecap:round;stroke-linejoin:round;stroke-miterlimit:10;" d="
					M48.4,65.6c0.4-0.3,0.8-0.5,1.1-0.9c0.3-0.3,0.5-0.7,0.7-1.1c0.2-0.4,0.3-1,0.3-1.6c0-0.6-0.1-1.4-0.2-2.4l-1.6-8.8
					c0-0.2-0.1-0.4-0.2-0.4c-0.1-0.1-0.2-0.1-0.5,0l-2.6,0.5l1.7,9c0.3,1.5,0.3,2.8,0.1,3.9c-0.2,1.1-0.6,2-1.1,2.8
					c-0.5,0.8-1.1,1.4-1.8,1.8c-0.7,0.5-1.4,0.8-2,1c-0.6,0.2-1.1,0.2-1.6,0c-0.5-0.2-0.8-0.5-0.9-1c-0.2-0.5-0.3-1.1-0.2-1.6
					c0.1-0.5,0.4-0.9,1-1.3c0.3-0.2,0.6-0.4,0.9-0.6s0.5-0.5,0.7-0.9c0.2-0.3,0.3-0.8,0.4-1.3c0.1-0.5,0-1.2-0.1-2l-1.5-8.3
					c0-0.2-0.1-0.4-0.2-0.4c-0.1-0.1-0.2-0.1-0.5,0l-1.4,0.3c-0.4,0.1-0.7,0.1-1,0s-0.5-0.2-0.7-0.4c-0.2-0.2-0.4-0.4-0.5-0.6
					c-0.1-0.2-0.2-0.5-0.3-0.8c0-0.3-0.1-0.5,0-0.8c0-0.3,0.1-0.5,0.2-0.8c0.1-0.2,0.3-0.4,0.6-0.6c0.2-0.2,0.6-0.3,0.9-0.4L49,45.7
					c0.7-0.1,1.3-0.2,1.8-0.2s0.9,0.1,1.2,0.3c0.3,0.2,0.5,0.5,0.7,0.9c0.2,0.4,0.3,0.9,0.4,1.5L55,58.7c0.3,1.5,0.4,2.9,0.2,4.1
					c-0.1,1.2-0.4,2.2-0.9,3.1c-0.4,0.9-1,1.6-1.7,2.2c-0.7,0.6-1.5,1-2.3,1.4c-0.5,0.2-1,0.2-1.6,0.1c-0.5-0.1-0.9-0.4-1.1-0.9
					c-0.3-0.6-0.4-1.2-0.3-1.7C47.5,66.4,47.9,65.9,48.4,65.6z M54.5,46.3c-0.2-0.8,0-1.5,0.4-2.1c0.4-0.5,1-0.9,1.7-1
					c0.3-0.1,0.7-0.1,1,0c0.3,0.1,0.6,0.2,0.9,0.3c0.3,0.2,0.5,0.4,0.7,0.7c0.2,0.3,0.3,0.6,0.4,1.1l1.2,6.7l0.5-0.1
					c0.4-0.1,0.8-0.1,1.1,0s0.6,0.2,0.8,0.4c0.2,0.2,0.4,0.4,0.5,0.7c0.1,0.3,0.2,0.5,0.3,0.8c0,0.3,0.1,0.5,0,0.8
					c0,0.3-0.1,0.6-0.3,0.8c-0.1,0.3-0.3,0.5-0.6,0.7c-0.3,0.2-0.6,0.3-1,0.4l-0.5,0.1l2,10.9l-5.2,1L54.5,46.3z"/>
				
					<path style="fill:none;stroke:#333333;stroke-width:6.0833;stroke-linecap:round;stroke-linejoin:round;stroke-miterlimit:10;" d="
					M62.7,49.8c-0.2-0.9-0.2-1.8,0-2.7c0.1-0.9,0.5-1.7,0.9-2.4c0.5-0.7,1.1-1.3,1.9-1.9c0.8-0.5,1.7-0.9,2.8-1.1l9.5-1.8
					c1.1-0.2,2.1-0.2,3,0c0.9,0.2,1.7,0.6,2.4,1.1c0.7,0.5,1.3,1.1,1.7,1.9c0.5,0.8,0.8,1.6,0.9,2.5l0.1,0.3c0.2,0.9,0.2,1.8,0,2.7
					c-0.1,0.9-0.5,1.7-0.9,2.4c-0.5,0.7-1.1,1.4-1.9,1.9c-0.8,0.5-1.7,0.9-2.8,1.1l-9.5,1.8c-1.1,0.2-2.1,0.2-3,0
					c-0.9-0.2-1.7-0.6-2.4-1.1s-1.3-1.2-1.7-1.9c-0.4-0.8-0.8-1.6-0.9-2.5L62.7,49.8z M69.1,61.7l-0.4-2.4c-0.1-0.4-0.1-0.8,0-1.1
					c0.1-0.3,0.2-0.6,0.4-0.8c0.2-0.2,0.5-0.4,0.8-0.5c0.3-0.1,0.6-0.2,1-0.3c0.3-0.1,0.7-0.1,1-0.1c0.3,0,0.6,0.1,0.9,0.2
					c0.3,0.1,0.5,0.3,0.7,0.6c0.2,0.3,0.3,0.6,0.4,1l0.4,2.4l4.7-0.9l-0.4-2.4c-0.1-0.4-0.1-0.8,0-1.1c0.1-0.3,0.2-0.6,0.4-0.8
					c0.2-0.2,0.5-0.4,0.8-0.5c0.3-0.1,0.6-0.2,1-0.3c0.3-0.1,0.7-0.1,1-0.1c0.3,0,0.6,0.1,0.9,0.2c0.3,0.1,0.5,0.3,0.7,0.6
					s0.3,0.6,0.4,1l0.4,2.4l2.6-0.5c0.8-0.1,1.4,0,1.8,0.3c0.4,0.4,0.7,0.8,0.8,1.4c0.1,0.5,0,1.1-0.2,1.6c-0.3,0.5-0.8,0.8-1.6,1
					l-20.2,3.7c-0.8,0.1-1.4,0-1.8-0.3c-0.4-0.4-0.7-0.8-0.8-1.4c-0.1-0.5,0-1,0.2-1.5c0.3-0.5,0.8-0.8,1.6-1L69.1,61.7z M80.4,46.5
					c-0.1-0.7-0.5-1.2-1.1-1.6c-0.6-0.4-1.3-0.5-2.2-0.3l-6.6,1.2c-0.9,0.2-1.5,0.5-1.9,1.1c-0.4,0.5-0.6,1.2-0.4,1.9l0.1,0.4
					c0.1,0.7,0.5,1.2,1.1,1.6c0.6,0.4,1.3,0.5,2.2,0.3l6.6-1.2c0.9-0.2,1.5-0.5,1.9-1.1c0.4-0.5,0.6-1.2,0.4-1.9L80.4,46.5z"/>
				
					<path style="fill:none;stroke:#333333;stroke-width:6.0833;stroke-linecap:round;stroke-linejoin:round;stroke-miterlimit:10;" d="
					M93,53.9l-0.3-1.6c-0.2-1-0.2-1.9-0.1-2.6c0.1-0.7,0.5-1.3,1.1-1.9c0.5-0.5,1-0.9,1.4-1.2c0.4-0.4,0.7-0.7,1-1
					c0.3-0.5,0.6-0.9,0.6-1.2c0.1-0.4,0.1-0.8,0-1.2c-0.1-0.6-0.4-1.1-0.9-1.3c-0.5-0.3-1-0.4-1.6-0.2c-0.6,0.1-1.1,0.4-1.6,0.7
					c-0.4,0.4-0.7,0.9-0.7,1.4c-0.1,0.7-0.3,1.2-0.8,1.6c-0.4,0.4-1,0.7-1.8,0.8c-0.3,0-0.6,0-0.9,0c-0.3-0.1-0.6-0.2-0.8-0.4
					S87.2,45.3,87,45c-0.2-0.3-0.3-0.6-0.4-1c-0.1-0.8-0.1-1.6,0.2-2.4c0.3-0.8,0.7-1.5,1.4-2.1c0.6-0.6,1.3-1.2,2.2-1.7
					c0.9-0.5,1.8-0.8,2.9-1c1.1-0.2,2.1-0.3,3.1-0.1c1,0.1,1.8,0.4,2.6,0.8s1.4,1,1.9,1.8s0.9,1.7,1.1,2.8c0.2,0.9,0.2,1.7,0.1,2.4
					c-0.1,0.7-0.3,1.4-0.7,2c-0.3,0.5-0.7,1.1-1.2,1.6c-0.5,0.6-1,1.1-1.6,1.7c-0.3,0.3-0.5,0.6-0.6,0.9c-0.1,0.3,0,0.6,0,1l0.2,1.2
					L93,53.9z M93.6,57.8c-0.2-0.8,0-1.5,0.4-2.1c0.4-0.6,1.1-0.9,1.9-1.1c0.9-0.2,1.6-0.1,2.2,0.3c0.6,0.4,0.9,1,1.1,1.8
					c0.1,0.8,0,1.5-0.4,2.1c-0.4,0.6-1.1,0.9-1.9,1.1c-0.9,0.2-1.6,0.1-2.2-0.3C94.1,59.2,93.8,58.6,93.6,57.8z"/>
			</g>
			<g>
				<path style="fill:#FFFFFF;" d="M26,28.7l-3.4,0.6l0.6,3.1c0.2,1.2,0.2,2.2,0,3.2c-0.2,1-0.5,1.8-1.1,2.5c-0.5,0.7-1.2,1.3-2,1.8
					c-0.8,0.5-1.8,0.8-2.9,1s-2.1,0.2-3.1,0.1c-1-0.1-1.8-0.4-2.6-0.9c-0.8-0.5-1.4-1.1-1.9-2c-0.5-0.8-0.9-1.8-1.1-3l-1.8-9.6
					c-0.2-1.2-0.2-2.2,0-3.2c0.2-1,0.5-1.8,1.1-2.5c0.5-0.7,1.2-1.3,2.1-1.8c0.8-0.5,1.8-0.8,2.9-1c1.1-0.2,2.1-0.2,3.1-0.1
					c1,0.1,1.8,0.4,2.5,0.9c0.7,0.5,1.4,1.1,1.9,2c0.5,0.8,0.9,1.8,1.1,3l0.4,2l3.4-0.6l-1.3-6.9c-0.2-0.8,0-1.5,0.4-2.1
					c0.4-0.5,1-0.9,1.7-1c0.3-0.1,0.7-0.1,1,0c0.3,0.1,0.6,0.2,0.9,0.3c0.3,0.2,0.5,0.4,0.7,0.7c0.2,0.3,0.4,0.6,0.4,1.1l4.1,22.2
					l-5.2,1L26,28.7z M13.8,34.3c0.2,0.9,0.5,1.5,1,1.9c0.5,0.4,1,0.5,1.7,0.4c0.6-0.1,1.1-0.4,1.4-0.9c0.3-0.5,0.4-1.2,0.2-2.1
					l-1.8-9.9c-0.2-0.9-0.5-1.5-1-1.9c-0.5-0.4-1-0.5-1.7-0.4c-0.6,0.1-1.1,0.4-1.4,0.9c-0.3,0.5-0.4,1.2-0.2,2.1L13.8,34.3z"/>
				<path style="fill:#FFFFFF;" d="M36.3,25.4c-0.8,0.1-1.4,0.2-1.9,0.2c-0.5,0-0.9-0.1-1.2-0.3c-0.3-0.2-0.5-0.6-0.7-1
					c-0.2-0.5-0.3-1.1-0.5-1.8l-0.9-4.8C31,16.9,31,16.3,31,15.8c0-0.5,0.1-0.9,0.3-1.2c0.2-0.3,0.5-0.6,1-0.7
					c0.4-0.2,1.1-0.3,1.8-0.5l11.1-2c0.7-0.1,1.2-0.1,1.6,0.2c0.3,0.3,0.6,0.7,0.7,1.2c0.1,0.5,0,1-0.2,1.4
					c-0.2,0.4-0.7,0.7-1.4,0.8l-1.7,0.3c-0.2,0-0.4,0.1-0.5,0.2s-0.1,0.2,0,0.5l0.7,3.6c0,0.2,0.1,0.4,0.2,0.5
					c0.1,0.1,0.2,0.1,0.5,0l2.8-0.5c0.7-0.1,1.3,0,1.6,0.2c0.3,0.3,0.6,0.7,0.7,1.2c0.1,0.5,0,1-0.2,1.4c-0.2,0.4-0.7,0.7-1.4,0.8
					L36.3,25.4z M41.5,37c-0.8,0.2-1.6,0.2-2.3,0c-0.7-0.1-1.3-0.4-1.8-0.8c-0.5-0.4-0.9-0.8-1.2-1.4c-0.3-0.5-0.5-1.1-0.6-1.7
					c-0.1-0.4-0.1-0.7,0-1.1c-0.5,0-0.9-0.2-1.2-0.5c-0.3-0.3-0.5-0.7-0.6-1.2c-0.1-0.6,0-1.1,0.3-1.5c0.3-0.4,0.7-0.7,1.4-0.8
					l7.2-1.3c0-0.7,0.3-1.2,0.7-1.5c0.4-0.4,1-0.6,1.8-0.8c0.8-0.1,1.4-0.1,2,0.1c0.5,0.2,0.9,0.6,1.2,1.2l7.2-1.3
					c0.6-0.1,1.2,0,1.6,0.3s0.7,0.7,0.8,1.3c0.1,0.5,0,0.9-0.2,1.3c-0.2,0.4-0.5,0.7-0.9,0.9c0.2,0.3,0.3,0.7,0.4,1
					c0.1,0.6,0.1,1.2,0,1.8c-0.1,0.6-0.3,1.2-0.7,1.7c-0.3,0.5-0.8,1-1.4,1.3s-1.3,0.6-2.2,0.8L41.5,37z M36.7,21
					c0,0.2,0.1,0.4,0.2,0.5c0.1,0.1,0.3,0.1,0.5,0l2.4-0.4l-0.9-4.8l-2.4,0.4c-0.2,0-0.4,0.1-0.5,0.2s-0.1,0.3,0,0.5L36.7,21z
					 M40.9,32.2c0,0.2,0.2,0.5,0.4,0.7c0.2,0.2,0.6,0.3,1.1,0.2l8.4-1.5c0.5-0.1,0.8-0.3,0.9-0.6c0.1-0.3,0.2-0.6,0.1-0.8
					c0-0.3-0.2-0.5-0.4-0.7c-0.2-0.2-0.6-0.3-1.1-0.2l-8.4,1.5c-0.5,0.1-0.8,0.3-0.9,0.6C40.9,31.6,40.8,31.9,40.9,32.2z M50.3,18.3
					l-1.8,0.3c-0.6,0.1-1.1,0-1.5-0.3c-0.4-0.3-0.6-0.7-0.7-1.2c-0.1-0.5,0-0.9,0.2-1.4c0.2-0.4,0.7-0.7,1.3-0.8l1.8-0.3l-0.4-2.2
					c-0.2-0.8,0-1.5,0.4-2.1c0.4-0.5,1-0.9,1.7-1c0.3-0.1,0.7-0.1,1,0c0.3,0.1,0.6,0.2,0.9,0.3c0.3,0.2,0.5,0.4,0.7,0.7
					c0.2,0.3,0.3,0.6,0.4,1.1l2.1,11.3l-5.2,1L50.3,18.3z"/>
				<path style="fill:#FFFFFF;" d="M60.3,28.1c0.7-0.3,1.4-0.6,2-1c0.6-0.4,1-0.9,1.4-1.5c0.4-0.6,0.6-1.4,0.7-2.4
					c0.1-0.9,0-2.1-0.2-3.5L63,13.6c0-0.2-0.1-0.3-0.3-0.4c-0.1-0.1-0.3-0.1-0.5-0.1l-4,0.7c-0.4,0.1-0.8,0.1-1,0
					c-0.3-0.1-0.6-0.2-0.8-0.4c-0.2-0.2-0.4-0.4-0.5-0.6c-0.1-0.2-0.2-0.5-0.3-0.8c0-0.3-0.1-0.5,0-0.8c0-0.3,0.1-0.5,0.3-0.8
					c0.1-0.2,0.3-0.5,0.6-0.6c0.3-0.2,0.6-0.3,1-0.4l5.6-1c0.7-0.1,1.4-0.2,1.9-0.2c0.5,0,1,0.2,1.3,0.4c0.4,0.2,0.7,0.5,0.9,1
					c0.2,0.4,0.4,1,0.5,1.6l1,5.2l1.8-0.3L69,8.6c-0.1-0.7,0-1.3,0.3-1.8c0.4-0.5,0.9-0.7,1.5-0.9c0.3-0.1,0.6-0.1,0.9,0
					c0.3,0,0.6,0.1,0.8,0.3s0.5,0.4,0.7,0.6s0.3,0.6,0.4,0.9l4.2,22.5L73.1,31l-2-10.7l-1.9,0.4c0.2,1.8,0.1,3.4-0.2,4.7
					c-0.3,1.3-0.8,2.4-1.5,3.4C66.8,29.7,66,30.4,65,31c-1,0.6-2,1-3.1,1.3c-0.7,0.2-1.3,0.2-1.9-0.1c-0.6-0.2-1-0.7-1.2-1.4
					c-0.1-0.6-0.1-1.1,0.1-1.6C59.2,28.7,59.6,28.3,60.3,28.1z M74.8,7.5c-0.1-0.7,0-1.3,0.4-1.8c0.4-0.5,0.9-0.8,1.5-0.9
					c0.3-0.1,0.6-0.1,0.9,0c0.3,0,0.6,0.1,0.8,0.3c0.3,0.2,0.5,0.4,0.7,0.6c0.2,0.2,0.3,0.6,0.4,0.9l4.2,22.5L79,30L74.8,7.5z"/>
				<path style="fill:#FFFFFF;" d="M21,61.3c-0.9,0.2-1.8,0.2-2.7,0.2c-0.9-0.1-1.7-0.2-2.4-0.6c-0.7-0.3-1.3-0.8-1.8-1.3
					c-0.5-0.6-0.8-1.3-1-2.2l-0.2-1c-0.1-0.5,0-1,0.2-1.5c-0.6,0.1-1.1,0-1.5-0.3c-0.4-0.3-0.6-0.7-0.7-1.1c-0.1-0.5,0-0.9,0.3-1.4
					c0.3-0.4,0.7-0.7,1.4-0.8l3.8-0.7c-0.1-0.7,0.1-1.3,0.5-1.8c0.4-0.5,1-0.8,1.7-0.9c0.8-0.1,1.4-0.1,2,0.3
					c0.5,0.3,0.9,0.8,1.1,1.5l3.8-0.7c0.7-0.1,1.2,0,1.6,0.3c0.4,0.3,0.6,0.7,0.7,1.2c0.1,0.5,0,0.9-0.2,1.3
					c-0.2,0.4-0.7,0.7-1.3,0.8c0.4,0.4,0.6,0.9,0.7,1.4l0.2,1c0.2,0.9,0.1,1.7-0.1,2.4c-0.3,0.7-0.7,1.4-1.2,1.9
					c-0.6,0.5-1.2,1-2,1.4C22.8,60.8,22,61.1,21,61.3z M17,65.9c-0.5,0.1-0.9,0-1.2-0.3c-0.3-0.3-0.5-0.6-0.5-1
					c-0.1-0.4,0-0.7,0.2-1.1c0.2-0.4,0.5-0.6,1-0.7l17-3.1c1.1-0.2,2-0.2,2.5,0.1s0.9,1,1.1,2l0.8,4.1l-15.7,2.9
					c-0.2,0-0.3,0.1-0.4,0.2c-0.1,0.1-0.1,0.2-0.1,0.4l0,0.1c0,0.1,0.1,0.2,0.2,0.3c0.1,0.1,0.3,0.1,0.5,0.1l14.9-2.8
					c0.5-0.1,0.9,0,1.2,0.3c0.3,0.3,0.5,0.6,0.6,1c0.1,0.3,0,0.7-0.2,1.1c-0.2,0.4-0.5,0.6-1,0.7l-17.4,3.2c-0.6,0.1-1.1,0.1-1.6,0
					c-0.5-0.1-0.9-0.3-1.3-0.6c-0.4-0.3-0.7-0.6-0.9-1c-0.2-0.4-0.4-0.8-0.5-1.3l-0.1-0.3c-0.2-0.9,0-1.7,0.5-2.4
					c0.5-0.7,1.4-1.1,2.5-1.3L32,64.2l-0.1-0.7c0-0.1-0.1-0.2-0.1-0.3c-0.1-0.1-0.2-0.1-0.4,0L17,65.9z M20.4,57.8
					c0.5-0.1,1-0.3,1.4-0.7c0.4-0.4,0.5-0.9,0.4-1.5l-0.2-0.9c-0.1-0.6-0.4-1-0.9-1.2c-0.5-0.2-1-0.3-1.6-0.2
					c-0.5,0.1-1,0.3-1.4,0.7c-0.4,0.4-0.5,0.9-0.4,1.5l0.2,0.9c0.1,0.6,0.4,1,0.9,1.2C19.3,57.8,19.8,57.9,20.4,57.8z M29.1,49
					c-0.2-0.9,0-1.6,0.4-2.1c0.4-0.5,1-0.9,1.7-1c0.7-0.1,1.3,0,1.9,0.3c0.6,0.4,1,0.9,1.1,1.8l0.3,1.7l0.8-0.2c0.4-0.1,0.7-0.1,1,0
					c0.3,0.1,0.5,0.2,0.7,0.4s0.4,0.4,0.5,0.7s0.2,0.5,0.3,0.8c0,0.3,0.1,0.5,0,0.8c0,0.3-0.1,0.5-0.2,0.8c-0.1,0.2-0.3,0.5-0.5,0.6
					c-0.2,0.2-0.6,0.3-1,0.4l-0.8,0.2l0.8,4.4l-5.2,1L29.1,49z"/>
				<path style="fill:#FFFFFF;" d="M48.4,63.5c0.4-0.3,0.8-0.5,1.1-0.9s0.5-0.7,0.7-1.1c0.2-0.4,0.3-1,0.3-1.6
					c0-0.6-0.1-1.4-0.2-2.4l-1.6-8.8c0-0.2-0.1-0.4-0.2-0.4c-0.1-0.1-0.2-0.1-0.5,0l-2.6,0.5l1.7,9c0.3,1.5,0.3,2.8,0.1,3.9
					c-0.2,1.1-0.6,2-1.1,2.8c-0.5,0.8-1.1,1.4-1.8,1.8c-0.7,0.5-1.4,0.8-2,1c-0.6,0.2-1.1,0.2-1.6,0c-0.5-0.2-0.8-0.5-0.9-1
					c-0.2-0.5-0.3-1.1-0.2-1.6c0.1-0.5,0.4-0.9,1-1.4c0.3-0.2,0.6-0.4,0.9-0.6s0.5-0.5,0.7-0.9c0.2-0.3,0.3-0.8,0.4-1.3
					c0.1-0.5,0-1.2-0.1-2l-1.5-8.3c0-0.2-0.1-0.4-0.2-0.4c-0.1-0.1-0.2-0.1-0.5,0L38.6,50c-0.4,0.1-0.7,0.1-1,0
					c-0.3-0.1-0.5-0.2-0.7-0.4s-0.4-0.4-0.5-0.6s-0.2-0.5-0.3-0.8c0-0.3-0.1-0.5,0-0.8c0-0.3,0.1-0.5,0.2-0.8
					c0.1-0.2,0.3-0.4,0.6-0.6c0.2-0.2,0.6-0.3,0.9-0.4L49,43.6c0.7-0.1,1.3-0.2,1.8-0.2c0.5,0,0.9,0.1,1.2,0.3
					c0.3,0.2,0.5,0.5,0.7,0.9c0.2,0.4,0.3,0.9,0.4,1.5L55,56.6c0.3,1.5,0.4,2.9,0.2,4.1c-0.1,1.2-0.4,2.2-0.9,3.1
					c-0.4,0.9-1,1.6-1.7,2.2s-1.5,1-2.3,1.4c-0.5,0.2-1,0.2-1.6,0.1c-0.5-0.1-0.9-0.4-1.1-0.9c-0.3-0.6-0.4-1.2-0.3-1.7
					C47.5,64.3,47.8,63.8,48.4,63.5z M54.5,44.2c-0.2-0.8,0-1.5,0.4-2.1c0.4-0.5,1-0.9,1.7-1c0.3-0.1,0.7-0.1,1,0
					c0.3,0.1,0.6,0.2,0.9,0.3c0.3,0.2,0.5,0.4,0.7,0.7c0.2,0.3,0.3,0.6,0.4,1.1l1.2,6.7l0.5-0.1c0.4-0.1,0.8-0.1,1.1,0
					c0.3,0.1,0.6,0.2,0.8,0.4c0.2,0.2,0.4,0.4,0.5,0.7c0.1,0.3,0.2,0.5,0.3,0.8c0,0.3,0.1,0.5,0,0.8c0,0.3-0.1,0.6-0.3,0.8
					s-0.3,0.5-0.6,0.7c-0.3,0.2-0.6,0.3-1,0.4l-0.5,0.1l2,10.9l-5.2,1L54.5,44.2z"/>
				<path style="fill:#FFFFFF;" d="M62.7,47.7c-0.2-0.9-0.2-1.8,0-2.7c0.1-0.9,0.5-1.7,0.9-2.4c0.5-0.7,1.1-1.3,1.9-1.9
					c0.8-0.5,1.7-0.9,2.8-1.1l9.5-1.8c1.1-0.2,2.1-0.2,3,0c0.9,0.2,1.7,0.6,2.4,1.1s1.3,1.1,1.7,1.9c0.5,0.8,0.8,1.6,0.9,2.5
					l0.1,0.3c0.2,0.9,0.2,1.8,0,2.7c-0.1,0.9-0.5,1.7-0.9,2.4c-0.5,0.7-1.1,1.4-1.9,1.9c-0.8,0.5-1.7,0.9-2.8,1.1l-9.5,1.8
					c-1.1,0.2-2.1,0.2-3,0c-0.9-0.2-1.7-0.6-2.4-1.1c-0.7-0.5-1.3-1.2-1.7-1.9c-0.4-0.8-0.8-1.6-0.9-2.5L62.7,47.7z M69.1,59.6
					l-0.4-2.4c-0.1-0.4-0.1-0.8,0-1.1c0.1-0.3,0.2-0.6,0.4-0.8c0.2-0.2,0.5-0.4,0.8-0.5c0.3-0.1,0.6-0.2,1-0.3
					c0.3-0.1,0.7-0.1,1-0.1c0.3,0,0.6,0.1,0.9,0.2c0.3,0.1,0.5,0.3,0.7,0.6c0.2,0.3,0.3,0.6,0.4,1l0.4,2.4l4.7-0.9l-0.4-2.4
					c-0.1-0.4-0.1-0.8,0-1.1c0.1-0.3,0.2-0.6,0.4-0.8c0.2-0.2,0.5-0.4,0.8-0.5s0.6-0.2,1-0.3c0.3-0.1,0.7-0.1,1-0.1
					c0.3,0,0.6,0.1,0.9,0.2c0.3,0.1,0.5,0.3,0.7,0.6c0.2,0.3,0.3,0.6,0.4,1l0.4,2.4l2.6-0.5c0.8-0.2,1.4,0,1.8,0.3s0.7,0.8,0.8,1.4
					c0.1,0.5,0,1.1-0.2,1.6c-0.3,0.5-0.8,0.8-1.6,1l-20.2,3.7c-0.8,0.1-1.4,0-1.8-0.3s-0.7-0.8-0.8-1.4c-0.1-0.5,0-1,0.2-1.5
					c0.3-0.5,0.8-0.8,1.6-1L69.1,59.6z M80.4,44.4c-0.1-0.7-0.5-1.2-1.1-1.6c-0.6-0.4-1.3-0.5-2.2-0.3l-6.6,1.2
					c-0.9,0.2-1.5,0.5-1.9,1.1c-0.4,0.5-0.6,1.2-0.4,1.9l0.1,0.4c0.1,0.7,0.5,1.2,1.1,1.6c0.6,0.4,1.3,0.5,2.2,0.3l6.6-1.2
					c0.9-0.2,1.5-0.5,1.9-1.1c0.4-0.5,0.6-1.2,0.4-1.9L80.4,44.4z"/>
				<path style="fill:#FFFFFF;" d="M93,51.8l-0.3-1.6c-0.2-1-0.2-1.9-0.1-2.6s0.5-1.3,1.1-1.9c0.5-0.5,1-0.9,1.4-1.2
					c0.4-0.4,0.7-0.7,1-1c0.3-0.5,0.6-0.9,0.6-1.2c0.1-0.3,0.1-0.8,0-1.2c-0.1-0.6-0.4-1.1-0.9-1.3c-0.5-0.3-1-0.4-1.6-0.2
					c-0.6,0.1-1.1,0.4-1.6,0.7c-0.4,0.4-0.7,0.9-0.7,1.4c-0.1,0.7-0.3,1.2-0.8,1.6c-0.4,0.4-1,0.7-1.8,0.8c-0.3,0-0.6,0-0.9,0
					c-0.3-0.1-0.6-0.2-0.8-0.4c-0.2-0.2-0.5-0.4-0.6-0.7c-0.2-0.3-0.3-0.6-0.4-1c-0.1-0.8-0.1-1.6,0.2-2.4c0.3-0.8,0.7-1.5,1.4-2.1
					c0.6-0.6,1.3-1.2,2.2-1.6c0.9-0.5,1.8-0.8,2.9-1c1.1-0.2,2.1-0.3,3.1-0.1c1,0.1,1.8,0.4,2.6,0.8c0.8,0.4,1.4,1,1.9,1.8
					c0.5,0.8,0.9,1.7,1.1,2.8c0.2,0.9,0.2,1.7,0.1,2.4s-0.3,1.4-0.7,2c-0.3,0.5-0.7,1.1-1.2,1.6c-0.5,0.6-1,1.1-1.6,1.7
					c-0.3,0.3-0.5,0.6-0.6,0.9c-0.1,0.3,0,0.6,0,1l0.2,1.2L93,51.8z M93.6,55.7c-0.2-0.8,0-1.5,0.4-2.1c0.4-0.6,1.1-0.9,1.9-1.1
					c0.9-0.2,1.6-0.1,2.2,0.3c0.6,0.4,0.9,1,1.1,1.8c0.1,0.8,0,1.5-0.4,2.1c-0.4,0.6-1,0.9-1.9,1.1c-0.9,0.2-1.6,0.1-2.2-0.3
					S93.7,56.5,93.6,55.7z"/>
			</g>
		</g>
	</g>
	<path style="fill:#F46279;" d="M51.3,79.1l7.9,11.6c1.2,1.8,3.9,1,4.1-1.1l1.1-14.3L51.3,79.1z"/>
	<path style="fill:#F46279;" d="M40.1,108.6c-0.1,0-0.2,0-0.3-0.1c-0.5-0.2-0.7-0.7-0.5-1.2c0.2-0.4,4.3-10.5,11.3-11.3
		c3.7-0.4,7.4,1.8,11,6.7c0.8-1.5,2.2-3.6,4.2-4c1.6-0.2,3.2,0.7,4.7,2.8c0.3,0.4,0.2,1-0.2,1.3c-0.4,0.3-1,0.2-1.3-0.2
		c-0.7-1-1.9-2.2-2.9-2c-1.7,0.3-3,3.3-3.4,4.3c-0.1,0.3-0.4,0.6-0.8,0.6c-0.3,0-0.7-0.1-0.9-0.4c-3.5-5.1-6.9-7.6-10.2-7.2
		c-5.9,0.6-9.8,10-9.8,10.1C40.8,108.4,40.5,108.6,40.1,108.6z"/>
</g>
<g>
</g>
<g>
</g>
<g>
</g>
<g>
</g>
<g>
</g>
<g>
</g>
<g>
</g>
<g>
</g>
<g>
</g>
<g>
</g>
<g>
</g>
<g>
</g>
<g>
</g>
<g>
</g>
<g>
</g>
</svg>
