<?xml version="1.0" encoding="utf-8"?>
<!-- Generator: Adobe Illustrator 25.2.0, SVG Export Plug-In . SVG Version: 6.00 Build 0)  -->
<svg version="1.1" id="레이어_1" xmlns="http://www.w3.org/2000/svg" xmlns:xlink="http://www.w3.org/1999/xlink" x="0px"
	 y="0px" viewBox="0 0 110.8 108.6" style="enable-background:new 0 0 110.8 108.6;" xml:space="preserve">
<g>
	<g>
		<path style="fill:#FFCB61;" d="M103.3,53.5l-1.2-5.9c-1.5-7.4-7.9-12.5-15.2-12.7l-2.1-10.5C83.1,15.8,74.7,10.3,66.1,12
			L12.7,22.8C4.1,24.5-1.4,32.9,0.3,41.5l6.4,31.6c1.7,8.6,10.1,14.1,18.7,12.4l53.4-10.8c0.2,0,0.3-0.1,0.5-0.1l11.6-2.4
			C99.5,70.4,105.1,62,103.3,53.5z"/>
		<g>
			<g>
				
					<path style="fill:none;stroke:#333333;stroke-width:6.0833;stroke-linecap:round;stroke-linejoin:round;stroke-miterlimit:10;" d="
					M7.9,29.9c0.8-0.5,1.4-1.3,1.7-2.4s0.3-2.5-0.1-4.3l-0.1-0.8c-0.2-0.8,0-1.5,0.4-2s0.9-0.8,1.6-0.9c0.7-0.1,1.3,0,1.9,0.3
					c0.6,0.3,0.9,0.9,1.1,1.7l0.1,0.8c0.1,0.4,0.1,0.7,0.2,1.1c0,0.3,0.1,0.7,0.1,1c1.6,0,3,0.6,4,1.7s1.6,2.9,1.9,5.3L16,32.3
					c0-0.9-0.1-1.6-0.4-2.2c-0.2-0.6-0.6-1.1-1.1-1.3c-0.3,1.3-0.9,2.4-1.7,3.3C12,33,11.1,33.6,10,33.9c-0.7,0.2-1.2,0.2-1.8,0
					c-0.5-0.2-0.9-0.6-1.1-1.1C6.6,31.5,6.9,30.5,7.9,29.9z M16.2,43.7c-0.9,0.2-1.7,0.2-2.5,0.1c-0.7-0.1-1.3-0.4-1.9-0.7
					c-0.5-0.4-1-0.8-1.3-1.4c-0.3-0.6-0.6-1.2-0.7-1.9c-0.1-0.7-0.1-1.4,0-2c0.1-0.7,0.3-1.2,0.7-1.8c0.4-0.5,0.9-1,1.5-1.4
					s1.4-0.7,2.3-0.8l12.2-2.3c0.9-0.2,1.7-0.2,2.4-0.1c0.7,0.1,1.3,0.4,1.9,0.7c0.5,0.4,1,0.8,1.3,1.4c0.3,0.6,0.6,1.2,0.7,1.9
					c0.1,0.7,0.1,1.4,0,2.1c-0.1,0.7-0.4,1.2-0.7,1.8c-0.4,0.5-0.9,1-1.5,1.3c-0.6,0.4-1.4,0.6-2.3,0.8L16.2,43.7z M26.4,38.1
					c0.6-0.1,0.9-0.3,1.1-0.6c0.1-0.3,0.2-0.6,0.1-0.9c-0.1-0.3-0.2-0.6-0.4-0.8c-0.2-0.2-0.7-0.3-1.2-0.2l-9.4,1.7
					c-0.6,0.1-0.9,0.3-1.1,0.6c-0.1,0.3-0.2,0.6-0.1,0.9c0.1,0.3,0.2,0.6,0.5,0.8c0.2,0.2,0.7,0.3,1.2,0.2L26.4,38.1z M26.2,25.9
					L25,26.2l0.8,4.5l-4.6,0.8L19,19.9c-0.1-0.7,0-1.3,0.4-1.8s0.9-0.7,1.5-0.9c0.6-0.1,1.2,0,1.7,0.3s0.9,0.8,1,1.5l0.6,3.2
					l1.2-0.2l-0.6-3.2c-0.1-0.7,0-1.3,0.4-1.8s0.9-0.8,1.5-0.9s1.2,0,1.7,0.3s0.9,0.8,1,1.5l2.2,11.6L27,30.4L26.2,25.9z"/>
				
					<path style="fill:none;stroke:#333333;stroke-width:6.0833;stroke-linecap:round;stroke-linejoin:round;stroke-miterlimit:10;" d="
					M34.6,25.1c1-0.2,1.9-0.4,2.7-0.7c0.8-0.3,1.5-0.7,2.1-1.1s1-1,1.2-1.6c0.3-0.6,0.3-1.3,0.2-2l-0.1-0.5
					c-0.1-0.4-0.3-0.5-0.7-0.5l-6,1.2c-0.4,0.1-0.7,0.1-1,0s-0.5-0.2-0.8-0.3c-0.2-0.2-0.4-0.4-0.5-0.6s-0.2-0.5-0.3-0.7
					c0-0.3-0.1-0.5,0-0.8c0-0.3,0.1-0.5,0.3-0.7c0.1-0.2,0.3-0.4,0.6-0.6c0.3-0.2,0.6-0.3,1-0.4l8-1.5c1.4-0.3,2.5-0.2,3.2,0.3
					s1.1,1.3,1.3,2.5l0.3,1.5c0.3,1.6,0.2,3-0.2,4.3c-0.5,1.2-1.2,2.3-2.2,3.2c-1,0.9-2.2,1.6-3.7,2.2c-1.5,0.5-3,0.9-4.7,1.1
					c-0.6,0.1-1.2-0.1-1.6-0.4c-0.5-0.4-0.8-0.9-0.9-1.6c-0.1-0.6,0.1-1.1,0.4-1.5C33.4,25.5,33.9,25.2,34.6,25.1z M37.3,34.3
					c-0.7,0.1-1.3,0-1.8-0.3s-0.8-0.8-0.9-1.4c-0.1-0.6,0-1.2,0.3-1.6c0.3-0.5,0.9-0.8,1.6-0.9l15.7-2.9c0.8-0.2,1.5-0.2,2-0.2
					s1,0.2,1.3,0.4c0.3,0.3,0.6,0.6,0.8,1.1s0.4,1.1,0.5,1.9l1,5.4l-5.3,1l-0.9-4.7c-0.1-0.4-0.3-0.6-0.7-0.5L37.3,34.3z M48.3,14.9
					c-0.2-0.9,0-1.6,0.4-2.1s1-0.9,1.7-1s1.3,0,1.9,0.3c0.6,0.4,1,0.9,1.1,1.8l0.4,2.2l0.8-0.2c0.4-0.1,0.8-0.1,1,0
					c0.3,0.1,0.5,0.2,0.7,0.4s0.4,0.4,0.5,0.7c0.1,0.3,0.2,0.5,0.3,0.8c0,0.3,0.1,0.5,0,0.8s-0.1,0.6-0.2,0.8
					c-0.1,0.2-0.3,0.5-0.5,0.6c-0.2,0.2-0.6,0.3-1,0.4l-0.8,0.2l0.9,4.9l-5.2,1L48.3,14.9z"/>
				
					<path style="fill:none;stroke:#333333;stroke-width:6.0833;stroke-linecap:round;stroke-linejoin:round;stroke-miterlimit:10;" d="
					M65.7,34c-0.8,0.1-1.6,0.2-2.3,0s-1.4-0.4-2-0.8c-0.6-0.4-1.1-1-1.6-1.7c-0.4-0.7-0.8-1.6-1-2.7l-1.7-9
					c-0.2-0.9-0.2-1.6-0.1-2.3c-0.5,0-0.9-0.2-1.1-0.5c-0.3-0.3-0.5-0.7-0.6-1.2c-0.1-0.6,0-1.1,0.2-1.5s0.7-0.7,1.3-0.8l2.5-0.5
					l-0.1-0.3c-0.1-0.8-0.1-1.4,0.3-2c0.3-0.5,0.9-0.9,1.7-1c0.8-0.2,1.5,0,2,0.3c0.5,0.4,0.8,0.9,1,1.7l0.1,0.3l2.4-0.4
					c0.6-0.1,1.2,0,1.5,0.3c0.4,0.3,0.6,0.8,0.7,1.3s0.1,0.9-0.1,1.3c-0.2,0.4-0.4,0.7-0.9,0.9c0.2,0.3,0.3,0.6,0.4,1
					c0.1,0.4,0.2,0.7,0.3,1.2l1.7,9c0.2,1.1,0.2,2,0.1,2.9c-0.2,0.8-0.4,1.6-0.9,2.2c-0.4,0.6-1,1.1-1.6,1.5S66.5,33.9,65.7,34z
					 M65,30.1c0.2,0,0.5-0.2,0.7-0.4c0.2-0.2,0.3-0.6,0.2-1.1l-2-10.9c-0.1-0.5-0.3-0.8-0.6-1s-0.6-0.2-0.8-0.2s-0.5,0.2-0.7,0.4
					s-0.3,0.6-0.2,1.1l2,10.9c0.1,0.5,0.3,0.8,0.6,1S64.7,30.1,65,30.1z M77,21.2l-1.3,0.2l2,10.9l-4.6,0.8l-4.2-22.5
					c-0.1-0.7,0-1.3,0.4-1.8s0.9-0.7,1.5-0.9c0.6-0.1,1.2,0,1.7,0.3c0.5,0.3,0.9,0.8,1,1.5l1.3,7.3l1.3-0.2l-1.3-7.3
					c-0.1-0.7,0-1.3,0.4-1.8s0.9-0.8,1.5-0.9c0.3-0.1,0.6-0.1,0.9,0c0.3,0,0.6,0.1,0.8,0.3s0.5,0.4,0.7,0.6s0.3,0.6,0.4,0.9
					l4.2,22.5L79.1,32L77,21.2z"/>
				
					<path style="fill:none;stroke:#333333;stroke-width:6.0833;stroke-linecap:round;stroke-linejoin:round;stroke-miterlimit:10;" d="
					M22.1,60l-0.2-1.2l-4.8,0.9c-0.8,0.1-1.4,0.2-1.9,0.2s-0.9-0.1-1.2-0.3s-0.6-0.6-0.8-1c-0.2-0.5-0.4-1.1-0.5-1.9l-0.5-2.8
					c-0.1-0.4-0.1-0.8,0-1.1s0.2-0.6,0.5-0.8c0.2-0.2,0.5-0.4,0.8-0.5s0.6-0.2,1-0.3c0.6-0.1,1.1-0.1,1.7,0.1c0.6,0.2,1,0.6,1.2,1.2
					l11.9-2.2c0-0.7,0.2-1.2,0.7-1.6c0.5-0.4,1-0.6,1.6-0.7c0.3-0.1,0.7-0.1,1-0.1s0.6,0.1,0.9,0.2c0.3,0.1,0.5,0.3,0.7,0.6
					s0.3,0.6,0.4,1l1.2,6.5l-8.6,1.6l0.2,1.2l7.8-1.4c0.7-0.1,1.2,0,1.6,0.3c0.3,0.3,0.6,0.7,0.6,1.1c0.1,0.5,0,0.9-0.2,1.3
					c-0.2,0.4-0.7,0.6-1.4,0.8L15,64.9c-0.7,0.1-1.2,0.1-1.6-0.2c-0.4-0.3-0.6-0.7-0.7-1.1c-0.1-0.5,0-0.9,0.2-1.3
					c0.2-0.4,0.7-0.7,1.4-0.8L22.1,60z M19.2,75.8c-0.6,0.1-1.1,0.1-1.5,0c-0.5-0.1-0.8-0.3-1.2-0.5c-0.3-0.3-0.6-0.6-0.8-0.9
					c-0.2-0.4-0.3-0.8-0.4-1.2v-0.1c-0.2-0.9,0-1.7,0.4-2.4c0.4-0.7,1.2-1.1,2.4-1.3l14.1-2.6L32,66.2c-0.1-0.3-0.3-0.4-0.6-0.3
					l-15.1,2.8c-0.5,0.1-0.9,0-1.2-0.2c-0.3-0.3-0.5-0.6-0.6-0.9c-0.1-0.4,0-0.7,0.2-1.1c0.2-0.3,0.5-0.6,1.1-0.7l18.1-3.3
					c1.1-0.2,1.9-0.1,2.4,0.2s0.8,0.9,1,1.7l0.7,4l-16.7,3.1c-0.2,0-0.3,0.1-0.4,0.2s-0.1,0.2,0,0.3s0.1,0.2,0.2,0.3
					c0.1,0.1,0.2,0.1,0.4,0.1l16-3c0.5-0.1,0.9,0,1.2,0.2c0.3,0.3,0.4,0.6,0.5,0.9s0,0.7-0.1,1c-0.2,0.4-0.5,0.6-1,0.7L19.2,75.8z
					 M29.9,54.3l-0.2-1.2l-11.8,2.2l0.1,0.4c0,0.3,0.1,0.5,0.3,0.6c0.1,0.1,0.4,0.2,0.7,0.1L29.9,54.3z"/>
				
					<path style="fill:none;stroke:#333333;stroke-width:6.0833;stroke-linecap:round;stroke-linejoin:round;stroke-miterlimit:10;" d="
					M48.4,65.6c0.4-0.3,0.8-0.5,1.1-0.9c0.3-0.3,0.5-0.7,0.7-1.1c0.2-0.4,0.3-1,0.3-1.6s-0.1-1.4-0.2-2.4l-1.6-8.8
					c0-0.2-0.1-0.4-0.2-0.4c-0.1-0.1-0.2-0.1-0.5,0l-2.6,0.5l1.7,9c0.3,1.5,0.3,2.8,0.1,3.9s-0.6,2-1.1,2.8
					c-0.5,0.8-1.1,1.4-1.8,1.8c-0.7,0.5-1.4,0.8-2,1s-1.1,0.2-1.6,0s-0.8-0.5-0.9-1c-0.2-0.5-0.3-1.1-0.2-1.6s0.4-0.9,1-1.3
					c0.3-0.2,0.6-0.4,0.9-0.6s0.5-0.5,0.7-0.9c0.2-0.3,0.3-0.8,0.4-1.3c0.1-0.5,0-1.2-0.1-2L41,52.4c0-0.2-0.1-0.4-0.2-0.4
					c-0.1-0.1-0.2-0.1-0.5,0l-1.4,0.3c-0.4,0.1-0.7,0.1-1,0s-0.5-0.2-0.7-0.4s-0.4-0.4-0.5-0.6c-0.1-0.2-0.2-0.5-0.3-0.8
					c0-0.3-0.1-0.5,0-0.8c0-0.3,0.1-0.5,0.2-0.8c0.1-0.2,0.3-0.4,0.6-0.6c0.2-0.2,0.6-0.3,0.9-0.4L49,45.7c0.7-0.1,1.3-0.2,1.8-0.2
					s0.9,0.1,1.2,0.3s0.5,0.5,0.7,0.9s0.3,0.9,0.4,1.5L55,58.7c0.3,1.5,0.4,2.9,0.2,4.1c-0.1,1.2-0.4,2.2-0.9,3.1
					c-0.4,0.9-1,1.6-1.7,2.2s-1.5,1-2.3,1.4c-0.5,0.2-1,0.2-1.6,0.1c-0.5-0.1-0.9-0.4-1.1-0.9c-0.3-0.6-0.4-1.2-0.3-1.7
					C47.5,66.4,47.9,65.9,48.4,65.6z M54.5,46.3c-0.2-0.8,0-1.5,0.4-2.1c0.4-0.5,1-0.9,1.7-1c0.3-0.1,0.7-0.1,1,0s0.6,0.2,0.9,0.3
					c0.3,0.2,0.5,0.4,0.7,0.7s0.3,0.6,0.4,1.1l1.2,6.7l0.5-0.1c0.4-0.1,0.8-0.1,1.1,0s0.6,0.2,0.8,0.4s0.4,0.4,0.5,0.7
					s0.2,0.5,0.3,0.8c0,0.3,0.1,0.5,0,0.8c0,0.3-0.1,0.6-0.3,0.8c-0.1,0.3-0.3,0.5-0.6,0.7s-0.6,0.3-1,0.4l-0.5,0.1l2,10.9l-5.2,1
					L54.5,46.3z"/>
				
					<path style="fill:none;stroke:#333333;stroke-width:6.0833;stroke-linecap:round;stroke-linejoin:round;stroke-miterlimit:10;" d="
					M62.7,49.8c-0.2-0.9-0.2-1.8,0-2.7c0.1-0.9,0.5-1.7,0.9-2.4c0.5-0.7,1.1-1.3,1.9-1.9c0.8-0.5,1.7-0.9,2.8-1.1l9.5-1.8
					c1.1-0.2,2.1-0.2,3,0s1.7,0.6,2.4,1.1c0.7,0.5,1.3,1.1,1.7,1.9c0.5,0.8,0.8,1.6,0.9,2.5l0.1,0.3c0.2,0.9,0.2,1.8,0,2.7
					c-0.1,0.9-0.5,1.7-0.9,2.4c-0.5,0.7-1.1,1.4-1.9,1.9s-1.7,0.9-2.8,1.1l-9.5,1.8c-1.1,0.2-2.1,0.2-3,0s-1.7-0.6-2.4-1.1
					s-1.3-1.2-1.7-1.9c-0.4-0.8-0.8-1.6-0.9-2.5L62.7,49.8z M69.1,61.7l-0.4-2.4c-0.1-0.4-0.1-0.8,0-1.1s0.2-0.6,0.4-0.8
					c0.2-0.2,0.5-0.4,0.8-0.5s0.6-0.2,1-0.3c0.3-0.1,0.7-0.1,1-0.1s0.6,0.1,0.9,0.2c0.3,0.1,0.5,0.3,0.7,0.6s0.3,0.6,0.4,1l0.4,2.4
					l4.7-0.9l-0.4-2.4c-0.1-0.4-0.1-0.8,0-1.1s0.2-0.6,0.4-0.8c0.2-0.2,0.5-0.4,0.8-0.5s0.6-0.2,1-0.3c0.3-0.1,0.7-0.1,1-0.1
					s0.6,0.1,0.9,0.2c0.3,0.1,0.5,0.3,0.7,0.6s0.3,0.6,0.4,1l0.4,2.4l2.6-0.5c0.8-0.1,1.4,0,1.8,0.3c0.4,0.4,0.7,0.8,0.8,1.4
					c0.1,0.5,0,1.1-0.2,1.6c-0.3,0.5-0.8,0.8-1.6,1l-20.2,3.7c-0.8,0.1-1.4,0-1.8-0.3c-0.4-0.4-0.7-0.8-0.8-1.4
					c-0.1-0.5,0-1,0.2-1.5c0.3-0.5,0.8-0.8,1.6-1L69.1,61.7z M80.4,46.5c-0.1-0.7-0.5-1.2-1.1-1.6c-0.6-0.4-1.3-0.5-2.2-0.3
					l-6.6,1.2c-0.9,0.2-1.5,0.5-1.9,1.1c-0.4,0.5-0.6,1.2-0.4,1.9l0.1,0.4c0.1,0.7,0.5,1.2,1.1,1.6c0.6,0.4,1.3,0.5,2.2,0.3l6.6-1.2
					c0.9-0.2,1.5-0.5,1.9-1.1c0.4-0.5,0.6-1.2,0.4-1.9L80.4,46.5z"/>
				
					<path style="fill:none;stroke:#333333;stroke-width:6.0833;stroke-linecap:round;stroke-linejoin:round;stroke-miterlimit:10;" d="
					M93,53.9l-0.3-1.6c-0.2-1-0.2-1.9-0.1-2.6c0.1-0.7,0.5-1.3,1.1-1.9c0.5-0.5,1-0.9,1.4-1.2c0.4-0.4,0.7-0.7,1-1
					c0.3-0.5,0.6-0.9,0.6-1.2c0.1-0.4,0.1-0.8,0-1.2c-0.1-0.6-0.4-1.1-0.9-1.3c-0.5-0.3-1-0.4-1.6-0.2c-0.6,0.1-1.1,0.4-1.6,0.7
					c-0.4,0.4-0.7,0.9-0.7,1.4c-0.1,0.7-0.3,1.2-0.8,1.6c-0.4,0.4-1,0.7-1.8,0.8c-0.3,0-0.6,0-0.9,0c-0.3-0.1-0.6-0.2-0.8-0.4
					S87.2,45.3,87,45s-0.3-0.6-0.4-1c-0.1-0.8-0.1-1.6,0.2-2.4c0.3-0.8,0.7-1.5,1.4-2.1c0.6-0.6,1.3-1.2,2.2-1.7
					c0.9-0.5,1.8-0.8,2.9-1s2.1-0.3,3.1-0.1c1,0.1,1.8,0.4,2.6,0.8s1.4,1,1.9,1.8s0.9,1.7,1.1,2.8c0.2,0.9,0.2,1.7,0.1,2.4
					s-0.3,1.4-0.7,2c-0.3,0.5-0.7,1.1-1.2,1.6c-0.5,0.6-1,1.1-1.6,1.7c-0.3,0.3-0.5,0.6-0.6,0.9c-0.1,0.3,0,0.6,0,1l0.2,1.2L93,53.9
					z M93.6,57.8c-0.2-0.8,0-1.5,0.4-2.1s1.1-0.9,1.9-1.1c0.9-0.2,1.6-0.1,2.2,0.3c0.6,0.4,0.9,1,1.1,1.8c0.1,0.8,0,1.5-0.4,2.1
					s-1.1,0.9-1.9,1.1c-0.9,0.2-1.6,0.1-2.2-0.3S93.8,58.6,93.6,57.8z"/>
			</g>
			<g>
				<path style="fill:#FFFFFF;" d="M7.9,27.8c0.8-0.5,1.4-1.3,1.7-2.4s0.3-2.5-0.1-4.3l-0.1-0.8c-0.2-0.8,0-1.5,0.4-2
					s0.9-0.8,1.6-0.9c0.7-0.1,1.3,0,1.9,0.3c0.6,0.3,0.9,0.9,1.1,1.7l0.1,0.8c0.1,0.4,0.1,0.7,0.2,1.1c0,0.3,0.1,0.7,0.1,1
					c1.6,0,3,0.6,4,1.7s1.6,2.9,1.9,5.3L16,30.2c0-0.9-0.1-1.6-0.4-2.2c-0.2-0.6-0.6-1.1-1.1-1.3c-0.3,1.3-0.9,2.4-1.7,3.3
					s-1.7,1.5-2.8,1.8c-0.7,0.2-1.2,0.2-1.8,0c-0.5-0.2-0.9-0.6-1.1-1.1C6.6,29.4,6.9,28.4,7.9,27.8z M16.2,41.6
					c-0.9,0.2-1.7,0.2-2.5,0.1c-0.7-0.1-1.3-0.4-1.9-0.7c-0.5-0.4-1-0.8-1.3-1.4c-0.3-0.6-0.6-1.2-0.7-1.9c-0.1-0.7-0.1-1.4,0-2
					c0.1-0.7,0.3-1.2,0.7-1.8s0.9-1,1.5-1.4s1.4-0.7,2.3-0.8l12.2-2.3c0.9-0.2,1.7-0.2,2.4-0.1c0.7,0.1,1.3,0.4,1.9,0.7
					s1,0.8,1.3,1.4s0.6,1.2,0.7,1.9c0.1,0.7,0.1,1.4,0,2.1c-0.1,0.7-0.4,1.2-0.7,1.8c-0.4,0.5-0.9,1-1.5,1.3
					c-0.6,0.4-1.4,0.6-2.3,0.8L16.2,41.6z M26.3,36c0.6-0.1,0.9-0.3,1.1-0.6c0.1-0.3,0.2-0.6,0.1-0.9c-0.1-0.3-0.2-0.6-0.4-0.8
					c-0.2-0.2-0.7-0.3-1.2-0.2l-9.4,1.7c-0.6,0.1-0.9,0.3-1.1,0.6c-0.1,0.3-0.2,0.6-0.1,0.9c0.1,0.3,0.2,0.6,0.5,0.8
					c0.2,0.2,0.7,0.3,1.2,0.2L26.3,36z M26.2,23.8L25,24.1l0.8,4.5l-4.6,0.8L19,17.8c-0.1-0.7,0-1.3,0.4-1.8
					c0.4-0.5,0.9-0.7,1.5-0.9c0.6-0.1,1.2,0,1.7,0.3s0.9,0.8,1,1.5l0.6,3.2l1.2-0.2l-0.6-3.2c-0.1-0.7,0-1.3,0.4-1.8
					s0.9-0.8,1.5-0.9c0.6-0.1,1.2,0,1.7,0.3s0.9,0.8,1,1.5l2.2,11.6L27,28.3L26.2,23.8z"/>
				<path style="fill:#FFFFFF;" d="M34.6,23c1-0.2,1.9-0.4,2.7-0.7c0.8-0.3,1.5-0.7,2.1-1.1s1-1,1.2-1.6c0.3-0.6,0.3-1.3,0.2-2
					l-0.1-0.5c-0.1-0.4-0.3-0.5-0.7-0.5l-6.1,1.1c-0.4,0.1-0.7,0.1-1,0s-0.5-0.2-0.8-0.3c-0.2-0.2-0.4-0.4-0.5-0.6s-0.2-0.5-0.3-0.7
					c0-0.3-0.1-0.5,0-0.8c0-0.3,0.1-0.5,0.3-0.7c0.1-0.2,0.3-0.4,0.6-0.6c0.3-0.2,0.6-0.3,1-0.4l8-1.5c1.4-0.3,2.5-0.2,3.2,0.3
					s1.1,1.3,1.3,2.5l0.3,1.5c0.3,1.6,0.2,3-0.2,4.3c-0.5,1.2-1.2,2.3-2.2,3.2c-1,0.9-2.2,1.6-3.7,2.2c-1.5,0.5-3,0.9-4.7,1.1
					c-0.6,0.1-1.2-0.1-1.6-0.4c-0.5-0.4-0.8-0.9-0.9-1.6c-0.1-0.6,0.1-1.1,0.4-1.5C33.4,23.4,33.9,23.1,34.6,23z M37.2,32.2
					c-0.7,0.1-1.3,0-1.8-0.3s-0.8-0.8-0.9-1.4c-0.1-0.6,0-1.2,0.3-1.6s0.9-0.8,1.6-0.9l15.7-2.9c0.8-0.2,1.5-0.2,2-0.2
					s1,0.2,1.3,0.4c0.3,0.3,0.6,0.6,0.8,1.1s0.4,1.1,0.5,1.9l1,5.4l-5.3,1L51.5,30c-0.1-0.4-0.3-0.6-0.7-0.5L37.2,32.2z M48.3,12.8
					c-0.2-0.9,0-1.6,0.4-2.1c0.4-0.5,1-0.9,1.7-1s1.3,0,1.9,0.3c0.6,0.4,1,0.9,1.1,1.8l0.4,2.2l0.8-0.2c0.4-0.1,0.8-0.1,1,0
					s0.5,0.2,0.7,0.4s0.4,0.4,0.5,0.7s0.2,0.5,0.3,0.8c0,0.3,0.1,0.5,0,0.8c0,0.3-0.1,0.6-0.2,0.8c-0.1,0.2-0.3,0.5-0.5,0.6
					c-0.2,0.2-0.6,0.3-1,0.4l-0.8,0.2l0.9,4.9l-5.2,1L48.3,12.8z"/>
				<path style="fill:#FFFFFF;" d="M65.7,31.9c-0.8,0.1-1.6,0.2-2.3,0c-0.7-0.1-1.4-0.4-2-0.8s-1.1-1-1.6-1.7
					c-0.4-0.7-0.8-1.6-1-2.7l-1.7-9c-0.2-0.9-0.2-1.6-0.1-2.3c-0.5,0-0.9-0.2-1.1-0.5c-0.3-0.3-0.5-0.7-0.6-1.2
					c-0.1-0.6,0-1.1,0.2-1.5s0.7-0.7,1.3-0.8l2.5-0.5l-0.1-0.3c-0.1-0.8-0.1-1.4,0.3-2c0.3-0.5,0.9-0.9,1.7-1c0.8-0.2,1.5,0,2,0.3
					c0.5,0.4,0.8,0.9,1,1.7l0.1,0.3l2.4-0.4c0.6-0.1,1.2,0,1.5,0.3s0.6,0.8,0.7,1.3s0.1,0.9-0.1,1.3c-0.2,0.4-0.4,0.7-0.9,0.9
					c0.2,0.3,0.3,0.6,0.4,1s0.2,0.7,0.3,1.2l1.7,9c0.2,1.1,0.2,2,0.1,2.9S70,29,69.5,29.6c-0.4,0.6-1,1.1-1.6,1.5
					C67.2,31.5,66.5,31.8,65.7,31.9z M64.9,28c0.2,0,0.5-0.2,0.7-0.4s0.3-0.6,0.2-1.1l-2-10.9c-0.1-0.5-0.3-0.8-0.6-1
					s-0.6-0.2-0.8-0.2s-0.5,0.2-0.7,0.4s-0.3,0.6-0.2,1.1l2,10.9c0.1,0.5,0.3,0.8,0.6,1S64.7,28,64.9,28z M77,19.1l-1.3,0.2l2,10.9
					L73.2,31L69.1,8.5c-0.1-0.7,0-1.3,0.4-1.8S70.4,6,71,5.8c0.6-0.1,1.2,0,1.7,0.3s0.9,0.8,1,1.5L75,15l1.3-0.2L75,7.5
					c-0.1-0.7,0-1.3,0.4-1.8s0.9-0.8,1.5-0.9c0.3-0.1,0.6-0.1,0.9,0c0.3,0,0.6,0.1,0.8,0.3c0.3,0.2,0.5,0.4,0.7,0.6s0.3,0.6,0.4,0.9
					l4.2,22.5L79,29.9L77,19.1z"/>
				<path style="fill:#FFFFFF;" d="M22.1,57.9l-0.2-1.2l-4.8,0.9c-0.8,0.1-1.4,0.2-1.9,0.2s-0.9-0.1-1.2-0.3s-0.6-0.6-0.8-1
					c-0.2-0.5-0.4-1.1-0.5-1.9l-0.5-2.8c-0.1-0.4-0.1-0.8,0-1.1s0.2-0.6,0.5-0.8c0.2-0.2,0.5-0.4,0.8-0.5s0.6-0.2,1-0.3
					c0.6-0.1,1.1-0.1,1.7,0.1c0.6,0.2,1,0.6,1.2,1.2l11.9-2.2c0-0.7,0.2-1.2,0.7-1.6c0.5-0.4,1-0.6,1.6-0.7c0.3-0.1,0.7-0.1,1-0.1
					s0.6,0.1,0.9,0.2c0.3,0.1,0.5,0.3,0.7,0.6s0.3,0.6,0.4,1l1.2,6.5l-8.6,1.6l0.2,1.2l7.8-1.4c0.7-0.1,1.2,0,1.6,0.3
					c0.3,0.3,0.6,0.7,0.6,1.1c0.1,0.5,0,0.9-0.2,1.3c-0.2,0.4-0.7,0.6-1.4,0.8L15,62.8c-0.7,0.1-1.2,0.1-1.6-0.2
					c-0.4-0.3-0.6-0.7-0.7-1.1c-0.1-0.5,0-0.9,0.2-1.3c0.2-0.4,0.7-0.7,1.4-0.8L22.1,57.9z M19.2,73.7c-0.6,0.1-1.1,0.1-1.5,0
					c-0.5-0.1-0.8-0.3-1.2-0.5s-0.6-0.6-0.8-0.9c-0.2-0.4-0.3-0.8-0.4-1.2V71c-0.2-0.9,0-1.7,0.4-2.4c0.4-0.7,1.2-1.1,2.4-1.3
					l14.1-2.6L32,64.1c-0.1-0.3-0.3-0.4-0.6-0.3l-15.1,2.8c-0.5,0.1-0.9,0-1.2-0.2s-0.5-0.6-0.6-0.9s0-0.7,0.2-1.1s0.5-0.6,1.1-0.7
					l18.1-3.3c1.1-0.2,1.9-0.2,2.4,0.2c0.5,0.3,0.8,0.9,1,1.7l0.7,4l-16.7,3.1c-0.2,0-0.3,0.1-0.4,0.2s-0.1,0.2,0,0.3
					c0,0.1,0.1,0.2,0.2,0.3c0.1,0.1,0.2,0.1,0.4,0.1l16-3c0.5-0.1,0.9,0,1.2,0.2c0.3,0.3,0.4,0.6,0.5,0.9s0,0.7-0.1,1
					c-0.2,0.4-0.5,0.6-1,0.7L19.2,73.7z M29.9,52.2L29.7,51l-11.8,2.2l0.1,0.4c0,0.3,0.1,0.5,0.3,0.6c0.1,0.1,0.4,0.1,0.7,0.1
					L29.9,52.2z"/>
				<path style="fill:#FFFFFF;" d="M48.4,63.5c0.4-0.3,0.8-0.5,1.1-0.9s0.5-0.7,0.7-1.1c0.2-0.4,0.3-1,0.3-1.6s-0.1-1.4-0.2-2.4
					l-1.6-8.8c0-0.2-0.1-0.4-0.2-0.4c-0.1-0.1-0.2-0.1-0.5,0l-2.6,0.5l1.7,9c0.3,1.5,0.3,2.8,0.1,3.9c-0.2,1.1-0.6,2-1.1,2.8
					c-0.5,0.8-1.1,1.4-1.8,1.8c-0.7,0.5-1.4,0.8-2,1s-1.1,0.2-1.6,0s-0.8-0.5-0.9-1c-0.2-0.5-0.3-1.1-0.2-1.6s0.4-0.9,1-1.4
					c0.3-0.2,0.6-0.4,0.9-0.6s0.5-0.5,0.7-0.9c0.2-0.3,0.3-0.8,0.4-1.3c0.1-0.5,0-1.2-0.1-2L41,50.2c0-0.2-0.1-0.4-0.2-0.4
					c-0.1-0.1-0.2-0.1-0.5,0L38.6,50c-0.4,0.1-0.7,0.1-1,0s-0.5-0.2-0.7-0.4s-0.4-0.4-0.5-0.6s-0.2-0.5-0.3-0.8c0-0.3-0.1-0.5,0-0.8
					c0-0.3,0.1-0.5,0.2-0.8c0.1-0.2,0.3-0.4,0.6-0.6c0.2-0.2,0.6-0.3,0.9-0.4l11.2-2c0.7-0.1,1.3-0.2,1.8-0.2s0.9,0.1,1.2,0.3
					s0.5,0.5,0.7,0.9s0.3,0.9,0.4,1.5L55,56.6c0.3,1.5,0.4,2.9,0.2,4.1c-0.1,1.2-0.4,2.2-0.9,3.1c-0.4,0.9-1,1.6-1.7,2.2
					s-1.5,1-2.3,1.4c-0.5,0.2-1,0.2-1.6,0.1c-0.5-0.1-0.9-0.4-1.1-0.9c-0.3-0.6-0.4-1.2-0.3-1.7C47.5,64.3,47.8,63.8,48.4,63.5z
					 M54.5,44.2c-0.2-0.8,0-1.5,0.4-2.1c0.4-0.5,1-0.9,1.7-1c0.3-0.1,0.7-0.1,1,0s0.6,0.2,0.9,0.3c0.3,0.2,0.5,0.4,0.7,0.7
					s0.3,0.6,0.4,1.1l1.2,6.7l0.5-0.1c0.4-0.1,0.8-0.1,1.1,0s0.6,0.2,0.8,0.4s0.4,0.4,0.5,0.7s0.2,0.5,0.3,0.8c0,0.3,0.1,0.5,0,0.8
					c0,0.3-0.1,0.6-0.3,0.8s-0.3,0.5-0.6,0.7s-0.6,0.3-1,0.4l-0.5,0.1l2,10.9l-5.2,1L54.5,44.2z"/>
				<path style="fill:#FFFFFF;" d="M62.7,47.7c-0.2-0.9-0.2-1.8,0-2.7c0.1-0.9,0.5-1.7,0.9-2.4c0.5-0.7,1.1-1.3,1.9-1.9
					c0.8-0.5,1.7-0.9,2.8-1.1l9.5-1.8c1.1-0.2,2.1-0.2,3,0s1.7,0.6,2.4,1.1s1.3,1.1,1.7,1.9c0.5,0.8,0.8,1.6,0.9,2.5l0.1,0.3
					c0.2,0.9,0.2,1.8,0,2.7c-0.1,0.9-0.5,1.7-0.9,2.4c-0.5,0.7-1.1,1.4-1.9,1.9s-1.7,0.9-2.8,1.1l-9.5,1.8c-1.1,0.2-2.1,0.2-3,0
					s-1.7-0.6-2.4-1.1c-0.7-0.5-1.3-1.2-1.7-1.9c-0.4-0.8-0.8-1.6-0.9-2.5L62.7,47.7z M69.1,59.6l-0.4-2.4c-0.1-0.4-0.1-0.8,0-1.1
					s0.2-0.6,0.4-0.8c0.2-0.2,0.5-0.4,0.8-0.5s0.6-0.2,1-0.3c0.3-0.1,0.7-0.1,1-0.1s0.6,0.1,0.9,0.2c0.3,0.1,0.5,0.3,0.7,0.6
					s0.3,0.6,0.4,1l0.4,2.4l4.7-0.9l-0.4-2.4c-0.1-0.4-0.1-0.8,0-1.1s0.2-0.6,0.4-0.8c0.2-0.2,0.5-0.4,0.8-0.5s0.6-0.2,1-0.3
					c0.3-0.1,0.7-0.1,1-0.1s0.6,0.1,0.9,0.2c0.3,0.1,0.5,0.3,0.7,0.6s0.3,0.6,0.4,1l0.4,2.4l2.6-0.5c0.8-0.2,1.4,0,1.8,0.3
					s0.7,0.8,0.8,1.4c0.1,0.5,0,1.1-0.2,1.6c-0.3,0.5-0.8,0.8-1.6,1l-20.2,3.7c-0.8,0.1-1.4,0-1.8-0.3s-0.7-0.8-0.8-1.4
					c-0.1-0.5,0-1,0.2-1.5c0.3-0.5,0.8-0.8,1.6-1L69.1,59.6z M80.4,44.4c-0.1-0.7-0.5-1.2-1.1-1.6c-0.6-0.4-1.3-0.5-2.2-0.3
					l-6.6,1.2c-0.9,0.2-1.5,0.5-1.9,1.1c-0.4,0.5-0.6,1.2-0.4,1.9l0.1,0.4c0.1,0.7,0.5,1.2,1.1,1.6c0.6,0.4,1.3,0.5,2.2,0.3l6.6-1.2
					c0.9-0.2,1.5-0.5,1.9-1.1c0.4-0.5,0.6-1.2,0.4-1.9L80.4,44.4z"/>
				<path style="fill:#FFFFFF;" d="M93,51.8l-0.3-1.6c-0.2-1-0.2-1.9-0.1-2.6s0.5-1.3,1.1-1.9c0.5-0.5,1-0.9,1.4-1.2
					c0.4-0.4,0.7-0.7,1-1c0.3-0.5,0.6-0.9,0.6-1.2c0.1-0.3,0.1-0.8,0-1.2c-0.1-0.6-0.4-1.1-0.9-1.3c-0.5-0.3-1-0.4-1.6-0.2
					c-0.6,0.1-1.1,0.4-1.6,0.7c-0.4,0.4-0.7,0.9-0.7,1.4c-0.1,0.7-0.3,1.2-0.8,1.6c-0.4,0.4-1,0.7-1.8,0.8c-0.3,0-0.6,0-0.9,0
					c-0.3-0.1-0.6-0.2-0.8-0.4c-0.2-0.2-0.5-0.4-0.6-0.7c-0.2-0.3-0.3-0.6-0.4-1c-0.1-0.8-0.1-1.6,0.2-2.4c0.3-0.8,0.7-1.5,1.4-2.1
					c0.6-0.6,1.3-1.2,2.2-1.6c0.9-0.5,1.8-0.8,2.9-1s2.1-0.3,3.1-0.1c1,0.1,1.8,0.4,2.6,0.8c0.8,0.4,1.4,1,1.9,1.8s0.9,1.7,1.1,2.8
					c0.2,0.9,0.2,1.7,0.1,2.4s-0.3,1.4-0.7,2c-0.3,0.5-0.7,1.1-1.2,1.6c-0.5,0.6-1,1.1-1.6,1.7c-0.3,0.3-0.5,0.6-0.6,0.9
					c-0.1,0.3,0,0.6,0,1l0.2,1.2L93,51.8z M93.6,55.7c-0.2-0.8,0-1.5,0.4-2.1s1.1-0.9,1.9-1.1c0.9-0.2,1.6-0.1,2.2,0.3
					c0.6,0.4,0.9,1,1.1,1.8c0.1,0.8,0,1.5-0.4,2.1s-1,0.9-1.9,1.1c-0.9,0.2-1.6,0.1-2.2-0.3S93.7,56.5,93.6,55.7z"/>
			</g>
		</g>
	</g>
	<path style="fill:#FFCB61;" d="M51.3,79.1l7.9,11.6c1.2,1.8,3.9,1,4.1-1.1l1.1-14.3L51.3,79.1z"/>
	<path style="fill:#FFCB61;" d="M40.1,108.6c-0.1,0-0.2,0-0.3-0.1c-0.5-0.2-0.7-0.7-0.5-1.2c0.2-0.4,4.3-10.5,11.3-11.3
		c3.7-0.4,7.4,1.8,11,6.7c0.8-1.5,2.2-3.6,4.2-4c1.6-0.2,3.2,0.7,4.7,2.8c0.3,0.4,0.2,1-0.2,1.3c-0.4,0.3-1,0.2-1.3-0.2
		c-0.7-1-1.9-2.2-2.9-2c-1.7,0.3-3,3.3-3.4,4.3c-0.1,0.3-0.4,0.6-0.8,0.6c-0.3,0-0.7-0.1-0.9-0.4c-3.5-5.1-6.9-7.6-10.2-7.2
		c-5.9,0.6-9.8,10-9.8,10.1C40.8,108.4,40.5,108.6,40.1,108.6z"/>
</g>
</svg>
