<?xml version="1.0" encoding="utf-8"?>
<!-- Generator: Adobe Illustrator 25.2.0, SVG Export Plug-In . SVG Version: 6.00 Build 0)  -->
<svg version="1.1" id="레이어_1" xmlns="http://www.w3.org/2000/svg" xmlns:xlink="http://www.w3.org/1999/xlink" x="0px"
	 y="0px" viewBox="0 0 200 72.3" style="enable-background:new 0 0 200 72.3;" xml:space="preserve">
<g>
	<path style="fill:#F08324;" d="M194,72.3H6c-3.3,0-6-2.7-6-6l0-56c0-3.3,2.7-6,6-6h188c3.3,0,6,2.7,6,6v56
		C200,69.6,197.3,72.3,194,72.3z"/>
	<path style="fill:#F4A347;" d="M68,68H6c-3.3,0-6-2.7-6-6L0,6c0-3.3,2.7-6,6-6l62,0V68z"/>
	<path style="fill:#FFFFFF;" d="M6,66c-2.2,0-4-1.8-4-4V6c0-2.2,1.8-4,4-4h60v64H6z"/>
	<path style="fill:#F4A347;" d="M193.9,68h-122V0l122,0c3.3,0,6,2.7,6,6v56C199.9,65.3,197.2,68,193.9,68z"/>
	<g>
		<path style="fill:#FFFFFF;" d="M90.9,15.8c0.4-0.2,0.8-0.4,1.1-0.6c0.3-0.3,0.5-0.5,0.7-0.9c0.2-0.3,0.3-0.7,0.4-1.1
			c0.1-0.4,0.1-0.8,0.1-1.3c0-0.7,0.2-1.2,0.7-1.5c0.4-0.3,0.9-0.4,1.5-0.4c0.6,0,1,0.2,1.4,0.5c0.4,0.3,0.6,0.8,0.6,1.5
			c0,0.5,0,1-0.1,1.5c1.1,0.2,2.1,0.7,2.8,1.5c0.5-0.3,0.8-0.7,1-1.2s0.4-1.1,0.4-2c0-0.7,0.2-1.2,0.7-1.5c0.4-0.3,0.9-0.4,1.5-0.4
			c0.6,0,1,0.2,1.4,0.5c0.4,0.3,0.6,0.8,0.6,1.5c0,0.2,0,0.4,0,0.6c0,0.2,0,0.4-0.1,0.5c0.6,0.1,1.2,0.3,1.7,0.6s0.9,0.7,1.3,1.2
			s0.6,1,0.8,1.7c0.2,0.7,0.2,1.4,0.2,2.3h-4c0.1-0.7,0.1-1.3-0.2-1.8c-0.2-0.5-0.5-0.8-1-1c-0.3,0.5-0.7,0.9-1.2,1.3
			c-0.4,0.4-0.9,0.7-1.4,0.9v1.6h6.3c0.7,0,1.1,0.2,1.4,0.5c0.3,0.3,0.4,0.7,0.4,1.2c0,0.4-0.1,0.8-0.4,1.2
			c-0.3,0.4-0.8,0.5-1.4,0.5H91.1c-0.6,0-1.1-0.2-1.4-0.5c-0.3-0.4-0.4-0.7-0.4-1.2c0-0.4,0.1-0.8,0.4-1.2c0.3-0.3,0.7-0.5,1.4-0.5
			h6.3v-1.7c-0.1-0.4-0.3-0.7-0.5-1c-0.2-0.3-0.6-0.5-1-0.6c-0.5,0.7-1.1,1.3-1.8,1.7c-0.7,0.4-1.5,0.7-2.3,0.7c-0.6,0-1,0-1.4-0.3
			c-0.4-0.2-0.6-0.5-0.7-1c-0.1-0.5,0-0.9,0.2-1.3C90.1,16.2,90.5,16,90.9,15.8z M92,27.8c-0.6,0-1.1-0.2-1.4-0.5
			c-0.3-0.3-0.5-0.7-0.5-1.2c0-0.5,0.2-0.9,0.5-1.2c0.3-0.3,0.8-0.4,1.4-0.4h13.8c0.7,0,1.2,0,1.6,0.1c0.4,0.1,0.7,0.3,1,0.5
			c0.2,0.2,0.4,0.6,0.5,1s0.1,0.9,0.1,1.6v3.1h-4.4v-2.6c0-0.3-0.2-0.5-0.5-0.5H92z"/>
		<path style="fill:#FFFFFF;" d="M111.8,15.8c0.4-0.2,0.8-0.4,1.1-0.6c0.3-0.3,0.5-0.5,0.7-0.9c0.2-0.3,0.3-0.7,0.4-1.1
			c0.1-0.4,0.1-0.8,0.1-1.3c0-0.7,0.2-1.2,0.7-1.5c0.4-0.3,0.9-0.4,1.5-0.4c0.6,0,1,0.2,1.4,0.5c0.4,0.3,0.6,0.8,0.6,1.5
			c0,0.5,0,1-0.1,1.5c1.1,0.2,2.1,0.7,2.8,1.5c0.5-0.3,0.8-0.7,1-1.2s0.4-1.1,0.4-2c0-0.7,0.2-1.2,0.7-1.5c0.4-0.3,0.9-0.4,1.5-0.4
			c0.6,0,1,0.2,1.4,0.5c0.4,0.3,0.6,0.8,0.6,1.5c0,0.2,0,0.4,0,0.6c0,0.2,0,0.4-0.1,0.5c0.6,0.1,1.2,0.3,1.7,0.6s0.9,0.7,1.3,1.2
			s0.6,1,0.8,1.7c0.2,0.7,0.2,1.4,0.2,2.3h-4c0.1-0.7,0.1-1.3-0.2-1.8c-0.2-0.5-0.5-0.8-1-1c-0.3,0.5-0.7,0.9-1.2,1.3
			c-0.4,0.4-0.9,0.7-1.4,0.9v1.6h6.3c0.7,0,1.1,0.2,1.4,0.5c0.3,0.3,0.4,0.7,0.4,1.2c0,0.4-0.1,0.8-0.4,1.2
			c-0.3,0.4-0.8,0.5-1.4,0.5H112c-0.6,0-1.1-0.2-1.4-0.5c-0.3-0.4-0.4-0.7-0.4-1.2c0-0.4,0.1-0.8,0.4-1.2c0.3-0.3,0.7-0.5,1.4-0.5
			h6.3v-1.7c-0.1-0.4-0.3-0.7-0.5-1c-0.2-0.3-0.6-0.5-1-0.6c-0.5,0.7-1.1,1.3-1.8,1.7c-0.7,0.4-1.5,0.7-2.3,0.7c-0.6,0-1,0-1.4-0.3
			c-0.4-0.2-0.6-0.5-0.7-1c-0.1-0.5,0-0.9,0.2-1.3C111,16.2,111.4,16,111.8,15.8z M112.9,27.8c-0.6,0-1.1-0.2-1.4-0.5
			c-0.3-0.3-0.5-0.7-0.5-1.2c0-0.5,0.2-0.9,0.5-1.2c0.3-0.3,0.8-0.4,1.4-0.4h13.8c0.7,0,1.2,0,1.6,0.1c0.4,0.1,0.7,0.3,1,0.5
			c0.2,0.2,0.4,0.6,0.5,1s0.1,0.9,0.1,1.6v3.1h-4.4v-2.6c0-0.3-0.2-0.5-0.5-0.5H112.9z"/>
		<path style="fill:#FFFFFF;" d="M106.7,37.3c0.3,0,0.6,0.1,0.8,0.2c0.2,0.1,0.4,0.3,0.5,0.4c0.1,0.2,0.2,0.4,0.3,0.6
			c0.1,0.2,0.1,0.4,0.1,0.6c0,0.2,0,0.4-0.1,0.6c-0.1,0.2-0.2,0.4-0.3,0.6c-0.1,0.2-0.3,0.3-0.5,0.4c-0.2,0.1-0.5,0.2-0.8,0.2H95.6
			c-0.2,0-0.4,0-0.5,0.1C95,41.2,95,41.4,95,41.6v3.2c0,0.2,0,0.4,0.1,0.5c0.1,0.1,0.2,0.1,0.5,0.1h11.5c0.3,0,0.6,0.1,0.8,0.2
			s0.4,0.3,0.5,0.4c0.1,0.2,0.2,0.4,0.3,0.6c0.1,0.2,0.1,0.4,0.1,0.6s0,0.4-0.1,0.6c-0.1,0.2-0.2,0.4-0.3,0.6
			c-0.1,0.2-0.3,0.3-0.5,0.4c-0.2,0.1-0.5,0.2-0.8,0.2h-5.2v4.2h6.2c0.3,0,0.6,0.1,0.9,0.2c0.2,0.1,0.4,0.2,0.6,0.4
			c0.1,0.2,0.3,0.4,0.3,0.6c0.1,0.2,0.1,0.4,0.1,0.6c0,0.5-0.1,0.9-0.4,1.2c-0.3,0.4-0.8,0.5-1.4,0.5H91.2c-0.7,0-1.1-0.2-1.4-0.5
			c-0.3-0.4-0.4-0.8-0.4-1.2c0-0.2,0-0.4,0.1-0.6c0.1-0.2,0.2-0.4,0.3-0.6c0.1-0.2,0.3-0.3,0.6-0.4c0.2-0.1,0.5-0.2,0.9-0.2h6.2
			v-4.2H94c-0.7,0-1.2-0.1-1.7-0.2c-0.5-0.1-0.8-0.3-1.1-0.6s-0.5-0.6-0.6-1.1c-0.1-0.4-0.2-1-0.2-1.6v-4.8c0-0.6,0.1-1.2,0.2-1.6
			c0.1-0.4,0.3-0.8,0.6-1.1s0.6-0.5,1.1-0.6c0.5-0.1,1-0.2,1.7-0.2H106.7z"/>
		<path style="fill:#FFFFFF;" d="M129.1,45.4c0.3,0,0.6,0,0.8,0.1c0.2,0.1,0.4,0.2,0.5,0.4c0.1,0.2,0.2,0.3,0.3,0.5
			c0.1,0.2,0.1,0.4,0.1,0.6c0,0.4-0.1,0.8-0.4,1.1c-0.3,0.3-0.7,0.5-1.3,0.5h-6.4V50h4c0.7,0,1.2,0.1,1.6,0.2c0.4,0.1,0.7,0.3,1,0.5
			c0.2,0.3,0.4,0.6,0.5,1c0.1,0.4,0.1,1,0.1,1.6v4h-15.7c-0.7,0-1.2-0.1-1.6-0.2c-0.4-0.1-0.7-0.3-1-0.5c-0.2-0.2-0.4-0.6-0.5-1
			c-0.1-0.4-0.1-1-0.1-1.6v-0.7c0-0.6,0-1.2,0.1-1.6c0.1-0.4,0.2-0.8,0.5-1c0.2-0.3,0.5-0.4,1-0.5c0.4-0.1,0.9-0.2,1.6-0.2h4v-1.3
			h-6.4c-0.6,0-1.1-0.2-1.3-0.5c-0.3-0.3-0.4-0.7-0.4-1.1c0-0.2,0-0.4,0.1-0.6c0.1-0.2,0.2-0.4,0.3-0.5c0.1-0.2,0.3-0.3,0.5-0.4
			c0.2-0.1,0.5-0.1,0.8-0.1H129.1z M126,36.9c0.7,0,1.3,0.1,1.8,0.3c0.5,0.2,0.9,0.5,1.3,0.8c0.3,0.3,0.6,0.7,0.8,1.2
			s0.3,0.9,0.3,1.5c0,0.5-0.1,1-0.3,1.5s-0.4,0.9-0.8,1.2c-0.3,0.3-0.8,0.6-1.3,0.8c-0.5,0.2-1.1,0.3-1.8,0.3h-11
			c-0.7,0-1.3-0.1-1.8-0.3c-0.5-0.2-0.9-0.5-1.3-0.8c-0.3-0.3-0.6-0.7-0.8-1.2c-0.2-0.5-0.3-0.9-0.3-1.5c0-0.5,0.1-1,0.3-1.5
			c0.2-0.5,0.4-0.9,0.8-1.2c0.3-0.3,0.8-0.6,1.3-0.8c0.5-0.2,1.1-0.3,1.8-0.3H126z M124.7,41.4c0.4,0,0.6-0.1,0.7-0.2
			c0.1-0.1,0.2-0.3,0.2-0.5c0-0.2-0.1-0.4-0.2-0.5c-0.1-0.1-0.4-0.2-0.7-0.2h-8.3c-0.4,0-0.6,0.1-0.7,0.2c-0.1,0.1-0.2,0.3-0.2,0.5
			c0,0.2,0.1,0.4,0.2,0.5c0.1,0.1,0.4,0.2,0.7,0.2H124.7z M115.5,53.7c0,0.2,0,0.4,0.1,0.5s0.2,0.1,0.4,0.1h9.5v-0.8
			c0-0.2,0-0.4-0.1-0.5s-0.2-0.1-0.4-0.1h-9c-0.2,0-0.4,0-0.4,0.1s-0.1,0.2-0.1,0.5V53.7z"/>
		<path style="fill:#FFFFFF;" d="M134.9,46.9c-0.7,0-1.2-0.1-1.6-0.2s-0.7-0.3-1-0.6c-0.2-0.3-0.4-0.6-0.5-1c-0.1-0.4-0.1-1-0.1-1.6
			v-3c0-0.6,0-1.2,0.1-1.6s0.2-0.8,0.5-1c0.2-0.3,0.5-0.4,1-0.5s0.9-0.2,1.6-0.2h5.9c0.7,0,1.2,0.1,1.6,0.2c0.4,0.1,0.7,0.3,1,0.5
			c0.2,0.3,0.4,0.6,0.5,1c0.1,0.4,0.1,1,0.1,1.6v6.4H134.9z M135.6,57.3c-0.5,0-0.9-0.1-1.3-0.2c-0.4-0.2-0.7-0.4-1-0.7
			c-0.3-0.3-0.5-0.6-0.6-1c-0.1-0.4-0.2-0.7-0.2-1.1V54c0-0.8,0.3-1.4,0.8-1.9c0.5-0.5,1.3-0.7,2.3-0.7h10.6v-0.6
			c0-0.1,0-0.2-0.1-0.3c0-0.1-0.1-0.1-0.3-0.1h-11.9c-0.4,0-0.7-0.1-0.9-0.4c-0.2-0.3-0.3-0.6-0.3-0.9c0-0.3,0.1-0.6,0.3-0.9
			c0.2-0.3,0.5-0.4,0.9-0.4H148c1,0,1.7,0.2,2.1,0.5c0.4,0.3,0.6,0.9,0.6,1.8v3.5h-13.1c-0.2,0-0.3,0-0.4,0.1
			c-0.1,0.1-0.1,0.2-0.1,0.3v0.1c0,0.1,0,0.2,0.1,0.3c0.1,0.1,0.2,0.1,0.4,0.1H150c0.4,0,0.8,0.1,1,0.4c0.2,0.3,0.3,0.6,0.3,0.9
			c0,0.3-0.1,0.6-0.3,0.9s-0.5,0.4-1,0.4H135.6z M135.9,43.1c0,0.2,0,0.4,0.1,0.5c0.1,0.1,0.2,0.1,0.4,0.1h3.4v-2.8
			c0-0.2,0-0.3-0.1-0.4c-0.1-0.1-0.2-0.1-0.4-0.1h-2.8c-0.2,0-0.4,0-0.4,0.1s-0.1,0.2-0.1,0.4V43.1z M146.2,38.8
			c0-0.7,0.2-1.3,0.6-1.6c0.4-0.4,0.9-0.5,1.5-0.5c0.6,0,1.1,0.2,1.5,0.6c0.4,0.4,0.7,0.9,0.7,1.6v1.4h0.7c0.3,0,0.6,0.1,0.8,0.2
			c0.2,0.1,0.4,0.3,0.5,0.4c0.1,0.2,0.2,0.4,0.3,0.6c0.1,0.2,0.1,0.4,0.1,0.7s0,0.4-0.1,0.7c-0.1,0.2-0.2,0.4-0.3,0.6
			c-0.1,0.2-0.3,0.3-0.5,0.4c-0.2,0.1-0.5,0.2-0.8,0.2h-0.7v3.3h-4.4V38.8z"/>
	</g>
</g>
<g>
</g>
<g>
</g>
<g>
</g>
<g>
</g>
<g>
</g>
<g>
</g>
<g>
</g>
<g>
</g>
<g>
</g>
<g>
</g>
<g>
</g>
<g>
</g>
<g>
</g>
<g>
</g>
<g>
</g>
</svg>
