<?xml version="1.0" encoding="utf-8"?>
<!-- Generator: Adobe Illustrator 25.2.0, SVG Export Plug-In . SVG Version: 6.00 Build 0)  -->
<svg version="1.1" id="레이어_1" xmlns="http://www.w3.org/2000/svg" xmlns:xlink="http://www.w3.org/1999/xlink" x="0px"
	 y="0px" viewBox="0 0 78.2 53" style="enable-background:new 0 0 78.2 53;" xml:space="preserve">
<g>
	<g>
		<g>
			<path style="fill:#B77FD4;" d="M23.9,15c-0.5,0-0.9-0.1-1.2-0.3s-0.4-0.5-0.4-1s0.1-0.8,0.4-1c0.3-0.2,0.7-0.3,1.2-0.3h5.8
				c0.5,0,0.9,0.1,1.3,0.3c0.3,0.2,0.5,0.6,0.5,1.1c0,0.5-0.2,0.9-0.5,1.2l-3.6,3.2c0.2,0,0.3-0.1,0.5-0.1c0.2,0,0.3,0,0.5,0
				c0.6,0,1.1,0.1,1.6,0.3c0.5,0.2,0.9,0.5,1.2,0.8s0.6,0.8,0.8,1.2c0.2,0.5,0.3,1,0.3,1.6c0,0.8-0.1,1.5-0.4,2.1
				c-0.3,0.6-0.7,1.1-1.1,1.5c-0.5,0.4-1.1,0.7-1.7,0.9c-0.7,0.2-1.4,0.3-2.2,0.3c-0.4,0-0.8,0-1.2-0.1c-0.4,0-0.8-0.1-1.2-0.2
				c-0.4-0.1-0.8-0.2-1.1-0.4c-0.4-0.2-0.7-0.4-1-0.6c-0.3-0.2-0.4-0.5-0.5-0.9s0-0.7,0.2-1c0.2-0.3,0.5-0.5,0.9-0.5
				c0.3-0.1,0.7,0,0.9,0.2c0.5,0.3,0.9,0.5,1.4,0.6c0.5,0.1,1,0.2,1.5,0.2c0.7,0,1.3-0.2,1.8-0.5s0.7-0.8,0.7-1.5
				c0-0.4-0.1-0.7-0.3-1c-0.2-0.3-0.4-0.5-0.7-0.7s-0.7-0.3-1.1-0.4C26.7,20,26.3,20,25.8,20l-1.4,0.1c-0.3,0-0.5-0.1-0.7-0.3
				c-0.2-0.2-0.3-0.4-0.3-0.7c0-0.3,0.1-0.6,0.2-0.8c0.1-0.2,0.3-0.4,0.5-0.6l3-2.8H23.9z"/>
			<path style="fill:#B77FD4;" d="M38.2,17.3c0.2-0.1,0.4-0.1,0.6-0.1c0.2,0,0.4,0,0.7,0c0.7,0,1.3,0.1,1.9,0.4
				c0.6,0.2,1.1,0.6,1.5,1c0.4,0.4,0.7,0.9,1,1.5c0.2,0.6,0.3,1.2,0.3,1.9c0,0.7-0.1,1.4-0.4,2c-0.3,0.6-0.6,1.1-1.1,1.6
				c-0.5,0.4-1,0.8-1.7,1c-0.6,0.2-1.3,0.4-2.1,0.4c-0.8,0-1.6-0.1-2.2-0.4c-0.7-0.2-1.3-0.6-1.8-1c-0.5-0.4-0.9-1-1.1-1.6
				c-0.3-0.6-0.4-1.3-0.4-2c0-0.9,0.1-1.6,0.4-2.4c0.3-0.7,0.6-1.4,1-2l3-4.7c0.3-0.4,0.6-0.7,0.9-0.8c0.4-0.2,0.8-0.1,1.2,0.1
				c0.4,0.2,0.6,0.5,0.7,0.9s0,0.7-0.2,1.2L38.2,17.3z M36.3,22c0,0.3,0.1,0.7,0.2,0.9c0.1,0.3,0.3,0.5,0.5,0.7
				c0.2,0.2,0.5,0.4,0.8,0.5c0.3,0.1,0.6,0.2,1,0.2c0.3,0,0.7-0.1,1-0.2c0.3-0.1,0.6-0.3,0.8-0.5c0.2-0.2,0.4-0.5,0.5-0.7
				s0.2-0.6,0.2-0.9c0-0.3-0.1-0.7-0.2-0.9s-0.3-0.5-0.5-0.7c-0.2-0.2-0.5-0.4-0.8-0.5c-0.3-0.1-0.6-0.2-1-0.2c-0.3,0-0.7,0.1-1,0.2
				c-0.3,0.1-0.6,0.3-0.8,0.5c-0.2,0.2-0.4,0.5-0.5,0.7C36.4,21.4,36.3,21.7,36.3,22z"/>
			<path style="fill:#B77FD4;" d="M50.4,26.9c-1,0-1.9-0.2-2.6-0.6c-0.7-0.4-1.2-0.9-1.7-1.6c-0.4-0.7-0.7-1.4-0.9-2.3
				c-0.2-0.9-0.3-1.9-0.3-2.9s0.1-2,0.3-2.9c0.2-0.9,0.5-1.7,0.9-2.3c0.4-0.7,1-1.2,1.7-1.6s1.5-0.6,2.6-0.6s1.9,0.2,2.6,0.6
				s1.2,0.9,1.7,1.6c0.4,0.7,0.7,1.4,0.9,2.3s0.3,1.9,0.3,2.9s-0.1,2-0.3,2.9s-0.5,1.7-0.9,2.3c-0.4,0.7-1,1.2-1.7,1.6
				C52.2,26.7,51.4,26.9,50.4,26.9z M50.4,24.2c0.5,0,0.9-0.1,1.1-0.4c0.3-0.3,0.5-0.6,0.7-1c0.2-0.4,0.3-0.9,0.3-1.5
				c0.1-0.6,0.1-1.1,0.1-1.7s0-1.2-0.1-1.7c-0.1-0.6-0.2-1.1-0.3-1.5c-0.2-0.4-0.4-0.8-0.7-1c-0.3-0.3-0.7-0.4-1.1-0.4
				c-0.5,0-0.9,0.1-1.1,0.4c-0.3,0.3-0.5,0.6-0.7,1s-0.3,0.9-0.3,1.5c-0.1,0.6-0.1,1.1-0.1,1.7s0,1.2,0.1,1.7
				c0.1,0.6,0.2,1.1,0.3,1.5c0.2,0.4,0.4,0.8,0.7,1C49.5,24,49.9,24.2,50.4,24.2z"/>
			<path style="fill:#B77FD4;" d="M57.4,14c0-0.3,0.1-0.7,0.2-1c0.1-0.3,0.3-0.5,0.5-0.8c0.2-0.2,0.5-0.4,0.8-0.5s0.6-0.2,1-0.2
				c0.3,0,0.7,0.1,1,0.2c0.3,0.1,0.6,0.3,0.8,0.5c0.2,0.2,0.4,0.5,0.5,0.8c0.1,0.3,0.2,0.6,0.2,1c0,0.3-0.1,0.7-0.2,1
				c-0.1,0.3-0.3,0.5-0.5,0.8c-0.2,0.2-0.5,0.4-0.8,0.5c-0.3,0.1-0.6,0.2-1,0.2c-0.3,0-0.7-0.1-1-0.2c-0.3-0.1-0.6-0.3-0.8-0.5
				c-0.2-0.2-0.4-0.5-0.5-0.8C57.5,14.7,57.4,14.4,57.4,14z M59,14c0,0.3,0.1,0.5,0.3,0.7s0.4,0.3,0.7,0.3s0.5-0.1,0.7-0.3
				s0.3-0.4,0.3-0.7c0-0.3-0.1-0.5-0.3-0.7c-0.2-0.2-0.4-0.3-0.7-0.3s-0.5,0.1-0.7,0.3C59,13.5,59,13.8,59,14z"/>
		</g>
		<g>
			<path style="fill:#B77FD4;" d="M66.5,31.9c0-2.4-2.9-4.5-7.5-6.1c1.4,0.8,2.2,1.7,2.2,2.7c0,3.2-7.1,5.8-18,6.3l4.1,3l-4.1,3
				C56.9,40.2,66.5,36.5,66.5,31.9z"/>
			<path style="fill:#B77FD4;" d="M43.2,37.8l-7.4-5.5v2.5c-11.4-0.4-20.2-3-20.2-6.3c0-1,0.8-1.9,2.2-2.7c-4.7,1.6-7.5,3.8-7.5,6.1
				c0,4.7,11.2,8.5,25.6,9v2.4L43.2,37.8z"/>
		</g>
	</g>
	<path style="fill:none;stroke:#B77FD4;stroke-width:2;stroke-miterlimit:10;" d="M52.2,51.5H26c-13.7,0-25-11.2-25-25v0
		c0-13.7,11.2-25,25-25h26.2c13.7,0,25,11.2,25,25v0C77.2,40.3,66,51.5,52.2,51.5z"/>
</g>
<g>
</g>
<g>
</g>
<g>
</g>
<g>
</g>
<g>
</g>
<g>
</g>
<g>
</g>
<g>
</g>
<g>
</g>
<g>
</g>
<g>
</g>
<g>
</g>
<g>
</g>
<g>
</g>
<g>
</g>
</svg>
