<?xml version="1.0" encoding="utf-8"?>
<!-- Generator: Adobe Illustrator 25.2.0, SVG Export Plug-In . SVG Version: 6.00 Build 0)  -->
<svg version="1.1" id="레이어_1" xmlns="http://www.w3.org/2000/svg" xmlns:xlink="http://www.w3.org/1999/xlink" x="0px"
	 y="0px" viewBox="0 0 40 40" style="enable-background:new 0 0 40 40;" xml:space="preserve">
<style type="text/css">
	.st0{fill:#FFFFFF;}
	.st1{fill:#C0BAAA;stroke:#C0BAAA;stroke-miterlimit:10;}
</style>
<path class="st0" d="M20,0c11,0,20,8.9,20,20c0,11-8.9,20-20,20C9,40,0,31.1,0,20c0,0,0,0,0,0C0,9,8.9,0,20,0z"/>
<g>
	<path class="st1" d="M20,34.2c-0.8,0-1.5-0.2-1.9-0.7s-0.6-1.1-0.6-1.7c0-0.7,0.2-1.3,0.7-1.8s1.1-0.7,1.8-0.7s1.4,0.3,1.8,0.8
		c0.4,0.5,0.7,1.1,0.7,1.7c0,0.7-0.2,1.3-0.7,1.8C21.3,34,20.7,34.2,20,34.2z M20,26.9c-0.4,0-0.8-0.2-1.2-0.5
		c-0.4-0.3-0.6-0.7-0.6-1.1L17.8,9.5c0-1.2,0.2-2,0.7-2.4s1-0.6,1.6-0.6s1.1,0.2,1.6,0.7c0.5,0.5,0.7,1.3,0.6,2.3l-0.5,15.7
		c0,0.5-0.2,1-0.5,1.3C20.9,26.7,20.5,26.9,20,26.9z"/>
</g>
</svg>
