<?xml version="1.0" encoding="utf-8"?>
<!-- Generator: Adobe Illustrator 26.0.2, SVG Export Plug-In . SVG Version: 6.00 Build 0)  -->
<svg version="1.1" id="Layer_1" xmlns="http://www.w3.org/2000/svg" xmlns:xlink="http://www.w3.org/1999/xlink" x="0px" y="0px"
	 viewBox="0 0 68 71.6" style="enable-background:new 0 0 68 71.6;" xml:space="preserve">
<path style="fill:#C8B69B;" d="M26.6,61.4c-11,0-22-3-24.6-14c-1.9-8.1-4.9-36.8,8.7-43.7c4.8-2.3,10.1-3.5,15.5-3.4
	c9.7,0,19.4,3.2,25.9,6.3c10,4.8,12.8,17.2,4.3,27.9C48.6,44.1,61.4,61.4,26.6,61.4"/>
<path style="fill:#C7B59A;" d="M60.2,70.2c3.4,0,6.1-2.7,6.1-6.1c0-3.4-2.7-6.1-6.1-6.1c-3.4,0-6.1,2.7-6.1,6.1l0,0
	C54.1,67.4,56.9,70.2,60.2,70.2"/>
<rect x="53.6" y="56.6" style="fill:none;" width="14.1" height="14.6"/>
</svg>
