<?xml version="1.0" encoding="utf-8"?>
<!-- Generator: Adobe Illustrator 26.0.2, SVG Export Plug-In . SVG Version: 6.00 Build 0)  -->
<svg version="1.1" id="Layer_1" xmlns="http://www.w3.org/2000/svg" xmlns:xlink="http://www.w3.org/1999/xlink" x="0px" y="0px"
	 viewBox="0 0 108 86" style="enable-background:new 0 0 108 86;" xml:space="preserve">
<path style="fill:#B8C683;" d="M74.4,82.2c10.2,0,18.4-8.3,18.3-18.5s-8.3-18.4-18.5-18.3c-10.1,0-18.3,8.3-18.3,18.4
	C55.9,74,64.2,82.2,74.4,82.2"/>
<path style="fill:#B8C683;" d="M101.2,85.4c3.4,0,6.2-2.8,6.2-6.2c0-3.4-2.8-6.2-6.2-6.2c-3.4,0-6.2,2.8-6.2,6.2l0,0
	C95,82.6,97.8,85.4,101.2,85.4"/>
<path style="fill:#B8C683;" d="M39.9,11.3c0,0-26.9-7.2-36.2,12.4s3.6,45.2,27.7,46c24.6,0.9,72.9,2.6,71.8-36.6
	C102.3,2.7,78.7-3.6,64.1,3S54.1,10.7,39.9,11.3"/>
</svg>
