<?xml version="1.0" encoding="utf-8"?>
<!-- Generator: Adobe Illustrator 26.0.2, SVG Export Plug-In . SVG Version: 6.00 Build 0)  -->
<svg version="1.1" id="Layer_1" xmlns="http://www.w3.org/2000/svg" xmlns:xlink="http://www.w3.org/1999/xlink" x="0px" y="0px"
	 viewBox="0 0 175 69.2" style="enable-background:new 0 0 175 69.2;" xml:space="preserve">
<g>
	<path style="fill:#AFD6C8;" d="M159.7,8.4c-6.3-8.4-21.1-9.1-37.4-7.8C106.1,1.9,89,5.8,76.7,5.8c-14.8,0-34.2-3.8-45-4.2
		C7.5,0.6,0.3,8.8,0.3,28.1c0,18.5,18.9,30.7,52.3,28c82-6.5,86.3,16,105.8-1.8C172.7,41.2,172,24.7,159.7,8.4"/>
	<path style="fill:#AFD6C8;" d="M168.6,69.1c3.4,0,6.1-2.7,6.1-6.1c0-3.4-2.7-6.1-6.1-6.1c-3.4,0-6.1,2.7-6.1,6.1l0,0
		C162.5,66.3,165.3,69.1,168.6,69.1"/>
</g>
</svg>
