<svg id="Layer_1" data-name="Layer 1" xmlns="http://www.w3.org/2000/svg" width="134" height="56" viewBox="0 0 134 56"><defs><style>.cls-1{fill:#8f979c;}.cls-2{fill:#fff;}.cls-3{fill:#efca8c;}.cls-4{fill:#557482;}.cls-5{fill:#adbbe0;}.cls-6{fill:#94b4de;}.cls-7{fill:#b2c7e7;}</style></defs><path class="cls-1" d="M5.638,8.194S1,8.194,1,12.833V49.95s0,4.638,4.638,4.638H128.362s4.638,0,4.638-4.638V12.833s0-4.639-4.638-4.639Z"/><path class="cls-2" d="M65.812,31.175c-5.04,0-8.856-3.2-8.856-7.631s3.816-7.632,8.856-7.632c5.075,0,8.854,3.2,8.854,7.632S70.887,31.175,65.812,31.175Zm-.9,12.67A48.876,48.876,0,0,0,73.55,43.2l.468,3.456c-3.312.648-6.154.72-11.483.72H60.34V38.482h6.767V36.574H60.268V33.082H71.679v8.64H64.911Zm.9-16.522c2.447,0,4.247-1.439,4.247-3.779,0-2.376-1.8-3.78-4.247-3.78-2.412,0-4.248,1.4-4.248,3.78C61.564,25.884,63.4,27.323,65.812,27.323Zm7.127,5.759H83.99V47.66H79.31v-10.8H72.939Zm11.051-18.5v17.1H79.238v-17.1Z"/><path class="cls-2" d="M107.355,18c0,10.152-3.42,18.43-15.191,24.117l-2.483-3.743c8.459-4.067,12.13-9.251,12.814-16.594H91.445V18Zm9.862-3.455V47.7H112.43V14.545Z"/><path class="cls-3" d="M45.366,23.612H14.216a1.851,1.851,0,1,1,0-3.7h31.15a1.851,1.851,0,1,1,0,3.7"/><path class="cls-4" d="M45.366,24.561H14.216a2.8,2.8,0,0,1,0-5.6h31.15a2.8,2.8,0,0,1,0,5.6m-31.15-3.7a.9.9,0,0,0,0,1.8h31.15a.9.9,0,0,0,0-1.8H14.216"/><path class="cls-5" d="M29.791,34.905a10.9,10.9,0,0,1-10.9-10.9V13.265a10.9,10.9,0,0,1,21.8,0v10.74a10.9,10.9,0,0,1-10.9,10.9"/><path class="cls-4" d="M29.791,35.858a11.867,11.867,0,0,1-11.85-11.853V13.262a11.85,11.85,0,1,1,23.7,0V24.005a11.865,11.865,0,0,1-11.85,11.853m0-32.544a9.958,9.958,0,0,0-9.948,9.948V24.005a9.95,9.95,0,1,0,19.9,0V13.262a9.96,9.96,0,0,0-9.951-9.948"/><path class="cls-6" d="M40.691,24.005a10.9,10.9,0,0,1-21.8,0h21.8"/><path class="cls-4" d="M29.791,39.835a15.846,15.846,0,0,1-15.83-15.83h1.9a13.932,13.932,0,0,0,27.863,0h1.9a15.846,15.846,0,0,1-15.83,15.83"/><rect class="cls-4" x="18.887" y="11.065" width="7.807" height="1.585"/><rect class="cls-4" x="18.887" y="14.453" width="7.807" height="1.584"/><rect class="cls-4" x="18.887" y="17.841" width="7.807" height="1.584"/><rect class="cls-4" x="32.884" y="11.065" width="7.807" height="1.585"/><rect class="cls-4" x="32.884" y="14.453" width="7.807" height="1.584"/><rect class="cls-4" x="32.884" y="17.841" width="7.807" height="1.584"/><path class="cls-4" d="M29.791,35.858a11.867,11.867,0,0,1-11.85-11.853V13.262a11.85,11.85,0,1,1,23.7,0V24.005a11.865,11.865,0,0,1-11.85,11.853m0-32.544a9.958,9.958,0,0,0-9.948,9.948V24.005a9.95,9.95,0,1,0,19.9,0V13.262a9.96,9.96,0,0,0-9.951-9.948"/><path class="cls-7" d="M35.83,25.226H23.542a.792.792,0,1,0,0,1.584H35.83a.792.792,0,1,0,0-1.584"/><rect class="cls-3" x="27.706" y="38.886" width="4.167" height="4.953"/><path class="cls-4" d="M31.873,44.787H27.709a.95.95,0,0,1-.952-.949V38.886a.949.949,0,0,1,.952-.95h4.164a.948.948,0,0,1,.949.95v4.952a.949.949,0,0,1-.949.949m-3.215-1.9h2.266V39.835H28.658Z"/><polyline class="cls-3" points="37.637 43.838 21.948 43.838 16.206 47.259 43.375 47.259"/><path class="cls-4" d="M43.375,48.208H16.2a.949.949,0,0,1-.481-1.768l5.735-3.42.488-.134H37.634l.488.134,5.741,3.42a.952.952,0,0,1-.488,1.768m-23.715-1.9H39.919l-2.547-1.515H22.207Z"/></svg>