<svg id="Layer_1" data-name="Layer 1" xmlns="http://www.w3.org/2000/svg" width="134" height="56" viewBox="0 0 134 56"><defs><style>.cls-1{fill:#8f979c;}.cls-2{fill:#fff;}.cls-3{fill:#e07693;}.cls-4{fill:#b4c2dc;}.cls-5{fill:#f1d7a7;}.cls-6{fill:#edc692;}.cls-7{fill:#f3e5d4;}.cls-8{fill:#557482;}</style></defs><path class="cls-1" d="M5.638,9.077S1,9.077,1,13.716V50.833s0,4.638,4.638,4.638H128.362s4.638,0,4.638-4.638V13.716s0-4.639-4.638-4.639Z"/><path class="cls-2" d="M84.205,35.081a11.265,11.265,0,0,1-6.155-6.444,11.593,11.593,0,0,1-6.588,6.948A11.565,11.565,0,0,1,64.875,28.6a11.373,11.373,0,0,1-6.119,6.48l-2.447-3.492a10.534,10.534,0,0,0,6.226-10.007V17.839h4.716v3.743a11.172,11.172,0,0,0,4.211,9.107,11.088,11.088,0,0,0,4.176-9.107V17.839h4.787v3.743c0,4.032,1.729,8.063,6.228,10.007ZM56.489,40.7H86.473v3.852H56.489Z"/><path class="cls-2" d="M107.355,18.883c0,10.15-3.42,18.429-15.191,24.117l-2.483-3.744c8.459-4.068,12.13-9.251,12.814-16.594H91.445V18.883Zm9.862-3.457V48.579H112.43V15.426Z"/><path class="cls-3" d="M45.447,2.779,51.8,9.156a3.757,3.757,0,0,1,0,5.3l-2.223,2.236L37.951,5.012l2.223-2.233a3.716,3.716,0,0,1,5.273,0"/><polyline class="cls-4" points="35.699 4.413 50.619 19.398 44.449 25.595 29.529 10.613"/><polyline class="cls-5" points="31.038 11.899 43.156 24.07 24.413 42.895 12.298 30.721"/><polyline class="cls-6" points="38.963 19.86 43.156 24.073 24.416 42.891 20.223 38.682"/><polyline class="cls-7" points="11.83 41.494 12.763 31.192 19.287 32.129 20.223 34.94 22.943 36.345 24.884 43.366 13.696 43.366"/><polyline class="cls-7" points="31.038 11.899 35.231 16.112 16.491 34.934 12.298 30.721"/><path class="cls-8" d="M52.105,13.5l-2.762,2.776L38.793,5.686l2.769-2.772a1.857,1.857,0,0,1,2.638,0l7.9,7.951a1.869,1.869,0,0,1,0,2.648M48.02,20.256a.926.926,0,0,0-1.312,0l-1.316,1.322a.942.942,0,0,0,0,1.32l-1.326,1.293L30.92,10.986l1.316-1.319a.931.931,0,0,0,1.316,0l1.313-1.32a.939.939,0,0,0,0-1.322l1.316-1.319,12.5,12.566.658.665ZM24.884,40.885l-.933-4.468,9.807-9.765a.941.941,0,0,0-.049-1.273.925.925,0,0,0-1.263-.049L22.7,35.1l-2.2-.438-.439-2.213,7.094-7.123A.934.934,0,0,0,25.843,24L18.75,31.13,14.4,30.256,30.92,13.683,41.477,24.276Zm-6.622-7.912.543,2.7a.926.926,0,0,0,.724.727l2.687.543.995,5-7.1.488-3.349-3.362.569-7.116ZM54.521,12.184a3.753,3.753,0,0,0-1.09-2.648L45.516,1.6a3.8,3.8,0,0,0-5.276,0L37.447,4.367a1.857,1.857,0,0,0-2.638,0l-5.277,5.3a1.882,1.882,0,0,0,0,2.651l.046.046L12.314,29.7a2.829,2.829,0,0,0-.811,1.758L10.9,39.323l-.651,4.606.222.75.711.317h.091l4.586-.691,7.882-.582a2.792,2.792,0,0,0,1.768-.815l17.3-17.3a1.857,1.857,0,0,0,2.583,0l5.276-5.3a1.876,1.876,0,0,0,0-2.648l2.763-2.779a3.749,3.749,0,0,0,1.09-2.694"/><path class="cls-8" d="M31.12,18.7,28.472,21.34a.934.934,0,1,0,1.312,1.322l2.639-2.651a.934.934,0,0,0-1.313-1.32m12.3-1.751-1.3,1.332a.934.934,0,1,0,1.315,1.319l1.313-1.319A.941.941,0,0,0,44.688,17a.926.926,0,0,0-1.264-.046Zm-3.293-3.3L38.8,14.956a.936.936,0,0,0,.39,1.621.917.917,0,0,0,.923-.3l1.316-1.323a.934.934,0,0,0-1.316-1.319m-3.3-3.316L35.5,11.641a.938.938,0,0,0,.376,1.646.926.926,0,0,0,.936-.334l1.316-1.319a.938.938,0,0,0-.052-1.27.923.923,0,0,0-1.264-.052Z"/></svg>