<?xml version="1.0" encoding="utf-8"?>
<!-- Generator: Adobe Illustrator 25.4.1, SVG Export Plug-In . SVG Version: 6.00 Build 0)  -->
<svg version="1.1" id="Layer_1" xmlns="http://www.w3.org/2000/svg" xmlns:xlink="http://www.w3.org/1999/xlink" x="0px" y="0px"
	 viewBox="0 0 66 76" style="enable-background:new 0 0 66 76;" xml:space="preserve">
<style type="text/css">
	.st0{fill:#3E386E;}
	.st1{fill:#5F4B8A;}
	.st2{fill:#8C60A7;}
	.st3{fill:#A783BB;}
	.st4{fill:#6D72B5;}
	.st5{fill:#F5D4E1;}
</style>
<g id="Layer_2_00000176766104453636486050000016870115796480994992_">
	<g id="레이어_1">
		<polygon class="st0" points="33,38 65.9,19 65.9,57 33,76 		"/>
		<polygon class="st1" points="33,76 0.1,57 0.1,19 33,38 		"/>
		<polygon class="st2" points="65.9,19 33,0 0.1,19 33,38 		"/>
		<polygon class="st3" points="16.5,37.8 19.4,45.1 26,49.1 21.3,51.5 22.4,58.6 16.5,52.8 10.7,53.2 11.8,47.2 7,40.4 13.6,42.4 		
			"/>
		<polygon class="st4" points="49.5,37.8 46.6,45.1 40.1,49.1 44.8,51.5 43.7,58.6 49.5,52.8 55.4,53.2 54.3,47.2 59,40.4 
			52.5,42.4 		"/>
		<polygon class="st5" points="32.8,9.7 36.1,14.9 43.5,15.7 38.1,19.8 39.4,25.6 32.7,23 26.1,25.8 27.4,20 22,15.9 29.4,15 		"/>
	</g>
</g>
</svg>
