<svg xmlns="http://www.w3.org/2000/svg" viewBox="0 0 142.57 94.78"><defs><style>.cls-1{fill:#46946c;}.cls-2{fill:#fff;}.cls-3{fill:#fafafb;}</style></defs><g id="레이어_2" data-name="레이어 2"><g id="레이어_1-2" data-name="레이어 1"><path class="cls-1" d="M98.35.1a47.24,47.24,0,0,0-36,13.16A37.59,37.59,0,0,1,29.45,22.8a25.72,25.72,0,0,0-5.85-.37A25,25,0,1,0,29.94,71.9c11.92-2.4,24,1.84,32.91,10.15A47.4,47.4,0,1,0,98.35.1"/><path class="cls-2" d="M119.76,72.34a34.8,34.8,0,1,0-49.22,0,34.79,34.79,0,0,0,49.22,0"/><path class="cls-3" d="M12.61,44.08a2.77,2.77,0,0,1,1.25-2.38,8.67,8.67,0,0,1,4.71-1,8.63,8.63,0,0,1,4.7,1,2.77,2.77,0,0,1,1.25,2.38,2.66,2.66,0,0,1-1.25,2.35,6.24,6.24,0,0,1-2.86.94v1.06h2.38a6,6,0,0,0,3.65-.77V36.3h3.65v6.39h3.07v3.1H30.09v6H26.44V50.32c-.77.65-2.07.89-4.42.89H11.87V48.43h4.92v-1a6.46,6.46,0,0,1-2.93-1A2.66,2.66,0,0,1,12.61,44.08Zm4.16-6.6V35.66h3.64v1.82h4.64v2.64H12.11V37.48ZM13.21,55.27V52.46H30.09v6.36H26.44V55.27ZM16,44.08a.58.58,0,0,0,.34.53,4.52,4.52,0,0,0,2.21.38,4.47,4.47,0,0,0,2.2-.38.61.61,0,0,0,.34-.53.67.67,0,0,0-.34-.55,4.72,4.72,0,0,0-2.2-.38,4.77,4.77,0,0,0-2.21.38A.63.63,0,0,0,16,44.08Z"/><path class="cls-3" d="M34.12,42.71a6.78,6.78,0,0,1,1.94-5.23,6,6,0,0,1,4-1.32,6,6,0,0,1,4,1.32A6.73,6.73,0,0,1,46,42.71,6.73,6.73,0,0,1,44.1,48a5.92,5.92,0,0,1-4,1.34,6,6,0,0,1-4-1.34A6.77,6.77,0,0,1,34.12,42.71ZM52.86,55.53v3H35.68v-7.9h3.64v4.85ZM37.65,42.71a4.11,4.11,0,0,0,.81,2.88,2.08,2.08,0,0,0,1.61.65,2,2,0,0,0,1.61-.65,4,4,0,0,0,.84-2.88,4.14,4.14,0,0,0-.84-2.88,2,2,0,0,0-1.61-.62,2.1,2.1,0,0,0-1.61.62A4.25,4.25,0,0,0,37.65,42.71ZM52.5,36.3V51.86H48.85V36.3Z"/><path class="cls-1" d="M94.2,67.34V36.71L86,40.41V33.59l9.27-4.22h6.58v38Z"/></g></g></svg>