<svg xmlns="http://www.w3.org/2000/svg" viewBox="0 0 142.57 94.78"><defs><style>.cls-1{fill:#4780bb;}.cls-2{fill:#fff;}.cls-3{fill:#f7f7f7;}</style></defs><g id="레이어_2" data-name="레이어 2"><g id="레이어_1-2" data-name="레이어 1"><path class="cls-1" d="M98.35.1a47.24,47.24,0,0,0-36,13.16A37.59,37.59,0,0,1,29.45,22.8a25.72,25.72,0,0,0-5.85-.37A25,25,0,1,0,29.94,71.9c11.92-2.4,24,1.84,32.91,10.15A47.4,47.4,0,1,0,98.35.1"/><path class="cls-2" d="M119.76,72.34a34.8,34.8,0,1,0-49.22,0,34.79,34.79,0,0,0,49.22,0"/><path class="cls-3" d="M12.61,42.9A2.12,2.12,0,0,1,13.69,41a9.36,9.36,0,0,1,4.88-1,9.39,9.39,0,0,1,4.87,1,2.12,2.12,0,0,1,1.08,1.87,2.16,2.16,0,0,1-1.08,1.88,7,7,0,0,1-3,.86v.82h2.38c1.82,0,2.9-.19,3.65-.77V36.3h3.65v5.14h3.07v3.1H30.09v4.65H26.44v-1.1c-.77.62-2.07.89-4.42.89H11.87V46.46h4.92v-.79a6.79,6.79,0,0,1-3.1-.89A2.16,2.16,0,0,1,12.61,42.9Zm4.16-5.78V35.66h3.64v1.46h4.64v2.47H12.11V37.12ZM30.09,55.48h-13v.79H30.35V58.7H13.48V53.08h13v-.79h-13V49.87H30.09ZM16,42.9c0,.15.1.24.26.34a6.78,6.78,0,0,0,2.29.22,6.74,6.74,0,0,0,2.28-.22c.16-.1.26-.19.26-.34a.36.36,0,0,0-.26-.33,5.94,5.94,0,0,0-2.28-.24,6,6,0,0,0-2.29.24A.36.36,0,0,0,16,42.9Z"/><path class="cls-3" d="M52.38,36.55v3H38.73v2.28H52.5v2.9h-7v1.56h8.23v3h-20v-3h8.16V44.68H35.08V36.55ZM34.72,54.67a3.4,3.4,0,0,1,1.82-3.12c1.58-.92,4.06-1.28,7.23-1.28s5.64.36,7.22,1.28a3.58,3.58,0,0,1,0,6.24c-1.58.93-4.08,1.27-7.22,1.27s-5.65-.34-7.23-1.27A3.38,3.38,0,0,1,34.72,54.67Zm3.62,0a.91.91,0,0,0,.58.86c.79.46,2.37.6,4.85.6s4-.14,4.82-.6a.93.93,0,0,0,.58-.86,1,1,0,0,0-.58-.89c-.79-.43-2.38-.55-4.82-.55s-4.06.12-4.85.55A1,1,0,0,0,38.34,54.67Z"/><path class="cls-1" d="M98.39,38.54c-.28-2.54-1.58-3.94-4.08-3.94-3.5,0-5,3.32-5.13,11.28,1.2-2,3.6-3.26,6.62-3.26,6.24,0,11.09,4.61,11.09,12.58s-5.14,12.72-12.58,12.72c-4.32,0-8.06-1.63-10.27-5.24-2.11-3.31-2.59-7.82-2.59-13.29,0-14.84,4-20.79,13-20.79,6.62,0,11,3.6,11.71,9.94ZM94.22,61.68c3.17,0,5-2.35,5-6.53s-1.82-6.53-5-6.53-5,2.35-5,6.53S91.05,61.68,94.22,61.68Z"/></g></g></svg>