<?xml version="1.0" encoding="utf-8"?>
<!-- Generator: Adobe Illustrator 26.0.2, SVG Export Plug-In . SVG Version: 6.00 Build 0)  -->
<svg version="1.1" id="레이어_1" xmlns="http://www.w3.org/2000/svg" xmlns:xlink="http://www.w3.org/1999/xlink" x="0px"
	 y="0px" viewBox="0 0 51 44.3" style="enable-background:new 0 0 51 44.3;" xml:space="preserve">
<path style="fill:#DFCE94;" d="M49.5,25.2l0.2-0.3l0.3-0.6l0.1-0.6l0.2-0.4c0.1-0.8,0.1-1.5,0-2.1l-0.2-0.6L50.1,20l-0.3-0.4
	l-0.2-0.4l-0.7-0.9L32.6,2.1c-2.1-2.2-5.6-2.2-7.7,0c-2.1,2.1-2.1,5.6,0,7.7l6.8,6.8H6c-3,0-5.5,2.5-5.5,5.5S3,27.6,6,27.6h25.7
	l-6.8,6.8c-2.1,2.2-2.1,5.7,0,7.8c1.1,1,2.5,1.6,3.9,1.6c1.3,0,2.8-0.6,3.8-1.6l16.2-16.2L49.5,25.2"/>
</svg>
