<svg xmlns="http://www.w3.org/2000/svg" viewBox="0 0 67.45 68.98"><defs><style>.cls-1{fill:#7864bc;}.cls-2{fill:#036;}.cls-3{fill:#fff;}</style></defs><g id="레이어_2" data-name="레이어 2"><g id="레이어_1-2" data-name="레이어 1"><path class="cls-1" d="M6.09,16.4a3.3,3.3,0,0,1,.81,1.1,3.07,3.07,0,0,1,.29,1.29,3.44,3.44,0,0,1-.25,1.36,4.35,4.35,0,0,1-.81,1.29,4.22,4.22,0,0,1-1.2.95,3.43,3.43,0,0,1-1.32.41,3.32,3.32,0,0,1-1.32-.15A3.13,3.13,0,0,1,1.11,22a3.34,3.34,0,0,1-.82-1.1,3.35,3.35,0,0,1,0-2.66,4.31,4.31,0,0,1,.82-1.29,4.37,4.37,0,0,1,1.18-1,3.73,3.73,0,0,1,1.32-.41,3.28,3.28,0,0,1,1.32.15A3.34,3.34,0,0,1,6.09,16.4ZM2.37,20.56A1.57,1.57,0,0,0,3.66,21a2,2,0,0,0,1.23-.68,1.94,1.94,0,0,0,.53-1.28,1.58,1.58,0,0,0-.59-1.24,1.63,1.63,0,0,0-1.3-.46A1.92,1.92,0,0,0,2.32,18a1.92,1.92,0,0,0-.55,1.29A1.62,1.62,0,0,0,2.37,20.56Zm2.49-7.63a.65.65,0,0,1-.22-.58A1.19,1.19,0,0,1,5,11.7a1.29,1.29,0,0,1,.63-.4.61.61,0,0,1,.6.15L8,13l1.14-1.27a.55.55,0,0,1,.52-.22,1.08,1.08,0,0,1,.54.28,1.23,1.23,0,0,1,.36.52.57.57,0,0,1-.16.55L9.21,14.16l1.64,1.46a.72.72,0,0,1,.27.62,1.23,1.23,0,0,1-.34.67,1.09,1.09,0,0,1-.62.39.69.69,0,0,1-.63-.2Zm10.73,6.93a.62.62,0,0,1,.51-.24,1,1,0,0,1,.53.25,1,1,0,0,1,.33.53.6.6,0,0,1-.18.53L12,26.24a1.55,1.55,0,0,1-.91.62,1.38,1.38,0,0,1-.94-.46L9,25.3a1.5,1.5,0,0,1-.53-.77c0-.23.1-.52.42-.88L12.12,20c.1-.11.15-.2.14-.26a.35.35,0,0,0-.14-.22l-.26-.24a.39.39,0,0,0-.23-.12c-.06,0-.14.06-.25.18L7.73,23.4a.58.58,0,0,1-.5.23,1,1,0,0,1-.54-.27,1,1,0,0,1-.32-.5.57.57,0,0,1,.17-.53L11,17.39a1.46,1.46,0,0,1,.89-.58,1.26,1.26,0,0,1,.85.4L14,18.34a1.4,1.4,0,0,1,.56.85,1.44,1.44,0,0,1-.48.95L10.85,23.7a.44.44,0,0,0-.14.24.29.29,0,0,0,.12.2l.27.25c.11.09.19.13.25.12s.13-.06.22-.15Z"/><path class="cls-1" d="M13.22,8.57a.61.61,0,0,1-.57,0,1.15,1.15,0,0,1-.44-.5,1.08,1.08,0,0,1-.11-.62A.63.63,0,0,1,12.46,7l6.65-3.25a1.68,1.68,0,0,1,1.2-.22,1.54,1.54,0,0,1,.79.85l.71,1.46c.15.3.3.63.44,1s.28.7.4,1.06.21.69.3,1a7.71,7.71,0,0,1,.17.9.94.94,0,0,1-.2.7,1,1,0,0,1-.62.38,1,1,0,0,1-.71-.07.79.79,0,0,1-.42-.63,13.59,13.59,0,0,0-.44-1.65,14.39,14.39,0,0,0-.67-1.64l-.51-1a.45.45,0,0,0-.19-.24.47.47,0,0,0-.3.08Zm3.54,2.15a.59.59,0,0,1,0-.63,1.61,1.61,0,0,1,.61-.49,1.5,1.5,0,0,1,.74-.17.57.57,0,0,1,.52.36l1.77,3.62,5.51-2.69a.55.55,0,0,1,.57,0,1.1,1.1,0,0,1,.4.47,1.19,1.19,0,0,1,.14.63.57.57,0,0,1-.35.44L15.46,17.76a.54.54,0,0,1-.55,0,1.11,1.11,0,0,1-.43-.49,1.12,1.12,0,0,1-.11-.61.55.55,0,0,1,.33-.45l3.83-1.87Z"/><path class="cls-2" d="M29.79,4a3.38,3.38,0,0,1,.31-1.4,3.07,3.07,0,0,1,.81-1.08A3.68,3.68,0,0,1,32.14.86,4.51,4.51,0,0,1,33.69.64a4.38,4.38,0,0,1,1.53.29,3.5,3.5,0,0,1,1.19.73,3.31,3.31,0,0,1,.77,1.11,3.61,3.61,0,0,1,.25,1.41,3.5,3.5,0,0,1-.31,1.39,3.08,3.08,0,0,1-.81,1.08,3.85,3.85,0,0,1-1.22.7,4.49,4.49,0,0,1-1.54.22A4.44,4.44,0,0,1,32,7.28a3.47,3.47,0,0,1-1.2-.74A3.26,3.26,0,0,1,30,5.43,3.39,3.39,0,0,1,29.79,4Zm8.37,5.49a.66.66,0,0,1,.3-.55,1.16,1.16,0,0,1,.69-.19,1.22,1.22,0,0,1,.71.22.62.62,0,0,1,.29.56v.5a3.15,3.15,0,0,0,.47,1.82,3.25,3.25,0,0,0,1.5,1.19.66.66,0,0,1,.41.45.94.94,0,0,1,0,.62,1,1,0,0,1-.38.49.84.84,0,0,1-.71.06,3,3,0,0,1-.66-.28,4.87,4.87,0,0,1-.68-.47,3.92,3.92,0,0,1-.6-.62A2.65,2.65,0,0,1,39,12.6a2.84,2.84,0,0,1-.48.79,4.65,4.65,0,0,1-.66.67,3.24,3.24,0,0,1-.71.45,1.41,1.41,0,0,1-.65.15,1.53,1.53,0,0,1-.62-.17,3.52,3.52,0,0,1-.69-.47,4.8,4.8,0,0,1-.63-.7,4.43,4.43,0,0,1-.48-.85,2.88,2.88,0,0,1-.41.71,5.17,5.17,0,0,1-.6.64,5.3,5.3,0,0,1-.73.51,3,3,0,0,1-.76.3.7.7,0,0,1-.59-.1,1.23,1.23,0,0,1-.36-.46,1.07,1.07,0,0,1-.06-.61A.61.61,0,0,1,31,13,3.39,3.39,0,0,0,33.1,10V9.44a.67.67,0,0,1,.31-.55,1.37,1.37,0,0,1,1.41,0,.64.64,0,0,1,.28.55V10a2.57,2.57,0,0,0,.12.85,3.77,3.77,0,0,0,.34.8,4,4,0,0,0,.49.68,1.83,1.83,0,0,0,.56.44,2.68,2.68,0,0,0,.57-.46,3.62,3.62,0,0,0,.5-.65,3.54,3.54,0,0,0,.34-.77,3,3,0,0,0,.14-.82ZM31.68,4.07a1.81,1.81,0,0,0,.14.74,1.56,1.56,0,0,0,.39.58,1.84,1.84,0,0,0,.6.37,2.14,2.14,0,0,0,.76.14,2.09,2.09,0,0,0,.76-.11,1.68,1.68,0,0,0,.61-.35,1.5,1.5,0,0,0,.43-.56,1.87,1.87,0,0,0,0-1.49,1.82,1.82,0,0,0-.4-.58,2,2,0,0,0-.61-.38,2.18,2.18,0,0,0-.75-.14,2.37,2.37,0,0,0-.76.11,1.62,1.62,0,0,0-.61.36,1.56,1.56,0,0,0-.42.56A1.8,1.8,0,0,0,31.68,4.07Zm8-3.34A.62.62,0,0,1,40,.18,1.27,1.27,0,0,1,40.69,0a1.29,1.29,0,0,1,.7.21.61.61,0,0,1,.27.56l-.13,6.88a.79.79,0,0,1-.29.65,1.37,1.37,0,0,1-1.44,0,.78.78,0,0,1-.27-.66Z"/><path class="cls-2" d="M47.42,2.33A1.17,1.17,0,0,1,48,2.8a.67.67,0,0,1,0,.63L45.84,8.51a.53.53,0,0,0-.08.34c0,.07.11.13.28.2.81.35,1.59.66,2.36.92a14.89,14.89,0,0,0,2.27.59.6.6,0,0,1,.44.31.86.86,0,0,1,.08.6,1.14,1.14,0,0,1-.3.59.54.54,0,0,1-.51.14A11.91,11.91,0,0,1,49.11,12c-.45-.11-.93-.25-1.43-.41s-1-.35-1.56-.57-1.06-.44-1.6-.68a1.55,1.55,0,0,1-.92-.82,1.9,1.9,0,0,1,.19-1.28L46.2,2.64a.63.63,0,0,1,.48-.41A1.23,1.23,0,0,1,47.42,2.33Zm7.26,2.94a.64.64,0,0,1,.48-.41,1.17,1.17,0,0,1,.72.1,1.22,1.22,0,0,1,.6.47.67.67,0,0,1,0,.63L55.1,9.34l1.58.68a.55.55,0,0,1,.37.43,1.08,1.08,0,0,1-.1.62,1.27,1.27,0,0,1-.38.51.57.57,0,0,1-.57,0l-1.58-.69-2.59,6a.7.7,0,0,1-.51.47,1.31,1.31,0,0,1-.75-.12A1.11,1.11,0,0,1,50,16.8a.76.76,0,0,1,0-.69Z"/><path class="cls-2" d="M53.47,16.85a.55.55,0,0,1-.18-.53,1.16,1.16,0,0,1,.33-.55,1,1,0,0,1,.54-.31.55.55,0,0,1,.53.18l2.19,2.22,2.29-2.26a3.27,3.27,0,0,1,.21-1.46,3.47,3.47,0,0,1,.86-1.3A3.53,3.53,0,0,1,61.51,12,3.26,3.26,0,0,1,63,11.8a4.21,4.21,0,0,1,1.52.43A5.42,5.42,0,0,1,66,13.34,5.59,5.59,0,0,1,67,14.82a3.89,3.89,0,0,1,.41,1.52,3.36,3.36,0,0,1-.23,1.44,3.64,3.64,0,0,1-.85,1.27A3.78,3.78,0,0,1,65,19.9a3.27,3.27,0,0,1-1.49.19l-2.26,2.23,2.19,2.22a.55.55,0,0,1,.17.54,1.1,1.1,0,0,1-.32.53,1.14,1.14,0,0,1-.56.33.54.54,0,0,1-.52-.19Zm7.2,1.7A6.78,6.78,0,0,1,60,17.7l-1.63,1.61,1.54,1.57,1.64-1.61A6.2,6.2,0,0,1,60.67,18.55ZM65,17.66a2,2,0,0,0,.48-.73,1.8,1.8,0,0,0,.1-.79,2.15,2.15,0,0,0-.25-.82,3.22,3.22,0,0,0-.57-.79,3.1,3.1,0,0,0-.8-.6,2.13,2.13,0,0,0-.81-.26,1.82,1.82,0,0,0-.8.09,2,2,0,0,0-.73.47A1.81,1.81,0,0,0,61,15.74a2.8,2.8,0,0,0,.85,1.62,2.68,2.68,0,0,0,1.6.86A1.79,1.79,0,0,0,65,17.66Z"/><path class="cls-1" d="M60.33,43.49A25.25,25.25,0,1,0,34.84,69H60.33V43.49Z"/><path class="cls-3" d="M33.29,56.17V36l-5.22,2.34v-4.9l6.08-2.82h5.06V56.17Z"/></g></g></svg>