<?xml version="1.0" encoding="utf-8"?>
<!-- Generator: Adobe Illustrator 26.0.1, SVG Export Plug-In . SVG Version: 6.00 Build 0)  -->
<svg version="1.1" id="레이어_1" xmlns="http://www.w3.org/2000/svg" xmlns:xlink="http://www.w3.org/1999/xlink" x="0px"
	 y="0px" viewBox="0 0 61 44.83" style="enable-background:new 0 0 61 44.83;" xml:space="preserve">
<path style="fill:#35B2A4;" d="M58.7,26.32c2.4-2.07,2.4-5.75,0-7.78L38.74,1.46c-3.37-2.62-8.28-0.24-8.28,4.03v4.26
	c0,0.93-0.77,1.7-1.71,1.7H3.91c-1.88,0-3.41,1.53-3.41,3.41v15.12c0,1.89,1.53,3.4,3.41,3.4h24.83c0.94,0,1.71,0.78,1.71,1.72v4.25
	c0,4.25,4.91,6.66,8.28,4.03"/>
<path style="fill:#BBBCBE;" d="M59.86,24.9c-0.29,0.52-0.67,1-1.16,1.42C59.19,25.9,59.57,25.42,59.86,24.9"/>
<path style="fill:#24887D;" d="M60.17,20.64c-0.3,0.78-0.77,1.54-1.47,2.14L38.73,39.84c-0.97,0.75-2.06,1.09-3.13,1.09
	c-2.65,0-5.15-2.09-5.15-5.13v3.54c0,3.03,2.49,5.12,5.14,5.12c1.07,0,2.17-0.34,3.14-1.1L58.7,26.32c0.48-0.42,0.87-0.9,1.16-1.42
	C60.58,23.58,60.67,22.02,60.17,20.64 M0.5,26.43v3.54c0,1.89,1.53,3.4,3.41,3.4h24.83c0.94,0,1.71,0.78,1.71,1.72v-3.54
	c0-0.96-0.77-1.7-1.71-1.7H3.91C2.03,29.85,0.5,28.32,0.5,26.43"/>
<path style="fill:#A0D3CB;" d="M37.63,3.33c-0.54,0-1.08,0.23-1.45,0.68c-0.69,0.81-0.6,2.03,0.2,2.7l16.93,14.44
	c0.35,0.31,0.81,0.47,1.25,0.47c0.54,0,1.08-0.24,1.47-0.69c0.69-0.8,0.6-2.03-0.21-2.71L38.89,3.8
	C38.52,3.49,38.08,3.33,37.63,3.33"/>
<path style="fill:#A0D3CB;" d="M28.58,12.79H4.6c-1.06,0-1.92,0.87-1.92,1.91c0,1.06,0.86,1.93,1.92,1.93h23.98
	c1.06,0,1.92-0.87,1.92-1.93C30.5,13.66,29.64,12.79,28.58,12.79"/>
</svg>
