<?xml version="1.0" encoding="utf-8"?>
<!-- Generator: Adobe Illustrator 26.0.2, SVG Export Plug-In . SVG Version: 6.00 Build 0)  -->
<svg version="1.1" id="레이어_1" xmlns="http://www.w3.org/2000/svg" xmlns:xlink="http://www.w3.org/1999/xlink" x="0px"
	 y="0px" viewBox="0 0 123 50.4" style="enable-background:new 0 0 123 50.4;" xml:space="preserve">
<path style="fill:#D2BB8A;" d="M27,0.2c0,0-14.5,0-14.5,14.5v21c0,0,0,14.5,14.5,14.5h81c0,0,14.5,0,14.5-14.5v-21
	c0,0,0-14.5-14.5-14.5"/>
<line style="fill:none;stroke:#BA880B;stroke-width:5.1203;stroke-linecap:round;stroke-linejoin:round;" x1="18.7" y1="24.9" x2="3" y2="47.6"/>
<path style="fill:#FFFFFF;" d="M11.3,35.7c5.8,4.1,13.9,2.6,18-3.4c4.1-5.9,2.8-14-3-18.1c-5.8-4.1-13.9-2.6-18,3.4
	C4.1,23.5,5.4,31.6,11.3,35.7"/>
<path style="fill:none;stroke:#BA880B;stroke-width:5.1203;stroke-linecap:round;stroke-linejoin:round;" d="M11.3,35.7
	c5.8,4.1,13.9,2.6,18-3.4c4.1-5.9,2.8-14-3-18.1c-5.8-4.1-13.9-2.6-18,3.4C4.1,23.5,5.4,31.6,11.3,35.7z"/>
<g>
	<path style="fill:#231815;" d="M59.2,25.9v2.9h10.2v8.6H48.8v2.8h21.7v3.2H44.7v-8.8h20.7v-2.6H44.7v-3.1h10.4v-2.9H40.8v-3.2h32.7
		v3.2H59.2z M42.3,18.2c7.1-0.4,11.6-2.5,12.4-5.4H44.1V9.7h11V6.5h4.1v3.2h11.1v3.2H59.6c0.8,2.9,5.3,5,12.4,5.4l-1.1,3.2
		c-6.4-0.5-11.4-2.3-13.7-5.4c-2.3,3.1-7.2,4.9-13.6,5.4L42.3,18.2z"/>
	<path style="fill:#231815;" d="M89.1,18.4c0,5.8,3.5,11.8,9,14.4L95.9,36c-4.1-1.9-7.2-5.7-8.8-10.2c-1.6,4.8-4.6,8.9-8.8,10.9
		l-2.3-3.3c5.5-2.7,9-8.9,9-15v-2.1h-7.8v-3.4H85V7.4h4.2v5.5h7.6v3.4h-7.7V18.4z M106.2,6.5v37.2h-4.1V24.6h-7.2v-3.4h7.2V6.5
		H106.2z"/>
</g>
</svg>
