<?xml version="1.0" encoding="utf-8"?>
<!-- Generator: Adobe Illustrator 25.2.0, SVG Export Plug-In . SVG Version: 6.00 Build 0)  -->
<svg version="1.1" id="레이어_1" xmlns="http://www.w3.org/2000/svg" xmlns:xlink="http://www.w3.org/1999/xlink" x="0px"
	 y="0px" viewBox="0 0 46.7 45.2" style="enable-background:new 0 0 46.7 45.2;" xml:space="preserve">
<g>
	<path style="fill:#FEDE84;" d="M0,22.9C0,10.5,10,0.6,22.3,0.6c12.3,0,22.3,10,22.3,22.3c0,12.3-10,22.3-22.3,22.3
		C10,45.2,0,35.2,0,22.9"/>
	<path style="fill:none;stroke:#E4007F;stroke-width:1.1024;stroke-miterlimit:10;" d="M22.3,0.6c10.5,0,19.3,7.3,21.7,17"/>
	<polygon style="fill:#E4007F;" points="44.6,22.9 40.6,15.8 43.9,17.2 46.7,15 	"/>
	
		<line style="fill:none;stroke:#00A0E9;stroke-width:0.4725;stroke-dasharray:3.1498,1.5749;" x1="22.3" y1="45.2" x2="22.3" y2="22.7"/>
	
		<line style="fill:none;stroke:#00A0E9;stroke-width:0.4725;stroke-dasharray:3.1498,1.5749;" x1="0" y1="22.9" x2="22.5" y2="22.9"/>
	<line style="fill:none;stroke:#000000;stroke-width:0.4725;" x1="22.3" y1="0.6" x2="22.3" y2="22.7"/>
	<line style="fill:none;stroke:#000000;stroke-width:0.4725;" x1="22.5" y1="22.9" x2="44.6" y2="22.9"/>
</g>
<g>
	<path style="fill:#FEDE84;" d="M44.6,210.4c0-12.3-10-22.3-22.3-22.3C10,188.1,0,198,0,210.4c0,12.3,10,22.3,22.3,22.3
		C34.6,232.7,44.6,222.7,44.6,210.4"/>
	<path style="fill:none;stroke:#E4007F;stroke-width:1.1024;stroke-miterlimit:10;" d="M22.3,188.1c-10.5,0-19.3,7.3-21.7,17"/>
	<polygon style="fill:#E4007F;" points="0,210.4 4.1,203.3 0.8,204.7 -2,202.5 	"/>
	
		<line style="fill:none;stroke:#00A0E9;stroke-width:0.4725;stroke-dasharray:3.1498,1.5749;" x1="22.3" y1="232.7" x2="22.3" y2="210.2"/>
	
		<line style="fill:none;stroke:#00A0E9;stroke-width:0.4725;stroke-dasharray:3.1498,1.5749;" x1="44.6" y1="210.4" x2="22.2" y2="210.4"/>
	<line style="fill:none;stroke:#000000;stroke-width:0.4725;" x1="22.3" y1="188.1" x2="22.3" y2="210.2"/>
	<line style="fill:none;stroke:#000000;stroke-width:0.4725;" x1="22.2" y1="210.4" x2="0" y2="210.4"/>
</g>
<g>
	<path style="fill:#FEDE84;" d="M0,85.4C0,73,10,63.1,22.3,63.1c12.3,0,22.3,10,22.3,22.3c0,12.3-10,22.3-22.3,22.3
		C10,107.7,0,97.7,0,85.4"/>
	
		<line style="fill:none;stroke:#00A0E9;stroke-width:0.4725;stroke-dasharray:3.1498,1.5749;" x1="0" y1="85.4" x2="44.5" y2="85.4"/>
	<line style="fill:none;stroke:#000000;stroke-width:0.4725;" x1="22.3" y1="63.1" x2="22.3" y2="107.5"/>
	<path style="fill:none;stroke:#E4007F;stroke-width:1.1024;stroke-miterlimit:10;" d="M22.3,63.1c12.3,0,22.3,10,22.3,22.3
		c0,10.5-7.3,19.3-17,21.7"/>
	<polygon style="fill:#E4007F;" points="22.3,107.7 29.4,103.6 28,106.9 30.2,109.7 	"/>
</g>
<g>
	<path style="fill:#FEDE84;" d="M44.7,147.9c0-12.3-10-22.3-22.3-22.3C10,125.6,0,135.5,0,147.9s10,22.3,22.3,22.3
		C34.7,170.2,44.7,160.2,44.7,147.9"/>
	<path style="fill:none;stroke:#E4007F;stroke-width:1.1024;stroke-miterlimit:10;" d="M0.4,152.1c2,10.3,11,18.1,21.9,18.1
		c12.3,0,22.3-10,22.3-22.3"/>
	<path style="fill:none;stroke:#E4007F;stroke-width:1.1024;stroke-miterlimit:10;" d="M44.7,147.9c0-12.3-10-22.3-22.3-22.3"/>
	<polygon style="fill:#E4007F;" points="0,147.9 -2,155.7 0.8,153.6 4.1,154.9 	"/>
	
		<line style="fill:none;stroke:#00A0E9;stroke-width:0.4725;stroke-dasharray:3.1498,1.5749;" x1="22.3" y1="170.2" x2="22.3" y2="147.7"/>
	
		<line style="fill:none;stroke:#00A0E9;stroke-width:0.4725;stroke-dasharray:3.1498,1.5749;" x1="44.7" y1="147.9" x2="22.2" y2="147.9"/>
	<line style="fill:none;stroke:#000000;stroke-width:0.4725;" x1="22.3" y1="125.6" x2="22.3" y2="147.8"/>
	<line style="fill:none;stroke:#000000;stroke-width:0.4725;" x1="22.2" y1="147.9" x2="0" y2="147.9"/>
</g>
<g style="display:none;">
	<path style="display:inline;fill:none;stroke:#A5BBC3;stroke-width:1.5749;stroke-linejoin:bevel;stroke-miterlimit:10;" d="
		M-6.9,241.6c-2.5,0-4.5-2-4.5-4.5V-3.9c0-2.5,2-4.5,4.5-4.5h58c2.5,0,4.5,2,4.5,4.5v241.1c0,2.5-2,4.5-4.5,4.5H-6.9z"/>
</g>
<g>
</g>
<g>
</g>
<g>
</g>
<g>
</g>
<g>
</g>
<g>
</g>
</svg>
