<?xml version="1.0" encoding="utf-8"?>
<!-- Generator: Adobe Illustrator 25.2.0, SVG Export Plug-In . SVG Version: 6.00 Build 0)  -->
<svg version="1.1" id="레이어_1" xmlns="http://www.w3.org/2000/svg" xmlns:xlink="http://www.w3.org/1999/xlink" x="0px"
	 y="0px" viewBox="0 0 45.2 47.2" style="enable-background:new 0 0 45.2 47.2;" xml:space="preserve">
<g>
	<path style="fill:#FEDE84;" d="M0-39.6C0-52,10-61.9,22.3-61.9c12.3,0,22.3,10,22.3,22.3c0,12.3-10,22.3-22.3,22.3
		C10-17.3,0-27.3,0-39.6"/>
	<path style="fill:none;stroke:#E4007F;stroke-width:1.1024;stroke-miterlimit:10;" d="M22.3-61.9c10.5,0,19.3,7.3,21.7,17"/>
	<polygon style="fill:#E4007F;" points="44.6,-39.6 40.6,-46.7 43.9,-45.3 46.7,-47.5 	"/>
	
		<line style="fill:none;stroke:#00A0E9;stroke-width:0.4725;stroke-dasharray:3.1498,1.5749;" x1="22.3" y1="-17.3" x2="22.3" y2="-39.8"/>
	
		<line style="fill:none;stroke:#00A0E9;stroke-width:0.4725;stroke-dasharray:3.1498,1.5749;" x1="0" y1="-39.6" x2="22.5" y2="-39.6"/>
	<line style="fill:none;stroke:#000000;stroke-width:0.4725;" x1="22.3" y1="-61.9" x2="22.3" y2="-39.8"/>
	<line style="fill:none;stroke:#000000;stroke-width:0.4725;" x1="22.5" y1="-39.6" x2="44.6" y2="-39.6"/>
</g>
<g>
	<path style="fill:#FEDE84;" d="M44.7,147.9c0-12.3-10-22.3-22.3-22.3C10,125.6,0,135.5,0,147.9c0,12.3,10,22.3,22.3,22.3
		C34.6,170.2,44.7,160.2,44.7,147.9"/>
	<path style="fill:none;stroke:#E4007F;stroke-width:1.1024;stroke-miterlimit:10;" d="M22.3,125.6c-10.5,0-19.3,7.3-21.7,17"/>
	<polygon style="fill:#E4007F;" points="0,147.9 4.1,140.8 0.8,142.2 -2,140 	"/>
	
		<line style="fill:none;stroke:#00A0E9;stroke-width:0.4725;stroke-dasharray:3.1498,1.5749;" x1="22.3" y1="170.2" x2="22.3" y2="147.7"/>
	
		<line style="fill:none;stroke:#00A0E9;stroke-width:0.4725;stroke-dasharray:3.1498,1.5749;" x1="44.7" y1="147.9" x2="22.2" y2="147.9"/>
	<line style="fill:none;stroke:#000000;stroke-width:0.4725;" x1="22.3" y1="125.6" x2="22.3" y2="147.7"/>
	<line style="fill:none;stroke:#000000;stroke-width:0.4725;" x1="22.2" y1="147.9" x2="0" y2="147.9"/>
</g>
<g>
	<path style="fill:#FEDE84;" d="M0,22.9C0,10.5,10,0.6,22.3,0.6c12.3,0,22.3,10,22.3,22.3c0,12.3-10,22.3-22.3,22.3
		C10,45.2,0,35.2,0,22.9"/>
	
		<line style="fill:none;stroke:#00A0E9;stroke-width:0.4725;stroke-dasharray:3.1498,1.5749;" x1="0" y1="22.9" x2="44.5" y2="22.9"/>
	<line style="fill:none;stroke:#000000;stroke-width:0.4725;" x1="22.3" y1="0.6" x2="22.3" y2="45"/>
	<path style="fill:none;stroke:#E4007F;stroke-width:1.1024;stroke-miterlimit:10;" d="M22.3,0.6c12.3,0,22.3,10,22.3,22.3
		c0,10.5-7.3,19.3-17,21.7"/>
	<polygon style="fill:#E4007F;" points="22.3,45.2 29.4,41.1 28,44.4 30.2,47.2 	"/>
</g>
<g>
	<path style="fill:#FEDE84;" d="M44.7,85.4c0-12.3-10-22.3-22.3-22.3C10,63.1,0,73,0,85.4s10,22.3,22.3,22.3
		C34.7,107.7,44.7,97.7,44.7,85.4"/>
	<path style="fill:none;stroke:#E4007F;stroke-width:1.1024;stroke-miterlimit:10;" d="M0.4,89.6c2,10.3,11,18.1,21.9,18.1
		c12.3,0,22.3-10,22.3-22.3"/>
	<path style="fill:none;stroke:#E4007F;stroke-width:1.1024;stroke-miterlimit:10;" d="M44.7,85.4c0-12.3-10-22.3-22.3-22.3"/>
	<polygon style="fill:#E4007F;" points="0,85.4 -2,93.2 0.8,91.1 4.1,92.4 	"/>
	
		<line style="fill:none;stroke:#00A0E9;stroke-width:0.4725;stroke-dasharray:3.1498,1.5749;" x1="22.3" y1="107.7" x2="22.3" y2="85.2"/>
	
		<line style="fill:none;stroke:#00A0E9;stroke-width:0.4725;stroke-dasharray:3.1498,1.5749;" x1="44.7" y1="85.4" x2="22.2" y2="85.4"/>
	<line style="fill:none;stroke:#000000;stroke-width:0.4725;" x1="22.3" y1="63.1" x2="22.3" y2="85.2"/>
	<line style="fill:none;stroke:#000000;stroke-width:0.4725;" x1="22.2" y1="85.4" x2="0" y2="85.4"/>
</g>
<g style="display:none;">
	<path style="display:inline;fill:none;stroke:#A5BBC3;stroke-width:1.5749;stroke-linejoin:bevel;stroke-miterlimit:10;" d="
		M-6.9,179.1c-2.5,0-4.5-2-4.5-4.5V-66.4c0-2.5,2-4.5,4.5-4.5h58c2.5,0,4.5,2,4.5,4.5v241.1c0,2.5-2,4.5-4.5,4.5H-6.9z"/>
</g>
<g>
</g>
<g>
</g>
<g>
</g>
<g>
</g>
<g>
</g>
<g>
</g>
</svg>
