<?xml version="1.0" encoding="utf-8"?>
<!-- Generator: Adobe Illustrator 25.2.0, SVG Export Plug-In . SVG Version: 6.00 Build 0)  -->
<svg version="1.1" id="레이어_1" xmlns="http://www.w3.org/2000/svg" xmlns:xlink="http://www.w3.org/1999/xlink" x="0px"
	 y="0px" viewBox="0 0 47.2 45.7" style="enable-background:new 0 0 47.2 45.7;" xml:space="preserve">
<g>
	<path style="fill:#FEDE84;" d="M2-102.1c0-12.3,10-22.3,22.3-22.3c12.3,0,22.3,10,22.3,22.3c0,12.3-10,22.3-22.3,22.3
		C12-79.8,2-89.8,2-102.1"/>
	<path style="fill:none;stroke:#E4007F;stroke-width:1.1024;stroke-miterlimit:10;" d="M24.3-124.4c10.5,0,19.3,7.3,21.7,17"/>
	<polygon style="fill:#E4007F;" points="46.6,-102.1 42.6,-109.2 45.9,-107.8 48.7,-110 	"/>
	
		<line style="fill:none;stroke:#00A0E9;stroke-width:0.4725;stroke-dasharray:3.1498,1.5749;" x1="24.3" y1="-79.8" x2="24.3" y2="-102.3"/>
	
		<line style="fill:none;stroke:#00A0E9;stroke-width:0.4725;stroke-dasharray:3.1498,1.5749;" x1="2" y1="-102.1" x2="24.5" y2="-102.1"/>
	<line style="fill:none;stroke:#000000;stroke-width:0.4725;" x1="24.3" y1="-124.4" x2="24.3" y2="-102.3"/>
	<line style="fill:none;stroke:#000000;stroke-width:0.4725;" x1="24.5" y1="-102.1" x2="46.6" y2="-102.1"/>
</g>
<g>
	<path style="fill:#FEDE84;" d="M46.7,85.4c0-12.3-10-22.3-22.3-22.3C12,63.1,2,73,2,85.4c0,12.3,10,22.3,22.3,22.3
		C36.6,107.7,46.7,97.7,46.7,85.4"/>
	<path style="fill:none;stroke:#E4007F;stroke-width:1.1024;stroke-miterlimit:10;" d="M24.3,63.1c-10.5,0-19.3,7.3-21.7,17"/>
	<polygon style="fill:#E4007F;" points="2,85.4 6.1,78.3 2.8,79.7 0,77.5 	"/>
	
		<line style="fill:none;stroke:#00A0E9;stroke-width:0.4725;stroke-dasharray:3.1498,1.5749;" x1="24.3" y1="107.7" x2="24.3" y2="85.2"/>
	
		<line style="fill:none;stroke:#00A0E9;stroke-width:0.4725;stroke-dasharray:3.1498,1.5749;" x1="46.7" y1="85.4" x2="24.2" y2="85.4"/>
	<line style="fill:none;stroke:#000000;stroke-width:0.4725;" x1="24.3" y1="63.1" x2="24.3" y2="85.2"/>
	<line style="fill:none;stroke:#000000;stroke-width:0.4725;" x1="24.2" y1="85.4" x2="2" y2="85.4"/>
</g>
<g>
	<path style="fill:#FEDE84;" d="M2-39.6C2-52,12-61.9,24.3-61.9c12.3,0,22.3,10,22.3,22.3c0,12.3-10,22.3-22.3,22.3
		C12-17.3,2-27.3,2-39.6"/>
	
		<line style="fill:none;stroke:#00A0E9;stroke-width:0.4725;stroke-dasharray:3.1498,1.5749;" x1="2" y1="-39.6" x2="46.5" y2="-39.6"/>
	<line style="fill:none;stroke:#000000;stroke-width:0.4725;" x1="24.3" y1="-61.9" x2="24.3" y2="-17.5"/>
	<path style="fill:none;stroke:#E4007F;stroke-width:1.1024;stroke-miterlimit:10;" d="M24.3-61.9c12.3,0,22.3,10,22.3,22.3
		c0,10.5-7.3,19.3-17,21.7"/>
	<polygon style="fill:#E4007F;" points="24.3,-17.3 31.4,-21.4 30,-18.1 32.2,-15.3 	"/>
</g>
<g>
	<path style="fill:#FEDE84;" d="M46.7,22.9c0-12.3-10-22.3-22.3-22.3C12,0.6,2,10.5,2,22.9s10,22.3,22.3,22.3
		C36.7,45.2,46.7,35.2,46.7,22.9"/>
	<path style="fill:none;stroke:#E4007F;stroke-width:1.1024;stroke-miterlimit:10;" d="M2.4,27.1c2,10.3,11,18.1,21.9,18.1
		c12.3,0,22.3-10,22.3-22.3"/>
	<path style="fill:none;stroke:#E4007F;stroke-width:1.1024;stroke-miterlimit:10;" d="M46.7,22.9c0-12.3-10-22.3-22.3-22.3"/>
	<polygon style="fill:#E4007F;" points="2,22.9 0,30.7 2.8,28.6 6.1,29.9 	"/>
	
		<line style="fill:none;stroke:#00A0E9;stroke-width:0.4725;stroke-dasharray:3.1498,1.5749;" x1="24.3" y1="45.2" x2="24.3" y2="22.7"/>
	
		<line style="fill:none;stroke:#00A0E9;stroke-width:0.4725;stroke-dasharray:3.1498,1.5749;" x1="46.7" y1="22.9" x2="24.2" y2="22.9"/>
	<line style="fill:none;stroke:#000000;stroke-width:0.4725;" x1="24.3" y1="0.6" x2="24.3" y2="22.8"/>
	<line style="fill:none;stroke:#000000;stroke-width:0.4725;" x1="24.2" y1="22.9" x2="2" y2="22.9"/>
</g>
<g style="display:none;">
	<path style="display:inline;fill:none;stroke:#A5BBC3;stroke-width:1.5749;stroke-linejoin:bevel;stroke-miterlimit:10;" d="
		M-4.9,116.6c-2.5,0-4.5-2-4.5-4.5v-241.1c0-2.5,2-4.5,4.5-4.5h58c2.5,0,4.5,2,4.5,4.5v241.1c0,2.5-2,4.5-4.5,4.5H-4.9z"/>
</g>
<g>
</g>
<g>
</g>
<g>
</g>
<g>
</g>
<g>
</g>
<g>
</g>
</svg>
