<?xml version="1.0" encoding="utf-8"?>
<!-- Generator: Adobe Illustrator 26.0.2, SVG Export Plug-In . SVG Version: 6.00 Build 0)  -->
<svg version="1.1" id="레이어_1" xmlns="http://www.w3.org/2000/svg" xmlns:xlink="http://www.w3.org/1999/xlink" x="0px"
	 y="0px" viewBox="0 0 821 113" style="enable-background:new 0 0 821 113;" xml:space="preserve">
<line style="fill:none;stroke:#BABCBF;stroke-width:0.4135;stroke-miterlimit:10;" x1="263.1" y1="0.2" x2="295.9" y2="0.2"/>
<polyline style="fill:none;stroke:#BABCBF;stroke-width:0.4135;stroke-miterlimit:10;" points="295.9,0.2 328.7,0.2 361.5,0.2 "/>
<line style="fill:none;stroke:#BABCBF;stroke-width:0.4135;stroke-miterlimit:10;" x1="230.2" y1="75.1" x2="230.2" y2="38"/>
<line style="fill:none;stroke:#BABCBF;stroke-width:0.4135;stroke-miterlimit:10;" x1="263.1" y1="75" x2="263.1" y2="38"/>
<line style="fill:none;stroke:#BABCBF;stroke-width:0.4135;stroke-miterlimit:10;" x1="295.9" y1="75" x2="295.9" y2="38"/>
<line style="fill:none;stroke:#BABCBF;stroke-width:0.4135;stroke-miterlimit:10;" x1="328.7" y1="75" x2="328.7" y2="38"/>
<line style="fill:none;stroke:#BABCBF;stroke-width:0.4135;stroke-miterlimit:10;" x1="361.5" y1="75.1" x2="361.5" y2="38"/>
<path style="fill:none;stroke:#BABCBF;stroke-width:0.4135;stroke-miterlimit:10;" d="M0.5,0.2"/>
<line style="fill:none;stroke:#BABCBF;stroke-width:0.4135;stroke-miterlimit:10;" x1="0.5" y1="0.2" x2="33.3" y2="0.2"/>
<line style="fill:none;stroke:#BABCBF;stroke-width:0.4135;stroke-miterlimit:10;" x1="0.5" y1="37.5" x2="0.5" y2="0.5"/>
<line style="fill:none;stroke:#BABCBF;stroke-width:0.4135;stroke-miterlimit:10;" x1="33.3" y1="0.2" x2="66.1" y2="0.2"/>
<line style="fill:none;stroke:#BABCBF;stroke-width:0.4135;stroke-miterlimit:10;" x1="33.3" y1="37.5" x2="33.3" y2="0.5"/>
<line style="fill:none;stroke:#BABCBF;stroke-width:0.4135;stroke-miterlimit:10;" x1="66.1" y1="0.2" x2="99" y2="0.2"/>
<line style="fill:none;stroke:#BABCBF;stroke-width:0.4135;stroke-miterlimit:10;" x1="66.1" y1="37.5" x2="66.1" y2="0.5"/>
<line style="fill:none;stroke:#BABCBF;stroke-width:0.4135;stroke-miterlimit:10;" x1="99" y1="0.2" x2="131.8" y2="0.2"/>
<line style="fill:none;stroke:#BABCBF;stroke-width:0.4135;stroke-miterlimit:10;" x1="99" y1="37.5" x2="99" y2="0.5"/>
<line style="fill:none;stroke:#BABCBF;stroke-width:0.4135;stroke-miterlimit:10;" x1="131.8" y1="0.2" x2="164.6" y2="0.2"/>
<line style="fill:none;stroke:#BABCBF;stroke-width:0.4135;stroke-miterlimit:10;" x1="131.8" y1="37.5" x2="131.8" y2="0.5"/>
<line style="fill:none;stroke:#BABCBF;stroke-width:0.4135;stroke-miterlimit:10;" x1="164.6" y1="37.5" x2="164.6" y2="0.5"/>
<line style="fill:none;stroke:#BABCBF;stroke-width:0.4135;stroke-miterlimit:10;" x1="197.4" y1="37.5" x2="197.4" y2="0.5"/>
<line style="fill:none;stroke:#BABCBF;stroke-width:0.4135;stroke-miterlimit:10;" x1="263.1" y1="37.5" x2="263.1" y2="0.5"/>
<line style="fill:none;stroke:#BABCBF;stroke-width:0.4135;stroke-miterlimit:10;" x1="295.9" y1="37.5" x2="295.9" y2="0.5"/>
<line style="fill:none;stroke:#BABCBF;stroke-width:0.4135;stroke-miterlimit:10;" x1="328.7" y1="37.5" x2="328.7" y2="0.5"/>
<line style="fill:none;stroke:#BABCBF;stroke-width:0.4135;stroke-miterlimit:10;" x1="361.5" y1="37.5" x2="361.5" y2="0.5"/>
<path style="fill:none;stroke:#BABCBF;stroke-width:0.4135;stroke-miterlimit:10;" d="M0.5,37.8"/>
<line style="fill:none;stroke:#BABCBF;stroke-width:0.4135;stroke-miterlimit:10;" x1="0.5" y1="37.8" x2="33.3" y2="37.8"/>
<line style="fill:none;stroke:#BABCBF;stroke-width:0.4135;stroke-miterlimit:10;" x1="0.5" y1="75.1" x2="0.5" y2="38"/>
<line style="fill:none;stroke:#BABCBF;stroke-width:0.4135;stroke-miterlimit:10;" x1="33.3" y1="37.8" x2="66.1" y2="37.8"/>
<line style="fill:none;stroke:#BABCBF;stroke-width:0.4135;stroke-miterlimit:10;" x1="33.3" y1="75.1" x2="33.3" y2="38"/>
<line style="fill:none;stroke:#BABCBF;stroke-width:0.4135;stroke-miterlimit:10;" x1="66.1" y1="37.8" x2="99" y2="37.8"/>
<line style="fill:none;stroke:#BABCBF;stroke-width:0.4135;stroke-miterlimit:10;" x1="66.1" y1="75" x2="66.1" y2="38"/>
<line style="fill:none;stroke:#BABCBF;stroke-width:0.4135;stroke-miterlimit:10;" x1="99" y1="37.8" x2="131.8" y2="37.8"/>
<line style="fill:none;stroke:#BABCBF;stroke-width:0.4135;stroke-miterlimit:10;" x1="99" y1="75" x2="99" y2="38"/>
<line style="fill:none;stroke:#BABCBF;stroke-width:0.4135;stroke-miterlimit:10;" x1="131.8" y1="37.8" x2="164.6" y2="37.8"/>
<line style="fill:none;stroke:#BABCBF;stroke-width:0.4135;stroke-miterlimit:10;" x1="131.8" y1="75" x2="131.8" y2="38"/>
<line style="fill:none;stroke:#BABCBF;stroke-width:0.4135;stroke-miterlimit:10;" x1="164.6" y1="75.1" x2="164.6" y2="38"/>
<line style="fill:none;stroke:#BABCBF;stroke-width:0.4135;stroke-miterlimit:10;" x1="197.4" y1="75.1" x2="197.4" y2="38"/>
<line style="fill:none;stroke:#BABCBF;stroke-width:0.4135;stroke-miterlimit:10;" x1="230.2" y1="37.8" x2="263" y2="37.8"/>
<line style="fill:none;stroke:#BABCBF;stroke-width:0.4135;stroke-miterlimit:10;" x1="263.1" y1="37.8" x2="295.9" y2="37.8"/>
<polyline style="fill:none;stroke:#BABCBF;stroke-width:0.4135;stroke-miterlimit:10;" points="295.9,37.8 328.7,37.8 361.5,37.8 
	"/>
<path style="fill:none;stroke:#BABCBF;stroke-width:0.4135;stroke-miterlimit:10;" d="M0.5,75.3"/>
<line style="fill:none;stroke:#BABCBF;stroke-width:0.4135;stroke-miterlimit:10;" x1="0.5" y1="75.3" x2="33.5" y2="75.3"/>
<line style="fill:none;stroke:#BABCBF;stroke-width:0.4135;stroke-miterlimit:10;" x1="0.5" y1="112.6" x2="0.5" y2="75.5"/>
<line style="fill:none;stroke:#BABCBF;stroke-width:0.4135;stroke-miterlimit:10;" x1="33.3" y1="112.6" x2="33.3" y2="75.5"/>
<line style="fill:none;stroke:#BABCBF;stroke-width:0.4135;stroke-miterlimit:10;" x1="66.1" y1="112.6" x2="66.1" y2="75.5"/>
<line style="fill:none;stroke:#BABCBF;stroke-width:0.4135;stroke-miterlimit:10;" x1="99" y1="112.6" x2="99" y2="75.5"/>
<line style="fill:none;stroke:#BABCBF;stroke-width:0.4135;stroke-miterlimit:10;" x1="131.8" y1="112.6" x2="131.8" y2="75.5"/>
<line style="fill:none;stroke:#BABCBF;stroke-width:0.4135;stroke-miterlimit:10;" x1="164.6" y1="112.6" x2="164.6" y2="75.5"/>
<line style="fill:none;stroke:#BABCBF;stroke-width:0.4135;stroke-miterlimit:10;" x1="197.4" y1="112.6" x2="197.4" y2="75.5"/>
<line style="fill:none;stroke:#BABCBF;stroke-width:0.4135;stroke-miterlimit:10;" x1="230.2" y1="112.6" x2="230.2" y2="75.5"/>
<line style="fill:none;stroke:#BABCBF;stroke-width:0.4135;stroke-miterlimit:10;" x1="263.1" y1="112.6" x2="263.1" y2="75.5"/>
<line style="fill:none;stroke:#BABCBF;stroke-width:0.4135;stroke-miterlimit:10;" x1="295.9" y1="112.6" x2="295.9" y2="75.5"/>
<line style="fill:none;stroke:#BABCBF;stroke-width:0.4135;stroke-miterlimit:10;" x1="328.7" y1="112.6" x2="328.7" y2="75.5"/>
<line style="fill:none;stroke:#BABCBF;stroke-width:0.4135;stroke-miterlimit:10;" x1="230.2" y1="112.8" x2="263" y2="112.8"/>
<line style="fill:none;stroke:#BABCBF;stroke-width:0.4135;stroke-miterlimit:10;" x1="263.1" y1="112.8" x2="295.9" y2="112.8"/>
<polyline style="fill:none;stroke:#BABCBF;stroke-width:0.4135;stroke-miterlimit:10;" points="295.9,112.8 328.7,112.8 
	361.5,112.8 "/>
<line style="fill:none;stroke:#BABCBF;stroke-width:0.4135;stroke-miterlimit:10;" x1="197.4" y1="0.2" x2="230.2" y2="0.2"/>
<line style="fill:none;stroke:#BABCBF;stroke-width:0.4135;stroke-miterlimit:10;" x1="230.2" y1="0.2" x2="263" y2="0.2"/>
<line style="fill:none;stroke:#BABCBF;stroke-width:0.4135;stroke-miterlimit:10;" x1="230.2" y1="37.5" x2="230.2" y2="0.5"/>
<polyline style="fill:none;stroke:#BABCBF;stroke-width:0.4135;stroke-miterlimit:10;" points="361.5,0.2 394.3,0.2 427.1,0.2 "/>
<line style="fill:none;stroke:#BABCBF;stroke-width:0.4135;stroke-miterlimit:10;" x1="394.3" y1="37.5" x2="394.3" y2="0.5"/>
<line style="fill:none;stroke:#BABCBF;stroke-width:0.4135;stroke-miterlimit:10;" x1="427.1" y1="0.2" x2="460" y2="0.2"/>
<line style="fill:none;stroke:#BABCBF;stroke-width:0.4135;stroke-miterlimit:10;" x1="427.1" y1="37.5" x2="427.1" y2="0.5"/>
<line style="fill:none;stroke:#BABCBF;stroke-width:0.4135;stroke-miterlimit:10;" x1="460" y1="0.2" x2="492.8" y2="0.2"/>
<polyline style="fill:none;stroke:#BABCBF;stroke-width:0.4135;stroke-miterlimit:10;" points="492.8,0.2 525.6,0.2 557.9,0.2 
	590.8,0.2 623.6,0.2 656.4,0.2 689.2,0.2 "/>
<polyline style="fill:none;stroke:#BABCBF;stroke-width:0.4135;stroke-miterlimit:10;" points="689.2,0.2 722,0.2 754.9,0.2 
	787.7,0.2 820.5,0.2 "/>
<line style="fill:none;stroke:#BABCBF;stroke-width:0.4135;stroke-miterlimit:10;" x1="197.4" y1="37.8" x2="230.2" y2="37.8"/>
<polyline style="fill:none;stroke:#BABCBF;stroke-width:0.4135;stroke-miterlimit:10;" points="361.5,37.8 394.3,37.8 427.1,37.8 
	"/>
<line style="fill:none;stroke:#BABCBF;stroke-width:0.4135;stroke-miterlimit:10;" x1="394.3" y1="75.1" x2="394.3" y2="38"/>
<line style="fill:none;stroke:#BABCBF;stroke-width:0.4135;stroke-miterlimit:10;" x1="427.1" y1="37.8" x2="460" y2="37.8"/>
<line style="fill:none;stroke:#BABCBF;stroke-width:0.4135;stroke-miterlimit:10;" x1="427.1" y1="75.1" x2="427.1" y2="38"/>
<line style="fill:none;stroke:#BABCBF;stroke-width:0.4135;stroke-miterlimit:10;" x1="460" y1="37.8" x2="492.8" y2="37.8"/>
<line style="fill:none;stroke:#BABCBF;stroke-width:0.4135;stroke-miterlimit:10;" x1="460" y1="75.1" x2="460" y2="38"/>
<line style="fill:none;stroke:#BABCBF;stroke-width:0.4135;stroke-miterlimit:10;" x1="492.8" y1="37.8" x2="525.6" y2="37.8"/>
<line style="fill:none;stroke:#BABCBF;stroke-width:0.4135;stroke-miterlimit:10;" x1="492.8" y1="75.1" x2="492.8" y2="38"/>
<line style="fill:none;stroke:#BABCBF;stroke-width:0.4135;stroke-miterlimit:10;" x1="525.6" y1="37.8" x2="557.9" y2="37.8"/>
<line style="fill:none;stroke:#BABCBF;stroke-width:0.4135;stroke-miterlimit:10;" x1="525.6" y1="75.1" x2="525.6" y2="38"/>
<line style="fill:none;stroke:#BABCBF;stroke-width:0.4135;stroke-miterlimit:10;" x1="557.9" y1="37.8" x2="590.8" y2="37.8"/>
<line style="fill:none;stroke:#BABCBF;stroke-width:0.4135;stroke-miterlimit:10;" x1="557.9" y1="75.1" x2="557.9" y2="38"/>
<line style="fill:none;stroke:#BABCBF;stroke-width:0.4135;stroke-miterlimit:10;" x1="590.8" y1="37.8" x2="623.6" y2="37.8"/>
<line style="fill:none;stroke:#BABCBF;stroke-width:0.4135;stroke-miterlimit:10;" x1="590.8" y1="75.1" x2="590.8" y2="38"/>
<line style="fill:none;stroke:#BABCBF;stroke-width:0.4135;stroke-miterlimit:10;" x1="623.6" y1="37.8" x2="656.4" y2="37.8"/>
<line style="fill:none;stroke:#BABCBF;stroke-width:0.4135;stroke-miterlimit:10;" x1="623.6" y1="75.1" x2="623.6" y2="38"/>
<line style="fill:none;stroke:#BABCBF;stroke-width:0.4135;stroke-miterlimit:10;" x1="656.4" y1="37.8" x2="689.2" y2="37.8"/>
<line style="fill:none;stroke:#BABCBF;stroke-width:0.4135;stroke-miterlimit:10;" x1="656.4" y1="75.1" x2="656.4" y2="38"/>
<line style="fill:none;stroke:#BABCBF;stroke-width:0.4135;stroke-miterlimit:10;" x1="689.2" y1="37.8" x2="722" y2="37.8"/>
<line style="fill:none;stroke:#BABCBF;stroke-width:0.4135;stroke-miterlimit:10;" x1="689.2" y1="75.1" x2="689.2" y2="38"/>
<line style="fill:none;stroke:#BABCBF;stroke-width:0.4135;stroke-miterlimit:10;" x1="722" y1="37.8" x2="754.9" y2="37.8"/>
<line style="fill:none;stroke:#BABCBF;stroke-width:0.4135;stroke-miterlimit:10;" x1="722" y1="75.1" x2="722" y2="38"/>
<line style="fill:none;stroke:#BABCBF;stroke-width:0.4135;stroke-miterlimit:10;" x1="754.9" y1="37.8" x2="787.7" y2="37.8"/>
<line style="fill:none;stroke:#BABCBF;stroke-width:0.4135;stroke-miterlimit:10;" x1="754.9" y1="75.1" x2="754.9" y2="38"/>
<line style="fill:none;stroke:#BABCBF;stroke-width:0.4135;stroke-miterlimit:10;" x1="787.7" y1="37.8" x2="820.5" y2="37.8"/>
<line style="fill:none;stroke:#BABCBF;stroke-width:0.4135;stroke-miterlimit:10;" x1="787.7" y1="75.1" x2="787.7" y2="38"/>
<line style="fill:none;stroke:#BABCBF;stroke-width:0.4135;stroke-miterlimit:10;" x1="820.5" y1="75.1" x2="820.5" y2="38"/>
<line style="fill:none;stroke:#BABCBF;stroke-width:0.4135;stroke-miterlimit:10;" x1="197.4" y1="75.3" x2="230.4" y2="75.3"/>
<line style="fill:none;stroke:#BABCBF;stroke-width:0.4135;stroke-miterlimit:10;" x1="361.3" y1="75.3" x2="394.3" y2="75.3"/>
<line style="fill:none;stroke:#BABCBF;stroke-width:0.4135;stroke-miterlimit:10;" x1="361.5" y1="112.6" x2="361.5" y2="75.5"/>
<line style="fill:none;stroke:#BABCBF;stroke-width:0.4135;stroke-miterlimit:10;" x1="394.3" y1="75.3" x2="427.1" y2="75.3"/>
<line style="fill:none;stroke:#BABCBF;stroke-width:0.4135;stroke-miterlimit:10;" x1="394.3" y1="112.6" x2="394.3" y2="75.5"/>
<line style="fill:none;stroke:#BABCBF;stroke-width:0.4135;stroke-miterlimit:10;" x1="427.1" y1="75.3" x2="460" y2="75.3"/>
<line style="fill:none;stroke:#BABCBF;stroke-width:0.4135;stroke-miterlimit:10;" x1="427.1" y1="112.6" x2="427.1" y2="75.5"/>
<line style="fill:none;stroke:#BABCBF;stroke-width:0.4135;stroke-miterlimit:10;" x1="460" y1="75.3" x2="492.8" y2="75.3"/>
<line style="fill:none;stroke:#BABCBF;stroke-width:0.4135;stroke-miterlimit:10;" x1="460" y1="112.6" x2="460" y2="75.5"/>
<line style="fill:none;stroke:#BABCBF;stroke-width:0.4135;stroke-miterlimit:10;" x1="492.8" y1="75.3" x2="525.6" y2="75.3"/>
<line style="fill:none;stroke:#BABCBF;stroke-width:0.4135;stroke-miterlimit:10;" x1="492.8" y1="112.6" x2="492.8" y2="75.5"/>
<line style="fill:none;stroke:#BABCBF;stroke-width:0.4135;stroke-miterlimit:10;" x1="525.6" y1="75.3" x2="557.9" y2="75.3"/>
<line style="fill:none;stroke:#BABCBF;stroke-width:0.4135;stroke-miterlimit:10;" x1="525.6" y1="112.6" x2="525.6" y2="75.5"/>
<line style="fill:none;stroke:#BABCBF;stroke-width:0.4135;stroke-miterlimit:10;" x1="557.9" y1="75.3" x2="590.8" y2="75.3"/>
<line style="fill:none;stroke:#BABCBF;stroke-width:0.4135;stroke-miterlimit:10;" x1="557.9" y1="112.6" x2="557.9" y2="75.5"/>
<line style="fill:none;stroke:#BABCBF;stroke-width:0.4135;stroke-miterlimit:10;" x1="590.8" y1="75.3" x2="623.6" y2="75.3"/>
<line style="fill:none;stroke:#BABCBF;stroke-width:0.4135;stroke-miterlimit:10;" x1="590.8" y1="112.6" x2="590.8" y2="75.5"/>
<line style="fill:none;stroke:#BABCBF;stroke-width:0.4135;stroke-miterlimit:10;" x1="623.6" y1="75.3" x2="656.4" y2="75.3"/>
<line style="fill:none;stroke:#BABCBF;stroke-width:0.4135;stroke-miterlimit:10;" x1="623.6" y1="112.6" x2="623.6" y2="75.5"/>
<line style="fill:none;stroke:#BABCBF;stroke-width:0.4135;stroke-miterlimit:10;" x1="656.4" y1="75.3" x2="689.2" y2="75.3"/>
<line style="fill:none;stroke:#BABCBF;stroke-width:0.4135;stroke-miterlimit:10;" x1="656.4" y1="112.6" x2="656.4" y2="75.5"/>
<line style="fill:none;stroke:#BABCBF;stroke-width:0.4135;stroke-miterlimit:10;" x1="689.2" y1="75.3" x2="722" y2="75.3"/>
<line style="fill:none;stroke:#BABCBF;stroke-width:0.4135;stroke-miterlimit:10;" x1="689.2" y1="112.6" x2="689.2" y2="75.5"/>
<line style="fill:none;stroke:#BABCBF;stroke-width:0.4135;stroke-miterlimit:10;" x1="722" y1="75.3" x2="754.9" y2="75.3"/>
<line style="fill:none;stroke:#BABCBF;stroke-width:0.4135;stroke-miterlimit:10;" x1="722" y1="112.6" x2="722" y2="75.5"/>
<line style="fill:none;stroke:#BABCBF;stroke-width:0.4135;stroke-miterlimit:10;" x1="754.9" y1="75.3" x2="787.7" y2="75.3"/>
<line style="fill:none;stroke:#BABCBF;stroke-width:0.4135;stroke-miterlimit:10;" x1="754.9" y1="112.6" x2="754.9" y2="75.5"/>
<line style="fill:none;stroke:#BABCBF;stroke-width:0.4135;stroke-miterlimit:10;" x1="787.7" y1="75.3" x2="820.5" y2="75.3"/>
<line style="fill:none;stroke:#BABCBF;stroke-width:0.4135;stroke-miterlimit:10;" x1="787.7" y1="112.6" x2="787.7" y2="75.5"/>
<line style="fill:none;stroke:#BABCBF;stroke-width:0.4135;stroke-miterlimit:10;" x1="820.5" y1="112.6" x2="820.5" y2="75.5"/>
<line style="fill:none;stroke:#BABCBF;stroke-width:0.4135;stroke-miterlimit:10;" x1="0.5" y1="112.8" x2="33.3" y2="112.8"/>
<polyline style="fill:none;stroke:#BABCBF;stroke-width:0.4135;stroke-miterlimit:10;" points="33.3,112.8 66.1,112.8 99,112.8 "/>
<polyline style="fill:none;stroke:#BABCBF;stroke-width:0.4135;stroke-miterlimit:10;" points="99,112.8 131.8,112.8 164.6,112.8 
	"/>
<line style="fill:none;stroke:#BABCBF;stroke-width:0.4135;stroke-miterlimit:10;" x1="197.4" y1="112.8" x2="230.2" y2="112.8"/>
<polyline style="fill:none;stroke:#BABCBF;stroke-width:0.4135;stroke-miterlimit:10;" points="361.5,112.8 394.3,112.8 
	427.1,112.8 "/>
<line style="fill:none;stroke:#BABCBF;stroke-width:0.4135;stroke-miterlimit:10;" x1="427.1" y1="112.8" x2="460" y2="112.8"/>
<line style="fill:none;stroke:#BABCBF;stroke-width:0.4135;stroke-miterlimit:10;" x1="460" y1="112.8" x2="492.8" y2="112.8"/>
<polyline style="fill:none;stroke:#BABCBF;stroke-width:0.4135;stroke-miterlimit:10;" points="492.8,112.8 525.6,112.8 558,112.8 
	590.8,112.8 623.6,112.8 656.4,112.8 689.2,112.8 "/>
<polyline style="fill:none;stroke:#BABCBF;stroke-width:0.4135;stroke-miterlimit:10;" points="689.2,112.8 722,112.8 754.9,112.8 
	787.7,112.8 820.5,112.8 "/>
<polyline style="fill:none;stroke:#231815;stroke-width:0.4962;stroke-miterlimit:10;" points="33.5,75.3 66.1,75.3 99,75.3 "/>
<polyline style="fill:none;stroke:#231815;stroke-width:0.4962;stroke-miterlimit:10;" points="99,75.3 131.8,75.3 164.4,75.3 "/>
<line style="fill:none;stroke:#231815;stroke-width:0.4962;stroke-miterlimit:10;" x1="230.4" y1="75.3" x2="263" y2="75.3"/>
<line style="fill:none;stroke:#231815;stroke-width:0.4962;stroke-miterlimit:10;" x1="263.1" y1="75.3" x2="295.9" y2="75.3"/>
<polyline style="fill:none;stroke:#231815;stroke-width:0.4962;stroke-miterlimit:10;" points="295.9,75.3 328.7,75.3 361.3,75.3 
	"/>
<line style="fill:none;stroke:#BABCBF;stroke-width:0.4135;stroke-miterlimit:10;" x1="164.6" y1="0.2" x2="197.4" y2="0.2"/>
<line style="fill:none;stroke:#BABCBF;stroke-width:0.4135;stroke-miterlimit:10;" x1="164.6" y1="37.8" x2="197.4" y2="37.8"/>
<line style="fill:none;stroke:#BABCBF;stroke-width:0.4135;stroke-miterlimit:10;" x1="164.4" y1="75.3" x2="197.4" y2="75.3"/>
<line style="fill:none;stroke:#BABCBF;stroke-width:0.4135;stroke-miterlimit:10;" x1="164.6" y1="112.8" x2="197.4" y2="112.8"/>
<line style="fill:none;stroke:#BABCBF;stroke-width:0.4135;stroke-miterlimit:10;" x1="525.6" y1="37.5" x2="525.6" y2="0.5"/>
<line style="fill:none;stroke:#BABCBF;stroke-width:0.4135;stroke-miterlimit:10;" x1="623.6" y1="37.5" x2="623.6" y2="0.5"/>
<line style="fill:none;stroke:#BABCBF;stroke-width:0.4135;stroke-miterlimit:10;" x1="656.4" y1="37.5" x2="656.4" y2="0.5"/>
<line style="fill:none;stroke:#BABCBF;stroke-width:0.4135;stroke-miterlimit:10;" x1="689.2" y1="37.5" x2="689.2" y2="0.5"/>
<line style="fill:none;stroke:#BABCBF;stroke-width:0.4135;stroke-miterlimit:10;" x1="722" y1="37.5" x2="722" y2="0.5"/>
<line style="fill:none;stroke:#BABCBF;stroke-width:0.4135;stroke-miterlimit:10;" x1="754.9" y1="37.5" x2="754.9" y2="0.5"/>
<line style="fill:none;stroke:#BABCBF;stroke-width:0.4135;stroke-miterlimit:10;" x1="787.7" y1="37.5" x2="787.7" y2="0.5"/>
<line style="fill:none;stroke:#BABCBF;stroke-width:0.4135;stroke-miterlimit:10;" x1="820.5" y1="37.5" x2="820.5" y2="0.5"/>
<line style="fill:none;stroke:#BABCBF;stroke-width:0.4135;stroke-miterlimit:10;" x1="460" y1="37.5" x2="460" y2="0.5"/>
<line style="fill:none;stroke:#BABCBF;stroke-width:0.4135;stroke-miterlimit:10;" x1="492.8" y1="37.5" x2="492.8" y2="0.5"/>
<line style="fill:none;stroke:#BABCBF;stroke-width:0.4135;stroke-miterlimit:10;" x1="557.9" y1="37.5" x2="557.9" y2="0.5"/>
<line style="fill:none;stroke:#BABCBF;stroke-width:0.4135;stroke-miterlimit:10;" x1="590.8" y1="37.5" x2="590.8" y2="0.5"/>
</svg>
