<?xml version="1.0" encoding="utf-8"?>
<!-- Generator: Adobe Illustrator 16.0.0, SVG Export Plug-In . SVG Version: 6.00 Build 0)  -->
<!DOCTYPE svg PUBLIC "-//W3C//DTD SVG 1.1//EN" "http://www.w3.org/Graphics/SVG/1.1/DTD/svg11.dtd">
<svg version="1.1" id="레이어_1" xmlns="http://www.w3.org/2000/svg" xmlns:xlink="http://www.w3.org/1999/xlink" x="0px"
	 y="0px" width="566.083px" height="80.222px" viewBox="4.535 379.842 566.083 80.222"
	 enable-background="new 4.535 379.842 566.083 80.222" xml:space="preserve">
<g id="레이어_1_1_">
	<g display="none">
		<path display="inline" fill="#003366" d="M160.158,428.033H94.961c-3.969,0-7.087-3.119-7.087-7.087l0,0
			c0-3.969,3.118-7.087,7.087-7.087h65.197c3.969,0,7.087,3.118,7.087,7.087l0,0C167.245,424.914,164.127,428.033,160.158,428.033z"
			/>
	</g>
	<g display="none">
		<g display="inline">
			<path fill="#003366" d="M409.61,411.024H355.75c-3.968,0-7.086-3.118-7.086-7.087l0,0c0-3.968,3.118-7.086,7.086-7.086h53.859
				c3.968,0,7.086,3.118,7.086,7.086l0,0C416.696,407.906,413.577,411.024,409.61,411.024z"/>
		</g>
		<g display="inline">
			<path fill="#003366" d="M409.61,445.041H355.75c-3.968,0-7.086-3.119-7.086-7.088l0,0c0-3.969,3.118-7.086,7.086-7.086h53.859
				c3.968,0,7.086,3.117,7.086,7.086l0,0C416.696,441.921,413.577,445.041,409.61,445.041z"/>
		</g>
	</g>
	<path display="none" fill="#003366" d="M495.499,414.709l-34.016-32.882c-2.835-2.834-7.087-2.834-9.921,0
		c-2.835,2.834-2.835,7.086,0,9.638l28.913,28.063l-28.913,28.063c-2.835,2.834-2.835,7.086,0,9.637
		c2.834,2.836,7.086,2.836,9.921,0l34.016-32.881C498.051,421.795,498.051,417.543,495.499,414.709z"/>
	<path display="none" fill="#003366" d="M540.004,419.528l28.913-28.063c2.835-2.834,2.835-7.086,0-9.638
		c-2.834-2.834-7.086-2.834-9.921,0l-34.016,32.882c-2.835,2.834-2.835,7.086,0,9.638l34.016,32.881
		c2.835,2.836,7.087,2.836,9.921,0c2.835-2.834,2.835-7.086,0-9.637L540.004,419.528z"/>
	<path display="none" fill="#003366" d="M75.118,413.858H49.607v-25.512c0-3.968-3.118-7.086-7.087-7.086s-7.087,3.118-7.087,7.086
		v25.512H9.921c-3.969,0-7.087,3.118-7.087,7.087c0,3.968,3.118,7.087,7.087,7.087h25.512v25.512c0,3.969,3.118,7.086,7.087,7.086
		s7.087-3.117,7.087-7.086v-25.512h25.512c3.969,0,7.087-3.119,7.087-7.087C82.205,416.977,79.087,413.858,75.118,413.858z"/>
	<path display="none" fill="#003366" d="M222.522,420.945l20.126-20.126c2.835-2.834,2.835-7.37,0-9.921s-7.37-2.834-9.922,0
		L212.6,411.024l-20.126-20.126c-2.835-2.834-7.37-2.834-9.921,0c-2.552,2.835-2.835,7.37,0,9.921l20.126,20.126l-20.126,20.126
		c-2.835,2.834-2.835,7.369,0,9.92c2.834,2.553,7.37,2.836,9.921,0l20.126-20.125l20.126,20.125c2.835,2.836,7.37,2.836,9.922,0
		c2.551-2.834,2.835-7.369,0-9.92L222.522,420.945z"/>
	<g display="none">
		<g display="inline">
			<path fill="#003366" d="M330.239,428.033h-65.197c-3.969,0-7.087-3.119-7.087-7.087l0,0c0-3.969,3.118-7.087,7.087-7.087h65.197
				c3.969,0,7.087,3.118,7.087,7.087l0,0C337.325,424.914,334.207,428.033,330.239,428.033z"/>
		</g>
		<circle display="inline" fill="#003366" cx="297.64" cy="392.598" r="9.921"/>
		<circle display="inline" fill="#003366" cx="297.64" cy="449.292" r="9.921"/>
	</g>
</g>
<g id="레이어_2_1_">
	<path fill="#27B67C" d="M4.535,426.332v-10.772h31.748v-33.732h12.189v33.732h31.748v10.772H48.756v33.732H36.568v-33.732H4.535z"
		/>
	<path fill="#27B67C" d="M89.859,414.992h75.686v11.906H89.859V414.992z"/>
	<path fill="#27B67C" d="M238.396,455.529L212.6,429.166l-25.795,26.363l-8.221-7.938l26.079-26.646l-26.079-26.363l8.221-7.937
		l25.795,26.362l25.796-26.362l8.221,7.937l-26.079,26.363l25.795,26.646L238.396,455.529z"/>
	<path fill="#27B67C" d="M259.656,426.332v-10.772h75.686v10.772H259.656z M304.443,381.827v18.425H290.27v-18.425H304.443z
		 M304.443,441.638v18.143H290.27v-18.143H304.443z"/>
	<path fill="#27B67C" d="M348.948,410.74v-11.339h67.465v11.339H348.948z M348.948,442.205V431.15h67.465v11.055H348.948z"/>
	<polygon fill="#27B67C" points="490.681,411.874 457.515,379.842 449.862,387.779 482.743,419.528 449.862,450.992 
		457.515,458.929 490.681,427.181 498.617,419.528 	"/>
	<polygon fill="#27B67C" points="529.799,427.181 562.965,458.929 570.618,450.992 537.737,419.244 570.335,387.779 
		562.681,379.842 529.799,411.591 521.863,419.244 	"/>
</g>
</svg>
