<?xml version="1.0" encoding="utf-8"?>
<!-- Generator: Adobe Illustrator 25.2.3, SVG Export Plug-In . SVG Version: 6.00 Build 0)  -->
<svg version="1.1" id="레이어_1" xmlns="http://www.w3.org/2000/svg" xmlns:xlink="http://www.w3.org/1999/xlink" x="0px"
	 y="0px" width="34px" height="249.1px" viewBox="0 0 34 249.1" style="enable-background:new 0 0 34 249.1;" xml:space="preserve">
<g>
	<g>
		<rect x="0.6" y="224.5" style="fill:#8ABDE7;" width="23.9" height="23.9"/>
		<polygon style="fill:#52A5DC;" points="24.5,248.4 33.4,239.7 33.4,215.8 24.5,224.5 		"/>
		<polygon style="fill:#BBD4EF;" points="33.4,215.8 9.5,215.8 0.6,224.5 24.5,224.5 		"/>
		
			<rect x="0.6" y="224.5" style="fill:none;stroke:#0068B7;stroke-width:1.2;stroke-linejoin:round;stroke-miterlimit:10;" width="23.9" height="23.9"/>
		<polygon style="fill:none;stroke:#0068B7;stroke-width:1.2;stroke-linejoin:round;stroke-miterlimit:10;" points="24.5,248.4 
			33.4,239.7 33.4,215.8 24.5,224.5 		"/>
		<polygon style="fill:none;stroke:#0068B7;stroke-width:1.2;stroke-linejoin:round;stroke-miterlimit:10;" points="33.4,215.8 
			9.5,215.8 0.6,224.5 24.5,224.5 		"/>
	</g>
	<g>
		<rect x="0.6" y="200.6" style="fill:#8ABDE7;" width="23.9" height="23.9"/>
		<polygon style="fill:#52A5DC;" points="24.5,224.5 33.4,215.8 33.4,191.9 24.5,200.6 		"/>
		<polygon style="fill:#BBD4EF;" points="33.4,191.9 9.5,191.9 0.6,200.6 24.5,200.6 		"/>
		
			<rect x="0.6" y="200.6" style="fill:none;stroke:#0068B7;stroke-width:1.2;stroke-linejoin:round;stroke-miterlimit:10;" width="23.9" height="23.9"/>
		<polygon style="fill:none;stroke:#0068B7;stroke-width:1.2;stroke-linejoin:round;stroke-miterlimit:10;" points="24.5,224.5 
			33.4,215.8 33.4,191.9 24.5,200.6 		"/>
		<polygon style="fill:none;stroke:#0068B7;stroke-width:1.2;stroke-linejoin:round;stroke-miterlimit:10;" points="33.4,191.9 
			9.5,191.9 0.6,200.6 24.5,200.6 		"/>
	</g>
	<g>
		<rect x="0.6" y="176.7" style="fill:#8ABDE7;" width="23.9" height="23.9"/>
		<polygon style="fill:#52A5DC;" points="24.5,200.6 33.4,191.9 33.4,168 24.5,176.7 		"/>
		<polygon style="fill:#BBD4EF;" points="33.4,168 9.5,168 0.6,176.7 24.5,176.7 		"/>
		
			<rect x="0.6" y="176.7" style="fill:none;stroke:#0068B7;stroke-width:1.2;stroke-linejoin:round;stroke-miterlimit:10;" width="23.9" height="23.9"/>
		<polygon style="fill:none;stroke:#0068B7;stroke-width:1.2;stroke-linejoin:round;stroke-miterlimit:10;" points="24.5,200.6 
			33.4,191.9 33.4,168 24.5,176.7 		"/>
		<polygon style="fill:none;stroke:#0068B7;stroke-width:1.2;stroke-linejoin:round;stroke-miterlimit:10;" points="33.4,168 
			9.5,168 0.6,176.7 24.5,176.7 		"/>
	</g>
	<g>
		<rect x="0.6" y="152.8" style="fill:#8ABDE7;" width="23.9" height="23.9"/>
		<polygon style="fill:#52A5DC;" points="24.5,176.7 33.4,168 33.4,144.1 24.5,152.8 		"/>
		<polygon style="fill:#BBD4EF;" points="33.4,144.1 9.5,144.1 0.6,152.8 24.5,152.8 		"/>
		
			<rect x="0.6" y="152.8" style="fill:none;stroke:#0068B7;stroke-width:1.2;stroke-linejoin:round;stroke-miterlimit:10;" width="23.9" height="23.9"/>
		<polygon style="fill:none;stroke:#0068B7;stroke-width:1.2;stroke-linejoin:round;stroke-miterlimit:10;" points="24.5,176.7 
			33.4,168 33.4,144.1 24.5,152.8 		"/>
		<polygon style="fill:none;stroke:#0068B7;stroke-width:1.2;stroke-linejoin:round;stroke-miterlimit:10;" points="33.4,144.1 
			9.5,144.1 0.6,152.8 24.5,152.8 		"/>
	</g>
	<g>
		<rect x="0.6" y="128.9" style="fill:#8ABDE7;" width="23.9" height="23.9"/>
		<polygon style="fill:#52A5DC;" points="24.5,152.8 33.4,144.1 33.4,120.2 24.5,128.9 		"/>
		<polygon style="fill:#BBD4EF;" points="33.4,120.2 9.5,120.2 0.6,128.9 24.5,128.9 		"/>
		
			<rect x="0.6" y="128.9" style="fill:none;stroke:#0068B7;stroke-width:1.2;stroke-linejoin:round;stroke-miterlimit:10;" width="23.9" height="23.9"/>
		<polygon style="fill:none;stroke:#0068B7;stroke-width:1.2;stroke-linejoin:round;stroke-miterlimit:10;" points="24.5,152.8 
			33.4,144.1 33.4,120.2 24.5,128.9 		"/>
		<polygon style="fill:none;stroke:#0068B7;stroke-width:1.2;stroke-linejoin:round;stroke-miterlimit:10;" points="33.4,120.2 
			9.5,120.2 0.6,128.9 24.5,128.9 		"/>
	</g>
	<g>
		<rect x="0.6" y="105" style="fill:#8ABDE7;" width="23.9" height="23.9"/>
		<polygon style="fill:#52A5DC;" points="24.5,128.9 33.4,120.2 33.4,96.3 24.5,105 		"/>
		<polygon style="fill:#BBD4EF;" points="33.4,96.3 9.5,96.3 0.6,105 24.5,105 		"/>
		
			<rect x="0.6" y="105" style="fill:none;stroke:#0068B7;stroke-width:1.2;stroke-linejoin:round;stroke-miterlimit:10;" width="23.9" height="23.9"/>
		<polygon style="fill:none;stroke:#0068B7;stroke-width:1.2;stroke-linejoin:round;stroke-miterlimit:10;" points="24.5,128.9 
			33.4,120.2 33.4,96.3 24.5,105 		"/>
		<polygon style="fill:none;stroke:#0068B7;stroke-width:1.2;stroke-linejoin:round;stroke-miterlimit:10;" points="33.4,96.3 
			9.5,96.3 0.6,105 24.5,105 		"/>
	</g>
	<g>
		<rect x="0.6" y="81.1" style="fill:#8ABDE7;" width="23.9" height="23.9"/>
		<polygon style="fill:#52A5DC;" points="24.5,105 33.4,96.3 33.4,72.4 24.5,81.1 		"/>
		<polygon style="fill:#BBD4EF;" points="33.4,72.4 9.5,72.4 0.6,81.1 24.5,81.1 		"/>
		
			<rect x="0.6" y="81.1" style="fill:none;stroke:#0068B7;stroke-width:1.2;stroke-linejoin:round;stroke-miterlimit:10;" width="23.9" height="23.9"/>
		<polygon style="fill:none;stroke:#0068B7;stroke-width:1.2;stroke-linejoin:round;stroke-miterlimit:10;" points="24.5,105 
			33.4,96.3 33.4,72.4 24.5,81.1 		"/>
		<polygon style="fill:none;stroke:#0068B7;stroke-width:1.2;stroke-linejoin:round;stroke-miterlimit:10;" points="33.4,72.4 
			9.5,72.4 0.6,81.1 24.5,81.1 		"/>
	</g>
	<g>
		<rect x="0.6" y="57.2" style="fill:#8ABDE7;" width="23.9" height="23.9"/>
		<polygon style="fill:#52A5DC;" points="24.5,81.1 33.4,72.4 33.4,48.5 24.5,57.2 		"/>
		<polygon style="fill:#BBD4EF;" points="33.4,48.5 9.5,48.5 0.6,57.2 24.5,57.2 		"/>
		
			<rect x="0.6" y="57.2" style="fill:none;stroke:#0068B7;stroke-width:1.2;stroke-linejoin:round;stroke-miterlimit:10;" width="23.9" height="23.9"/>
		<polygon style="fill:none;stroke:#0068B7;stroke-width:1.2;stroke-linejoin:round;stroke-miterlimit:10;" points="24.5,81.1 
			33.4,72.4 33.4,48.5 24.5,57.2 		"/>
		<polygon style="fill:none;stroke:#0068B7;stroke-width:1.2;stroke-linejoin:round;stroke-miterlimit:10;" points="33.4,48.5 
			9.5,48.5 0.6,57.2 24.5,57.2 		"/>
	</g>
	<g>
		<rect x="0.6" y="33.3" style="fill:#8ABDE7;" width="23.9" height="23.9"/>
		<polygon style="fill:#52A5DC;" points="24.5,57.2 33.4,48.5 33.4,24.6 24.5,33.3 		"/>
		<polygon style="fill:#BBD4EF;" points="33.4,24.6 9.5,24.6 0.6,33.3 24.5,33.3 		"/>
		
			<rect x="0.6" y="33.3" style="fill:none;stroke:#0068B7;stroke-width:1.2;stroke-linejoin:round;stroke-miterlimit:10;" width="23.9" height="23.9"/>
		<polygon style="fill:none;stroke:#0068B7;stroke-width:1.2;stroke-linejoin:round;stroke-miterlimit:10;" points="24.5,57.2 
			33.4,48.5 33.4,24.6 24.5,33.3 		"/>
		<polygon style="fill:none;stroke:#0068B7;stroke-width:1.2;stroke-linejoin:round;stroke-miterlimit:10;" points="33.4,24.6 
			9.5,24.6 0.6,33.3 24.5,33.3 		"/>
	</g>
	<g>
		<rect x="0.6" y="9.4" style="fill:#8ABDE7;" width="23.9" height="23.9"/>
		<polygon style="fill:#52A5DC;" points="24.5,33.3 33.4,24.6 33.4,0.8 24.5,9.4 		"/>
		<polygon style="fill:#BBD4EF;" points="33.4,0.8 9.5,0.8 0.6,9.4 24.5,9.4 		"/>
		
			<rect x="0.6" y="9.4" style="fill:none;stroke:#0068B7;stroke-width:1.2;stroke-linejoin:round;stroke-miterlimit:10;" width="23.9" height="23.9"/>
		<polygon style="fill:none;stroke:#0068B7;stroke-width:1.2;stroke-linejoin:round;stroke-miterlimit:10;" points="24.5,33.3 
			33.4,24.6 33.4,0.8 24.5,9.4 		"/>
		<polygon style="fill:none;stroke:#0068B7;stroke-width:1.2;stroke-linejoin:round;stroke-miterlimit:10;" points="33.4,0.8 
			9.5,0.8 0.6,9.4 24.5,9.4 		"/>
	</g>
</g>
</svg>
