<?xml version="1.0" encoding="utf-8"?>
<!-- Generator: Adobe Illustrator 25.1.0, SVG Export Plug-In . SVG Version: 6.00 Build 0)  -->
<svg version="1.1" xmlns="http://www.w3.org/2000/svg" xmlns:xlink="http://www.w3.org/1999/xlink" x="0px" y="0px"
	 viewBox="0 0 210 30" style="enable-background:new 0 0 210 30;" xml:space="preserve">
<style type="text/css">
	.st0{display:none;}
	.st1{display:inline;fill:#003366;}
	.st2{display:inline;}
	.st3{fill:#003366;}
	.st4{display:none;fill:#003366;}
	.st5{fill:#0080FF;}
</style>
<g id="레이어_1">
	<g class="st0">
		<path class="st1" d="M56.5,17.5h-23c-1.4,0-2.5-1.1-2.5-2.5l0,0c0-1.4,1.1-2.5,2.5-2.5h23c1.4,0,2.5,1.1,2.5,2.5l0,0
			C59,16.4,57.9,17.5,56.5,17.5z"/>
	</g>
	<g class="st0">
		<g class="st2">
			<path class="st3" d="M144.5,11.5h-19c-1.4,0-2.5-1.1-2.5-2.5l0,0c0-1.4,1.1-2.5,2.5-2.5h19c1.4,0,2.5,1.1,2.5,2.5l0,0
				C147,10.4,145.9,11.5,144.5,11.5z"/>
		</g>
		<g class="st2">
			<path class="st3" d="M144.5,23.5h-19c-1.4,0-2.5-1.1-2.5-2.5l0,0c0-1.4,1.1-2.5,2.5-2.5h19c1.4,0,2.5,1.1,2.5,2.5l0,0
				C147,22.4,145.9,23.5,144.5,23.5z"/>
		</g>
	</g>
	<path class="st4" d="M174.8,12.8l-12-11.6c-1-1-2.5-1-3.5,0s-1,2.5,0,3.4l10.2,9.9l-10.2,9.9c-1,1-1,2.5,0,3.4c1,1,2.5,1,3.5,0
		l12-11.6C175.7,15.3,175.7,13.8,174.8,12.8z"/>
	<path class="st4" d="M190.5,14.5l10.2-9.9c1-1,1-2.5,0-3.4c-1-1-2.5-1-3.5,0l-12,11.6c-1,1-1,2.5,0,3.4l12,11.6c1,1,2.5,1,3.5,0
		s1-2.5,0-3.4L190.5,14.5z"/>
	<path class="st4" d="M26.5,12.5h-9v-9C17.5,2.1,16.4,1,15,1s-2.5,1.1-2.5,2.5v9h-9C2.1,12.5,1,13.6,1,15s1.1,2.5,2.5,2.5h9v9
		c0,1.4,1.1,2.5,2.5,2.5s2.5-1.1,2.5-2.5v-9h9c1.4,0,2.5-1.1,2.5-2.5S27.9,12.5,26.5,12.5z"/>
	<path class="st4" d="M78.5,15l7.1-7.1c1-1,1-2.6,0-3.5s-2.6-1-3.5,0L75,11.5l-7.1-7.1c-1-1-2.6-1-3.5,0s-1,2.6,0,3.5l7.1,7.1
		l-7.1,7.1c-1,1-1,2.6,0,3.5s2.6,1,3.5,0l7.1-7.1l7.1,7.1c1,1,2.6,1,3.5,0s1-2.6,0-3.5L78.5,15z"/>
	<g class="st0">
		<g class="st2">
			<path class="st3" d="M116.5,17.5h-23c-1.4,0-2.5-1.1-2.5-2.5l0,0c0-1.4,1.1-2.5,2.5-2.5h23c1.4,0,2.5,1.1,2.5,2.5l0,0
				C119,16.4,117.9,17.5,116.5,17.5z"/>
		</g>
		<circle class="st1" cx="105" cy="5" r="3.5"/>
		<circle class="st1" cx="105" cy="25" r="3.5"/>
	</g>
</g>
<g id="레이어_2">
	<path class="st5" d="M1.6,16.9v-3.8h11.2V1.2h4.3v11.9h11.2v3.8H17.2v11.9h-4.3V16.9H1.6z"/>
	<path class="st5" d="M31.7,12.9h26.7v4.2H31.7V12.9z"/>
	<path class="st5" d="M84.1,27.2l-9.1-9.3l-9.1,9.3l-2.9-2.8l9.2-9.4l-9.2-9.3l2.9-2.8l9.1,9.3l9.1-9.3L87,5.7L77.8,15l9.1,9.4
		L84.1,27.2z"/>
	<path class="st5" d="M91.6,16.9v-3.8h26.7v3.8H91.6z M107.4,1.2v6.5h-5V1.2H107.4z M107.4,22.3v6.4h-5v-6.4H107.4z"/>
	<path class="st5" d="M123.1,11.4v-4h23.8v4H123.1z M123.1,22.5v-3.9h23.8v3.9H123.1z"/>
	<polygon class="st5" points="173.1,11.8 161.4,0.5 158.7,3.3 170.3,14.5 158.7,25.6 161.4,28.4 173.1,17.2 175.9,14.5 	"/>
	<polygon class="st5" points="186.9,17.2 198.6,28.4 201.3,25.6 189.7,14.4 201.2,3.3 198.5,0.5 186.9,11.7 184.1,14.4 	"/>
</g>
</svg>
