<?xml version="1.0" encoding="utf-8"?>
<!-- Generator: Adobe Illustrator 26.0.1, SVG Export Plug-In . SVG Version: 6.00 Build 0)  -->
<svg version="1.1" id="레이어_1" xmlns="http://www.w3.org/2000/svg" xmlns:xlink="http://www.w3.org/1999/xlink" x="0px"
	 y="0px" viewBox="0 0 1061 144.7" style="enable-background:new 0 0 1061 144.7;" xml:space="preserve">
<style type="text/css">
	.st0{fill:#F4F1E6;}
	.st1{fill:#FFFFFF;}
	.st2{fill:#47D7AC;}
	.st3{fill:#83E8D3;}
	.st4{fill:#FFE380;}
	.st5{fill:#F3F0E6;}
	.st6{fill:#333333;}
</style>
<g id="레이어_2_1_">
	<g id="레이어_1-2">
		<g id="레이어_2-2">
			<g id="Layer_1">
				<path class="st0" d="M120.1,24.1h890c27.6,0,50,22.4,50,50l0,0c0,27.6-22.4,50-50,50h-890c-27.6,0-50-22.4-50-50l0,0
					C70.1,46.5,92.5,24.1,120.1,24.1C120.1,24.1,120.1,24.1,120.1,24.1z"/>
				<circle class="st0" cx="73.5" cy="61" r="60"/>
				<path class="st1" d="M54.2,25.1c-0.4-0.2-0.8-0.4-1.2-0.6c-2.3-0.8-4,0.1-5.1,2.7c-0.8,2.2-0.9,4.6-0.4,6.9c0.6,2.6,1.6,5,3,7.3
					c4.7-0.5,9.1-2.3,12.7-5.4C60.7,31,57.8,27.4,54.2,25.1"/>
				<path class="st2" d="M50.4,42.2c-0.3,0-0.5-0.1-0.7-0.4c-1.5-2.3-2.5-4.9-3.1-7.5c-0.5-2.5-0.4-5,0.5-7.4
					c1.6-3.8,4.2-3.8,6.1-3.2c0.5,0.2,0.9,0.4,1.4,0.6c3.7,2.3,6.8,6.1,9.2,11.3c0.1,0.3,0.1,0.7-0.2,0.9
					C59.8,39.8,55.3,41.7,50.4,42.2L50.4,42.2 M51.4,25c-1,0-2,0.5-2.8,2.5c-0.7,2.1-0.9,4.3-0.4,6.4c0.5,2.3,1.4,4.6,2.6,6.6
					c4.1-0.5,8-2.1,11.3-4.7c-2.2-4.6-5-8-8.3-10.1c-0.3-0.2-0.6-0.4-1-0.5C52.3,25.1,51.8,25.1,51.4,25L51.4,25z"/>
				<path class="st1" d="M99.1,34.2c0.5-2.3,0.4-4.7-0.4-6.9c-1.1-2.6-2.8-3.5-5.1-2.7c-0.4,0.1-0.8,0.3-1.2,0.6
					c-3.6,2.2-6.5,5.9-8.9,10.9c3.6,3,8,4.9,12.7,5.4C97.6,39.3,98.6,36.8,99.1,34.2"/>
				<path class="st2" d="M96.1,42.3L96.1,42.3c-4.9-0.5-9.5-2.4-13.2-5.5c-0.3-0.2-0.4-0.6-0.2-0.9c2.4-5.2,5.5-9,9.2-11.3
					c0.4-0.3,0.9-0.5,1.4-0.6c1.9-0.7,4.5-0.7,6.1,3.1c0.8,2.4,1,4.9,0.5,7.4c-0.6,2.7-1.6,5.2-3.1,7.5
					C96.7,42.1,96.4,42.2,96.1,42.3 M84.4,35.9c3.3,2.6,7.2,4.2,11.3,4.7c1.2-2,2.1-4.2,2.6-6.5c0.5-2.2,0.3-4.4-0.4-6.5
					c-1.2-2.8-2.8-2.7-4.1-2.2c-0.4,0.1-0.7,0.3-1.1,0.5C89.5,27.9,86.7,31.3,84.4,35.9L84.4,35.9z"/>
				<path class="st1" d="M103.4,45.2c-2.9-5.8-7.8-10.3-13.8-12.7c-5-2-10.3-3.1-15.7-3.2h-0.7c-5.4,0.1-10.7,1.2-15.7,3.2
					c-6.6,2.6-11.8,7.8-14.5,14.3c-1.6,4.1-2.5,8.5-2.6,12.9c0,2.1-0.3,4.2-0.9,6.2c-2.9,8.9-1.3,15.7,4.9,20.4c0.6,0.5,1.3,1,2,1.4
					l0.1,0.1c0.6,0.4,1.2,0.7,1.8,1.1c5.1,2.8,10.7,4.6,16.4,5.3l1.2,0.1c2.4,0.3,4.9,0.5,7.3,0.5h0.7c2.4,0,4.9-0.2,7.3-0.5
					l1.2-0.1c2.5-0.3,4.9-0.8,7.3-1.5c3.2-0.9,6.3-2.2,9.2-3.8c0.7-0.4,1.3-0.7,1.9-1.1c0.7-0.4,1.4-0.9,2-1.4
					c6.2-4.7,7.8-11.5,4.9-20.4c-0.6-2-0.9-4.1-0.9-6.1C106.6,54.8,105.4,49.8,103.4,45.2"/>
				<path class="st3" d="M106.6,82.3c2.9-4.3,3.2-9.7,1-16.4c-0.6-2-0.9-4.1-0.9-6.1c0-1.1-0.1-2.2-0.3-3.2l0.3-0.3
					c0.2-0.2,0.2-0.6,0-0.8c-0.2-0.2-0.5-0.2-0.8,0c-2,1.8-3.9,3.8-5.5,6c-1.7,2.2-2.1,5.1-1.3,8.6c0.2,0.6,0.3,1.1,0.5,1.6
					c1.4,4.1,3.5,8,6.1,11.5c0.1,0.1,0.3,0.2,0.4,0.2c0.1,0,0.2,0,0.3-0.1c0.2-0.2,0.3-0.5,0.1-0.8L106.6,82.3z"/>
				<path class="st3" d="M46.5,61.4c-1.6-2.2-3.5-4.2-5.5-6c-0.2-0.2-0.6-0.2-0.8,0.1c0,0,0,0,0,0c-0.2,0.2-0.2,0.5,0,0.8l0.3,0.3
					c-0.1,1.1-0.2,2.2-0.3,3.3c0,2.1-0.3,4.2-0.9,6.2c-2.2,6.6-1.9,12.1,1,16.4l-0.1,0.2c-0.2,0.3-0.1,0.6,0.1,0.8
					c0.3,0.2,0.6,0.1,0.8-0.1c2.6-3.5,4.6-7.4,6.1-11.5c0.2-0.5,0.4-1.1,0.5-1.6C48.6,66.5,48.2,63.6,46.5,61.4z"/>
				<path class="st2" d="M73.2,95.6c-2.5,0-5-0.2-7.4-0.6l-1.2-0.1c-5.9-0.7-11.5-2.5-16.7-5.4c-0.6-0.3-1.3-0.7-1.9-1.1l-0.1-0.1
					c-0.7-0.4-1.4-0.9-2.1-1.4c-6.5-4.9-8.2-12-5.2-21.2c0.6-1.9,0.9-3.9,0.9-5.9c0.1-4.5,1-9,2.7-13.2c2.8-6.7,8.2-12,14.9-14.7
					c5.1-2.1,10.5-3.2,16-3.2h0.7c5.5,0.1,10.9,1.2,16,3.2c6.2,2.4,11.2,7.1,14.2,13c2.2,4.7,3.3,9.7,3.5,14.9c0,2,0.3,4,0.9,6
					c3,9.2,1.3,16.3-5.2,21.2c-0.7,0.5-1.4,0.9-2.2,1.3c-0.6,0.4-1.3,0.8-2,1.2c-2.9,1.6-6.1,2.9-9.3,3.8c-2.4,0.7-4.9,1.2-7.4,1.5
					L81.1,95c-2.4,0.3-4.9,0.5-7.4,0.6H73 M73,30.1c-5.2,0.1-10.4,1.2-15.3,3.2c-6.4,2.5-11.4,7.5-14.1,13.9
					c-1.6,4-2.5,8.3-2.6,12.7c0,2.1-0.4,4.3-1,6.3l0,0c-2.8,8.7-1.3,15,4.7,19.5c0.6,0.5,1.3,0.9,2,1.3l0.1,0.1
					c0.6,0.3,1.2,0.7,1.8,1c5,2.7,10.4,4.5,16.1,5.2l1.2,0.1c2.4,0.3,4.8,0.5,7.2,0.5h0.7c2.4,0,4.8-0.2,7.2-0.5l1.3-0.1
					c2.4-0.3,4.8-0.8,7.1-1.4c3.1-0.9,6.2-2.2,9-3.7c0.6-0.3,1.3-0.7,1.9-1.1c0.7-0.4,1.4-0.9,2-1.3c6-4.5,7.5-10.9,4.6-19.5
					c-0.6-2.1-1-4.2-1-6.4c-0.1-4.9-1.2-9.8-3.3-14.2c-2.8-5.6-7.6-10-13.4-12.3c-4.9-2-10.1-3-15.4-3.1L73,30.1z"/>
				<path d="M64.3,67.8c0.6-1.2,0.9-2.4,0.8-3.7c0-1.3-0.2-2.6-0.8-3.8c-0.5-1-1.2-1.5-2-1.5c-0.9,0.1-1.7,0.7-2,1.5
					c-0.6,1.2-0.9,2.5-0.9,3.8c0,1.3,0.3,2.6,0.9,3.7c0.5,1.1,1.2,1.6,2,1.6S63.8,68.9,64.3,67.8"/>
				<path class="st3" d="M63.7,54L63.7,54c0.5,0.1,0.9,0,1.2-0.3c0.4-0.2,0.6-0.6,0.7-1c0.1-0.4,0-0.9-0.3-1.2
					c-0.2-0.3-0.6-0.6-0.9-0.7l-6-1c-0.4-0.1-0.8,0-1.1,0.3c-0.3,0.2-0.6,0.6-0.7,1c-0.1,0.4,0,0.8,0.2,1.2c0.2,0.3,0.5,0.5,0.9,0.7
					h0.1L63.7,54"/>
				<path class="st2" d="M64,54.6h-0.5l-5.8-1h-0.2c-0.5-0.2-0.9-0.5-1.1-0.9c-0.3-0.5-0.4-1-0.3-1.6c0.2-1.2,1.3-2,2.4-1.8l6,1.1
					c0.5,0.1,1,0.4,1.3,0.9c0.3,0.5,0.5,1.1,0.4,1.7c-0.1,0.6-0.4,1.1-0.9,1.4c-0.3,0.3-0.8,0.4-1.2,0.4L64,54.6z M63.9,53.6
					c0.2,0,0.5-0.1,0.6-0.2h0.1c0.2-0.1,0.4-0.4,0.4-0.6c0-0.3,0-0.6-0.2-0.8c-0.1-0.2-0.3-0.4-0.6-0.4l-6-1c-0.3,0-0.5,0-0.7,0.2
					c-0.2,0.2-0.4,0.4-0.4,0.7c-0.1,0.5,0.2,1,0.7,1.2l0,0l5.9,1L63.9,53.6z"/>
				<path d="M81.9,64.1c0,1.3,0.3,2.6,0.8,3.7c0.6,1.1,1.2,1.6,2,1.6s1.5-0.5,2-1.6c0.6-1.2,0.9-2.4,0.8-3.7c0-1.3-0.3-2.6-0.8-3.8
					c-0.6-1-1.2-1.5-2-1.5c-0.9,0.1-1.7,0.7-2,1.5C82.1,61.5,81.9,62.8,81.9,64.1"/>
				<path class="st3" d="M89.8,50c-0.3-0.2-0.7-0.3-1.2-0.3l-6,1c-0.4,0.1-0.7,0.3-0.9,0.7c-0.3,0.4-0.4,0.9-0.3,1.3
					c0.1,0.4,0.3,0.8,0.7,1c0.3,0.3,0.8,0.4,1.2,0.3l0,0l6-1.1h0.1c0.4-0.1,0.7-0.3,0.8-0.7c0.2-0.3,0.3-0.8,0.2-1.2
					c-0.1-0.4-0.3-0.8-0.7-1"/>
				<path class="st2" d="M83,54.6c-0.5,0-0.9-0.2-1.2-0.4c-0.5-0.3-0.8-0.8-0.9-1.4c-0.1-0.6,0-1.1,0.3-1.6c0.3-0.5,0.8-0.8,1.3-0.9
					l6-1.1c0.5-0.1,1.1,0,1.6,0.4c0.5,0.3,0.8,0.8,0.9,1.4c0.1,0.6,0,1.1-0.3,1.6c-0.3,0.4-0.7,0.7-1.1,0.9h-0.2l-5.8,1H83
					 M88.9,50.2h-0.1l-6,1.1c-0.2,0-0.4,0.2-0.6,0.4C82,51.9,82,52.1,82,52.4c0,0.3,0.2,0.5,0.4,0.6l0,0c0.2,0.2,0.4,0.2,0.6,0.2
					h0.2l5.9-1l0,0c0.2-0.1,0.4-0.2,0.6-0.4c0.2-0.2,0.2-0.5,0.2-0.8c0-0.3-0.2-0.5-0.4-0.7c-0.1-0.1-0.3-0.1-0.4-0.1L88.9,50.2z"/>
				<path d="M73.5,80c-1.5,0-2.9-0.4-4.2-1.2c-0.8-0.5-1.4-1.3-1.7-2.2c-0.1-0.3,0.1-0.5,0.3-0.6c0.3-0.1,0.5,0.1,0.6,0.3l0,0l0,0
					c0.2,0.7,0.7,1.3,1.3,1.6c1.1,0.7,2.3,1,3.6,1c1.3,0,2.5-0.3,3.6-1c0.6-0.4,1.1-1,1.3-1.6c0.1-0.3,0.4-0.4,0.7-0.3
					c0.2,0.1,0.4,0.3,0.3,0.6l0,0c-0.3,0.9-0.9,1.7-1.7,2.2C76.5,79.6,75,80,73.5,80"/>
				<polygon class="st4" points="10.7,99.8 7.3,103.3 17.9,111.2 				"/>
				<polygon class="st4" points="14.6,119 1,115.2 1.1,120.3 				"/>
				<polygon class="st4" points="15.3,128.9 2.7,133.3 4.7,136.9 				"/>
			</g>
		</g>
	</g>
</g>
<g>
	<path class="st5" d="M104.6,110.1c-1.2-1.3-2.7-2.2-4.4-2.8c-1.5-0.5-3.2-0.8-4.8-0.8c-1.6,0-3.2,0.3-4.6,1c-1.1-0.6-2.3-1-3.5-1
		c-1.4,0-2.8,0.4-4,1.2c-0.6,0.4-1.1,0.9-1.5,1.5c-0.9-0.7-2-1.3-3.1-1.8c-1.7-0.7-3.5-1-5.3-1c-1.7,0-3.4,0.3-5,0.9
		c-1.2,0.4-2.3,1-3.3,1.8l0,0c-1.1-1.5-2.9-2.3-4.7-2.2h-0.4c0-1.8-0.9-3.5-2.3-4.6c-1.2-0.9-2.6-1.3-4-1.3c-1.4,0-2.8,0.4-4,1.2
		c-1.5,1.1-2.5,2.9-2.4,4.8v0.2c-0.4,0.1-0.7,0.3-1.1,0.5c-2.2-0.9-4.6-1.3-6.9-1.2c-1.5,0-3,0.2-4.5,0.7c-1.4,0.4-2.6,1.1-3.8,2
		c-1.1,0.9-2,2-2.6,3.3c-0.7,1.3-1,2.7-1,4.2c0,1.3,0.2,2.6,0.8,3.8c0.4,1,1,1.9,1.7,2.7c-1,0.6-1.8,1.5-2.3,2.6
		c-0.6,1.2-0.8,2.6-0.5,4c0.3,1.7,1.3,3.2,2.8,4.1c2.7,1.6,5.7,2.4,8.8,2.3c1.6,0,3.1-0.2,4.6-0.7c1.4-0.4,2.7-1.1,3.9-2
		c0.7-0.5,1.3-1.1,1.8-1.8c0.3,0.5,0.6,1,1,1.4c1.8,2,4.5,2.9,7.9,2.9c1,0,1.9-0.1,2.8-0.3c0.8-0.2,1.6-0.4,2.4-0.7
		c0.8-0.3,1.6-0.8,2.2-1.4c0.9,0.7,1.9,1.2,2.9,1.6c1.8,0.7,3.8,1,5.7,1c1,0,2.1-0.1,3.1-0.3c0.9-0.2,1.8-0.4,2.7-0.7
		c0.3-0.1,0.7-0.2,1-0.4v3.4c0,1.9,0.9,3.8,2.5,4.9c1.2,0.8,2.5,1.2,3.9,1.2c1.4,0,2.8-0.4,4-1.2c1.6-1.1,2.5-2.9,2.4-4.8v-2.4
		c0.6,0.1,1.1,0.1,1.7,0.1c1.6,0,3.3-0.3,4.8-0.8c1.7-0.6,3.2-1.6,4.4-2.9c1.3-1.4,2.3-3,2.9-4.8c0.7-2,1-4.2,1-6.3
		c0-2.1-0.3-4.2-1-6.2C106.8,113,105.9,111.4,104.6,110.1z M93.8,123.3c-0.1-0.1-0.1-0.3-0.1-0.4v-3.8c0,0,0-0.1,0-0.1l0,0
		c0-0.1,0.1-0.1,0.2-0.2l0.1-0.1c0.1,0,0.1,0,0.2,0c0.7,0,0.8,0.2,0.9,0.2c0.3,0.6,0.4,1.3,0.3,1.9c0.1,0.9-0.1,1.8-0.5,2.6
		c-0.2,0.1-0.4,0.1-0.6,0.1l-0.3-0.1C93.8,123.4,93.8,123.3,93.8,123.3z"/>
	<path class="st6" d="M39.3,110.4c1.3,0,2.6,0.1,3.8,0.4c0.8,0.2,1.7,0.5,2.4,0.9c0.5,0.2,0.9,0.7,1,1.2c0.1,0.5,0.1,1-0.1,1.4
		c-0.2,0.5-0.5,0.8-1,1c-0.5,0.2-1.1,0.2-1.6-0.1c-0.3-0.1-0.5-0.3-0.8-0.4c-0.3-0.1-0.7-0.2-1.1-0.3c-0.4-0.1-0.8-0.2-1.2-0.2
		c-0.4-0.1-0.7-0.1-1.1-0.1c-0.9-0.1-1.8,0.2-2.6,0.6c-0.9,0.6-1.2,1.9-0.6,2.8c0.1,0.2,0.3,0.4,0.5,0.5c0.7,0.4,1.5,0.7,2.3,0.9
		l1.9,0.4c1.6,0.2,3,0.9,4.2,2c1.1,1.1,1.6,2.5,1.5,4c0,0.9-0.2,1.8-0.6,2.7c-0.4,0.8-1,1.5-1.7,2.1c-0.8,0.6-1.7,1.1-2.7,1.4
		c-1.1,0.4-2.2,0.5-3.4,0.5c-2.3,0.1-4.7-0.5-6.7-1.7c-0.5-0.3-0.9-0.8-1-1.4c-0.1-0.5,0-1.1,0.2-1.5c0.2-0.5,0.6-0.8,1.1-1
		c0.6-0.2,1.2-0.1,1.7,0.2c0.3,0.2,0.7,0.3,1,0.5c0.4,0.2,0.8,0.3,1.2,0.4c0.4,0.1,0.8,0.2,1.3,0.3c0.4,0.1,0.8,0.1,1.1,0.1
		c0.9,0.1,1.9-0.2,2.7-0.7c0.6-0.4,1-1,1-1.7c0-0.7-0.3-1.3-0.9-1.6c-0.7-0.4-1.5-0.7-2.3-0.9l-2-0.4c-0.8-0.2-1.5-0.4-2.2-0.7
		c-0.7-0.3-1.3-0.7-1.8-1.2c-0.5-0.5-0.9-1.1-1.2-1.8c-0.3-0.7-0.4-1.5-0.4-2.3c0-0.8,0.2-1.6,0.5-2.4c0.4-0.8,0.9-1.5,1.6-2.1
		c0.7-0.6,1.6-1,2.5-1.3C37.1,110.5,38.2,110.3,39.3,110.4z"/>
	<path class="st6" d="M47.4,112.9c0-0.5,0.2-1,0.5-1.5c0.3-0.4,0.9-0.7,1.4-0.7h2v-3.9c0-0.6,0.2-1.2,0.7-1.5
		c0.5-0.3,1.1-0.5,1.7-0.5c0.6,0,1.2,0.2,1.6,0.5c0.5,0.4,0.7,0.9,0.7,1.5v3.9h4.4c0.6,0,1.1,0.2,1.5,0.7c0.7,0.9,0.7,2.1,0,2.9
		c-0.4,0.4-0.9,0.7-1.5,0.7h-4.5v9.4c-0.1,0.8,0.1,1.7,0.6,2.4c0.5,0.5,1.2,0.8,1.9,0.7c0.4,0,0.7-0.1,1.1-0.2
		c0.4-0.1,0.7-0.2,1.1-0.3c0.5-0.2,1-0.2,1.4,0.1c0.4,0.3,0.7,0.7,0.8,1.2c0.1,0.5,0.1,1-0.1,1.5c-0.2,0.6-0.7,1-1.3,1.2
		c-0.6,0.2-1.1,0.4-1.7,0.5c-0.7,0.1-1.3,0.2-2,0.2c-2.3,0-4-0.6-5-1.7c-1-1.1-1.6-2.9-1.6-5.5V115h-2c-0.5,0-1.1-0.2-1.4-0.6
		C47.6,113.9,47.4,113.4,47.4,112.9z"/>
	<path class="st6" d="M73.5,110.4c1.3,0,2.6,0.2,3.8,0.7c1.1,0.4,2.1,1.1,2.9,1.9c0.8,0.8,1.4,1.8,1.9,2.8c0.4,1.1,0.7,2.3,0.7,3.5
		c0,0.5,0,0.9-0.1,1.4c-0.1,0.4-0.3,0.7-0.6,1c-0.3,0.3-0.7,0.5-1.2,0.7c-0.6,0.2-1.3,0.2-1.9,0.2H68.7c0,1.4,0.6,2.8,1.7,3.8
		c1,0.9,2.3,1.4,3.7,1.3c1,0,2.1-0.1,3.1-0.4c0.7-0.2,1.4-0.6,2.1-0.9c0.4-0.3,1-0.4,1.5-0.2c0.4,0.1,0.8,0.4,1.1,0.8
		c0.3,0.4,0.4,0.9,0.3,1.4c-0.1,0.5-0.3,1-0.8,1.3c-0.4,0.3-0.7,0.6-1.2,0.8c-0.5,0.3-1.1,0.5-1.7,0.7c-1.5,0.5-3,0.7-4.6,0.7
		c-1.5,0-2.9-0.2-4.3-0.8c-1.2-0.5-2.4-1.2-3.3-2.2c-0.9-1-1.7-2.2-2.1-3.4c-0.5-1.5-0.8-3-0.7-4.6c0-1.6,0.3-3.1,0.8-4.6
		c0.5-1.2,1.3-2.4,2.2-3.3c0.9-0.9,2-1.6,3.2-2C71,110.6,72.2,110.3,73.5,110.4z M73.4,114.5c-1.1,0-2.1,0.4-2.9,1.1
		c-1,0.8-1.6,2-1.7,3.2h9.2c0-1.2-0.5-2.4-1.4-3.2C75.6,114.8,74.5,114.4,73.4,114.5z"/>
	<path class="st6" d="M87.3,110.5c0.6,0,1.1,0.2,1.6,0.5c0.5,0.3,0.8,0.9,0.8,1.5v0.8c0.7-0.9,1.6-1.6,2.6-2.1
		c1-0.5,2.1-0.7,3.2-0.7c1.2,0,2.4,0.2,3.5,0.6c1.1,0.4,2.1,1,2.9,1.8c0.9,0.9,1.6,2,2,3.2c0.5,1.5,0.8,3.2,0.7,4.8
		c0,1.7-0.2,3.4-0.7,5c-0.4,1.2-1.1,2.4-2,3.3c-0.8,0.8-1.8,1.5-2.9,1.9c-1.1,0.4-2.3,0.6-3.4,0.6c-1.1,0-2.2-0.2-3.2-0.7
		c-1-0.5-1.8-1.2-2.4-2.1v9.1c0,0.6-0.2,1.2-0.7,1.5c-0.5,0.3-1.1,0.5-1.7,0.5c-0.6,0-1.2-0.2-1.7-0.5c-0.5-0.3-0.8-0.9-0.8-1.5
		v-25.6c0-0.6,0.3-1.1,0.8-1.5C86.1,110.7,86.7,110.5,87.3,110.5z M94.2,114.7c-0.5,0-0.9,0.1-1.4,0.2c-0.5,0.1-0.9,0.4-1.3,0.7
		c-0.4,0.3-0.8,0.7-1.1,1.2c-0.4,0.6-0.6,1.2-0.7,1.8v4.6c0.1,0.7,0.3,1.4,0.7,2.1c0.3,0.5,0.7,1,1.2,1.3c0.4,0.3,0.9,0.5,1.3,0.7
		c0.4,0.1,0.9,0.2,1.3,0.2c1.5,0.1,3-0.6,3.9-1.7c1-1.5,1.4-3.2,1.3-5c0-2.1-0.5-3.7-1.4-4.7C96.9,115.2,95.6,114.6,94.2,114.7z"/>
	<path class="st5" d="M123.3,135.8c-2.4,0-4.8-0.5-6.9-1.6c-2-1-3.6-2.6-4.8-4.6c-0.9-1.6-1.1-3.5-0.4-5.2c0.5-1.2,1.4-2.3,2.5-3
		c-0.2-0.2-0.3-0.3-0.4-0.5c-0.8-1.1-1.2-2.5-1.1-3.9v-10.4c0-3.2,1.4-4.9,2.5-5.8c1.5-1,3.3-1.5,5.1-1.4h10.1
		c1.9,0,3.7,0.9,4.8,2.5c0.8,1.1,1.2,2.5,1.2,3.9c0,1.4-0.4,2.7-1.2,3.8c-0.8,1.1-2,1.9-3.4,2.2c0.7,0.4,1.3,0.9,1.9,1.4
		c1.2,1.1,2.2,2.5,2.9,4.1c1.3,3.3,1.3,7.1,0,10.4c-0.6,1.6-1.6,3-2.8,4.3c-1.2,1.2-2.7,2.2-4.3,2.9
		C127,135.4,125.1,135.8,123.3,135.8z M122.8,123.3c0.2,0,0.3,0,0.5,0c0.1,0,0.2,0,0.3,0l0.1-0.1c0.1-0.1,0.1-0.1,0.1-0.2
		c0-0.1,0.1-0.3,0.1-0.4c0-0.2,0-0.4-0.1-0.6l0,0c-0.4-0.1-0.8-0.2-1.2-0.2c-0.2,0-0.3,0-0.5,0.1c-0.2,0-0.3,0.1-0.4,0.2
		c0.2,0.2,0.4,0.4,0.6,0.7C122.4,123,122.6,123.2,122.8,123.3L122.8,123.3z"/>
	<path class="st6" d="M131.7,105.7c0,0.5-0.2,1-0.5,1.5c-0.4,0.4-0.9,0.7-1.5,0.6h-9.3v6.8c0.5-0.2,1-0.4,1.6-0.5
		c0.6-0.1,1.3-0.2,1.9-0.2c1.2,0,2.3,0.2,3.5,0.5c1,0.3,2,0.9,2.8,1.6c0.8,0.7,1.5,1.7,1.9,2.7c0.9,2.4,0.9,5,0,7.3
		c-0.4,1.1-1.1,2.1-1.9,3c-0.9,0.9-1.9,1.5-3,2c-1.2,0.5-2.6,0.8-3.9,0.7c-1.7,0-3.5-0.3-5-1.1c-1.3-0.7-2.4-1.7-3.2-3
		c-0.3-0.5-0.4-1.1-0.2-1.7c0.2-0.5,0.6-1,1.1-1.2c0.5-0.3,1-0.4,1.6-0.4c0.6,0.1,1.2,0.4,1.5,0.9c0.5,0.6,1.1,1.2,1.8,1.6
		c0.7,0.4,1.6,0.6,2.4,0.6c0.6,0,1.3-0.1,1.8-0.4c0.5-0.2,1-0.6,1.4-1c0.4-0.4,0.7-0.9,0.9-1.5c0.2-0.6,0.4-1.3,0.3-1.9
		c0.1-1.3-0.4-2.6-1.3-3.5c-1.6-1.2-3.7-1.6-5.6-1c-0.6,0.2-1.1,0.4-1.6,0.7c-0.3,0.2-0.6,0.3-0.9,0.3c-0.4,0.1-0.7,0-1.1-0.1
		c-0.4-0.1-0.7-0.4-0.9-0.7c-0.3-0.4-0.4-0.9-0.4-1.4v-10.4c-0.1-0.9,0.2-1.9,0.9-2.6c0.8-0.5,1.8-0.7,2.8-0.7h10.1
		c0.6,0,1.1,0.2,1.5,0.7C131.5,104.6,131.7,105.1,131.7,105.7z"/>
</g>
</svg>
