<?xml version="1.0" encoding="utf-8"?>
<!-- Generator: Adobe Illustrator 16.0.0, SVG Export Plug-In . SVG Version: 6.00 Build 0)  -->
<!DOCTYPE svg PUBLIC "-//W3C//DTD SVG 1.1//EN" "http://www.w3.org/Graphics/SVG/1.1/DTD/svg11.dtd">
<svg version="1.1" id="레이어_1" xmlns="http://www.w3.org/2000/svg" xmlns:xlink="http://www.w3.org/1999/xlink" x="0px"
	 y="0px" width="287.5px" height="254.2px" viewBox="0 0 287.5 254.2" style="enable-background:new 0 0 287.5 254.2;"
	 xml:space="preserve">
<style type="text/css">
<![CDATA[
	.st0{fill:#7B4320;}
	.st1{fill:#E5815C;}
	.st2{fill:none;stroke:#431E17;stroke-width:2.1999;stroke-linecap:round;stroke-linejoin:round;stroke-miterlimit:2.1999;}
	.st3{fill:#B352D7;}
	.st4{fill:#ECAA92;}
	.st5{fill:#581F15;}
	.st6{fill:none;stroke:#E5815C;stroke-width:3.2998;stroke-linecap:round;stroke-linejoin:round;stroke-miterlimit:2.1999;}
	.st7{fill:#270F0B;}
	.st8{fill:none;stroke:#EE6464;stroke-width:1.55;stroke-linecap:round;stroke-linejoin:round;stroke-miterlimit:2.0535;}
	.st9{fill:none;stroke:#2E0A0A;stroke-width:1.0999;stroke-linecap:round;stroke-linejoin:round;stroke-miterlimit:2.1999;}
	.st10{fill:#983232;}
	.st11{fill:#2E130E;}
	.st12{fill:#FFB79C;}
	.st13{fill:#FFD4B8;}
	.st14{fill:#FFECA3;}
	.st15{fill:#FFFFFF;}
	.st16{fill:#64331C;}
	.st17{fill:none;stroke:#ECAA92;stroke-width:2.1999;stroke-linecap:round;stroke-linejoin:round;stroke-miterlimit:2.1999;}
	.st18{fill:none;stroke:#270F0B;stroke-width:2.1999;stroke-linecap:round;stroke-linejoin:round;stroke-miterlimit:2.1999;}
	.st19{fill:none;stroke:#6633CC;stroke-width:5.4997;stroke-linecap:round;stroke-linejoin:round;stroke-miterlimit:2.1999;}
	.st20{fill:none;stroke:#EE6464;stroke-width:1.6499;stroke-linecap:round;stroke-linejoin:round;stroke-miterlimit:2.1999;}
	.st21{fill:#D20B0B;}
	.st22{fill:#742222;}
	.st23{fill:#431E17;}
]]>
</style>
<g transform="matrix( 0.5499725341796875, 0, 0, 0.5499725341796875, 835,1228.6) ">
	<g transform="matrix( 1, 0, 0, 1, -3.95,-13.3) ">
		<g transform="matrix( 1, 0, 0, 1, -7.75,7.7) ">
			<g>
				<g id="boy005_____5_0_Layer1_0_FILL">
					<path class="st5" d="M-1416.2-2044c-1,0.2-2.5,0.2-4.4,0.1c-2.1-0.1-3.6-0.1-4.4,0c-2.4,0.2-5.7,1.2-9.9,3.1
						c-7,3.1-12.3,5.6-15.9,7.6c-5.7,3.1-10.4,6.5-14.2,10.1c-5.6,5.3-9.8,11.5-12.7,18.7c-2.6,6.5-3.3,12.3-2.1,17.5
						c0.7,3,2.1,5.7,4.1,8c2.1,2.4,4.6,3.9,7.5,4.5c-2.5,3.8-4.5,7.2-5.9,10c-1.8,3.8-3,7.4-3.5,10.9c-0.6,4-0.4,7.8,0.8,11.5
						c1.2,4,3.3,7.1,6.2,9.4c2,1.6,4.4,2.6,7.1,3.2c2.5,0.6,5.1,0.7,7.9,0.3c-0.8,6.2-1.1,11.3-1,15.4c0.1,5.6,1.1,10.6,2.8,14.8
						c2.1,4.9,5.3,8.9,9.7,11.8c4.7,3.1,9.4,4.2,14.2,3.3c0.1,5.8,2,11.2,5.7,16.2c3.6,5,8.2,8.6,13.7,10.9
						c5.3,2.2,11.1,3.1,17.2,2.5c5.9-0.5,11.5-2.2,16.7-5.1c6.2-3.5,11-8.2,14.6-14.2c3.8-6.3,5.3-12.8,4.6-19.5
						c10.1-2.6,17.1-7.1,21-13.5c1.6-2.6,2.7-5.7,3.4-9.4c0.5-2.7,0.8-6.1,0.9-10.1c0.7-23.1-2.8-45.6-10.4-67.5
						c-0.6-1.7-0.9-3-0.8-3.9c0-0.7,0.2-1.4,0.6-2.2c0.1-0.3,0.5-1,1.1-2c2.4-4.3,3.7-9,4.1-14.1c0.4-5-0.2-9.9-1.8-14.7
						c-1.5-4.6-3.9-8.9-7.1-12.9c-3.1-3.9-6.8-7.2-11-9.9c-6.7-4.3-14-6.6-21.9-6.9c-8.3-0.3-15.5,1.8-21.5,6.1
						c-1.7,1.2-4.1,3.2-7.3,6C-1411-2045.7-1413.7-2044.4-1416.2-2044z"/>
				</g>
			</g>
			<g>
				<path id="boy005_____5_0_Layer1_0_1_STROKES" class="st9" d="M-1376.7-1859.3c-5.2,2.9-10.8,4.6-16.7,5.1
					c-6.1,0.5-11.9-0.3-17.2-2.5c-5.5-2.3-10.1-5.9-13.7-10.9c-3.7-5.1-5.6-10.5-5.7-16.2c-4.8,0.9-9.5-0.2-14.2-3.3
					c-4.4-3-7.6-6.9-9.7-11.8c-1.8-4.3-2.7-9.2-2.8-14.8c-0.1-4.1,0.2-9.2,1-15.4c-2.7,0.3-5.3,0.2-7.9-0.3
					c-2.7-0.6-5.1-1.7-7.1-3.2c-2.9-2.3-5-5.4-6.2-9.4c-1.1-3.7-1.4-7.5-0.8-11.5c0.5-3.5,1.7-7.1,3.5-10.9c1.4-2.8,3.4-6.2,5.9-10
					c-2.8-0.6-5.3-2.2-7.5-4.5c-2-2.3-3.4-5-4.1-8c-1.2-5.2-0.5-11,2.1-17.5c2.9-7.2,7.1-13.5,12.7-18.7c3.8-3.6,8.5-6.9,14.2-10.1
					c3.6-2,8.9-4.5,15.9-7.6c4.2-1.9,7.5-2.9,9.9-3.1c0.9-0.1,2.4,0,4.4,0c1.9,0.1,3.4,0.1,4.4-0.1c2.5-0.4,5.2-1.7,8.1-4
					c3.2-2.8,5.6-4.7,7.3-6c6-4.4,13.2-6.4,21.5-6.1c7.9,0.3,15.2,2.6,21.9,6.9c4.2,2.7,7.9,6,11,9.9c3.2,4,5.6,8.3,7.1,12.9
					c1.6,4.8,2.2,9.7,1.8,14.7c-0.4,5.1-1.7,9.8-4.1,14.1c-0.6,1.1-1,1.7-1.1,2c-0.4,0.8-0.6,1.5-0.6,2.2c-0.1,0.9,0.2,2.2,0.8,3.9
					c7.6,21.9,11,44.4,10.4,67.5c-0.1,4-0.4,7.4-0.9,10.1c-0.7,3.6-1.8,6.8-3.4,9.4c-3.9,6.3-10.9,10.8-21,13.5
					c0.7,6.6-0.9,13.1-4.6,19.5C-1365.7-1867.5-1370.5-1862.8-1376.7-1859.3z"/>
			</g>
		</g>
		<g transform="matrix( 1, 0, 0, 1, 7.25,19.55) ">
			<g>
				<g id="boy005_____5_0_Layer1_1_FILL">
					<path class="st16" d="M-1348.9-2224.7c-4.5,6.7-6.5,13.8-6,21.4c-4.7-1-9.3-0.2-13.9,2.4c-4.5,2.5-7.9,5.9-9.9,10.4
						c-1.4,2.9-2.2,6-2.4,9.3c-1.1-0.3-2.3-0.5-3.5-0.7c-5.6-1-10.9-0.6-15.8,1c-5.2,1.8-9.5,4.9-12.9,9.4
						c-3.6,4.6-5.3,9.5-5.3,14.7c-5.1-2.2-10.4-2.7-16.2-1.6c-5.8,1.2-10.5,3.8-14.2,7.9c-3.8,4.1-6,9-6.8,14.8
						c-0.8,5.8,0.1,11.1,2.6,16c-3.1,1.6-6.7,5.8-10.7,12.7c-3.8,6.5-7.5,10.4-11.2,11.6c-0.9,0.3-2.1,0.5-3.5,0.6
						c-0.8,0.1-2,0.2-3.6,0.4c-4.4,0.6-9,2.4-13.7,5.5c-7.4,4.7-13.4,11.1-18,19c-4.6,7.9-7,16.3-7.4,25.1
						c-0.2,5.8,0.6,11.1,2.4,15.9c2,5.5,5.2,9.6,9.3,12.5c-5.3,5.8-7.9,13-7.6,21.7c0.3,8.6,3.3,15.6,9.1,21
						c-4,7.4-5.2,15.8-3.6,24.9c1.5,8.8,5.3,16.6,11.2,23.2c5.6,6.2,12.6,11.1,21,14.6c7.6,3.2,15.8,5.2,24.7,5.8
						c0.6,0.9,1.2,1.7,1.9,2.5c1.5,1.6,2.6,2.8,3.3,3.6c1.3,1.4,2.3,2.7,3,3.9c1.1,1.9,2,4.6,2.6,8.1c0.8,5.1,1.3,8,1.5,8.7
						c1.4,5.1,4.3,9.5,8.7,13.4c4.1,3.6,8.8,6.2,14.2,7.8c9.2,2.6,19.9,2.2,32.2-1.3c6.3,7.4,13.8,13.7,22.5,19
						c8.4,5.1,17.4,9,27.2,11.7c17.9,5,37.5,5.9,58.7,2.7c20.3-2.9,39.6-9.3,58.1-19c7.2-4.1,12.7-7.1,16.4-9c6.4-3.3,12-5.7,17-7
						c3.9-1.1,8.6-1.9,14.1-2.4l14.4-1c18.5-1.5,34.7-5,48.7-10.4c5.9-2.3,10.7-4.8,14.6-7.6c4.9-3.5,8.4-7.5,10.5-12
						c1-2.4,1.8-4.2,2.3-5.3c1-2,2.1-3.5,3.3-4.5c1.1-0.9,2.7-1.7,4.7-2.3c1.1-0.3,2.8-0.8,5.1-1.5c3.9-1.3,7.1-3.8,9.7-7.4
						c2.6-3.5,3.9-7.4,4-11.5c8.3-2.5,14.6-5.8,19-9.8c2.7-2.6,4.8-5.5,6.1-8.8c1.4-3.6,1.9-7.1,1.3-10.5c4.7-0.2,9.2-1.6,13.3-4.3
						c4.1-2.7,7.3-6.2,9.4-10.4c2.1-4.2,3-8.8,2.7-13.6c-0.3-4.9-1.8-9.3-4.4-13.1c4.7-4.9,7.8-10.9,9.2-17.9
						c1.4-7,0.8-13.6-1.9-19.8c-0.3-0.8-1.2-2.5-2.5-5c-1.1-2.1-1.8-3.8-2.3-5.1c-0.7-1.9-1.3-4.3-1.7-7.1c-0.3-1.6-0.6-4-0.9-7.3
						c-1.2-8.1-3.5-15.1-7.1-21.3c-4.1-7-9.3-11.9-15.7-14.6c-5.1-2.2-10.5-2.7-16.3-1.8c0.7-2.3,1.1-4.8,1.5-7.6
						c0.9-8.1,0-14.9-2.6-20.5c-1.5-3.3-3.5-6-6.2-8.2c-2.8-2.4-5.9-3.8-9.3-4.3c0.9-7.4-1.3-14.3-6.5-20.7
						c-5.3-6.3-11.7-9.7-19.2-10.1c-3.6-6.9-9.3-11.8-17.1-14.7c-7.8-2.9-15.4-3-22.6-0.1c-2.2-5.3-5.9-9.4-11.2-12.4
						c-5.3-3-10.8-4.1-16.4-3.3c-0.8-7.8-3.7-15-8.6-21.6c-5-6.6-11.1-11.4-18.4-14.2c-7.3-2.9-15-3.7-23.1-2.4
						c-8.1,1.4-15.1,4.7-21.1,9.8c-2.1,1.8-3.2,2.7-3.3,2.8c-1.3,1-2.6,1.6-3.8,1.8c-1.3,0.2-2.9,0.1-4.9-0.4c-2.6-0.7-4.2-1-5-1
						c-1.6-0.1-3.8,0.3-6.5,1.2c-3,1-5.1,1.5-6.5,1.6c-1.6,0.1-4.9-0.5-9.6-1.6c-4-1-7.1-1-9.3-0.1c0,0-1.1,0.7-3.3,2
						c-1.3,0.8-2.5,1.2-3.6,1.1c-1.3,0-2.6-0.7-3.8-1.9c-0.6-0.6-1.6-1.9-2.9-3.8c-4.2-6.3-10.2-10.7-17.8-13.2
						c-7.6-2.5-15-2.6-22.2-0.1C-1338.7-2235.9-1344.4-2231.4-1348.9-2224.7z"/>
				</g>
			</g>
		</g>
		<g transform="matrix( -1, 0, 0, 1, -4,13.3) ">
			<g>
				<g id="boy005_____5_0_Layer1_2_FILL">
					<path class="st13" d="M1452.3-1913.1c-6.2-8.9-14.6-13.4-25-13.4c-12.7,0-23.1,4.3-31.1,12.9c-6.9,7.4-13.1,19.2-18.6,35.2
						c0,0.7,0,1.4,0.1,2.1c0.6,9.7,1.7,18.1,3.5,25.2c5.4,22.8,16.4,34.3,33,34.3c6,0,11.9-2.1,17.8-6.3c5.4-3.9,10.3-9.4,14.8-16.3
						c4.3-6.6,7.7-13.9,10.1-21.8c2.5-8,3.8-15.6,3.8-22.9C1460.6-1895.4,1457.8-1905.1,1452.3-1913.1z"/>
				</g>
			</g>
		</g>
		<g transform="matrix( -1, 0, 0, 1, 583.65,-255.25) ">
			<g>
				<g id="boy005_____5_0_Layer1_3_FILL">
					<path class="st12" d="M1979.9-1623.2c-0.8,0.9-1.6,1.7-2.5,2.4c-4.6,3.3-6.8,7.6-6.6,12.9c0.2,6.3,1.3,12.4,3.3,18.4
						c2.2,6.3,6.3,10.7,12.4,13.2c6.3,2.6,12.6,2.8,19,0.6c6.1-2.1,10.7-5.9,13.7-11.6c3.1-5.7,5.2-11.8,6.4-18.2
						c1.2-6.4,0.5-12.7-1.9-18.8c-2.6-6.6-7.3-10.5-14.1-11.7c-5-0.4-9.9,0.3-14.6,2.2C1989.1-1631.6,1984-1628,1979.9-1623.2z"/>
				</g>
			</g>
		</g>
		<g transform="matrix( 1, 0, 0, 1, 3.95,13.3) ">
			<g>
				<g id="boy005_____5_0_Layer1_4_FILL">
					<path class="st16" d="M-1400.9-1913.4c0-7.1-0.3-15.4-0.9-25.1l-8.9-69.6l-22.8,69.6c2.7,15.2,6.4,28.4,11.1,39.5
						c3.1,7.2,6.3,12.8,9.6,16.9c2.8,3.4,5.1,5.1,6.8,5.1c2.2,0,3.6-3.5,4.3-10.4C-1401.1-1891.9-1400.9-1900.6-1400.9-1913.4z"/>
				</g>
			</g>
		</g>
		<g transform="matrix( 1, 0, 0, 1, 3.95,13.3) ">
			<g>
				<g id="boy005_____5_0_Layer1_5_FILL">
					<path class="st13" d="M-1055.1-1913.1c-6.2-8.9-14.6-13.4-25-13.4c-12.7,0-23.1,4.3-31.1,12.9c-6.9,7.4-13.1,19.2-18.6,35.2
						c0,0.7,0,1.4,0,2.1c0.6,9.7,1.8,18.1,3.5,25.2c5.4,22.8,16.4,34.3,33,34.3c6,0,11.9-2.1,17.8-6.3c5.4-3.9,10.3-9.4,14.8-16.3
						c4.3-6.6,7.7-13.9,10.1-21.8c2.5-8,3.8-15.6,3.8-22.9C-1046.8-1895.4-1049.5-1905.1-1055.1-1913.1z"/>
				</g>
			</g>
		</g>
		<g transform="matrix( 1, 0, 0, 1, -583.7,-255.25) ">
			<g>
				<g id="boy005_____5_0_Layer1_6_FILL">
					<path class="st12" d="M-527.5-1623.2c-0.8,0.9-1.6,1.7-2.5,2.4c-4.6,3.3-6.8,7.6-6.6,12.9c0.2,6.3,1.3,12.4,3.4,18.4
						c2.2,6.3,6.3,10.7,12.4,13.2c6.3,2.6,12.6,2.8,19,0.6c6.1-2.1,10.7-5.9,13.8-11.6c3.1-5.7,5.2-11.8,6.4-18.2
						c1.2-6.4,0.5-12.7-1.9-18.8c-2.6-6.6-7.3-10.5-14-11.7c-5-0.4-9.9,0.3-14.6,2.2C-518.2-1631.6-523.3-1628-527.5-1623.2z"/>
				</g>
			</g>
		</g>
		<g transform="matrix( 1, 0, 0, 1, 3.95,13.3) ">
			<g>
				<g id="boy005_____5_0_Layer1_7_FILL">
					<path class="st16" d="M-1113.4-1940c-0.9,12.5-1.3,23.1-1.3,31.8c0,12.8,0.2,21.5,0.7,26.1c0.7,6.9,2.1,10.4,4.3,10.4
						c1.7,0,4-1.7,6.9-5.1c3.4-4.1,6.6-9.7,9.7-16.9c5.4-12.7,9.5-28.1,12.3-46.2c6.7-67.7,1-89.6-17.2-66
						C-1114.5-2011.7-1119.6-1989.7-1113.4-1940z"/>
				</g>
			</g>
		</g>
		<g transform="matrix( 1, 0, 0, 1, 0,0) ">
			<g>
				<g id="boy005_____5_0_Layer1_8_FILL">
					<path class="st13" d="M-1114.3-2048.3c-37.2-26.6-82.3-43.2-135.3-49.6c-55,4-103.2,21.6-144.6,52.6
						c-9.1,19.3-13.7,41.8-13.7,67.5c0,19.5,1.2,40.9,3.7,64.3c3.2,31.3,4.9,47.8,5,49.4c0.1,1.8,0.3,6.3,0.6,13.4
						c0.2,5.5,0.5,9.9,0.9,13.4c1.1,10.3,3.9,19.3,8.2,27c1,1.9,1.9,3.5,2.8,5c9.1,14.3,21.5,24.8,37.3,31.4
						c16.6,6.9,33.7,11.4,51.5,13.6c14.8,1.8,29.7,2.3,44.6,1.7c14.9,0.6,29.8,0,44.6-1.7c17.8-2.1,34.9-6.6,51.5-13.6
						c15.8-6.6,28.2-17.1,37.3-31.4c0.8-1.4,1.7-3.1,2.8-5c4.3-7.7,7-16.7,8.2-27c0.4-3.4,0.7-7.9,0.9-13.4
						c0.3-7.1,0.5-11.6,0.6-13.4c0.1-1.6,1.8-18.1,5-49.4c2.4-23.4,3.7-44.8,3.7-64.3C-1099.1-2004.8-1104.2-2028.3-1114.3-2048.3z"
						/>
				</g>
			</g>
		</g>
		<g transform="matrix( 1, 0, 0, 1, 0,0) ">
			<g>
				<g id="boy005_____5_0_Layer1_9_FILL">
					<path class="st16" d="M-1438.7-2074.6c-6,7.4-11,15.4-14.9,24c-4.2,9.2-6.3,17.7-6.2,25.5c0,4.6,0.8,8.9,2.3,13
						c1.6,4.4,3.9,8.1,7,11c0.9,0.8,3,2.6,6.5,5.3c2.7,2.1,4.7,4.1,6,5.8c1.9,3.2,3.4,5.5,4.5,7.1c0.4,1.8,1.2,3.4,2.3,4.9
						c2,2.7,4.9,4.5,8.7,5.4c1.7,0.4,3.6,0.6,5.7,0.6c1.5,0,3.1-0.2,4.8-0.5c5.7-0.9,10.4-2.9,14.2-6c2.1-1.8,3.8-3.8,4.9-6.1
						c1.3-2.4,2-4.9,2-7.5c2.4,2.8,5.5,4.4,9.4,4.9c3.9,0.5,7.3-0.3,10.1-2.4c3.5-2.6,5.9-6.5,7.2-11.9c1.3-5.4,1.2-10.9-0.3-16.5
						c-1.5-5.6-4.2-10.4-8.1-14.5c0.3-0.9,0.9-1.7,1.9-2.5c1.6,1.2,3.5,2.2,5.5,2.8c4.9,1.6,10.1,1.5,15.5-0.3
						c5.1-1.8,9.5-4.7,13.1-8.8c1.2,1.3,2.2,3.2,3.1,5.8c1.2,3.6,2,5.7,2.3,6.4c2,4,5.2,6.8,9.8,8.4c4.6,1.6,8.9,1.6,13.1-0.1
						c4.1-1.6,7.4-4.5,9.8-8.6c2.3-4.1,3.2-8.5,2.7-12.9c4.2-0.2,6.8,0.7,7.7,2.8c0.3,0.7,0.4,1.6,0.3,2.5c0,0-0.2,0.9-0.5,2.6
						c-0.7,4.1,0,8,2.1,11.9c2.2,3.9,5.2,6.6,9,8.1c3.9,1.5,7.9,1.5,12.1,0.1c4.2-1.5,7.3-4,9.5-7.5c0.5-0.7,1.1-1.8,1.8-3.3
						c0.8-1.2,1.7-2.1,2.5-2.7c1-0.6,3.2-0.9,6.4-1.1c2.8-0.1,4.6-0.8,5.5-2.1c-0.4,3.9,0.5,7.5,2.7,11c2.2,3.5,5.1,5.8,8.7,6.9
						c3.7,1.1,7.4,0.6,11-1.4c3.7-2,6-4.8,6.9-8.5c2.1,2.1,4.9,2.9,8.5,2.4c3.2-0.5,6.1-1.9,8.8-4.1c0.9-0.7,3.2-3,6.9-6.7
						c2.7-2.8,5.2-4.7,7.4-5.8c3.7-1.9,7.8-2.3,12.2-1.3c4.4,1,7.9,3.2,10.4,6.5c-3.3,3.3-5.2,7.4-5.7,12.3
						c-0.5,4.9,0.6,9.3,3.3,13.2c2.7,3.8,6.4,6.3,11.2,7.6c4.8,1.3,9.2,1,13.5-1c0.8-0.3,1.9-0.9,3.2-1.6c1.3-0.6,2.4-0.8,3.4-0.8
						c1.6,0,3,0.7,4.4,1.9c1.2,1.1,2.1,2.5,2.7,4.2c0.4,1.2,0.8,2.8,1.1,4.7c0.4,2.6,0.6,4.2,0.7,4.8c0.7,3.2,2,6.1,3.9,8.8
						c2,2.7,4.5,4.7,7.3,6c3,1.4,6.2,1.7,9.6,1.2c3.4-0.6,6.1-2.2,8.2-4.6c0.9-1.1,1.7-2.4,2.4-3.9c0.4-0.9,0.8-1.9,1.2-3
						c0.5-1.6,1.1-4,1.9-7.2c1.3-1.1,2.8-2.6,4.3-4.4c5-6,8.6-11.9,10.9-17.7c3-7.6,4.1-16,3.3-25.3c-0.7-8.2-2.7-16.6-6.2-25.3
						c-7.6-18.8-19.7-35.3-36.5-49.6c-15.8-13.6-33.9-23.7-54.4-30.5c-35.4-11.8-76.6-13.4-123.6-5c-16.9,3-31.4,6.8-43.5,11.5
						c-4.8,1.8-10.6,4.3-17.6,7.6c-11.2,5.2-17,7.9-17.5,8.1c-6,2.7-15.2,6.7-27.5,11.9c-10.6,4.8-19.3,9.5-26.1,14.3
						C-1425.7-2088.2-1432.6-2081.9-1438.7-2074.6z"/>
				</g>
			</g>
		</g>
	</g>
	<g transform="matrix( 1, 0, 0, 1, -0.35,179.3) ">
		<g transform="matrix( 1, 0, 0, 1, 0,0) ">
			<g>
				<path id="boy005______0_Layer0_0_1_STROKES" class="st20" d="M-1278.7-1998.9c17.2,12.8,34.6,12.5,52.2-0.8"/>
			</g>
		</g>
	</g>
	<g transform="matrix( 1, 0, 0, 1, -0.35,149.8) ">
		<g transform="matrix( 1, 0, 0, 1, 0,0) ">
			<g>
				<g id="boy005___5_0_Layer0_0_STROKES_1_FILL">
					<path class="st1" d="M-1260.2-2011.1l-0.6,0.2l-0.3,0.1l-0.2,0l-1.9,1l-1.4,1c-0.1,0.1-0.3,0.2-0.5,0.4l-0.5,0.4
						c-0.8,0.8-1.4,1.6-1.9,2.4c-0.3,0.5-0.5,1-0.7,1.5l-0.2,0.4l-0.1,0.4l-0.2,0.4l-0.2,1.4l-0.1,0.9c0,0.6,0.1,1.3,0.2,1.9
						l0.5,1.8l0.1,0.4l0.1,0.1l0,0v0l0.1,0.2l0,0.1l1.1,1.9l0.5,0.6l0.2,0.2l0.1,0.1l0.3,0.3c0.6,0.7,1.3,1.4,2.2,2l0.5,0.4l0.3,0.1
						l0.2,0.1l0.2,0l1.2,0.5l0.6,0.2l0.3,0l0.3,0.1l0.5,0.1l1.8,0.1l1.4-0.3l0.4-0.1l0.1-0.1l0,0l-1.4-1.1l-0.2-0.3l-0.2-0.1
						l-0.1-0.1l-1.5-1.4l-0.6-0.7l-0.1-0.2l-0.3-0.4l-0.1-0.2c-0.3-0.5-0.6-1.1-0.9-1.8l-0.3-0.5l-0.8-2.2v0l0,0l-0.3-1.2
						c-0.1-0.4-0.2-1-0.2-1.7l0.1-0.2v-0.3l0.1-0.4v-0.2l0.1-0.3l0.1-0.5c0.3-0.9,0.5-1.6,0.7-1.9l1.1-2.2l0.2-0.2l0.8-1.5l0.1-0.1
						l0.5-0.9l0.1-0.3l0.4-0.7l0-0.2h-0.1L-1260.2-2011.1z"/>
				</g>
			</g>
		</g>
	</g>
	<g transform="matrix( 1.686859130859375, 0, 0, 1.6790008544921875, -1019.55,-526.55) ">
		<g>
			<g id="boy005_____5____0_Layer4_0_FILL">
				<path class="st15" d="M-69.6-813c0-7.5-2.7-13.9-8-19.2c-5.3-5.3-11.6-7.9-19.1-7.9c-7.5,0-13.9,2.6-19.2,7.9
					c-5.3,5.3-7.9,11.7-7.9,19.2s2.6,13.9,7.9,19.1c5.3,5.3,11.7,8,19.2,8c7.5,0,13.9-2.7,19.1-8C-72.2-799.1-69.6-805.5-69.6-813z"
					/>
			</g>
		</g>
	</g>
	<g transform="matrix( -1.686859130859375, 0, 0, 1.6790008544921875, 1013.7,-526.55) ">
		<g>
			<g id="boy005_____5____0_Layer4_1_FILL">
				<path class="st15" d="M1416.8-813c0-7.5-2.7-13.9-8-19.2c-5.3-5.3-11.7-7.9-19.2-7.9c-7.5,0-13.9,2.6-19.2,7.9
					c-5.3,5.3-7.9,11.7-7.9,19.2s2.6,13.9,7.9,19.1c5.3,5.3,11.7,8,19.2,8c7.5,0,13.9-2.7,19.2-8
					C1414.1-799.1,1416.8-805.5,1416.8-813z"/>
			</g>
		</g>
	</g>
	<g transform="matrix( 1.3050994873046875, 0, 0, 1.4173583984375, -769.95,-423.9) ">
		<g>
			<g id="boy005_____5____0_Layer3_0_MEMBER_0_FILL">
				<path class="st11" d="M-292.4-1031c0-7.1-2.5-13.1-7.5-18.1c-5-5-11-7.5-18-7.5c-7.1,0-13.1,2.5-18.1,7.5c-5,5-7.5,11-7.5,18.1
					c0,7.1,2.5,13.1,7.5,18.1c5,5,11,7.5,18.1,7.5c7.1,0,13.1-2.5,18-7.5C-294.9-1017.9-292.4-1024-292.4-1031z"/>
			</g>
		</g>
	</g>
	<g transform="matrix( -1.24346923828125, 0, 0, 1.24346923828125, -21.35,-13.6) ">
		<g>
			<g id="boy005_____5____0_Layer3_0_MEMBER_1_FILL">
				<path class="st15" d="M954.9-1517.9c0-1.7-0.6-3.2-1.8-4.3c-1.2-1.2-2.7-1.8-4.4-1.8c-1.7,0-3.2,0.6-4.4,1.8s-1.8,2.7-1.8,4.3
					c0,1.7,0.6,3.2,1.8,4.4c1.2,1.2,2.7,1.8,4.4,1.8c1.7,0,3.2-0.6,4.4-1.8C954.3-1514.7,954.9-1516.2,954.9-1517.9z"/>
			</g>
		</g>
	</g>
	<g transform="matrix( -1.3050994873046875, 0, 0, 1.4173583984375, 764.1,-423.9) ">
		<g>
			<g id="boy005_____5____0_Layer2_0_MEMBER_0_FILL">
				<path class="st11" d="M1628.7-1031c0-7.1-2.5-13.1-7.5-18.1c-5-5-11-7.5-18-7.5c-7.1,0-13.1,2.5-18.1,7.5c-5,5-7.4,11-7.4,18.1
					c0,7.1,2.5,13.1,7.4,18.1c5,5,11,7.5,18.1,7.5c7.1,0,13.1-2.5,18-7.5C1626.2-1017.9,1628.7-1024,1628.7-1031z"/>
			</g>
		</g>
	</g>
	<g transform="matrix( 1.24346923828125, 0, 0, 1.24346923828125, 15.5,-13.6) ">
		<g>
			<g id="boy005_____5____0_Layer2_0_MEMBER_1_FILL">
				<path class="st15" d="M-1061.5-1517.9c0-1.7-0.6-3.2-1.8-4.3c-1.2-1.2-2.7-1.8-4.4-1.8c-1.7,0-3.2,0.6-4.4,1.8
					c-1.2,1.2-1.8,2.7-1.8,4.3c0,1.7,0.6,3.2,1.8,4.4c1.2,1.2,2.7,1.8,4.4,1.8c1.7,0,3.2-0.6,4.4-1.8
					C-1062.1-1514.7-1061.5-1516.2-1061.5-1517.9z"/>
			</g>
		</g>
	</g>
	<g transform="matrix( 1, 0, 0, 1, 71,77.5) ">
		<g transform="matrix( -1.24346923828125, 0, 0, 1.24346923828125, -90.05,-98.85) ">
			<g>
				<g id="boy005_______5_0_Layer2_0_STROKES_1_FILL">
					<path class="st4" d="M922.5-1468.7l-2.4-0.2c-0.1,0-0.1,0-0.1,0.1l0,0l1,0.7l4,2l2.7,0.9c1.2,0.4,2.2,0.7,3,0.8l3.3,0.6
						c1,0.1,2.2,0.2,3.5,0.2l2.2,0l0.8-0.1h0.3l0.2,0l0.8-0.1l2.5-0.5c0.9-0.2,1.9-0.6,3-1l0.3-0.1l0.2-0.1l0.1,0l0.7-0.3l0.3-0.2
						l0.3-0.2l0.3-0.2l0.1-0.1l0.2-0.1c0.6-0.4,1.2-0.8,2-1.4l0.8-0.6l1.6-1.8l0-0.1h-0.1l-1.1,0.4l-0.3,0.1l-0.7,0.3l-0.2,0.1
						l-3.4,1.1l-0.3,0l-0.3,0.1c0,0-0.3,0.1-0.7,0.1H947l-0.2,0.1l-3.1,0.5h-0.4l-0.2,0H943l-2.3,0.2h-0.4l-0.3,0h-4.4l-0.4,0h-0.8
						l-0.2-0.1H934l-0.4,0h-0.7l-9.9-1l-0.2,0H922.5z"/>
				</g>
			</g>
		</g>
		<g transform="matrix( 1.8548583984375, 0, 0, 1.8548583984375, -1199.3,-665) ">
			<g>
				<g id="boy005_______5_0_Layer1_0_STROKES_1_FILL">
					<path class="st7" d="M-21.3-728.3l-3.1-0.9l-2.5-0.4l-0.2,0h-0.2l-0.7-0.1h-0.4l-0.4,0h-0.5c-1.3,0-2.2,0-2.9,0.1l-1.7,0.2
						l-0.4,0.1l-1.1,0.2l-0.4,0.1l-0.4,0l-1.7,0.5c-1,0.3-1.9,0.6-2.6,1l-0.2,0l-0.2,0.1l-0.3,0.1l-1.7,0.9
						c-0.7,0.3-1.4,0.8-2.2,1.4l-4.6,4.1l-2.7,3.8l0,0.2l-0.1,0.1l-0.7,1.3l-0.1,0.4l-0.2,0.3l-0.2,0.6c-0.1,0.1-0.1,0.2,0,0.2h0.1
						l1-1.1l5.3-4.7l0.4-0.2c1-0.8,2.2-1.5,3.6-2.2l1.2-0.7l0.2-0.1l0.3-0.2l2.4-0.9l1.2-0.4l0.3,0l0.3-0.1l0.3,0l0.9-0.3l3.1-0.5
						h0.3l0.9-0.1c1.1-0.1,2-0.1,2.6-0.1h0l-0.1,0h0l0.1,0h0.5l0.2,0.1h0.5l0.3,0h0.2l0.1,0l2.2,0.3l0.2,0.1h0.2l1.2,0.2l0.3,0.1
						l0.3,0.1l1.8,0.5l0.3,0l1.4,0.6c0.3,0.1,1,0.4,2.2,0.9l0.5,0.3l0.4,0.2l0.1,0.1l2,1.2l0.1,0.1l1.1,0.8l0.2,0.1l2.8,2.2l0.3,0.3
						l0.3,0.2l4.1,4.1h0.2v-0.2l-0.2-0.6l-0.2-0.3l-2.3-3.9l-0.5-0.7l-0.2-0.4l-2.6-2.9l-3-2.5l-0.5-0.3l-0.1-0.1l-0.2,0l-0.2-0.2
						l-1.1-0.7l-0.6-0.3l-0.3-0.2l-0.9-0.4c-0.7-0.3-1.5-0.7-2.6-1.1L-21.3-728.3z"/>
				</g>
			</g>
		</g>
		<g transform="matrix( 1, 0, 0, 1, 4.15,-61.25) ">
			<g transform="matrix( 1.02435302734375, 0.0494842529296875, -0.0562744140625, 1.164306640625, -681.3,-384.95) ">
				<g>
					<g id="boy005____2_Layer0_0_STROKES_1_FILL">
						<path class="st23" d="M-658.4-1358.8l0.4-0.1l3.3-0.8l3.5-0.6l0.1,0l0.2-0.1l0.3,0c2.3-0.2,4.2-0.3,5.8-0.3
							c1.3,0,2.2,0,2.8,0.1l4.9,0.6l0.4,0.1l0.3,0l2.7,0.6l0.3,0.1l0.3,0.1l2.6,0.7l7.3,2.8l8,3.9c0.1,0.1,0.2,0.1,0.1,0l0-0.1
							l-2.1-1.9c-0.7-0.6-1.5-1.3-2.5-2.1l-2.5-1.8l-5.7-3.2l-4.6-1.8l-3.6-1l-2.7-0.5c-2-0.3-4.1-0.5-6.3-0.5c-1.4,0-2.5,0-3.2,0.1
							l-1.6,0.1l-0.2,0l-0.2,0l-1.5,0.3l-0.2,0l-3.9,0.9l-5.5,2l-7.5,4.1l-1.6,1.2c-0.9,0.6-1.8,1.3-2.6,2l-2.1,1.9l0,0.1l0.1,0
							l4.2-2.1L-658.4-1358.8z"/>
					</g>
				</g>
			</g>
		</g>
	</g>
	<g transform="matrix( -1, 0, 0, 1, -76.85,77.5) ">
		<g transform="matrix( -1.24346923828125, 0, 0, 1.24346923828125, -90.05,-98.85) ">
			<g>
				<g id="boy005_______5_0_Layer2_0_STROKES_1_FILL_1_">
					<path class="st4" d="M-1094-1468.7l-2.4-0.2c-0.1,0-0.1,0-0.1,0.1l0,0l1.1,0.7l4,2l2.7,0.9c1.2,0.4,2.2,0.7,3,0.8l3.3,0.6
						c1,0.1,2.2,0.2,3.5,0.2l2.2,0l0.9-0.1h0.2l0.2-0.1l0.9-0.1l2.5-0.5c0.9-0.2,1.9-0.6,3-1l0.3-0.1l0.2-0.1l0.1,0l0.8-0.3l0.3-0.2
						l0.3-0.2l0.3-0.2l0.1,0l0.1-0.1c0.6-0.4,1.3-0.8,1.9-1.4l0.8-0.6l1.7-1.8l-0.1-0.1h-0.1l-1.1,0.4l-0.3,0.1l-0.8,0.3l-0.2,0
						l-3.4,1.1l-0.3,0l-0.3,0.1c0,0-0.2,0-0.6,0.1h-0.1l-0.2,0.1l-3.1,0.5h-0.4l-0.2,0h-0.2l-2.3,0.2h-0.4l-0.4,0.1h-4.3l-0.4-0.1
						h-0.8l-0.2,0h-0.2l-0.4,0h-0.8l-9.9-1l-0.2,0H-1094z"/>
				</g>
			</g>
		</g>
		<g transform="matrix( 1.8548583984375, 0, 0, 1.8548583984375, -1199.3,-665) ">
			<g>
				<g id="boy005_______5_0_Layer1_0_STROKES_1_FILL_1_">
					<path class="st7" d="M1330.5-728.3l-3.1-0.9l-2.5-0.4l-0.2,0h-0.2l-0.7-0.1h-0.3l-0.3,0h-0.5c-1.3,0-2.2,0-2.9,0.1l-1.7,0.2
						l-0.4,0.1l-1.1,0.2l-0.3,0.1l-0.3,0l-1.7,0.5c-1,0.3-1.9,0.6-2.6,1l-0.1,0l-0.2,0.1l-0.3,0.1l-1.8,0.9
						c-0.7,0.3-1.4,0.8-2.2,1.4l-4.6,4.1l-2.7,3.8l0,0.2l-0.1,0.1l-0.7,1.3l-0.1,0.4l-0.2,0.3l-0.3,0.6c-0.1,0.1-0.1,0.2,0,0.2h0.1
						l1-1.1l5.3-4.7l0.4-0.2c1-0.8,2.2-1.5,3.6-2.2l1.2-0.7l0.3-0.1l0.2-0.2l2.5-0.9l1.1-0.4l0.3,0l0.3-0.1l0.3,0l0.9-0.3l3.1-0.5
						h0.3l1-0.1c1.1-0.1,2-0.1,2.5-0.1h0.1l-0.2,0h0.1l0.1,0h0.5l0.2,0.1h0.5l0.3,0h0.1l0.2,0l2.2,0.3l0.1,0.1h0.2l1.2,0.2l0.3,0.1
						l0.3,0.1l1.8,0.5l0.3,0l1.4,0.6c0.3,0.1,1,0.4,2.2,0.9l0.5,0.3l0.4,0.2l0.1,0.1l2,1.2l0.1,0.1l1.1,0.8l0.3,0.1l2.8,2.2l0.3,0.3
						l0.3,0.2l4.1,4.1h0.1v-0.2l-0.2-0.6l-0.2-0.3l-2.3-3.9l-0.5-0.7l-0.2-0.4l-2.6-2.9l-2.9-2.5l-0.6-0.3l-0.1-0.1l-0.1,0l-0.3-0.2
						l-1.1-0.7l-0.6-0.3l-0.3-0.2l-0.9-0.4c-0.7-0.3-1.5-0.7-2.5-1.1L1330.5-728.3z"/>
				</g>
			</g>
		</g>
		<g transform="matrix( 1, 0, 0, 1, 4.15,-61.25) ">
			<g transform="matrix( 1.02435302734375, 0.0494842529296875, -0.0562744140625, 1.164306640625, -681.3,-384.95) ">
				<g>
					<g id="boy005____2_Layer0_0_STROKES_1_FILL_1_">
						<path class="st23" d="M1783.7-1462.5l0.3,0l3.3-0.8l3.4-0.6l0.2,0l0.2-0.1l0.3,0c2.3-0.2,4.2-0.3,5.8-0.3c1.3,0,2.2,0,2.8,0.1
							l5,0.6l0.3,0.1l0.4,0l2.7,0.6l0.4,0.1l0.3,0.1l2.6,0.7l7.3,2.8l8.1,3.9c0.1,0.1,0.2,0.1,0.1,0l0-0.1l-2.1-1.9
							c-0.7-0.6-1.5-1.3-2.5-2.1l-2.5-1.8l-5.6-3.2l-4.6-1.8l-3.6-1l-2.6-0.5c-2-0.3-4.1-0.5-6.3-0.5c-1.4,0-2.5,0-3.2,0.1l-1.6,0.1
							l-0.2,0l-0.2,0l-1.5,0.3l-0.2,0l-4,0.9l-5.5,2l-7.5,4.1l-1.6,1.2c-0.9,0.6-1.8,1.3-2.6,2l-2.1,1.9l0,0.1l0.2,0l4.2-2.1
							L1783.7-1462.5z"/>
					</g>
				</g>
			</g>
		</g>
	</g>
</g>
</svg>
