<?xml version="1.0" encoding="utf-8"?>
<!-- Generator: Adobe Illustrator 25.0.1, SVG Export Plug-In . SVG Version: 6.00 Build 0)  -->
<svg version="1.1" id="레이어_1" xmlns="http://www.w3.org/2000/svg" xmlns:xlink="http://www.w3.org/1999/xlink" x="0px"
	 y="0px" width="173px" height="171px" viewBox="0 0 173 171" style="enable-background:new 0 0 173 171;" xml:space="preserve">
<g>
	<g id="Layer_6_17_" transform="matrix( 0.54534912109375, 0, 0, 0.54534912109375, 779.15,639.4) ">
		<g transform="matrix( 1, 0, 0, 1, 0,-1.1) ">
			<g>
				<g>
					<path style="fill:#230D08;" d="M-1272.2-1148.3c-46.8-0.3-85,12-114.4,36.8c-29.4,24.9-42.4,63.2-38.9,114.9
						c3.5,51.8,21.8,86.5,54.9,104.2c33.1,17.7,72.1,25.4,117,23.1c44.9-2.3,80-15.1,105.2-38.5c25.2-23.4,37-58.7,35.2-106
						c-1.7-47.3-17-81.5-45.7-102.6C-1187.6-1137.4-1225.4-1148-1272.2-1148.3z"/>
				</g>
			</g>
			<g>
				
					<path style="fill:none;stroke:#2D0A09;stroke-width:1.0907;stroke-linecap:round;stroke-linejoin:round;stroke-miterlimit:2.1814;" d="
					M-1113.1-1013.7c1.8,47.3-10,82.7-35.2,106c-25.2,23.4-60.3,36.2-105.2,38.5c-44.9,2.3-83.9-5.4-117-23.1
					c-33.1-17.7-51.4-52.5-54.9-104.2c-3.5-51.8,9.5-90.1,38.9-114.9c29.4-24.8,67.5-37.1,114.4-36.8c46.8,0.2,84.6,10.9,113.4,32
					C-1130.1-1095.2-1114.8-1061-1113.1-1013.7z"/>
			</g>
		</g>
	</g>
	<g id="Layer_8_12_" transform="matrix( 0.54534912109375, 0, 0, 0.54534912109375, 779.15,639.4) ">
		<g>
			<g>
				<g>
					<path style="fill:#230D08;" d="M-1261.9-1170.7c-1.1-0.4-2.3-0.4-3.6-0.1c-1.2,0.3-2.3,0.9-3.3,1.7c-2.1,1.8-3.3,4.3-3.7,7.3
						c-0.3,2.5,0.1,5.2,1.1,8.2c0.5,1.3,1.1,2.7,1.8,4.2c0.5,1,1.1,2.1,1.8,3.3c0.6,1.1,1.1,2,1.5,2.5c0.3,0.5,0.6,0.9,0.9,1.4
						l0.6,1.2c0.7,1.1,1.5,1.6,2.6,1.5c0.7-0.1,1.4-0.5,2.1-1.3c0.7,0.2,1.6,0.1,2.8-0.2c4.8-1.6,9.3-3.8,13.2-6.7
						c0.6-0.4,1.1-0.8,1.7-1.3c1.3-1.1,2.3-2,3-2.9c0.8-1.1,1.3-2.3,1.5-3.6c0.2-1.2,0.1-2.3-0.2-3.4c-0.2-0.7-0.7-1.5-1.4-2.4
						c-0.7-0.9-1.4-1.5-2.3-2c-1.1-0.6-2.3-0.9-3.8-0.8c-1.7,0-3.4,0.5-4.9,1.4c-0.8,0.5-1.8,1.2-2.7,2.1c-1,1-2,2-2.8,3.2
						c-0.1-3.5-0.6-6.3-1.6-8.6C-1258.5-1168.5-1260-1170.1-1261.9-1170.7z"/>
				</g>
			</g>
			<g>
				
					<path style="fill:none;stroke:#2D0A09;stroke-width:1.0907;stroke-linecap:round;stroke-linejoin:round;stroke-miterlimit:2.1814;" d="
					M-1269.4-1149.5c-0.8-1.5-1.4-2.9-1.9-4.2c-1.1-3-1.4-5.7-1.1-8.2c0.4-3,1.6-5.5,3.7-7.3c1-0.8,2.1-1.4,3.3-1.7
					c1.3-0.3,2.5-0.3,3.6,0.1c1.9,0.7,3.4,2.3,4.5,4.8c1,2.3,1.5,5.1,1.6,8.6c0.9-1.1,1.8-2.2,2.8-3.2c1-0.9,1.9-1.6,2.7-2.1
					c1.6-0.9,3.2-1.4,4.9-1.4c1.5,0,2.7,0.2,3.8,0.8c0.8,0.5,1.6,1.1,2.3,2c0.7,0.8,1.1,1.6,1.4,2.4c0.3,1,0.4,2.2,0.2,3.4
					c-0.2,1.3-0.7,2.5-1.5,3.6c-0.7,0.9-1.7,1.9-3,2.9c-0.6,0.4-1.1,0.9-1.7,1.3"/>
			</g>
		</g>
	</g>
	<g id="Layer_1_220_" transform="matrix( 0.54534912109375, 0, 0, 0.54534912109375, 779.15,639.4) ">
		<g id="Layer_1_223_" transform="matrix( -1, 0, 0, 1, -173.35,120.05) ">
			<g>
				<g>
					<g>
						<path style="fill:#FAD2B7;" d="M1255-1062.5c0-8.3-2-15.5-6.1-21.4c-4.6-6.6-10.8-9.9-18.5-9.9c-9.4,0-17.1,3.2-23,9.5
							c-5.1,5.5-9.7,14.2-13.8,26c0,0.5,0,1,0,1.6c0.4,7.1,1.3,13.4,2.6,18.7c4,16.9,12.1,25.3,24.4,25.3c4.4,0,8.8-1.6,13.2-4.7
							c4-2.9,7.6-6.9,10.9-12c3.2-4.9,5.7-10.2,7.5-16.1C1254-1051.4,1255-1057.1,1255-1062.5 M1226.4-1077.6
							c5,0.9,8.5,3.8,10.4,8.7c1.8,4.5,2.3,9.2,1.4,13.9c-0.9,4.7-2.4,9.2-4.7,13.5c-2.2,4.2-5.6,7-10.2,8.6
							c-4.7,1.6-9.4,1.5-14.1-0.4c-4.5-1.9-7.5-5.1-9.2-9.8c-1.5-4.4-2.3-8.9-2.5-13.6c-0.1-4,1.5-7.2,4.9-9.6
							c0.7-0.5,1.3-1.1,1.9-1.7c3.1-3.5,6.8-6.2,11.2-7.9C1219.1-1077.3,1222.7-1077.9,1226.4-1077.6z"/>
						<path style="fill:#F5B39A;" d="M1236.8-1068.9c-1.9-4.9-5.4-7.8-10.4-8.7c-3.7-0.3-7.3,0.2-10.8,1.6
							c-4.4,1.7-8.2,4.3-11.2,7.9c-0.6,0.7-1.2,1.2-1.9,1.7c-3.4,2.4-5,5.6-4.9,9.6c0.1,4.7,1,9.2,2.5,13.6c1.6,4.7,4.7,7.9,9.2,9.8
							c4.6,1.9,9.3,2,14.1,0.4c4.5-1.5,7.9-4.4,10.2-8.6c2.3-4.2,3.9-8.7,4.7-13.5C1239.1-1059.8,1238.6-1064.4,1236.8-1068.9z"/>
					</g>
				</g>
			</g>
		</g>
		<g>
			<g>
				<g>
					<path style="fill:#230D08;" d="M-1378.3-964.1c0-5.2-0.2-11.4-0.7-18.5l-6.6-51.5l-16.8,51.5c2,11.3,4.7,21,8.2,29.2
						c2.3,5.3,4.6,9.5,7.1,12.5c2.1,2.5,3.8,3.8,5.1,3.8c1.6,0,2.7-2.6,3.2-7.7C-1378.4-948.2-1378.3-954.6-1378.3-964.1z"/>
				</g>
			</g>
			<g>
				
					<path style="fill:none;stroke:#2D0A09;stroke-width:1.0907;stroke-linecap:round;stroke-linejoin:round;stroke-miterlimit:2.1814;" d="
					M-1402.4-982.6c2,11.3,4.7,21,8.2,29.2c2.3,5.3,4.6,9.5,7.1,12.5c2.1,2.5,3.8,3.8,5.1,3.8c1.6,0,2.7-2.6,3.2-7.7
					c0.3-3.4,0.5-9.8,0.5-19.3c0-5.2-0.2-11.4-0.7-18.5"/>
			</g>
		</g>
		<g id="Layer_1_222_" transform="matrix( 1, 0, 0, 1, 165.4,120.05) ">
			<g>
				<g>
					<g>
						<path style="fill:#FAD2B7;" d="M-1281.8-1062.5c0-8.3-2-15.5-6.1-21.4c-4.6-6.6-10.8-9.9-18.5-9.9c-9.4,0-17.1,3.2-23,9.5
							c-5.1,5.5-9.7,14.2-13.8,26c0,0.5,0,1,0,1.6c0.4,7.1,1.3,13.4,2.6,18.7c4,16.9,12.1,25.3,24.4,25.3c4.4,0,8.8-1.6,13.2-4.7
							c4-2.9,7.6-6.9,10.9-12c3.2-4.9,5.7-10.2,7.5-16.1C-1282.7-1051.4-1281.8-1057.1-1281.8-1062.5 M-1310.3-1077.6
							c5,0.9,8.5,3.8,10.4,8.7c1.8,4.5,2.3,9.2,1.4,13.9c-0.9,4.7-2.4,9.2-4.7,13.5c-2.2,4.2-5.6,7-10.2,8.6
							c-4.7,1.6-9.4,1.5-14.1-0.4c-4.5-1.9-7.5-5.1-9.2-9.8c-1.5-4.4-2.3-8.9-2.5-13.6c-0.1-4,1.5-7.2,4.9-9.6
							c0.7-0.5,1.3-1.1,1.9-1.7c3.1-3.5,6.8-6.2,11.2-7.9C-1317.7-1077.3-1314.1-1077.9-1310.3-1077.6z"/>
						<path style="fill:#F5B39A;" d="M-1299.9-1068.9c-1.9-4.9-5.4-7.8-10.4-8.7c-3.7-0.3-7.3,0.2-10.8,1.6
							c-4.4,1.7-8.2,4.3-11.2,7.9c-0.6,0.7-1.2,1.2-1.9,1.7c-3.4,2.4-5,5.6-4.9,9.6c0.1,4.7,1,9.2,2.5,13.6c1.6,4.7,4.7,7.9,9.2,9.8
							c4.6,1.9,9.3,2,14.1,0.4c4.5-1.5,7.9-4.4,10.2-8.6c2.3-4.2,3.9-8.7,4.7-13.5C-1297.7-1059.8-1298.1-1064.4-1299.9-1068.9z"/>
					</g>
				</g>
			</g>
		</g>
		<g>
			<g>
				<g>
					<path style="fill:#230D08;" d="M-1165.7-983.7c-0.7,9.2-1,17.1-1,23.5c0,9.5,0.2,15.9,0.5,19.3c0.5,5.1,1.6,7.7,3.2,7.7
						c1.3,0,3-1.3,5.1-3.8c2.5-3,4.9-7.2,7.1-12.5c4-9.4,7-20.8,9.1-34.2c5-50,0.7-66.3-12.7-48.8
						C-1166.5-1036.7-1170.3-1020.5-1165.7-983.7z"/>
				</g>
			</g>
			<g>
				
					<path style="fill:none;stroke:#2D0A09;stroke-width:1.0907;stroke-linecap:round;stroke-linejoin:round;stroke-miterlimit:2.1814;" d="
					M-1141.7-983.7c-2,13.4-5,24.8-9.1,34.2c-2.3,5.3-4.6,9.5-7.1,12.5c-2.1,2.5-3.8,3.8-5.1,3.8c-1.6,0-2.7-2.6-3.2-7.7
					c-0.3-3.4-0.5-9.8-0.5-19.3c0-6.4,0.3-14.3,1-23.5"/>
			</g>
		</g>
		<g id="Layer_1_221_" transform="matrix( 1, 0, 0, 1, -7.5,51.95) ">
			<g>
				<g>
					<g>
						<path style="fill:#FAD2B7;" d="M-1150.6-1073.5c0-20-3.7-37.3-11.2-52.1c-27.5-19.7-60.9-31.9-100.1-36.7
							c-40.7,3-76.3,15.9-106.9,38.9c-6.8,14.2-10.1,30.9-10.1,49.9c0,14.4,0.9,30.3,2.7,47.5c2.4,23.1,3.6,35.3,3.7,36.5
							c0.1,1.3,0.2,4.6,0.4,9.9c0.1,4,0.4,7.3,0.7,9.9c0.8,7.6,2.8,14.3,6,20c0.8,1.4,1.4,2.6,2,3.7c6.7,10.6,15.9,18.3,27.6,23.2
							c12.3,5.1,24.9,8.4,38.1,10c11,1.3,22,1.7,33,1.3c11,0.4,22,0,33-1.3c13.1-1.6,25.8-4.9,38.1-10c11.7-4.9,20.9-12.6,27.6-23.2
							c0.6-1.1,1.3-2.3,2-3.7c3.2-5.7,5.2-12.4,6-20c0.3-2.5,0.5-5.8,0.7-9.9c0.2-5.3,0.3-8.6,0.4-9.9c0.1-1.2,1.3-13.3,3.7-36.5
							C-1151.5-1043.2-1150.6-1059.1-1150.6-1073.5z"/>
					</g>
				</g>
			</g>
		</g>
	</g>
	<g id="Layer_7_11_" transform="matrix( 0.54534912109375, 0, 0, 0.54534912109375, 779.15,639.4) ">
		<g id="Layer_1_219_" transform="matrix( 1, 0, 0, 1, -6.25,-68.05) ">
			<g>
				<g>
					<g>
						<path style="fill:#230D08;" d="M-1236.3-1052.2c-4.7-0.2-9.4-0.3-14-0.4c-6.4-0.1-12.8-0.2-19.1-0.2c-5.2,0-10.5,0-15.8,0
							c-5.6,0-11.2,0.4-16.8,1c-6.5,0.8-12.8,2-19.2,3.4c-7.4,1.7-14.7,3.8-21.9,6.1c-5.2,1.7-10.1,4-14.8,6.8
							c-3.8,2.2-7.5,4.6-11.2,7.1c-2.8,1.9-5.4,4-7.9,6.4c-3.9,3.8-6.9,8.2-9.2,13.3c-0.5,1.2-1,2.4-1.4,3.7
							c-1.1,3.3-2,6.7-2.7,10.1c-0.8,4.2-1,8.4-0.7,12.6c0.6,7,2.9,13.2,6.9,18.9c0.3,0.4,0.6,0.8,0.9,1.1c1.2,1.4,2.5,2.6,4,3.5
							c5.1,3.3,10.6,4,16.4,1.9c5.1-1.8,9.2-5,12.3-9.3c1.6,0.3,3.2,0.4,4.8,0.4c5.3-0.1,9.7-1.4,13.3-3.8c3.6-2.4,6.8-6.2,9.5-11.5
							c2.7-5.3,4.1-12,4-20.3c2.4,8.2,5.9,15.8,10.5,22.9c2.6,4,6.2,6.6,10.8,7.9c2.8,0.8,5.6,0.5,8.2-0.9c1.8-0.9,3-2.3,3.7-4.2
							c0.3,0.4,0.6,0.8,0.9,1.1c2.7,3.4,6.2,5.4,10.4,6.2c1.2,0.2,2.5,0.1,3.8-0.1c3.5-0.8,6.1-2.8,7.7-6.1l0.9-1.9
							c1,1.1,2,2.1,3.1,3c4,3.3,8.7,5.1,14,5.2c1.7,0,3.3-0.3,4.8-1.1c4.2-2.1,7-5.4,8.5-9.9c2.7,3,6,5,9.9,6c3,0.8,6,0.5,8.8-0.7
							c4.2-1.8,7.2-5,8.9-9.4c2.4-6.2,4.2-12.6,5.4-19.2c0.8,2.8,1.8,5.6,2.9,8.3c2.6,6.3,6.6,11.6,12,15.8c5.4,4.2,11.4,6.2,18.2,6
							c4.2-0.4,8.1-1.7,11.6-3.8c1.4-0.8,2.8-1.7,4.2-2.6c0.5-0.4,1-0.7,1.6-1.1c1.2-0.8,2.2-1.8,3-3c1-1.6,0.8-3.1-0.4-4.5
							c0-0.8-0.1-1.7-0.3-2.4c-0.5-2.5-1.1-5.1-1.9-7.6c-1.7-5.9-3.7-11.7-6-17.4c-1.4-3.5-3.3-6.7-5.8-9.5c-1.9-2.2-4-4.3-6.2-6.2
							c-1.8-1.5-3.5-3.1-5.2-4.8c-1.6-1.7-3.3-3.3-5.2-4.9c-1.3-1.1-2.7-2-4.3-2.6c-5.9-2.5-12-4.3-18.4-5.3
							C-1211.2-1050.3-1223.7-1051.7-1236.3-1052.2z"/>
					</g>
				</g>
				<g>
					
						<path style="fill:none;stroke:#2D0A09;stroke-width:1.0907;stroke-linecap:round;stroke-linejoin:round;stroke-miterlimit:2.1814;" d="
						M-1149.8-978.8c-1.4,0.9-2.8,1.7-4.2,2.6c-3.6,2.1-7.5,3.4-11.6,3.8c-6.7,0.2-12.8-1.7-18.2-6c-5.3-4.2-9.3-9.5-12-15.8
						c-1.1-2.7-2.1-5.5-2.9-8.3c-1.2,6.6-3,13-5.4,19.2c-1.7,4.4-4.7,7.6-8.9,9.4c-2.8,1.2-5.7,1.5-8.8,0.7c-3.9-1-7.2-3-9.9-6
						c-1.5,4.5-4.3,7.9-8.5,9.9c-1.5,0.8-3.1,1.1-4.8,1.1c-5.3-0.1-10-1.8-14-5.2c-1.1-0.9-2.2-1.9-3.1-3l-0.9,1.9
						c-1.6,3.3-4.2,5.3-7.7,6.1c-1.3,0.2-2.5,0.3-3.8,0.1c-4.2-0.8-7.7-2.8-10.4-6.2c-0.3-0.4-0.6-0.8-0.9-1.1
						c-0.7,1.8-1.9,3.2-3.7,4.2c-2.7,1.4-5.4,1.7-8.2,0.9c-4.5-1.3-8.1-3.9-10.8-7.9c-4.6-7.1-8.1-14.7-10.5-22.9
						c0.1,8.3-1.3,15-4,20.3c-2.7,5.3-5.9,9.1-9.5,11.5c-3.6,2.4-8,3.6-13.3,3.8c-1.6,0-3.2-0.1-4.8-0.4c-3.1,4.4-7.2,7.5-12.3,9.3
						c-5.8,2-11.3,1.4-16.4-1.9c-1.5-1-2.8-2.1-4-3.5"/>
				</g>
			</g>
			<g>
				<g>
					
						<path style="fill:none;stroke:#481A12;stroke-width:18.7;stroke-linecap:round;stroke-linejoin:round;stroke-miterlimit:2.1814;" d="
						M-1316.5-1045.2c36.3,18.9,82.1,22.4,137.7,10.4"/>
				</g>
			</g>
		</g>
	</g>
	<g id="___14_" transform="matrix( 0.54534912109375, 0, 0, 0.54534912109375, 779.15,639.4) ">
		<g id="Layer_2_42_" transform="matrix( 1, 0, 0, 1, -0.35,179.3) ">
			<g>
				<g>
					<g>
						<path style="fill:#2D0A09;" d="M-1249.1-1075.7c-0.3,0-0.6,0-0.8,0.2c-12.6,9.6-25,9.8-37.3,0.6c-0.3-0.2-0.5-0.3-0.9-0.2
							c-0.3,0.1-0.5,0.2-0.7,0.4c-0.2,0.2-0.3,0.5-0.2,0.8c0.1,0.3,0.2,0.6,0.4,0.7c13.2,9.8,26.5,9.6,39.9-0.6
							c0.2-0.2,0.4-0.4,0.4-0.7c0.1-0.3,0-0.6-0.2-0.8C-1248.6-1075.5-1248.8-1075.7-1249.1-1075.7z"/>
					</g>
				</g>
			</g>
		</g>
	</g>
	<g id="__24_" transform="matrix( 0.54534912109375, 0, 0, 0.54534912109375, 779.15,639.4) ">
		<g id="Layer_1_218_" transform="matrix( 1, 0, 0, 1, -0.35,149.8) ">
			<g>
				<g>
					<g>
						<path style="fill:#DC7D5B;" d="M-1267.9-1065.8l-0.5-0.1l-1.8,0l-0.3,0h-0.1l-0.1,0l-0.3,0l-0.3,0.1h-0.1l-0.7,0.2l-0.3,0.1
							l-0.3,0.1l-0.4,0.2l-0.1,0l-0.6,0.4l-0.1,0.1l-0.4,0.3l-0.8,0.8l-0.3,0.4l-0.4,0.7l0,0.1l-0.2,0.4l0,0.1l0,0.1l0,0.2l-0.1,0.4
							l-0.1,1.3l0,0.3v0.2l0.1,0.4l0.2,0.5l0.1,0.1l0.2-0.2l0.1-0.1l0.6-0.7l0.1-0.1l0.4-0.4l0.3-0.2l0.1-0.1l0.1-0.1l0,0l0.1,0
							l0.2-0.1l0,0l0.1,0l0.1,0l0.3-0.1l0.2,0l0.5-0.2h0.1l0.1,0l0.1,0h0.1l0.1,0h0.1l0.1,0h0.1l0.1,0h0.3l0.1,0h0.3l0.2,0h1l0.1,0
							h0.7l0.1,0h0.2l0.1,0h0.2l0.1,0h0.2l0.1,0h0.1l0.3,0.1h0.1l0.1,0h0.1l0.1,0l0.1,0h0.1l0.4,0.1h0.1l0.1,0l0,0l0.3,0.1l0.1,0.1
							l0.1,0l0,0l0.3,0.1l0.1,0.1l0.1,0.1l0.2,0.2l0,0l0.1,0l0.1,0.1l0.6,0.5l0.1,0.1l0.6,0.7l0.1,0.1l0.2,0.3c0,0.1,0,0.1,0.1,0v0
							l0.1-0.2l0.1-0.4l0-0.2c0.1-0.2,0.1-0.6,0.1-1.1l0-0.7l-0.1-0.3v-0.1l-0.4-1.2l-0.6-0.8l-0.1-0.1l0-0.1l-0.2-0.2l-0.1-0.1
							l-0.1-0.1l-0.2-0.2l-0.2-0.1l-0.2-0.2l-0.1-0.1l-1.3-0.7l-0.3-0.1l-0.1-0.1h0l-0.1,0l-0.8-0.2l-0.3,0L-1267.9-1065.8z"/>
					</g>
				</g>
			</g>
		</g>
	</g>
	<g id="Layer_15_10_" transform="matrix( 0.54534912109375, 0, 0, 0.54534912109375, 779.15,639.4) ">
		<g transform="matrix( 1.686859130859375, 0, 0, 1.6790008544921875, -1019.55,-526.55) ">
			<g>
				<g>
					<path style="fill:#FFFFFF;" d="M-97-251c0-5.5-2-10.3-5.9-14.2c-3.9-3.9-8.6-5.8-14.2-5.8c-5.5,0-10.3,1.9-14.2,5.8
						c-3.9,3.9-5.8,8.7-5.8,14.2c0,5.5,1.9,10.3,5.8,14.2c3.9,3.9,8.7,5.9,14.2,5.9c5.5,0,10.3-2,14.2-5.9
						C-98.9-240.7-97-245.4-97-251z"/>
				</g>
			</g>
		</g>
	</g>
	<g id="Layer_14_10_" transform="matrix( 0.54534912109375, 0, 0, 0.54534912109375, 779.15,639.4) ">
		<g transform="matrix( 1.3050994873046875, 0, 0, 1.4173583984375, -769.95,-423.9) ">
			<g>
				<g>
					<path style="fill:#2E130D;" d="M-324.9-366.4c0-5.2-1.8-9.7-5.5-13.4c-3.7-3.7-8.1-5.5-13.3-5.5c-5.2,0-9.7,1.8-13.4,5.5
						c-3.7,3.7-5.5,8.2-5.5,13.4c0,5.2,1.8,9.7,5.5,13.3c3.7,3.7,8.2,5.5,13.4,5.5c5.2,0,9.7-1.8,13.3-5.5
						C-326.7-356.7-324.9-361.2-324.9-366.4z"/>
				</g>
			</g>
		</g>
	</g>
	<g id="Layer_13_14_" transform="matrix( 0.54534912109375, 0, 0, 0.54534912109375, 779.15,639.4) ">
		<g transform="matrix( -1.24346923828125, 0, 0, 1.24346923828125, -21.35,-13.6) ">
			<g>
				<g>
					<path style="fill:#FFFFFF;" d="M977-757.1c0-1.3-0.4-2.3-1.3-3.2c-0.9-0.9-2-1.3-3.3-1.3c-1.3,0-2.4,0.4-3.3,1.3
						c-0.9,0.9-1.3,2-1.3,3.2c0,1.3,0.4,2.4,1.3,3.3c0.9,0.9,2,1.3,3.3,1.3c1.3,0,2.4-0.4,3.3-1.3C976.5-754.7,977-755.8,977-757.1z
						"/>
				</g>
			</g>
		</g>
	</g>
	<g id="Layer_12_14_" transform="matrix( 0.54534912109375, 0, 0, 0.54534912109375, 779.15,639.4) ">
		<g transform="matrix( -1.686859130859375, 0, 0, 1.6790008544921875, 1013.7,-526.55) ">
			<g>
				<g>
					<path style="fill:#FFFFFF;" d="M1407.2-251c0-5.5-2-10.3-5.9-14.2c-3.9-3.9-8.6-5.8-14.2-5.8c-5.5,0-10.3,1.9-14.2,5.8
						c-3.9,3.9-5.8,8.7-5.8,14.2c0,5.5,1.9,10.3,5.8,14.2c3.9,3.9,8.7,5.9,14.2,5.9c5.5,0,10.3-2,14.2-5.9
						C1405.2-240.7,1407.2-245.4,1407.2-251z"/>
				</g>
			</g>
		</g>
	</g>
	<g id="Layer_11_14_" transform="matrix( 0.54534912109375, 0, 0, 0.54534912109375, 779.15,639.4) ">
		<g transform="matrix( -1.3050994873046875, 0, 0, 1.4173583984375, 764.1,-423.9) ">
			<g>
				<g>
					<path style="fill:#2E130D;" d="M1619.3-366.4c0-5.2-1.8-9.7-5.5-13.4c-3.7-3.7-8.1-5.5-13.3-5.5s-9.7,1.8-13.4,5.5
						c-3.7,3.7-5.5,8.2-5.5,13.4c0,5.2,1.8,9.7,5.5,13.3c3.7,3.7,8.2,5.5,13.4,5.5s9.7-1.8,13.3-5.5
						C1617.4-356.7,1619.3-361.2,1619.3-366.4z"/>
				</g>
			</g>
		</g>
	</g>
	<g id="Layer_10_12_" transform="matrix( 0.54534912109375, 0, 0, 0.54534912109375, 779.15,639.4) ">
		<g transform="matrix( 1.24346923828125, 0, 0, 1.24346923828125, 15.5,-13.6) ">
			<g>
				<g>
					<path style="fill:#FFFFFF;" d="M-1063.5-757.1c0-1.3-0.4-2.3-1.3-3.2c-0.9-0.9-2-1.3-3.3-1.3c-1.3,0-2.4,0.4-3.3,1.3
						c-0.9,0.9-1.3,2-1.3,3.2c0,1.3,0.4,2.4,1.3,3.3c0.9,0.9,2,1.3,3.3,1.3c1.3,0,2.4-0.4,3.3-1.3
						C-1064-754.7-1063.5-755.8-1063.5-757.1z"/>
				</g>
			</g>
		</g>
	</g>
	<g id="_______28_" transform="matrix( 0.54534912109375, 0, 0, 0.54534912109375, 779.15,639.4) ">
		<g id="Layer_5_32_" transform="matrix( 1, 0, 0, 1, 71,77.5) ">
		</g>
		<g id="Layer_3_38_" transform="matrix( 1, 0, 0, 1, 71,77.5) ">
			<g>
				<g>
					<g>
						<path style="fill:#E5A790;" d="M-1283.2-991.9l-3,0.3h-0.4c-0.1,0-0.4,0-0.7,0l-1.1,0.1l-5.5-0.2l-0.7-0.1h-0.2l-0.2,0h-0.1
							l-0.2,0c-0.7-0.1-1.5-0.2-2.6-0.5l-0.5-0.1h-0.1l-0.1,0l-1.6-0.4l-0.1-0.1l-2.5-0.9l-0.2-0.1l-0.3-0.1l-1.6-0.7
							c-0.1-0.1-0.1-0.1-0.1,0v0.1l0.6,0.6l0.1,0l0,0.1l0.1,0.1l0.2,0.3l0.3,0.2l0.3,0.3l0.3,0.3c0,0,0.1,0.1,0.2,0.1l1.5,1.1
							l2.5,1.3l0.3,0.1c0.8,0.3,1.7,0.7,2.8,0.9l0.4,0.1l0.2,0.1l2.7,0.4h0.2l1.2,0.1h0.6l0.2,0h0.8c1.4,0,2.5-0.1,3.1-0.2l5.1-1
							l3.1-1l3.4-1.6l0.3-0.2l0.3-0.1l0.7-0.4l0-0.1l-0.1,0l-9.5,1.3H-1283.2z"/>
					</g>
				</g>
			</g>
		</g>
		<g id="Layer_1_217_" transform="matrix( 1, 0, 0, 1, 71,77.5) ">
			<g>
				<g>
					<g>
						<path style="fill:#270E0A;" d="M-1287.1-1060.7l-0.2,0l-2.7,0l-0.2,0h-0.3l-1,0.1h-0.1l-0.1,0h-0.3l-3.3,0.5
							c-1.1,0.2-2.3,0.5-3.7,0.9l-4.8,1.8l-0.1,0.1l-0.2,0.1l-1.6,0.8l-0.2,0.1l-2.7,1.7c-0.9,0.6-1.8,1.3-2.6,1.9l-1.7,1.5
							l-0.1,0.1l-0.1,0.1l-2.6,2.7l-3.1,4.1l-1.1,1.8c0,0.1-0.1,0.2-0.3,0.4l-0.7,1.2c-0.1,0.1-0.1,0.1,0,0.1c0,0,0,0,0.1,0l2.2-2.6
							c0.8-0.9,1.7-1.9,2.7-2.8l3.8-3.3c0.6-0.5,1.3-1.1,2.3-1.7l0.3-0.2l1.8-1.1l0.1-0.1l1.7-1l0.4-0.1l0.7-0.4l0.2-0.1l0.2-0.1
							l4.3-1.7l5.5-1.3c0.8-0.1,2-0.3,3.6-0.4l0.9,0l0.2,0l2.5,0l-0.1,0h0.1v0l1.7,0.1l0.4,0.1h0.2l1.1,0.1c1.6,0.2,2.7,0.5,3.5,0.6
							l0.2,0l1.9,0.5l0.2,0l4.4,1.5l0.1,0.1l1.9,0.9l0.1,0l0.8,0.4l0.2,0.1l0.2,0.1l2.4,1.4c1.8,1.1,3.4,2.3,4.8,3.5l3.7,3.4
							c0.8,0.8,1.7,1.8,2.7,2.8l2.2,2.7h0.1v-0.1l-1.3-2.3l-3.9-5.3l-0.1-0.1l-0.1-0.1l-3.4-3.5c0-0.1-0.1-0.2-0.3-0.3l-0.9-0.8
							l-0.3-0.2l-0.4-0.4l-1.5-1.1c-0.9-0.7-1.9-1.3-2.8-1.8l-0.7-0.4l-0.1,0l-0.1-0.1l-1.8-0.9l-0.2-0.1l-0.1-0.1l-0.1,0
							c-0.8-0.4-2-0.9-3.4-1.4l-3.1-1l-0.3,0l-0.2-0.1l-1.1-0.3l-5.5-0.8H-1287.1z"/>
					</g>
				</g>
			</g>
		</g>
		<g id="_28_" transform="matrix( 1, 0, 0, 1, 71,77.5) ">
			<g id="Layer_1_216_" transform="matrix( 1, 0, 0, 1, 4.15,-61.25) ">
				<g>
					<g>
						<g>
							<path style="fill:#431E16;" d="M-1281-1029.9l-3.4-2.3l-0.3-0.1l-3.2-1.6l-0.1-0.1l-0.1,0c-1-0.4-1.7-0.7-2.1-0.8l-1.1-0.4
								l-6-1c-0.8,0-1.6,0-2.5,0c-0.3,0-0.5,0-0.6,0l-3,0.3l-0.6,0.1l-0.3,0l-0.6,0.1l-0.3,0l-1.7,0.5c-0.9,0.3-1.6,0.5-2.1,0.7
								l-4.6,2.2l-5.8,4.3l-0.3,0.3l-0.3,0.2l-0.6,0.6v0.1h0.1l3.8-2l0.1-0.1l3.8-1.7l0.4-0.1l0.2-0.1l5.7-1.8l0.8-0.1l0.3-0.1
								l0.3,0l0.3-0.1l0.6-0.1l0.3-0.1l2.1-0.3c1.5-0.1,3-0.2,4.4-0.1l3.3,0.4l0.6,0.1h0.1l0.4,0.1l0.3,0l2.6,0.7l0.3,0.1l0.5,0.1
								l6,2.5l8.2,5c0,0,0.1,0,0.1,0v-0.1l-1.4-1.6L-1281-1029.9z"/>
						</g>
					</g>
				</g>
			</g>
		</g>
	</g>
	<g id="_______27_" transform="matrix( 0.54534912109375, 0, 0, 0.54534912109375, 779.15,639.4) ">
		<g id="Layer_5_31_" transform="matrix( -1, 0, 0, 1, -76.85,77.5) ">
		</g>
		<g id="Layer_3_37_" transform="matrix( -1, 0, 0, 1, -76.85,77.5) ">
			<g>
				<g>
					<g>
						<path style="fill:#E5A790;" d="M1254.1-991.9l-3,0.3h-0.4c-0.1,0-0.4,0-0.7,0l-1.1,0.1l-5.5-0.2l-0.7-0.1h-0.2l-0.2,0h-0.1
							l-0.2,0c-0.7-0.1-1.5-0.2-2.6-0.5l-0.5-0.1h-0.1l-0.1,0l-1.6-0.4l-0.1-0.1l-2.5-0.9l-0.2-0.1l-0.3-0.1l-1.6-0.7
							c-0.1-0.1-0.1-0.1-0.1,0v0.1l0.6,0.6l0.1,0l0,0.1l0.1,0.1l0.2,0.3l0.3,0.2l0.3,0.3l0.3,0.3c0,0,0.1,0.1,0.2,0.1l1.5,1.1
							l2.5,1.3l0.3,0.1c0.8,0.3,1.7,0.7,2.8,0.9l0.4,0.1l0.2,0.1l2.7,0.4h0.2l1.2,0.1h0.6l0.2,0h0.8c1.4,0,2.5-0.1,3.1-0.2l5.1-1
							l3.1-1l3.4-1.6l0.3-0.2l0.3-0.1l0.7-0.4l0-0.1l-0.1,0l-9.5,1.3H1254.1z"/>
					</g>
				</g>
			</g>
		</g>
		<g id="Layer_1_215_" transform="matrix( -1, 0, 0, 1, -76.85,77.5) ">
			<g>
				<g>
					<g>
						<path style="fill:#270E0A;" d="M1250.2-1060.7l-0.2,0l-2.7,0l-0.2,0h-0.3l-1,0.1h-0.1l-0.1,0h-0.3l-3.3,0.5
							c-1.1,0.2-2.3,0.5-3.7,0.9l-4.8,1.8l-0.1,0.1l-0.2,0.1l-1.6,0.8l-0.2,0.1l-2.7,1.7c-0.9,0.6-1.8,1.3-2.6,1.9l-1.7,1.5
							l-0.1,0.1l-0.1,0.1l-2.6,2.7l-3.1,4.1l-1.1,1.8c0,0.1-0.1,0.2-0.3,0.4l-0.7,1.2c-0.1,0.1-0.1,0.1,0,0.1c0,0,0,0,0.1,0l2.2-2.6
							c0.8-0.9,1.7-1.9,2.7-2.8l3.8-3.3c0.6-0.5,1.3-1.1,2.3-1.7l0.3-0.2l1.8-1.1l0.1-0.1l1.7-1l0.4-0.1l0.7-0.4l0.2-0.1l0.2-0.1
							l4.3-1.7l5.5-1.3c0.8-0.1,2-0.3,3.6-0.4l0.9,0l0.2,0l2.5,0l-0.1,0h0.1v0l1.7,0.1l0.4,0.1h0.2l1.1,0.1c1.6,0.2,2.7,0.5,3.5,0.6
							l0.2,0l1.9,0.5l0.2,0l4.4,1.5l0.1,0.1l1.9,0.9l0.1,0l0.8,0.4l0.2,0.1l0.2,0.1l2.4,1.4c1.8,1.1,3.4,2.3,4.8,3.5l3.7,3.4
							c0.8,0.8,1.7,1.8,2.7,2.8l2.2,2.7h0.1v-0.1l-1.3-2.3l-3.9-5.3l-0.1-0.1l-0.1-0.1l-3.4-3.5c0-0.1-0.1-0.2-0.3-0.3l-0.9-0.8
							l-0.3-0.2l-0.4-0.4l-1.5-1.1c-0.9-0.7-1.9-1.3-2.8-1.8l-0.7-0.4l-0.1,0l-0.1-0.1l-1.8-0.9l-0.2-0.1l-0.1-0.1l-0.1,0
							c-0.8-0.4-2-0.9-3.4-1.4l-3.1-1l-0.3,0l-0.2-0.1l-1.1-0.3l-5.5-0.8H1250.2z"/>
					</g>
				</g>
			</g>
		</g>
		<g id="_27_" transform="matrix( -1, 0, 0, 1, -76.85,77.5) ">
			<g id="Layer_1_214_" transform="matrix( 1, 0, 0, 1, 4.15,-61.25) ">
				<g>
					<g>
						<g>
							<path style="fill:#431E16;" d="M1256.3-1029.9l-3.4-2.3l-0.3-0.1l-3.2-1.6l-0.1-0.1l-0.1,0c-1-0.4-1.7-0.7-2.1-0.8l-1.1-0.4
								l-6-1c-0.8,0-1.6,0-2.5,0c-0.3,0-0.5,0-0.6,0l-3,0.3l-0.6,0.1l-0.3,0l-0.6,0.1l-0.3,0l-1.7,0.5c-0.9,0.3-1.6,0.5-2.1,0.7
								l-4.6,2.2l-5.8,4.3l-0.3,0.3l-0.3,0.2l-0.6,0.6v0.1h0.1l3.8-2l0.1-0.1l3.8-1.7l0.4-0.1l0.2-0.1l5.7-1.8l0.8-0.1l0.3-0.1
								l0.3,0l0.3-0.1l0.6-0.1l0.3-0.1l2.1-0.3c1.5-0.1,3-0.2,4.4-0.1l3.3,0.4l0.6,0.1h0.1l0.4,0.1l0.3,0l2.6,0.7l0.3,0.1l0.5,0.1
								l6,2.5l8.2,5c0,0,0.1,0,0.1,0v-0.1l-1.4-1.6L1256.3-1029.9z"/>
						</g>
					</g>
				</g>
			</g>
		</g>
	</g>
	<g id="Layer_4_23_" transform="matrix( 0.54534912109375, 0, 0, 0.54534912109375, 779.15,639.4) ">
		<g id="Layer_1_213_" transform="matrix( 1, 0, 0, 1, -2.05,99.1) ">
			<g transform="matrix( 1, 0, 0, 1, 7.4,-101.25) ">
				<g>
					
						<path style="fill:none;stroke:#C92D2A;stroke-width:5.4535;stroke-linecap:round;stroke-linejoin:round;stroke-miterlimit:2.1814;" d="
						M-1285.2-946.5c0,12.5-4.4,23.2-13.3,32c-8.8,8.8-19.5,13.3-32,13.3c-12.5,0-23.2-4.4-32-13.3c-8.8-8.8-13.2-19.5-13.2-32
						c0-12.5,4.4-23.2,13.2-32c8.8-8.8,19.5-13.2,32-13.2c12.5,0,23.2,4.4,32,13.2C-1289.6-969.7-1285.2-959-1285.2-946.5z"/>
				</g>
			</g>
			<g transform="matrix( 1, 0, 0, 1, 153.85,-101.25) ">
				<g>
					
						<path style="fill:none;stroke:#C92D2A;stroke-width:5.4535;stroke-linecap:round;stroke-linejoin:round;stroke-miterlimit:2.1814;" d="
						M-1323.3-946.5c0,12.5-4.4,23.2-13.3,32c-8.8,8.8-19.5,13.3-32,13.3c-12.5,0-23.2-4.4-32-13.3c-8.8-8.8-13.2-19.5-13.2-32
						c0-12.5,4.4-23.2,13.2-32c8.8-8.8,19.5-13.2,32-13.2c12.5,0,23.2,4.4,32,13.2C-1327.7-969.7-1323.3-959-1323.3-946.5z"/>
				</g>
			</g>
			<g transform="matrix( 1, 0, 0, 1, 2.05,-99.1) ">
				<g>
					
						<path style="fill:none;stroke:#C92D2A;stroke-width:5.4535;stroke-linecap:round;stroke-linejoin:round;stroke-miterlimit:2.1814;" d="
						M-1278.3-944.5h13.4"/>
				</g>
			</g>
		</g>
	</g>
</g>
</svg>
