<?xml version="1.0" encoding="utf-8"?>
<!-- Generator: Adobe Illustrator 25.2.0, SVG Export Plug-In . SVG Version: 6.00 Build 0)  -->
<svg version="1.1" id="레이어_1" xmlns="http://www.w3.org/2000/svg" xmlns:xlink="http://www.w3.org/1999/xlink" x="0px"
	 y="0px" viewBox="0 0 232 218" style="enable-background:new 0 0 232 218;" xml:space="preserve">
<style type="text/css">
	.st0{fill:#784220;}
	.st1{fill:#F9D0B5;}
	.st2{fill:#F4B299;}
	.st3{fill:#E16161;}
	.st4{fill:#DB7D5A;}
	.st5{fill:#FFFFFF;}
	.st6{fill:#2D120D;}
	.st7{fill:#E4A68F;}
	.st8{fill:#260D09;}
	.st9{fill:#421D16;}
</style>
<path class="st0" d="M115.2,8.9C75.9-1.6,46.4,3.7,26.7,24.8c-19.7,21.1-25,50.7-16,88.9c9,38.2,23.2,64.1,42.4,77.9
	c19.2,13.7,43.8,19.3,73.7,16.7c29.9-2.6,52.2-12.9,66.7-31c14.6-18.1,24.7-44.2,30.3-78.3c5.7-34.1-2.4-61.3-24.2-81.4
	C177.8-2.7,149.7-5.5,115.2,8.9"/>
<path class="st1" d="M4.6,140.2c3.4-4.9,8-7.4,13.8-7.4c7,0,12.7,2.4,17.1,7.1c3.8,4.1,7.2,10.5,10.2,19.3c0,0.4,0,0.8,0,1.2
	c-0.3,5.3-1,9.9-1.9,13.9c-3,12.6-9,18.8-18.1,18.8c-3.3,0-6.6-1.2-9.8-3.5c-3-2.2-5.7-5.1-8.1-8.9c-2.4-3.6-4.2-7.6-5.6-12
	c-1.4-4.4-2.1-8.6-2.1-12.6C0,149.9,1.5,144.6,4.6,140.2"/>
<path class="st2" d="M37.6,151.9c0.4,0.5,0.9,0.9,1.4,1.3c2.5,1.8,3.7,4.2,3.6,7.1c-0.1,3.5-0.7,6.8-1.8,10.1
	c-1.2,3.5-3.5,5.9-6.8,7.3c-3.4,1.4-6.9,1.5-10.4,0.3c-3.4-1.1-5.9-3.3-7.6-6.4c-1.7-3.2-2.9-6.5-3.5-10c-0.6-3.5-0.3-7,1-10.3
	c1.4-3.6,4-5.8,7.7-6.4c2.8-0.2,5.4,0.2,8,1.2C32.5,147.3,35.3,149.3,37.6,151.9"/>
<path class="st0" d="M37.2,140c0-3.9-0.2-8.5-0.5-13.8l-4.9-38.3l-12.5,38.3c1.5,8.4,3.5,15.6,6.1,21.7c1.7,3.9,3.5,7,5.3,9.3
	c1.6,1.9,2.8,2.8,3.8,2.8c1.2,0,2-1.9,2.4-5.7C37.1,151.8,37.2,147,37.2,140"/>
<path class="st1" d="M227.4,140.2c-3.4-4.9-8-7.4-13.7-7.4c-7,0-12.7,2.4-17.1,7.1c-3.8,4.1-7.2,10.5-10.2,19.3c0,0.4,0,0.8,0,1.2
	c0.3,5.3,1,9.9,1.9,13.9c3,12.6,9,18.8,18.1,18.8c3.3,0,6.6-1.2,9.8-3.5c3-2.2,5.7-5.1,8.1-8.9c2.4-3.6,4.2-7.6,5.6-12
	c1.4-4.4,2.1-8.6,2.1-12.6C232,149.9,230.5,144.6,227.4,140.2"/>
<path class="st2" d="M194.4,151.9c-0.4,0.5-0.9,0.9-1.4,1.3c-2.5,1.8-3.7,4.2-3.6,7.1c0.1,3.5,0.7,6.8,1.8,10.1
	c1.2,3.5,3.5,5.9,6.8,7.3c3.4,1.4,6.9,1.5,10.5,0.3c3.4-1.1,5.9-3.3,7.6-6.4c1.7-3.2,2.9-6.5,3.5-10c0.6-3.5,0.3-7-1-10.3
	c-1.4-3.6-4-5.8-7.7-6.4c-2.8-0.2-5.4,0.2-8,1.2C199.5,147.3,196.7,149.3,194.4,151.9"/>
<path class="st0" d="M195.3,125.4c-0.5,6.9-0.7,12.7-0.7,17.5c0,7,0.1,11.8,0.4,14.4c0.4,3.8,1.2,5.7,2.4,5.7c1,0,2.2-0.9,3.8-2.8
	c1.9-2.3,3.6-5.4,5.3-9.3c3-7,5.2-15.5,6.7-25.4c3.7-37.2,0.5-49.3-9.5-36.3C194.7,85.9,191.9,98,195.3,125.4"/>
<path class="st1" d="M192.7,58.5c-20.5-14.6-45.3-23.7-74.4-27.3C88,33.4,61.5,43.1,38.7,60.2c-5,10.6-7.5,23-7.5,37.1
	c0,10.7,0.7,22.5,2,35.4c1.8,17.2,2.7,26.3,2.8,27.1c0.1,1,0.2,3.4,0.3,7.4c0.1,3,0.3,5.5,0.5,7.3c0.6,5.7,2.1,10.6,4.5,14.9
	c0.6,1,1.1,1.9,1.5,2.7c5,7.9,11.8,13.6,20.5,17.3c9.1,3.8,18.6,6.3,28.3,7.5c8.2,1,16.3,1.3,24.5,1c8.2,0.3,16.4,0,24.5-1
	c9.8-1.2,19.2-3.7,28.3-7.5c8.7-3.6,15.5-9.4,20.5-17.3c0.4-0.8,0.9-1.7,1.5-2.7c2.4-4.3,3.9-9.2,4.5-14.9c0.2-1.9,0.4-4.3,0.5-7.3
	c0.1-3.9,0.2-6.4,0.3-7.4c0.1-0.9,1-9.9,2.8-27.1c1.3-12.9,2-24.6,2-35.4C201,82.4,198.2,69.5,192.7,58.5"/>
<path class="st0" d="M158.7,23.1c-13.5-4.6-25-6.8-34.5-6.8c-6.3,0-12.6,0.3-18.9,1c-7.7,0.9-15.3,2.2-23,4.1
	C68.6,24.8,58,29,50.5,34.1c-9.6,6.5-16.2,15.3-19.7,26.6c-2.8,8.8-4.1,21.3-4.1,37.8c0,2.8,0.2,6.1,0.6,9.8
	c0.1,1.1,0.3,2.3,0.4,3.5c0.7-0.4,1.3-0.9,1.9-1.3c1.5-1.1,3-2.3,4.4-3.6c5.6-5.2,11-12.8,16.3-22.6c7.3,1.1,14.8,1.6,22.4,1.7
	c4.8,0.1,9.6-0.1,14.4-0.5c5.1-0.5,10.3-1.1,15.4-1.8c1.2-2.6,2.2-5.2,2.9-7.9c1.2-4,2-8.1,2.4-12.3c0.3-2.6,0.4-5.1,0.4-7.7
	l2.7,28.8l3.6-0.3c0.8-1.5,1.4-3,1.9-4.5c0.8-2.7,1.5-5.5,2-8.3c1.2-6.5,1.7-13,1.5-19.6c1.4,3.8,2.5,7.6,3.4,11.5
	c0.8,3.3,1.3,6.6,1.7,10c0.3,2.9,0.5,5.9,0.7,8.9c2.6,0.3,5.2,0.5,7.8,0.5c2.5,0,4.9,0,7.4,0c4.1,0,8.2-0.3,12.3-1
	c0.1-1.3,0.1-2.6,0-3.9c-0.1-0.9-0.1-1.7-0.3-2.6c-0.3-2-0.6-3.9-1-5.9c-0.5-2.7-1.1-5.4-1.6-8.2c1.6,2.1,3.1,4.1,4.5,6.2
	c1.4,2,2.6,4.1,3.7,6.2c1,1.9,1.9,3.9,2.6,6l12.7-0.3V63.7l9.3,14.7c2.6,3.6,5.4,7.1,8.3,10.4c3.6,4.1,6.9,7.3,10,9.6
	c1,0.8,2,1.5,2.9,2c0.1-0.2,0.2-0.4,0.4-0.5c0.8-1.2,1.6-2.5,2.3-3.7c2.1-3.6,3.1-7.4,3.1-11.4c0-2.2-0.9-6-2.8-11.5
	c-3-9-4.9-14.8-5.7-17.3c-1-3.5-3.2-7.2-6.7-11.2c-3-3.5-6.5-6.6-10.3-9.4C179.4,31.3,170.6,27.2,158.7,23.1"/>
<path class="st3" d="M104.7,190.9c4.6,3.4,9.2,5,13.8,5c4.6,0,9.2-1.9,13.9-5.5c0.4-0.3,0.9-0.2,1.2,0.2c0.3,0.4,0.2,0.9-0.2,1.2
	c-4.9,3.8-9.9,5.8-14.9,5.8c-5,0-9.9-1.7-14.8-5.3c-0.4-0.3-0.4-0.8-0.2-1.2C103.8,190.7,104.3,190.6,104.7,190.9L104.7,190.9z"/>
<path class="st4" d="M116.7,166.8c0,0.1,0.1,0.4,0.2,0.9c0.1,0.5,0.2,1.1,0.4,1.9l0,0c0.4,1.7,0.6,2.9,0.7,3.6l0,0.2v2.4
	c0,0.4-0.2,0.9-0.5,1.2c-0.3,0.3-0.7,0.5-1.2,0.5h-0.5c-0.3,0-0.5-0.1-0.7-0.2l0.5-0.9l-0.3,0.9c0,0,0,0-0.1-0.1l0.5-0.9l-0.3,0.9
	c0,0-0.2-0.1-0.6-0.1c-0.4-0.1-0.7-0.1-0.9-0.1c-0.2,0-0.3,0-0.4,0.1c-0.1,0-0.2,0.1-0.4,0.3c-0.1,0.1-0.2,0.3-0.3,0.5
	c-0.1,0.2-0.1,0.5-0.1,0.9c0,0.3,0.1,0.5,0.3,0.8c0.2,0.3,0.6,0.7,1.3,1.1l0,0c0.6,0.4,1,0.6,1.3,0.8c0.2,0.1,0.3,0.1,0.4,0.1l0.1,0
	l0,0l0,0.1v-0.1l0,0l0,0.1v-0.1c0.9,0,1.6,0.7,1.6,1.6c0,0.9-0.7,1.6-1.6,1.6c-0.7,0-1.2-0.2-1.8-0.4c-0.6-0.3-1.2-0.6-1.8-1l0,0
	c-0.9-0.6-1.6-1.2-2.2-2c-0.6-0.8-0.9-1.7-0.9-2.7c0-0.7,0.1-1.4,0.3-2c0.2-0.6,0.6-1.2,1.1-1.7c0.4-0.4,0.9-0.7,1.4-1
	c0.5-0.2,1.1-0.3,1.7-0.3c0.5,0,1.1,0.1,1.7,0.2c0.2,0.1,0.4,0.1,0.6,0.2l0.2,0.1c0.1,0,0.1,0,0.3,0.1l-0.7,1.5v-1.6h0.5v1.6h-1.7
	v-2.4h1.7l-1.6,0.2c-0.1-0.5-0.3-1.7-0.7-3.4l0,0c-0.2-0.8-0.3-1.5-0.5-2c-0.1-0.5-0.2-0.9-0.2-1.3c-0.1-0.9,0.6-1.7,1.5-1.8
	C115.8,165.2,116.6,165.9,116.7,166.8L116.7,166.8z"/>
<path class="st5" d="M182.4,152c0-6.9-2.5-12.8-7.4-17.7c-4.9-4.9-10.8-7.3-17.8-7.3c-7,0-12.9,2.4-17.8,7.3
	c-4.9,4.9-7.3,10.8-7.3,17.7c0,6.9,2.4,12.8,7.3,17.7c4.9,4.9,10.9,7.3,17.8,7.3c7,0,12.9-2.4,17.8-7.3
	C179.9,164.8,182.4,158.9,182.4,152"/>
<path class="st5" d="M50.8,152c0-6.9,2.5-12.8,7.4-17.7C63,129.4,69,127,75.9,127s12.9,2.4,17.8,7.3c4.9,4.9,7.3,10.8,7.3,17.7
	c0,6.9-2.4,12.8-7.3,17.7c-4.9,4.9-10.9,7.3-17.8,7.3s-12.9-2.4-17.8-7.3C53.2,164.8,50.8,158.9,50.8,152"/>
<path class="st6" d="M174.3,155.5c0-5.5-1.8-10.2-5.4-14.1c-3.6-3.9-7.9-5.8-13-5.8c-5.1,0-9.4,1.9-13,5.8
	c-3.6,3.9-5.3,8.6-5.3,14.1c0,5.5,1.8,10.2,5.3,14.1c3.6,3.9,7.9,5.8,13,5.8c5.1,0,9.4-1.9,13-5.8
	C172.5,165.7,174.3,161,174.3,155.5"/>
<path class="st5" d="M142.9,146.8c0-1.2,0.4-2.2,1.2-3c0.8-0.8,1.8-1.2,3-1.2c1.2,0,2.2,0.4,3,1.2c0.8,0.8,1.2,1.8,1.2,3
	c0,1.2-0.4,2.2-1.2,3c-0.8,0.8-1.8,1.2-3,1.2c-1.2,0-2.2-0.4-3-1.2C143.3,148.9,142.9,147.9,142.9,146.8"/>
<path class="st6" d="M58.8,155.5c0-5.5,1.8-10.2,5.4-14.1c3.6-3.9,7.9-5.8,13-5.8c5.1,0,9.4,1.9,13,5.8c3.6,3.9,5.3,8.6,5.3,14.1
	c0,5.5-1.8,10.2-5.3,14.1c-3.6,3.9-7.9,5.8-13,5.8c-5.1,0-9.4-1.9-13-5.8C60.6,165.7,58.8,161,58.8,155.5"/>
<path class="st5" d="M90.3,146.8c0-1.2-0.4-2.2-1.2-3c-0.8-0.8-1.8-1.2-3-1.2s-2.2,0.4-3,1.2c-0.8,0.8-1.2,1.8-1.2,3
	c0,1.2,0.4,2.2,1.2,3s1.8,1.2,3,1.2s2.2-0.4,3-1.2S90.3,147.9,90.3,146.8"/>
<path class="st7" d="M168.4,177.1c-4.6,1.6-8.7,2.3-12.5,2.3c-4.6,0-8.7-1.2-12-3.7c-0.5-0.4-0.6-1.1-0.2-1.5
	c0.4-0.5,1.1-0.6,1.5-0.2c2.9,2.2,6.4,3.3,10.7,3.3c3.4,0,7.4-0.7,11.7-2.2c0.6-0.2,1.2,0.1,1.4,0.7
	C169.3,176.3,168.9,176.9,168.4,177.1L168.4,177.1z"/>
<path class="st8" d="M131.6,140c3.1-4.7,6.8-8.3,11.1-10.7c4.3-2.4,9.2-3.6,14.5-3.6l0.1,0l0.1,0c5.3,0.3,10.1,1.7,14.3,4.3
	c4.2,2.6,7.9,6.2,11,10.9c0.3,0.5,0.2,1.2-0.3,1.5c-0.5,0.3-1.2,0.2-1.5-0.3c-3-4.5-6.4-7.9-10.3-10.3c-3.9-2.4-8.3-3.7-13.3-4
	l0.1-1.1l0,1.1l-0.1,0c-5,0-9.5,1.1-13.4,3.3c-3.9,2.2-7.4,5.5-10.3,10c-0.3,0.5-1,0.6-1.5,0.3C131.4,141.2,131.3,140.5,131.6,140
	L131.6,140z"/>
<path class="st9" d="M135.4,104.6c5.5-4.1,11.1-6.3,16.6-6.3c6.4,0,12.6,2.7,18.5,8.1c0.5,0.4,0.5,1.1,0.1,1.6
	c-0.4,0.5-1.1,0.5-1.6,0.1c-5.7-5.1-11.3-7.5-17-7.5c-4.9,0-10,2-15.3,5.9c-0.5,0.4-1.2,0.3-1.5-0.2
	C134.8,105.7,134.9,105,135.4,104.6L135.4,104.6z"/>
<path class="st7" d="M65.5,175c4.4,1.5,8.3,2.2,11.7,2.2c4.3,0,7.8-1.1,10.7-3.3c0.5-0.4,1.2-0.3,1.5,0.2c0.4,0.5,0.3,1.2-0.2,1.5
	c-3.3,2.5-7.3,3.7-12,3.7c-3.7,0-7.9-0.8-12.5-2.3c-0.6-0.2-0.9-0.8-0.7-1.4C64.3,175.1,64.9,174.8,65.5,175L65.5,175z"/>
<path class="st8" d="M99.7,141.2c-3-4.5-6.4-7.8-10.3-10c-3.9-2.2-8.4-3.3-13.4-3.3l-0.1,0l0-1.1l0.1,1.1c-5,0.3-9.4,1.6-13.3,4
	c-3.9,2.4-7.4,5.8-10.3,10.3c-0.3,0.5-1,0.6-1.5,0.3c-0.5-0.3-0.6-1-0.3-1.5c3.1-4.7,6.8-8.4,11-10.9c4.2-2.6,9-4,14.3-4.3l0.1,0
	l0.1,0c5.4,0,10.2,1.2,14.5,3.6c4.3,2.4,8,6,11.1,10.7c0.3,0.5,0.2,1.2-0.3,1.5C100.7,141.9,100,141.7,99.7,141.2L99.7,141.2z"/>
<path class="st9" d="M96.5,106.4c-5.3-3.9-10.4-5.9-15.3-5.9c-5.7,0-11.4,2.4-17,7.5c-0.5,0.4-1.1,0.4-1.6-0.1
	c-0.4-0.5-0.4-1.1,0.1-1.6c5.9-5.4,12.1-8.1,18.5-8.1c5.5,0,11.1,2.2,16.6,6.3c0.5,0.4,0.6,1.1,0.2,1.5
	C97.7,106.6,97,106.7,96.5,106.4L96.5,106.4z"/>
</svg>
