<?xml version="1.0" encoding="utf-8"?>
<!-- Generator: Adobe Illustrator 16.0.0, SVG Export Plug-In . SVG Version: 6.00 Build 0)  -->
<!DOCTYPE svg PUBLIC "-//W3C//DTD SVG 1.1//EN" "http://www.w3.org/Graphics/SVG/1.1/DTD/svg11.dtd">
<svg version="1.1" id="레이어_1" xmlns="http://www.w3.org/2000/svg" xmlns:xlink="http://www.w3.org/1999/xlink" x="0px"
	 y="0px" width="236.7px" height="228.8px" viewBox="0 0 236.7 228.8" style="enable-background:new 0 0 236.7 228.8;"
	 xml:space="preserve">
<style type="text/css">
<![CDATA[
	.st0{fill:#7B4320;}
	.st1{fill:#E5815C;}
	.st2{fill:none;stroke:#431E17;stroke-width:2.1999;stroke-linecap:round;stroke-linejoin:round;stroke-miterlimit:2.1999;}
	.st3{fill:#B352D7;}
	.st4{fill:#ECAA92;}
	.st5{fill:#581F15;}
	.st6{fill:none;stroke:#E5815C;stroke-width:3.2998;stroke-linecap:round;stroke-linejoin:round;stroke-miterlimit:2.1999;}
	.st7{fill:#270F0B;}
	.st8{fill:none;stroke:#EE6464;stroke-width:1.55;stroke-linecap:round;stroke-linejoin:round;stroke-miterlimit:2.0535;}
	.st9{fill:none;stroke:#2E0A0A;stroke-width:1.0999;stroke-linecap:round;stroke-linejoin:round;stroke-miterlimit:2.1999;}
	.st10{fill:#983232;}
	.st11{fill:#2E130E;}
	.st12{fill:#FFB79C;}
	.st13{fill:#FFD4B8;}
	.st14{fill:#FFECA3;}
	.st15{fill:#FFFFFF;}
	.st16{fill:#64331C;}
	.st17{fill:none;stroke:#ECAA92;stroke-width:2.1999;stroke-linecap:round;stroke-linejoin:round;stroke-miterlimit:2.1999;}
	.st18{fill:none;stroke:#270F0B;stroke-width:2.1999;stroke-linecap:round;stroke-linejoin:round;stroke-miterlimit:2.1999;}
	.st19{fill:none;stroke:#6633CC;stroke-width:5.4997;stroke-linecap:round;stroke-linejoin:round;stroke-miterlimit:2.1999;}
	.st20{fill:none;stroke:#EE6464;stroke-width:1.6499;stroke-linecap:round;stroke-linejoin:round;stroke-miterlimit:2.1999;}
	.st21{fill:#D20B0B;}
	.st22{fill:#742222;}
	.st23{fill:#431E17;}
]]>
</style>
<g transform="matrix( 0.5499725341796875, 0, 0, 0.5499725341796875, 514.7,1223.15) ">
	<g transform="matrix( 1, 0, 0, 1, -3.95,-13.3) ">
		<g transform="matrix( 1, 0, 0, 1, 0,0) ">
			<g>
				<g id="boy004_____4_0_Layer1_0_FILL">
					<path class="st10" d="M-921.6-2083.2c-0.6,1.6-1.1,3.1-1.6,4.7c-2,5.5-3.7,11.1-5,16.9c-4.8,20.6-4.8,41-0.1,61.1
						c2.6,7,6.9,13,13,18c3.9,3.3,8.1,5.8,12.5,7.5c16.5,64.4,41.4,108.5,74.8,132.4c34.9,25,79.6,35.1,134,30.3
						c54.4-4.7,94.8-23.5,121.3-56.4c22.5-27.9,39.2-66.4,50-115.4c4.1-2.9,7.7-6.4,10.8-10.6c4.4-5.8,7.3-12.1,8.9-18.9
						c0.8-3.6,1.3-7.6,1.5-12.1c0.1-1.7,0.1-3.4,0-5.1c-0.8-25.5-7-49.8-18.6-72.8c-10-20-23-37.7-38.9-53.1
						c-23.8-22.6-51.5-38.3-83.2-47.1c-56.4-15.6-104.7-5-144.8,31.8c-1.6,2-3.2,4.2-4.8,6.3l-2.9,4.4c-3-1-6-1.6-9-1.7
						C-861.1-2164.6-900.4-2138-921.6-2083.2z"/>
				</g>
			</g>
		</g>
		<g transform="matrix( 1, 0, 0, 1, 0,0) ">
			<g>
				<g id="boy004_____4_0_Layer1_1_FILL">
					<path class="st13" d="M-841.6-1899.3c0-0.7,0-1.4,0-2.1c-5.5-16-11.7-27.7-18.6-35.2c-8-8.6-18.4-12.8-31.1-12.8
						c-10.4,0-18.8,4.5-25,13.4c-5.5,8-8.3,17.6-8.3,28.9c0,7.3,1.3,15,3.7,23c2.5,7.9,5.8,15.1,10.2,21.7
						c4.5,6.9,9.4,12.3,14.8,16.3c5.9,4.2,11.8,6.3,17.8,6.3c16.6,0,27.6-11.4,33-34.2C-843.4-1881.3-842.2-1889.7-841.6-1899.3z"/>
				</g>
			</g>
		</g>
		<g transform="matrix( -1, 0, 0, 1, 583.65,-255.25) ">
			<g>
				<g id="boy004_____4_0_Layer1_2_FILL">
					<path class="st12" d="M1439.9-1659.5c-0.8,0.9-1.6,1.7-2.5,2.3c-4.6,3.3-6.8,7.6-6.6,12.9c0.2,6.3,1.3,12.4,3.3,18.4
						c2.2,6.3,6.3,10.7,12.4,13.3c6.3,2.6,12.6,2.7,19,0.5c6.1-2.1,10.7-5.9,13.7-11.6c3.1-5.7,5.2-11.8,6.4-18.2
						c1.2-6.4,0.5-12.7-1.9-18.8c-2.6-6.6-7.3-10.5-14-11.7c-5-0.4-9.9,0.3-14.6,2.2C1449.1-1667.8,1444-1664.3,1439.9-1659.5z"/>
				</g>
			</g>
		</g>
		<g transform="matrix( 1, 0, 0, 1, 0,0) ">
			<g>
				<g id="boy004_____4_0_Layer1_3_FILL">
					<path class="st10" d="M-856.9-1936.4c0-7.1-0.3-15.4-0.9-25l-9-69.6l-22.7,69.6c2.7,15.2,6.4,28.4,11.1,39.5
						c3.1,7.2,6.3,12.8,9.7,16.9c2.8,3.4,5.1,5.2,6.8,5.2c2.2,0,3.6-3.5,4.3-10.4C-857.1-1914.9-856.9-1923.6-856.9-1936.4z"/>
				</g>
			</g>
		</g>
		<g transform="matrix( 1, 0, 0, 1, 0,0) ">
			<g>
				<g id="boy004_____4_0_Layer1_4_FILL">
					<path class="st13" d="M-511.1-1936c-6.2-8.9-14.6-13.4-25-13.4c-12.7,0-23.1,4.3-31.1,12.8c-6.9,7.4-13.1,19.2-18.6,35.2
						c0,0.7,0,1.4,0,2.1c0.6,9.7,1.8,18.1,3.5,25.2c5.4,22.8,16.4,34.2,33,34.2c6,0,11.9-2.1,17.8-6.3c5.4-3.9,10.3-9.4,14.8-16.3
						c4.3-6.6,7.7-13.8,10.1-21.7c2.5-8,3.8-15.6,3.8-23C-502.8-1918.4-505.6-1928-511.1-1936z"/>
				</g>
			</g>
		</g>
		<g transform="matrix( 1, 0, 0, 1, -583.7,-255.25) ">
			<g>
				<g id="boy004_____4_0_Layer1_5_FILL">
					<path class="st12" d="M12.5-1659.5c-0.8,0.9-1.6,1.7-2.5,2.3c-4.6,3.3-6.8,7.6-6.6,12.9c0.2,6.3,1.3,12.4,3.4,18.4
						c2.2,6.3,6.3,10.7,12.4,13.3c6.3,2.6,12.6,2.7,19,0.5c6.1-2.1,10.7-5.9,13.7-11.6c3.1-5.7,5.2-11.8,6.4-18.2
						c1.2-6.4,0.5-12.7-1.9-18.8c-2.6-6.6-7.3-10.5-14-11.7c-5-0.4-9.9,0.3-14.6,2.2C21.8-1667.8,16.7-1664.3,12.5-1659.5z"/>
				</g>
			</g>
		</g>
		<g transform="matrix( 1, 0, 0, 1, 0,0) ">
			<g>
				<g id="boy004_____4_0_Layer1_6_FILL">
					<path class="st10" d="M-549.3-1916.7c5.4-12.7,9.5-28.1,12.2-46.2c6.7-67.6,1-89.6-17.2-65.9c-16.3-5.8-21.4,16.2-15.2,65.9
						c-0.9,12.5-1.4,23.1-1.4,31.8c0,12.8,0.2,21.5,0.7,26.1c0.7,6.9,2.1,10.4,4.3,10.4c1.7,0,4-1.7,6.8-5.1
						C-555.5-1903.9-552.3-1909.5-549.3-1916.7z"/>
				</g>
			</g>
		</g>
		<g transform="matrix( 1, 0, 0, 1, 0,0) ">
			<g>
				<g id="boy004_____4_0_Layer1_7_FILL">
					<path class="st13" d="M-574.3-2084.5c-37.2-26.6-82.3-43.2-135.4-49.6c-55,4-103.2,21.6-144.6,52.6
						c-9.1,19.3-13.7,41.7-13.7,67.4c0,19.5,1.2,40.9,3.6,64.3c3.2,31.3,4.9,47.8,5,49.4c0.1,1.8,0.3,6.3,0.5,13.4
						c0.2,5.5,0.5,9.9,0.9,13.4c1.1,10.3,3.9,19.3,8.2,27.1c1,1.9,1.9,3.5,2.7,4.9c9.1,14.3,21.5,24.8,37.3,31.4
						c16.6,6.9,33.7,11.4,51.5,13.6c14.8,1.8,29.7,2.3,44.6,1.7c14.9,0.6,29.8,0,44.6-1.7c17.8-2.1,34.9-6.6,51.5-13.6
						c15.8-6.6,28.2-17.1,37.3-31.4c0.8-1.4,1.7-3.1,2.7-4.9c4.3-7.7,7-16.7,8.2-27.1c0.4-3.4,0.7-7.9,0.9-13.4
						c0.3-7.1,0.5-11.6,0.6-13.4c0.1-1.6,1.8-18,5-49.4c2.4-23.4,3.6-44.8,3.6-64.3C-559.1-2041.1-564.2-2064.6-574.3-2084.5z"/>
				</g>
			</g>
		</g>
		<g transform="matrix( 1, 0, 0, 1, 0,0) ">
			<g>
				<g id="boy004_____4_0_Layer1_8_FILL">
					<path class="st10" d="M-798.2-2095.5c-2.1-1.5-3.7-2.6-4.8-3.2c-1.8-1.1-4.2-4.3-7.1-9.7c-2.9-5.3-7.3-6.6-13.3-4
						c-5.9,2.7-11.9,6.7-17.8,12c-6,5.3-11.4,10.2-16.3,14.6c-3.4,3.1-7.1,7.1-11.1,12.1c-12.3,15.8-19.2,30.7-20.6,44.9
						c-0.7,6.5-0.2,12.2,1.7,17.3c1.1,2.9,2.5,5.4,4.4,7.6c2,2.4,4.4,4.1,6.9,5.3c1.7,0.8,3.5,1.3,5.4,1.5c6.4,0.9,14.1-1,23-5.7
						c13-7,24.5-16.2,34.3-27.6c9.9-11.4,17.4-24,22.4-37.9c1.4-3.9,2.2-7.2,2.5-10.1c0-0.1,0-0.2,0-0.3c0.3-3.6-0.4-6.8-1.9-9.3
						c-0.8-1.4-2-2.8-3.5-4.1C-794.8-2093.1-796.3-2094.2-798.2-2095.5z"/>
				</g>
			</g>
		</g>
		<g transform="matrix( 1, 0, 0, 1, 0,0) ">
			<g>
				<g id="boy004_____4_0_Layer1_9_FILL">
					<path class="st22" d="M-763.1-2132.5c-6.3-0.1-11.5,1-15.5,3.4c-3,1.8-5.4,4.3-7.4,7.5c-1.9,3-3.2,7.2-3.9,12.6
						c-0.7,5.4,0.7,13.2,4.2,23.3c0.6,1.8,1.1,3.4,1.6,4.7c5.9-2.5,13.2-4.8,21.9-6.9c15.1-3.7,28.7-5.7,40.9-6
						c-2.3-4.3-4.2-7.7-5.7-10.2c-4.8-7.8-9.7-14.3-14.9-19.4c-3-2.9-5.7-5-8-6.1C-753.5-2131.4-757.9-2132.4-763.1-2132.5z"/>
					<path class="st10" d="M-675.3-2151.3c-13.3-4.4-22.3-7.3-27-8.8c-25-7.7-44.5-11.5-58.5-11.5c-5.6,0-11.6,0.8-18,2.5
						c-4.8,1.3-7.8,7.5-9,18.6c-1.2,11.1-7.1,14.6-17.7,10.4c-10.6-4.2-15.9,0.9-15.9,15.2c0,14.3,4.3,25.4,12.9,33.1
						c3.1,2.8,6.6,5,10.4,6.6c4.3,2.4,7.3,4.6,9.2,6.5c1.2-0.6,2.4-1.2,3.7-1.8c-0.1-0.3-0.3-0.6-0.4-1c-1-2.2-0.8-1.9,0.5,1
						c0.3-0.1,0.7-0.3,1-0.5c-0.4-1.3-0.9-2.9-1.6-4.7c-3.5-10.1-4.9-17.9-4.2-23.3c0.7-5.4,2-9.6,3.9-12.6c2-3.2,4.5-5.7,7.4-7.5
						c4-2.4,9.2-3.5,15.5-3.4c5.2,0.1,9.6,1.1,13.1,2.9c2.3,1.1,5,3.2,8,6.1c5.2,5.1,10.1,11.6,14.9,19.4c1.5,2.5,3.5,5.9,5.7,10.2
						c1.8,3.4,3.8,7.2,6.1,11.7c4.9,9.7,8.9,16.9,11.9,21.7c4.8,7.7,9.9,14.1,15.2,19.1c2.3,2.1,5.5,4.8,9.7,8
						c4.9,3.8,8.7,6.5,11.6,7.9c5.3,2.7,12.1,4.4,20.4,5.3c7.4,0.7,14.3,0.8,20.8,0.2c6.5-0.6,12.9-2,19.2-4.1
						c0.5,1.5,1.1,3,1.7,4.5c3.6,9,8,16.5,13.1,22.4c6.2,7.3,13.2,12.3,21,15.1c4.1,1.5,9.1,2.4,14.9,2.9c1.5,0.1,2.9,0.2,4.4,0.3
						c5.7,0.2,10.7-0.3,15-1.4c5-1.3,9.2-3.5,12.6-6.4v-9.2h-1.1c-0.2-2.3-0.3-4.8-0.6-7.3c-0.3-3.4-0.6-6.9-1-10.6
						c-1.3-12.4-3.1-24-5.6-34.5c-7.9-33.8-21.3-56.7-40.2-68.8c-10.1-6.4-21.8-11.8-35-16c-9.8-3.1-26-7.3-48.8-12.3
						C-659.6-2146.3-666-2148.2-675.3-2151.3z"/>
				</g>
			</g>
		</g>
	</g>
	<g transform="matrix( 1, 0, 0, 1, -0.35,179.3) ">
		<g transform="matrix( 1, 0, 0, 1, 0,0) ">
			<g>
				<path id="boy004______0_Layer0_0_1_STROKES" class="st20" d="M-738.7-2035.2c17.2,12.8,34.6,12.5,52.2-0.9"/>
			</g>
		</g>
	</g>
	<g transform="matrix( 1, 0, 0, 1, -0.35,149.8) ">
		<g transform="matrix( 1, 0, 0, 1, 0,0) ">
			<g>
				<g id="boy004___4_0_Layer0_0_STROKES_1_FILL">
					<path class="st1" d="M-720.2-2047.4l-0.6,0.2l-0.4,0.1l-0.2,0l-1.9,1l-1.4,1c-0.1,0.1-0.3,0.2-0.5,0.4l-0.5,0.4
						c-0.8,0.8-1.4,1.6-1.9,2.4c-0.3,0.5-0.5,1-0.7,1.5l-0.2,0.4l-0.1,0.4l-0.2,0.4l-0.3,1.3l0,0.9c0,0.6,0,1.3,0.2,1.9l0.5,1.8
						l0.2,0.4l0,0.1l0.1,0v0l0.1,0.2l0.1,0.1l1,2l0.5,0.6l0.2,0.1l0.1,0.1l0.2,0.3c0.6,0.7,1.3,1.4,2.2,2l0.6,0.4l0.3,0.2l0.2,0.1
						l0.2,0l1.2,0.6l0.6,0.2l0.3,0l0.3,0.1l0.5,0.1l1.8,0.1l1.4-0.2l0.3-0.1l0.1-0.1l0,0l-1.4-1l-0.3-0.3l-0.2-0.1l-0.1-0.2
						l-1.5-1.4l-0.5-0.8l-0.1-0.2l-0.3-0.4l-0.1-0.2c-0.3-0.5-0.6-1.1-0.9-1.8l-0.3-0.5l-0.8-2.2v0l-0.1,0l-0.2-1.2
						c-0.1-0.4-0.2-1-0.2-1.7l0-0.2v-0.3l0.1-0.4v-0.2l0.1-0.2l0.1-0.5c0.3-0.9,0.5-1.6,0.7-1.9l1.1-2.2l0.2-0.2l0.8-1.5l0.1-0.1
						l0.5-0.9l0.1-0.3l0.4-0.7l-0.1-0.1h-0.1L-720.2-2047.4z"/>
				</g>
			</g>
		</g>
	</g>
	<g transform="matrix( 1.686859130859375, 0, 0, 1.6790008544921875, -1019.55,-526.55) ">
		<g>
			<g id="boy004_____4____0_Layer4_0_FILL">
				<path class="st15" d="M250.5-834.6c0-7.5-2.7-13.9-8-19.2c-5.3-5.3-11.7-7.9-19.2-7.9s-13.9,2.6-19.2,7.9
					c-5.3,5.3-7.9,11.7-7.9,19.2s2.6,13.9,7.9,19.2c5.3,5.3,11.7,7.9,19.2,7.9s13.9-2.7,19.2-7.9
					C247.9-820.7,250.5-827.1,250.5-834.6z"/>
			</g>
		</g>
	</g>
	<g transform="matrix( -1.686859130859375, 0, 0, 1.6790008544921875, 1013.7,-526.55) ">
		<g>
			<g id="boy004_____4____0_Layer4_1_FILL">
				<path class="st15" d="M1096.7-834.6c0-7.5-2.6-13.9-7.9-19.2c-5.3-5.3-11.7-7.9-19.2-7.9s-13.9,2.6-19.2,7.9
					c-5.3,5.3-7.9,11.7-7.9,19.2s2.6,13.9,7.9,19.2c5.3,5.3,11.7,7.9,19.2,7.9s13.9-2.7,19.2-7.9
					C1094-820.7,1096.7-827.1,1096.7-834.6z"/>
			</g>
		</g>
	</g>
	<g transform="matrix( 1.3050994873046875, 0, 0, 1.4173583984375, -769.95,-423.9) ">
		<g>
			<g id="boy004_____4____0_Layer3_0_MEMBER_0_FILL">
				<path class="st11" d="M121.3-1056.6c0-7.1-2.5-13.1-7.5-18.1c-5-5-11-7.5-18.1-7.5s-13.1,2.5-18.1,7.5c-5,5-7.4,11-7.4,18.1
					c0,7.1,2.5,13.1,7.4,18.1c5,5,11,7.5,18.1,7.5s13.1-2.5,18.1-7.5C118.8-1043.5,121.3-1049.6,121.3-1056.6z"/>
			</g>
		</g>
	</g>
	<g transform="matrix( -1.24346923828125, 0, 0, 1.24346923828125, -21.35,-13.6) ">
		<g>
			<g id="boy004_____4____0_Layer3_0_MEMBER_1_FILL">
				<path class="st15" d="M520.6-1547.1c0-1.7-0.6-3.1-1.8-4.3c-1.2-1.2-2.7-1.8-4.4-1.8c-1.7,0-3.2,0.6-4.4,1.8
					c-1.2,1.2-1.8,2.7-1.8,4.3c0,1.7,0.6,3.2,1.8,4.4c1.2,1.2,2.7,1.8,4.4,1.8c1.7,0,3.2-0.6,4.4-1.8
					C520-1543.9,520.6-1545.4,520.6-1547.1z"/>
			</g>
		</g>
	</g>
	<g transform="matrix( -1.3050994873046875, 0, 0, 1.4173583984375, 764.1,-423.9) ">
		<g>
			<g id="boy004_____4____0_Layer2_0_MEMBER_0_FILL">
				<path class="st11" d="M1215-1056.6c0-7.1-2.5-13.1-7.5-18.1c-5-5-11-7.5-18-7.5c-7.1,0-13.1,2.5-18.1,7.5c-5,5-7.4,11-7.4,18.1
					c0,7.1,2.5,13.1,7.4,18.1c5,5,11,7.5,18.1,7.5c7.1,0,13.1-2.5,18-7.5C1212.5-1043.5,1215-1049.6,1215-1056.6z"/>
			</g>
		</g>
	</g>
	<g transform="matrix( 1.24346923828125, 0, 0, 1.24346923828125, 15.5,-13.6) ">
		<g>
			<g id="boy004_____4____0_Layer2_0_MEMBER_1_FILL">
				<path class="st15" d="M-627.2-1547.1c0-1.7-0.6-3.1-1.8-4.3c-1.2-1.2-2.7-1.8-4.4-1.8s-3.2,0.6-4.4,1.8
					c-1.2,1.2-1.8,2.7-1.8,4.3c0,1.7,0.6,3.2,1.8,4.4c1.2,1.2,2.7,1.8,4.4,1.8s3.2-0.6,4.4-1.8
					C-627.8-1543.9-627.2-1545.4-627.2-1547.1z"/>
			</g>
		</g>
	</g>
	<g transform="matrix( 1, 0, 0, 1, 71,77.5) ">
		<g transform="matrix( -1.24346923828125, 0, 0, 1.24346923828125, -90.05,-98.85) ">
			<g>
				<g id="boy004_______4_0_Layer2_0_STROKES_1_FILL">
					<path class="st4" d="M488.2-1497.9l-2.4-0.2c-0.1,0-0.1,0-0.1,0.1l0,0l1,0.7l4,2l2.6,0.9c1.2,0.4,2.2,0.7,3,0.8l3.3,0.6
						c1,0.1,2.2,0.2,3.5,0.2l2.2,0l0.8-0.1h0.3l0.2,0l0.8-0.1l2.6-0.5c0.9-0.2,1.9-0.6,3-1l0.4-0.1l0.2-0.1l0,0l0.7-0.3l0.3-0.2
						l0.3-0.1l0.3-0.2l0.1,0l0.1-0.1c0.6-0.4,1.3-0.8,1.9-1.4l0.8-0.6l1.7-1.8l0-0.1h-0.1l-1.1,0.4l-0.3,0.1l-0.8,0.3l-0.2,0
						l-3.4,1.1l-0.3,0l-0.3,0.1c0,0-0.2,0-0.6,0.2h-0.1l-0.2,0l-3.1,0.5H509l-0.2,0.1h-0.1l-2.3,0.2H506l-0.3,0h-4.3l-0.4,0h-0.8
						l-0.2-0.1h-0.2l-0.4,0h-0.7l-9.9-1l-0.2,0H488.2z"/>
				</g>
			</g>
		</g>
		<g transform="matrix( 1.8548583984375, 0, 0, 1.8548583984375, -1199.3,-665) ">
			<g>
				<g id="boy004_______4_0_Layer1_0_STROKES_1_FILL">
					<path class="st7" d="M269.9-747.8l-3.1-0.9l-2.5-0.4l-0.2,0h-0.2l-0.7-0.1h-0.4l-0.3,0H262c-1.3,0-2.2,0-2.9,0.1l-1.7,0.2
						l-0.4,0.1l-1,0.2l-0.3,0.1l-0.4,0l-1.7,0.5c-1,0.3-1.9,0.6-2.6,0.9l-0.2,0l-0.2,0.1l-0.3,0.1l-1.8,1c-0.7,0.3-1.4,0.8-2.2,1.3
						l-4.6,4.1l-2.7,3.8l-0.1,0.2l-0.1,0.1l-0.7,1.2l-0.2,0.4l-0.2,0.3l-0.2,0.6c-0.1,0.1-0.1,0.2,0.1,0.2h0.1l1-1.1l5.2-4.7
						l0.4-0.2c1-0.8,2.2-1.5,3.6-2.2l1.2-0.7l0.2-0.1l0.3-0.1l2.4-1l1.2-0.3l0.3-0.1l0.3-0.1l0.3,0l0.9-0.2l3.1-0.5h0.3l1-0.1
						c1.1-0.1,2-0.1,2.5,0h0l-0.1-0.1h0l0.1,0.1h0.5l0.1,0h0.5l0.3,0h0.1l0.2,0l2.2,0.3l0.1,0h0.2l1.2,0.2l0.3,0.1l0.3,0.1l1.8,0.5
						l0.3,0.1l1.4,0.5c0.3,0.1,1,0.4,2.2,0.9l0.5,0.3l0.4,0.1l0.1,0.1l2.1,1.1l0.1,0.1l1.1,0.8l0.2,0.1l2.9,2.3l0.3,0.3l0.4,0.2
						l4.1,4.1h0.1v-0.2l-0.3-0.6l-0.2-0.3l-2.3-3.8l-0.5-0.7l-0.3-0.4l-2.6-2.9l-2.9-2.5l-0.6-0.4l-0.1-0.1l-0.2-0.1l-0.2-0.2
						l-1.1-0.7l-0.6-0.3l-0.3-0.2l-0.9-0.4c-0.7-0.3-1.5-0.7-2.5-1.1L269.9-747.8z"/>
				</g>
			</g>
		</g>
		<g transform="matrix( 1, 0, 0, 1, 4.15,-61.25) ">
			<g transform="matrix( 1.02435302734375, 0.0494842529296875, -0.0562744140625, 1.164306640625, -681.3,-384.95) ">
				<g>
					<g id="boy004____2_Layer0_0_STROKES_1_FILL">
						<path class="st23" d="M-134.1-1412.2l0.3,0l3.3-0.8l3.4-0.6l0.2,0l0.2,0l0.3,0c2.3-0.2,4.2-0.3,5.8-0.3c1.3,0,2.2,0,2.9,0.1
							l4.9,0.6l0.3,0.1l0.4,0.1l2.7,0.6l0.4,0.1l0.3,0.1l2.6,0.7l7.3,2.8l8.1,3.9c0.1,0.1,0.2,0.1,0.1,0l0-0.1l-2.1-1.9
							c-0.7-0.6-1.5-1.3-2.5-2.1l-2.6-1.8l-5.6-3.1l-4.6-1.9l-3.6-1l-2.7-0.5c-2-0.3-4.1-0.5-6.3-0.5c-1.4,0-2.5,0-3.2,0.1l-1.6,0.1
							l-0.2,0l-0.2,0l-1.5,0.2l-0.2,0l-4,0.9l-5.4,2l-7.5,4.1l-1.6,1.2c-0.9,0.6-1.8,1.3-2.5,2l-2.1,1.9l0,0.1l0.2,0l4.1-2.1
							L-134.1-1412.2z"/>
					</g>
				</g>
			</g>
		</g>
	</g>
	<g transform="matrix( -1, 0, 0, 1, -76.85,77.5) ">
		<g transform="matrix( -1.24346923828125, 0, 0, 1.24346923828125, -90.05,-98.85) ">
			<g>
				<g id="boy004_______4_0_Layer2_0_STROKES_1_FILL_1_">
					<path class="st4" d="M-659.7-1497.9l-2.4-0.2c-0.1,0-0.1,0-0.1,0.1l0,0l1,0.7l4,2l2.6,0.9c1.2,0.4,2.2,0.7,3,0.8l3.3,0.6
						c1,0.1,2.2,0.2,3.5,0.2l2.2,0l0.9-0.1h0.2l0.2,0l0.8-0.1l2.6-0.5c0.9-0.2,1.9-0.6,3-1l0.4-0.2l0.2,0l0,0l0.7-0.3l0.3-0.2
						l0.3-0.1l0.3-0.2l0.1-0.1l0.1-0.1c0.6-0.4,1.3-0.8,1.9-1.4l0.8-0.6l1.7-1.8l0-0.2h-0.1l-1.1,0.4l-0.4,0.1l-0.7,0.3l-0.2,0
						l-3.4,1.1l-0.3,0.1l-0.3,0.1c0,0-0.2,0-0.7,0.1h-0.1l-0.2,0.1l-3.1,0.5h-0.4l-0.2,0.1h-0.1l-2.3,0.2h-0.4l-0.3,0h-4.3l-0.4,0
						h-0.8l-0.2-0.1h-0.2l-0.4,0h-0.8l-9.9-1l-0.2-0.1H-659.7z"/>
				</g>
			</g>
		</g>
		<g transform="matrix( 1.8548583984375, 0, 0, 1.8548583984375, -1199.3,-665) ">
			<g>
				<g id="boy004_______4_0_Layer1_0_STROKES_1_FILL_1_">
					<path class="st7" d="M1039.3-747.8l-3.1-0.9l-2.5-0.4l-0.2,0h-0.2l-0.7-0.1h-0.4l-0.3,0h-0.5c-1.3,0-2.2,0-2.9,0.1l-1.8,0.2
						l-0.4,0.1l-1.1,0.2l-0.3,0.1l-0.3,0l-1.7,0.5c-1,0.3-1.9,0.6-2.6,0.9l-0.1,0l-0.2,0.1l-0.3,0.1l-1.7,1
						c-0.7,0.3-1.4,0.8-2.2,1.3l-4.6,4.1l-2.7,3.8l0,0.2l-0.1,0.1l-0.7,1.2l-0.2,0.4l-0.2,0.3l-0.2,0.6c-0.1,0.1-0.1,0.2,0,0.2h0.1
						l1-1.1l5.2-4.7l0.4-0.2c1-0.8,2.2-1.5,3.5-2.2l1.3-0.7l0.2-0.1l0.3-0.1l2.4-1l1.2-0.3l0.3-0.1l0.3-0.1l0.3,0l0.9-0.2l3.1-0.5
						h0.3l1-0.1c1.1-0.1,2-0.1,2.6,0h0l-0.1-0.1h0l0.1,0.1h0.5l0.1,0h0.5l0.3,0h0.2l0.1,0l2.2,0.3l0.1,0h0.2l1.2,0.2l0.3,0.1
						l0.3,0.1l1.8,0.5l0.3,0.1l1.4,0.5c0.3,0.1,1,0.4,2.2,0.9l0.5,0.3l0.4,0.1l0.1,0.1l2.1,1.1l0.1,0.1l1.1,0.8l0.2,0.1l2.9,2.3
						l0.3,0.3l0.3,0.2l4.1,4.1h0.2v-0.2l-0.3-0.6l-0.2-0.3l-2.2-3.8l-0.5-0.7l-0.3-0.4l-2.6-2.9l-2.9-2.5l-0.6-0.4l-0.1-0.1
						l-0.1-0.1l-0.2-0.2l-1.1-0.7l-0.6-0.3l-0.3-0.2l-0.9-0.4c-0.7-0.3-1.5-0.7-2.5-1.1L1039.3-747.8z"/>
				</g>
			</g>
		</g>
		<g transform="matrix( 1, 0, 0, 1, 4.15,-61.25) ">
			<g transform="matrix( 1.02435302734375, 0.0494842529296875, -0.0562744140625, 1.164306640625, -681.3,-384.95) ">
				<g>
					<g id="boy004____2_Layer0_0_STROKES_1_FILL_1_">
						<path class="st23" d="M1256-1471.3l0.4-0.1l3.3-0.8l3.4-0.6l0.2,0l0.2,0l0.3,0c2.3-0.2,4.2-0.3,5.8-0.3c1.3,0,2.2,0,2.8,0.1
							l5,0.6l0.3,0.1l0.4,0.1l2.7,0.6l0.4,0.1l0.3,0.1l2.6,0.7l7.3,2.8l8.1,3.9c0.1,0.1,0.2,0.1,0.1,0l0-0.1l-2.1-1.9
							c-0.7-0.6-1.5-1.3-2.5-2.1l-2.5-1.8l-5.6-3.1l-4.6-1.9l-3.6-1l-2.7-0.5c-2-0.3-4.1-0.5-6.3-0.5c-1.4,0-2.5,0-3.2,0.1l-1.6,0.1
							l-0.2,0l-0.2,0l-1.5,0.2l-0.2,0l-4,0.9l-5.4,2l-7.5,4.1l-1.6,1.2c-0.9,0.6-1.8,1.3-2.5,2l-2.1,1.9l0,0.1l0.2,0l4.1-2.1
							L1256-1471.3z"/>
					</g>
				</g>
			</g>
		</g>
	</g>
</g>
</svg>
