<?xml version="1.0" encoding="utf-8"?>
<!-- Generator: Adobe Illustrator 25.0.1, SVG Export Plug-In . SVG Version: 6.00 Build 0)  -->
<svg version="1.1" id="레이어_1" xmlns="http://www.w3.org/2000/svg" xmlns:xlink="http://www.w3.org/1999/xlink" x="0px"
	 y="0px" width="163px" height="180.3px" viewBox="0 0 163 180.3" style="enable-background:new 0 0 163 180.3;"
	 xml:space="preserve">
<g>
	<g id="Layer_6_2_" transform="matrix( 0.54534912109375, 0, 0, 0.54534912109375, 1409.8,640.15) ">
		<g>
			<g>
				<g>
					<path style="fill:#571F14;" d="M-2435.5-1120.4c-44.6-0.3-80.9,11.4-108.9,35.1c-28,23.6-36.5,59.7-25.4,108.2
						c11.1,48.5,29,81.6,53.6,99.2c24.6,17.6,56.1,24.7,94.4,21.4c38.3-3.3,66.8-16.6,85.5-39.7c18.7-23.2,31.6-56.2,39-99.2
						c7.3-43-2.7-74.5-30.1-94.5C-2354.9-1110.1-2390.9-1120.2-2435.5-1120.4z"/>
				</g>
			</g>
		</g>
	</g>
	<g id="Layer_1_17_" transform="matrix( 0.54534912109375, 0, 0, 0.54534912109375, 1409.8,640.15) ">
		<g id="Layer_1_20_" transform="matrix( -1, 0, 0, 1, -173.35,120.05) ">
			<g>
				<g>
					<g>
						<path style="fill:#FAD2B7;" d="M2410.9-1043.4c0-7.9-1.9-14.7-5.8-20.4c-4.4-6.3-10.3-9.4-17.6-9.4c-8.9,0-16.2,3-21.9,9.1
							c-4.9,5.2-9.3,13.5-13.1,24.8c0,0.5,0,1,0,1.5c0.4,6.8,1.2,12.7,2.4,17.8c3.8,16.1,11.6,24.1,23.2,24.1
							c4.2,0,8.4-1.5,12.5-4.5c3.8-2.8,7.3-6.6,10.4-11.4c3-4.6,5.4-9.8,7.1-15.3C2410-1032.9,2410.9-1038.3,2410.9-1043.4
							 M2383.7-1057.8c4.8,0.8,8.1,3.6,9.9,8.2c1.7,4.3,2.2,8.7,1.3,13.2c-0.8,4.5-2.3,8.8-4.5,12.8c-2.1,4-5.4,6.7-9.7,8.2
							c-4.5,1.5-9,1.4-13.4-0.4c-4.3-1.8-7.2-4.9-8.7-9.3c-1.4-4.2-2.2-8.5-2.4-13c-0.1-3.8,1.4-6.8,4.6-9.1c0.7-0.5,1.3-1,1.8-1.7
							c2.9-3.4,6.5-5.9,10.7-7.5C2376.7-1057.6,2380.2-1058.1,2383.7-1057.8z"/>
						<path style="fill:#F5B39A;" d="M2393.6-1049.6c-1.8-4.6-5.1-7.4-9.9-8.2c-3.5-0.3-7,0.2-10.3,1.5c-4.2,1.6-7.8,4.1-10.7,7.5
							c-0.5,0.6-1.1,1.2-1.8,1.7c-3.2,2.3-4.8,5.3-4.6,9.1c0.1,4.4,0.9,8.8,2.4,13c1.5,4.4,4.5,7.5,8.7,9.3
							c4.4,1.8,8.9,1.9,13.4,0.4c4.3-1.5,7.5-4.2,9.7-8.2c2.2-4,3.7-8.3,4.5-12.8C2395.8-1040.8,2395.3-1045.2,2393.6-1049.6z"/>
					</g>
				</g>
			</g>
		</g>
		<g>
			<g>
				<g>
					<path style="fill:#571F14;" d="M-2536.6-944c0-5-0.2-10.9-0.6-17.6l-6.3-49l-16,49c1.9,10.7,4.5,20,7.8,27.8
						c2.2,5,4.4,9,6.8,11.9c2,2.4,3.6,3.6,4.8,3.6c1.5,0,2.6-2.4,3-7.3C-2536.7-928.8-2536.6-935-2536.6-944z"/>
				</g>
			</g>
			<g>
				
					<path style="fill:none;stroke:#2D0A09;stroke-width:1.0907;stroke-linecap:round;stroke-linejoin:round;stroke-miterlimit:2.1814;" d="
					M-2559.5-961.6c1.9,10.7,4.5,20,7.8,27.8c2.2,5,4.4,9,6.8,11.9c2,2.4,3.6,3.6,4.8,3.6c1.5,0,2.6-2.4,3-7.3
					c0.3-3.2,0.5-9.4,0.5-18.4c0-5-0.2-10.9-0.6-17.6"/>
			</g>
		</g>
		<g id="Layer_1_19_" transform="matrix( 1, 0, 0, 1, 165.4,120.05) ">
			<g>
				<g>
					<g>
						<path style="fill:#FAD2B7;" d="M-2452.6-1043.4c0-7.9-1.9-14.7-5.8-20.4c-4.4-6.3-10.3-9.4-17.6-9.4c-8.9,0-16.2,3-21.9,9.1
							c-4.9,5.2-9.3,13.5-13.1,24.8c0,0.5,0,1,0,1.5c0.4,6.8,1.2,12.7,2.4,17.8c3.8,16.1,11.6,24.1,23.2,24.1
							c4.2,0,8.4-1.5,12.5-4.5c3.8-2.8,7.3-6.6,10.4-11.4c3-4.6,5.4-9.8,7.1-15.3C-2453.4-1032.9-2452.6-1038.3-2452.6-1043.4
							 M-2479.7-1057.8c4.8,0.8,8.1,3.6,9.9,8.2c1.7,4.3,2.2,8.7,1.3,13.2c-0.8,4.5-2.3,8.8-4.5,12.8c-2.1,4-5.4,6.7-9.7,8.2
							c-4.5,1.5-9,1.4-13.4-0.4c-4.3-1.8-7.2-4.9-8.7-9.3c-1.4-4.2-2.2-8.5-2.4-13c-0.1-3.8,1.4-6.8,4.6-9.1c0.7-0.5,1.3-1,1.8-1.7
							c2.9-3.4,6.5-5.9,10.7-7.5C-2486.7-1057.6-2483.3-1058.1-2479.7-1057.8z"/>
						<path style="fill:#F5B39A;" d="M-2469.8-1049.6c-1.8-4.6-5.1-7.4-9.9-8.2c-3.5-0.3-7,0.2-10.3,1.5c-4.2,1.6-7.8,4.1-10.7,7.5
							c-0.5,0.6-1.1,1.2-1.8,1.7c-3.2,2.3-4.8,5.3-4.6,9.1c0.1,4.4,0.9,8.8,2.4,13c1.5,4.4,4.5,7.5,8.7,9.3
							c4.4,1.8,8.9,1.9,13.4,0.4c4.3-1.5,7.5-4.2,9.7-8.2c2.2-4,3.7-8.3,4.5-12.8C-2467.7-1040.8-2468.1-1045.2-2469.8-1049.6z"/>
					</g>
				</g>
			</g>
		</g>
		<g>
			<g>
				<g>
					<path style="fill:#571F14;" d="M-2334.1-962.7c-0.6,8.8-1,16.3-1,22.4c0,9,0.2,15.1,0.5,18.4c0.5,4.9,1.5,7.3,3,7.3
						c1.2,0,2.8-1.2,4.8-3.6c2.4-2.9,4.6-6.9,6.8-11.9c3.8-8.9,6.7-19.8,8.6-32.6c4.7-47.6,0.7-63.1-12.1-46.5
						C-2334.9-1013.2-2338.4-997.7-2334.1-962.7z"/>
				</g>
			</g>
		</g>
		<g id="Layer_1_18_" transform="matrix( 1, 0, 0, 1, -7.5,51.95) ">
			<g>
				<g>
					<g>
						<path style="fill:#FAD2B7;" d="M-2319.3-1050.7c0-19-3.6-35.6-10.7-49.6c-26.2-18.8-58-30.4-95.3-34.9
							c-38.7,2.8-72.7,15.2-101.8,37c-6.4,13.6-9.6,29.4-9.6,47.5c0,13.7,0.9,28.8,2.6,45.3c2.3,22,3.5,33.6,3.5,34.8
							c0.1,1.3,0.2,4.4,0.4,9.4c0.1,3.9,0.4,7,0.6,9.4c0.8,7.3,2.7,13.6,5.7,19.1c0.7,1.3,1.4,2.5,1.9,3.5
							c6.4,10.1,15.2,17.5,26.3,22.1c11.7,4.9,23.8,8,36.3,9.5c10.4,1.2,20.9,1.7,31.4,1.2c10.5,0.4,21,0,31.4-1.2
							c12.5-1.5,24.6-4.7,36.3-9.5c11.1-4.6,19.9-12,26.3-22.1c0.6-1,1.2-2.2,1.9-3.5c3-5.4,4.9-11.8,5.7-19.1
							c0.3-2.4,0.5-5.6,0.6-9.4c0.2-5,0.3-8.2,0.4-9.4c0.1-1.1,1.2-12.7,3.5-34.8C-2320.2-1021.8-2319.3-1036.9-2319.3-1050.7z"/>
					</g>
				</g>
			</g>
		</g>
	</g>
	<g id="___2_" transform="matrix( 0.54534912109375, 0, 0, 0.54534912109375, 1409.8,640.15) ">
		<g id="Layer_2_19_" transform="matrix( 1, 0, 0, 1, -0.35,179.3) ">
			<g>
				<g>
					<g>
						<path style="fill:#2D0A09;" d="M-2413.5-1058.9c-0.3,0-0.5,0-0.8,0.2c-12,9.1-23.8,9.3-35.5,0.6c-0.2-0.2-0.5-0.2-0.8-0.2
							c-0.3,0.1-0.5,0.2-0.7,0.4c-0.2,0.2-0.2,0.5-0.2,0.8c0.1,0.3,0.2,0.5,0.4,0.7c12.5,9.4,25.2,9.2,38-0.6
							c0.2-0.2,0.4-0.4,0.4-0.7c0.1-0.3,0-0.5-0.2-0.8C-2413-1058.7-2413.2-1058.8-2413.5-1058.9z"/>
					</g>
				</g>
			</g>
		</g>
	</g>
	<g id="__2_" transform="matrix( 0.54534912109375, 0, 0, 0.54534912109375, 1409.8,640.15) ">
		<g id="Layer_1_16_" transform="matrix( 1, 0, 0, 1, -0.35,149.8) ">
			<g>
				<g>
					<g>
						<path style="fill:#DC7D5B;" d="M-2431.4-1048l-0.5-0.1l-1.7,0l-0.2,0h-0.1l-0.1,0l-0.3,0l-0.2,0.1h-0.1l-0.6,0.2l-0.2,0.1
							l-0.2,0.1l-0.4,0.2l-0.1,0l-0.6,0.4l-0.1,0.1l-0.4,0.3l-0.7,0.7l-0.3,0.4l-0.4,0.7l0,0.1l-0.2,0.4l0,0.1l0,0.1l0,0.2l-0.1,0.4
							l-0.1,1.2l0,0.2v0.2l0.1,0.4l0.2,0.5l0.1,0.1l0.2-0.2l0.1-0.1l0.6-0.7l0.1-0.1l0.4-0.4l0.3-0.2l0.1-0.1l0.1-0.1l0,0l0.1,0
							l0.2-0.1l0,0l0.1,0l0.1,0l0.2-0.1l0.2,0l0.5-0.2h0.1l0.1,0l0.1,0h0.1l0.1,0h0.1l0.1,0h0.1l0.1,0h0.3l0.1,0h0.3l0.2,0h1l0.1,0
							h0.7l0.1,0h0.2l0.1,0h0.2l0.1,0h0.2l0.1,0h0.1l0.3,0.1h0.1l0.1,0h0.1l0.1,0l0.1,0h0.1l0.4,0.1h0.1l0.1,0l0,0l0.3,0.1l0.1,0.1
							l0.1,0l0,0l0.2,0.1l0.1,0.1l0.1,0.1l0.2,0.2l0,0l0.1,0l0.1,0.1l0.5,0.5l0.1,0.1l0.6,0.7l0.1,0.1l0.2,0.3c0,0.1,0,0.1,0.1,0v0
							l0.1-0.2l0.1-0.4l0-0.2c0.1-0.2,0.1-0.6,0.1-1l0-0.6l-0.1-0.2v-0.1l-0.4-1.2l-0.5-0.8l-0.1-0.1l0-0.1l-0.2-0.2l-0.1-0.1
							l-0.1-0.1l-0.2-0.2l-0.2-0.1l-0.2-0.2l-0.1-0.1l-1.3-0.7l-0.2-0.1l-0.1-0.1h0l-0.1,0l-0.7-0.2l-0.2,0L-2431.4-1048z"/>
					</g>
				</g>
			</g>
		</g>
	</g>
	<g id="Layer_15_3_" transform="matrix( 0.54534912109375, 0, 0, 0.54534912109375, 1409.8,640.15) ">
		<g transform="matrix( 1.686859130859375, 0, 0, 1.6790008544921875, -1019.55,-526.55) ">
			<g>
				<g>
					<path style="fill:#FFFFFF;" d="M-789.1-239.5c0-5.3-1.9-9.8-5.6-13.5c-3.7-3.7-8.2-5.6-13.5-5.6s-9.8,1.9-13.5,5.6
						c-3.7,3.7-5.6,8.2-5.6,13.5c0,5.3,1.9,9.8,5.6,13.5c3.7,3.7,8.2,5.6,13.5,5.6s9.8-1.9,13.5-5.6
						C-791-229.7-789.1-234.2-789.1-239.5z"/>
				</g>
			</g>
		</g>
	</g>
	<g id="Layer_14_3_" transform="matrix( 0.54534912109375, 0, 0, 0.54534912109375, 1409.8,640.15) ">
		<g transform="matrix( 1.3050994873046875, 0, 0, 1.4173583984375, -769.95,-423.9) ">
			<g>
				<g>
					<path style="fill:#2E130D;" d="M-1219.1-352.9c0-5-1.8-9.2-5.3-12.7c-3.5-3.5-7.7-5.2-12.7-5.2c-5,0-9.2,1.7-12.7,5.2
						c-3.5,3.5-5.2,7.8-5.2,12.7c0,5,1.7,9.2,5.2,12.7c3.5,3.5,7.8,5.3,12.7,5.3c5,0,9.2-1.8,12.7-5.3
						C-1220.9-343.7-1219.1-348-1219.1-352.9z"/>
				</g>
			</g>
		</g>
	</g>
	<g id="Layer_13_2_" transform="matrix( 0.54534912109375, 0, 0, 0.54534912109375, 1409.8,640.15) ">
		<g transform="matrix( -1.24346923828125, 0, 0, 1.24346923828125, -21.35,-13.6) ">
			<g>
				<g>
					<path style="fill:#FFFFFF;" d="M1913.9-741.2c0-1.2-0.4-2.2-1.3-3.1c-0.8-0.8-1.9-1.3-3.1-1.3c-1.2,0-2.3,0.4-3.1,1.3
						c-0.8,0.8-1.3,1.9-1.3,3.1c0,1.2,0.4,2.3,1.3,3.1c0.8,0.8,1.9,1.3,3.1,1.3c1.2,0,2.3-0.4,3.1-1.3
						C1913.5-739,1913.9-740,1913.9-741.2z"/>
				</g>
			</g>
		</g>
	</g>
	<g id="Layer_12_2_" transform="matrix( 0.54534912109375, 0, 0, 0.54534912109375, 1409.8,640.15) ">
		<g transform="matrix( -1.686859130859375, 0, 0, 1.6790008544921875, 1013.7,-526.55) ">
			<g>
				<g>
					<path style="fill:#FFFFFF;" d="M2094.4-239.5c0-5.3-1.9-9.8-5.6-13.5c-3.7-3.7-8.2-5.6-13.5-5.6c-5.3,0-9.8,1.9-13.5,5.6
						c-3.7,3.7-5.6,8.2-5.6,13.5c0,5.3,1.9,9.8,5.6,13.5c3.7,3.7,8.2,5.6,13.5,5.6c5.3,0,9.8-1.9,13.5-5.6
						C2092.5-229.7,2094.4-234.2,2094.4-239.5z"/>
				</g>
			</g>
		</g>
	</g>
	<g id="Layer_11_2_" transform="matrix( 0.54534912109375, 0, 0, 0.54534912109375, 1409.8,640.15) ">
		<g transform="matrix( -1.3050994873046875, 0, 0, 1.4173583984375, 764.1,-423.9) ">
			<g>
				<g>
					<path style="fill:#2E130D;" d="M2507.8-352.9c0-5-1.8-9.2-5.3-12.7c-3.5-3.5-7.7-5.2-12.7-5.2c-5,0-9.2,1.7-12.7,5.2
						c-3.5,3.5-5.2,7.8-5.2,12.7c0,5,1.7,9.2,5.2,12.7c3.5,3.5,7.8,5.3,12.7,5.3c5,0,9.2-1.8,12.7-5.3
						C2506.1-343.7,2507.8-348,2507.8-352.9z"/>
				</g>
			</g>
		</g>
	</g>
	<g id="Layer_10_9_" transform="matrix( 0.54534912109375, 0, 0, 0.54534912109375, 1409.8,640.15) ">
		<g transform="matrix( 1.24346923828125, 0, 0, 1.24346923828125, 15.5,-13.6) ">
			<g>
				<g>
					<path style="fill:#FFFFFF;" d="M-1997.8-741.2c0-1.2-0.4-2.2-1.3-3.1c-0.8-0.8-1.9-1.3-3.1-1.3c-1.2,0-2.3,0.4-3.1,1.3
						c-0.8,0.8-1.3,1.9-1.3,3.1c0,1.2,0.4,2.3,1.3,3.1c0.8,0.8,1.9,1.3,3.1,1.3c1.2,0,2.3-0.4,3.1-1.3
						C-1998.2-739-1997.8-740-1997.8-741.2z"/>
				</g>
			</g>
		</g>
	</g>
	<g id="_______4_" transform="matrix( 0.54534912109375, 0, 0, 0.54534912109375, 1409.8,640.15) ">
		<g id="Layer_5_25_" transform="matrix( 1, 0, 0, 1, 71,77.5) ">
		</g>
		<g id="Layer_3_4_" transform="matrix( 1, 0, 0, 1, 71,77.5) ">
			<g>
				<g>
					<g>
						<path style="fill:#E5A790;" d="M-2449.4-974.1l-2.9,0.3h-0.4c-0.1,0-0.4,0-0.7,0l-1,0.1l-5.2-0.2l-0.6-0.1h-0.2l-0.2,0h-0.1
							l-0.2,0c-0.6-0.1-1.5-0.2-2.5-0.5l-0.5-0.1h-0.1l-0.1,0l-1.5-0.4l-0.1-0.1l-2.4-0.8l-0.2-0.1l-0.3-0.1l-1.5-0.7
							c-0.1-0.1-0.1-0.1-0.1,0v0.1l0.5,0.6l0.1,0l0,0.1l0.1,0.1l0.2,0.2l0.3,0.2l0.3,0.3l0.3,0.2c0,0,0.1,0.1,0.2,0.1l1.4,1l2.4,1.3
							l0.3,0.1c0.8,0.3,1.6,0.6,2.6,0.9l0.4,0.1l0.2,0.1l2.6,0.4h0.2l1.1,0.1h0.6l0.2,0h0.7c1.3,0,2.3-0.1,3-0.2l4.9-1l2.9-1
							l3.3-1.5l0.3-0.2l0.2-0.1l0.7-0.4l0-0.1l-0.1,0l-9.1,1.2H-2449.4z"/>
					</g>
				</g>
			</g>
		</g>
		<g id="Layer_1_15_" transform="matrix( 1, 0, 0, 1, 71,77.5) ">
			<g>
				<g>
					<g>
						<path style="fill:#270E0A;" d="M-2453.1-1039.7l-0.2,0l-2.6,0l-0.2,0h-0.2l-0.9,0.1h-0.1l-0.1,0h-0.2l-3.2,0.5
							c-1,0.2-2.2,0.5-3.5,0.8l-4.6,1.7l-0.1,0.1l-0.2,0.1l-1.5,0.8l-0.2,0.1l-2.6,1.6c-0.9,0.6-1.7,1.2-2.5,1.8l-1.6,1.4l-0.1,0.1
							l-0.1,0.1l-2.5,2.6l-3,3.9l-1.1,1.7c0,0.1-0.1,0.2-0.3,0.4l-0.6,1.2c-0.1,0.1-0.1,0.1,0,0.1c0,0,0,0,0.1,0l2.1-2.5
							c0.8-0.9,1.6-1.8,2.5-2.7l3.6-3.2c0.5-0.5,1.3-1,2.2-1.6l0.3-0.2l1.7-1.1l0.1-0.1l1.7-0.9l0.4-0.1l0.7-0.4l0.2-0.1l0.2-0.1
							l4.1-1.6l5.2-1.2c0.8-0.1,1.9-0.3,3.4-0.4l0.8,0l0.2,0l2.4,0l-0.1,0h0.1v0l1.7,0.1l0.4,0.1h0.2l1.1,0.1
							c1.5,0.2,2.6,0.4,3.3,0.6l0.2,0l1.8,0.5l0.2,0l4.2,1.4l0.1,0.1l1.8,0.8l0.1,0l0.8,0.4l0.2,0.1l0.2,0.1l2.3,1.3
							c1.7,1.1,3.2,2.2,4.6,3.3l3.5,3.2c0.8,0.8,1.6,1.7,2.5,2.7l2.1,2.5h0.1v-0.1l-1.3-2.2l-3.7-5.1l-0.1-0.1l-0.1-0.1l-3.3-3.3
							c0-0.1-0.1-0.2-0.3-0.2l-0.8-0.7l-0.3-0.2l-0.4-0.4l-1.4-1.1c-0.9-0.6-1.8-1.2-2.7-1.8l-0.7-0.4l-0.1,0l-0.1-0.1l-1.7-0.9
							l-0.2-0.1l-0.1-0.1l-0.1,0c-0.8-0.4-1.9-0.8-3.3-1.3l-3-0.9l-0.2,0l-0.2-0.1l-1.1-0.2l-5.2-0.8H-2453.1z"/>
					</g>
				</g>
			</g>
		</g>
		<g id="_4_" transform="matrix( 1, 0, 0, 1, 71,77.5) ">
			<g id="Layer_1_14_" transform="matrix( 1, 0, 0, 1, 4.15,-61.25) ">
				<g>
					<g>
						<g>
							<path style="fill:#431E16;" d="M-2447.5-1007.5l-3.2-2.2l-0.2-0.1l-3-1.5l-0.1-0.1l-0.1,0c-0.9-0.4-1.6-0.7-2-0.8l-1.1-0.4
								l-5.7-1c-0.8,0-1.6,0-2.4,0c-0.3,0-0.4,0-0.6,0l-2.9,0.3l-0.6,0.1l-0.3,0l-0.5,0.1l-0.3,0l-1.6,0.5c-0.8,0.3-1.5,0.5-2,0.7
								l-4.4,2.1l-5.5,4.1l-0.3,0.3l-0.3,0.2l-0.6,0.6v0.1h0.1l3.6-1.9l0.1-0.1l3.7-1.7l0.4-0.1l0.2-0.1l5.4-1.7l0.7-0.1l0.2-0.1
								l0.2,0l0.2-0.1l0.5-0.1l0.2-0.1l2-0.2c1.4-0.1,2.8-0.2,4.2-0.1l3.1,0.4l0.5,0.1h0.1l0.4,0.1l0.2,0l2.5,0.6l0.2,0.1l0.5,0.1
								l5.7,2.4l7.8,4.7c0,0,0.1,0,0.1,0v-0.1l-1.4-1.5L-2447.5-1007.5z"/>
						</g>
					</g>
				</g>
			</g>
		</g>
	</g>
	<g id="_______3_" transform="matrix( 0.54534912109375, 0, 0, 0.54534912109375, 1409.8,640.15) ">
		<g id="Layer_5_6_" transform="matrix( -1, 0, 0, 1, -76.85,77.5) ">
		</g>
		<g id="Layer_3_3_" transform="matrix( -1, 0, 0, 1, -76.85,77.5) ">
			<g>
				<g>
					<g>
						<path style="fill:#E5A790;" d="M2414.7-974.1l-2.9,0.3h-0.4c-0.1,0-0.4,0-0.7,0l-1,0.1l-5.2-0.2l-0.6-0.1h-0.2l-0.2,0h-0.1
							l-0.2,0c-0.6-0.1-1.5-0.2-2.5-0.5l-0.5-0.1h-0.1l-0.1,0l-1.5-0.4l-0.1-0.1l-2.4-0.8l-0.2-0.1l-0.3-0.1l-1.5-0.7
							c-0.1-0.1-0.1-0.1-0.1,0v0.1l0.5,0.6l0.1,0l0,0.1l0.1,0.1l0.2,0.2l0.3,0.2l0.3,0.3l0.3,0.2c0,0,0.1,0.1,0.2,0.1l1.4,1l2.4,1.3
							l0.3,0.1c0.8,0.3,1.6,0.6,2.6,0.9l0.4,0.1l0.2,0.1l2.6,0.4h0.2l1.1,0.1h0.6l0.2,0h0.7c1.3,0,2.3-0.1,3-0.2l4.9-1l2.9-1
							l3.3-1.5l0.3-0.2l0.2-0.1l0.7-0.4l0-0.1l-0.1,0l-9.1,1.2H2414.7z"/>
					</g>
				</g>
			</g>
		</g>
		<g id="Layer_1_13_" transform="matrix( -1, 0, 0, 1, -76.85,77.5) ">
			<g>
				<g>
					<g>
						<path style="fill:#270E0A;" d="M2410.9-1039.7l-0.2,0l-2.6,0l-0.2,0h-0.2l-0.9,0.1h-0.1l-0.1,0h-0.2l-3.2,0.5
							c-1,0.2-2.2,0.5-3.5,0.8l-4.6,1.7l-0.1,0.1l-0.2,0.1l-1.5,0.8l-0.2,0.1l-2.6,1.6c-0.9,0.6-1.7,1.2-2.5,1.8l-1.6,1.4l-0.1,0.1
							l-0.1,0.1l-2.5,2.6l-3,3.9l-1.1,1.7c0,0.1-0.1,0.2-0.3,0.4l-0.6,1.2c-0.1,0.1-0.1,0.1,0,0.1c0,0,0,0,0.1,0l2.1-2.5
							c0.8-0.9,1.6-1.8,2.5-2.7l3.6-3.2c0.5-0.5,1.3-1,2.2-1.6l0.3-0.2l1.7-1.1l0.1-0.1l1.7-0.9l0.4-0.1l0.7-0.4l0.2-0.1l0.2-0.1
							l4.1-1.6l5.2-1.2c0.8-0.1,1.9-0.3,3.4-0.4l0.8,0l0.2,0l2.4,0l-0.1,0h0.1v0l1.7,0.1l0.4,0.1h0.2l1.1,0.1
							c1.5,0.2,2.6,0.4,3.3,0.6l0.2,0l1.8,0.5l0.2,0l4.2,1.4l0.1,0.1l1.8,0.8l0.1,0l0.8,0.4l0.2,0.1l0.2,0.1l2.3,1.3
							c1.7,1.1,3.2,2.2,4.6,3.3l3.5,3.2c0.8,0.8,1.6,1.7,2.5,2.7l2.1,2.5h0.1v-0.1l-1.3-2.2l-3.7-5.1l-0.1-0.1l-0.1-0.1l-3.3-3.3
							c0-0.1-0.1-0.2-0.3-0.2l-0.8-0.7l-0.3-0.2l-0.4-0.4l-1.4-1.1c-0.9-0.6-1.8-1.2-2.7-1.8l-0.7-0.4l-0.1,0l-0.1-0.1l-1.7-0.9
							l-0.2-0.1l-0.1-0.1l-0.1,0c-0.8-0.4-1.9-0.8-3.3-1.3l-3-0.9l-0.2,0l-0.2-0.1l-1.1-0.2l-5.2-0.8H2410.9z"/>
					</g>
				</g>
			</g>
		</g>
		<g id="_3_" transform="matrix( -1, 0, 0, 1, -76.85,77.5) ">
			<g id="Layer_1_12_" transform="matrix( 1, 0, 0, 1, 4.15,-61.25) ">
				<g>
					<g>
						<g>
							<path style="fill:#431E16;" d="M2416.6-1007.5l-3.2-2.2l-0.2-0.1l-3-1.5l-0.1-0.1l-0.1,0c-0.9-0.4-1.6-0.7-2-0.8l-1.1-0.4
								l-5.7-1c-0.8,0-1.6,0-2.4,0c-0.3,0-0.4,0-0.6,0l-2.9,0.3l-0.6,0.1l-0.3,0l-0.5,0.1l-0.3,0l-1.6,0.5c-0.8,0.3-1.5,0.5-2,0.7
								l-4.4,2.1l-5.5,4.1l-0.3,0.3l-0.3,0.2l-0.6,0.6v0.1h0.1l3.6-1.9l0.1-0.1l3.7-1.7l0.4-0.1l0.2-0.1l5.4-1.7l0.7-0.1l0.2-0.1
								l0.2,0l0.2-0.1l0.5-0.1l0.2-0.1l2-0.2c1.4-0.1,2.8-0.2,4.2-0.1l3.1,0.4l0.5,0.1h0.1l0.4,0.1l0.2,0l2.5,0.6l0.2,0.1l0.5,0.1
								l5.7,2.4l7.8,4.7c0,0,0.1,0,0.1,0v-0.1l-1.4-1.5L2416.6-1007.5z"/>
						</g>
					</g>
				</g>
			</g>
		</g>
	</g>
	<g id="Layer_8_2_" transform="matrix( 0.54534912109375, 0, 0, 0.54534912109375, 1409.8,640.15) ">
		<g id="Layer_1_78_" transform="matrix( 1, 0, 0, 1, 2,-145.75) ">
			<g>
				<g>
					<g>
						<path style="fill:#571F14;" d="M-2510.3-969.5c-6.2-1.6-12.5-2.1-18.9-1.7c-12,0.6-22.4,5.1-31.1,13.3
							c-9.6,9.1-14.1,20.3-13.3,33.6c0.5,5.7,2,11,4.4,16c0.3,0.6,0.6,1.3,1,1.9c3.6,6.6,8.3,12,14.2,16.2c2.2,1.6,4.3,2.7,6.4,3.4
							c6.1,2,11.7,0.2,16.8-5.5c4.5,2.8,9.5,4.6,14.8,5.1c9,0.8,17.1-1.7,24.1-7.2c8.4-6.6,13-15.3,13.7-26.1
							c1.4,3.7,3.4,6.9,6.2,9.6c8.1,8.1,18.1,11.9,29.7,11.4c9.6-0.4,17.9-3.8,24.9-10.4c5.3,5.3,11.6,8,19.2,8.1
							c12.2,0.5,22.2-3.7,30-12.7c1.3,9.2,5.7,16.4,13.3,21.6c8.2,5.7,17,8.3,26.3,7.7c3.1-0.2,6.2-0.7,9.4-1.5
							c7.9-2,14.3-6.3,19.1-12.9c0.2-0.3,0.5-0.6,0.7-1c4.4-6.3,6.4-13.4,6.1-21.2c-0.6-14.5-7.1-25.7-19.5-33.4
							c-11.1-6.9-22.1-7.4-33-1.3c-0.2-2.3-0.7-4.7-1.4-7c-2-6.8-5.9-12.4-11.4-16.9c-10.5-8.5-21.6-9.4-33.2-2.7
							c-1.2-6.6-3.8-12.6-7.8-18c-6.1-8.4-13.8-14.8-23.2-19.4c-1.6-0.8-3.3-1.6-5-2.2c-6.5-2.6-13.3-4.1-20.4-4.5
							c-9-0.3-17.4,1.2-25.3,4.5c-4.6,1.9-9,4.4-13.1,7.6C-2501.7-1003.6-2509.6-988.4-2510.3-969.5z"/>
					</g>
				</g>
			</g>
		</g>
	</g>
</g>
</svg>
