<svg xmlns="http://www.w3.org/2000/svg" viewBox="0 0 83.27 79.96"><defs><style>.cls-1{fill:#fff;}.cls-2{fill:#47d7ac;}.cls-3{fill:#83e8d3;}.cls-4{fill:#1cb594;}</style></defs><g id="레이어_2" data-name="레이어 2"><g id="레이어_1-2" data-name="레이어 1"><path class="cls-1" d="M81.28,35.65a37.11,37.11,0,0,0-2.39-6.37c-.43-.87-.89-1.73-1.37-2.59-.15-.27-.31-.53-.47-.8s-.28-.46-.42-.7a38,38,0,0,0-21-16.25A70.74,70.74,0,0,0,47.15,7c-.66-.12-1.33-.21-2-.27-1.46-.15-2.93-.24-4.41-.25H40A48.5,48.5,0,0,0,22.5,10q-18.06,7.73-19,30.22a25.82,25.82,0,0,1-1,6.83A26,26,0,0,0,1,58.15a16.05,16.05,0,0,0,2,6.08A17.77,17.77,0,0,0,7.87,69.7a21.19,21.19,0,0,0,2.26,1.52c.7.45,1.41.88,2.14,1.27A49.94,49.94,0,0,0,30.5,78.34l1.37.15a61,61,0,0,0,8.11.6h.77c1.21,0,2.42,0,3.61-.12q2.56-.15,5-.45l.6-.1a42.07,42.07,0,0,0,16.7-5.73,32,32,0,0,0,9.16-8.56A37.07,37.07,0,0,0,80.21,56a33,33,0,0,0,1.07-20.31"/><path class="cls-2" d="M40.75,80H40a63.05,63.05,0,0,1-8.24-.6l-1.34-.15a50.87,50.87,0,0,1-18.55-6c-.74-.4-1.48-.84-2.19-1.29A24.07,24.07,0,0,1,7.34,70.4,18.89,18.89,0,0,1,2.2,64.65,17.11,17.11,0,0,1,.13,58.26,27.08,27.08,0,0,1,1.61,46.81a24.36,24.36,0,0,0,1-6.58c.66-15.31,7.25-25.73,19.57-31A49.52,49.52,0,0,1,40,5.63h.78c1.51,0,3,.1,4.5.25.68.07,1.37.16,2,.28A72.44,72.44,0,0,1,55.86,8.1a39.08,39.08,0,0,1,21.5,16.62c.16.25.31.49.45.74s.32.52.47.8c.49.87,1,1.75,1.39,2.63a37.62,37.62,0,0,1,2.45,6.53A34,34,0,0,1,81,56.26a38.71,38.71,0,0,1-4.52,8.38,33.15,33.15,0,0,1-9.41,8.79,43.09,43.09,0,0,1-17,5.85l-.58.1c-1.66.2-3.35.36-5.07.46-1.19.08-2.43.12-3.66.12M40,7.37a47.76,47.76,0,0,0-17.15,3.47C11.19,15.81,5,25.72,4.33,40.29a26.23,26.23,0,0,1-1.06,7v0a25.4,25.4,0,0,0-1.41,10.7A15.32,15.32,0,0,0,3.72,63.8,17.17,17.17,0,0,0,8.39,69a22.51,22.51,0,0,0,2.19,1.46c.7.46,1.4.87,2.11,1.26A49.34,49.34,0,0,0,30.6,77.48l1.36.15a62,62,0,0,0,8,.59h.76c1.19,0,2.38,0,3.55-.12,1.69-.1,3.35-.25,4.93-.45l.57-.09A41.67,41.67,0,0,0,66.18,72a31.36,31.36,0,0,0,8.92-8.33,36.82,36.82,0,0,0,4.3-8,32.26,32.26,0,0,0,1-19.76,36.58,36.58,0,0,0-2.33-6.23c-.42-.83-.88-1.69-1.35-2.54-.14-.25-.29-.5-.45-.76s-.28-.47-.42-.69A37.37,37.37,0,0,0,55.35,9.77,70.25,70.25,0,0,0,47,7.88c-.65-.11-1.3-.2-1.94-.27-1.43-.14-2.88-.22-4.33-.24ZM2.44,47.08Z"/><path d="M1.47,61.22a.63.63,0,0,1,0-1.25,7.31,7.31,0,0,0,4.2-1.28,3.75,3.75,0,0,0,1.61-2A.62.62,0,0,1,8,56.23a.64.64,0,0,1,.44.77,4.94,4.94,0,0,1-2.09,2.71,8.6,8.6,0,0,1-4.9,1.51h0"/><path class="cls-3" d="M80.21,56a38.71,38.71,0,0,0,1.62-5.87A31.76,31.76,0,0,0,81.36,36a42.53,42.53,0,0,1-15.94-3.91c-.2-.08-.4-.16-.59-.22a26.73,26.73,0,0,0-7.72-1.5Q50,30.1,43.34,35.72l-1.62,1.47a38.8,38.8,0,0,0-4.6,5.21q-2.59,3.41-1.3,9.06c.17.6.35,1.18.55,1.74a46.56,46.56,0,0,0,5.75,11.33A30.41,30.41,0,0,0,46.8,69.8a38.67,38.67,0,0,0,4.56,3.54,24.4,24.4,0,0,0,7.44,3,38,38,0,0,0,7.84-3.69,39,39,0,0,0,3.51-2.51,32.48,32.48,0,0,0,5.65-6.05A37.07,37.07,0,0,0,80.21,56"/><path class="cls-2" d="M58.8,77.25a.87.87,0,0,1-.28-1.7A37,37,0,0,0,66.18,72a36.68,36.68,0,0,0,3.43-2.45,32,32,0,0,0,5.49-5.88,36.82,36.82,0,0,0,4.3-8A36.3,36.3,0,0,0,81,49.93a31,31,0,0,0-.46-13.71.88.88,0,0,1,.63-1.07.87.87,0,0,1,1.06.63,32.87,32.87,0,0,1,.49,14.47,39.4,39.4,0,0,1-1.66,6,38.71,38.71,0,0,1-4.52,8.38,33.89,33.89,0,0,1-5.8,6.21,40.49,40.49,0,0,1-3.6,2.58,38.75,38.75,0,0,1-8,3.77.92.92,0,0,1-.28,0"/><path class="cls-2" d="M58.8,77l-.15,0A24.93,24.93,0,0,1,51,73.86a41.09,41.09,0,0,1-4.64-3.59,31.18,31.18,0,0,1-4.77-5.39A47.82,47.82,0,0,1,35.78,53.4c-.2-.57-.39-1.17-.56-1.78-.9-4-.43-7.18,1.4-9.6a39.85,39.85,0,0,1,4.67-5.28l1.63-1.48c4.57-3.85,9.34-5.7,14.21-5.51A27.16,27.16,0,0,1,65,31.28c.22.07.43.15.64.24a42.42,42.42,0,0,0,15.71,3.86.62.62,0,1,1,0,1.24,43.35,43.35,0,0,1-16.17-4l-.54-.2A26.17,26.17,0,0,0,57.09,31c-4.56-.18-9,1.58-13.35,5.21l-1.6,1.45a38.81,38.81,0,0,0-4.52,5.11c-1.61,2.12-2,5-1.19,8.56.15.55.33,1.12.53,1.67a46.31,46.31,0,0,0,5.68,11.19,29.89,29.89,0,0,0,4.58,5.17,39.19,39.19,0,0,0,4.48,3.47,23.77,23.77,0,0,0,7.25,3A.62.62,0,0,1,58.8,77"/><path class="cls-4" d="M80.21,56.25a1,1,0,0,0,.74-.53,1.22,1.22,0,0,0,.11-.94,1.13,1.13,0,0,0-.55-.69,1.28,1.28,0,0,0-.92-.15,1.22,1.22,0,0,0-.71.59,1.09,1.09,0,0,0-.13.87,1.17,1.17,0,0,0,.57.76,1,1,0,0,0,.89.09"/><path class="cls-4" d="M78,60a1,1,0,0,0,.74-.52,1.22,1.22,0,0,0,.11-.94,1.08,1.08,0,0,0-.55-.69,1.11,1.11,0,0,0-1.63.43,1.11,1.11,0,0,0-.13.88,1.2,1.2,0,0,0,.57.76A1,1,0,0,0,78,60"/><path class="cls-4" d="M75.83,63.82a1,1,0,0,0,.74-.53,1.22,1.22,0,0,0,.11-.94,1.13,1.13,0,0,0-.55-.69,1.24,1.24,0,0,0-.92-.15,1.22,1.22,0,0,0-.71.59,1.09,1.09,0,0,0-.13.87,1.22,1.22,0,0,0,.56.76,1,1,0,0,0,.9.09"/><path class="cls-4" d="M72.54,59.75a1.07,1.07,0,0,0,.82.37,1.23,1.23,0,0,0,.87-.37,1.12,1.12,0,0,0,.33-.83,1.28,1.28,0,0,0-.33-.87,1.32,1.32,0,0,0-.87-.32,1.14,1.14,0,0,0-.82.32,1.19,1.19,0,0,0-.37.87,1,1,0,0,0,.37.83"/><path class="cls-4" d="M74.41,54.82a1,1,0,0,0,.09.9,1.18,1.18,0,0,0,1.63.44,1.12,1.12,0,0,0,.44-1.63,1.09,1.09,0,0,0-.7-.55,1.14,1.14,0,0,0-.94.11,1,1,0,0,0-.52.73"/><path class="cls-2" d="M70.15,71a.86.86,0,0,1-.67-.32.87.87,0,0,1,.12-1.23,31.59,31.59,0,0,0,5.49-5.87,36.65,36.65,0,0,0,4.31-8A35.71,35.71,0,0,0,81,49.93a.87.87,0,1,1,1.72.32,37.69,37.69,0,0,1-1.66,6,38.78,38.78,0,0,1-4.53,8.38,33.44,33.44,0,0,1-5.79,6.2.89.89,0,0,1-.56.2"/><path class="cls-1" d="M56.24,11.87a14.11,14.11,0,0,0-.48-7.69c-1.22-2.89-3.12-3.88-5.67-3a6.5,6.5,0,0,0-1.37.62,25.23,25.23,0,0,0-8.27,9c-.1.2-.21.4-.32.6l-.05.1-.27.5-.3.6c-.22.43-.44.87-.65,1.32.4.33.81.66,1.22,1s.59.44.9.64l.4.25.09.08a25.81,25.81,0,0,0,8.27,3.46l.1,0,.2.05c.94.2,1.92.36,2.91.48.39-.63.75-1.26,1.07-1.9l.1-.2.1-.19a23,23,0,0,0,2-5.76"/><path class="cls-2" d="M54,18.9a.85.85,0,0,1-.38-.09.88.88,0,0,1-.4-1.17l.2-.4a22,22,0,0,0,1.93-5.54,13.19,13.19,0,0,0-.44-7.22c-1.33-3.13-3.14-3-4.56-2.46a5.42,5.42,0,0,0-1.22.55,24.38,24.38,0,0,0-7.94,8.72l-.31.56-.06.11-.25.48A.87.87,0,1,1,39,11.66l.28-.53,0,0,0-.06c.11-.21.23-.41.34-.61a26.06,26.06,0,0,1,8.55-9.34A7.4,7.4,0,0,1,49.83.36c2.07-.72,5-.72,6.74,3.48a15.06,15.06,0,0,1,.52,8.21A23.65,23.65,0,0,1,55,18l-.19.4a.87.87,0,0,1-.79.49"/><path class="cls-2" d="M3,65.1a.88.88,0,0,1-.76-.44A16.67,16.67,0,0,1,.63,60.82a16.11,16.11,0,0,1-.5-2.56.87.87,0,0,1,.76-1,.86.86,0,0,1,1,.76,16.57,16.57,0,0,0,.45,2.31A15,15,0,0,0,3.72,63.8.87.87,0,0,1,3.39,65,.92.92,0,0,1,3,65.1"/><path d="M12,45a8.53,8.53,0,0,0,1,4.16c.61,1.18,1.36,1.76,2.24,1.76s1.63-.58,2.24-1.76A8.53,8.53,0,0,0,18.4,45a8.63,8.63,0,0,0-.95-4.18c-.61-1.15-1.36-1.72-2.24-1.72s-1.63.57-2.24,1.72A8.63,8.63,0,0,0,12,45"/><path class="cls-3" d="M20.81,29.4a1.77,1.77,0,0,0-1.27-.3l-6.67,1.17a1.59,1.59,0,0,0-1,.72,1.76,1.76,0,0,0-.3,1.35,1.54,1.54,0,0,0,.72,1.12,1.59,1.59,0,0,0,1.29.35l.05,0,6.6-1.17.12,0a1.77,1.77,0,0,0,1-.72,1.65,1.65,0,0,0,.27-1.3,1.78,1.78,0,0,0-.72-1.17"/><path class="cls-2" d="M13.26,34.45A2.22,2.22,0,0,1,11.89,34a2.19,2.19,0,0,1-1-1.53,2.42,2.42,0,0,1,.39-1.79,2.27,2.27,0,0,1,1.44-1l6.7-1.17a2.35,2.35,0,0,1,1.73.4,2.44,2.44,0,0,1,1,1.57,2.44,2.44,0,0,1-1.62,2.71.6.6,0,0,1-.27.06l-6.47,1.15-.14,0-.39,0m.33-.05Zm0,0h0Zm.38-.15Zm5.84-4.55-.19,0L13,30.89a1,1,0,0,0-.63.44,1.17,1.17,0,0,0-.21.9.91.91,0,0,0,.44.7l.05,0a1,1,0,0,0,.72.24l.16,0L20.08,32h.05a1.13,1.13,0,0,0,.62-.47,1.08,1.08,0,0,0,.17-.84,1.18,1.18,0,0,0-.48-.78A1.07,1.07,0,0,0,19.82,29.7ZM20,32Z"/></g></g></svg>