<svg xmlns="http://www.w3.org/2000/svg" viewBox="0 0 80.73 80.01"><defs><style>.cls-1{fill:#fff;}.cls-2{fill:#47d7ac;}.cls-3{fill:#83e8d3;}</style></defs><g id="레이어_2" data-name="레이어 2"><g id="레이어_1-2" data-name="레이어 1"><path class="cls-1" d="M18.89,1.82a7.64,7.64,0,0,0-1.37-.65q-3.84-1.32-5.68,3a14,14,0,0,0-.47,7.66,24.27,24.27,0,0,0,3.29,8.07,25.92,25.92,0,0,0,14.09-6Q24.82,5.53,18.89,1.82"/><path class="cls-2" d="M14.66,20.79a.86.86,0,0,1-.74-.41A25.25,25.25,0,0,1,10.52,12,14.91,14.91,0,0,1,11,3.89C12.82-.35,15.7-.37,17.81.36a8.49,8.49,0,0,1,1.52.71c4.1,2.56,7.53,6.78,10.21,12.53a.87.87,0,0,1-.23,1,26.79,26.79,0,0,1-14.55,6.15h-.1m1.16-19c-1.1,0-2.25.6-3.17,2.79a13.13,13.13,0,0,0-.42,7.16A23.05,23.05,0,0,0,15.11,19a25.17,25.17,0,0,0,12.56-5.25c-2.49-5.13-5.6-8.89-9.24-11.17A5.58,5.58,0,0,0,17.25,2,4.28,4.28,0,0,0,15.82,1.74Z"/><path class="cls-1" d="M68.78,11.93a14.11,14.11,0,0,0-.47-7.69q-1.84-4.33-5.68-3a6.5,6.5,0,0,0-1.37.62Q55.34,5.57,51.4,14A25.92,25.92,0,0,0,65.49,20a24.17,24.17,0,0,0,3.29-8"/><path class="cls-2" d="M65.49,20.84h-.1a26.82,26.82,0,0,1-14.55-6.15.87.87,0,0,1-.23-1C53.3,7.9,56.72,3.68,60.8,1.13A7.32,7.32,0,0,1,62.37.42c2.07-.73,4.95-.73,6.74,3.47a15.06,15.06,0,0,1,.52,8.21,25.16,25.16,0,0,1-3.4,8.33.86.86,0,0,1-.74.41m-13-7.06A25.17,25.17,0,0,0,65,19a23.14,23.14,0,0,0,2.88-7.27,13.31,13.31,0,0,0-.43-7.23c-1.34-3.13-3.15-3-4.57-2.46a5.91,5.91,0,0,0-1.22.55C58.08,4.89,55,8.65,52.48,13.78Z"/><path class="cls-1" d="M73.51,24.15A29.07,29.07,0,0,0,58.22,10.09,48.21,48.21,0,0,0,40.75,6.55H40A48.27,48.27,0,0,0,22.5,10.09,29.05,29.05,0,0,0,6.39,25.94,42,42,0,0,0,3.46,40.31a25.32,25.32,0,0,1-1,6.82Q-2.44,62,7.86,69.76a23,23,0,0,0,2.27,1.52l.1.07q1,.63,2,1.2A49.89,49.89,0,0,0,30.49,78.4l1.37.15a59.47,59.47,0,0,0,8.12.59h.77a59.44,59.44,0,0,0,8.11-.59l1.37-.15a52.43,52.43,0,0,0,8.07-1.65,48.66,48.66,0,0,0,10.16-4.2c.73-.4,1.44-.83,2.14-1.27a24,24,0,0,0,2.26-1.52Q83.17,62,78.29,47.13a25,25,0,0,1-1-6.82,40.1,40.1,0,0,0-3.76-16.16"/><path class="cls-2" d="M40,80a61.12,61.12,0,0,1-8.24-.6l-1.35-.15a51,51,0,0,1-18.55-6c-.69-.38-1.39-.79-2.07-1.22L9.65,72a24.07,24.07,0,0,1-2.32-1.56C.17,65-1.76,57.1,1.6,46.86a24.28,24.28,0,0,0,1-6.57,42.89,42.89,0,0,1,3-14.68A29.93,29.93,0,0,1,22.16,9.28,49.48,49.48,0,0,1,40,5.68h.78a49.25,49.25,0,0,1,17.79,3.6A30.05,30.05,0,0,1,74.29,23.76a41.21,41.21,0,0,1,3.85,16.51,24.39,24.39,0,0,0,1,6.6C82.48,57.09,80.56,65,73.39,70.45A24.66,24.66,0,0,1,71,72c-.69.44-1.42.88-2.17,1.28a49.33,49.33,0,0,1-10.33,4.28,52.93,52.93,0,0,1-8.2,1.67L49,79.41a60.56,60.56,0,0,1-8.21.6H40M40,7.42A47.61,47.61,0,0,0,22.82,10.9,28.23,28.23,0,0,0,7.21,26.28,41,41,0,0,0,4.33,40.35a26.7,26.7,0,0,1-1.06,7h0C.11,57,1.79,64.07,8.39,69.06a24.35,24.35,0,0,0,2.18,1.47l.17.11c.61.39,1.28.78,1.95,1.14A49.08,49.08,0,0,0,30.6,77.53l1.35.15a58.63,58.63,0,0,0,8,.59h.77a57.82,57.82,0,0,0,8-.59l1.4-.15a52.41,52.41,0,0,0,7.92-1.61,48,48,0,0,0,10-4.14c.72-.38,1.42-.8,2.1-1.24a22.72,22.72,0,0,0,2.2-1.47c6.61-5,8.28-12.08,5.13-21.67a26.46,26.46,0,0,1-1.06-7.07,39.6,39.6,0,0,0-3.67-15.79A28.38,28.38,0,0,0,57.88,10.89,47.62,47.62,0,0,0,40.74,7.42ZM2.43,47.13h0Z"/><path class="cls-3" d="M69.58,51.51q.24.9.54,1.74a47,47,0,0,0,6.65,12.6q5.28-7.24,1.52-18.72a25,25,0,0,1-1-6.82c-.07-1.51-.19-3-.38-4.38a41.85,41.85,0,0,0-6,6.52q-2.59,3.4-1.29,9.06"/><path class="cls-3" d="M76.77,66.47a.63.63,0,0,1-.5-.25,48,48,0,0,1-6.74-12.77c-.2-.57-.39-1.17-.55-1.77-.91-4-.44-7.19,1.39-9.61a43,43,0,0,1,6.11-6.61.63.63,0,0,1,.88,0,.62.62,0,0,1,0,.88,41.22,41.22,0,0,0-5.94,6.43c-1.61,2.11-2,5-1.19,8.55.16.55.34,1.13.53,1.68a46.73,46.73,0,0,0,6.56,12.43.62.62,0,0,1-.13.87.63.63,0,0,1-.37.12"/><path class="cls-2" d="M76.77,66.72a.8.8,0,0,1-.51-.17.86.86,0,0,1-.19-1.21c3.32-4.57,3.79-10.61,1.39-17.94a26.46,26.46,0,0,1-1.06-7.07c-.07-1.46-.19-2.91-.37-4.29a.87.87,0,0,1,1.73-.23c.18,1.43.31,2.93.38,4.46a24.39,24.39,0,0,0,1,6.6c2.58,7.88,2,14.45-1.65,19.49a.85.85,0,0,1-.7.36"/><path class="cls-3" d="M3.83,35.9c-.18,1.41-.31,2.88-.37,4.41a25.32,25.32,0,0,1-1,6.82Q-1.35,58.61,4,65.87a47.53,47.53,0,0,0,6.65-12.62c.19-.56.38-1.14.54-1.74.87-3.77.43-6.79-1.29-9.06A42.18,42.18,0,0,0,3.83,35.9"/><path class="cls-3" d="M4,66.5a.63.63,0,0,1-.51-1A47.23,47.23,0,0,0,10,53.05c.19-.55.37-1.13.53-1.71.81-3.53.41-6.41-1.19-8.51a41,41,0,0,0-6-6.46.63.63,0,0,1-.06-.88.62.62,0,0,1,.88-.05,42.46,42.46,0,0,1,6.14,6.64c1.83,2.41,2.3,5.63,1.4,9.57-.18.63-.36,1.23-.57,1.81A48,48,0,0,1,4.48,66.24a.61.61,0,0,1-.5.26"/><path class="cls-2" d="M4,66.75a.87.87,0,0,1-.7-.36C-.44,61.33-1,54.75,1.61,46.86a24.64,24.64,0,0,0,1-6.57c.07-1.56.2-3.07.39-4.5A.87.87,0,0,1,4.69,36c-.18,1.38-.3,2.84-.36,4.34a26.7,26.7,0,0,1-1.06,7c-2.43,7.34-1.95,13.39,1.41,18A.88.88,0,0,1,4,66.75"/><path d="M30.12,49.22A8.75,8.75,0,0,0,31,45.06a8.89,8.89,0,0,0-.92-4.18c-.62-1.14-1.36-1.72-2.24-1.72s-1.63.58-2.24,1.72a8.66,8.66,0,0,0-.95,4.18,8.53,8.53,0,0,0,.95,4.16C26.25,50.4,27,51,27.88,51s1.62-.59,2.24-1.77"/><path class="cls-3" d="M29.5,33.84l.05,0a1.56,1.56,0,0,0,1.29-.35,1.54,1.54,0,0,0,.72-1.12,1.78,1.78,0,0,0-.3-1.34,1.58,1.58,0,0,0-1-.72l-6.67-1.18a1.77,1.77,0,0,0-1.27.3,1.84,1.84,0,0,0-.73,1.17,1.68,1.68,0,0,0,.28,1.3,1.78,1.78,0,0,0,.94.72l.13,0,6.6,1.17"/><path class="cls-2" d="M29.83,34.51a1.72,1.72,0,0,1-.39,0l-.14,0-6.47-1.14a.77.77,0,0,1-.27-.07,2.38,2.38,0,0,1-1.25-.95,2.33,2.33,0,0,1-.37-1.75,2.38,2.38,0,0,1,1-1.56,2.34,2.34,0,0,1,1.73-.42l6.69,1.17a2.25,2.25,0,0,1,1.46,1,2.37,2.37,0,0,1,.39,1.79,2.15,2.15,0,0,1-1,1.52,2.25,2.25,0,0,1-1.37.49m-.34,0h0Zm0,0Zm-.38-.16Zm.63-1a1,1,0,0,0,.71-.24l.06,0a.93.93,0,0,0,.44-.69,1.19,1.19,0,0,0-.21-.9,1,1,0,0,0-.66-.46l-6.64-1.16a1.13,1.13,0,0,0-.81.19,1.17,1.17,0,0,0-.46.77,1,1,0,0,0,.17.83,1.17,1.17,0,0,0,.62.49H23l6.57,1.17Zm-6.69-1.18h0Z"/><path d="M49.66,45.06a8.53,8.53,0,0,0,1,4.16C51.22,50.4,52,51,52.85,51s1.62-.59,2.24-1.77A8.53,8.53,0,0,0,56,45.06a8.66,8.66,0,0,0-.94-4.18c-.62-1.14-1.36-1.72-2.24-1.72s-1.63.58-2.24,1.72a8.66,8.66,0,0,0-1,4.18"/><path class="cls-3" d="M58.45,29.45a1.78,1.78,0,0,0-1.27-.3l-6.67,1.18a1.6,1.6,0,0,0-1,.72,1.82,1.82,0,0,0-.3,1.34,1.86,1.86,0,0,0,2,1.47l0,0,6.6-1.17.12,0a1.8,1.8,0,0,0,.95-.72,1.72,1.72,0,0,0,.27-1.3,1.78,1.78,0,0,0-.72-1.17"/><path class="cls-2" d="M50.9,34.51A2.26,2.26,0,0,1,49.52,34a2.18,2.18,0,0,1-1-1.53,2.4,2.4,0,0,1,.39-1.78,2.21,2.21,0,0,1,1.43-1l6.7-1.18a2.38,2.38,0,0,1,1.73.4,2.42,2.42,0,0,1,1,1.58,2.28,2.28,0,0,1-.37,1.75,2.35,2.35,0,0,1-1.24.95.89.89,0,0,1-.28.07l-6.47,1.14-.13,0a1.72,1.72,0,0,1-.39,0m.33,0Zm.39-.16h0Zm5.84-4.54h-.19l-6.66,1.17a1,1,0,0,0-.63.45,1.22,1.22,0,0,0-.21.89,1,1,0,0,0,.44.7l.06,0a1,1,0,0,0,.71.24l.16,0,6.58-1.17h.05a1.22,1.22,0,0,0,.61-.48,1.07,1.07,0,0,0,.18-.84,1.18,1.18,0,0,0-.49-.78A1,1,0,0,0,57.46,29.76Zm.21,2.32h0Z"/><path d="M40.37,61.27a8.82,8.82,0,0,1-5.16-1.51,5,5,0,0,1-2.06-2.71.62.62,0,0,1,1.2-.33,3.78,3.78,0,0,0,1.58,2A7.58,7.58,0,0,0,40.37,60a7.45,7.45,0,0,0,4.42-1.28,3.75,3.75,0,0,0,1.61-2,.62.62,0,0,1,1.2.33,4.94,4.94,0,0,1-2.09,2.71,8.7,8.7,0,0,1-5.14,1.51"/></g></g></svg>