<svg xmlns="http://www.w3.org/2000/svg" viewBox="0 0 220 183.29"><defs><style>.cls-1{fill:#83e8d3;}.cls-2{fill:#47d7ac;}.cls-3{fill:#fff;}.cls-4{fill:none;stroke:#000;stroke-linecap:round;stroke-linejoin:round;stroke-width:3px;}.cls-5{fill:#1cb594;}</style></defs><g id="레이어_2" data-name="레이어 2"><g id="레이어_1-2" data-name="레이어 1"><path class="cls-1" d="M31.05,130.91c-3.29,4.48-1.19,9.42,5,16.73A46.38,46.38,0,0,0,68.5,163.91c15.61,1.13,21-.66,27-5.54S89,135.9,89,135.9s-29.5-4.09-39-5.22S34.29,126.5,31.05,130.91Z"/><path class="cls-1" d="M152.25,107s6.74-3.44,4.84-14.75-8.83-28-21.21-19.42-4.34,22.65,0,29.13S152.25,107,152.25,107Z"/><path class="cls-2" d="M152.25,108.48a1.5,1.5,0,0,1-1-.38,1.47,1.47,0,0,1-.09-2.08l.57-.62c2.42-2.62,3.88-4.2,4.21-9.89.36-6.21-6.06-18.65-6.13-18.77a1.47,1.47,0,0,1,2.61-1.36c.28.54,6.86,13.29,6.45,20.3-.39,6.74-2.42,8.93-5,11.71l-.56.61A1.47,1.47,0,0,1,152.25,108.48Z"/><path class="cls-1" d="M91.24,161.41c1.84,1.55,6.67,11.08,21.61,16.54,13.78,5,25,5.07,27.55,3.86,2.78-1.34,3.4-3.83,3.82-9.5s.85-19.12,6.52-32.3,10.78-19.61,12.07-21.41c1.42-2,7.68-9.16,7.76-9.47.31-1.09-5.08-1-8.89-1.59a28.56,28.56,0,0,1-10.8-4.64L134.8,95.59,84.43,128.93s-.65,14.57,1.31,19.83,5.5,12.65,5.5,12.65"/><path class="cls-3" d="M62.26,21.08a24.22,24.22,0,0,1-.39-13.26q2.48-7.71,9.26-6a11.14,11.14,0,0,1,2.44.85Q82.23,7,89.11,16.86l.69,1,.1.17.5.81c.23.32.45.65.65,1q.66,1.06,1.32,2.16c-.63.64-1.28,1.25-1.94,1.86L89,25.05c-.21.16-.42.34-.64.53l-.16.1A44.71,44.71,0,0,1,74.57,32.9L74.4,33l-.33.12q-2.38.73-4.92,1.26c-.78-1-1.5-2-2.17-3.07L66.77,31l-.19-.33a38.7,38.7,0,0,1-4.32-9.54"/><path class="cls-2" d="M91.16,20.1a1.49,1.49,0,0,1-2-.51l-1.24-1.86C83.46,11.4,78.42,6.79,72.9,4a9.56,9.56,0,0,0-2.08-.72c-2.58-.65-5.71-.65-7.52,5a22.85,22.85,0,0,0,.4,12.37,37.64,37.64,0,0,0,4.15,9.19l.14.23a2.19,2.19,0,0,1,.4.71,1.5,1.5,0,0,1-2.78,1.12l-.11-.16-.2-.33a40.22,40.22,0,0,1-4.48-9.91,25.82,25.82,0,0,1-.4-14c2.43-7.56,7.36-8,11.07-7.09a13.06,13.06,0,0,1,2.72,1c6,3,11.42,8,16.13,14.7L91,17l0,.07.61,1a1.51,1.51,0,0,1-.49,2.07l0,0"/><path class="cls-3" d="M9.63,77.3c.09-.71.18-1.42.3-2.12A63.88,63.88,0,0,1,29.5,37.86a112.87,112.87,0,0,1,11.6-9.35q1.42-1,2.85-1.92c2.17-1.37,4.38-2.64,6.61-3.78l.42-.15a1.42,1.42,0,0,1,.4-.24l.4-.18a84.08,84.08,0,0,1,29.64-8Q104,12.77,119.72,27a3.57,3.57,0,0,1,.51.45c1,.85,1.93,1.78,2.88,2.78a5.82,5.82,0,0,1,.46.53l.12.12a74.54,74.54,0,0,1,10.2,14,43.06,43.06,0,0,0,6.82,9.41,45.78,45.78,0,0,1,9.17,11.9,28.28,28.28,0,0,1,1.36,3,2.09,2.09,0,0,1,.2.52,10.44,10.44,0,0,1,.77,2.33,26.41,26.41,0,0,1,1,6c0,.76,0,1.51-.06,2.27l0,.46A28.9,28.9,0,0,1,150,92.12a43.54,43.54,0,0,1-2.21,4c-.7,1.17-1.46,2.36-2.27,3.57a85.92,85.92,0,0,1-23.33,22.79l-1.91,1.32a112.91,112.91,0,0,1-12,7.24c-.4.17-.8.36-1.21.57q-2.77,1.37-5.64,2.66c-2.73,1.17-5.38,2.23-8,3.19-.34.1-.68.22-1,.36a89.85,89.85,0,0,1-16.51,4l-.32,0a69.08,69.08,0,0,1-13.42.42c-.73-.06-1.47-.14-2.22-.23a57.16,57.16,0,0,1-18.67-5.48A63.21,63.21,0,0,1,28,127.75a60.21,60.21,0,0,1-11.46-13.84,53.45,53.45,0,0,1-6.11-16A62.16,62.16,0,0,1,9.19,86.45c0-.92,0-1.83,0-2.73l.09-2.23c.05-.53.1-1.06.16-1.59a6.71,6.71,0,0,1,.1-1.35,6.93,6.93,0,0,0,.1-1.25"/><path class="cls-2" d="M114,129.59c-1.66,1-3.35,1.91-5,2.81l-.12,0c-.36.16-.73.33-1.11.52-1.85.92-3.77,1.83-5.7,2.69-2.77,1.19-5.47,2.27-8.06,3.23l-.1,0c-.29.09-.59.19-.89.31a92.06,92.06,0,0,1-16.86,4.13h-.22l-.13,0a70.38,70.38,0,0,1-13.7.43c-.78-.07-1.54-.14-2.3-.24A58.86,58.86,0,0,1,40.6,138a65.39,65.39,0,0,1-13.54-9.09A62.1,62.1,0,0,1,15.3,114.67,55.07,55.07,0,0,1,9,98.22a62.54,62.54,0,0,1-1.3-11.75c0-.94,0-1.86,0-2.76l.09-2.28v-.1l.16-1.5a8.62,8.62,0,0,1,.12-1.53,7.19,7.19,0,0,0,.08-1v-.18c.09-.73.19-1.47.31-2.19a65.56,65.56,0,0,1,20-38.16,114.43,114.43,0,0,1,11.76-9.49c1-.7,1.95-1.36,2.92-2,2.2-1.39,4.46-2.69,6.73-3.85a1.3,1.3,0,0,1,.46-.2A3.11,3.11,0,0,1,50.9,21l.23-.11A85.74,85.74,0,0,1,81.3,12.77c15.37-1,28.61,3.36,39.38,13a5.51,5.51,0,0,1,.59.51c1,.88,2,1.83,2.93,2.84a5.47,5.47,0,0,1,.45.51l.21.22A77.34,77.34,0,0,1,135.2,44.06a42.06,42.06,0,0,0,6.57,9.1,47.25,47.25,0,0,1,9.45,12.28,29.06,29.06,0,0,1,1.38,3,3.42,3.42,0,0,1,.27.65,13.07,13.07,0,0,1,.81,2.48,28.49,28.49,0,0,1,1,6.28c0,.77,0,1.52,0,2.26a2.43,2.43,0,0,1,0,.75,30.45,30.45,0,0,1-3.31,11.9A46.32,46.32,0,0,1,149,96.93c-.71,1.17-1.49,2.4-2.31,3.62A87.79,87.79,0,0,1,123,123.75c-.59.42-1.23.86-1.89,1.31-2.3,1.59-4.68,3.1-7.1,4.53m-6.39.12a112.5,112.5,0,0,0,11.79-7.12l1.9-1.31a85,85,0,0,0,23-22.41c.79-1.17,1.54-2.35,2.22-3.5a41,41,0,0,0,2.14-3.9,27.43,27.43,0,0,0,3-10.87l0-.25V80.1c0-.71.06-1.43,0-2.14a25.19,25.19,0,0,0-.92-5.6l0-.09a9.77,9.77,0,0,0-.67-2L150,70l-.05-.14-.1-.22a29.55,29.55,0,0,0-1.29-2.83,44.65,44.65,0,0,0-8.89-11.51l0,0a44.89,44.89,0,0,1-7.07-9.73,73,73,0,0,0-10-13.68l0-.05-.18-.2c-.11-.13-.22-.26-.34-.38-.94-1-1.87-1.89-2.8-2.71l-.08-.08-.33-.28-.11-.1c-10.16-9.13-22.68-13.27-37.2-12.3a83.06,83.06,0,0,0-29.05,7.8,3.15,3.15,0,0,1-.59.27,1.23,1.23,0,0,1-.63.3c-2.24,1.15-4.4,2.39-6.5,3.72-.92.58-1.85,1.2-2.77,1.87A114.19,114.19,0,0,0,30.53,39,62.74,62.74,0,0,0,11.42,75.41c-.11.66-.2,1.31-.28,2A8.66,8.66,0,0,1,11,78.79a5.6,5.6,0,0,0-.08,1.09v.17l-.16,1.54-.08,2.18c0,.84,0,1.74,0,2.66A60.08,60.08,0,0,0,12,97.61a52.26,52.26,0,0,0,5.93,15.54,59.26,59.26,0,0,0,11.17,13.48,61.7,61.7,0,0,0,12.88,8.65,55.65,55.65,0,0,0,18.17,5.33c.74.09,1.47.17,2.19.23a67.64,67.64,0,0,0,13-.41l.4-.05a87.94,87.94,0,0,0,16.18-4c.31-.12.68-.25,1-.36,2.52-.94,5.16-2,7.85-3.14,1.87-.84,3.74-1.73,5.56-2.63C106.78,130.08,107.19,129.89,107.6,129.71Zm44.11-49.08ZM51.29,24.12l0,0Z"/><path class="cls-3" d="M7.61,57.1a24.27,24.27,0,0,1-6-11.83q-1-8,5.82-9.38A11.08,11.08,0,0,1,10,35.62q9.69.27,20.1,6.23l1,.58.16.11c.27.17.54.34.8.52s.68.39,1,.6l2.11,1.4c-.31.84-.63,1.67-1,2.5l-.76,1.74a7.63,7.63,0,0,0-.36.76l-.1.16a45.12,45.12,0,0,1-9.25,12.34l-.13.12-.25.25c-1.23,1.11-2.53,2.2-3.91,3.23-1.14-.58-2.23-1.2-3.27-1.85l-.32-.21-.32-.21a38.52,38.52,0,0,1-8-6.79"/><path class="cls-2" d="M17,65.62a1.49,1.49,0,0,1-1.73-.15l-.17-.1-.32-.21A40,40,0,0,1,6.51,58.1,25.82,25.82,0,0,1,.15,45.56c-1-7.88,3.25-10.39,7-11.13a13.36,13.36,0,0,1,2.86-.3c6.73.19,13.73,2.35,20.85,6.43l1,.58.08,0,1,.63a1.5,1.5,0,0,1-1.63,2.51l-.93-.6-1-.56c-6.7-3.84-13.23-5.87-19.41-6a9.75,9.75,0,0,0-2.19.23c-2.61.52-5.44,1.85-4.68,7.73a22.94,22.94,0,0,0,5.64,11,37.56,37.56,0,0,0,7.66,6.54l.23.15a2.16,2.16,0,0,1,.67.48,1.5,1.5,0,0,1,0,2.12l-.29.22"/><path class="cls-1" d="M40.66,94c4.92,1.39,8.31,3.13,10.18,5.25a22.62,22.62,0,0,1,4.55,8.51c.28,1,.51,2,.71,3.06a81.09,81.09,0,0,1,1.11,24.48,63.2,63.2,0,0,1-1,6.28,58.47,58.47,0,0,1-14.93-5A63.21,63.21,0,0,1,28,127.75a60.21,60.21,0,0,1-11.46-13.84,54.13,54.13,0,0,1-5.69-14c-.16-.67-.3-1.33-.42-2-.33-1.63-.61-3.29-.84-5a67.12,67.12,0,0,1,31,1"/><path class="cls-1" d="M56.73,142.49a1.1,1.1,0,0,1-.76.13,1.06,1.06,0,0,1-.83-1.26c.56-2.81.91-4.88,1-6.15A80.7,80.7,0,0,0,55.06,111c-.2-1-.43-2-.69-3A21.8,21.8,0,0,0,50.05,100c-1.72-1.95-5-3.61-9.67-4.93A66.2,66.2,0,0,0,9.85,94a1.07,1.07,0,1,1-.41-2.1A68.49,68.49,0,0,1,41,93c5.18,1.46,8.68,3.28,10.71,5.57a24.11,24.11,0,0,1,4.76,8.9c.3,1.09.54,2.15.74,3.18a82.78,82.78,0,0,1,1.13,24.79,63.48,63.48,0,0,1-1,6.38,1.11,1.11,0,0,1-.51.71"/><path class="cls-2" d="M57,142.86a1.49,1.49,0,0,1-1,.18A60.26,60.26,0,0,1,40.6,138a65.39,65.39,0,0,1-13.54-9.09A62.1,62.1,0,0,1,15.3,114.67a55.66,55.66,0,0,1-5.85-14.4c-.17-.71-.32-1.4-.45-2.08-.32-1.62-.61-3.33-.84-5V93c0-.2,0-.39-.07-.57A1.5,1.5,0,1,1,11,91.94a7.58,7.58,0,0,1,.11.85c.22,1.63.49,3.25.81,4.83.12.66.25,1.29.41,1.93a53.23,53.23,0,0,0,5.52,13.6,59.26,59.26,0,0,0,11.17,13.48,61.7,61.7,0,0,0,12.88,8.65,57,57,0,0,0,14.53,4.81,1.51,1.51,0,0,1,1.2,1.76,1.47,1.47,0,0,1-.71,1"/><path class="cls-1" d="M99.6,47.67l0,.09a2.69,2.69,0,0,1-2.14.83,2.66,2.66,0,0,1-2.15-.81,3.11,3.11,0,0,1-1-2.17A2.83,2.83,0,0,1,95,43.54l8-8.43a3,3,0,0,1,2.06-.88,3.09,3.09,0,0,1,2.2.89,2.9,2.9,0,0,1,.94,2.07,3,3,0,0,1-.58,2l-.14.17-8,8.35"/><path class="cls-2" d="M99.51,49.18a4,4,0,0,1-2.09.52,3.78,3.78,0,0,1-2.91-1.12,4.21,4.21,0,0,1-1.28-2.88,3.83,3.83,0,0,1,1-2.83l8.08-8.46a4,4,0,0,1,2.81-1.22,4.14,4.14,0,0,1,3,1.19,3.88,3.88,0,0,1,1.27,2.81,4.05,4.05,0,0,1-.74,2.59,1.8,1.8,0,0,1-.32.36l-7.8,8.19-.14.19a3.9,3.9,0,0,1-.82.66m.73-.63Zm.37-.61Zm-1-.24h0Zm4.64-12.11a2.34,2.34,0,0,0-.42.32l-8,8.4a1.68,1.68,0,0,0-.42,1.27A2,2,0,0,0,96,47a1.64,1.64,0,0,0,1.33.53h.12a1.62,1.62,0,0,0,1.22-.41l.18-.21,7.93-8.33.06-.06h0a2,2,0,0,0,.36-1.29,1.83,1.83,0,0,0-.61-1.34,2,2,0,0,0-1.46-.59A1.84,1.84,0,0,0,104.23,35.59Zm2.51,3.11Z"/><path class="cls-1" d="M55.73,64.42a3,3,0,0,1,1.63-1.55l10.92-4.08a2.8,2.8,0,0,1,2.18.16,3.14,3.14,0,0,1,1.61,1.74,3.18,3.18,0,0,1-1.71,3.93h-.1l-10.8,4-.21.07a3,3,0,0,1-2-.24,2.92,2.92,0,0,1-1.54-1.69,3.11,3.11,0,0,1,0-2.36"/><path class="cls-2" d="M71.38,65.36a4.39,4.39,0,0,1-.62.29l-.23.06-10.6,3.93a1.38,1.38,0,0,1-.46.15,4.13,4.13,0,0,1-2.68-.33,4,4,0,0,1-2.08-2.28A4.14,4.14,0,0,1,54.78,64,4,4,0,0,1,57,61.9l11-4.09a3.87,3.87,0,0,1,3,.2,4.17,4.17,0,0,1,2.15,2.32,4.38,4.38,0,0,1-1.73,5m-.54.21Zm-.72.11Zm0-2.1a1.68,1.68,0,0,0,.85-1l0-.11a1.61,1.61,0,0,0,0-1.41A2.06,2.06,0,0,0,70,59.93a1.72,1.72,0,0,0-1.37-.1L57.76,63.89a1.85,1.85,0,0,0-1,1,2,2,0,0,0,0,1.54,1.84,1.84,0,0,0,1,1.09,2,2,0,0,0,1.33.17h0l.08,0,10.77-4Zm-11,4.09h0Z"/><path d="M114,99.17a4.76,4.76,0,0,1-1.18.48,6.14,6.14,0,0,1-3.85-.3l-.33-.13a1.07,1.07,0,0,1,.85-2l.27.11a4,4,0,0,0,2.52.22,1.69,1.69,0,0,0,1.3-1,1.8,1.8,0,0,0-.25-1.66,3.63,3.63,0,0,0-1.92-1.55l-.24-.11A3.82,3.82,0,0,0,110,93a1.08,1.08,0,0,1-.92-1.55,4.3,4.3,0,0,0,.39-1.3v-.08a3.63,3.63,0,0,0-.42-2.48,1.75,1.75,0,0,0-1.32-1,1.7,1.7,0,0,0-1.56.64,4,4,0,0,0-1,2.31l0,.29a1.07,1.07,0,1,1-2.14,0l0-.52a6.26,6.26,0,0,1,1.61-3.53,3.81,3.81,0,0,1,3.4-1.27,3.89,3.89,0,0,1,2.87,2.06,5.86,5.86,0,0,1,.7,3.84v.07c0,.23-.07.45-.12.67a5,5,0,0,1,.62.2l.2.1a5.77,5.77,0,0,1,2.91,2.43,3.94,3.94,0,0,1,.41,3.52A3.63,3.63,0,0,1,114,99.17m-1.39-7.45Zm-.57-.44Z"/><path class="cls-1" d="M128.27,36.3a82.73,82.73,0,0,1,5.58,8.5,43.15,43.15,0,0,0,6.82,9.41,54.82,54.82,0,0,1,4.16,4.46q-6-2.34-10-4.09a9.32,9.32,0,0,1-5.58-7,71.42,71.42,0,0,1-1-11.32"/><path class="cls-1" d="M145.37,59.6a1,1,0,0,1-.93.08c-4-1.56-7.36-2.94-10-4.11a10.4,10.4,0,0,1-6.19-7.71,72.06,72.06,0,0,1-1.06-11.51,1.07,1.07,0,0,1,1-1.1,1.06,1.06,0,0,1,1.1,1,73.17,73.17,0,0,0,1,11.13,8.24,8.24,0,0,0,5,6.2c2.6,1.15,5.94,2.52,9.91,4.07a1.07,1.07,0,0,1,.6,1.39,1,1,0,0,1-.45.53"/><path class="cls-2" d="M145.58,60a1.51,1.51,0,0,1-1.91-.34,53.56,53.56,0,0,0-4-4.34,44.7,44.7,0,0,1-7.08-9.77,84.14,84.14,0,0,0-5.47-8.31,1.5,1.5,0,1,1,2.39-1.81,85.72,85.72,0,0,1,5.69,8.65,41.37,41.37,0,0,0,6.59,9.11A59.17,59.17,0,0,1,146,57.72a1.52,1.52,0,0,1-.19,2.12l-.21.14"/><path class="cls-4" d="M115.41,55.73s1.41,7.55-8.52,8.47"/><path class="cls-4" d="M82.51,79.2s-.25,7.68-10.14,6.43"/><path class="cls-5" d="M147.39,120.14a12.37,12.37,0,0,0-4.21-2,10.72,10.72,0,0,0-4.55-.3,11.17,11.17,0,0,0-7.86,4.49,11.06,11.06,0,0,0-2.26,8.72,11.34,11.34,0,0,0,1.48,4.32,11.79,11.79,0,0,0,3.1,3.55l.53.41,3.89-5.09-.53-.41a5.42,5.42,0,0,1-2.11-3.6,5.38,5.38,0,0,1,4.63-6,5.11,5.11,0,0,1,4.05,1.07l.5.39,3.9-5-.56-.44Z"/><path class="cls-1" d="M198,113.7c7.82,7.28,16.65,14,16.65,26.21A159.37,159.37,0,0,1,213,162.13s2.36.14,3.81,3.35c2.6,5.8-.65,6.07-5.43,6.94s-25.83,0-27.57,0-4-3.59-3.25-8.29c.67-4.37,2-22.87-2.17-23.24s-28.88,2.33-29.2,1.63-6.84-24.8,11.61-27.62A178.46,178.46,0,0,1,198,113.7Z"/><path class="cls-2" d="M203.11,174.31c-4.76,0-10.73-.13-18-.38l-1.27,0a5.38,5.38,0,0,1-4.16-1.6c-1.37-1.61-1.07-3.86-.73-6.48.07-.58.15-1.2.22-1.83.44-4.41-2.07-19.95-2.1-20.1a1.47,1.47,0,0,1,1.22-1.69,1.46,1.46,0,0,1,1.68,1.21c.11.66,2.61,16.08,2.12,20.88-.07.66-.15,1.3-.23,1.91-.24,1.84-.47,3.58.06,4.2a3.08,3.08,0,0,0,2,.56l1.28.05c23.26.8,29.8.17,31.19-.5.55-.26.63-.52.65-.62.32-1.09-1.18-3.45-2.08-4.86-.31-.5-.6-1-.84-1.38a4.68,4.68,0,0,0-.91-1.14c-1.25-1.17-1.41-2.12-1-5.63.65-5.12.91-16.91-.14-23.76-1-6.66-9-12.35-14.05-14.54a1.47,1.47,0,0,1,1.17-2.7c6.81,2.94,14.66,9.45,15.78,16.8,1.09,7.09.82,19.28.16,24.56a9.1,9.1,0,0,0-.16,2.92,2.39,2.39,0,0,0,.22.21,7.26,7.26,0,0,1,1.45,1.82c.21.38.48.81.77,1.26,1.39,2.18,3.11,4.89,2.43,7.25a3.94,3.94,0,0,1-2.21,2.46C216,173.93,211.38,174.31,203.11,174.31Z"/><path class="cls-1" d="M140.4,181.81c4-.08,22.57-3.69,35.5-19.74,6.91-8.57,23.67-33.54,27.58-39.71s5.31-5.13,10.42-7.71c2.42-1.23,4.2-2.68.83-8.2-3.23-5.31-8.58-17.44-10.89-19.7s-7.9-4.91-9.91,0-2.45,4.47-8.58,10.86-20.62.85-27.92,23.2c-8.27,25.3-14.08,19.46-14.08,19.46"/><path class="cls-2" d="M172.11,168.52a1.49,1.49,0,0,1-1.05-.44,1.47,1.47,0,0,1,0-2.08c8.39-8.24,13.49-18.5,17.22-26a73.18,73.18,0,0,1,4.33-8c4.39-6.31,11-15.79,17.57-17.36,2.67-.63,4.16-1.27,4.56-2,.27-.47.2-1.31-.26-2.9-.82-2.84-4.94-11.06-8.45-17.36-4-7.09-5.6-8-8.26-7.11-2.28.78-2.64,1.36-4.42,4.18-.9,1.45-2.15,3.44-4.12,6.15-3.82,5.27-7,6.29-10.67,7.48A35.76,35.76,0,0,0,170,107c-9.3,5.73-12.58,12-20.68,29.45a1.47,1.47,0,1,1-2.66-1.24c8-17.24,11.68-24.48,21.81-30.71a38.19,38.19,0,0,1,9.19-4.08c3.57-1.16,5.93-1.92,9.19-6.41,1.92-2.64,3.13-4.57,4-6,1.9-3,2.69-4.29,6-5.4,5.5-1.89,8.35,2.32,11.77,8.46,3.63,6.52,7.79,14.78,8.71,18,.5,1.75.92,3.59,0,5.2s-3.31,2.6-6.42,3.33c-5.51,1.31-12,10.59-15.81,16.14a68.64,68.64,0,0,0-4.14,7.63c-3.82,7.67-9.05,18.19-17.79,26.78A1.48,1.48,0,0,1,172.11,168.52Z"/><path class="cls-2" d="M72.88,167.05c-16.22,0-30.2-8.73-36.69-15C29.85,146,25.77,136.49,30.7,131a1.47,1.47,0,0,1,2.19,1.95c-3.2,3.58-.85,11.06,5.34,17,.19.18,15,14.2,34.65,14.2a40.71,40.71,0,0,0,17.72-4.07,1.47,1.47,0,1,1,1.27,2.65A43.7,43.7,0,0,1,72.88,167.05Z"/><path class="cls-2" d="M132.74,183.29h-1.57c-16.29-.37-42.16-13.05-44.5-29.84a1.47,1.47,0,0,1,2.91-.41c2.11,15.1,26.72,27,41.66,27.31,16.23.38,33.29-5.74,39.7-14.18a1.47,1.47,0,0,1,2.34,1.78C167.4,175.68,151.71,183.29,132.74,183.29Z"/><path class="cls-2" d="M164.11,110l-.21,0c-12-1.69-14.16-6-14.37-6.52a1.47,1.47,0,0,1,2.68-1.21c.08.15,2.07,3.4,12.1,4.83a1.47,1.47,0,0,1-.2,2.92Z"/><path id="sound-2" d="M169.11,45.41l0-2.32a.25.25,0,0,0-.29-.26L161.75,44a.38.38,0,0,0-.31.36h0v7.72a2.36,2.36,0,0,0-1.46-.5,1.74,1.74,0,1,0,2.07,1.52.36.36,0,0,0,0-.12V48.36h0v-.77l6.45-1.07V51a2.37,2.37,0,0,0-1.46-.51,1.77,1.77,0,1,0,2.08,1.75V52a.63.63,0,0,0,0-.11V47.32h0Z"/><path id="sound-1" d="M172.3,18.55l-3.22-2.66a.28.28,0,0,0-.28-.25.29.29,0,0,0-.28.3v8.55a2.46,2.46,0,0,0-1.45-.49,1.9,1.9,0,0,0-2,1.7,2.07,2.07,0,0,0,4.07,0,1.81,1.81,0,0,0,0-.23.34.34,0,0,0,0-.1V19.88a6,6,0,0,1,2.66.47c.73.54.47,2.68.47,2.68C174.53,20.52,172.3,18.55,172.3,18.55Z"/></g></g></svg>