<svg xmlns="http://www.w3.org/2000/svg" xmlns:xlink="http://www.w3.org/1999/xlink" viewBox="0 0 108.86 160.81"><defs><style>.cls-1,.cls-9{fill:none;}.cls-2{clip-path:url(#clip-path);}.cls-3{fill:#83e8d3;}.cls-4{fill:#47d7ac;}.cls-5{fill:#3fd8b1;}.cls-6{fill:#1cb594;}.cls-7{fill:#fff;}.cls-8{fill:#333;}.cls-9{stroke:#333;stroke-linecap:round;stroke-linejoin:round;stroke-width:1.5px;}</style><clipPath id="clip-path" transform="translate(-19.91 -13.9)"><circle class="cls-1" cx="71.42" cy="71.42" r="71.42"/></clipPath></defs><g id="레이어_2" data-name="레이어 2"><g id="Layer_1" data-name="Layer 1"><g class="cls-2"><path class="cls-3" d="M59.22,111.39c-.9,1.81-2.87,4.61-3.61,6.3-.59,1.32-1.1,2.61-1.56,3.87a21.26,21.26,0,0,1-3,3.09A15.61,15.61,0,0,1,47,127.16c-5.06,2.11-11.15,2.33-15.39-1.6-4.78-4.42-7-11.5-7.34-17.84-.27-4.89,0-14.85,6.46-15.9,1.51-.24,1.25,2.15,2.53,3,3.83,2.47,5.4,7.15,6.49,11.32.67,2.51,1.7,3.8,1.91,6.38,1.87-1,4.88-2.61,6.74-3.62a2.92,2.92,0,0,1,1.41-.47,2.88,2.88,0,0,1,1.32.44c1.75.9,4,1,5.75,1.93C57.44,111.07,58.67,111.1,59.22,111.39Z" transform="translate(-19.91 -13.9)"/><path class="cls-4" d="M40.51,114.21a.81.81,0,0,1-.71-.41.83.83,0,0,1,.3-1.13L48,108.16a.83.83,0,0,1,.81,1.44l-7.9,4.51A.86.86,0,0,1,40.51,114.21Z" transform="translate(-19.91 -13.9)"/><path class="cls-3" d="M73.79,145.24l.9,22a3.88,3.88,0,0,0-2,3.09q-.21,3,4.86,3.19a73.74,73.74,0,0,0,8.94-.15q4.48-.41,3.47-6.28l.8-21.89Z" transform="translate(-19.91 -13.9)"/><path class="cls-4" d="M91.81,145.28l-.1,2.71-.11,2.95v0l-.13,3.55,0,1h0L91,167.07c.43,2.51.14,4.35-.85,5.63a4.78,4.78,0,0,1-3.6,1.78c-1.75.16-3.65.23-5.68.23-1.1,0-2.23,0-3.4-.06-2.46-.09-4.1-.65-5.06-1.7a3.36,3.36,0,0,1-.66-1.16,3.46,3.46,0,0,1-.18-1.49,4.9,4.9,0,0,1,2-3.59l-.33-8-.11-2.57,0-.6v-.16l0-.82,0-.59-.27-6.67v0l-.08-2a1,1,0,0,1,.07-.43h0a1.07,1.07,0,0,1,1-.69,1.08,1.08,0,0,1,1.12,1v0l.39,9.29V155a.28.28,0,0,1,0,.09v0h0v.44l.12,3.11.35,8.62a1.07,1.07,0,0,1-.52,1,2.83,2.83,0,0,0-1.52,2.27,1.28,1.28,0,0,0,.3,1c.36.39,1.27.9,3.51,1a73.74,73.74,0,0,0,8.82-.15,2.76,2.76,0,0,0,2.07-.94c.61-.78.75-2.14.44-4a1.27,1.27,0,0,1,0-.28l.4-10.86,0-.72,0-1,.1-2.7,0-1.48v0l.2-5.09v0a1.08,1.08,0,0,1,2.16.08Z" transform="translate(-19.91 -13.9)"/><path class="cls-3" d="M54.86,145.24l.89,22a3.88,3.88,0,0,0-2,3.09q-.21,3,4.86,3.19a73.74,73.74,0,0,0,8.94-.15Q72,173,71,167.13l.8-21.89Z" transform="translate(-19.91 -13.9)"/><path class="cls-4" d="M72.87,145.28l-.07,2v0l-.24,6.66,0,.6,0,.83v.15l0,.59-.11,2.57-.3,8.38c.07.4.11.8.15,1.17a7.27,7.27,0,0,1-.47,3.57,4.29,4.29,0,0,1-.54.91,4.78,4.78,0,0,1-3.6,1.78c-1.75.16-3.65.23-5.68.23-1.1,0-2.23,0-3.4-.06-2.46-.09-4.11-.65-5.06-1.7a3.47,3.47,0,0,1-.84-2.65,4.83,4.83,0,0,1,2-3.59l-.46-11.2,0-1,0-1.19L54,150v0l-.13-3.26-.06-1.39a1.08,1.08,0,0,1,1-1.13,1.1,1.1,0,0,1,1.13,1v0l.15,3.71.1,2.5v.26l.12,2.82v.21l0,.77.47,11.73a1.07,1.07,0,0,1-.52,1,2.83,2.83,0,0,0-1.52,2.27,1.28,1.28,0,0,0,.3,1c.36.39,1.27.9,3.52,1a73.83,73.83,0,0,0,8.82-.15,2.76,2.76,0,0,0,2.06-.94c.62-.79.76-2.17.43-4.08l0-.22.32-8.5L70.3,156l0-.52v-.18l0-.8,0-.67.32-8.62v0a1.09,1.09,0,0,1,1.13-1,1.06,1.06,0,0,1,1,.69h0A.85.85,0,0,1,72.87,145.28Z" transform="translate(-19.91 -13.9)"/><path class="cls-3" d="M74.1,106.62V99.9H63.83a153.47,153.47,0,0,0-9.59,18.26c-1.78,4-3.93,8.57-4.69,12-2.36,10.36.88,16.85,7.94,21.14l7-3.44,3.68,7.06,4.52.15H74.2c1.14,0,2.26-.11,3.37-.24l3.78-7.18,7.89,3.65c.45-.28.88-.56,1.3-.87q9.06-6.56,5.75-21.11a61.58,61.58,0,0,0-3.8-11.11L80.05,106.62h-6" transform="translate(-19.91 -13.9)"/><path class="cls-4" d="M97.36,129a63.58,63.58,0,0,0-3.88-11.3,1.08,1.08,0,1,0-2,.87,60.56,60.56,0,0,1,3.74,10.92c1.87,8.25.72,14.32-3.53,18.47-.35.35-.73.67-1.12,1l-.68.52,0,0a1.07,1.07,0,0,0-.28.36.83.83,0,0,0-.13.42v0l0,1.48-.1,2.7,0,1,0,.72-.4,10.86a1.27,1.27,0,0,0,0,.28,1.07,1.07,0,0,0,1,.84h.18a1.08,1.08,0,0,0,.94-1v-.1l.43-11.55h0l0-1L91.6,151v0C97.66,146.29,99.59,138.92,97.36,129Z" transform="translate(-19.91 -13.9)"/><path class="cls-3" d="M112.67,134.88q-2.9-4.44-6.22-8.73A152.5,152.5,0,0,0,88,106.4L81.1,110q5,9.26,8.85,16.16,6.36,11.37,9.72,16.34a21.11,21.11,0,0,0,4.18,4.77,8.87,8.87,0,0,0,4.7,2.1,6.25,6.25,0,0,0,3.9-1q6.26-4.43.22-13.52" transform="translate(-19.91 -13.9)"/><path class="cls-4" d="M109.12,150.47c-.22,0-.45,0-.67,0a10.07,10.07,0,0,1-5.27-2.33,22.21,22.21,0,0,1-4.42-5c-2.23-3.31-5.52-8.83-9.75-16.4a1.09,1.09,0,0,1,.41-1.48,1.1,1.1,0,0,1,1.48.42c4.21,7.52,7.46,13,9.67,16.26a20,20,0,0,0,4,4.54,8,8,0,0,0,4.1,1.86,5.1,5.1,0,0,0,3.21-.78c1.37-1,5.33-3.86-.09-12-1.9-2.92-4-5.83-6.17-8.66a151.53,151.53,0,0,0-18.34-19.6,1.08,1.08,0,1,1,1.45-1.61,154.5,154.5,0,0,1,18.6,19.88c2.23,2.88,4.34,5.84,6.27,8.81,5.47,8.23,2.75,12.7-.49,15l-.06,0a7.3,7.3,0,0,1-3.9,1.15" transform="translate(-19.91 -13.9)"/><path class="cls-5" d="M75.27,155a.82.82,0,0,0-.11-.42,1.1,1.1,0,0,0-.94-.59H72.56l-1.1,0-1.08,0-2.19-.08a1.08,1.08,0,0,0-1,.75.92.92,0,0,0,0,.52.94.94,0,0,0,.19.46,1.06,1.06,0,0,0,.83.44l2.18.08,1.08,0,1.1,0h1.76a1.08,1.08,0,0,0,.92-.6.79.79,0,0,0,.1-.27,1,1,0,0,0,0-.17h0v0A.28.28,0,0,0,75.27,155Z" transform="translate(-19.91 -13.9)"/><path class="cls-6" d="M76.69,132.18a9.6,9.6,0,0,0-.74-3.55,8.61,8.61,0,0,0-2-2.95,8.74,8.74,0,0,0-6.5-2.69,9.2,9.2,0,0,0-8.39,5.73,9.09,9.09,0,0,0-.71,3.59v.52l5,0v-.52a4.21,4.21,0,0,1,1.21-3A4.08,4.08,0,0,1,67.5,128a4.13,4.13,0,0,1,3,1.2,4,4,0,0,1,1.27,3v.49h5v-.56" transform="translate(-19.91 -13.9)"/><path class="cls-7" d="M65.26,25.46a17.56,17.56,0,0,0-4.61-8.4q-4.36-3.9-8-.35a8,8,0,0,0-1.22,1.42A31.11,31.11,0,0,0,47,32.66c0,.28-.05.57-.07.85v.14c0,.23,0,.46,0,.69a8.24,8.24,0,0,0,0,.85q0,.9,0,1.83c.62.16,1.25.31,1.88.44l1.36.25.59.1h.14a32.18,32.18,0,0,0,11.13-.48l.12,0,.25-.05c1.17-.28,2.35-.62,3.53-1,.11-.92.19-1.83.23-2.71a.66.66,0,0,1,0-.28,2.44,2.44,0,0,0,0-.27,28.16,28.16,0,0,0-.8-7.53" transform="translate(-19.91 -13.9)"/><path class="cls-4" d="M46.92,35.44h0a1.09,1.09,0,0,1-1.06-1.11l0-.83v-.07l.08-.86a32.23,32.23,0,0,1,4.65-15A9.85,9.85,0,0,1,52,15.91c2-1.91,5.19-3.43,9.42.35a18.78,18.78,0,0,1,4.94,9A29.43,29.43,0,0,1,67.17,33v.28l0,.13a1.08,1.08,0,0,1-2.14.33,1.94,1.94,0,0,1,0-.59V33a26.86,26.86,0,0,0-.78-7.24,16.43,16.43,0,0,0-4.32-7.89c-3.15-2.82-5.1-1.67-6.44-.35a7.15,7.15,0,0,0-1.07,1.26,29.93,29.93,0,0,0-4.3,14l-.08.94v.69a1.09,1.09,0,0,1-1.09,1.06" transform="translate(-19.91 -13.9)"/><path class="cls-7" d="M118.61,42.18q-.47-.61-1-1.2A46.12,46.12,0,0,0,91.81,24.89a80.35,80.35,0,0,0-10.65-1.58c-.84-.09-1.67-.14-2.47-.16-1.86-.06-3.7,0-5.51.06a.67.67,0,0,0-.31.07.65.65,0,0,0-.34,0l-.31,0a60.39,60.39,0,0,0-21.39,5.88Q36.25,36.5,31.61,51.1a3.1,3.1,0,0,0-.15.46q-.43,1.34-.78,2.79a4.21,4.21,0,0,0-.09.49l0,.13a53.72,53.72,0,0,0-1.24,12.44,31.09,31.09,0,0,1-.8,8.35,33,33,0,0,0-1.36,10.77,22.44,22.44,0,0,0,.24,2.36,1.25,1.25,0,0,0,.07.4A7.61,7.61,0,0,0,27.84,91a18.62,18.62,0,0,0,1.58,4.09c.26.47.55.94.86,1.39a.6.6,0,0,0,.19.28,20.71,20.71,0,0,0,6.16,6,28.81,28.81,0,0,0,2.84,1.7c.87.48,1.78.94,2.73,1.4a62,62,0,0,0,22.87,5.66l1.67.12a83.31,83.31,0,0,0,10.12.13q.47-.06,1-.09c1.48-.11,3-.24,4.49-.41q3.18-.41,6.12-.93.38-.09.78-.15A65,65,0,0,0,101,106.65l.22-.09a50.61,50.61,0,0,0,8.51-4.64l1.3-1a41.49,41.49,0,0,0,9.62-10.25,45.94,45.94,0,0,0,5-10.36,43.3,43.3,0,0,0,2.08-12.82,38.27,38.27,0,0,0-2.05-12.19,43.81,43.81,0,0,0-3.4-7.61c-.33-.58-.67-1.14-1-1.71s-.55-.91-.84-1.36l-.68-.93a5,5,0,0,0-.56-.8,5.64,5.64,0,0,1-.52-.75" transform="translate(-19.91 -13.9)"/><path class="cls-4" d="M126.66,55a45.7,45.7,0,0,0-3.49-7.81c-.34-.58-.67-1.16-1-1.73l-.86-1.38,0-.06-.65-.88a5.79,5.79,0,0,0-.63-.9,4.12,4.12,0,0,1-.42-.6l-.08-.1c-.32-.43-.65-.85-1-1.25A47.43,47.43,0,0,0,92,23.82a84.21,84.21,0,0,0-10.77-1.59c-.87-.09-1.72-.14-2.55-.16C76.85,22,75,22,73.17,22.13a1.9,1.9,0,0,0-.41,0,2.22,2.22,0,0,0-.45,0l-.18,0a62.2,62.2,0,0,0-21.78,6c-9.93,5-16.58,12.55-19.75,22.52a3,3,0,0,0-.19.53c-.29.9-.55,1.86-.78,2.83,0,.16-.07.32-.1.49l-.05.22a56,56,0,0,0-1.24,12.63,30.16,30.16,0,0,1-.77,8.06,34.65,34.65,0,0,0-1.4,11.1,20.49,20.49,0,0,0,.26,2.4,2.23,2.23,0,0,0,.07.5,8.75,8.75,0,0,0,.4,1.84,20.23,20.23,0,0,0,1.67,4.31c.26.46.55.92.84,1.37a1.72,1.72,0,0,0,.3.44,22,22,0,0,0,6.41,6.2c.92.61,1.9,1.21,2.93,1.76.88.47,1.81,1,2.79,1.41,1.49.7,3,1.35,4.59,1.92A62.41,62.41,0,0,0,56,111.46a69.07,69.07,0,0,0,9,1.13l1.67.12q3.06.23,6.16.23c1.37,0,2.73,0,4.1-.1H77c.28,0,.57-.07.89-.09,1.5-.1,3-.24,4.54-.4,2.14-.27,4.21-.59,6.18-.94h.07c.23-.06.45-.1.73-.15a65.54,65.54,0,0,0,12-3.6l.22-.09a50.93,50.93,0,0,0,8.71-4.75l1.32-1a42.65,42.65,0,0,0,9.88-10.53,47.72,47.72,0,0,0,5.11-10.63,45,45,0,0,0,2.12-13.15A39.77,39.77,0,0,0,126.66,55Zm-2.09,25a45,45,0,0,1-4.85,10.12,40.81,40.81,0,0,1-9.38,10l-1.26.93a50.46,50.46,0,0,1-8.31,4.53l-.22.09A63.72,63.72,0,0,1,89,109.11c-.28,0-.57.1-.83.16-1.92.35-4,.65-6,.91-1.48.17-3,.31-4.44.41-.34,0-.67,0-1,.09a82.55,82.55,0,0,1-10-.12l-1.69-.13a61.42,61.42,0,0,1-22.46-5.56c-.93-.44-1.83-.9-2.68-1.38a29.32,29.32,0,0,1-2.77-1.64,20,20,0,0,1-5.85-5.66l-.11-.14-.09-.16c-.28-.43-.56-.87-.8-1.29a17.93,17.93,0,0,1-1.48-3.85l0-.07a6.38,6.38,0,0,1-.33-1.5l0-.18,0-.12,0-.17a22.42,22.42,0,0,1-.23-2.23,32.22,32.22,0,0,1,1.32-10.43v0a31.55,31.55,0,0,0,.84-8.62,53.26,53.26,0,0,1,1.22-12.19v0l0-.19a3.63,3.63,0,0,1,.07-.39c.22-.93.46-1.84.75-2.69l0-.07a2.11,2.11,0,0,1,.1-.3l0-.1c3-9.4,9.27-16.57,18.65-21.26a59.75,59.75,0,0,1,21-5.78,1.75,1.75,0,0,0,.43-.05l.19,0a1,1,0,0,0,.35-.06c1.78-.1,3.61-.12,5.43-.06.78,0,1.59.07,2.41.15a80,80,0,0,1,10.5,1.55,45.33,45.33,0,0,1,25.25,15.73c.31.37.6.74.88,1.12s.38.55.6.84a6.58,6.58,0,0,1,.46.64l.06.1.65.9c.29.44.56.87.82,1.31s.67,1.12,1,1.68a43.2,43.2,0,0,1,3.31,7.43,37.29,37.29,0,0,1,2,11.83A42.49,42.49,0,0,1,124.57,80Z" transform="translate(-19.91 -13.9)"/><path class="cls-7" d="M111.71,28.66a17.57,17.57,0,0,0-.59-9.56q-2.3-5.39-7.06-3.72a8.67,8.67,0,0,0-1.7.78A31.29,31.29,0,0,0,92.09,27.39c-.13.25-.27.49-.41.74l-.06.13-.34.62-.37.74c-.28.54-.54,1.08-.8,1.64.49.42,1,.82,1.51,1.21s.74.54,1.12.8l.49.31.12.09A32,32,0,0,0,103.63,38l.12,0,.25.06c1.18.25,2.38.44,3.62.59.49-.78.93-1.57,1.33-2.35l.25-.5a28.39,28.39,0,0,0,2.51-7.15" transform="translate(-19.91 -13.9)"/><path class="cls-4" d="M109,37.39a1.2,1.2,0,0,1-.48-.11,1.08,1.08,0,0,1-.49-1.45l.24-.5a28,28,0,0,0,2.41-6.88,16.62,16.62,0,0,0-.55-9c-1.66-3.89-3.91-3.69-5.68-3.06a7.36,7.36,0,0,0-1.51.68A30.27,30.27,0,0,0,93,27.93l-.39.7-.07.14c-.11.2-.22.4-.31.59a1.08,1.08,0,1,1-1.94-1c.11-.22.22-.44.34-.65l0-.07,0-.06.42-.76a32.46,32.46,0,0,1,10.63-11.61,9.18,9.18,0,0,1,1.95-.89c2.58-.9,6.15-.9,8.38,4.32a18.77,18.77,0,0,1,.65,10.2,29.78,29.78,0,0,1-2.58,7.42l-.25.49a1.07,1.07,0,0,1-1,.61" transform="translate(-19.91 -13.9)"/><path class="cls-3" d="M126.07,56.73c-.14-.46-.28-.93-.44-1.39-.3-.9-.65-1.8-1-2.69a.77.77,0,0,0,.45-1,.78.78,0,0,0-1-.48,49.47,49.47,0,0,0-19.22,12.21c-2.68,2.79-4.2,5.2-4.65,7.38a17.6,17.6,0,0,0,.31,7.32c.21.75.45,1.5.69,2.2a59.46,59.46,0,0,0,8.37,15.86,42.63,42.63,0,0,0,3,3.6.77.77,0,0,0,.58.26.78.78,0,0,0,.51-.2.76.76,0,0,0,.06-1.09v0a40.92,40.92,0,0,0,6.94-8,45.94,45.94,0,0,0,5-10.36,43.3,43.3,0,0,0,2.08-12.82A38.54,38.54,0,0,0,126.07,56.73Z" transform="translate(-19.91 -13.9)"/><path class="cls-4" d="M113.12,100.34a1.06,1.06,0,0,1-.82-.38,1.08,1.08,0,0,1,.11-1.53,40.86,40.86,0,0,0,7.31-8.31A45.3,45.3,0,0,0,124.58,80a42.77,42.77,0,0,0,2-12.47A37.42,37.42,0,0,0,125,57c-.13-.45-.28-.9-.43-1.36-.37-1.1-.8-2.22-1.28-3.31v0c-.06-.16-.13-.31-.2-.46a1.09,1.09,0,0,1,2-.89c.08.18.16.35.23.53.5,1.15,1,2.32,1.34,3.48.16.48.31.95.46,1.42a40.07,40.07,0,0,1,1.64,11.12,45,45,0,0,1-2.12,13.14,47.08,47.08,0,0,1-5.11,10.63,42.51,42.51,0,0,1-7.71,8.77,1,1,0,0,1-.7.27" transform="translate(-19.91 -13.9)"/><path class="cls-8" d="M51.33,75.05a10.82,10.82,0,0,0,1.14-5.17,11,11,0,0,0-1.14-5.19c-.77-1.43-1.7-2.14-2.79-2.14s-2,.71-2.78,2.14a10.64,10.64,0,0,0-1.18,5.19,10.48,10.48,0,0,0,1.18,5.17c.76,1.47,1.69,2.2,2.78,2.2s2-.73,2.79-2.2" transform="translate(-19.91 -13.9)"/><path class="cls-3" d="M50.37,55.88l.05,0a2,2,0,0,0,1.65-.27,1.9,1.9,0,0,0,1-1.29,2.27,2.27,0,0,0-.2-1.7,2,2,0,0,0-1.2-1l-8.1-2.3A2.16,2.16,0,0,0,41,50.89a2.09,2.09,0,0,0,.17,1.63,2.13,2.13,0,0,0,1.08,1l.15.05,8,2.29" transform="translate(-19.91 -13.9)"/><path class="cls-4" d="M51,56.8a2.78,2.78,0,0,1-.75-.11l-.16-.07-7.85-2.25a1.23,1.23,0,0,1-.34-.11,2.9,2.9,0,0,1-1.41-1.34,2.83,2.83,0,0,1-.24-2.21,3,3,0,0,1,1.39-1.81,2.89,2.89,0,0,1,2.2-.29l8.12,2.31a2.82,2.82,0,0,1,1.68,1.41,3,3,0,0,1,.25,2.27,2.74,2.74,0,0,1-1.4,1.76A2.83,2.83,0,0,1,51,56.8m-.68-.12h0Zm-.46-.25h0Zm.92-1.2a1.19,1.19,0,0,0,.91-.2l.08,0a1.2,1.2,0,0,0,.63-.81A1.45,1.45,0,0,0,52.24,53a1.22,1.22,0,0,0-.76-.64l-8.06-2.3a1.31,1.31,0,0,0-1,.14,1.47,1.47,0,0,0-.68.89,1.32,1.32,0,0,0,.11,1,1.41,1.41,0,0,0,.7.67h0l.06,0,8,2.29Zm-8.12-2.32h0Z" transform="translate(-19.91 -13.9)"/><path class="cls-8" d="M74.38,69.88a10.59,10.59,0,0,0,1.18,5.17c.76,1.47,1.69,2.2,2.79,2.2s2-.73,2.78-2.2a10.59,10.59,0,0,0,1.18-5.17,10.75,10.75,0,0,0-1.18-5.19c-.76-1.43-1.69-2.14-2.78-2.14s-2,.71-2.79,2.14a10.75,10.75,0,0,0-1.18,5.19" transform="translate(-19.91 -13.9)"/><path class="cls-3" d="M85.31,50.48a2.16,2.16,0,0,0-1.58-.37l-8.29,1.45a2.05,2.05,0,0,0-1.3.9,2.27,2.27,0,0,0-.38,1.67,2,2,0,0,0,.9,1.39,1.94,1.94,0,0,0,1.61.44l.06,0,8.2-1.46.16,0a2.15,2.15,0,0,0,1.18-.9,2.1,2.1,0,0,0,.34-1.61,2.29,2.29,0,0,0-.9-1.45" transform="translate(-19.91 -13.9)"/><path class="cls-4" d="M75.92,56.76A3.13,3.13,0,0,1,73,54.26,3,3,0,0,1,73.49,52a2.76,2.76,0,0,1,1.78-1.23l8.33-1.46a2.86,2.86,0,0,1,2.15.5A3,3,0,0,1,87,51.8,2.82,2.82,0,0,1,86.5,54,2.93,2.93,0,0,1,85,55.17a1,1,0,0,1-.34.07l-8.05,1.43-.16,0a2.77,2.77,0,0,1-.49,0m.42-.06h0Zm0,0Zm.48-.19Zm7.26-5.65h-.24l-8.27,1.46a1.22,1.22,0,0,0-.79.55A1.5,1.5,0,0,0,74.53,54a1.17,1.17,0,0,0,.54.87l.07.05a1.18,1.18,0,0,0,.89.29l.2-.05,8.17-1.45h.06a1.42,1.42,0,0,0,.77-.59,1.31,1.31,0,0,0,.21-1,1.44,1.44,0,0,0-.6-1A1.29,1.29,0,0,0,84.08,50.86Zm.26,2.89Z" transform="translate(-19.91 -13.9)"/><path class="cls-3" d="M33.91,67.24a54.21,54.21,0,0,0-3.53-7.53.78.78,0,0,0-1.37.73l.55,1a57.08,57.08,0,0,0-.24,5.92,30.45,30.45,0,0,1-.8,8.35c-.25.91-.45,1.79-.64,2.66-.3.4-.6.79-.93,1.2a.77.77,0,0,0,.13,1.08.72.72,0,0,0,.48.17.77.77,0,0,0,.61-.3c1.91-2.43,3.5-4.52,4.72-6.23A7.48,7.48,0,0,0,33.91,67.24Z" transform="translate(-19.91 -13.9)"/><path class="cls-4" d="M27.56,81.15h-.18a1.09,1.09,0,0,1-.89-1.25,44.52,44.52,0,0,1,1-4.43,29.8,29.8,0,0,0,.77-8A60,60,0,0,1,28.62,60a1.08,1.08,0,0,1,2.15.25,57.53,57.53,0,0,0-.36,7.18A32.37,32.37,0,0,1,29.57,76a39.1,39.1,0,0,0-.94,4.22,1.09,1.09,0,0,1-1.07.91" transform="translate(-19.91 -13.9)"/><path class="cls-9" d="M56,86.72s2.92,5.2,8,0" transform="translate(-19.91 -13.9)"/><path class="cls-3" d="M37.09,128.56a11.35,11.35,0,0,1-6-2.9c-4.78-4.42-7-11.5-7.34-17.84-.27-4.89,0-14.85,6.46-15.9A6.34,6.34,0,0,1,34.59,93c3.82,2.47,5.39,7.15,6.49,11.32a43,43,0,0,1,1.15,7c0,.24,0,.48.06.72l.51-.28C43.28,114,45.05,124.82,37.09,128.56Z" transform="translate(-19.91 -13.9)"/><path class="cls-4" d="M39.93,130.3c-6,0-8.49-2.3-8.9-2.72C24.25,122.1,22.77,113,22.49,108c-.34-6.08.19-16.47,7.62-17.66A6.87,6.87,0,0,1,35,91.73c4.35,2.77,6.16,7.75,7.36,12.26a100.92,100.92,0,0,1,1.75,12.32.83.83,0,0,1-.76.9.84.84,0,0,1-.89-.76,100.64,100.64,0,0,0-1.69-12c-1.12-4.2-2.79-8.82-6.66-11.29A5.3,5.3,0,0,0,30.37,92c-6.38,1-6.48,11.49-6.23,15.94.45,8,3.35,14.72,8,18.43l.1.09s2.27,2.34,8.19,2.23c4.17-.09,7-1.37,10.08-4.57a.81.81,0,0,1,1.16,0,.82.82,0,0,1,0,1.16c-3.38,3.51-6.63,5-11.23,5.08Z" transform="translate(-19.91 -13.9)"/><path class="cls-6" d="M62.9,75.06a1.15,1.15,0,0,1-.37,0,8.26,8.26,0,0,0-4.66,0A1.19,1.19,0,0,1,57,72.83a10.57,10.57,0,0,1,6-.11,1.19,1.19,0,0,1-.16,2.34" transform="translate(-19.91 -13.9)"/><path class="cls-6" d="M41.69,92.1a20,20,0,0,1-2.46.06,19.38,19.38,0,0,1-13.64-5.94,19.21,19.21,0,0,1-5.68-13.65A18.43,18.43,0,0,1,39.1,53.93a19.22,19.22,0,0,1,13.55,6,19,19,0,0,1,5.72,13.64A18.6,18.6,0,0,1,41.69,92.1M36.78,56.37a15.31,15.31,0,0,0-9.66,4.49,15.56,15.56,0,0,0-4.83,11.7,16.63,16.63,0,0,0,5,12,16.87,16.87,0,0,0,12,5.23,15.25,15.25,0,0,0,11.78-4.57A15.3,15.3,0,0,0,56,73.54h0a16.48,16.48,0,0,0-5-12A16.72,16.72,0,0,0,39,56.31,16.73,16.73,0,0,0,36.78,56.37Z" transform="translate(-19.91 -13.9)"/><path class="cls-7" d="M41.36,89.9A19.21,19.21,0,0,1,39.2,90a17.23,17.23,0,0,1-12.09-5.3,17,17,0,0,1-5.06-12.11,16.31,16.31,0,0,1,17-16.5,17.1,17.1,0,0,1,12,5.27,16.83,16.83,0,0,1,5.09,12.11,15.7,15.7,0,0,1-5,11.87,15.7,15.7,0,0,1-9.85,4.6M37,57.29A15.12,15.12,0,0,0,23.24,72.54,15.84,15.84,0,0,0,28,83.82a16.05,16.05,0,0,0,11.27,5,14.7,14.7,0,0,0,11.15-4.32,14.55,14.55,0,0,0,4.61-11h0a15.66,15.66,0,0,0-4.74-11.27A16,16,0,0,0,39,57.23,17.8,17.8,0,0,0,37,57.29Z" transform="translate(-19.91 -13.9)"/><path class="cls-6" d="M84.09,93.13a23.9,23.9,0,0,1-2.41.07,19.89,19.89,0,0,1-19.3-19.6A18.48,18.48,0,0,1,81.54,54.93a19.31,19.31,0,0,1,13.56,6,18.89,18.89,0,0,1,5.71,13.65A18.51,18.51,0,0,1,84.09,93.13m-4.8-35.76a15.38,15.38,0,0,0-9.69,4.52,15.61,15.61,0,0,0-4.84,11.7,17.51,17.51,0,0,0,17,17.23,15.44,15.44,0,0,0,11.81-4.58,15.28,15.28,0,0,0,4.87-11.67h0a16.37,16.37,0,0,0-5-12,16.78,16.78,0,0,0-11.94-5.27A19.5,19.5,0,0,0,79.29,57.37Z" transform="translate(-19.91 -13.9)"/><path class="cls-7" d="M83.82,91a19.45,19.45,0,0,1-2.17.06,17.17,17.17,0,0,1-12.08-5.3,17,17,0,0,1-5.06-12.11,16.3,16.3,0,0,1,17-16.5,17.11,17.11,0,0,1,12,5.27,16.82,16.82,0,0,1,5.08,12.11A16.44,16.44,0,0,1,83.82,91M79.4,58.41A15.1,15.1,0,0,0,65.7,73.66,15.87,15.87,0,0,0,70.41,85a16.06,16.06,0,0,0,11.28,4.94,14.73,14.73,0,0,0,11.15-4.32,14.56,14.56,0,0,0,4.6-11h0A15.64,15.64,0,0,0,92.7,63.28a16.72,16.72,0,0,0-13.3-4.87Z" transform="translate(-19.91 -13.9)"/><path class="cls-4" d="M57.58,152.7a.86.86,0,0,1-.34-.07,17.33,17.33,0,0,1-9.59-12.75c-1.64-9.17,5.68-22.86,6-23.44a.87.87,0,0,1,1.2-.36.89.89,0,0,1,.36,1.2c-.07.14-7.34,13.73-5.81,22.29A15.54,15.54,0,0,0,57.93,151a.89.89,0,0,1-.35,1.71Z" transform="translate(-19.91 -13.9)"/></g></g></g></svg>