<svg xmlns="http://www.w3.org/2000/svg" viewBox="0 0 113.98 94.37"><defs><style>.cls-1{fill:#fff;}.cls-2{fill:#fcc5c5;}.cls-3{fill:#ffd65e;}.cls-4{fill:#47d7ac;}.cls-5{fill:#83e8d3;}.cls-6{fill:#d7d7d7;}.cls-7{fill:#f8f8f8;}.cls-8{fill:#6fd7f8;}.cls-9{fill:none;stroke:#f3a5a4;stroke-linecap:round;stroke-linejoin:round;}</style></defs><g id="레이어_2" data-name="레이어 2"><g id="레이어_1-2" data-name="레이어 1"><path class="cls-1" d="M92.38,17.72l-.52-2.36q-3.73-.94-8.86,1.47l-3.71,3q8.88-3.69,13.09-2.12m1.2,5.18L93,20.24Q86.3,18.36,75.65,22.8l-3.48,2.84Q87.91,20.93,93.58,22.9Z"/><path class="cls-2" d="M98,3.49,95.81.5a8.91,8.91,0,0,0-4.38,7.67A13.28,13.28,0,0,1,98,3.49M91.43,8.17l0,.17a24.69,24.69,0,0,1,6.67.47V6A16.23,16.23,0,0,0,91.43,8.17Z"/><path class="cls-3" d="M93,20.24l-.57-2.52q-4.2-1.56-13.09,2.12l-3.64,3Q86.32,18.38,93,20.24m3.42,14.88L93.58,22.9q-5.68-2-21.41,2.74l-1.4,1.12a63.33,63.33,0,0,0,25.6,8.36M90.79,10.7a1.69,1.69,0,0,1-.33,0L83,16.83q5.13-2.41,8.86-1.47L90.79,10.7m-.05-.17-.28.2a1.69,1.69,0,0,0,.33,0Z"/><path class="cls-3" d="M96.38,32h-.09A54.53,54.53,0,0,1,72.9,24.41a1,1,0,0,1-.45-.78,1,1,0,0,1,.37-.83L90.72,8.24a1,1,0,0,1,1.6.55l5,22a1,1,0,0,1-.22.88A1,1,0,0,1,96.38,32ZM75.19,23.45a54.76,54.76,0,0,0,19.9,6.46L90.73,10.8Z"/><path class="cls-1" d="M67.42,25.08A14.25,14.25,0,0,0,64.48,18q-3.12-3.5-6.27-1a6.24,6.24,0,0,0-1.08,1A24.33,24.33,0,0,0,52.36,29c0,.23-.09.45-.13.67l0,.11c0,.18-.05.37-.07.55s-.08.44-.11.66q-.09.7-.18,1.44c.48.19,1,.37,1.46.54l1,.33a4.61,4.61,0,0,1,.46.13h.11a25.67,25.67,0,0,0,8.85.68h.1l.2,0C65,34,66,33.87,67,33.67c.16-.72.3-1.43.41-2.12l0-.22,0-.22a22.54,22.54,0,0,0,0-6"/><path class="cls-4" d="M67.35,32.45a.87.87,0,0,1-.86-.8,1.25,1.25,0,0,1,0-.47l0-.16a21.17,21.17,0,0,0,0-5.79,13.37,13.37,0,0,0-2.75-6.66c-2.26-2.53-3.89-1.81-5.06-.9a5.59,5.59,0,0,0-.95.89A23.53,23.53,0,0,0,53.2,29.22l-.14.73L53,30.5a.87.87,0,1,1-1.73-.23l.07-.54v-.17l.13-.67a25.35,25.35,0,0,1,4.95-11.45,7,7,0,0,1,1.25-1.16c1.7-1.33,4.39-2.23,7.43,1.16A15.22,15.22,0,0,1,68.27,25a23.84,23.84,0,0,1,0,6.26l0,.22,0,.11a.87.87,0,0,1-.79.86h-.08"/><path class="cls-1" d="M79.86,23.82c-.66-.15-1.31-.26-1.94-.35-1.48-.23-2.93-.4-4.36-.5l-.25,0L73,23h-.28a47.94,47.94,0,0,0-17.4,2.62Q43.21,30,38.31,41.07a3.34,3.34,0,0,0-.17.38c-.29.66-.56,1.37-.82,2.11a2.12,2.12,0,0,0-.13.38l0,.1a41.12,41.12,0,0,0-2,9.7,25.31,25.31,0,0,1-1.37,6.55,26,26,0,0,0-2,8.39q0,1,0,1.89a1,1,0,0,0,0,.33A5.64,5.64,0,0,0,32,72.32a17,17,0,0,0,.9,3.38q.27.57.57,1.17a.86.86,0,0,0,.13.25,17.12,17.12,0,0,0,4.38,5.3A20.32,20.32,0,0,0,40,84c.66.45,1.35.91,2.07,1.37a50.07,50.07,0,0,0,17.62,6.65l1.29.27a67.18,67.18,0,0,0,8,1.07,4.69,4.69,0,0,1,.75,0c1.19.07,2.39.1,3.58.1,1.71,0,3.36,0,5-.15l.59,0a52.65,52.65,0,0,0,9.61-1.7l.18,0a38,38,0,0,0,7.14-2.86c.37-.2.73-.41,1.1-.65a31.76,31.76,0,0,0,8.49-7.17,34.93,34.93,0,0,0,4.83-7.71,34.82,34.82,0,0,0,2.68-10,30.75,30.75,0,0,0-.57-9.83,37.57,37.57,0,0,0-2.06-6.35c-.2-.5-.41-1-.63-1.42s-.39-.79-.59-1.17l-.45-.8a2.59,2.59,0,0,0-.38-.67,4.23,4.23,0,0,1-.34-.67c-.22-.35-.43-.69-.65-1A37.42,37.42,0,0,0,88.15,26.09a65.51,65.51,0,0,0-8.29-2.27"/><path class="cls-4" d="M73.36,94.37c-1.21,0-2.43,0-3.63-.1H69a68.58,68.58,0,0,1-8.12-1.08l-1.3-.28a50.94,50.94,0,0,1-17.91-6.76l-2.1-1.39a22.23,22.23,0,0,1-2.17-1.68,18.38,18.38,0,0,1-4.57-5.52,1.73,1.73,0,0,1-.18-.36l-.55-1.12L32,76a18.13,18.13,0,0,1-.94-3.56A6.84,6.84,0,0,1,31,71a1.66,1.66,0,0,1,0-.44c0-.62,0-1.27,0-1.91A26.82,26.82,0,0,1,33,60a24.91,24.91,0,0,0,1.31-6.31,43.29,43.29,0,0,1,2-9.83l0-.18c0-.14.09-.28.14-.41.27-.76.55-1.48.83-2.14a4,4,0,0,1,.2-.43c3.36-7.57,9.26-12.92,17.54-15.91A49.07,49.07,0,0,1,72.8,22.1H73l.27,0a1.61,1.61,0,0,1,.31,0c1.45.1,2.94.27,4.43.5.64.08,1.31.21,2,.36a67.61,67.61,0,0,1,8.39,2.29A38.46,38.46,0,0,1,108,40.82l.66,1,.07.15a3.25,3.25,0,0,0,.25.49,3.14,3.14,0,0,1,.44.78l.43.75.61,1.21c.23.47.45,1,.66,1.48a38.81,38.81,0,0,1,2.1,6.48,32.3,32.3,0,0,1,.59,10.12,35.83,35.83,0,0,1-2.75,10.21,36.19,36.19,0,0,1-5,7.93,32.82,32.82,0,0,1-8.72,7.37c-.35.22-.74.45-1.12.66a39.52,39.52,0,0,1-7.32,2.93l-.09,0-.09,0A53.71,53.71,0,0,1,79,94.19c-.2,0-.4,0-.6,0-1.62.1-3.31.15-5,.15m-4-1.85h.43a71.61,71.61,0,0,0,8.43,0l.62,0a52.73,52.73,0,0,0,9.35-1.65,1.11,1.11,0,0,1,.3-.08A38.21,38.21,0,0,0,95.44,88c.33-.18.68-.39,1-.61a31.18,31.18,0,0,0,8.29-7,34.49,34.49,0,0,0,4.71-7.53,34.41,34.41,0,0,0,2.61-9.69,30.5,30.5,0,0,0-.56-9.55,35.46,35.46,0,0,0-2-6.19c-.19-.5-.4-1-.6-1.38s-.39-.77-.59-1.15l-.43-.77,0-.1a2.19,2.19,0,0,0-.26-.48l0,0a4.48,4.48,0,0,1-.39-.75l-.6-.94A36.7,36.7,0,0,0,87.85,26.91a64.81,64.81,0,0,0-8.17-2.24c-.65-.14-1.27-.25-1.87-.33-1.46-.23-2.89-.4-4.27-.49h-.06a.81.81,0,0,1-.31,0h-.41a47.34,47.34,0,0,0-17.12,2.56c-7.81,2.82-13.38,7.87-16.53,15l0,.08-.12.24c-.28.68-.55,1.37-.81,2.1l0,0-.08.25,0,.05,0,.12a41.14,41.14,0,0,0-2,9.51,26.18,26.18,0,0,1-1.42,6.76v0a25.62,25.62,0,0,0-1.91,8.11c0,.62,0,1.23,0,1.81v.14l0,.26a4.4,4.4,0,0,0,.11,1.2,16.3,16.3,0,0,0,.84,3.23l.55,1.12,0,.12.07.12a16.49,16.49,0,0,0,4.17,5,20.92,20.92,0,0,0,2,1.57c.66.44,1.34.9,2,1.36A49.27,49.27,0,0,0,59.88,91.2l1.32.28a67.78,67.78,0,0,0,7.84,1ZM34.28,76.66Zm-.5-16.37Z"/><path class="cls-1" d="M105.3,31.66a14,14,0,0,0,.34-7.62c-.91-3-2.66-4.19-5.27-3.61a6.59,6.59,0,0,0-1.42.45,24.1,24.1,0,0,0-9,7.91l-.4.54-.06.1-.3.46-.38.54q-.39.6-.78,1.23c.36.37.73.74,1.1,1.1l.82.74c.12.09.24.2.36.31l.09.07a26.28,26.28,0,0,0,7.77,4.38l.1,0,.19.08q1.36.47,2.82.81c.45-.58.88-1.15,1.27-1.73l.12-.19.12-.18a22.1,22.1,0,0,0,2.56-5.42"/><path class="cls-4" d="M102.49,38.32a1,1,0,0,1-.3,0,.87.87,0,0,1-.51-1.12,1.14,1.14,0,0,1,.24-.41l.08-.13a21.29,21.29,0,0,0,2.46-5.21,13.17,13.17,0,0,0,.32-7.15c-1-3.24-2.78-3.29-4.23-3a5,5,0,0,0-1.25.4,23.38,23.38,0,0,0-8.7,7.62l-.44.6-.29.46a.88.88,0,0,1-1.47-.95l.34-.52.05-.07.4-.55a25.22,25.22,0,0,1,9.38-8.18,7.25,7.25,0,0,1,1.63-.52c2.11-.47,5-.12,6.26,4.22a14.86,14.86,0,0,1-.34,8.13,22.74,22.74,0,0,1-2.66,5.63l-.12.19-.06.08a.88.88,0,0,1-.79.5"/><path class="cls-5" d="M112.37,53.4q-.32-1.4-.75-2.82a38.15,38.15,0,0,0-16,7.7q-3.36,2.78-4.08,5.12a13.15,13.15,0,0,0-.38,5.53c.1.6.23,1.2.38,1.79a46.79,46.79,0,0,0,5.22,13.15,33.19,33.19,0,0,0,2,3.08,32.66,32.66,0,0,0,6.65-6,34.93,34.93,0,0,0,4.83-7.71,34.82,34.82,0,0,0,2.68-10,30.89,30.89,0,0,0-.32-8.69l-.25-1.14"/><path class="cls-5" d="M98.78,87.58a.64.64,0,0,1-.51-.27,35.85,35.85,0,0,1-2.06-3.15,47.81,47.81,0,0,1-5.28-13.3c-.15-.6-.28-1.22-.38-1.83a14,14,0,0,1,.39-5.81c.52-1.69,1.92-3.47,4.28-5.42A38.87,38.87,0,0,1,111.49,50a.61.61,0,0,1,.74.47.62.62,0,0,1-.47.74A37.68,37.68,0,0,0,96,58.76c-2.13,1.77-3.44,3.39-3.88,4.83a12.6,12.6,0,0,0-.35,5.27c.09.55.22,1.13.36,1.71a46.45,46.45,0,0,0,5.16,13,33,33,0,0,0,2,3,.63.63,0,0,1-.51,1"/><path class="cls-4" d="M98.78,87.82a.86.86,0,0,1-.49-1.58,32.32,32.32,0,0,0,6.47-5.89,34.49,34.49,0,0,0,4.71-7.53,34.41,34.41,0,0,0,2.61-9.69,30.27,30.27,0,0,0-.32-8.44l-.24-1.11c-.2-.88-.45-1.8-.72-2.72l-.14-.37a.87.87,0,1,1,1.63-.61l.15.4,0,0c.29,1,.54,1.93.76,2.87l.25,1.16a31.72,31.72,0,0,1,.34,9,35.83,35.83,0,0,1-2.75,10.21,36.19,36.19,0,0,1-5,7.93,33.57,33.57,0,0,1-6.83,6.21.81.81,0,0,1-.49.15"/><path class="cls-5" d="M50.9,44.54l.09.08,5.56,3.69.05,0a1.37,1.37,0,0,0,1.31.22,1.54,1.54,0,0,0,1.1-.72,1.82,1.82,0,0,0,.21-1.34,1.36,1.36,0,0,0-.67-1.06l-5.63-3.74a1.67,1.67,0,0,0-1.28-.21,1.7,1.7,0,0,0-1.06.77,1.59,1.59,0,0,0-.26,1.28,1.55,1.55,0,0,0,.58,1"/><path class="cls-4" d="M57.44,49.26a1.94,1.94,0,0,1-1.19-.4l0,0-5.55-3.69,0,0-.12-.1a2.39,2.39,0,0,1-.42-3.12,2.28,2.28,0,0,1,3.18-.73l5.64,3.74a1.94,1.94,0,0,1,.94,1.5,2.31,2.31,0,0,1-.3,1.74,2.11,2.11,0,0,1-1.49,1,2.13,2.13,0,0,1-.6.09m-.93-.32ZM57,47.86a.79.79,0,0,0,.73.11l.1,0a.87.87,0,0,0,.66-.43,1.19,1.19,0,0,0,.13-.88.8.8,0,0,0-.38-.66l-5.66-3.75a1.06,1.06,0,0,0-1.46.37,1.12,1.12,0,0,0,.15,1.46l.09.08,5.48,3.63Z"/><path d="M73.81,60.33a1,1,0,0,1-.75-1.65,5.27,5.27,0,0,1,1.32-1.08,6.8,6.8,0,0,1,4.5-.86,7.28,7.28,0,0,1,2.61.84,1,1,0,0,1-1,1.74,5.64,5.64,0,0,0-1.91-.61,4.84,4.84,0,0,0-3.22.6,3.28,3.28,0,0,0-.84.68,1,1,0,0,1-.75.34"/><path class="cls-5" d="M81.8,45.58a1.73,1.73,0,0,0-1.29-.2L74,47.07a1.75,1.75,0,0,0-.94.82,1.87,1.87,0,0,0-.15,1.35A1.76,1.76,0,0,0,75,50.48l0,0,6.42-1.64.13,0a1.67,1.67,0,0,0,.84-.78,1.59,1.59,0,0,0,.18-1.32,2,2,0,0,0-.85-1.09"/><path class="cls-4" d="M74.61,51.17a2.27,2.27,0,0,1-1.19-.35,2.14,2.14,0,0,1-1.09-1.44,2.5,2.5,0,0,1,.2-1.76,2.3,2.3,0,0,1,1.29-1.13l.06,0,6.47-1.69a2.32,2.32,0,0,1,1.77.27,2.58,2.58,0,0,1,1.13,1.45,2.44,2.44,0,0,1-1.39,2.84l-.16.07h0L75.3,51.05l-.08,0a2.15,2.15,0,0,1-.61.09m.47-.09Zm-.86-3.41a1.05,1.05,0,0,0-.58.52,1.27,1.27,0,0,0-.1.9.92.92,0,0,0,.48.64,1,1,0,0,0,.76.18l.18-.06,6.37-1.63h0a1.09,1.09,0,0,0,.58-.51,1,1,0,0,0,.12-.86,1.35,1.35,0,0,0-.59-.74,1.09,1.09,0,0,0-.83-.11Zm7.28,1.15h0Z"/><path class="cls-5" d="M36,47.88a45.64,45.64,0,0,0-.91,5.76,25.12,25.12,0,0,1-1.34,6.54,30.77,30.77,0,0,0-1.12,3.31c1.72-1.74,3.13-3.23,4.24-4.45a5.33,5.33,0,0,0,1.27-4.95A42.35,42.35,0,0,0,36,47.88"/><path class="cls-5" d="M32.62,64.11a.62.62,0,0,1-.44-1.06c1.7-1.73,3.13-3.22,4.22-4.43a4.7,4.7,0,0,0,1.12-4.41,39.92,39.92,0,0,0-2.11-6.1.63.63,0,0,1,1.16-.47A43.18,43.18,0,0,1,38.74,54a6,6,0,0,1-1.42,5.51c-1.1,1.22-2.54,2.72-4.26,4.46a.59.59,0,0,1-.44.19"/><path class="cls-4" d="M32.62,64.36l-.23,0a.87.87,0,0,1-.61-1.07,32.6,32.6,0,0,1,1.15-3.41,23.79,23.79,0,0,0,1.28-6.28,47.42,47.42,0,0,1,.93-5.89.87.87,0,0,1,1.7.39A45.6,45.6,0,0,0,36,53.73a25.76,25.76,0,0,1-1.39,6.75,28.85,28.85,0,0,0-1.1,3.24.87.87,0,0,1-.84.64"/><path d="M56,58.34a1,1,0,0,1-.85-.47,3.21,3.21,0,0,0-.71-.79A4.78,4.78,0,0,0,51.38,56a5.75,5.75,0,0,0-2,.3,1,1,0,0,1-.67-1.88,7.68,7.68,0,0,1,2.7-.41,6.76,6.76,0,0,1,4.33,1.59,5.33,5.33,0,0,1,1.12,1.27,1,1,0,0,1-.33,1.37,1,1,0,0,1-.52.14"/><path class="cls-1" d="M1.69,55.59a.77.77,0,0,0,.42,0l5.31-3.56.32-.25a.68.68,0,0,0,.1-.4,1.14,1.14,0,0,0-.25-.67,1.1,1.1,0,0,0-.6-.5.71.71,0,0,0-.57.05L1.14,53.87a.86.86,0,0,0-.27.5,1.36,1.36,0,0,0,.27.74,1.36,1.36,0,0,0,.55.48"/><path class="cls-6" d="M2,56.5a1.65,1.65,0,0,1-.52-.08l-.08,0a2.09,2.09,0,0,1-.92-.77A2.14,2.14,0,0,1,0,54.42v-.14a1.72,1.72,0,0,1,.53-1l.12-.1,5.28-3.59.07,0a1.53,1.53,0,0,1,1.27-.11,1.9,1.9,0,0,1,1.05.84,2,2,0,0,1,.39,1.15,1.53,1.53,0,0,1-.22.84,1.1,1.1,0,0,1-.4.43,1.83,1.83,0,0,1-.25.15L2.6,56.34l-.25.11a1.23,1.23,0,0,1-.39,0m-.18-2,.05.09.09.11,5-3.37-.06-.08,0-.05-.07-.1Z"/><polyline class="cls-7" points="42.67 67.71 43.74 65.72 7.54 52.1 2.99 55.21 42.67 67.71"/><path class="cls-6" d="M42.67,68.58l-.26,0L2.72,56a.87.87,0,0,1-.23-1.55l4.56-3.11a.87.87,0,0,1,.8-.09L44.05,64.9a.87.87,0,0,1,.5.51.9.9,0,0,1,0,.72l-1.07,2a.88.88,0,0,1-.77.46M5,54.92,42.24,66.66l.26-.48L7.66,53.08Z"/><path class="cls-8" d="M58.5,74.13l-.21,0L55,73.29,40.44,69.63a.91.91,0,0,1-.57-.46.86.86,0,0,1,0-.72l2-5A.86.86,0,0,1,43,63l16,6.37a.87.87,0,0,1,.51,1.09A4.82,4.82,0,0,0,59.25,72a5.16,5.16,0,0,0,.1,1.06.87.87,0,0,1-.85,1m-3-2.54h0l2.06.51V72a7.34,7.34,0,0,1,.12-1.34l-.17-.07h0l-6.69-2.69-7.59-3-1.33,3.27Z"/><path class="cls-8" d="M40.65,68.78l3.06.77,3.91-3.81-4.93-2-2,5m10.43-1.67-3.51,3.41,3.89,1,3.06-3-3.44-1.37m7.42,6.15A6.28,6.28,0,0,1,58.38,72a6,6,0,0,1,.29-1.87l-.89-.35-2.54,2.64Z"/><path class="cls-1" d="M54.52,68.48l-3.06,3,3.78,1,2.54-2.64-3.26-1.32m-7,2,3.51-3.41-3.46-1.37-3.91,3.81Z"/><path d="M59.94,76.32a.6.6,0,0,1-.47-.22,6.35,6.35,0,0,1,.41-8.51,6.41,6.41,0,0,1,1.12-.9.62.62,0,0,1,.67,1,5.2,5.2,0,0,0-.91.73,5.1,5.1,0,0,0-.34,6.83.62.62,0,0,1-.08.88.58.58,0,0,1-.4.14"/><path class="cls-9" d="M98,3.49,95.81.5a8.91,8.91,0,0,0-4.38,7.67A13.28,13.28,0,0,1,98,3.49M91.43,8.17l0,.17a24.69,24.69,0,0,1,6.67.47V6A16.23,16.23,0,0,0,91.43,8.17Z"/></g></g></svg>