<svg xmlns="http://www.w3.org/2000/svg" viewBox="0 0 99.18 158.86"><defs><style>.cls-1{fill:#83e8d3;}.cls-2{fill:#47d7ac;}.cls-3{fill:#1cb594;}.cls-4{fill:#fff;}</style></defs><g id="레이어_2" data-name="레이어 2"><g id="레이어_1-2" data-name="레이어 1"><path class="cls-1" d="M42,94.91l-6.79-3.55A143.29,143.29,0,0,0,10.76,119.5q-6,9,.22,13.36a6.08,6.08,0,0,0,3.85.95,8.77,8.77,0,0,0,4.65-2.08A20.83,20.83,0,0,0,23.61,127Q28.94,119.13,42,94.91"/><path class="cls-2" d="M14.27,134.91a7.32,7.32,0,0,1-3.86-1.13l-.05,0c-3.21-2.27-5.9-6.69-.49-14.83A144.73,144.73,0,0,1,34.45,90.56a1.08,1.08,0,0,1,1.22-.15L42.46,94a1.05,1.05,0,0,1,.52.63,1,1,0,0,1-.08.82c-8.66,16.11-14.85,27-18.4,32.21a22.15,22.15,0,0,1-4.34,4.94,10,10,0,0,1-5.24,2.32l-.65,0M11.57,132a5,5,0,0,0,3.16.78,7.9,7.9,0,0,0,4.09-1.86,19.92,19.92,0,0,0,3.89-4.45c3.45-5.12,9.43-15.57,17.79-31.09l-5.17-2.7a142.37,142.37,0,0,0-23.67,27.43C6.3,128.16,10.22,131,11.57,132Z"/><path class="cls-1" d="M84.38,133.81a6.13,6.13,0,0,0,3.86-.95q6.18-4.37.21-13.36A143,143,0,0,0,64,91.36l-6.79,3.55q13,24.23,18.36,32.11a20.8,20.8,0,0,0,4.12,4.71,8.84,8.84,0,0,0,4.65,2.08"/><path class="cls-2" d="M84.94,134.91c-.22,0-.43,0-.65,0a9.93,9.93,0,0,1-5.22-2.31,22.09,22.09,0,0,1-4.36-5c-3.54-5.25-9.74-16.09-18.4-32.2a1.06,1.06,0,0,1-.08-.82,1,1,0,0,1,.53-.63l6.79-3.55a1.06,1.06,0,0,1,1.21.15,145.12,145.12,0,0,1,24.59,28.35c5.4,8.14,2.71,12.56-.49,14.83l-.06,0a7.3,7.3,0,0,1-3.86,1.13M58.71,95.35c8.36,15.52,14.34,26,17.78,31.07a20,20,0,0,0,3.93,4.49,7.84,7.84,0,0,0,4,1.84,5.08,5.08,0,0,0,3.18-.78c1.34-.95,5.26-3.81-.09-11.88A142.53,142.53,0,0,0,63.88,92.65Z"/><path class="cls-1" d="M31,128l1.65,23.49a3.88,3.88,0,0,0-2,3.06q-.21,3,4.8,3.15a72.65,72.65,0,0,0,9-.18c2.67-.25,4.12-1.15,4.34-2.72a3.42,3.42,0,0,0-1.1-3.46L48.51,128H31"/><path class="cls-2" d="M38.6,158.86c-1.05,0-2.14,0-3.26-.06-2.42-.09-4.05-.64-5-1.68a3.42,3.42,0,0,1-.84-2.62,4.79,4.79,0,0,1,2-3.52l-1.61-22.87a1.06,1.06,0,0,1,.29-.81A1,1,0,0,1,31,127H48.51a1.08,1.08,0,0,1,1.07,1.11l-.84,22.84A4.59,4.59,0,0,1,49.81,155c-.21,1.45-1.3,3.27-5.31,3.63-1.8.17-3.78.25-5.9.25M32.1,129.1l1.57,22.35a1.06,1.06,0,0,1-.52,1,2.79,2.79,0,0,0-1.5,2.24,1.28,1.28,0,0,0,.29,1c.36.4,1.25.89,3.48,1a70.37,70.37,0,0,0,8.89-.18c2.1-.19,3.24-.8,3.38-1.81.22-1.55-.29-2.14-.69-2.45a1.06,1.06,0,0,1-.42-.89l.81-22.23Z"/><path class="cls-1" d="M66.61,151.52,68.26,128H50.71l.85,23.34a3.44,3.44,0,0,0-1.1,3.46c.23,1.57,1.67,2.47,4.35,2.72a72.53,72.53,0,0,0,9,.18q5-.18,4.8-3.15a3.86,3.86,0,0,0-2-3.06"/><path class="cls-2" d="M60.61,158.86q-3.18,0-5.9-.25c-4-.36-5.1-2.18-5.31-3.63a4.56,4.56,0,0,1,1.08-4.07l-.84-22.84a1,1,0,0,1,.3-.78,1.07,1.07,0,0,1,.77-.33H68.26a1.07,1.07,0,0,1,.79.34,1.09,1.09,0,0,1,.28.81L67.72,151a4.79,4.79,0,0,1,2,3.5,3.44,3.44,0,0,1-.84,2.64c-.93,1-2.57,1.59-5,1.68-1.12,0-2.2.06-3.26.06M51.82,129.1l.81,22.23a1,1,0,0,1-.42.89c-.4.31-.91.9-.69,2.45.15,1,1.28,1.62,3.38,1.81a70.46,70.46,0,0,0,8.89.18c2.23-.08,3.12-.57,3.48-1a1.24,1.24,0,0,0,.29-1,2.74,2.74,0,0,0-1.5-2.22,1.1,1.1,0,0,1-.52-1l1.58-22.35Z"/><path class="cls-1" d="M68.2,101.05,56.09,90.59h-13L31,101.05l-1.29,10q-4.55,7.6-3.21,14.19a15.44,15.44,0,0,0,7.47,10.46,29.84,29.84,0,0,0,11.53,3.45l.21,0,.31,0,.33,0,.25,0,.73.06.83.06.79,0h1.35q1.68,0,3.3-.21l.19,0a30,30,0,0,0,11.53-3.45,15.46,15.46,0,0,0,7.46-10.46q1.35-6.59-3.21-14.19l-1.32-10"/><path class="cls-2" d="M48.9,140.48l-.83,0h0l-1.11-.06-.14,0-.16,0-.22,0-.54-.06h0l-.3,0-.16,0h-.08a31.14,31.14,0,0,1-12-3.6,16.55,16.55,0,0,1-8-11.17c-.95-4.63.18-9.66,3.35-15a1.07,1.07,0,1,1,1.83,1.1c-2.88,4.81-3.92,9.33-3.08,13.42a14.23,14.23,0,0,0,7,9.76,29,29,0,0,0,11.06,3.31,1.12,1.12,0,0,1,.32,0l.23,0h0l2.09.18.77,0h1.31c1,0,2.08-.09,3.1-.2a1.54,1.54,0,0,1,.3,0,29.12,29.12,0,0,0,11.07-3.31,14.25,14.25,0,0,0,7-9.76c.84-4.09-.2-8.61-3.08-13.42a1.07,1.07,0,1,1,1.84-1.1c3.16,5.29,4.29,10.32,3.34,14.95a16.49,16.49,0,0,1-8,11.16,31.07,31.07,0,0,1-11.95,3.61h0l-.15,0c-1.11.12-2.25.2-3.4.22H48.9m-3.58-.3Z"/><path class="cls-3" d="M53.71,116.38l-.21,0a14.34,14.34,0,0,0-7.85,0,.76.76,0,0,1-.41-1.47,15.77,15.77,0,0,1,8.67,0,.76.76,0,0,1-.2,1.5"/><path class="cls-4" d="M71.54,12.38a63.07,63.07,0,0,0-6.76-2.26A56.9,56.9,0,0,0,50.07,8h-1a55.41,55.41,0,0,0-7.59.58,61.62,61.62,0,0,0-13.88,3.76A36.64,36.64,0,0,0,12.72,23.55,32.19,32.19,0,0,0,9.66,28.2c-.31.56-.61,1.13-.89,1.71s-.61,1.29-.88,2A50.85,50.85,0,0,0,4.25,49.52,31.35,31.35,0,0,1,3,57.9Q-3,76.13,9.66,85.7a31.29,31.29,0,0,0,2.78,1.87l.16.09c.79.51,1.62,1,2.47,1.46a61.24,61.24,0,0,0,22.39,7.19l1.69.19a73.71,73.71,0,0,0,10,.73h1a74,74,0,0,0,10-.73l1.68-.19a64.66,64.66,0,0,0,9.91-2,59.39,59.39,0,0,0,12.48-5.17c.9-.48,1.77-1,2.63-1.55a29.89,29.89,0,0,0,2.78-1.87q12.66-9.57,6.67-27.8a31.36,31.36,0,0,1-1.25-8.38,51.56,51.56,0,0,0-3.61-17.65c-.27-.66-.55-1.29-.86-1.9l0-.06-.12-.25a34.37,34.37,0,0,0-3.83-6.11A36.84,36.84,0,0,0,71.54,12.38"/><path class="cls-2" d="M49.12,98.3A75.82,75.82,0,0,1,39,97.56l-1.65-.18a62.91,62.91,0,0,1-22.8-7.32c-.84-.46-1.66-1-2.45-1.45a1.61,1.61,0,0,1-.28-.17A29.9,29.9,0,0,1,9,86.55c-8.8-6.65-11.17-16.4-7-29a30.38,30.38,0,0,0,1.21-8.08,52.35,52.35,0,0,1,3.72-18c.28-.68.59-1.35.91-2s.6-1.19.91-1.76a33.71,33.71,0,0,1,3.16-4.8A37.89,37.89,0,0,1,27.23,11.4,62.88,62.88,0,0,1,41.38,7.56,57.35,57.35,0,0,1,49.11,7h1a58.07,58.07,0,0,1,15,2.12,61,61,0,0,1,6.88,2.3,38.17,38.17,0,0,1,15.4,11.5,35.19,35.19,0,0,1,3.92,6.27c.06.09.1.19.15.28l0,.08c.31.63.61,1.28.88,1.94a53,53,0,0,1,3.69,18,30,30,0,0,0,1.2,8.11c4.13,12.56,1.77,22.31-7,29a28.51,28.51,0,0,1-2.89,1.94c-.84.54-1.75,1.08-2.66,1.58a61.47,61.47,0,0,1-12.69,5.25,65.43,65.43,0,0,1-10.08,2.05l-1.7.19a75,75,0,0,1-10.08.74h-1m-36-11.6.1.06c.77.49,1.59,1,2.42,1.43a60.56,60.56,0,0,0,22,7.06l1.66.18a72.69,72.69,0,0,0,9.86.73h1a73.36,73.36,0,0,0,9.82-.72l1.71-.19a65,65,0,0,0,9.73-2,59.44,59.44,0,0,0,12.26-5.08c.87-.48,1.74-1,2.57-1.53a27.73,27.73,0,0,0,2.71-1.81C97,78.71,99.05,70,95.17,58.23a32.53,32.53,0,0,1-1.3-8.69,50.72,50.72,0,0,0-3.53-17.26c-.26-.63-.53-1.24-.83-1.83v0l0-.11,0-.09,0-.08a33.83,33.83,0,0,0-3.71-5.93A36,36,0,0,0,71.12,13.37a61.25,61.25,0,0,0-6.62-2.22,56.61,56.61,0,0,0-14.44-2h-.94a54.66,54.66,0,0,0-7.43.57A60.78,60.78,0,0,0,28,13.38,35.75,35.75,0,0,0,13.56,24.2a31.87,31.87,0,0,0-3,4.51c-.3.55-.59,1.11-.86,1.67s-.6,1.26-.87,1.9A50,50,0,0,0,5.32,49.56,33,33,0,0,1,4,58.21v0C.14,70,2.2,78.71,10.31,84.85A27.14,27.14,0,0,0,13,86.64Zm.13.11h0Zm-.27-.17ZM3,57.9H3ZM89.52,30.46Zm0-.09Z"/><path class="cls-1" d="M96.19,57.9a31.36,31.36,0,0,1-1.25-8.38A57.57,57.57,0,0,0,93.28,37.8Q82.95,51.29,61.44,52.94a110.15,110.15,0,0,1-11.86.64,110.19,110.19,0,0,1-11.87-.64Q16.23,51.32,5.9,37.83A56.79,56.79,0,0,0,4.25,49.52,31.35,31.35,0,0,1,3,57.9Q-3,76.13,9.66,85.7a31.29,31.29,0,0,0,2.78,1.87l.16.09c.79.51,1.62,1,2.47,1.46a61.24,61.24,0,0,0,22.39,7.19l1.69.19a73.71,73.71,0,0,0,10,.73h1a74,74,0,0,0,10-.73l1.68-.19a64.66,64.66,0,0,0,9.91-2,59.39,59.39,0,0,0,12.48-5.17c.9-.48,1.77-1,2.63-1.55a29.89,29.89,0,0,0,2.78-1.87q12.66-9.57,6.67-27.8"/><path class="cls-2" d="M49.12,98.3A75.82,75.82,0,0,1,39,97.56l-1.65-.18a62.91,62.91,0,0,1-22.8-7.32c-.84-.46-1.66-1-2.45-1.45a1.61,1.61,0,0,1-.28-.17A29.9,29.9,0,0,1,9,86.55c-8.8-6.66-11.17-16.41-7-29a30.54,30.54,0,0,0,1.2-8.07A58.15,58.15,0,0,1,4.86,37.57a1.07,1.07,0,1,1,2.08.53A56,56,0,0,0,5.32,49.56,33,33,0,0,1,4,58.21C.14,70,2.2,78.71,10.31,84.85A27.14,27.14,0,0,0,13,86.64l.08.06.1.06c.77.49,1.59,1,2.42,1.43a60.56,60.56,0,0,0,22,7.06l1.66.18a72.69,72.69,0,0,0,9.86.73h1a73.36,73.36,0,0,0,9.82-.72l1.71-.19a65,65,0,0,0,9.73-2,59.44,59.44,0,0,0,12.26-5.08c.87-.48,1.74-1,2.57-1.53a27.73,27.73,0,0,0,2.71-1.81C97,78.71,99.05,70,95.17,58.23a32.53,32.53,0,0,1-1.3-8.69,56.83,56.83,0,0,0-1.62-11.47,1.07,1.07,0,1,1,2.07-.53A58.93,58.93,0,0,1,96,49.47a30,30,0,0,0,1.2,8.11c4.13,12.56,1.77,22.31-7,29a28.51,28.51,0,0,1-2.89,1.94c-.84.54-1.75,1.08-2.66,1.58a61.47,61.47,0,0,1-12.69,5.25,65.43,65.43,0,0,1-10.08,2.05l-1.7.19a75,75,0,0,1-10.08.74h-1M13.2,86.81h0Zm-.27-.17Z"/><path class="cls-2" d="M49.58,54.35a111.69,111.69,0,0,1-11.95-.65C23.18,52.61,12.29,47.43,5.29,38.3a.78.78,0,0,1,.14-1.08.76.76,0,0,1,1.07.15c6.73,8.77,17.24,13.75,31.27,14.81a112.13,112.13,0,0,0,11.81.64,111.27,111.27,0,0,0,11.78-.64C75.43,51.1,86,46.11,92.68,37.33a.77.77,0,1,1,1.21.94C86.89,47.4,76,52.59,61.5,53.7a111,111,0,0,1-11.92.65"/><path class="cls-4" d="M35.32,17.15a44.38,44.38,0,0,0-3.52-6.27,28.79,28.79,0,0,0-8.59-8.65,8.22,8.22,0,0,0-1.68-.77q-4.71-1.65-7,3.67A17.37,17.37,0,0,0,14,14.58a26.91,26.91,0,0,0,1.78,5.57A31.24,31.24,0,0,0,18,24.46a31.81,31.81,0,0,0,17.31-7.31"/><path class="cls-2" d="M8.77,31a1,1,0,0,1-.46-.11,1.06,1.06,0,0,1-.5-1.43c.29-.59.6-1.19.91-1.76a33.71,33.71,0,0,1,3.16-4.8,33,33,0,0,1,2.6-3,28.9,28.9,0,0,1-1.56-5.12,18.4,18.4,0,0,1,.63-10C15.76-.45,19.3-.45,21.88.45a9.7,9.7,0,0,1,1.87.85,29.94,29.94,0,0,1,8.51,8.32,63.85,63.85,0,0,1,7.62-1.83,1.08,1.08,0,0,1,.37,2.12,59.5,59.5,0,0,0-8.08,2l-.24,0a1.17,1.17,0,0,1-.46,0,1.28,1.28,0,0,1-.4-.25l-.15-.19a28,28,0,0,0-8.28-8.32,6.38,6.38,0,0,0-1.43-.65c-1.79-.63-4-.84-5.67,3.06A16.3,16.3,0,0,0,15,14.37a26.34,26.34,0,0,0,1.7,5.35l.07.19a1.19,1.19,0,0,1,0,.46,1,1,0,0,1-.19.43l-.13.15a32.33,32.33,0,0,0-5.88,7.76c-.3.55-.59,1.11-.86,1.67a1.08,1.08,0,0,1-1,.6"/><path class="cls-4" d="M84.51,14.65a17.26,17.26,0,0,0-.59-9.45Q81.67-.12,77,1.52a8.22,8.22,0,0,0-1.68.77A29,29,0,0,0,66.8,10.7a47.08,47.08,0,0,0-3.64,6.52,32,32,0,0,0,17.31,7.31A32.12,32.12,0,0,0,83,19.69a26.59,26.59,0,0,0,1.56-5"/><path class="cls-2" d="M90.44,31a1.07,1.07,0,0,1-1-.67l0-.09,0-.08a33.83,33.83,0,0,0-3.71-5.93,33.26,33.26,0,0,0-3.4-3.72l-.14-.15a1,1,0,0,1-.19-.42.9.9,0,0,1,0-.46l.06-.2a26.29,26.29,0,0,0,1.48-4.83,16.32,16.32,0,0,0-.54-8.87c-1.64-3.85-3.86-3.64-5.61-3a7.22,7.22,0,0,0-1.5.67,27.94,27.94,0,0,0-8.1,8.09l-.15.18a1,1,0,0,1-.4.25,1,1,0,0,1-.46,0l-.23,0c-.65-.21-1.31-.4-2-.58A57.45,57.45,0,0,0,53.08,9.21a1.06,1.06,0,0,1-1-1.13,1.08,1.08,0,0,1,1.13-1,58.66,58.66,0,0,1,11.84,2l1.32.37A29.7,29.7,0,0,1,74.7,1.38,9.56,9.56,0,0,1,76.64.5c2.54-.89,6.07-.89,8.27,4.28a18.61,18.61,0,0,1,.65,10.08,28.8,28.8,0,0,1-1.34,4.56,34.18,34.18,0,0,1,3.12,3.47,35.19,35.19,0,0,1,3.92,6.27,1.62,1.62,0,0,1,.17.35,1.06,1.06,0,0,1-.59,1.39,1.14,1.14,0,0,1-.4.08"/><path class="cls-3" d="M50.62,68.05a1.28,1.28,0,0,0,.45-1A1.48,1.48,0,0,0,50.62,66a1.41,1.41,0,0,0-1-.4,1.59,1.59,0,0,0-1.07.4,1.56,1.56,0,0,0-.4,1.07,1.34,1.34,0,0,0,.4,1,1.44,1.44,0,0,0,1.07.46,1.28,1.28,0,0,0,1-.46"/><path class="cls-3" d="M50.62,73.43a1.28,1.28,0,0,0,.45-1,1.5,1.5,0,0,0-.45-1.07,1.4,1.4,0,0,0-1-.39,1.36,1.36,0,0,0-1.47,1.46,1.34,1.34,0,0,0,.4,1,1.44,1.44,0,0,0,1.07.46,1.28,1.28,0,0,0,1-.46"/><path class="cls-3" d="M50.62,78.82a1.29,1.29,0,0,0,.45-1,1.47,1.47,0,0,0-.45-1.07,1.37,1.37,0,0,0-1-.4,1.38,1.38,0,0,0-1.47,1.47,1.36,1.36,0,0,0,.4,1,1.48,1.48,0,0,0,1.07.46,1.32,1.32,0,0,0,1-.46"/><path class="cls-3" d="M44.6,76.5a1.28,1.28,0,0,0,1.11-.11,1.44,1.44,0,0,0,.69-.93,1.32,1.32,0,0,0-.16-1.07,1.36,1.36,0,0,0-2-.54,1.39,1.39,0,0,0-.68.85,1.47,1.47,0,0,0,.14,1.15,1.3,1.3,0,0,0,.9.65"/><path class="cls-3" d="M43.56,70.1a1.26,1.26,0,0,0,.65.9,1.43,1.43,0,0,0,1.15.14,1.36,1.36,0,0,0,.85-.68,1.52,1.52,0,0,0,.19-1.12,1.55,1.55,0,0,0-.73-.88,1.36,1.36,0,0,0-1.07-.16,1.42,1.42,0,0,0-.93.7,1.26,1.26,0,0,0-.11,1.1"/><path class="cls-3" d="M54.58,76.5a1.26,1.26,0,0,1-1.1-.11,1.42,1.42,0,0,1-.7-.93,1.32,1.32,0,0,1,.16-1.07,1.37,1.37,0,0,1,2-.54,1.36,1.36,0,0,1,.68.85,1.47,1.47,0,0,1-.14,1.15,1.26,1.26,0,0,1-.9.65"/><path class="cls-3" d="M55.62,70.1A1.27,1.27,0,0,1,55,71a1.46,1.46,0,0,1-1.16.14,1.36,1.36,0,0,1-.85-.68,1.57,1.57,0,0,1-.19-1.12,1.59,1.59,0,0,1,.73-.88,1.36,1.36,0,0,1,1.07-.16,1.42,1.42,0,0,1,.93.7,1.26,1.26,0,0,1,.11,1.1"/></g></g></svg>