<svg xmlns="http://www.w3.org/2000/svg" viewBox="0 0 270 244.24"><defs><style>.cls-1{fill:#83e8d3;}.cls-2{fill:#47d7ac;}.cls-3{fill:#927875;}.cls-4{fill:#7c6563;}.cls-5{fill:#fff;}.cls-6{fill:#ccdfe3;}.cls-7{fill:#e2f0f3;}.cls-8{fill:#6d7aa8;}.cls-9{fill:#282c40;}.cls-10{fill:#fce7c2;}.cls-11{fill:#522f00;}</style></defs><g id="레이어_2" data-name="레이어 2"><g id="레이어_1-2" data-name="레이어 1"><g id="Layer3_2_MEMBER_1_FILL" data-name="Layer3 2 MEMBER 1 FILL"><path class="cls-1" d="M150.78,179.18q1-27.36-10.81-56.31H99.09l-7.8,56.31Z"/></g><g id="Layer3_2_MEMBER_1_1_STROKES" data-name="Layer3 2 MEMBER 1 1 STROKES"><path class="cls-2" d="M150.78,180.57H91.29a1.39,1.39,0,0,1-1.05-.48,1.41,1.41,0,0,1-.33-1.1l7.8-56.31a1.38,1.38,0,0,1,1.38-1.2H140a1.38,1.38,0,0,1,1.28.87c7.94,19.39,11.62,38.53,10.92,56.88A1.39,1.39,0,0,1,150.78,180.57Zm-57.89-2.78h56.54c.45-17.27-3.05-35.27-10.4-53.53H100.3Z"/></g><g id="Layer3_2_MEMBER_2_FILL" data-name="Layer3 2 MEMBER 2 FILL"><path class="cls-1" d="M118.09,209.65q.43-3.06-1.43-4.49l1.11-30.34H95l2.14,30.54a5,5,0,0,0-2.62,4q-.28,3.85,6.24,4.1a92,92,0,0,0,11.73-.24Q117.66,212.71,118.09,209.65Z"/></g><g id="Layer3_2_MEMBER_2_1_STROKES" data-name="Layer3 2 MEMBER 2 1 STROKES"><path class="cls-2" d="M104.89,214.9c-1.36,0-2.78,0-4.23-.08-3.15-.12-5.28-.83-6.49-2.19a4.39,4.39,0,0,1-1.09-3.4,6.24,6.24,0,0,1,2.57-4.58l-2.09-29.74a1.34,1.34,0,0,1,.37-1,1.39,1.39,0,0,1,1-.44h22.82a1.38,1.38,0,0,1,1,.42,1.34,1.34,0,0,1,.39,1l-1.09,29.69a6,6,0,0,1,1.4,5.29c-.27,1.89-1.69,4.25-6.9,4.73C110.22,214.79,107.65,214.9,104.89,214.9Zm-8.45-38.69,2,29a1.38,1.38,0,0,1-.67,1.29,3.62,3.62,0,0,0-2,2.91,1.63,1.63,0,0,0,.39,1.31c.46.52,1.63,1.16,4.52,1.27a91.13,91.13,0,0,0,11.56-.24c2.73-.25,4.2-1,4.39-2.35.29-2-.37-2.79-.9-3.19a1.36,1.36,0,0,1-.54-1.15l1.06-28.9Z"/></g><path class="cls-1" d="M101.81,142.53l-7.39-3.86a156.23,156.23,0,0,0-26.59,30.64q-6.49,9.8.24,14.56a6.63,6.63,0,0,0,4.2,1,9.66,9.66,0,0,0,5.06-2.26,23.19,23.19,0,0,0,4.5-5.13q5.79-8.59,20-35"/><path class="cls-2" d="M71.65,186.1a7.91,7.91,0,0,1-4.19-1.24l-.07,0c-3.49-2.47-6.41-7.28-.53-16.15A157.84,157.84,0,0,1,93.64,137.8a1.17,1.17,0,0,1,1.32-.17l7.39,3.87a1.14,1.14,0,0,1,.58.69,1.15,1.15,0,0,1-.09.89c-9.44,17.54-16.18,29.35-20,35.08a24,24,0,0,1-4.72,5.38,10.89,10.89,0,0,1-5.71,2.53c-.24,0-.47,0-.71,0m-2.94-3.2a5.46,5.46,0,0,0,3.45.84,8.52,8.52,0,0,0,4.45-2,21.65,21.65,0,0,0,4.24-4.85c3.76-5.57,10.27-17,19.38-33.85l-5.63-2.94A154.35,154.35,0,0,0,68.81,170C63,178.75,67.24,181.86,68.71,182.9Z"/><g id="Layer3_2_MEMBER_3_FILL" data-name="Layer3 2 MEMBER 3 FILL"><path class="cls-1" d="M141.31,205.36l2.15-30.54H120.63l1.12,30.34q-1.87,1.43-1.43,4.49t5.64,3.54a92.05,92.05,0,0,0,11.73.24q6.52-.24,6.25-4.1A5,5,0,0,0,141.31,205.36Z"/></g><g id="Layer3_2_MEMBER_3_1_STROKES" data-name="Layer3 2 MEMBER 3 1 STROKES"><path class="cls-2" d="M133.51,214.9c-2.75,0-5.32-.11-7.67-.32-5.21-.48-6.63-2.84-6.9-4.73a6,6,0,0,1,1.39-5.29l-1.09-29.69a1.42,1.42,0,0,1,.39-1,1.4,1.4,0,0,1,1-.42h22.83a1.41,1.41,0,0,1,1,.44,1.42,1.42,0,0,1,.37,1l-2.09,29.74a6.23,6.23,0,0,1,2.56,4.55,4.42,4.42,0,0,1-1.08,3.43c-1.22,1.36-3.34,2.07-6.5,2.19C136.29,214.87,134.88,214.9,133.51,214.9Zm-11.43-38.69,1.06,28.9a1.39,1.39,0,0,1-.55,1.15c-.52.4-1.19,1.17-.9,3.19.19,1.31,1.67,2.1,4.4,2.35a91,91,0,0,0,11.55.24c2.9-.11,4.06-.75,4.53-1.27a1.67,1.67,0,0,0,.38-1.34,3.64,3.64,0,0,0-2-2.88,1.41,1.41,0,0,1-.68-1.29l2.05-29Z"/></g><g id="Layer3_2_MEMBER_4_MEMBER_0_FILL" data-name="Layer3 2 MEMBER 4 MEMBER 0 FILL"><path class="cls-3" d="M108.83,135.36h-7.6a90.55,90.55,0,0,0-4,24.46h7.95A136.33,136.33,0,0,1,108.83,135.36Z"/></g><g id="Layer3_2_MEMBER_4_MEMBER_0_1_STROKES" data-name="Layer3 2 MEMBER 4 MEMBER 0 1 STROKES"><path class="cls-4" d="M105.13,161.21H97.18a1.38,1.38,0,0,1-1.39-1.43,91.8,91.8,0,0,1,4.12-24.84,1.38,1.38,0,0,1,1.32-1h7.6a1.39,1.39,0,0,1,1.35,1.72,136.13,136.13,0,0,0-3.66,24.2A1.39,1.39,0,0,1,105.13,161.21Zm-6.51-2.79h5.2a139,139,0,0,1,3.25-21.67h-4.81A89.57,89.57,0,0,0,98.62,158.42Z"/></g><g id="Layer3_2_MEMBER_4_MEMBER_1_FILL" data-name="Layer3 2 MEMBER 4 MEMBER 1 FILL"><path class="cls-3" d="M139.81,135.52h-6.68q-3.42,12-2.95,18.61H94.47l-11.13,6.92,5.25,8.83a226.64,226.64,0,0,0-3.26,34.19q14,3.51,50,3.42,12.85-.24,19.89-4.21a222.27,222.27,0,0,0-2.55-34Q133,164.39,139.81,135.52Z"/></g><g id="Layer3_2_MEMBER_4_MEMBER_1_1_STROKES" data-name="Layer3 2 MEMBER 4 MEMBER 1 1 STROKES"><path class="cls-4" d="M133.82,208.89c-23.25,0-39.66-1.17-48.83-3.47a1.38,1.38,0,0,1-1-1.37,229.28,229.28,0,0,1,3.19-33.9l-5-8.39a1.39,1.39,0,0,1,.47-1.89L93.74,153a1.35,1.35,0,0,1,.73-.21h34.26c0-4.42,1-10.2,3.06-17.6a1.38,1.38,0,0,1,1.34-1h6.68a1.39,1.39,0,0,1,1.35,1.71c-4.39,18.53-.51,29,11.87,32.13a1.39,1.39,0,0,1,1,1.15,224.9,224.9,0,0,1,2.56,34.17,1.42,1.42,0,0,1-.71,1.2c-4.87,2.75-11.78,4.23-20.54,4.4ZM86.74,203c9.36,2.12,25.73,3.19,48.61,3.12,7.84-.14,14.07-1.37,18.5-3.65a222.76,222.76,0,0,0-2.4-32c-12.88-3.67-17.38-14.94-13.38-33.52h-3.89c-2,7.35-2.9,13.11-2.61,17.12a1.39,1.39,0,0,1-1.39,1.49H94.87l-9.64,6,4.56,7.65a1.43,1.43,0,0,1,.17,1A226.36,226.36,0,0,0,86.74,203Z"/></g><path class="cls-5" d="M86.85,18.16a12.42,12.42,0,0,0-2.21-1Q78.46,15,75.5,22a22.42,22.42,0,0,0-.76,12.35,39.08,39.08,0,0,0,5.29,13,41.75,41.75,0,0,0,22.69-9.59Q96.39,24.13,86.85,18.16"/><path class="cls-2" d="M80,48.71a1.41,1.41,0,0,1-1.19-.66,40.78,40.78,0,0,1-5.48-13.44,24.05,24.05,0,0,1,.82-13.12c2.9-6.83,7.53-6.85,10.92-5.68A12.69,12.69,0,0,1,87.56,17c6.6,4.13,12.11,10.91,16.43,20.18a1.41,1.41,0,0,1-.36,1.67,43.32,43.32,0,0,1-23.44,9.9H80M81.9,18c-1.77,0-3.62,1-5.11,4.5a21.17,21.17,0,0,0-.67,11.54A37.16,37.16,0,0,0,80.76,45.8,40.52,40.52,0,0,0,101,37.34c-4-8.27-9-14.32-14.88-18a9.91,9.91,0,0,0-1.89-.88A7.18,7.18,0,0,0,81.9,18Z"/><path class="cls-5" d="M167.19,34.44a22.65,22.65,0,0,0-.77-12.39q-3-7-9.14-4.81a10.51,10.51,0,0,0-2.2,1q-9.54,6-15.88,19.57a41.84,41.84,0,0,0,22.69,9.58,39.17,39.17,0,0,0,5.3-13"/><path class="cls-2" d="M161.89,48.79h-.16a43.36,43.36,0,0,1-23.43-9.9,1.4,1.4,0,0,1-.37-1.67c4.32-9.27,9.84-16,16.4-20.16a11.84,11.84,0,0,1,2.54-1.15c3.33-1.17,8-1.16,10.85,5.6a24.23,24.23,0,0,1,.84,13.21,40.61,40.61,0,0,1-5.47,13.42,1.42,1.42,0,0,1-1.2.66M140.94,37.42a40.56,40.56,0,0,0,20.23,8.46,37.24,37.24,0,0,0,4.64-11.72,21.35,21.35,0,0,0-.71-11.63c-2.14-5-5-4.77-7.35-4a9.34,9.34,0,0,0-2,.89C150,23.11,145,29.15,140.94,37.42Z"/><path class="cls-5" d="M174.8,54.12q-7.61-15.39-24.61-22.65A77.87,77.87,0,0,0,122,25.78H120.8a77.86,77.86,0,0,0-28.14,5.69Q74.09,39.39,66.72,57A67.71,67.71,0,0,0,62,80.14a41,41,0,0,1-1.64,11Q52.49,115,69.09,127.57A38.42,38.42,0,0,0,72.73,130l.16.12c1.09.68,2.18,1.32,3.29,1.93a80.53,80.53,0,0,0,29.35,9.42l2.2.24a98.46,98.46,0,0,0,13.07,1H122a98.33,98.33,0,0,0,13.07-1l2.21-.24a85.4,85.4,0,0,0,13-2.65,78,78,0,0,0,16.36-6.77c1.17-.64,2.32-1.33,3.44-2.05a37.35,37.35,0,0,0,3.65-2.44Q190.37,115,182.5,91.13a40.65,40.65,0,0,1-1.64-11q-.66-15.06-6.06-26"/><path class="cls-2" d="M120.8,144.08a97.86,97.86,0,0,1-13.26-1l-2.17-.24a82.11,82.11,0,0,1-29.87-9.59c-1.12-.61-2.25-1.27-3.34-2l-.19-.13a36.79,36.79,0,0,1-3.73-2.51C56.7,120,53.59,107.18,59,90.7a40.21,40.21,0,0,0,1.58-10.6,68.81,68.81,0,0,1,4.86-23.63c5-12,14-20.88,26.66-26.29a79.87,79.87,0,0,1,28.68-5.81H122a79.71,79.71,0,0,1,28.66,5.8c11.64,5,20.16,12.81,25.36,23.33,3.67,7.44,5.76,16.39,6.2,26.58a39.51,39.51,0,0,0,1.58,10.63c5.42,16.46,2.31,29.25-9.23,38a40.08,40.08,0,0,1-3.78,2.53c-1.11.71-2.3,1.41-3.49,2.07a79.41,79.41,0,0,1-16.64,6.89,86.82,86.82,0,0,1-13.21,2.69l-2.23.24a96.55,96.55,0,0,1-13.21,1H120.8m0-116.9a76.79,76.79,0,0,0-27.62,5.59C81.24,37.87,72.77,46.21,68,57.55A65.91,65.91,0,0,0,63.39,80.2a42.63,42.63,0,0,1-1.7,11.34v0C56.6,107,59.3,118.41,69.93,126.45a35.88,35.88,0,0,0,3.52,2.35l.27.18c1,.63,2.06,1.26,3.13,1.84a79.26,79.26,0,0,0,28.85,9.26l2.18.24a97,97,0,0,0,12.93,1H122a97.29,97.29,0,0,0,12.88-.95l2.24-.25a83.59,83.59,0,0,0,12.76-2.6A76.25,76.25,0,0,0,166,130.83c1.15-.63,2.28-1.3,3.37-2a36.09,36.09,0,0,0,3.56-2.38c10.64-8,13.33-19.45,8.26-34.89a42.51,42.51,0,0,1-1.72-11.38C179,70.4,177,61.83,173.54,54.74c-4.89-9.9-12.94-17.3-23.9-22A76.72,76.72,0,0,0,122,27.18Zm-60.45,64Z"/><path class="cls-1" d="M168.47,98.18c.27,1,.56,1.9.88,2.81a75.47,75.47,0,0,0,10.71,20.28q8.49-11.65,2.44-30.14a40.65,40.65,0,0,1-1.64-11q-.17-3.65-.6-7.06a67.33,67.33,0,0,0-9.71,10.51q-4.17,5.49-2.08,14.59"/><path class="cls-1" d="M180.06,122.27a1,1,0,0,1-.82-.41,77.43,77.43,0,0,1-10.84-20.55c-.32-.92-.63-1.88-.9-2.86-1.46-6.39-.7-11.58,2.26-15.47a68,68,0,0,1,9.83-10.64,1,1,0,0,1,1.33,1.49,67.14,67.14,0,0,0-9.56,10.35c-2.59,3.41-3.23,8-1.91,13.78.24.89.53,1.81.85,2.69a74.72,74.72,0,0,0,10.57,20,1,1,0,0,1-.81,1.59"/><path class="cls-2" d="M180.05,122.67a1.39,1.39,0,0,1-1.13-2.22c5.36-7.36,6.11-17.08,2.25-28.89a42.13,42.13,0,0,1-1.71-11.38c-.11-2.36-.31-4.69-.6-6.92a1.41,1.41,0,0,1,2.79-.36c.29,2.3.5,4.72.61,7.18a39.51,39.51,0,0,0,1.58,10.63c4.16,12.69,3.27,23.26-2.65,31.39a1.42,1.42,0,0,1-1.14.57"/><path class="cls-1" d="M62.59,73c-.29,2.28-.49,4.64-.6,7.1a41,41,0,0,1-1.64,11q-6.1,18.47,2.48,30.18A76.42,76.42,0,0,0,73.54,101c.32-.91.61-1.85.88-2.81q2.08-9.11-2.09-14.59A67.65,67.65,0,0,0,62.59,73"/><path class="cls-1" d="M62.83,122.31a1,1,0,0,1-.81-1.59,75.72,75.72,0,0,0,10.57-20c.31-.9.6-1.82.86-2.76,1.31-5.69.66-10.32-1.92-13.72a66.69,66.69,0,0,0-9.6-10.4,1,1,0,1,1,1.33-1.49A68.21,68.21,0,0,1,73.14,83c3,3.87,3.71,9.06,2.26,15.4-.29,1-.59,2-.92,2.92A77.76,77.76,0,0,1,63.64,121.9a1,1,0,0,1-.81.41"/><path class="cls-2" d="M62.83,122.71a1.39,1.39,0,0,1-1.13-.57c-6-8.15-6.88-18.74-2.69-31.45A40,40,0,0,0,60.59,80.1c.11-2.51.31-4.94.61-7.23a1.4,1.4,0,1,1,2.78.35c-.28,2.22-.48,4.57-.59,7a42.63,42.63,0,0,1-1.7,11.34c-3.9,11.83-3.13,21.56,2.27,28.94a1.39,1.39,0,0,1-.3,2,1.35,1.35,0,0,1-.83.27"/><path d="M104.93,94.49a14,14,0,0,0,1.48-6.69,14.24,14.24,0,0,0-1.48-6.74c-1-1.84-2.2-2.76-3.61-2.76s-2.62.92-3.61,2.76a14,14,0,0,0-1.52,6.74,13.72,13.72,0,0,0,1.52,6.69q1.49,2.85,3.61,2.85c1.41,0,2.62-1,3.61-2.85"/><path class="cls-1" d="M103.92,69.72l.09,0a2.53,2.53,0,0,0,2.08-.57,2.49,2.49,0,0,0,1.16-1.8,2.84,2.84,0,0,0-.48-2.16,2.6,2.6,0,0,0-1.68-1.17L94.34,62.18a2.73,2.73,0,0,0-2,.48,2.88,2.88,0,0,0-1.16,1.88,2.68,2.68,0,0,0,.44,2.09,2.77,2.77,0,0,0,1.52,1.16l.2,0,10.62,1.89"/><path class="cls-2" d="M104.46,70.8a3.36,3.36,0,0,1-.63-.06l-.22-.06L93.19,68.83a1.34,1.34,0,0,1-.44-.1,3.81,3.81,0,0,1-2-1.54,3.63,3.63,0,0,1-.6-2.81,3.89,3.89,0,0,1,1.55-2.52,3.71,3.71,0,0,1,2.78-.67l10.78,1.89a3.59,3.59,0,0,1,2.35,1.6,3.87,3.87,0,0,1,.63,2.89A3.49,3.49,0,0,1,106.67,70a3.58,3.58,0,0,1-2.21.79m-.54-.08Zm0,0Zm-.62-.25Zm1-1.68a1.62,1.62,0,0,0,1.15-.38l.09-.07a1.49,1.49,0,0,0,.7-1.11,1.92,1.92,0,0,0-.33-1.46,1.64,1.64,0,0,0-1.06-.73l-10.7-1.87a1.75,1.75,0,0,0-1.3.31,1.88,1.88,0,0,0-.75,1.23,1.75,1.75,0,0,0,.28,1.35,1.87,1.87,0,0,0,1,.77h.09l10.58,1.87ZM93.55,66.9Z"/><path d="M136.4,87.8a13.72,13.72,0,0,0,1.52,6.69q1.49,2.85,3.61,2.85c1.41,0,2.62-1,3.61-2.85a13.72,13.72,0,0,0,1.52-6.69,14,14,0,0,0-1.52-6.74c-1-1.84-2.2-2.76-3.61-2.76s-2.62.92-3.61,2.76a14,14,0,0,0-1.52,6.74"/><path class="cls-1" d="M150.55,62.66a2.75,2.75,0,0,0-2.05-.48l-10.74,1.88a2.6,2.6,0,0,0-1.68,1.17,2.89,2.89,0,0,0-.49,2.16,3,3,0,0,0,3.25,2.37l.08,0,10.63-1.89.2,0a2.77,2.77,0,0,0,1.52-1.16,2.68,2.68,0,0,0,.44-2.09,2.88,2.88,0,0,0-1.16-1.88"/><path class="cls-2" d="M138.39,70.8a3.58,3.58,0,0,1-2.21-.79,3.49,3.49,0,0,1-1.57-2.45,3.85,3.85,0,0,1,.63-2.88,3.54,3.54,0,0,1,2.3-1.59l10.79-1.9a3.75,3.75,0,0,1,2.79.65,3.9,3.9,0,0,1,1.58,2.53,3.69,3.69,0,0,1-.61,2.83,3.78,3.78,0,0,1-2,1.53,1.34,1.34,0,0,1-.45.1l-10.41,1.85-.22.06a3.36,3.36,0,0,1-.63.06m.53-.08Zm.63-.25h0Zm9.4-7.32-.3,0-10.72,1.88a1.59,1.59,0,0,0-1,.72,1.9,1.9,0,0,0-.34,1.44,1.5,1.5,0,0,0,.71,1.13l.09.07a1.52,1.52,0,0,0,1.15.38l.25-.07,10.59-1.87h.09a1.84,1.84,0,0,0,1-.76,1.7,1.7,0,0,0,.28-1.36,1.88,1.88,0,0,0-.77-1.25A1.69,1.69,0,0,0,149,63.15Zm.35,3.75h0Z"/><path d="M121.44,113.9a14.2,14.2,0,0,1-8.31-2.43,8.09,8.09,0,0,1-3.32-4.36,1,1,0,0,1,.7-1.24,1,1,0,0,1,1.23.7,6.14,6.14,0,0,0,2.54,3.26,12.24,12.24,0,0,0,7.16,2.06,12,12,0,0,0,7.12-2.06,6,6,0,0,0,2.58-3.26,1,1,0,1,1,1.93.54,8,8,0,0,1-3.36,4.36,14,14,0,0,1-8.27,2.43"/><path class="cls-3" d="M107.11,4Q97,8.43,95.53,16.64L92.24,33.19l21.57-8.62H129l21.57,8.62-3.29-16.55Q145.81,8.42,135.74,4a29.08,29.08,0,0,0-3.13-1.16,45.07,45.07,0,0,0-22.37,0A28.31,28.31,0,0,0,107.11,4"/><path class="cls-4" d="M92.24,34.6a1.41,1.41,0,0,1-1.38-1.68l3.29-16.56c1.1-5.92,5.27-10.52,12.39-13.67a28.5,28.5,0,0,1,3.29-1.22A47,47,0,0,1,121.42,0,47.54,47.54,0,0,1,133,1.44a33.39,33.39,0,0,1,3.35,1.24c7.13,3.16,11.3,7.76,12.4,13.7L152,32.92a1.41,1.41,0,0,1-1.9,1.58L128.77,26H114.08L92.76,34.5a1.6,1.6,0,0,1-.52.1M121.42,2.81a44.41,44.41,0,0,0-10.84,1.36,27.62,27.62,0,0,0-2.91,1.08c-6.31,2.8-9.83,6.6-10.76,11.64l-2.79,14,19.17-7.66a1.5,1.5,0,0,1,.52-.1H129a1.5,1.5,0,0,1,.52.1l19.17,7.66-2.78-14c-.94-5.06-4.47-8.86-10.78-11.66a27.45,27.45,0,0,0-3-1.1A44.45,44.45,0,0,0,121.42,2.81Z"/><path class="cls-3" d="M150.37,36.72q3.69-2.76-3.85-8.5-9.78-7.09-19.4-7.73c-1.9-.19-3.8-.29-5.7-.29s-3.79.1-5.69.29q-9.62.63-19.4,7.73-7.55,5.74-3.85,8.5,4.41,3,9-1.44a23,23,0,0,1,15.67-7.38,37.83,37.83,0,0,1,4.25-.16,37.65,37.65,0,0,1,4.25.16,23.07,23.07,0,0,1,15.68,7.38q4.6,4.45,9,1.44"/><path class="cls-4" d="M96.06,39.33a7.69,7.69,0,0,1-4.37-1.45l0,0a4,4,0,0,1-1.78-3.24c0-2.19,1.78-4.57,5.62-7.49,6.73-4.89,13.51-7.58,20.16-8a59.26,59.26,0,0,1,11.61,0c6.61.44,13.39,3.13,20.09,8C151.21,30,153,32.41,153,34.6a4,4,0,0,1-1.77,3.24c-2.49,1.71-6.35,2.78-10.84-1.55a21.81,21.81,0,0,0-14.79-7,38.31,38.31,0,0,0-4.13-.16,37.62,37.62,0,0,0-4.14.16,21.8,21.8,0,0,0-14.79,6.94c-2.38,2.3-4.56,3.09-6.46,3.09m26.1-13c1.19,0,2.43.06,3.64.18a24.47,24.47,0,0,1,16.57,7.8c3.35,3.24,5.72,2.27,7.21,1.25a1.19,1.19,0,0,0,.6-1c0-.55-.44-2.15-4.51-5.25-6.25-4.53-12.53-7-18.65-7.45a56.14,56.14,0,0,0-11.15,0c-6.16.41-12.45,2.93-18.72,7.48-4.05,3.08-4.48,4.68-4.48,5.23,0,.24.07.57.63,1,1.49,1,3.85,2,7.22-1.31a24.46,24.46,0,0,1,16.56-7.77,39.53,39.53,0,0,1,4.37-.16Z"/><path class="cls-5" d="M119.78,14.43a2.36,2.36,0,0,1,1.72-.72,2.45,2.45,0,0,1,1.73.68,2.41,2.41,0,0,1,.72,1.77v.28h2.89v-.32A5.19,5.19,0,0,0,126.4,14a5.1,5.1,0,0,0-1.13-1.72,5.25,5.25,0,0,0-3.81-1.57,4.92,4.92,0,0,0-3.72,1.61,5.36,5.36,0,0,0-1.17,1.72,5.84,5.84,0,0,0-.4,2.13v.28h2.89v-.32a2.36,2.36,0,0,1,.72-1.73"/><rect class="cls-6" x="198.35" y="124.4" width="58.47" height="36.39"/><path class="cls-7" d="M258.34,133.09H196.83a4.23,4.23,0,0,1-4.15-3.39l-5-24.63a4.23,4.23,0,0,1,4.15-5.07h71.53a4.24,4.24,0,0,1,4.15,5.07l-5,24.63A4.24,4.24,0,0,1,258.34,133.09Z"/><path class="cls-7" d="M247.11,136.39H208.05a4.07,4.07,0,0,1-3.51-1.8l-4.32-7.25H255l-4.33,7.25A4,4,0,0,1,247.11,136.39Z"/><path class="cls-7" d="M264.35,171.72H190.82a1.77,1.77,0,0,1-1.67-2.4l3.4-9.13a4,4,0,0,1,3.69-2.56h62.69a3.92,3.92,0,0,1,3.68,2.56l3.41,9.13A1.78,1.78,0,0,1,264.35,171.72Z"/><polygon class="cls-8" points="215.91 145.17 214.24 145.17 212.99 142.77 217.16 142.77 215.91 145.17"/><path class="cls-9" d="M219.38,143.38l-3.1.33a11.71,11.71,0,0,1-2.58,0l-2.94-.32a1.27,1.27,0,0,1-1.14-1.27V139.4h10.9v2.71A1.28,1.28,0,0,1,219.38,143.38Z"/><path class="cls-8" d="M220,141l-3.55.38a14,14,0,0,1-3,0l-3.36-.37a1.45,1.45,0,0,1-1.31-1.45v-3.11h12.5v3.1A1.46,1.46,0,0,1,220,141Z"/><polygon class="cls-9" points="224.25 142.75 218.31 142.63 218.31 141.64 224.25 141.52 224.25 142.75"/><path class="cls-9" d="M228.16,143.38l-5.26-.22a1.1,1.1,0,0,1-1-1.09h0a1.1,1.1,0,0,1,1-1.09l5.26-.22a1.08,1.08,0,0,1,1.13,1.09v.45A1.08,1.08,0,0,1,228.16,143.38Z"/><polygon class="cls-8" points="237.64 145.17 235.97 145.17 234.72 142.77 238.89 142.77 237.64 145.17"/><path class="cls-9" d="M241.12,143.38l-3.1.33a11.8,11.8,0,0,1-2.59,0l-2.94-.32a1.27,1.27,0,0,1-1.13-1.27V139.4h10.9v2.71A1.28,1.28,0,0,1,241.12,143.38Z"/><path class="cls-8" d="M241.75,141l-3.56.38a14,14,0,0,1-3,0l-3.37-.37a1.45,1.45,0,0,1-1.3-1.45v-3.11h12.5v3.1A1.47,1.47,0,0,1,241.75,141Z"/><polygon class="cls-9" points="245.99 142.75 240.04 142.63 240.04 141.64 245.99 141.52 245.99 142.75"/><path class="cls-9" d="M249.89,143.38l-5.26-.22a1.1,1.1,0,0,1-1-1.09h0a1.1,1.1,0,0,1,1-1.09l5.26-.22a1.09,1.09,0,0,1,1.14,1.09v.45A1.08,1.08,0,0,1,249.89,143.38Z"/><path class="cls-8" d="M202.45,111.5a4.49,4.49,0,1,1,0-6.35A4.48,4.48,0,0,1,202.45,111.5Z"/><path class="cls-9" d="M195.74,111.87h0a.86.86,0,0,1,0-1.24l5.85-5.85a.88.88,0,0,1,1.24,0h0a.88.88,0,0,1,0,1.24L197,111.87A.88.88,0,0,1,195.74,111.87Z"/><rect class="cls-9" x="241.42" y="108.69" width="19.35" height="7.01"/><path class="cls-9" d="M201,126.34a1.63,1.63,0,1,1-1.63-1.63A1.63,1.63,0,0,1,201,126.34Z"/><path class="cls-8" d="M207.24,126.34a1.63,1.63,0,1,1-1.63-1.63A1.63,1.63,0,0,1,207.24,126.34Z"/><path class="cls-9" d="M213.45,126.34a1.63,1.63,0,1,1-1.63-1.63A1.63,1.63,0,0,1,213.45,126.34Z"/><rect class="cls-9" x="214.46" y="108.34" width="22.23" height="1.4"/><rect class="cls-9" x="214.46" y="111.5" width="22.23" height="1.4"/><rect class="cls-9" x="214.46" y="114.65" width="22.23" height="1.4"/><rect class="cls-8" x="10" y="181.91" width="250" height="62.33"/><rect class="cls-10" y="171.85" width="270" height="10"/><path class="cls-7" d="M82.63,151.05H59.82s-7,7.64-7,16.23c0,6.63,5.23,11.36,7.63,13.18a4,4,0,0,0,2.45.83H79.56a4,4,0,0,0,2.45-.83c2.39-1.82,7.63-6.55,7.63-13.18C89.64,158.69,82.63,151.05,82.63,151.05Z"/><path class="cls-9" d="M90.91,147.65H59.29v3.5h30v8.6a3.5,3.5,0,0,0,3.5,3.5V149.56a1.92,1.92,0,0,0-1.91-1.91Z"/><path class="cls-7" d="M59.61,147.67l-3.38-8.38a.4.4,0,0,1,.36-.55c3.44-.12,21.59-.54,26.75,3.11a.64.64,0,0,1,.25.73l-1.67,5.07Z"/><path class="cls-11" d="M54.77,164.31a16,16,0,0,0-.27,2.87c0,6,4.75,10.32,6.93,12a3.72,3.72,0,0,0,2.23.75H78.8a3.71,3.71,0,0,0,2.22-.75c2.18-1.66,6.94-6,6.94-12a15.18,15.18,0,0,0-.28-2.87Z"/><g id="Layer3_2_MEMBER_11_FILL" data-name="Layer3 2 MEMBER 11 FILL"><path class="cls-1" d="M88.91,158.86q-.76,7.56,6.32,10.06a39,39,0,0,0,17.7,1.63,52.8,52.8,0,0,0,12.76-3.1c.58-.21,1.17-.44,1.75-.68a71.64,71.64,0,0,0,13.08-6.6c.41-.24.85-.52,1.31-.83l3.19-8.87L141,144.39a10.39,10.39,0,0,0-2.15-.12,2.71,2.71,0,0,0-.51,0h0a12.77,12.77,0,0,0-5.41,2,37.7,37.7,0,0,1-30.22,5.45Q90.54,149.36,88.91,158.86Z"/></g><g id="Layer3_2_MEMBER_11_1_STROKES" data-name="Layer3 2 MEMBER 11 1 STROKES"><path class="cls-2" d="M107.47,172.3a39.29,39.29,0,0,1-12.69-2.06c-5.32-1.88-7.82-5.86-7.26-11.52,0,0,0-.06,0-.09a10.07,10.07,0,0,1,4-7c2.63-1.81,6.44-2.25,11.33-1.28a36.58,36.58,0,0,0,29.18-5.25,14.36,14.36,0,0,1,6.06-2.21h0a4.45,4.45,0,0,1,.65,0,12.17,12.17,0,0,1,2.38.13,1.39,1.39,0,0,1-.46,2.75,9.1,9.1,0,0,0-1.87-.1l-.34,0-.16,0a11.71,11.71,0,0,0-4.79,1.78,39.19,39.19,0,0,1-31.25,5.62c-4.08-.8-7.18-.52-9.18.85a7.36,7.36,0,0,0-2.85,5.1c-.43,4.38,1.29,7.1,5.4,8.56a37.74,37.74,0,0,0,17.06,1.56,52.42,52.42,0,0,0,12.46-3c.57-.21,1.14-.43,1.7-.66A71.47,71.47,0,0,0,139.77,159a1.39,1.39,0,1,1,1.5,2.35,74,74,0,0,1-13.33,6.72c-.57.24-1.17.47-1.77.69a55.44,55.44,0,0,1-13.09,3.18A44.5,44.5,0,0,1,107.47,172.3Z"/></g><g id="Layer3_2_MEMBER_10_MEMBER_1_MEMBER_1_FILL" data-name="Layer3 2 MEMBER 10 MEMBER 1 MEMBER 1 FILL"><path class="cls-5" d="M126,222.47a9.17,9.17,0,0,1,2.58-6.49,9,9,0,0,1,12.73-.08,8.71,8.71,0,0,1,2.75,6.49v1.08h10.65v-1.25a21.26,21.26,0,0,0-1.58-7.65,19.48,19.48,0,0,0-4.33-6.32,19.5,19.5,0,0,0-27.79.16,18.39,18.39,0,0,0-4.16,6.41,19.38,19.38,0,0,0-1.58,7.74v1.08l10.73-.09Z"/></g></g></g></svg>