<svg xmlns="http://www.w3.org/2000/svg" viewBox="0 0 137.15 190.39"><defs><style>.cls-1{fill:#83e8d3;}.cls-2{fill:#1cb594;}.cls-3{fill:#fff;}.cls-4{fill:#47d7ac;}.cls-5{fill:#01b593;}.cls-6{fill:#f29100;}.cls-7{fill:#fcfcfc;}.cls-7,.cls-8{stroke:#d3d3d3;stroke-miterlimit:10;}.cls-8{fill:#f2f2f2;}.cls-9{fill:#ffcfd9;}.cls-10{fill:#ff9fb6;}</style></defs><g id="레이어_2" data-name="레이어 2"><g id="레이어_1-2" data-name="레이어 1"><path class="cls-1" d="M12.05,152.77c8.83,1.32,17.17-6.15,17.17-6.15l6.57-37.74-3.79-1s-6.35-4.3-18,8.72c-3.26,3.64-12.1,12.65-11.91,21.89C2.24,147.49,8.67,152.27,12.05,152.77Z"/><path class="cls-1" d="M64.89,97S53.47,109.11,50.5,116.78s-12.76,30-2.19,41S67.76,174.11,83,174.11s38.62-13.73,39.41-30.64-21.1-43.92-21.1-43.92Z"/><path class="cls-2" d="M81.82,134.55a14.46,14.46,0,0,0-1.13-5.4,12.8,12.8,0,0,0-3-4.46,13.23,13.23,0,0,0-9.86-4.08,14,14,0,0,0-12.72,8.68A14,14,0,0,0,54,134.74v.79l7.56,0v-.8a6.38,6.38,0,0,1,1.83-4.55,6.34,6.34,0,0,1,9,0,6,6,0,0,1,1.93,4.55v.75h7.51v-.84"/><path class="cls-3" d="M35.78,2.68a11.68,11.68,0,0,0-2-1C30,.43,27.2,1.91,25.39,6.17a20.57,20.57,0,0,0-.7,11.3,35.62,35.62,0,0,0,4.85,11.89,38.23,38.23,0,0,0,20.77-8.77Q44.51,8.16,35.78,2.68"/><path class="cls-4" d="M29.54,30.65A1.28,1.28,0,0,1,28.45,30a37.23,37.23,0,0,1-5-12.3,22.08,22.08,0,0,1,.75-12c2.65-6.25,6.9-6.27,10-5.2a11.77,11.77,0,0,1,2.25,1.05c6,3.78,11.09,10,15,18.47a1.27,1.27,0,0,1-.33,1.52,39.72,39.72,0,0,1-21.46,9.07h-.14M31.25,2.56c-1.62,0-3.31.89-4.68,4.11A19.51,19.51,0,0,0,26,17.24,34.44,34.44,0,0,0,30.2,28a37.24,37.24,0,0,0,18.52-7.75C45.05,12.67,40.47,7.13,35.09,3.77A8.82,8.82,0,0,0,33.36,3,6.48,6.48,0,0,0,31.25,2.56Z"/><path class="cls-3" d="M109.32,17.58a20.81,20.81,0,0,0-.7-11.34q-2.72-6.37-8.37-4.4a9.77,9.77,0,0,0-2,.92Q89.5,8.22,83.7,20.66a38.27,38.27,0,0,0,20.77,8.78,35.68,35.68,0,0,0,4.85-11.86"/><path class="cls-4" d="M104.48,30.72h-.15a39.67,39.67,0,0,1-21.46-9.06,1.29,1.29,0,0,1-.33-1.53c3.95-8.48,9-14.69,15-18.45A11.73,11.73,0,0,1,99.88.61c3-1.07,7.29-1.06,9.92,5.13a22.12,22.12,0,0,1,.78,12.09,37.09,37.09,0,0,1-5,12.28,1.28,1.28,0,0,1-1.08.61M85.29,20.31a37.15,37.15,0,0,0,18.52,7.75,34.29,34.29,0,0,0,4.25-10.73,19.55,19.55,0,0,0-.65-10.65c-2-4.61-4.63-4.37-6.73-3.63a8.5,8.5,0,0,0-1.79.81C93.54,7.21,89,12.75,85.29,20.31Z"/><path class="cls-3" d="M116.29,35.6q-7-14.08-22.53-20.73A71.17,71.17,0,0,0,68,9.66H66.86A71.09,71.09,0,0,0,41.1,14.87q-17,7.24-23.75,23.37A62,62,0,0,0,13,59.42a37.67,37.67,0,0,1-1.5,10q-7.2,21.87,8,33.36a35.29,35.29,0,0,0,3.34,2.24l.14.11c1,.62,2,1.21,3,1.76a73.72,73.72,0,0,0,26.87,8.63l2,.22a90.17,90.17,0,0,0,12,.88H68a90.17,90.17,0,0,0,12-.88l2-.22a78.74,78.74,0,0,0,11.89-2.43,71.26,71.26,0,0,0,15-6.2c1.08-.59,2.13-1.21,3.16-1.87a35.29,35.29,0,0,0,3.34-2.24q15.19-11.49,8-33.36a37.26,37.26,0,0,1-1.51-10q-.58-13.8-5.54-23.82"/><path class="cls-1" d="M121.65,96.26q7-10.51,1.69-26.79a37.26,37.26,0,0,1-1.51-10c-.08-1.83-.23-3.59-.43-5.32l.49-.46a.92.92,0,0,0,.08-1.29.93.93,0,0,0-1.3-.08,62.8,62.8,0,0,0-9,9.75c-2.71,3.56-3.4,8.31-2.06,14.16.25.89.53,1.78.82,2.61a70.45,70.45,0,0,0,9.93,18.82.9.9,0,0,0,.74.38.92.92,0,0,0,.74-1.46Z"/><path class="cls-1" d="M23.23,62a62.9,62.9,0,0,0-9-9.79.91.91,0,0,0-1.29.07.93.93,0,0,0,.07,1.3l.49.45c-.19,1.74-.35,3.51-.43,5.36a37.67,37.67,0,0,1-1.5,10Q6.15,85.76,13.24,96.3l-.19.27a.92.92,0,0,0,.21,1.28.89.89,0,0,0,.53.18.92.92,0,0,0,.75-.39,71.21,71.21,0,0,0,9.92-18.83c.3-.85.57-1.74.83-2.67C26.62,70.33,25.93,65.58,23.23,62Z"/><path class="cls-4" d="M66.86,118a89.7,89.7,0,0,1-12.15-.89l-2-.22a75.13,75.13,0,0,1-27.35-8.78c-1-.56-2.06-1.16-3.06-1.79l-.17-.12a36.43,36.43,0,0,1-3.42-2.3c-10.56-8-13.4-19.68-8.44-34.77a36.81,36.81,0,0,0,1.44-9.7,63,63,0,0,1,4.45-21.63c4.6-11,12.81-19.11,24.4-24.06A72.92,72.92,0,0,1,66.85,8.37H68a73,73,0,0,1,26.23,5.3C104.88,18.22,112.68,25.4,117.44,35c3.36,6.81,5.27,15,5.67,24.33a36.77,36.77,0,0,0,1.45,9.73c5,15.07,2.12,26.78-8.45,34.77a38.56,38.56,0,0,1-3.46,2.32c-1,.65-2.1,1.29-3.19,1.89a73.06,73.06,0,0,1-15.24,6.31,79.76,79.76,0,0,1-12.08,2.46l-2,.22A88.38,88.38,0,0,1,68,118H66.86m0-107a70.33,70.33,0,0,0-25.29,5.12c-10.93,4.67-18.68,12.3-23,22.68a60.18,60.18,0,0,0-4.25,20.73,39,39,0,0,1-1.56,10.38v0C8.09,84,10.56,94.45,20.29,101.81A36.08,36.08,0,0,0,23.51,104l.24.15c.91.58,1.89,1.16,2.88,1.69A72.67,72.67,0,0,0,53,114.29l2,.22a87.22,87.22,0,0,0,11.84.87H68a86.11,86.11,0,0,0,11.78-.87l2.06-.22a76.34,76.34,0,0,0,11.67-2.38,70.6,70.6,0,0,0,14.71-6.09c1-.57,2.08-1.19,3.08-1.83a34.18,34.18,0,0,0,3.26-2.18c9.73-7.36,12.2-17.8,7.56-31.93a38.68,38.68,0,0,1-1.57-10.43c-.39-9-2.21-16.79-5.41-23.28-4.48-9.07-11.85-15.84-21.89-20.12A70.2,70.2,0,0,0,68,10.94ZM11.52,69.47h0Z"/><path d="M52.33,72.56a12.88,12.88,0,0,0,1.35-6.13,13.1,13.1,0,0,0-1.35-6.17c-.91-1.69-2-2.53-3.31-2.53s-2.39.84-3.3,2.53a12.75,12.75,0,0,0-1.39,6.17,12.54,12.54,0,0,0,1.39,6.13c.91,1.73,2,2.6,3.3,2.6s2.4-.87,3.31-2.6"/><path class="cls-1" d="M51.41,49.88l.07,0a2.73,2.73,0,0,0,3-2.16,2.6,2.6,0,0,0-.44-2,2.37,2.37,0,0,0-1.54-1.07L42.64,43a2.52,2.52,0,0,0-1.87.44,2.67,2.67,0,0,0-1.07,1.72,2.5,2.5,0,0,0,.41,1.91,2.53,2.53,0,0,0,1.39,1.06l.18,0,9.73,1.73"/><path class="cls-4" d="M51.9,50.87a3.9,3.9,0,0,1-.58,0l-.2-.06-9.53-1.69a1.36,1.36,0,0,1-.41-.09,3.51,3.51,0,0,1-1.83-1.41A3.34,3.34,0,0,1,38.8,45a3.55,3.55,0,0,1,1.42-2.31,3.48,3.48,0,0,1,2.55-.61l9.86,1.73a3.31,3.31,0,0,1,2.15,1.47,3.55,3.55,0,0,1,.58,2.64,3.23,3.23,0,0,1-1.44,2.24,3.28,3.28,0,0,1-2,.72m-.49-.08Zm0,0h0Zm-.57-.23ZM51.77,49a1.44,1.44,0,0,0,1-.35l.08-.06a1.37,1.37,0,0,0,.65-1,1.75,1.75,0,0,0-.3-1.33,1.45,1.45,0,0,0-1-.67l-9.79-1.72a1.6,1.6,0,0,0-1.19.29,1.68,1.68,0,0,0-.68,1.13,1.55,1.55,0,0,0,.25,1.23,1.68,1.68,0,0,0,.91.71h.07L51.53,49Zm-9.86-1.74Zm-.23,0h0Z"/><path d="M81.13,66.43a12.54,12.54,0,0,0,1.4,6.13c.9,1.73,2,2.6,3.3,2.6s2.4-.87,3.3-2.6a12.54,12.54,0,0,0,1.4-6.13,12.75,12.75,0,0,0-1.4-6.17c-.9-1.69-2-2.53-3.3-2.53s-2.4.84-3.3,2.53a12.75,12.75,0,0,0-1.4,6.17"/><path class="cls-1" d="M94.09,43.42A2.53,2.53,0,0,0,92.22,43L82.38,44.7a2.39,2.39,0,0,0-1.54,1.07,2.68,2.68,0,0,0-.44,2,2.73,2.73,0,0,0,3,2.16l.08,0,9.72-1.73.18,0a2.55,2.55,0,0,0,1.4-1.06,2.45,2.45,0,0,0,.4-1.91,2.61,2.61,0,0,0-1.06-1.72"/><path class="cls-4" d="M83,50.87a3.28,3.28,0,0,1-2-.72A3.18,3.18,0,0,1,79.5,47.9a3.53,3.53,0,0,1,.57-2.63,3.28,3.28,0,0,1,2.11-1.46l9.88-1.74a3.49,3.49,0,0,1,2.55.59A3.61,3.61,0,0,1,96.06,45a3.42,3.42,0,0,1-.56,2.59A3.52,3.52,0,0,1,93.68,49a1.43,1.43,0,0,1-.41.09l-9.54,1.69-.2.06a3.66,3.66,0,0,1-.57,0m.49-.08Zm0,0Zm.58-.23h0Zm8.6-6.69-.28,0-9.81,1.72a1.38,1.38,0,0,0-.93.66,1.75,1.75,0,0,0-.31,1.32,1.38,1.38,0,0,0,.65,1l.08.06a1.44,1.44,0,0,0,1,.35l.24-.06L93,47.25h.08a1.66,1.66,0,0,0,.9-.71,1.56,1.56,0,0,0,.26-1.23,1.73,1.73,0,0,0-.71-1.15A1.55,1.55,0,0,0,92.63,43.87ZM93,47.29h0Z"/><path d="M67.45,92.34a11.69,11.69,0,0,1-6.84-2,6.61,6.61,0,0,1-2.73-3.59.82.82,0,1,1,1.59-.44A5,5,0,0,0,61.56,89a10.08,10.08,0,0,0,5.89,1.7A10,10,0,0,0,73.3,89a5,5,0,0,0,2.12-2.68.84.84,0,0,1,1-.58.82.82,0,0,1,.57,1,6.58,6.58,0,0,1-2.76,3.59,11.54,11.54,0,0,1-6.8,2"/><path class="cls-5" d="M40.07,92.42A24.8,24.8,0,0,1,37,92.23a24.27,24.27,0,0,1-16.32-8.89A24,24,0,0,1,15.1,65.72,23,23,0,0,1,41,44.62a24.07,24.07,0,0,1,16.22,8.89,23.72,23.72,0,0,1,5.61,17.62A22.25,22.25,0,0,1,54.4,87.19a21.92,21.92,0,0,1-14.33,5.23m-2.19-45a19.3,19.3,0,0,0-12.52,4.53,19.51,19.51,0,0,0-7.3,14A20.83,20.83,0,0,0,23,81.45a21.11,21.11,0,0,0,14.37,7.83,19.09,19.09,0,0,0,15.17-4.39,19.15,19.15,0,0,0,7.39-14h0A20.53,20.53,0,0,0,55,55.41a20.91,20.91,0,0,0-14.27-7.84A24.62,24.62,0,0,0,37.88,47.4Z"/><path class="cls-3" d="M39.9,89.65a20.57,20.57,0,0,1-2.69-.17,21.45,21.45,0,0,1-14.47-7.92,21.23,21.23,0,0,1-5-15.63,20.4,20.4,0,0,1,23-18.68,21.44,21.44,0,0,1,14.39,7.89,21.08,21.08,0,0,1,5,15.63A19.62,19.62,0,0,1,52.67,85,19.64,19.64,0,0,1,39.9,89.65M38,48.57A18.89,18.89,0,0,0,19.26,66.05a19.83,19.83,0,0,0,4.63,14.57A20,20,0,0,0,37.38,88a18.41,18.41,0,0,0,14.35-4.15,18.25,18.25,0,0,0,7-13.21h0A19.59,19.59,0,0,0,54,56.09a20,20,0,0,0-13.42-7.36A21,21,0,0,0,38,48.57Z"/><path class="cls-5" d="M96.49,92.42a24.68,24.68,0,0,1-3.07-.19A24.22,24.22,0,0,1,77.1,83.34a24,24,0,0,1-5.59-17.62,23,23,0,0,1,25.95-21.1,24.07,24.07,0,0,1,16.21,8.89,23.69,23.69,0,0,1,5.62,17.62,22.25,22.25,0,0,1-8.47,16.06,22,22,0,0,1-14.33,5.23m-2.19-45a19.28,19.28,0,0,0-12.52,4.53,19.51,19.51,0,0,0-7.3,14,20.82,20.82,0,0,0,4.91,15.48,21.13,21.13,0,0,0,14.38,7.83,20.2,20.2,0,0,0,22.55-18.39h0a20.53,20.53,0,0,0-4.94-15.47,21,21,0,0,0-14.27-7.84A24.75,24.75,0,0,0,94.3,47.4Z"/><path class="cls-3" d="M96.32,89.65a20.83,20.83,0,0,1-2.7-.17A22.1,22.1,0,0,1,74.19,65.93a20.4,20.4,0,0,1,23-18.68,21.4,21.4,0,0,1,14.39,7.89,21,21,0,0,1,5,15.63A20.56,20.56,0,0,1,96.32,89.65M94.41,48.57a18.35,18.35,0,0,0-11.87,4.28,18.56,18.56,0,0,0-6.87,13.2A19.83,19.83,0,0,0,80.3,80.62,20.08,20.08,0,0,0,93.8,88a19,19,0,0,0,21.29-17.36h0a19.58,19.58,0,0,0-4.66-14.56A20,20,0,0,0,97,48.73,20.81,20.81,0,0,0,94.41,48.57Z"/><path class="cls-5" d="M71.89,71a1.48,1.48,0,0,1-.85-.27,8.63,8.63,0,0,0-3.89-1.38,8.17,8.17,0,0,0-3.91.91,1.47,1.47,0,0,1-1.43-2.57,11.4,11.4,0,0,1,5.48-1.28,11.64,11.64,0,0,1,5.45,1.91A1.48,1.48,0,0,1,71.89,71Z"/><path class="cls-1" d="M19.87,159.4l-8.65,2.34a6.9,6.9,0,0,0-6.11-2.35q-5.26.77-3.66,9.58a131,131,0,0,0,3.64,15.37q2.4,7.57,12.15,3.6l44-10.05L19.87,159.4Z"/><path class="cls-4" d="M11.4,190.39a7.82,7.82,0,0,1-3.34-.69,7.79,7.79,0,0,1-4-5,131.1,131.1,0,0,1-3.68-15.5c-.73-4-.44-6.88.88-8.72A5.29,5.29,0,0,1,5,158.33a7.82,7.82,0,0,1,6.62,2.25l11.9-2.3a1.07,1.07,0,0,1,.41,2.11L11.42,162.8a1.06,1.06,0,0,1-1-.32,5.84,5.84,0,0,0-5.2-2A3.13,3.13,0,0,0,3,161.7c-1,1.32-1.12,3.7-.51,7.08A128.75,128.75,0,0,0,6.12,184,5.68,5.68,0,0,0,9,187.75c1.82.85,4.46.58,7.86-.8a.85.85,0,0,1,.17-.06l44-10a1.07,1.07,0,1,1,.48,2.09L17.56,189A16.76,16.76,0,0,1,11.4,190.39Z"/><path class="cls-1" d="M117.28,159.4l8.65,2.34a6.9,6.9,0,0,1,6.11-2.35q5.27.77,3.67,9.58a130.87,130.87,0,0,1-3.65,15.37q-2.38,7.57-12.14,3.6l-44-10.05,41.36-18.49Z"/><path class="cls-4" d="M125.76,190.39a16.76,16.76,0,0,1-6.17-1.42l-43.91-10a1.07,1.07,0,1,1,.48-2.09l44,10a1,1,0,0,1,.16.06c3.4,1.38,6.05,1.65,7.86.8A5.62,5.62,0,0,0,131,184a128,128,0,0,0,3.62-15.23c.61-3.38.44-5.76-.52-7.08a3.15,3.15,0,0,0-2.24-1.25,5.85,5.85,0,0,0-5.17,2,1.08,1.08,0,0,1-1,.32l-12.47-2.41a1.07,1.07,0,1,1,.41-2.11l11.91,2.3a7.85,7.85,0,0,1,6.59-2.26,5.33,5.33,0,0,1,3.71,2.12c1.32,1.84,1.61,4.69.88,8.72a131.2,131.2,0,0,1-3.67,15.5,7.24,7.24,0,0,1-7.33,5.73Z"/><path class="cls-6" d="M16.17,105.82l0,0,0,0v0"/><path class="cls-1" d="M33.55,136.52c0-.25-.06-.44-.08-.58l0-.14h0l-.09-.3a7.8,7.8,0,0,0-1.54-2.73,5.52,5.52,0,0,0-4.33-1.84,9.73,9.73,0,0,0-2.19.27,33.3,33.3,0,0,1-4.2.73c-.09,6.35-.2,13.2-.31,19a26.6,26.6,0,0,0,5.72-1,8.68,8.68,0,0,0,5.83-4.92,15.85,15.85,0,0,0,1.3-6.61C33.64,137.69,33.59,137,33.55,136.52Z"/><path class="cls-1" d="M117.48,153.48c-8.82,1.32-17.17-6.16-17.17-6.16l-6.57-37.73,3.79-1s6.35-4.31,18,8.72c3.27,3.64,12.11,12.64,11.91,21.89C127.29,148.19,120.86,153,117.48,153.48Z"/><path class="cls-4" d="M125.74,144.64a.89.89,0,0,1-.32,0,1.06,1.06,0,0,1-.71-1.34c3.66-11.94-7.33-22.72-10.94-26.26-9.36-9.17-18.83-9.39-18.92-9.39a1.08,1.08,0,1,1,0-2.15h0c.42,0,10.44.23,20.4,10,3.85,3.77,15.54,15.24,11.49,28.43A1.07,1.07,0,0,1,125.74,144.64Z"/><path class="cls-4" d="M4.09,143.93a1.07,1.07,0,0,1-1-.73c-2.95-8.71.81-18.28,11.19-28.45,10-9.77,20-10,20.4-10h0a1.08,1.08,0,0,1,0,2.15c-.1,0-9.62.26-18.92,9.39C5.89,126,2.4,134.54,5.11,142.51a1.09,1.09,0,0,1-.68,1.37A1.33,1.33,0,0,1,4.09,143.93Z"/><g id="오픈북"><path class="cls-7" d="M68.09,180.42l0-57.39c12-15.17,31.17-20.52,34.89-21,5.86-.78,5.21,2.28,4.6,4.83,0,19.14-1,38-1,57.13Z"/><path class="cls-8" d="M71.56,182.75V124.08C77,118,83.44,113.27,95.09,108.71c1.45-.57,8.32-2.74,12.08-2.74,4.32,0,5.14,1,7.76,2.09v57.42Z"/><path class="cls-9" d="M71.56,124v58.73l41.78-15.17a4,4,0,0,0,2.74-3.8l3-51.92a4,4,0,0,0-5.39-3.75Z"/><path class="cls-10" d="M71.56,183.75a1,1,0,0,1-1-1V124.08a1,1,0,0,1,.65-.94l42.13-16a5,5,0,0,1,6.74,4.68l-3,52a5,5,0,0,1-3.43,4.69L71.9,183.69A1,1,0,0,1,71.56,183.75Zm1-59v56.56L113,166.64a3,3,0,0,0,2.09-2.86l3-52a3,3,0,0,0-4-2.76Z"/><path class="cls-7" d="M66.77,180.42l0-57.39c-12-15.17-31.17-20.52-34.9-21-5.85-.78-5.2,2.28-4.59,4.83,0,19.14,1,38,1,57.13Z"/><path class="cls-8" d="M63.3,182.75V124.08c-5.47-6.11-11.89-10.81-23.53-15.37-1.46-.57-8.32-2.74-12.08-2.74-4.32,0-5.15,1-7.76,2.09v57.42Z"/><path class="cls-9" d="M63.3,124v58.73L21.52,167.58a4,4,0,0,1-2.74-3.8l-3-51.92a4,4,0,0,1,5.39-3.75Z"/><path class="cls-10" d="M63.3,183.75a1,1,0,0,1-.35-.06L21.18,168.52a5,5,0,0,1-3.4-4.74l-3-51.86a5,5,0,0,1,6.73-4.75l42.14,16a1,1,0,0,1,.65.94v58.67a1,1,0,0,1-1,1ZM19.77,108.86a3,3,0,0,0-3,3l3,51.87a3,3,0,0,0,2.06,2.9l40.47,14.7V124.77L20.81,109.05A2.9,2.9,0,0,0,19.77,108.86Z"/><rect class="cls-9" x="62.93" y="124.02" width="8.63" height="59.42" rx="1.97"/><path class="cls-10" d="M69.59,184.44H64.9a3,3,0,0,1-3-3V126a3,3,0,0,1,3-3h4.69a3,3,0,0,1,3,3v55.48A3,3,0,0,1,69.59,184.44ZM64.9,125a1,1,0,0,0-1,1v55.48a1,1,0,0,0,1,1h4.69a1,1,0,0,0,1-1V126a1,1,0,0,0-1-1Z"/></g><path class="cls-1" d="M12.67,134.63c3.88-1.09,13-1.7,13.7,7,.8,9.5-2.17,10.1-5.59,11.71-4.64,2.19-12.17-1.14-15.2-8"/><path class="cls-4" d="M16.78,155.76a11.4,11.4,0,0,1-5.56-1.54,17.75,17.75,0,0,1-8.14-10.37,1.07,1.07,0,1,1,2.09-.49,15.67,15.67,0,0,0,7.1,9,8.36,8.36,0,0,0,7,.86c5.61-1.89,7.41-5.31,6.2-11.8C24.63,137,20.06,135,16,135.33a1.07,1.07,0,0,1-.16-2.14c5.05-.39,10.71,2.18,11.75,7.81.88,4.72,1.05,11.32-7.62,14.24A10,10,0,0,1,16.78,155.76Z"/><path class="cls-1" d="M121.1,134.24c-3.88-1.09-16.37-1.65-17.1,7-.81,9.5,1.77,10.48,5.22,12,7.65,3.43,12.71-1.12,15.74-8"/><path class="cls-4" d="M113.78,155.44a10.34,10.34,0,0,1-3.28-.54c-6.76-2.28-9.4-7.22-7.62-14.3,2.19-8.71,16-8.07,16.56-8a1.07,1.07,0,0,1,1,1.13,1.09,1.09,0,0,1-1.13,1c-.13,0-12.6-.58-14.35,6.41-1.51,6,.53,9.83,6.21,11.74a8.33,8.33,0,0,0,6.92-.75,14.28,14.28,0,0,0,6.53-8.52,1.09,1.09,0,0,1,1.3-.8,1.07,1.07,0,0,1,.8,1.29,16.63,16.63,0,0,1-7.59,9.91A11,11,0,0,1,113.78,155.44Z"/></g></g></svg>