<svg xmlns="http://www.w3.org/2000/svg" viewBox="0 0 101.51 158.93"><defs><style>.cls-1{fill:#fff;}.cls-2{fill:#47d7ac;}.cls-3{fill:#83e8d3;}.cls-4{fill:#1cb594;}</style></defs><g id="레이어_2" data-name="레이어 2"><g id="레이어_1-2" data-name="레이어 1"><path class="cls-1" d="M87.35,14.59a17.37,17.37,0,0,0-.58-9.45q-2.26-5.32-7-3.67a8.14,8.14,0,0,0-1.68.76A31.06,31.06,0,0,0,68,13.34c-.12.24-.26.48-.39.73l-.06.12c-.11.21-.23.41-.34.61s-.24.49-.37.74c-.27.53-.54,1.07-.79,1.62.49.41,1,.81,1.5,1.19.36.28.72.54,1.1.8.16.1.32.21.49.3l.12.1A31.63,31.63,0,0,0,79.36,23.8l.13,0,.24.06c1.16.24,2.36.44,3.58.58.48-.77.92-1.55,1.31-2.32l.13-.25.12-.24a28.14,28.14,0,0,0,2.48-7.07"/><path class="cls-2" d="M84.64,23.22a1.12,1.12,0,0,1-.47-.11,1.08,1.08,0,0,1-.49-1.44l.24-.48a27.51,27.51,0,0,0,2.38-6.81,16.37,16.37,0,0,0-.54-8.88c-1.64-3.84-3.86-3.64-5.61-3a6.79,6.79,0,0,0-1.5.68A29.89,29.89,0,0,0,68.9,13.87l-.39.69-.07.14-.31.59a1.07,1.07,0,1,1-1.91-1c.11-.21.22-.43.34-.64l0-.06,0-.07L67,12.8A32,32,0,0,1,77.54,1.33,8.58,8.58,0,0,1,79.48.45c2.54-.9,6.08-.89,8.27,4.27A18.62,18.62,0,0,1,88.4,14.8a29.64,29.64,0,0,1-2.56,7.33l-.24.49a1.08,1.08,0,0,1-1,.6"/><path class="cls-3" d="M45.72,129.81l.88,21.78a3.84,3.84,0,0,0-2,3.06q-.23,3,4.8,3.15a74.17,74.17,0,0,0,8.84-.15c3-.27,4.1-2.34,3.42-6.21l.8-21.63H45.72"/><path class="cls-2" d="M52.71,158.93q-1.64,0-3.36-.06c-2.43-.09-4.06-.64-5-1.68a3.4,3.4,0,0,1-.83-2.62,4.81,4.81,0,0,1,2-3.54l-.86-21.17a1.07,1.07,0,0,1,1-1.12,1.09,1.09,0,0,1,1.12,1l.88,21.78a1.06,1.06,0,0,1-.51,1,2.78,2.78,0,0,0-1.51,2.24,1.26,1.26,0,0,0,.3,1c.36.39,1.25.89,3.48,1a72,72,0,0,0,8.71-.15,2.76,2.76,0,0,0,2-.93c.6-.78.74-2.14.41-4l0-.22.8-21.63a1.07,1.07,0,1,1,2.14.08l-.79,21.51c.41,2.49.14,4.32-.84,5.59a4.8,4.8,0,0,1-3.57,1.76c-1.73.15-3.61.22-5.61.22"/><path class="cls-3" d="M43.73,129.81l-.8,21.63q1,5.81-3.42,6.21a74.17,74.17,0,0,1-8.84.15q-5-.18-4.8-3.15a3.83,3.83,0,0,1,2-3.06L27,129.81H43.73"/><path class="cls-2" d="M34,158.93c-1.08,0-2.21,0-3.36-.06-2.43-.09-4.06-.64-5-1.68a3.4,3.4,0,0,1-.84-2.62,4.84,4.84,0,0,1,2-3.54l-.86-21.17a1.07,1.07,0,0,1,1-1.12,1.09,1.09,0,0,1,1.12,1L29,151.55a1.09,1.09,0,0,1-.52,1,2.78,2.78,0,0,0-1.51,2.24,1.26,1.26,0,0,0,.3,1c.36.39,1.25.89,3.48,1a72,72,0,0,0,8.71-.15,2.76,2.76,0,0,0,2-.93c.6-.78.74-2.14.41-4l0-.22.8-21.63a1.07,1.07,0,0,1,2.14.08L44,151.36c.41,2.49.14,4.32-.84,5.59a4.8,4.8,0,0,1-3.57,1.76c-1.73.15-3.61.22-5.61.22"/><path class="cls-3" d="M49.51,95l6.79-3.55a143.29,143.29,0,0,1,24.41,28.14q6,9-.22,13.37a6.08,6.08,0,0,1-3.85.95A8.85,8.85,0,0,1,72,131.8a21,21,0,0,1-4.13-4.71Q62.54,119.2,49.51,95"/><path class="cls-2" d="M77.2,135a4.87,4.87,0,0,1-.66,0,9.84,9.84,0,0,1-5.21-2.3,22.06,22.06,0,0,1-4.36-5c-3.55-5.26-9.74-16.09-18.4-32.2a1,1,0,0,1-.08-.82A1.07,1.07,0,0,1,49,94l6.79-3.54a1.08,1.08,0,0,1,1.22.15A145.12,145.12,0,0,1,81.61,119c5.4,8.14,2.71,12.56-.5,14.82l0,0A7.22,7.22,0,0,1,77.2,135M51,95.42c8.36,15.52,14.34,26,17.78,31.07A20,20,0,0,0,72.67,131a7.82,7.82,0,0,0,4.06,1.84,5.08,5.08,0,0,0,3.18-.77c1.34-1,5.26-3.81-.09-11.88A142.23,142.23,0,0,0,56.14,92.72Z"/><path class="cls-3" d="M65.66,109.1a39.42,39.42,0,0,1,3,9.18q1.28,12-7.68,17.46a21.88,21.88,0,0,1-10.55,3.58,37.51,37.51,0,0,1-4,.22l-1.56,0q-.3,0-1.53,0h-.58A11.15,11.15,0,0,1,38,132.23q-2.37,1.4-6.15,0-4.08,2.19-4.62,1.71l-.09-.06q-7.5-6.54-4.47-19.88a60.28,60.28,0,0,1,3.77-11l6-5.69V85.49L61,91.24a55.74,55.74,0,0,0,4.65,17.86"/><path class="cls-2" d="M46.77,140.61h-.31l-1.54,0h-.09c-.09,0-.41,0-1.46,0a1.07,1.07,0,0,1,0-2.14h0c1,0,1.41,0,1.58,0l1.55,0a37.45,37.45,0,0,0,3.82-.21,21.24,21.24,0,0,0,10.07-3.41c5.66-3.45,8-8.82,7.19-16.46a38,38,0,0,0-2.91-8.86A57.89,57.89,0,0,1,60,92.13L33.51,86.8V97.36a1.09,1.09,0,0,1-.33.78l-5.9,5.54a59.52,59.52,0,0,0-3.61,10.58c-2,8.56-.6,14.73,4.12,18.84a1.07,1.07,0,1,1-1.25,1.74l-.16-.13c-5.29-4.61-6.91-11.65-4.8-20.92a61.81,61.81,0,0,1,3.83-11.17,1.09,1.09,0,0,1,.24-.35l5.72-5.37V85.49a1.11,1.11,0,0,1,.39-.83,1.1,1.1,0,0,1,.89-.22l28.57,5.75a1.08,1.08,0,0,1,.86,1,55.06,55.06,0,0,0,4.56,17.52,40.23,40.23,0,0,1,3.08,9.44c.9,8.47-1.85,14.69-8.18,18.54a23.2,23.2,0,0,1-11,3.73c-1.64.15-2.87.22-3.74.22"/><path class="cls-3" d="M6.44,119.56q2.86-4.38,6.15-8.62A150.25,150.25,0,0,1,30.85,91.42L37.64,95q-4.92,9.15-8.75,16-6.29,11.24-9.6,16.15a20.8,20.8,0,0,1-4.13,4.71,8.85,8.85,0,0,1-4.65,2.08,6.1,6.1,0,0,1-3.85-.95q-6.18-4.37-.22-13.37"/><path class="cls-2" d="M10,135a7.19,7.19,0,0,1-3.85-1.14l-.06,0C2.83,131.54.15,127.12,5.55,119c1.91-2.92,4-5.85,6.2-8.69A151,151,0,0,1,30.14,90.63a1.07,1.07,0,1,1,1.43,1.59A149.49,149.49,0,0,0,13.44,111.6c-2.17,2.79-4.22,5.66-6.1,8.55C2,128.23,5.9,131.08,7.25,132a5.05,5.05,0,0,0,3.17.77A7.88,7.88,0,0,0,14.5,131a20,20,0,0,0,3.9-4.46c2.19-3.24,5.4-8.65,9.56-16.08a1.07,1.07,0,1,1,1.87,1c-4.19,7.49-7.44,12.94-9.65,16.23a22.12,22.12,0,0,1-4.34,4.94A10,10,0,0,1,10.6,135c-.22,0-.43,0-.65,0"/><path class="cls-1" d="M3.29,51.82V50.74a54.79,54.79,0,0,1,1.23-11.5c.24-1.18.54-2.32.88-3.42,0-.17.1-.33.16-.49a37,37,0,0,1,1.71-4.41q5.24-11.39,17.47-17.37A59,59,0,0,1,46,8.11a1.63,1.63,0,0,0,.31,0h.33a1.76,1.76,0,0,1,.31,0c1.82-.06,3.63,0,5.45,0,.81,0,1.63.11,2.44.21a86.45,86.45,0,0,1,10.49,1.8A46.73,46.73,0,0,1,91.6,28c.16.24.33.49.52.73s.39.56.55.83.44.64.64.95c.65,1,1.26,2.07,1.84,3.08.14.25.27.5.39.77a42.9,42.9,0,0,1,2.94,6.91,40.41,40.41,0,0,1,0,25,46,46,0,0,1-4.89,10.31,40.13,40.13,0,0,1-10.71,11.1,45.82,45.82,0,0,1-8.32,4.56,61.62,61.62,0,0,1-11.81,3.49c-.24.06-.49.11-.73.15l-2.94.49-3.12.4c-1.46.16-2.94.28-4.43.36l-1,.06a75.82,75.82,0,0,1-10-.21l-1.68-.12a61.25,61.25,0,0,1-22.73-6c-.94-.44-1.85-.91-2.72-1.4s-1.95-1.14-2.85-1.75a21.52,21.52,0,0,1-6.14-6.11,2.58,2.58,0,0,1-.22-.31c-.28-.45-.56-.92-.82-1.41A17.55,17.55,0,0,1,1.8,75.7a14.25,14.25,0,0,1-.4-1.77A32,32,0,0,1,2.47,60.26a30.65,30.65,0,0,0,.82-8.44"/><path class="cls-2" d="M47.22,98.32c-2.27,0-4.53-.1-6.76-.29l-1.67-.12a62.76,62.76,0,0,1-23.12-6.1c-.95-.46-1.88-.94-2.77-1.44s-2-1.17-2.93-1.79A22.94,22.94,0,0,1,3.55,82.2c-.09-.13-.18-.25-.26-.38-.28-.44-.57-.94-.85-1.45A19.23,19.23,0,0,1,.76,76a16.22,16.22,0,0,1-.42-1.85A33.45,33.45,0,0,1,1.43,60a29.6,29.6,0,0,0,.79-8.14V50.73A56.23,56.23,0,0,1,3.47,39c.25-1.18.55-2.36.9-3.48A5.58,5.58,0,0,1,4.55,35a41.7,41.7,0,0,1,1.73-4.47c3.59-7.79,9.64-13.81,18-17.89A60.58,60.58,0,0,1,45.9,7h.16l.21,0h.24a2.71,2.71,0,0,1,.4,0c1.8-.06,3.66,0,5.49,0,.85,0,1.7.11,2.53.22A87.34,87.34,0,0,1,65.55,9.05a47.92,47.92,0,0,1,26.9,18.3l.52.73c.24.32.43.62.61.91s.41.6.62.91c.68,1.08,1.3,2.13,1.88,3.16.15.26.3.55.44.84a45.17,45.17,0,0,1,3,7,41.59,41.59,0,0,1,0,25.64,47.25,47.25,0,0,1-5,10.57,41.16,41.16,0,0,1-11,11.4A47.29,47.29,0,0,1,75,93.2a62.81,62.81,0,0,1-12,3.56l-.76.16-2.94.49c-1.06.14-2.1.28-3.17.4-1.49.17-3,.29-4.5.37l-.94.06c-1.13.05-2.27.08-3.4.08M46,9.18a58.53,58.53,0,0,0-20.82,5.34A34.88,34.88,0,0,0,8.23,31.37a38.33,38.33,0,0,0-1.65,4.28,3,3,0,0,0-.14.43v.06a31,31,0,0,0-.86,3.32A53.53,53.53,0,0,0,4.36,50.75v1.06a31.92,31.92,0,0,1-.85,8.71v0a31.29,31.29,0,0,0-1,13.21,16.77,16.77,0,0,0,.37,1.66,17.66,17.66,0,0,0,1.51,4c.25.46.51.91.78,1.34l.15.21.06.08a20.91,20.91,0,0,0,5.85,5.82C12,87.4,13,88,13.93,88.5s1.76.94,2.67,1.38a60.7,60.7,0,0,0,22.34,5.89l1.69.12a77.41,77.41,0,0,0,9.87.22l.93-.06c1.47-.09,2.94-.21,4.39-.37q1.56-.18,3.09-.39l2.9-.49c.22,0,.44-.08.66-.13a60.74,60.74,0,0,0,11.65-3.44,44.9,44.9,0,0,0,8.12-4.45A39.1,39.1,0,0,0,92.66,76a44.94,44.94,0,0,0,4.77-10.07,39.46,39.46,0,0,0,0-24.32,42.94,42.94,0,0,0-2.86-6.74c-.14-.28-.25-.51-.38-.73-.57-1-1.18-2-1.82-3l-.61-.92c-.18-.29-.35-.54-.54-.81s-.37-.5-.54-.76A45.89,45.89,0,0,0,65,11.13,86.07,86.07,0,0,0,54.68,9.35c-.8-.1-1.59-.17-2.38-.2-1.77-.08-3.58-.09-5.35,0h-.13l-.22,0h-.24ZM2.47,60.26Z"/><path d="M2.74,55.33a10.4,10.4,0,0,0,1.17,5.11c.75,1.45,1.67,2.17,2.75,2.17s2-.72,2.75-2.17a10.4,10.4,0,0,0,1.16-5.11,10.58,10.58,0,0,0-1.16-5.14c-.75-1.4-1.67-2.11-2.75-2.11s-2,.71-2.75,2.11a10.58,10.58,0,0,0-1.17,5.14"/><path class="cls-1" d="M45.75,14.59a17.37,17.37,0,0,0-.58-9.45q-2.27-5.32-7-3.67a8.14,8.14,0,0,0-1.68.76A31,31,0,0,0,26.36,13.34l-.4.73-.06.12c-.11.21-.23.41-.34.61s-.24.49-.37.74c-.27.53-.53,1.07-.79,1.62.49.41,1,.81,1.5,1.19s.73.54,1.1.8c.16.1.32.21.49.3l.12.1A31.69,31.69,0,0,0,37.77,23.8l.12,0,.24.06c1.16.24,2.36.44,3.58.58.48-.77.92-1.55,1.32-2.32l.12-.25.12-.24a28.14,28.14,0,0,0,2.48-7.07"/><path class="cls-2" d="M43,23.22a1.12,1.12,0,0,1-.47-.11,1.08,1.08,0,0,1-.49-1.44l.24-.48a27.51,27.51,0,0,0,2.38-6.81,16.37,16.37,0,0,0-.54-8.88c-1.64-3.84-3.86-3.64-5.61-3a6.79,6.79,0,0,0-1.5.68A29.89,29.89,0,0,0,27.3,13.87l-.39.69-.07.14-.31.59a1.07,1.07,0,0,1-1.91-1c.11-.21.22-.43.34-.64l0-.06,0-.07.42-.75A32,32,0,0,1,35.94,1.33,8.58,8.58,0,0,1,37.88.45c2.54-.9,6.08-.89,8.27,4.27A18.43,18.43,0,0,1,46.8,14.8a29.64,29.64,0,0,1-2.56,7.33l-.24.49a1.06,1.06,0,0,1-1,.6"/><path class="cls-3" d="M4.18,41.54l-.06,0H4.06c.13-.79.29-1.56.46-2.33s.36-1.57.58-2.32l6.39-1.13a2.15,2.15,0,0,1,1.56.36,2.22,2.22,0,0,1,.89,1.44,2.06,2.06,0,0,1-.34,1.59,2.1,2.1,0,0,1-1.16.89l-.15,0L4.18,41.54"/><path class="cls-2" d="M3.72,45H3.59a1.06,1.06,0,0,1-.93-1.19c.1-.8.21-1.59.34-2.35H3c.14-.8.3-1.6.47-2.38s.36-1.62.58-2.39c.1-.37.21-.74.32-1.1,0-.19.11-.37.17-.55a41.57,41.57,0,0,1,1.74-4.5,1.07,1.07,0,1,1,2,.89,38.33,38.33,0,0,0-1.65,4.28v.06a2.53,2.53,0,0,0-.12.36v.08q-.17.51-.3,1.05h0c-.2.73-.39,1.48-.54,2.25v0c-.16.74-.31,1.51-.45,2.28s-.23,1.5-.33,2.26A1.05,1.05,0,0,1,3.72,45"/><path class="cls-2" d="M4,42.36a.74.74,0,0,1-.7-.53.78.78,0,0,1,.5-1,.77.77,0,0,1,.27-.08l8.07-1.43h.07a1.41,1.41,0,0,0,.75-.59,1.28,1.28,0,0,0,.21-1,1.37,1.37,0,0,0-.59-.95,1.35,1.35,0,0,0-1-.23L5.22,37.67A.76.76,0,1,1,5,36.17L11.36,35a2.9,2.9,0,0,1,2.13.5,2.93,2.93,0,0,1,1.2,1.93,2.82,2.82,0,0,1-.46,2.16,3,3,0,0,1-1.52,1.17,1.28,1.28,0,0,1-.34.07L4.42,42.27l-.17,0-.24,0m.17-.06Zm.48-.19Zm7.44-2.73h0Z"/><path class="cls-3" d="M54.47,39.55A62,62,0,0,0,74,44.9a156.52,156.52,0,0,0,25.39-.24,40.75,40.75,0,0,1-1,21.59,46,46,0,0,1-4.89,10.31,40.13,40.13,0,0,1-10.71,11.1,45.82,45.82,0,0,1-8.32,4.56,59.38,59.38,0,0,1-10.71,3.24A50.35,50.35,0,0,1,46.33,94a29.8,29.8,0,0,1-9.15-3.73,47.78,47.78,0,0,1-5.59-4.34,36.47,36.47,0,0,1-5.75-6.49,56.89,56.89,0,0,1-7.07-13.91c-.24-.7-.47-1.41-.67-2.14q-1.59-6.94,1.59-11.14a46.86,46.86,0,0,1,5.66-6.39l2-1.8q8.19-6.92,16.91-6.58a32.56,32.56,0,0,1,9.48,1.83l.74.28"/><path class="cls-2" d="M59.32,96.41a48.62,48.62,0,0,1-13.2-1.71,30.71,30.71,0,0,1-9.35-3.83,49.82,49.82,0,0,1-5.7-4.41,38.82,38.82,0,0,1-5.87-6.63,57.84,57.84,0,0,1-7.15-14.1c-.25-.7-.48-1.43-.69-2.18-1.12-4.87-.53-8.83,1.72-11.8a47.5,47.5,0,0,1,5.74-6.48l2-1.82c5.61-4.73,11.48-7,17.46-6.78A33.89,33.89,0,0,1,54,38.55c.26.09.52.18.78.29a61.63,61.63,0,0,0,19.35,5.3,157.1,157.1,0,0,0,25.25-.24.76.76,0,0,1,.14,1.52A158.13,158.13,0,0,1,74,45.66a62.92,62.92,0,0,1-19.82-5.41c-.22-.09-.44-.18-.67-.25a32.22,32.22,0,0,0-9.26-1.8c-5.6-.22-11.11,1.94-16.4,6.4l-2,1.79a46.5,46.5,0,0,0-5.55,6.27c-2,2.61-2.47,6.14-1.47,10.51.19.69.41,1.39.65,2.06a56.73,56.73,0,0,0,7,13.74,36.49,36.49,0,0,0,5.63,6.35,47.5,47.5,0,0,0,5.51,4.28,29.27,29.27,0,0,0,8.9,3.62,50.31,50.31,0,0,0,17.26,1.49.77.77,0,1,1,.11,1.53c-1.55.11-3.07.17-4.56.17"/><path class="cls-2" d="M63.82,96.55a1.07,1.07,0,0,1-.22-2.12,58.89,58.89,0,0,0,10.52-3.2,44.9,44.9,0,0,0,8.12-4.45A39.1,39.1,0,0,0,92.66,76a44.94,44.94,0,0,0,4.77-10.07,39.91,39.91,0,0,0,1-21,1.07,1.07,0,1,1,2.08-.49,42.05,42.05,0,0,1-1,22.16,47.25,47.25,0,0,1-5,10.57,41.16,41.16,0,0,1-11,11.4A47.29,47.29,0,0,1,75,93.2a61.76,61.76,0,0,1-10.9,3.33l-.23,0"/><path class="cls-4" d="M77.84,68.06a1.11,1.11,0,0,1-.3-1A1.72,1.72,0,0,1,78.16,66a1.55,1.55,0,0,1,1.07-.4,1.36,1.36,0,0,1,1,.4,1.4,1.4,0,0,1,.23,1.07,1.62,1.62,0,0,1-.55,1,1.73,1.73,0,0,1-1.14.46,1.1,1.1,0,0,1-.94-.46"/><path class="cls-4" d="M77,73.44a1.11,1.11,0,0,1-.31-1,1.75,1.75,0,0,1,.62-1.07A1.56,1.56,0,0,1,78.4,71a1.34,1.34,0,0,1,1,.4,1.41,1.41,0,0,1,.24,1.07,1.69,1.69,0,0,1-.55,1A1.72,1.72,0,0,1,78,73.9a1.06,1.06,0,0,1-.94-.46"/><path class="cls-4" d="M76.19,78.82a1.1,1.1,0,0,1-.31-1,1.79,1.79,0,0,1,.63-1.07,1.59,1.59,0,0,1,1.07-.39,1.4,1.4,0,0,1,1,.39,1.46,1.46,0,0,1,.23,1.07,1.57,1.57,0,0,1-.55,1,1.68,1.68,0,0,1-1.14.46,1.08,1.08,0,0,1-.94-.46"/><path class="cls-4" d="M82.26,76.5a1.19,1.19,0,0,1-1.64-1,1.48,1.48,0,0,1,.32-1.07,2,2,0,0,1,1-.73,1.53,1.53,0,0,1,1.1.19,1.13,1.13,0,0,1,.54.85,1.57,1.57,0,0,1-.31,1.16,1.54,1.54,0,0,1-1,.64"/><path class="cls-4" d="M84.79,70.11A1.64,1.64,0,0,1,84,71a1.58,1.58,0,0,1-1.18.14,1.13,1.13,0,0,1-.75-.68,1.57,1.57,0,0,1,0-1.13,2,2,0,0,1,.87-.88A1.48,1.48,0,0,1,84,68.3a1.23,1.23,0,0,1,.83.7,1.28,1.28,0,0,1-.06,1.11"/><path class="cls-4" d="M73.05,76.49a1.32,1.32,0,0,0,1.12-.11,1.82,1.82,0,0,0,.84-.93,1.33,1.33,0,0,0,0-1.07,1.26,1.26,0,0,0-.77-.73,1.64,1.64,0,0,0-1.15.19,1.71,1.71,0,0,0-.81.85,1.44,1.44,0,0,0,0,1.15,1,1,0,0,0,.8.65"/><path class="cls-4" d="M72.84,70.11a1.05,1.05,0,0,0,.5.9,1.43,1.43,0,0,0,1.14.14,1.75,1.75,0,0,0,1-.68,1.71,1.71,0,0,0,.36-1.13,1.29,1.29,0,0,0-.59-.88,1.34,1.34,0,0,0-1-.16,1.85,1.85,0,0,0-1,.7,1.35,1.35,0,0,0-.27,1.11"/><path class="cls-4" d="M59.33,116.38l-.21,0a14.12,14.12,0,0,0-7.84,0,.77.77,0,1,1-.42-1.48,15.81,15.81,0,0,1,8.68,0,.76.76,0,0,1-.21,1.5"/></g></g></svg>