<svg xmlns="http://www.w3.org/2000/svg" viewBox="0 0 246.77 210.62"><defs><style>.cls-1{fill:#83e8d3;}.cls-2{fill:#47d7ac;}.cls-3{fill:#fce7c2;}.cls-13,.cls-4,.cls-6{fill:none;stroke-linecap:round;stroke-linejoin:round;}.cls-4{stroke:#edb892;}.cls-4,.cls-6{stroke-width:1.25px;}.cls-5{fill:#f4f4f4;}.cls-6{stroke:#d8d8d8;}.cls-7{fill:#fff;}.cls-8{fill:#faffff;}.cls-9{fill:#d6e3e8;}.cls-10{fill:#9683e5;}.cls-11{fill:#6e69d1;}.cls-12{fill:#f8b242;}.cls-13{stroke:#47d7ac;stroke-width:2px;}.cls-14{fill:#01b593;}.cls-15{fill:#ffb9b8;}.cls-16{fill:#ff88a1;}.cls-17{fill:#1cb594;}</style></defs><g id="레이어_2" data-name="레이어 2"><g id="레이어_1-2" data-name="레이어 1"><path class="cls-1" d="M155.74,176.88S159.88,155,159,136.39c0,0,14.05-23.18,19.26-44,6.25-25,1.63-30.29-1.88-32.48-2.94-1.84-20.95-6.38-15.56,21.76l-52.53,32.92L84.34,137,73.81,159.49l21.7,13,58.82,4.35Z"/><path class="cls-2" d="M155.74,178.13h-1.41l-58.91-4.35a1.37,1.37,0,0,1-.56-.18l-21.7-13a1.26,1.26,0,0,1-.48-1.61L83.21,136.5a1.29,1.29,0,0,1,.28-.38l24-22.45.19-.15,51.81-32.47c-2-11.21-.54-18.61,4.39-22s11.41-1.35,13.21-.22c4.39,2.74,8.63,9.06,2.43,33.85-4.86,19.42-17.48,41.1-19.21,44,.78,18.48-3.28,40.19-3.32,40.4A1.25,1.25,0,0,1,155.74,178.13ZM95.9,171.31l58.52,4.32h.28c.78-4.5,3.81-23.17,3.08-39.18a1.28,1.28,0,0,1,.18-.71c.14-.23,14-23.26,19.11-43.66,6.56-26.2.83-29.78-1.33-31.12-1.18-.74-6.57-2.5-10.46.17-4.1,2.8-5.21,9.82-3.2,20.29a1.26,1.26,0,0,1-.56,1.3l-52.43,32.86-23.72,22.2L75.42,159Z"/><path class="cls-3" d="M.62,210,45,168.48l152.14-2.07s48.67,43.65,49,43.59"/><path class="cls-4" d="M.62,210,45,168.48l152.14-2.07s48.67,43.65,49,43.59"/><path class="cls-5" d="M71,179.49c-.94.19-11.88,14.86-15.64,24.27,0,0,13.61-1.89,63.78-.76,0,0,39.32-2.06,61.33.76,0,0-4.7-16.65-7.62-19.66s-43.36-4.9-54.18,1c0,0-20.32-11.29-47.67-5.65"/><path class="cls-6" d="M71,179.49c-.94.19-11.88,14.86-15.64,24.27,0,0,13.61-1.89,63.78-.76,0,0,39.32-2.06,61.33.76,0,0-4.7-16.65-7.62-19.66s-43.36-4.9-54.18,1C118.68,185.14,98.36,173.85,71,179.49Z"/><path class="cls-7" d="M119.16,199.77c-.32.25.74-8.09-.64-16.19"/><path class="cls-8" d="M169.27,163.93c4.82,6.19,8.57,27.23,9.46,32,.92,4.93-28.55-13.76-61.23,3.26-30.09-17.37-55.89-4.47-55.2-7.05C63.17,188.86,77,160.66,77,160.66c1.17-.34,36.6-.21,42.62,3.74,0,0,35.77-7,49.7-.47"/><path class="cls-9" d="M117.5,200.06a.82.82,0,0,1-.43-.12c-22.49-13-42.26-8.9-50.71-7.16-3,.63-4,.84-4.66.19a1.12,1.12,0,0,1-.25-1.06c.89-3.32,14.15-30.48,14.71-31.63a.88.88,0,0,1,.54-.46c1.5-.44,35.93-.31,43,3.66,3.88-.74,36.43-6.67,49.9-.34a.72.72,0,0,1,.32.25c3.17,4.07,6.37,14.77,9.52,31.79l.11.58a1.51,1.51,0,0,1-.41,1.43c-1,.9-3,.38-7.31-.76-10.18-2.67-31.38-8.24-54,3.53A.86.86,0,0,1,117.5,200.06ZM83.55,189a67.75,67.75,0,0,1,34,9.17c23-11.79,44.45-6.17,54.79-3.45a29.3,29.3,0,0,0,5.51,1.17l-.07-.41c-3-16.51-6.1-26.89-9-30.87-13.66-6.19-48.61.56-49,.63a.85.85,0,0,1-.65-.13c-5.42-3.56-37.47-3.88-41.57-3.65-4.45,9.13-12.43,25.72-14.1,30.08.65-.09,1.63-.29,2.59-.49A83.06,83.06,0,0,1,83.55,189Z"/><path class="cls-10" d="M62,200.94h62.56l54.49.47s3.24.09,3.24,3.2a2.93,2.93,0,0,1-3.07,3H57.55s-4.69-.11-3.91-3.86c.67-3.27,3.66-2.84,8.39-2.83"/><path class="cls-11" d="M179.27,208.26H57.55c-.12,0-2.68-.08-3.94-1.66a3.42,3.42,0,0,1-.58-3c.7-3.42,3.57-3.38,7.55-3.34l1.46,0h62.55l54.49.47a3.77,3.77,0,0,1,3.86,3.82,3.52,3.52,0,0,1-1,2.62A4.09,4.09,0,0,1,179.27,208.26Zm-120-6.72c-3.24,0-4.64.28-5.07,2.35a2.19,2.19,0,0,0,.33,1.92,4.56,4.56,0,0,0,3,1.2H179.25a2.85,2.85,0,0,0,1.84-.68,2.34,2.34,0,0,0,.61-1.72,2.61,2.61,0,0,0-2.64-2.58l-54.48-.47H59.32Z"/><path class="cls-12" d="M85.41,150.13c.11-.27-1.59,7.26-.26,12.33"/><path class="cls-13" d="M85.41,150.13c.11-.27-1.59,7.26-.26,12.33"/><path class="cls-1" d="M80.39,155.38s14.74-.94,19.57,2.88,4.52,9.6,2.32,12.29-8.91,7.72-25.27,6.21-18.88-13.61-18.19-20.32,7.34-22.82,31-25.52"/><path class="cls-2" d="M82.77,178.29c-1.81,0-3.76-.09-5.88-.28-6.72-.62-11.84-3-15.22-7.11-4.49-5.46-4.36-12-4.09-14.58.82-8,8.6-24,32.14-26.64a1.25,1.25,0,1,1,.28,2.48c-22,2.5-29.18,17.06-29.94,24.41-.18,1.76-.46,7.87,3.55,12.74,2.93,3.56,7.47,5.65,13.51,6.21,16.83,1.54,22.77-4,24.19-5.75a6.66,6.66,0,0,0,1.2-4.79,8.38,8.38,0,0,0-3.33-5.74c-3.65-2.89-14.74-2.87-18.71-2.62a1.25,1.25,0,0,1-.16-2.49c.63,0,15.28-.93,20.43,3.15a11.09,11.09,0,0,1,4.26,7.43,9.09,9.09,0,0,1-1.75,6.63C101.43,173.58,96,178.29,82.77,178.29Z"/><path class="cls-9" d="M117.34,198.26a.64.64,0,0,1-.3-.08c-.42-.23-.42-.23,0-3.82.7-6.4,2.33-21.39,1.11-30.26a.62.62,0,0,1,.53-.7.61.61,0,0,1,.7.53c1.25,9-.4,24.12-1.1,30.57-.16,1.4-.29,2.62-.3,3a.65.65,0,0,1-.21.65A.67.67,0,0,1,117.34,198.26Z"/><path class="cls-7" d="M50.15,20.49A12.4,12.4,0,0,0,47.69,20Q41,19.3,39.64,27a23.19,23.19,0,0,0,2.17,12.6,40.25,40.25,0,0,0,8.42,11.82,43.26,43.26,0,0,0,20.56-15Q61.17,24.22,50.15,20.49"/><path class="cls-2" d="M50.56,52.85a1.44,1.44,0,0,1-1.35-.38A41.93,41.93,0,0,1,40.5,40.25a24.77,24.77,0,0,1-2.3-13.4c1.29-7.57,5.95-8.69,9.64-8.31a13.43,13.43,0,0,1,2.75.56c7.62,2.59,14.78,8.1,21.33,16.4a1.44,1.44,0,0,1,0,1.76A44.78,44.78,0,0,1,50.72,52.8l-.16.05M45.15,21.52c-1.78.42-3.41,1.84-4.08,5.74A21.81,21.81,0,0,0,43.14,39,38.54,38.54,0,0,0,50.6,49.75,41.85,41.85,0,0,0,68.94,36.42c-6-7.36-12.47-12.26-19.25-14.56a9.73,9.73,0,0,0-2.12-.43A7.31,7.31,0,0,0,45.15,21.52Z"/><path class="cls-7" d="M134.88,17.76a23.52,23.52,0,0,0-3.71-12.29Q126.52-.84,120.82,2.8a10.45,10.45,0,0,0-2,1.54q-8.18,8.28-11.32,23.46a43.25,43.25,0,0,0,25.11,4.25,40.32,40.32,0,0,0,2.25-14.29"/><path class="cls-2" d="M133,33.46l-.17,0a44.83,44.83,0,0,1-25.94-4.4,1.43,1.43,0,0,1-.76-1.58c2.14-10.36,6.08-18.5,11.71-24.2a12.62,12.62,0,0,1,2.28-1.76c3.07-2,7.74-3.06,12.24,3.06a25.05,25.05,0,0,1,4,13.1A42,42,0,0,1,134,32.51a1.46,1.46,0,0,1-1,1M109.18,27a41.91,41.91,0,0,0,22.36,3.7,38.38,38.38,0,0,0,1.89-12.9A22.14,22.14,0,0,0,130,6.26C126.59,1.7,123.72,2.67,121.6,4a10,10,0,0,0-1.75,1.36C114.84,10.45,111.25,17.73,109.18,27Z"/><path class="cls-7" d="M147.23,35.75q-11.32-13.68-30.16-16.94a80.61,80.61,0,0,0-29.68,1l-.4.09-.45.11-.4.09a80.65,80.65,0,0,0-27,12.43q-16.8,12.39-20,31.87a69.77,69.77,0,0,0,.74,24.4,42.52,42.52,0,0,1,1,11.45q-2.22,25.92,17.47,34.59a37.88,37.88,0,0,0,4.25,1.6l.19.08c1.25.42,2.5.81,3.77,1.16a83.33,83.33,0,0,0,31.77,2.5l2.28-.29A99.63,99.63,0,0,0,114,137.72l1.25-.29a100.38,100.38,0,0,0,12.92-4.08c.74-.26,1.46-.51,2.16-.77a88.37,88.37,0,0,0,12.45-5.75,80.61,80.61,0,0,0,14.85-10.71c1-.92,2-1.88,3-2.88a39.6,39.6,0,0,0,3.09-3.33q13.71-16.57.13-38.75a42.26,42.26,0,0,1-4.27-10.66q-4.24-15-12.28-24.75"/><path class="cls-1" d="M168.88,101.05q5-13.38-5.1-29.89a41.89,41.89,0,0,1-4.27-10.66c-.56-2-1.19-3.89-1.86-5.74.15-.21.28-.42.42-.63a1,1,0,1,0-1.69-1.19A71.12,71.12,0,0,0,149,66c-2,4.62-1.58,10,1.42,16.1.5.92,1,1.82,1.58,2.66a79.63,79.63,0,0,0,15.8,18.11,1,1,0,0,0,1.46-.11,1,1,0,0,0-.11-1.46Z"/><path class="cls-1" d="M51.79,89a71.08,71.08,0,0,0-12.5-8.42,1,1,0,0,0-1,1.82l.65.37c.24,2,.53,4,.92,6a42.52,42.52,0,0,1,1,11.45q-1.67,19.31,8.87,29l-.14.35a1,1,0,1,0,1.91.8,80.36,80.36,0,0,0,6-23.29c.11-1,.19-2.06.23-3.16C57.67,97.24,55.67,92.2,51.79,89Z"/><path class="cls-2" d="M114.28,139.13a102.65,102.65,0,0,1-13.58,2.18l-2.23.27A84.92,84.92,0,0,1,66.12,139c-1.28-.35-2.57-.75-3.83-1.18l-.21-.08a40.94,40.94,0,0,1-4.36-1.64c-13.69-6-19.86-18.16-18.32-36a41.12,41.12,0,0,0-.94-11,71.36,71.36,0,0,1-.73-24.94c2.2-13.31,9.12-24.34,20.58-32.8A82.1,82.1,0,0,1,85.79,18.67l1.27-.3a82,82,0,0,1,30.22-1c12.89,2.23,23.33,8.1,31.07,17.45C153.81,41.44,158,50,160.9,60.1A41.14,41.14,0,0,0,165,70.43c9.36,15.28,9.28,28.88-.26,40.41a44.2,44.2,0,0,1-3.2,3.45c-.95,1-2,2-3,2.91a82.64,82.64,0,0,1-15.11,10.9,91.22,91.22,0,0,1-12.65,5.84l-2.19.78a101.14,101.14,0,0,1-13.06,4.12l-1.26.29M86.47,21.49A79.23,79.23,0,0,0,60,33.69c-10.8,8-17.34,18.37-19.41,30.91a68.59,68.59,0,0,0,.72,23.9,43.89,43.89,0,0,1,1,11.82v0c-1.44,16.75,4,27.59,16.6,33.15A37.93,37.93,0,0,0,63,135l.31.11c1.14.4,2.37.78,3.6,1.12a82.14,82.14,0,0,0,31.23,2.45l2.25-.28a97.61,97.61,0,0,0,13.24-2.11l1.24-.3a97.41,97.41,0,0,0,12.73-4l2.21-.78A87.84,87.84,0,0,0,142,125.57a79.79,79.79,0,0,0,14.58-10.52c1-.9,2-1.85,2.92-2.81a40.39,40.39,0,0,0,3-3.25c8.79-10.62,8.79-22.74,0-37.07a43.94,43.94,0,0,1-4.43-11.05c-2.76-9.74-6.79-17.89-12-24.19-7.29-8.8-17.14-14.33-29.29-16.44a79.52,79.52,0,0,0-29.11,1ZM40.84,100.22h0Z"/><path d="M86.51,93a14.59,14.59,0,0,0-.1-7.09,14.83,14.83,0,0,0-3.1-6.42Q81.16,77.06,79,77.56t-3,3.64a14.41,14.41,0,0,0,.07,7.14,14,14,0,0,0,3.13,6.38c1.44,1.67,2.88,2.34,4.3,2s2.41-1.58,3-3.73"/><path class="cls-1" d="M79.61,68.31l.09,0a3.09,3.09,0,0,0,2.7-3.15,3,3,0,0,0-1-2.07,2.72,2.72,0,0,0-2-.77L68.17,63a2.87,2.87,0,0,0-1.94,1,3.05,3.05,0,0,0-.73,2.17,2.83,2.83,0,0,0,.94,2,3,3,0,0,0,1.81.81h.22l11.14-.63"/><path class="cls-2" d="M80.4,69.27a3.51,3.51,0,0,1-.65.09h-.23L68.59,70a1.43,1.43,0,0,1-.46,0,3.89,3.89,0,0,1-2.38-1.08,3.79,3.79,0,0,1-1.28-2.69,4,4,0,0,1,1-2.9A3.94,3.94,0,0,1,68.08,62l11.29-.66a3.75,3.75,0,0,1,2.75,1,4.06,4.06,0,0,1,1.32,2.76,4.19,4.19,0,0,1-3,4.15m-.56,0Zm0,0Zm-.7-.11h0Zm.64-1.93a1.64,1.64,0,0,0,1.07-.65l.07-.09a1.57,1.57,0,0,0,.45-1.29,2,2,0,0,0-.68-1.39,1.69,1.69,0,0,0-1.25-.48L68.23,64a1.77,1.77,0,0,0-1.23.62,2,2,0,0,0-.46,1.42,1.75,1.75,0,0,0,.6,1.29,1.91,1.91,0,0,0,1.18.54h.09l11.1-.62Zm-11.29.66Zm-.26,0Z"/><path d="M116.59,78.78a14.07,14.07,0,0,0,3.12,6.37q2.17,2.52,4.31,2t3-3.72a14,14,0,0,0-.06-7.1,14.33,14.33,0,0,0-3.13-6.42q-2.15-2.43-4.29-1.92c-1.42.33-2.42,1.55-3,3.64a14.29,14.29,0,0,0,.07,7.14"/><path class="cls-1" d="M124.85,50.12a2.82,2.82,0,0,0-2.17,0l-10.37,4.45a2.66,2.66,0,0,0-1.41,1.57,3,3,0,0,0,0,2.29,2.59,2.59,0,0,0,1.6,1.54,2.63,2.63,0,0,0,2.24.07l.07-.06,10.24-4.42.19-.09a2.84,2.84,0,0,0,1.26-1.53,2.81,2.81,0,0,0,0-2.2,3,3,0,0,0-1.62-1.62"/><path class="cls-2" d="M114.55,61.2A4.19,4.19,0,0,1,110,58.84a4.07,4.07,0,0,1,0-3.05,3.7,3.7,0,0,1,1.94-2.15l10.41-4.47a3.89,3.89,0,0,1,3,0,4,4,0,0,1,2.19,2.18,3.79,3.79,0,0,1,.06,3,3.87,3.87,0,0,1-1.64,2,1.65,1.65,0,0,1-.42.21l-10,4.34-.2.11a3.78,3.78,0,0,1-.62.21m.52-.21Zm0,0Zm.57-.41ZM123.36,51l-.3.09-10.34,4.44a1.64,1.64,0,0,0-.85,1,2,2,0,0,0,0,1.53,1.55,1.55,0,0,0,1,1l.1,0a1.62,1.62,0,0,0,1.25.1l.24-.12,10.21-4.41.08,0h0a1.93,1.93,0,0,0,.81-1,1.74,1.74,0,0,0,0-1.43,1.9,1.9,0,0,0-1.08-1.07A1.71,1.71,0,0,0,123.36,51Zm1.24,3.68h0Z"/><path d="M108.27,110.83a13.1,13.1,0,0,1-8-.42,7.51,7.51,0,0,1-3.94-3.23.94.94,0,0,1,.37-1.27.92.92,0,0,1,1.26.37,5.67,5.67,0,0,0,3,2.4,11.39,11.39,0,0,0,6.91.34,11.2,11.2,0,0,0,6-3.39,5.69,5.69,0,0,0,1.64-3.5.93.93,0,0,1,1.86.07,7.4,7.4,0,0,1-2.11,4.67,13,13,0,0,1-7,4"/><path class="cls-14" d="M78.2,118a31,31,0,0,1-3.43.59,27.42,27.42,0,0,1-20.25-5.54A27.1,27.1,0,0,1,43.8,95.16a26,26,0,0,1,23-29.94A27.21,27.21,0,0,1,87,70.79,26.74,26.74,0,0,1,97.73,88.7a25.1,25.1,0,0,1-5.14,19.85A24.78,24.78,0,0,1,78.2,118M64.09,69.1a21.73,21.73,0,0,0-12.58,8.24,22,22,0,0,0-4.38,17.32,23.5,23.5,0,0,0,9.42,15.75,23.85,23.85,0,0,0,17.84,4.87,22.83,22.83,0,0,0,20-26.08h0A23.19,23.19,0,0,0,85,73.47a23.62,23.62,0,0,0-17.73-4.91A25.86,25.86,0,0,0,64.09,69.1Z"/><path class="cls-7" d="M77.29,115a23.92,23.92,0,0,1-3,.52,24.27,24.27,0,0,1-18-5A24,24,0,0,1,46.8,94.7,23,23,0,0,1,67.23,68.19,24.18,24.18,0,0,1,85.1,73.12,23.81,23.81,0,0,1,94.66,89a23.24,23.24,0,0,1-17.37,26M64.51,70.36A21.34,21.34,0,0,0,48.46,94.45a22.34,22.34,0,0,0,8.88,14.8,22.68,22.68,0,0,0,16.75,4.63A21.55,21.55,0,0,0,93,89.26h0a22.11,22.11,0,0,0-8.91-14.8,22.54,22.54,0,0,0-16.67-4.6A22.8,22.8,0,0,0,64.51,70.36Z"/><path class="cls-14" d="M140.22,103.37a30.87,30.87,0,0,1-3.42.59,27.44,27.44,0,0,1-20.26-5.54A27,27,0,0,1,105.83,80.5a26,26,0,0,1,23-29.94A27.2,27.2,0,0,1,149,56.13,26.71,26.71,0,0,1,159.75,74a25.13,25.13,0,0,1-5.13,19.85,24.8,24.8,0,0,1-14.4,9.48M126.11,54.44a21.73,21.73,0,0,0-12.58,8.24A22,22,0,0,0,109.15,80a23.54,23.54,0,0,0,9.42,15.75,23.86,23.86,0,0,0,17.84,4.87A21.55,21.55,0,0,0,152,91.85a21.61,21.61,0,0,0,4.48-17.31h0A23.19,23.19,0,0,0,147,58.81a23.59,23.59,0,0,0-17.72-4.91A25.69,25.69,0,0,0,126.11,54.44Z"/><path class="cls-7" d="M139.32,100.36a24.56,24.56,0,0,1-3,.52,24.29,24.29,0,0,1-18-4.95A24,24,0,0,1,108.82,80a23,23,0,0,1,20.43-26.51,24.17,24.17,0,0,1,17.87,4.93,23.78,23.78,0,0,1,9.56,15.89,23.22,23.22,0,0,1-17.36,26M126.54,55.7a21.33,21.33,0,0,0-16.06,24.09,22.38,22.38,0,0,0,8.88,14.8,22.69,22.69,0,0,0,16.76,4.63,20.79,20.79,0,0,0,14.7-8.3A20.56,20.56,0,0,0,155,74.6h0a22.12,22.12,0,0,0-8.92-14.8,22.52,22.52,0,0,0-16.66-4.6A22.2,22.2,0,0,0,126.54,55.7Z"/><path class="cls-14" d="M107.6,86.18a1.64,1.64,0,0,1-1-.07A9.64,9.64,0,0,0,102,85.6a9.37,9.37,0,0,0-4,2,1.66,1.66,0,0,1-2.25-2.45A11.48,11.48,0,0,1,107.84,83a1.66,1.66,0,0,1,.92,2.17A1.65,1.65,0,0,1,107.6,86.18Z"/><path class="cls-15" d="M79.19,130.42a5.66,5.66,0,0,1,3.7-3.7,7.41,7.41,0,0,1,5.42,0l14.76,48.5s.42,8.7-1.58,9.55-6.65-5.1-7.85-7.19S79.19,130.42,79.19,130.42Z"/><path class="cls-16" d="M101,185.88c-3.24,0-7.06-5.83-8.22-7.74a1,1,0,0,1-.11-.23L78.19,130.75a.87.87,0,0,1,0-.36c0-.12.25-3.07,4.35-4.57,3.53-1.28,5.69-.25,6.21.05l.05,0,.07,0h0c.53.5,1.38,3.18,7.71,23.17,3.57,11.3,7.12,22.58,7.12,22.58a1,1,0,0,1,0,.17c.53,3.81,1.4,12.81-1.93,13.89A2.38,2.38,0,0,1,101,185.88Zm-6.45-8.68c2.19,3.57,5.36,7.07,6.62,6.65,1.09-.35,1.37-5.89.58-11.64-5.26-16.76-13.14-41.71-14.24-44.73a5.84,5.84,0,0,0-4.28.22c-2.37.86-2.91,2.24-3,2.69Z"/><path class="cls-17" d="M127.92,157.94a12.77,12.77,0,0,0-1-4.77,11.13,11.13,0,0,0-2.65-3.94,12.12,12.12,0,0,0-17.34.08,11.76,11.76,0,0,0-2.61,4,12.29,12.29,0,0,0-1,4.81v.71l6.68,0v-.71a5.62,5.62,0,0,1,1.62-4,5.6,5.6,0,0,1,7.92,0,5.33,5.33,0,0,1,1.7,4v.66h6.64v-.74"/><path class="cls-1" d="M79.19,155.53s24-2.93,25.3,9.51-20.91,11.83-27.58,10.2S64.07,167.69,67.33,162,79.19,155.53,79.19,155.53Z"/><path class="cls-13" d="M79.19,155.53s24.2-3.42,25.3,9.51c1,12-20.81,13.35-27.48,11.72"/></g></g></svg>