<svg xmlns="http://www.w3.org/2000/svg" viewBox="0 0 101.53 158.93"><defs><style>.cls-1{fill:#83e8d3;}.cls-2{fill:#47d7ac;}.cls-3{fill:#1cb594;}.cls-4{fill:#fff;}</style></defs><g id="레이어_2" data-name="레이어 2"><g id="레이어_1-2" data-name="레이어 1"><path class="cls-1" d="M47.2,129.81l.89,21.78a3.87,3.87,0,0,0-2,3.06q-.21,3,4.81,3.15a74.21,74.21,0,0,0,8.84-.15q4.43-.41,3.42-6.21l.8-21.63H47.2"/><path class="cls-2" d="M54.2,158.93q-1.64,0-3.36-.06c-2.43-.09-4.06-.64-5-1.68a3.4,3.4,0,0,1-.83-2.62A4.78,4.78,0,0,1,47,151l-.86-21.17a1.07,1.07,0,1,1,2.13-.09l.89,21.78a1.05,1.05,0,0,1-.52,1,2.79,2.79,0,0,0-1.5,2.24,1.26,1.26,0,0,0,.3,1c.35.39,1.25.89,3.47,1a71.92,71.92,0,0,0,8.71-.15,2.73,2.73,0,0,0,2.05-.93c.61-.78.74-2.14.42-4l0-.22.8-21.63a1.07,1.07,0,1,1,2.14.08l-.8,21.51c.42,2.49.14,4.32-.84,5.59a4.76,4.76,0,0,1-3.56,1.76c-1.73.15-3.61.22-5.61.22"/><path class="cls-1" d="M28.49,129.81l.88,21.78a3.87,3.87,0,0,0-2,3.06q-.21,3,4.81,3.15a74.17,74.17,0,0,0,8.84-.15q4.43-.41,3.42-6.21l.8-21.63H28.49"/><path class="cls-2" d="M35.48,158.93q-1.63,0-3.36-.06c-2.43-.09-4.06-.64-5-1.68a3.4,3.4,0,0,1-.83-2.62,4.78,4.78,0,0,1,2-3.54l-.86-21.17a1.07,1.07,0,0,1,1-1.12,1.09,1.09,0,0,1,1.12,1l.88,21.78a1.05,1.05,0,0,1-.52,1,2.79,2.79,0,0,0-1.5,2.24,1.26,1.26,0,0,0,.3,1c.35.39,1.25.89,3.48,1a72,72,0,0,0,8.71-.15,2.72,2.72,0,0,0,2-.93c.61-.78.75-2.14.42-4l0-.22.8-21.63a1.07,1.07,0,1,1,2.14.08l-.79,21.51c.41,2.49.13,4.32-.85,5.59a4.76,4.76,0,0,1-3.56,1.76c-1.73.15-3.61.22-5.61.22"/><path class="cls-1" d="M42.56,95l-6.79-3.55a143,143,0,0,0-24.41,28.14q-6,9,.21,13.37a6.11,6.11,0,0,0,3.86.95,8.85,8.85,0,0,0,4.64-2.08,20.8,20.8,0,0,0,4.13-4.71Q29.53,119.2,42.56,95"/><path class="cls-2" d="M14.86,135A7.21,7.21,0,0,1,11,133.84l-.06,0c-3.2-2.26-5.89-6.68-.48-14.83A144.63,144.63,0,0,1,35.05,90.63a1.06,1.06,0,0,1,1.21-.15L43.05,94a1.05,1.05,0,0,1,.53.64,1.11,1.11,0,0,1-.08.82c-8.66,16.11-14.86,26.94-18.41,32.21a22.34,22.34,0,0,1-4.33,4.94A10,10,0,0,1,15.51,135c-.21,0-.43,0-.65,0M12.16,132a5.05,5.05,0,0,0,3.17.77A7.81,7.81,0,0,0,19.41,131a20,20,0,0,0,3.9-4.46c3.45-5.11,9.43-15.56,17.79-31.08l-5.17-2.7a142.14,142.14,0,0,0-23.68,27.43C6.9,128.23,10.81,131.08,12.16,132Z"/><path class="cls-1" d="M47.51,91.64V85H37.36a151.53,151.53,0,0,0-9.49,18,61,61,0,0,0-3.76,11q-3.48,15.35,7,21.71L38,132.35l3.64,7,4.46.16h1.5a33.43,33.43,0,0,0,3.34-.25l3.73-7.09,7.8,3.6c.44-.27.87-.55,1.28-.85q9-6.49,5.69-20.86a60.18,60.18,0,0,0-3.76-11L53.38,91.64H47.51"/><path class="cls-2" d="M63.14,152.51h0a1.08,1.08,0,0,1-1-1.11l.61-16.54v-.05a.94.94,0,0,1,.12-.42,1,1,0,0,1,.28-.35l0,0c5.64-4.09,7.36-10.55,5.27-19.75a59.67,59.67,0,0,0-3.7-10.79,1.07,1.07,0,1,1,2-.86,62.6,62.6,0,0,1,3.83,11.17c2.21,9.77.3,17-5.69,21.65l-.59,16a1.08,1.08,0,0,1-1.07,1m-15.54-12H46.1l-4.5-.16a1.06,1.06,0,0,1-1-1.1,1.08,1.08,0,0,1,1.1-1l4.47.16h1.48a1.07,1.07,0,0,1,0,2.14Zm-16.51-3.73a1,1,0,0,1-.56-.16c-7.38-4.49-9.89-12.18-7.46-22.87a61.72,61.72,0,0,1,3.82-11.17,154.21,154.21,0,0,1,9.55-18.17,1.07,1.07,0,0,1,1.83,1.11,151.24,151.24,0,0,0-9.41,17.91,59.42,59.42,0,0,0-3.7,10.79c-2.24,9.83-.11,16.56,6.48,20.57a1.07,1.07,0,0,1-.55,2Z"/><path class="cls-3" d="M49,116.9a9.39,9.39,0,0,0-.74-3.51,8.24,8.24,0,0,0-2-2.91,8.95,8.95,0,0,0-12.79.06,8.66,8.66,0,0,0-1.92,2.94,9.07,9.07,0,0,0-.71,3.55v.52l4.93,0V117A4.12,4.12,0,0,1,37,114a4.12,4.12,0,0,1,5.84,0,3.9,3.9,0,0,1,1.26,3v.49H49v-.55"/><path class="cls-1" d="M85.62,119.56q-2.85-4.38-6.15-8.62A149.57,149.57,0,0,0,61.21,91.42L54.42,95q4.92,9.15,8.75,16,6.3,11.24,9.61,16.15a20.8,20.8,0,0,0,4.13,4.71,8.85,8.85,0,0,0,4.64,2.08,6.13,6.13,0,0,0,3.86-.95q6.18-4.37.21-13.37"/><path class="cls-2" d="M82.11,135a4.73,4.73,0,0,1-.65,0,9.87,9.87,0,0,1-5.22-2.3,22.31,22.31,0,0,1-4.36-5c-2.21-3.28-5.45-8.73-9.64-16.22a1.06,1.06,0,0,1,.41-1.45,1.07,1.07,0,0,1,1.46.41c4.16,7.43,7.37,12.84,9.55,16.07A20,20,0,0,0,77.59,131a7.75,7.75,0,0,0,4,1.84,5.07,5.07,0,0,0,3.18-.77c1.34-1,5.26-3.81-.09-11.88-1.89-2.9-3.94-5.77-6.1-8.56A149.49,149.49,0,0,0,60.5,92.22a1.07,1.07,0,1,1,1.43-1.59,151.69,151.69,0,0,1,18.39,19.65c2.2,2.84,4.29,5.77,6.2,8.7,5.4,8.14,2.71,12.56-.49,14.82l-.06,0A7.22,7.22,0,0,1,82.11,135"/><path class="cls-4" d="M38.77,11.43a17.37,17.37,0,0,0-4.56-8.3q-4.3-3.85-7.87-.35a7.72,7.72,0,0,0-1.19,1.4,30.73,30.73,0,0,0-4.44,14.36c0,.28-.05.57-.07.85v.13c0,.23,0,.46,0,.69s0,.56-.05.83c0,.59,0,1.2,0,1.81.62.16,1.24.3,1.87.44l1.33.25.59.09h.14a31.87,31.87,0,0,0,11-.48l.13,0,.25-.05c1.15-.28,2.31-.61,3.48-1,.11-.91.19-1.8.23-2.68a.61.61,0,0,1,0-.27,2.53,2.53,0,0,0,0-.28,27.87,27.87,0,0,0-.79-7.43"/><path class="cls-2" d="M20.65,21.29h0a1.07,1.07,0,0,1-1-1.1l0-.82V19.3l.08-.85A31.81,31.81,0,0,1,24.27,3.61,9.56,9.56,0,0,1,25.65,2C27.57.1,30.77-1.4,35,2.34a18.48,18.48,0,0,1,4.87,8.84,29.17,29.17,0,0,1,.83,7.72v.41a1.07,1.07,0,0,1-.86,1.16,1.05,1.05,0,0,1-1.25-.84,1.94,1.94,0,0,1,0-.59v-.19a27,27,0,0,0-.76-7.15,16.43,16.43,0,0,0-4.27-7.81c-3.12-2.78-5.05-1.65-6.37-.34A6.69,6.69,0,0,0,26.06,4.8a29.66,29.66,0,0,0-4.25,13.83l-.08.93v.68a1.08,1.08,0,0,1-1.07,1.05"/><path class="cls-4" d="M91.49,28c-.3-.41-.62-.81-.94-1.2A45.63,45.63,0,0,0,65,10.86,82.19,82.19,0,0,0,54.48,9.3c-.83-.08-1.65-.13-2.44-.15-1.84-.07-3.65,0-5.45.06a.8.8,0,0,0-.3.06,1,1,0,0,0-.34,0l-.3,0a60,60,0,0,0-21.14,5.81q-14.4,7.22-19,21.66a2.08,2.08,0,0,0-.16.46C5.08,38.1,4.82,39,4.6,40a3.86,3.86,0,0,0-.09.49l0,.12a53.11,53.11,0,0,0-1.23,12.3,30.8,30.8,0,0,1-.79,8.25A33,33,0,0,0,1.11,71.79a19.37,19.37,0,0,0,.25,2.32,1.44,1.44,0,0,0,.06.4,8.12,8.12,0,0,0,.36,1.71,19.2,19.2,0,0,0,1.56,4c.27.47.55.93.86,1.38a.63.63,0,0,0,.18.27,20.75,20.75,0,0,0,6.09,5.91,31.61,31.61,0,0,0,2.81,1.68c.86.47,1.76.93,2.7,1.37a61.19,61.19,0,0,0,22.6,5.6l1.65.12a81.35,81.35,0,0,0,10,.13l1-.1q2.2-.15,4.44-.39c2.1-.27,4.12-.57,6.05-.92.25-.06.5-.11.77-.15a64.52,64.52,0,0,0,11.62-3.49l.21-.09A50.25,50.25,0,0,0,82.69,87c.42-.31.85-.62,1.28-.95a40.86,40.86,0,0,0,9.51-10.12,45.61,45.61,0,0,0,4.93-10.25,43.14,43.14,0,0,0,2-12.66,38.22,38.22,0,0,0-2-12,44,44,0,0,0-3.37-7.53c-.32-.56-.66-1.12-1-1.68s-.54-.9-.82-1.35c-.23-.3-.45-.61-.67-.91a5.72,5.72,0,0,0-.56-.8,6.58,6.58,0,0,1-.52-.73"/><path class="cls-2" d="M46.24,97.88q-3.06,0-6.09-.22l-1.65-.12a62.7,62.7,0,0,1-23-5.7c-1-.46-1.88-.93-2.75-1.4a32.71,32.71,0,0,1-2.9-1.74,21.69,21.69,0,0,1-6.33-6.12,1.72,1.72,0,0,1-.3-.44c-.29-.44-.57-.9-.83-1.35A20,20,0,0,1,.76,76.53a8.7,8.7,0,0,1-.4-1.82,2.23,2.23,0,0,1-.07-.5A22.34,22.34,0,0,1,0,71.84a34.12,34.12,0,0,1,1.38-11,29.87,29.87,0,0,0,.76-8A55.42,55.42,0,0,1,3.41,40.42l0-.21c0-.17.06-.33.1-.49.22-1,.48-1.9.77-2.79a4.12,4.12,0,0,1,.18-.53C7.65,26.55,14.22,19.07,24,14.15A61.45,61.45,0,0,1,45.56,8.23h.18a2.12,2.12,0,0,1,.44,0,1.9,1.9,0,0,1,.41,0C48.35,8,50.22,8,52.07,8.08q1.23,0,2.52.15A82.56,82.56,0,0,1,65.24,9.81,46.88,46.88,0,0,1,91.37,26.08c.33.4.66.81,1,1.24l.07.1a4.06,4.06,0,0,0,.42.59,5.65,5.65,0,0,1,.62.89l.64.87,0,.06c.29.45.57.9.85,1.36s.68,1.14,1,1.71a44.66,44.66,0,0,1,3.45,7.72A39.17,39.17,0,0,1,101.53,53a44.27,44.27,0,0,1-2.1,13A46.85,46.85,0,0,1,94.38,76.5a42.16,42.16,0,0,1-9.76,10.4c-.44.33-.87.65-1.31,1a50.47,50.47,0,0,1-8.61,4.7l-.21.09A65,65,0,0,1,62.65,96.2c-.28,0-.5.09-.72.15h-.07c-2,.35-4,.66-6.11.93-1.51.16-3,.3-4.49.4-.31,0-.6,0-.88.09h-.09q-2,.09-4,.09M5.17,81.19l.11.14a19.59,19.59,0,0,0,5.78,5.59,29.83,29.83,0,0,0,2.73,1.63c.84.47,1.73.92,2.65,1.36a60.7,60.7,0,0,0,22.2,5.49l1.67.13a80.57,80.57,0,0,0,9.83.12c.31,0,.64-.07,1-.09,1.45-.1,2.93-.24,4.39-.4,2-.26,4-.56,6-.9.26-.06.54-.12.82-.16a63.33,63.33,0,0,0,11.38-3.42l.21-.09a49.37,49.37,0,0,0,8.22-4.48l1.24-.92a40,40,0,0,0,9.27-9.86,44.43,44.43,0,0,0,4.8-10,42.12,42.12,0,0,0,2-12.33,37,37,0,0,0-2-11.7A42.21,42.21,0,0,0,94.14,34l-1-1.66q-.39-.64-.81-1.29l-.65-.89-.06-.1a5.19,5.19,0,0,0-.45-.64,8.49,8.49,0,0,1-.59-.83c-.28-.37-.57-.74-.87-1.1a44.81,44.81,0,0,0-25-15.55,79.92,79.92,0,0,0-10.38-1.53c-.81-.08-1.61-.13-2.38-.15-1.8-.06-3.6,0-5.36.06h0a1,1,0,0,1-.54,0,1.67,1.67,0,0,1-.42,0A59,59,0,0,0,25,16.08C15.7,20.72,9.49,27.8,6.54,37.09l0,.1a2.11,2.11,0,0,0-.1.3l0,.07c-.28.84-.52,1.74-.74,2.66a3.1,3.1,0,0,0-.07.38l0,.19v0a52.66,52.66,0,0,0-1.2,12.05,31.25,31.25,0,0,1-.83,8.52v0a31.68,31.68,0,0,0-1.31,10.3,22,22,0,0,0,.23,2.21l0,.17,0,.11,0,.18a6.61,6.61,0,0,0,.32,1.48l0,.07a17.58,17.58,0,0,0,1.47,3.81c.23.41.51.85.79,1.27Zm.07.19ZM2.46,61.14Z"/><path class="cls-4" d="M84.67,14.59a17.27,17.27,0,0,0-.58-9.45q-2.27-5.32-7-3.67a8.14,8.14,0,0,0-1.68.76A31.06,31.06,0,0,0,65.28,13.34l-.4.73-.06.12-.33.61c-.12.25-.25.49-.37.74-.27.53-.54,1.07-.8,1.62.49.41,1,.81,1.5,1.19s.73.54,1.1.8l.49.3.13.1A31.63,31.63,0,0,0,76.69,23.8l.12,0,.25.06c1.16.24,2.35.44,3.58.58.48-.77.92-1.55,1.31-2.32l.25-.49a28.11,28.11,0,0,0,2.47-7.07"/><path class="cls-2" d="M82,23.22a1.12,1.12,0,0,1-.47-.11A1.07,1.07,0,0,1,81,21.67l.24-.48a26.94,26.94,0,0,0,2.37-6.81,16.37,16.37,0,0,0-.53-8.88c-1.64-3.84-3.87-3.64-5.62-3A6.94,6.94,0,0,0,76,3.16a30,30,0,0,0-9.76,10.71c-.12.23-.25.46-.38.69l-.07.14-.31.58a1.07,1.07,0,1,1-1.91-1c.1-.21.22-.43.33-.64l0-.07,0-.06.42-.75A32,32,0,0,1,74.87,1.33,8.72,8.72,0,0,1,76.8.45c2.55-.9,6.08-.89,8.28,4.27a18.53,18.53,0,0,1,.64,10.08,29.07,29.07,0,0,1-2.55,7.33l-.24.49a1.08,1.08,0,0,1-1,.6"/><path class="cls-1" d="M78.43,49.46q-3.78,3.95-4.4,6.91a16.52,16.52,0,0,0,.31,6.88c.2.74.42,1.45.67,2.15a57.61,57.61,0,0,0,8.17,15.47,41.54,41.54,0,0,0,2.87,3.49,40.7,40.7,0,0,0,7.43-8.44,45.61,45.61,0,0,0,4.93-10.25,43.14,43.14,0,0,0,2-12.66,38.05,38.05,0,0,0-1.59-10.68c-.14-.46-.28-.92-.43-1.37-.38-1.13-.82-2.26-1.32-3.37A47.94,47.94,0,0,0,78.43,49.46"/><path class="cls-1" d="M86.07,85.12a.75.75,0,0,1-.57-.25,42.21,42.21,0,0,1-3-3.56,58.77,58.77,0,0,1-8.27-15.67c-.24-.7-.47-1.43-.68-2.18a17.56,17.56,0,0,1-.31-7.24c.44-2.14,1.94-4.53,4.59-7.29a49,49,0,0,1,19-12.06.77.77,0,0,1,1,.47.76.76,0,0,1-.47,1A47.4,47.4,0,0,0,79,50c-2.4,2.51-3.81,4.71-4.19,6.54a16,16,0,0,0,.29,6.55c.19.68.41,1.39.65,2.06a57.45,57.45,0,0,0,8.06,15.28,42.32,42.32,0,0,0,2.85,3.43.76.76,0,0,1-.07,1.08.73.73,0,0,1-.5.19"/><path class="cls-2" d="M86.07,85.43a1.08,1.08,0,0,1-.81-.37,1.07,1.07,0,0,1,.11-1.51,40.2,40.2,0,0,0,7.22-8.22,44.43,44.43,0,0,0,4.8-10,42.12,42.12,0,0,0,2-12.33,37.29,37.29,0,0,0-1.54-10.36c-.13-.44-.28-.89-.43-1.34-.36-1.1-.79-2.2-1.26-3.27v0h0c-.06-.16-.13-.31-.19-.47a1.07,1.07,0,1,1,2-.87c.08.17.15.35.23.53.49,1.13.94,2.29,1.32,3.44.16.46.31.93.45,1.4a39.45,39.45,0,0,1,1.63,11,44.27,44.27,0,0,1-2.1,13A46.85,46.85,0,0,1,94.38,76.5a42.3,42.3,0,0,1-7.61,8.67,1.13,1.13,0,0,1-.7.26"/><path d="M25,60.44a10.74,10.74,0,0,0,1.13-5.11A10.93,10.93,0,0,0,25,50.19c-.76-1.4-1.67-2.11-2.75-2.11s-2,.71-2.76,2.11a10.69,10.69,0,0,0-1.16,5.14,10.51,10.51,0,0,0,1.16,5.11c.76,1.45,1.68,2.17,2.76,2.17s2-.72,2.75-2.17"/><path class="cls-1" d="M24.05,41.49l.06,0a1.92,1.92,0,0,0,1.62-.26,1.94,1.94,0,0,0,1-1.28,2.22,2.22,0,0,0-.2-1.68,2,2,0,0,0-1.18-1l-8-2.27a2.1,2.1,0,0,0-1.59.2,2.24,2.24,0,0,0-1,1.34,2.09,2.09,0,0,0,.17,1.61,2.18,2.18,0,0,0,1.07,1l.15,0,7.91,2.27"/><path class="cls-2" d="M24.66,42.4a2.78,2.78,0,0,1-.75-.11l-.15-.06L16,40a1.21,1.21,0,0,1-.32-.11,2.89,2.89,0,0,1-1.4-1.32A2.82,2.82,0,0,1,14,36.38a3,3,0,0,1,1.37-1.79,2.9,2.9,0,0,1,2.17-.29l8,2.29A2.74,2.74,0,0,1,27.26,38a3,3,0,0,1,.25,2.24A2.66,2.66,0,0,1,26.13,42a2.79,2.79,0,0,1-1.47.44M24,42.28ZM23.53,42Zm.91-1.19a1.2,1.2,0,0,0,.9-.2l.08,0a1.17,1.17,0,0,0,.62-.79,1.42,1.42,0,0,0-.14-1.13,1.2,1.2,0,0,0-.75-.64l-8-2.27a1.3,1.3,0,0,0-1,.14,1.42,1.42,0,0,0-.66.87,1.29,1.29,0,0,0,.1,1,1.4,1.4,0,0,0,.69.67h0l.06,0,7.88,2.26Zm-8-2.29Z"/><path d="M47.79,55.33A10.4,10.4,0,0,0,49,60.44c.75,1.45,1.67,2.17,2.75,2.17s2-.72,2.75-2.17a10.4,10.4,0,0,0,1.17-5.11,10.58,10.58,0,0,0-1.17-5.14c-.75-1.4-1.67-2.11-2.75-2.11s-2,.71-2.75,2.11a10.58,10.58,0,0,0-1.16,5.14"/><path class="cls-1" d="M58.58,36.15A2.15,2.15,0,0,0,57,35.79l-8.19,1.44a2,2,0,0,0-1.29.88,2.26,2.26,0,0,0-.37,1.65,2.29,2.29,0,0,0,2.48,1.81l.06,0,8.11-1.44.15,0a2.1,2.1,0,0,0,1.16-.89,2.06,2.06,0,0,0,.34-1.59,2.22,2.22,0,0,0-.89-1.44"/><path class="cls-2" d="M49.31,42.36a2.76,2.76,0,0,1-1.69-.59,2.7,2.7,0,0,1-1.2-1.88,3,3,0,0,1,.48-2.2,2.76,2.76,0,0,1,1.76-1.21L56.89,35a2.9,2.9,0,0,1,2.13.5,2.93,2.93,0,0,1,1.2,1.93,2.78,2.78,0,0,1-.46,2.16,2.91,2.91,0,0,1-1.52,1.17,1.28,1.28,0,0,1-.34.07L50,42.27l-.16,0a2.67,2.67,0,0,1-.48,0m.41-.06h0Zm0,0Zm.47-.19Zm7.17-5.58h-.23L49,38a1.23,1.23,0,0,0-.78.55,1.45,1.45,0,0,0-.25,1.1,1.15,1.15,0,0,0,.54.86l.07,0a1.14,1.14,0,0,0,.87.29l.2,0,8.08-1.43h.06a1.38,1.38,0,0,0,.75-.59,1.32,1.32,0,0,0,.22-1,1.42,1.42,0,0,0-.6-.95A1.25,1.25,0,0,0,57.36,36.53Zm.27,2.85h0Z"/><path d="M36.38,75.24A10.78,10.78,0,0,1,30,73.39a6.16,6.16,0,0,1-2.54-3.32A.77.77,0,1,1,29,69.66a4.63,4.63,0,0,0,1.94,2.48,9.26,9.26,0,0,0,5.46,1.57,9.14,9.14,0,0,0,5.43-1.57,4.65,4.65,0,0,0,2-2.48.77.77,0,0,1,.94-.54.78.78,0,0,1,.53.95,6.13,6.13,0,0,1-2.56,3.33,10.73,10.73,0,0,1-6.31,1.84"/><path class="cls-1" d="M3.62,45.64a58,58,0,0,0-.37,7.22,30.15,30.15,0,0,1-.79,8.25,41.76,41.76,0,0,0-.95,4.29q2.84-3.62,4.65-6.15A6.6,6.6,0,0,0,7,53a51.48,51.48,0,0,0-3.42-7.31"/><path class="cls-1" d="M1.51,66.16A.74.74,0,0,1,1,66a.77.77,0,0,1-.13-1.08c1.87-2.38,3.43-4.44,4.63-6.1a5.89,5.89,0,0,0,.79-5.62A52.09,52.09,0,0,0,3,46a.77.77,0,0,1,.31-1,.76.76,0,0,1,1,.31,53.4,53.4,0,0,1,3.5,7.45,7.41,7.41,0,0,1-1,7C5.57,61.39,4,63.46,2.11,65.87a.77.77,0,0,1-.6.29"/><path class="cls-2" d="M1.51,66.47l-.18,0a1.07,1.07,0,0,1-.88-1.23,44.15,44.15,0,0,1,1-4.38,29.1,29.1,0,0,0,.76-7.94,58.64,58.64,0,0,1,.38-7.39,1.07,1.07,0,1,1,2.12.25,58.07,58.07,0,0,0-.36,7.1,31.16,31.16,0,0,1-.83,8.53c-.39,1.45-.71,2.85-.93,4.18a1.07,1.07,0,0,1-1,.9"/></g></g></svg>