<svg xmlns="http://www.w3.org/2000/svg" viewBox="0 0 82.62 79.51"><defs><style>.cls-1{fill:#fff;}.cls-2{fill:#47d7ac;}.cls-3{fill:#83e8d3;}</style></defs><g id="레이어_2" data-name="레이어 2"><g id="레이어_1-2" data-name="레이어 1"><path class="cls-1" d="M51.1,9.92a14.14,14.14,0,0,1,3.71-6.76Q58.32,0,61.22,2.88a7.23,7.23,0,0,1,1,1.15,25,25,0,0,1,3.6,11.69l.06.69v.11c0,.19,0,.37,0,.56s0,.45,0,.67c0,.49,0,1,0,1.47-.5.13-1,.25-1.52.36l-1.08.2-.48.08h-.11a26,26,0,0,1-8.95-.39l-.1,0-.2,0c-.95-.22-1.89-.5-2.84-.82-.09-.74-.15-1.46-.18-2.17V16a22.65,22.65,0,0,1,.65-6.05"/><path class="cls-2" d="M65.86,17.94a.87.87,0,0,1-.87-.85l-.07-1.3A24.18,24.18,0,0,0,61.46,4.5a5.93,5.93,0,0,0-.83-1c-1.1-1.08-2.67-2-5.24.29A13.29,13.29,0,0,0,52,10.13,21.31,21.31,0,0,0,51.32,16v.16a1.23,1.23,0,0,1,0,.47.87.87,0,0,1-1,.69.88.88,0,0,1-.7-.95V16a23.58,23.58,0,0,1,.68-6.29A14.94,14.94,0,0,1,54.2,2.54c3.44-3.07,6-1.84,7.63-.28a6.84,6.84,0,0,1,1.08,1.28,26,26,0,0,1,3.75,12.11l.06.68v.72a.86.86,0,0,1-.85.89h0"/><path class="cls-1" d="M8.17,22.57c.25-.33.51-.66.78-1A37.12,37.12,0,0,1,29.74,8.67a65.21,65.21,0,0,1,8.57-1.26c.68-.07,1.34-.11,2-.13,1.5,0,3,0,4.43.06l.25,0a.61.61,0,0,1,.27,0l.25,0a48.64,48.64,0,0,1,17.2,4.75Q74.42,18,78.15,29.79a2.11,2.11,0,0,1,.12.38c.23.71.44,1.46.62,2.24,0,.13.06.26.08.4l0,.1a43.88,43.88,0,0,1,1,10,24.88,24.88,0,0,0,.64,6.73,26.67,26.67,0,0,1,1.09,8.66,16.32,16.32,0,0,1-.2,1.89,1.39,1.39,0,0,1-.05.33,6.5,6.5,0,0,1-.3,1.39,15.91,15.91,0,0,1-1.27,3.28c-.22.39-.45.76-.7,1.12l-.15.23a16.89,16.89,0,0,1-5,4.8c-.71.48-1.48.93-2.29,1.37s-1.43.75-2.19,1.11a50,50,0,0,1-18.4,4.55l-1.35.09a67,67,0,0,1-8.14.1c-.25,0-.5-.06-.77-.08-1.19-.08-2.4-.19-3.61-.32-1.71-.22-3.35-.47-4.93-.76a5.67,5.67,0,0,0-.62-.12,51.59,51.59,0,0,1-9.46-2.85l-.17-.07a40,40,0,0,1-6.84-3.74l-1.05-.77A33.14,33.14,0,0,1,6.53,61.6a37,37,0,0,1-4-8.34A35.27,35.27,0,0,1,.86,43a30.9,30.9,0,0,1,1.66-9.81A35.25,35.25,0,0,1,5.26,27c.26-.46.53-.92.8-1.37l.69-1.09.55-.75a5.19,5.19,0,0,1,.45-.64,3.64,3.64,0,0,0,.42-.6"/><path class="cls-2" d="M45,79.51c-1.12,0-2.24,0-3.35-.08H41.6l-.71-.07c-1.2-.08-2.43-.19-3.65-.33-1.73-.22-3.41-.47-5-.76h0l-.54-.11A52.59,52.59,0,0,1,22,75.24l-.06,0-.06,0-.07,0a41.81,41.81,0,0,1-7-3.82c-.37-.27-.73-.53-1.08-.8A34.35,34.35,0,0,1,5.8,62.08a38,38,0,0,1-4.09-8.54A36,36,0,0,1,0,43,31.88,31.88,0,0,1,1.7,32.87a36,36,0,0,1,2.81-6.28l.8-1.38L6,24.09l0-.05.52-.71a5.2,5.2,0,0,1,.51-.72,3.54,3.54,0,0,0,.34-.48L7.48,22c.26-.34.53-.68.81-1A38.06,38.06,0,0,1,29.55,7.82a65.6,65.6,0,0,1,8.69-1.28c.69-.07,1.38-.11,2-.13,1.51,0,3,0,4.51.06a1.06,1.06,0,0,1,.29,0,2,2,0,0,1,.35,0h.15a49.9,49.9,0,0,1,17.5,4.83c8,4,13.34,10.11,15.89,18.12a3.09,3.09,0,0,1,.14.43c.24.73.45,1.5.64,2.29a3.91,3.91,0,0,1,.07.39l0,.17a44.15,44.15,0,0,1,1,10.15,24.63,24.63,0,0,0,.62,6.49,27.8,27.8,0,0,1,1.11,8.94,17.09,17.09,0,0,1-.2,1.92,1.39,1.39,0,0,1-.06.4A7.46,7.46,0,0,1,82,62.16a16.92,16.92,0,0,1-1.34,3.44c-.22.39-.45.76-.69,1.12a1.5,1.5,0,0,1-.24.36,17.65,17.65,0,0,1-5.17,5,26.28,26.28,0,0,1-2.36,1.41c-.69.38-1.45.76-2.22,1.13a51,51,0,0,1-18.73,4.62l-1.33.1c-1.62.12-3.26.18-4.89.18M41.8,77.69a64.7,64.7,0,0,0,8-.1l1.34-.09A49.3,49.3,0,0,0,69.23,73c.75-.35,1.47-.72,2.15-1.09a24.55,24.55,0,0,0,2.22-1.32,16.11,16.11,0,0,0,4.72-4.56L78.4,66l.07-.13a11.68,11.68,0,0,0,.66-1.06,14.06,14.06,0,0,0,1.19-3.07l0-.06a6,6,0,0,0,.26-1.2l0-.16v-.22a14.81,14.81,0,0,0,.19-1.8,26,26,0,0,0-1-8.38v0a26.12,26.12,0,0,1-.67-7,42.74,42.74,0,0,0-1-9.79v0l0-.16c0-.1,0-.19-.06-.29-.18-.77-.38-1.5-.6-2.18l0-.06-.08-.24,0-.08c-2.4-7.57-7.44-13.33-15-17.12A48.22,48.22,0,0,0,45.47,8.28a1.64,1.64,0,0,1-.38,0,.67.67,0,0,1-.4,0c-1.46-.09-2.91-.1-4.35-.06-.63,0-1.28.06-1.94.12a64.67,64.67,0,0,0-8.46,1.25A36.42,36.42,0,0,0,9.63,22.15q-.37.45-.72.9a5.91,5.91,0,0,1-.48.67,2.75,2.75,0,0,0-.36.53L8,24.33l-.53.72L6.8,26.12c-.25.42-.52.88-.78,1.34a35.37,35.37,0,0,0-2.67,6A30.27,30.27,0,0,0,1.74,43,34.55,34.55,0,0,0,3.36,53a36.55,36.55,0,0,0,3.9,8.13,32.81,32.81,0,0,0,7.53,8c.35.26.69.52,1,.76a40.26,40.26,0,0,0,6.65,3.64l.22.09A51.57,51.57,0,0,0,32,76.43a5.33,5.33,0,0,1,.63.12c1.54.28,3.17.53,4.86.74,1.18.13,2.38.24,3.56.32C41.28,77.63,41.54,77.65,41.8,77.69ZM78.35,66.1ZM44.71,8.21h0Z"/><path class="cls-1" d="M13.11,11.85a14.21,14.21,0,0,1,.48-7.69c1.23-2.88,3.12-3.88,5.68-3a6.5,6.5,0,0,1,1.37.62,25,25,0,0,1,8.23,9c.12.2.23.4.35.59l.05.1c.08.17.16.34.25.5s.22.4.32.6c.22.43.43.87.65,1.32-.4.33-.81.65-1.22,1l-.9.65a4.68,4.68,0,0,0-.4.27l-.1.05a25.89,25.89,0,0,1-8.27,3.45l-.1,0-.19.05c-.95.2-1.92.35-2.92.47-.39-.63-.76-1.26-1.09-1.89l-.1-.2-.1-.2a22.78,22.78,0,0,1-2-5.76"/><path class="cls-2" d="M15.3,18.89a.87.87,0,0,1-.82-.59l-.05-.09-.1-.2a23.75,23.75,0,0,1-2.07-6,15,15,0,0,1,.52-8.15C14.59-.37,17.46-.37,19.57.37a7.62,7.62,0,0,1,1.52.69,26,26,0,0,1,8.55,9.37L30,11l0,0,.3.61a.86.86,0,0,1-.39,1.16.87.87,0,0,1-1.17-.39l-.28-.57-.34-.57a24.13,24.13,0,0,0-7.94-8.75A6.2,6.2,0,0,0,19,2c-1.46-.51-3.27-.68-4.62,2.5A13.29,13.29,0,0,0,14,11.7a21.79,21.79,0,0,0,1.92,5.53l.07.14a1.54,1.54,0,0,1,.19.44.86.86,0,0,1-.64,1.05l-.21,0"/><path class="cls-3" d="M18.79,40.08c2.06,2.14,3.24,4,3.56,5.63a13.33,13.33,0,0,1-.23,5.6c-.17.59-.35,1.18-.55,1.74a47.12,47.12,0,0,1-6.66,12.59c-.45.63-1.24,1.58-2.36,2.84a33.81,33.81,0,0,1-6-6.88,37,37,0,0,1-4-8.34A35.27,35.27,0,0,1,.86,43a31.62,31.62,0,0,1,1.28-8.69c.12-.38.24-.75.38-1.12.31-.91.66-1.82,1-2.73a38.88,38.88,0,0,1,15.23,9.67"/><path class="cls-3" d="M12.55,69.1a.57.57,0,0,1-.41-.16.62.62,0,0,1-.05-.88,35.59,35.59,0,0,0,2.32-2.78A46.82,46.82,0,0,0,21,52.85c.19-.56.37-1.13.53-1.71a12.61,12.61,0,0,0,.22-5.31c-.29-1.49-1.43-3.28-3.39-5.32A38.53,38.53,0,0,0,3.36,31a.62.62,0,1,1,.42-1.17,39.76,39.76,0,0,1,15.46,9.82c2.17,2.26,3.38,4.2,3.72,6a13.89,13.89,0,0,1-.23,5.86c-.18.63-.36,1.23-.57,1.81A47.87,47.87,0,0,1,15.42,66,36,36,0,0,1,13,68.89a.6.6,0,0,1-.46.21"/><path class="cls-2" d="M12.55,69.35a.83.83,0,0,1-.57-.22,35,35,0,0,1-6.17-7,37.64,37.64,0,0,1-4.1-8.54A36,36,0,0,1,0,43,32.48,32.48,0,0,1,1.31,34c.13-.41.26-.79.39-1.17.32-.91.68-1.85,1.06-2.77l0,0v0c0-.1.1-.21.14-.31a.87.87,0,0,1,1.63.61,3.76,3.76,0,0,1-.2.46c-.37.88-.71,1.78-1,2.66-.14.36-.26.72-.37,1.09A30.89,30.89,0,0,0,1.74,43,34.55,34.55,0,0,0,3.36,53a36.55,36.55,0,0,0,3.9,8.13,33.43,33.43,0,0,0,5.86,6.69.87.87,0,0,1-.57,1.53"/><path d="M59.67,45.17a8.78,8.78,0,0,0,.92,4.16c.62,1.17,1.36,1.76,2.24,1.76s1.63-.59,2.24-1.76a8.55,8.55,0,0,0,1-4.16,8.63,8.63,0,0,0-1-4.18c-.61-1.15-1.36-1.72-2.24-1.72s-1.62.57-2.24,1.72a8.87,8.87,0,0,0-.92,4.18"/><path class="cls-3" d="M62,34.24l0,0a1.59,1.59,0,0,1-1.33-.21,1.57,1.57,0,0,1-.83-1,1.79,1.79,0,0,1,.16-1.37,1.63,1.63,0,0,1,1-.83L67.4,29a1.75,1.75,0,0,1,1.29.17,1.79,1.79,0,0,1,.84,1.09,1.68,1.68,0,0,1-.14,1.32,1.77,1.77,0,0,1-.86.81l-.12,0L62,34.24"/><path class="cls-2" d="M61.47,35a2.2,2.2,0,0,1-1.19-.36,2.13,2.13,0,0,1-1.13-1.41,2.43,2.43,0,0,1,.2-1.82,2.19,2.19,0,0,1,1.33-1.13l6.54-1.86a2.34,2.34,0,0,1,1.76.22,2.42,2.42,0,0,1,1.14,1.47,2.29,2.29,0,0,1-.19,1.78,2.36,2.36,0,0,1-1.14,1.07.62.62,0,0,1-.27.09l-6.31,1.81-.13.05a2.15,2.15,0,0,1-.61.09m.56-.1h0Zm.36-.2ZM62,34.25h0Zm5.89-4.7a1.65,1.65,0,0,0-.3,0L61,31.44a1,1,0,0,0-.58.51,1.18,1.18,0,0,0-.11.91.91.91,0,0,0,.5.65l.06,0a1,1,0,0,0,.74.16l.15-.06,6.42-1.84h0a1.09,1.09,0,0,0,.56-.54,1,1,0,0,0,.09-.85,1.12,1.12,0,0,0-.56-.72A1,1,0,0,0,67.84,29.55Zm.34,2.3Z"/><path d="M35.9,49.58a1.13,1.13,0,0,1-.48-2.14l4.4-2.07L35.13,43.2a1.12,1.12,0,0,1,.94-2l6.87,3.19a1.11,1.11,0,0,1,.65,1,1.12,1.12,0,0,1-.64,1l-6.57,3.09a1.2,1.2,0,0,1-.48.11"/><path class="cls-3" d="M35.06,29.7a1.72,1.72,0,0,1,1.27-.29L43,30.58a1.59,1.59,0,0,1,1,.72,1.8,1.8,0,0,1,.3,1.35,1.54,1.54,0,0,1-.72,1.12,1.6,1.6,0,0,1-1.3.35l0,0-6.59-1.17-.13,0a1.78,1.78,0,0,1-.94-.72,1.65,1.65,0,0,1-.27-1.3,1.78,1.78,0,0,1,.72-1.17"/><path class="cls-2" d="M42.62,34.78a2.69,2.69,0,0,1-.4,0l-.13,0-6.47-1.16a.67.67,0,0,1-.28-.06,2.42,2.42,0,0,1-1.61-2.7,2.44,2.44,0,0,1,1-1.57,2.36,2.36,0,0,1,1.74-.41L43.12,30a2.24,2.24,0,0,1,1.45,1,2.44,2.44,0,0,1,.39,1.8,2.16,2.16,0,0,1-1,1.51,2.19,2.19,0,0,1-1.37.49m-.34-.05Zm-.39-.16Zm.64-1a.94.94,0,0,0,.71-.23l.06,0a1,1,0,0,0,.44-.7,1.2,1.2,0,0,0-.21-.9,1,1,0,0,0-.66-.45L36.23,30a1.13,1.13,0,0,0-.81.19A1.15,1.15,0,0,0,35,31a1,1,0,0,0,.17.83,1.11,1.11,0,0,0,.62.48h0l6.57,1.17Zm-6.69-1.18Z"/><path d="M54,64.27a2.49,2.49,0,0,1-.73-.11,3.55,3.55,0,0,1-1.84-1.28l-.13-.17a.62.62,0,1,1,1-.73l.1.14a2.35,2.35,0,0,0,1.19.85,1,1,0,0,0,1-.14,1,1,0,0,0,.37-.91,2.17,2.17,0,0,0-.5-1.34l-.09-.12A2.59,2.59,0,0,0,53.8,60a.62.62,0,0,1,0-1,2.66,2.66,0,0,0,.58-.54l0,0A2.18,2.18,0,0,0,54.92,57a1,1,0,0,0-.36-.9,1,1,0,0,0-1-.14,2.38,2.38,0,0,0-1.2.86l-.09.13a.62.62,0,1,1-1.06-.64l.17-.26a3.65,3.65,0,0,1,1.84-1.29,2.21,2.21,0,0,1,2.08.36A2.27,2.27,0,0,1,56.16,57a3.38,3.38,0,0,1-.78,2.13l0,0c-.09.11-.17.21-.26.3l.25.29.07.11a3.37,3.37,0,0,1,.74,2.07,2.27,2.27,0,0,1-.83,1.88,2.06,2.06,0,0,1-1.34.47m1.5-4.14Zm-.16-.39Z"/><path class="cls-3" d="M79.67,37a48.84,48.84,0,0,1,.3,5.9,24.88,24.88,0,0,0,.64,6.73,32.46,32.46,0,0,1,.77,3.46c-1.54-2-2.81-3.62-3.78-5A5.45,5.45,0,0,1,76.85,43a44,44,0,0,1,2.82-6"/><path class="cls-3" d="M81.37,53.7a.64.64,0,0,1-.49-.23c-1.54-2-2.82-3.65-3.79-5a6,6,0,0,1-.83-5.68,40.63,40.63,0,0,1,2.86-6.08.62.62,0,1,1,1.09.6,41.3,41.3,0,0,0-2.77,5.87,4.78,4.78,0,0,0,.66,4.57c1,1.34,2.23,3,3.76,5a.62.62,0,0,1-.11.87.58.58,0,0,1-.38.13"/><path class="cls-2" d="M81.37,54a.87.87,0,0,1-.86-.73,31.86,31.86,0,0,0-.75-3.37,25.92,25.92,0,0,1-.67-7,46.89,46.89,0,0,0-.29-5.78.88.88,0,0,1,.77-1,.87.87,0,0,1,1,.77,48.46,48.46,0,0,1,.3,6,23.93,23.93,0,0,0,.62,6.5,33.17,33.17,0,0,1,.78,3.53.86.86,0,0,1-.72,1h-.14"/></g></g></svg>