<svg xmlns="http://www.w3.org/2000/svg" viewBox="0 0 181.51 249.59"><defs><style>.cls-1{fill:#fcc5c5;}.cls-2{fill:#f3a5a4;}.cls-3,.cls-5{fill:#83e8d3;}.cls-4{fill:#47d7ac;}.cls-5{stroke:#47d7ac;stroke-miterlimit:10;stroke-width:2px;}.cls-6{fill:#1cb594;}.cls-7{fill:#fff;}</style></defs><g id="레이어_2" data-name="레이어 2"><g id="레이어_1-2" data-name="레이어 1"><path class="cls-1" d="M110.23,205.85s16.69-4.08,16.26-21.26c0,0-14.06-7.41-14.28-7.73s-10.41,23.33-10.41,23.33Z"/><path class="cls-2" d="M109.23,206.85a1,1,0,0,1-.55-.17L100.24,201a1,1,0,0,1-.36-1.22c10.28-23.85,10.45-23.87,11.23-23.94a1,1,0,0,1,.77.25c.82.57,9,4.94,14.07,7.6a1,1,0,0,1,.54.85c.44,17.78-16.85,22.22-17,22.26A1,1,0,0,1,109.23,206.85Zm-7.18-7,7.36,4.94c2.52-.74,15.11-5.16,15.09-19.56-8-4.24-11.44-6.09-12.92-6.95C110.09,181.32,105.28,192.33,102.05,199.82Z"/><path class="cls-3" d="M96.69,211.34l-32.15-1.56-11-23.69s-23.83-82.87-24.19-82.8L93,137.21l26.91,2.15,14,10.48,7,13.86s.69,13.19.8,13.51-5.73,6.66-5.73,6.66l-13.27,2.45-13.88-5.27"/><path class="cls-3" d="M29.32,87.73s-11-13.07-19.1-12.34S-.31,87.27,2.81,98.14c3.62,12.65,14.05,33.23,43.56,59.21,0,0-14.88,32.06,1.85,48.88,10.89,11,24.33,7.13,24.38,7"/><path class="cls-4" d="M48.22,207.73a1.5,1.5,0,0,1-1.17-.56c-15.83-19.68-5.23-44.07-2.55-49.48C15.5,131.94,5,111.34,1.37,98.55-.89,90.66-.32,82.88,2.87,78.24a9.6,9.6,0,0,1,7.21-4.35c8.32-.74,14,6.47,14.79,7.59l5.48,5.16a1.5,1.5,0,1,1-2.05,2.19l-5.59-5.27a2.2,2.2,0,0,1-.2-.23c0-.07-5.09-7.09-12.16-6.45a6.62,6.62,0,0,0-5,3.05C2.69,83.8,2.26,90.78,4.25,97.73c3.59,12.53,14,32.85,43.11,58.49a1.51,1.51,0,0,1,.31,1.87c-.15.26-14.82,26.65,1.72,47.2a1.5,1.5,0,0,1-1.17,2.44Z"/><path class="cls-3" d="M123.12,149.32S125,174,117.41,189c-6.24,12.34-9.65,19.84-21.74,18.29-7.58-1-9.78-15.65-4.27-32.88"/><path class="cls-4" d="M108,205.41a1.45,1.45,0,0,1-1.25-.68,1.49,1.49,0,0,1,.43-2.07c14.39-9.42,10.66-36.86,10.62-37.13a1.5,1.5,0,1,1,3-.43,71.25,71.25,0,0,1,.12,15.91c-1.23,11.44-5.4,19.8-12.07,24.16A1.53,1.53,0,0,1,108,205.41Z"/><path class="cls-3" d="M79.51,201.27,81,237.64a6.43,6.43,0,0,0-3.37,5.11c-.24,3.3,2,5.37,8,5.26,5.45-.1,9.92-.26,14.76-.26,5.08,0,8.14-4.92,5.72-10.37l1.33-36.11Z"/><path class="cls-3" d="M77,201.29l-2.14,5.53-3.34,8.6-.68,1.75-.69,1.77-1.82,4.68L63,237.38q1.67,9.72-5.73,10.37a121.06,121.06,0,0,1-14.77.27c-5.57-.22-8.25-2-8-5.28a6.4,6.4,0,0,1,3.37-5.09l2.21-7.19h0l4.66-15.17L46.69,209l.58-1.92.22-.65v0l.13-.42.26-.83,1.34.08Z"/><path class="cls-1" d="M121,142.13s-9.89,7.57-7.09,24.21l7.68,2.43s-5.52-16.69,6.55-26.08"/><path class="cls-2" d="M121.57,169.77a1,1,0,0,1-.3-.05l-7.69-2.42a1,1,0,0,1-.68-.79c-2.86-17,7-24.85,7.48-25.18a1,1,0,1,1,1.21,1.59h0c-.38.29-9.14,7.27-6.82,22.65l5.38,1.7c-1.05-4.71-2.74-17.52,7.35-25.37a1,1,0,1,1,1.23,1.58c-11.36,8.84-6.26,24.82-6.21,25a1,1,0,0,1-.24,1A1,1,0,0,1,121.57,169.77Z"/><path class="cls-5" d="M129.59,165.34s-3.43,1.18-6.23,0-10.3-3.11-14.6,0-4.93,12.67,1.51,16.85,21.47,7.41,28.34-.64"/><path class="cls-4" d="M125.93,188a32.6,32.6,0,0,1-16.48-4.56A12.22,12.22,0,0,1,104,173.31c-.1-3.85,1.39-7.37,3.89-9.19,5-3.6,13.29-1.34,16.07-.16,2.2.93,5.13,0,5.15,0a1.5,1.5,0,0,1,1,2.84c-.16.05-4,1.35-7.3,0-2.75-1.16-9.58-2.74-13.14-.17-1.68,1.23-2.72,3.85-2.65,6.68a9.24,9.24,0,0,0,4.1,7.71c5.85,3.8,20.07,7,26.38-.36,2.58-3,3.59-8.07,2.71-13.48-1.6-9.78-8.71-19.11-19.52-25.6a1.5,1.5,0,0,1,1.55-2.57c11.56,6.94,19.19,17,20.93,27.69,1,6.36-.2,12.16-3.39,15.9C136.33,186.53,131.18,188,125.93,188Z"/><path class="cls-4" d="M125.93,187.16a31.72,31.72,0,0,1-16-4.44,11.35,11.35,0,0,1-5.06-9.43c-.09-3.57,1.26-6.81,3.53-8.45,4.65-3.37,12.55-1.2,15.21-.07s5.75,0,5.78,0a.62.62,0,0,1,.4,1.18c-.15,0-3.69,1.24-6.67,0-2.3-1-9.83-3.08-14-.07-1.91,1.39-3.1,4.3-3,7.42a10.1,10.1,0,0,0,4.5,8.41c6.07,4,20.89,7.26,27.53-.53a.62.62,0,0,1,.88-.06.61.61,0,0,1,.06.87C135.84,185.75,130.94,187.15,125.93,187.16Z"/><path class="cls-6" d="M93.36,180.68a15.93,15.93,0,0,0-1.25-6,13.87,13.87,0,0,0-3.31-4.91,15.1,15.1,0,0,0-21.61.1,14.56,14.56,0,0,0-3.26,5,15.48,15.48,0,0,0-1.19,6v.88l8.33,0v-.88a7.07,7.07,0,0,1,2-5,7,7,0,0,1,9.88-.05,6.67,6.67,0,0,1,2.12,5v.83h8.28v-.93Z"/><path class="cls-1" d="M46.79,136a25.51,25.51,0,0,0-5.71,7c-2.4,4.38-2,9.93-2,9.93l6,3.87s.55-6,3.14-10.4a53.34,53.34,0,0,1,4.87-7"/><path class="cls-2" d="M44.33,158.32a1,1,0,0,1-.63-.23l-6.08-5a1,1,0,0,1-.36-.86,27.44,27.44,0,0,1,3-9.7,26.51,26.51,0,0,1,5.95-7.31,1,1,0,0,1,1.41.16,1,1,0,0,1-.16,1.4A25,25,0,0,0,42,143.52a25.69,25.69,0,0,0-2.65,8.4l4.41,3.6a38.31,38.31,0,0,1,3.64-9.59,54.59,54.59,0,0,1,5-7.17,1,1,0,0,1,1.52,1.31A52.53,52.53,0,0,0,49.08,147c-2.47,4.16-3.75,10.5-3.77,10.56a1,1,0,0,1-1,.81Z"/><path class="cls-7" d="M95.33,19.17a26.47,26.47,0,0,0-5-13.49Q84.62-1.06,78.51,3.44a12,12,0,0,0-2.1,1.86q-6.91,8-9.79,20.64l-.3,1.26,0,.21-.18,1c-.1.42-.18.84-.25,1.25-.15.88-.3,1.79-.44,2.71.9.37,1.8.73,2.71,1.07l2,.66c.28.08.57.17.86.28l.2,0A48.54,48.54,0,0,0,87.81,36.1H88l.38,0q2.7-.24,5.47-.74c.36-1.35.67-2.67.92-4l.07-.41.07-.41a42,42,0,0,0,.42-11.36"/><path class="cls-4" d="M65.88,30a1.62,1.62,0,0,0,1.83-1.35l.49-2.38c1.85-8.17,5-14.88,9.43-19.95a10.57,10.57,0,0,1,1.79-1.58c2.33-1.71,5.47-3,9.62,1.94a24.85,24.85,0,0,1,4.66,12.6,40.39,40.39,0,0,1-.4,10.93l0,.29a2.72,2.72,0,0,0-.11.89,1.63,1.63,0,0,0,3.25,0l0-.2.07-.41A43.56,43.56,0,0,0,96.94,19,28,28,0,0,0,91.58,4.7c-5.54-6.61-10.68-5-14-2.58a13,13,0,0,0-2.34,2.07C70.41,9.7,67,16.89,65,25.58l-.29,1.24,0,.1-.21,1.23A1.64,1.64,0,0,0,65.84,30h0"/><path class="cls-7" d="M171.29,54.08c-.37-.68-.76-1.34-1.17-2a69.35,69.35,0,0,0-35-29.49A122.87,122.87,0,0,0,119.65,18c-1.24-.31-2.46-.56-3.65-.76-2.75-.5-5.48-.86-8.21-1.1l-.47,0a1.34,1.34,0,0,0-.51-.07l-.46,0a91.22,91.22,0,0,0-33.08,4.16Q50,27.92,40,48.64a6.77,6.77,0,0,0-.33.66c-.62,1.26-1.2,2.58-1.75,4a4.68,4.68,0,0,0-.24.72l-.08.17a81.44,81.44,0,0,0-4.51,18.24,46.76,46.76,0,0,1-3,12.26,49.78,49.78,0,0,0-4.34,15.72,30.53,30.53,0,0,0-.14,3.55,1.86,1.86,0,0,0,0,.62,11.66,11.66,0,0,0,.18,2.65,28.74,28.74,0,0,0,1.46,6.42c.3.76.63,1.52,1,2.26l.21.45a31.21,31.21,0,0,0,7.88,10.21,45.92,45.92,0,0,0,3.87,3.14Q42,131,44,132.35a93.38,93.38,0,0,0,32.8,13.34l2.46.54a124.15,124.15,0,0,0,15,2.36c.47,0,1,0,1.45.07,2.23.16,4.49.29,6.76.36q4.83.09,9.31-.06a11.56,11.56,0,0,1,1.19-.06,97.65,97.65,0,0,0,18.25-2.72l.34-.1A75.16,75.16,0,0,0,145.2,141c.71-.37,1.42-.75,2.14-1.15a62,62,0,0,0,16.51-13.17,68.35,68.35,0,0,0,9.64-14.35,65.31,65.31,0,0,0,5.84-18.61,57.92,57.92,0,0,0-.42-18.57,66.31,66.31,0,0,0-3.42-12.06c-.37-.93-.74-1.84-1.11-2.74-.33-.74-.67-1.48-1-2.21l-.81-1.53a7.4,7.4,0,0,0-.66-1.32,8.25,8.25,0,0,1-.62-1.22"/><path class="cls-4" d="M87.86,149.46c-3-.44-6-1-9-1.64l-2.44-.54A95.53,95.53,0,0,1,43,133.7c-1.33-.89-2.62-1.8-3.8-2.7a49.56,49.56,0,0,1-4-3.23A33.14,33.14,0,0,1,27,117.16a2.48,2.48,0,0,1-.35-.74c-.35-.72-.67-1.46-1-2.25a30.91,30.91,0,0,1-1.54-6.72,14.09,14.09,0,0,1-.21-2.83,4.82,4.82,0,0,1,0-.76,31.41,31.41,0,0,1,.15-3.61A51.34,51.34,0,0,1,28.57,84a45.86,45.86,0,0,0,2.88-11.84A82.81,82.81,0,0,1,36,53.69l.11-.31a5.27,5.27,0,0,1,.25-.7c.55-1.41,1.15-2.77,1.78-4a5.39,5.39,0,0,1,.38-.76c6.87-14.13,18.38-24,34.24-29.24a93.05,93.05,0,0,1,33.66-4.22l.27,0a3.05,3.05,0,0,1,.67,0,1.6,1.6,0,0,1,.54,0c2.76.24,5.57.61,8.34,1.11,1.23.21,2.49.47,3.75.78a126.71,126.71,0,0,1,15.71,4.7,71.2,71.2,0,0,1,35.77,30.15c.42.67.83,1.37,1.22,2.08l.08.17a7,7,0,0,0,.5,1,10.26,10.26,0,0,1,.75,1.48l.77,1.45,0,.09,1,2.26c.38.91.75,1.83,1.12,2.78a68.73,68.73,0,0,1,3.51,12.35A59.82,59.82,0,0,1,180.93,94a67.21,67.21,0,0,1-6,19.11,70.83,70.83,0,0,1-9.87,14.69,63.84,63.84,0,0,1-16.94,13.51c-.73.41-1.46.8-2.22,1.19a77.34,77.34,0,0,1-14,5.18l-.13,0-.11,0-.12,0A98.37,98.37,0,0,1,113,150.52a8.64,8.64,0,0,0-1,.06h-.11c-3,.11-6.16.13-9.43.07-2.29-.08-4.59-.2-6.83-.37-.46,0-.9-.06-1.33-.07h-.14q-3.12-.3-6.22-.75M95.8,147c2.19.16,4.44.29,6.67.36,3.17.06,6.25,0,9.18-.06.41,0,.84-.06,1.19-.06a95.47,95.47,0,0,0,17.89-2.66l.43-.12a73.13,73.13,0,0,0,13.28-4.93c.69-.36,1.39-.73,2.1-1.13a60.86,60.86,0,0,0,16.08-12.81,67.43,67.43,0,0,0,9.39-14,64,64,0,0,0,5.7-18.14,56.7,56.7,0,0,0-.41-18A65.12,65.12,0,0,0,174,63.7c-.36-.92-.73-1.83-1.08-2.68l-1-2.16-.79-1.48-.08-.17a6.56,6.56,0,0,0-.53-1.06,11,11,0,0,1-.7-1.36c-.35-.63-.71-1.25-1.09-1.87a68,68,0,0,0-34.16-28.8,122.11,122.11,0,0,0-15.31-4.59c-1.2-.29-2.39-.54-3.55-.74-2.66-.47-5.34-.83-8.06-1.07a1.28,1.28,0,0,1-.75,0,4.34,4.34,0,0,1-.72,0,90,90,0,0,0-32.39,4.08c-15,5-25.88,14.28-32.34,27.62l-.08.14-.21.43,0,.1c-.6,1.21-1.17,2.51-1.7,3.87a5.52,5.52,0,0,0-.18.53l-.11.28,0,.06A79.37,79.37,0,0,0,34.68,72.6a48.37,48.37,0,0,1-3.11,12.68v0a48.52,48.52,0,0,0-4.21,15.22,29.64,29.64,0,0,0-.13,3.37l0,.26v.45a10.35,10.35,0,0,0,.16,2.3V107a27.93,27.93,0,0,0,1.37,6c.28.72.6,1.43.94,2.13l.1.25.13.23a29.88,29.88,0,0,0,7.49,9.69,44.05,44.05,0,0,0,3.76,3c1.15.87,2.39,1.74,3.66,2.6A92.54,92.54,0,0,0,77.1,144.1l2.46.54A121.83,121.83,0,0,0,94.32,147C94.8,147,95.3,147,95.8,147ZM29.86,115.72Zm77.69-98h0Z"/><path class="cls-7" d="M165,33a26.38,26.38,0,0,0,1.18-14.35q-2.25-8.51-9.7-7a12.25,12.25,0,0,0-2.69.78q-9.65,4.25-17.66,14.51c-.26.34-.53.68-.8,1l-.12.17-.59.86c-.27.34-.52.67-.76,1-.51.74-1,1.49-1.55,2.26.65.72,1.31,1.43,2,2.12l1.48,1.44c.22.19.44.39.66.61l.18.12A48.49,48.49,0,0,0,151,45.07l.18.07.36.15c1.69.62,3.45,1.17,5.25,1.65.91-1.06,1.75-2.13,2.54-3.21l.23-.34.24-.34A42.21,42.21,0,0,0,165,33"/><path class="cls-4" d="M159.1,45.36l-.38-.1a1.62,1.62,0,0,1-.9-2.12,2.7,2.7,0,0,1,.48-.76l.17-.24a40.67,40.67,0,0,0,5-9.72A24.87,24.87,0,0,0,164.63,19c-1.65-6.23-5-6.41-7.87-5.85a10.72,10.72,0,0,0-2.29.66c-6.15,2.71-11.88,7.43-17,14l-.77,1-.68,1A1.63,1.63,0,1,1,133.31,28l.71-1,.06-.08.8-1c5.48-7,11.63-12.07,18.32-15a13.66,13.66,0,0,1,3-.88c4.09-.8,9.41,0,11.61,8.31a28.18,28.18,0,0,1-1.24,15.22A44,44,0,0,1,161.14,44l-.23.34-.13.16a1.63,1.63,0,0,1-1.68.86"/><path class="cls-3" d="M147,83.6q-6.57,5.12-8.08,9.46a24.66,24.66,0,0,0-1.09,10.41c.15,1.15.33,2.27.55,3.37a88,88,0,0,0,8.92,25.07c.66,1.29,1.87,3.24,3.62,5.88a63.54,63.54,0,0,0,13-11.1,68.35,68.35,0,0,0,9.64-14.35,65.31,65.31,0,0,0,5.84-18.61,58.88,58.88,0,0,0,0-16.4c-.12-.74-.25-1.46-.4-2.17q-.51-2.67-1.2-5.35A72.85,72.85,0,0,0,147,83.6"/><path class="cls-3" d="M150.7,138.94a1.14,1.14,0,0,0,.81-.19,1.16,1.16,0,0,0,.33-1.61,67,67,0,0,1-3.55-5.76,87.48,87.48,0,0,1-8.82-24.75c-.21-1.08-.39-2.19-.54-3.31a23.75,23.75,0,0,1,1-9.88c.93-2.67,3.52-5.67,7.7-8.92A71.94,71.94,0,0,1,177.92,71a1.16,1.16,0,1,0-.45-2.28,74.26,74.26,0,0,0-31.23,14c-4.61,3.59-7.38,6.85-8.48,10a26.15,26.15,0,0,0-1.14,10.9c.16,1.22.34,2.38.57,3.49a89.36,89.36,0,0,0,9,25.39,68.05,68.05,0,0,0,3.67,6,1.21,1.21,0,0,0,.8.51"/><path class="cls-4" d="M150.63,139.4a1.66,1.66,0,0,0,1.12-.25,65.55,65.55,0,0,0,13.31-11.37,71.16,71.16,0,0,0,9.87-14.7,67.21,67.21,0,0,0,6-19.11,60.34,60.34,0,0,0,0-16.87c-.12-.79-.25-1.54-.4-2.28-.34-1.76-.75-3.59-1.22-5.4l0-.07,0-.06c-.07-.21-.12-.41-.17-.61a1.62,1.62,0,0,0-1.93-1.24,1.63,1.63,0,0,0-1.25,1.94c.07.29.15.59.25.89.44,1.73.83,3.48,1.16,5.19.15.71.28,1.4.38,2.11a57.5,57.5,0,0,1,0,15.94,64.06,64.06,0,0,1-5.7,18.13,67.43,67.43,0,0,1-9.39,14A62.54,62.54,0,0,1,150,136.42a1.63,1.63,0,0,0,.64,3"/><path d="M70,82a16.29,16.29,0,0,1-2.82,7.44c-1.45,2-3,2.9-4.62,2.67s-2.85-1.53-3.67-3.87a16,16,0,0,1-.63-7.94,16.28,16.28,0,0,1,2.87-7.48c1.45-1.95,3-2.81,4.61-2.57s2.85,1.49,3.68,3.77A16.66,16.66,0,0,1,70,82"/><path class="cls-3" d="M68.71,61.21l.08.07a2.92,2.92,0,0,0,2.5,0,2.89,2.89,0,0,0,1.82-1.7A3.35,3.35,0,0,0,73.18,57a3,3,0,0,0-1.56-1.79L60.07,50a3.18,3.18,0,0,0-2.44,0,3.36,3.36,0,0,0-1.84,1.79,3.13,3.13,0,0,0-.09,2.47A3.27,3.27,0,0,0,57.08,56l.21.1,11.42,5.13"/><path class="cls-4" d="M69.42,62.69a3.89,3.89,0,0,1-1.09-.32l-.23-.13-11.2-5a1.65,1.65,0,0,1-.46-.23,4.48,4.48,0,0,1-1.82-2.29,4.32,4.32,0,0,1,.13-3.36,4.48,4.48,0,0,1,2.49-2.4,4.39,4.39,0,0,1,3.32.06l11.6,5.2a4.16,4.16,0,0,1,2.14,2.44A4.49,4.49,0,0,1,74.19,60a4.1,4.1,0,0,1-2.46,2.32,4.26,4.26,0,0,1-2.31.33m-1-.32Zm-.62-.47Zm.92-.66h0ZM58.1,51.08a2.15,2.15,0,0,0-1.23,1.19,2,2,0,0,0-.07,1.6A2.14,2.14,0,0,0,57.7,55h0l.09,0,11.37,5.11.28.15a1.75,1.75,0,0,0,1.39-.1l.12-.05a1.74,1.74,0,0,0,1.12-1.07,2.2,2.2,0,0,0,0-1.71,1.82,1.82,0,0,0-.94-1.1L59.65,51.12a2,2,0,0,0-.56-.15A2,2,0,0,0,58.1,51.08Zm-.25,4.05h0Z"/><path d="M112.78,96.57a2.09,2.09,0,0,0,1.45-3.82l-7.58-5L115.92,85a2.09,2.09,0,0,0-1.2-4l-13.56,4a2.09,2.09,0,0,0-.55,3.75l11.32,7.47a1.94,1.94,0,0,0,.85.33"/><path class="cls-3" d="M119.67,60.05a3.21,3.21,0,0,0-2.27-.89l-12.65.38a3,3,0,0,0-2.12,1.06,3.34,3.34,0,0,0-.91,2.4,3.46,3.46,0,0,0,3.33,3.26l.1,0,12.51-.4.24,0a3.23,3.23,0,0,0,1.94-1.08,3.13,3.13,0,0,0,.85-2.32,3.34,3.34,0,0,0-1-2.36"/><path class="cls-4" d="M104.33,67.41a4.11,4.11,0,0,1-2.4-1.27,4.06,4.06,0,0,1-1.4-3.07,4.54,4.54,0,0,1,1.2-3.21,4.22,4.22,0,0,1,3-1.45L117.38,58a4.39,4.39,0,0,1,3.09,1.23,4.5,4.5,0,0,1,1.36,3.15,4.26,4.26,0,0,1-1.15,3.14A4.44,4.44,0,0,1,118.12,67a1.77,1.77,0,0,1-.52,0l-12.27.4-.26,0a3.64,3.64,0,0,1-.74,0m.63,0Zm.76-.19h0Zm-.58-2.13,12.46-.4h.1A2.12,2.12,0,0,0,119,64a2,2,0,0,0,.54-1.5,2.23,2.23,0,0,0-.65-1.54,2.1,2.1,0,0,0-1.44-.58l-12.6.38a1.91,1.91,0,0,0-1.34.67,2.18,2.18,0,0,0-.62,1.61,1.75,1.75,0,0,0,.62,1.4l.09.09a1.83,1.83,0,0,0,1.26.63Zm12.37-.35Z"/><path d="M75.38,118.88A4,4,0,0,1,73,117.65a4.25,4.25,0,0,1-1-3.7,6.26,6.26,0,0,1,1.92-3.64l.16-.18.55-.46a7.36,7.36,0,0,1-.4-.62l0-.07a6.34,6.34,0,0,1-.87-4.14,4.24,4.24,0,0,1,2-3.25,4.13,4.13,0,0,1,3.94-.11,6.67,6.67,0,0,1,3.06,2.88l.25.51a1.16,1.16,0,1,1-2.13.92l-.14-.29a4.35,4.35,0,0,0-2-1.9,1.88,1.88,0,0,0-1.83,0,2,2,0,0,0-.91,1.58,4,4,0,0,0,.6,2.67l0,.08a4.7,4.7,0,0,0,.92,1.15,1.14,1.14,0,0,1,.38,1,1.19,1.19,0,0,1-.66.89,4.67,4.67,0,0,0-1.12.73l-.19.21a3.92,3.92,0,0,0-1.29,2.35,1.9,1.9,0,0,0,.43,1.77,1.81,1.81,0,0,0,1.73.51,4.3,4.3,0,0,0,2.44-1.25l.23-.23a1.16,1.16,0,0,1,1.66,1.63l-.28.28a6.75,6.75,0,0,1-3.75,1.88,5.3,5.3,0,0,1-1.38,0m-1.66-8.06h0Zm.39-.68h0Z"/><path class="cls-3" d="M35.23,61.55A90.27,90.27,0,0,0,33.1,72.38a46.29,46.29,0,0,1-3,12.25,63.12,63.12,0,0,0-2.35,6.2q5.07-4.81,8.33-8.2a10.12,10.12,0,0,0,2.75-9.28,79,79,0,0,0-3.6-11.8"/><path class="cls-3" d="M27.6,92a1.15,1.15,0,0,0,1-.31c3.37-3.21,6.19-6,8.36-8.23A11.29,11.29,0,0,0,40,73.16a78.78,78.78,0,0,0-3.66-12,1.16,1.16,0,0,0-2.18.8,78.67,78.67,0,0,1,3.55,11.6,9,9,0,0,1-2.45,8.27c-2.14,2.23-4.93,5-8.29,8.16a1.18,1.18,0,0,0,0,1.65,1.24,1.24,0,0,0,.68.35"/><path class="cls-4" d="M27.53,92.45a1.64,1.64,0,0,0,1.79-1.12,58.31,58.31,0,0,1,2.29-6,48.68,48.68,0,0,0,3.12-12.72A87.24,87.24,0,0,1,36.81,62a1.63,1.63,0,0,0-3.15-.84,91.67,91.67,0,0,0-2.16,11A45.6,45.6,0,0,1,28.61,84a62.79,62.79,0,0,0-2.4,6.32,1.63,1.63,0,0,0,1.06,2l.26.06"/><path class="cls-4" d="M49.61,249.59c-4.13,0-8.26-.17-9.54-.29a10.53,10.53,0,0,1-4.5-1.22A5.36,5.36,0,0,1,33,242.6a7.17,7.17,0,0,1,3.67-6.07l11.13-31.8a1.5,1.5,0,0,1,2.83,1L39.29,238.14a1.5,1.5,0,0,1-1,1c-.18.06-2,.74-2.28,3.78a2.41,2.41,0,0,0,1.12,2.64,8.14,8.14,0,0,0,3.22.81c2.49.22,12.7.51,16.74-.06,2.81-.39,5.34-1.54,4.85-7.3a1.39,1.39,0,0,1,.06-.57L70.4,210.9a1.5,1.5,0,0,1,2.87.88L64.93,239c.43,6-2.08,9.49-7.45,10.23A64,64,0,0,1,49.61,249.59Z"/><path class="cls-4" d="M86.4,249.39a31,31,0,0,1-3.89-.19c-4.8-.66-6.41-2.29-6.39-6.46,0-2.44,1.82-5.4,2.55-6.5l.18-25.7a1.51,1.51,0,0,1,1.5-1.49h0a1.5,1.5,0,0,1,1.49,1.51l-.18,26.16a1.47,1.47,0,0,1-.28.86c-.87,1.23-2.26,3.72-2.27,5.17,0,2.21,0,2.95,3.79,3.47,3.07.42,9.8,0,13.82-.3,1.65-.11,3-.2,3.65-.21a4.1,4.1,0,0,0,3.22-1.22c1.08-1.24,1.44-3.63,1-6.92a2.44,2.44,0,0,1,0-.27l1.84-33.47a1.5,1.5,0,0,1,3,.17l-1.83,33.34c.5,4.2-.09,7.19-1.78,9.13a7,7,0,0,1-5.43,2.24c-.61,0-2,.1-3.49.2C93.89,249.12,89.77,249.39,86.4,249.39Z"/><path class="cls-4" d="M77,211.89a16.19,16.19,0,0,1-8.32-2.29,1.5,1.5,0,0,1,1.65-2.5A13.55,13.55,0,0,0,77,208.89c5.64,0,7.17-.74,7.42-.88a1.5,1.5,0,0,1,2.38,1.8C86,211.19,82.67,211.89,77,211.89Zm7.23-3.63Zm0,0Zm0,0Z"/></g></g></svg>