<svg xmlns="http://www.w3.org/2000/svg" viewBox="0 0 131.8 194.7"><defs><style>.cls-1{fill:#83e8d3;}.cls-2{fill:#47d7ac;}.cls-3{fill:#3fd8b1;}.cls-4{fill:#1cb594;}.cls-5{fill:#fff;}.cls-6{fill:#333;}.cls-7{fill:none;stroke:#333;stroke-linecap:round;stroke-linejoin:round;stroke-width:1.5px;}</style></defs><g id="레이어_2" data-name="레이어 2"><g id="레이어_1-2" data-name="레이어 1"><path class="cls-1" d="M47.6,118c-1.09,2.19-3.48,5.58-4.37,7.63q-1.06,2.4-1.89,4.68a26.15,26.15,0,0,1-3.61,3.75,19,19,0,0,1-4.91,3c-6.12,2.56-13.5,2.82-18.64-1.93-5.78-5.35-8.46-13.93-8.88-21.6-.33-5.92,0-18,7.82-19.25C15,94.05,14.64,97,16.19,98c4.62,3,6.52,8.65,7.85,13.7.81,3,2.05,4.6,2.31,7.73L34.52,115a3.52,3.52,0,0,1,1.7-.57,3.45,3.45,0,0,1,1.6.53c2.12,1.09,4.83,1.23,7,2.34C45.45,117.65,46.93,117.69,47.6,118Z"/><path class="cls-2" d="M25,121.46a1,1,0,0,1-.87-.51,1,1,0,0,1,.37-1.36L34,114.13a1,1,0,0,1,1.37.38,1,1,0,0,1-.38,1.36l-9.57,5.46A1,1,0,0,1,25,121.46Z"/><path class="cls-1" d="M65.25,159l1.08,26.68a4.72,4.72,0,0,0-2.47,3.75q-.26,3.63,5.88,3.86a90,90,0,0,0,10.83-.19q5.43-.49,4.2-7.61l1-26.49Z"/><path class="cls-2" d="M87.06,159.08l-.12,3.27-.14,3.58v0l-.16,4.3,0,1.19h0l-.51,14c.51,3,.17,5.27-1,6.83a5.83,5.83,0,0,1-4.36,2.15c-2.12.19-4.42.27-6.87.27-1.34,0-2.71,0-4.12-.07-3-.11-5-.79-6.12-2.06a4,4,0,0,1-.81-1.4,4.28,4.28,0,0,1-.21-1.81,5.87,5.87,0,0,1,.78-2.51A6.09,6.09,0,0,1,65,185l-.4-9.72-.13-3.11,0-.73v-.19l0-1,0-.71L64,161.48v0l-.1-2.36a1.34,1.34,0,0,1,.09-.53h0a1.29,1.29,0,0,1,1.16-.83A1.31,1.31,0,0,1,66.55,159V159L67,170.27v.51a.37.37,0,0,1,0,.11v0h0v.2l0,.34.14,3.76.43,10.44a1.29,1.29,0,0,1-.63,1.18,3.4,3.4,0,0,0-1.84,2.74,1.52,1.52,0,0,0,.37,1.24c.42.48,1.53,1.09,4.25,1.19a89.39,89.39,0,0,0,10.67-.19A3.32,3.32,0,0,0,83,190.68c.73-.94.9-2.58.52-4.86a1.87,1.87,0,0,1,0-.34L84,172.33l0-.87,0-1.19.12-3.27.07-1.79v0l.23-6.16V159a1.31,1.31,0,0,1,2.62.1Z"/><path class="cls-1" d="M42.32,159l1.08,26.68a4.72,4.72,0,0,0-2.47,3.75q-.27,3.63,5.88,3.86a90,90,0,0,0,10.83-.19q5.43-.49,4.2-7.61l1-26.49Z"/><path class="cls-2" d="M64.13,159.08,64,161.45v0l-.29,8.07,0,.72,0,1v.18l0,.71-.12,3.11-.37,10.15c.08.49.13,1,.18,1.42a8.73,8.73,0,0,1-.57,4.32,5.06,5.06,0,0,1-.65,1.11,5.85,5.85,0,0,1-4.36,2.15c-2.12.19-4.43.27-6.88.27-1.33,0-2.7,0-4.11-.07-3-.11-5-.79-6.13-2.06a4.21,4.21,0,0,1-1-3.21A5.86,5.86,0,0,1,42.06,185l-.55-13.56,0-1.19-.06-1.44-.16-4.07v0l-.16-3.94L41,159.09a1.3,1.3,0,0,1,1.25-1.37A1.33,1.33,0,0,1,43.63,159V159l.18,4.48.13,3v.32l.13,3.41,0,.26,0,.93.58,14.2a1.3,1.3,0,0,1-.64,1.18,3.4,3.4,0,0,0-1.84,2.74,1.59,1.59,0,0,0,.37,1.24c.43.48,1.53,1.09,4.26,1.19a89.64,89.64,0,0,0,10.68-.19A3.29,3.29,0,0,0,60,190.68c.75-1,.92-2.62.52-4.93l0-.27.38-10.29.11-3.1,0-.63v-.22l0-1,0-.8L61.5,159V159a1.32,1.32,0,0,1,1.36-1.26,1.3,1.3,0,0,1,1.17.83h0A1.13,1.13,0,0,1,64.13,159.08Z"/><path class="cls-1" d="M65.62,112.27v-8.14H53.18a187.19,187.19,0,0,0-11.61,22.11c-2.15,4.87-4.76,10.37-5.68,14.47C33,153.25,37,161.1,45.5,166.3L54,162.14l4.46,8.54,5.47.19h1.83a39.15,39.15,0,0,0,4.09-.3l4.57-8.69L84,166.3c.54-.33,1.07-.68,1.57-1.05q11-8,7-25.56a74.68,74.68,0,0,0-4.61-13.45l-15.06-14h-7.2"/><path class="cls-2" d="M93.77,139.4a76.2,76.2,0,0,0-4.69-13.68,1.3,1.3,0,0,0-1.73-.68,1.32,1.32,0,0,0-.67,1.73A72.38,72.38,0,0,1,91.21,140c2.27,10,.87,17.34-4.27,22.36a15.55,15.55,0,0,1-1.36,1.2l-.82.64-.05,0a1.3,1.3,0,0,0-.35.43,1.21,1.21,0,0,0-.14.51v.06L84.14,167,84,170.27l0,1.19,0,.87-.49,13.15a1.87,1.87,0,0,0,0,.34,1.34,1.34,0,0,0,1.23,1h.22a1.32,1.32,0,0,0,1.14-1.25v-.13l.51-14h0l0-1.19.16-4.3v0C94.14,160.29,96.48,151.37,93.77,139.4Z"/><path class="cls-1" d="M112.31,146.48q-3.5-5.39-7.53-10.57A183.25,183.25,0,0,0,82.41,112l-8.32,4.35q6,11.2,10.72,19.56,7.71,13.77,11.76,19.78a25.73,25.73,0,0,0,5.06,5.78,10.86,10.86,0,0,0,5.7,2.54,7.46,7.46,0,0,0,4.72-1.16q7.58-5.35.26-16.37"/><path class="cls-2" d="M108,165.36c-.27,0-.53,0-.8,0a12.15,12.15,0,0,1-6.39-2.82,27,27,0,0,1-5.34-6.09c-2.71-4-6.68-10.69-11.82-19.86A1.31,1.31,0,0,1,86,135.27c5.1,9.1,9,15.73,11.71,19.69a24.14,24.14,0,0,0,4.81,5.49,9.6,9.6,0,0,0,5,2.26,6.26,6.26,0,0,0,3.9-1c1.65-1.17,6.45-4.67-.11-14.56-2.31-3.54-4.82-7.07-7.48-10.49A183.23,183.23,0,0,0,81.53,113a1.31,1.31,0,1,1,1.76-2,185.92,185.92,0,0,1,22.53,24.08c2.69,3.47,5.25,7.06,7.59,10.65,6.61,10,3.32,15.38-.6,18.16l-.07.05a9,9,0,0,1-4.73,1.39"/><path class="cls-3" d="M67,170.78a1.07,1.07,0,0,0-.13-.51,1.33,1.33,0,0,0-1.14-.71h-2l-1.33,0-1.31,0-2.64-.1a1.3,1.3,0,0,0-1.28.9.9.9,0,0,0-.07.37,1.33,1.33,0,0,0,.26.82,1.26,1.26,0,0,0,1,.53l2.63.1c.47,0,.9,0,1.32,0l1.32,0a1,1,0,0,0,.24,0h1.89a1.32,1.32,0,0,0,1.12-.73,1.18,1.18,0,0,0,.12-.33,1.36,1.36,0,0,0,0-.21h0v0A.37.37,0,0,0,67,170.78Z"/><path class="cls-4" d="M68.75,143.22a11.54,11.54,0,0,0-.9-4.31,10,10,0,0,0-2.4-3.56,11,11,0,0,0-15.66.07,10.77,10.77,0,0,0-2.36,3.6,11,11,0,0,0-.86,4.35V144l6,0v-.64a5.13,5.13,0,0,1,1.46-3.64,5.08,5.08,0,0,1,7.16,0,4.81,4.81,0,0,1,1.54,3.63v.6h6v-.67"/><path class="cls-5" d="M54.91,14A21.21,21.21,0,0,0,49.33,3.83Q44.05-.89,39.69,3.4a10.07,10.07,0,0,0-1.47,1.73q-4.59,7.13-5.43,17.58l-.09,1v.17c0,.28,0,.56,0,.84s0,.68-.06,1c0,.72,0,1.46,0,2.21.76.2,1.52.38,2.29.54l1.63.31c.24,0,.48.06.72.11h.17a39.27,39.27,0,0,0,13.47-.59l.15,0,.31-.06c1.41-.33,2.84-.74,4.27-1.22.14-1.11.23-2.21.28-3.28a.91.91,0,0,1,0-.33c0-.12,0-.23,0-.34a34,34,0,0,0-1-9.11"/><path class="cls-2" d="M32.71,26.08h0a1.31,1.31,0,0,1-1.28-1.34l0-1v-.09l.09-1C32.09,15.46,34,9.34,37.15,4.43a11.19,11.19,0,0,1,1.69-2c2.35-2.31,6.27-4.15,11.4.42a22.72,22.72,0,0,1,6,10.84,35.69,35.69,0,0,1,1,9.45v.5a1.32,1.32,0,0,1-2.6.39,2.11,2.11,0,0,1,0-.71v-.24a33,33,0,0,0-.94-8.76,20.09,20.09,0,0,0-5.23-9.56c-3.82-3.41-6.18-2-7.8-.42a8.35,8.35,0,0,0-1.3,1.53c-2.91,4.52-4.67,10.23-5.2,17L34,24l0,.84a1.31,1.31,0,0,1-1.31,1.28"/><path class="cls-5" d="M119.51,34.25c-.38-.5-.77-1-1.17-1.46A55.86,55.86,0,0,0,87.06,13.3a100,100,0,0,0-12.89-1.91q-1.55-.15-3-.18c-2.25-.08-4.47-.05-6.67.07a.87.87,0,0,0-.38.08.94.94,0,0,0-.41,0,2.31,2.31,0,0,1-.37,0,73.65,73.65,0,0,0-25.9,7.12Q19.8,27.36,14.17,45a4.59,4.59,0,0,0-.18.56c-.35,1.08-.66,2.2-.94,3.38a4.21,4.21,0,0,0-.11.6l0,.15a65.19,65.19,0,0,0-1.5,15.06,37.62,37.62,0,0,1-1,10.12A39.91,39.91,0,0,0,8.78,88a26,26,0,0,0,.3,2.84,1.76,1.76,0,0,0,.07.49,10.31,10.31,0,0,0,.45,2.1,23.79,23.79,0,0,0,1.91,5q.49.86,1.05,1.68a.85.85,0,0,0,.23.34,25.15,25.15,0,0,0,7.45,7.23,38.34,38.34,0,0,0,3.45,2.06c1,.58,2.15,1.14,3.3,1.69a75.25,75.25,0,0,0,27.69,6.86l2,.15a100.25,100.25,0,0,0,12.26.15c.37,0,.76-.09,1.16-.12q2.7-.18,5.43-.48c2.57-.33,5-.7,7.42-1.13.3-.07.61-.14.94-.19a78.05,78.05,0,0,0,14.24-4.27l.26-.11a60.46,60.46,0,0,0,10.3-5.62c.53-.38,1.05-.76,1.58-1.16A50,50,0,0,0,121.94,93a55.15,55.15,0,0,0,6-12.55,52.45,52.45,0,0,0,2.51-15.51A46.36,46.36,0,0,0,128,50.18,53.37,53.37,0,0,0,123.89,41c-.4-.69-.81-1.38-1.24-2.06s-.66-1.11-1-1.65l-.82-1.13a6.73,6.73,0,0,0-.68-1,6.14,6.14,0,0,1-.63-.9"/><path class="cls-2" d="M129.25,49.76A54.83,54.83,0,0,0,125,40.31c-.41-.7-.81-1.4-1.24-2.1l-1-1.67,0-.07-.79-1.06a6.52,6.52,0,0,0-.76-1.1,5.06,5.06,0,0,1-.51-.72l-.09-.12c-.39-.53-.79-1-1.2-1.52A57.37,57.37,0,0,0,87.34,12a102.43,102.43,0,0,0-13-1.94c-1.05-.1-2.08-.16-3.08-.18-2.27-.09-4.56-.06-6.72.07a2.12,2.12,0,0,0-.5,0,2.41,2.41,0,0,0-.54.05h-.22a75.11,75.11,0,0,0-26.37,7.26c-12,6-20.07,15.19-23.92,27.25a6.19,6.19,0,0,0-.22.65c-.35,1.09-.67,2.24-.94,3.42a5.79,5.79,0,0,0-.12.6l-.07.26a67.89,67.89,0,0,0-1.5,15.3,36.55,36.55,0,0,1-.93,9.75A41.54,41.54,0,0,0,7.47,88c0,1,.16,2,.3,2.9a2.73,2.73,0,0,0,.09.62,10.11,10.11,0,0,0,.49,2.23,24.21,24.21,0,0,0,2,5.21c.32.56.66,1.12,1,1.66a2,2,0,0,0,.36.54,26.5,26.5,0,0,0,7.76,7.49,38.37,38.37,0,0,0,3.55,2.14c1.07.57,2.19,1.15,3.37,1.71,1.81.85,3.68,1.63,5.56,2.32a74,74,0,0,0,11.73,3.29,81.58,81.58,0,0,0,10.86,1.37l2,.15c2.48.19,5,.27,7.47.27,1.65,0,3.3,0,5-.11h.11c.34-.05.7-.09,1.08-.11,1.81-.12,3.65-.3,5.5-.49,2.58-.33,5.09-.71,7.48-1.14h.09a7.86,7.86,0,0,1,.88-.19,78.78,78.78,0,0,0,14.5-4.35l.26-.11a61.73,61.73,0,0,0,10.55-5.75c.54-.38,1.06-.78,1.6-1.18a51.57,51.57,0,0,0,12-12.74,57.89,57.89,0,0,0,6.19-12.88,54,54,0,0,0,2.57-15.91A47.82,47.82,0,0,0,129.25,49.76ZM126.73,80a54.68,54.68,0,0,1-5.88,12.26,49,49,0,0,1-11.36,12.07c-.51.4-1,.78-1.52,1.13A60.63,60.63,0,0,1,97.9,111l-.26.11a77.8,77.8,0,0,1-13.94,4.19c-.34,0-.68.12-1,.2-2.33.41-4.79.78-7.29,1.1-1.79.19-3.6.37-5.38.49-.4,0-.81.06-1.19.11a96.71,96.71,0,0,1-12-.15l-2-.16a74.42,74.42,0,0,1-27.19-6.72c-1.13-.54-2.22-1.09-3.25-1.67a34.69,34.69,0,0,1-3.34-2,23.92,23.92,0,0,1-7.08-6.84l-.14-.18-.11-.19c-.34-.52-.69-1-1-1.56a21.93,21.93,0,0,1-1.8-4.66l0-.09a7.89,7.89,0,0,1-.39-1.81l0-.22,0-.14,0-.21c-.13-.87-.23-1.77-.28-2.7a39,39,0,0,1,1.6-12.62v0a38.08,38.08,0,0,0,1-10.44A64.3,64.3,0,0,1,14.18,50V50l.05-.23a3,3,0,0,1,.09-.47c.27-1.12.56-2.23.9-3.26l0-.08a1.79,1.79,0,0,1,.12-.37l0-.12C19,34.06,26.65,25.38,38,19.7a72.3,72.3,0,0,1,25.38-7,2,2,0,0,0,.52-.06.91.91,0,0,0,.23,0,1.26,1.26,0,0,0,.43-.08c2.15-.12,4.36-.14,6.56-.07,1,0,1.93.09,2.92.18a99.11,99.11,0,0,1,12.72,1.88,54.86,54.86,0,0,1,30.57,19.05c.37.44.73.89,1.07,1.35a10.5,10.5,0,0,0,.72,1,6.51,6.51,0,0,1,.55.79l.08.12.79,1.09c.35.53.68,1,1,1.58l1.2,2a51.53,51.53,0,0,1,4,9,45.19,45.19,0,0,1,2.42,14.33A51.83,51.83,0,0,1,126.73,80Z"/><path class="cls-5" d="M111.15,17.87a21.24,21.24,0,0,0-.71-11.57q-2.77-6.52-8.55-4.5a9.71,9.71,0,0,0-2.06.94q-7.17,4.49-12.44,13.6c-.15.29-.32.59-.48.9l-.08.15c-.13.25-.27.49-.41.75s-.3.59-.45.9c-.34.64-.66,1.31-1,2,.6.51,1.22,1,1.84,1.46.44.34.89.66,1.35,1l.6.37.15.12a38.44,38.44,0,0,0,12.44,5.2l.15,0,.3.08c1.42.3,2.88.53,4.38.71.59-.95,1.13-1.9,1.61-2.85l.3-.6a34.17,34.17,0,0,0,3-8.66"/><path class="cls-2" d="M107.83,28.44a1.28,1.28,0,0,1-.57-.13,1.32,1.32,0,0,1-.6-1.76L107,26a33,33,0,0,0,2.91-8.33,20,20,0,0,0-.66-10.88c-2-4.71-4.73-4.46-6.87-3.7a8.4,8.4,0,0,0-1.83.83C96,6.72,91.92,11.14,88.55,17l-.48.85L88,18c-.14.25-.26.49-.38.73a1.32,1.32,0,0,1-1.76.58,1.3,1.3,0,0,1-.58-1.76c.13-.27.27-.53.41-.79l0-.08,0-.08.51-.91c3.59-6.24,7.92-11,12.87-14.07A11.51,11.51,0,0,1,101.51.55c3.11-1.1,7.44-1.09,10.13,5.23a22.67,22.67,0,0,1,.8,12.35,36.31,36.31,0,0,1-3.13,9l-.3.59a1.31,1.31,0,0,1-1.18.73"/><path class="cls-1" d="M128.54,51.86c-.17-.56-.34-1.12-.53-1.68-.37-1.1-.79-2.18-1.25-3.26a.93.93,0,0,0-.65-1.75,60,60,0,0,0-23.28,14.77c-3.24,3.39-5.08,6.31-5.62,8.94a21.31,21.31,0,0,0,.37,8.86c.26.92.54,1.82.84,2.68a72.07,72.07,0,0,0,10.13,19.19,53.29,53.29,0,0,0,3.61,4.36.95.95,0,0,0,1.32.08.94.94,0,0,0,.07-1.33l0,0a49.38,49.38,0,0,0,8.41-9.7,55.15,55.15,0,0,0,6-12.55,52.45,52.45,0,0,0,2.51-15.51A46.49,46.49,0,0,0,128.54,51.86Z"/><path class="cls-2" d="M112.86,104.66a1.35,1.35,0,0,1-1-.45,1.33,1.33,0,0,1,.14-1.86,49.21,49.21,0,0,0,8.85-10.07A54.4,54.4,0,0,0,126.73,80a51.48,51.48,0,0,0,2.44-15.1,45.71,45.71,0,0,0-1.87-12.7c-.17-.54-.35-1.09-.53-1.64-.45-1.34-1-2.68-1.55-4v-.05c-.08-.2-.16-.38-.24-.57a1.31,1.31,0,1,1,2.39-1.07c.1.21.19.43.28.65.6,1.38,1.15,2.8,1.62,4.21.2.57.38,1.14.56,1.72a48.45,48.45,0,0,1,2,13.45,54.38,54.38,0,0,1-2.57,15.91A57.24,57.24,0,0,1,123,93.72a51.44,51.44,0,0,1-9.33,10.62,1.32,1.32,0,0,1-.85.32"/><path class="cls-6" d="M38,74a13,13,0,0,0,1.39-6.25A13.26,13.26,0,0,0,38,61.49c-.92-1.72-2-2.58-3.37-2.58s-2.45.86-3.37,2.58a13,13,0,0,0-1.43,6.3A12.77,12.77,0,0,0,31.3,74c.92,1.78,2.05,2.67,3.37,2.67S37.12,75.82,38,74"/><path class="cls-1" d="M36.88,50.83l.07.05a2.37,2.37,0,0,0,2-.32A2.34,2.34,0,0,0,40.2,49,2.69,2.69,0,0,0,40,46.93a2.44,2.44,0,0,0-1.45-1.24L28.7,42.9a2.61,2.61,0,0,0-1.95.25,2.7,2.7,0,0,0-1.26,1.64,2.52,2.52,0,0,0,.21,2A2.71,2.71,0,0,0,27,48l.19,0,9.69,2.78"/><path class="cls-2" d="M37.63,51.94a3.25,3.25,0,0,1-.92-.13l-.19-.08L27,49a1.11,1.11,0,0,1-.4-.13,3.57,3.57,0,0,1-1.71-1.62,3.46,3.46,0,0,1-.29-2.68,3.6,3.6,0,0,1,1.69-2.19A3.52,3.52,0,0,1,29,42l9.84,2.8a3.41,3.41,0,0,1,2,1.72,3.64,3.64,0,0,1,.3,2.75,3.3,3.3,0,0,1-1.69,2.12,3.47,3.47,0,0,1-1.8.53m-.82-.14Zm-.56-.3ZM37.36,50a1.4,1.4,0,0,0,1.1-.24l.09,0a1.4,1.4,0,0,0,.77-1,1.78,1.78,0,0,0-.17-1.38,1.48,1.48,0,0,0-.92-.79l-9.76-2.78a1.69,1.69,0,0,0-1.24.17,1.75,1.75,0,0,0-.81,1.07,1.57,1.57,0,0,0,.12,1.28,1.77,1.77,0,0,0,.85.82h0l.07,0L37.13,50Zm-9.83-2.8Z"/><path class="cls-6" d="M66,67.79A12.77,12.77,0,0,0,67.38,74c.93,1.78,2.05,2.67,3.38,2.67s2.44-.89,3.37-2.67a12.77,12.77,0,0,0,1.42-6.25,13,13,0,0,0-1.42-6.3c-.93-1.72-2-2.58-3.37-2.58s-2.45.86-3.38,2.58A13,13,0,0,0,66,67.79"/><path class="cls-1" d="M79.19,44.29a2.59,2.59,0,0,0-1.91-.45l-10,1.76a2.46,2.46,0,0,0-1.57,1.09,2.72,2.72,0,0,0-.45,2,2.81,2.81,0,0,0,3,2.22l.07,0,9.93-1.76.19,0A2.65,2.65,0,0,0,79.86,48a2.5,2.5,0,0,0,.41-2,2.69,2.69,0,0,0-1.08-1.76"/><path class="cls-2" d="M67.82,51.9a3.35,3.35,0,0,1-2.06-.73,3.28,3.28,0,0,1-1.47-2.3,3.6,3.6,0,0,1,.59-2.69A3.31,3.31,0,0,1,67,44.69l10.08-1.77a3.56,3.56,0,0,1,2.61.6,3.69,3.69,0,0,1,1.48,2.37,3.51,3.51,0,0,1-.57,2.65A3.6,3.6,0,0,1,78.76,50a1.3,1.3,0,0,1-.41.09l-9.74,1.73-.2.06a3.92,3.92,0,0,1-.59,0m.5-.08Zm0,0Zm.59-.23Zm8.78-6.84-.28,0-10,1.76a1.48,1.48,0,0,0-1,.67,1.83,1.83,0,0,0-.31,1.35,1.42,1.42,0,0,0,.66,1.06l.09.06A1.44,1.44,0,0,0,68,50l.24-.06,9.9-1.76h.07a1.69,1.69,0,0,0,.93-.72,1.62,1.62,0,0,0,.26-1.26A1.76,1.76,0,0,0,78.62,45,1.58,1.58,0,0,0,77.69,44.75Zm.33,3.5Z"/><path class="cls-1" d="M17,64.59a65.83,65.83,0,0,0-4.28-9.12.94.94,0,0,0-1.27-.39A.93.93,0,0,0,11,56.35c.22.43.44.84.65,1.24-.2,2.31-.3,4.7-.28,7.16a37.34,37.34,0,0,1-1,10.12c-.3,1.1-.55,2.17-.77,3.22L8.53,79.54a.93.93,0,0,0,.16,1.31.89.89,0,0,0,.58.2.91.91,0,0,0,.73-.36c2.32-2.94,4.24-5.48,5.72-7.54A9.07,9.07,0,0,0,17,64.59Z"/><path class="cls-2" d="M9.27,81.43l-.22,0A1.31,1.31,0,0,1,8,79.9c.29-1.72.69-3.52,1.19-5.36a35.71,35.71,0,0,0,.93-9.73,71.37,71.37,0,0,1,.46-9.05,1.31,1.31,0,0,1,2.6.3,71.86,71.86,0,0,0-.44,8.7,38.36,38.36,0,0,1-1,10.45,50.35,50.35,0,0,0-1.14,5.12,1.32,1.32,0,0,1-1.29,1.1"/><path class="cls-7" d="M43.68,88.17s3.54,6.3,9.65,0"/><path class="cls-1" d="M20.8,138.82a13.85,13.85,0,0,1-7.24-3.5C7.78,130,5.11,121.4,4.68,113.72c-.33-5.92,0-18,7.82-19.25a7.6,7.6,0,0,1,5.28,1.28c4.63,3,6.53,8.65,7.85,13.7A49.1,49.1,0,0,1,27,117.88c0,.29.06.59.08.87.21-.1.41-.22.62-.34C28.3,121.2,30.44,134.3,20.8,138.82Z"/><path class="cls-2" d="M24.24,140.94c-7.21,0-10.27-2.79-10.77-3.3-8.21-6.63-10-17.7-10.34-23.72-.42-7.36.23-19.94,9.23-21.38,2.32-.37,4.22.59,5.94,1.69,5.26,3.36,7.46,9.39,8.92,14.85A125.46,125.46,0,0,1,29.33,124a1,1,0,0,1-2,.17,119.91,119.91,0,0,0-2-14.58c-1.35-5.08-3.37-10.68-8.06-13.67-1.64-1-3-1.65-4.55-1.4C5,95.75,4.82,108.42,5.13,113.81c.54,9.7,4.06,17.83,9.64,22.32a.69.69,0,0,1,.13.11s2.74,2.83,9.92,2.69c5-.1,8.46-1.65,12.19-5.53a1,1,0,0,1,1.42,0,1,1,0,0,1,0,1.41c-4.09,4.25-8,6-13.59,6.14Z"/><path class="cls-4" d="M52.05,74.06a1.76,1.76,0,0,1-.45,0,9.83,9.83,0,0,0-5.63,0,1.44,1.44,0,0,1-1-2.7,12.72,12.72,0,0,1,7.3-.14,1.44,1.44,0,0,1-.2,2.84"/><path class="cls-4" d="M26.38,94.68a26.76,26.76,0,0,1-3,.08A23.54,23.54,0,0,1,6.89,87.57,23.24,23.24,0,0,1,0,71,21.93,21.93,0,0,1,6.72,54.8a21.9,21.9,0,0,1,16.52-6.34,23.32,23.32,0,0,1,16.41,7.21,23,23,0,0,1,6.92,16.52,21.57,21.57,0,0,1-6.81,16.22,21.28,21.28,0,0,1-13.38,6.27M20.43,51.42a18.68,18.68,0,0,0-11.7,5.44A18.9,18.9,0,0,0,2.88,71,20.23,20.23,0,0,0,8.94,85.55a20.44,20.44,0,0,0,14.54,6.33,18.51,18.51,0,0,0,14.27-5.53,18.49,18.49,0,0,0,5.93-14.14h0a19.9,19.9,0,0,0-6.09-14.52,20.24,20.24,0,0,0-14.44-6.34A22.2,22.2,0,0,0,20.43,51.42Z"/><path class="cls-5" d="M26,92a22.74,22.74,0,0,1-2.62.07A20.85,20.85,0,0,1,8.72,85.67,20.58,20.58,0,0,1,2.6,71,19.38,19.38,0,0,1,8.54,56.64,19.38,19.38,0,0,1,23.2,51a20.71,20.71,0,0,1,14.56,6.39,20.41,20.41,0,0,1,6.16,14.66,19.06,19.06,0,0,1-6,14.38A19,19,0,0,1,26,92M20.63,52.54A17.81,17.81,0,0,0,9.54,57.67,18,18,0,0,0,4,71,19.19,19.19,0,0,0,9.75,84.66a19.42,19.42,0,0,0,13.65,6,17.82,17.82,0,0,0,13.5-5.23,17.65,17.65,0,0,0,5.58-13.33h0a19,19,0,0,0-5.75-13.65,19.35,19.35,0,0,0-13.58-6A19.09,19.09,0,0,0,20.63,52.54Z"/><path class="cls-4" d="M77.72,95.93A25.69,25.69,0,0,1,74.8,96,24.05,24.05,0,0,1,51.43,72.29a22.37,22.37,0,0,1,23.2-22.61A23.33,23.33,0,0,1,91,56.92,22.89,22.89,0,0,1,98,73.45,22.44,22.44,0,0,1,77.72,95.93M71.9,52.64a18.62,18.62,0,0,0-11.73,5.47,18.87,18.87,0,0,0-5.86,14.16A21.18,21.18,0,0,0,74.88,93.13a19.55,19.55,0,0,0,20.2-19.67h0A19.8,19.8,0,0,0,89,59a20.28,20.28,0,0,0-14.45-6.39A22.86,22.86,0,0,0,71.9,52.64Z"/><path class="cls-5" d="M77.38,93.38a22.68,22.68,0,0,1-2.62.07A20.8,20.8,0,0,1,60.13,87,20.55,20.55,0,0,1,54,72.37a19.75,19.75,0,0,1,20.61-20,20.69,20.69,0,0,1,14.55,6.39,20.33,20.33,0,0,1,6.16,14.66A19.92,19.92,0,0,1,77.38,93.38M72,53.89A17.83,17.83,0,0,0,61,59a18,18,0,0,0-5.51,13.33A19.19,19.19,0,0,0,61.15,86a19.44,19.44,0,0,0,13.66,6A17.8,17.8,0,0,0,88.3,86.78a17.61,17.61,0,0,0,5.58-13.33h0a19,19,0,0,0-5.74-13.65,19.35,19.35,0,0,0-13.58-6A21,21,0,0,0,72,53.89Z"/><path class="cls-2" d="M45.62,168.05a1,1,0,0,1-.41-.08,21,21,0,0,1-11.62-15.43c-2-11.11,6.88-27.69,7.26-28.39a1.07,1.07,0,0,1,1.46-.43,1.06,1.06,0,0,1,.43,1.45c-.09.17-8.88,16.63-7,27A18.83,18.83,0,0,0,46,166a1.07,1.07,0,0,1,.57,1.4A1.06,1.06,0,0,1,45.62,168.05Z"/></g></g></svg>