<svg xmlns="http://www.w3.org/2000/svg" viewBox="0 0 99.18 158.87"><defs><style>.cls-1{fill:#83e8d3;}.cls-2{fill:#47d7ac;}.cls-3{fill:#1cb594;}.cls-4{fill:#fff;}</style></defs><g id="레이어_2" data-name="레이어 2"><g id="레이어_1-2" data-name="레이어 1"><path class="cls-1" d="M42,94.91l-6.79-3.54a143,143,0,0,0-24.41,28.14q-6,9,.22,13.36a6.08,6.08,0,0,0,3.85.95,8.85,8.85,0,0,0,4.65-2.08A20.83,20.83,0,0,0,23.61,127Q28.94,119.14,42,94.91"/><path class="cls-2" d="M14.27,134.92a7.24,7.24,0,0,1-3.86-1.14l-.05,0c-3.21-2.27-5.9-6.69-.49-14.84A145,145,0,0,1,34.45,90.57a1.08,1.08,0,0,1,1.22-.15L42.46,94a1.05,1.05,0,0,1,.52.63,1,1,0,0,1-.08.82c-8.66,16.11-14.85,26.94-18.4,32.21a22.38,22.38,0,0,1-4.34,4.94,10,10,0,0,1-5.24,2.32l-.65,0M11.57,132a5,5,0,0,0,3.16.77,7.79,7.79,0,0,0,4.09-1.85,20,20,0,0,0,3.89-4.46c3.45-5.11,9.43-15.56,17.79-31.08l-5.17-2.7a142.37,142.37,0,0,0-23.67,27.43C6.3,128.17,10.22,131,11.57,132Z"/><path class="cls-1" d="M84.38,133.82a6.13,6.13,0,0,0,3.86-.95q6.18-4.37.21-13.36A142.67,142.67,0,0,0,64,91.37l-6.79,3.54q13,24.23,18.36,32.12a20.8,20.8,0,0,0,4.12,4.71,8.92,8.92,0,0,0,4.65,2.08"/><path class="cls-2" d="M84.94,134.92c-.22,0-.43,0-.65,0a9.93,9.93,0,0,1-5.22-2.31,22.31,22.31,0,0,1-4.36-5c-3.54-5.26-9.74-16.09-18.4-32.2a1.07,1.07,0,0,1-.08-.82,1,1,0,0,1,.53-.63l6.79-3.55a1.06,1.06,0,0,1,1.21.15,145.12,145.12,0,0,1,24.59,28.35c5.4,8.14,2.71,12.56-.49,14.83l-.06,0a7.22,7.22,0,0,1-3.86,1.14M58.71,95.36c8.36,15.52,14.34,26,17.78,31.07a20,20,0,0,0,3.93,4.48,7.68,7.68,0,0,0,4,1.84,5.07,5.07,0,0,0,3.18-.77c1.34-1,5.26-3.81-.09-11.88A142.53,142.53,0,0,0,63.88,92.66Z"/><path class="cls-1" d="M31,128l1.65,23.49a3.85,3.85,0,0,0-2,3.06q-.21,3,4.8,3.15a72.65,72.65,0,0,0,9-.18q4-.37,4.34-2.73a3.4,3.4,0,0,0-1.1-3.45L48.51,128H31"/><path class="cls-2" d="M38.6,158.87c-1.05,0-2.14,0-3.26-.06-2.42-.09-4.05-.64-5-1.68a3.43,3.43,0,0,1-.84-2.62,4.79,4.79,0,0,1,2-3.52l-1.61-22.87a1.06,1.06,0,0,1,.29-.81A1,1,0,0,1,31,127H48.51a1.08,1.08,0,0,1,1.07,1.11l-.84,22.84A4.59,4.59,0,0,1,49.81,155c-.21,1.45-1.3,3.26-5.31,3.63-1.8.17-3.78.25-5.9.25m-6.5-29.76,1.57,22.34a1.07,1.07,0,0,1-.52,1,2.79,2.79,0,0,0-1.5,2.24,1.3,1.3,0,0,0,.29,1c.36.4,1.26.89,3.48,1a70.37,70.37,0,0,0,8.89-.18c2.1-.19,3.24-.8,3.38-1.81.22-1.55-.29-2.14-.69-2.45a1.08,1.08,0,0,1-.42-.89l.82-22.23Z"/><path class="cls-1" d="M66.61,151.53,68.26,128H50.71l.85,23.34a3.42,3.42,0,0,0-1.1,3.45q.34,2.35,4.35,2.73a72.53,72.53,0,0,0,9,.18q5-.18,4.8-3.15a3.83,3.83,0,0,0-2-3.06"/><path class="cls-2" d="M60.61,158.87q-3.18,0-5.9-.25c-4-.37-5.1-2.18-5.31-3.63a4.56,4.56,0,0,1,1.08-4.07l-.84-22.84a1,1,0,0,1,.3-.78,1.07,1.07,0,0,1,.77-.33H68.26a1.07,1.07,0,0,1,.79.34,1.09,1.09,0,0,1,.28.81L67.72,151a4.79,4.79,0,0,1,2,3.5,3.45,3.45,0,0,1-.84,2.64c-.93,1-2.57,1.59-5,1.68-1.12,0-2.2.06-3.26.06m-8.79-29.76.81,22.23a1.07,1.07,0,0,1-.41.89c-.41.31-.92.9-.7,2.45.15,1,1.28,1.62,3.38,1.81a70.46,70.46,0,0,0,8.89.18c2.23-.08,3.12-.57,3.48-1a1.25,1.25,0,0,0,.29-1,2.74,2.74,0,0,0-1.5-2.22,1.11,1.11,0,0,1-.52-1l1.58-22.34Z"/><path class="cls-1" d="M72.27,114a60.7,60.7,0,0,0-3.76-11L56.21,91.58H42.08L30.7,103a61.49,61.49,0,0,0-3.76,11q-3.48,15.36,7,21.72l6.91-3.4,4.62,6.88c1.16.13,2.32.21,3.48.25h1.35a31,31,0,0,0,3.49-.25l3.73-7.09,7.8,3.61q10.45-6.36,7-21.72"/><path class="cls-2" d="M48.93,140.49c-1.22,0-2.41-.13-3.59-.25a1.08,1.08,0,0,1-1-1.18,1.06,1.06,0,0,1,1.18-.95c1.13.12,2.28.2,3.41.24h1.31a31.07,31.07,0,0,0,3.35-.24,1.07,1.07,0,1,1,.27,2.13,35.66,35.66,0,0,1-3.6.25H48.93m16.37-3.73a1.07,1.07,0,0,1-.56-2c6.6-4,8.72-10.74,6.49-20.56a59.94,59.94,0,0,0-3.7-10.79,1.07,1.07,0,1,1,2-.86,62.6,62.6,0,0,1,3.83,11.17c2.42,10.69-.09,18.38-7.47,22.87A1,1,0,0,1,65.3,136.76Zm-31.39,0a1,1,0,0,1-.55-.16c-7.38-4.49-9.89-12.18-7.46-22.87a61.72,61.72,0,0,1,3.82-11.17,1.08,1.08,0,0,1,1.42-.55,1.07,1.07,0,0,1,.54,1.41A60.1,60.1,0,0,0,28,114.21c-2.24,9.82-.11,16.55,6.48,20.56a1.07,1.07,0,0,1-.56,2Z"/><path class="cls-3" d="M58.66,116.84a9.38,9.38,0,0,0-.73-3.51,8.49,8.49,0,0,0-2-2.91,8.95,8.95,0,0,0-12.79.06,8.81,8.81,0,0,0-1.92,2.94,9.07,9.07,0,0,0-.71,3.55v.52l4.93,0v-.52a4.18,4.18,0,0,1,1.19-3,4.14,4.14,0,0,1,5.84,0,3.91,3.91,0,0,1,1.26,3v.49h4.89v-.56"/><path class="cls-4" d="M23.21,2.24a8.75,8.75,0,0,0-1.68-.8q-4.73-1.62-7,3.7A17.17,17.17,0,0,0,14,14.56a29.73,29.73,0,0,0,4,9.91,31.81,31.81,0,0,0,17.31-7.31Q30.49,6.8,23.21,2.24"/><path class="cls-2" d="M18,25.54a1.06,1.06,0,0,1-.91-.5,31.14,31.14,0,0,1-4.18-10.25,18.33,18.33,0,0,1,.63-10C15.76-.44,19.3-.45,21.88.45a9.33,9.33,0,0,1,1.88.86c5,3.15,9.24,8.33,12.53,15.4A1.06,1.06,0,0,1,36,18a33.08,33.08,0,0,1-17.88,7.56H18M19.44,2.13c-1.35,0-2.76.74-3.9,3.43A16.27,16.27,0,0,0,15,14.37a28.82,28.82,0,0,0,3.54,9A31.08,31.08,0,0,0,34,16.87C30.94,10.56,27.12,6,22.64,3.14a7.37,7.37,0,0,0-1.44-.67A5.45,5.45,0,0,0,19.44,2.13Z"/><path class="cls-4" d="M84.51,14.65a17.27,17.27,0,0,0-.59-9.45Q81.67-.11,77,1.53a8.22,8.22,0,0,0-1.68.77Q68,6.86,63.16,17.22a31.81,31.81,0,0,0,17.31,7.31,29.84,29.84,0,0,0,4-9.88"/><path class="cls-2" d="M80.47,25.6h-.12A33.08,33.08,0,0,1,62.47,18a1.06,1.06,0,0,1-.28-1.27C65.48,9.7,69.69,4.53,74.7,1.39A9.56,9.56,0,0,1,76.64.51c2.54-.89,6.07-.89,8.27,4.27a18.63,18.63,0,0,1,.65,10.08A31,31,0,0,1,81.38,25.1a1.06,1.06,0,0,1-.91.5m-16-8.67a31.08,31.08,0,0,0,15.43,6.46,28.65,28.65,0,0,0,3.55-9,16.32,16.32,0,0,0-.54-8.87c-1.64-3.85-3.86-3.64-5.61-3a7.29,7.29,0,0,0-1.5.68C71.36,6,67.54,10.62,64.48,16.93Z"/><path class="cls-4" d="M90.32,29.67q-5.8-11.75-18.78-17.28A59.44,59.44,0,0,0,50.07,8.05h-1a59.35,59.35,0,0,0-21.47,4.34q-14.17,6-19.79,19.48A51.32,51.32,0,0,0,4.25,49.52,31.28,31.28,0,0,1,3,57.9Q-3,76.14,9.66,85.71a29.21,29.21,0,0,0,2.78,1.86l.13.09c.82.52,1.66,1,2.5,1.47a61.24,61.24,0,0,0,22.39,7.19l1.69.18a73.72,73.72,0,0,0,10,.74h1a74,74,0,0,0,10-.74l1.68-.18a64.91,64.91,0,0,0,9.91-2,59.39,59.39,0,0,0,12.48-5.17c.9-.49,1.77-1,2.63-1.56a28,28,0,0,0,2.78-1.86q12.66-9.57,6.67-27.81a31.3,31.3,0,0,1-1.25-8.38,49.3,49.3,0,0,0-4.62-19.85"/><path class="cls-2" d="M49.12,98.31A74.2,74.2,0,0,1,39,97.56c-.54,0-1.1-.11-1.65-.18a62.71,62.71,0,0,1-22.8-7.31c-.85-.47-1.71-1-2.54-1.5l-.15-.1A32.15,32.15,0,0,1,9,86.56c-8.8-6.66-11.17-16.41-7-29A30.38,30.38,0,0,0,3.18,49.5a52.73,52.73,0,0,1,3.7-18c3.84-9.18,10.68-15.93,20.35-20A60.64,60.64,0,0,1,49.11,7h1A60.65,60.65,0,0,1,71.93,11.4c8.88,3.79,15.38,9.77,19.35,17.8A50.72,50.72,0,0,1,96,49.48a30.51,30.51,0,0,0,1.2,8.11c4.13,12.56,1.77,22.31-7,29a32.29,32.29,0,0,1-2.89,1.94c-.84.54-1.75,1.08-2.66,1.57a60.81,60.81,0,0,1-12.7,5.26,65.55,65.55,0,0,1-10.07,2l-1.7.19a75,75,0,0,1-10.08.74h-1m0-89.19A58.36,58.36,0,0,0,28,13.39c-9.11,3.88-15.57,10.25-19.18,18.9A50.4,50.4,0,0,0,5.32,49.57,33.1,33.1,0,0,1,4,58.22v0C.14,70,2.2,78.72,10.31,84.85A27.18,27.18,0,0,0,13,86.65l.2.13c.75.48,1.57,1,2.4,1.41a60.38,60.38,0,0,0,22,7.07l1.66.18a72.69,72.69,0,0,0,9.86.73h1a73.36,73.36,0,0,0,9.82-.72l1.71-.19a63.76,63.76,0,0,0,9.73-2A58.87,58.87,0,0,0,83.59,88.2c.87-.48,1.74-1,2.57-1.53a29.66,29.66,0,0,0,2.71-1.81C97,78.72,99.05,70,95.17,58.24a32.59,32.59,0,0,1-1.3-8.69,48.57,48.57,0,0,0-4.51-19.4C85.62,22.59,79.48,17,71.12,13.38A58.37,58.37,0,0,0,50.06,9.12ZM3,57.9H3Z"/><path class="cls-1" d="M85.48,63.29c.21.73.43,1.45.68,2.14a57.77,57.77,0,0,0,8.16,15.48q6.5-8.91,1.87-23a31.3,31.3,0,0,1-1.25-8.38c-.09-1.85-.24-3.65-.46-5.38a50.78,50.78,0,0,0-7.4,8q-3.19,4.2-1.6,11.14"/><path class="cls-1" d="M94.33,81.67a.77.77,0,0,1-.62-.31,58.93,58.93,0,0,1-8.28-15.69c-.24-.69-.47-1.43-.68-2.18-1.12-4.87-.54-8.83,1.72-11.8A52.17,52.17,0,0,1,94,43.57a.76.76,0,0,1,1,1.14,50.76,50.76,0,0,0-7.3,7.89c-2,2.61-2.46,6.14-1.46,10.52.19.68.41,1.38.65,2.05a57.35,57.35,0,0,0,8.06,15.29.75.75,0,0,1-.17,1.06.73.73,0,0,1-.44.15"/><path class="cls-2" d="M94.32,82a1.08,1.08,0,0,1-.63-.21,1.07,1.07,0,0,1-.23-1.49c4.09-5.62,4.66-13,1.71-22a32.59,32.59,0,0,1-1.3-8.69c-.08-1.8-.23-3.58-.45-5.27a1.06,1.06,0,0,1,.92-1.2,1.07,1.07,0,0,1,1.2.92c.23,1.76.38,3.6.47,5.48a30.51,30.51,0,0,0,1.2,8.11c3.18,9.68,2.5,17.75-2,24a1.1,1.1,0,0,1-.87.44"/><path class="cls-1" d="M4.71,44.11c-.23,1.73-.38,3.54-.46,5.41A31.28,31.28,0,0,1,3,57.9q-4.65,14.1,1.9,23a58.56,58.56,0,0,0,8.17-15.51c.24-.69.46-1.41.67-2.14q1.59-6.94-1.59-11.14a52.08,52.08,0,0,0-7.43-8"/><path class="cls-1" d="M4.89,81.7a.82.82,0,0,1-.45-.14.77.77,0,0,1-.17-1.07,57.62,57.62,0,0,0,8.06-15.31q.36-1,.66-2.1c1-4.34.51-7.87-1.46-10.46A51.25,51.25,0,0,0,4.2,44.68a.76.76,0,0,1-.07-1.08.77.77,0,0,1,1.08-.06,52.76,52.76,0,0,1,7.55,8.16c2.24,3,2.82,6.92,1.71,11.76q-.32,1.17-.69,2.22a59.25,59.25,0,0,1-8.27,15.7.75.75,0,0,1-.62.32"/><path class="cls-2" d="M4.89,82A1.07,1.07,0,0,1,4,81.57c-4.55-6.22-5.24-14.3-2-24a30.6,30.6,0,0,0,1.2-8.07c.08-1.92.24-3.77.46-5.53a1.07,1.07,0,0,1,2.13.28c-.22,1.69-.37,3.48-.45,5.32A33.1,33.1,0,0,1,4,58.22c-3,9-2.39,16.45,1.73,22.08a1.07,1.07,0,0,1-.23,1.5,1.06,1.06,0,0,1-.63.21"/><path d="M37,60.47a10.59,10.59,0,0,0,1.14-5.1A10.78,10.78,0,0,0,37,50.23c-.75-1.41-1.67-2.11-2.75-2.11s-2,.7-2.75,2.11a10.55,10.55,0,0,0-1.16,5.14,10.36,10.36,0,0,0,1.16,5.1c.75,1.45,1.67,2.18,2.75,2.18s2-.73,2.75-2.18"/><path class="cls-1" d="M36.24,41.57l.06,0a1.92,1.92,0,0,0,1.59-.43,1.89,1.89,0,0,0,.89-1.37,2.21,2.21,0,0,0-.37-1.65,2,2,0,0,0-1.28-.89l-8.2-1.44a2.11,2.11,0,0,0-1.56.37,2.21,2.21,0,0,0-.89,1.43,2.08,2.08,0,0,0,.34,1.6A2.17,2.17,0,0,0,28,40.1l.15,0,8.11,1.44"/><path class="cls-2" d="M36.65,42.4a2.61,2.61,0,0,1-.48,0L36,42.3l-7.95-1.4a1.3,1.3,0,0,1-.34-.08,2.9,2.9,0,0,1-1.52-1.17,2.8,2.8,0,0,1-.46-2.15,3,3,0,0,1,1.18-1.92A2.91,2.91,0,0,1,29,35.06l8.22,1.44a2.78,2.78,0,0,1,1.79,1.23,2.91,2.91,0,0,1,.48,2.2,2.68,2.68,0,0,1-1.2,1.87,2.74,2.74,0,0,1-1.68.6m-.41-.06Zm0,0Zm-.48-.2Zm.78-1.28a1.18,1.18,0,0,0,.88-.29l.07,0a1.1,1.1,0,0,0,.53-.85,1.46,1.46,0,0,0-.25-1.11A1.24,1.24,0,0,0,37,38L28.8,36.57a1.32,1.32,0,0,0-1,.25,1.37,1.37,0,0,0-.57.93,1.31,1.31,0,0,0,.21,1,1.37,1.37,0,0,0,.75.59h.07l8.07,1.43Zm-8.22-1.44Zm-.19-.05h0Z"/><path d="M61,55.37a10.36,10.36,0,0,0,1.16,5.1c.75,1.45,1.67,2.18,2.75,2.18s2-.73,2.75-2.18a10.36,10.36,0,0,0,1.17-5.1,10.55,10.55,0,0,0-1.17-5.14c-.75-1.41-1.67-2.11-2.75-2.11s-2,.7-2.75,2.11A10.55,10.55,0,0,0,61,55.37"/><path class="cls-1" d="M71.81,36.19a2.11,2.11,0,0,0-1.56-.37l-8.19,1.44a2,2,0,0,0-1.29.89,2.21,2.21,0,0,0-.37,1.65,2.3,2.3,0,0,0,2.48,1.8l.06,0,8.11-1.44.15,0a2.13,2.13,0,0,0,1.16-.88,2.08,2.08,0,0,0,.34-1.6,2.17,2.17,0,0,0-.89-1.43"/><path class="cls-2" d="M62.54,42.4a2.77,2.77,0,0,1-1.69-.6,2.68,2.68,0,0,1-1.2-1.88,2.94,2.94,0,0,1,.48-2.19,2.77,2.77,0,0,1,1.76-1.22l8.23-1.44a2.89,2.89,0,0,1,2.13.49,3,3,0,0,1,1.2,1.94A2.8,2.8,0,0,1,73,39.65a2.86,2.86,0,0,1-1.52,1.17,1.3,1.3,0,0,1-.34.08l-7.95,1.4-.16.05a2.8,2.8,0,0,1-.48,0m.4-.06Zm0,0h0Zm.48-.2h0Zm7.16-5.58-.23,0L62.19,38a1.23,1.23,0,0,0-.78.55,1.45,1.45,0,0,0-.25,1.1,1.09,1.09,0,0,0,.54.86l.07,0a1.14,1.14,0,0,0,.87.29l.2,0,8.07-1.43H71a1.39,1.39,0,0,0,.75-.58,1.35,1.35,0,0,0,.22-1,1.42,1.42,0,0,0-.6-1A1.25,1.25,0,0,0,70.59,36.56Zm.27,2.86Z"/><path d="M49.61,75.28a10.85,10.85,0,0,1-6.34-1.85,6.18,6.18,0,0,1-2.54-3.33.77.77,0,0,1,1.48-.41,4.65,4.65,0,0,0,1.94,2.49,9.31,9.31,0,0,0,5.46,1.57A9.21,9.21,0,0,0,55,72.18a4.7,4.7,0,0,0,2-2.49.75.75,0,0,1,.94-.53.77.77,0,0,1,.53.94,6.13,6.13,0,0,1-2.56,3.33,10.74,10.74,0,0,1-6.31,1.85"/></g></g></svg>