<svg xmlns="http://www.w3.org/2000/svg" viewBox="0 0 80.73 89.47"><defs><style>.cls-1{fill:#fff;}.cls-2{fill:#47d7ac;}.cls-3{fill:#83e8d3;}.cls-4{fill:#fcc5c5;}.cls-5{fill:#f3a5a4;}.cls-6{fill:#927875;}.cls-7{fill:#7c6563;}</style></defs><g id="레이어_2" data-name="레이어 2"><g id="레이어_1-2" data-name="레이어 1"><path class="cls-1" d="M18.89,11.28a7.64,7.64,0,0,0-1.37-.65q-3.84-1.32-5.67,3a14,14,0,0,0-.48,7.67,24.36,24.36,0,0,0,3.29,8.07,26,26,0,0,0,14.09-5.95Q24.82,15,18.89,11.28"/><path class="cls-2" d="M14.66,30.25a.89.89,0,0,1-.74-.41,25.3,25.3,0,0,1-3.4-8.35A14.91,14.91,0,0,1,11,13.34c1.79-4.24,4.68-4.25,6.78-3.52a6.85,6.85,0,0,1,1.52.71c4.1,2.56,7.53,6.77,10.21,12.53a.86.86,0,0,1-.23,1,26.94,26.94,0,0,1-14.55,6.15h-.1m1.16-19.06c-1.1,0-2.25.61-3.17,2.79a13.17,13.17,0,0,0-.42,7.17,23.05,23.05,0,0,0,2.88,7.29,25.17,25.17,0,0,0,12.56-5.25c-2.49-5.14-5.6-8.89-9.24-11.17a5.64,5.64,0,0,0-1.18-.55A4.54,4.54,0,0,0,15.82,11.19Z"/><path class="cls-1" d="M68.78,21.38a14.11,14.11,0,0,0-.47-7.69c-1.23-2.89-3.12-3.88-5.68-3a7.13,7.13,0,0,0-1.37.63Q55.34,15,51.4,23.48a26,26,0,0,0,14.09,5.95,24.13,24.13,0,0,0,3.29-8"/><path class="cls-2" d="M65.49,30.3h-.1a27,27,0,0,1-14.55-6.15.88.88,0,0,1-.23-1c2.69-5.76,6.11-10,10.19-12.52a7.4,7.4,0,0,1,1.57-.72c2.07-.72,4.95-.72,6.74,3.48a15.06,15.06,0,0,1,.52,8.21,25.16,25.16,0,0,1-3.4,8.33.89.89,0,0,1-.74.41m-13-7.06A25.17,25.17,0,0,0,65,28.49a23.46,23.46,0,0,0,2.89-7.28A13.38,13.38,0,0,0,67.49,14c-1.33-3.13-3.15-3-4.57-2.46a5.42,5.42,0,0,0-1.22.55C58.08,14.35,55,18.1,52.48,23.24Z"/><path class="cls-1" d="M40.75,16H40A48.46,48.46,0,0,0,22.5,19.54,29,29,0,0,0,6.42,35.4a41.53,41.53,0,0,0-3,14.36,25.82,25.82,0,0,1-1,6.83Q-2.45,71.43,7.86,79.21a21.35,21.35,0,0,0,2.27,1.52l.12.08c.65.41,1.32.81,2,1.19a50,50,0,0,0,18.22,5.85l1.37.15a61.12,61.12,0,0,0,8.12.6h.77a61,61,0,0,0,8.11-.6l1.37-.15a52.42,52.42,0,0,0,8.07-1.64A48.69,48.69,0,0,0,68.46,82c.73-.39,1.44-.82,2.14-1.27a21.19,21.19,0,0,0,2.26-1.52q10.31-7.78,5.43-22.62a25.42,25.42,0,0,1-1-6.83,40.05,40.05,0,0,0-3.76-16.15A29.09,29.09,0,0,0,58.22,19.54,48.41,48.41,0,0,0,40.75,16"/><path class="cls-2" d="M40,89.47a61.13,61.13,0,0,1-8.24-.61l-1.34-.14a50.94,50.94,0,0,1-18.55-6c-.69-.37-1.36-.77-2-1.18l-.23-.14a26,26,0,0,1-2.29-1.53C.17,74.49-1.76,66.56,1.61,56.32a25.17,25.17,0,0,0,1-6.58,42.34,42.34,0,0,1,3-14.68A29.91,29.91,0,0,1,22.16,18.74,49.48,49.48,0,0,1,40,15.14h.78a49.54,49.54,0,0,1,17.8,3.59A30.12,30.12,0,0,1,74.29,33.22a41.12,41.12,0,0,1,3.85,16.51,24.45,24.45,0,0,0,1,6.6c3.36,10.22,1.44,18.16-5.73,23.58A22.86,22.86,0,0,1,71,81.48c-.69.45-1.43.88-2.17,1.29a49.55,49.55,0,0,1-10.33,4.28,55.38,55.38,0,0,1-8.2,1.67L49,88.87a62.22,62.22,0,0,1-8.21.6H40M10.64,80l.08,0c.63.41,1.29.8,2,1.17A49.27,49.27,0,0,0,30.6,87l1.35.15a62,62,0,0,0,8,.59h.77a61.11,61.11,0,0,0,8-.59l1.4-.15a52.17,52.17,0,0,0,7.92-1.62,47.63,47.63,0,0,0,10-4.13c.71-.39,1.42-.8,2.1-1.24a22.75,22.75,0,0,0,2.2-1.48c6.61-5,8.28-12.08,5.13-21.66a26.53,26.53,0,0,1-1.06-7.07A39.44,39.44,0,0,0,72.73,34,28.42,28.42,0,0,0,57.88,20.34a47.78,47.78,0,0,0-17.14-3.46H40a47.81,47.81,0,0,0-17.16,3.47A28.26,28.26,0,0,0,7.22,35.74,40.72,40.72,0,0,0,4.33,49.8a26.64,26.64,0,0,1-1.06,7v0C.11,66.44,1.79,73.53,8.39,78.52A22.34,22.34,0,0,0,10.57,80Zm.1.09h0ZM2.44,56.59Z"/><path class="cls-3" d="M69.58,61c.16.59.34,1.18.54,1.74a47.28,47.28,0,0,0,6.65,12.6q5.28-7.25,1.52-18.72a25.42,25.42,0,0,1-1-6.83c-.07-1.51-.19-3-.37-4.38a41.5,41.5,0,0,0-6,6.53Q68.28,55.32,69.58,61"/><path class="cls-3" d="M76.77,75.93a.61.61,0,0,1-.5-.26,47.91,47.91,0,0,1-6.74-12.76c-.2-.57-.38-1.17-.55-1.78-.91-4-.44-7.19,1.39-9.6a42.58,42.58,0,0,1,6.11-6.61.62.62,0,1,1,.83.93,41.62,41.62,0,0,0-5.94,6.42c-1.6,2.12-2,5-1.19,8.56.16.55.34,1.12.53,1.67a46.78,46.78,0,0,0,6.56,12.44.61.61,0,0,1-.13.87.63.63,0,0,1-.37.12"/><path class="cls-2" d="M76.77,76.18a.88.88,0,0,1-.7-1.39c3.32-4.56,3.79-10.6,1.39-17.93a26.53,26.53,0,0,1-1.06-7.07c-.07-1.47-.19-2.92-.37-4.29a.87.87,0,1,1,1.73-.23c.18,1.43.31,2.93.38,4.46a24.45,24.45,0,0,0,1,6.6c2.58,7.88,2,14.44-1.64,19.49a.9.9,0,0,1-.71.36"/><path class="cls-3" d="M3.83,45.36c-.18,1.41-.31,2.88-.37,4.4a25.82,25.82,0,0,1-1,6.83Q-1.35,68.07,4,75.33a47.54,47.54,0,0,0,6.65-12.62c.2-.56.38-1.15.54-1.74.87-3.77.43-6.79-1.29-9.06a42.18,42.18,0,0,0-6.05-6.55"/><path class="cls-3" d="M4,76a.57.57,0,0,1-.37-.12A.61.61,0,0,1,3.48,75,47.19,47.19,0,0,0,10,62.51c.19-.56.37-1.13.53-1.71.81-3.53.41-6.41-1.19-8.52a41.45,41.45,0,0,0-6-6.46.62.62,0,0,1,0-.88.63.63,0,0,1,.87,0,43,43,0,0,1,6.14,6.65c1.83,2.4,2.3,5.63,1.4,9.57-.18.63-.36,1.23-.57,1.81A48.14,48.14,0,0,1,4.48,75.7.63.63,0,0,1,4,76"/><path class="cls-2" d="M4,76.2a.86.86,0,0,1-.7-.35C-.43,70.78-1,64.21,1.61,56.31a25,25,0,0,0,1-6.57c.06-1.56.19-3.07.38-4.49a.87.87,0,1,1,1.72.22c-.17,1.38-.3,2.84-.36,4.33a26.64,26.64,0,0,1-1.06,7c-2.42,7.35-1.95,13.39,1.41,18A.86.86,0,0,1,4.49,76,.8.8,0,0,1,4,76.2"/><path class="cls-4" d="M36.94,72.32l.67.2a10.68,10.68,0,0,0,5.93,0l.52-.17a4.89,4.89,0,0,0,3.43-5.93,2.13,2.13,0,0,0-2.61-2.19,37.36,37.36,0,0,1-4.38.2,37.36,37.36,0,0,1-4.38-.2,2.14,2.14,0,0,0-2.62,2.19c-.46,2.93.68,4.9,3.44,5.93"/><path class="cls-5" d="M40.42,73.54a10.25,10.25,0,0,1-3-.43l-.67-.2a5.52,5.52,0,0,1-3.87-6.59,2.74,2.74,0,0,1,3.28-2.74,36.64,36.64,0,0,0,4.32.2,36.51,36.51,0,0,0,4.33-.2,2.75,2.75,0,0,1,3.3,2.76,5.51,5.51,0,0,1-3.84,6.56l-.06,0a3,3,0,0,0-.45.15l-.07,0a12.75,12.75,0,0,1-3.28.45m-4.69-8.73c-1,0-1.51.49-1.61,1.63v0c-.42,2.65.54,4.31,3,5.25l.62.18a10.19,10.19,0,0,0,5.56,0c.17-.06.34-.12.53-.17,2.47-.94,3.43-2.6,3-5.24-.11-1.3-.67-1.77-2-1.67a38.3,38.3,0,0,1-4.44.2,38.8,38.8,0,0,1-4.44-.2ZM33.5,66.39h0Z"/><path class="cls-3" d="M31.8,41.85a2,2,0,0,0,.17-.66,1.88,1.88,0,0,0-.39-1.31,2.23,2.23,0,0,0-1.07-.76,14.58,14.58,0,0,0-6.74-.68,3.07,3.07,0,0,0-1.32.6,1.8,1.8,0,0,0-.59,1.23,1.7,1.7,0,0,0,.05.6c.2.86.9,1.27,2.1,1.21a3.44,3.44,0,0,0,.43,0,11.66,11.66,0,0,1,4.78.48c1.24.34,2.1.12,2.58-.67"/><path class="cls-2" d="M30.24,43.31a4.65,4.65,0,0,1-1.19-.18,11.29,11.29,0,0,0-4.55-.46l-.46,0c-2,.08-2.59-1-2.74-1.7a2.22,2.22,0,0,1-.07-.79A2.44,2.44,0,0,1,22,38.6a3.63,3.63,0,0,1,1.64-.76,15.33,15.33,0,0,1,7.05.71,2.67,2.67,0,0,1,1.35,1,2.51,2.51,0,0,1,.53,1.74,2.49,2.49,0,0,1-.24.89,2.32,2.32,0,0,1-2.11,1.17m-4.53-1.94a11.89,11.89,0,0,1,3.7.57c1.38.38,1.72-.19,1.85-.4a1.12,1.12,0,0,0,.09-.39h0a1.33,1.33,0,0,0-.28-.89,1.47,1.47,0,0,0-.75-.53,14.13,14.13,0,0,0-6.47-.66,2.38,2.38,0,0,0-1,.46,1.25,1.25,0,0,0-.37.8,1,1,0,0,0,0,.39c.06.26.19.81,1.47.75l.37,0A12.65,12.65,0,0,1,25.71,41.37Z"/><path class="cls-3" d="M49.2,41.85a1.79,1.79,0,0,1-.17-.66,1.88,1.88,0,0,1,.39-1.31,2.19,2.19,0,0,1,1.07-.76,14.58,14.58,0,0,1,6.74-.68,3.07,3.07,0,0,1,1.32.6,1.84,1.84,0,0,1,.59,1.23,1.7,1.7,0,0,1,0,.6c-.2.86-.9,1.27-2.1,1.21a3.28,3.28,0,0,1-.43,0,11.66,11.66,0,0,0-4.78.48c-1.24.34-2.1.12-2.58-.67"/><path class="cls-2" d="M50.73,43.31a2.16,2.16,0,0,1-2.34-2.06,2.5,2.5,0,0,1,.51-1.72,2.83,2.83,0,0,1,1.38-1,15.17,15.17,0,0,1,7-.7,3.43,3.43,0,0,1,1.63.73,2.43,2.43,0,0,1,.82,1.66,2.25,2.25,0,0,1-.07.82c-.15.64-.71,1.75-2.73,1.67l-.49,0a10.87,10.87,0,0,0-4.5.45,4.45,4.45,0,0,1-1.22.18M55.25,39a14,14,0,0,0-4.58.77,1.51,1.51,0,0,0-.77.55,1.23,1.23,0,0,0-.27.88,1.08,1.08,0,0,0,.11.42c.11.18.45.75,1.85.36a12.4,12.4,0,0,1,5-.5,3.37,3.37,0,0,0,.4,0c1.28.07,1.41-.49,1.46-.73a1.18,1.18,0,0,0,0-.42,1.19,1.19,0,0,0-.4-.82,2.17,2.17,0,0,0-1-.43A14.21,14.21,0,0,0,55.25,39Z"/><path d="M31.84,55.85a1.2,1.2,0,0,1-.8-.29,4.48,4.48,0,0,0-2.63-1H28a4.87,4.87,0,0,0-3,.93,1.25,1.25,0,0,1-1.48-2A7.4,7.4,0,0,1,28,52h.58a7,7,0,0,1,4.08,1.61,1.25,1.25,0,0,1-.8,2.2"/><path d="M31.84,54.51a1.25,1.25,0,0,1-.8-.29,4.49,4.49,0,0,0-2.63-1H28a4.93,4.93,0,0,0-3,.93,1.24,1.24,0,1,1-1.48-2A7.42,7.42,0,0,1,28,50.69h.58a7,7,0,0,1,4.08,1.61,1.25,1.25,0,0,1,.15,1.75,1.23,1.23,0,0,1-.95.45"/><path class="cls-1" d="M27.06,52.45c.2-.15.27-.3.22-.47s-.17-.26-.42-.32a1.57,1.57,0,0,0-.82.07,1.43,1.43,0,0,0-.73.35c-.18.17-.25.32-.22.47a.5.5,0,0,0,.42.33,1.77,1.77,0,0,0,.85,0,1.38,1.38,0,0,0,.7-.4"/><path d="M56.78,55.85a1.22,1.22,0,0,1-.8-.29,4.48,4.48,0,0,0-2.63-1h-.43a4.89,4.89,0,0,0-3,.93,1.25,1.25,0,1,1-1.47-2A7.37,7.37,0,0,1,52.92,52h.58a7,7,0,0,1,4.08,1.61,1.24,1.24,0,0,1,.15,1.76,1.22,1.22,0,0,1-.95.44"/><path d="M56.78,54.51a1.27,1.27,0,0,1-.8-.29,4.49,4.49,0,0,0-2.63-1h-.43a5,5,0,0,0-3,.93,1.24,1.24,0,1,1-1.47-2,7.37,7.37,0,0,1,4.49-1.41h.58a7,7,0,0,1,4.08,1.61,1.23,1.23,0,0,1,.15,1.75,1.2,1.2,0,0,1-.95.45"/><path class="cls-1" d="M52,52.45c.2-.15.27-.3.22-.47s-.17-.26-.42-.32a1.58,1.58,0,0,0-.82.07,1.35,1.35,0,0,0-.72.35c-.18.17-.26.32-.23.47a.51.51,0,0,0,.43.33,1.73,1.73,0,0,0,.84,0,1.38,1.38,0,0,0,.7-.4"/><path class="cls-6" d="M31.41,2.46q-6.24,2.77-7.19,7.87l-2,10.28,13.39-5.35H45l13.39,5.35-2-10.28q-.95-5.1-7.19-7.87a20,20,0,0,0-1.94-.72,28.2,28.2,0,0,0-13.9,0,20,20,0,0,0-1.94.72"/><path class="cls-7" d="M22.18,21.48a.84.84,0,0,1-.56-.2.86.86,0,0,1-.3-.84l2-10.28c.68-3.67,3.28-6.54,7.7-8.49a18.74,18.74,0,0,1,2-.76A28.93,28.93,0,0,1,47.46.9a18.46,18.46,0,0,1,2.08.77c4.43,2,7,4.82,7.7,8.5l2,10.27a.87.87,0,0,1-1.18,1L44.86,16.13H35.74L22.5,21.42a.87.87,0,0,1-.32.06M40.3,1.74a27.83,27.83,0,0,0-6.73.85c-.57.18-1.2.41-1.81.67-3.92,1.74-6.1,4.1-6.68,7.23l-1.74,8.72,11.91-4.76a.87.87,0,0,1,.32-.06H45a.87.87,0,0,1,.32.06l11.91,4.76L55.53,10.5C55,7.36,52.76,5,48.83,3.26A16.35,16.35,0,0,0,47,2.58,27.68,27.68,0,0,0,40.3,1.74Z"/><path class="cls-6" d="M58.27,22.8q2.29-1.71-2.39-5.27a23.22,23.22,0,0,0-12-4.81c-1.18-.11-2.36-.17-3.54-.17s-2.36.06-3.53.17a23.21,23.21,0,0,0-12.05,4.81Q20,21.08,22.33,22.8q2.73,1.88,5.6-.89a14.27,14.27,0,0,1,9.73-4.58,21.19,21.19,0,0,1,2.64-.1,21.19,21.19,0,0,1,2.64.1,14.27,14.27,0,0,1,9.73,4.58q2.86,2.76,5.6.89"/><path class="cls-7" d="M24.55,24.43a4.75,4.75,0,0,1-2.71-.91l0,0a2.49,2.49,0,0,1-1.1-2c0-1.36,1.11-2.83,3.49-4.65a24.25,24.25,0,0,1,12.52-5,37.75,37.75,0,0,1,7.21,0,24.26,24.26,0,0,1,12.48,5c2.39,1.83,3.5,3.3,3.5,4.66a2.49,2.49,0,0,1-1.1,2c-1.55,1.06-3.94,1.72-6.73-1a13.55,13.55,0,0,0-9.19-4.33,20.07,20.07,0,0,0-2.56-.1,21.94,21.94,0,0,0-2.58.09,13.54,13.54,0,0,0-9.18,4.32,5.8,5.8,0,0,1-4,1.92m16.2-8.08c.75,0,1.51,0,2.27.11a15.23,15.23,0,0,1,10.29,4.85c2.08,2,3.55,1.4,4.47.77a.75.75,0,0,0,.38-.6c0-.34-.27-1.34-2.8-3.26a22.45,22.45,0,0,0-11.58-4.63,34.89,34.89,0,0,0-6.93,0,22.44,22.44,0,0,0-11.62,4.64c-2.52,1.91-2.79,2.91-2.78,3.25,0,.15,0,.35.38.62.93.62,2.4,1.2,4.49-.82A15.2,15.2,0,0,1,37.6,16.46a22.34,22.34,0,0,1,2.72-.1Z"/><path class="cls-1" d="M39.28,9a1.47,1.47,0,0,1,1.07-.45,1.51,1.51,0,0,1,1.07.43A1.48,1.48,0,0,1,41.87,10v.18h1.79V10a3.31,3.31,0,0,0-3.33-3.34,3.05,3.05,0,0,0-2.32,1,3.06,3.06,0,0,0-.72,1.07A3.41,3.41,0,0,0,37,10.06v.17h1.79V10A1.47,1.47,0,0,1,39.28,9"/></g></g></svg>