<svg xmlns="http://www.w3.org/2000/svg" viewBox="0 0 132.27 194.71"><defs><style>.cls-1{fill:#83e8d3;}.cls-2{fill:#3fd8b1;}.cls-3{fill:#47d7ac;}.cls-4{fill:#1cb594;}.cls-5{fill:#fff;}.cls-6{fill:#333;}</style></defs><g id="레이어_2" data-name="레이어 2"><g id="레이어_1-2" data-name="레이어 1"><path class="cls-1" d="M13.45,98.82q4.36,4.68,1.19,12.49l-7.33,2.45a36.79,36.79,0,0,0-2.17-12.07q-1-3.31,2.26-4.47a5.37,5.37,0,0,1,6,1.6"/><path class="cls-2" d="M6.35,115l-.07-1.42A35.53,35.53,0,0,0,4.19,101.9C3.29,99,4.33,97,7.09,96a6.49,6.49,0,0,1,7.18,1.86v0c3.22,3.44,3.69,8,1.41,13.64l-.19.46Zm3-17.3a4.59,4.59,0,0,0-1.58.3c-1.66.58-2.12,1.49-1.6,3.13a35.71,35.71,0,0,1,2.15,10.93l5.52-1.84c1.76-4.6,1.37-8.17-1.16-10.89A4.65,4.65,0,0,0,9.39,97.73Z"/><path class="cls-1" d="M66.41,159l1.09,26.68A4.72,4.72,0,0,0,65,189.46c-.18,2.42,1.79,3.71,5.88,3.86a90,90,0,0,0,10.83-.19q5.43-.49,4.2-7.61l1-26.49Z"/><path class="cls-3" d="M88.23,159.08l-.12,3.27-.06,1.52,0,.31h0L88,165.93v0l-.16,4.3,0,.59,0,.6h0l-.52,14c.52,3,.17,5.26-1,6.82a5.82,5.82,0,0,1-4.36,2.16c-2.12.18-4.42.27-6.87.27-1.34,0-2.71,0-4.12-.08-3-.11-5-.78-6.12-2.06a3.91,3.91,0,0,1-.81-1.39,4.31,4.31,0,0,1-.21-1.82,5.87,5.87,0,0,1,.78-2.51A6.06,6.06,0,0,1,66.17,185l-.36-8.76,0-1-.13-3.11,0-.72,0-.2v-.4l0-.59,0-.71-.26-6.41,0-.4-.05-1.28v0l-.1-2.37a1.3,1.3,0,0,1,.09-.52v0a1.33,1.33,0,0,1,1.16-.83A1.31,1.31,0,0,1,67.72,159V159l.17,4.22.3,7v.5s0,0,0,0a.17.17,0,0,1,0,.07v0h0v.19l0,.35.14,3.76.05,1,.38,9.4a1.28,1.28,0,0,1-.63,1.17,3.43,3.43,0,0,0-1.84,2.75,1.51,1.51,0,0,0,.37,1.23c.42.48,1.53,1.09,4.25,1.19a87.47,87.47,0,0,0,10.67-.18,3.33,3.33,0,0,0,2.51-1.14c.73-.95.91-2.59.53-4.87a1.27,1.27,0,0,1,0-.34l.49-13.14v0l0-.83,0-1.19.12-3.27,0-.85h0l0-.93v0l.05-1.4.18-4.76V159a1.31,1.31,0,0,1,2.62.1Z"/><path class="cls-1" d="M64.57,159,63,163.1l-2.45,6.31-.51,1.28-.5,1.3-1.33,3.43-3.91,10.1q1.23,7.13-4.2,7.61a88,88,0,0,1-10.83.19c-4.1-.16-6.06-1.44-5.88-3.87a4.72,4.72,0,0,1,2.47-3.74l1.62-5.26v0l3.42-11.12,1.42-4.62.43-1.41.16-.47v0l.09-.3.19-.62.87-2.83Z"/><path class="cls-3" d="M45.92,161.36l-8.74,24.31a1.27,1.27,0,0,1-.64,1.17,3.44,3.44,0,0,0-1.83,2.75,1.55,1.55,0,0,0,.36,1.23c.43.48,1.54,1.09,4.27,1.19A87.55,87.55,0,0,0,50,191.83a3.36,3.36,0,0,0,2.5-1.14c.74-1,.92-2.62.51-4.94l0-.27,4-10.29,1.5-3.83.62-1.62.12-.31,2.48-6.38,1.55-4v0a1.31,1.31,0,0,1,2.23-.89,1.19,1.19,0,0,1,.3.46h0a1,1,0,0,1,.09.51l-.08,2.38v0l-.54,1.27-.17.4-2.68,6.31-.54,1.29-.55,1.29-1.55,3.64-4.14,9.74c.09.49.14,1,.18,1.42a8.66,8.66,0,0,1-.57,4.33,4.83,4.83,0,0,1-.65,1.1,5.85,5.85,0,0,1-4.36,2.16c-2.12.18-4.42.27-6.87.27-1.34,0-2.71,0-4.12-.08-3-.11-5-.78-6.13-2.06a4.15,4.15,0,0,1-1-3.21A5.84,5.84,0,0,1,34.54,185l1.21-1.53,7.64-22.32Z"/><path class="cls-1" d="M66.79,112.27v-8.14H54.35a187.37,187.37,0,0,0-11.62,22.11,75.47,75.47,0,0,0-4.61,13.45q-4.26,18.81,8.55,26.61l8.47-4.16,4.46,8.54,5.47.19H66.9a39.15,39.15,0,0,0,4.09-.3l4.57-8.69,9.55,4.42c.55-.33,1.07-.68,1.58-1.05q11-8,7-25.56a74.68,74.68,0,0,0-4.61-13.45L74,112.27Z"/><path class="cls-1" d="M113.48,146.48Q110,141.09,106,135.91A183.94,183.94,0,0,0,83.58,112l-8.32,4.35q6,11.2,10.72,19.56,7.69,13.77,11.76,19.78a25.73,25.73,0,0,0,5.06,5.78,10.87,10.87,0,0,0,5.69,2.54,7.49,7.49,0,0,0,4.73-1.16q7.56-5.35.26-16.37Z"/><path class="cls-2" d="M68.21,170.89v0h0a1.65,1.65,0,0,1,0,.21,1.18,1.18,0,0,1-.12.33,1.33,1.33,0,0,1-1.12.72H64.82l-1.32,0-1.31,0-.87,0L59.55,172a1.28,1.28,0,0,1-1-.52.41.41,0,0,1-.06-.11,1.14,1.14,0,0,1-.18-.46,1.06,1.06,0,0,1,0-.25.87.87,0,0,1,.07-.37,1.38,1.38,0,0,1,.64-.76.92.92,0,0,1,.23-.09,1.1,1.1,0,0,1,.41-.06l.92,0,1.72.06h.13l1.18.05,1.33,0h2a1.29,1.29,0,0,1,1.14.71,1.06,1.06,0,0,1,.13.5s0,0,0,0A.17.17,0,0,1,68.21,170.89Z"/><path class="cls-4" d="M68.59,143.22a11.74,11.74,0,0,0-.9-4.31,10,10,0,0,0-2.4-3.56,11,11,0,0,0-15.66.07,10.62,10.62,0,0,0-2.36,3.6,11,11,0,0,0-.86,4.35V144l6,0v-.64a5.13,5.13,0,0,1,1.46-3.64,5.08,5.08,0,0,1,7.16,0,4.8,4.8,0,0,1,1.53,3.63v.6h6v-.67Z"/><path class="cls-1" d="M40.84,117.22a35.79,35.79,0,0,1-17.2,8.51,14.43,14.43,0,0,0,3.4-5.88,14.68,14.68,0,0,0,.43-7.4,11.4,11.4,0,0,0-.32-1.28,7.62,7.62,0,0,0-.33-.91c-.21-.5-.43-1-.66-1.42a11.08,11.08,0,0,0-7-5.72,12.5,12.5,0,0,0-1.52-.32,10.27,10.27,0,0,0-3.41.12,12.06,12.06,0,0,0-4,1.61,12.67,12.67,0,0,0-2.66,2.06,21.23,21.23,0,0,0-6.2,14.15,25.62,25.62,0,0,0,1.47,9.86q2.46,6.65,7,9.64a17,17,0,0,0,6,2.35,33.71,33.71,0,0,0,20.91-2.93c1-.46,2.05-1,3.08-1.56.5-1.9,1.12-3.88,1.88-5.93.64-1.76,1.36-3.56,2.18-5.41q1.38-3.18,3-6.54l.1-1.7-3.87-.81Z"/><path class="cls-2" d="M114.58,145.76c-2.34-3.59-4.9-7.18-7.6-10.65A185.13,185.13,0,0,0,84.46,111a1.31,1.31,0,1,0-1.76,2,183.23,183.23,0,0,1,22.21,23.73c2.66,3.42,5.17,6.95,7.48,10.49,6.55,9.89,1.75,13.39.1,14.56a6.21,6.21,0,0,1-3.89,1,9.6,9.6,0,0,1-5-2.26A24.14,24.14,0,0,1,98.83,155c-2.67-4-6.61-10.59-11.71-19.69a1.31,1.31,0,0,0-2.29,1.28c3.46,6.17,6.38,11.21,8.76,15.07a.84.84,0,0,0-.08.3c-.63,10.17-11.34,14.42-11.45,14.46a1,1,0,0,0,.36,1.94.92.92,0,0,0,.36-.07c.46-.18,10.53-4.16,12.44-14,.51.79,1,1.52,1.42,2.17A27.05,27.05,0,0,0,102,162.5a12.15,12.15,0,0,0,6.39,2.82c.27,0,.53,0,.8,0A8.9,8.9,0,0,0,113.9,164l.07-.05C117.9,161.14,121.19,155.73,114.58,145.76Z"/><path class="cls-5" d="M111.61,17.87A21.14,21.14,0,0,0,110.9,6.3q-2.78-6.52-8.54-4.5a9.49,9.49,0,0,0-2.06.94q-7.18,4.49-12.44,13.6l-.49.9-.08.15c-.13.25-.27.49-.41.75s-.3.59-.45.9c-.33.64-.66,1.31-1,2,.6.51,1.21,1,1.83,1.46.45.34.9.66,1.35,1l.6.37.15.12a38.53,38.53,0,0,0,12.44,5.2l.15,0,.3.08c1.43.3,2.89.53,4.39.71.59-.95,1.12-1.9,1.61-2.85l.3-.6a34.14,34.14,0,0,0,3-8.66Z"/><path class="cls-5" d="M55.37,14A21.28,21.28,0,0,0,49.8,3.83Q44.51-.89,40.15,3.4a9.62,9.62,0,0,0-1.46,1.73q-4.61,7.13-5.43,17.58l-.09,1v.17c0,.28,0,.56,0,.84s0,.68-.06,1c0,.72,0,1.46,0,2.21.75.2,1.52.38,2.28.54l1.64.31c.23,0,.47.06.72.11h.16a39.33,39.33,0,0,0,13.48-.59l.15,0,.3-.06c1.42-.33,2.84-.74,4.27-1.22.14-1.11.23-2.21.28-3.28a.74.74,0,0,1,0-.33c0-.12,0-.23,0-.34a34,34,0,0,0-1-9.11Z"/><path class="cls-3" d="M108.3,28.44a1.31,1.31,0,0,1-1.18-1.89l.3-.6a33.36,33.36,0,0,0,2.91-8.33,20.09,20.09,0,0,0-.66-10.88c-2-4.71-4.73-4.46-6.88-3.7a8.61,8.61,0,0,0-1.83.83C96.41,6.72,92.38,11.14,89,17l-.47.85-.09.16-.38.73a1.31,1.31,0,0,1-2.34-1.18c.13-.27.27-.53.42-.79l0-.08,0-.08c.17-.31.35-.61.52-.91,3.59-6.24,7.91-11,12.86-14.07A11.51,11.51,0,0,1,102,.55c3.12-1.1,7.45-1.09,10.14,5.23a22.67,22.67,0,0,1,.79,12.35,36.31,36.31,0,0,1-3.13,9l-.3.59a1.3,1.3,0,0,1-1.17.73Z"/><path class="cls-3" d="M33.18,26.08h0a1.31,1.31,0,0,1-1.28-1.34l0-1v-.09l.1-1c.57-7.15,2.46-13.27,5.63-18.18a11.17,11.17,0,0,1,1.68-2c2.36-2.31,6.28-4.15,11.4.42a22.64,22.64,0,0,1,6,10.84,35.28,35.28,0,0,1,1,9.45v.5a1.31,1.31,0,0,1-2.59.39,2.11,2.11,0,0,1,0-.71v-.24a33,33,0,0,0-.93-8.76,20.09,20.09,0,0,0-5.23-9.56c-3.82-3.41-6.18-2-7.8-.42A8.39,8.39,0,0,0,39.8,5.88c-2.91,4.52-4.66,10.23-5.2,17L34.51,24l0,.84a1.32,1.32,0,0,1-1.31,1.28Z"/><path class="cls-5" d="M120,34.25c-.38-.5-.76-1-1.16-1.46A55.91,55.91,0,0,0,87.52,13.3a99.71,99.71,0,0,0-12.89-1.91q-1.53-.15-3-.18c-2.25-.08-4.47-.05-6.67.07a.83.83,0,0,0-.37.08,1,1,0,0,0-.42,0,2.22,2.22,0,0,1-.37,0,73.54,73.54,0,0,0-25.89,7.12Q20.26,27.36,14.64,45a3.35,3.35,0,0,0-.19.56c-.35,1.08-.66,2.2-.94,3.38,0,.2-.08.4-.11.6l0,.15a65.74,65.74,0,0,0-1.5,15.06,37.22,37.22,0,0,1-1,10.12A40.45,40.45,0,0,0,9.24,88a26,26,0,0,0,.3,2.84,1.79,1.79,0,0,0,.08.49,9.13,9.13,0,0,0,.45,2.1,23.25,23.25,0,0,0,1.91,5q.48.86,1,1.68a.8.8,0,0,0,.22.34,25.19,25.19,0,0,0,7.46,7.23,35.73,35.73,0,0,0,3.45,2.06c1,.58,2.14,1.14,3.29,1.69a75.25,75.25,0,0,0,27.69,6.86l2,.15a100.08,100.08,0,0,0,12.25.15c.38,0,.76-.09,1.16-.12,1.8-.12,3.61-.28,5.44-.48,2.57-.33,5-.7,7.42-1.13.3-.07.61-.14.93-.19a77.81,77.81,0,0,0,14.24-4.27l.26-.11a60.56,60.56,0,0,0,10.31-5.62c.52-.38,1-.76,1.57-1.16A50,50,0,0,0,122.41,93a55.58,55.58,0,0,0,6-12.55A52.77,52.77,0,0,0,131,64.94a46.92,46.92,0,0,0-2.47-14.76A53.42,53.42,0,0,0,124.35,41c-.4-.69-.81-1.38-1.23-2.06s-.67-1.11-1-1.65l-.83-1.13a6.67,6.67,0,0,0-.67-1,6.24,6.24,0,0,1-.64-.9Z"/><path class="cls-1" d="M129,51.86c-.16-.56-.33-1.12-.52-1.68-.37-1.1-.8-2.18-1.25-3.26a.94.94,0,0,0-.66-1.75,60,60,0,0,0-23.28,14.77c-3.24,3.39-5.08,6.31-5.62,8.94a21.16,21.16,0,0,0,.38,8.86c.25.92.53,1.82.83,2.68A72.07,72.07,0,0,0,109,99.61a53.29,53.29,0,0,0,3.61,4.36.95.95,0,0,0,1.32.08,1,1,0,0,0,.08-1.33l0,0a49.71,49.71,0,0,0,8.41-9.7,55.58,55.58,0,0,0,6-12.55A52.77,52.77,0,0,0,131,64.94,46.15,46.15,0,0,0,129,51.86Z"/><path class="cls-6" d="M38.51,74a13.11,13.11,0,0,0,1.38-6.25,13.38,13.38,0,0,0-1.38-6.3c-.93-1.72-2-2.58-3.37-2.58s-2.45.86-3.38,2.58a13,13,0,0,0-1.42,6.3A12.77,12.77,0,0,0,31.76,74c.93,1.78,2.05,2.67,3.38,2.67s2.44-.89,3.37-2.67Z"/><path class="cls-1" d="M37.35,50.83l.07.05A2.78,2.78,0,0,0,40.66,49a2.73,2.73,0,0,0-.23-2.06A2.46,2.46,0,0,0,39,45.69l-9.8-2.79a2.59,2.59,0,0,0-2,.25A2.7,2.7,0,0,0,26,44.79a2.57,2.57,0,0,0,.2,2A2.69,2.69,0,0,0,27.47,48l.18,0,9.7,2.78Z"/><path class="cls-3" d="M38.09,51.94a3.18,3.18,0,0,1-.91-.13L37,51.73,27.48,49a1.16,1.16,0,0,1-.41-.13,3.62,3.62,0,0,1-1.71-1.62,3.46,3.46,0,0,1-.28-2.68,3.59,3.59,0,0,1,1.68-2.19A3.55,3.55,0,0,1,29.42,42l9.83,2.8a3.41,3.41,0,0,1,2,1.72,3.64,3.64,0,0,1,.31,2.75,3.31,3.31,0,0,1-1.7,2.12,3.42,3.42,0,0,1-1.8.53Zm-.82-.14Zm-.56-.3ZM37.83,50a1.42,1.42,0,0,0,1.1-.24l.09,0a1.41,1.41,0,0,0,.76-1,1.78,1.78,0,0,0-.16-1.38,1.53,1.53,0,0,0-.92-.79l-9.77-2.78a1.69,1.69,0,0,0-1.24.17,1.79,1.79,0,0,0-.81,1.07A1.61,1.61,0,0,0,27,46.35a1.75,1.75,0,0,0,.84.82h0l.07,0L37.59,50ZM28,47.24Z"/><path class="cls-1" d="M79.65,44.29a2.58,2.58,0,0,0-1.91-.45l-10,1.76a2.48,2.48,0,0,0-1.58,1.09,2.76,2.76,0,0,0-.45,2,2.81,2.81,0,0,0,3,2.22l.07,0,9.93-1.76.19,0A2.67,2.67,0,0,0,80.33,48a2.54,2.54,0,0,0,.41-2,2.74,2.74,0,0,0-1.09-1.76Z"/><path class="cls-3" d="M68.28,51.9a3.37,3.37,0,0,1-2.06-.73,3.28,3.28,0,0,1-1.47-2.3,3.6,3.6,0,0,1,.59-2.69,3.33,3.33,0,0,1,2.15-1.49l10.09-1.77a3.57,3.57,0,0,1,2.61.6,3.68,3.68,0,0,1,1.47,2.37,3.42,3.42,0,0,1-.57,2.65A3.58,3.58,0,0,1,79.23,50a1.43,1.43,0,0,1-.42.09l-9.73,1.73-.21.06a3.81,3.81,0,0,1-.59,0Zm.51-.08h0Zm0,0Zm.58-.23Zm8.79-6.84-.29,0-10,1.76a1.49,1.49,0,0,0-1,.67,1.74,1.74,0,0,0-.31,1.35,1.42,1.42,0,0,0,.66,1.06l.08.06a1.44,1.44,0,0,0,1.07.35l.25-.06,9.89-1.76h.08a1.64,1.64,0,0,0,.92-.72,1.58,1.58,0,0,0,.27-1.26A1.8,1.8,0,0,0,79.09,45,1.63,1.63,0,0,0,78.16,44.75Zm.32,3.5Z"/><path class="cls-1" d="M12.31,55.91a74.28,74.28,0,0,0-.45,8.84,36.56,36.56,0,0,1-1,10.12,51,51,0,0,0-1.16,5.25q3.48-4.43,5.7-7.54a8.09,8.09,0,0,0,1.08-7.72,62.68,62.68,0,0,0-4.2-9Z"/><path class="cls-1" d="M9.73,81.05a.91.91,0,0,1-.58-.2A.93.93,0,0,1,9,79.54c2.3-2.93,4.21-5.44,5.67-7.48a7.21,7.21,0,0,0,1-6.88,64.81,64.81,0,0,0-4.15-8.83,1,1,0,0,1,.38-1.27.94.94,0,0,1,1.27.39,63.51,63.51,0,0,1,4.28,9.12,9.09,9.09,0,0,1-1.23,8.56c-1.48,2.06-3.41,4.6-5.72,7.54a.93.93,0,0,1-.74.36Z"/><path class="cls-3" d="M132.14,61.82c0-.12,0-.24,0-.36,0-.4-.07-.8-.12-1.19,0-.22,0-.44-.07-.66s-.08-.67-.12-1-.09-.6-.14-.9-.08-.53-.13-.79c-.07-.41-.15-.81-.23-1.21,0-.16-.06-.33-.1-.49-.26-1.26-.57-2.51-.94-3.74-.17-.58-.36-1.15-.55-1.72-.25-.75-.53-1.5-.82-2.25-.12-.32-.26-.64-.4-1s-.26-.67-.41-1l-.27-.65,0,0c-.69-1.53-1.45-3-2.3-4.55-.4-.7-.81-1.4-1.24-2.1s-.68-1.11-1-1.66l0-.08-.78-1.06a7.06,7.06,0,0,0-.76-1.09,4.83,4.83,0,0,1-.51-.72l-.09-.13c-.39-.52-.8-1-1.2-1.52A57.46,57.46,0,0,0,87.81,12a100.73,100.73,0,0,0-13-1.93c-1.05-.1-2.08-.16-3.09-.19-2.26-.08-4.55-.06-6.71.08a2.12,2.12,0,0,0-.5,0,3.12,3.12,0,0,0-.54,0l-.22,0a75.41,75.41,0,0,0-26.38,7.25c-12,6-20.06,15.19-23.91,27.26a4.13,4.13,0,0,0-.22.65c-.36,1.09-.67,2.24-.94,3.41-.05.2-.09.4-.13.6l-.06.26c-.43,1.95-.75,4-1,6.08,0,.06,0,.1-.05.16,0,.34-.07.69-.1,1l0,.15c-.12,1.22-.2,2.47-.26,3.74,0,.09,0,.18,0,.26,0,1.27-.08,2.55-.07,3.86,0,.34,0,.67,0,1a36.3,36.3,0,0,1-.63,7.3c-.09.48-.18,1-.29,1.42-.06.19-.09.37-.14.56-.17.62-.32,1.23-.46,1.84,0,.2-.09.41-.14.61A39.3,39.3,0,0,0,7.93,88a26.73,26.73,0,0,0,.31,2.91,2.73,2.73,0,0,0,.09.61,10,10,0,0,0,.49,2.23,23.78,23.78,0,0,0,2,5.22c.32.55.66,1.11,1,1.65a2.08,2.08,0,0,0,.37.54,18,18,0,0,0,1.3,1.75A27,27,0,0,0,20,108.67a38.31,38.31,0,0,0,3.55,2.13c1,.55,2.11,1.1,3.23,1.65l.14.07c1.81.84,3.67,1.63,5.56,2.31a73.54,73.54,0,0,0,7.68,2.39c1.34.33,2.68.64,4,.91l.19,0q1,.2,2,.36c.23,0,.46.07.68.12q3.93.61,8,.86l2,.15c2.48.18,5,.27,7.46.27,1.66,0,3.31,0,5-.12h.11c.35-.05.7-.08,1.08-.11,1.81-.12,3.65-.29,5.5-.49,2.59-.33,5.1-.71,7.49-1.14h.08c.27-.07.54-.12.89-.18a80.6,80.6,0,0,0,14.5-4.35l.26-.11A62.15,62.15,0,0,0,110,107.64c.53-.38,1.06-.77,1.6-1.18.88-.66,1.73-1.37,2.57-2.09l.06,0,.24-.22c.78-.69,1.54-1.39,2.28-2.12.08-.07.15-.15.23-.23.73-.73,1.43-1.47,2.11-2.24a2.73,2.73,0,0,1,.23-.25c.71-.82,1.4-1.66,2.06-2.52.08-.11.17-.22.25-.34.67-.88,1.32-1.77,1.93-2.7a57.35,57.35,0,0,0,6.18-12.87,54.41,54.41,0,0,0,2.58-15.92C132.26,63.89,132.21,62.86,132.14,61.82ZM110,104.37l-1.52,1.13A60.27,60.27,0,0,1,98.37,111l-.26.11a76.44,76.44,0,0,1-13.94,4.19c-.34,0-.69.13-1,.2-2.33.42-4.79.78-7.29,1.1-1.79.2-3.61.37-5.38.49-.41,0-.81.06-1.19.11a98.65,98.65,0,0,1-12-.14l-2.05-.16c-2.33-.14-4.63-.38-6.88-.7l-1.83-.3c-.31,0-.6-.11-.89-.15-1.07-.2-2.11-.41-3.15-.65A70.94,70.94,0,0,1,28,110.15c-.88-.43-1.74-.86-2.57-1.31-.23-.11-.45-.23-.67-.35a38.49,38.49,0,0,1-3.35-2,25.2,25.2,0,0,1-4.5-3.69,20,20,0,0,1-2.58-3.16l-.13-.17-.11-.2c-.35-.51-.69-1-1-1.55a21.81,21.81,0,0,1-1.8-4.67l0-.09a8.2,8.2,0,0,1-.39-1.81l0-.22,0-.13,0-.21a23.44,23.44,0,0,1-.28-2.71A33.38,33.38,0,0,1,11,80.35v0q.2-1.11.45-2.28l.12-.53c.11-.5.24-1,.38-1.53.06-.24.12-.48.19-.73v0a38.2,38.2,0,0,0,1-10c0-.15,0-.3,0-.46,0-1.22,0-2.43.06-3.62,0-.13,0-.26,0-.39.06-1.22.14-2.41.26-3.58v-.12a58,58,0,0,1,1.13-7v0l.05-.24c0-.14,0-.29.08-.46.27-1.13.57-2.23.91-3.26l0-.09c0-.13.08-.25.13-.37l.05-.12c3.61-11.38,11.22-20,22.57-25.74a72.39,72.39,0,0,1,25.39-7,2.38,2.38,0,0,0,.51-.06l.24,0A1.2,1.2,0,0,0,65,12.6c2.16-.12,4.37-.15,6.57-.08.94,0,1.92.09,2.92.19a98.74,98.74,0,0,1,12.71,1.87,54.94,54.94,0,0,1,30.58,19.05c.37.44.72.9,1.07,1.35a10.11,10.11,0,0,0,.72,1,5.7,5.7,0,0,1,.55.78l.07.12L121,38c.34.53.67,1.06,1,1.58q.61,1,1.2,2A52.7,52.7,0,0,1,126,47.27l.49,1.2c.27.71.53,1.42.77,2.13a45,45,0,0,1,1.41,5.14c0,.18.08.36.11.53.07.35.14.71.2,1.06s.1.57.14.85.07.47.11.71.1.72.14,1.09c0,.14,0,.28,0,.42.05.44.09.88.13,1.31v0c.08,1.06.12,2.11.13,3.17A51.81,51.81,0,0,1,127.2,80a54.42,54.42,0,0,1-5.89,12.25c-.58.88-1.2,1.74-1.84,2.58a3.15,3.15,0,0,1-.22.29c-.62.81-1.26,1.6-1.93,2.37l-.31.34c-.59.66-1.19,1.3-1.81,1.92l-.4.41q-1,1-2,1.86C111.88,102.85,110.94,103.63,110,104.37Z"/><path class="cls-6" d="M48.58,91.72a4.87,4.87,0,0,1-.66,0,6.61,6.61,0,0,1-4.43-3.14.75.75,0,0,1,1.31-.74,5.12,5.12,0,0,0,3.33,2.39c1.55.2,3.29-.65,5.12-2.54a.75.75,0,0,1,1.08,1C52.38,90.7,50.45,91.72,48.58,91.72Z"/><path class="cls-6" d="M78.53,79.77a1.89,1.89,0,0,0,.81-3.61l-7.43-3.49L79.84,69a1.89,1.89,0,1,0-1.6-3.43L66.64,71a1.89,1.89,0,0,0-1.09,1.71,1.91,1.91,0,0,0,1.09,1.72l11.09,5.21a1.94,1.94,0,0,0,.8.18"/><path class="cls-3" d="M48.71,165.25a18.83,18.83,0,0,1-10.32-13.83c-1.85-10.33,6.39-24,6.47-24.1A1.07,1.07,0,0,0,43,126.2,58.61,58.61,0,0,0,38,137.31l-.69.37c-6.88,3.55-13.74,4.8-20.49,3.74a15.89,15.89,0,0,1-5.64-2c-2.87-1.73-5.19-4.69-6.86-8.8a24.57,24.57,0,0,1-1.71-9.34A20.25,20.25,0,0,1,8,107.74a11.66,11.66,0,0,1,2.33-1.91,10.18,10.18,0,0,1,4.85-1.8,8.83,8.83,0,0,1,1.85,0,10.58,10.58,0,0,1,1.21.21,11.24,11.24,0,0,1,1.58.52,9.27,9.27,0,0,1,3.33,2.33,11.93,11.93,0,0,1,1.74,2.52q.21.39.39.81a3.58,3.58,0,0,1,.31.76c0,.11.07.22.1.33a13.26,13.26,0,0,1,.07,7.65,13.37,13.37,0,0,1-2.9,5.47l-.09.1a9.61,9.61,0,0,1-2.4,2.09l-.11.07a9.84,9.84,0,0,1-4.64,1.71,9.65,9.65,0,0,1-2.57,0,1.28,1.28,0,0,0-1.45,1.09,1.26,1.26,0,0,0,1.08,1.44,12,12,0,0,0,3.21.08,12.69,12.69,0,0,0,5.76-2.11l.09-.05a12.49,12.49,0,0,0,2.76-2.34,37.44,37.44,0,0,0,17.08-9.31h0l.22-.2-.85-.19c-.76-.19-1.37-.32-2.12-.54l-.19.16h0a39,39,0,0,1-4.12,3.08,34.57,34.57,0,0,1-7.61,3.68,17.38,17.38,0,0,0,1.38-3.49,16.75,16.75,0,0,0,.44-6.89,14.56,14.56,0,0,0-.35-1.59c-.08-.33-.19-.66-.3-1a5.2,5.2,0,0,0-.3-.76,1.94,1.94,0,0,0-.13-.3,12.55,12.55,0,0,0-11.17-7.9,11.29,11.29,0,0,0-1.65,0,8.86,8.86,0,0,0-1.44.25,13.17,13.17,0,0,0-4.41,1.93A13.94,13.94,0,0,0,6.09,106,22.77,22.77,0,0,0,0,121.28,27.5,27.5,0,0,0,1.9,131.6c1.9,4.63,4.56,8,7.91,10a18.32,18.32,0,0,0,4.44,1.86,19.54,19.54,0,0,0,2.13.45,34.41,34.41,0,0,0,20.16-3.06l.43-.21a27.25,27.25,0,0,0-.7,11.12,21,21,0,0,0,11.61,15.43,1.06,1.06,0,0,0,.42.09,1.08,1.08,0,0,0,.41-2.07Z"/><path class="cls-1" d="M26.35,114.62c0,3.76-2.66,5.3-6.78,5.3s-10.78-3.87-10.78-8.23,3-7.69,7.11-7.69S26.23,106.52,26.35,114.62Z"/></g></g></svg>