<svg xmlns="http://www.w3.org/2000/svg" viewBox="0 0 287.27 227.65"><defs><style>.cls-1{fill:#dcefff;fill-rule:evenodd;}.cls-2{fill:#83e8d3;}.cls-3{fill:#47d7ac;}.cls-4{fill:#1cb594;}.cls-5{fill:#ffb9b8;}.cls-6{fill:#ff88a1;}.cls-7{fill:#ffe090;}.cls-8{fill:#fff;}.cls-9{fill:#7fe8d2;}.cls-10{fill:#333;}</style></defs><g id="레이어_2" data-name="레이어 2"><g id="레이어_1-2" data-name="레이어 1"><path class="cls-1" d="M112.36,170a98.67,98.67,0,0,0,34,13.22c19.51,3.79,39.74,2.6,59.24-1.21,30.46-5.95,75.2-23.27,81.3-58.59,1-5.76.35-12.09-3.18-16.75-5.12-6.79-14.28-8.39-21.92-10.78-11-3.45-21.26-8.91-27.64-18.9-10.44-16.36-10-36.86-22.12-52.6C201.11,10.25,183.69,1.56,166,.21c-34.69-2.64-67.3,19.63-82.72,49.9-9,17.58-11.85,39-9.57,58.51A82.49,82.49,0,0,0,112.36,170Z"/><path class="cls-2" d="M162.93,131.94q-6,3.45-5.25,12.6l6.84,4.89a40.18,40.18,0,0,1,6.12-11.85q2.15-3.09-.91-5.37c-2-1.53-4.31-1.63-6.8-.27"/><path class="cls-3" d="M164.52,150.83a1.39,1.39,0,0,1-.81-.26l-6.84-4.9a1.39,1.39,0,0,1-.58-1c-.58-6.66,1.42-11.34,6-13.93,3-1.62,5.86-1.49,8.33.37,2.62,2,3.07,4.6,1.22,7.27l-.07.1c-2.12,2.57-4.1,6.41-5.89,11.43a1.41,1.41,0,0,1-.89.86,1.54,1.54,0,0,1-.42.07m-5.5-7,4.83,3.45a38.48,38.48,0,0,1,5.68-10.49c1-1.43.8-2.36-.63-3.42-1.61-1.21-3.29-1.26-5.31-.17C160.21,135.1,158.7,138.58,159,143.79Z"/><path class="cls-2" d="M145.35,139.77a5.58,5.58,0,0,0-.63.84,15.62,15.62,0,0,0-2.67,9.06,15.82,15.82,0,0,0,1.63,7.2,12.16,12.16,0,0,0,2.19,3.3l.08.08a12.09,12.09,0,0,0,4.93,3.5,11.93,11.93,0,0,0,3,.75,11.93,11.93,0,0,1-3-.75,12.09,12.09,0,0,1-4.93-3.5l-.08-.08a12.16,12.16,0,0,1-2.19-3.3q-13.12-6.84-19.84-23.74l-6.28,25.05q12.41,16.9,28.79,18.69a18.39,18.39,0,0,0,7-.52q5.72-1.62,10.41-7.75a28,28,0,0,0,4.7-9.78,23.24,23.24,0,0,0-1.91-16.7,14.37,14.37,0,0,0-2.11-3,11.87,11.87,0,0,0-8.83-4.33,12.37,12.37,0,0,0-10.26,5"/><path class="cls-3" d="M148.56,178.38a21,21,0,0,1-2.36-.13c-11.28-1.23-21.29-7.7-29.76-19.25a1.37,1.37,0,0,1-.23-1.16l6.28-25.05a1.4,1.4,0,0,1,1.26-1,1.38,1.38,0,0,1,1.38.88c3.76,9.45,9.12,16.53,16,21.1a19,19,0,0,1-.43-4.05,17.11,17.11,0,0,1,2.91-9.85,7.11,7.11,0,0,1,.75-1,13.69,13.69,0,0,1,11.33-5.43,13.24,13.24,0,0,1,9.84,4.81,15.79,15.79,0,0,1,2.29,3.25,24.68,24.68,0,0,1,2,17.71,29.38,29.38,0,0,1-4.93,10.26c-3.3,4.31-7.05,7.09-11.14,8.25a19.09,19.09,0,0,1-5.17.69m-29.49-20.5c7.9,10.56,17.13,16.48,27.43,17.61A17.23,17.23,0,0,0,153,175c3.5-1,6.76-3.44,9.69-7.26a26.54,26.54,0,0,0,4.45-9.29,21.93,21.93,0,0,0-1.81-15.73,12.6,12.6,0,0,0-1.89-2.66,10.47,10.47,0,0,0-7.84-3.88,10.92,10.92,0,0,0-9.14,4.46,5.54,5.54,0,0,0-.54.7,15.3,15.3,0,0,0-1,14.87l.05.13a11,11,0,0,0,1.92,2.88l.11.1a10.74,10.74,0,0,0,4.36,3.11,10.88,10.88,0,0,0,2.71.68,1.4,1.4,0,0,1-.34,2.77,13.84,13.84,0,0,1-8.8-4.69l-.08-.09a13.71,13.71,0,0,1-2.23-3.23c-7.79-4.19-14-11-18.43-20.44Z"/><path class="cls-2" d="M80.73,152.61a106,106,0,0,0-5.64,10.54c-.83,1.81-1.54,3.54-2.15,5.21q-7.06,19.69,6.76,27c.42.21.87.43,1.35.64l14.87-1.79,24,30.14c1.59,2,3.67,2.41,6.25,1.19a93.93,93.93,0,0,0,13.95-8.43q5.49-4.05,3.26-7.67-3-4.77-9.66-1.15l-13.48-17.58a5,5,0,0,1,.48-.72q15.83-23.61,4.73-62.11l-38.21-4.17-3.7,24.37q-1.5,2.3-2.83,4.49"/><path class="cls-3" d="M123.49,227.65a5.77,5.77,0,0,1-4.64-2.4L95.32,195.72l-14.1,1.7a1.41,1.41,0,0,1-.73-.11q-.75-.33-1.41-.66c-9.91-5.27-12.4-14.94-7.43-28.76.6-1.7,1.33-3.49,2.17-5.32a108.89,108.89,0,0,1,5.72-10.68c.84-1.38,1.74-2.82,2.69-4.28l3.65-24.07a1.4,1.4,0,0,1,1.53-1.18l38.21,4.18a1.4,1.4,0,0,1,1.19,1c7.46,25.9,5.83,47.15-4.84,63.16l12.17,15.87c5.75-2.68,8.84-.35,10.44,2.17,1.33,2.17,1.78,5.56-3.61,9.54a95.72,95.72,0,0,1-14.16,8.56,7.75,7.75,0,0,1-3.32.82M95.92,192.86a1.38,1.38,0,0,1,1.09.52l24,30.14c.79,1,2,2,4.56.81A93.44,93.44,0,0,0,139.31,216c4.46-3.3,3.33-5.14,2.91-5.83-1-1.56-2.89-3.35-7.81-.66a1.39,1.39,0,0,1-1.77-.38L119.16,191.6a1.4,1.4,0,0,1-.12-1.53,7,7,0,0,1,.57-.85c10.11-15.13,11.72-35.32,4.78-60l-36-3.93-3.5,23.06a1.37,1.37,0,0,1-.21.55c-1,1.51-1.93,3-2.79,4.45a103.46,103.46,0,0,0-5.58,10.4c-.8,1.76-1.5,3.47-2.08,5.1-4.49,12.49-2.5,20.78,6.08,25.34l.92.44,14.49-1.74Z"/><path class="cls-4" d="M101.67,158a12.36,12.36,0,0,1,1.48-4.42,11,11,0,0,1,3-3.44,11.67,11.67,0,0,1,18.49,6.1,11.64,11.64,0,0,1,.37,4.67l-.08.67-6.34-.79.08-.67a5.4,5.4,0,0,0-1.08-4,5.37,5.37,0,0,0-7.52-.92,5.06,5.06,0,0,0-2.07,3.63l-.07.63-6.3-.75.08-.71"/><path class="cls-5" d="M27.07,165.78a1.37,1.37,0,0,1-.12-1.15l1.23-4.09a1.3,1.3,0,0,0-.28-1.36,1.45,1.45,0,0,0-1.31-.47l-4.25.87a1.46,1.46,0,0,1-1.12-.24l-3.46-2.42a1.37,1.37,0,0,0-1.43-.16,1.28,1.28,0,0,0-.83,1.15L15,162.17a1.17,1.17,0,0,1-.52,1L11,165.71a1.31,1.31,0,0,0-.55,1.27,1.21,1.21,0,0,0,.79,1.15l3.9,1.79a1.48,1.48,0,0,1,.8.83l1.35,4.06a1.37,1.37,0,0,0,1.07.92,1.25,1.25,0,0,0,1.35-.44l2.9-3.14a1.33,1.33,0,0,1,1-.44l4.25-.12a1.38,1.38,0,0,0,1.24-.72,1.28,1.28,0,0,0,0-1.39l-2.07-3.7"/><path class="cls-6" d="M12.4,75.24a.91.91,0,0,0-.48-1,1,1,0,0,0-1.11-.07L7.7,75.76a1.11,1.11,0,0,1-.91,0L3.61,74.6a1.15,1.15,0,0,0-1.16.16,1,1,0,0,0-.35,1.12l.51,3.34a1,1,0,0,1-.27.83L.27,82.75a1,1,0,0,0-.16,1.16.88.88,0,0,0,.83.71l3.38.6a1.23,1.23,0,0,1,.8.44L7,88.52A1,1,0,0,0,8,89a1.14,1.14,0,0,0,1-.6l1.55-3.06a1.44,1.44,0,0,1,.71-.56l3.3-.91A1.16,1.16,0,0,0,15.06,82l-2.43-2.43a1,1,0,0,1-.31-.83Z"/><path class="cls-7" d="M48.86,184.17a2,2,0,0,0-1.79-1.28,1.94,1.94,0,0,0-2,.88l-4,5.33a2.14,2.14,0,0,1-1.51.87l-6.52.8A2,2,0,0,0,31.37,192a2,2,0,0,0,.16,2.19l3.85,5.37a2.18,2.18,0,0,1,.4,1.67l-1.27,6.52a2.08,2.08,0,0,0,.71,2.07,2.05,2.05,0,0,0,2.15.43l6.28-2a2.38,2.38,0,0,1,1.75.2l5.77,3.22a2.24,2.24,0,0,0,3.26-1.9l0-6.61a2.09,2.09,0,0,1,.72-1.63L60,197.09a2,2,0,0,0,.63-2,2.09,2.09,0,0,0-1.43-1.63L53,191.28a2,2,0,0,1-1.31-1.19l-2.79-5.92M166.6,190l-4.21.52a1.34,1.34,0,0,0-1.12.83,1.28,1.28,0,0,0,.08,1.36l2.47,3.5a1.33,1.33,0,0,1,.2,1.07l-.84,4.21a1.31,1.31,0,0,0,.44,1.32,1.29,1.29,0,0,0,1.39.27l4-1.19a1.25,1.25,0,0,1,1.11.12l3.74,2.11a1.34,1.34,0,0,0,1.39,0,1.4,1.4,0,0,0,.72-1.19l0-4.26a1.29,1.29,0,0,1,.47-1l3.15-2.87a1.21,1.21,0,0,0,.43-1.31,1.34,1.34,0,0,0-.91-1l-4-1.43a1.29,1.29,0,0,1-.83-.8l-1.75-3.86a1.38,1.38,0,0,0-1.16-.79,1.22,1.22,0,0,0-1.27.56l-2.58,3.37A1.11,1.11,0,0,1,166.6,190Z"/><path class="cls-8" d="M198,151l4.09,1.89a1.76,1.76,0,0,1,.74.87l1.38,4.2a1.45,1.45,0,0,0,1.15,1,1.24,1.24,0,0,0,1.33-.46l3-3.22a1.65,1.65,0,0,1,1.09-.46h4.49a1.42,1.42,0,0,0,1.2-.74,1.38,1.38,0,0,0,0-1.44l-2.12-3.91a1.23,1.23,0,0,1-.12-1.15l1.32-4.2a1.37,1.37,0,0,0-.23-1.44,1.44,1.44,0,0,0-1.43-.46l-4.38.81a1.44,1.44,0,0,1-1.09-.23l-3.62-2.59a1.28,1.28,0,0,0-1.44-.17,1.45,1.45,0,0,0-.86,1.2l-.58,4.37a1.23,1.23,0,0,1-.57,1l-3.57,2.65a1.31,1.31,0,0,0-.57,1.32A1.32,1.32,0,0,0,198,151"/><path class="cls-8" d="M180.7,120.84l2.82,1.31a1.2,1.2,0,0,1,.52.6l1,2.9a1,1,0,0,0,.8.68.86.86,0,0,0,.91-.32l2.07-2.23a1.13,1.13,0,0,1,.76-.31h3.1a1,1,0,0,0,.83-.52,1,1,0,0,0,0-1l-1.47-2.7a.86.86,0,0,1-.08-.8l.92-2.9a1,1,0,0,0-.16-1,1,1,0,0,0-1-.32l-3,.56a1,1,0,0,1-.75-.16l-2.51-1.79a.89.89,0,0,0-1-.12,1,1,0,0,0-.6.83l-.4,3a.84.84,0,0,1-.4.67l-2.46,1.83a1,1,0,0,0,.16,1.75"/><path class="cls-9" d="M105.53,182.94c0-.17.06-.34.08-.5a9.91,9.91,0,0,0-7.85-11.61,20.08,20.08,0,0,0-12.48,1A20.4,20.4,0,0,0,79.73,175l3,8.93a56.07,56.07,0,0,0-3.59,17.66q.21,3.77,6.85,5.1a53.23,53.23,0,0,0,10.69.33c.42,0,.82-.07,1.21-.12a2,2,0,0,1,.42,0c.33-.05.66-.09,1-.12a13.66,13.66,0,0,0,4.84-1.3,4.06,4.06,0,0,0,2.42-4.34A5.09,5.09,0,0,0,102.9,197l-.63-.09h-.16a21.44,21.44,0,0,0-2.26-.2,22.19,22.19,0,0,0-2.3-.05,22.19,22.19,0,0,1,2.3.05,21.44,21.44,0,0,1,2.26.2,91.91,91.91,0,0,0,3.42-13.94"/><path class="cls-3" d="M93.05,208.53a56.31,56.31,0,0,1-7.21-.47l-.09,0c-5.1-1-7.78-3.17-8-6.38v-.14a57.46,57.46,0,0,1,3.68-18.1,1.39,1.39,0,1,1,2.6,1,54.6,54.6,0,0,0-3.5,17.15c.14,1.74,2.05,3,5.68,3.73a51.52,51.52,0,0,0,10.37.32c.38,0,.75-.06,1.11-.11a2.14,2.14,0,0,1,.48,0c.34-.06.68-.1,1-.13a12,12,0,0,0,4.27-1.12c1.71-.94,1.84-2,1.74-2.88a3.7,3.7,0,0,0-2.59-3l-.44-.06h0l-.24,0c-.75-.1-1.46-.17-2.1-.19a18,18,0,0,0-2.19,0,1.4,1.4,0,0,1-.1-2.79,22.46,22.46,0,0,1,2.45.05c.36,0,.76,0,1.18.08a89.31,89.31,0,0,0,3-12.65l.08-.51a9.09,9.09,0,0,0-2-7.37,9,9,0,0,0-4.75-2.65,18.8,18.8,0,0,0-11.64.93,19.27,19.27,0,0,0-5.2,3,1.39,1.39,0,1,1-1.75-2.16,23.14,23.14,0,0,1,19.23-4.45,11.86,11.86,0,0,1,6.22,3.55,12,12,0,0,1,2.69,9.6l-.09.54a90.64,90.64,0,0,1-3,12.66,6.51,6.51,0,0,1,4,4.95l0,.14a5.4,5.4,0,0,1-3.13,5.74,14.72,14.72,0,0,1-5.34,1.46c-.36,0-.65.07-1,.12-.12,0-.25,0-.37,0-.5.07-.94.12-1.39.15-1.25.09-2.5.13-3.76.13"/><path class="cls-8" d="M121.32,30.5a22.51,22.51,0,0,1,5.92-10.79q5.61-5,10.24-.45A10.78,10.78,0,0,1,139,21.09q4.88,7.57,5.75,18.67l.09,1.1V41c0,.3,0,.59,0,.89s0,.73.06,1.08c0,.77,0,1.56,0,2.35-.81.21-1.61.4-2.43.57l-1.74.33-.76.12h-.18a41.79,41.79,0,0,1-14.29-.64l-.16,0-.32-.06c-1.51-.36-3-.79-4.54-1.31-.14-1.18-.24-2.34-.29-3.47a.88.88,0,0,0,0-.36c0-.12,0-.24,0-.36a36.39,36.39,0,0,1,1-9.66"/><path class="cls-3" d="M144.86,43.35A1.39,1.39,0,0,1,143.47,42l-.12-2.07c-.56-7.15-2.42-13.21-5.53-18a8.73,8.73,0,0,0-1.32-1.56c-1.76-1.73-4.26-3.2-8.37.46a21.31,21.31,0,0,0-5.5,10.09,34.9,34.9,0,0,0-1,9.29v.26a2.15,2.15,0,0,1,0,.76,1.39,1.39,0,0,1-2.75-.42l0-.18v-.35a37.54,37.54,0,0,1,1.08-10,24.1,24.1,0,0,1,6.29-11.44c5.5-4.9,9.66-2.94,12.2-.45a11.8,11.8,0,0,1,1.72,2c3.38,5.25,5.39,11.75,6,19.34l.09,1.09v.09l0,1.07a1.38,1.38,0,0,1-1.36,1.42h0"/><path class="cls-8" d="M52.75,50.7c.4-.53.81-1,1.24-1.55A59.32,59.32,0,0,1,87.21,28.5a105.79,105.79,0,0,1,13.68-2c1.09-.11,2.15-.18,3.18-.2,2.39-.08,4.74-.05,7.08.08a1.19,1.19,0,0,1,.4.08,1.55,1.55,0,0,1,.43,0,1.87,1.87,0,0,0,.4,0,77.93,77.93,0,0,1,27.47,7.58q18.72,9.41,24.67,28.17a3.84,3.84,0,0,1,.2.6c.37,1.14.7,2.33,1,3.58a3.44,3.44,0,0,1,.12.64l0,.16a69,69,0,0,1,1.58,16,39.59,39.59,0,0,0,1,10.74,42.49,42.49,0,0,1,1.73,13.84,26.83,26.83,0,0,1-.32,3,1.69,1.69,0,0,1-.08.52,10.2,10.2,0,0,1-.48,2.22,24.08,24.08,0,0,1-2,5.25c-.34.61-.71,1.21-1.11,1.79a.87.87,0,0,1-.24.36,26.81,26.81,0,0,1-7.92,7.67c-1.14.76-2.36,1.49-3.66,2.18-1.11.61-2.28,1.21-3.5,1.79a79.8,79.8,0,0,1-29.39,7.25l-2.15.16a108.4,108.4,0,0,1-13,.15,12.12,12.12,0,0,0-1.24-.12c-1.9-.14-3.83-.31-5.76-.52-2.73-.35-5.36-.75-7.87-1.2a9.82,9.82,0,0,0-1-.2,83.24,83.24,0,0,1-15.11-4.55l-.27-.12a64.26,64.26,0,0,1-10.93-6c-.56-.4-1.12-.81-1.67-1.24a52.84,52.84,0,0,1-12.36-13.17,59,59,0,0,1-6.39-13.32,55.73,55.73,0,0,1-2.65-16.47A49.67,49.67,0,0,1,43.71,67.6a56.57,56.57,0,0,1,4.39-9.78c.42-.74.85-1.47,1.27-2.19l1.11-1.75c.3-.39.59-.79.88-1.19a6.78,6.78,0,0,1,.72-1,7,7,0,0,0,.67-1"/><path class="cls-3" d="M111.59,141.66c-1.79,0-3.58,0-5.36-.14h-.12c-.36,0-.74-.08-1.13-.11-1.94-.13-3.89-.31-5.83-.52-2.76-.35-5.44-.76-8-1.22l-.09,0c-.28-.07-.57-.12-.87-.17a84,84,0,0,1-15.43-4.64l-.09,0-.09,0-.11,0a66.78,66.78,0,0,1-11.17-6.1l-1.73-1.28a55,55,0,0,1-12.67-13.51,60.61,60.61,0,0,1-6.55-13.65,57.76,57.76,0,0,1-2.72-16.9,51.06,51.06,0,0,1,2.71-16.12,58.89,58.89,0,0,1,4.49-10c.43-.75.86-1.49,1.29-2.21l1.13-1.79.06-.07.83-1.13A8.1,8.1,0,0,1,51,50.76a5.18,5.18,0,0,0,.55-.76l.08-.13c.42-.55.85-1.09,1.29-1.61a60.82,60.82,0,0,1,34-21.11,105.48,105.48,0,0,1,13.87-2c1.1-.11,2.21-.18,3.27-.2,2.4-.08,4.83,0,7.19.08a2,2,0,0,1,.46.06,2.63,2.63,0,0,1,.57.05l.23,0a79.51,79.51,0,0,1,28,7.71C153.2,39.23,161.73,49,165.8,61.76a5.08,5.08,0,0,1,.23.69c.38,1.16.72,2.39,1,3.65a6.18,6.18,0,0,1,.12.62,1.4,1.4,0,0,1,.06.28,70.63,70.63,0,0,1,1.59,16.22,39.24,39.24,0,0,0,1,10.36,44.32,44.32,0,0,1,1.78,14.28,28,28,0,0,1-.32,3.07,3.65,3.65,0,0,1-.09.64,12.51,12.51,0,0,1-.52,2.37,26.22,26.22,0,0,1-2.13,5.5c-.36.63-.72,1.22-1.11,1.79a2.27,2.27,0,0,1-.38.57,28.4,28.4,0,0,1-8.26,8A42.18,42.18,0,0,1,155,132c-1.11.6-2.31,1.22-3.55,1.81a81.63,81.63,0,0,1-29.91,7.39l-2.13.15c-2.59.19-5.2.29-7.81.29m-5.17-2.91a104.72,104.72,0,0,0,12.78-.15l2.14-.16a78.6,78.6,0,0,0,28.91-7.13c1.19-.56,2.34-1.15,3.42-1.74a37.41,37.41,0,0,0,3.55-2.12,25.54,25.54,0,0,0,7.54-7.28l.14-.18.11-.2c.37-.54.73-1.11,1.05-1.69a23.25,23.25,0,0,0,1.9-4.91l0-.09a9.32,9.32,0,0,0,.41-1.93l0-.24a.69.69,0,0,0,0-.13l0-.22a26.81,26.81,0,0,0,.3-2.87,41.17,41.17,0,0,0-1.69-13.4v0A41.48,41.48,0,0,1,166,83.16a68,68,0,0,0-1.54-15.64v0l-.06-.24a3.55,3.55,0,0,0-.09-.47c-.28-1.23-.6-2.39-1-3.49l0-.09a1.63,1.63,0,0,0-.13-.39l0-.13c-3.83-12.08-11.9-21.28-24-27.35a77.12,77.12,0,0,0-26.91-7.43,3.15,3.15,0,0,1-.61-.06,1.17,1.17,0,0,1-.64-.06c-2.33-.13-4.64-.16-7-.08-1,0-2,.09-3.09.19a104.51,104.51,0,0,0-13.52,2A58.23,58.23,0,0,0,55,50c-.39.47-.78,1-1.14,1.44a9.25,9.25,0,0,1-.77,1.07,5.57,5.57,0,0,0-.58.83l-.08.13-.85,1.16-1.09,1.71c-.4.67-.82,1.39-1.24,2.13A55.15,55.15,0,0,0,45,68a48.16,48.16,0,0,0-2.57,15.23,54.58,54.58,0,0,0,2.59,16,57.23,57.23,0,0,0,6.23,13,51.82,51.82,0,0,0,12,12.82c.55.42,1.09.82,1.64,1.21a62.84,62.84,0,0,0,10.63,5.81l.34.15a81.77,81.77,0,0,0,14.81,4.45c.31.05.67.12,1,.2,2.47.45,5.08.84,7.76,1.18,1.87.21,3.79.38,5.68.52Q105.81,138.66,106.42,138.75Zm58.39-18.51ZM111.08,27.76h0Z"/><path class="cls-8" d="M60.64,33.59a22.58,22.58,0,0,1,.77-12.29q2.94-6.91,9.07-4.76a10.09,10.09,0,0,1,2.18,1Q80.3,22.32,85.81,32l.56.95.08.16c.13.27.26.53.4.8s.35.64.51,1c.35.69.69,1.4,1,2.11-.64.53-1.29,1-2,1.55l-1.44,1c-.21.14-.42.28-.63.44l-.16.08A41.67,41.67,0,0,1,71,45.57l-.16,0-.32.08q-2.27.47-4.65.75c-.63-1-1.22-2-1.75-3A.88.88,0,0,0,64,43.1l-.16-.32a36.24,36.24,0,0,1-3.18-9.19"/><path class="cls-3" d="M64.11,44.83a1.4,1.4,0,0,1-1.32-.94l-.09-.15-.16-.32a37.91,37.91,0,0,1-3.29-9.54,24,24,0,0,1,.82-13c2.89-6.78,7.49-6.79,10.84-5.61a12.14,12.14,0,0,1,2.43,1.11c5.3,3.32,9.88,8.34,13.66,15l.55.94,0,.08.48,1a1.4,1.4,0,0,1-2.5,1.24L85,33.4l-.41-.7c-3.55-6.22-7.82-10.92-12.68-14A9.36,9.36,0,0,0,70,17.89c-2.33-.82-5.22-1.09-7.38,4A21.2,21.2,0,0,0,62,33.34,35,35,0,0,0,65,42.18l.12.22a2.42,2.42,0,0,1,.31.7,1.39,1.39,0,0,1-1,1.68,1.26,1.26,0,0,1-.33,0"/><path class="cls-2" d="M76.34,87.47c-.55-2.79-2.49-5.89-5.94-9.49a63.5,63.5,0,0,0-24.71-15.7A1,1,0,0,0,45,64.15c-.47,1.15-.91,2.3-1.31,3.45-.21.58-.41,1.18-.59,1.79a50.11,50.11,0,0,0-2,13.87,55.73,55.73,0,0,0,2.65,16.47,59,59,0,0,0,6.39,13.32A54.33,54.33,0,0,0,59,123.34l0,0a1,1,0,0,0,.07,1.4,1,1,0,0,0,.67.26,1,1,0,0,0,.74-.33c1.84-2.07,3.11-3.58,3.84-4.61A76.63,76.63,0,0,0,75.06,99.72c.32-.92.63-1.87.91-2.89A22.31,22.31,0,0,0,76.34,87.47Z"/><path class="cls-3" d="M59.71,125.42a1.4,1.4,0,0,1-.92-.34,56.15,56.15,0,0,1-9.86-11.26,60.61,60.61,0,0,1-6.55-13.65,57.76,57.76,0,0,1-2.72-16.9A52.2,52.2,0,0,1,41.75,69c.2-.65.41-1.27.63-1.87.5-1.45,1.07-3,1.69-4.42l0-.06,0,0a5.27,5.27,0,0,0,.22-.49,1.39,1.39,0,1,1,2.6,1,7.44,7.44,0,0,1-.31.72C46,65.21,45.49,66.64,45,68.05c-.21.58-.4,1.16-.58,1.74a49.12,49.12,0,0,0-2,13.48,54.58,54.58,0,0,0,2.59,16,57.23,57.23,0,0,0,6.23,13A53.11,53.11,0,0,0,60.62,123a1.39,1.39,0,0,1-.91,2.44"/><path class="cls-10" d="M135,86.8a13.89,13.89,0,0,0,1.47,6.64c1,1.89,2.18,2.83,3.58,2.83s2.6-.94,3.58-2.83a13.55,13.55,0,0,0,1.51-6.64,13.82,13.82,0,0,0-1.51-6.68q-1.47-2.75-3.58-2.74c-1.4,0-2.6.91-3.58,2.74A14.17,14.17,0,0,0,135,86.8"/><path class="cls-2" d="M138.67,69.35l-.07,0a3,3,0,0,1-3.45-2,2.86,2.86,0,0,1,.26-2.18A2.56,2.56,0,0,1,137,63.89l10.41-3a2.74,2.74,0,0,1,2.06.27,2.85,2.85,0,0,1,1.34,1.74,2.68,2.68,0,0,1-.22,2.1,2.82,2.82,0,0,1-1.38,1.31l-.2.06-10.29,2.94"/><path class="cls-3" d="M137.9,70.48a3.65,3.65,0,0,1-1.91-.56,3.49,3.49,0,0,1-1.8-2.27,3.81,3.81,0,0,1,.33-2.9,3.57,3.57,0,0,1,2.11-1.81l10.45-3a3.73,3.73,0,0,1,2.82.36,3.87,3.87,0,0,1,1.81,2.34,3.62,3.62,0,0,1-.31,2.85,3.74,3.74,0,0,1-1.81,1.71,1.46,1.46,0,0,1-.43.15l-10.09,2.88-.21.09a3.52,3.52,0,0,1-1,.13m.87-.15Zm.59-.31Zm-.69-.68Zm9.41-7.51a1.71,1.71,0,0,0-.49.07l-10.38,2.94a1.62,1.62,0,0,0-.93.82,1.88,1.88,0,0,0-.18,1.45,1.53,1.53,0,0,0,.81,1l.1,0a1.54,1.54,0,0,0,1.17.26l.25-.09,10.25-2.93.08,0h0a1.82,1.82,0,0,0,.9-.86,1.69,1.69,0,0,0,.14-1.36,1.88,1.88,0,0,0-.89-1.16A1.78,1.78,0,0,0,148.08,61.83Zm.54,3.67Z"/><path class="cls-10" d="M97,93.84a1.79,1.79,0,0,1-.76-3.41l7-3.3-7.5-3.48a1.79,1.79,0,0,1,1.5-3.24l11,5.09a1.79,1.79,0,0,1,0,3.24L97.8,93.67a1.75,1.75,0,0,1-.76.17"/><path class="cls-2" d="M95.7,62.1a2.8,2.8,0,0,1,2-.48l10.65,1.88a2.6,2.6,0,0,1,1.67,1.16,2.83,2.83,0,0,1,.47,2.14,2.44,2.44,0,0,1-1.15,1.79,2.5,2.5,0,0,1-2.07.56l-.08,0L96.69,67.23l-.2,0A2.79,2.79,0,0,1,95,66,2.68,2.68,0,0,1,94.54,64,2.9,2.9,0,0,1,95.7,62.1"/><path class="cls-3" d="M107.73,70.17a3.36,3.36,0,0,1-.63-.06l-.21-.06L96.56,68.21a1.23,1.23,0,0,1-.44-.1,3.77,3.77,0,0,1-2-1.53,3.63,3.63,0,0,1-.59-2.79,3.83,3.83,0,0,1,1.54-2.5,3.75,3.75,0,0,1,2.76-.66l10.69,1.88a3.6,3.6,0,0,1,2.33,1.59,3.87,3.87,0,0,1,.62,2.87,3.44,3.44,0,0,1-1.56,2.42,3.52,3.52,0,0,1-2.19.78m-.53-.08Zm0,0Zm-.62-.25Zm1-1.66a1.59,1.59,0,0,0,1.14-.38l.09-.06a1.51,1.51,0,0,0,.7-1.11,1.86,1.86,0,0,0-.33-1.44,1.56,1.56,0,0,0-1-.73L97.53,62.59a1.74,1.74,0,0,0-1.29.32,1.82,1.82,0,0,0-.74,1.22,1.71,1.71,0,0,0,.27,1.33,1.87,1.87,0,0,0,1,.77h.08l10.5,1.87ZM96.91,66.29Zm-.25-.06Z"/><path class="cls-10" d="M125.93,117.31a4.6,4.6,0,0,1-1.16-.16,5.78,5.78,0,0,1-3-2.06l-.19-.26a1,1,0,0,1,1.6-1.18l.17.23a3.65,3.65,0,0,0,1.91,1.35,1.56,1.56,0,0,0,1.53-.21,1.68,1.68,0,0,0,.58-1.46,3.42,3.42,0,0,0-.8-2.14l-.14-.2a4,4,0,0,0-.86-.76,1,1,0,0,1-.45-.83,1,1,0,0,1,.45-.83,4.11,4.11,0,0,0,.92-.86l0-.07a3.45,3.45,0,0,0,.83-2.18,1.65,1.65,0,0,0-.58-1.45,1.6,1.6,0,0,0-1.54-.22,3.77,3.77,0,0,0-1.91,1.37l-.15.22a1,1,0,0,1-1.37.33,1,1,0,0,1-.33-1.36,3.32,3.32,0,0,1,.28-.41,5.68,5.68,0,0,1,2.94-2.06,3.56,3.56,0,0,1,3.32.58,3.65,3.65,0,0,1,1.33,3,5.4,5.4,0,0,1-1.25,3.4l0,.06c-.14.17-.27.32-.41.47a5.82,5.82,0,0,1,.4.45l.11.18a5.36,5.36,0,0,1,1.19,3.31,3.63,3.63,0,0,1-1.34,3,3.36,3.36,0,0,1-2.14.74m2.4-6.61Zm0,0Z"/><path class="cls-2" d="M170.46,98.87l-1.18-1.51c-.23-1.13-.5-2.27-.82-3.45a39.59,39.59,0,0,1-1-10.74q0-3.94-.29-7.61l.69-1.29a1,1,0,1,0-1.75-1,66.23,66.23,0,0,0-4.57,9.7,9.65,9.65,0,0,0,1.32,9.09c1.57,2.18,3.61,4.87,6.06,8a1,1,0,0,0,1.57-1.23Z"/><path class="cls-3" d="M169.67,100.88a1.39,1.39,0,0,1-1.37-1.17,51.51,51.51,0,0,0-1.19-5.38A41.61,41.61,0,0,1,166,83.18a76.47,76.47,0,0,0-.46-9.23,1.39,1.39,0,1,1,2.76-.31,77.94,77.94,0,0,1,.48,9.59,39,39,0,0,0,1,10.39,54.26,54.26,0,0,1,1.25,5.64,1.4,1.4,0,0,1-1.15,1.6l-.23,0"/><path class="cls-2" d="M47.37,86q-3.59-3.95-8.19-2.47t-3.34,6q2.31,6.2,2.35,16.62l10.17-2.94q4.78-10.55-1-17.22"/><path class="cls-3" d="M38.19,107.56a1.44,1.44,0,0,1-.84-.28,1.41,1.41,0,0,1-.56-1.11C36.77,99.42,36,94,34.53,90l0-.12c-1-3.82.51-6.55,4.28-7.7,3.56-1.13,6.9-.15,9.63,2.86C52.64,90,53,96.27,49.63,103.8a1.39,1.39,0,0,1-.88.76l-10.18,3a1.73,1.73,0,0,1-.38,0m-1-18.43a48.34,48.34,0,0,1,2.38,15.19l7.8-2.25c2.69-6.27,2.35-11.23-1-15.15-2-2.21-4.15-2.87-6.72-2C37.27,85.58,36.57,86.81,37.17,89.13Zm11.19,14.1h0Z"/><path class="cls-2" d="M43.27,94.84a18.71,18.71,0,0,0-3.57,2.58q-8,7.92-8.79,18.17a33,33,0,0,0,1.39,12.93,32.4,32.4,0,0,0,2.55,5.76q10.26,19,36,21.28,3.18.24,6.56.27h1.44a14.15,14.15,0,0,1,1.59.88,6.6,6.6,0,0,0,2.54.95c.71.07.87-1.29.48-4.09l14.47-13.2c-2.46-3.37-6.63-5-12.48-4.89l-5.13,0-2.91-.08a39,39,0,0,1-6.56-1A40.15,40.15,0,0,1,54.33,126a9.61,9.61,0,0,1-1.51.12,9.61,9.61,0,0,0,1.51-.12,11.58,11.58,0,0,0,5.53-2.9,18.22,18.22,0,0,0,4.57-7.36,18.87,18.87,0,0,0,.6-11.37,11.09,11.09,0,0,0-.44-1.19Q62,95.71,55,93.44a14.32,14.32,0,0,0-11.74,1.4"/><path class="cls-3" d="M78.85,157.23H77.39c-2.29,0-4.52-.12-6.66-.29-17.59-1.54-30.07-8.95-37.11-22A33.58,33.58,0,0,1,31,129a34.64,34.64,0,0,1-1.46-13.48,29.52,29.52,0,0,1,9.2-19,20.12,20.12,0,0,1,3.88-2.81,15.66,15.66,0,0,1,12.82-1.5,16,16,0,0,1,10.46,10.52,8.19,8.19,0,0,1,.48,1.32,20.27,20.27,0,0,1-.62,12.21,19.54,19.54,0,0,1-4.92,7.9,16,16,0,0,1-3.59,2.42,36.54,36.54,0,0,0,20.25,7.56c.53,0,1.48,0,2.84.07,1.06,0,2.77,0,5.09,0,6.31-.1,10.89,1.73,13.63,5.46a1.4,1.4,0,0,1-2.25,1.65c-2.2-3-5.92-4.42-11.34-4.32l-5.15,0-3-.08a40.5,40.5,0,0,1-6.81-1,41.62,41.62,0,0,1-16.61-8.41c-.37,0-.73,0-1.09,0a1.39,1.39,0,1,1,0-2.78,9.32,9.32,0,0,0,1.28-.1A10.28,10.28,0,0,0,58.94,122a16.82,16.82,0,0,0,4.17-6.76,17.48,17.48,0,0,0,.57-10.56,8,8,0,0,0-.37-1l0-.09c-1.62-4.57-4.46-7.46-8.71-8.84A12.78,12.78,0,0,0,44,96.05a17.68,17.68,0,0,0-3.32,2.39A26.85,26.85,0,0,0,32.3,115.7a30,30,0,0,0,3.75,17.89c6.59,12.21,18.33,19.12,34.9,20.58,2.07.16,4.25.25,6.46.27h1.44a1.4,1.4,0,0,1,0,2.79"/></g></g></svg>