<svg xmlns="http://www.w3.org/2000/svg" xmlns:xlink="http://www.w3.org/1999/xlink" viewBox="0 0 106.35 160.81"><defs><style>.cls-1,.cls-9{fill:none;}.cls-2{clip-path:url(#clip-path);}.cls-3{fill:#83e8d3;}.cls-4{fill:#47d7ac;}.cls-5{fill:#3fd8b1;}.cls-6{fill:#1cb594;}.cls-7{fill:#fff;}.cls-8{fill:#333;}.cls-9{stroke:#333;stroke-linecap:round;stroke-linejoin:round;stroke-width:1.5px;}</style><clipPath id="clip-path" transform="translate(-14.08 -13.9)"><circle class="cls-1" cx="71.42" cy="71.42" r="71.42"/></clipPath></defs><g id="레이어_2" data-name="레이어 2"><g id="Layer_1" data-name="Layer 1"><g class="cls-2"><path class="cls-3" d="M83.62,111.39c.9,1.81,2.87,4.61,3.61,6.3.59,1.32,1.1,2.61,1.56,3.87a21.26,21.26,0,0,0,3,3.09,15.61,15.61,0,0,0,4.06,2.51c5.06,2.11,11.15,2.33,15.39-1.6,4.78-4.42,7-11.5,7.34-17.84.27-4.89,0-14.85-6.46-15.9-1.51-.24-1.25,2.15-2.53,3-3.82,2.47-5.39,7.15-6.49,11.32-.67,2.51-1.69,3.8-1.9,6.38-1.88-1-4.89-2.61-6.75-3.62a2.92,2.92,0,0,0-1.41-.47,2.88,2.88,0,0,0-1.32.44c-1.75.9-4,1-5.75,1.93C85.4,111.07,84.17,111.1,83.62,111.39Z" transform="translate(-14.08 -13.9)"/><path class="cls-4" d="M102.33,114.21a.82.82,0,0,0,.72-.41.84.84,0,0,0-.31-1.13l-7.9-4.51A.83.83,0,1,0,94,109.6l7.9,4.51A.86.86,0,0,0,102.33,114.21Z" transform="translate(-14.08 -13.9)"/><path class="cls-3" d="M69.05,145.24l-.9,22a3.88,3.88,0,0,1,2,3.09q.23,3-4.86,3.19a73.74,73.74,0,0,1-8.94-.15q-4.48-.41-3.47-6.28l-.8-21.89Z" transform="translate(-14.08 -13.9)"/><path class="cls-4" d="M51,145.28l.1,2.71.11,2.95v0l.13,3.55,0,1h0l.43,11.55c-.43,2.51-.14,4.35.85,5.63a4.78,4.78,0,0,0,3.6,1.78c1.75.16,3.65.23,5.68.23,1.1,0,2.23,0,3.4-.06,2.46-.09,4.11-.65,5.06-1.7a3.36,3.36,0,0,0,.66-1.16,3.46,3.46,0,0,0,.18-1.49,4.9,4.9,0,0,0-2-3.59l.33-8,.11-2.57,0-.6v-.16l0-.82,0-.59.27-6.67v0l.08-2a1,1,0,0,0-.07-.43h0a1.07,1.07,0,0,0-1-.69,1.08,1.08,0,0,0-1.12,1v0l-.39,9.29V155a.28.28,0,0,0,0,.09v0h0v.44l-.12,3.11-.35,8.62a1.07,1.07,0,0,0,.52,1,2.83,2.83,0,0,1,1.52,2.27,1.28,1.28,0,0,1-.3,1c-.36.39-1.27.9-3.51,1a73.74,73.74,0,0,1-8.82-.15,2.76,2.76,0,0,1-2.07-.94c-.61-.78-.75-2.14-.44-4a.86.86,0,0,0,0-.28l-.41-10.86,0-.72,0-1-.1-2.7,0-1.48v0l-.19-5.09v0a1.09,1.09,0,0,0-2.17.08Z" transform="translate(-14.08 -13.9)"/><path class="cls-3" d="M88,145.24l-.9,22a3.88,3.88,0,0,1,2,3.09q.23,3-4.86,3.19a73.74,73.74,0,0,1-8.94-.15q-4.48-.41-3.47-6.28l-.8-21.89Z" transform="translate(-14.08 -13.9)"/><path class="cls-4" d="M70,145.28l.07,2v0l.25,6.66,0,.6,0,.83v.15l0,.59.1,2.57.3,8.38c-.07.4-.11.8-.15,1.17a7.27,7.27,0,0,0,.47,3.57,4.29,4.29,0,0,0,.54.91,4.78,4.78,0,0,0,3.6,1.78c1.75.16,3.66.23,5.68.23,1.1,0,2.24,0,3.4-.06,2.46-.09,4.11-.65,5.06-1.7a3.43,3.43,0,0,0,.84-2.65,4.83,4.83,0,0,0-2-3.59l.46-11.2,0-1,0-1.19.13-3.36v0l.13-3.26.07-1.39a1.08,1.08,0,0,0-1-1.13,1.1,1.1,0,0,0-1.13,1v0L86.75,149l-.1,2.5v.26l-.11,2.82v.21l0,.77L86,167.24a1.06,1.06,0,0,0,.53,1,2.82,2.82,0,0,1,1.51,2.27,1.28,1.28,0,0,1-.3,1c-.35.39-1.27.9-3.52,1a73.66,73.66,0,0,1-8.81-.15,2.78,2.78,0,0,1-2.07-.94c-.62-.79-.76-2.17-.42-4.08l0-.22-.32-8.5L72.54,156l0-.52v-.18l0-.8,0-.67-.32-8.62v0a1.09,1.09,0,0,0-1.13-1,1.06,1.06,0,0,0-1,.69h0A.85.85,0,0,0,70,145.28Z" transform="translate(-14.08 -13.9)"/><path class="cls-3" d="M68.74,106.62V99.9H79a155.14,155.14,0,0,1,9.6,18.26c1.77,4,3.92,8.57,4.68,12,2.36,10.36-.88,16.85-7.93,21.14l-7-3.44-3.68,7.06-4.52.15H68.64c-1.14,0-2.26-.11-3.37-.24l-3.78-7.18-7.89,3.65c-.45-.28-.88-.56-1.3-.87q-9.06-6.56-5.75-21.11a61.58,61.58,0,0,1,3.8-11.11l12.44-11.54h5.95" transform="translate(-14.08 -13.9)"/><path class="cls-4" d="M51.24,150.94v0l.13,3.55,0,1h0l.43,11.55v.1a1.08,1.08,0,0,0,.94,1H53a1.07,1.07,0,0,0,1-.84.86.86,0,0,0,0-.28l-.41-10.86,0-.72,0-1-.1-2.7,0-1.48v0a.94.94,0,0,0-.12-.42,1.1,1.1,0,0,0-.29-.36l0,0-.68-.52c-.39-.32-.76-.64-1.12-1-4.25-4.15-5.4-10.22-3.53-18.47a60.56,60.56,0,0,1,3.74-10.92,1.08,1.08,0,1,0-2-.87A62.7,62.7,0,0,0,45.49,129C43.25,138.92,45.18,146.29,51.24,150.94Z" transform="translate(-14.08 -13.9)"/><path class="cls-3" d="M30.17,134.88q2.89-4.44,6.22-8.73A152.5,152.5,0,0,1,54.87,106.4L61.74,110q-5,9.26-8.85,16.16-6.36,11.37-9.72,16.34A21.11,21.11,0,0,1,39,147.26a8.84,8.84,0,0,1-4.7,2.1,6.25,6.25,0,0,1-3.9-1q-6.26-4.43-.22-13.52" transform="translate(-14.08 -13.9)"/><path class="cls-4" d="M33.73,150.47q.33,0,.66,0a10.07,10.07,0,0,0,5.27-2.33,22.21,22.21,0,0,0,4.42-5c2.23-3.31,5.52-8.83,9.76-16.4a1.1,1.1,0,0,0-.42-1.48,1.08,1.08,0,0,0-1.47.42c-4.21,7.52-7.47,13-9.68,16.26a20.22,20.22,0,0,1-4,4.54,8,8,0,0,1-4.11,1.86A5.1,5.1,0,0,1,31,147.5c-1.36-1-5.33-3.86.09-12,1.91-2.92,4-5.83,6.17-8.66a150.94,150.94,0,0,1,18.35-19.6,1.08,1.08,0,0,0-1.45-1.61,153.89,153.89,0,0,0-18.61,19.88c-2.23,2.88-4.34,5.84-6.27,8.81-5.47,8.23-2.75,12.7.5,15l.05,0a7.31,7.31,0,0,0,3.91,1.15" transform="translate(-14.08 -13.9)"/><path class="cls-5" d="M67.57,155a.82.82,0,0,1,.11-.42,1.1,1.1,0,0,1,.95-.59h1.66l1.09,0,1.08,0,2.19-.08a1.08,1.08,0,0,1,1,.75.92.92,0,0,1,0,.52.94.94,0,0,1-.19.46,1.06,1.06,0,0,1-.83.44l-2.18.08-1.08,0-1.09,0H68.61a1.08,1.08,0,0,1-.93-.6.79.79,0,0,1-.1-.27,1,1,0,0,1,0-.17h0v0A.28.28,0,0,1,67.57,155Z" transform="translate(-14.08 -13.9)"/><path class="cls-6" d="M66.15,132.18a9.41,9.41,0,0,1,.75-3.55,8.33,8.33,0,0,1,2-2.95,8.71,8.71,0,0,1,6.5-2.69,9.2,9.2,0,0,1,8.38,5.73,9.09,9.09,0,0,1,.71,3.59v.52l-5,0v-.52a4.21,4.21,0,0,0-1.21-3A4.08,4.08,0,0,0,75.34,128a4.13,4.13,0,0,0-3,1.2,4,4,0,0,0-1.27,3v.49H66.15v-.56" transform="translate(-14.08 -13.9)"/><path class="cls-7" d="M77.59,25.46a17.46,17.46,0,0,1,4.6-8.4q4.36-3.9,8-.35a8.45,8.45,0,0,1,1.21,1.42,31,31,0,0,1,4.48,14.53c0,.28.05.57.08.85v.14c0,.23,0,.46,0,.69s0,.57,0,.85q0,.9,0,1.83c-.62.16-1.25.31-1.88.44l-1.35.25-.6.1h-.14a32.11,32.11,0,0,1-11.12-.48l-.13,0-.25-.05c-1.17-.28-2.34-.62-3.53-1-.11-.92-.19-1.83-.23-2.71a.66.66,0,0,0,0-.28c0-.09,0-.18,0-.27a28.16,28.16,0,0,1,.81-7.53" transform="translate(-14.08 -13.9)"/><path class="cls-4" d="M95.92,35.44a1.09,1.09,0,0,1-1.09-1.06v-.69l-.08-.94a29.93,29.93,0,0,0-4.3-14,7.15,7.15,0,0,0-1.07-1.26c-1.34-1.32-3.29-2.47-6.44.35a16.43,16.43,0,0,0-4.32,7.89A27.27,27.27,0,0,0,77.84,33v.2a1.67,1.67,0,0,1,0,.59,1.08,1.08,0,0,1-2.14-.33V33a29.43,29.43,0,0,1,.84-7.81,18.68,18.68,0,0,1,4.93-8.95c4.24-3.78,7.47-2.26,9.42-.35a9.85,9.85,0,0,1,1.39,1.64,32.23,32.23,0,0,1,4.65,15l.08.86v.07l0,.83a1.09,1.09,0,0,1-1.06,1.11h0" transform="translate(-14.08 -13.9)"/><path class="cls-7" d="M24.23,42.18q.46-.61,1-1.2A46.12,46.12,0,0,1,51,24.89a80.35,80.35,0,0,1,10.65-1.58c.85-.09,1.67-.14,2.48-.16,1.85-.06,3.69,0,5.5.06a.67.67,0,0,1,.31.07.69.69,0,0,1,.35,0,1.53,1.53,0,0,0,.3,0A60.27,60.27,0,0,1,92,29.19q14.58,7.31,19.22,21.91a3.1,3.1,0,0,1,.15.46q.44,1.34.78,2.79a4.21,4.21,0,0,1,.09.49l0,.13a53.72,53.72,0,0,1,1.24,12.44,31.09,31.09,0,0,0,.8,8.35,33.3,33.3,0,0,1,1.37,10.77c0,.81-.13,1.59-.25,2.36a1.55,1.55,0,0,1-.06.4A8.2,8.2,0,0,1,115,91a19.1,19.1,0,0,1-1.57,4.09c-.27.47-.56.94-.87,1.39a.6.6,0,0,1-.19.28,20.67,20.67,0,0,1-6.15,6,30.21,30.21,0,0,1-2.85,1.7c-.87.48-1.78.94-2.73,1.4a62,62,0,0,1-22.87,5.66l-1.67.12a83.28,83.28,0,0,1-10.12.13q-.47-.06-1-.09c-1.48-.11-3-.24-4.48-.41q-3.19-.41-6.13-.93-.37-.09-.78-.15a65.51,65.51,0,0,1-11.76-3.53l-.21-.09a50.22,50.22,0,0,1-8.51-4.64c-.44-.31-.87-.63-1.3-1a41.35,41.35,0,0,1-9.63-10.25,45.94,45.94,0,0,1-5-10.36,43.62,43.62,0,0,1-2.08-12.82,38.55,38.55,0,0,1,2.05-12.19,43.81,43.81,0,0,1,3.4-7.61c.33-.58.67-1.14,1-1.71s.55-.91.84-1.36l.68-.93a5,5,0,0,1,.56-.8,5.64,5.64,0,0,0,.52-.75" transform="translate(-14.08 -13.9)"/><path class="cls-4" d="M14.08,67.52A45,45,0,0,0,16.2,80.67,47.72,47.72,0,0,0,21.31,91.3a42.65,42.65,0,0,0,9.88,10.53l1.32,1a51,51,0,0,0,8.72,4.75l.21.09a65.54,65.54,0,0,0,12,3.6c.28.05.5.09.73.15h.07c2,.35,4,.67,6.18.94,1.53.16,3.05.3,4.54.4.32,0,.61.05.89.09h.09c1.37.07,2.74.1,4.1.1q3.11,0,6.16-.23l1.67-.12a69.07,69.07,0,0,0,9-1.13,62.1,62.1,0,0,0,9.68-2.72c1.56-.57,3.1-1.22,4.6-1.92,1-.46,1.9-.94,2.78-1.41,1-.55,2-1.15,2.93-1.76a22,22,0,0,0,6.41-6.2,1.72,1.72,0,0,0,.3-.44c.29-.45.58-.91.84-1.37A19.71,19.71,0,0,0,116,91.33a9.44,9.44,0,0,0,.41-1.84,2.23,2.23,0,0,0,.07-.5,22.91,22.91,0,0,0,.25-2.4,34.37,34.37,0,0,0-1.4-11.1,30.58,30.58,0,0,1-.77-8.06,56,56,0,0,0-1.24-12.63l0-.22c0-.17-.06-.33-.1-.49-.23-1-.49-1.93-.78-2.83a4.12,4.12,0,0,0-.18-.53c-3.18-10-9.83-17.54-19.76-22.52a62.15,62.15,0,0,0-21.78-6l-.18,0a2.22,2.22,0,0,0-.45,0,1.9,1.9,0,0,0-.41,0C67.89,22,66,22,64.12,22.07c-.83,0-1.68.07-2.55.16A84.48,84.48,0,0,0,50.8,23.82,47.43,47.43,0,0,0,24.36,40.29c-.34.4-.67.82-1,1.25l-.07.1a5.22,5.22,0,0,1-.43.6,6.56,6.56,0,0,0-.63.9L21.6,44l0,.06c-.3.46-.58.91-.86,1.38s-.69,1.15-1,1.73A45.7,45.7,0,0,0,16.18,55,39.77,39.77,0,0,0,14.08,67.52Zm2.16,0a37.29,37.29,0,0,1,2-11.83,42.5,42.5,0,0,1,3.32-7.43q.48-.84,1-1.68c.26-.44.53-.87.82-1.31l.65-.9.07-.1a5.19,5.19,0,0,1,.45-.64,10.18,10.18,0,0,0,.6-.84c.28-.38.57-.75.88-1.12A45.4,45.4,0,0,1,51.27,25.94a80,80,0,0,1,10.51-1.55q1.23-.12,2.4-.15c1.83-.06,3.65,0,5.43.06a1,1,0,0,0,.35.06l.19,0a1.81,1.81,0,0,0,.43.05,59.75,59.75,0,0,1,21,5.78c9.38,4.69,15.67,11.86,18.65,21.26l0,.1a2.11,2.11,0,0,1,.1.3l0,.07c.29.85.53,1.76.75,2.69a3.63,3.63,0,0,1,.07.39l0,.19v0a53.26,53.26,0,0,1,1.22,12.19,31.55,31.55,0,0,0,.84,8.62v0a32,32,0,0,1,1.32,10.43,22.42,22.42,0,0,1-.23,2.23l0,.17,0,.12,0,.18a6.91,6.91,0,0,1-.32,1.5l0,.07a18,18,0,0,1-1.49,3.85c-.23.42-.52.86-.8,1.29l-.09.16-.11.14a20,20,0,0,1-5.85,5.66,30.45,30.45,0,0,1-2.76,1.64c-.85.48-1.75.94-2.69,1.38a61.37,61.37,0,0,1-22.46,5.56l-1.69.13a82.4,82.4,0,0,1-9.94.12q-.48-.06-1-.09c-1.46-.1-3-.24-4.44-.41-2.06-.26-4.1-.56-6-.91-.26-.06-.54-.12-.83-.16a63.72,63.72,0,0,1-11.51-3.46l-.21-.09A50.16,50.16,0,0,1,33.76,101l-1.26-.93a40.81,40.81,0,0,1-9.38-10A45,45,0,0,1,18.27,80,42.49,42.49,0,0,1,16.24,67.52Z" transform="translate(-14.08 -13.9)"/><path class="cls-7" d="M31.13,28.66a17.57,17.57,0,0,1,.59-9.56q2.3-5.39,7.06-3.72a8.42,8.42,0,0,1,1.7.78A31.4,31.4,0,0,1,50.76,27.39c.12.25.26.49.4.74l.06.13.34.62c.12.24.25.49.37.74.28.54.55,1.08.81,1.64-.5.42-1,.82-1.52,1.21l-1.11.8-.5.31-.12.09A31.91,31.91,0,0,1,39.21,38l-.12,0-.25.06c-1.18.25-2.38.44-3.62.59-.49-.78-.93-1.57-1.33-2.35l-.25-.5a28.39,28.39,0,0,1-2.51-7.15" transform="translate(-14.08 -13.9)"/><path class="cls-4" d="M33.87,37.39a1.16,1.16,0,0,0,.48-.11,1.08,1.08,0,0,0,.49-1.45l-.24-.5a27.52,27.52,0,0,1-2.4-6.88,16.52,16.52,0,0,1,.54-9c1.66-3.89,3.91-3.69,5.68-3.06a7.36,7.36,0,0,1,1.51.68A30.27,30.27,0,0,1,49.8,27.93l.39.7.07.14c.12.2.22.4.32.59a1.08,1.08,0,1,0,1.93-1c-.11-.22-.22-.44-.34-.65l0-.07,0-.06-.43-.76A32.44,32.44,0,0,0,41.06,15.24a9.47,9.47,0,0,0-2-.89c-2.57-.9-6.15-.9-8.37,4.32a18.68,18.68,0,0,0-.66,10.2,29.42,29.42,0,0,0,2.59,7.42l.24.49a1.07,1.07,0,0,0,1,.61" transform="translate(-14.08 -13.9)"/><path class="cls-3" d="M16.77,56.73c.14-.46.28-.93.44-1.39.3-.9.65-1.8,1-2.69a.77.77,0,0,1,.54-1.45A49.58,49.58,0,0,1,38,63.41c2.68,2.79,4.19,5.2,4.64,7.38a17.6,17.6,0,0,1-.31,7.32c-.21.75-.44,1.5-.69,2.2a59.46,59.46,0,0,1-8.37,15.86,42.63,42.63,0,0,1-3,3.6.77.77,0,0,1-.58.26.78.78,0,0,1-.51-.2.76.76,0,0,1-.06-1.09v0a40.92,40.92,0,0,1-6.94-8,45.94,45.94,0,0,1-5-10.36,43.62,43.62,0,0,1-2.08-12.82A38.54,38.54,0,0,1,16.77,56.73Z" transform="translate(-14.08 -13.9)"/><path class="cls-4" d="M29.72,100.34a1.1,1.1,0,0,0,.83-.38,1.08,1.08,0,0,0-.12-1.53,40.86,40.86,0,0,1-7.31-8.31A45.3,45.3,0,0,1,18.26,80a42.77,42.77,0,0,1-2-12.47A37.78,37.78,0,0,1,17.8,57c.13-.45.28-.9.43-1.36.38-1.1.81-2.22,1.28-3.31v0c.06-.16.13-.31.2-.46a1.09,1.09,0,0,0-2-.89l-.23.53c-.5,1.15-.95,2.32-1.34,3.48-.16.48-.31.95-.46,1.42a40.07,40.07,0,0,0-1.64,11.12A45,45,0,0,0,16.2,80.67,47.08,47.08,0,0,0,21.31,91.3,42.51,42.51,0,0,0,29,100.07a1.06,1.06,0,0,0,.7.27" transform="translate(-14.08 -13.9)"/><path class="cls-8" d="M91.52,75.05a10.7,10.7,0,0,1-1.15-5.17,10.87,10.87,0,0,1,1.15-5.19c.76-1.43,1.69-2.14,2.78-2.14s2,.71,2.79,2.14a10.75,10.75,0,0,1,1.17,5.19,10.59,10.59,0,0,1-1.17,5.17c-.77,1.47-1.7,2.2-2.79,2.2s-2-.73-2.78-2.2" transform="translate(-14.08 -13.9)"/><path class="cls-3" d="M92.47,55.88l0,0a2,2,0,0,1-1.65-.27,1.93,1.93,0,0,1-1-1.29,2.27,2.27,0,0,1,.2-1.7,2,2,0,0,1,1.2-1l8.1-2.3a2.2,2.2,0,0,1,1.61.2,2.22,2.22,0,0,1,1,1.36,2,2,0,0,1-.17,1.63,2.13,2.13,0,0,1-1.08,1l-.15.05-8,2.29" transform="translate(-14.08 -13.9)"/><path class="cls-4" d="M91.86,56.8a2.86,2.86,0,0,1-1.49-.44A2.74,2.74,0,0,1,89,54.6a3,3,0,0,1,.25-2.27,2.82,2.82,0,0,1,1.68-1.41L99,48.61a2.89,2.89,0,0,1,2.2.29,3,3,0,0,1,1.39,1.81,2.83,2.83,0,0,1-.24,2.21A2.9,2.9,0,0,1,101,54.26a1.17,1.17,0,0,1-.33.11l-7.86,2.25-.16.07a2.78,2.78,0,0,1-.75.11m.68-.12Zm.46-.24h0Zm-.73-1.28,8-2.29.06,0h0a1.38,1.38,0,0,0,.7-.67,1.32,1.32,0,0,0,.11-1,1.45,1.45,0,0,0-.67-.89,1.34,1.34,0,0,0-1-.14l-8.06,2.3a1.24,1.24,0,0,0-.76.64,1.5,1.5,0,0,0-.14,1.14,1.2,1.2,0,0,0,.63.81l.08,0a1.19,1.19,0,0,0,.91.2Zm7.93-2.24h0Z" transform="translate(-14.08 -13.9)"/><path class="cls-8" d="M68.46,69.88a10.48,10.48,0,0,1-1.18,5.17c-.76,1.47-1.69,2.2-2.78,2.2s-2-.73-2.79-2.2a10.59,10.59,0,0,1-1.17-5.17,10.75,10.75,0,0,1,1.17-5.19c.76-1.43,1.69-2.14,2.79-2.14s2,.71,2.78,2.14a10.64,10.64,0,0,1,1.18,5.19" transform="translate(-14.08 -13.9)"/><path class="cls-3" d="M57.53,50.48a2.16,2.16,0,0,1,1.58-.37l8.3,1.45a2.08,2.08,0,0,1,1.3.9,2.26,2.26,0,0,1,.37,1.67,2,2,0,0,1-.9,1.39,1.94,1.94,0,0,1-1.61.44l-.06,0-8.2-1.46-.16,0a2.13,2.13,0,0,1-1.17-.9,2.06,2.06,0,0,1-.34-1.61,2.24,2.24,0,0,1,.89-1.45" transform="translate(-14.08 -13.9)"/><path class="cls-4" d="M66.92,56.76a2.77,2.77,0,0,1-.49,0l-.16,0-8-1.43a1,1,0,0,1-.34-.07A2.93,2.93,0,0,1,56.34,54a2.82,2.82,0,0,1-.47-2.18,3,3,0,0,1,1.22-1.95,2.88,2.88,0,0,1,2.16-.5l8.32,1.46A2.76,2.76,0,0,1,69.35,52a3,3,0,0,1,.49,2.22,3.11,3.11,0,0,1-2.92,2.5m-.41-.06Zm0,0h0ZM66,56.51ZM58,51.1a1.44,1.44,0,0,0-.6,1,1.36,1.36,0,0,0,.21,1,1.42,1.42,0,0,0,.77.59h.06l8.17,1.45.2.05a1.18,1.18,0,0,0,.89-.29l.07-.05a1.21,1.21,0,0,0,.55-.87,1.55,1.55,0,0,0-.26-1.12,1.22,1.22,0,0,0-.79-.55L59,50.87h-.23A1.3,1.3,0,0,0,58,51.1Zm.5,2.65Z" transform="translate(-14.08 -13.9)"/><path class="cls-3" d="M108.93,67.24a53.38,53.38,0,0,1,3.54-7.53.77.77,0,0,1,1-.32.78.78,0,0,1,.32,1l-.54,1q.25,2.86.23,5.92a30.45,30.45,0,0,0,.8,8.35c.25.91.46,1.79.64,2.66.3.4.61.79.93,1.2a.76.76,0,0,1-.13,1.08.72.72,0,0,1-.48.17.77.77,0,0,1-.61-.3c-1.91-2.43-3.5-4.52-4.72-6.23A7.48,7.48,0,0,1,108.93,67.24Z" transform="translate(-14.08 -13.9)"/><path class="cls-4" d="M115.28,81.15h.18a1.09,1.09,0,0,0,.89-1.25,41.87,41.87,0,0,0-1-4.43,29.8,29.8,0,0,1-.77-8,58.17,58.17,0,0,0-.38-7.47,1.06,1.06,0,0,0-1.2-1,1.08,1.08,0,0,0-1,1.2,57.49,57.49,0,0,1,.37,7.18,32,32,0,0,0,.83,8.64,39.1,39.1,0,0,1,.94,4.22,1.09,1.09,0,0,0,1.07.91" transform="translate(-14.08 -13.9)"/><path class="cls-9" d="M86.86,86.72s-2.92,5.2-8,0" transform="translate(-14.08 -13.9)"/><path class="cls-3" d="M105.75,128.56a11.35,11.35,0,0,0,6-2.9c4.78-4.42,7-11.5,7.34-17.84.27-4.89,0-14.85-6.46-15.9A6.34,6.34,0,0,0,108.25,93c-3.82,2.47-5.39,7.15-6.49,11.32a41.92,41.92,0,0,0-1.14,7c0,.24-.05.48-.06.72l-.52-.28C99.56,114,97.79,124.82,105.75,128.56Z" transform="translate(-14.08 -13.9)"/><path class="cls-4" d="M102.91,130.3c6,0,8.49-2.3,8.9-2.72,6.78-5.48,8.26-14.62,8.54-19.59.34-6.08-.19-16.47-7.62-17.66a6.84,6.84,0,0,0-4.9,1.4c-4.36,2.77-6.17,7.75-7.37,12.26a100.92,100.92,0,0,0-1.75,12.32.83.83,0,1,0,1.65.14,100.64,100.64,0,0,1,1.69-12c1.12-4.2,2.79-8.82,6.66-11.29A5.3,5.3,0,0,1,112.47,92c6.38,1,6.48,11.49,6.23,15.94-.45,8-3.35,14.72-8,18.43l-.1.09s-2.27,2.34-8.19,2.23c-4.17-.09-7-1.37-10.07-4.57a.83.83,0,0,0-1.2,1.14c3.38,3.51,6.64,5,11.23,5.08Z" transform="translate(-14.08 -13.9)"/><path class="cls-4" d="M85.26,152.7a.83.83,0,0,0,.34-.07,17.33,17.33,0,0,0,9.59-12.75c1.64-9.17-5.68-22.86-6-23.44a.87.87,0,0,0-1.2-.36.89.89,0,0,0-.36,1.2c.08.14,7.34,13.73,5.81,22.29A15.52,15.52,0,0,1,84.91,151a.89.89,0,0,0,.35,1.71Z" transform="translate(-14.08 -13.9)"/></g></g></g></svg>