<svg xmlns="http://www.w3.org/2000/svg" xmlns:xlink="http://www.w3.org/1999/xlink" viewBox="0 0 157.57 219.42"><defs><style>.cls-1{fill:none;clip-rule:evenodd;}.cls-2{isolation:isolate;}.cls-3{fill:#83e8d3;}.cls-4{fill:#47d7ac;}.cls-5{fill:#927875;}.cls-6{fill:#7c6563;}.cls-7{fill:#fff;}.cls-8{fill:#d7d7d7;}.cls-9{fill:#ffaeae;}.cls-10{fill:#fcc5c5;}.cls-11{fill:#f3a5a4;}.cls-12{fill:#f9f9f9;}.cls-12,.cls-13,.cls-15,.cls-16{fill-rule:evenodd;}.cls-13,.cls-17{fill:#ff808c;}.cls-14{clip-path:url(#clip-path);}.cls-15{fill:#f86d7a;}.cls-16{fill:#d4d4d4;opacity:0.25;mix-blend-mode:multiply;}</style><clipPath id="clip-path"><path id="SVGID" class="cls-1" d="M32.4,107.46H60.18a9.88,9.88,0,0,1,9.3,6.52H23.1A9.9,9.9,0,0,1,32.4,107.46Z"/></clipPath></defs><g class="cls-2"><g id="레이어_2" data-name="레이어 2"><g id="레이어_1-2" data-name="레이어 1"><g id="Layer3_2_MEMBER_0_FILL" data-name="Layer3 2 MEMBER 0 FILL"><path class="cls-3" d="M18.22,156.28a9.65,9.65,0,0,0-.48,6.72,9.39,9.39,0,0,0,3.74,5.52,6.7,6.7,0,0,0,10.34-2.74,9.55,9.55,0,0,0,.51-6.72,9.34,9.34,0,0,0-3.78-5.53,6.6,6.6,0,0,0-5.8-1.11A6.77,6.77,0,0,0,18.22,156.28Z"/></g><g id="Layer3_2_MEMBER_0_1_STROKES" data-name="Layer3 2 MEMBER 0 1 STROKES"><path class="cls-4" d="M25.62,171.34a8.43,8.43,0,0,1-4.94-1.68,10.84,10.84,0,0,1-4.29-6.3A11.15,11.15,0,0,1,17,155.7a8.16,8.16,0,0,1,5.45-4.63,8,8,0,0,1,7,1.32,10.79,10.79,0,0,1,4.33,6.31,11,11,0,0,1-.6,7.67,8.14,8.14,0,0,1-5.35,4.69A8.56,8.56,0,0,1,25.62,171.34Zm-1.09-17.78a5.64,5.64,0,0,0-5.06,3.32,8.32,8.32,0,0,0-.39,5.76,8,8,0,0,0,3.19,4.74,5.47,5.47,0,0,0,4.74,1,5.36,5.36,0,0,0,3.54-3.17,8.17,8.17,0,0,0,.44-5.78,8,8,0,0,0-3.23-4.74A5.52,5.52,0,0,0,24.53,153.56Z"/></g><g id="Layer3_2_MEMBER_1_FILL" data-name="Layer3 2 MEMBER 1 FILL"><path class="cls-3" d="M123.24,178.7q1-27.34-10.82-56.3H71.54l-7.79,56.3Z"/></g><g id="Layer3_2_MEMBER_1_1_STROKES" data-name="Layer3 2 MEMBER 1 1 STROKES"><path class="cls-4" d="M123.24,180.1H63.75a1.39,1.39,0,0,1-1-.48,1.36,1.36,0,0,1-.33-1.11l7.79-56.3a1.4,1.4,0,0,1,1.38-1.2h40.88a1.41,1.41,0,0,1,1.29.86c7.94,19.39,11.61,38.53,10.92,56.89A1.4,1.4,0,0,1,123.24,180.1Zm-57.9-2.79h56.55c.44-17.27-3-35.27-10.41-53.52H72.75Z"/></g><g id="Layer3_2_MEMBER_2_FILL" data-name="Layer3 2 MEMBER 2 FILL"><path class="cls-3" d="M91.54,214.18c.29-2.05-.18-3.54-1.43-4.5l1.11-30.34H68.4l2.15,30.54a5,5,0,0,0-2.63,4q-.27,3.85,6.25,4.09a92.05,92.05,0,0,0,11.73-.24Q91.11,217.25,91.54,214.18Z"/></g><g id="Layer3_2_MEMBER_2_1_STROKES" data-name="Layer3 2 MEMBER 2 1 STROKES"><path class="cls-4" d="M78.35,219.42c-1.37,0-2.78,0-4.24-.08-3.15-.11-5.27-.83-6.49-2.18a4.46,4.46,0,0,1-1.09-3.4,6.24,6.24,0,0,1,2.57-4.58L67,179.44A1.39,1.39,0,0,1,68.4,178H91.22a1.38,1.38,0,0,1,1.4,1.44l-1.09,29.69a6,6,0,0,1,1.39,5.29c-.27,1.9-1.69,4.25-6.9,4.73C83.67,219.32,81.1,219.42,78.35,219.42Zm-8.46-38.69,2,29.05a1.37,1.37,0,0,1-.67,1.29,3.64,3.64,0,0,0-2,2.92,1.64,1.64,0,0,0,.38,1.31c.47.52,1.63,1.16,4.53,1.26a91.11,91.11,0,0,0,11.55-.23c2.73-.25,4.21-1,4.4-2.35.28-2-.38-2.79-.91-3.19a1.42,1.42,0,0,1-.54-1.16l1.06-28.9Z"/></g><g id="Layer3_2_MEMBER_3_FILL" data-name="Layer3 2 MEMBER 3 FILL"><path class="cls-3" d="M114.77,209.88l2.14-30.54H94.09l1.11,30.34c-1.24,1-1.72,2.45-1.43,4.5s2.17,3.22,5.65,3.53a92,92,0,0,0,11.73.24c4.34-.16,6.43-1.52,6.24-4.09A5,5,0,0,0,114.77,209.88Z"/></g><g id="Layer3_2_MEMBER_3_1_STROKES" data-name="Layer3 2 MEMBER 3 1 STROKES"><path class="cls-4" d="M107,219.42c-2.76,0-5.33-.1-7.68-.32-5.21-.48-6.63-2.83-6.9-4.73a6,6,0,0,1,1.4-5.29L92.7,179.39a1.35,1.35,0,0,1,.39-1,1.38,1.38,0,0,1,1-.42h22.82a1.39,1.39,0,0,1,1.39,1.49l-2.09,29.74a6.22,6.22,0,0,1,2.57,4.55,4.45,4.45,0,0,1-1.09,3.43c-1.22,1.35-3.34,2.07-6.49,2.18C109.75,219.4,108.33,219.42,107,219.42ZM95.53,180.73l1.06,28.9a1.39,1.39,0,0,1-.54,1.16c-.53.4-1.19,1.17-.9,3.19.18,1.31,1.66,2.1,4.39,2.35a91.27,91.27,0,0,0,11.56.23c2.89-.1,4.05-.74,4.52-1.26A1.64,1.64,0,0,0,116,214a3.6,3.6,0,0,0-2-2.89,1.37,1.37,0,0,1-.67-1.29l2-29.05Z"/></g><g id="Layer3_2_MEMBER_4_MEMBER_0_FILL" data-name="Layer3 2 MEMBER 4 MEMBER 0 FILL"><path class="cls-5" d="M81.28,134.88H73.69a90.24,90.24,0,0,0-4.06,24.46h8A136.29,136.29,0,0,1,81.28,134.88Z"/></g><g id="Layer3_2_MEMBER_4_MEMBER_0_1_STROKES" data-name="Layer3 2 MEMBER 4 MEMBER 0 1 STROKES"><path class="cls-6" d="M77.59,160.73h-8a1.42,1.42,0,0,1-1-.42,1.4,1.4,0,0,1-.39-1,92.12,92.12,0,0,1,4.12-24.83,1.4,1.4,0,0,1,1.33-1h7.59a1.39,1.39,0,0,1,1.36,1.72A135.37,135.37,0,0,0,79,159.42,1.39,1.39,0,0,1,77.59,160.73ZM71.08,158h5.2a137.48,137.48,0,0,1,3.24-21.67h-4.8A88.61,88.61,0,0,0,71.08,158Z"/></g><g id="Layer3_2_MEMBER_4_MEMBER_1_FILL" data-name="Layer3 2 MEMBER 4 MEMBER 1 FILL"><path class="cls-5" d="M112.26,135h-6.68q-3.42,12-2.94,18.61H66.93l-11.14,6.92L61,169.4a226.77,226.77,0,0,0-3.26,34.2q14,3.5,50,3.42,12.84-.24,19.88-4.22a222.27,222.27,0,0,0-2.55-34Q105.43,163.92,112.26,135Z"/></g><g id="Layer3_2_MEMBER_4_MEMBER_1_1_STROKES" data-name="Layer3 2 MEMBER 4 MEMBER 1 1 STROKES"><path class="cls-6" d="M106.27,208.41c-23.24,0-39.66-1.16-48.83-3.46a1.41,1.41,0,0,1-1-1.38,229.41,229.41,0,0,1,3.19-33.9l-5-8.39a1.39,1.39,0,0,1,.46-1.89l11.13-6.92a1.38,1.38,0,0,1,.74-.21h34.26c0-4.42,1-10.2,3-17.6a1.39,1.39,0,0,1,1.34-1h6.68a1.39,1.39,0,0,1,1.09.53,1.36,1.36,0,0,1,.26,1.18c-4.38,18.53-.5,29,11.87,32.13a1.39,1.39,0,0,1,1,1.15,224.9,224.9,0,0,1,2.56,34.17,1.36,1.36,0,0,1-.71,1.2c-4.87,2.76-11.78,4.24-20.54,4.4ZM59.2,202.5c9.35,2.13,25.72,3.19,48.6,3.13,7.85-.15,14.07-1.38,18.5-3.66a222.86,222.86,0,0,0-2.4-32C111,166.28,106.53,155,110.52,136.43h-3.88c-2,7.36-2.91,13.11-2.61,17.12a1.39,1.39,0,0,1-1.39,1.49H67.33l-9.64,6,4.55,7.66a1.36,1.36,0,0,1,.17.95A227.61,227.61,0,0,0,59.2,202.5Z"/></g><g id="Layer3_2_MEMBER_4_MEMBER_2_MEMBER_0_FILL" data-name="Layer3 2 MEMBER 4 MEMBER 2 MEMBER 0 FILL"><path class="cls-7" d="M96.59,172.1a2.34,2.34,0,0,0,1.71.72H109a2.46,2.46,0,0,0,2.39-2.39v-1.59a2.34,2.34,0,0,0-.72-1.71,2.27,2.27,0,0,0-1.67-.67H98.3a2.29,2.29,0,0,0-2.38,2.38v1.59A2.25,2.25,0,0,0,96.59,172.1Z"/></g><g id="Layer3_2_MEMBER_4_MEMBER_2_MEMBER_0_1_STROKES" data-name="Layer3 2 MEMBER 4 MEMBER 2 MEMBER 0 1 STROKES"><path class="cls-8" d="M109,174.21H98.3a3.75,3.75,0,0,1-2.69-1.12,3.68,3.68,0,0,1-1.08-2.66v-1.59a3.8,3.8,0,0,1,1-2.66,3.84,3.84,0,0,1,2.72-1.11H109a3.65,3.65,0,0,1,2.65,1.08,3.72,3.72,0,0,1,1.13,2.69v1.59a3.64,3.64,0,0,1-1.15,2.69A3.6,3.6,0,0,1,109,174.21ZM98.3,167.85a1,1,0,0,0-.75.29,1,1,0,0,0-.24.7v1.59a.88.88,0,0,0,.27.69.92.92,0,0,0,.72.31H109a.82.82,0,0,0,.66-.28.91.91,0,0,0,.33-.72v-1.59a.94.94,0,0,0-.3-.72.9.9,0,0,0-.69-.27Z"/></g><g id="_11_0_Layer0_0_1_STROKES" data-name="   11 0 Layer0 0 1 STROKES"><path class="cls-9" d="M9.55,73.63a5,5,0,0,0-2.77.85,5.14,5.14,0,0,0-2.27,3.37h0a4.92,4.92,0,0,0,.62,3.75,8,8,0,0,0,3.83,3,19.1,19.1,0,0,0,10.55.88l.5-.1h0a5.19,5.19,0,0,0,.36-.46c2.23-3.53,3.35-6.88,3.32-9.94a7.78,7.78,0,0,0-1.14-4.77,5,5,0,0,0-3.16-2,5,5,0,0,0-4,.72,5.14,5.14,0,0,0-2.27,3.37A5.75,5.75,0,0,0,13,74a.39.39,0,0,1-.18.39.42.42,0,0,1-.43,0,4.13,4.13,0,0,0-1.65-.64A5.14,5.14,0,0,0,9.55,73.63ZM19.93,85.49Zm0-.08Zm.27-.13ZM4.12,77.77h0Z"/></g><g id="_11_0_Layer0_0_1_STROKES-2" data-name="   11 0 Layer0 0 1 STROKES"><path class="cls-9" d="M3.11,55a3,3,0,0,0-.66.07A3,3,0,0,0,.5,56.43h0a2.86,2.86,0,0,0-.45,2.16A4.6,4.6,0,0,0,1.5,61,11.11,11.11,0,0,0,7,63.71l.29,0h0a1.75,1.75,0,0,0,.29-.18,10.79,10.79,0,0,0,3.9-4.68,4.6,4.6,0,0,0,.4-2.83,2.92,2.92,0,0,0-1.29-1.77,2.86,2.86,0,0,0-2.31-.45,3,3,0,0,0-1.94,1.34,3.39,3.39,0,0,0-.45,1,.21.21,0,0,1-.18.17.23.23,0,0,1-.23-.1,2.39,2.39,0,0,0-.75-.69A2.87,2.87,0,0,0,3.11,55ZM.31,56.3h0Z"/></g><g id="Layer3_2_MEMBER_6_MEMBER_0_FILL" data-name="Layer3 2 MEMBER 6 MEMBER 0 FILL"><path class="cls-7" d="M58.82,18a11.88,11.88,0,0,0-2.19-1q-6.14-2.12-9.07,4.81A22.25,22.25,0,0,0,46.81,34a38.36,38.36,0,0,0,5.25,12.88,41.37,41.37,0,0,0,22.5-9.5Q68.28,23.94,58.82,18Z"/></g><g id="Layer3_2_MEMBER_6_MEMBER_0_1_STROKES" data-name="Layer3 2 MEMBER 6 MEMBER 0 1 STROKES"><path class="cls-4" d="M52.06,48.31a1.4,1.4,0,0,1-1.19-.65,40.53,40.53,0,0,1-5.43-13.33,23.84,23.84,0,0,1,.81-13c2.88-6.78,7.48-6.8,10.83-5.64a12.29,12.29,0,0,1,2.44,1.14c6.55,4.09,12,10.82,16.3,20a1.38,1.38,0,0,1-.36,1.65,43,43,0,0,1-23.24,9.83Zm1.85-30.43c-1.75,0-3.59,1-5.07,4.45a21,21,0,0,0-.67,11.45,37.08,37.08,0,0,0,4.61,11.65A40.19,40.19,0,0,0,72.84,37c-4-8.19-8.94-14.19-14.76-17.84a10.41,10.41,0,0,0-1.88-.87A7,7,0,0,0,53.91,17.88Z"/></g><g id="Layer3_2_MEMBER_6_MEMBER_1_FILL" data-name="Layer3 2 MEMBER 6 MEMBER 1 FILL"><path class="cls-7" d="M138.51,34.16a22.58,22.58,0,0,0-.76-12.29q-2.94-6.91-9.07-4.77a10.31,10.31,0,0,0-2.18,1Q117,24,110.75,37.5A41.37,41.37,0,0,0,133.26,47,38.84,38.84,0,0,0,138.51,34.16Z"/></g><g id="Layer3_2_MEMBER_6_MEMBER_1_1_STROKES" data-name="Layer3 2 MEMBER 6 MEMBER 1 1 STROKES"><path class="cls-4" d="M133.26,48.39h-.16a42.89,42.89,0,0,1-23.25-9.82,1.38,1.38,0,0,1-.36-1.65c4.28-9.19,9.76-15.92,16.27-20a12.09,12.09,0,0,1,2.51-1.14c3.31-1.16,7.91-1.15,10.76,5.56a24,24,0,0,1,.84,13.1,40.18,40.18,0,0,1-5.43,13.31A1.4,1.4,0,0,1,133.26,48.39ZM112.47,37.11a40.19,40.19,0,0,0,20.07,8.4,36.9,36.9,0,0,0,4.6-11.63,21.22,21.22,0,0,0-.7-11.54c-2.13-5-5-4.73-7.3-3.93a9.68,9.68,0,0,0-1.94.88C121.41,22.92,116.45,28.92,112.47,37.11Z"/></g><g id="Layer3_2_MEMBER_7_MEMBER_0_FILL" data-name="Layer3 2 MEMBER 7 MEMBER 0 FILL"><path class="cls-7" d="M93.73,25.57H92.5a77.08,77.08,0,0,0-27.92,5.65q-18.4,7.86-25.69,25.33a66.28,66.28,0,0,0-4.73,22.94,40.49,40.49,0,0,1-1.63,10.9q-7.79,23.7,8.67,36.14A36.79,36.79,0,0,0,44.82,129a.56.56,0,0,0,.2.12c1,.66,2.11,1.3,3.22,1.91a79.73,79.73,0,0,0,29.11,9.34l2.18.24a95.33,95.33,0,0,0,13,1h1.23a95.06,95.06,0,0,0,13-1l2.19-.24a84.66,84.66,0,0,0,12.88-2.62A78.63,78.63,0,0,0,138,131c1.16-.64,2.3-1.32,3.42-2a38,38,0,0,0,3.62-2.43q16.46-12.44,8.67-36.14a40.1,40.1,0,0,1-1.63-10.9q-.65-15-6-25.81-7.56-15.27-24.42-22.46A77,77,0,0,0,93.73,25.57Z"/></g><path class="cls-3" d="M151.87,119.41q7.59-11.39,1.83-29a40.1,40.1,0,0,1-1.63-10.9c-.09-2-.26-3.9-.47-5.77l.53-.49a1,1,0,1,0-1.32-1.48,68,68,0,0,0-9.76,10.56c-2.93,3.86-3.68,9-2.23,15.34.27,1,.57,1.93.89,2.84a76.49,76.49,0,0,0,10.76,20.38,1,1,0,0,0,.8.41,1,1,0,0,0,.59-.19,1,1,0,0,0,.21-1.39C152,119.61,151.94,119.51,151.87,119.41Z"/><path class="cls-3" d="M45.22,82.32a69,69,0,0,0-9.8-10.61,1,1,0,0,0-1.32,1.48l.53.49c-.22,1.88-.38,3.8-.47,5.81a40.49,40.49,0,0,1-1.63,10.9Q26.71,108,34.4,119.45l-.21.3a1,1,0,0,0,1.61,1.16A77.06,77.06,0,0,0,46.55,100.5c.33-.92.63-1.88.91-2.89C48.9,91.32,48.14,86.17,45.22,82.32Z"/><path class="cls-4" d="M157.56,103.48c0-.26,0-.51,0-.77a42.17,42.17,0,0,0-.57-5.09c-.06-.36-.13-.73-.2-1.1s-.19-.89-.29-1.34-.22-.94-.34-1.41-.19-.76-.3-1.15c-.24-.87-.5-1.75-.79-2.64a31,31,0,0,1-.76-3.09,43.47,43.47,0,0,1-.81-7.46c0-.24,0-.48-.05-.72-.5-9.81-2.54-18.44-6.1-25.64-5.17-10.44-13.62-18.22-25.15-23.15a78.89,78.89,0,0,0-28.43-5.74H92.48A78.85,78.85,0,0,0,64,29.94C51.47,35.31,42.58,44.08,37.61,56a62.85,62.85,0,0,0-4.2,16.11.8.8,0,0,0,0,.15c0,.14,0,.28-.05.42-.08.66-.14,1.34-.21,2,0,.42-.09.84-.13,1.27-.09,1.14-.17,2.3-.22,3.47A39.54,39.54,0,0,1,31.21,90l0,0c-.3.93-.57,1.84-.82,2.74l-.18.68q-.27,1.06-.51,2.1l-.15.69c-.15.78-.29,1.55-.41,2.3,0,.11,0,.22-.05.32-.13.87-.23,1.72-.29,2.56,0,.18,0,.36,0,.54,0,.64-.07,1.28-.08,1.9,0,.26,0,.51,0,.77q0,.86.06,1.71l0,.67c.06.76.14,1.51.25,2.25,0,.11.05.23.07.35q.15.93.36,1.83l.18.71c.13.49.27,1,.42,1.46.08.23.15.46.23.68.2.58.42,1.15.66,1.7.05.11.08.21.13.32.29.66.62,1.3,1,1.93.09.17.19.34.29.51.27.46.55.92.85,1.38.14.19.27.39.41.59s.2.31.31.46l.16.17a31.58,31.58,0,0,0,6.33,6.32A40.72,40.72,0,0,0,44,130.1a2.16,2.16,0,0,0,.36.22c1,.65,2.1,1.29,3.19,1.88a81.49,81.49,0,0,0,29.63,9.51l2.15.24a99.69,99.69,0,0,0,13.16,1h1.24a98.29,98.29,0,0,0,13.1-1l2.21-.24a85.14,85.14,0,0,0,13.1-2.67,79.45,79.45,0,0,0,16.51-6.83c1.19-.65,2.37-1.35,3.46-2.05a39.49,39.49,0,0,0,3.75-2.52,30.91,30.91,0,0,0,6.31-6.31,1.52,1.52,0,0,0,.22-.22l.39-.58a2.75,2.75,0,0,1,.19-.28c.37-.56.73-1.13,1.06-1.72l.15-.25c.36-.67.71-1.34,1-2a.61.61,0,0,0,.05-.12c.27-.6.5-1.22.72-1.84.09-.26.17-.52.26-.78s.25-.83.36-1.24.17-.65.24-1,.15-.73.22-1.1q.21-1.12.33-2.28c0-.24.06-.47.08-.71,0-.47.06-1,.08-1.43,0-.27,0-.53,0-.8C157.57,104.47,157.57,104,157.56,103.48Zm-6.29,14.28c-.11.18-.22.37-.34.55s-.39.59-.59.87a28.87,28.87,0,0,1-6.16,6.25,37.11,37.11,0,0,1-3.52,2.36c-1.08.69-2.2,1.36-3.35,2a77.08,77.08,0,0,1-15.93,6.6A82.4,82.4,0,0,1,108.73,139l-2.23.24a94.23,94.23,0,0,1-12.77.94H92.51a95.35,95.35,0,0,1-12.83-.94L77.52,139a78.9,78.9,0,0,1-28.61-9.18c-1.08-.59-2.14-1.22-3.14-1.86l-.14-.08-.1-.07A35.33,35.33,0,0,1,42,125.42a29,29,0,0,1-6-6.06c-.28-.39-.56-.79-.81-1.19l-.1-.16c-3.49-5.61-4.49-12.47-3-20.49,0-.17.06-.34.1-.51q.13-.69.3-1.38c.1-.44.21-.88.33-1.33s.16-.65.26-1c.23-.83.47-1.66.75-2.5h0v0a40.08,40.08,0,0,0,1.58-9.27c.05-.65.09-1.3.11-2,.05-1.13.12-2.25.22-3.35,0-.37.07-.73.11-1.1.06-.7.13-1.4.22-2.07a60.51,60.51,0,0,1,4.08-16c4.68-11.24,13.08-19.51,24.91-24.57A76.31,76.31,0,0,1,92.5,27h1.22A76.14,76.14,0,0,1,121.1,32.5c10.87,4.64,18.85,12,23.71,21.8a57.89,57.89,0,0,1,5.28,18.32v0c.27,2.07.45,4.23.56,6.42,0,.15,0,.29,0,.44a42.25,42.25,0,0,0,1.7,11.29c.27.82.51,1.61.73,2.41.13.47.25.94.37,1.41.07.25.13.5.19.75C155.72,104.21,154.92,111.71,151.27,117.76Z"/><g id="Layer3_2_MEMBER_8_MEMBER_0_FILL" data-name="Layer3 2 MEMBER 8 MEMBER 0 FILL"><path class="cls-10" d="M87.65,115.52l1.07.32a17.18,17.18,0,0,0,9.46,0,7.52,7.52,0,0,1,.84-.28q6.6-2.47,5.49-9.47-.33-3.81-4.18-3.5a60.22,60.22,0,0,1-7,.32,60.22,60.22,0,0,1-7-.32q-3.85-.31-4.17,3.5Q81.05,113.06,87.65,115.52Z"/></g><g id="Layer3_2_MEMBER_8_MEMBER_0_1_STROKES" data-name="Layer3 2 MEMBER 8 MEMBER 0 1 STROKES"><path class="cls-11" d="M93.2,117.47a16.47,16.47,0,0,1-4.77-.68l-1.08-.32c-4.86-1.82-7-5.45-6.18-10.54.27-3.07,2.14-4.62,5.24-4.37a61.13,61.13,0,0,0,6.91.32,60.61,60.61,0,0,0,6.91-.31c3.14-.26,5,1.3,5.27,4.4.8,5-1.32,8.68-6.13,10.48l-.09,0c-.25.07-.5.15-.73.24l-.11,0A20.74,20.74,0,0,1,93.2,117.47Zm-7.48-14c-1.66,0-2.42.79-2.57,2.62,0,0,0,0,0,.07-.67,4.23.87,6.89,4.85,8.38l1,.29a16.23,16.23,0,0,0,8.88,0c.27-.1.55-.2.84-.28,4-1.49,5.48-4.15,4.81-8.36-.17-2.08-1.07-2.83-3.11-2.66a66.32,66.32,0,0,1-7.09.32,62,62,0,0,1-7.09-.33Zm-3.56,2.53h0Z"/></g><g id="Layer3_2_MEMBER_8_MEMBER_1_MEMBER_0_FILL" data-name="Layer3 2 MEMBER 8 MEMBER 1 MEMBER 0 FILL"><path class="cls-3" d="M79.43,66.84a2.72,2.72,0,0,0,.28-1,3,3,0,0,0-.63-2.09,3.44,3.44,0,0,0-1.7-1.21,23.27,23.27,0,0,0-10.77-1.08,4.58,4.58,0,0,0-2.11,1,2.93,2.93,0,0,0-1,2,2.76,2.76,0,0,0,.09,1c.31,1.38,1.43,2,3.36,1.94l.68-.06a18.61,18.61,0,0,1,7.64.75C77.29,68.47,78.67,68.11,79.43,66.84Z"/></g><g id="Layer3_2_MEMBER_8_MEMBER_1_MEMBER_0_1_STROKES" data-name="Layer3 2 MEMBER 8 MEMBER 1 MEMBER 0 1 STROKES"><path class="cls-4" d="M77,69.14a6.76,6.76,0,0,1-1.9-.29,17.92,17.92,0,0,0-7.27-.72c-.23,0-.49.06-.73.07-3.23.16-4.13-1.64-4.38-2.71a3.71,3.71,0,0,1-.1-1.27,3.89,3.89,0,0,1,1.26-2.6,5.64,5.64,0,0,1,2.61-1.21,24.41,24.41,0,0,1,11.27,1.13,4.31,4.31,0,0,1,2.16,1.54,4,4,0,0,1,.84,2.77h0a3.75,3.75,0,0,1-.39,1.43A3.7,3.7,0,0,1,77,69.14ZM69.73,66a19.18,19.18,0,0,1,5.91.91c2.2.62,2.75-.3,3-.64a1.7,1.7,0,0,0,.15-.62,2,2,0,0,0-.45-1.41,2.34,2.34,0,0,0-1.2-.86,22.38,22.38,0,0,0-10.33-1,3.53,3.53,0,0,0-1.61.73,1.88,1.88,0,0,0-.59,1.27,1.78,1.78,0,0,0,0,.62c.1.42.3,1.3,2.35,1.21l.59-.06C68.29,66.08,69,66,69.73,66Zm10-.27h0Z"/></g><g id="Layer3_2_MEMBER_8_MEMBER_1_MEMBER_1_FILL" data-name="Layer3 2 MEMBER 8 MEMBER 1 MEMBER 1 FILL"><path class="cls-3" d="M107.23,66.84a2.91,2.91,0,0,1-.28-1,3,3,0,0,1,.64-2.09,3.36,3.36,0,0,1,1.7-1.21,23.24,23.24,0,0,1,10.76-1.08,4.58,4.58,0,0,1,2.11,1,2.93,2.93,0,0,1,1,2,2.76,2.76,0,0,1-.08,1c-.32,1.38-1.44,2-3.36,1.94l-.68-.06a18.6,18.6,0,0,0-7.64.75Q108.38,68.75,107.23,66.84Z"/></g><g id="Layer3_2_MEMBER_8_MEMBER_1_MEMBER_1_1_STROKES" data-name="Layer3 2 MEMBER 8 MEMBER 1 MEMBER 1 1 STROKES"><path class="cls-4" d="M109.72,69.14a3.65,3.65,0,0,1-3.33-1.8,3.79,3.79,0,0,1-.42-1.49,4,4,0,0,1,.83-2.76,4.36,4.36,0,0,1,2.2-1.56,24.36,24.36,0,0,1,11.19-1.13,5.73,5.73,0,0,1,2.61,1.17,4,4,0,0,1,1.31,2.65,3.78,3.78,0,0,1-.11,1.31c-.24,1-1.13,2.81-4.37,2.67a7.47,7.47,0,0,1-.77-.08,18,18,0,0,0-7.2.72A7,7,0,0,1,109.72,69.14Zm7.22-7a22.23,22.23,0,0,0-7.32,1.23,2.52,2.52,0,0,0-1.24.88,2,2,0,0,0-.43,1.4h0a1.75,1.75,0,0,0,.18.68c.17.28.72,1.2,3,.57a19.6,19.6,0,0,1,8-.79l.64.06c2,.09,2.25-.79,2.34-1.17a1.85,1.85,0,0,0,.06-.66,1.89,1.89,0,0,0-.64-1.31,3.55,3.55,0,0,0-1.61-.7A22.44,22.44,0,0,0,116.94,62.18Z"/></g><path d="M80.77,83.55A11.18,11.18,0,0,0,74.26,81l-.93,0a11.81,11.81,0,0,0-7.18,2.26,2,2,0,0,0-.49,2.67,2,2,0,0,0,2.84,2.68,7.85,7.85,0,0,1,4.83-1.48H74a7.1,7.1,0,0,1,4.2,1.65,2,2,0,0,0,1.27.46,2,2,0,0,0,1.67-3.06A2,2,0,0,0,80.77,83.55Z"/><g id="Layer3_2_MEMBER_8_MEMBER_2_MEMBER_0_MEMBER_2_FILL" data-name="Layer3 2 MEMBER 8 MEMBER 2 MEMBER 0 MEMBER 2 FILL"><path class="cls-7" d="M71.86,83.79c.32-.24.44-.5.36-.76s-.28-.41-.68-.52a2.52,2.52,0,0,0-1.31.12,2.18,2.18,0,0,0-1.15.56c-.3.26-.42.52-.36.75a.79.79,0,0,0,.67.52,2.64,2.64,0,0,0,1.36,0A2.32,2.32,0,0,0,71.86,83.79Z"/></g><path d="M120.62,83.55A11.21,11.21,0,0,0,114.11,81l-.94,0A11.83,11.83,0,0,0,106,83.22a2,2,0,0,0-.48,2.67,2,2,0,0,0,2.84,2.68,7.81,7.81,0,0,1,4.82-1.48h.69a7.1,7.1,0,0,1,4.2,1.65,2,2,0,0,0,1.28.46A2,2,0,0,0,121,86.15,2,2,0,0,0,120.62,83.55Z"/><g id="Layer3_2_MEMBER_8_MEMBER_2_MEMBER_1_MEMBER_2_FILL" data-name="Layer3 2 MEMBER 8 MEMBER 2 MEMBER 1 MEMBER 2 FILL"><path class="cls-7" d="M111.7,83.79c.32-.24.44-.5.36-.76s-.28-.41-.67-.52a2.56,2.56,0,0,0-1.32.12,2.26,2.26,0,0,0-1.15.56.82.82,0,0,0-.36.75.8.8,0,0,0,.68.52,2.6,2.6,0,0,0,1.35,0A2.23,2.23,0,0,0,111.7,83.79Z"/></g><g id="Layer3_2_MEMBER_9_MEMBER_0_1_STROKES" data-name="Layer3 2 MEMBER 9 MEMBER 0 1 STROKES"><path class="cls-6" d="M122,34.32a1.49,1.49,0,0,1-.51-.1L100.3,25.77H85.73L64.58,34.22a1.39,1.39,0,0,1-1.88-1.57L66,16.23c1.09-5.87,5.23-10.44,12.3-13.57a32.93,32.93,0,0,1,3.25-1.21,46.4,46.4,0,0,1,22.94,0,32.8,32.8,0,0,1,3.32,1.23c7.07,3.13,11.21,7.7,12.3,13.59l3.26,16.4A1.4,1.4,0,0,1,122,34.32ZM85.46,23h15.11a1.55,1.55,0,0,1,.52.1l19,7.6-2.76-13.91c-.93-5-4.43-8.79-10.69-11.56a29.4,29.4,0,0,0-3-1.1,43.55,43.55,0,0,0-21.44,0,28.2,28.2,0,0,0-2.89,1.08C73.12,8,69.62,11.76,68.69,16.76L65.93,30.68l19-7.6A1.55,1.55,0,0,1,85.46,23Z"/></g><g id="Layer3_2_MEMBER_9_MEMBER_0_FILL" data-name="Layer3 2 MEMBER 9 MEMBER 0 FILL"><path class="cls-5" d="M78.82,3.94q-10,4.41-11.49,12.56L64.07,32.93l21.39-8.55h15.11L122,32.93,118.7,16.5q-1.52-8.14-11.49-12.56a30,30,0,0,0-3.1-1.16,45,45,0,0,0-22.19,0A30,30,0,0,0,78.82,3.94Z"/></g><g id="Layer3_2_MEMBER_9_MEMBER_1_1_STROKES" data-name="Layer3 2 MEMBER 9 MEMBER 1 1 STROKES"><path class="cls-6" d="M67.86,39a7.66,7.66,0,0,1-4.34-1.45l-.05,0a4,4,0,0,1-1.76-3.22c0-2.18,1.76-4.54,5.57-7.43,6.68-4.85,13.4-7.52,20-8a59.92,59.92,0,0,1,11.52,0c6.55.44,13.27,3.11,19.92,7.94,3.84,2.91,5.61,5.27,5.6,7.45a4,4,0,0,1-1.76,3.22c-2.47,1.69-6.3,2.75-10.75-1.55a21.62,21.62,0,0,0-14.68-6.92A33.13,33.13,0,0,0,93,28.91a39.7,39.7,0,0,0-4.11.15A21.64,21.64,0,0,0,74.26,36C71.91,38.22,69.74,39,67.86,39Zm25.88-12.9c1.19,0,2.41.06,3.62.17A24.28,24.28,0,0,1,113.79,34c3.32,3.2,5.67,2.24,7.15,1.24a1.18,1.18,0,0,0,.59-1c0-.54-.43-2.13-4.47-5.21-6.19-4.49-12.42-7-18.49-7.39a55.34,55.34,0,0,0-11.07,0c-6.11.4-12.34,2.9-18.56,7.41-4,3.06-4.45,4.65-4.45,5.19,0,.24.08.56.62,1,1.48,1,3.83,1.93,7.17-1.3a24.28,24.28,0,0,1,16.42-7.7A36.8,36.8,0,0,1,93,26.13Z"/></g><g id="Layer3_2_MEMBER_9_MEMBER_1_FILL" data-name="Layer3 2 MEMBER 9 MEMBER 1 FILL"><path class="cls-5" d="M121.72,36.42q3.66-2.73-3.81-8.43-9.7-7-19.25-7.67a57,57,0,0,0-11.29,0q-9.56.63-19.25,7.67-7.47,5.7-3.82,8.43,4.38,3,9-1.43A22.86,22.86,0,0,1,88.8,27.68,34.86,34.86,0,0,1,93,27.52a35,35,0,0,1,4.22.16A22.86,22.86,0,0,1,112.78,35Q117.35,39.41,121.72,36.42Z"/></g><g id="Layer3_2_MEMBER_9_MEMBER_2_FILL" data-name="Layer3 2 MEMBER 9 MEMBER 2 FILL"><path class="cls-7" d="M91.38,14.32a2.34,2.34,0,0,1,1.71-.72,2.39,2.39,0,0,1,1.71.68A2.36,2.36,0,0,1,95.52,16v.27h2.86V16a4.94,4.94,0,0,0-.44-2.07,5,5,0,0,0-1.11-1.71,5.2,5.2,0,0,0-3.78-1.55,4.89,4.89,0,0,0-3.69,1.59A5.19,5.19,0,0,0,88.2,14a5.7,5.7,0,0,0-.4,2.11v.27h2.87V16A2.33,2.33,0,0,1,91.38,14.32Z"/></g><path class="cls-12" d="M20.92,123.4H72.37l-5.61,57.31a8,8,0,0,1-7.94,7.19H35.27a8,8,0,0,1-7.92-7.08Z"/><path class="cls-13" d="M24.29,154h45.1L66.65,181a7.31,7.31,0,0,1-7.27,6.58H34.52a7.32,7.32,0,0,1-7.27-6.52Z"/><g class="cls-14"><path class="cls-13" d="M32.4,107.46H60.18a9.88,9.88,0,0,1,9.3,6.52H23.1A9.9,9.9,0,0,1,32.4,107.46Z"/><path class="cls-15" d="M24.63,110.82a6.53,6.53,0,0,0,5.25,2.48H62.51c4.57,0,5.29-.74,5.29-2.48,0-1.17.68-.11,2,3.16H22.74l.63-1.57Z"/></g><path class="cls-16" d="M20.92,122.68H51q-12.75,8.55-12.75,31T45.5,187.9H34.58a7.25,7.25,0,0,1-7.21-6.46Z"/><circle class="cls-17" cx="47.19" cy="155.47" r="16.67" transform="translate(-114.44 138.88) rotate(-67.26)"/><circle class="cls-7" cx="47.19" cy="155.47" r="13.41"/><path class="cls-13" d="M23.35,114H69.23a7,7,0,0,1,6.6,4.71l.3.87a2.89,2.89,0,0,1-1.8,3.68,2.73,2.73,0,0,1-.94.16H19.19a2.9,2.9,0,0,1-2.9-2.9,2.73,2.73,0,0,1,.16-.94l.3-.87A7,7,0,0,1,23.35,114Z"/><g id="Layer3_2_MEMBER_10_MEMBER_1_MEMBER_1_FILL" data-name="Layer3 2 MEMBER 10 MEMBER 1 MEMBER 1 FILL"><path class="cls-17" d="M44.08,157.54a3.14,3.14,0,0,1,.89-2.25,3.06,3.06,0,0,1,2.19-.92,3.11,3.11,0,0,1,2.22.89,3,3,0,0,1,.95,2.25v.37H54v-.43a7.3,7.3,0,0,0-.55-2.65,6.68,6.68,0,0,0-1.5-2.19,6.74,6.74,0,0,0-9.62.06,6.09,6.09,0,0,0-1.44,2.22,6.59,6.59,0,0,0-.55,2.68v.37l3.72,0Z"/></g><g id="Layer3_2_MEMBER_11_FILL" data-name="Layer3 2 MEMBER 11 FILL"><path class="cls-3" d="M61.36,158.38q-.75,7.56,6.32,10.07a39.15,39.15,0,0,0,17.7,1.63A53.19,53.19,0,0,0,98.14,167c.59-.21,1.17-.43,1.75-.67A72.69,72.69,0,0,0,113,159.7l1.31-.84,3.18-8.87-4.06-6.08a10.29,10.29,0,0,0-2.14-.12,2.82,2.82,0,0,0-.52,0h0a12.84,12.84,0,0,0-5.41,2,37.73,37.73,0,0,1-30.22,5.45Q63,148.89,61.36,158.38Z"/></g><g id="Layer3_2_MEMBER_11_1_STROKES" data-name="Layer3 2 MEMBER 11 1 STROKES"><path class="cls-4" d="M79.93,171.82a39.25,39.25,0,0,1-12.69-2.06c-5.32-1.88-7.83-5.86-7.26-11.51a.31.31,0,0,1,0-.1,10.08,10.08,0,0,1,4-7c2.64-1.82,6.45-2.25,11.33-1.29a36.57,36.57,0,0,0,29.19-5.24,14.34,14.34,0,0,1,6.06-2.22h0a4.68,4.68,0,0,1,.66,0,12,12,0,0,1,2.37.14,1.39,1.39,0,1,1-.45,2.74,10,10,0,0,0-1.88-.1l-.33,0-.17,0A11.51,11.51,0,0,0,106,147a39.18,39.18,0,0,1-31.26,5.61c-4.08-.8-7.18-.52-9.17.86a7.29,7.29,0,0,0-2.86,5.09c-.42,4.39,1.3,7.11,5.41,8.56a37.84,37.84,0,0,0,17,1.57,51.87,51.87,0,0,0,12.46-3q.86-.31,1.71-.66a71.8,71.8,0,0,0,12.86-6.49,1.39,1.39,0,0,1,1.49,2.35,73.75,73.75,0,0,1-13.33,6.73c-.57.23-1.17.46-1.77.68a54.36,54.36,0,0,1-13.09,3.18A44.46,44.46,0,0,1,79.93,171.82Z"/></g></g></g></g></svg>