<svg xmlns="http://www.w3.org/2000/svg" viewBox="0 0 172.66 227.94"><defs><style>.cls-1{fill:#83e8d3;}.cls-2{fill:#47d7ac;}.cls-3,.cls-5{fill:none;stroke-linecap:round;stroke-linejoin:round;}.cls-3{stroke:#47d7ac;stroke-width:2.5px;}.cls-4{fill:#fff;}.cls-5{stroke:#000;stroke-width:3px;}.cls-6{fill:#1cb594;}.cls-7{fill:#595959;}.cls-8{fill:#daf8ec;}.cls-9{fill:#92abfc;}.cls-10{fill:#5adff7;}.cls-11{fill:#1bd2db;}.cls-12{fill:#ffcfd9;}.cls-13{fill:#ff9fb6;}</style></defs><g id="레이어_2" data-name="레이어 2"><g id="레이어_1-2" data-name="레이어 1"><path id="sound-2" d="M14.57,71.15l0-3a.32.32,0,0,0-.38-.34L5,69.26a.49.49,0,0,0-.39.46V79.78a3.09,3.09,0,0,0-1.91-.66,2.3,2.3,0,1,0,0,4.52,2.51,2.51,0,0,0,2.7-2.26v-.29a.57.57,0,0,0,0-.15V75h0V74l8.38-1.4v5.85a3.09,3.09,0,0,0-1.9-.65,2.29,2.29,0,1,0,0,4.51A2.5,2.5,0,0,0,14.59,80c0-.1,0-.14,0-.3a1,1,0,0,0,0-.15v-6h0Z"/><path id="sound-1" d="M18.71,36.23l-4.17-3.46a.37.37,0,0,0-.74.08V44a3.22,3.22,0,0,0-1.88-.65,2.47,2.47,0,0,0-2.66,2.22,2.45,2.45,0,0,0,2.64,2.21,2.46,2.46,0,0,0,2.65-2.21,1.57,1.57,0,0,0-.05-.3.32.32,0,0,0,0-.14V38c.24,0,2.57,0,3.45.61s.62,3.47.62,3.47C21.62,38.8,18.71,36.23,18.71,36.23Z"/><path class="cls-1" d="M115.4,108.9c8.37,8.79,18.62,16.93,23.7,31.85,6.08,17.85,12,19.93,14.83,23.11,4.62,5.17,1.31,19.6-10.94,16.84-10.22-2.3-16.86-8.28-30.68-24.36-11.72-13.63-8.82-23.49-8.82-23.49"/><path class="cls-1" d="M49.11,116c6.71-14.54,13.26-15.58,16.69-13.72s9,2.51,6.31,18.34-20.65,23.94-27.64,27.86c-17.27,9.67-32.91-6.77-19.39-16.77C34,125.09,42.09,131.18,49.11,116Z"/><path class="cls-2" d="M145.93,182.29a14.59,14.59,0,0,1-3.21-.37c-10.61-2.39-17.44-8.56-31.36-24.76-12-14-9.19-24.23-9.07-24.66a1.25,1.25,0,1,1,2.4.7c0,.09-2.5,9.45,8.57,22.33,13.52,15.73,20.09,21.72,30,23.95,5.88,1.33,8.72-1.81,9.89-3.8,2.08-3.53,2-8.57-.16-11a20.35,20.35,0,0,0-1.86-1.73c-3.27-2.82-8.21-7.09-13.22-21.8-4.1-12-11.61-19.53-18.88-26.78-1.51-1.51-3.07-3.07-4.55-4.62A1.25,1.25,0,1,1,116.3,108c1.46,1.52,2.94,3,4.51,4.57,7.47,7.45,15.19,15.15,19.48,27.74,4.79,14.07,9.42,18.07,12.49,20.72a22.08,22.08,0,0,1,2.08,2c2.92,3.28,3.12,9.39.45,13.93A10.45,10.45,0,0,1,145.93,182.29Z"/><path class="cls-3" d="M49.11,116c6.71-14.54,13.26-15.58,16.69-13.72s9,2.51,6.31,18.34-20.65,23.94-27.64,27.86c-17.27,9.67-32.91-6.77-19.39-16.77C34,125.09,42.09,131.18,49.11,116Z"/><path class="cls-1" d="M70.49,108.9s-11.83,7.81-18.93,20.27-6.12,29.29-.8,35.51S63.22,178,71.62,180c5.81,1.34,15.65,1.54,26.08-.69,12.23-2.62,19.92-6.39,23.67-22.13s-2.76-44.54-2.76-44.54Z"/><path class="cls-4" d="M101.81,16.68A22.48,22.48,0,0,0,98,5.06q-4.57-5.89-9.91-2.3a10.51,10.51,0,0,0-1.85,1.5q-6.13,6.51-9,17.18c-.1.35-.19.7-.29,1l0,.17-.18.87c-.1.35-.19.7-.26,1-.16.75-.31,1.51-.46,2.29.74.35,1.5.68,2.26,1l1.63.63c.24.08.48.16.72.26l.18,0a41.34,41.34,0,0,0,14.07,2h.49c1.53-.08,3.08-.23,4.66-.45.35-1.12.66-2.24.92-3.34l.07-.34.07-.35a35.6,35.6,0,0,0,.75-9.62"/><path class="cls-2" d="M76.45,24.88a1.39,1.39,0,0,0,1.61-1.07l.49-2c1.86-6.87,4.78-12.45,8.69-16.6a8.8,8.8,0,0,1,1.58-1.27c2-1.37,4.74-2.35,8.08,2a21.13,21.13,0,0,1,3.53,10.85A35,35,0,0,1,99.71,26l0,.24a2.19,2.19,0,0,0-.13.75,1.4,1.4,0,0,0,1.4,1.37,1.38,1.38,0,0,0,1.36-1.28l0-.17.07-.34a37.12,37.12,0,0,0,.78-10A23.82,23.82,0,0,0,99.13,4.27C94.66-1.52,90.24-.37,87.32,1.61a11.62,11.62,0,0,0-2.06,1.67C81,7.79,77.86,13.77,75.89,21.07l-.3,1,0,.09-.22,1a1.39,1.39,0,0,0,1.07,1.63h0"/><path class="cls-4" d="M165,48.92c-.29-.6-.6-1.17-.92-1.74A58.86,58.86,0,0,0,135.47,21a103.58,103.58,0,0,0-13-4.47c-1-.3-2.06-.56-3.07-.77-2.31-.51-4.62-.92-6.92-1.21h-.4a1.41,1.41,0,0,0-.43-.08l-.4,0a77.37,77.37,0,0,0-28.19,2.38q-20,5.76-29.22,23a3.26,3.26,0,0,0-.31.55c-.57,1-1.11,2.15-1.62,3.31a4.92,4.92,0,0,0-.23.6l-.07.15a69.5,69.5,0,0,0-4.46,15.31,39.25,39.25,0,0,1-3,10.3A42.57,42.57,0,0,0,40,83.17a26.12,26.12,0,0,0-.24,3,2.2,2.2,0,0,0,0,.52A10,10,0,0,0,39.79,89a24.29,24.29,0,0,0,1,5.49c.23.66.48,1.31.76,2l.17.4a26.5,26.5,0,0,0,6.33,8.93,41.85,41.85,0,0,0,3.17,2.8c1,.79,2,1.59,3.09,2.38a79.09,79.09,0,0,0,27.36,12.44l2.07.55a104.22,104.22,0,0,0,12.66,2.52c.4,0,.81.06,1.23.11,1.89.21,3.79.4,5.72.54q4.09.24,7.9.27c.33,0,.67,0,1,0a82.09,82.09,0,0,0,15.57-1.67l.3-.07a64.25,64.25,0,0,0,11.76-3.83l1.85-.9a53,53,0,0,0,14.47-10.6,58.84,58.84,0,0,0,8.67-11.84,55.49,55.49,0,0,0,5.59-15.59,49.33,49.33,0,0,0,.29-15.77,57.55,57.55,0,0,0-2.49-10.34c-.28-.8-.56-1.59-.85-2.37l-.77-1.91L166,51.11a7.32,7.32,0,0,0-.51-1.14,6.13,6.13,0,0,1-.49-1"/><path class="cls-2" d="M91,126.94c-2.55-.48-5.09-1-7.58-1.71-.71-.18-1.41-.36-2.05-.54A81,81,0,0,1,53.51,112c-1.1-.8-2.16-1.62-3.14-2.41a42.62,42.62,0,0,1-3.26-2.89,28.15,28.15,0,0,1-6.61-9.28,2.14,2.14,0,0,1-.27-.63c-.27-.63-.52-1.27-.75-2A26.26,26.26,0,0,1,38.4,89.1a11.32,11.32,0,0,1-.07-2.4,3.51,3.51,0,0,1,0-.65,28.92,28.92,0,0,1,.25-3,44.31,44.31,0,0,1,4.34-13.61,38.2,38.2,0,0,0,2.86-9.94,70.66,70.66,0,0,1,4.51-15.54l.11-.26a5.83,5.83,0,0,1,.23-.58c.52-1.18,1.07-2.31,1.65-3.38a6.37,6.37,0,0,1,.35-.63C59,27.31,69.07,19.37,82.71,15.44A79.41,79.41,0,0,1,111.4,13l.23,0a2.67,2.67,0,0,1,.56.06,1.41,1.41,0,0,1,.47,0c2.33.29,4.7.71,7,1.22,1,.22,2.1.49,3.15.8A105.4,105.4,0,0,1,136,19.69a60.45,60.45,0,0,1,29.3,26.8c.33.59.65,1.2,1,1.81l.06.15a6.22,6.22,0,0,0,.39.84,8.66,8.66,0,0,1,.58,1.28l.61,1.26,0,.08.79,2c.29.78.57,1.57.86,2.39a59.59,59.59,0,0,1,2.55,10.6,51,51,0,0,1-.3,16.22,57.1,57.1,0,0,1-5.75,16,60.17,60.17,0,0,1-8.88,12.13,54.41,54.41,0,0,1-14.84,10.87c-.63.32-1.26.62-1.92.93a66.25,66.25,0,0,1-12,3.92l-.11,0-.1,0-.1,0a84.14,84.14,0,0,1-15.9,1.7,8.49,8.49,0,0,0-.88,0h-.09c-2.55,0-5.23-.11-8-.27-1.94-.15-3.89-.33-5.78-.55-.39-.05-.77-.08-1.13-.1h-.12c-1.75-.24-3.51-.53-5.25-.85m6.82-1.79c1.85.22,3.76.4,5.64.54,2.69.16,5.31.24,7.79.26.35,0,.72,0,1,0a80.45,80.45,0,0,0,15.26-1.64l.37-.08a62.21,62.21,0,0,0,11.43-3.73c.61-.28,1.21-.57,1.83-.88a51.68,51.68,0,0,0,14.08-10.32,57.21,57.21,0,0,0,8.45-11.53,54.57,54.57,0,0,0,5.45-15.19,48,48,0,0,0,.28-15.33A55.53,55.53,0,0,0,167,57.16c-.28-.79-.55-1.58-.82-2.3L165.4,53l-.62-1.28-.06-.15a5.85,5.85,0,0,0-.41-.92,7.8,7.8,0,0,1-.55-1.18c-.27-.54-.56-1.08-.86-1.62a57.76,57.76,0,0,0-28-25.61,104.26,104.26,0,0,0-12.83-4.42c-1-.29-2-.54-3-.75-2.24-.49-4.51-.89-6.81-1.18a1.15,1.15,0,0,1-.63-.07,3.08,3.08,0,0,1-.61,0,76.18,76.18,0,0,0-27.62,2.34C70.55,21.82,61,29.33,55.06,40.42l-.07.12-.2.35,0,.09c-.55,1-1.08,2.08-1.58,3.22a4.13,4.13,0,0,0-.17.45l-.1.23,0,0a68.33,68.33,0,0,0-4.36,15,41.43,41.43,0,0,1-3.07,10.65v0a41.22,41.22,0,0,0-4.1,12.77,28,28,0,0,0-.23,2.85l0,.22v.38a9.15,9.15,0,0,0,.06,2v.09a23.59,23.59,0,0,0,1,5.14c.21.62.45,1.24.72,1.84l.07.22.11.2a25.31,25.31,0,0,0,6,8.48,36.08,36.08,0,0,0,3.08,2.71c1,.78,2,1.57,3,2.33A78.26,78.26,0,0,0,82,122l2.06.54A104.64,104.64,0,0,0,96.55,125C97,125.06,97.38,125.1,97.8,125.15ZM42.94,96.32Zm69.29-80.45h0Z"/><path class="cls-4" d="M160.47,30.77A22.47,22.47,0,0,0,162,18.64q-1.61-7.29-8-6.3a10.42,10.42,0,0,0-2.32.57q-8.31,3.27-15.47,11.69l-.72.84-.1.13c-.18.24-.36.47-.53.71s-.47.56-.68.84c-.46.61-.93,1.23-1.4,1.87.53.63,1.07,1.25,1.63,1.86l1.2,1.27a7.13,7.13,0,0,1,.55.55l.14.1a41.34,41.34,0,0,0,11.88,7.8l.15.07.29.13c1.42.59,2.89,1.11,4.41,1.58.8-.86,1.55-1.74,2.25-2.63l.22-.28.21-.28a35.84,35.84,0,0,0,4.78-8.39"/><path class="cls-2" d="M155,41.1l-.32-.1a1.39,1.39,0,0,1-.69-1.83,2.43,2.43,0,0,1,.43-.63l.16-.2a34.7,34.7,0,0,0,4.59-8.07A21,21,0,0,0,160.6,19c-1.18-5.34-4-5.61-6.48-5.24a8.91,8.91,0,0,0-2,.49c-5.31,2.09-10.33,5.89-14.93,11.31l-.69.8-.61.81a1.38,1.38,0,0,1-2.21-1.66l.64-.86.06-.06.7-.82c4.9-5.77,10.29-9.84,16.06-12.11a11.47,11.47,0,0,1,2.58-.63c3.49-.54,8,.3,9.55,7.44a23.9,23.9,0,0,1-1.57,12.87,37.28,37.28,0,0,1-5,8.71l-.21.28-.12.14a1.38,1.38,0,0,1-1.45.67"/><path class="cls-1" d="M143.38,73.12q-5.74,4.11-7.18,7.73a21,21,0,0,0-1.28,8.8c.09,1,.2,1.94.35,2.88A74.72,74.72,0,0,0,142,114.1a58.37,58.37,0,0,0,2.87,5.11,54.29,54.29,0,0,0,11.39-9,58.84,58.84,0,0,0,8.67-11.84,55.49,55.49,0,0,0,5.59-15.59A49.9,49.9,0,0,0,171,68.91c-.08-.63-.16-1.25-.26-1.86-.23-1.51-.51-3-.84-4.57a61.71,61.71,0,0,0-26.56,10.64"/><path class="cls-1" d="M144.65,120.18a1,1,0,0,0,.69-.13,1,1,0,0,0,.33-1.35c-1.37-2.26-2.31-3.94-2.81-5a73.83,73.83,0,0,1-6.62-21.29c-.15-.93-.26-1.87-.35-2.83a20.28,20.28,0,0,1,1.21-8.34c.89-2.23,3.19-4.69,6.85-7.31a61.12,61.12,0,0,1,26.13-10.46,1,1,0,1,0-.3-2,63.09,63.09,0,0,0-27,10.81c-4,2.88-6.49,5.55-7.53,8.18a22.11,22.11,0,0,0-1.34,9.2c.09,1,.2,2,.36,3a76,76,0,0,0,6.78,21.84c.54,1.15,1.49,2.85,2.92,5.2a1,1,0,0,0,.66.46"/><path class="cls-2" d="M144.57,120.57a1.42,1.42,0,0,0,1-.17,55.31,55.31,0,0,0,11.68-9.19,60.17,60.17,0,0,0,8.88-12.13,57.1,57.1,0,0,0,5.75-16,51.63,51.63,0,0,0,.56-14.31c-.08-.67-.16-1.31-.27-2-.22-1.5-.51-3.07-.84-4.62l0-.06v-.06a4.7,4.7,0,0,1-.12-.51,1.38,1.38,0,1,0-2.72.48,7.47,7.47,0,0,0,.17.76c.32,1.48.59,3,.81,4.45.1.6.18,1.2.25,1.8a48.66,48.66,0,0,1-.53,13.52,54.62,54.62,0,0,1-5.45,15.18,57.21,57.21,0,0,1-8.45,11.53A53.3,53.3,0,0,1,144.13,118a1.38,1.38,0,0,0,.44,2.55"/><path class="cls-1" d="M77.78,51.42l.06.06a2.93,2.93,0,0,0,3.73-1.32A2.82,2.82,0,0,0,81.72,48a2.57,2.57,0,0,0-1.26-1.57l-9.62-4.78a2.75,2.75,0,0,0-2.07-.12A2.86,2.86,0,0,0,67.15,43a2.71,2.71,0,0,0-.17,2.1,2.82,2.82,0,0,0,1.12,1.52l.17.09,9.51,4.75"/><path class="cls-2" d="M78.33,52.7a3.38,3.38,0,0,1-.91-.31l-.19-.12-9.32-4.66a1.22,1.22,0,0,1-.39-.21,3.76,3.76,0,0,1-1.46-2,3.62,3.62,0,0,1,.22-2.84,3.8,3.8,0,0,1,2.2-1.95,3.71,3.71,0,0,1,2.81.17L81,45.57a3.53,3.53,0,0,1,1.73,2.15,3.81,3.81,0,0,1-.21,2.9A3.45,3.45,0,0,1,80.3,52.5a3.64,3.64,0,0,1-2,.2m-.83-.31ZM77,52Zm.8-.53Zm-8.66-9a1.85,1.85,0,0,0-1.08,1,1.65,1.65,0,0,0-.11,1.35,1.74,1.74,0,0,0,.71,1h0l.07,0,9.47,4.73.23.13a1.54,1.54,0,0,0,1.19,0l.1,0a1.47,1.47,0,0,0,1-.87,1.85,1.85,0,0,0,.09-1.45,1.53,1.53,0,0,0-.76-1l-9.59-4.77A2.06,2.06,0,0,0,70,42.4,1.75,1.75,0,0,0,69.13,42.46Zm-.35,3.42Z"/><path class="cls-1" d="M121.05,52.2a2.71,2.71,0,0,0-1.89-.84l-10.75-.11a2.56,2.56,0,0,0-1.84.82,2.85,2.85,0,0,0-.85,2,2.46,2.46,0,0,0,.8,2,2.51,2.51,0,0,0,1.91.92l.09,0,10.62.09h.21a2.73,2.73,0,0,0,1.68-.85,2.64,2.64,0,0,0,.8-1.94,2.86,2.86,0,0,0-.78-2"/><path class="cls-2" d="M107.78,57.91a3.56,3.56,0,0,1-2-1.16,3.43,3.43,0,0,1-1.08-2.65,3.87,3.87,0,0,1,1.13-2.69,3.55,3.55,0,0,1,2.56-1.12l10.78.11a3.72,3.72,0,0,1,2.57,1.16,3.82,3.82,0,0,1,1,2.71,3.6,3.6,0,0,1-1.09,2.62A3.72,3.72,0,0,1,119.5,58a1.7,1.7,0,0,1-.45,0L108.63,58l-.22,0a3.28,3.28,0,0,1-.63-.06m.54,0Zm.65-.13ZM108.55,56l10.58.09h.09a1.81,1.81,0,0,0,1.1-.58,1.68,1.68,0,0,0,.51-1.25,1.86,1.86,0,0,0-.5-1.32,1.73,1.73,0,0,0-1.2-.54l-10.7-.12a1.59,1.59,0,0,0-1.16.52,1.88,1.88,0,0,0-.59,1.35,1.52,1.52,0,0,0,.48,1.21l.08.07a1.52,1.52,0,0,0,1,.58Zm10.51.13Z"/><path class="cls-1" d="M49.37,50.55a76.59,76.59,0,0,0-2.18,9.12,39.83,39.83,0,0,1-3,10.29A50.76,50.76,0,0,0,42,75.13q4.45-3.91,7.35-6.67A8.6,8.6,0,0,0,52,60.69a66.75,66.75,0,0,0-2.65-10.14"/><path class="cls-1" d="M41.85,76.11a1,1,0,0,0,.83-.23c3-2.61,5.46-4.86,7.38-6.69A9.62,9.62,0,0,0,53,60.56a68.56,68.56,0,0,0-2.69-10.3,1,1,0,0,0-1.25-.64,1,1,0,0,0-.63,1.24,65.21,65.21,0,0,1,2.61,10,7.61,7.61,0,0,1-2.36,6.93c-1.9,1.82-4.36,4-7.31,6.64a1,1,0,0,0-.09,1.39,1,1,0,0,0,.56.32"/><path class="cls-2" d="M41.78,76.5a1.39,1.39,0,0,0,1.55-.89,51.42,51.42,0,0,1,2.15-5,40.72,40.72,0,0,0,3.08-10.68A76.11,76.11,0,0,1,50.7,51a1.39,1.39,0,0,0-.92-1.73,1.37,1.37,0,0,0-1.72.92,77.16,77.16,0,0,0-2.22,9.27,38.24,38.24,0,0,1-2.86,10,53.2,53.2,0,0,0-2.25,5.28,1.38,1.38,0,0,0,.83,1.77l.22.06"/><path class="cls-5" d="M66.6,63.37s1.15,7,10,4.66"/><path class="cls-5" d="M102.47,73.4s2.62,6.57,10.81,2.4"/><path d="M83.71,97.73a13.19,13.19,0,0,1-7.49-2.94,7.47,7.47,0,0,1-2.71-4.32.93.93,0,0,1,1.84-.33,5.67,5.67,0,0,0,2.08,3.23,12.44,12.44,0,0,0,13.21,1.2,5.6,5.6,0,0,0,2.66-2.8.93.93,0,1,1,1.74.66,7.36,7.36,0,0,1-3.47,3.76,13,13,0,0,1-7.86,1.54"/><path class="cls-1" d="M25.81,161.83a7.11,7.11,0,0,0-6.43-2.14q-5.4,1-3.32,10.09a135.72,135.72,0,0,0,4.51,15.7q2.85,7.72,12.73,3.14l38.81-15-19-19.89Z"/><path class="cls-2" d="M27.06,191.6A8.12,8.12,0,0,1,24,191a8.21,8.21,0,0,1-4.44-5.09A137.24,137.24,0,0,1,15,170.06c-1-4.16-.79-7.16.51-9.16a5.61,5.61,0,0,1,3.79-2.43,8.23,8.23,0,0,1,7,2l26.49-7.93a1.25,1.25,0,0,1,.71,2.39L26.31,163a1.26,1.26,0,0,1-1.23-.29,5.89,5.89,0,0,0-5.35-1.81,3.11,3.11,0,0,0-2.14,1.34c-.89,1.35-.95,3.86-.17,7.23a133.5,133.5,0,0,0,4.47,15.57,5.76,5.76,0,0,0,3.05,3.64c1.88.77,4.57.37,8-1.22a1.27,1.27,0,0,1,.18-.06l27.27-7.76a1.25,1.25,0,0,1,.69,2.41L33.88,189.8A16.66,16.66,0,0,1,27.06,191.6Z"/><path class="cls-2" d="M47.08,156.75a1.25,1.25,0,0,1-1.25-1.19c0-.7-.15-1.54-.28-2.51A37.71,37.71,0,0,1,45.86,139c1-4.66,7.25-16.12,7.51-16.61a1.26,1.26,0,0,1,1.7-.49,1.24,1.24,0,0,1,.5,1.69c-.07.12-6.34,11.63-7.27,15.94A35.71,35.71,0,0,0,48,152.71c.14,1,.26,1.93.3,2.73a1.25,1.25,0,0,1-1.19,1.31Z"/><path class="cls-1" d="M51.67,177.43c-2.26-2.34-8.65-4.58-11.61-4.18q-6.69,1-4.54,12.28a167.47,167.47,0,0,0,4.87,19.55c1.36,4.23,3,4.76,3.64,5.12,5.34,3.08,13.3-3.41,14.56-3.66,16.06-3.28,34.46-10.23,51.71-13.91L88.21,161Z"/><path class="cls-6" d="M88.06,149.06a13.47,13.47,0,0,0,.67-5.11,11.84,11.84,0,0,0-1.28-4.87A12.36,12.36,0,0,0,80,132.44a12.22,12.22,0,0,0-9.91.68,12.53,12.53,0,0,0-4,3.07,13.18,13.18,0,0,0-2.63,4.48l-.24.7,6.69,2.29.24-.71a6,6,0,0,1,3-3.45,5.92,5.92,0,0,1,7.93,2.72,5.61,5.61,0,0,1,.3,4.61l-.23.66,6.63,2.32.26-.75Z"/><path class="cls-1" d="M88.76,195.16c12.84-3,28.19,0,29.9-14.11a96.12,96.12,0,0,0-.12-20.31l-43.07,7.34Z"/><path class="cls-2" d="M47.69,212.58c-2.83,0-4.71-1.6-6.1-2.78l-.37-.32c-2.09-1.74-4.92-13.85-6.92-23.7-.09-.42-.17-.82-.25-1.21-.87-4.1-1.56-7.34,2.26-11a.86.86,0,0,1,.14-.13,9.3,9.3,0,0,1,7.74-1,8.23,8.23,0,0,1,4.65,3.68L71.1,166a1.25,1.25,0,0,1,1.66.62,1.27,1.27,0,0,1-.62,1.66L48.74,178.9a1.25,1.25,0,0,1-1.72-.81,5.49,5.49,0,0,0-3.62-3.28,6.68,6.68,0,0,0-5.45.67c-2.72,2.63-2.29,4.63-1.46,8.57.09.4.17.8.26,1.23,2.41,11.85,5,21.23,6.08,22.29l.38.33c1.93,1.63,3.75,3.18,7.61,1.37a61.5,61.5,0,0,0,7.08-3.77,1,1,0,0,1,.28-.14c1.5-.52,36.75-12.79,44.19-13.37,9.61-.74,14.67-4.45,15-11,.49-8.68,0-25.19,0-25.35a1.25,1.25,0,0,1,1.21-1.29,1.24,1.24,0,0,1,1.29,1.21c0,.17.49,16.79,0,25.57-.31,5.51-3.57,12.29-17.34,13.37-6.9.53-40.92,12.31-43.42,13.18a67.92,67.92,0,0,1-7.27,3.87A9.94,9.94,0,0,1,47.69,212.58Z"/><path class="cls-7" d="M140.53,198.84l-30.9-6.91L80.68,213a2.64,2.64,0,0,1,1.62-.38h.15l.71.08,29.4,7.69,28-21.51"/><path class="cls-8" d="M139.45,205.71a12.37,12.37,0,0,1,.19-6.38l-27.08,21-29.4-7.69-.71-.08H82.3a2.64,2.64,0,0,0-1.62.38,4.29,4.29,0,0,0-.45.33,3.36,3.36,0,0,0-1.09,2.26,3.17,3.17,0,0,0,.6,2.36,3.85,3.85,0,0,0,2.52,1.35L112.52,227l27.82-21.78"/><path class="cls-9" d="M141.06,198.05a1,1,0,0,0-1.1,0l-27.61,21.23L83.4,211.74l-.14,0-.71-.08h-.17a3.69,3.69,0,0,0-2.22.52,5.91,5.91,0,0,0-.57.44,4.2,4.2,0,0,0-1.38,2.85,4.06,4.06,0,0,0,.75,3A4.78,4.78,0,0,0,82,220.18l30.26,7.73.24,0a1,1,0,0,0,.59-.2L140.92,206a1,1,0,0,0,.34-1l-2.1-1.08c0,.31.08.62.14.93L112.3,226l-29.85-7.63a3.07,3.07,0,0,1-2-1,2.25,2.25,0,0,1-.4-1.71,2.41,2.41,0,0,1,.74-1.61,3.54,3.54,0,0,1,.34-.25,1.71,1.71,0,0,1,.93-.26h.2l.69.07,29.33,7.67a.9.9,0,0,0,.81-.16l26-20,2.25-1.76a1,1,0,0,1,.05-.24A.94.94,0,0,0,141.06,198.05Z"/><path class="cls-8" d="M140.38,196.81a12.25,12.25,0,0,1,.19-6.38l-28,21.47-29.4-7.66-.72-.07h-.15a2.45,2.45,0,0,0-1.57.37,3.54,3.54,0,0,0-.49.34,3.42,3.42,0,0,0-1.09,2.22,3.3,3.3,0,0,0,.6,2.4,3.85,3.85,0,0,0,2.52,1.35l30.26,7.7,27.82-21.74"/><path class="cls-10" d="M113.27,211.71l28.84-22.45-31.51-6.91L80.92,203.8c.3.12.64,0,1.22,0h0l-.82.19,32,7.7"/><path class="cls-11" d="M142,189.56a1,1,0,0,0-1.11,0l-27.6,21.23-28.95-7.58-.15,0-.7-.08h-.17a3.66,3.66,0,0,0-2.22.52c-.18.13-.36.26-.58.44A4.26,4.26,0,0,0,79.15,207a4,4,0,0,0,.76,3A4.73,4.73,0,0,0,83,211.68l30.26,7.73a1,1,0,0,0,.24,0,.91.91,0,0,0,.58-.2l27.82-21.77a1,1,0,0,0,.34-1l-2.11-1.09c0,.31.09.62.14.94l-27,21.12-29.86-7.63a3.07,3.07,0,0,1-2-1,2.3,2.3,0,0,1-.41-1.71,2.42,2.42,0,0,1,.75-1.61,2.9,2.9,0,0,1,.34-.25A1.65,1.65,0,0,1,83,205h.2l.69.07,29.34,7.68a1,1,0,0,0,.81-.16l26-20,2.25-1.77a2,2,0,0,1,.06-.23A1,1,0,0,0,142,189.56Z"/><path class="cls-12" d="M105.67,204.32l33.48-15-17.32-12.78a3.51,3.51,0,0,0-3.52-.39L86.5,190.36a1.94,1.94,0,0,1,1.88.39,4.2,4.2,0,0,1,.39.27l16.9,13.3"/><path class="cls-8" d="M137.26,196.06c-.93-1.58-1-3.62-.23-6.12l-31.19,14.38L89.62,191.55l-.38-.26a1.86,1.86,0,0,0-1.8-.38l-.41.23a1.71,1.71,0,0,0-.94,1.46,7.43,7.43,0,0,0,.15,2.52A5.39,5.39,0,0,0,87,197a2.56,2.56,0,0,0,.68.71l17.64,13.45,32.93-15.06"/><path class="cls-13" d="M139.1,195.79l-2.57-2.14a7.11,7.11,0,0,0,.41,1.95L105.4,210l-17.2-13.1-.09,0a2.61,2.61,0,0,1-.41-.49,4.1,4.1,0,0,1-.54-1.45,6.66,6.66,0,0,1-.13-2.22.81.81,0,0,1,.45-.75l.32-.17a1,1,0,0,1,.92.29l.32.22,16.21,12.76a.93.93,0,0,0,1,.12l29.25-13.08.09,0,3.26-1.6a2,2,0,0,1,.06-.23.94.94,0,0,0-.27-1,.92.92,0,0,0-1-.16L106,203.22l-15.8-12.43a4.09,4.09,0,0,0-3-.77.56.56,0,0,0-.16.07l-.39.2a2.63,2.63,0,0,0-1.44,2.18,8.29,8.29,0,0,0,.16,2.88,6.13,6.13,0,0,0,.87,2.17,3.81,3.81,0,0,0,.9.93l17.61,13.42a1,1,0,0,0,.58.19.92.92,0,0,0,.39-.09l32.93-15.06a.9.9,0,0,0,.5-.56A.83.83,0,0,0,139.1,195.79Z"/></g></g></svg>