<svg xmlns="http://www.w3.org/2000/svg" viewBox="0 0 154.61 240"><defs><style>.cls-1{fill:none;stroke:#d87c7c;stroke-linejoin:round;stroke-width:2px;}.cls-2{fill:#f3a5a4;}.cls-3{fill:#fcc5c5;}.cls-4{fill:#fff;}.cls-5{fill:#d87c7c;}.cls-6{fill:#83e8d3;}.cls-7{fill:#1cb594;}.cls-8{fill:#47d7ac;}.cls-9{fill:#e59393;}</style></defs><g id="레이어_2" data-name="레이어 2"><g id="레이어_1-2" data-name="레이어 1"><path class="cls-1" d="M95.36,147.21c-6,2.47,4.25,45.69,6.63,46.82,3,1.43,5.32,2.63,7.56,2.47s13.42-1.27,15.72-6.41-4.91-40.31-11.12-43.53C111.36,145.11,102.9,144.12,95.36,147.21Z"/><path class="cls-2" d="M95.36,147.21c-6,2.47,4.25,45.69,6.63,46.82,3,1.43,5.32,2.63,7.56,2.47s13.42-1.27,15.72-6.41-4.91-40.31-11.12-43.53C111.36,145.11,102.9,144.12,95.36,147.21Z"/><path class="cls-3" d="M124.59,175.85c1.13,6.69,1.53,12.38.7,14.22-2.29,5.14-13.48,6.25-15.72,6.42s-4.51-1-7.55-2.48c-1-.49-3-8.27-4.62-17.35C106.77,177.15,115.9,179.5,124.59,175.85Z"/><path class="cls-4" d="M97.6,177.75c-.07-.37-.14-.73-.2-1.09,9.37.49,18.5,2.84,27.19-.81.08.52.16,1,.24,1.53C114.82,181.29,106.66,178.94,97.6,177.75Z"/><path class="cls-5" d="M96.47,147.55c7.54-.3,15,43.83,13.07,48.35-2.2.13-4.53-.47-7.52-1.89-2.38-1.13-9.87-41-5.83-46.18A3.7,3.7,0,0,1,96.47,147.55Z"/><path class="cls-6" d="M59.54,138.26q-4,6-7.86,13.36c-.68,1.23-1.34,2.48-2,3.74a95.73,95.73,0,0,0-6,16.36c-.44,1.64-.79,3.22-1.07,4.76l-.27,1.76Q39.75,196.14,51.86,205a18.28,18.28,0,0,0,2.5,1.52A36.54,36.54,0,0,0,68,210.23c1.63.18,3.26.31,4.89.37h1.85a45.78,45.78,0,0,0,21-5.64c.64-.42,1.26-.87,1.84-1.34a23.16,23.16,0,0,0,8.56-14.19,36.09,36.09,0,0,0-2.45-18.82,89.81,89.81,0,0,1-6.57-32.35H59.54"/><path class="cls-7" d="M43.91,170.66a6.8,6.8,0,0,1,2.18,1.43A6,6,0,0,1,48,176.58v.74h7.4v-.84a14.38,14.38,0,0,0-1.11-5.31,12.56,12.56,0,0,0-3-4.39,13.29,13.29,0,0,0-5.09-3.28q-1.36,3.72-2.31,7.16"/><path class="cls-8" d="M94.28,207.21a1.55,1.55,0,0,1-.76-2.9c.13-.08,11.89-6.89,11.44-18.7A42.7,42.7,0,0,0,102.08,171c-.26-.77-.54-1.58-.82-2.46l-.33-1A63.34,63.34,0,0,1,97,146a1.55,1.55,0,0,1,1.51-1.59h0a1.55,1.55,0,0,1,1.55,1.51,60.13,60.13,0,0,0,3.74,20.59l.33,1c.29.87.56,1.67.82,2.43a45.76,45.76,0,0,1,3,15.52c.52,13.72-12.47,21.2-13,21.51A1.6,1.6,0,0,1,94.28,207.21Z"/><path class="cls-6" d="M86.25,208.89l.19-5.32H61l.37,5.55,1.39,19.78a5.84,5.84,0,0,0-3.05,4.62c-.21,3,2.2,4.58,7.26,4.76a108.74,108.74,0,0,0,13.36-.23q6.69-.6,5.17-9.38l.74-19.78"/><path class="cls-8" d="M72,240c-1.64,0-3.34,0-5.08-.1-3.67-.13-6.13-1-7.55-2.54a5.15,5.15,0,0,1-1.26-4,7.26,7.26,0,0,1,3-5.33l-1.22-17.69a30.32,30.32,0,0,1-6.28-2.46,1.62,1.62,0,0,1,1.53-2.85,28.52,28.52,0,0,0,6.64,2.46l.33.11a1.49,1.49,0,0,1,.54.41,1.53,1.53,0,0,1,.34.64L63,209l1.37,19.75a1.61,1.61,0,0,1-.79,1.5,4.22,4.22,0,0,0-2.27,3.39,1.91,1.91,0,0,0,.45,1.52c.54.6,1.89,1.35,5.26,1.47a109.42,109.42,0,0,0,13.16-.23,4.15,4.15,0,0,0,3.1-1.4c.91-1.19,1.12-3.24.62-6.09l0-.34.74-19.72,0-.35a1.54,1.54,0,0,1,.29-.62,1.61,1.61,0,0,1,.57-.46l.31-.12a41.11,41.11,0,0,0,7.53-2.92,1.62,1.62,0,0,1,1.47,2.88,44,44,0,0,1-7,2.83l-.69,18.43c.62,3.76.21,6.52-1.28,8.45a7.24,7.24,0,0,1-5.38,2.65c-2.61.23-5.45.34-8.48.34"/><path class="cls-8" d="M61.6,211.22a1.55,1.55,0,0,1-.37,0c-.59-.15-14.32-3.81-19-16.2-4.55-11.91.74-27.07,1.21-28.38.26-1,2.86-10.19,10.23-22.15A1.5,1.5,0,1,1,56.17,146c-7.4,12-9.87,21.32-9.9,21.41a.57.57,0,0,1,0,.14c-.06.16-5.5,15.21-1.25,26.34,4.17,10.92,16.87,14.33,17,14.36a1.5,1.5,0,0,1-.38,2.95Z"/><path class="cls-3" d="M104.85,145.21s3.89.08,6.45,5.73a48.78,48.78,0,0,1,3.39,12.15,2.29,2.29,0,0,0,2.28-.37s-1.27-8.51-3.17-12.15c-1.57-3-3.14-4.73-5.14-5.28-.32,0-1.09-.09-1.88-.1S105.18,145.2,104.85,145.21Z"/><path class="cls-3" d="M92.61,144.17s-2-1.11-8.55,4.92-9.9,23.73-1.27,33.4c6.24,7,22.94,8.42,22.94,8.42l-.88,3.4s-7.33,4.95-18.41.84c-13.58-5-16.85-13.17-17.85-22-1.35-12,.3-25.79,9.65-29.62C82.56,141.75,92.61,144.17,92.61,144.17Z"/><path class="cls-2" d="M95.17,197.3a25.51,25.51,0,0,1-8.91-1.68C71.89,190.29,69,181.29,68.1,173.19c-.66-5.84-1.9-25.28,10-30.13,4-1.62,12.28.09,14.26.53a1.56,1.56,0,0,1,.54.14.5.5,0,0,1,.23.62.5.5,0,0,1-.59.31l-.27-.06c-.6,0-2.82.22-7.82,4.86-6.43,5.94-9.6,23.33-1.23,32.7,6,6.75,22.44,8.23,22.6,8.25a.51.51,0,0,1,.37.21.5.5,0,0,1,.07.41l-.87,3.4a.47.47,0,0,1-.21.29A18.63,18.63,0,0,1,95.17,197.3ZM82.62,143.37a11.59,11.59,0,0,0-4.2.62c-11.19,4.58-10,23.43-9.33,29.09.93,8.19,3.69,16.47,17.52,21.6,9.83,3.65,16.71,0,17.81-.69l.68-2.64c-3.08-.33-17-2.14-22.68-8.52-5.41-6.06-5.56-14.16-5.17-18.45.59-6.51,3.07-12.51,6.47-15.66A25,25,0,0,1,90,144.15,43.63,43.63,0,0,0,82.62,143.37Z"/><path class="cls-9" d="M109.73,188.31a5.39,5.39,0,0,1-4.77,2.12,6,6,0,0,0-1,2.84c1.62,1.86,2.56,3.36,5.42,3.07A17.86,17.86,0,0,0,109.73,188.31Z"/><path class="cls-3" d="M105.12,191.15l-.74,2.45a34,34,0,0,1,4.53,7.42,12.69,12.69,0,0,0,3.82-3.3S110.08,192.3,105.12,191.15Z"/><path class="cls-2" d="M108.91,201.52a.45.45,0,0,1-.16,0,.55.55,0,0,1-.3-.28,34,34,0,0,0-4.46-7.29.5.5,0,0,1-.09-.46l.74-2.45a.5.5,0,0,1,.6-.34c5.12,1.18,7.83,6.6,7.94,6.83a.5.5,0,0,1-.05.51,13,13,0,0,1-4,3.45A.65.65,0,0,1,108.91,201.52Zm-4-8a34.69,34.69,0,0,1,4.22,6.81,12.28,12.28,0,0,0,3-2.63c-.58-1-2.9-4.8-6.67-5.91Z"/><path class="cls-4" d="M103.19,191.82a1.08,1.08,0,1,1,0,2.15H99.66a1.08,1.08,0,1,1,0-2.15h3.53m0-2H99.66a3.09,3.09,0,0,0-3.08,3.08h0A3.09,3.09,0,0,0,99.66,196h3.53a3.08,3.08,0,0,0,3.08-3.07h0a3.09,3.09,0,0,0-3.08-3.08Z"/><path class="cls-5" d="M114.91,170.44a2.11,2.11,0,0,0,2.51,1.59h0a2.09,2.09,0,0,0,1.58-2.51l-.87-3.91a2.1,2.1,0,0,0-2.51-1.58h0a2.08,2.08,0,0,0-1.58,2.5Z"/><path class="cls-4" d="M115.54,170.1a2.11,2.11,0,0,0,2.51,1.59h0a2.09,2.09,0,0,0,1.58-2.51l-.88-3.91a2.08,2.08,0,0,0-2.5-1.58h0a2.09,2.09,0,0,0-1.59,2.5Z"/><path class="cls-4" d="M115.67,164.6a.66.66,0,0,0,.79.49h0a.65.65,0,0,0,.5-.78l-.28-1.23a.66.66,0,0,0-.78-.5h0a.66.66,0,0,0-.5.79Z"/><path class="cls-3" d="M104.85,145.21s3.89.08,6.45,5.73a48.78,48.78,0,0,1,3.39,12.15,2.29,2.29,0,0,0,2.28-.37s-1.27-8.51-3.17-12.15c-1.57-3-3.14-4.73-5.14-5.28-.32,0-1.09-.09-1.88-.1S105.18,145.2,104.85,145.21Z"/><path class="cls-4" d="M108.78,146.66a.49.49,0,0,1-.32-.12l-.36-.29a.5.5,0,0,1-.11-.7.51.51,0,0,1,.7-.11l.41.33a.5.5,0,0,1-.32.89Z"/><path class="cls-4" d="M115.22,159.62a.51.51,0,0,1-.49-.39c-.07-.29-.14-.61-.23-.94a.5.5,0,0,1,1-.25c.09.34.17.67.24,1a.51.51,0,0,1-.38.6Zm-.75-2.86a.49.49,0,0,1-.48-.36c-.09-.3-.19-.61-.29-.93a.5.5,0,1,1,1-.3c.1.33.2.64.29,1a.51.51,0,0,1-.34.62Zm-.9-2.81a.5.5,0,0,1-.48-.34c-.1-.3-.21-.61-.32-.92a.49.49,0,0,1,.29-.64.52.52,0,0,1,.65.3l.33.93a.5.5,0,0,1-.31.64Zm-1.06-2.76a.5.5,0,0,1-.45-.28,9.13,9.13,0,0,0-.45-.82.5.5,0,0,1,.17-.69.49.49,0,0,1,.68.16c.18.3.35.6.5.91a.51.51,0,0,1-.23.67A.59.59,0,0,1,112.51,151.19Zm-1.63-2.46a.52.52,0,0,1-.38-.17c-.22-.26-.43-.5-.64-.71a.5.5,0,0,1,0-.71.48.48,0,0,1,.7,0c.22.23.45.48.68.75a.51.51,0,0,1-.06.71A.54.54,0,0,1,110.88,148.73Z"/><path class="cls-4" d="M115.71,162.05a.5.5,0,0,1-.49-.43l-.08-.47a.51.51,0,0,1,.4-.59.51.51,0,0,1,.58.41l.09.5a.5.5,0,0,1-.42.57Z"/><path class="cls-6" d="M75.41,160.89s-3.44,1.18-6.23,0-10.31-3.11-14.6,0-4.94,12.67,1.5,16.86,21.47,7.4,28.34-.65"/><path class="cls-8" d="M71.59,183.44a32.43,32.43,0,0,1-16.41-4.54,12.11,12.11,0,0,1-5.41-10c-.1-3.82,1.38-7.3,3.84-9.08,4.94-3.58,13.19-1.32,16-.16,2.24,1,5.21,0,5.24,0a1.38,1.38,0,1,1,.9,2.6c-.16.06-4,1.34-7.21,0-2.21-.94-9.38-3-13.26-.16-1.72,1.25-2.78,3.91-2.71,6.79a9.35,9.35,0,0,0,4.16,7.8c5.88,3.83,20.18,7.07,26.54-.38A1.37,1.37,0,1,1,85.31,178C81.92,182,76.8,183.44,71.59,183.44Z"/><path class="cls-6" d="M74.73,163.37s1.69-10.55,5.31-13.08c4.75-3.32,11.07-2.31,14.39,4.27s-2.82,16.56-10,22.54"/><path class="cls-8" d="M84.42,178.6a1.48,1.48,0,0,1-1.15-.54,1.5,1.5,0,0,1,.19-2.11c7-5.79,12.46-15.12,9.63-20.71a9,9,0,0,0-5.72-5.08,7.86,7.86,0,0,0-6.47,1.36c-2.26,1.57-4.07,8.25-4.69,12.09a1.5,1.5,0,0,1-3-.47c.18-1.15,1.9-11.27,5.93-14.08a10.83,10.83,0,0,1,8.93-1.81,12.1,12.1,0,0,1,7.66,6.63c3.67,7.26-2.45,17.76-10.39,24.37A1.46,1.46,0,0,1,84.42,178.6Z"/><path class="cls-4" d="M150.92,66.19a69.24,69.24,0,0,0-4.44-11.83c-.8-1.6-1.64-3.2-2.54-4.81-.28-.49-.57-1-.88-1.48s-.51-.86-.78-1.29q-14.57-22.51-39-30.18A130.22,130.22,0,0,0,87.55,13c-1.24-.22-2.47-.39-3.7-.51q-4.06-.42-8.18-.46H74.23a89.65,89.65,0,0,0-32.44,6.56Q8.22,33,6.43,74.75a47.46,47.46,0,0,1-1.9,12.66Q.78,98.82,1.85,108A29.78,29.78,0,0,0,5.5,119.26a33.21,33.21,0,0,0,9.11,10.17,45.14,45.14,0,0,0,4.2,2.82c1.3.83,2.62,1.62,4,2.36a92.69,92.69,0,0,0,33.83,10.86l2.55.27a113.15,113.15,0,0,0,15.06,1.12h1.44q3.38,0,6.7-.24,4.77-.27,9.25-.83l1.1-.18q18.07-2.55,31-10.63a59.89,59.89,0,0,0,17-15.91,69.43,69.43,0,0,0,8.18-15.16q7-19.14,2-37.72"/><path class="cls-8" d="M75.67,148.47H74.23a114.79,114.79,0,0,1-15.29-1.12l-2.49-.27A94.87,94.87,0,0,1,22,136c-1.37-.75-2.74-1.56-4.06-2.41a43.14,43.14,0,0,1-4.31-2.89,35,35,0,0,1-9.54-10.67A31.65,31.65,0,0,1,.24,108.17C-.49,101.86.43,94.72,3,86.92A45.74,45.74,0,0,0,4.81,74.7C6,46.27,18.26,26.92,41.15,17.14a91.76,91.76,0,0,1,33.07-6.69h1.45c2.79,0,5.59.19,8.34.47,1.26.12,2.55.3,3.82.52a134.07,134.07,0,0,1,15.89,3.61c16.62,5.21,30,15.59,39.92,30.85.29.46.57.92.83,1.37s.59,1,.88,1.49c.9,1.62,1.77,3.26,2.58,4.88a70.54,70.54,0,0,1,4.55,12.13,63.16,63.16,0,0,1-2,38.7A72.29,72.29,0,0,1,142.07,120a62,62,0,0,1-17.47,16.33c-8.78,5.48-19.43,9.14-31.65,10.86l-1.07.18c-3.08.38-6.23.66-9.41.85-2.23.15-4.52.23-6.8.23M74.23,13.68a88.45,88.45,0,0,0-31.85,6.45C20.78,29.36,9.21,47.76,8,74.82a49,49,0,0,1-2,13.07v0c-2.41,7.35-3.29,14-2.61,19.87a28.21,28.21,0,0,0,3.45,10.67,31.76,31.76,0,0,0,8.67,9.68,42.8,42.8,0,0,0,4.06,2.72c1.31.84,2.61,1.61,3.92,2.32a91.6,91.6,0,0,0,33.27,10.68l2.51.28a111.51,111.51,0,0,0,14.91,1.1h1.42c2.2,0,4.42-.08,6.59-.23,3.14-.18,6.21-.46,9.16-.82l1-.18c11.81-1.66,22-5.16,30.42-10.41a58.45,58.45,0,0,0,16.56-15.47,68.62,68.62,0,0,0,8-14.81,60,60,0,0,0,1.93-36.71A69.12,69.12,0,0,0,145,55.06c-.78-1.55-1.63-3.15-2.5-4.72-.26-.46-.55-.94-.84-1.41s-.51-.87-.77-1.27c-9.45-14.61-22.29-24.54-38.14-29.52a132.14,132.14,0,0,0-15.5-3.51c-1.2-.21-2.41-.37-3.59-.49-2.66-.27-5.36-.43-8-.46ZM4.53,87.41h0Z"/><path class="cls-6" d="M148.93,103.91a69.72,69.72,0,0,0,3-10.91,59.08,59.08,0,0,0-.88-26.16q-14.1-.41-29.58-7.26c-.37-.15-.74-.29-1.11-.41A49.49,49.49,0,0,0,106,56.39q-13.17-.49-25.56,9.94l-3,2.73a71.32,71.32,0,0,0-8.55,9.66q-4.82,6.33-2.4,16.83c.3,1.11.64,2.18,1,3.23a86.56,86.56,0,0,0,10.68,21,56.29,56.29,0,0,0,8.69,9.8,73.76,73.76,0,0,0,8.46,6.57,45.35,45.35,0,0,0,13.82,5.64A71.42,71.42,0,0,0,123.74,135a73.22,73.22,0,0,0,6.52-4.67,60.59,60.59,0,0,0,10.49-11.24,69.43,69.43,0,0,0,8.18-15.16"/><path class="cls-8" d="M109.18,143.44a1.62,1.62,0,0,1-.52-3.15,69.77,69.77,0,0,0,14.23-6.69,70.88,70.88,0,0,0,6.35-4.55,59.17,59.17,0,0,0,10.2-10.92,68.62,68.62,0,0,0,8-14.81,69.47,69.47,0,0,0,2.92-10.62,57.69,57.69,0,0,0-.86-25.45,1.62,1.62,0,0,1,3.13-.82,60.93,60.93,0,0,1,.91,26.87,71.83,71.83,0,0,1-3.08,11.16A72.13,72.13,0,0,1,142.07,120a62.5,62.5,0,0,1-10.78,11.53,72.34,72.34,0,0,1-6.68,4.79,73.19,73.19,0,0,1-14.9,7,1.69,1.69,0,0,1-.53.09"/><path class="cls-8" d="M109.18,143l-.28,0a46.53,46.53,0,0,1-14.17-5.79,74.47,74.47,0,0,1-8.6-6.68,57.91,57.91,0,0,1-8.88-10A87.74,87.74,0,0,1,66.44,99.15c-.37-1.05-.72-2.17-1-3.3C63.71,88.49,64.59,82.51,68,78a73.28,73.28,0,0,1,8.67-9.8l3-2.74c8.48-7.15,17.34-10.6,26.38-10.24a51,51,0,0,1,14.66,2.83c.39.13.78.28,1.18.45,10.16,4.49,20,6.9,29.17,7.17A1.16,1.16,0,0,1,151,68c-9.51-.28-19.61-2.76-30-7.36l-1-.38a48.41,48.41,0,0,0-14-2.71c-8.46-.33-16.8,2.93-24.79,9.67l-3,2.7a71.62,71.62,0,0,0-8.4,9.48c-3,3.94-3.72,9.27-2.21,15.89.29,1,.62,2.09,1,3.11a85.76,85.76,0,0,0,10.54,20.76,55.61,55.61,0,0,0,8.52,9.6A72.44,72.44,0,0,0,96,135.22a44.11,44.11,0,0,0,13.46,5.47,1.16,1.16,0,0,1-.28,2.28"/><path class="cls-7" d="M148.94,104.44a1.92,1.92,0,0,0,1.36-1,2.21,2.21,0,0,0,.21-1.75,2.11,2.11,0,0,0-1-1.28,2.36,2.36,0,0,0-1.7-.29,2.41,2.41,0,0,0-1.33,1.1,2,2,0,0,0-.24,1.62,2.24,2.24,0,0,0,1.05,1.41,1.89,1.89,0,0,0,1.67.16"/><path class="cls-7" d="M144.87,111.47a1.93,1.93,0,0,0,1.36-1,2.22,2.22,0,0,0,.21-1.75,2,2,0,0,0-1-1.28,2.07,2.07,0,0,0-3,.81,2,2,0,0,0-.24,1.62,2.24,2.24,0,0,0,1,1.41,1.93,1.93,0,0,0,1.67.16"/><path class="cls-7" d="M140.8,118.5a2,2,0,0,0,1.37-1,2.25,2.25,0,0,0,.2-1.75,2,2,0,0,0-1-1.28,2.07,2.07,0,0,0-3,.81,2.07,2.07,0,0,0-.24,1.63,2.17,2.17,0,0,0,1.06,1.4,1.91,1.91,0,0,0,1.66.17"/><path class="cls-7" d="M134.69,110.94a1.94,1.94,0,0,0,1.53.69,2.25,2.25,0,0,0,1.62-.69,2.09,2.09,0,0,0,.6-1.53,2.07,2.07,0,0,0-2.22-2.22,2.07,2.07,0,0,0-1.53.6,2.23,2.23,0,0,0-.69,1.62,2,2,0,0,0,.69,1.53"/><path class="cls-7" d="M138.16,101.79a1.93,1.93,0,0,0,.16,1.67,2.22,2.22,0,0,0,1.41,1.06,2.08,2.08,0,0,0,1.62-.25,2.34,2.34,0,0,0,1.1-1.33,2.37,2.37,0,0,0-.29-1.7,2.06,2.06,0,0,0-1.28-1,2.22,2.22,0,0,0-1.75.21,1.92,1.92,0,0,0-1,1.36"/><path class="cls-8" d="M130.26,131.9a1.61,1.61,0,0,1-1-2.86,59,59,0,0,0,10.19-10.91,68.71,68.71,0,0,0,8-14.81,66.56,66.56,0,0,0,2.92-10.61,1.62,1.62,0,1,1,3.18.59,70.26,70.26,0,0,1-3.08,11.17A71.08,71.08,0,0,1,142,120a61.89,61.89,0,0,1-10.75,11.51,1.61,1.61,0,0,1-1,.37"/><path class="cls-4" d="M104.42,22.05a26.17,26.17,0,0,0-.88-14.28Q100.12-.27,93,2.22a12,12,0,0,0-2.54,1.16Q81.61,8.91,75.11,20.16c-.19.36-.39.73-.6,1.1l-.09.19-.51.92-.55,1.11c-.41.8-.81,1.62-1.2,2.45.74.63,1.49,1.23,2.26,1.81.55.41,1.1.81,1.66,1.2l.74.46.19.14A47.51,47.51,0,0,0,92.36,36l.18,0,.37.09c1.76.37,3.56.67,5.41.88.72-1.17,1.39-2.34,2-3.51l.18-.37.19-.37a42.52,42.52,0,0,0,3.74-10.68"/><path class="cls-8" d="M100.33,35.09a1.65,1.65,0,0,1-.71-.17,1.6,1.6,0,0,1-.74-2.16l.37-.74a41.34,41.34,0,0,0,3.58-10.29A24.67,24.67,0,0,0,102,8.32c-2.47-5.81-5.83-5.5-8.48-4.57a10.63,10.63,0,0,0-2.26,1C85.67,8.28,80.7,13.74,76.54,21c-.2.34-.39.69-.59,1l-.1.21c-.17.31-.32.6-.47.89a1.62,1.62,0,0,1-2.89-1.45c.16-.33.34-.66.51-1l0-.08.06-.11.63-1.13C78.16,11.66,83.5,5.83,89.6,2A14.35,14.35,0,0,1,92.53.67C96.37-.67,101.71-.67,105,7.13a28,28,0,0,1,1,15.24,44.71,44.71,0,0,1-3.86,11.08l-.37.73a1.63,1.63,0,0,1-1.45.91"/><path d="M2.73,113.67a1.16,1.16,0,0,1,0-2.32A13.6,13.6,0,0,0,10.52,109a7,7,0,0,0,3-3.76,1.16,1.16,0,0,1,2.23.62,9.2,9.2,0,0,1-3.87,5,15.94,15.94,0,0,1-9.1,2.8h0"/><path class="cls-8" d="M5.5,120.88a1.64,1.64,0,0,1-1.41-.82,31.38,31.38,0,0,1-2.92-7.12,33,33,0,0,1-.93-4.77,1.62,1.62,0,1,1,3.22-.38,28.43,28.43,0,0,0,3.45,10.67,1.63,1.63,0,0,1-.61,2.21,1.65,1.65,0,0,1-.8.21"/><path d="M22.33,83.57a15.79,15.79,0,0,0,1.75,7.72q1.71,3.28,4.16,3.29c1.64,0,3-1.1,4.16-3.29a15.79,15.79,0,0,0,1.76-7.72,16.06,16.06,0,0,0-1.76-7.76c-1.14-2.13-2.52-3.19-4.16-3.19s-3,1.06-4.16,3.19a16.06,16.06,0,0,0-1.75,7.76"/><path class="cls-6" d="M38.64,54.59A3.18,3.18,0,0,0,36.28,54L23.9,56.21A3,3,0,0,0,22,57.55a3.35,3.35,0,0,0-.56,2.5,2.9,2.9,0,0,0,1.34,2.08,2.91,2.91,0,0,0,2.41.64l.09,0,12.25-2.18.23,0a3.28,3.28,0,0,0,1.76-1.34,3.12,3.12,0,0,0,.5-2.41,3.34,3.34,0,0,0-1.34-2.17"/><path class="cls-8" d="M24.62,64a4.15,4.15,0,0,1-2.55-.91,4.07,4.07,0,0,1-1.81-2.83A4.49,4.49,0,0,1,21,56.92a4.15,4.15,0,0,1,2.66-1.84L36.09,52.9a4.35,4.35,0,0,1,3.21.74,4.47,4.47,0,0,1,1.82,2.93,4.21,4.21,0,0,1-.7,3.26,4.33,4.33,0,0,1-2.3,1.76,1.73,1.73,0,0,1-.51.12l-12,2.13-.25.07a3.68,3.68,0,0,1-.73.07m.62-.1Zm.73-.3h0ZM36.8,55.16l-.35,0L24.1,57.35a1.82,1.82,0,0,0-1.17.83,2.19,2.19,0,0,0-.39,1.66,1.78,1.78,0,0,0,.81,1.31l.11.07a1.8,1.8,0,0,0,1.32.44l.3-.08,12.21-2.16.09,0h0a2,2,0,0,0,1.14-.88A1.93,1.93,0,0,0,38.84,57,2.14,2.14,0,0,0,38,55.52,2,2,0,0,0,36.8,55.16Zm.41,4.31Zm.28-.07Z"/></g></g></svg>