<svg xmlns="http://www.w3.org/2000/svg" viewBox="0 0 200 207.71"><defs><style>.cls-1{fill:#f4f2f2;}.cls-2{fill:#d5d3cc;}.cls-3{fill:#b1dde8;}.cls-4{fill:#88cdd3;}.cls-5{fill:#c9e0b5;}.cls-6{fill:#84c071;}.cls-7{fill:#ea5045;}.cls-8{fill:#e7343f;}.cls-9{fill:#73caea;}.cls-10{fill:#50b3d8;}.cls-11{fill:#fedea9;}.cls-12{fill:#fdc75f;}.cls-13{fill:#83e8d3;}.cls-14{fill:#47d7ac;}.cls-15{fill:#1cb594;}.cls-16{fill:#fff;}.cls-17{fill:#fcc5c5;}.cls-18{fill:#ffd65e;}.cls-19{fill:#d7d7d7;}.cls-20{fill:#f8f8f8;}.cls-21{fill:#6fd7f8;}.cls-22{fill:none;stroke:#f3a5a4;stroke-linecap:round;stroke-linejoin:round;}</style></defs><g id="레이어_2" data-name="레이어 2"><g id="레이어_1-2" data-name="레이어 1"><path class="cls-1" d="M189.05,103.26a38,38,0,0,0,.72,6.37,26.75,26.75,0,0,0,7.91,2.46,21,21,0,0,0,1-6.37s-3.08-2.36-9.66-2.46"/><path class="cls-2" d="M189.05,103.26l-1.12,0s0,1,.13,2.28a31,31,0,0,0,.62,4.32,1.18,1.18,0,0,0,.55.72,23.73,23.73,0,0,0,5.5,2,27,27,0,0,0,2.8.56,1.13,1.13,0,0,0,1.21-.73,22.1,22.1,0,0,0,1.09-6.75,1.1,1.1,0,0,0-.44-.88c-.14-.12-3.48-2.6-10.32-2.7a1.16,1.16,0,0,0-.81.33,1.12,1.12,0,0,0-.33.82l1.12,0v1.12a20.38,20.38,0,0,1,6.91,1.2,10.84,10.84,0,0,1,1.62.75,3.57,3.57,0,0,1,.37.22l.08.06h0l.25-.33-.25.32h0l.25-.33-.25.32.68-.89h-1.12a19.49,19.49,0,0,1-.49,4.25c-.12.55-.24,1-.33,1.3s-.08.27-.11.34l0,.09h0l1.05.38.15-1.11h0c-.23,0-1.36-.21-2.81-.59a20.83,20.83,0,0,1-4.67-1.75l-.54,1,1.09-.26a29.11,29.11,0,0,1-.56-4c-.05-.62-.08-1.16-.1-1.55,0-.19,0-.35,0-.45s0-.16,0-.16l-1.12,0v0Z"/><path class="cls-3" d="M157.16,15.85a8.26,8.26,0,0,0,2.05,5.61s7-1.91,10.14-2.6a18.28,18.28,0,0,1-1.78-5.75s-6.44,1.64-10.41,2.74"/><path class="cls-4" d="M157.16,15.85,156,15.77c0,.14,0,.27,0,.42a9.76,9.76,0,0,0,.73,3.42,7.29,7.29,0,0,0,1.72,2.7,1.15,1.15,0,0,0,1,.23l1.13-.31c2.1-.56,6.63-1.77,8.94-2.27a1.14,1.14,0,0,0,.78-.62,1.12,1.12,0,0,0,0-1l0,0c-.08-.16-.47-1-.85-2a12.18,12.18,0,0,1-.8-3.27,1.09,1.09,0,0,0-.45-.83,1.13,1.13,0,0,0-.94-.19s-6.44,1.65-10.43,2.75a1.12,1.12,0,0,0-.82,1l1.12.08.29,1.08c2-.55,4.58-1.23,6.68-1.78l3.71-1-.27-1.08-1.12.06a14.44,14.44,0,0,0,1,4.14c.45,1.18.87,2,.88,2.05l1-.5-.24-1.09c-3.22.7-10.19,2.61-10.2,2.61l.3,1.08.74-.84a5.23,5.23,0,0,1-1.12-1.84,7.46,7.46,0,0,1-.57-2.59v-.26l-1.11-.08.29,1.08Z"/><path class="cls-5" d="M193.74,66.58a22.33,22.33,0,0,0-4.12,4.34,25.05,25.05,0,0,0,4.45,6.35,25.1,25.1,0,0,0,4.81-4.59s-2.92-3.54-5.14-6.1"/><path class="cls-6" d="M193.74,66.58l-.69-.88a23.25,23.25,0,0,0-4.36,4.6,1.15,1.15,0,0,0-.08,1.12s.53,1.07,1.36,2.43a20.63,20.63,0,0,0,3.35,4.25,1.12,1.12,0,0,0,1.41.07s.85-.61,1.89-1.51a19.51,19.51,0,0,0,3.18-3.34,1.11,1.11,0,0,0-.06-1.35s-2.92-3.54-5.16-6.12a1.12,1.12,0,0,0-1.53-.15l.69.88-.85.74c1.11,1.27,2.39,2.79,3.39,4S198,73.39,198,73.39l.86-.71L198,72a17.87,17.87,0,0,1-2.8,2.92c-.49.42-.93.77-1.24,1l-.38.29-.1.07,0,0,.66.91.76-.83a18.33,18.33,0,0,1-3-3.77c-.39-.63-.7-1.19-.92-1.6l-.25-.47-.06-.13,0,0-1,.49.93.63A18.61,18.61,0,0,1,193,68.69c.4-.38.76-.69,1-.9l.29-.25.08-.06h0l-.69-.89-.85.74Z"/><path class="cls-7" d="M56,12.52a23,23,0,0,0-6.14,2.94s.2,5.13.51,8.42a18.05,18.05,0,0,1,6.8-4.42A31.14,31.14,0,0,0,56,12.52"/><path class="cls-8" d="M56,12.52l-.3-1.08a24.05,24.05,0,0,0-6.48,3.09,1.1,1.1,0,0,0-.48,1s.2,5.14.52,8.48A1.12,1.12,0,0,0,50,25a1.13,1.13,0,0,0,1.19-.34l-.09-.08.09.08h0l-.09-.08.09.08a17.1,17.1,0,0,1,6.36-4.1,1.12,1.12,0,0,0,.71-1.11s-.06-1.09-.24-2.52a24.49,24.49,0,0,0-1-4.73,1.12,1.12,0,0,0-1.36-.71l.3,1.08-1.06.36a22.78,22.78,0,0,1,.89,4.27c.08.68.14,1.28.18,1.7,0,.22,0,.38,0,.5s0,.17,0,.17l1.12-.06-.4-1a19.09,19.09,0,0,0-7.25,4.73l.85.73,1.12-.1c-.16-1.62-.28-3.72-.37-5.4s-.14-3-.14-3l-1.12.05.64.92a21.26,21.26,0,0,1,4-2.13c.56-.23,1-.39,1.35-.5l.37-.12.09,0h0L56,12.52l-1.06.36Z"/><path class="cls-9" d="M18.83,18.41a30.51,30.51,0,0,0-4.52,5.44,20.68,20.68,0,0,0,3.09,3,37.91,37.91,0,0,1,5-5.24,23,23,0,0,0-3.6-3.18"/><path class="cls-10" d="M18.83,18.41l-.76-.83a32,32,0,0,0-4.71,5.68,1.13,1.13,0,0,0,.09,1.3,21.81,21.81,0,0,0,3.27,3.17,1.12,1.12,0,0,0,1.55-.21l.12-.14c.26-.32,1-1.17,1.84-2.14a25,25,0,0,1,2.89-2.77,1.09,1.09,0,0,0,.42-.78,1.12,1.12,0,0,0-.27-.84,23.48,23.48,0,0,0-3.79-3.36,1.14,1.14,0,0,0-1.41.09l.76.83-.64.91a22.55,22.55,0,0,1,2.44,2c.3.29.55.54.71.72l.19.2,0,.05h0l.84-.74-.69-.88a29.11,29.11,0,0,0-3.55,3.45c-1,1.1-1.66,2-1.67,2l.88.69.67-.9a15.9,15.9,0,0,1-2-1.83c-.27-.28-.49-.52-.64-.7l-.18-.2-.05-.06-.87.71,1,.59a26.75,26.75,0,0,1,2.83-3.68c.43-.47.81-.86,1.08-1.13l.31-.3.08-.08,0,0-.76-.82-.64.91Z"/><path class="cls-11" d="M47.49,49.94a35.48,35.48,0,0,0-5,4.42s2.57,3.08,5,5.55c0,0,3.6-3,5.55-4.93a26.11,26.11,0,0,0-5.55-5"/><path class="cls-12" d="M47.49,49.94,46.85,49a36.74,36.74,0,0,0-5.22,4.57,1.14,1.14,0,0,0,0,1.48s2.59,3.1,5.1,5.62a1.12,1.12,0,0,0,1.51.07s3.6-3,5.62-5a1.12,1.12,0,0,0,.09-1.48A26.8,26.8,0,0,0,48.11,49a1.12,1.12,0,0,0-1.26,0l.64.91-.61.94a23.93,23.93,0,0,1,3.82,3.18c.47.47.84.88,1.09,1.17a4.19,4.19,0,0,1,.28.33l.07.09,0,0L53,55l-.79-.79c-.94.93-2.31,2.16-3.45,3.14-.56.49-1.07.92-1.44,1.22l-.58.5.71.86.8-.79c-1.21-1.21-2.46-2.58-3.4-3.65l-1.14-1.32-.43-.51-.86.72.83.76a30.87,30.87,0,0,1,3.24-3c.48-.39.88-.7,1.17-.92l.33-.24.11-.08-.65-.92-.61.94Z"/><path class="cls-1" d="M18.63,58.41s1.54,4.48,3.08,8c0,0,3.7-.72,7.5-1.85,0,0-2.46-4.62-3.8-6.68,0,0-4.21.25-6.78.56"/><path class="cls-2" d="M18.63,58.41l-1.06.36s1.55,4.5,3.11,8.06a1.13,1.13,0,0,0,1.24.65s3.74-.73,7.61-1.88a1.1,1.1,0,0,0,.71-.64,1.11,1.11,0,0,0,0-1s-.62-1.16-1.41-2.58-1.74-3.1-2.44-4.18a1.12,1.12,0,0,0-1-.51s-4.22.25-6.85.57a1.11,1.11,0,0,0-.92,1.47l1.06-.36.13,1.11c1.25-.15,2.94-.29,4.3-.39L25.47,59l-.06-1.12-.94.61c.64,1,1.58,2.64,2.36,4l1,1.8.4.75,1-.53-.32-1.07c-1.87.55-3.72,1-5.1,1.33l-1.67.36-.62.13.21,1.1,1-.45c-.76-1.71-1.52-3.69-2.1-5.24L20,58.79c-.17-.47-.26-.75-.26-.75l-1.06.37.13,1.11Z"/><path class="cls-7" d="M1.12,117.65A21.2,21.2,0,0,0,3.38,122s4.83-3.5,8.12-5.55a32.63,32.63,0,0,0-2.16-4.32,93.2,93.2,0,0,0-8.22,5.55"/><path class="cls-8" d="M1.12,117.65l-1,.4a22.62,22.62,0,0,0,2.4,4.57,1.12,1.12,0,0,0,.73.45,1.1,1.1,0,0,0,.84-.2l.8-.57c1.5-1.07,4.83-3.42,7.25-4.93a1.11,1.11,0,0,0,.44-1.37s-.29-.72-.71-1.63a23,23,0,0,0-1.55-2.89,1.13,1.13,0,0,0-1.5-.34,91,91,0,0,0-8.34,5.63,1.14,1.14,0,0,0-.36,1.28l1.05-.4.69.89c1.81-1.41,3.84-2.78,5.41-3.8.79-.51,1.46-.93,1.94-1.22l.55-.34.2-.11-.57-1-.93.63a21.34,21.34,0,0,1,1.38,2.58c.2.43.37.82.48,1.09l.14.33.05.11,1-.42-.6-1c-3.34,2.09-8.16,5.58-8.18,5.59l.66.91.91-.66a16.67,16.67,0,0,1-1.53-2.67c-.19-.4-.34-.75-.44-1a3.05,3.05,0,0,1-.11-.29l0-.09-1,.39.69.89Z"/><path class="cls-11" d="M16,155.05a24.81,24.81,0,0,0-4.31,3A12.82,12.82,0,0,0,18,163.16a10,10,0,0,0,4.63-3.49s-3.19-2.37-6.58-4.62"/><path class="cls-12" d="M16,155.05l-.5-1A26.38,26.38,0,0,0,11,157.16a1.13,1.13,0,0,0-.21,1.49,13.93,13.93,0,0,0,6.88,5.59,1.2,1.2,0,0,0,.7,0,11,11,0,0,0,5.17-3.93,1.11,1.11,0,0,0-.27-1.51s-3.2-2.38-6.62-4.66a1.15,1.15,0,0,0-1.12-.07l.5,1-.62.93c1.68,1.12,3.31,2.27,4.53,3.13l1.46,1.06.54.4.67-.9-.94-.61.3.19-.3-.2h0l.3.19-.3-.2a8.94,8.94,0,0,1-4.07,3.06l.38,1,.32-1.07-.1.33.1-.33h0l-.1.33.1-.33a11.81,11.81,0,0,1-5.65-4.69l-.93.62.72.86a27.32,27.32,0,0,1,3-2.17l.85-.51.22-.12.05,0h0l-.5-1-.62.93Z"/><path class="cls-13" d="M78.32,138.52l5.93-8.2A189.18,189.18,0,0,0,52.09,93.06q-10.64-9.5-17.52-2.25a8,8,0,0,0-2,4.85,11.71,11.71,0,0,0,1.84,6.48,27.46,27.46,0,0,0,5.37,6.29q9.31,8.46,38.51,30.09"/><path class="cls-14" d="M31.27,94.72a9.51,9.51,0,0,1,2.22-4.82l.06-.07C37.12,86.07,43.41,83.4,53,92a191.59,191.59,0,0,1,32.4,37.52,1.43,1.43,0,0,1,0,1.62l-5.93,8.2a1.42,1.42,0,0,1-2,.31c-19.41-14.38-32.41-24.54-38.62-30.18a29.3,29.3,0,0,1-5.63-6.61,13.11,13.11,0,0,1-2-7.29,8.08,8.08,0,0,1,.08-.86m4.36-3a6.62,6.62,0,0,0-1.62,4,10.41,10.41,0,0,0,1.65,5.69,26.29,26.29,0,0,0,5.09,5.94c6,5.48,18.56,15.29,37.26,29.17l4.52-6.25A188,188,0,0,0,51.15,94.12C41.61,85.59,37.13,90.17,35.63,91.75Z"/><path class="cls-13" d="M126.37,174.36l24.47,5.08a4.46,4.46,0,0,0,2.84,3.1q3.24,1.07,4.85-4.47a83.46,83.46,0,0,0,2.29-9.88q.8-5-5.95-5.54L131,155.74l-4.66,18.62Z"/><path class="cls-14" d="M131.37,154.56l2.95.85,1.36.4.28.08h0l1.56.45h.05l3.87,1.12.53.16.54.16h0l12.58,3.64c2.87.23,4.82,1.05,6,2.49a5.44,5.44,0,0,1,1,4.45c-.31,2-.76,4.08-1.31,6.31-.31,1.21-.64,2.45-1,3.72-.77,2.68-1.84,4.34-3.26,5.09a3.73,3.73,0,0,1-1.45.42,4.25,4.25,0,0,1-1.7-.22,5.63,5.63,0,0,1-2.1-1.29,5.77,5.77,0,0,1-1.28-1.91l-8-1.67-.88-.19-2.86-.59-.66-.14-.18,0-.37-.08-.54-.11-.65-.14-5.88-1.23-.37-.07-1.17-.24h0l-2.17-.45a1.18,1.18,0,0,1-.46-.19h0a1.07,1.07,0,0,1-.34-.36,1.17,1.17,0,0,1-.15-.88,1.22,1.22,0,0,1,1.45-1h0l3.86.8L137,175.3l.46.11s0,0,0,0h.1l.18,0,.32.07,3.44.72,1,.19,8.62,1.8a1.18,1.18,0,0,1,.92.84,3.21,3.21,0,0,0,2.08,2.3,1.44,1.44,0,0,0,1.21-.06c.53-.28,1.33-1.14,2-3.59a81.46,81.46,0,0,0,2.26-9.73,3.16,3.16,0,0,0-.46-2.54c-.69-.88-2.14-1.41-4.3-1.58a1.92,1.92,0,0,1-.32,0L142.7,160.4h0l-.75-.21-1.07-.32-2.94-.85-.76-.22h0l-.84-.25h0l-1.27-.37-4.28-1.24,0,0a1.22,1.22,0,1,1,.68-2.35Z"/><path class="cls-13" d="M103,118.3v-9.13H89A210.52,210.52,0,0,0,76,134c-2.41,5.47-4.67,8-5.7,12.64-3.2,14.07.53,26.49,10.12,32.32l9.51-4.67,5,9.59,6.14.21h2.06a43.1,43.1,0,0,0,4.59-.33l8.26-1.35,7.6-3.45c.61-.37,1.2-.76,1.76-1.18q12.31-8.91,7.83-28.68A82.93,82.93,0,0,0,128,134L111,118.3H103"/><path class="cls-14" d="M103.1,185.56H101l-6.19-.22a1.46,1.46,0,0,1-1.42-1.52,1.48,1.48,0,0,1,1.52-1.42l6.15.21h2a1.48,1.48,0,0,1,0,2.95Z"/><path class="cls-15" d="M106.2,155a12.6,12.6,0,0,0-1-4.65,11.13,11.13,0,0,0-2.59-3.84,11.81,11.81,0,0,0-16.89.09,11.2,11.2,0,0,0-2.55,3.88,12,12,0,0,0-.93,4.68v.69l6.51,0v-.69a5.5,5.5,0,0,1,1.57-3.92,5.48,5.48,0,0,1,7.72,0A5.18,5.18,0,0,1,99.73,155v.65h6.47V155"/><path class="cls-13" d="M169.72,119.9q-6.91.19-14,1A198.87,198.87,0,0,0,121.17,128l-.69,10.1q13.71.76,24,1.16,17,.67,24.82.33a27.51,27.51,0,0,0,8.16-1.41,11.63,11.63,0,0,0,5.55-3.8,8,8,0,0,0,1.59-5q-.66-10-14.91-9.47"/><path class="cls-13" d="M90.93,164.4,68,185.83a5.59,5.59,0,0,0-5.24.67q-3.45,2.55,1.07,8.21a103.67,103.67,0,0,0,8.47,9.52c3.07,3,7.79,2.71,11.39-1.66l24-18.82L90.93,164.4Z"/><path class="cls-16" d="M135.61,24.46l-.73-3.29q-5.19-1.32-12.33,2l-5.16,4.19q12.36-5.13,18.22-2.94m1.66,7.2L136.41,28q-9.25-2.6-24.07,3.57l-4.85,3.95Q129.38,28.93,137.27,31.66Z"/><path class="cls-17" d="M143.43,4.66,140.38.5a12.36,12.36,0,0,0-6.09,10.67,18.4,18.4,0,0,1,9.14-6.51m-9.14,6.51.07.24a33.82,33.82,0,0,1,9.28.66V8.15A22.7,22.7,0,0,0,134.29,11.17Z"/><path class="cls-18" d="M136.41,28l-.8-3.49q-5.85-2.19-18.22,2.94l-5,4.12q14.82-6.16,24.07-3.57m4.74,20.71-3.88-17q-7.89-2.73-29.78,3.81L105.55,37a88.14,88.14,0,0,0,35.6,11.63m-7.76-34a2.15,2.15,0,0,1-.45,0l-10.39,8.48q7.14-3.36,12.33-2l-1.49-6.48m-.07-.24-.38.28a2.15,2.15,0,0,0,.45,0Z"/><path class="cls-18" d="M141.17,44.38h-.12A75.89,75.89,0,0,1,108.5,33.76a1.38,1.38,0,0,1-.62-1.09,1.41,1.41,0,0,1,.51-1.15l24.9-20.26a1.39,1.39,0,0,1,1.33-.23,1.37,1.37,0,0,1,.91,1l7,30.65a1.39,1.39,0,0,1-.3,1.22A1.42,1.42,0,0,1,141.17,44.38Zm-29.48-12a76,76,0,0,0,27.69,9l-6.07-26.58Z"/><path class="cls-16" d="M100.88,34.7a19.71,19.71,0,0,0-4.08-9.86Q92.45,20,88.07,23.39a9.24,9.24,0,0,0-1.5,1.41q-4.87,6-6.64,15.39l-.18.93,0,.16c0,.25-.07.5-.1.76s-.11.61-.15.92c-.09.65-.17,1.32-.25,2,.67.26,1.35.51,2,.74l1.45.46c.21.05.43.12.65.19l.15,0a35.94,35.94,0,0,0,12.31,1l.14,0,.28,0c1.32-.15,2.65-.36,4-.64.23-1,.42-2,.57-3l0-.3,0-.31a31.33,31.33,0,0,0,0-8.38"/><path class="cls-14" d="M100.79,44.94a1.22,1.22,0,0,1-1.21-1.11,2.42,2.42,0,0,1,.06-.65l0-.22a30.2,30.2,0,0,0,0-8.06,18.78,18.78,0,0,0-3.84-9.27c-3.14-3.51-5.41-2.51-7-1.25a8.11,8.11,0,0,0-1.33,1.25,32.7,32.7,0,0,0-6.36,14.82l-.2,1-.1.76a1.21,1.21,0,0,1-2.4-.32l.1-.76v-.22l.19-.94a35.18,35.18,0,0,1,6.88-15.92,10.75,10.75,0,0,1,1.73-1.63c2.37-1.84,6.12-3.09,10.34,1.63a21.06,21.06,0,0,1,4.39,10.5,32.48,32.48,0,0,1,0,8.7l0,.31,0,.15a1.2,1.2,0,0,1-1.1,1.2h-.11"/><path class="cls-16" d="M118.19,32.94a27.42,27.42,0,0,0-2.7-.48q-3.09-.49-6.06-.7l-.35,0a2.73,2.73,0,0,0-.38,0h-.38A66.74,66.74,0,0,0,84.11,35.4Q67.22,41.49,60.39,56.94a3.56,3.56,0,0,0-.24.52Q59.57,58.84,59,60.4a4,4,0,0,0-.18.52l0,.14A58.41,58.41,0,0,0,56,74.57a35.13,35.13,0,0,1-1.9,9.1,36.47,36.47,0,0,0-2.74,11.68c0,.9,0,1.77,0,2.63a1,1,0,0,0,0,.45,8.12,8.12,0,0,0,.17,2,23,23,0,0,0,1.25,4.71c.25.53.52,1.07.8,1.63a1.07,1.07,0,0,0,.17.34,24.14,24.14,0,0,0,6.09,7.38,30.31,30.31,0,0,0,2.91,2.25c.93.63,1.88,1.26,2.88,1.91a69.55,69.55,0,0,0,24.52,9.24l1.8.38a91.93,91.93,0,0,0,11.15,1.49,9,9,0,0,1,1,0c1.66.09,3.32.14,5,.14q3.57,0,6.89-.21l.83,0a73.1,73.1,0,0,0,13.37-2.36l.24-.07a52.48,52.48,0,0,0,9.94-4q.77-.42,1.53-.9a44.17,44.17,0,0,0,11.81-10,46,46,0,0,0,10.45-24.59,43.25,43.25,0,0,0-.79-13.68,51.66,51.66,0,0,0-2.88-8.83c-.27-.69-.56-1.35-.86-2s-.56-1.1-.83-1.63l-.63-1.11a4,4,0,0,0-.52-.93,5.58,5.58,0,0,1-.48-.94c-.3-.48-.6-1-.9-1.42a52.12,52.12,0,0,0-26.6-21.16,92,92,0,0,0-11.53-3.15"/><path class="cls-13" d="M163.42,74.08c-.3-1.29-.65-2.59-1-3.91a53.13,53.13,0,0,0-22.27,10.7q-4.68,3.88-5.68,7.13a18.52,18.52,0,0,0-.52,7.69c.14.83.31,1.66.52,2.49a65.26,65.26,0,0,0,7.27,18.29,45.79,45.79,0,0,0,2.81,4.29,45.88,45.88,0,0,0,9.25-8.41,46,46,0,0,0,10.45-24.59,42.93,42.93,0,0,0-.45-12.08c-.11-.54-.23-1.07-.34-1.6"/><path class="cls-13" d="M144.51,121.63a.89.89,0,0,1-.71-.36,47.65,47.65,0,0,1-2.86-4.39,66.14,66.14,0,0,1-7.35-18.51c-.21-.83-.39-1.69-.53-2.54a19.19,19.19,0,0,1,.55-8.09c.72-2.35,2.67-4.82,5.95-7.54a54.12,54.12,0,0,1,22.63-10.88.87.87,0,0,1,.38,1.69,52.58,52.58,0,0,0-21.91,10.53c-3,2.46-4.79,4.72-5.4,6.72a17.64,17.64,0,0,0-.49,7.33c.13.76.3,1.58.5,2.38A64.78,64.78,0,0,0,142.45,116a46.89,46.89,0,0,0,2.76,4.22.87.87,0,0,1-.2,1.21.85.85,0,0,1-.5.16"/><path class="cls-14" d="M109.15,131.08c-1.68,0-3.38,0-5.05-.14a6.61,6.61,0,0,0-.89,0H103a95,95,0,0,1-11.3-1.51l-1.8-.38A71,71,0,0,1,65,119.65l-2.92-1.93a37,37,0,0,1-3-2.34,25.5,25.5,0,0,1-6.35-7.68,2.66,2.66,0,0,1-.25-.51c-.27-.53-.52-1-.77-1.56l0-.09a25.62,25.62,0,0,1-1.31-5,9.55,9.55,0,0,1-.19-2,2.1,2.1,0,0,1,0-.61c0-.86,0-1.76,0-2.66a37.63,37.63,0,0,1,2.82-12,34.42,34.42,0,0,0,1.83-8.78,59.48,59.48,0,0,1,2.82-13.68l.07-.24a5.66,5.66,0,0,1,.2-.58c.37-1.05.76-2.05,1.15-3a5.15,5.15,0,0,1,.28-.59C64,45.86,72.18,38.41,83.7,34.26a68.25,68.25,0,0,1,24.67-3.71h.33l.37,0a2.2,2.2,0,0,1,.44,0c2,.15,4.09.38,6.17.71.88.11,1.82.28,2.78.5A92,92,0,0,1,130.12,35a53.48,53.48,0,0,1,27.21,21.64c.31.47.61.95.92,1.44l.1.21a4,4,0,0,0,.35.68,5.81,5.81,0,0,1,.62,1.09l.58,1.05c.3.57.58,1.12.86,1.67s.62,1.36.91,2.07a52.87,52.87,0,0,1,2.93,9,44.86,44.86,0,0,1,.82,14.07,49.93,49.93,0,0,1-3.83,14.21,50.45,50.45,0,0,1-6.9,11,45.72,45.72,0,0,1-12.13,10.25c-.49.31-1,.63-1.56.92a55.33,55.33,0,0,1-10.18,4.08l-.13,0-.12,0a74.8,74.8,0,0,1-13.59,2.4c-.28,0-.56,0-.84,0-2.25.14-4.59.21-7,.21m-5.51-2.58.6,0a101.66,101.66,0,0,0,11.73-.07c.27,0,.56,0,.85,0a72.93,72.93,0,0,0,13-2.29,1.66,1.66,0,0,1,.42-.12,53.27,53.27,0,0,0,9.61-3.86c.46-.25.95-.54,1.44-.85a43.16,43.16,0,0,0,11.52-9.73A44.73,44.73,0,0,0,163,87.63a42.58,42.58,0,0,0-.78-13.29,51.1,51.1,0,0,0-2.8-8.61c-.28-.69-.56-1.33-.85-1.93s-.53-1.07-.81-1.59l-.6-1.07L157.1,61a2.82,2.82,0,0,0-.37-.66l0-.07a7,7,0,0,1-.55-1c-.28-.45-.55-.88-.83-1.31a51.16,51.16,0,0,0-26-20.68,91.13,91.13,0,0,0-11.37-3.1c-.9-.2-1.77-.36-2.61-.47-2-.32-4-.55-5.93-.68h-.08a1.09,1.09,0,0,1-.44,0h-.56A65.76,65.76,0,0,0,84.5,36.55c-10.86,3.92-18.61,11-23,20.88l0,.11-.16.34c-.4.95-.78,1.91-1.14,2.93l0,.07-.11.34,0,.06,0,.18A57,57,0,0,0,57.2,74.68a36.78,36.78,0,0,1-2,9.41v0A35.15,35.15,0,0,0,52.56,95.4c0,.86,0,1.7,0,2.51v.2l0,.36a6.74,6.74,0,0,0,.15,1.68,22.51,22.51,0,0,0,1.18,4.48c.24.51.49,1,.76,1.57l.07.17.09.16a23.1,23.1,0,0,0,5.8,7,29.31,29.31,0,0,0,2.82,2.18q1.36.93,2.85,1.89a68.52,68.52,0,0,0,24.07,9.07l1.85.39a95.37,95.37,0,0,0,10.89,1.46ZM54.78,106.44h0Zm-.69-22.77h0Z"/><path class="cls-16" d="M153.58,43.84a19.43,19.43,0,0,0,.47-10.6q-1.89-6.23-7.33-5a8.75,8.75,0,0,0-2,.63,33.46,33.46,0,0,0-12.59,11l-.57.76-.08.13-.41.64c-.19.25-.37.5-.53.76-.36.56-.72,1.12-1.08,1.7q.75.78,1.53,1.53l1.13,1c.17.14.34.28.51.44l.13.09A36.35,36.35,0,0,0,143.6,53l.13,0,.26.1c1.27.43,2.58.81,3.92,1.13.64-.79,1.23-1.6,1.78-2.4l.16-.26.17-.26a30.64,30.64,0,0,0,3.56-7.54"/><path class="cls-14" d="M149.68,53.11a1.22,1.22,0,0,1-1.14-1.63,1.81,1.81,0,0,1,.33-.57l.12-.18a29.81,29.81,0,0,0,3.42-7.24,18.28,18.28,0,0,0,.45-10C151.49,29,149,29,147,29.41a7.57,7.57,0,0,0-1.74.55,32.44,32.44,0,0,0-12.1,10.6l-.61.84-.41.64a1.21,1.21,0,1,1-2-1.32l.47-.73.07-.1.56-.76a35.09,35.09,0,0,1,13.05-11.38,10.9,10.9,0,0,1,2.27-.72c2.93-.65,6.88-.17,8.71,5.86a20.76,20.76,0,0,1-.48,11.32A31.55,31.55,0,0,1,151,52l-.16.26-.09.12a1.22,1.22,0,0,1-1.09.69"/><path class="cls-14" d="M144.51,122a1.2,1.2,0,0,1-1-.52,1.22,1.22,0,0,1,.31-1.69,44.33,44.33,0,0,0,9-8.19A44.73,44.73,0,0,0,163,87.63a42.41,42.41,0,0,0-.44-11.74l-.34-1.55c-.28-1.23-.62-2.51-1-3.79L161,70a1.21,1.21,0,1,1,2.26-.85l.21.56,0,.07c.4,1.34.75,2.68,1.06,4l.35,1.61a44.57,44.57,0,0,1,.47,12.46,49.93,49.93,0,0,1-3.83,14.21,50.45,50.45,0,0,1-6.9,11,47.24,47.24,0,0,1-9.5,8.64,1.12,1.12,0,0,1-.68.21"/><path class="cls-13" d="M77.9,61.77l.14.11L85.77,67l.06,0a1.92,1.92,0,0,0,1.82.3,2.07,2.07,0,0,0,1.53-1,2.49,2.49,0,0,0,.3-1.86A1.93,1.93,0,0,0,88.54,63L80.71,57.8a2.31,2.31,0,0,0-3.24.78,2.15,2.15,0,0,0-.37,1.78,2.21,2.21,0,0,0,.8,1.41"/><path class="cls-14" d="M87,68.33a2.79,2.79,0,0,1-1.65-.55l-.07,0-7.73-5.12,0,0-.17-.14a3.3,3.3,0,0,1-.58-4.34,3.19,3.19,0,0,1,4.42-1L89,62.29a2.73,2.73,0,0,1,1.31,2.09,3.23,3.23,0,0,1-.42,2.42,2.94,2.94,0,0,1-2.07,1.4,3.18,3.18,0,0,1-.84.13m-1.29-.45Zm.67-1.49a1.07,1.07,0,0,0,1,.14l.13,0a1.23,1.23,0,0,0,.92-.61,1.63,1.63,0,0,0,.19-1.22,1.09,1.09,0,0,0-.53-.91l-7.87-5.23a1.49,1.49,0,0,0-1.13-.17,1.47,1.47,0,0,0-.91.7,1.58,1.58,0,0,0,.22,2l.11.11,7.64,5Z"/><path class="cls-13" d="M120.89,63.21a2.37,2.37,0,0,0-1.8-.28l-9,2.36a2.31,2.31,0,0,0-1.32,1.14,2.64,2.64,0,0,0-.21,1.87,2.09,2.09,0,0,0,1.11,1.45,2.15,2.15,0,0,0,1.8.28l.07,0,8.94-2.29.17-.07a2.32,2.32,0,0,0,1.18-1.07,2.26,2.26,0,0,0,.24-1.84,2.74,2.74,0,0,0-1.18-1.52"/><path class="cls-14" d="M110.88,71a3.2,3.2,0,0,1-1.65-.49,3,3,0,0,1-1.51-2A3.45,3.45,0,0,1,108,66a3.2,3.2,0,0,1,1.79-1.57l.08,0,9-2.36a3.3,3.3,0,0,1,2.47.38,3.55,3.55,0,0,1,1.56,2,3.37,3.37,0,0,1-1.92,4l-.23.09-.06,0-8.85,2.26-.1,0a2.87,2.87,0,0,1-.86.14m.66-.13Zm-1.19-4.75a1.53,1.53,0,0,0-.82.73,1.79,1.79,0,0,0-.13,1.25,1.27,1.27,0,0,0,.67.89,1.39,1.39,0,0,0,1.05.25l.25-.09,8.86-2.26h0a1.51,1.51,0,0,0,.81-.72,1.39,1.39,0,0,0,.16-1.19,1.82,1.82,0,0,0-.81-1,1.53,1.53,0,0,0-1.15-.15Zm10.13,1.6Z"/><path class="cls-13" d="M57.17,66.41a66.3,66.3,0,0,0-1.26,8A34.3,34.3,0,0,1,54,83.52a46.28,46.28,0,0,0-1.56,4.6q3.6-3.63,5.91-6.18A7.46,7.46,0,0,0,60.16,75a58.39,58.39,0,0,0-3-8.63"/><path class="cls-13" d="M52.47,89a.83.83,0,0,1-.6-.26.85.85,0,0,1,0-1.22c2.37-2.4,4.35-4.47,5.87-6.16a6.52,6.52,0,0,0,1.57-6.13,58.81,58.81,0,0,0-2.94-8.49.87.87,0,0,1,.48-1.13.85.85,0,0,1,1.12.48,57,57,0,0,1,3,8.78,8.26,8.26,0,0,1-2,7.65c-1.54,1.71-3.54,3.8-5.93,6.22a.87.87,0,0,1-.62.26"/><path class="cls-14" d="M52.47,89.33l-.32,0a1.22,1.22,0,0,1-.85-1.49,46.58,46.58,0,0,1,1.61-4.74,33.26,33.26,0,0,0,1.78-8.73A66.22,66.22,0,0,1,56,66.14a1.21,1.21,0,1,1,2.36.53,66.11,66.11,0,0,0-1.24,7.87,35.37,35.37,0,0,1-1.93,9.39,44.52,44.52,0,0,0-1.53,4.51,1.21,1.21,0,0,1-1.17.89"/><path class="cls-16" d="M9.45,77.13a1,1,0,0,0,.59,0l7.38-5,.45-.34a1,1,0,0,0,.14-.56,1.61,1.61,0,0,0-.35-.93,1.53,1.53,0,0,0-.83-.7,1,1,0,0,0-.8.07l-7.34,5a1.15,1.15,0,0,0-.38.69,1.81,1.81,0,0,0,.38,1,1.86,1.86,0,0,0,.76.66"/><path class="cls-19" d="M9.83,78.4a2.4,2.4,0,0,1-.73-.11l-.11,0A3,3,0,0,1,7.7,77.18a3.07,3.07,0,0,1-.6-1.68v-.19a2.36,2.36,0,0,1,.73-1.43L8,73.74l7.34-5,.1-.06a2.17,2.17,0,0,1,1.76-.16,2.63,2.63,0,0,1,1.46,1.17,2.84,2.84,0,0,1,.55,1.61,2.13,2.13,0,0,1-.31,1.17,1.64,1.64,0,0,1-.55.59,1.79,1.79,0,0,1-.36.21l-7.28,4.89-.35.16a1.9,1.9,0,0,1-.54.07m-.26-2.8.08.13.12.16,7-4.69-.08-.12,0-.06-.1-.14Z"/><polyline class="cls-20" points="66.45 93.99 67.94 91.22 17.59 72.28 11.25 76.61 66.45 93.99"/><path class="cls-19" d="M66.45,95.21l-.36-.06L10.89,77.77a1.21,1.21,0,0,1-.32-2.16l6.34-4.33A1.21,1.21,0,0,1,18,71.15L68.37,90.09a1.21,1.21,0,0,1,.71.71,1.25,1.25,0,0,1-.07,1l-1.49,2.77a1.22,1.22,0,0,1-1.07.64M14,76.2,65.86,92.54l.36-.67L17.75,73.64Z"/><path class="cls-21" d="M88.48,102.93l-.3,0-4.53-1.14-20.3-5.09a1.23,1.23,0,0,1-.78-.63,1.17,1.17,0,0,1,0-1l2.84-7a1.21,1.21,0,0,1,1.57-.66l22.22,8.86a1.21,1.21,0,0,1,.71,1.52,6.59,6.59,0,0,0-.35,2.2,7.93,7.93,0,0,0,.14,1.49,1.2,1.2,0,0,1-.34,1.12,1.21,1.21,0,0,1-.84.34M84.23,99.4h0l2.85.72V100a9.54,9.54,0,0,1,.18-1.86L87,98h0l-9.3-3.74-10.55-4.2L65.3,94.65Z"/><path class="cls-21" d="M63.65,95.48l4.26,1.08,5.43-5.3-6.85-2.74-2.84,7m14.51-2.32-4.89,4.75,5.41,1.35,4.26-4.19-4.78-1.91m10.32,8.56A8.21,8.21,0,0,1,88.3,100a7.86,7.86,0,0,1,.42-2.59l-1.25-.49-3.53,3.67Z"/><path class="cls-16" d="M82.94,95.07l-4.26,4.19,5.26,1.31,3.53-3.67-4.53-1.83m-9.67,2.84,4.89-4.75-4.82-1.9-5.43,5.3Z"/><path d="M90.49,106a.88.88,0,0,1-.67-.31,8.85,8.85,0,0,1,.57-11.84A9.43,9.43,0,0,1,92,92.57.87.87,0,0,1,92.89,94a7.25,7.25,0,0,0-1.27,1,7.09,7.09,0,0,0-.47,9.49.86.86,0,0,1-.11,1.22.84.84,0,0,1-.55.21"/><path class="cls-22" d="M143.43,4.66,140.38.5a12.36,12.36,0,0,0-6.09,10.67,18.4,18.4,0,0,1,9.14-6.51m-9.14,6.51.07.24a33.82,33.82,0,0,1,9.28.66V8.15A22.7,22.7,0,0,0,134.29,11.17Z"/><path d="M74.09,82.19l-.4-.63.31.68.09,0-.4-.63.31.68-.08-.17.07.17h0l-.08-.17.07.17.14,0a14.34,14.34,0,0,1,1.63-.26c1-.12,2.32-.23,3.31-.29l1.22-.08.48,0A1.42,1.42,0,0,0,82,80.72a1.44,1.44,0,0,0-.15-1.48l-4-5.28a1.44,1.44,0,0,0-2.29,1.73l4,5.28,1.15-.86-.07-1.44s-1.32.07-2.85.19c-.77.06-1.6.13-2.36.23a15.27,15.27,0,0,0-2,.32l-.41.13a2,2,0,0,0-.47.23,1.44,1.44,0,1,0,1.55,2.42Z"/><path d="M115.07,84.8s-1.25-.44-2.87-.87a26.69,26.69,0,0,0-2.65-.58,13.58,13.58,0,0,0-2.75-.21l0,.88.27-.83a.69.69,0,0,0-.31,0l0,.88.27-.83-.4,1.22.85-1a1.36,1.36,0,0,0-.45-.26l-.4,1.22.85-1-.9,1,1.31-.35a1.36,1.36,0,0,0-.41-.66l-.9,1,1.31-.35-1.26.34,1.25.38a1.39,1.39,0,0,0,0-.72l-1.26.34,1.25.38-.84-.26.67.59a.77.77,0,0,0,.17-.33l-.84-.26.67.59a2.7,2.7,0,0,1,.36-.31c.38-.3,1-.7,1.62-1.12,1-.63,2.11-1.3,3-1.82l1.08-.62.42-.24a1.44,1.44,0,0,0-1.41-2.5s-1.81,1-3.61,2.12c-.9.55-1.79,1.13-2.49,1.64a7.43,7.43,0,0,0-.92.75,2.27,2.27,0,0,0-.41.48,1.58,1.58,0,0,0-.21.45,1.64,1.64,0,0,0,0,.87,1.53,1.53,0,0,0,.46.74,1.81,1.81,0,0,0,.78.38,3,3,0,0,0,.49,0,10.9,10.9,0,0,1,2.16.17,31.19,31.19,0,0,1,3.44.82l1.16.36.32.11.08,0h0a1.44,1.44,0,0,0,1-2.71Z"/><path class="cls-14" d="M77.08,207.71a6.62,6.62,0,0,1-4.47-1.88c-1.67-1.6-5.91-6.21-8.67-9.54s-2.91-5-2.88-5.5a6.59,6.59,0,0,1,2.17-5.34A7.93,7.93,0,0,1,68.94,184l10.41-8.69a1,1,0,1,1,1.28,1.53l-10.75,9a1,1,0,0,1-.83.22s-2.83-.52-4.55.92a4.7,4.7,0,0,0-1.44,3.83.49.49,0,0,1,0,.12h0s.11,1.26,2.43,4.06c2.72,3.29,6.88,7.82,8.51,9.37a4,4,0,0,0,5,.75,26.68,26.68,0,0,0,4-3.26l.09-.08,22.17-17.67a1,1,0,0,1,1.4.16,1,1,0,0,1-.16,1.4L84.32,203.31a27.6,27.6,0,0,1-4.26,3.51A5.48,5.48,0,0,1,77.08,207.71Z"/><path class="cls-14" d="M77.9,178.24a1,1,0,0,1-.6-.2c-6.74-5.14-10.39-10.75-9.14-24.21,1.45-15.61,6.93-20.41,7.16-20.61a1,1,0,1,1,1.29,1.53c-.08.07-5.1,4.64-6.46,19.27-1.16,12.53,2.18,17.71,8.36,22.43a1,1,0,0,1,.19,1.4A1,1,0,0,1,77.9,178.24Z"/><path class="cls-14" d="M102.52,185a43.69,43.69,0,0,1-5.48-.3,1,1,0,0,1,.27-2c.13,0,13.39,1.71,25.6-3.82,9.29-4.2,12.71-13.75,10.18-28.37a55.82,55.82,0,0,0-5.33-16,1,1,0,0,1,1.75-1,56.87,56.87,0,0,1,5.55,16.65c2.67,15.41-1.25,26-11.33,30.53A52.49,52.49,0,0,1,102.52,185Z"/><path class="cls-14" d="M131.2,140.78a1,1,0,0,1,0-2c.29,0,28.75-.88,36.57-1.26.66,0,1.44,0,2.3,0,3.82,0,9.58,0,12.27-2.88a6.54,6.54,0,0,0,1.58-5c-.4-8.85-8.47-9.14-21.71-8.58-12.22.51-27.37,5.85-27.52,5.9a1,1,0,0,1-1.27-.6A1,1,0,0,1,134,125c.63-.23,15.58-5.49,28.1-6,11.44-.49,23.28-1,23.8,10.49a8.47,8.47,0,0,1-2.13,6.51c-3.27,3.45-9.55,3.49-13.71,3.51-.83,0-1.58,0-2.22,0-7.83.38-36.31,1.25-36.6,1.26Z"/></g></g></svg>