<svg xmlns="http://www.w3.org/2000/svg" viewBox="0 0 285.75 255.55"><defs><style>.cls-1{fill:#3fdb62;}.cls-2{fill:#11b336;}.cls-3{fill:#8e8ef4;}.cls-4{fill:#bdbdff;}.cls-5{fill:#6f6fef;}.cls-6{fill:#ff82c7;}.cls-7{fill:#fff;}.cls-8{fill:#ee53a8;}.cls-9{fill:#c865ff;}.cls-10{fill:#4fecff;}.cls-11{fill:#ff4a4a;}.cls-12{fill:#ffda4d;}.cls-13{fill:#ff7c40;}.cls-14{fill:#2a94ff;}.cls-15{fill:#fc0;}.cls-16{fill:#ffa200;}.cls-17{fill:#ff4a6e;}.cls-18{fill:#d42648;}.cls-19{fill:#ffa5b7;}.cls-20{fill:#83e8d3;}.cls-21{fill:#47d7ac;}.cls-22{fill:#1cb594;}.cls-23{fill:#fcc5c5;}.cls-24{fill:#ffd65e;}.cls-25{fill:none;stroke:#f3a5a4;stroke-linecap:round;stroke-linejoin:round;}.cls-26{fill:#d7d7d7;}.cls-27{fill:#f8f8f8;}.cls-28{fill:#6fd7f8;}.cls-29{fill:#ffb6b6;}.cls-30{fill:#ffa4a4;}.cls-31{fill:#ff5c5c;}.cls-32{fill:#4de22f;}.cls-33{fill:#1ba500;}.cls-34{fill:#ca6cff;}.cls-35{fill:#a226e9;}.cls-36{fill:#26b5ff;}.cls-37{fill:#0058d3;}.cls-38{fill:#ffd432;}.cls-39{fill:#ff8a21;}.cls-40{fill:#ff4141;}.cls-41{fill:#f41b1b;}.cls-42{fill:#ff4d4d;}.cls-43{fill:#ec2a2a;}.cls-44{fill:#ffe045;}.cls-45{fill:#b8f36d;}.cls-46{fill:#93d145;}.cls-47{fill:#67c72f;}</style></defs><g id="레이어_2" data-name="레이어 2"><g id="레이어_1-2" data-name="레이어 1"><g id="Layer3_3_MEMBER_0_FILL" data-name="Layer3 3 MEMBER 0 FILL"><path class="cls-1" d="M136.91,160.63V131.4H81.72v29.23Z"/></g><g id="Layer3_3_MEMBER_0_MEMBER_0_1_STROKES" data-name="Layer3 3 MEMBER 0 MEMBER 0 1 STROKES"><path class="cls-2" d="M136.91,142.65H81.72a1.39,1.39,0,1,1,0-2.78h55.19a1.39,1.39,0,1,1,0,2.78Z"/></g><g id="Layer3_3_MEMBER_0_MEMBER_1_1_STROKES" data-name="Layer3 3 MEMBER 0 MEMBER 1 1 STROKES"><path class="cls-2" d="M136.91,162H81.72a1.39,1.39,0,0,1-1.39-1.39V131.4A1.39,1.39,0,0,1,81.72,130h55.19a1.39,1.39,0,0,1,1.39,1.39v29.23A1.39,1.39,0,0,1,136.91,162Zm-53.8-2.79h52.41V132.79H83.11Z"/></g><g id="Layer3_3_MEMBER_1_MEMBER_0_FILL" data-name="Layer3 3 MEMBER 1 MEMBER 0 FILL"><path class="cls-3" d="M175.09,192.08l64.73,8.27,44.54-13,0-42.91h0L206.58,136l-26.72,14.91Z"/></g><g id="Layer3_3_MEMBER_1_MEMBER_1_FILL" data-name="Layer3 3 MEMBER 1 MEMBER 1 FILL"><path class="cls-4" d="M257.6,174.78a1,1,0,0,0-.68.92l-.43,3.42a.82.82,0,0,1-.4.75l-2.75,2.07a1.05,1.05,0,0,0-.43,1,1,1,0,0,0,.63.92l3.1,1.43a1.06,1.06,0,0,1,.64.68l1.11,3.22a1,1,0,0,0,.84.75,1,1,0,0,0,1.07-.35l2.35-2.51a1.05,1.05,0,0,1,.83-.36l3.38-.08a1.12,1.12,0,0,0,1-.59,1,1,0,0,0,0-1.12L266.19,182a1,1,0,0,1-.12-.91l1-3.31a1,1,0,0,0-.24-1.07,1.18,1.18,0,0,0-1-.4l-3.42.72a1.18,1.18,0,0,1-.87-.2l-2.79-1.95a1.1,1.1,0,0,0-1.11-.12m19.21-10.54,3.38-.07a1.11,1.11,0,0,0,1-.6,1,1,0,0,0,0-1.11l-1.63-3a1,1,0,0,1-.12-.91l1-3.3a1,1,0,0,0-.23-1.08,1.19,1.19,0,0,0-1-.39l-3.42.71a1.13,1.13,0,0,1-.87-.2l-2.79-2a1.13,1.13,0,0,0-1.11-.11,1,1,0,0,0-.68.91l-.43,3.42a.84.84,0,0,1-.4.76l-2.74,2.06a1.07,1.07,0,0,0-.44,1,1,1,0,0,0,.63.91l3.11,1.43a1.07,1.07,0,0,1,.63.68l1.12,3.22a1,1,0,0,0,.83.76,1,1,0,0,0,1.07-.36L276,164.6a1.06,1.06,0,0,1,.84-.36M199,158.72a1,1,0,0,1-.12-.92l1-3.3a1,1,0,0,0-.24-1.07,1.19,1.19,0,0,0-1-.4l-3.42.72a1.25,1.25,0,0,1-.88-.2l-2.78-2a1.11,1.11,0,0,0-1.11-.12,1,1,0,0,0-.68.91l-.44,3.42a.81.81,0,0,1-.4.76l-2.74,2.07a1.07,1.07,0,0,0-.44,1,1,1,0,0,0,.64.92l3.1,1.43a1.07,1.07,0,0,1,.64.67l1.11,3.23a1,1,0,0,0,.84.75,1,1,0,0,0,1.07-.36l2.35-2.5a1.05,1.05,0,0,1,.83-.36l3.38-.08a1.11,1.11,0,0,0,1-.6,1,1,0,0,0,0-1.11L199,158.72m14.39,18.45a1.07,1.07,0,0,0-.44,1,1,1,0,0,0,.64.92l3.1,1.43a1.09,1.09,0,0,1,.64.67l1.11,3.23a1,1,0,0,0,.84.75,1,1,0,0,0,1.07-.36l2.35-2.5a1.05,1.05,0,0,1,.83-.36l3.38-.08a1.1,1.1,0,0,0,1-.6,1,1,0,0,0,0-1.11l-1.63-2.94a1,1,0,0,1-.11-.92l1-3.3a1,1,0,0,0-.24-1.07,1.19,1.19,0,0,0-1-.4l-3.42.72a1.25,1.25,0,0,1-.88-.2l-2.78-2a1.11,1.11,0,0,0-1.11-.12,1,1,0,0,0-.68.92l-.44,3.42a.81.81,0,0,1-.4.75l-2.74,2.07m22.75-39a1,1,0,0,0-.68.91l-.44,3.42a.81.81,0,0,1-.4.76l-2.74,2.07a1.07,1.07,0,0,0-.44,1,1,1,0,0,0,.64.92l3.1,1.43a1.07,1.07,0,0,1,.64.67l1.11,3.22a1,1,0,0,0,.84.76,1,1,0,0,0,1.07-.36l2.35-2.5a1.05,1.05,0,0,1,.83-.36l3.38-.08a1.11,1.11,0,0,0,1-.6,1,1,0,0,0,0-1.11l-1.63-2.94a1,1,0,0,1-.12-.92l1-3.3a1,1,0,0,0-.24-1.07,1.19,1.19,0,0,0-1-.4l-3.42.72a1.25,1.25,0,0,1-.88-.2l-2.78-1.95A1.11,1.11,0,0,0,236.13,138.16Z"/></g><g id="Layer3_3_MEMBER_1_MEMBER_2_1_STROKES" data-name="Layer3 3 MEMBER 1 MEMBER 2 1 STROKES"><path class="cls-5" d="M239.82,201.74a1.39,1.39,0,0,1-1.39-1.39v-41.7l-58.72-6.38a1.39,1.39,0,1,1,.3-2.77L239.7,156l44.19-12.92a1.39,1.39,0,1,1,.78,2.67l-43.45,12.71v41.9A1.4,1.4,0,0,1,239.82,201.74Z"/></g><g id="Layer3_3_MEMBER_1_MEMBER_3_1_STROKES" data-name="Layer3 3 MEMBER 1 MEMBER 3 1 STROKES"><path class="cls-5" d="M239.82,201.74h-.17l-64.74-8.27a1.4,1.4,0,0,1-1.21-1.54l4.78-41.2a1.39,1.39,0,0,1,.7-1.05l26.72-14.91a1.4,1.4,0,0,1,.83-.17L284.41,143a1.42,1.42,0,0,1,1.3,1.38l0,42.91a1.37,1.37,0,0,1-1,1.33l-44.53,13.05A1.75,1.75,0,0,1,239.82,201.74Zm-63.19-10.87,63.08,8.06L283,186.27l0-40.61-76.06-8.26-25.71,14.35Z"/></g><g id="Layer3_3_MEMBER_2_MEMBER_0_FILL" data-name="Layer3 3 MEMBER 2 MEMBER 0 FILL"><path class="cls-6" d="M87.6,114l-28.39-3.82-21.87,5.41v57.26H87.6Z"/></g><g id="Layer3_3_MEMBER_2_MEMBER_1_FILL" data-name="Layer3 3 MEMBER 2 MEMBER 1 FILL"><path class="cls-7" d="M67.4,154.26v-7L37.34,166.35v6.48h.8L67.4,154.26m20.2,2.55v-7L67.4,137v7l20.2,12.85m0,16v-.75L67.4,159.23v7l10.34,6.6H87.6M67.4,132v-7L37.34,144.08v7L67.4,132m5.29-13.92-5.29,1.47v2.15l20.2,12.84v-7l-14.91-9.46m-35.35,5.33v7l19.33-12.28-9.15-1.2Z"/></g><g id="Layer3_3_MEMBER_2_MEMBER_2_1_STROKES" data-name="Layer3 3 MEMBER 2 MEMBER 2 1 STROKES"><path class="cls-8" d="M67.4,174.23a1.4,1.4,0,0,1-1.39-1.4V120.77L37.16,117a1.39,1.39,0,1,1,.36-2.76l29.78,3.94,19.93-5.49a1.39,1.39,0,1,1,.74,2.68l-19.18,5.29v52.22A1.4,1.4,0,0,1,67.4,174.23Z"/></g><g id="Layer3_3_MEMBER_2_MEMBER_3_1_STROKES" data-name="Layer3 3 MEMBER 2 MEMBER 3 1 STROKES"><path class="cls-8" d="M87.6,174.23H37.34a1.4,1.4,0,0,1-1.39-1.4V115.57A1.38,1.38,0,0,1,37,114.22l21.87-5.41a1.3,1.3,0,0,1,.52,0l28.39,3.81A1.39,1.39,0,0,1,89,114v58.85A1.4,1.4,0,0,1,87.6,174.23Zm-48.87-2.79H86.21V115.2l-26.92-3.62-20.56,5.08Z"/></g><g id="Layer3_3_MEMBER_2_MEMBER_4_1_STROKES" data-name="Layer3 3 MEMBER 2 MEMBER 4 1 STROKES"><path class="cls-8" d="M63.19,115.29h-.08a1.51,1.51,0,0,1-.65-.15c-5.59-2.93-8.74-5.25-9.91-7.31a4.44,4.44,0,0,1-.63-1.65,3.36,3.36,0,0,1,2-3.9,4.81,4.81,0,0,1,4.4-.1c1.29.64,2.58,2,4,4.21a13.67,13.67,0,0,1,.77,1.34A13.32,13.32,0,0,1,65.62,103,6.55,6.55,0,0,1,67,101.6a4.94,4.94,0,0,1,4.5-1A3,3,0,0,1,74.11,104c-.13,1.24-1.06,2.92-2.91,5.27a25.82,25.82,0,0,1-6.91,5.67,3.92,3.92,0,0,1-.58.29A1.37,1.37,0,0,1,63.19,115.29Zm-6.93-10.82a2,2,0,0,0-1,.28c-.74.38-.68.59-.63.8a1.36,1.36,0,0,1,0,.17,1.75,1.75,0,0,0,.27.68c.55,1,2.12,2.53,6.54,5A10.14,10.14,0,0,0,60,107.91c-1.49-2.29-2.45-3-2.88-3.22A2.2,2.2,0,0,0,56.26,104.47Zm14-1.27a2.47,2.47,0,0,0-1.54.63l-.09.06a3.46,3.46,0,0,0-.82.81l-.07.07c-1.06,1.19-1.93,3.3-2.6,6.28A20.1,20.1,0,0,0,69,107.49c2-2.6,2.29-3.6,2.32-3.84a.56.56,0,0,0,0-.14h0a1.4,1.4,0,0,0-.55-.23A2.29,2.29,0,0,0,70.24,103.2Z"/></g><g id="Layer3_3_MEMBER_3_FILL" data-name="Layer3 3 MEMBER 3 FILL"><path class="cls-9" d="M35.51,94.46,30,92.63,27.2,100.5l5.45,1.83Z"/><path class="cls-10" d="M103.83,36,106.41,29l-5-1.67-2.5,7.08Z"/><path class="cls-11" d="M64.7,47.73l3.14,8.59,5.92-2L70.7,45.74l-6,2m85-42.7,2.62,7.15,4.93-1.67-2.54-7.15Z"/><path class="cls-12" d="M78,10l2.11,5.72L84,14.41,82,8.68Z"/><path class="cls-13" d="M225.43,44.47l2.62,7.16L233,50l-2.54-7.16Z"/><path class="cls-14" d="M250.16,68.53l2.11-5.73-4-1.35-2,5.73Z"/></g><g id="Layer3_3_MEMBER_3_1_STROKES" data-name="Layer3 3 MEMBER 3 1 STROKES"><path class="cls-14" d="M250.16,69.92a1.41,1.41,0,0,1-.45-.07l-3.94-1.36a1.37,1.37,0,0,1-.8-.71,1.42,1.42,0,0,1-.06-1.07l2-5.72a1.4,1.4,0,0,1,1.76-.86l4,1.35a1.42,1.42,0,0,1,.82.72,1.4,1.4,0,0,1,.05,1.08L251.47,69A1.4,1.4,0,0,1,250.16,69.92ZM248,66.32l1.32.45,1.14-3.1-1.36-.46Z"/></g><g id="Layer3_3_MEMBER_3_2_STROKES" data-name="Layer3 3 MEMBER 3 2 STROKES"><path class="cls-13" d="M228.05,53a1.38,1.38,0,0,1-1.3-.91L224.12,45a1.4,1.4,0,0,1,0-1.08,1.42,1.42,0,0,1,.82-.72l5-1.67a1.39,1.39,0,0,1,1.75.86l2.55,7.15a1.39,1.39,0,0,1-.87,1.79L228.5,53A1.41,1.41,0,0,1,228.05,53Zm-.82-7.68,1.66,4.54,2.31-.79-1.61-4.54Z"/></g><g id="Layer3_3_MEMBER_3_3_STROKES" data-name="Layer3 3 MEMBER 3 3 STROKES"><path class="cls-11" d="M67.84,57.71a1.4,1.4,0,0,1-1.31-.91l-3.14-8.59a1.36,1.36,0,0,1,.06-1.08,1.37,1.37,0,0,1,.81-.72l6-2a1.38,1.38,0,0,1,1.74.86l3.07,8.59a1.39,1.39,0,0,1-.87,1.78l-5.93,2A1.31,1.31,0,0,1,67.84,57.71ZM66.5,48.6l2.18,6,3.3-1.1-2.13-6Zm85.84-35a1.41,1.41,0,0,1-1.31-.92L148.41,5.5a1.4,1.4,0,0,1,.05-1.08,1.42,1.42,0,0,1,.82-.72l5-1.67a1.39,1.39,0,0,1,1.75.86l2.54,7.16a1.33,1.33,0,0,1-.06,1.07,1.37,1.37,0,0,1-.8.71l-4.93,1.67A1.42,1.42,0,0,1,152.34,13.58Zm-.82-7.69,1.66,4.54,2.31-.78-1.62-4.54Z"/></g><g id="Layer3_3_MEMBER_3_4_STROKES" data-name="Layer3 3 MEMBER 3 4 STROKES"><path class="cls-12" d="M80.09,17.15a1.4,1.4,0,0,1-1.31-.91l-2.11-5.72a1.42,1.42,0,0,1,0-1.09,1.44,1.44,0,0,1,.82-.71l4-1.36a1.4,1.4,0,0,1,1.76.86l2,5.73A1.42,1.42,0,0,1,85.28,15a1.4,1.4,0,0,1-.8.71l-3.94,1.35A1.41,1.41,0,0,1,80.09,17.15Zm-.31-6.25L80.92,14l1.32-.45-1.1-3.11Z"/></g><g id="Layer3_3_MEMBER_3_5_STROKES" data-name="Layer3 3 MEMBER 3 5 STROKES"><path class="cls-10" d="M103.83,37.43a1.41,1.41,0,0,1-.45-.07l-4.89-1.67a1.39,1.39,0,0,1-.87-1.78l2.51-7.08a1.39,1.39,0,0,1,1.75-.86l5,1.67a1.43,1.43,0,0,1,.81.72,1.4,1.4,0,0,1,0,1.08l-2.59,7.08A1.38,1.38,0,0,1,103.83,37.43Zm-3.11-3.92,2.27.77,1.62-4.45-2.31-.78Z"/></g><g id="Layer3_3_MEMBER_3_6_STROKES" data-name="Layer3 3 MEMBER 3 6 STROKES"><path class="cls-9" d="M32.65,103.72a1.41,1.41,0,0,1-.45-.07l-5.44-1.83a1.39,1.39,0,0,1-.87-1.79l2.82-7.87a1.4,1.4,0,0,1,1.75-.85L36,93.14a1.39,1.39,0,0,1,.87,1.79L34,102.81A1.4,1.4,0,0,1,32.65,103.72ZM29,99.63l2.81,1,1.91-5.25-2.84-1Z"/></g><g id="Layer3_3_MEMBER_4_FILL" data-name="Layer3 3 MEMBER 4 FILL"><path class="cls-15" d="M190.83,146.91l45.49,5.41,33.73-9.07V114.94l-79.22-9.83v41.8M237,124.16l-.68.16.6-.16H237m-.68.16.68-.16h-.08Z"/></g><g id="Layer3_3_MEMBER_4_1_STROKES" data-name="Layer3 3 MEMBER 4 1 STROKES"><path d="M236.32,125.71A1.39,1.39,0,0,1,236,123l.59-.16a1.44,1.44,0,0,1,1.78,1.18,1.36,1.36,0,0,1-1,1.52l-.68.16A1.66,1.66,0,0,1,236.32,125.71Z"/></g><g id="Layer3_3_MEMBER_4_MEMBER_0_1_STROKES" data-name="Layer3 3 MEMBER 4 MEMBER 0 1 STROKES"><path class="cls-16" d="M236.33,153.71h0a1.4,1.4,0,0,1-1.36-1.43l.65-26.88-44.91-5.46a1.39,1.39,0,1,1,.33-2.77l45.82,5.58,32.85-9.15a1.39,1.39,0,1,1,.75,2.68l-32.05,8.93-.65,27.14A1.39,1.39,0,0,1,236.33,153.71Z"/></g><g id="Layer3_3_MEMBER_4_MEMBER_1_1_STROKES" data-name="Layer3 3 MEMBER 4 MEMBER 1 1 STROKES"><path class="cls-16" d="M236.32,153.71h-.16l-45.49-5.41a1.39,1.39,0,0,1-1.23-1.38v-41.8a1.4,1.4,0,0,1,1.57-1.38l79.21,9.82a1.4,1.4,0,0,1,1.22,1.39v28.31a1.39,1.39,0,0,1-1,1.34l-33.72,9.07A1.5,1.5,0,0,1,236.32,153.71Zm-44.09-8,44,5.23,32.43-8.72v-26l-76.42-9.48Z"/></g><g id="Layer3_3_MEMBER_5_MEMBER_0_MEMBER_0_FILL" data-name="Layer3 3 MEMBER 5 MEMBER 0 MEMBER 0 FILL"><path class="cls-17" d="M63.27,209.26l.16,0L108.36,194V173l-62.27-19.8L1.39,166.31v21.12Z"/></g><g id="Layer3_3_MEMBER_5_MEMBER_0_MEMBER_2_1_STROKES" data-name="Layer3 3 MEMBER 5 MEMBER 0 MEMBER 2 1 STROKES"><path class="cls-18" d="M63.43,210.61a1.4,1.4,0,0,1-1.4-1.39v-20L.93,167.63A1.39,1.39,0,1,1,1.86,165l61.57,21.75,44.48-15.11a1.39,1.39,0,1,1,.9,2.63l-44,14.95v20A1.39,1.39,0,0,1,63.43,210.61Z"/></g><g id="Layer3_3_MEMBER_5_MEMBER_0_MEMBER_3_1_STROKES" data-name="Layer3 3 MEMBER 5 MEMBER 0 MEMBER 3 1 STROKES"><path class="cls-18" d="M63.27,210.65a1.5,1.5,0,0,1-.47-.08L.93,188.74A1.39,1.39,0,0,1,0,187.43V166.31A1.39,1.39,0,0,1,1,165l44.7-13.16a1.4,1.4,0,0,1,.81,0l62.27,19.81a1.38,1.38,0,0,1,1,1.32v21a1.39,1.39,0,0,1-.94,1.32L63.87,210.54l-.1,0-.16,0A1.32,1.32,0,0,1,63.27,210.65ZM2.78,186.44,63.3,207.79,107,193V174l-60.9-19.36L2.78,167.35Z"/></g><g id="Layer3_3_MEMBER_5_MEMBER_2_MEMBER_0_FILL" data-name="Layer3 3 MEMBER 5 MEMBER 2 MEMBER 0 FILL"><path class="cls-19" d="M41.87,163.81a1.31,1.31,0,0,0,.4-1,1.37,1.37,0,0,0-1.35-1.35,1.35,1.35,0,0,0-1.35,1.35,1.35,1.35,0,0,0,1.35,1.36A1.31,1.31,0,0,0,41.87,163.81Z"/></g><g id="Layer3_3_MEMBER_5_MEMBER_2_MEMBER_1_FILL" data-name="Layer3 3 MEMBER 5 MEMBER 2 MEMBER 1 FILL"><path class="cls-19" d="M60.8,165.24a1.34,1.34,0,0,0,0-1.91,1.31,1.31,0,0,0-.95-.4,1.35,1.35,0,0,0-1,.4,1.34,1.34,0,0,0,0,1.91,1.35,1.35,0,0,0,1,.4A1.31,1.31,0,0,0,60.8,165.24Z"/></g><g id="Layer3_3_MEMBER_5_MEMBER_2_MEMBER_2_FILL" data-name="Layer3 3 MEMBER 5 MEMBER 2 MEMBER 2 FILL"><path class="cls-19" d="M22.89,167.66a1.3,1.3,0,0,0,.39-.95,1.33,1.33,0,0,0-1.35-1.35,1.35,1.35,0,0,0-1.35,1.35,1.37,1.37,0,0,0,1.35,1.35A1.31,1.31,0,0,0,22.89,167.66Z"/></g><g id="Layer3_3_MEMBER_5_MEMBER_2_MEMBER_2_FILL-2" data-name="Layer3 3 MEMBER 5 MEMBER 2 MEMBER 2 FILL"><path class="cls-19" d="M50.7,176.85a1.27,1.27,0,0,0,.4-.95,1.29,1.29,0,0,0-.4-1,1.31,1.31,0,0,0-1-.4,1.35,1.35,0,0,0-1,.4,1.33,1.33,0,0,0-.4,1,1.37,1.37,0,0,0,1.36,1.35A1.27,1.27,0,0,0,50.7,176.85Z"/></g><g id="Layer3_3_MEMBER_5_MEMBER_2_MEMBER_3_FILL" data-name="Layer3 3 MEMBER 5 MEMBER 2 MEMBER 3 FILL"><path class="cls-19" d="M72.61,176.85a1.27,1.27,0,0,0,.4-.95,1.29,1.29,0,0,0-.4-1,1.31,1.31,0,0,0-1-.4,1.35,1.35,0,0,0-1,.4,1.32,1.32,0,0,0-.39,1,1.35,1.35,0,0,0,1.35,1.35A1.27,1.27,0,0,0,72.61,176.85Z"/></g><g id="Layer3_3_MEMBER_5_MEMBER_2_MEMBER_4_FILL" data-name="Layer3 3 MEMBER 5 MEMBER 2 MEMBER 4 FILL"><path class="cls-19" d="M52.05,198.32a1.27,1.27,0,0,0,.4-.95A1.35,1.35,0,0,0,51.1,196a1.33,1.33,0,0,0-1.35,1.35,1.35,1.35,0,0,0,1.35,1.35A1.27,1.27,0,0,0,52.05,198.32Z"/></g><g id="Layer3_3_MEMBER_5_MEMBER_2_MEMBER_5_FILL" data-name="Layer3 3 MEMBER 5 MEMBER 2 MEMBER 5 FILL"><path class="cls-19" d="M42.67,187a1.31,1.31,0,0,0,.4-.95,1.37,1.37,0,0,0-1.36-1.36,1.31,1.31,0,0,0-1,.4,1.29,1.29,0,0,0-.4,1,1.37,1.37,0,0,0,1.35,1.35A1.29,1.29,0,0,0,42.67,187Z"/></g><g id="Layer3_3_MEMBER_5_MEMBER_2_MEMBER_6_FILL" data-name="Layer3 3 MEMBER 5 MEMBER 2 MEMBER 6 FILL"><path class="cls-19" d="M31.22,191.64a1.3,1.3,0,0,0,.39-.95,1.33,1.33,0,0,0-1.35-1.35,1.35,1.35,0,0,0-1.35,1.35A1.37,1.37,0,0,0,30.26,192,1.31,1.31,0,0,0,31.22,191.64Z"/></g><g id="Layer3_3_MEMBER_5_MEMBER_2_MEMBER_7_FILL" data-name="Layer3 3 MEMBER 5 MEMBER 2 MEMBER 7 FILL"><path class="cls-19" d="M77.5,198.32a1.27,1.27,0,0,0,.4-.95A1.35,1.35,0,0,0,76.55,196a1.33,1.33,0,0,0-1.35,1.35,1.35,1.35,0,0,0,1.35,1.35A1.27,1.27,0,0,0,77.5,198.32Z"/></g><g id="Layer3_3_MEMBER_5_MEMBER_2_MEMBER_8_FILL" data-name="Layer3 3 MEMBER 5 MEMBER 2 MEMBER 8 FILL"><path class="cls-19" d="M89.91,187a1.31,1.31,0,0,0,.4-.95,1.36,1.36,0,0,0-2.71,0,1.31,1.31,0,0,0,.4.95,1.34,1.34,0,0,0,1.91,0Z"/></g><g id="Layer3_3_MEMBER_5_MEMBER_2_MEMBER_9_FILL" data-name="Layer3 3 MEMBER 5 MEMBER 2 MEMBER 9 FILL"><path class="cls-19" d="M9.42,176.85a1.27,1.27,0,0,0,.4-.95,1.29,1.29,0,0,0-.4-1,1.33,1.33,0,0,0-1.9,0,1.29,1.29,0,0,0-.4,1,1.37,1.37,0,0,0,1.35,1.35A1.27,1.27,0,0,0,9.42,176.85Z"/></g><g id="Layer3_3_MEMBER_6_MEMBER_0_FILL" data-name="Layer3 3 MEMBER 6 MEMBER 0 FILL"><path class="cls-20" d="M136.43,161.42q2.79-2,7-5.61l-8.27-15.15c-1.16.91-2,1.5-2.38,1.79a44.74,44.74,0,0,1-35.67,7.72q-14.44-2.35-16,9-.6,9,7.91,11.73A46.05,46.05,0,0,0,110.11,172a61.51,61.51,0,0,0,15.07-4.1,46.83,46.83,0,0,0,8.63-4.65C134.61,162.72,135.48,162.11,136.43,161.42Z"/></g><g id="Layer3_3_MEMBER_6_MEMBER_0_1_STROKES" data-name="Layer3 3 MEMBER 6 MEMBER 0 1 STROKES"><path class="cls-21" d="M101.74,174.11a45.48,45.48,0,0,1-13.11-1.89c-6.26-2-9.33-6.54-8.9-13.16,0,0,0-.06,0-.09.51-3.69,2-6.46,4.4-8.25,3-2.21,7.43-2.86,13.19-1.93A43.58,43.58,0,0,0,132,141.32c.42-.29,1.2-.88,2.34-1.76a1.39,1.39,0,0,1,1.7,2.21c-1.19.92-2,1.52-2.45,1.83a46.19,46.19,0,0,1-36.71,7.93c-5-.8-8.69-.32-11.06,1.43-1.8,1.33-2.87,3.41-3.28,6.34-.34,5.38,1.86,8.64,6.95,10.26a44.83,44.83,0,0,0,20.42,1.07,60.57,60.57,0,0,0,14.78-4,45.36,45.36,0,0,0,8.38-4.52q1.16-.76,2.58-1.8c1.81-1.32,4.14-3.18,6.91-5.54a1.39,1.39,0,0,1,1.8,2.13c-2.82,2.4-5.2,4.3-7.08,5.67-1,.7-1.87,1.33-2.67,1.86a49,49,0,0,1-8.88,4.79,63.68,63.68,0,0,1-15.41,4.18A52.24,52.24,0,0,1,101.74,174.11Z"/></g><g id="Layer3_3_MEMBER_6_MEMBER_1_MEMBER_0_FILL" data-name="Layer3 3 MEMBER 6 MEMBER 1 MEMBER 0 FILL"><path class="cls-20" d="M176.64,133.71H134.8Q121,162.38,123.07,189.22l5.09,6.52q19.22,5.56,53,1.27l.48-6.16Q183.56,164.8,176.64,133.71Z"/></g><g id="Layer3_3_MEMBER_6_MEMBER_1_MEMBER_0_1_STROKES" data-name="Layer3 3 MEMBER 6 MEMBER 1 MEMBER 0 1 STROKES"><path class="cls-21" d="M154.55,200.26c-10.5,0-19.45-1.06-26.77-3.18a1.46,1.46,0,0,1-.71-.48L122,190.07a1.34,1.34,0,0,1-.29-.75c-1.37-18,2.62-37,11.86-56.22a1.39,1.39,0,0,1,1.25-.79h41.84A1.41,1.41,0,0,1,178,133.4c4.62,20.77,6.3,40.13,5,57.55l-.48,6.17a1.39,1.39,0,0,1-1.21,1.27A213.12,213.12,0,0,1,154.55,200.26ZM129,194.53c12.32,3.46,29.42,3.88,50.85,1.24l.39-5c1.26-16.84-.32-35.56-4.7-55.64H135.68c-8.68,18.38-12.47,36.4-11.25,53.59Z"/></g><g id="Layer3_3_MEMBER_6_MEMBER_1_MEMBER_1_MEMBER_0_FILL" data-name="Layer3 3 MEMBER 6 MEMBER 1 MEMBER 1 MEMBER 0 FILL"><path class="cls-22" d="M153.12,160.34a11.23,11.23,0,0,0-.87-4.13A9.71,9.71,0,0,0,150,152.8a10.09,10.09,0,0,0-7.54-3.12,10.63,10.63,0,0,0-9.72,6.64,10.65,10.65,0,0,0-.83,4.16v.61l5.78,0v-.61a4.89,4.89,0,0,1,1.4-3.48,4.76,4.76,0,0,1,3.41-1.43,4.71,4.71,0,0,1,3.44,1.4,4.6,4.6,0,0,1,1.47,3.48V161h5.75Z"/></g><g id="Layer3_3_MEMBER_6_MEMBER_5_FILL" data-name="Layer3 3 MEMBER 6 MEMBER 5 FILL"><path class="cls-20" d="M239.35,131.56q4.64-6.51,2.22-12.77-3.47-7.58-10.41-8.19T217.32,117q-22.73,22.78-45.41,27.32l4.77,13.56q4.63.23,7.83.16c1.46,0,2.81-.09,4.06-.2a59.39,59.39,0,0,0,12.2-1.83A76.18,76.18,0,0,0,219,148.7,58.09,58.09,0,0,0,239.35,131.56Z"/></g><g id="Layer3_3_MEMBER_6_MEMBER_5_1_STROKES" data-name="Layer3 3 MEMBER 6 MEMBER 5 1 STROKES"><path class="cls-21" d="M183.1,159.45c-1.87,0-4-.06-6.49-.18a1.39,1.39,0,0,1,.13-2.78c3,.15,5.65.2,7.75.16,1.42,0,2.75-.09,4-.19a58.69,58.69,0,0,0,12-1.79,75.85,75.85,0,0,0,17.89-7.18,57.09,57.09,0,0,0,19.92-16.75c2.81-3.94,3.49-7.68,2.07-11.41-2.11-4.58-5.13-7-9.26-7.34s-8.52,1.55-12.7,6c-15.3,15.34-30.82,24.66-46.15,27.73a1.39,1.39,0,0,1-.55-2.73c14.79-3,29.83-12,44.7-26.94,4.79-5.06,9.83-7.36,15-6.8s9,3.48,11.54,9l0,.08c1.78,4.62,1,9.36-2.39,14.08a59.68,59.68,0,0,1-20.85,17.56,78.11,78.11,0,0,1-18.5,7.43,60.85,60.85,0,0,1-12.49,1.87c-1.22.11-2.62.18-4.1.2Z"/></g><g id="Layer3_3_MEMBER_6_MEMBER_6_FILL" data-name="Layer3 3 MEMBER 6 MEMBER 6 FILL"><path class="cls-20" d="M143.75,196.53l-18-12.24-2.91,1.07-13.48,5.09q-2.27-7.56-7.87-5.65-4.14,1.39-3.7,8.16a49.76,49.76,0,0,0,2.59,13.2q1.55,4.65,4.85,5.45,2.07.51,7.12-1.67Z"/></g><g id="Layer3_3_MEMBER_6_MEMBER_6_1_STROKES" data-name="Layer3 3 MEMBER 6 MEMBER 6 1 STROKES"><path class="cls-21" d="M106.16,213.1a5.28,5.28,0,0,1-1.24-.14c-2.68-.65-4.64-2.79-5.83-6.36A51.11,51.11,0,0,1,96.43,193c-.33-5.19,1.23-8.41,4.65-9.56a6.59,6.59,0,0,1,5.27.19,8.75,8.75,0,0,1,3.9,5l12.13-4.56a1.39,1.39,0,1,1,1,2.6l-13.48,5.07a1.36,1.36,0,0,1-1.1-.05,1.38,1.38,0,0,1-.72-.85c-.74-2.49-1.75-4.07-3-4.71a3.91,3.91,0,0,0-3.11,0c-.78.26-3.13,1-2.76,6.75a48.63,48.63,0,0,0,2.51,12.84c.89,2.65,2.15,4.13,3.86,4.54.62.16,2.23.15,6.24-1.59l31.38-13.41a1.39,1.39,0,0,1,1.1,2.56l-31.38,13.41A18.48,18.48,0,0,1,106.16,213.1Z"/></g><g id="Layer3_3_MEMBER_6_MEMBER_7_FILL" data-name="Layer3 3 MEMBER 6 MEMBER 7 FILL"><path class="cls-20" d="M190,183.49q-6.36-1.4-7.95,7.08l-4.46-2.35-1.91-11.57H153.3L151.39,184l-3.34,9.38,6.08,3.62,21.35,12.65a28.46,28.46,0,0,0,8.08,3.5q3.62.8,5.44.12,3.54-1.2,4.7-6.49A54.15,54.15,0,0,0,195,192Q194.73,184.53,190,183.49Z"/></g><g id="Layer3_3_MEMBER_6_MEMBER_7_1_STROKES" data-name="Layer3 3 MEMBER 6 MEMBER 7 1 STROKES"><path class="cls-21" d="M187,214.94a17.47,17.47,0,0,1-3.7-.46,29.57,29.57,0,0,1-8.49-3.67l-21.35-12.64a1.39,1.39,0,1,1,1.42-2.4l21.35,12.65a26.7,26.7,0,0,0,7.68,3.34c2.65.58,4,.41,4.65.17,1.92-.65,3.15-2.43,3.82-5.47a53.17,53.17,0,0,0,1.28-14.39c-.24-6.42-3-7-3.88-7.22a4.42,4.42,0,0,0-3.53.43c-1.3.86-2.23,2.73-2.76,5.55a1.39,1.39,0,0,1-2,1L177,189.45a1.39,1.39,0,0,1,1.3-2.46l2.86,1.51a9.28,9.28,0,0,1,3.54-5.54,7.15,7.15,0,0,1,5.66-.83c3.81.84,5.85,4.14,6.06,9.82a55.75,55.75,0,0,1-1.35,15.12c-.87,4-2.76,6.53-5.6,7.48A7.08,7.08,0,0,1,187,214.94Z"/></g><path class="cls-23" d="M195.46,4.66l-3-4.16a12.37,12.37,0,0,0-6.1,10.67,18.45,18.45,0,0,1,9.14-6.51m-9.14,6.51.07.24a33.77,33.77,0,0,1,9.28.66V8.15A22.75,22.75,0,0,0,186.32,11.17Z"/><path class="cls-24" d="M188.44,28l-.8-3.49q-5.85-2.19-18.21,2.94l-5.06,4.12q14.82-6.16,24.07-3.57m4.74,20.71-3.88-17q-7.89-2.73-29.78,3.81L157.58,37a88.19,88.19,0,0,0,35.6,11.63m-7.75-34a2.28,2.28,0,0,1-.45,0l-10.39,8.48q7.13-3.36,12.33-2l-1.49-6.48m-.07-.24-.38.28a2.28,2.28,0,0,0,.45,0Z"/><path class="cls-24" d="M193.2,44.38h-.12a75.82,75.82,0,0,1-32.54-10.61,1.39,1.39,0,0,1-.12-2.24l24.91-20.26a1.39,1.39,0,0,1,2.23.77l7,30.65a1.4,1.4,0,0,1-1.36,1.7Zm-29.48-12a76,76,0,0,0,27.69,9l-6.06-26.58Z"/><path class="cls-25" d="M195.46,4.66l-3-4.16a12.37,12.37,0,0,0-6.1,10.67,18.45,18.45,0,0,1,9.14-6.51m-9.14,6.51.07.24a33.77,33.77,0,0,1,9.28.66V8.15A22.75,22.75,0,0,0,186.32,11.17Z"/><g id="Layer3_3_MEMBER_6_MEMBER_3_MEMBER_0_FILL" data-name="Layer3 3 MEMBER 6 MEMBER 3 MEMBER 0 FILL"><path class="cls-7" d="M148.57,35.75a22.62,22.62,0,0,0-4.69-11.31q-5-5.6-10-1.67a10.69,10.69,0,0,0-1.73,1.62q-5.58,6.87-7.62,17.67l-.21,1.07,0,.18-.11.87c-.07.35-.13.71-.18,1.06-.09.75-.19,1.52-.28,2.3.77.3,1.54.58,2.33.85l1.67.53.74.21.17,0a41.24,41.24,0,0,0,14.13,1.08.32.32,0,0,0,.17,0l.32,0c1.51-.17,3-.41,4.59-.73q.4-1.72.66-3.39a.86.86,0,0,1,0-.35l.05-.35A35.68,35.68,0,0,0,148.57,35.75Z"/></g><g id="Layer3_3_MEMBER_6_MEMBER_3_MEMBER_0_1_STROKES" data-name="Layer3 3 MEMBER 6 MEMBER 3 MEMBER 0 1 STROKES"><path class="cls-21" d="M148.5,47.48a1.38,1.38,0,0,1-1.38-1.27,2.12,2.12,0,0,1,.06-.75l0-.24a34.58,34.58,0,0,0,0-9.26,21.46,21.46,0,0,0-4.4-10.64c-3.61-4-6.22-2.89-8.08-1.44a8.79,8.79,0,0,0-1.53,1.43c-3.53,4.34-6,10.08-7.3,17l-.22,1.15-.12.89A1.39,1.39,0,0,1,122.8,44l.14-1s0-.07,0-.09l.21-1.07c1.39-7.4,4-13.55,7.91-18.29a12.16,12.16,0,0,1,2-1.87c2.72-2.12,7-3.55,11.87,1.87a24.17,24.17,0,0,1,5,12.06,36.71,36.71,0,0,1,0,10l0,.35a1.16,1.16,0,0,1,0,.18,1.4,1.4,0,0,1-1.27,1.38Z"/></g><g id="Layer3_3_MEMBER_6_MEMBER_3_MEMBER_1_FILL" data-name="Layer3 3 MEMBER 6 MEMBER 3 MEMBER 1 FILL"><path class="cls-7" d="M168.45,33.74c-1.06-.24-2.1-.43-3.11-.56q-3.54-.55-7-.8a2.58,2.58,0,0,0-.39,0,3.77,3.77,0,0,0-.44,0h-.44a76.46,76.46,0,0,0-27.79,4.18q-19.41,7-27.24,24.73a4.11,4.11,0,0,0-.28.6c-.45,1.06-.89,2.19-1.31,3.38a3.52,3.52,0,0,0-.2.6.29.29,0,0,0,0,.16A66.44,66.44,0,0,0,97,81.53,40.8,40.8,0,0,1,94.84,92a41.38,41.38,0,0,0-3.14,13.4c0,1,0,2,0,3a1.17,1.17,0,0,0,0,.52,9.06,9.06,0,0,0,.2,2.27,27.31,27.31,0,0,0,1.43,5.41c.29.61.6,1.23.91,1.87a1.8,1.8,0,0,0,.2.39,27.7,27.7,0,0,0,7,8.47,37,37,0,0,0,3.34,2.59c1.06.71,2.16,1.44,3.3,2.18a79.74,79.74,0,0,0,28.16,10.62c.66.13,1.35.28,2.06.44a109.51,109.51,0,0,0,12.81,1.71,7.88,7.88,0,0,1,1.19,0c1.91.11,3.82.16,5.73.16q4.1,0,7.91-.24c.32,0,.64,0,1,0a84.7,84.7,0,0,0,15.35-2.7.57.57,0,0,1,.28-.08A61.5,61.5,0,0,0,194,137.4c.59-.31,1.17-.66,1.75-1a50.57,50.57,0,0,0,13.56-11.45,52.6,52.6,0,0,0,12-28.24,49.81,49.81,0,0,0-.91-15.7,59.34,59.34,0,0,0-3.3-10.14c-.32-.8-.65-1.55-1-2.27s-.63-1.26-1-1.87l-.72-1.27a4.32,4.32,0,0,0-.59-1.08,5.52,5.52,0,0,1-.56-1.07c-.34-.56-.69-1.1-1-1.63a59.79,59.79,0,0,0-30.54-24.3A104.77,104.77,0,0,0,168.45,33.74Z"/></g><g id="Layer3_3_MEMBER_6_MEMBER_3_MEMBER_1_1_STROKES" data-name="Layer3 3 MEMBER 6 MEMBER 3 MEMBER 1 1 STROKES"><path class="cls-21" d="M158.07,146.43c-1.93,0-3.88-.05-5.81-.16a8.68,8.68,0,0,0-1,0h-.19a112,112,0,0,1-13-1.73c-.74-.17-1.42-.31-2.08-.44a81.67,81.67,0,0,1-28.61-10.8c-1.17-.77-2.28-1.5-3.35-2.22a37.06,37.06,0,0,1-3.47-2.69,29.21,29.21,0,0,1-7.29-8.81A2.85,2.85,0,0,1,93,119c-.3-.61-.6-1.21-.88-1.79,0,0,0-.07,0-.11a28.59,28.59,0,0,1-1.51-5.69,10.85,10.85,0,0,1-.22-2.33,2.85,2.85,0,0,1,0-.71c0-1,0-2,0-3.05a43.16,43.16,0,0,1,3.23-13.83,39.22,39.22,0,0,0,2.1-10.08,68.28,68.28,0,0,1,3.25-15.7,1,1,0,0,1,.08-.29,4.64,4.64,0,0,1,.22-.66c.42-1.19.87-2.34,1.33-3.41a4,4,0,0,1,.31-.68c5.36-12.1,14.79-20.65,28-25.42A78.62,78.62,0,0,1,157.17,31h.38l.43,0a2.07,2.07,0,0,1,.5,0c2.31.16,4.69.43,7.08.8,1,.14,2.09.33,3.19.58A106.06,106.06,0,0,1,182.15,36a61.34,61.34,0,0,1,31.24,24.85c.35.54.7,1.09,1.05,1.66a1,1,0,0,1,.12.23,4.13,4.13,0,0,0,.4.78,6.2,6.2,0,0,1,.71,1.26l.67,1.2c.35.65.67,1.28,1,1.93s.71,1.54,1,2.37a61.24,61.24,0,0,1,3.37,10.35,51.49,51.49,0,0,1,.94,16.15,57.37,57.37,0,0,1-4.4,16.32,57.43,57.43,0,0,1-7.93,12.67,52.12,52.12,0,0,1-13.93,11.76c-.56.36-1.17.72-1.78,1.06A62.69,62.69,0,0,1,183,143.31l-.15,0-.14.05a86.9,86.9,0,0,1-15.6,2.75c-.32,0-.64,0-1,0C163.51,146.35,160.81,146.43,158.07,146.43Zm-6.33-3,.69,0a115.81,115.81,0,0,0,13.46-.08c.31,0,.65,0,1,0a83.25,83.25,0,0,0,14.94-2.63,2.14,2.14,0,0,1,.48-.13,60.47,60.47,0,0,0,11-4.44c.53-.29,1.09-.62,1.65-1A50.13,50.13,0,0,0,208.22,124a51.44,51.44,0,0,0,11.69-27.5A48.83,48.83,0,0,0,219,81.27a58.45,58.45,0,0,0-3.22-9.89c-.32-.79-.64-1.53-1-2.21l-.93-1.82-.7-1.24a.89.89,0,0,1-.08-.17,3.36,3.36,0,0,0-.41-.75.21.21,0,0,1-.06-.08,7.83,7.83,0,0,1-.64-1.2c-.31-.51-.63-1-.95-1.5a58.69,58.69,0,0,0-29.84-23.75,104.85,104.85,0,0,0-13.06-3.56c-1-.24-2-.41-3-.54-2.32-.37-4.6-.63-6.81-.78h-.09a1.67,1.67,0,0,1-.5,0,.82.82,0,0,0-.21,0h-.44a75.42,75.42,0,0,0-27.35,4.1c-12.48,4.5-21.37,12.57-26.41,24l-.06.12a2.93,2.93,0,0,0-.19.4c-.46,1.09-.89,2.2-1.3,3.36l0,.08a1.71,1.71,0,0,0-.13.38.24.24,0,0,0,0,.08,1.52,1.52,0,0,1-.06.2,65.76,65.76,0,0,0-3.15,15.18,41.84,41.84,0,0,1-2.26,10.81l0,0a40.4,40.4,0,0,0-3,12.94,27.85,27.85,0,0,0,0,2.89,1.77,1.77,0,0,1,0,.23,1.4,1.4,0,0,1,0,.41,7.8,7.8,0,0,0,.17,1.93,25.64,25.64,0,0,0,1.35,5.15c.28.58.57,1.18.88,1.79a1.67,1.67,0,0,1,.08.2l.11.18a26.55,26.55,0,0,0,6.65,8,37.08,37.08,0,0,0,3.24,2.5c1,.71,2.14,1.43,3.27,2.17a78.8,78.8,0,0,0,27.64,10.41l2.13.45a107.22,107.22,0,0,0,12.51,1.67Zm31.17-.17ZM95.63,118.14Zm-2.56-9.5h0ZM94.84,92h0Z"/></g><g id="Layer3_3_MEMBER_6_MEMBER_3_MEMBER_2_FILL" data-name="Layer3 3 MEMBER 6 MEMBER 3 MEMBER 2 FILL"><path class="cls-7" d="M209.08,46.26a22.29,22.29,0,0,0,.54-12.18q-2.18-7.16-8.42-5.77a10.64,10.64,0,0,0-2.26.72q-8,3.79-14.45,12.64l-.65.87-.1.15-.47.73c-.22.29-.42.59-.61.88l-1.24,2c.57.6,1.16,1.18,1.76,1.76l1.3,1.18c.19.16.39.33.58.51l.15.1a42.07,42.07,0,0,0,12.41,7,.3.3,0,0,0,.15.05l.31.12c1.45.49,2.95.92,4.49,1.29.74-.91,1.41-1.83,2-2.76a.85.85,0,0,1,.19-.29l.19-.3A35.13,35.13,0,0,0,209.08,46.26Z"/></g><g id="Layer3_3_MEMBER_6_MEMBER_3_MEMBER_2_1_STROKES" data-name="Layer3 3 MEMBER 6 MEMBER 3 MEMBER 2 1 STROKES"><path class="cls-21" d="M204.63,56.86a1.26,1.26,0,0,1-.47-.08,1.4,1.4,0,0,1-.84-1.78,2.21,2.21,0,0,1,.39-.66l.13-.21a33.7,33.7,0,0,0,3.93-8.32,21,21,0,0,0,.52-11.43c-1.57-5.17-4.45-5.25-6.77-4.74a9.05,9.05,0,0,0-2,.64c-5.07,2.39-9.75,6.5-13.89,12.18l-1.17,1.69a1.39,1.39,0,0,1-2.34-1.51l.57-.89.05-.07.65-.87c4.41-6.05,9.45-10.45,15-13.06a10.94,10.94,0,0,1,2.6-.83c3.37-.75,7.9-.2,10,6.73a23.73,23.73,0,0,1-.54,13,37.06,37.06,0,0,1-4.25,9l-.19.29-.1.14A1.4,1.4,0,0,1,204.63,56.86Z"/></g><path class="cls-20" d="M220.78,82.81c-.14-.61-.27-1.22-.4-1.83-.27-1.18-.59-2.36-.93-3.55a1,1,0,0,0,.71-1.16,1,1,0,0,0-1.19-.76A62.21,62.21,0,0,0,193,88c-3.76,3.12-6,5.95-6.83,8.65a22.11,22.11,0,0,0-.63,9.29c.16,1,.37,2,.61,2.92a75.81,75.81,0,0,0,8.44,21.25,53.11,53.11,0,0,0,3.29,5,1,1,0,0,0,1.62-1.16h0a52.74,52.74,0,0,0,9.81-9.07,52.6,52.6,0,0,0,12-28.24A49.63,49.63,0,0,0,220.78,82.81Z"/><g id="Layer3_3_MEMBER_6_MEMBER_3_MEMBER_3_1_STROKES" data-name="Layer3 3 MEMBER 6 MEMBER 3 MEMBER 3 1 STROKES"><path class="cls-21" d="M198.67,136a1.39,1.39,0,0,1-.79-2.54A51.33,51.33,0,0,0,208.22,124a51.36,51.36,0,0,0,11.69-27.49,48.76,48.76,0,0,0-.5-13.48L219,81.27c-.33-1.41-.72-2.88-1.15-4.34l-.23-.59a1.39,1.39,0,0,1,2.61-1l.24.64,0,.08c.46,1.54.87,3.08,1.21,4.58l.41,1.85a51.4,51.4,0,0,1,.54,14.32,57.4,57.4,0,0,1-4.4,16.31,57.43,57.43,0,0,1-7.93,12.67,54.07,54.07,0,0,1-10.9,9.92A1.4,1.4,0,0,1,198.67,136Z"/></g><g id="Layer3_3_MEMBER_6_MEMBER_3_MEMBER_4_FILL" data-name="Layer3 3 MEMBER 6 MEMBER 3 MEMBER 4 FILL"><path class="cls-20" d="M122.19,66.84l.15.13,8.87,5.88a.09.09,0,0,1,.08,0,2.24,2.24,0,0,0,2.09.35,2.39,2.39,0,0,0,1.75-1.16,2.84,2.84,0,0,0,.35-2.13,2.21,2.21,0,0,0-1.08-1.71l-9-6a2.68,2.68,0,0,0-3.73.89,2.8,2.8,0,0,0,.51,3.67Z"/></g><g id="Layer3_3_MEMBER_6_MEMBER_3_MEMBER_4_1_STROKES" data-name="Layer3 3 MEMBER 6 MEMBER 3 MEMBER 4 1 STROKES"><path class="cls-21" d="M132.65,74.34a3.18,3.18,0,0,1-1.89-.63l-.08,0-8.88-5.88,0,0-.2-.17a3.47,3.47,0,0,1-1.25-2.19,3.54,3.54,0,0,1,.58-2.8A3.67,3.67,0,0,1,126,61.43l9,6a3.13,3.13,0,0,1,1.51,2.4,3.78,3.78,0,0,1-.48,2.78,3.44,3.44,0,0,1-2.38,1.61A3.67,3.67,0,0,1,132.65,74.34Zm-1.49-.51Zm0,0Zm.79-1.72a1.25,1.25,0,0,0,1.16.17l.15,0a1.4,1.4,0,0,0,1.06-.7,1.85,1.85,0,0,0,.21-1.4,1.27,1.27,0,0,0-.6-1l-9-6a1.63,1.63,0,0,0-1.29-.2,1.65,1.65,0,0,0-1,.79,1.55,1.55,0,0,0-.29,1.3,1.5,1.5,0,0,0,.54,1l.13.12L131.69,72A1,1,0,0,1,131.94,72.11Z"/></g><g id="Layer3_3_MEMBER_6_MEMBER_3_MEMBER_5_MEMBER_0_1_STROKES" data-name="Layer3 3 MEMBER 6 MEMBER 3 MEMBER 5 MEMBER 0 1 STROKES"><path d="M158.82,92.07a1.57,1.57,0,0,1-1-.38,1.6,1.6,0,0,1-.16-2.25,8.49,8.49,0,0,1,2.12-1.72,10.79,10.79,0,0,1,7.18-1.39,12.17,12.17,0,0,1,4.17,1.34,1.59,1.59,0,1,1-1.53,2.79,8.87,8.87,0,0,0-3.06-1,7.57,7.57,0,0,0-5.13,1A5.4,5.4,0,0,0,160,91.52,1.55,1.55,0,0,1,158.82,92.07Z"/></g><g id="Layer3_3_MEMBER_6_MEMBER_3_MEMBER_6_FILL" data-name="Layer3 3 MEMBER 6 MEMBER 3 MEMBER 6 FILL"><path class="cls-20" d="M171.55,68.49a2.77,2.77,0,0,0-2.07-.32l-10.34,2.71a2.66,2.66,0,0,0-1.51,1.31,3,3,0,0,0-.24,2.15,2.78,2.78,0,0,0,3.34,2s.05,0,.08,0l10.26-2.62a1.38,1.38,0,0,0,.2-.08,2.69,2.69,0,0,0,1.35-1.23,2.54,2.54,0,0,0,.28-2.11A3.09,3.09,0,0,0,171.55,68.49Z"/></g><g id="Layer3_3_MEMBER_6_MEMBER_3_MEMBER_6_1_STROKES" data-name="Layer3 3 MEMBER 6 MEMBER 3 MEMBER 6 1 STROKES"><path class="cls-21" d="M160.06,77.43a3.67,3.67,0,0,1-1.9-.57,3.43,3.43,0,0,1-1.74-2.29,4,4,0,0,1,.32-2.83,3.74,3.74,0,0,1,2.06-1.8l.09,0,10.34-2.7a3.79,3.79,0,0,1,2.83.43A4.1,4.1,0,0,1,173.85,70a3.51,3.51,0,0,1-.39,2.91,3.58,3.58,0,0,1-1.82,1.63,1.28,1.28,0,0,1-.25.1l-.07,0-10.16,2.6-.13,0A3.28,3.28,0,0,1,160.06,77.43Zm.75-.15Zm0,0Zm.62-.25Zm-2-5.2a1.69,1.69,0,0,0-.94.83,2,2,0,0,0-.14,1.43,1.45,1.45,0,0,0,.76,1,1.6,1.6,0,0,0,1.2.29,1.06,1.06,0,0,1,.3-.1l10.17-2.6,0,0a1.77,1.77,0,0,0,.92-.82,1.59,1.59,0,0,0,.19-1.37,2.16,2.16,0,0,0-.94-1.18,1.75,1.75,0,0,0-1.32-.17Zm11.63,1.83h0Z"/></g><g id="Layer3_3_MEMBER_6_MEMBER_3_MEMBER_8_FILL" data-name="Layer3 3 MEMBER 6 MEMBER 3 MEMBER 8 FILL"><path class="cls-20" d="M98.38,72.16a75.18,75.18,0,0,0-1.45,9.21,39.33,39.33,0,0,1-2.14,10.44A50.78,50.78,0,0,0,93,97.1q4.13-4.17,6.77-7.11a8.47,8.47,0,0,0,2-7.91A66.15,66.15,0,0,0,98.38,72.16Z"/></g><g id="Layer3_3_MEMBER_6_MEMBER_3_MEMBER_8_1_STROKES" data-name="Layer3 3 MEMBER 6 MEMBER 3 MEMBER 8 1 STROKES"><path class="cls-20" d="M93,98.1a1,1,0,0,1-.71-1.7c2.73-2.75,5-5.13,6.75-7.07a7.51,7.51,0,0,0,1.8-7,66.83,66.83,0,0,0-3.38-9.75,1,1,0,0,1,1.85-.75,67.82,67.82,0,0,1,3.47,10.09,9.49,9.49,0,0,1-2.27,8.79c-1.77,2-4.06,4.35-6.8,7.13A1,1,0,0,1,93,98.1Z"/></g><g id="Layer3_3_MEMBER_6_MEMBER_3_MEMBER_8_2_STROKES" data-name="Layer3 3 MEMBER 6 MEMBER 3 MEMBER 8 2 STROKES"><path class="cls-21" d="M93,98.5a1.19,1.19,0,0,1-.37-.06,1.38,1.38,0,0,1-1-1.71,51.18,51.18,0,0,1,1.84-5.43,38.17,38.17,0,0,0,2-10A79.18,79.18,0,0,1,97,71.86a1.39,1.39,0,1,1,2.71.61,76,76,0,0,0-1.42,9,40.86,40.86,0,0,1-2.22,10.78,50.4,50.4,0,0,0-1.76,5.18A1.4,1.4,0,0,1,93,98.5Z"/></g><g id="Layer3_3_MEMBER_6_MEMBER_3_MEMBER_9_MEMBER_0_1_STROKES" data-name="Layer3 3 MEMBER 6 MEMBER 3 MEMBER 9 MEMBER 0 1 STROKES"><path d="M130.42,88.87a1.6,1.6,0,0,1-1.35-.75,5.11,5.11,0,0,0-1.14-1.26A7.6,7.6,0,0,0,123,85.07a8.64,8.64,0,0,0-3.16.47,1.59,1.59,0,0,1-1.07-3,11.91,11.91,0,0,1,4.32-.65,10.85,10.85,0,0,1,6.9,2.53,8.12,8.12,0,0,1,1.79,2,1.59,1.59,0,0,1-.52,2.19A1.55,1.55,0,0,1,130.42,88.87Z"/></g><path class="cls-7" d="M43.57,84.27a1.13,1.13,0,0,0,.67,0l8.44-5.66.52-.4a1.17,1.17,0,0,0,.16-.63,1.9,1.9,0,0,0-.4-1.07,1.66,1.66,0,0,0-1-.79,1.11,1.11,0,0,0-.91.07l-8.4,5.71a1.38,1.38,0,0,0-.44.79,2.16,2.16,0,0,0,.44,1.19,2,2,0,0,0,.87.75"/><path class="cls-26" d="M44,85.73a2.8,2.8,0,0,1-.83-.13l-.13,0a3.55,3.55,0,0,1-1.47-1.23,3.41,3.41,0,0,1-.69-1.91V82.2a2.67,2.67,0,0,1,.84-1.64l.2-.17,8.4-5.7.11-.07a2.5,2.5,0,0,1,2-.18,3,3,0,0,1,1.66,1.34,3.17,3.17,0,0,1,.63,1.84A2.48,2.48,0,0,1,54.4,79a1.9,1.9,0,0,1-.64.68,2,2,0,0,1-.41.24L45,85.47l-.4.18a2.45,2.45,0,0,1-.62.08m-.29-3.2.09.15.14.17,8-5.36-.09-.14,0-.07-.11-.15Z"/><polyline class="cls-27" points="108.78 103.57 110.48 100.4 52.88 78.73 45.63 83.68 108.78 103.57"/><path class="cls-26" d="M108.78,105l-.42-.06L45.21,85a1.39,1.39,0,0,1-.36-2.47l7.25-5a1.39,1.39,0,0,1,1.27-.15L111,99.1a1.38,1.38,0,0,1,.81.81,1.44,1.44,0,0,1-.07,1.15L110,104.22a1.37,1.37,0,0,1-1.22.73m-60-21.74L108.1,101.9l.41-.76L53.07,80.28Z"/><path class="cls-28" d="M134,113.79l-.34,0-5.19-1.31-23.22-5.82a1.4,1.4,0,0,1-.94-1.87l3.25-8a1.39,1.39,0,0,1,1.8-.76l25.42,10.14a1.39,1.39,0,0,1,.81,1.74,7.65,7.65,0,0,0-.4,2.52,8.53,8.53,0,0,0,.16,1.7,1.38,1.38,0,0,1-.39,1.28,1.4,1.4,0,0,1-1,.39m-4.86-4h0l3.27.82v-.15a10.69,10.69,0,0,1,.21-2.13l-.27-.1h0l-10.64-4.27-12.07-4.8-2.13,5.21Z"/><path class="cls-28" d="M105.57,105.27l4.87,1.23,6.23-6.06-7.85-3.13-3.25,8m16.6-2.65L116.59,108l6.18,1.55,4.87-4.79-5.47-2.18M134,112.4a9.61,9.61,0,0,1,.28-5l-1.43-.55-4,4.2Z"/><path class="cls-7" d="M127.64,104.8l-4.87,4.79,6,1.51,4-4.2-5.19-2.1m-11,3.24,5.58-5.42-5.5-2.18-6.23,6.06Z"/><path d="M136.28,117.28a1,1,0,0,1-.76-.36,10.12,10.12,0,0,1,.65-13.54,10.66,10.66,0,0,1,1.79-1.44,1,1,0,0,1,1.07,1.67,9,9,0,0,0-1.46,1.17,8.15,8.15,0,0,0-.54,10.87,1,1,0,0,1-.12,1.39,1,1,0,0,1-.63.24"/><g id="Layer3_3_MEMBER_6_MEMBER_8_MEMBER_0_MEMBER_0_FILL" data-name="Layer3 3 MEMBER 6 MEMBER 8 MEMBER 0 MEMBER 0 FILL"><path class="cls-29" d="M260.93,122.36l3.5-19.64-.08-.08L236.79,79.73l-35.27,8.59v0l-3.3,20.44,27.36,24.69Z"/></g><g id="Layer3_3_MEMBER_6_MEMBER_8_MEMBER_0_MEMBER_1_FILL" data-name="Layer3 3 MEMBER 6 MEMBER 8 MEMBER 0 MEMBER 1 FILL"><path class="cls-7" d="M223.17,93.17a2.39,2.39,0,0,0,2.38-2.38,2.38,2.38,0,0,0-4.06-1.68,2.29,2.29,0,0,0-.7,1.68,2.26,2.26,0,0,0,.7,1.68A2.29,2.29,0,0,0,223.17,93.17Z"/></g><g id="Layer3_3_MEMBER_6_MEMBER_8_MEMBER_0_MEMBER_2_FILL" data-name="Layer3 3 MEMBER 6 MEMBER 8 MEMBER 0 MEMBER 2 FILL"><path class="cls-7" d="M249.1,102.08a2.25,2.25,0,0,0,1.67-.7,2.37,2.37,0,0,0,0-3.36,2.35,2.35,0,0,0-3.35,0,2.37,2.37,0,0,0,0,3.36A2.26,2.26,0,0,0,249.1,102.08Z"/></g><g id="Layer3_3_MEMBER_6_MEMBER_8_MEMBER_0_MEMBER_3_FILL" data-name="Layer3 3 MEMBER 6 MEMBER 8 MEMBER 0 MEMBER 3 FILL"><path class="cls-7" d="M203.13,104.15a2.38,2.38,0,0,0,1.68-4.06,2.29,2.29,0,0,0-1.68-.7,2.26,2.26,0,0,0-1.68.7,2.38,2.38,0,0,0,1.68,4.06Z"/></g><g id="Layer3_3_MEMBER_6_MEMBER_8_MEMBER_0_MEMBER_4_FILL" data-name="Layer3 3 MEMBER 6 MEMBER 8 MEMBER 0 MEMBER 4 FILL"><path class="cls-7" d="M216.33,111.94a2.39,2.39,0,0,0,2.38-2.38,2.38,2.38,0,0,0-4.06-1.68,2.29,2.29,0,0,0-.7,1.68,2.26,2.26,0,0,0,.7,1.68A2.29,2.29,0,0,0,216.33,111.94Z"/></g><g id="Layer3_3_MEMBER_6_MEMBER_8_MEMBER_0_MEMBER_5_FILL" data-name="Layer3 3 MEMBER 6 MEMBER 8 MEMBER 0 MEMBER 5 FILL"><path class="cls-7" d="M223.17,122.92a2.39,2.39,0,0,0,2.38-2.38,2.38,2.38,0,0,0-4.06-1.68,2.26,2.26,0,0,0-.7,1.68,2.29,2.29,0,0,0,.7,1.68A2.33,2.33,0,0,0,223.17,122.92Z"/></g><g id="Layer3_3_MEMBER_6_MEMBER_8_MEMBER_0_MEMBER_6_FILL" data-name="Layer3 3 MEMBER 6 MEMBER 8 MEMBER 0 MEMBER 6 FILL"><path class="cls-7" d="M253.45,118.86a2.28,2.28,0,0,0,.68-1.67,2.36,2.36,0,0,0-.68-1.67,2.37,2.37,0,0,0-3.38,0,2.35,2.35,0,0,0-.67,1.67,2.27,2.27,0,0,0,.67,1.67,2.34,2.34,0,0,0,3.38,0Z"/></g><g id="Layer3_3_MEMBER_6_MEMBER_8_MEMBER_1_1_STROKES" data-name="Layer3 3 MEMBER 6 MEMBER 8 MEMBER 1 1 STROKES"><path class="cls-30" d="M225.58,134.89l-.24,0a1.39,1.39,0,0,1-1.13-1.62l3.58-20.32L200.61,89.41a1.39,1.39,0,1,1,1.82-2.1l27.16,23.49L264,101.3a1.39,1.39,0,0,1,.74,2.68l-34.19,9.45L227,133.74A1.4,1.4,0,0,1,225.58,134.89Z"/></g><g id="Layer3_3_MEMBER_6_MEMBER_8_MEMBER_2_FILL" data-name="Layer3 3 MEMBER 6 MEMBER 8 MEMBER 2 FILL"><path class="cls-31" d="M247.05,88.28l-12.49,3.46-9.78-9.1-6.88,1.67,10.18,9.26-15.59,4.37-3.89,20.21,4.61,4.17,3.66-18.93,16.78-4.81,10.46,9.5-3.54,20.68,6.2-1.95,3.5-20.44L240,96.79l12.89-3.7Z"/></g><g id="Layer3_3_MEMBER_6_MEMBER_8_MEMBER_3_1_STROKES" data-name="Layer3 3 MEMBER 6 MEMBER 8 MEMBER 3 1 STROKES"><path class="cls-30" d="M225.58,134.89a1.43,1.43,0,0,1-.94-.36l-27.35-24.7a1.37,1.37,0,0,1-.44-1.25l3.29-20.41a1.44,1.44,0,0,1,1.05-1.2l35.27-8.59a1.38,1.38,0,0,1,1.22.28l27.56,22.91.09.08.08.08a1.4,1.4,0,0,1,.39,1.23l-3.5,19.64a1.4,1.4,0,0,1-.95,1.09L226,134.82A1.23,1.23,0,0,1,225.58,134.89Zm-25.87-26.62,26.21,23.66,33.79-10.64,3.21-18-26.48-22-33.69,8.2Z"/></g><g id="Layer3_3_MEMBER_6_MEMBER_8_MEMBER_4_1_STROKES" data-name="Layer3 3 MEMBER 6 MEMBER 8 MEMBER 4 1 STROKES"><path class="cls-31" d="M236,108.2a1.4,1.4,0,0,1-1.15-.6,15.44,15.44,0,0,1-2.61-8.74,8.09,8.09,0,0,0-1,5.26,1.39,1.39,0,1,1-2.76.37,11.24,11.24,0,0,1,3.44-9.69c-3-6-4.37-10.41-4.24-13.36a6.94,6.94,0,0,1,.25-2.19,4.11,4.11,0,0,1,3.63-3.32,3.92,3.92,0,0,1,4.17,2.16c.74,1.39,1.1,3.68,1.13,7,0,.62,0,1.24,0,1.86a17.64,17.64,0,0,1,4.45-4.4,6.91,6.91,0,0,1,1.94-1,4,4,0,0,1,4.78,1.09,3.91,3.91,0,0,1,.53,4.7c-.73,1.36-2.43,3-5.21,4.87a23.92,23.92,0,0,1-8,3.51c-.56,4.15.08,7.59,1.92,10.26a1.39,1.39,0,0,1-.35,1.94A1.43,1.43,0,0,1,236,108.2ZM244.91,84a2.4,2.4,0,0,0-.87.19,4.42,4.42,0,0,0-1.27.66l-.09.06c-1.75,1.06-3.89,3.62-6.37,7.62a20.33,20.33,0,0,0,5.33-2.6c3-2,4-3.24,4.34-3.89a1.15,1.15,0,0,0-.16-1.54l0-.06A1,1,0,0,0,244.91,84Zm-12.76-5.37-.27,0c-.65.08-1.09.33-1.33,1.3a4.34,4.34,0,0,0-.16,1.41v.12c-.1,2.06.83,5.27,2.78,9.56a19.77,19.77,0,0,0,.84-5.91c0-3.76-.51-5.2-.79-5.73S232.54,78.66,232.15,78.66Z"/></g><g id="Layer3_3_MEMBER_6_MEMBER_9_MEMBER_0_MEMBER_0_FILL" data-name="Layer3 3 MEMBER 6 MEMBER 9 MEMBER 0 MEMBER 0 FILL"><path class="cls-32" d="M167.33,150a2.23,2.23,0,0,0,3.22,2.58,6.66,6.66,0,0,0,2.87-2.18,7,7,0,0,0,1.47-3.26,2.56,2.56,0,0,0-.72-2.43,2.6,2.6,0,0,0-2.54-.16,7.39,7.39,0,0,0-4.3,5.45Z"/></g><g id="Layer3_3_MEMBER_6_MEMBER_9_MEMBER_0_MEMBER_0_1_STROKES" data-name="Layer3 3 MEMBER 6 MEMBER 9 MEMBER 0 MEMBER 0 1 STROKES"><path class="cls-33" d="M169.31,154.24a3.1,3.1,0,0,1-2.08-.75,3.56,3.56,0,0,1-1.28-3.67,8.79,8.79,0,0,1,5.19-6.56,3.93,3.93,0,0,1,3.87.35,3.85,3.85,0,0,1,1.26,3.7,8.45,8.45,0,0,1-1.75,3.95A8.18,8.18,0,0,1,171,153.9,5,5,0,0,1,169.31,154.24Zm3.61-8.54a2.77,2.77,0,0,0-.83.17,5.07,5.07,0,0,0-2.19,1.73v0a5.2,5.2,0,0,0-1.18,2.55c0,.35-.08.91.16,1.07a.93.93,0,0,1,.15.13c.22.19.75,0,1-.08a5.48,5.48,0,0,0,2.27-1.75,5.58,5.58,0,0,0,1.18-2.59c.05-.39.05-.93-.22-1.16A.65.65,0,0,0,172.92,145.7Zm-4.12,1.05h0Z"/></g><g id="Layer3_3_MEMBER_6_MEMBER_9_MEMBER_0_MEMBER_1_FILL" data-name="Layer3 3 MEMBER 6 MEMBER 9 MEMBER 0 MEMBER 1 FILL"><path class="cls-32" d="M161.92,143.45a6.81,6.81,0,0,0-.51,3.58,6.31,6.31,0,0,0,1.31,3.34,2.37,2.37,0,0,0,2.15,1.19,2.48,2.48,0,0,0,1.91-1.67,6.46,6.46,0,0,0,.47-3.54A6.53,6.53,0,0,0,166,143a2.34,2.34,0,0,0-2.19-1.15A2.44,2.44,0,0,0,161.92,143.45Z"/></g><g id="Layer3_3_MEMBER_6_MEMBER_9_MEMBER_0_MEMBER_1_1_STROKES" data-name="Layer3 3 MEMBER 6 MEMBER 9 MEMBER 0 MEMBER 1 1 STROKES"><path class="cls-33" d="M164.67,153a3.72,3.72,0,0,1-3-1.74,7.75,7.75,0,0,1-1.6-4v0a8.31,8.31,0,0,1,.64-4.3,3.75,3.75,0,0,1,3-2.39,3.65,3.65,0,0,1,3.44,1.7,8.66,8.66,0,0,1,.94,8.32,3.73,3.73,0,0,1-3,2.45A1.77,1.77,0,0,1,164.67,153Zm-1.88-6.08a4.85,4.85,0,0,0,1,2.6.18.18,0,0,0,0,.07c.48.66.78.64.88.62.33,0,.61-.49.78-.86a5,5,0,0,0,.36-2.8,5.27,5.27,0,0,0-1-2.64c-.52-.68-.82-.65-.91-.63-.36,0-.63.46-.8.82A5.48,5.48,0,0,0,162.79,146.88Z"/></g><g id="Layer3_3_MEMBER_6_MEMBER_9_MEMBER_0_MEMBER_2_FILL" data-name="Layer3 3 MEMBER 6 MEMBER 9 MEMBER 0 MEMBER 2 FILL"><path class="cls-32" d="M168.21,161.58a7.12,7.12,0,0,0,1-6.88c-.42-1-1-1.62-1.75-1.75a2.49,2.49,0,0,0-2.27,1.15,6.69,6.69,0,0,0-1.39,3.27,7.05,7.05,0,0,0,.36,3.61,2.21,2.21,0,0,0,4.06.6Z"/></g><g id="Layer3_3_MEMBER_6_MEMBER_9_MEMBER_0_MEMBER_2_1_STROKES" data-name="Layer3 3 MEMBER 6 MEMBER 9 MEMBER 0 MEMBER 2 1 STROKES"><path class="cls-33" d="M166.29,164.07a4.74,4.74,0,0,1-.55,0,3.74,3.74,0,0,1-2.88-2.52,8.51,8.51,0,0,1-.45-4.33,8,8,0,0,1,1.71-4,3.74,3.74,0,0,1,3.51-1.64,3.79,3.79,0,0,1,2.86,2.6,8,8,0,0,1,.49,4.3v0a7.94,7.94,0,0,1-1.7,4A3.86,3.86,0,0,1,166.29,164.07Zm.88-9.75c-.11,0-.42.05-.89.65a5.18,5.18,0,0,0-1.11,2.62,5.56,5.56,0,0,0,.27,2.87c.3.75.62.8.76.82.32.05.69-.29.94-.6a5.16,5.16,0,0,0,1.08-2.6,5.25,5.25,0,0,0-.29-2.82c-.12-.28-.4-.88-.72-.94Zm2.43,4h0Z"/></g><g id="Layer3_3_MEMBER_6_MEMBER_9_MEMBER_0_MEMBER_3_FILL" data-name="Layer3 3 MEMBER 6 MEMBER 9 MEMBER 0 MEMBER 3 FILL"><path class="cls-32" d="M169.76,153.59a2.45,2.45,0,0,0,.16,2.54,6.23,6.23,0,0,0,2.5,2.55,6.88,6.88,0,0,0,3.42,1,2.43,2.43,0,0,0,2.27-1,2.49,2.49,0,0,0-.16-2.55,6.23,6.23,0,0,0-2.47-2.54,6.84,6.84,0,0,0-3.42-1A2.42,2.42,0,0,0,169.76,153.59Z"/></g><g id="Layer3_3_MEMBER_6_MEMBER_9_MEMBER_0_MEMBER_3_1_STROKES" data-name="Layer3 3 MEMBER 6 MEMBER 9 MEMBER 0 MEMBER 3 1 STROKES"><path class="cls-33" d="M175.84,161.1a8.22,8.22,0,0,1-4.11-1.22,7.65,7.65,0,0,1-3.06-3.13,3.73,3.73,0,0,1-.1-3.89,3.78,3.78,0,0,1,3.53-1.66h0a8.2,8.2,0,0,1,4.08,1.22l0,0a7.67,7.67,0,0,1,3,3.12,3.75,3.75,0,0,1,.09,3.89A3.7,3.7,0,0,1,175.84,161.1ZM172,154c-.55,0-.88.12-1,.34s-.07.63.21,1.16a4.87,4.87,0,0,0,2,2,5.57,5.57,0,0,0,2.71.84c.33,0,.91,0,1.07-.32s.09-.64-.19-1.18a5,5,0,0,0-1.95-2A5.82,5.82,0,0,0,172,154Z"/></g><g id="Layer3_3_MEMBER_6_MEMBER_9_MEMBER_1_MEMBER_0_FILL" data-name="Layer3 3 MEMBER 6 MEMBER 9 MEMBER 1 MEMBER 0 FILL"><path class="cls-34" d="M122.8,134.9a6.37,6.37,0,0,0-1.48,3.18,7.18,7.18,0,0,0,0,3.58c.37,1.06.94,1.66,1.71,1.79a2.51,2.51,0,0,0,2.39-1,6.45,6.45,0,0,0,1.63-3.14,6.82,6.82,0,0,0-.24-3.62c-.34-1.06-.89-1.65-1.63-1.79A2.58,2.58,0,0,0,122.8,134.9Z"/></g><g id="Layer3_3_MEMBER_6_MEMBER_9_MEMBER_1_MEMBER_0_1_STROKES" data-name="Layer3 3 MEMBER 6 MEMBER 9 MEMBER 1 MEMBER 0 1 STROKES"><path class="cls-35" d="M123.51,144.89a3.08,3.08,0,0,1-.71-.08,3.63,3.63,0,0,1-2.75-2.69,8.5,8.5,0,0,1-.09-4.32,7.74,7.74,0,0,1,1.82-3.85,3.86,3.86,0,0,1,3.76-1.4c.81.14,2,.74,2.63,2.71a8.19,8.19,0,0,1,.29,4.3,7.9,7.9,0,0,1-2,3.88A4,4,0,0,1,123.51,144.89Zm1.32-9.63a1.64,1.64,0,0,0-1,.61,4.93,4.93,0,0,0-1.11,2.48v0a5.69,5.69,0,0,0,0,2.88c.08.24.31.76.61.82h.08c.34.08.76-.27,1-.59a5.14,5.14,0,0,0,1.3-2.51,5.32,5.32,0,0,0-.2-2.82c-.07-.23-.29-.85-.56-.9Zm-3.51,2.82h0Z"/></g><g id="Layer3_3_MEMBER_6_MEMBER_9_MEMBER_1_MEMBER_1_FILL" data-name="Layer3 3 MEMBER 6 MEMBER 9 MEMBER 1 MEMBER 1 FILL"><path class="cls-34" d="M112.85,144.84a6.24,6.24,0,0,0,3.3,1.19,6.82,6.82,0,0,0,3.54-.47,2.47,2.47,0,0,0,1.67-1.95,2.31,2.31,0,0,0-1.23-2.19,6.07,6.07,0,0,0-3.34-1.23,6.64,6.64,0,0,0-3.54.51,2.48,2.48,0,0,0-1.67,1.91A2.52,2.52,0,0,0,112.85,144.84Z"/></g><g id="Layer3_3_MEMBER_6_MEMBER_9_MEMBER_1_MEMBER_1_1_STROKES" data-name="Layer3 3 MEMBER 6 MEMBER 9 MEMBER 1 MEMBER 1 1 STROKES"><path class="cls-35" d="M117,147.47c-.33,0-.67,0-1-.05h0a7.66,7.66,0,0,1-4-1.48,3.56,3.56,0,0,1,.67-6.5,8.08,8.08,0,0,1,4.26-.64,7.52,7.52,0,0,1,4,1.51,3.57,3.57,0,0,1,1.77,3.48,3.73,3.73,0,0,1-2.46,3A7.94,7.94,0,0,1,117,147.47Zm-.75-2.82a5.62,5.62,0,0,0,2.83-.37c.82-.37.85-.7.86-.81,0-.35-.33-.69-.66-.92l-.07-.05a4.78,4.78,0,0,0-2.59-.93,5.32,5.32,0,0,0-2.81.39c-.39.18-.85.46-.88.79s.37.72.71,1a4.93,4.93,0,0,0,2.61.93Z"/></g><g id="Layer3_3_MEMBER_6_MEMBER_9_MEMBER_1_MEMBER_2_FILL" data-name="Layer3 3 MEMBER 6 MEMBER 9 MEMBER 1 MEMBER 2 FILL"><path class="cls-34" d="M115.84,152.43a7.08,7.08,0,0,0,3.58-.23,6.56,6.56,0,0,0,3-1.91,2.51,2.51,0,0,0,.75-2.43c-.21-.74-.89-1.24-2-1.51a7.42,7.42,0,0,0-6.6,2.11,2.54,2.54,0,0,0-.71,2.42A2.44,2.44,0,0,0,115.84,152.43Z"/></g><g id="Layer3_3_MEMBER_6_MEMBER_9_MEMBER_1_MEMBER_2_1_STROKES" data-name="Layer3 3 MEMBER 6 MEMBER 9 MEMBER 1 MEMBER 2 1 STROKES"><path class="cls-35" d="M117.1,154a7.24,7.24,0,0,1-1.56-.17,3.77,3.77,0,0,1-3-2.49,3.84,3.84,0,0,1,1-3.74,8.76,8.76,0,0,1,8-2.56,3.67,3.67,0,0,1,3,2.48,3.78,3.78,0,0,1-1,3.72,7.83,7.83,0,0,1-3.64,2.32h0A9.22,9.22,0,0,1,117.1,154Zm2.32-1.76Zm.44-4.61a6,6,0,0,0-1.84.32,5.19,5.19,0,0,0-2.41,1.46c-.37.44-.52.82-.43,1.1s.41.47,1,.61a5.65,5.65,0,0,0,2.83-.21,5.14,5.14,0,0,0,2.37-1.48c.42-.47.58-.84.49-1.12s-.44-.43-1-.56A4,4,0,0,0,119.86,147.59Z"/></g><g id="Layer3_3_MEMBER_6_MEMBER_9_MEMBER_1_MEMBER_3_FILL" data-name="Layer3 3 MEMBER 6 MEMBER 9 MEMBER 1 MEMBER 3 FILL"><path class="cls-34" d="M132.78,142.45a7.25,7.25,0,0,0-7,.36,2.55,2.55,0,0,0-1.31,2.15,2.4,2.4,0,0,0,1.51,2,7,7,0,0,0,3.54.67,6.31,6.31,0,0,0,3.42-1,2.46,2.46,0,0,0,1.31-2.15A2.33,2.33,0,0,0,132.78,142.45Z"/></g><g id="Layer3_3_MEMBER_6_MEMBER_9_MEMBER_1_MEMBER_3_1_STROKES" data-name="Layer3 3 MEMBER 6 MEMBER 9 MEMBER 1 MEMBER 3 1 STROKES"><path class="cls-35" d="M129.17,149a8.3,8.3,0,0,1-3.79-.83,3.74,3.74,0,0,1-2.27-3.18,3.87,3.87,0,0,1,1.91-3.34,7.94,7.94,0,0,1,4.14-1.32h0a8.09,8.09,0,0,1,4.26.88,3.59,3.59,0,0,1,2.24,3.17,3.75,3.75,0,0,1-1.92,3.34,7.74,7.74,0,0,1-4.15,1.27Zm.13-5.89a5.2,5.2,0,0,0-2.7.83c-.47.33-.71.66-.7.95s.27.54.78.81a5.7,5.7,0,0,0,2.82.51,4.94,4.94,0,0,0,2.69-.79c.33-.23.73-.57.71-.91v-.09c0-.3-.48-.6-.77-.75A5.32,5.32,0,0,0,129.3,143.13Z"/></g><g id="Layer3_3_MEMBER_6_MEMBER_9_MEMBER_1_MEMBER_4_FILL" data-name="Layer3 3 MEMBER 6 MEMBER 9 MEMBER 1 MEMBER 4 FILL"><path class="cls-34" d="M129.67,151.44a7,7,0,0,0-1.19-3.42,6.18,6.18,0,0,0-2.58-2.42,2.2,2.2,0,0,0-3.46,2.26,6.12,6.12,0,0,0,1.11,3.34,7.12,7.12,0,0,0,2.63,2.51,2.65,2.65,0,0,0,2.5.08A2.51,2.51,0,0,0,129.67,151.44Z"/></g><g id="Layer3_3_MEMBER_6_MEMBER_9_MEMBER_1_MEMBER_4_1_STROKES" data-name="Layer3 3 MEMBER 6 MEMBER 9 MEMBER 1 MEMBER 4 1 STROKES"><path class="cls-35" d="M127.6,155.45a4.78,4.78,0,0,1-2-.48,8.53,8.53,0,0,1-3.21-3,7.54,7.54,0,0,1-1.33-4.1,3.77,3.77,0,0,1,1.59-3.52,3.84,3.84,0,0,1,3.86,0,7.69,7.69,0,0,1,3.16,2.94,8.29,8.29,0,0,1,1.4,4.09,3.83,3.83,0,0,1-1.62,3.58A3.61,3.61,0,0,1,127.6,155.45Zm-3.14-8.84a.6.6,0,0,0-.34.09c-.27.17-.3.78-.29,1.13a4.78,4.78,0,0,0,.89,2.61,5.81,5.81,0,0,0,2.1,2c.76.34,1.06.16,1.16.1s.32-.21.3-1.11a5.7,5.7,0,0,0-1-2.7h0a4.9,4.9,0,0,0-2-1.91A1.93,1.93,0,0,0,124.46,146.61Z"/></g><g id="Layer3_3_MEMBER_6_MEMBER_9_MEMBER_2_MEMBER_0_FILL" data-name="Layer3 3 MEMBER 6 MEMBER 9 MEMBER 2 MEMBER 0 FILL"><path class="cls-36" d="M184.27,134.14a6.76,6.76,0,0,0-3.3,1.35,6.69,6.69,0,0,0-2.26,2.79,2.5,2.5,0,0,0,.07,2.54,2.37,2.37,0,0,0,2.39.8,6,6,0,0,0,3.3-1.35,7.08,7.08,0,0,0,2.31-2.79,2.52,2.52,0,0,0-.08-2.54A2.59,2.59,0,0,0,184.27,134.14Z"/></g><g id="Layer3_3_MEMBER_6_MEMBER_9_MEMBER_2_MEMBER_0_1_STROKES" data-name="Layer3 3 MEMBER 6 MEMBER 9 MEMBER 2 MEMBER 0 1 STROKES"><path class="cls-37" d="M180.61,143.05a3.44,3.44,0,0,1-3-1.41,3.79,3.79,0,0,1-.25-3.88,8.32,8.32,0,0,1,2.72-3.38h0a8.07,8.07,0,0,1,4-1.61,3.9,3.9,0,0,1,3.65,1.31l.05.08a3.82,3.82,0,0,1,.22,3.87,8.45,8.45,0,0,1-2.75,3.36,7.41,7.41,0,0,1-4,1.63C181,143,180.82,143.05,180.61,143.05Zm1.19-6.44a5.49,5.49,0,0,0-1.81,2.2c-.15.38-.3.91-.09,1.18.07.1.25.35,1.11.25a4.78,4.78,0,0,0,2.61-1.07,5.86,5.86,0,0,0,1.88-2.24c.3-.71.17-1,.08-1.16a1.43,1.43,0,0,0-1.18-.24A5.3,5.3,0,0,0,181.8,136.61Z"/></g><g id="Layer3_3_MEMBER_6_MEMBER_9_MEMBER_2_MEMBER_1_FILL" data-name="Layer3 3 MEMBER 6 MEMBER 9 MEMBER 2 MEMBER 1 FILL"><path class="cls-36" d="M175.13,138.68a7,7,0,0,0-3.54-.6A2.23,2.23,0,0,0,170,141.9a6.73,6.73,0,0,0,2.82,2.14,7,7,0,0,0,3.58.6,2.61,2.61,0,0,0,2.15-1.31,2.58,2.58,0,0,0-.52-2.47A6.94,6.94,0,0,0,175.13,138.68Z"/></g><g id="Layer3_3_MEMBER_6_MEMBER_9_MEMBER_2_MEMBER_1_1_STROKES" data-name="Layer3 3 MEMBER 6 MEMBER 9 MEMBER 2 MEMBER 1 1 STROKES"><path class="cls-37" d="M175.68,146.07a8.86,8.86,0,0,1-3.45-.74l0,0a8.21,8.21,0,0,1-3.38-2.59,3.81,3.81,0,0,1-.62-3.85,3.75,3.75,0,0,1,3.18-2.17,8.9,8.9,0,0,1,7.72,3.34,3.91,3.91,0,0,1,.69,3.81l0,.08a3.89,3.89,0,0,1-3.2,2.09A8.65,8.65,0,0,1,175.68,146.07Zm-2.34-3.3a5.67,5.67,0,0,0,2.86.49,1.42,1.42,0,0,0,1-.49c.1-.34-.2-.84-.39-1.12a6.14,6.14,0,0,0-5.09-2.19c-.82.12-.95.42-1,.52-.14.32.11.79.34,1.13A5.51,5.51,0,0,0,173.34,142.77Z"/></g><g id="Layer3_3_MEMBER_6_MEMBER_9_MEMBER_2_MEMBER_2_FILL" data-name="Layer3 3 MEMBER 6 MEMBER 9 MEMBER 2 MEMBER 2 FILL"><path class="cls-36" d="M179.46,152.2a7.56,7.56,0,0,0,1-6.84,2.23,2.23,0,0,0-4.13-.64A6.52,6.52,0,0,0,175,148a6.8,6.8,0,0,0,.35,3.58,2.62,2.62,0,0,0,1.83,1.75A2.54,2.54,0,0,0,179.46,152.2Z"/></g><g id="Layer3_3_MEMBER_6_MEMBER_9_MEMBER_2_MEMBER_2_1_STROKES" data-name="Layer3 3 MEMBER 6 MEMBER 9 MEMBER 2 MEMBER 2 1 STROKES"><path class="cls-37" d="M177.45,154.72a3.15,3.15,0,0,1-.44,0,3.87,3.87,0,0,1-2.92-2.57,8.15,8.15,0,0,1-.46-4.32,7.91,7.91,0,0,1,1.66-4,3.6,3.6,0,0,1,6.49,1,8.89,8.89,0,0,1-1.26,8.26A4,4,0,0,1,177.45,154.72Zm.91-9.75c-.32,0-.68.35-.94.65a5.22,5.22,0,0,0-1,2.58,5.33,5.33,0,0,0,.27,2.82c.16.38.44.86.78.92s.58-.18,1-.64a5.08,5.08,0,0,0,1-2.63v0a5,5,0,0,0-.23-2.74c-.23-.57-.49-.87-.77-.92Z"/></g><g id="Layer3_3_MEMBER_6_MEMBER_9_MEMBER_2_MEMBER_3_FILL" data-name="Layer3 3 MEMBER 6 MEMBER 9 MEMBER 2 MEMBER 3 FILL"><path class="cls-36" d="M189.08,144.44a6.62,6.62,0,0,0-3.1-1.71,6.73,6.73,0,0,0-3.58-.2,2.49,2.49,0,0,0-2,1.59,2.37,2.37,0,0,0,.8,2.35,7,7,0,0,0,3.14,1.87,6.79,6.79,0,0,0,3.54.08c1.09-.27,1.72-.78,1.91-1.55A2.53,2.53,0,0,0,189.08,144.44Z"/></g><g id="Layer3_3_MEMBER_6_MEMBER_9_MEMBER_2_MEMBER_3_1_STROKES" data-name="Layer3 3 MEMBER 6 MEMBER 9 MEMBER 2 MEMBER 3 1 STROKES"><path class="cls-37" d="M186.37,150a9.33,9.33,0,0,1-2.38-.33,8.35,8.35,0,0,1-3.79-2.26,3.62,3.62,0,0,1-1.11-3.72,3.72,3.72,0,0,1,3-2.51,8.08,8.08,0,0,1,4.31.2,7.88,7.88,0,0,1,3.72,2.08l.07.07a3.85,3.85,0,0,1,1,3.7,3.55,3.55,0,0,1-2.92,2.53A7,7,0,0,1,186.37,150Zm-2.61-6.24a4.34,4.34,0,0,0-1,.12c-.38.1-.89.29-1,.6s.25.79.47,1a5.65,5.65,0,0,0,2.53,1.49,5.42,5.42,0,0,0,2.76.07c.41-.1.86-.27.93-.54a.19.19,0,0,1,0-.08c.09-.28-.06-.64-.42-1.08a5.2,5.2,0,0,0-2.42-1.3l0,0A6.54,6.54,0,0,0,183.76,143.77Z"/></g><g id="Layer3_3_MEMBER_6_MEMBER_9_MEMBER_3_MEMBER_0_FILL" data-name="Layer3 3 MEMBER 6 MEMBER 9 MEMBER 3 MEMBER 0 FILL"><path class="cls-38" d="M163.71,155.26a6.59,6.59,0,0,0-3.38-1,6.84,6.84,0,0,0-3.54.64,2.24,2.24,0,0,0-.23,4.18,6.68,6.68,0,0,0,3.42,1,6.59,6.59,0,0,0,3.49-.64,2.52,2.52,0,0,0,1.56-2A2.6,2.6,0,0,0,163.71,155.26Z"/></g><g id="Layer3_3_MEMBER_6_MEMBER_9_MEMBER_3_MEMBER_0_1_STROKES" data-name="Layer3 3 MEMBER 6 MEMBER 9 MEMBER 3 MEMBER 0 1 STROKES"><path class="cls-39" d="M160.51,161.48l-.62,0a8,8,0,0,1-4.11-1.27,3.74,3.74,0,0,1-1.92-3.39,3.67,3.67,0,0,1,2.29-3.17,8.22,8.22,0,0,1,4.26-.8h0a8,8,0,0,1,4.07,1.28,3.91,3.91,0,0,1,1.93,3.38,3.83,3.83,0,0,1-2.28,3.17A7.82,7.82,0,0,1,160.51,161.48Zm-.72-5.88a5.17,5.17,0,0,0-2.36.5c-.51.27-.79.55-.8.83s.38.73.71,1a6.29,6.29,0,0,0,5.5.31c.5-.28.78-.56.8-.85,0-.07,0-.43-.73-.95a5.3,5.3,0,0,0-2.66-.79h-.46Z"/></g><g id="Layer3_3_MEMBER_6_MEMBER_9_MEMBER_3_MEMBER_1_FILL" data-name="Layer3 3 MEMBER 6 MEMBER 9 MEMBER 3 MEMBER 1 FILL"><path class="cls-38" d="M157.79,146.07a7.34,7.34,0,0,0-3.82,5.85,2.19,2.19,0,0,0,3.46,2.26,6.47,6.47,0,0,0,2.63-2.42,6.78,6.78,0,0,0,1.19-3.38,2.51,2.51,0,0,0-1-2.35A2.55,2.55,0,0,0,157.79,146.07Z"/></g><g id="Layer3_3_MEMBER_6_MEMBER_9_MEMBER_3_MEMBER_1_1_STROKES" data-name="Layer3 3 MEMBER 6 MEMBER 9 MEMBER 3 MEMBER 1 1 STROKES"><path class="cls-39" d="M156,156a3.3,3.3,0,0,1-1.85-.56,3.71,3.71,0,0,1-1.52-3.57,8.73,8.73,0,0,1,4.63-7,3.85,3.85,0,0,1,3.83.05,3.76,3.76,0,0,1,1.6,3.55,8.23,8.23,0,0,1-1.42,4.11,7.82,7.82,0,0,1-3.19,2.92A4.75,4.75,0,0,1,156,156Zm3.25-8.86a2.09,2.09,0,0,0-.84.22,5,5,0,0,0-2.06,1.94l0,0a4.9,4.9,0,0,0-.92,2.64c0,.37,0,1,.28,1.14s.81,0,1.18-.16a5.16,5.16,0,0,0,2.07-1.93,5.49,5.49,0,0,0,1-2.69c0-.31,0-.92-.32-1.1A.59.59,0,0,0,159.2,147.12Zm-4.08,1.42h0Z"/></g><g id="Layer3_3_MEMBER_6_MEMBER_9_MEMBER_3_MEMBER_2_FILL" data-name="Layer3 3 MEMBER 6 MEMBER 9 MEMBER 3 MEMBER 2 FILL"><path class="cls-38" d="M145.74,147.66a6.18,6.18,0,0,0,1.67,3.1,6.59,6.59,0,0,0,2.94,2.07,2.61,2.61,0,0,0,2.55-.32,2.45,2.45,0,0,0,.51-2.46,6.59,6.59,0,0,0-1.59-3.22,6.29,6.29,0,0,0-3-2,2.33,2.33,0,0,0-2.5.28A2.43,2.43,0,0,0,145.74,147.66Z"/></g><g id="Layer3_3_MEMBER_6_MEMBER_9_MEMBER_3_MEMBER_2_1_STROKES" data-name="Layer3 3 MEMBER 6 MEMBER 9 MEMBER 3 MEMBER 2 1 STROKES"><path class="cls-39" d="M151.45,154.4a5.48,5.48,0,0,1-1.5-.23,8.12,8.12,0,0,1-3.58-2.48,7.51,7.51,0,0,1-2-3.79,3.66,3.66,0,0,1,1-3.79,3.62,3.62,0,0,1,3.83-.56,7.78,7.78,0,0,1,3.64,2.33,8.23,8.23,0,0,1,1.94,3.94,3.71,3.71,0,0,1-.93,3.7l-.07.06A3.58,3.58,0,0,1,151.45,154.4Zm-3.8-8.35a.48.48,0,0,0-.41.14c-.28.23-.23.77-.14,1.19a4.91,4.91,0,0,0,1.33,2.44l0,0a5.39,5.39,0,0,0,2.32,1.66c.75.22,1.06.06,1.18,0a1.32,1.32,0,0,0,.1-1.13,5.4,5.4,0,0,0-1.3-2.62,5,5,0,0,0-2.32-1.51l-.1,0A2.36,2.36,0,0,0,147.65,146.05Z"/></g><g id="Layer3_3_MEMBER_6_MEMBER_9_MEMBER_3_MEMBER_3_FILL" data-name="Layer3 3 MEMBER 6 MEMBER 9 MEMBER 3 MEMBER 3 FILL"><path class="cls-38" d="M146.54,159.47a7.11,7.11,0,0,0,3.53-.75,6.67,6.67,0,0,0,2.67-2.39,2.34,2.34,0,0,0,.4-2.46,2.62,2.62,0,0,0-2.27-1.24,6.44,6.44,0,0,0-3.42.8,6.65,6.65,0,0,0-2.78,2.34,2.4,2.4,0,0,0-.32,2.47A2.5,2.5,0,0,0,146.54,159.47Z"/></g><g id="Layer3_3_MEMBER_6_MEMBER_9_MEMBER_3_MEMBER_3_1_STROKES" data-name="Layer3 3 MEMBER 6 MEMBER 9 MEMBER 3 MEMBER 3 1 STROKES"><path class="cls-39" d="M146.93,160.88l-.49,0a3.86,3.86,0,0,1-3.33-2,3.69,3.69,0,0,1,.37-3.83,8.09,8.09,0,0,1,3.36-2.87,7.71,7.71,0,0,1,4.13-.93,3.89,3.89,0,0,1,3.4,2,3.57,3.57,0,0,1-.47,3.87,8.21,8.21,0,0,1-3.17,2.85l-.07,0A8.75,8.75,0,0,1,146.93,160.88Zm3.14-2.16h0Zm.42-4.71a6.44,6.44,0,0,0-4.65,2.51c-.2.32-.41.79-.27,1.06.06.12.22.42,1.1.51a5.74,5.74,0,0,0,2.78-.62,5.37,5.37,0,0,0,2.1-1.86c.18-.27.51-.81.36-1.08s-.54-.45-1.17-.51Z"/></g><g id="Layer3_3_MEMBER_6_MEMBER_9_MEMBER_3_MEMBER_4_FILL" data-name="Layer3 3 MEMBER 6 MEMBER 9 MEMBER 3 MEMBER 4 FILL"><path class="cls-38" d="M153.57,164.44a6.67,6.67,0,0,0,1.91-3.06,6.26,6.26,0,0,0,.24-3.54,2.43,2.43,0,0,0-1.47-2.07,2.63,2.63,0,0,0-2.47.76,7.6,7.6,0,0,0-2.14,6.6,2.21,2.21,0,0,0,3.93,1.31Z"/></g><g id="Layer3_3_MEMBER_6_MEMBER_9_MEMBER_3_MEMBER_4_1_STROKES" data-name="Layer3 3 MEMBER 6 MEMBER 9 MEMBER 3 MEMBER 4 1 STROKES"><path class="cls-39" d="M151.75,166.64a3.21,3.21,0,0,1-1-.16,3.75,3.75,0,0,1-2.48-3,7.62,7.62,0,0,1,.32-4.33,7.43,7.43,0,0,1,2.29-3.63,3.85,3.85,0,0,1,3.77-1,3.7,3.7,0,0,1,2.42,3.09,7.81,7.81,0,0,1-.27,4.27,8.18,8.18,0,0,1-2.32,3.68A4.23,4.23,0,0,1,151.75,166.64Zm1.92-9.57a1.91,1.91,0,0,0-1,.52,4.92,4.92,0,0,0-1.43,2.37,5,5,0,0,0-.26,2.84c.19.89.52,1,.64,1,.3.1.74-.2,1.05-.46a5.44,5.44,0,0,0,1.48-2.43,5,5,0,0,0,.21-2.77s0-.05,0-.08c-.11-.58-.29-.92-.55-1Z"/></g><g id="Layer3_3_MEMBER_6_MEMBER_9_MEMBER_4_MEMBER_0_FILL" data-name="Layer3 3 MEMBER 6 MEMBER 9 MEMBER 4 MEMBER 0 FILL"><path class="cls-40" d="M135.4,165a2.44,2.44,0,0,0,2.23,1,2.63,2.63,0,0,0,1.79-1.82,7.13,7.13,0,0,0,.12-3.58,6.29,6.29,0,0,0-1.55-3.22,2.49,2.49,0,0,0-2.31-1c-.8.13-1.38.74-1.75,1.83a7,7,0,0,0-.12,3.58A6.08,6.08,0,0,0,135.4,165Z"/></g><g id="Layer3_3_MEMBER_6_MEMBER_9_MEMBER_4_MEMBER_0_1_STROKES" data-name="Layer3 3 MEMBER 6 MEMBER 9 MEMBER 4 MEMBER 0 1 STROKES"><path class="cls-41" d="M137.32,167.37a4,4,0,0,1-2.94-1.46,7.34,7.34,0,0,1-1.93-3.86,8.29,8.29,0,0,1,.16-4.29,3.64,3.64,0,0,1,2.84-2.76,3.79,3.79,0,0,1,3.54,1.36,7.63,7.63,0,0,1,1.91,3.92,8.4,8.4,0,0,1-.16,4.28,4,4,0,0,1-2.8,2.75A3,3,0,0,1,137.32,167.37Zm-1.27-9.64H136c-.36.07-.58.54-.71.92a5.54,5.54,0,0,0-.07,2.86,4.68,4.68,0,0,0,1.2,2.47c.26.27.68.66,1,.6.05,0,.41-.09.74-1a5.7,5.7,0,0,0,0-2.81h0a5,5,0,0,0-1.18-2.52A1.61,1.61,0,0,0,136.05,157.73Z"/></g><g id="Layer3_3_MEMBER_6_MEMBER_9_MEMBER_4_MEMBER_1_FILL" data-name="Layer3 3 MEMBER 6 MEMBER 9 MEMBER 4 MEMBER 1 FILL"><path class="cls-40" d="M136.71,153.71a2.44,2.44,0,0,0,.68,2.42,6.38,6.38,0,0,0,3,1.91,6.67,6.67,0,0,0,3.58.28,2.58,2.58,0,0,0,2-1.51,2.49,2.49,0,0,0-.72-2.47,6.86,6.86,0,0,0-3-1.91,6.46,6.46,0,0,0-3.58-.23A2.34,2.34,0,0,0,136.71,153.71Z"/></g><g id="Layer3_3_MEMBER_6_MEMBER_9_MEMBER_4_MEMBER_1_1_STROKES" data-name="Layer3 3 MEMBER 6 MEMBER 9 MEMBER 4 MEMBER 1 1 STROKES"><path class="cls-41" d="M142.75,159.84a8.65,8.65,0,0,1-2.78-.48,7.79,7.79,0,0,1-3.64-2.33,3.74,3.74,0,0,1-.93-3.78,3.64,3.64,0,0,1,3-2.41,7.86,7.86,0,0,1,4.31.27h0a8.17,8.17,0,0,1,3.63,2.32,3.75,3.75,0,0,1,1,3.82,3.89,3.89,0,0,1-3,2.42A7.64,7.64,0,0,1,142.75,159.84Zm-2.79-6.4a3.85,3.85,0,0,0-1,.11c-.83.19-.92.47-1,.57s-.15.45.41,1.12a5.21,5.21,0,0,0,2.39,1.48,5.32,5.32,0,0,0,2.86.24c.53-.13.87-.35,1-.62,0-.08.13-.41-.45-1.08a5.5,5.5,0,0,0-2.41-1.5A5.86,5.86,0,0,0,140,153.44Z"/></g><g id="Layer3_3_MEMBER_6_MEMBER_9_MEMBER_4_MEMBER_2_FILL" data-name="Layer3 3 MEMBER 6 MEMBER 9 MEMBER 4 MEMBER 2 FILL"><path class="cls-40" d="M136.87,148.78a2.5,2.5,0,0,0,.92,2.38,2.41,2.41,0,0,0,2.5-.12,6.57,6.57,0,0,0,2.63-2.38,7,7,0,0,0,1.19-3.42,2.37,2.37,0,0,0-1-2.31,2.42,2.42,0,0,0-2.51,0,6.11,6.11,0,0,0-2.62,2.47A6.21,6.21,0,0,0,136.87,148.78Z"/></g><g id="Layer3_3_MEMBER_6_MEMBER_9_MEMBER_4_MEMBER_2_1_STROKES" data-name="Layer3 3 MEMBER 6 MEMBER 9 MEMBER 4 MEMBER 2 1 STROKES"><path class="cls-41" d="M138.78,152.84a3.15,3.15,0,0,1-1.77-.52,3.85,3.85,0,0,1-1.53-3.61,8.8,8.8,0,0,1,4.59-7,3.71,3.71,0,0,1,3.87.07,3.62,3.62,0,0,1,1.56,3.52,8.31,8.31,0,0,1-1.41,4.1,8,8,0,0,1-3.2,2.9A4.73,4.73,0,0,1,138.78,152.84ZM142,144a1.9,1.9,0,0,0-.78.23,4.8,4.8,0,0,0-2,1.93l0,.05a5,5,0,0,0-.92,2.6c0,.46,0,1,.31,1.2s.59,0,1.11-.22a5.2,5.2,0,0,0,2.08-1.91,5.6,5.6,0,0,0,1-2.71c0-.56-.07-.92-.29-1A.7.7,0,0,0,142,144Zm-4,1.44Z"/></g><g id="Layer3_3_MEMBER_6_MEMBER_9_MEMBER_4_MEMBER_3_FILL" data-name="Layer3 3 MEMBER 6 MEMBER 9 MEMBER 4 MEMBER 3 FILL"><path class="cls-40" d="M125.26,158a6.62,6.62,0,0,0,3.38,1,7,7,0,0,0,3.58-.64,2.23,2.23,0,0,0,.2-4.18,6.68,6.68,0,0,0-3.42-1,6.83,6.83,0,0,0-3.54.64,2.39,2.39,0,0,0-1.51,2A2.46,2.46,0,0,0,125.26,158Z"/></g><g id="Layer3_3_MEMBER_6_MEMBER_9_MEMBER_4_MEMBER_3_1_STROKES" data-name="Layer3 3 MEMBER 6 MEMBER 9 MEMBER 4 MEMBER 3 1 STROKES"><path class="cls-41" d="M129.19,160.48c-.21,0-.42,0-.63,0h0a8,8,0,0,1-4.08-1.27,3.76,3.76,0,0,1-1.92-3.43,3.69,3.69,0,0,1,2.24-3.12,8.36,8.36,0,0,1,4.28-.8,8,8,0,0,1,4.12,1.27,3.59,3.59,0,0,1-.32,6.55A8.13,8.13,0,0,1,129.19,160.48Zm-.47-2.79a5.64,5.64,0,0,0,2.88-.5c.75-.4.77-.75.78-.87,0-.31-.4-.67-.75-.91a5.3,5.3,0,0,0-2.71-.79,5.53,5.53,0,0,0-2.84.49c-.47.26-.73.53-.74.79s0,.49.71,1a5.33,5.33,0,0,0,2.67.8Z"/></g><g id="Layer3_3_MEMBER_6_MEMBER_9_MEMBER_4_MEMBER_4_FILL" data-name="Layer3 3 MEMBER 6 MEMBER 9 MEMBER 4 MEMBER 4 FILL"><path class="cls-40" d="M128.56,149.41a7.12,7.12,0,0,0,4.61,5.17,2.43,2.43,0,0,0,2.55-.28,2.5,2.5,0,0,0,.56-2.46,6.93,6.93,0,0,0-1.67-3.18,6.54,6.54,0,0,0-3-2,2.41,2.41,0,0,0-2.5.28A2.35,2.35,0,0,0,128.56,149.41Z"/></g><g id="Layer3_3_MEMBER_6_MEMBER_9_MEMBER_4_MEMBER_4_1_STROKES" data-name="Layer3 3 MEMBER 6 MEMBER 9 MEMBER 4 MEMBER 4 1 STROKES"><path class="cls-41" d="M134.35,156.2a5,5,0,0,1-1.59-.29,7.69,7.69,0,0,1-3.6-2.39h0a7.77,7.77,0,0,1-2-3.88,3.62,3.62,0,0,1,1.05-3.74,3.7,3.7,0,0,1,3.84-.56,7.84,7.84,0,0,1,3.56,2.39,8.34,8.34,0,0,1,2,3.84,3.78,3.78,0,0,1-1,3.76A3.45,3.45,0,0,1,134.35,156.2Zm-3.12-4.53a5,5,0,0,0,2.31,1.57l.09,0c.83.29,1.08.07,1.17,0s.19-.75.11-1.16a5.57,5.57,0,0,0-1.35-2.53,5.19,5.19,0,0,0-2.3-1.57c-.34-.11-.92-.25-1.17,0s-.35.31-.17,1.13a5,5,0,0,0,1.31,2.56Z"/></g><g id="Layer3_3_MEMBER_7_FILL" data-name="Layer3 3 MEMBER 7 FILL"><path class="cls-42" d="M161.57,216.62l-.08,0-45.93-16.71L70.31,215.22l.11,22.07L116.23,254l.4.19,44.94-15.58V216.62m-44.94,15.19V232l-.36-.11Z"/></g><g id="Layer3_3_MEMBER_7_MEMBER_0_1_STROKES" data-name="Layer3 3 MEMBER 7 MEMBER 0 1 STROKES"><path d="M116.63,233.44a1.36,1.36,0,0,1-.44-.08l-.36-.11a1.41,1.41,0,0,1-1-1.32,1.39,1.39,0,0,1,1-1.32l.36-.12a1.38,1.38,0,0,1,1.83,1.32V232a1.39,1.39,0,0,1-.57,1.13A1.37,1.37,0,0,1,116.63,233.44Z"/></g><g id="Layer3_3_MEMBER_7_MEMBER_0_MEMBER_0_1_STROKES" data-name="Layer3 3 MEMBER 7 MEMBER 0 MEMBER 0 1 STROKES"><path class="cls-43" d="M116.63,255.55a1.4,1.4,0,0,1-1.39-1.4V233l-45.41-16.5a1.39,1.39,0,1,1,1-2.61l45.51,16.53L161,215.26a1.39,1.39,0,1,1,.89,2.63L118,232.8v21.35A1.4,1.4,0,0,1,116.63,255.55Z"/></g><g id="Layer3_3_MEMBER_7_MEMBER_0_MEMBER_1_FILL" data-name="Layer3 3 MEMBER 7 MEMBER 0 MEMBER 1 FILL"><path class="cls-44" d="M134.33,206.67l-17.94,6.09L97,206.16l-7.28,2.46L109,215.18,88.68,222.1v21.83l6.76,2.47V224.77l21-7.08,20,7v22.58l6.76-2.38V222.38l-19.52-7.2,17.7-6Z"/></g><g id="Layer3_3_MEMBER_7_MEMBER_0_MEMBER_2_1_STROKES" data-name="Layer3 3 MEMBER 7 MEMBER 0 MEMBER 2 1 STROKES"><path class="cls-43" d="M116.63,255.55a1.35,1.35,0,0,1-.62-.15l-.33-.16L70,238.6a1.4,1.4,0,0,1-.92-1.3l-.12-22.07a1.39,1.39,0,0,1,1-1.32l45.25-15.35a1.32,1.32,0,0,1,.92,0l45.74,16.63a1.4,1.4,0,0,1,1.19,1.38h0v22a1.39,1.39,0,0,1-.94,1.31l-44.93,15.59A1.44,1.44,0,0,1,116.63,255.55ZM71.81,236.32l44.9,16.33h0l43.45-15.07v-20l-44.63-16.23L71.7,216.22Z"/></g><g id="Layer3_3_MEMBER_8_MEMBER_0_FILL" data-name="Layer3 3 MEMBER 8 MEMBER 0 FILL"><path class="cls-45" d="M169.8,233.6l-3.38,16.94,41.19-11L211,222.62l-41.11,10.54-.08.44m-46-38.18-3,17.3,45.61,37.82,3.38-16.94-.4-.32-45.61-37.86m.48-.16-.48.16,45.61,37.86.48-.12L211,222.62l0-.16-45.45-37.74Z"/></g><g id="Layer3_3_MEMBER_8_MEMBER_0_1_STROKES" data-name="Layer3 3 MEMBER 8 MEMBER 0 1 STROKES"><path d="M169.8,235a1.4,1.4,0,0,1-.87-.31l-.4-.32a1.39,1.39,0,0,1,.53-2.43l.48-.12a1.39,1.39,0,0,1,1.29.33,1.42,1.42,0,0,1,.42,1.27l-.08.43a1.39,1.39,0,0,1-.88,1.06A1.41,1.41,0,0,1,169.8,235Z"/></g><g id="Layer3_3_MEMBER_8_MEMBER_0_2_STROKES" data-name="Layer3 3 MEMBER 8 MEMBER 0 2 STROKES"><path class="cls-46" d="M166.42,251.93l-.28,0a1.39,1.39,0,0,1-1.09-1.64l3.22-16.11L122.9,196.49a1.39,1.39,0,0,1,1.78-2.14l45.06,37.4,40.91-10.48a1.39,1.39,0,0,1,.69,2.7l-40.26,10.32-3.3,16.52A1.39,1.39,0,0,1,166.42,251.93Z"/></g><g id="Layer3_3_MEMBER_8_MEMBER_0_MEMBER_0_1_STROKES" data-name="Layer3 3 MEMBER 8 MEMBER 0 MEMBER 0 1 STROKES"><path class="cls-46" d="M166.42,251.93a1.39,1.39,0,0,1-.89-.32l-45.61-37.82a1.39,1.39,0,0,1-.48-1.31l3-17.3a1.39,1.39,0,0,1,.93-1.08l.48-.16.09,0,41.32-10.53a1.4,1.4,0,0,1,1.23.27l45.45,37.74a1.38,1.38,0,0,1,.48,1.34L209,239.83a1.42,1.42,0,0,1-1,1.08l-41.19,11A1.49,1.49,0,0,1,166.42,251.93Zm-44.1-39.77L166.75,249l39.67-10.57L209.51,223l-44.27-36.75L125,196.51Z"/></g><g id="Layer3_3_MEMBER_8_MEMBER_1_FILL" data-name="Layer3 3 MEMBER 8 MEMBER 1 FILL"><path class="cls-47" d="M198.43,235.38a3,3,0,0,0,.24-1.86A2,2,0,0,0,196.2,232a2.16,2.16,0,0,0-1.35.92,5.13,5.13,0,0,0-.32.68,1.55,1.55,0,0,0-.48-.52,2.24,2.24,0,0,0-3,.6,2.07,2.07,0,0,0-.28,1.51,3.12,3.12,0,0,0,1,1.63,7,7,0,0,0,3.58,1.79,1,1,0,0,0,.24,0h.07l.16-.16a6.94,6.94,0,0,0,2.59-3.07m-46-6.32a2.3,2.3,0,0,0-1.35.88,2,2,0,0,0-.28,1.51,3,3,0,0,0,1,1.63,7,7,0,0,0,3.58,1.79,1,1,0,0,0,.24,0h.08l.16-.16a6.88,6.88,0,0,0,2.58-3.06,2.86,2.86,0,0,0,.24-1.87,2.11,2.11,0,0,0-.87-1.27,2.14,2.14,0,0,0-1.59-.28,2.06,2.06,0,0,0-1.35.91,4.53,4.53,0,0,0-.32.68,1.79,1.79,0,0,0-.48-.52,2.37,2.37,0,0,0-1.63-.28m5.17-25a2.64,2.64,0,0,0-2-.4,2.82,2.82,0,0,0-1.71,1.19,3.43,3.43,0,0,0-.36.84,2.55,2.55,0,0,0-.63-.64,2.65,2.65,0,0,0-2-.35,2.43,2.43,0,0,0-1.67,1.11,2.65,2.65,0,0,0-.4,1.87,4.09,4.09,0,0,0,1.23,2,9.34,9.34,0,0,0,4.5,2.22,1,1,0,0,0,.28,0s.05,0,.08,0h0a.73.73,0,0,0,.19-.2,8.67,8.67,0,0,0,3.23-3.81,3.42,3.42,0,0,0,.31-2.35,2.49,2.49,0,0,0-1.07-1.55m6-7h.08l.16-.16a7,7,0,0,0,2.59-3.06,3,3,0,0,0,.24-1.87,2.05,2.05,0,0,0-2.47-1.55,2.15,2.15,0,0,0-1.35.91,5.79,5.79,0,0,0-.32.68,1.78,1.78,0,0,0-.48-.52,2.3,2.3,0,0,0-1.63-.27,2.35,2.35,0,0,0-1.35.87,2.08,2.08,0,0,0-.28,1.51,3.12,3.12,0,0,0,1,1.63,6.85,6.85,0,0,0,3.58,1.79.62.62,0,0,0,.23,0M129.32,209.5a2,2,0,0,0-1.47-.24,1.88,1.88,0,0,0-1.2.79,1.94,1.94,0,0,0-.28,1.36,2.91,2.91,0,0,0,.92,1.47,6.47,6.47,0,0,0,3.22,1.59l.2,0h.08a.6.6,0,0,0,.16-.16,6.28,6.28,0,0,0,2.3-2.74,2.75,2.75,0,0,0,.24-1.71,2.08,2.08,0,0,0-.79-1.12,2.13,2.13,0,0,0-1.43-.28,2,2,0,0,0-1.24.88,4.6,4.6,0,0,0-.28.59,1.47,1.47,0,0,0-.43-.47m51.85,3.85a2.4,2.4,0,0,0-1.87,2.71,3.53,3.53,0,0,0,1.11,1.83,8.39,8.39,0,0,0,4.06,2h.24a.06.06,0,0,0,.08,0,.43.43,0,0,0,.2-.16,8,8,0,0,0,2.9-3.42,3.27,3.27,0,0,0,.28-2.15,2.45,2.45,0,0,0-1-1.39,2.52,2.52,0,0,0-1.82-.36,2.55,2.55,0,0,0-1.52,1.07,2.18,2.18,0,0,0-.31.76,2.43,2.43,0,0,0-.6-.6A2.4,2.4,0,0,0,181.17,213.35Z"/></g></g></g></svg>