<svg xmlns="http://www.w3.org/2000/svg" viewBox="0 0 102.31 158.81"><defs><style>.cls-1{fill:#83e8d3;}.cls-2{fill:#47d7ac;}.cls-3{fill:#1cb594;}.cls-4{fill:#fff;}</style></defs><g id="레이어_2" data-name="레이어 2"><g id="레이어_1-2" data-name="레이어 1"><path class="cls-1" d="M39.4,91.49q-2.64,4-5.2,8.84c-.45.81-.89,1.64-1.32,2.47a64.4,64.4,0,0,0-4,10.83c-.28,1.08-.52,2.13-.7,3.15L28,117.94q-1.68,11.85,6.33,17.68a12.31,12.31,0,0,0,1.65,1,24.19,24.19,0,0,0,9,2.48c1.08.12,2.17.2,3.25.24h1.22a30.08,30.08,0,0,0,13.92-3.73c.42-.28.83-.57,1.22-.88a15.31,15.31,0,0,0,5.66-9.39,23.83,23.83,0,0,0-1.62-12.45,59.42,59.42,0,0,1-4.35-21.41H39.4"/><path class="cls-2" d="M48.24,140.42c-1.15,0-2.26-.12-3.36-.25a25.39,25.39,0,0,1-9.42-2.58,15,15,0,0,1-1.77-1.1c-5.66-4.13-7.94-10.42-6.76-18.7l.18-1.18c.19-1.06.44-2.15.73-3.25a65.28,65.28,0,0,1,4.07-11c.45-.88.9-1.72,1.35-2.54,1.71-3.22,3.48-6.22,5.24-8.91a1.08,1.08,0,0,1,.9-.48H64.29a1.06,1.06,0,0,1,1.07,1,58.64,58.64,0,0,0,4.27,21,25,25,0,0,1,1.69,13,16.49,16.49,0,0,1-6.06,10.09c-.41.32-.85.63-1.3.93l-.05,0a29.79,29.79,0,0,1-11.07,3.62,28.4,28.4,0,0,1-3.36.25H48.24M40,92.56c-1.63,2.5-3.25,5.28-4.84,8.27-.45.82-.89,1.64-1.31,2.46a62.72,62.72,0,0,0-3.92,10.61c-.28,1-.51,2.08-.69,3.07L29,118.11c-1.06,7.52.87,13,5.91,16.65a12.6,12.6,0,0,0,1.52.94,23.41,23.41,0,0,0,8.63,2.35h0c1,.11,2.12.2,3.17.23h1.18a26.77,26.77,0,0,0,3.1-.23,27.87,27.87,0,0,0,10.26-3.34c.39-.26.77-.53,1.12-.8a14.37,14.37,0,0,0,5.27-8.77,22.75,22.75,0,0,0-1.57-11.84,60.9,60.9,0,0,1-4.39-20.74Z"/><path class="cls-3" d="M29.06,112.93a4.4,4.4,0,0,1,1.44.95,3.93,3.93,0,0,1,1.25,3v.49h4.89v-.55a9.43,9.43,0,0,0-.73-3.52,8.22,8.22,0,0,0-2-2.9,8.75,8.75,0,0,0-3.36-2.17q-.9,2.46-1.53,4.74"/><path class="cls-2" d="M28,119h-.15a1.07,1.07,0,0,1-.91-1.2c.05-.4.11-.8.19-1.21.18-1,.43-2.13.72-3.23.06-.23.12-.47.19-.7.42-1.55.95-3.18,1.57-4.85h0c.41-1.1.88-2.24,1.38-3.39a1.07,1.07,0,0,1,2,.86c-.48,1.12-.93,2.22-1.33,3.28-.6,1.61-1.11,3.18-1.52,4.66h0l-.18.67c-.28,1-.51,2.08-.69,3.07-.06.38-.12.75-.17,1.12A1.07,1.07,0,0,1,28,119"/><path class="cls-1" d="M51,84.36c-.32,1-.64,1.93-1,2.87q-7.76,23.8-9.67,32.55a21,21,0,0,0-.55,6.24,9.09,9.09,0,0,0,1.66,4.83A6.16,6.16,0,0,0,44.87,133q7.41,1.47,9.79-9a132.36,132.36,0,0,0,2.87-17,153.26,153.26,0,0,0,.74-19.7v-.42L51,84.36"/><path class="cls-2" d="M46.59,134.21a10.19,10.19,0,0,1-1.93-.2,7.34,7.34,0,0,1-4-2.49,10.14,10.14,0,0,1-1.88-5.41,22.12,22.12,0,0,1,.57-6.57c1.27-5.83,4.53-16.81,9.69-32.64.32-.94.63-1.9.95-2.87a1.07,1.07,0,0,1,2,.66c-.33,1-.64,1.94-.95,2.88-5.14,15.75-8.38,26.67-9.64,32.44a20,20,0,0,0-.53,5.93,8.11,8.11,0,0,0,1.43,4.26,5.12,5.12,0,0,0,2.82,1.72c1.52.3,6.32,1.26,8.47-8.22a130.35,130.35,0,0,0,2.86-16.88,1.07,1.07,0,0,1,2.13.22,134.25,134.25,0,0,1-2.9,17.15c-1.81,8-5.65,10-9.11,10"/><path class="cls-1" d="M57.08,138.22l.12-3.51H40.37l.25,3.67.92,13.09a3.83,3.83,0,0,0-2,3.06q-.21,3,4.8,3.15a72,72,0,0,0,8.84-.16q4.44-.39,3.43-6.21l.49-13.09"/><path class="cls-2" d="M47.64,158.81q-1.62,0-3.36-.06c-2.42-.09-4.06-.64-5-1.69a3.41,3.41,0,0,1-.84-2.61,4.83,4.83,0,0,1,2-3.53l-.81-11.7a20.72,20.72,0,0,1-4.16-1.63,1.07,1.07,0,0,1,1-1.89,18.34,18.34,0,0,0,4.39,1.63l.22.08a1,1,0,0,1,.36.27,1.06,1.06,0,0,1,.22.42l0,.23.91,13.06a1.08,1.08,0,0,1-.52,1,2.83,2.83,0,0,0-1.51,2.25,1.22,1.22,0,0,0,.3,1c.36.4,1.25.89,3.48,1a71.92,71.92,0,0,0,8.71-.15,2.74,2.74,0,0,0,2-.93c.6-.79.74-2.14.41-4v-.23L56,138.22l0-.23a1.2,1.2,0,0,1,.2-.41,1.09,1.09,0,0,1,.37-.3l.21-.08a27.64,27.64,0,0,0,5-1.93,1.07,1.07,0,1,1,1,1.9,29.44,29.44,0,0,1-4.64,1.88l-.46,12.19c.41,2.49.14,4.31-.84,5.59a4.8,4.8,0,0,1-3.56,1.76c-1.73.15-3.61.22-5.62.22"/><path class="cls-4" d="M99.87,43.8A46.64,46.64,0,0,0,96.93,36q-.8-1.59-1.68-3.18l-.58-1L94.15,31A46.76,46.76,0,0,0,68.33,11a86.71,86.71,0,0,0-10.4-2.35c-.81-.15-1.63-.26-2.44-.34-1.8-.18-3.6-.29-5.42-.31h-1a59.45,59.45,0,0,0-21.47,4.35Q5.45,21.81,4.25,49.46A31.36,31.36,0,0,1,3,57.84,32.22,32.22,0,0,0,1.22,71.45a20,20,0,0,0,2.42,7.47,22,22,0,0,0,6,6.72,26.4,26.4,0,0,0,2.78,1.87c.86.55,1.73,1.07,2.63,1.56a61.37,61.37,0,0,0,22.39,7.19l1.68.18a75.5,75.5,0,0,0,10,.74h1c1.49,0,3-.06,4.44-.16q3.15-.18,6.11-.55l.74-.12a51.89,51.89,0,0,0,20.52-7A39.5,39.5,0,0,0,93.14,78.79a46.16,46.16,0,0,0,5.41-10,40.57,40.57,0,0,0,1.32-25"/><path class="cls-2" d="M50.07,98.25h-1A77.79,77.79,0,0,1,39,97.5l-1.65-.18A62.66,62.66,0,0,1,14.56,90c-.91-.5-1.81-1-2.69-1.6A29.46,29.46,0,0,1,9,86.5a23.12,23.12,0,0,1-6.31-7.06A20.79,20.79,0,0,1,.16,71.58,33.29,33.29,0,0,1,2,57.52a30.41,30.41,0,0,0,1.2-8.09C4,30.62,12.08,17.81,27.23,11.34A60.9,60.9,0,0,1,49.11,6.91h1c1.85,0,3.7.13,5.52.31.84.09,1.69.21,2.53.35A89.1,89.1,0,0,1,68.64,10,48,48,0,0,1,95.05,30.37l.55.91c.19.3.39.65.58,1,.6,1.08,1.17,2.16,1.71,3.23a47.58,47.58,0,0,1,3,8,41.82,41.82,0,0,1-1.34,25.61A48.09,48.09,0,0,1,94,79.42a40.91,40.91,0,0,1-11.56,10.8,53.31,53.31,0,0,1-20.94,7.19l-.71.12q-3.06.38-6.23.56c-1.47.1-3,.16-4.5.16m-1-89.2a58.57,58.57,0,0,0-21.07,4.27c-14.3,6.11-22,18.29-22.73,36.19A32.29,32.29,0,0,1,4,58.16H4A31.08,31.08,0,0,0,2.29,71.33a18.62,18.62,0,0,0,2.28,7.06,21,21,0,0,0,5.74,6.4A28.42,28.42,0,0,0,13,86.59c.87.55,1.73,1.07,2.6,1.54a60.69,60.69,0,0,0,22,7.07l1.67.18a74.2,74.2,0,0,0,9.86.72h.94c1.46,0,2.93,0,4.36-.15,2.08-.12,4.11-.3,6.06-.54l.69-.12a51.17,51.17,0,0,0,20.13-6.88,38.79,38.79,0,0,0,11-10.24,45.38,45.38,0,0,0,5.29-9.8,39.68,39.68,0,0,0,1.27-24.29A45.62,45.62,0,0,0,96,36.43c-.52-1-1.08-2.08-1.66-3.12-.17-.31-.36-.62-.55-.93s-.34-.58-.51-.85A46,46,0,0,0,68,12,87.66,87.66,0,0,0,57.76,9.68c-.8-.14-1.6-.25-2.38-.33-1.76-.17-3.55-.28-5.32-.3ZM3,57.84Z"/><path class="cls-1" d="M98.55,68.76a46.35,46.35,0,0,0,2-7.22A39.05,39.05,0,0,0,100,44.23a52.22,52.22,0,0,1-19.58-4.8c-.24-.1-.49-.2-.73-.28a32.68,32.68,0,0,0-9.48-1.83Q61.46,37,53.25,43.89l-2,1.81a47.44,47.44,0,0,0-5.65,6.39q-3.2,4.19-1.6,11.13c.21.74.43,1.45.68,2.14a56.73,56.73,0,0,0,7.06,13.92,38,38,0,0,0,5.75,6.49,49,49,0,0,0,5.6,4.34,30,30,0,0,0,9.15,3.73,46.62,46.62,0,0,0,9.63-4.53,43.16,43.16,0,0,0,4.31-3.09,39.91,39.91,0,0,0,7-7.43,46.16,46.16,0,0,0,5.41-10"/><path class="cls-2" d="M72.25,94.91a1.09,1.09,0,0,1-1-.72,1.07,1.07,0,0,1,.67-1.36,46.62,46.62,0,0,0,9.42-4.42,47.09,47.09,0,0,0,4.2-3,39.27,39.27,0,0,0,6.75-7.22,45.38,45.38,0,0,0,5.29-9.8,46.63,46.63,0,0,0,1.93-7,38.29,38.29,0,0,0-.57-16.84A1.07,1.07,0,1,1,101,44a40.12,40.12,0,0,1,.6,17.78,48.4,48.4,0,0,1-2,7.38A47.93,47.93,0,0,1,94,79.42a42,42,0,0,1-7.13,7.63,49.93,49.93,0,0,1-4.42,3.17,48.4,48.4,0,0,1-9.87,4.63,1,1,0,0,1-.34.06"/><path class="cls-2" d="M72.25,94.61l-.19,0a30.69,30.69,0,0,1-9.38-3.83A48.66,48.66,0,0,1,57,86.33a38.4,38.4,0,0,1-5.87-6.62A58.24,58.24,0,0,1,44,65.61c-.24-.7-.47-1.43-.68-2.18-1.12-4.87-.54-8.83,1.72-11.8a48.16,48.16,0,0,1,5.74-6.49l2-1.81c5.61-4.74,11.47-7,17.46-6.78a33.77,33.77,0,0,1,9.69,1.88c.26.08.52.18.79.29A51.83,51.83,0,0,0,100,43.47a.76.76,0,1,1,0,1.52,53.3,53.3,0,0,1-19.87-4.86c-.21-.09-.44-.18-.66-.25a31.88,31.88,0,0,0-9.26-1.8C64.55,37.87,59,40,53.74,44.48l-2,1.78a47.28,47.28,0,0,0-5.56,6.28c-2,2.6-2.46,6.14-1.46,10.51.19.68.41,1.39.65,2.06a56.69,56.69,0,0,0,7,13.74A36.94,36.94,0,0,0,58,85.2a46.61,46.61,0,0,0,5.51,4.27,28.91,28.91,0,0,0,8.9,3.63.77.77,0,0,1-.18,1.51"/><path class="cls-3" d="M98.55,69.11a1.28,1.28,0,0,0,.91-.64,1.46,1.46,0,0,0,.13-1.16,1.37,1.37,0,0,0-.67-.85,1.59,1.59,0,0,0-1.13-.19,1.62,1.62,0,0,0-.88.73,1.41,1.41,0,0,0-.16,1.07,1.49,1.49,0,0,0,.7.93,1.26,1.26,0,0,0,1.1.11"/><path class="cls-3" d="M95.86,73.76a1.31,1.31,0,0,0,.91-.64A1.5,1.5,0,0,0,96.9,72a1.34,1.34,0,0,0-.67-.85,1.6,1.6,0,0,0-1.13-.19,1.62,1.62,0,0,0-.88.73,1.41,1.41,0,0,0-.16,1.07,1.45,1.45,0,0,0,.7.93,1.26,1.26,0,0,0,1.1.11"/><path class="cls-3" d="M93.17,78.41a1.26,1.26,0,0,0,.9-.65,1.43,1.43,0,0,0,.14-1.15,1.38,1.38,0,0,0-.67-.85,1.6,1.6,0,0,0-1.13-.19,1.55,1.55,0,0,0-.88.73,1.36,1.36,0,0,0-.16,1.07,1.45,1.45,0,0,0,.7.93,1.26,1.26,0,0,0,1.1.11"/><path class="cls-3" d="M89.13,73.41a1.29,1.29,0,0,0,1,.46,1.49,1.49,0,0,0,1.07-.46,1.4,1.4,0,0,0,.4-1,1.59,1.59,0,0,0-.4-1.07,1.56,1.56,0,0,0-1.07-.4,1.34,1.34,0,0,0-1,.4,1.44,1.44,0,0,0-.46,1.07,1.27,1.27,0,0,0,.46,1"/><path class="cls-3" d="M91.42,67.36a1.26,1.26,0,0,0,.11,1.1,1.45,1.45,0,0,0,.93.7A1.36,1.36,0,0,0,93.53,69a1.37,1.37,0,0,0,.54-2,1.38,1.38,0,0,0-.85-.67,1.43,1.43,0,0,0-1.15.14,1.26,1.26,0,0,0-.65.9"/><path class="cls-2" d="M86.19,87.28a1.06,1.06,0,0,1-.82-.39,1.08,1.08,0,0,1,.14-1.51,38.49,38.49,0,0,0,6.74-7.21,45.47,45.47,0,0,0,5.31-9.8,45.06,45.06,0,0,0,1.93-7,1.07,1.07,0,1,1,2.1.39,46.8,46.8,0,0,1-2,7.39A47.7,47.7,0,0,1,94,79.42,41.53,41.53,0,0,1,86.88,87a1.11,1.11,0,0,1-.69.24"/><path class="cls-4" d="M69.1,14.59a17.27,17.27,0,0,0-.59-9.45q-2.25-5.32-7-3.67a8.14,8.14,0,0,0-1.68.76A31.06,31.06,0,0,0,49.7,13.34c-.12.24-.26.48-.39.73l-.06.12c-.12.2-.23.41-.34.61s-.24.49-.37.74c-.27.53-.54,1.07-.79,1.62.49.41,1,.81,1.5,1.19s.72.54,1.1.8c.16.1.32.21.49.3l.12.1A31.63,31.63,0,0,0,61.11,23.8l.13,0,.24.06c1.16.24,2.36.44,3.58.58.48-.77.92-1.55,1.31-2.32l.13-.25.12-.24a28.14,28.14,0,0,0,2.48-7.07"/><path class="cls-2" d="M66.39,23.22a1.12,1.12,0,0,1-.47-.11,1.08,1.08,0,0,1-.49-1.44l.24-.49a27.31,27.31,0,0,0,2.38-6.8,16.37,16.37,0,0,0-.54-8.88c-1.64-3.84-3.86-3.64-5.61-3a6.79,6.79,0,0,0-1.5.68,29.89,29.89,0,0,0-9.75,10.71l-.39.69-.07.14-.31.59a1.08,1.08,0,0,1-1.44.47A1.06,1.06,0,0,1,48,14.32c.11-.21.22-.43.34-.64l0-.06,0-.07.42-.75A32,32,0,0,1,59.29,1.33,8.58,8.58,0,0,1,61.23.45c2.54-.9,6.07-.89,8.27,4.27a18.62,18.62,0,0,1,.65,10.08,29.64,29.64,0,0,1-2.56,7.33l-.24.49a1.08,1.08,0,0,1-1,.6"/><path d="M1.8,75.21a.77.77,0,0,1,0-1.53A9,9,0,0,0,7,72.11a4.65,4.65,0,0,0,2-2.48A.76.76,0,1,1,10.4,70a6,6,0,0,1-2.56,3.32,10.45,10.45,0,0,1-6,1.85h0"/><path class="cls-2" d="M3.64,80a1.08,1.08,0,0,1-.93-.55A20.41,20.41,0,0,1,.77,74.73a21.15,21.15,0,0,1-.61-3.15,1.07,1.07,0,1,1,2.13-.25,18.17,18.17,0,0,0,.55,2.83,18.36,18.36,0,0,0,1.73,4.23,1.08,1.08,0,0,1-.4,1.46,1.13,1.13,0,0,1-.53.14"/><path d="M14.77,55.3a10.4,10.4,0,0,0,1.17,5.11c.75,1.45,1.67,2.17,2.75,2.17s2-.72,2.75-2.17A10.4,10.4,0,0,0,22.6,55.3a10.58,10.58,0,0,0-1.16-5.14c-.75-1.4-1.67-2.11-2.75-2.11s-2,.71-2.75,2.11a10.58,10.58,0,0,0-1.17,5.14"/><path class="cls-1" d="M25.57,36.12A2.15,2.15,0,0,0,24,35.76l-8.2,1.43a2,2,0,0,0-1.28.89,2.21,2.21,0,0,0-.37,1.65,1.92,1.92,0,0,0,.89,1.38,1.92,1.92,0,0,0,1.59.43l.06,0,8.11-1.44L25,40a2.1,2.1,0,0,0,1.16-.89,2.06,2.06,0,0,0,.34-1.59,2.22,2.22,0,0,0-.89-1.44"/><path class="cls-2" d="M16.29,42.33a2.7,2.7,0,0,1-1.68-.6,2.66,2.66,0,0,1-1.2-1.87,2.93,2.93,0,0,1,.48-2.2,2.76,2.76,0,0,1,1.76-1.21L23.88,35a2.9,2.9,0,0,1,2.13.5,2.93,2.93,0,0,1,1.2,1.93,2.83,2.83,0,0,1-.46,2.16,3,3,0,0,1-1.52,1.17,1.28,1.28,0,0,1-.34.07l-7.95,1.41-.17,0a2.59,2.59,0,0,1-.48,0m.41-.06Zm.48-.2h0Zm7.17-5.57h-.23L16,38a1.2,1.2,0,0,0-.78.55,1.5,1.5,0,0,0-.26,1.1,1.18,1.18,0,0,0,.54.86l.07,0a1.22,1.22,0,0,0,.88.29l.2,0,8.07-1.43h.07a1.41,1.41,0,0,0,.75-.59,1.28,1.28,0,0,0,.21-1,1.41,1.41,0,0,0-.59-.95A1.29,1.29,0,0,0,24.35,36.5Zm.27,2.85Zm.19-.05Z"/></g></g></svg>