<svg xmlns="http://www.w3.org/2000/svg" viewBox="0 0 80.73 80.01"><defs><style>.cls-1{fill:#fff;}.cls-2{fill:#47d7ac;}.cls-3{fill:#83e8d3;}.cls-4{fill:#1cb594;}</style></defs><g id="레이어_2" data-name="레이어 2"><g id="레이어_1-2" data-name="레이어 1"><path class="cls-1" d="M58.22,10.08a48,48,0,0,0-5.5-1.84,46.5,46.5,0,0,0-12-1.7H40A45.93,45.93,0,0,0,33.8,7a49.6,49.6,0,0,0-11.3,3.06,29.93,29.93,0,0,0-12.15,9.08A26.36,26.36,0,0,0,7.86,23c-.25.46-.49.92-.72,1.39s-.49,1.06-.72,1.6a41.43,41.43,0,0,0-3,14.36,25.68,25.68,0,0,1-1,6.82Q-2.45,62,7.86,69.75a23,23,0,0,0,2.27,1.52l.12.07c.65.42,1.32.82,2,1.2a50,50,0,0,0,18.22,5.85l1.37.15a61.12,61.12,0,0,0,8.12.6h.77a61,61,0,0,0,8.11-.6l1.37-.15a53.64,53.64,0,0,0,8.07-1.64,49.23,49.23,0,0,0,10.16-4.21c.73-.4,1.44-.82,2.14-1.27a22.81,22.81,0,0,0,2.26-1.52Q83.17,62,78.29,47.12a25.28,25.28,0,0,1-1-6.82,41.66,41.66,0,0,0-2.94-14.36c-.21-.54-.45-1.05-.7-1.55l0-.05-.1-.2a28.75,28.75,0,0,0-3.11-5,30.1,30.1,0,0,0-12.18-9.08"/><path class="cls-2" d="M40,80a61.13,61.13,0,0,1-8.24-.61l-1.34-.15a50.93,50.93,0,0,1-18.55-6c-.69-.37-1.36-.77-2-1.18L9.62,72a24.06,24.06,0,0,1-2.29-1.54C.17,65-1.76,57.09,1.61,46.86a24.84,24.84,0,0,0,1-6.58,42.52,42.52,0,0,1,3-14.68c.23-.55.48-1.1.74-1.64s.48-1,.74-1.43a27.76,27.76,0,0,1,2.57-3.91A30.81,30.81,0,0,1,22.16,9.28,51.58,51.58,0,0,1,33.68,6.15,47.56,47.56,0,0,1,40,5.67h.78A47.78,47.78,0,0,1,53,7.4a49.7,49.7,0,0,1,5.6,1.87,31.05,31.05,0,0,1,12.53,9.36,29.22,29.22,0,0,1,3.2,5.1l.11.23,0,.07c.26.51.5,1,.72,1.58a43.17,43.17,0,0,1,3,14.65,24.39,24.39,0,0,0,1,6.6C82.48,57.09,80.56,65,73.39,70.45A26.65,26.65,0,0,1,71,72c-.68.44-1.42.88-2.17,1.28a49.33,49.33,0,0,1-10.33,4.28,52.93,52.93,0,0,1-8.2,1.67L49,79.4a60.57,60.57,0,0,1-8.21.61H40M10.64,70.56l.08,0c.63.4,1.29.79,2,1.16A49.08,49.08,0,0,0,30.6,77.52l1.35.15a58.63,58.63,0,0,0,8,.59h.77a59.41,59.41,0,0,0,8-.58l1.4-.16a52.41,52.41,0,0,0,7.92-1.61,48.49,48.49,0,0,0,10-4.13c.72-.39,1.42-.81,2.1-1.24a22.75,22.75,0,0,0,2.2-1.48c6.61-5,8.28-12.08,5.13-21.67a26.4,26.4,0,0,1-1.06-7.07,41.29,41.29,0,0,0-2.87-14c-.21-.51-.44-1-.68-1.49v0l0-.09,0-.08,0-.06a27.65,27.65,0,0,0-3-4.83,29.43,29.43,0,0,0-11.83-8.82A48.36,48.36,0,0,0,40.74,7.41H40a45.65,45.65,0,0,0-6,.47,49.5,49.5,0,0,0-11.11,3A29.15,29.15,0,0,0,11,19.7a25.7,25.7,0,0,0-2.41,3.66c-.25.45-.48.9-.71,1.36s-.48,1-.7,1.55A40.83,40.83,0,0,0,4.33,40.34a26.64,26.64,0,0,1-1.06,7h0C.11,57,1.79,64.06,8.39,69.06a22.34,22.34,0,0,0,2.18,1.46Zm.1.09h0ZM2.44,47.12ZM72.82,24.71h0Z"/><path class="cls-3" d="M78.29,47.12a25.28,25.28,0,0,1-1-6.82,46.37,46.37,0,0,0-1.35-9.53Q67.51,41.74,50,43.09a89.87,89.87,0,0,1-9.66.52,89.87,89.87,0,0,1-9.66-.52Q13.22,41.77,4.8,30.79A46.39,46.39,0,0,0,3.46,40.3a25.68,25.68,0,0,1-1,6.82Q-2.45,62,7.86,69.75a23,23,0,0,0,2.27,1.52l.12.07c.65.42,1.32.82,2,1.2a50,50,0,0,0,18.22,5.85l1.37.15a61.12,61.12,0,0,0,8.12.6h.77a61,61,0,0,0,8.11-.6l1.37-.15a53.64,53.64,0,0,0,8.07-1.64,49.23,49.23,0,0,0,10.16-4.21c.73-.4,1.44-.82,2.14-1.27a22.81,22.81,0,0,0,2.26-1.52Q83.17,62,78.29,47.12"/><path class="cls-2" d="M40,80a61.13,61.13,0,0,1-8.24-.61l-1.34-.15a50.93,50.93,0,0,1-18.55-6c-.69-.37-1.36-.77-2-1.18L9.62,72a24.06,24.06,0,0,1-2.29-1.54C.17,65-1.76,57.09,1.61,46.85a24.64,24.64,0,0,0,1-6.57A48.23,48.23,0,0,1,4,30.57.87.87,0,1,1,5.64,31a45.92,45.92,0,0,0-1.31,9.33,26.64,26.64,0,0,1-1.06,7C.11,57,1.79,64.06,8.39,69.06a22.34,22.34,0,0,0,2.18,1.46l.07,0,.08,0c.63.4,1.29.79,2,1.16A49.08,49.08,0,0,0,30.6,77.52l1.35.15a58.63,58.63,0,0,0,8,.59h.77a59.41,59.41,0,0,0,8-.58l1.4-.16a52.41,52.41,0,0,0,7.92-1.61,48.49,48.49,0,0,0,10-4.13c.72-.39,1.42-.81,2.1-1.24a22.75,22.75,0,0,0,2.2-1.48c6.61-5,8.28-12.08,5.13-21.67a26.4,26.4,0,0,1-1.06-7.07A46.21,46.21,0,0,0,75.08,31a.87.87,0,1,1,1.69-.43,47.45,47.45,0,0,1,1.37,9.71,24.39,24.39,0,0,0,1,6.6C82.48,57.09,80.56,65,73.39,70.45A26.65,26.65,0,0,1,71,72c-.68.44-1.42.88-2.17,1.28a49.33,49.33,0,0,1-10.33,4.28,52.93,52.93,0,0,1-8.2,1.67L49,79.4a60.57,60.57,0,0,1-8.21.61H40M10.74,70.65h0Z"/><path class="cls-2" d="M40.35,44.23a91.17,91.17,0,0,1-9.73-.52C18.86,42.82,10,38.6,4.31,31.17a.62.62,0,0,1,1-.76c5.48,7.14,14,11.2,25.45,12.06a91.73,91.73,0,0,0,9.61.52,91.06,91.06,0,0,0,9.59-.52c11.45-.88,20-4.95,25.49-12.08a.62.62,0,0,1,1,.75c-5.7,7.44-14.57,11.66-26.36,12.57a90.52,90.52,0,0,1-9.71.52"/><path class="cls-1" d="M28.75,14a37.15,37.15,0,0,0-2.86-5.1,23.64,23.64,0,0,0-7-7,6.5,6.5,0,0,0-1.37-.62c-2.55-.9-4.45.1-5.67,3a14,14,0,0,0-.48,7.69,21.89,21.89,0,0,0,1.45,4.53,25.68,25.68,0,0,0,1.84,3.51A25.92,25.92,0,0,0,28.75,14"/><path class="cls-2" d="M7.14,25.21a.84.84,0,0,1-.38-.08A.88.88,0,0,1,6.36,24c.23-.49.48-1,.74-1.43a27.76,27.76,0,0,1,2.57-3.91,29.82,29.82,0,0,1,2.11-2.41A23.15,23.15,0,0,1,10.52,12,15,15,0,0,1,11,3.88C12.83-.36,15.71-.37,17.81.37a7.62,7.62,0,0,1,1.52.69,24.13,24.13,0,0,1,6.92,6.77,52.29,52.29,0,0,1,6.21-1.49.89.89,0,0,1,1,.71.87.87,0,0,1-.71,1,49.7,49.7,0,0,0-6.58,1.62l-.19,0a.81.81,0,0,1-.38,0,.83.83,0,0,1-.32-.2l-.13-.15a22.77,22.77,0,0,0-6.73-6.78A6.5,6.5,0,0,0,17.27,2c-1.46-.51-3.27-.67-4.62,2.5a13.2,13.2,0,0,0-.42,7.18,21.28,21.28,0,0,0,1.38,4.35l.05.16a.77.77,0,0,1,0,.37.83.83,0,0,1-.15.35l-.11.12a27,27,0,0,0-4.78,6.31c-.25.45-.48.9-.71,1.36a.87.87,0,0,1-.78.49"/><path class="cls-1" d="M68.78,11.92a14.11,14.11,0,0,0-.47-7.69q-1.84-4.34-5.68-3a6.5,6.5,0,0,0-1.37.62,23.73,23.73,0,0,0-6.89,6.85,38.42,38.42,0,0,0-3,5.3,25.92,25.92,0,0,0,14.09,6,25.25,25.25,0,0,0,2-3.93,21.85,21.85,0,0,0,1.27-4.11"/><path class="cls-2" d="M73.61,25.21a.87.87,0,0,1-.81-.54l0-.08,0-.06a27.65,27.65,0,0,0-3-4.83,26.38,26.38,0,0,0-2.77-3l-.11-.12a1,1,0,0,1-.16-.35.77.77,0,0,1,0-.37l0-.16a21.64,21.64,0,0,0,1.21-3.93,13.41,13.41,0,0,0-.44-7.23c-1.33-3.13-3.14-3-4.57-2.46a6.49,6.49,0,0,0-1.22.55A22.81,22.81,0,0,0,55.11,9.2L55,9.35a.92.92,0,0,1-.33.19.76.76,0,0,1-.37.05l-.19,0c-.53-.17-1.07-.33-1.61-.47A46.09,46.09,0,0,0,43.21,7.5a.88.88,0,0,1-.82-.93.87.87,0,0,1,.93-.81A48.16,48.16,0,0,1,53,7.4q.54.13,1.08.3A24.22,24.22,0,0,1,60.8,1.12,7.85,7.85,0,0,1,62.37.41c2.07-.73,4.95-.72,6.74,3.48a15,15,0,0,1,.52,8.2,23,23,0,0,1-1.08,3.71,28.12,28.12,0,0,1,2.53,2.83,29.22,29.22,0,0,1,3.2,5.1c0,.1.1.19.14.29a.87.87,0,0,1-.81,1.19"/><path class="cls-4" d="M41.2,55.39a1,1,0,0,0,.37-.83,1.19,1.19,0,0,0-.37-.87,1.15,1.15,0,0,0-.83-.32,1.1,1.1,0,0,0-1.19,1.19,1.15,1.15,0,0,0,.32.83,1.23,1.23,0,0,0,.87.37,1.08,1.08,0,0,0,.83-.37"/><path class="cls-4" d="M41.2,59.77a1,1,0,0,0,.37-.82,1.19,1.19,0,0,0-.37-.88,1.15,1.15,0,0,0-.83-.32A1.11,1.11,0,0,0,39.18,59a1.14,1.14,0,0,0,.32.82,1.19,1.19,0,0,0,.87.37,1,1,0,0,0,.83-.37"/><path class="cls-4" d="M41.2,64.15a1,1,0,0,0,.37-.82,1.19,1.19,0,0,0-.37-.87,1.12,1.12,0,0,0-.83-.33,1.28,1.28,0,0,0-.87.33,1.32,1.32,0,0,0-.32.87,1.14,1.14,0,0,0,.32.82,1.19,1.19,0,0,0,.87.37,1,1,0,0,0,.83-.37"/><path class="cls-4" d="M36.3,62.26a1,1,0,0,0,.9-.09,1.18,1.18,0,0,0,.44-1.63A1.12,1.12,0,0,0,36,60.1a1.12,1.12,0,0,0-.55.7,1.18,1.18,0,0,0,.11.94,1,1,0,0,0,.73.52"/><path class="cls-4" d="M35.45,57.05a1.07,1.07,0,0,0,.53.74,1.22,1.22,0,0,0,.94.11,1.08,1.08,0,0,0,.69-.55,1.29,1.29,0,0,0,.16-.92,1.27,1.27,0,0,0-.6-.71,1.08,1.08,0,0,0-.87-.13,1.2,1.2,0,0,0-.76.57,1.07,1.07,0,0,0-.09.89"/><path class="cls-4" d="M44.42,62.26a1,1,0,0,1-.9-.09,1.17,1.17,0,0,1-.56-.75,1.11,1.11,0,0,1,.13-.88A1.26,1.26,0,0,1,43.8,60a1.34,1.34,0,0,1,.92.15,1.12,1.12,0,0,1,.55.7,1.22,1.22,0,0,1-.11.94,1.07,1.07,0,0,1-.74.52"/><path class="cls-4" d="M45.27,57.05a1.05,1.05,0,0,1-.52.74,1.25,1.25,0,0,1-1,.11,1.13,1.13,0,0,1-.69-.55,1.34,1.34,0,0,1-.15-.92,1.26,1.26,0,0,1,.59-.71,1.09,1.09,0,0,1,.87-.13,1.17,1.17,0,0,1,.76.57,1,1,0,0,1,.09.89"/></g></g></svg>