<svg xmlns="http://www.w3.org/2000/svg" viewBox="0 0 86.46 80.9"><defs><style>.cls-1{fill:#fff;}.cls-2{fill:#47d7ac;}.cls-3{fill:#83e8d3;}.cls-4{fill:#1cb594;}</style></defs><g id="레이어_2" data-name="레이어 2"><g id="레이어_1-2" data-name="레이어 1"><path class="cls-1" d="M32.49,2.64Q29-.61,26.07,2.13a6.55,6.55,0,0,0-1,1.13,24,24,0,0,0-3.61,11.56c0,.23,0,.46-.08.69l0,.13a4.93,4.93,0,0,0,0,.55,5,5,0,0,0-.05.64c0,.5,0,1,0,1.5.51.15,1,.29,1.54.42L24,19l.48.11h.1a25.46,25.46,0,0,0,9-.11h.1l.22-.07c.93-.18,1.87-.42,2.81-.7a21,21,0,0,0,.18-2.16l0-.23v-.25a22.93,22.93,0,0,0-.64-6.07,14.72,14.72,0,0,0-3.69-6.86"/><path class="cls-2" d="M21.41,17.07a.87.87,0,0,1-.87-.88c0-.16,0-.33,0-.49a1,1,0,0,1,0-.3c0-.21.05-.42.07-.63a25.13,25.13,0,0,1,3.75-12,7.76,7.76,0,0,1,1.11-1.3c1.59-1.5,4.21-2.63,7.6.51A15.6,15.6,0,0,1,37,9.31a23.31,23.31,0,0,1,.67,6.29v.23l0,.21a.88.88,0,0,1-.87.88.86.86,0,0,1-.87-.86,2.85,2.85,0,0,1,0-.31v-.17a22.09,22.09,0,0,0-.62-5.86,13.86,13.86,0,0,0-3.46-6.47c-2.55-2.36-4.12-1.5-5.2-.48a6.28,6.28,0,0,0-.86,1A23.38,23.38,0,0,0,22.36,14.9l-.06.58v.25a3.54,3.54,0,0,0,0,.46.87.87,0,0,1-.88.88m-.78-1.16Z"/><path class="cls-1" d="M85.59,45.79A31.33,31.33,0,0,0,84,35.92a37.57,37.57,0,0,0-2.74-6.21c-.27-.47-.53-.94-.8-1.4l-.69-1.11-.55-.77a3.84,3.84,0,0,0-.45-.66,5.15,5.15,0,0,1-.42-.61c-.25-.34-.51-.67-.77-1A38.77,38.77,0,0,0,56.74,10.53,66.87,66.87,0,0,0,48.18,9c-.68-.09-1.35-.15-2-.19-1.49-.1-3-.13-4.43-.1l-.25,0a.61.61,0,0,0-.27,0H41a47.66,47.66,0,0,0-17.2,4.17Q12.05,18.38,8.32,30c-.05.12-.09.24-.13.37-.23.71-.44,1.45-.62,2.22a2.57,2.57,0,0,0-.07.4l0,.1a42.89,42.89,0,0,0-1,10,24.91,24.91,0,0,1-.65,6.7,26.67,26.67,0,0,0-1.1,8.63c0,.65.1,1.28.2,1.9a1.32,1.32,0,0,0,.05.32A6.81,6.81,0,0,0,5.28,62a15.9,15.9,0,0,0,1.27,3.32c.22.39.45.77.7,1.15l.15.23a17.42,17.42,0,0,0,4.95,5,27.1,27.1,0,0,0,2.29,1.45c.7.4,1.43.8,2.19,1.19a51,51,0,0,0,18.4,5.16l1.34.15a67.1,67.1,0,0,0,8.14.36l.78-.05c1.19,0,2.39-.11,3.61-.2,1.71-.16,3.35-.35,4.93-.58a5.3,5.3,0,0,1,.62-.11,50.08,50.08,0,0,0,9.46-2.52l.17-.07A38.69,38.69,0,0,0,71.13,73c.35-.24.7-.48,1-.74a31.77,31.77,0,0,0,7.75-8,35.35,35.35,0,0,0,4-8.21,34.11,34.11,0,0,0,1.67-10.25"/><path class="cls-2" d="M43.67,80.9a66.33,66.33,0,0,1-7.19-.38l-1.35-.14a52.21,52.21,0,0,1-18.69-5.25c-.77-.4-1.52-.81-2.23-1.22a24.23,24.23,0,0,1-2.36-1.49,18.48,18.48,0,0,1-5.14-5.14,1.26,1.26,0,0,1-.24-.36c-.24-.37-.47-.75-.68-1.13a16.94,16.94,0,0,1-1.34-3.5,7.48,7.48,0,0,1-.33-1.49,3,3,0,0,1-.06-.4c-.09-.63-.16-1.28-.2-1.94A27.52,27.52,0,0,1,5,49.56a24.28,24.28,0,0,0,.62-6.45A43.73,43.73,0,0,1,6.61,33l0-.18a2.7,2.7,0,0,1,.08-.39c.18-.78.39-1.54.63-2.25a4.34,4.34,0,0,1,.14-.43c2.56-7.94,7.91-13.86,15.91-17.6A48.65,48.65,0,0,1,40.94,7.88h.14a1.45,1.45,0,0,1,.36,0l.31,0c1.48,0,3,0,4.49.1.66,0,1.35.1,2,.19A66.65,66.65,0,0,1,57,9.7,39.75,39.75,0,0,1,78.21,23.63c.27.32.53.67.79,1l0,.08a4.59,4.59,0,0,0,.35.5,6.39,6.39,0,0,1,.5.74l.53.73,0,.05.69,1.11c.29.49.55,1,.82,1.43a38.29,38.29,0,0,1,2.81,6.37,32.4,32.4,0,0,1,1.68,10.13,35.16,35.16,0,0,1-1.71,10.52,36.26,36.26,0,0,1-4.11,8.43,32.69,32.69,0,0,1-8,8.21c-.35.25-.7.51-1.06.75a40.31,40.31,0,0,1-7,3.6l-.07,0-.06,0,0,0a52,52,0,0,1-9.62,2.57,6,6,0,0,0-.59.1h-.06c-1.59.23-3.26.43-5,.59-1.23.09-2.46.16-3.66.21-.25,0-.49,0-.72,0H43.67M8,66.16l.09.11A16.84,16.84,0,0,0,12.85,71a25.44,25.44,0,0,0,2.22,1.4c.69.4,1.42.79,2.16,1.17a50.45,50.45,0,0,0,18.08,5.07l1.36.15a64.64,64.64,0,0,0,8,.36l.79-.05c1.18,0,2.38-.11,3.57-.2,1.66-.15,3.29-.35,4.84-.57.22,0,.44-.08.67-.11a50,50,0,0,0,9.23-2.47l.22-.08a38.61,38.61,0,0,0,6.66-3.42c.33-.22.67-.46,1-.71a30.89,30.89,0,0,0,7.53-7.77,35,35,0,0,0,3.91-8,33.79,33.79,0,0,0,1.62-10,30.75,30.75,0,0,0-1.6-9.58,35.5,35.5,0,0,0-2.67-6.07l-.79-1.38L79,27.69,78.46,27l0-.08a3,3,0,0,0-.37-.54,6.43,6.43,0,0,1-.47-.68q-.34-.48-.72-.93A38.09,38.09,0,0,0,56.52,11.38a68.4,68.4,0,0,0-8.45-1.53c-.66-.08-1.31-.14-1.94-.18-1.46-.1-2.93-.13-4.36-.1h0a.82.82,0,0,1-.44,0,1.67,1.67,0,0,1-.34,0,47.08,47.08,0,0,0-16.86,4.09c-7.53,3.53-12.58,9.11-15,16.59l0,.08L9,30.61l0,.06c-.22.68-.42,1.4-.6,2.15a2,2,0,0,0-.06.3l0,.16v0a42.32,42.32,0,0,0-1,9.77A25.36,25.36,0,0,1,6.67,50v0A25.72,25.72,0,0,0,5.6,58.37c0,.62.1,1.22.19,1.81l0,.14v.08l0,.15a5.52,5.52,0,0,0,.26,1.22l0,.06A15,15,0,0,0,7.33,65c.19.35.41.71.64,1.06Zm.05.14h0ZM5.83,49.79h0Z"/><path class="cls-1" d="M73.14,15.2a14.17,14.17,0,0,0-.47-7.7Q70.82,3.11,67,4.32a6,6,0,0,0-1.37.58,24,24,0,0,0-8.27,8.76c-.1.2-.21.39-.32.59l0,.1-.28.49c-.09.19-.19.39-.29.58-.23.43-.44.86-.65,1.3.4.35.8.69,1.22,1l.89.68.4.26.1.08a26.59,26.59,0,0,0,8.27,3.73l.1,0,.2.06q1.41.34,2.91.57c.39-.62.75-1.24,1.07-1.86l.1-.2.1-.19a22.25,22.25,0,0,0,2-5.69"/><path class="cls-2" d="M70.94,22.16a.92.92,0,0,1-.39-.09.88.88,0,0,1-.39-1.17l.2-.39A21.42,21.42,0,0,0,72.29,15a13.37,13.37,0,0,0-.44-7.24c-1.34-3.2-3.16-3.1-4.59-2.64a5.6,5.6,0,0,0-1.21.51,23.09,23.09,0,0,0-7.92,8.44l-.32.55-.06.11-.25.47A.87.87,0,0,1,56,14.45c.09-.18.18-.35.28-.52l0,0,0-.05.34-.6a24.9,24.9,0,0,1,8.56-9.07,6.66,6.66,0,0,1,1.58-.67c2.07-.66,4.94-.56,6.72,3.68A15.09,15.09,0,0,1,74,15.38a23.83,23.83,0,0,1-2.08,5.91l-.2.39a.88.88,0,0,1-.78.48"/><path class="cls-3" d="M85.59,45.72A31.68,31.68,0,0,0,84.32,37c-.11-.38-.24-.76-.37-1.13-.32-.92-.66-1.85-1-2.77a37.38,37.38,0,0,0-15.23,9.15c-2.06,2.08-3.25,3.91-3.56,5.51a13.38,13.38,0,0,0,.22,5.61c.17.6.35,1.19.55,1.76a49.08,49.08,0,0,0,6.65,12.82c.44.64,1.23,1.61,2.36,2.91a32.21,32.21,0,0,0,6-6.67,35.16,35.16,0,0,0,4-8.21,34.06,34.06,0,0,0,1.67-10.25"/><path class="cls-3" d="M73.89,71.49a.62.62,0,0,1-.47-.21c-1.15-1.33-1.94-2.3-2.4-3a49.77,49.77,0,0,1-6.73-13c-.2-.58-.39-1.18-.56-1.79v0a14,14,0,0,1-.22-5.86c.34-1.74,1.56-3.65,3.73-5.83h0a38,38,0,0,1,15.48-9.31.64.64,0,0,1,.79.41.63.63,0,0,1-.41.78,36.91,36.91,0,0,0-15,9c-2,2-3.1,3.72-3.39,5.19h0a12.77,12.77,0,0,0,.22,5.34c.16.58.34,1.16.53,1.7h0A48.38,48.38,0,0,0,72,67.59h0a36.76,36.76,0,0,0,2.32,2.86.62.62,0,0,1-.06.88.63.63,0,0,1-.41.15"/><path class="cls-2" d="M73.89,71.74a.87.87,0,0,1-.56-1.54,31.57,31.57,0,0,0,5.87-6.49,35.17,35.17,0,0,0,3.9-8,33.79,33.79,0,0,0,1.62-10,31.44,31.44,0,0,0-1.23-8.48q-.17-.54-.36-1.08c-.31-.9-.65-1.81-1-2.71a3.76,3.76,0,0,1-.2-.46.87.87,0,0,1,.52-1.12.88.88,0,0,1,1.12.52,2.84,2.84,0,0,0,.14.32l0,.05c.39.94.74,1.89,1.06,2.83.14.37.27.76.39,1.16a32.65,32.65,0,0,1,1.3,9,35.16,35.16,0,0,1-1.71,10.52,36.26,36.26,0,0,1-4.11,8.43,33.45,33.45,0,0,1-6.19,6.86.84.84,0,0,1-.56.2"/><path d="M24.77,50.74a8.46,8.46,0,0,0,.93-4.13,8.93,8.93,0,0,0-.93-4.21c-.61-1.17-1.36-1.77-2.24-1.79s-1.62.51-2.24,1.64a8.46,8.46,0,0,0-.94,4.15,8.7,8.7,0,0,0,.94,4.19c.62,1.2,1.36,1.81,2.24,1.84s1.63-.54,2.24-1.69"/><path class="cls-3" d="M18.85,27.85a1.61,1.61,0,0,0-1.27.14,1.71,1.71,0,0,0-.85,1.06,1.65,1.65,0,0,0,.15,1.3,2,2,0,0,0,.85.85l.12,0,6.45,2.08.05,0a1.84,1.84,0,0,0,2.17-1.2,1.79,1.79,0,0,0-.15-1.35,1.65,1.65,0,0,0-1-.85l-6.55-2.09"/><path class="cls-2" d="M24.82,34.05a2.17,2.17,0,0,1-.66-.11l-.1,0-6.33-2a.7.7,0,0,1-.29-.09,2.68,2.68,0,0,1-1.1-1.09,2.37,2.37,0,0,1,.94-3.22A2.2,2.2,0,0,1,19,27.27l6.57,2.08a2.29,2.29,0,0,1,1.33,1.17,2.36,2.36,0,0,1,.19,1.81A2,2,0,0,1,26,33.72a2.2,2.2,0,0,1-1.14.33m-.54-.11Zm-.38-.16h0Zm.71-1a.93.93,0,0,0,.73-.14l.09,0a.84.84,0,0,0,.49-.6,1.18,1.18,0,0,0-.11-.91,1,1,0,0,0-.61-.54l-6.54-2.08a1,1,0,0,0-.78.08,1.09,1.09,0,0,0-.55.69,1,1,0,0,0,.1.83,1.4,1.4,0,0,0,.53.57l.09,0,6.41,2.07ZM18,30.65h0Z"/><path d="M43.52,49.07a8.66,8.66,0,0,0,.95,4.18c.61,1.2,1.36,1.82,2.24,1.85s1.62-.54,2.24-1.7a8.31,8.31,0,0,0,.94-4.12A8.85,8.85,0,0,0,49,45.06c-.62-1.16-1.36-1.76-2.24-1.79s-1.63.52-2.24,1.64a8.53,8.53,0,0,0-.95,4.16"/><path class="cls-3" d="M52.36,35.33l.12,0a1.73,1.73,0,0,0,1-.59,1.63,1.63,0,0,0,.35-1.26,1.82,1.82,0,0,0-.57-1.23A1.84,1.84,0,0,0,52,31.76l-6.77.33a1.58,1.58,0,0,0-1.09.58A1.74,1.74,0,0,0,43.74,34a1.58,1.58,0,0,0,.63,1.21,1.53,1.53,0,0,0,1.24.49h.08l6.67-.35"/><path class="cls-2" d="M45.51,36.32A2.17,2.17,0,0,1,44,35.67,2.22,2.22,0,0,1,43.12,34a2.33,2.33,0,0,1,.57-1.74,2.21,2.21,0,0,1,1.5-.81L52,31.15h0a2.39,2.39,0,0,1,2.46,2.28A2.23,2.23,0,0,1,54,35.12a2.33,2.33,0,0,1-1.34.8.86.86,0,0,1-.28,0l-6.65.35h-.21M52,32.39h0l-6.75.33a.94.94,0,0,0-.64.36,1.08,1.08,0,0,0-.29.84,1,1,0,0,0,.39.79l0,0a1,1,0,0,0,.77.31h.11l6.64-.35h0a1.08,1.08,0,0,0,.66-.39,1,1,0,0,0,.2-.78A1.16,1.16,0,0,0,52,32.39Zm.18,2.37Zm.16,0Z"/><path d="M34.73,65.7h-.31a7.41,7.41,0,0,1-4.19-1.37,4.29,4.29,0,0,1-1.69-2.27.63.63,0,0,1,.44-.77.62.62,0,0,1,.76.44A3.09,3.09,0,0,0,31,63.33a6.07,6.07,0,0,0,3.49,1.12,5.7,5.7,0,0,0,3.46-.88,2.72,2.72,0,0,0,1.22-1.5.62.62,0,1,1,1.2.34,3.93,3.93,0,0,1-1.73,2.19,6.78,6.78,0,0,1-3.88,1.1"/><path class="cls-3" d="M6.78,37.09A46.23,46.23,0,0,0,6.48,43a24.31,24.31,0,0,1-.65,6.7,33,33,0,0,0-.77,3.46q2.31-2.86,3.78-4.88a5.3,5.3,0,0,0,.72-5.1,43.34,43.34,0,0,0-2.78-6"/><path class="cls-3" d="M5.06,53.74a.62.62,0,0,1-.39-.14.63.63,0,0,1-.1-.88c1.53-1.89,2.8-3.52,3.77-4.84A4.72,4.72,0,0,0,9,43.34a43.07,43.07,0,0,0-2.75-6,.62.62,0,0,1,.26-.84.63.63,0,0,1,.84.26A45.91,45.91,0,0,1,10.17,43a6,6,0,0,1-.83,5.67c-1,1.34-2.26,3-3.8,4.89a.62.62,0,0,1-.48.23"/><path class="cls-2" d="M5.06,54H4.92a.87.87,0,0,1-.72-1A34.59,34.59,0,0,1,5,49.43,24,24,0,0,0,5.61,43a48.3,48.3,0,0,1,.3-6,.87.87,0,1,1,1.73.2A46.72,46.72,0,0,0,7.35,43a25.28,25.28,0,0,1-.68,6.92,34.1,34.1,0,0,0-.75,3.38.88.88,0,0,1-.86.73"/><path class="cls-4" d="M35.7,48.92a1,1,0,0,1-.3-.05,6.88,6.88,0,0,0-3.89-.32,1,1,0,0,1-1.22-.69A1,1,0,0,1,31,46.63,8.76,8.76,0,0,1,36,47a1,1,0,0,1,.64,1.25,1,1,0,0,1-.95.69"/><path class="cls-4" d="M16.78,61.53a16.05,16.05,0,0,1-2.06-.13A16.22,16.22,0,0,1,3.8,55.45,16,16,0,0,1,.06,43.65,15.41,15.41,0,0,1,17.42,29.53a16.11,16.11,0,0,1,10.86,5.95A15.87,15.87,0,0,1,32,47.28,14.89,14.89,0,0,1,26.37,58a14.73,14.73,0,0,1-9.59,3.5M15.31,31.39a12.9,12.9,0,0,0-8.38,3A13.06,13.06,0,0,0,2,43.82,14,14,0,0,0,5.33,54.18,14.11,14.11,0,0,0,15,59.42a12.75,12.75,0,0,0,10.15-2.94,12.82,12.82,0,0,0,4.95-9.37h0a13.81,13.81,0,0,0-3.31-10.36,14,14,0,0,0-9.56-5.25A17.36,17.36,0,0,0,15.31,31.39Z"/><path class="cls-1" d="M16.66,59.67a13.8,13.8,0,0,1-1.8-.11,14.39,14.39,0,0,1-9.69-5.3A14.23,14.23,0,0,1,1.85,43.79a13.36,13.36,0,0,1,5-9.53,13.39,13.39,0,0,1,10.43-3,14.36,14.36,0,0,1,9.64,5.28A14.08,14.08,0,0,1,30.22,47a13.12,13.12,0,0,1-5,9.54,13.16,13.16,0,0,1-8.55,3.1m-1.28-27.5A12.64,12.64,0,0,0,2.84,43.87a13.25,13.25,0,0,0,3.1,9.75,13.41,13.41,0,0,0,9,5,12.3,12.3,0,0,0,9.6-2.77A12.19,12.19,0,0,0,29.23,47h0a13.07,13.07,0,0,0-3.12-9.74,13.38,13.38,0,0,0-9-4.93A14.78,14.78,0,0,0,15.38,32.17Z"/><path class="cls-4" d="M52,65.5a19.64,19.64,0,0,1-2-.11A16.64,16.64,0,0,1,35.38,47.64,15.47,15.47,0,0,1,52.72,33.48a16.11,16.11,0,0,1,10.86,6,15.81,15.81,0,0,1,3.76,11.79A15.48,15.48,0,0,1,52,65.5M50.66,35.35a12.84,12.84,0,0,0-8.4,3.06,13,13,0,0,0-4.89,9.39,13.88,13.88,0,0,0,3.29,10.36,14,14,0,0,0,9.6,5.25A13.52,13.52,0,0,0,65.36,51.1h0a13.75,13.75,0,0,0-3.31-10.36,14.07,14.07,0,0,0-9.56-5.27A16.33,16.33,0,0,0,50.66,35.35Z"/><path class="cls-1" d="M52,63.73a15.84,15.84,0,0,1-1.81-.11,14.4,14.4,0,0,1-9.69-5.31,14.22,14.22,0,0,1-3.32-10.46,13.64,13.64,0,0,1,15.39-12.5,14.36,14.36,0,0,1,9.64,5.28,14.12,14.12,0,0,1,3.35,10.46A13.77,13.77,0,0,1,52,63.73m-1.29-27.5a12.64,12.64,0,0,0-12.54,11.7,13.25,13.25,0,0,0,3.1,9.75,13.41,13.41,0,0,0,9,5A12.76,12.76,0,0,0,64.53,51h0a13.11,13.11,0,0,0-3.12-9.75,13.34,13.34,0,0,0-9-4.92A12.91,12.91,0,0,0,50.68,36.23Z"/></g></g></svg>