<svg xmlns="http://www.w3.org/2000/svg" viewBox="0 0 240 267.37"><defs><style>.cls-1{fill:#edb892;}.cls-2{fill:#83e8d3;}.cls-3{fill:#47d7ac;}.cls-4{fill:#fce7c2;}.cls-5{fill:#fff0db;}.cls-6{fill:#fbd7ba;}.cls-7{fill:#76c6ff;}.cls-8{fill:#daf8ec;}.cls-9{fill:#5cb7f0;}.cls-10{fill:#ff88a1;}.cls-11{fill:#b4e0ff;}.cls-12{fill:#ffe090;}.cls-13{fill:#ffb9b8;}.cls-14{fill:#c6cde5;}.cls-15{fill:#fff;}.cls-16{fill:#d7dbf0;}.cls-17{fill:#595959;}.cls-18{fill:#a2bcd3;}.cls-19{fill:#92abfc;}.cls-20{fill:#5adff7;}.cls-21{fill:#00d0af;}.cls-22{fill:#dcefff;}.cls-23{fill:#ededed;}.cls-24{fill:#7fe8d2;}.cls-25{fill:#333;}.cls-26{fill:#1cb594;}.cls-27{fill:#fff9ef;}.cls-28{fill:#4c4c4c;}.cls-29{fill:#4358be;}.cls-30{fill:#6474e1;}.cls-31{fill:#ffbd43;}</style></defs><g id="레이어_2" data-name="레이어 2"><g id="레이어_1-2" data-name="레이어 1"><path class="cls-1" d="M219.54,133.06q1.28-8-5-9.91l-26-9.05v59.36l16.67.45q10.36-21.93,14.27-40.85"/><polyline class="cls-2" points="131.08 131.26 131.08 145.19 147.15 151.38 161.11 116.39 149.55 115.34 131.08 131.26"/><path class="cls-3" d="M131.08,132.57a1.31,1.31,0,0,1-.86-2.31l18.47-15.92a1.33,1.33,0,0,1,1-.31l11.56,1a1.32,1.32,0,0,1-.24,2.62l-11-1-18.06,15.55a1.25,1.25,0,0,1-.85.32"/><path class="cls-2" d="M197.46,103.17h-40.4l-19.53,53.77,49.27,21.18,15.31-5.86a458.8,458.8,0,0,0-4.65-69.09"/><path class="cls-3" d="M203.17,152.53c-.06-1.61-.12-3.21-.2-4.83q-.66-14.47-2.25-29-.42-4-.92-8c-.33-2.58-.67-5.15-1-7.73a1.31,1.31,0,0,0-1.3-1.12H157.05a1.31,1.31,0,0,0-1.22.87L136.3,156.49a1.32,1.32,0,0,0,.72,1.66l49.26,21.17a1.16,1.16,0,0,0,.52.11,1.27,1.27,0,0,0,.47-.09l15.31-5.85a1.35,1.35,0,0,0,.85-1.22Q203.52,162.45,203.17,152.53ZM186.82,176.7l-47.63-20.48L158,104.49h38.33c.19,1.34.37,2.69.56,4,.12,1,.26,2,.38,3,1.68,13.4,2.77,26.84,3.26,40.21,0,1.3.09,2.6.12,3.89q.24,7.9.18,15.73Z"/><polyline class="cls-1" points="32.82 158.29 17.87 152.7 0 211.57 4.02 213.11 32.82 158.29"/><polyline class="cls-1" points="146.32 266.88 150.6 267.37 164.27 206.95 148.35 205.41 146.32 266.88"/><polyline class="cls-1" points="225.96 235.9 230.09 234.74 221.15 181.87 206.7 186.83 225.96 235.9"/><polyline class="cls-4" points="79.68 122.6 10.45 148.92 156.39 202.58 225.55 176.3 79.68 122.6"/><polyline class="cls-5" points="10.74 148.64 10.74 159.98 156.68 213.6 156.68 202.3 10.74 148.64"/><polyline class="cls-6" points="225.84 187.43 225.84 176.01 156.68 202.3 156.68 213.6 156.83 213.68 225.84 187.43"/><path class="cls-2" d="M123.27,130.66q-6.57-1.41-9.84-.34a6.56,6.56,0,0,0-4.06,4q-2.18,5.3,1.36,8.52,4,3.35,15.47,5.9l4.58-16.11-7.51-2"/><path class="cls-3" d="M126.2,150a1.43,1.43,0,0,1-.29,0c-8-1.77-13.19-3.79-16-6.17-2-1.79-3.81-5-1.72-10a7.75,7.75,0,0,1,4.84-4.7c2.44-.82,5.88-.72,10.54.27l7.57,2A1.31,1.31,0,0,1,132,133l-4.58,16.11a1.31,1.31,0,0,1-1.26.95m-9.29-18.86a9.68,9.68,0,0,0-3.07.42,5.2,5.2,0,0,0-3.24,3.19c-1.26,3.05-.93,5.29,1,7.07,2.3,1.93,6.9,3.73,13.66,5.31l3.87-13.62-6.2-1.61A29.87,29.87,0,0,0,116.91,131.17Z"/><path class="cls-7" d="M139.3,130.81c-1.83.57-3.64,0-5.45-1.65q-5.21-10.71-21.55-7.06l5.33,29.66q14.5-2.07,21.48,8.15a2.52,2.52,0,0,0,2.44,1,2.79,2.79,0,0,0,2.52-1.58q12.12-4.58,23.8,2.48l-4.13-28.76q-10.47-8.52-24.44-2.25"/><path class="cls-8" d="M139.11,126.94q-7.55-12.84-22.08-8.15l-4.73,3.31q16.33-3.64,21.55,7.06c1.81,1.67,3.62,2.22,5.45,1.65q14-6.27,24.44,2.25l4.13,28.76,4.06-2.93-3.91-29q-11.82-9.73-28.91-3"/><path class="cls-9" d="M167.87,162.76a.94.94,0,0,1-.93-.8l-4.07-28.4c-6.68-5.28-14.27-5.9-23.19-1.9l-.1,0a5.56,5.56,0,0,1-4.41-.44L140,159.75a1,1,0,0,1-.77,1.08.93.93,0,0,1-1.08-.77L133,129.45c-3.31-6.66-10-8.77-20.44-6.44a.94.94,0,0,1-.41-1.83c11.23-2.5,18.81,0,22.52,7.4,1.49,1.34,2.91,1.78,4.35,1.35,9.59-4.29,18.13-3.48,25.36,2.4a.9.9,0,0,1,.34.6l4.13,28.76a.93.93,0,0,1-.79,1.06h-.14m-23.8-2.48a.94.94,0,0,1-.93-.78l-3.42-20.62a.94.94,0,1,1,1.86-.3L145,159.19a.94.94,0,0,1-.77,1.08Z"/><polyline class="cls-10" points="45.84 139.07 26.81 146.39 50.88 155.89 68.82 148.16 45.84 139.07"/><path class="cls-11" d="M50.43,151.27a1.31,1.31,0,0,1-1.21-.8,1.3,1.3,0,0,1,.69-1.72l5-2.14A1.32,1.32,0,1,1,56,149l-5,2.14a1.32,1.32,0,0,1-.51.1"/><path class="cls-10" d="M42.56,144.79a1.32,1.32,0,0,1-1.25-.9l-9.85-30a1.3,1.3,0,0,1,0-.87L42.29,84.26a1.31,1.31,0,1,1,2.46.92L34.1,113.51l9.71,29.56a1.31,1.31,0,0,1-.84,1.66,1.45,1.45,0,0,1-.41.06"/><path class="cls-10" d="M63.34,85.34a10.37,10.37,0,0,0-2.7.37,14.19,14.19,0,0,0-2.89,1.09l.79.57a7.51,7.51,0,0,1,2.7,5.14,6.73,6.73,0,0,1-1.69,5.22,6.8,6.8,0,0,1-5,2.33,7.42,7.42,0,0,1-5.49-2l-.71-.63a15.09,15.09,0,0,0-.6,3,10.61,10.61,0,0,0,0,2.63,6.8,6.8,0,0,0,1,3.19,4.87,4.87,0,0,0,1.16,1.43l.34.37c2,1.73,4.64,2.2,7.92,1.39A18.28,18.28,0,0,0,71.08,94.76q.53-5-2.48-7.62l-.38-.3a6.58,6.58,0,0,0-1.65-.94,7.17,7.17,0,0,0-3.23-.56"/><path class="cls-12" d="M52,91.23a24.57,24.57,0,0,0-2.25,3.2,16.84,16.84,0,0,0-1.39,3l.71.63a7.42,7.42,0,0,0,5.49,2,6.8,6.8,0,0,0,5-2.33,6.73,6.73,0,0,0,1.69-5.22,7.51,7.51,0,0,0-2.7-5.14l-.79-.57a13.16,13.16,0,0,0-2.86,1.81A16.8,16.8,0,0,0,52,91.23"/><path class="cls-13" d="M51.37,82.07a17.12,17.12,0,0,0-5.22,4.1,15.38,15.38,0,0,0-3.27,5.63,10.19,10.19,0,0,0-.56,2.63,3.51,3.51,0,0,0-.15,1,6.66,6.66,0,0,0,1.35,4.24l5.22,6.53a6.8,6.8,0,0,1-1-3.19,10.61,10.61,0,0,1,0-2.63,15.09,15.09,0,0,1,.6-3,16.84,16.84,0,0,1,1.39-3A24.57,24.57,0,0,1,52,91.23a16.8,16.8,0,0,1,2.89-2.62,13.16,13.16,0,0,1,2.86-1.81,14.19,14.19,0,0,1,2.89-1.09,10.37,10.37,0,0,1,2.7-.37,7.17,7.17,0,0,1,3.23.56l-7.21-4.2A6.27,6.27,0,0,0,55,81a5.76,5.76,0,0,0-1.13.26,11.6,11.6,0,0,0-2.51.86m-4.32-1.54a1,1,0,0,0-.53.08,8.46,8.46,0,0,0-3.9,2.48,8,8,0,0,0-1.88,4.16c0,.2-.05.38-.08.53a2.94,2.94,0,0,0,.68,2.1l1.54,1.92a15.38,15.38,0,0,1,3.27-5.63,17.12,17.12,0,0,1,5.22-4.1L49.26,81A3,3,0,0,0,47.05,80.53Z"/><path class="cls-14" d="M152,168.09,120.3,156.23l-1.51-8.45a4.58,4.58,0,0,0-2.89-3.46L63,124.81c-2.67-1.19-3.73-.31-3.19,2.66l5.94,34.46a5.11,5.11,0,0,0,3.15,3.42l52.26,19.11a7.37,7.37,0,0,0,6.31-.45L152,172.11Q156.46,169.89,152,168.09Zm-8.23,2.53-6.12,2.74-6.26,2.81h0l-6.86,3.11-.19.06-.46-2.65-.67-3.81-.49-2.82-.49-2.83-.5-2.93-.34-2-.5-2.87a1.26,1.26,0,0,1,.57.08l13.81,5.36,8.44,3.27a1.32,1.32,0,0,1,.07,2.43Z"/><path class="cls-14" d="M144.53,169.38a1.31,1.31,0,0,1-.77,1.24l-6.12,2.74-6.26,2.81h0l-6.86,3.11-.19.06-.46-2.65-.67-3.81-.49-2.82-.49-2.83-.5-2.93-.34-2-.5-2.87a1.26,1.26,0,0,1,.57.08l13.81,5.36,8.44,3.27A1.3,1.3,0,0,1,144.53,169.38Z"/><path class="cls-15" d="M94.21,157.43a5.77,5.77,0,0,0-.36-1.86,6.88,6.88,0,0,0-1-1.79,6.66,6.66,0,0,0-3.16-2.48,3.31,3.31,0,0,0-3.13.17,2.56,2.56,0,0,0-1,1.1,3.57,3.57,0,0,0-.34,1.61v.26l2.42.88v-.25a1.39,1.39,0,0,1,.59-1.24,1.55,1.55,0,0,1,1.43-.07,3.09,3.09,0,0,1,1.44,1.12,2.78,2.78,0,0,1,.62,1.69v.24l2.41.89v-.27"/><path class="cls-16" d="M143.69,168.19l-8.44-3.27-13.81-5.36a1.26,1.26,0,0,0-.57-.08l.5,2.87,10,3.88L129,167.28l-6.68-2.87a1.34,1.34,0,0,0-.59-.1l.5,2.93,3.5,1.49-3,1.34.49,2.82,4.48,2.07-3.81,1.74.46,2.65.19-.06,6.86-3.11h0l6.26-2.81,6.12-2.74a1.32,1.32,0,0,0-.07-2.43Zm-12.85,5.35-4.64-2.15,2.8-1.25,4.83,2.06Zm6.25-2.82-4.79-2,2.51-1.1,5,1.92Z"/><path class="cls-17" d="M134,230.3l-30.9-6.91-28.95,21a2.64,2.64,0,0,1,1.62-.38h.15l.71.08,29.4,7.7,28-21.52"/><path class="cls-18" d="M136.37,229.84a2.79,2.79,0,0,0-3.3.11l-26.88,20.66-28-7.35-.12,0-.35,0-.59-.07a2.7,2.7,0,0,0-.37,0h-.07a5.4,5.4,0,0,0-3.17.79l-.11.07a8.13,8.13,0,0,0-.72.53l-.08.08a6.07,6.07,0,0,0-2,4,5.88,5.88,0,0,0,1.09,4.3,6.49,6.49,0,0,0,4.13,2.47l30.33,7.75a2.91,2.91,0,0,0,.64.07,2.85,2.85,0,0,0,1.75-.6l27.84-21.79a2.83,2.83,0,0,0,1-2.87l-.19-.85-2.44-1.26,2.69-2.11.09-.72s0,0,0,0A2.81,2.81,0,0,0,136.37,229.84Zm-60.05,19,.06-.05h.06l.47.05,29.19,7.63a2.85,2.85,0,0,0,1,.09l-.93.73-29-7.42a1.87,1.87,0,0,1-.84-.3.8.8,0,0,1,0-.4.66.66,0,0,1,.09-.33Z"/><path class="cls-8" d="M132.93,237.17a12.37,12.37,0,0,1,.19-6.38l-27.08,21-29.4-7.7-.71-.08h-.15a2.64,2.64,0,0,0-1.62.38,4.43,4.43,0,0,0-.45.34A3.36,3.36,0,0,0,72.62,247a3.18,3.18,0,0,0,.6,2.37,3.85,3.85,0,0,0,2.52,1.35L106,258.46l27.82-21.77"/><path class="cls-19" d="M134.54,229.52a.92.92,0,0,0-1.1,0l-27.61,21.22L76.88,243.2l-.14,0-.71-.07h-.17a3.56,3.56,0,0,0-2.22.52,5.68,5.68,0,0,0-.57.43,4.19,4.19,0,0,0-1.38,2.85,4.06,4.06,0,0,0,.75,3,4.78,4.78,0,0,0,3.06,1.73l30.26,7.74.24,0a1,1,0,0,0,.59-.19l27.81-21.78a1,1,0,0,0,.34-1l-2.1-1.09c0,.32.08.63.14.94l-27,21.12L75.93,249.8a3.07,3.07,0,0,1-2-1,2.24,2.24,0,0,1-.4-1.71,2.36,2.36,0,0,1,.74-1.6,2.82,2.82,0,0,1,.34-.26,1.71,1.71,0,0,1,.93-.25h.2l.69.06,29.33,7.68a.94.94,0,0,0,.81-.16l26-20,2.24-1.77a2,2,0,0,1,.06-.23A1,1,0,0,0,134.54,229.52Z"/><path class="cls-8" d="M133.86,228.27a12.25,12.25,0,0,1,.19-6.38l-28,21.48-29.4-7.66-.72-.08h-.15a2.46,2.46,0,0,0-1.57.38,2.85,2.85,0,0,0-.49.34,3.37,3.37,0,0,0-1.09,2.21,3.32,3.32,0,0,0,.6,2.41,3.85,3.85,0,0,0,2.52,1.35L106,250l27.82-21.74"/><path class="cls-20" d="M106.75,243.18l28.83-22.46-31.5-6.9L74.4,235.26c.3.13.64,0,1.22,0h0l-.82.2,32,7.7"/><path class="cls-21" d="M135.49,221a.93.93,0,0,0-1.11,0l-27.61,21.23L77.82,234.7l-.14,0-.71-.07H76.8a3.51,3.51,0,0,0-2.21.52,7.1,7.1,0,0,0-.58.43,4.28,4.28,0,0,0-1.38,2.85,4.05,4.05,0,0,0,.76,3,4.72,4.72,0,0,0,3.06,1.72l30.26,7.74.23,0a1,1,0,0,0,.59-.2l27.82-21.78a1,1,0,0,0,.34-1l-2.11-1.08c0,.31.09.62.14.93l-27,21.12L76.87,241.3a3.07,3.07,0,0,1-2-1,2.25,2.25,0,0,1-.41-1.71,2.37,2.37,0,0,1,.75-1.6,2.21,2.21,0,0,1,.34-.26,1.65,1.65,0,0,1,.92-.25h.2l.69.06,29.34,7.68a.91.91,0,0,0,.81-.16l26-20,2.25-1.76a2.1,2.1,0,0,1,.06-.24A1,1,0,0,0,135.49,221Z"/><path class="cls-7" d="M99.32,235.78l32.14-14.38-16.63-12.27a3.39,3.39,0,0,0-3.38-.37L80.92,222.38a1.84,1.84,0,0,1,1.8.38c.15.1.28.18.38.26l16.22,12.76"/><path class="cls-8" d="M130.74,227.52c-.93-1.57-1-3.61-.23-6.12L99.32,235.78,83.1,223c-.1-.08-.23-.16-.38-.26a1.84,1.84,0,0,0-1.8-.38l-.41.22a1.73,1.73,0,0,0-.94,1.47,7.38,7.38,0,0,0,.15,2.51,5.37,5.37,0,0,0,.71,1.85,2.72,2.72,0,0,0,.68.71l17.64,13.44,32.93-15.06"/><path class="cls-9" d="M132.58,227.25,130,225.12a7,7,0,0,0,.41,1.94L98.88,241.48l-17.2-13.09-.09-.06a2.24,2.24,0,0,1-.41-.48,4.33,4.33,0,0,1-.54-1.46,6.6,6.6,0,0,1-.13-2.21.79.79,0,0,1,.45-.75l.32-.17a1,1,0,0,1,.92.28l.32.22,16.21,12.77a1,1,0,0,0,1,.12L129,223.56l.09-.05,3.26-1.59a2.1,2.1,0,0,1,.06-.24.94.94,0,0,0-1.29-1.14L99.46,234.68l-15.8-12.42a3.9,3.9,0,0,0-.36-.25,2.8,2.8,0,0,0-2.67-.53.56.56,0,0,0-.16.07l-.39.21a2.6,2.6,0,0,0-1.44,2.18,8.31,8.31,0,0,0,.16,2.88,5.81,5.81,0,0,0,.87,2.16,3.89,3.89,0,0,0,.9.94l17.61,13.41a.94.94,0,0,0,.58.19,1.09,1.09,0,0,0,.39-.08l32.93-15.06a.92.92,0,0,0,.5-.57A.83.83,0,0,0,132.58,227.25Z"/><path class="cls-22" d="M80,16.29a24.64,24.64,0,0,0-18.1,7.47,24.74,24.74,0,0,0-7.47,18.1,24.6,24.6,0,0,0,7.47,18.06,25.52,25.52,0,0,0,36.16,0,24.55,24.55,0,0,0,7.5-18.06A24.69,24.69,0,0,0,98,23.76,24.64,24.64,0,0,0,80,16.29"/><path class="cls-11" d="M80,23.42a18.33,18.33,0,0,0-18.4,18.4A18.33,18.33,0,0,0,80,60.22a18.4,18.4,0,0,0,18.4-18.4,17.75,17.75,0,0,0-5.41-13,17.7,17.7,0,0,0-13-5.37"/><path class="cls-15" d="M79.49,43a1.43,1.43,0,0,1-.29,0L71.62,41.3a1.31,1.31,0,1,1,.57-2.56l7.24,1.61.08-.16.28-.49h0L85,30.79a1.31,1.31,0,0,1,2.26,1.34L81.79,41.5a1.33,1.33,0,0,1-1.07.66,1.31,1.31,0,0,1-1.23.86"/><path class="cls-23" d="M80.65,40.85l.26-.49a1.5,1.5,0,0,0-.93-.3,1.73,1.73,0,0,0-1.28.52,1.62,1.62,0,0,0-.49.83l1.28.3-1.28-.3a2.85,2.85,0,0,0,0,.41,1.7,1.7,0,0,0,.53,1.24,1.74,1.74,0,0,0,1.28.53,1.81,1.81,0,0,0,1.76-1.77,1.63,1.63,0,0,0-.53-1.24,1.17,1.17,0,0,0-.3-.22l-.26.49"/><path class="cls-2" d="M185.56,109.56V142.9a105.3,105.3,0,0,0-15.92,7.51,9.86,9.86,0,0,0-4.4,5.1,9.55,9.55,0,0,0-.48,3.91,2.31,2.31,0,0,1,0,.37q1,6,7.66,7.36a22.36,22.36,0,0,0,9.46-1.05q7.26-2.17,15.32-9.08,18.21-15.26.46-47.46H185.56"/><path class="cls-24" d="M196.53,110.19a1.32,1.32,0,0,1,.34-1.66,1.18,1.18,0,0,1,.18-.13,1.33,1.33,0,0,1,1.79.52c.33.61.65,1.2,1,1.79q.49,4,.92,8-1.47-3.46-3.47-7.19C197,111.08,196.78,110.63,196.53,110.19Z"/><path class="cls-15" d="M158.6,4q-5.29-4.9-9.69-.77A10.18,10.18,0,0,0,147.45,5Q142.83,12,142,22.4c0,.34-.06.69-.11,1l0,.19a7.69,7.69,0,0,0,0,.83,6.71,6.71,0,0,0-.07,1c0,.75,0,1.5,0,2.25.77.23,1.55.44,2.33.64.52.09,1.06.2,1.61.32l.71.17h.15a38.64,38.64,0,0,0,13.52-.16h.15l.34-.11c1.4-.28,2.81-.63,4.24-1.06a28.76,28.76,0,0,0,.26-3.26,1.66,1.66,0,0,1,0-.33v-.38a34.48,34.48,0,0,0-1-9.15A22.14,22.14,0,0,0,158.6,4"/><path class="cls-3" d="M141.89,25.74a1.31,1.31,0,0,1-1.31-1.31c0-.25,0-.5,0-.75a1.36,1.36,0,0,1,0-.45c0-.32.08-.64.1-1,.57-7.17,2.47-13.24,5.66-18.06a11.61,11.61,0,0,1,1.67-2c2.4-2.26,6.35-4,11.47.77a23.45,23.45,0,0,1,5.94,11,35.8,35.8,0,0,1,1,9.49v.35a1.75,1.75,0,0,1,0,.32,1.33,1.33,0,0,1-1.32,1.32,1.31,1.31,0,0,1-1.31-1.3,2.35,2.35,0,0,1,0-.47V23.5a33.73,33.73,0,0,0-.94-8.84,20.83,20.83,0,0,0-5.23-9.76c-3.84-3.56-6.21-2.26-7.84-.72a8.5,8.5,0,0,0-1.28,1.5c-2.93,4.43-4.69,10.08-5.22,16.79,0,.29-.05.58-.09.88a1.06,1.06,0,0,1,0,.25v.12a5.63,5.63,0,0,0,0,.71,1.31,1.31,0,0,1-1.31,1.31M140.71,24Z"/><path class="cls-15" d="M238.69,69.1a47.85,47.85,0,0,0-2.48-14.87,55.94,55.94,0,0,0-4.13-9.38q-.6-1.07-1.2-2.1c-.36-.56-.71-1.13-1.06-1.69L229,39.91a7,7,0,0,0-.68-1,8.09,8.09,0,0,1-.64-.92c-.37-.52-.76-1-1.16-1.51a58.48,58.48,0,0,0-31.35-20.55,99.52,99.52,0,0,0-12.92-2.34c-1-.14-2-.23-3-.29q-3.37-.23-6.68-.15a1,1,0,0,0-.38.07,1.16,1.16,0,0,0-.41,0,2.43,2.43,0,0,1-.38,0,71.72,71.72,0,0,0-25.94,6.28q-17.69,8.28-23.32,25.81a3.07,3.07,0,0,0-.19.56c-.35,1.06-.66,2.18-.94,3.35-.05.2-.08.39-.11.59l0,.15a64.87,64.87,0,0,0-1.5,15,37.39,37.39,0,0,1-1,10.1,39.94,39.94,0,0,0-1.66,13A26.54,26.54,0,0,0,117,91a1.85,1.85,0,0,0,.08.49,9.53,9.53,0,0,0,.45,2.12,24.6,24.6,0,0,0,1.91,5c.33.58.68,1.16,1.06,1.72a.75.75,0,0,0,.22.34,26.36,26.36,0,0,0,7.47,7.5,40.07,40.07,0,0,0,3.46,2.18q1.57.91,3.3,1.8A77.42,77.42,0,0,0,162.73,120l2,.22a100.58,100.58,0,0,0,12.27.55c.38,0,.77-.06,1.17-.07,1.8-.07,3.61-.17,5.44-.31q3.87-.36,7.44-.88a8.76,8.76,0,0,1,.94-.16,75.76,75.76,0,0,0,14.26-3.81,1.49,1.49,0,0,1,.26-.1,58.63,58.63,0,0,0,10.33-5.29c.53-.36,1-.73,1.58-1.12a47.53,47.53,0,0,0,11.67-12,53.34,53.34,0,0,0,6-12.38,52.21,52.21,0,0,0,2.52-15.46"/><path class="cls-3" d="M175.45,122a103,103,0,0,1-10.83-.57l-2-.22a78.71,78.71,0,0,1-28.19-7.92c-1.17-.6-2.31-1.22-3.37-1.83-1.25-.71-2.45-1.47-3.56-2.25a27.76,27.76,0,0,1-7.75-7.76,2,2,0,0,1-.36-.55c-.36-.55-.71-1.11-1-1.68a25.64,25.64,0,0,1-2-5.29,11.43,11.43,0,0,1-.49-2.25,3.33,3.33,0,0,1-.09-.61,27.21,27.21,0,0,1-.3-2.92,41.23,41.23,0,0,1,1.7-13.41,36.72,36.72,0,0,0,.93-9.73,66.92,66.92,0,0,1,1.51-15.29,1.1,1.1,0,0,1,.06-.26,5.79,5.79,0,0,1,.12-.6c.27-1.17.6-2.32,1-3.4a4.38,4.38,0,0,1,.22-.64c3.86-12,11.93-20.9,24-26.55a73.65,73.65,0,0,1,26.44-6.4h.22a2.42,2.42,0,0,1,.54,0,2.85,2.85,0,0,1,.51,0c2.15-.05,4.44,0,6.73.15,1,.06,2,.16,3.08.3a100.44,100.44,0,0,1,13.07,2.37,60,60,0,0,1,32.06,21c.4.5.8,1,1.19,1.55l.08.13a6.29,6.29,0,0,0,.52.74,8.87,8.87,0,0,1,.77,1.12l.78,1.1.05.07L232,42c.43.73.83,1.43,1.23,2.15a57.31,57.31,0,0,1,4.23,9.6A49,49,0,0,1,240,69.07a53.49,53.49,0,0,1-2.58,15.86,55,55,0,0,1-6.2,12.71,49.2,49.2,0,0,1-12,12.38c-.54.39-1.07.77-1.61,1.13A59.52,59.52,0,0,1,207,116.58l-.11,0-.08,0-.09,0a77.66,77.66,0,0,1-14.51,3.88c-.35,0-.62.09-.88.14l-.09,0c-2.39.35-4.91.65-7.51.89-1.86.14-3.71.25-5.51.31l-1.08.07h-1.72M121.73,99.79l.13.17a25.46,25.46,0,0,0,7.11,7.12,36.74,36.74,0,0,0,3.35,2.11c1,.61,2.13,1.2,3.26,1.78a76.23,76.23,0,0,0,27.27,7.64l2,.22a99.23,99.23,0,0,0,12.07.55c.39,0,.79-.06,1.2-.07,1.76-.07,3.57-.17,5.38-.31,2.51-.23,5-.52,7.3-.86.33-.07.67-.13,1-.17a75.33,75.33,0,0,0,13.92-3.72l.32-.13A57.52,57.52,0,0,0,216.15,109c.5-.34,1-.7,1.52-1.08A46.52,46.52,0,0,0,229,96.18a53.06,53.06,0,0,0,5.89-12.07,50.88,50.88,0,0,0,2.44-15A46.21,46.21,0,0,0,235,54.61a55.2,55.2,0,0,0-4-9.15c-.4-.7-.79-1.4-1.19-2.08l-1-1.62-.8-1.11-.08-.13a5.76,5.76,0,0,0-.55-.81,9.18,9.18,0,0,1-.72-1c-.35-.47-.71-.94-1.08-1.39a57.4,57.4,0,0,0-30.67-20.12,99.35,99.35,0,0,0-12.73-2.31c-1-.13-2-.22-2.93-.28-2.21-.14-4.42-.19-6.57-.14h0a1.37,1.37,0,0,1-.67,0,3.52,3.52,0,0,1-.51,0A70.83,70.83,0,0,0,146,20.68c-11.37,5.32-19,13.74-22.6,25l0,.12a2.06,2.06,0,0,0-.12.35l0,.09c-.34,1-.64,2.12-.91,3.24a4.64,4.64,0,0,0-.09.46l0,.23v.05A63.29,63.29,0,0,0,120.68,65a38.71,38.71,0,0,1-1,10.44v0A38.62,38.62,0,0,0,118.05,88a23.79,23.79,0,0,0,.28,2.73l0,.21a.53.53,0,0,0,0,.13l0,.23a8.15,8.15,0,0,0,.39,1.84l0,.08A23.14,23.14,0,0,0,120.64,98c.29.51.63,1.06,1,1.59Zm.07.22ZM118.39,75.1Z"/><path class="cls-15" d="M219.91,23a21.41,21.41,0,0,0-.71-11.63q-2.77-6.62-8.56-4.78a8.84,8.84,0,0,0-2.07.87q-7.19,4.26-12.46,13.22l-.49.88-.08.15-.41.74-.45.88c-.33.64-.66,1.29-1,2,.61.53,1.22,1,1.84,1.52.45.35.9.69,1.36,1,.19.14.4.27.6.4l.15.12A40.1,40.1,0,0,0,210.11,34l.15,0c.1,0,.2,0,.3.09,1.43.34,2.89.63,4.4.85.59-.92,1.12-1.86,1.61-2.8a1.59,1.59,0,0,0,.15-.29,2.1,2.1,0,0,0,.15-.3,33.31,33.31,0,0,0,3-8.57"/><path class="cls-3" d="M216.59,33.46a1.38,1.38,0,0,1-.59-.14,1.31,1.31,0,0,1-.59-1.76l.3-.59a32.55,32.55,0,0,0,2.91-8.25A20.18,20.18,0,0,0,218,11.8c-2-4.83-4.76-4.67-6.92-4a8.06,8.06,0,0,0-1.83.77c-4.55,2.69-8.58,7-12,12.73-.16.27-.32.55-.47.83l-.09.16c-.14.25-.26.48-.38.71A1.31,1.31,0,1,1,194,21.83q.2-.39.42-.78l0-.07,0-.08L195,20c3.6-6.14,7.95-10.75,12.91-13.69a10.7,10.7,0,0,1,2.39-1c3.11-1,7.44-.85,10.12,5.55a22.85,22.85,0,0,1,.79,12.39,35,35,0,0,1-3.14,8.91l-.3.58a1.3,1.3,0,0,1-1.17.73"/><path class="cls-2" d="M238.69,69a48.33,48.33,0,0,0-1.92-13.17c-.17-.58-.36-1.15-.56-1.71-.48-1.39-1-2.78-1.58-4.18a56.35,56.35,0,0,0-23,13.81q-4.65,4.7-5.37,8.31a20,20,0,0,0,.34,8.46c.25.91.53,1.79.83,2.65a73.59,73.59,0,0,0,10,19.33c.68,1,1.87,2.44,3.57,4.4a48.62,48.62,0,0,0,9.08-10.06,53.34,53.34,0,0,0,6-12.38A52.21,52.21,0,0,0,238.69,69"/><path class="cls-2" d="M221,107.87a.93.93,0,0,1-.71-.33c-1.74-2-2.92-3.46-3.63-4.47A75.09,75.09,0,0,1,206.56,83.5c-.31-.87-.59-1.78-.84-2.7v0a21.2,21.2,0,0,1-.34-8.85c.52-2.62,2.36-5.49,5.62-8.78h0a57.45,57.45,0,0,1,23.36-14,.94.94,0,1,1,.56,1.79,55.67,55.67,0,0,0-22.59,13.58c-3,3-4.68,5.61-5.12,7.83h0a19.27,19.27,0,0,0,.33,8c.24.87.51,1.74.8,2.57v0a73.1,73.1,0,0,0,9.9,19.08h0c.66.94,1.84,2.39,3.51,4.31a.94.94,0,0,1-.1,1.33.93.93,0,0,1-.61.23"/><path class="cls-3" d="M221,108.24a1.31,1.31,0,0,1-.84-2.32A48.24,48.24,0,0,0,229,96.13a52.86,52.86,0,0,0,5.89-12.07,50.88,50.88,0,0,0,2.44-15,47,47,0,0,0-1.86-12.8c-.17-.54-.35-1.09-.54-1.63-.47-1.37-1-2.74-1.54-4.08-.11-.24-.21-.47-.29-.7a1.31,1.31,0,0,1,.77-1.69,1.33,1.33,0,0,1,1.69.78c.06.16.13.32.21.49l0,.08c.58,1.41,1.12,2.84,1.6,4.25.2.56.4,1.15.58,1.76A49.93,49.93,0,0,1,240,69a53.49,53.49,0,0,1-2.58,15.86,55,55,0,0,1-6.2,12.71,50.36,50.36,0,0,1-9.34,10.35,1.31,1.31,0,0,1-.84.3"/><path class="cls-25" d="M147,76.6a12.77,12.77,0,0,0,1.39-6.22A13.6,13.6,0,0,0,147,64c-.93-1.75-2.05-2.65-3.38-2.7s-2.45.78-3.38,2.48a12.79,12.79,0,0,0-1.43,6.26,13.11,13.11,0,0,0,1.43,6.32c.93,1.81,2.05,2.73,3.38,2.78S146,78.35,147,76.6"/><path class="cls-2" d="M138,42.05a2.44,2.44,0,0,0-1.91.2,2.56,2.56,0,0,0-1.28,1.61,2.46,2.46,0,0,0,.23,2,3,3,0,0,0,1.27,1.28l.19,0,9.73,3.13.07,0a2.23,2.23,0,0,0,2-.27,2.19,2.19,0,0,0,1.28-1.53,2.68,2.68,0,0,0-.23-2,2.54,2.54,0,0,0-1.46-1.29L138,42.05"/><path class="cls-3" d="M147,51.35a3.17,3.17,0,0,1-1-.16l-.15-.07L136.33,48a1.2,1.2,0,0,1-.43-.13,4,4,0,0,1-1.67-1.66,3.41,3.41,0,0,1-.3-2.68,3.45,3.45,0,0,1,1.73-2.17,3.38,3.38,0,0,1,2.63-.28l9.89,3.15a3.44,3.44,0,0,1,2,1.76,3.6,3.6,0,0,1,.29,2.73,3.13,3.13,0,0,1-1.74,2.1,3.31,3.31,0,0,1-1.72.49m-.81-.15Zm-.57-.25Zm1.07-1.51a1.4,1.4,0,0,0,1.1-.21l.12-.07a1.24,1.24,0,0,0,.74-.91,1.71,1.71,0,0,0-.16-1.37,1.53,1.53,0,0,0-.93-.82l-9.85-3.14a1.48,1.48,0,0,0-1.18.13,1.57,1.57,0,0,0-.82,1,1.49,1.49,0,0,0,.14,1.25,2,2,0,0,0,.79.85l.14,0,9.67,3.12Zm-10-3.2h0Zm-.2-.06Z"/><path class="cls-25" d="M175.23,74.12a13.14,13.14,0,0,0,1.43,6.32c.92,1.8,2.05,2.73,3.38,2.77s2.45-.8,3.38-2.55a12.57,12.57,0,0,0,1.42-6.22,13.33,13.33,0,0,0-1.42-6.36Q182,65.44,180,65.38c-1.33,0-2.46.78-3.38,2.48a12.79,12.79,0,0,0-1.43,6.26"/><path class="cls-2" d="M188.56,53.33l.19,0a2.62,2.62,0,0,0,1.54-.89,2.53,2.53,0,0,0,.52-1.9A2.66,2.66,0,0,0,188.07,48l-10.21.48a2.43,2.43,0,0,0-1.65.89,2.56,2.56,0,0,0-.64,2,2.38,2.38,0,0,0,.94,1.83,2.35,2.35,0,0,0,1.88.74h.11l10.06-.53"/><path class="cls-3" d="M178.21,54.78a3.31,3.31,0,0,1-2.32-1,3.35,3.35,0,0,1-1.26-2.48,3.47,3.47,0,0,1,.85-2.62,3.32,3.32,0,0,1,2.27-1.22L188,47a3.6,3.6,0,0,1,3.72,3.44A3.43,3.43,0,0,1,191,53a3.52,3.52,0,0,1-2,1.21,1,1,0,0,1-.42.06l-10,.53h-.34m9.87-5.92h0l-10.17.48a1.47,1.47,0,0,0-1,.55,1.64,1.64,0,0,0-.43,1.27,1.51,1.51,0,0,0,.58,1.19l.09.08a1.41,1.41,0,0,0,1.15.46h.17l10-.53.09,0a1.7,1.7,0,0,0,1-.58,1.56,1.56,0,0,0,.3-1.19,1.92,1.92,0,0,0-.59-1.29A1.83,1.83,0,0,0,188.08,48.86Zm.28,3.56Zm.23-.06h0Z"/><path class="cls-25" d="M162,99.16h-.46a11.12,11.12,0,0,1-6.33-2.05,6.48,6.48,0,0,1-2.54-3.44.94.94,0,0,1,1.81-.5,4.62,4.62,0,0,0,1.85,2.43,9.19,9.19,0,0,0,5.27,1.68,8.62,8.62,0,0,0,5.21-1.33,4.08,4.08,0,0,0,1.84-2.25.94.94,0,0,1,1.16-.65.93.93,0,0,1,.65,1.15,5.9,5.9,0,0,1-2.61,3.31A10.21,10.21,0,0,1,162,99.16"/><path class="cls-2" d="M119.81,56a70.26,70.26,0,0,0-.45,8.85,36.67,36.67,0,0,1-1,10.1,51.83,51.83,0,0,0-1.17,5.22q3.5-4.32,5.71-7.36A8,8,0,0,0,124,65.13,65.35,65.35,0,0,0,119.81,56"/><path class="cls-2" d="M117.22,81.13a.94.94,0,0,1-.73-1.53c2.31-2.86,4.22-5.32,5.68-7.31a7.08,7.08,0,0,0,1-6.85,66.94,66.94,0,0,0-4.16-9,.94.94,0,0,1,1.66-.87,68,68,0,0,1,4.29,9.28,9,9,0,0,1-1.25,8.54c-1.48,2-3.41,4.5-5.73,7.38a.93.93,0,0,1-.73.35"/><path class="cls-3" d="M117.22,81.5l-.21,0A1.31,1.31,0,0,1,115.93,80a49.6,49.6,0,0,1,1.19-5.33,35.9,35.9,0,0,0,.93-9.72,71.33,71.33,0,0,1,.46-9.06A1.31,1.31,0,0,1,120,54.71a1.32,1.32,0,0,1,1.16,1.46,69.68,69.68,0,0,0-.44,8.7,38.54,38.54,0,0,1-1,10.44,49.85,49.85,0,0,0-1.14,5.09,1.33,1.33,0,0,1-1.3,1.1"/><path class="cls-26" d="M163.44,73.82a1.47,1.47,0,0,1-.46-.07,10.38,10.38,0,0,0-5.86-.49,1.5,1.5,0,1,1-.8-2.89,13.24,13.24,0,0,1,7.58.52,1.5,1.5,0,0,1-.46,2.93"/><path class="cls-26" d="M134.9,92.88a27.28,27.28,0,0,1-3.1-.19,24.48,24.48,0,0,1-16.48-9,24.19,24.19,0,0,1-5.64-17.79,23.26,23.26,0,0,1,26.19-21.31,24.3,24.3,0,0,1,16.38,9,23.94,23.94,0,0,1,5.67,17.79,22.48,22.48,0,0,1-8.55,16.22,22.19,22.19,0,0,1-14.47,5.28m-2.22-45.46A19.38,19.38,0,0,0,120.05,52a19.68,19.68,0,0,0-7.38,14.17,21,21,0,0,0,5,15.63,21.3,21.3,0,0,0,14.52,7.9,20.39,20.39,0,0,0,22.77-18.56h0a20.69,20.69,0,0,0-5-15.62,21.08,21.08,0,0,0-14.41-7.91A23,23,0,0,0,132.68,47.42Z"/><path class="cls-15" d="M134.73,90.08a23.13,23.13,0,0,1-2.73-.17,21.68,21.68,0,0,1-14.61-8,21.46,21.46,0,0,1-5-15.78A20.59,20.59,0,0,1,135.6,47.27a21.63,21.63,0,0,1,14.53,8A21.23,21.23,0,0,1,155.18,71a20.76,20.76,0,0,1-20.45,19.06M132.79,48.6a19.07,19.07,0,0,0-18.91,17.65A20,20,0,0,0,118.55,81a20.29,20.29,0,0,0,13.63,7.46,19.23,19.23,0,0,0,21.5-17.52h0A19.79,19.79,0,0,0,149,56.19a20.13,20.13,0,0,0-13.55-7.43A21.45,21.45,0,0,0,132.79,48.6Z"/><path class="cls-26" d="M188.08,98.88a26.34,26.34,0,0,1-3-.18A25.08,25.08,0,0,1,163,71.93a23.3,23.3,0,0,1,26.15-21.35,24.34,24.34,0,0,1,16.38,9,23.82,23.82,0,0,1,5.67,17.79,23.39,23.39,0,0,1-23.08,21.49M186,53.4A19.44,19.44,0,0,0,173.33,58,19.71,19.71,0,0,0,166,72.17a22.06,22.06,0,0,0,19.44,23.54,20.35,20.35,0,0,0,22.77-18.56h0a20.65,20.65,0,0,0-5-15.62,21.18,21.18,0,0,0-14.42-8A23.67,23.67,0,0,0,186,53.4Z"/><path class="cls-15" d="M188,96.2a25.43,25.43,0,0,1-2.73-.16,21.69,21.69,0,0,1-14.6-8,21.43,21.43,0,0,1-5-15.78,20.59,20.59,0,0,1,23.22-18.86,21.63,21.63,0,0,1,14.53,8,21.23,21.23,0,0,1,5,15.78A20.76,20.76,0,0,1,188,96.2M186,54.72a19.07,19.07,0,0,0-18.92,17.65,20,20,0,0,0,4.67,14.71,20.29,20.29,0,0,0,13.63,7.46A19.23,19.23,0,0,0,206.92,77h0a19.79,19.79,0,0,0-4.71-14.71,20.13,20.13,0,0,0-13.55-7.43A21.41,21.41,0,0,0,186,54.72Z"/><path class="cls-27" d="M155.41,171.51H155a2.91,2.91,0,0,0,.41-.73v.74"/><path class="cls-15" d="M150.66,171.29l-.36,0c-1.3-.18-2-.39-2-.64s.65-.47,2-.64a3.7,3.7,0,0,1,.6,0l1.68-.09.24.18a5.5,5.5,0,0,1-1.4.91l-.76.36"/><path class="cls-28" d="M153,170.15h0M155,171.5l-4.1-.18-.24,0,.76-.36a5.5,5.5,0,0,0,1.4-.91l-.24-.18,2.53-.13h.07l.23,0v1a2.91,2.91,0,0,1-.41.73"/><path class="cls-29" d="M171.89,172.33a4.69,4.69,0,0,0-8.19,0,10.75,10.75,0,0,0,0,11.57,4.69,4.69,0,0,0,8.19,0,10.75,10.75,0,0,0,0-11.57m-3.53,3.31a5.47,5.47,0,0,1,0,4.77A5.47,5.47,0,0,0,168.36,175.64Z"/><path class="cls-30" d="M162,166.21a24,24,0,0,0-12,0q-6,1.45-5.78,7.36v11.34q-.19,5.9,5.78,7.36a24,24,0,0,0,12,0c4.16-1,6.18-3.45,6.05-7.32V173.54q.19-5.82-6.05-7.33"/><path class="cls-29" d="M161.71,173.31c1.66-.62,2.48-1.39,2.48-2.29s-.82-1.68-2.48-2.33a19.43,19.43,0,0,0-11.94,0c-1.65.65-2.47,1.43-2.47,2.33s.82,1.67,2.47,2.29a18.67,18.67,0,0,0,11.94,0"/><path class="cls-31" d="M149.77,173.31a18.67,18.67,0,0,0,11.94,0,7.47,7.47,0,0,0,1.58-.79,6.6,6.6,0,0,0-1.58-.82,19.43,19.43,0,0,0-11.94,0,5.68,5.68,0,0,0-1.53.82,6.33,6.33,0,0,0,1.53.79"/><path class="cls-3" d="M174.57,168.73a14.43,14.43,0,0,1-2.34-.18c-5.06-1-8.09-4-8.83-8.53a.86.86,0,0,1,0-.23,2.51,2.51,0,0,1,0-.27,11,11,0,0,1,.57-4.49,11.26,11.26,0,0,1,5-5.83,104.68,104.68,0,0,1,15.24-7.26V127.59a1.42,1.42,0,1,1,2.83,0V142.9a1.4,1.4,0,0,1-.89,1.31,105.16,105.16,0,0,0-15.69,7.4,8.39,8.39,0,0,0-3.81,4.38,8.12,8.12,0,0,0-.42,3.25,3,3,0,0,1,.05.42c.58,3.38,2.66,5.32,6.52,6.1a21,21,0,0,0,8.79-1c4.61-1.38,9.59-4.35,14.79-8.8,11.66-9.76,10.48-17.41,4.17-36.8a1.41,1.41,0,1,1,2.69-.87c6.48,19.89,7.84,29.06-5,39.83-5.49,4.7-10.82,7.86-15.82,9.36A28.56,28.56,0,0,1,174.57,168.73Z"/></g></g></svg>