<svg xmlns="http://www.w3.org/2000/svg" viewBox="0 0 95.94 117.52"><defs><style>.cls-1{fill:#83e8d3;}.cls-2{fill:#1cb594;}.cls-3{fill:#fff;}.cls-4{fill:#47d7ac;}.cls-5{fill:none;stroke:#47d7ac;stroke-linecap:round;stroke-linejoin:round;stroke-width:1.75px;}</style></defs><g id="레이어_2" data-name="레이어 2"><g id="Layer_1" data-name="Layer 1"><path class="cls-1" d="M20.61,86.71c-.25.25-2,4.45-2,4.45S9.61,99.06,12,107s14,10.75,25.79,8.65c.5-.08,6.13-1.68,8.07-4.7l4.89.17s.31,5.12,12,4.11,16.55-1.34,17.39-8.82a15.26,15.26,0,0,0-8.4-15.87l.42-2.61Z"/><path class="cls-2" d="M54,105a7.48,7.48,0,0,0-.59-2.81,6.48,6.48,0,0,0-1.57-2.33,7.21,7.21,0,0,0-11.78,2.4,7.24,7.24,0,0,0-.57,2.84v.42l3.95,0V105a3.36,3.36,0,0,1,1-2.38,3.26,3.26,0,0,1,2.33-1,3.22,3.22,0,0,1,2.35,1,3.14,3.14,0,0,1,1,2.37v.39H54V105"/><path class="cls-3" d="M22.45,2.16a9.48,9.48,0,0,0-1.63-.77Q16.26-.17,14.08,5a16.57,16.57,0,0,0-.56,9.12,28.67,28.67,0,0,0,3.9,9.58A30.83,30.83,0,0,0,34.17,16.6q-4.68-10-11.72-14.44"/><path class="cls-4" d="M17.42,24.71a1,1,0,0,1-.88-.49,29.78,29.78,0,0,1-4-9.92,17.72,17.72,0,0,1,.6-9.68c2.14-5,5.56-5.06,8.06-4.19A9.09,9.09,0,0,1,23,1.27c4.86,3.05,8.94,8.05,12.12,14.89a1,1,0,0,1-.27,1.23A32,32,0,0,1,17.54,24.7h-.12M18.8,2.06c-1.3,0-2.67.72-3.77,3.32a15.61,15.61,0,0,0-.5,8.52A27.57,27.57,0,0,0,18,22.56a29.93,29.93,0,0,0,14.92-6.24c-3-6.1-6.65-10.57-11-13.28a7.55,7.55,0,0,0-1.4-.65A5.35,5.35,0,0,0,18.8,2.06Z"/><path class="cls-3" d="M81.74,14.17A16.83,16.83,0,0,0,81.18,5Q79-.12,74.43,1.48a8.48,8.48,0,0,0-1.63.74q-7,4.41-11.71,14.44a30.84,30.84,0,0,0,16.74,7.07,28.65,28.65,0,0,0,3.91-9.56"/><path class="cls-4" d="M77.83,24.77h-.12a32,32,0,0,1-17.29-7.31,1,1,0,0,1-.27-1.23C63.34,9.38,67.41,4.38,72.26,1.34A9.19,9.19,0,0,1,74.13.49c2.45-.86,5.88-.85,8,4.14a17.82,17.82,0,0,1,.62,9.75,29.94,29.94,0,0,1-4,9.9,1,1,0,0,1-.88.49m-15.46-8.4A30,30,0,0,0,77.3,22.62,27.44,27.44,0,0,0,80.72,14a15.8,15.8,0,0,0-.52-8.59c-1.58-3.71-3.73-3.52-5.43-2.92a6.76,6.76,0,0,0-1.44.66C69,5.81,65.33,10.27,62.37,16.37Z"/><path class="cls-3" d="M87.36,28.7Q81.75,17.35,69.19,12A57.21,57.21,0,0,0,48.43,7.78h-.92A57.26,57.26,0,0,0,26.74,12Q13,17.84,7.6,30.83A49.8,49.8,0,0,0,4.11,47.9,30.26,30.26,0,0,1,2.89,56Q-2.9,73.64,9.34,82.9A29.49,29.49,0,0,0,12,84.71l.11.08c.8.5,1.61,1,2.43,1.43a59.6,59.6,0,0,0,21.66,7l1.62.17a70.74,70.74,0,0,0,9.65.72h.92a70.6,70.6,0,0,0,9.64-.72l1.63-.17a63,63,0,0,0,9.58-2,56.84,56.84,0,0,0,12.07-5c.87-.48,1.72-1,2.55-1.51a29.3,29.3,0,0,0,2.69-1.81Q98.85,73.65,93,56a30.27,30.27,0,0,1-1.21-8.11,47.7,47.7,0,0,0-4.47-19.2"/><path class="cls-1" d="M91.68,77.6Q97.34,69.14,93,56a30.27,30.27,0,0,1-1.21-8.11c-.07-1.47-.19-2.89-.35-4.29l.4-.36a.74.74,0,1,0-1-1.11A51.25,51.25,0,0,0,83.63,50c-2.18,2.87-2.74,6.7-1.66,11.41.2.73.43,1.44.67,2.11a56.76,56.76,0,0,0,8,15.17.74.74,0,0,0,.6.31.76.76,0,0,0,.43-.14.75.75,0,0,0,.16-1Z"/><path class="cls-1" d="M12.34,50A51.26,51.26,0,0,0,5,42.11a.74.74,0,0,0-1,1.11c.14.12.26.24.39.37C4.3,45,4.17,46.41,4.11,47.9A30.26,30.26,0,0,1,2.89,56Q-1.43,69.14,4.28,77.63l-.15.22a.75.75,0,0,0,.16,1,.82.82,0,0,0,.44.14.75.75,0,0,0,.6-.31,57.61,57.61,0,0,0,8-15.19c.24-.68.46-1.39.67-2.15C15.07,56.7,14.51,52.87,12.34,50Z"/><path class="cls-4" d="M47.51,95.09a72.8,72.8,0,0,1-9.79-.72l-1.6-.17a60.54,60.54,0,0,1-22-7.08c-.83-.45-1.66-.94-2.47-1.45l-.13-.09a27.63,27.63,0,0,1-2.76-1.85C.2,77.29-2.09,67.86,1.91,55.69a29.31,29.31,0,0,0,1.16-7.81A50.73,50.73,0,0,1,6.66,30.43C10.37,21.55,17,15,26.33,11A58.89,58.89,0,0,1,47.5,6.75h.93A58.86,58.86,0,0,1,69.58,11c8.58,3.67,14.87,9.46,18.71,17.22a48.86,48.86,0,0,1,4.57,19.62A29.4,29.4,0,0,0,94,55.7c4,12.15,1.7,21.59-6.81,28a30.78,30.78,0,0,1-2.79,1.87c-.82.52-1.7,1-2.58,1.52a58.87,58.87,0,0,1-12.28,5.09,62.93,62.93,0,0,1-9.74,2c-.55.07-1.1.12-1.65.18a71.73,71.73,0,0,1-9.75.72h-.92m0-86.27A56.69,56.69,0,0,0,27.12,13c-8.81,3.76-15.06,9.91-18.55,18.28A48.8,48.8,0,0,0,5.14,48a31,31,0,0,1-1.26,8.36v0C.13,67.72,2.12,76.14,10,82.08a28.48,28.48,0,0,0,2.59,1.74l.2.12c.73.46,1.52.93,2.32,1.37a58.4,58.4,0,0,0,21.29,6.83l1.6.18a71.23,71.23,0,0,0,9.55.7h.91a70.37,70.37,0,0,0,9.5-.7l1.65-.18A62.62,62.62,0,0,0,69,90.22a56.5,56.5,0,0,0,11.85-4.91c.85-.46,1.68-1,2.49-1.48A25.92,25.92,0,0,0,86,82.08c7.85-5.94,9.84-14.36,6.1-25.75a31.27,31.27,0,0,1-1.27-8.4,46.87,46.87,0,0,0-4.36-18.77A33.68,33.68,0,0,0,68.79,12.94,56.7,56.7,0,0,0,48.42,8.82ZM2.89,56h0Z"/><path d="M35.79,58.49a10.3,10.3,0,0,0,1.1-4.94,10.51,10.51,0,0,0-1.1-5c-.73-1.36-1.61-2-2.66-2s-1.93.68-2.66,2a10.28,10.28,0,0,0-1.13,5,10.08,10.08,0,0,0,1.13,4.94c.73,1.4,1.62,2.1,2.66,2.1s1.93-.7,2.66-2.1"/><path class="cls-1" d="M35.05,40.21l.06,0a2.23,2.23,0,0,0,2.4-1.75,2.1,2.1,0,0,0-.36-1.59A1.9,1.9,0,0,0,35.91,36L28,34.65a2.08,2.08,0,0,0-1.51.35,2.12,2.12,0,0,0-.85,1.39,2,2,0,0,0,.32,1.54,2.06,2.06,0,0,0,1.13.86l.14,0,7.84,1.39"/><path class="cls-4" d="M35.45,41A3.73,3.73,0,0,1,35,41l-.16,0-7.69-1.36a1.16,1.16,0,0,1-.32-.08,2.78,2.78,0,0,1-1.48-1.13,2.7,2.7,0,0,1-.44-2.08A2.85,2.85,0,0,1,26,34.41a2.77,2.77,0,0,1,2.06-.49l8,1.39a2.65,2.65,0,0,1,1.73,1.18,2.89,2.89,0,0,1,.47,2.13,2.6,2.6,0,0,1-1.16,1.81,2.66,2.66,0,0,1-1.63.58m-.4-.06Zm0,0Zm-.46-.19Zm.76-1.23a1.2,1.2,0,0,0,.84-.28l.07,0a1.14,1.14,0,0,0,.52-.83,1.41,1.41,0,0,0-.24-1.07,1.23,1.23,0,0,0-.79-.54l-7.9-1.38a1.26,1.26,0,0,0-1,.23,1.37,1.37,0,0,0-.56.91,1.27,1.27,0,0,0,.21,1,1.33,1.33,0,0,0,.73.57h.06l7.81,1.39Zm-8-1.4Zm-.18-.05Z"/><path d="M59,53.55a10.08,10.08,0,0,0,1.12,4.94c.73,1.4,1.62,2.1,2.66,2.1s1.94-.7,2.67-2.1a10.08,10.08,0,0,0,1.12-4.94,10.28,10.28,0,0,0-1.12-5q-1.09-2-2.67-2c-1,0-1.93.68-2.66,2a10.28,10.28,0,0,0-1.12,5"/><path class="cls-1" d="M69.46,35A2.07,2.07,0,0,0,68,34.65L60,36a1.93,1.93,0,0,0-1.24.86,2.14,2.14,0,0,0-.35,1.59,1.8,1.8,0,0,0,.85,1.33,1.85,1.85,0,0,0,1.54.42l.06,0,7.84-1.39.15,0A2,2,0,0,0,70,37.93a2,2,0,0,0,.33-1.54A2.17,2.17,0,0,0,69.46,35"/><path class="cls-4" d="M60.49,41a2.64,2.64,0,0,1-1.63-.58,2.6,2.6,0,0,1-1.16-1.81,2.88,2.88,0,0,1,.46-2.13,2.64,2.64,0,0,1,1.7-1.17l8-1.4a2.76,2.76,0,0,1,2.06.48,2.86,2.86,0,0,1,1.17,1.87,2.71,2.71,0,0,1-.45,2.08,2.8,2.8,0,0,1-1.47,1.13,1.14,1.14,0,0,1-.33.08l-7.69,1.36L61,41a3.57,3.57,0,0,1-.46,0m.39-.06Zm0,0Zm.47-.19Zm6.93-5.4-.22,0-7.91,1.39a1.18,1.18,0,0,0-.75.53,1.45,1.45,0,0,0-.25,1.06,1.13,1.13,0,0,0,.53.84l.06,0a1.23,1.23,0,0,0,.85.28l.19-.05,7.81-1.39h.06a1.36,1.36,0,0,0,.73-.56,1.26,1.26,0,0,0,.21-1,1.44,1.44,0,0,0-.57-.93A1.27,1.27,0,0,0,68.28,35.36Zm.26,2.77Z"/><path d="M48,74.45a9.45,9.45,0,0,1-5.51-1.61,5.37,5.37,0,0,1-2.2-2.9.65.65,0,0,1,.46-.81.66.66,0,0,1,.82.46,4,4,0,0,0,1.68,2.16A8.11,8.11,0,0,0,48,73.12a8,8,0,0,0,4.72-1.37,4,4,0,0,0,1.71-2.16.67.67,0,0,1,.82-.46.66.66,0,0,1,.47.81,5.34,5.34,0,0,1-2.23,2.9A9.34,9.34,0,0,1,48,74.45"/><path class="cls-5" d="M67.4,99.73s-.42,2.83-6.05,3.47-11,1.06-10.92,7.28,13.25,6.36,23,3.39c0,0,9.16-2.32,6.65-12.38,0,0-1.63-8-7.85-10.1"/><path class="cls-1" d="M18.43,90.49c-.21-.09-8.38,6.27-7.14,14.7,1.28,8.75,10.75,12.75,25.2,11.08S46.34,105.5,43.32,104c-2.07-1-5.9-1.16-13-.84-6.1.28-5.88-2-5.88-2"/><path class="cls-5" d="M19.58,89.8c-.21-.09-9.53,7-8.29,15.39,1.28,8.75,10.75,12.75,25.2,11.08S46.34,105.5,43.32,104c-2.07-1-5.9-1.16-13-.84-6.1.28-5.88-2-5.88-2"/></g></g></svg>