<svg xmlns="http://www.w3.org/2000/svg" viewBox="0 0 320 173.6"><defs><style>.cls-1{fill:#fce7c2;}.cls-15,.cls-16,.cls-2,.cls-4,.cls-6,.cls-8{fill:none;stroke-linecap:round;stroke-linejoin:round;}.cls-2{stroke:#f1b98e;}.cls-15,.cls-2{stroke-width:1.75px;}.cls-3{fill:#9ab4f4;}.cls-4{stroke:#74a1e8;}.cls-16,.cls-4,.cls-6,.cls-8{stroke-width:1.4px;}.cls-5{fill:#f1f8fa;}.cls-6{stroke:#c4d0d6;}.cls-7{fill:#faffff;}.cls-8{stroke:#d6e3e8;}.cls-9{fill:#83e8d3;}.cls-10{fill:#1cb594;}.cls-11{fill:#fff;}.cls-12{fill:#47d7ac;}.cls-13{fill:#01b593;}.cls-14{fill:#ffb9b8;}.cls-15{stroke:#47d7ac;}.cls-16{stroke:#ff88a1;}.cls-17{fill:#eacea2;}.cls-18{fill:#eb5777;}.cls-19{fill:#ff88a1;}.cls-20{fill:#966b22;}.cls-21{fill:#4db86c;}.cls-22{fill:#4358be;}.cls-23{fill:#6474e1;}.cls-24{fill:#ffbd43;}.cls-25{fill:#c6cde5;}.cls-26{fill:#b4bed8;}.cls-27{fill:#dce7f9;}.cls-28{fill:#c0d3f9;}.cls-29{fill:#ededed;}</style></defs><g id="레이어_2" data-name="레이어 2"><g id="레이어_1-2" data-name="레이어 1"><polygon class="cls-1" points="320 173.6 0 173.6 27.98 133.6 292.01 133.6 320 173.6"/><line class="cls-2" x1="29.22" y1="133.44" x2="291.22" y2="133.44"/><path class="cls-3" d="M170.1,136.29c-3.78-.42-9.8-1-9.8-1s-18.2-1.25-20.18,0-9.38,19.7-10.64,23.28,12.28-5.79,35.55.93c0,0-3.58,2.84,3,3.24,5.79.34,3.36-2.78,3.36-2.78,14.7-5,39.14,2.78,38.33-.46s-4.37-21.66-6.37-22.7-23.57-1.64-23.57-1.64a57.6,57.6,0,0,0-8.19,0"/><path class="cls-4" d="M170.1,136.29c-3.78-.42-9.8-1-9.8-1s-18.2-1.25-20.18,0-9.38,19.7-10.64,23.28,12.28-5.79,35.55.93c0,0-3.58,2.84,3,3.24,5.79.34,3.36-2.78,3.36-2.78,14.7-5,39.14,2.78,38.33-.46s-4.37-21.66-6.37-22.7-23.57-1.64-23.57-1.64a57.6,57.6,0,0,0-8.19,0"/><path class="cls-5" d="M203.13,134.51c3.24,4.17,5.77,18.34,6.36,21.54s-19.22-9.26-41.22,2.2c-20.26-11.69-37.63-3-37.17-4.75.59-2.2,9.86-21.18,9.86-21.18.79-.24,24.65-.15,28.71,2.51,0,0,24.08-4.72,33.46-.32"/><path class="cls-6" d="M203.13,134.51c3.24,4.17,5.77,18.34,6.36,21.54s-19.22-9.26-41.22,2.2c-20.26-11.69-37.63-3-37.17-4.75.59-2.2,9.86-21.18,9.86-21.18.79-.24,24.65-.15,28.71,2.51C169.67,134.83,193.75,130.11,203.13,134.51Z"/><path class="cls-7" d="M203.7,132.14c3.24,4.17,5.77,18.33,6.37,21.54s-19.22-9.26-41.23,2.2c-20.26-11.7-37.63-3-37.17-4.75.59-2.2,9.87-21.19,9.87-21.19.79-.23,24.64-.14,28.7,2.52,0,0,24.08-4.72,33.46-.32"/><path class="cls-8" d="M203.7,132.14c3.24,4.17,5.77,18.33,6.37,21.54s-19.22-9.26-41.23,2.2c-20.26-11.7-37.63-3-37.17-4.75.59-2.2,9.87-21.19,9.87-21.19.79-.23,24.64-.14,28.7,2.52C170.24,132.46,194.32,127.74,203.7,132.14Z"/><line class="cls-8" x1="169.01" y1="155.03" x2="172.44" y2="134.86"/><path class="cls-9" d="M146.18,108.49c-.26.26-2.08,4.6-2.08,4.6s-9.29,8.17-6.78,16.33,14.51,11.12,26.67,8.94c.52-.08,6.34-1.73,8.33-4.86l5.07.18s.32,5.29,12.39,4.25,17.11-1.39,18-9.12a15.77,15.77,0,0,0-8.69-16.41l.44-2.69Z"/><path class="cls-10" d="M180.75,127.36a7.86,7.86,0,0,0-.61-2.91,6.92,6.92,0,0,0-1.62-2.41,7.42,7.42,0,0,0-10.6,0,7.26,7.26,0,0,0-1.59,2.44,7.52,7.52,0,0,0-.58,2.94v.43l4.08,0v-.43a3.43,3.43,0,0,1,1-2.46,3.39,3.39,0,0,1,2.41-1,3.34,3.34,0,0,1,2.43,1,3.23,3.23,0,0,1,1,2.46v.4h4.06v-.46"/><path class="cls-11" d="M148.09,21.08a9.38,9.38,0,0,0-1.69-.79q-4.71-1.62-7,3.7a17.07,17.07,0,0,0-.58,9.42,29.61,29.61,0,0,0,4,9.91A31.84,31.84,0,0,0,160.2,36q-4.83-10.36-12.11-14.93"/><path class="cls-12" d="M142.89,44.39a1.07,1.07,0,0,1-.91-.5,31,31,0,0,1-4.18-10.25,18.28,18.28,0,0,1,.62-10c2.21-5.21,5.75-5.22,8.33-4.33a9.72,9.72,0,0,1,1.88.87c5,3.15,9.24,8.33,12.54,15.4a1.07,1.07,0,0,1-.28,1.27A33,33,0,0,1,143,44.38h-.12M144.32,21c-1.35,0-2.77.74-3.9,3.43a16,16,0,0,0-.52,8.8,28.25,28.25,0,0,0,3.54,9,30.83,30.83,0,0,0,15.43-6.46C155.81,29.41,152,24.79,147.52,22a7.44,7.44,0,0,0-1.45-.67A5.44,5.44,0,0,0,144.32,21Z"/><path class="cls-11" d="M209.38,33.5a17.27,17.27,0,0,0-.58-9.45q-2.27-5.32-7-3.67a8.14,8.14,0,0,0-1.68.76Q192.86,25.7,188,36.07a31.87,31.87,0,0,0,17.31,7.31,29.63,29.63,0,0,0,4-9.88"/><path class="cls-12" d="M205.35,44.45h-.13a33,33,0,0,1-17.88-7.55,1.07,1.07,0,0,1-.28-1.27c3.3-7.07,7.51-12.25,12.52-15.38a8.33,8.33,0,0,1,1.93-.88c2.54-.89,6.08-.89,8.28,4.27a18.53,18.53,0,0,1,.64,10.08A30.83,30.83,0,0,1,206.25,44a1.07,1.07,0,0,1-.9.5m-16-8.68a30.86,30.86,0,0,0,15.43,6.46,28.33,28.33,0,0,0,3.54-8.94,16.37,16.37,0,0,0-.54-8.88c-1.63-3.84-3.86-3.64-5.61-3a6.53,6.53,0,0,0-1.49.68C196.23,24.86,192.42,29.47,189.36,35.77Z"/><path class="cls-11" d="M215.19,48.52q-5.81-11.75-18.78-17.28a59.37,59.37,0,0,0-21.47-4.35H174a59.45,59.45,0,0,0-21.47,4.35q-14.16,6-19.79,19.48a51.51,51.51,0,0,0-3.61,17.65,31.36,31.36,0,0,1-1.25,8.38q-6,18.23,6.67,27.8a26.4,26.4,0,0,0,2.78,1.87l.12.09c.83.52,1.66,1,2.51,1.47a61.37,61.37,0,0,0,22.39,7.19l1.68.18a74,74,0,0,0,10,.74h.95a73.72,73.72,0,0,0,10-.74l1.68-.18a64.42,64.42,0,0,0,9.91-2A59,59,0,0,0,209,108c.9-.49,1.78-1,2.63-1.56a27.65,27.65,0,0,0,2.79-1.87q12.66-9.57,6.67-27.8a31,31,0,0,1-1.26-8.38,49.3,49.3,0,0,0-4.62-19.85"/><path class="cls-9" d="M219.66,99.08q5.84-8.76,1.41-22.33a31,31,0,0,1-1.26-8.38c-.07-1.52-.19-3-.36-4.43l.41-.38a.76.76,0,0,0-1-1.14,51.78,51.78,0,0,0-7.51,8.12c-2.25,3-2.83,6.93-1.72,11.8.21.75.44,1.48.69,2.18a58.69,58.69,0,0,0,8.27,15.68.76.76,0,0,0,1.07.17.77.77,0,0,0,.17-1.07C219.76,99.23,219.71,99.15,219.66,99.08Z"/><path class="cls-9" d="M137.63,70.55a52.67,52.67,0,0,0-7.54-8.16.75.75,0,0,0-1.08.06.77.77,0,0,0,.06,1.08l.41.38c-.16,1.44-.29,2.92-.36,4.46a31.36,31.36,0,0,1-1.25,8.38q-4.49,13.57,1.43,22.36l-.15.22a.76.76,0,0,0,.17,1.07.73.73,0,0,0,.44.15.75.75,0,0,0,.62-.32,59.25,59.25,0,0,0,8.27-15.7c.25-.71.48-1.44.7-2.23C140.46,77.47,139.88,73.51,137.63,70.55Z"/><path class="cls-12" d="M174,117.16a74.43,74.43,0,0,1-10.12-.75l-1.65-.18a62.66,62.66,0,0,1-22.79-7.31c-.86-.47-1.72-1-2.55-1.5l-.14-.1a29.46,29.46,0,0,1-2.85-1.91c-8.8-6.66-11.17-16.41-7-29a30.41,30.41,0,0,0,1.2-8.09,52.43,52.43,0,0,1,3.71-18c3.83-9.18,10.68-15.93,20.34-20.06A60.9,60.9,0,0,1,174,25.82h1a60.87,60.87,0,0,1,21.87,4.42C205.68,34,212.18,40,216.15,48.05a50.33,50.33,0,0,1,4.73,20.27,30.56,30.56,0,0,0,1.21,8.12c4.13,12.56,1.76,22.31-7.05,29a30.06,30.06,0,0,1-2.88,1.93c-.84.54-1.75,1.08-2.66,1.58a61,61,0,0,1-12.7,5.26,65.55,65.55,0,0,1-10.07,2l-1.7.19a75.1,75.1,0,0,1-10.08.74h-1M174,28a58.34,58.34,0,0,0-21.07,4.26c-9.11,3.89-15.57,10.25-19.19,18.9a50.69,50.69,0,0,0-3.54,17.29,32.29,32.29,0,0,1-1.3,8.65v0c-3.88,11.77-1.82,20.48,6.29,26.61a27.35,27.35,0,0,0,2.69,1.8l.2.13c.75.48,1.57,1,2.39,1.41a60.69,60.69,0,0,0,22,7.07l1.67.18A72.56,72.56,0,0,0,174,115h.94a71.63,71.63,0,0,0,9.82-.72l1.72-.19a63,63,0,0,0,9.73-2A58.06,58.06,0,0,0,208.46,107c.88-.47,1.74-1,2.58-1.52a27.76,27.76,0,0,0,2.71-1.82c8.11-6.13,10.17-14.84,6.3-26.61a32.58,32.58,0,0,1-1.31-8.69A48.45,48.45,0,0,0,214.23,49C210.5,41.44,204.36,35.8,196,32.22A58.31,58.31,0,0,0,174.93,28ZM127.87,76.75Z"/><path d="M161.88,79.32A10.63,10.63,0,0,0,163,74.21a10.81,10.81,0,0,0-1.13-5.14c-.75-1.4-1.67-2.11-2.75-2.11s-2,.71-2.75,2.11a10.58,10.58,0,0,0-1.17,5.14,10.4,10.4,0,0,0,1.17,5.11c.75,1.45,1.67,2.17,2.75,2.17s2-.72,2.75-2.17"/><path class="cls-9" d="M161.12,60.42l.06,0a1.92,1.92,0,0,0,1.59-.43,1.89,1.89,0,0,0,.88-1.38,2.2,2.2,0,0,0-.36-1.65A2,2,0,0,0,162,56.1l-8.19-1.43a2.13,2.13,0,0,0-1.56.36,2.22,2.22,0,0,0-.89,1.44,2.06,2.06,0,0,0,.34,1.59,2.1,2.1,0,0,0,1.16.89l.15,0,8.11,1.44"/><path class="cls-12" d="M161.52,61.24a2.59,2.59,0,0,1-.48,0l-.16-.05-7.95-1.41a1.28,1.28,0,0,1-.34-.07,2.94,2.94,0,0,1-1.53-1.18,2.78,2.78,0,0,1-.45-2.15,2.93,2.93,0,0,1,1.18-1.92,2.89,2.89,0,0,1,2.12-.51l8.23,1.44a2.79,2.79,0,0,1,1.79,1.22,3,3,0,0,1,.48,2.21,3.08,3.08,0,0,1-2.89,2.46m-.41-.06h0Zm0,0Zm-.48-.19Zm.79-1.28a1.14,1.14,0,0,0,.87-.29l.07-.05a1.15,1.15,0,0,0,.54-.85,1.46,1.46,0,0,0-.25-1.11,1.26,1.26,0,0,0-.81-.56l-8.17-1.43a1.37,1.37,0,0,0-1,.24,1.45,1.45,0,0,0-.57.94,1.31,1.31,0,0,0,.21,1,1.43,1.43,0,0,0,.76.59h.06l8.08,1.43Zm-8.22-1.45Zm-.19,0Z"/><path d="M185.89,74.21a10.51,10.51,0,0,0,1.16,5.11c.76,1.45,1.68,2.17,2.76,2.17s2-.72,2.75-2.17a10.51,10.51,0,0,0,1.16-5.11,10.69,10.69,0,0,0-1.16-5.14c-.76-1.4-1.67-2.11-2.75-2.11s-2,.71-2.76,2.11a10.69,10.69,0,0,0-1.16,5.14"/><path class="cls-9" d="M196.69,55a2.15,2.15,0,0,0-1.56-.36l-8.2,1.43a2,2,0,0,0-1.28.89,2.21,2.21,0,0,0-.37,1.65,2.29,2.29,0,0,0,2.48,1.81l.06,0,8.1-1.44.16,0a2.14,2.14,0,0,0,1.16-.89,2.06,2.06,0,0,0,.34-1.59,2.26,2.26,0,0,0-.89-1.44"/><path class="cls-12" d="M187.41,61.24a2.73,2.73,0,0,1-1.68-.59,2.65,2.65,0,0,1-1.2-1.88,2.93,2.93,0,0,1,.48-2.2,2.73,2.73,0,0,1,1.76-1.21L195,53.91a2.91,2.91,0,0,1,2.13.5,3,3,0,0,1,1.2,1.93,2.82,2.82,0,0,1-.46,2.16,2.93,2.93,0,0,1-1.53,1.17,1.14,1.14,0,0,1-.33.07l-7.95,1.41-.17.05a2.59,2.59,0,0,1-.48,0m.41-.06Zm0,0Zm.48-.19Zm7.17-5.58h-.23l-8.18,1.44a1.18,1.18,0,0,0-.77.55,1.46,1.46,0,0,0-.26,1.1,1.18,1.18,0,0,0,.54.86l.07.05a1.16,1.16,0,0,0,.88.29l.19-.05,8.08-1.43h.06a1.43,1.43,0,0,0,.76-.59,1.31,1.31,0,0,0,.21-1,1.41,1.41,0,0,0-.59-1A1.29,1.29,0,0,0,195.47,55.41Zm.27,2.85h0Z"/><path d="M174.48,95.81a9.77,9.77,0,0,1-5.7-1.66,5.47,5.47,0,0,1-2.27-3,.69.69,0,1,1,1.32-.37A4.23,4.23,0,0,0,169.57,93a8.46,8.46,0,0,0,4.91,1.41A8.3,8.3,0,0,0,179.36,93a4.15,4.15,0,0,0,1.77-2.24.69.69,0,0,1,1.33.37,5.51,5.51,0,0,1-2.31,3,9.59,9.59,0,0,1-5.67,1.66"/><path class="cls-13" d="M151.67,95.88a22.41,22.41,0,0,1-2.56-.16,20.21,20.21,0,0,1-13.6-7.41,20,20,0,0,1-4.66-14.69A19.21,19.21,0,0,1,152.47,56,20.05,20.05,0,0,1,166,63.45a19.76,19.76,0,0,1,4.68,14.68,18.52,18.52,0,0,1-7.06,13.39,18.32,18.32,0,0,1-11.94,4.36m-1.83-37.53a16,16,0,0,0-10.43,3.78,16.26,16.26,0,0,0-6.09,11.7,17.33,17.33,0,0,0,4.1,12.9,17.61,17.61,0,0,0,12,6.53,16.85,16.85,0,0,0,18.8-15.33h0A17.14,17.14,0,0,0,164.08,65a17.42,17.42,0,0,0-11.9-6.53A18.86,18.86,0,0,0,149.84,58.35Z"/><path class="cls-11" d="M151.53,93.57a19.14,19.14,0,0,1-2.25-.14,18,18,0,0,1-12.06-6.6,17.74,17.74,0,0,1-4.14-13,17,17,0,0,1,19.17-15.57,17.85,17.85,0,0,1,12,6.58,17.54,17.54,0,0,1,4.17,13,17.15,17.15,0,0,1-16.88,15.74m-1.6-34.24A15.73,15.73,0,0,0,134.32,73.9,16.49,16.49,0,0,0,138.18,86a16.73,16.73,0,0,0,11.24,6.16,15.36,15.36,0,0,0,12-3.46,15.16,15.16,0,0,0,5.78-11h0a16.29,16.29,0,0,0-3.89-12.13,16.61,16.61,0,0,0-11.18-6.14A17.91,17.91,0,0,0,149.93,59.33Z"/><path class="cls-13" d="M198.69,95.88a22.41,22.41,0,0,1-2.56-.16,20.7,20.7,0,0,1-18.26-22.1A19.21,19.21,0,0,1,199.49,56,20.05,20.05,0,0,1,213,63.45a19.72,19.72,0,0,1,4.68,14.68,18.52,18.52,0,0,1-7.06,13.39,18.32,18.32,0,0,1-11.94,4.36m-1.83-37.53a16,16,0,0,0-10.43,3.78,16.3,16.3,0,0,0-6.09,11.7,17.33,17.33,0,0,0,4.1,12.9,17.61,17.61,0,0,0,12,6.53,16.85,16.85,0,0,0,18.8-15.33h0A17.14,17.14,0,0,0,211.1,65a17.42,17.42,0,0,0-11.9-6.53A18.74,18.74,0,0,0,196.86,58.35Z"/><path class="cls-11" d="M198.55,93.57a19.14,19.14,0,0,1-2.25-.14,18,18,0,0,1-12.06-6.6,17.74,17.74,0,0,1-4.14-13,17,17,0,0,1,19.17-15.57,17.85,17.85,0,0,1,12,6.58,17.54,17.54,0,0,1,4.17,13,17.15,17.15,0,0,1-16.88,15.74M197,59.33A15.73,15.73,0,0,0,181.34,73.9,16.49,16.49,0,0,0,185.2,86a16.75,16.75,0,0,0,11.25,6.16A15.89,15.89,0,0,0,214.2,77.74h0a16.37,16.37,0,0,0-3.89-12.13,16.65,16.65,0,0,0-11.19-6.14A17.79,17.79,0,0,0,197,59.33Z"/><path class="cls-13" d="M178.18,78a1.21,1.21,0,0,1-.7-.22,7.09,7.09,0,0,0-3.25-1.15,6.79,6.79,0,0,0-3.25.76,1.23,1.23,0,0,1-1.2-2.14,8.47,8.47,0,0,1,9.11.53,1.21,1.21,0,0,1,.3,1.7A1.23,1.23,0,0,1,178.18,78Z"/><path class="cls-14" d="M154.12,107.73a3.79,3.79,0,0,1,2.49-2.49,5,5,0,0,1,3.65,0l9.94,32.65s.28,5.86-1.07,6.43-4.48-3.43-5.28-4.84S154.12,107.73,154.12,107.73Z"/><path class="cls-15" d="M194.56,122s-.44,2.93-6.26,3.59-11.37,1.1-11.29,7.53,13.7,6.58,23.74,3.5c0,0,9.47-2.4,6.87-12.8,0,0-1.68-8.26-8.11-10.44"/><path class="cls-16" d="M160.22,105.26c.18.06,9.72,30.46,9.72,30.46s1.11,8-.84,8.62-5.29-4.84-5.29-4.84l-9.72-31.75s.11-1.62,2.49-2.49S160.22,105.26,160.22,105.26Z"/><path class="cls-9" d="M143.93,112.4c-.22-.1-8.66,6.48-7.39,15.2,1.33,9.05,11.12,13.18,26.06,11.45s10.19-11.14,7.06-12.64c-2.14-1-6.09-1.2-13.49-.87-6.31.29-6.08-2-6.08-2"/><path class="cls-15" d="M145.12,111.69c-.22-.1-9.85,7.19-8.58,15.91,1.33,9.05,11.12,13.18,26.06,11.45s10.19-11.14,7.06-12.64c-2.14-1-6.09-1.2-13.49-.87-6.31.29-6.08-2-6.08-2"/><path class="cls-17" d="M290.62,163.75c0,2.5-4.43,4.53-9.88,4.53s-9.89-2-9.89-4.53,4.43-4.52,9.89-4.52S290.62,161.25,290.62,163.75Z"/><path class="cls-18" d="M287.09,162.2l1-8.9H272.36l1,8.9a3.6,3.6,0,0,0,2.22,2.77,11.28,11.28,0,0,0,4.33.76h.63a11.37,11.37,0,0,0,4.34-.76,3.6,3.6,0,0,0,2.21-2.77"/><path class="cls-19" d="M289.62,151.7a2.52,2.52,0,0,1-.25.73,5.28,5.28,0,0,1-2.48,2.06,14.87,14.87,0,0,1-6.66,1.36,15,15,0,0,1-6.69-1.36,5.12,5.12,0,0,1-2.43-2.06,2,2,0,0,1-.23-.58l.38,3.22a5.47,5.47,0,0,0,2.28,1.81,15,15,0,0,0,6.69,1.37,14.87,14.87,0,0,0,6.66-1.37,5.62,5.62,0,0,0,2.32-1.81l.41-3.37m-9.39-5.08a15.32,15.32,0,0,0-6.69,1.34q-2.75,1.36-2.75,3.27a2.06,2.06,0,0,0,.09.62,2,2,0,0,0,.23.58,5.12,5.12,0,0,0,2.43,2.06,15,15,0,0,0,6.69,1.36,14.87,14.87,0,0,0,6.66-1.36,5.28,5.28,0,0,0,2.48-2.06,2.52,2.52,0,0,0,.25-.73c0-.09,0-.19,0-.3v-.17q0-1.9-2.77-3.27A15.15,15.15,0,0,0,280.23,146.62Z"/><path class="cls-20" d="M280.23,148.36a12.35,12.35,0,0,0-4.81.85c-1.33.54-2,1.2-2,2s.66,1.44,2,2a14.32,14.32,0,0,0,9.61,0c1.33-.55,2-1.21,2-2s-.66-1.45-2-2a12.3,12.3,0,0,0-4.8-.85"/><path class="cls-21" d="M278,141.17q-3.33-3.51-7.49-2.42A50.75,50.75,0,0,0,279.72,151l1.5-.89a13.86,13.86,0,0,0-3.27-8.94"/><path class="cls-21" d="M280.92,151.07a57.79,57.79,0,0,0,11.35-11.18,6.5,6.5,0,0,0-4.89.27,14.94,14.94,0,0,0-4.16,2.59,13.32,13.32,0,0,0-4.18,7.34l1.88,1"/><path class="cls-21" d="M284.23,135.71A7.54,7.54,0,0,0,280.9,138q-3.79,4.34-2.09,12a1.54,1.54,0,0,0,1.52,1.2h0a1.51,1.51,0,0,0,1.39-1,41.08,41.08,0,0,0,2.51-14.53"/><ellipse class="cls-17" cx="234.74" cy="149.96" rx="13.56" ry="6.21"/><g id="cup"><path class="cls-22" d="M245.75,133.32V137a3.72,3.72,0,1,1,0,7.43v3.71a7.43,7.43,0,1,0,0-14.85Z"/><path class="cls-23" d="M240.81,128a23.5,23.5,0,0,0-11.78,0q-5.86,1.44-5.68,7.23v11.15q-.19,5.79,5.68,7.24a23.62,23.62,0,0,0,11.78,0q6.12-1.49,5.94-7.2V135.17q.18-5.71-5.94-7.2"/><path class="cls-22" d="M240.51,135c1.63-.62,2.44-1.37,2.44-2.25s-.81-1.65-2.44-2.29a19.19,19.19,0,0,0-11.74,0c-1.62.64-2.43,1.4-2.43,2.29s.81,1.63,2.43,2.25a18.43,18.43,0,0,0,11.74,0"/><path class="cls-24" d="M228.77,135a18.43,18.43,0,0,0,11.74,0,7.18,7.18,0,0,0,1.55-.78,6.72,6.72,0,0,0-1.55-.81,19.19,19.19,0,0,0-11.74,0,6,6,0,0,0-1.51.81,6.36,6.36,0,0,0,1.51.78"/></g><path class="cls-25" d="M123.64,160.39H37.48l-1.92-47.47a4,4,0,0,1,4-4h82a4,4,0,0,1,4,4Z"/><path class="cls-11" d="M89.26,141.13a9.13,9.13,0,0,0-.71-3.38A7.81,7.81,0,0,0,86.67,135a8.67,8.67,0,0,0-14.14,2.88,8.75,8.75,0,0,0-.67,3.41v.5l4.73,0v-.5a4,4,0,0,1,1.15-2.85,4,4,0,0,1,5.61,0,3.78,3.78,0,0,1,1.21,2.85v.47h4.7v-.53"/><path class="cls-26" d="M35.56,160.09h90a0,0,0,0,1,0,0v4.06a3.94,3.94,0,0,1-3.94,3.94H39.49a3.94,3.94,0,0,1-3.94-3.94v-4.06A0,0,0,0,1,35.56,160.09Z"/><g id="시계"><path class="cls-27" d="M77.5,0A19.32,19.32,0,0,0,63.34,5.84,19.34,19.34,0,0,0,57.5,20a19.24,19.24,0,0,0,5.84,14.13,20,20,0,0,0,28.28,0A19.2,19.2,0,0,0,97.5,20,19.3,19.3,0,0,0,91.62,5.84,19.24,19.24,0,0,0,77.5,0"/><path class="cls-28" d="M77.53,5.58a13.91,13.91,0,0,0-10.19,4.2A13.94,13.94,0,0,0,63.14,20a13.88,13.88,0,0,0,4.2,10.19,14.43,14.43,0,0,0,20.35,0A13.83,13.83,0,0,0,91.92,20,13.89,13.89,0,0,0,87.69,9.78a13.85,13.85,0,0,0-10.16-4.2"/><path class="cls-11" d="M77.12,20.91l-.23,0L71,19.56a1,1,0,1,1,.45-2l5.66,1.26.06-.13.22-.38h0l4.1-7a1,1,0,0,1,1.4-.36,1,1,0,0,1,.37,1.41l-4.31,7.33a1,1,0,0,1-.84.51,1,1,0,0,1-1,.68"/><path class="cls-29" d="M78,19.21l.2-.39a1.22,1.22,0,0,0-.73-.23,1.37,1.37,0,0,0-1,.41,1.21,1.21,0,0,0-.38.65l1,.23-1-.23a1.66,1.66,0,0,0,0,.32,1.3,1.3,0,0,0,.41,1,1.37,1.37,0,0,0,1,.41,1.36,1.36,0,0,0,1-.41,1.34,1.34,0,0,0,.41-1,1.29,1.29,0,0,0-.41-1,1.08,1.08,0,0,0-.24-.18l-.2.39"/></g></g></g></svg>