<?xml version="1.0" encoding="utf-8"?>
<!-- Generator: Adobe Illustrator 25.0.1, SVG Export Plug-In . SVG Version: 6.00 Build 0)  -->
<svg version="1.1" id="레이어_1" xmlns="http://www.w3.org/2000/svg" xmlns:xlink="http://www.w3.org/1999/xlink" x="0px"
	 y="0px" width="175px" height="157.6px" viewBox="0 0 175 157.6" style="enable-background:new 0 0 175 157.6;"
	 xml:space="preserve">
<g>
	<g id="Layer_1_208_" transform="matrix( 0.54534912109375, 0, 0, 0.54534912109375, 1099.85,638.8) ">
		<g>
			<g>
				<g>
					<path style="fill:#5A2A14;" d="M-1744.2-897.7c27.1-15.3,41.4-40.6,42.9-75.8H-2010c-1.1,35.9,8.6,60.6,29.2,74.1
						C-1896.2-918.7-1817.3-918.1-1744.2-897.7z"/>
					<path style="fill:#9C4F28;" d="M-1713.3-1057.6c-7.4-36.9-23.9-64.9-49.6-83.8c-25.7-19-58.4-28.7-98.1-29.1
						c-39.6-0.4-71.9,11.4-96.8,35.3c-24.9,24-39.6,54.3-44.2,90.9c-4.6,36.6-6.9,55.2-7,55.9c-0.5,5.2-0.8,10.1-1,14.9h308.8
						c0.2-5.4,0.2-11.1-0.2-16.9C-1702-998.3-1705.9-1020.7-1713.3-1057.6z"/>
				</g>
			</g>
		</g>
	</g>
	<g id="Layer_6_3_" transform="matrix( 0.54534912109375, 0, 0, 0.54534912109375, 1099.85,638.8) ">
		<g id="Layer_1_197_" transform="matrix( 1, 0, 0, 1, -176.15,110.5) ">
			<g>
				<g>
					<g>
						<path style="fill:#9C4F28;" d="M-1789.2-1124.6c1.6-14.3,3.5-30.1,5.7-47.6l-36.4-13.2c-7.4,21.3-12.6,39.1-15.4,53.3
							c-2.9,14.5-4.4,30.5-4.4,48.2c0,14.6,1.6,27.5,4.8,38.8c3.2,11.4,7.9,20.4,14,27.1c5.8,6.4,14.4,11.8,26,16.4
							c9.7,3.8,17.3,5.7,22.8,5.7c7.5,0,12.7-0.3,15.7-0.9c3.1-0.6,5.5-1.6,7.2-3c-1.7-0.8-2.7-1.2-2.7-1.2
							c-11.3-4.8-20.5-15.8-27.7-32.7c-6.7-16-10.5-31.3-11.2-46C-1791.4-1094.5-1790.9-1109.4-1789.2-1124.6z"/>
					</g>
				</g>
			</g>
		</g>
		<g id="Layer_1_196_" transform="matrix( -1, 0, 0, 1, 177.45,113.7) ">
			<g>
				<g>
					<g>
						<path style="fill:#9C4F28;" d="M1924.7-1125.7c1.6-14.3,3.5-30.1,5.7-47.6l-36.4-13.2c-7.4,21.3-12.6,39.1-15.4,53.3
							c-2.9,14.5-4.4,30.5-4.4,48.2c0,14.6,1.6,27.5,4.8,38.8c3.2,11.4,7.9,20.4,14,27.1c5.8,6.4,14.4,11.8,26,16.4
							c9.7,3.8,17.3,5.7,22.8,5.7c7.5,0,12.7-0.3,15.7-0.9c3.1-0.6,5.5-1.6,7.2-3c-1.7-0.8-2.7-1.2-2.7-1.2
							c-11.3-4.8-20.5-15.8-27.7-32.7c-6.7-16-10.5-31.3-11.2-46C1922.5-1095.6,1923-1110.6,1924.7-1125.7z"/>
					</g>
				</g>
			</g>
		</g>
	</g>
	<g id="Layer_1_192_" transform="matrix( 0.54534912109375, 0, 0, 0.54534912109375, 1099.85,638.8) ">
		<g id="Layer_1_195_" transform="matrix( -1, 0, 0, 1, -173.35,120.05) ">
			<g>
				<g>
					<g>
						<path style="fill:#FAD2B7;" d="M1822.3-1102c0-7.3-1.8-13.5-5.4-18.7c-4-5.8-9.4-8.7-16.2-8.7c-8.2,0-14.9,2.8-20.1,8.3
							c-4.5,4.8-8.5,12.4-12,22.7c0,0.4,0,0.9,0,1.4c0.4,6.2,1.1,11.7,2.2,16.3c3.5,14.8,10.6,22.1,21.3,22.1
							c3.9,0,7.7-1.4,11.5-4.1c3.5-2.5,6.7-6,9.6-10.5c2.8-4.3,5-9,6.6-14.1C1821.5-1092.3,1822.3-1097.3,1822.3-1102
							 M1797.4-1115.2c4.4,0.8,7.4,3.3,9.1,7.6c1.6,4,2,8,1.2,12.2c-0.8,4.1-2.1,8.1-4.1,11.8c-2,3.7-4.9,6.2-8.9,7.5
							c-4.1,1.4-8.2,1.3-12.3-0.4c-3.9-1.6-6.6-4.5-8-8.6c-1.3-3.9-2-7.8-2.2-11.9c-0.1-3.5,1.3-6.3,4.3-8.4
							c0.6-0.4,1.2-0.9,1.6-1.5c2.7-3.1,6-5.4,9.8-6.9C1791-1115,1794.1-1115.5,1797.4-1115.2z"/>
						<path style="fill:#F5B39A;" d="M1806.4-1107.6c-1.7-4.3-4.7-6.8-9.1-7.6c-3.3-0.3-6.4,0.2-9.4,1.4c-3.9,1.5-7.1,3.8-9.8,6.9
							c-0.5,0.6-1,1.1-1.6,1.5c-3,2.1-4.4,4.9-4.3,8.4c0.1,4.1,0.9,8,2.2,11.9c1.4,4.1,4.1,6.9,8,8.6c4.1,1.7,8.1,1.8,12.3,0.4
							c4-1.3,6.9-3.8,8.9-7.5c2-3.7,3.4-7.6,4.1-11.8C1808.4-1099.6,1808-1103.7,1806.4-1107.6z"/>
					</g>
				</g>
			</g>
		</g>
		<g>
			<g>
				<g>
					<path style="fill:#9C4F28;" d="M-1951.9-1000.9c0-4.6-0.2-10-0.6-16.2l-5.8-45l-14.7,45c1.7,9.8,4.1,18.4,7.2,25.5
						c2,4.6,4.1,8.3,6.2,10.9c1.8,2.2,3.3,3.3,4.4,3.3c1.4,0,2.3-2.2,2.8-6.7C-1952.1-987-1951.9-992.6-1951.9-1000.9z"/>
				</g>
			</g>
		</g>
		<g id="Layer_1_194_" transform="matrix( 1, 0, 0, 1, 165.4,120.05) ">
			<g>
				<g>
					<g>
						<path style="fill:#FAD2B7;" d="M-1888.4-1102c0-7.3-1.8-13.5-5.4-18.7c-4-5.8-9.4-8.7-16.2-8.7c-8.2,0-14.9,2.8-20.1,8.3
							c-4.5,4.8-8.5,12.4-12,22.7c0,0.4,0,0.9,0,1.4c0.4,6.2,1.1,11.7,2.2,16.3c3.5,14.8,10.6,22.1,21.3,22.1
							c3.9,0,7.7-1.4,11.5-4.1c3.5-2.5,6.7-6,9.6-10.5c2.8-4.3,5-9,6.6-14.1C-1889.2-1092.3-1888.4-1097.3-1888.4-1102
							 M-1913.3-1115.2c4.4,0.8,7.4,3.3,9.1,7.6c1.6,4,2,8,1.2,12.2c-0.8,4.1-2.1,8.1-4.1,11.8c-2,3.7-4.9,6.2-8.9,7.5
							c-4.1,1.4-8.2,1.3-12.3-0.4c-3.9-1.6-6.6-4.5-8-8.6c-1.3-3.9-2-7.8-2.2-11.9c-0.1-3.5,1.3-6.3,4.3-8.4
							c0.6-0.4,1.2-0.9,1.6-1.5c2.7-3.1,6-5.4,9.8-6.9C-1919.7-1115-1916.6-1115.5-1913.3-1115.2z"/>
						<path style="fill:#F5B39A;" d="M-1904.3-1107.6c-1.7-4.3-4.7-6.8-9.1-7.6c-3.3-0.3-6.4,0.2-9.4,1.4c-3.9,1.5-7.1,3.8-9.8,6.9
							c-0.5,0.6-1,1.1-1.6,1.5c-3,2.1-4.4,4.9-4.3,8.4c0.1,4.1,0.9,8,2.2,11.9c1.4,4.1,4.1,6.9,8,8.6c4.1,1.7,8.1,1.8,12.3,0.4
							c4-1.3,6.9-3.8,8.9-7.5c2-3.7,3.4-7.6,4.1-11.8C-1902.3-1099.6-1902.7-1103.7-1904.3-1107.6z"/>
					</g>
				</g>
			</g>
		</g>
		<g>
			<g>
				<g>
					<path style="fill:#9C4F28;" d="M-1766.1-1018c-0.6,8.1-0.9,14.9-0.9,20.6c0,8.3,0.2,13.9,0.5,16.9c0.4,4.5,1.4,6.7,2.8,6.7
						c1.1,0,2.6-1.1,4.4-3.3c2.2-2.7,4.3-6.3,6.2-10.9c3.5-8.2,6.2-18.2,7.9-29.9c4.3-43.7,0.6-57.9-11.1-42.6
						C-1766.8-1064.4-1770.1-1050.2-1766.1-1018z"/>
				</g>
			</g>
		</g>
		<g id="Layer_1_193_" transform="matrix( 1, 0, 0, 1, -7.5,51.95) ">
			<g>
				<g>
					<g>
						<path style="fill:#FAD2B7;" d="M-1751.9-1103.1c0-17.5-3.3-32.6-9.8-45.5c-24-17.2-53.2-27.9-87.5-32.1
							c-35.6,2.6-66.7,13.9-93.5,34c-5.9,12.5-8.9,27-8.9,43.6c0,12.6,0.8,26.5,2.4,41.6c2.1,20.2,3.2,30.9,3.2,31.9
							c0.1,1.2,0.2,4.1,0.4,8.7c0.1,3.5,0.3,6.4,0.6,8.6c0.7,6.7,2.5,12.5,5.3,17.5c0.7,1.2,1.3,2.3,1.8,3.2
							c5.9,9.3,13.9,16,24.1,20.3c10.7,4.5,21.8,7.4,33.3,8.8c9.6,1.1,19.2,1.5,28.8,1.1c9.6,0.4,19.2,0,28.8-1.1
							c11.5-1.4,22.6-4.3,33.3-8.8c10.2-4.3,18.2-11,24.1-20.3c0.5-0.9,1.1-2,1.8-3.2c2.8-5,4.5-10.8,5.3-17.5
							c0.3-2.2,0.5-5.1,0.6-8.6c0.2-4.6,0.3-7.5,0.4-8.7c0.1-1,1.1-11.7,3.2-31.9C-1752.7-1076.6-1751.9-1090.4-1751.9-1103.1z"/>
					</g>
				</g>
			</g>
		</g>
	</g>
	<g id="___11_" transform="matrix( 0.54534912109375, 0, 0, 0.54534912109375, 1099.85,638.8) ">
		<g id="Layer_2_45_" transform="matrix( 1, 0, 0, 1, -0.35,179.3) ">
			<g>
				<g>
					<g>
						<path style="fill:#2D0A09;" d="M-1839-1121.1c-0.3,0-0.5,0-0.7,0.2c-11,8.4-21.8,8.5-32.6,0.5c-0.2-0.2-0.5-0.2-0.7-0.2
							c-0.3,0-0.5,0.2-0.6,0.4c-0.2,0.2-0.2,0.5-0.2,0.7c0,0.3,0.2,0.5,0.4,0.6c11.5,8.6,23.1,8.4,34.9-0.5c0.2-0.2,0.3-0.4,0.4-0.6
							c0.1-0.3,0-0.5-0.2-0.7C-1838.5-1120.9-1838.7-1121-1839-1121.1z"/>
					</g>
				</g>
			</g>
		</g>
	</g>
	<g id="__19_" transform="matrix( 0.54534912109375, 0, 0, 0.54534912109375, 1099.85,638.8) ">
		<g id="Layer_1_191_" transform="matrix( 1, 0, 0, 1, -0.35,149.8) ">
			<g>
				<g>
					<g>
						<path style="fill:#DC7D5B;" d="M-1855.3-1108.6l-0.5-0.1l-1.6,0l-0.2,0h-0.1l-0.1,0l-0.3,0l-0.2,0.1h-0.1l-0.6,0.2l-0.2,0.1
							l-0.2,0.1l-0.4,0.2l-0.1,0l-0.5,0.3l-0.1,0.1l-0.4,0.3l-0.7,0.7l-0.3,0.3l-0.4,0.6l0,0.1l-0.2,0.4l0,0.1l0,0.1l0,0.2l-0.1,0.3
							l-0.1,1.1l0,0.2v0.2l0.1,0.3l0.2,0.5l0.1,0.1l0.2-0.2l0.1-0.1l0.5-0.6l0.1-0.1l0.4-0.4l0.3-0.2l0.1-0.1l0.1-0.1l0,0l0.1,0
							l0.2-0.1l0,0l0.1,0l0.1,0l0.2-0.1l0.2,0l0.4-0.2h0.1l0.1,0l0.1,0h0.1l0.1,0h0.1l0.1,0h0.1l0.1,0h0.3l0.1,0h0.3l0.2,0h0.9
							l0.1,0h0.6l0.1,0h0.2l0.1,0h0.2l0.1,0h0.2l0.1,0h0.1l0.3,0.1h0.1l0.1,0h0.1l0.1,0l0.1,0h0.1l0.3,0.1h0.1l0.1,0l0,0l0.3,0.1
							l0.1,0.1l0.1,0l0,0l0.2,0.1l0.1,0.1l0.1,0.1l0.2,0.2l0,0l0.1,0l0.1,0.1l0.5,0.5l0.1,0.1l0.5,0.6l0.1,0.1l0.2,0.3
							c0,0.1,0,0.1,0.1,0v0l0.1-0.2l0.1-0.4l0-0.2c0.1-0.2,0.1-0.5,0.1-0.9l0-0.6l-0.1-0.2v-0.1l-0.4-1.1l-0.5-0.7l-0.1-0.1l0-0.1
							l-0.2-0.2l-0.1-0.1l-0.1-0.1l-0.2-0.2l-0.2-0.1l-0.2-0.2l-0.1-0.1l-1.2-0.6l-0.2-0.1l-0.1-0.1h0l-0.1,0l-0.7-0.2l-0.2,0
							L-1855.3-1108.6z"/>
					</g>
				</g>
			</g>
		</g>
	</g>
	<g id="__18_" transform="matrix( 0.54534912109375, 0, 0, 0.54534912109375, 1099.85,638.8) ">
		<g id="Layer_1_190_" transform="matrix( 1, 0, 0, 1, 88.25,166.4) ">
			<g transform="matrix( 1, 0, 0, 1, -680.95,-411.55) ">
				<g>
					<g>
						<path style="fill:#F5B39A;" d="M-1184.5-698.8c0-2-2.2-3.6-6.6-5c-4.4-1.4-9.7-2.1-15.9-2.1c-6.2,0-11.5,0.7-15.9,2.1
							c-4.4,1.4-6.6,3.1-6.6,5s2.2,3.6,6.6,5c4.4,1.4,9.7,2.1,15.9,2.1c6.2,0,11.5-0.7,15.9-2.1
							C-1186.7-695.1-1184.5-696.8-1184.5-698.8z"/>
					</g>
				</g>
			</g>
		</g>
	</g>
	<g id="__17_" transform="matrix( 0.54534912109375, 0, 0, 0.54534912109375, 1099.85,638.8) ">
		<g id="Layer_1_189_" transform="matrix( 1, 0, 0, 1, -90.85,166.4) ">
			<g transform="matrix( 1, 0, 0, 1, -680.95,-411.55) ">
				<g>
					<g>
						<path style="fill:#F5B39A;" d="M-1121.2-698.8c0-2-2.2-3.6-6.6-5c-4.4-1.4-9.7-2.1-15.9-2.1c-6.2,0-11.5,0.7-15.9,2.1
							c-4.4,1.4-6.6,3.1-6.6,5s2.2,3.6,6.6,5c4.4,1.4,9.7,2.1,15.9,2.1c6.2,0,11.5-0.7,15.9-2.1
							C-1123.4-695.1-1121.2-696.8-1121.2-698.8z"/>
					</g>
				</g>
			</g>
		</g>
	</g>
	<g id="Layer_13_11_" transform="matrix( 0.54534912109375, 0, 0, 0.54534912109375, 1099.85,638.8) ">
		<g transform="matrix( 1.686859130859375, 0, 0, 1.6790008544921875, -1019.55,-526.55) ">
			<g>
				<g>
					<path style="fill:#FFFFFF;" d="M-451.6-274.1c0-4.8-1.7-9-5.1-12.4c-3.4-3.4-7.5-5.1-12.4-5.1s-9,1.7-12.4,5.1
						c-3.4,3.4-5.1,7.6-5.1,12.4s1.7,9,5.1,12.4c3.4,3.4,7.6,5.1,12.4,5.1s9-1.7,12.4-5.1C-453.3-265.1-451.6-269.3-451.6-274.1z"/>
				</g>
			</g>
		</g>
	</g>
	<g id="Layer_12_11_" transform="matrix( 0.54534912109375, 0, 0, 0.54534912109375, 1099.85,638.8) ">
		<g transform="matrix( 1.3050994873046875, 0, 0, 1.4173583984375, -769.95,-423.9) ">
			<g>
				<g>
					<path style="fill:#2E130D;" d="M-782.2-394.2c0-4.6-1.6-8.5-4.8-11.7c-3.2-3.2-7.1-4.8-11.7-4.8s-8.5,1.6-11.7,4.8
						c-3.2,3.2-4.8,7.1-4.8,11.7c0,4.6,1.6,8.5,4.8,11.7c3.2,3.2,7.1,4.8,11.7,4.8s8.5-1.6,11.7-4.8
						C-783.8-385.8-782.2-389.7-782.2-394.2z"/>
				</g>
			</g>
		</g>
	</g>
	<g id="Layer_11_11_" transform="matrix( 0.54534912109375, 0, 0, 0.54534912109375, 1099.85,638.8) ">
		<g transform="matrix( -1.24346923828125, 0, 0, 1.24346923828125, -21.35,-13.6) ">
			<g>
				<g>
					<path style="fill:#FFFFFF;" d="M1452.7-787.6c0-1.1-0.4-2-1.2-2.8c-0.8-0.8-1.7-1.2-2.8-1.2c-1.1,0-2.1,0.4-2.8,1.2
						c-0.8,0.8-1.2,1.7-1.2,2.8c0,1.1,0.4,2.1,1.2,2.8c0.8,0.8,1.7,1.2,2.8,1.2c1.1,0,2.1-0.4,2.8-1.2
						C1452.3-785.5,1452.7-786.5,1452.7-787.6z"/>
				</g>
			</g>
		</g>
	</g>
	<g id="Layer_10_10_" transform="matrix( 0.54534912109375, 0, 0, 0.54534912109375, 1099.85,638.8) ">
		<g transform="matrix( -1.686859130859375, 0, 0, 1.6790008544921875, 1013.7,-526.55) ">
			<g>
				<g>
					<path style="fill:#FFFFFF;" d="M1748.6-274.1c0-4.8-1.7-9-5.1-12.4c-3.4-3.4-7.5-5.1-12.4-5.1s-9,1.7-12.4,5.1
						c-3.4,3.4-5.1,7.6-5.1,12.4s1.7,9,5.1,12.4c3.4,3.4,7.6,5.1,12.4,5.1s9-1.7,12.4-5.1C1746.9-265.1,1748.6-269.3,1748.6-274.1z"
						/>
				</g>
			</g>
		</g>
	</g>
	<g id="Layer_9_3_" transform="matrix( 0.54534912109375, 0, 0, 0.54534912109375, 1099.85,638.8) ">
		<g transform="matrix( -1.3050994873046875, 0, 0, 1.4173583984375, 764.1,-423.9) ">
			<g>
				<g>
					<path style="fill:#2E130D;" d="M2061.6-394.2c0-4.6-1.6-8.5-4.8-11.7c-3.2-3.2-7.1-4.8-11.7-4.8c-4.6,0-8.5,1.6-11.7,4.8
						c-3.2,3.2-4.8,7.1-4.8,11.7c0,4.6,1.6,8.5,4.8,11.7c3.2,3.2,7.1,4.8,11.7,4.8c4.6,0,8.5-1.6,11.7-4.8
						C2060-385.8,2061.6-389.7,2061.6-394.2z"/>
				</g>
			</g>
		</g>
	</g>
	<g id="Layer_8_10_" transform="matrix( 0.54534912109375, 0, 0, 0.54534912109375, 1099.85,638.8) ">
		<g transform="matrix( 1.24346923828125, 0, 0, 1.24346923828125, 15.5,-13.6) ">
			<g>
				<g>
					<path style="fill:#FFFFFF;" d="M-1532.1-787.6c0-1.1-0.4-2-1.2-2.8c-0.8-0.8-1.7-1.2-2.8-1.2s-2.1,0.4-2.8,1.2
						c-0.8,0.8-1.2,1.7-1.2,2.8c0,1.1,0.4,2.1,1.2,2.8c0.8,0.8,1.7,1.2,2.8,1.2s2.1-0.4,2.8-1.2
						C-1532.5-785.5-1532.1-786.5-1532.1-787.6z"/>
				</g>
			</g>
		</g>
	</g>
	<g id="_______22_" transform="matrix( 0.54534912109375, 0, 0, 0.54534912109375, 1099.85,638.8) ">
		<g id="Layer_5_27_" transform="matrix( 1, 0, 0, 1, 71,77.5) ">
		</g>
		<g id="Layer_3_34_" transform="matrix( 1, 0, 0, 1, 71,77.5) ">
			<g>
				<g>
					<g>
						<path style="fill:#E5A790;" d="M-1877.7-1034.9l-2.7,0.3h-0.3c-0.1,0-0.3,0-0.6,0l-0.9,0.1l-4.8-0.2l-0.6-0.1h-0.2l-0.2,0
							h-0.1l-0.2,0c-0.6-0.1-1.3-0.2-2.3-0.4l-0.4-0.1h-0.1l-0.1,0l-1.4-0.4l-0.1-0.1l-2.2-0.8l-0.2-0.1l-0.3-0.1l-1.4-0.6
							c-0.1-0.1-0.1-0.1-0.1,0v0.1l0.5,0.5l0.1,0l0,0.1l0.1,0.1l0.2,0.2l0.3,0.2l0.3,0.3l0.3,0.2c0,0,0.1,0.1,0.2,0.1l1.3,0.9
							l2.2,1.2l0.3,0.1c0.7,0.3,1.5,0.6,2.4,0.8l0.3,0.1l0.2,0.1l2.4,0.4h0.2l1,0.1h0.5l0.2,0h0.7c1.2,0,2.1-0.1,2.7-0.2l4.5-0.9
							l2.7-0.9l3-1.4l0.3-0.2l0.2-0.1l0.6-0.4l0-0.1l-0.1,0l-8.3,1.1H-1877.7z"/>
					</g>
				</g>
			</g>
		</g>
		<g id="Layer_1_188_" transform="matrix( 1, 0, 0, 1, 71,77.5) ">
			<g>
				<g>
					<g>
						<path style="fill:#270E0A;" d="M-1879.5-1094.9l-1.9-0.2l-0.1,0h-1.2l-0.1,0l-1.2,0l-0.2,0l-0.8,0l-0.1,0h-0.1l-3.1,0.4
							c-1.4,0.3-2.5,0.5-3.2,0.8l-3.3,1.1l-0.2,0.1l-0.7,0.3l-0.1,0.1l-0.1,0l-3.5,1.9l-0.6,0.4c-0.5,0.3-1.2,0.9-2.3,1.6l-3,2.8
							l-2.6,3.1l-3,4.6c-0.1,0.1-0.1,0.1,0,0.1c0,0,0,0,0.1,0l1.9-2.3c0.7-0.8,1.5-1.6,2.3-2.5l0.4-0.4l2.9-2.6
							c0.5-0.4,1.2-0.9,2-1.5l1.6-1.1l0.2-0.1l0.1-0.1l2.1-1.2l0.3-0.1l0.2-0.1l2.5-1l0.2-0.1l0.2,0l0.8-0.3l0.1,0l0.2,0l1.5-0.5
							l3.4-0.7c1.2-0.2,2.2-0.3,3.1-0.4l0.8-0.1h0.2l0.2,0l2.1,0l0.2,0l1.8,0.2h0.2l0.8,0.1c1.1,0.2,2.1,0.4,3.1,0.6l0.2,0l1.7,0.4
							l0.2,0.1l0.2,0l2.9,1l0.7,0.3l0.2,0.1l1.5,0.7l0.2,0.1l0.1,0l0.7,0.4l0.2,0.1l0.8,0.5l0.2,0.1l1.3,0.8c1.4,0.8,2.8,1.8,4.2,3
							l2.9,2.6l4.6,5.2c0,0,0.1,0,0.1,0v-0.1l-1.2-2l-3.5-4.8l-0.1-0.1l-0.2-0.2l-0.6-0.6l-0.2-0.2l-2.3-2.2l-0.8-0.6
							c0-0.1-0.1-0.1-0.3-0.2l-1.7-1.3c-0.5-0.3-1.3-0.9-2.5-1.6l-0.7-0.4l-0.1-0.1l-0.1,0l-0.2-0.1l-1.6-0.8l-0.1,0l-0.1,0
							c-1.1-0.5-2.1-0.9-3-1.2l-4-1.1l-0.2,0l-0.2-0.1l-3.1-0.5H-1879.5z"/>
					</g>
				</g>
			</g>
		</g>
		<g id="Layer_4_20_" transform="matrix( 1, 0, 0, 1, 71,77.5) ">
			<g>
				<g>
					<g>
						<path style="fill:#270E0A;" d="M-1859.9-1094.7L-1859.9-1094.7l-0.1,0.1l-0.1,0l-0.1,0l-0.1,0.1l-0.6,0.4l-0.1,0.1l-0.2,0.2
							l-0.1,0.1l-0.1,0.1l-0.4,0.3l-0.1,0.1l-0.6,0.6l0,0.1l-0.5,0.6l0,0.1l-0.1,0.1l-0.5,0.7l-0.1,0.2l-0.1,0.1l-0.2,0.3l-0.3,0.5
							l-0.1,0.1l-0.4,0.8l0,0.1l0,0.1c0,0.1,0,0.1,0,0.1h0.1l0.1-0.1l0.1,0l0.1,0l0.1-0.1l0.6-0.4l0.1-0.1l0.2-0.2l0.1-0.1l0.1-0.1
							l0.4-0.3l0.1-0.1l0.6-0.6l0-0.1l0.5-0.6l0-0.1l0.1-0.1l0.5-0.7l0.1-0.2l0.1-0.1l0.2-0.3l0.3-0.5l0.1-0.1l0.4-0.8l0-0.1
							V-1094.7L-1859.9-1094.7z"/>
					</g>
				</g>
			</g>
			<g>
				<g>
					<g>
						<path style="fill:#270E0A;" d="M-1878-1101.9L-1878-1101.9l-0.2,0.2l0,0.1l-0.4,0.9l0,0.1l-0.1,0.3l0,0.2l-0.1,0.2l-0.5,1.7
							v0.1l0,0.1l-0.1,0.8l0,0.1v0.1l-0.1,1v0.2l0,0.1v2.3l0,0.1v0.1l0,0.1l0.1,0.1l0,0l0.1-0.2l0-0.1l0.4-0.9l0-0.1l0.1-0.3l0-0.2
							l0.1-0.2l0.5-1.7v-0.1l0-0.1l0.1-0.8l0-0.1v-0.1l0.1-1.2l0-0.1v-0.1l0-0.4l0-1.8l0-0.1v-0.1L-1878-1101.9L-1878-1101.9z"/>
					</g>
				</g>
			</g>
			<g>
				<g>
					<g>
						<path style="fill:#270E0A;" d="M-1898.2-1099.3v0.3l0,0.1v0.1l0.3,1.3l0.1,0.2l0.6,1.8l0.1,0.1l1,2.2l0.1,0.1l0.3,0.5l0.1,0.1
							l0.2,0.3l0.6,0.8l0,0.1l0.2,0.2c0,0,0,0,0.1,0v-0.3l0-0.1v-0.1l-0.3-1.3l-0.1-0.2l0-0.2l-0.5-1.7l-0.1-0.1l-1-2.2l-0.1-0.1
							l-0.3-0.5l-0.1-0.1l-0.2-0.3l-0.6-0.8l0-0.1L-1898.2-1099.3C-1898.1-1099.2-1898.1-1099.3-1898.2-1099.3z"/>
					</g>
				</g>
			</g>
		</g>
		<g id="_22_" transform="matrix( 1, 0, 0, 1, 71,77.5) ">
			<g id="Layer_1_187_" transform="matrix( 1, 0, 0, 1, 4.15,-61.25) ">
				<g>
					<g>
						<g>
							<path style="fill:#431E16;" d="M-1879.6-1063.7c-0.8-0.2-1.5-0.4-2.2-0.5c-0.5-0.1-1.2-0.2-2.2-0.3c-1,0-1.7-0.1-2.2,0h-0.5
								c-0.1,0-0.3,0-0.5,0l-3.1,0.4l-0.5,0.1l-0.3,0l-3,0.9l-4.6,2l-3.7,2.4l-0.9,0.7c-0.1,0-0.1,0,0,0.1h0.1l7.7-2.8l3.8-0.9
								c0.6-0.1,1.2-0.2,1.8-0.3l0.7-0.1h0.2l0.5-0.1h4.4l0.7,0.1h0.2l1,0.2c1.2,0.2,2.5,0.5,3.8,0.9l2.1,0.8l0.2,0.1l0.2,0.1
								l0.1,0.1l0.1,0l1.5,0.7l0.2,0.1l2.7,1.6c0.1,0,0.2,0.1,0.4,0.2l4.3,3.1l0.1,0.1l3,2.6h0.1v-0.1l-0.8-1.3l-3.1-3.7l-3.9-3.4
								l-3.5-2.2l-0.1,0l-0.2-0.1l-0.7-0.3l-0.2-0.1l-0.5-0.2c-0.5-0.2-0.8-0.3-1-0.4l-0.5-0.2l-0.3-0.1l-0.3-0.1L-1879.6-1063.7z"
								/>
						</g>
					</g>
				</g>
			</g>
		</g>
	</g>
	<g id="_______21_" transform="matrix( 0.54534912109375, 0, 0, 0.54534912109375, 1099.85,638.8) ">
		<g id="Layer_5_26_" transform="matrix( -1, 0, 0, 1, -76.85,77.5) ">
		</g>
		<g id="Layer_3_33_" transform="matrix( -1, 0, 0, 1, -76.85,77.5) ">
			<g>
				<g>
					<g>
						<path style="fill:#E5A790;" d="M1833.7-1034.9l-2.7,0.3h-0.3c-0.1,0-0.3,0-0.6,0l-0.9,0.1l-4.8-0.2l-0.6-0.1h-0.2l-0.2,0h-0.1
							l-0.2,0c-0.6-0.1-1.3-0.2-2.3-0.4l-0.4-0.1h-0.1l-0.1,0l-1.4-0.4l-0.1-0.1l-2.2-0.8l-0.2-0.1l-0.3-0.1l-1.4-0.6
							c-0.1-0.1-0.1-0.1-0.1,0v0.1l0.5,0.5l0.1,0l0,0.1l0.1,0.1l0.2,0.2l0.3,0.2l0.3,0.3l0.3,0.2c0,0,0.1,0.1,0.2,0.1l1.3,0.9
							l2.2,1.2l0.3,0.1c0.7,0.3,1.5,0.6,2.4,0.8l0.3,0.1l0.2,0.1l2.4,0.4h0.2l1,0.1h0.5l0.2,0h0.7c1.2,0,2.1-0.1,2.7-0.2l4.5-0.9
							l2.7-0.9l3-1.4l0.3-0.2l0.2-0.1l0.6-0.4l0-0.1l-0.1,0l-8.3,1.1H1833.7z"/>
					</g>
				</g>
			</g>
		</g>
		<g id="Layer_1_186_" transform="matrix( -1, 0, 0, 1, -76.85,77.5) ">
			<g>
				<g>
					<g>
						<path style="fill:#270E0A;" d="M1831.9-1094.9l-1.9-0.2l-0.1,0h-1.2l-0.1,0l-1.2,0l-0.2,0l-0.8,0l-0.1,0h-0.1l-3.1,0.4
							c-1.4,0.3-2.5,0.5-3.2,0.8l-3.3,1.1l-0.2,0.1l-0.7,0.3l-0.1,0.1l-0.1,0l-3.5,1.9l-0.6,0.4c-0.5,0.3-1.2,0.9-2.3,1.6l-3,2.8
							l-2.6,3.1l-3,4.6c-0.1,0.1-0.1,0.1,0,0.1c0,0,0,0,0.1,0l1.9-2.3c0.7-0.8,1.5-1.6,2.3-2.5l0.4-0.4l2.9-2.6
							c0.5-0.4,1.2-0.9,2-1.5l1.6-1.1l0.2-0.1l0.1-0.1l2.1-1.2l0.3-0.1l0.2-0.1l2.5-1l0.2-0.1l0.2,0l0.8-0.3l0.1,0l0.2,0l1.5-0.5
							l3.4-0.7c1.2-0.2,2.2-0.3,3.1-0.4l0.8-0.1h0.2l0.2,0l2.1,0l0.2,0l1.8,0.2h0.2l0.8,0.1c1.1,0.2,2.1,0.4,3.1,0.6l0.2,0l1.7,0.4
							l0.2,0.1l0.2,0l2.9,1l0.7,0.3l0.2,0.1l1.5,0.7l0.2,0.1l0.1,0l0.7,0.4l0.2,0.1l0.8,0.5l0.2,0.1l1.3,0.8c1.4,0.8,2.8,1.8,4.2,3
							l2.9,2.6l4.6,5.2c0,0,0.1,0,0.1,0v-0.1l-1.2-2l-3.5-4.8l-0.1-0.1l-0.2-0.2l-0.6-0.6l-0.2-0.2l-2.3-2.2l-0.8-0.6
							c0-0.1-0.1-0.1-0.3-0.2l-1.7-1.3c-0.5-0.3-1.3-0.9-2.5-1.6l-0.7-0.4l-0.1-0.1l-0.1,0l-0.2-0.1l-1.6-0.8l-0.1,0l-0.1,0
							c-1.1-0.5-2.1-0.9-3-1.2l-4-1.1l-0.2,0l-0.2-0.1l-3.1-0.5H1831.9z"/>
					</g>
				</g>
			</g>
		</g>
		<g id="Layer_4_19_" transform="matrix( -1, 0, 0, 1, -76.85,77.5) ">
			<g>
				<g>
					<g>
						<path style="fill:#270E0A;" d="M1851.6-1094.7L1851.6-1094.7l-0.1,0.1l-0.1,0l-0.1,0l-0.1,0.1l-0.6,0.4l-0.1,0.1l-0.2,0.2
							l-0.1,0.1l-0.1,0.1l-0.4,0.3l-0.1,0.1l-0.6,0.6l0,0.1l-0.5,0.6l0,0.1l-0.1,0.1l-0.5,0.7l-0.1,0.2l-0.1,0.1l-0.2,0.3l-0.3,0.5
							l-0.1,0.1l-0.4,0.8l0,0.1l0,0.1c0,0.1,0,0.1,0,0.1h0.1l0.1-0.1l0.1,0l0.1,0l0.1-0.1l0.6-0.4l0.1-0.1l0.2-0.2l0.1-0.1l0.1-0.1
							l0.4-0.3l0.1-0.1l0.6-0.6l0-0.1l0.5-0.6l0-0.1l0.1-0.1l0.5-0.7l0.1-0.2l0.1-0.1l0.2-0.3l0.3-0.5l0.1-0.1l0.4-0.8l0-0.1
							V-1094.7L1851.6-1094.7z"/>
					</g>
				</g>
			</g>
			<g>
				<g>
					<g>
						<path style="fill:#270E0A;" d="M1833.5-1101.9L1833.5-1101.9l-0.2,0.2l0,0.1l-0.4,0.9l0,0.1l-0.1,0.3l0,0.2l-0.1,0.2l-0.5,1.7
							v0.1l0,0.1l-0.1,0.8l0,0.1v0.1l-0.1,1v0.2l0,0.1v2.3l0,0.1v0.1l0,0.1l0.1,0.1l0,0l0.1-0.2l0-0.1l0.4-0.9l0-0.1l0.1-0.3l0-0.2
							l0.1-0.2l0.5-1.7v-0.1l0-0.1l0.1-0.8l0-0.1v-0.1l0.1-1.2l0-0.1v-0.1l0-0.4l0-1.8l0-0.1v-0.1L1833.5-1101.9L1833.5-1101.9z"/>
					</g>
				</g>
			</g>
			<g>
				<g>
					<g>
						<path style="fill:#270E0A;" d="M1813.3-1099.3v0.3l0,0.1v0.1l0.3,1.3l0.1,0.2l0.6,1.8l0.1,0.1l1,2.2l0.1,0.1l0.3,0.5l0.1,0.1
							l0.2,0.3l0.6,0.8l0,0.1l0.2,0.2c0,0,0,0,0.1,0v-0.3l0-0.1v-0.1l-0.3-1.3l-0.1-0.2l0-0.2l-0.5-1.7l-0.1-0.1l-1-2.2l-0.1-0.1
							l-0.3-0.5l-0.1-0.1l-0.2-0.3l-0.6-0.8l0-0.1L1813.3-1099.3C1813.4-1099.2,1813.3-1099.3,1813.3-1099.3z"/>
					</g>
				</g>
			</g>
		</g>
		<g id="_21_" transform="matrix( -1, 0, 0, 1, -76.85,77.5) ">
			<g id="Layer_1_185_" transform="matrix( 1, 0, 0, 1, 4.15,-61.25) ">
				<g>
					<g>
						<g>
							<path style="fill:#431E16;" d="M1831.9-1063.7c-0.8-0.2-1.5-0.4-2.2-0.5c-0.5-0.1-1.2-0.2-2.2-0.3c-1,0-1.7-0.1-2.2,0h-0.5
								c-0.1,0-0.3,0-0.5,0l-3.1,0.4l-0.5,0.1l-0.3,0l-3,0.9l-4.6,2l-3.7,2.4l-0.9,0.7c-0.1,0-0.1,0,0,0.1h0.1l7.7-2.8l3.8-0.9
								c0.6-0.1,1.2-0.2,1.8-0.3l0.7-0.1h0.2l0.5-0.1h4.4l0.7,0.1h0.2l1,0.2c1.2,0.2,2.5,0.5,3.8,0.9l2.1,0.8l0.2,0.1l0.2,0.1
								l0.1,0.1l0.1,0l1.5,0.7l0.2,0.1l2.7,1.6c0.1,0,0.2,0.1,0.4,0.2l4.3,3.1l0.1,0.1l3,2.6h0.1v-0.1l-0.8-1.3l-3.1-3.7l-3.9-3.4
								l-3.5-2.2l-0.1,0l-0.2-0.1l-0.7-0.3l-0.2-0.1l-0.5-0.2c-0.5-0.2-0.8-0.3-1-0.4l-0.5-0.2l-0.3-0.1l-0.3-0.1L1831.9-1063.7z"/>
						</g>
					</g>
				</g>
			</g>
		</g>
	</g>
	<g id="Layer_4_18_" transform="matrix( 0.54534912109375, 0, 0, 0.54534912109375, 1099.85,638.8) ">
		<g id="Layer_1_184_" transform="matrix( 1, 0, 0, 1, -3.7,-63.65) ">
			<g>
				<g>
					<g>
						<path style="fill:#9C4F28;" d="M-1935.6-1048.7c-4.7,3.1-7.4,4.8-8,5.1c-4.7,2.5-8.5,6.5-11.2,11.9c-2.2,4.3-3.8,9.6-4.9,16
							c-0.6,3.6-1,7.5-1.1,11.6c-0.2,5.5-0.4,10.3-0.7,14.5c3.8,0.9,7.7,1.6,11.5,2.1c3,0.4,6,0.7,9,0.9c3.7,0.2,7.5,0.3,11.3,0.2
							c0-0.7,0-1.4,0-2c0-0.6,0-1.2,0.1-1.7c0.2-1.9,0.5-3.7,0.8-5.5c0.2,0.9,0.5,1.8,0.7,2.7c0.6,2.2,1.3,4.3,2.1,6.4
							c0.6,0,1.1,0,1.7-0.1c3.4-0.2,6.8-0.5,10.2-1c2.3-0.3,4.6-0.7,6.9-1.1c2.9-0.5,5.8-1.2,8.6-1.9c0-0.3-0.1-0.5-0.1-0.8
							c-0.6-4.4-0.8-8.8-0.6-13.2c0.1-2.4,0.2-4.8,0.4-7.2c0.1-1.2,0.3-2.3,0.5-3.4c0.2,3.1,0.6,6.2,1.3,9.3c0.6,2.7,1.4,5.4,2.3,8
							c1.1,3.3,2.5,6.5,4.2,9.5c0.9,0,1.8,0,2.7,0c2.3-0.2,4.6-0.7,6.9-1.3c-0.7-3-1.4-6.1-1.9-9.2c-0.7-3.8-1.1-7.7-1.3-11.7
							c-0.1-3.8,0-7.6,0.4-11.4c0.4-4,1-8,1.7-12c0.3,3,0.6,6,1,9c0.4,3.6,0.9,7.1,1.5,10.7c0.6,3.9,1.3,7.6,2.3,11.3
							c1,4,2.3,8,3.8,11.8c0.4,0.9,0.7,1.9,1.1,2.9l5.1,0.7c-1.1-3.1-2-6.3-2.6-9.6c-0.5-2.5-0.7-5.1-0.7-7.7c0-1.4,0-2.7,0-4
							c0.3,3.3,0.9,6.5,1.9,9.7c1.1,3.3,2.3,6.4,3.8,9.4c0.4,0.9,0.9,1.8,1.3,2.7c2.8,0.3,5.6,0.4,8.5,0.4c2.5,0,4.9-0.1,7.4-0.3
							c0.3,0,0.7-0.1,1-0.1c2.9-0.2,5.7-0.6,8.4-1.1c0.6-0.1,1.1-0.2,1.7-0.3c1.5-4,2.7-8,3.7-12.2c1.1-4.7,2-9.4,2.6-14.1
							c0.5-3.7,0.8-7.4,1.1-11.1c0.2-2.2,0.3-4.5,0.3-6.8c0-0.6,0-1.2,0.1-1.8c0.8,4.1,1.4,8.3,1.8,12.4c0.4,3.9,0.5,7.7,0.4,11.4
							c-0.2,4-0.6,7.9-1.3,11.7c-0.6,3.1-1.2,6.1-1.9,9.2c2.2,0.7,4.5,1.1,6.9,1.3c0.9,0.1,1.8,0.1,2.7,0c1.7-3,3.1-6.2,4.2-9.5
							c0.9-2.7,1.6-5.4,2.3-8c0.7-3.1,1.2-6.2,1.3-9.3c0.3,1.1,0.5,2.2,0.5,3.4c0.2,2.4,0.3,4.8,0.4,7.2c0.2,4.4,0,8.8-0.6,13.2
							c0,0.3-0.1,0.5-0.1,0.8c2.9,0.7,5.7,1.3,8.6,1.9c2.3,0.4,4.6,0.7,6.9,1.1c3.4,0.4,6.8,0.8,10.2,1c0.6,0,1.1,0,1.7,0.1
							c0.8-2.1,1.6-4.2,2.1-6.4c0.3-0.9,0.5-1.8,0.7-2.7c0.3,1.8,0.6,3.6,0.8,5.5c0,0.6,0.1,1.1,0.1,1.7c0,0.7,0,1.3,0,2
							c3.8,0.1,7.6,0,11.3-0.2c3-0.2,6-0.5,9-0.9c3.6-0.5,7.2-1.1,10.8-1.9c0-0.2,0-0.4-0.1-0.5c-0.1-0.9-0.2-2.4-0.2-4.5
							c-0.1-2.3-0.4-6.3-1.1-12c-0.6-5.5-1-8.7-1-9.7c0-3-0.1-5.1-0.4-6.4c-0.3-1.4-1-2.9-2-4.3c-1.6-2.7-3-4.8-4.1-6.2
							c-2-2.6-4.7-5-8.2-7.1c-17.4-10.7-31.7-18.2-42.9-22.6c-15.4-6.1-30.9-9.1-46.4-9.1c-5.6,0-13.6,0.9-24.1,2.6
							c-10.6,1.8-18.3,3.5-23.2,5.3c-8.3,3-15.2,5.8-20.6,8.4C-1927.5-1053.8-1931.3-1051.6-1935.6-1048.7z"/>
					</g>
				</g>
			</g>
		</g>
		<g id="Layer_2_44_" transform="matrix( 1, 0, 0, 1, -3.7,-63.65) ">
			<g>
				<g>
					<g>
						<path style="fill:#6DC095;" d="M-1759.6-1042.3c-8.3-15.1-20.3-26.4-36-33.9c-16.1-7.6-33-11.9-50.8-12.7
							c-17.5-1-34.5,1-51.3,6.1c-17.4,5.3-31.7,15.1-43,29.3l-6.8,9.3c3.8-2.3,7.6-4.5,11.5-6.6c14.8-7.9,30.4-13.6,46.9-17
							c19.6-4.1,39.3-4.8,59.1-2.4C-1804.1-1066.8-1780.7-1057.5-1759.6-1042.3z"/>
					</g>
				</g>
			</g>
		</g>
	</g>
</g>
</svg>
