<?xml version="1.0" encoding="utf-8"?>
<!-- Generator: Adobe Illustrator 16.0.0, SVG Export Plug-In . SVG Version: 6.00 Build 0)  -->
<!DOCTYPE svg PUBLIC "-//W3C//DTD SVG 1.1//EN" "http://www.w3.org/Graphics/SVG/1.1/DTD/svg11.dtd">
<svg version="1.1" id="레이어_1" xmlns="http://www.w3.org/2000/svg" xmlns:xlink="http://www.w3.org/1999/xlink" x="0px"
	 y="0px" width="319.6px" height="215.1px" viewBox="0 0 319.6 215.1" style="enable-background:new 0 0 319.6 215.1;"
	 xml:space="preserve">
<style type="text/css">
<![CDATA[
	.st0{fill:#7B4320;}
	.st1{fill:#E5815C;}
	.st2{fill:none;stroke:#431E17;stroke-width:2.1999;stroke-linecap:round;stroke-linejoin:round;stroke-miterlimit:2.1999;}
	.st3{fill:#B352D7;}
	.st4{fill:#ECAA92;}
	.st5{fill:#581F15;}
	.st6{fill:none;stroke:#E5815C;stroke-width:3.2998;stroke-linecap:round;stroke-linejoin:round;stroke-miterlimit:2.1999;}
	.st7{fill:#270F0B;}
	.st8{fill:none;stroke:#EE6464;stroke-width:1.55;stroke-linecap:round;stroke-linejoin:round;stroke-miterlimit:2.0535;}
	.st9{fill:none;stroke:#2E0A0A;stroke-width:1.0999;stroke-linecap:round;stroke-linejoin:round;stroke-miterlimit:2.1999;}
	.st10{fill:#983232;}
	.st11{fill:#2E130E;}
	.st12{fill:#FFB79C;}
	.st13{fill:#FFD4B8;}
	.st14{fill:#FFECA3;}
	.st15{fill:#FFFFFF;}
	.st16{fill:#64331C;}
	.st17{fill:none;stroke:#ECAA92;stroke-width:2.1999;stroke-linecap:round;stroke-linejoin:round;stroke-miterlimit:2.1999;}
	.st18{fill:none;stroke:#270F0B;stroke-width:2.1999;stroke-linecap:round;stroke-linejoin:round;stroke-miterlimit:2.1999;}
	.st19{fill:none;stroke:#6633CC;stroke-width:5.4997;stroke-linecap:round;stroke-linejoin:round;stroke-miterlimit:2.1999;}
	.st20{fill:none;stroke:#EE6464;stroke-width:1.6499;stroke-linecap:round;stroke-linejoin:round;stroke-miterlimit:2.1999;}
	.st21{fill:#D20B0B;}
	.st22{fill:#742222;}
	.st23{fill:#431E17;}
]]>
</style>
<g>
	<g transform="matrix( 0.5499725341796875, 0, 0, 0.5499725341796875, 1143.5,654.8) ">
		<g transform="matrix( 1, 0, 0, 1, 0,0) ">
			<g>
				<g id="girl003_00____girl003_girl003_00________3_____0_Layer0_0_FILL_1_">
					<path class="st16" d="M-2034.5-1126c-1,1.8-1.9,3.7-2.6,5.7c-1.5,4.2-2,8.7-1.6,13.3c0.1,1.2,0.3,2.3,0.5,3.4
						c-5.3,0.9-10,2.5-13.9,4.9c-3.2,1.9-5.9,4.3-8.1,7.2c-2.3,3-3.7,6.3-4.3,9.7c-0.5,3.2-0.3,7.5,0.6,13c0.6,4,1.4,7.1,2.2,9.3
						c1.2,3.3,3,6.3,5.5,9.1c0.8,0.8,1.6,1.6,2.3,2.4c-2,0.9-4.1,2.1-6.3,3.7c-3.8,2.8-6.6,5.8-8.2,8.8c-1.3,2.5-2.2,5.4-2.5,8.8
						c-0.5,5.7,0.7,11.2,3.7,16.4c0.8,1.4,1.7,2.7,2.6,3.9c-2.9,2.5-5.2,5.4-6.9,8.7c-2.5,5-3.2,10.1-2.2,15.1
						c0.3,1.9,1,4.2,2.1,6.9c1,2.7,2,4.7,3,6.1c0.8,1.1,2.5,2.7,4.9,4.7c0.3,0.2,0.6,0.5,0.8,0.7c-1,0.4-2,0.9-2.9,1.4
						c-2.4,1.4-4.5,3.1-6.1,5.1c-2.2,2.6-3.7,5.7-4.6,9.2c-0.8,3.4-1,6.8-0.6,10.4c0.7,5.4,2.6,9.7,5.6,12.9c2.1,2.2,4.7,3.9,7.9,5
						c-1.3,0.9-2.5,1.9-3.6,3.1c-2.7,2.9-5.2,7-7.6,12.4c-2.2,5.3-3.5,9.7-3.8,13.3c-0.1,1.6-0.1,4.1,0,7.4c0.1,3.3,0.1,5.7,0,7.4
						c-0.1,0.7-0.3,1.8-0.4,3.2c-0.2,1.2-0.2,2.3-0.2,3.2c0.1,1.2,0.3,2.2,0.9,3.1c0.5,1,1.3,1.7,2.2,2.2c1.2,0.6,3,0.6,5.4,0.1
						c2.8-0.6,5.1-1.2,7-1.9c2.5-0.9,4.5-2.1,6.2-3.6c1-0.9,2.3-2.4,4-4.5c2.2-3,3.7-5.3,4.6-7c2.7-5.1,4.1-11.3,4.1-18.7
						c0-2.9-0.2-6.1-0.7-9.6c-0.3-2.1-0.8-5.1-1.6-9.2c2.7-0.7,5.1-1.7,7.5-3c2.2-1.3,4.1-2.9,5.7-4.8c1.6-2,2.8-4.1,3.6-6.4
						c0.8-2.6,1.2-6.4,1-11.3c-0.1-2.8-0.3-5-0.8-6.8c-0.7-2.4-2-4.7-3.9-6.7c-0.8-0.8-1.6-1.6-2.6-2.3c0.8-0.3,1.5-0.6,2.3-1
						c3.5-1.8,6.4-4.1,8.5-6.9c0.9-1.2,1.7-2.5,2.4-3.9c1.3-2.7,2.2-5.8,2.6-9.5c0.4-3.6,0.2-7.1-0.6-10.5c-0.7-3.4-1.9-6.5-3.6-9.3
						c2.2-1.8,4.1-3.9,5.8-6.4c1.3-2,2.1-3.7,2.5-5.3c0.4-1.7,0.6-4.4,0.4-8c-0.2-4.2-0.6-7.4-1.2-9.4c-0.9-3.2-2.6-6.5-5.2-9.8
						c2.9-0.7,5.5-1.8,7.7-3.2c2.7-1.8,5.1-4.2,7.1-7.2c1.9-3,3.1-6.2,3.7-9.7c0.6-3.5,0.5-7-0.2-10.4c-0.2-1-0.6-2.1-1-3.3
						c0.8,0,1.6,0,2.4,0c5.6,0.1,10.8-0.8,15.8-2.7c5.3-2,9.8-4.9,13.4-8.7c2.7-2.9,5.1-6.4,7-10.5c1.9-4,3.1-7.7,3.5-11.2
						c0.5-3.4,0.4-6.7-0.3-10.1c-0.7-3.4-1.8-6.5-3.5-9.5c-1.7-2.9-3.8-5.5-6.4-7.8c-2.6-2.3-5.5-4-8.6-5.3
						c-5.3-2.2-12.1-3-20.5-2.6c-6.7,0.4-12.3,1.5-16.8,3.4c-4.1,1.8-7.8,4.3-10.9,7.7C-2031.8-1129.9-2033.3-1128-2034.5-1126
						 M-1540.2-1120.3c-0.7-2-1.6-3.9-2.7-5.7c-1.2-2-2.6-4-4.3-5.7c-3.1-3.4-6.8-5.9-10.9-7.7c-4.5-1.9-10.1-3-16.8-3.4
						c-8.4-0.4-15.3,0.4-20.5,2.6c-3.1,1.3-6,3-8.5,5.3c-2.6,2.3-4.8,4.8-6.5,7.8c-1.7,2.9-2.9,6.1-3.5,9.5
						c-0.6,3.4-0.7,6.7-0.3,10.1c0.5,3.5,1.7,7.3,3.5,11.2c1.9,4.1,4.3,7.6,7,10.5c3.6,3.8,8.1,6.7,13.4,8.7
						c5,1.9,10.3,2.8,15.8,2.7c0.8,0,1.6,0,2.3-0.1c-0.4,1.3-0.7,2.4-0.9,3.4c-0.8,3.4-0.9,6.9-0.3,10.4c0.6,3.5,1.8,6.8,3.7,9.7
						c2,3,4.3,5.4,7.1,7.2c2.3,1.4,4.8,2.5,7.8,3.1c-2.6,3.3-4.3,6.6-5.2,9.8c-0.6,2-0.9,5.2-1.2,9.4c-0.1,3.6,0,6.2,0.5,8
						c0.4,1.6,1.2,3.3,2.5,5.3c1.6,2.5,3.5,4.6,5.7,6.3c-1.7,2.8-2.9,5.9-3.6,9.4c-0.7,3.4-0.9,6.9-0.6,10.5
						c0.4,3.7,1.3,6.9,2.6,9.5c0.7,1.4,1.5,2.7,2.5,3.9c2.2,2.8,5,5.1,8.5,6.9c0.7,0.4,1.5,0.7,2.2,1c-0.9,0.7-1.7,1.5-2.5,2.3
						c-1.9,2.1-3.2,4.3-3.9,6.7c-0.5,1.7-0.7,4-0.8,6.8c-0.1,4.9,0.2,8.6,1,11.3c0.8,2.3,2,4.5,3.6,6.4c1.6,1.9,3.5,3.5,5.7,4.8
						c2.3,1.4,4.8,2.4,7.4,3c-0.7,4.1-1.2,7.1-1.5,9.2c-0.5,3.5-0.7,6.7-0.7,9.6c0,7.4,1.4,13.6,4.1,18.7c0.9,1.7,2.4,4,4.6,7
						c1.7,2.1,3,3.6,4,4.5c1.7,1.5,3.7,2.7,6.2,3.6c1.9,0.7,4.2,1.4,7,1.9c2.4,0.5,4.3,0.5,5.5-0.1c0.9-0.5,1.6-1.2,2.1-2.2
						c0.5-0.9,0.8-1.9,0.9-3.1c0.1-0.9,0-1.9-0.1-3.2c-0.2-1.4-0.3-2.4-0.5-3.2c-0.2-1.7-0.2-4.1,0-7.4c0.1-3.3,0.1-5.8,0-7.4
						c-0.3-3.6-1.5-8-3.8-13.3c-2.4-5.4-4.9-9.5-7.6-12.4c-1.1-1.2-2.3-2.2-3.5-3.1c3.2-1.1,5.8-2.8,7.9-5c3.1-3.2,5-7.5,5.7-12.9
						c0.5-3.6,0.3-7-0.6-10.4c-0.9-3.5-2.4-6.6-4.6-9.2c-1.7-2-3.7-3.7-6.1-5.1c-0.9-0.5-1.9-1-2.9-1.5c0.3-0.2,0.6-0.4,0.9-0.6
						c2.4-2,4.1-3.6,4.9-4.7c1-1.4,2-3.4,3.1-6.1c1.1-2.7,1.8-5,2.1-6.9c1-5.1,0.3-10.1-2.2-15.1c-1.7-3.3-4-6.2-6.9-8.8
						c0.9-1.2,1.8-2.5,2.6-3.9c3-5.2,4.2-10.7,3.6-16.4c-0.3-3.3-1.2-6.3-2.5-8.8c-1.7-3-4.4-6-8.2-8.8c-2.1-1.6-4.2-2.8-6.3-3.8
						c0.8-0.7,1.6-1.5,2.4-2.3c2.5-2.7,4.3-5.7,5.5-9.1c0.8-2.2,1.5-5.3,2.2-9.3c1-5.5,1.2-9.8,0.6-13c-0.6-3.4-2-6.7-4.3-9.7
						c-2.2-2.9-4.8-5.3-8-7.2c-4-2.4-8.7-4-14-4.9c0.2-1.1,0.4-2.3,0.5-3.4C-1538.1-1111.6-1538.7-1116.1-1540.2-1120.3z"/>
				</g>
			</g>
		</g>
		<g transform="matrix( 1, 0, 0, 1, 0,0) ">
			<g>
				<g id="girl003_00____girl003_girl003_00________3_____0_Layer0_1_FILL_1_">
					<path class="st3" d="M-1519.7-921.6c-2.1,0.6-3.7,0.9-4.8,0.9c-0.6,0-2.4-0.1-5.4-0.3c-2.2-0.2-3.9,0-5.1,0.5
						c-0.9,0.4-1.6,0.9-2,1.6c-0.4,0.7-0.6,1.6-0.5,2.6c0.2,1.2,0.7,2.2,1.6,3.2c0.8,0.9,1.9,1.6,3.1,2c1,0.4,2.2,0.6,3.5,0.7
						c1,0.1,2.2,0,3.7-0.1c1.3-0.1,2.5-0.2,3.8-0.4c5.5-0.8,10.3-2.2,14.4-4.4c1.3-0.7,2.2-1.3,2.7-1.9c0.9-0.9,1.4-1.9,1.4-3
						c0-0.6-0.1-1.5-0.5-2.5c-0.5-1-0.9-1.7-1.5-1.9c-0.9-0.6-2.2-0.5-4,0.1C-1512.7-923.6-1516.1-922.6-1519.7-921.6z"/>
				</g>
			</g>
		</g>
		<g transform="matrix( 1, 0, 0, 1, 0,0) ">
			<g>
				<g id="girl003_00____girl003_girl003_00________3_____0_Layer0_2_FILL_1_">
					<path class="st3" d="M-1593.8-1132.8c-2-2.3-4.3-4.4-6.9-6.2c-2.6-1.8-5.3-3.1-8.2-3.9c-3-0.9-6-1.2-8.9-0.8
						c-3.1,0.4-5.8,1.5-8.3,3.4c-2.6,2-4.2,4.4-5.1,7.2c-0.6,2.2-0.7,4.7-0.3,7.5c0.3,1.8,1,4.3,2,7.5c2.8,8.9,6.6,20.2,11.2,33.9
						c1.9,5.5,3.5,9.5,4.8,12c1.8,3.5,4,6.6,6.6,9.4c2.8,2.9,5.6,4.9,8.5,6c4.1,1.5,8.2,1.3,12.3-0.5c1.9-0.8,3.6-2,5.1-3.5
						c1.5-1.5,2.7-3.3,3.5-5.2c1.3-2.9,2-6.9,1.9-11.8c-0.1-12.7-3.3-26-9.5-39.9C-1587.8-1124.3-1590.7-1129.3-1593.8-1132.8z"/>
				</g>
			</g>
		</g>
		<g transform="matrix( -1, 0, 0, 1, 13.65,0) ">
			<g>
				<g id="girl003_00____girl003_girl003_00________3_____0_Layer0_3_FILL_1_">
					<path class="st3" d="M2071.2-921.6c-2.1,0.6-3.6,0.9-4.7,0.9c-0.6,0-2.4-0.1-5.4-0.3c-2.2-0.2-3.9,0-5.1,0.5
						c-0.9,0.4-1.6,0.9-2.1,1.6c-0.4,0.7-0.5,1.6-0.4,2.6c0.2,1.2,0.7,2.2,1.6,3.2c0.8,0.9,1.9,1.6,3.1,2c1,0.4,2.2,0.6,3.5,0.7
						c1,0.1,2.2,0,3.6-0.1c1.3-0.1,2.5-0.2,3.8-0.4c5.5-0.8,10.3-2.2,14.4-4.4c1.3-0.7,2.2-1.3,2.7-1.9c0.9-0.9,1.4-1.9,1.5-3
						c0-0.6-0.1-1.5-0.6-2.5c-0.5-1-0.9-1.7-1.4-1.9c-0.9-0.6-2.2-0.5-4,0.1C2078.2-923.6,2074.8-922.6,2071.2-921.6z"/>
				</g>
			</g>
		</g>
		<g transform="matrix( -1, 0, 0, 1, 12.35,0) ">
			<g>
				<g id="girl003_00____girl003_girl003_00________3_____0_Layer0_4_FILL_1_">
					<path class="st3" d="M1997.1-1132.8c-2-2.3-4.3-4.4-6.9-6.2c-2.6-1.8-5.3-3.1-8.2-3.9c-3-0.9-6-1.2-8.9-0.8
						c-3.1,0.4-5.8,1.5-8.3,3.4c-2.6,2-4.3,4.4-5,7.2c-0.6,2.2-0.7,4.7-0.3,7.5c0.3,1.8,1,4.3,2,7.5c2.8,8.9,6.6,20.2,11.2,33.9
						c1.9,5.5,3.5,9.5,4.8,12c1.8,3.5,4.1,6.6,6.7,9.4c2.8,2.9,5.6,4.9,8.5,6c4.1,1.5,8.2,1.3,12.3-0.5c1.9-0.8,3.6-2,5.1-3.5
						c1.5-1.5,2.7-3.3,3.5-5.2c1.3-2.9,2-6.9,1.9-11.8c-0.1-12.7-3.3-26-9.5-39.9C2003.1-1124.3,2000.2-1129.3,1997.1-1132.8z"/>
				</g>
			</g>
		</g>
	</g>
	<g transform="matrix( 0.5499725341796875, 0, 0, 0.5499725341796875, 1143.5,654.8) ">
		<g transform="matrix( 1, 0, 0, 1, 0.65,51.75) ">
			<g transform="matrix( 1, 0, 0, 1, 2.3,-51.75) ">
				<g>
					<g id="girl003_00____girl003_girl003_00__________3_0_Layer2_0_FILL_1_">
						<path class="st16" d="M-1799.2-1190.6c-63.3-0.4-114.8,16.8-154.4,51.5c-39.7,34.6-57.1,87.3-52.3,158
							c4.8,70.7,29.5,117.2,74.1,139.3c44.6,22.2,97.2,31.7,157.9,28.6c60.7-3.1,108.2-18.3,142.3-45.5
							c34.1-27.2,50-74.4,47.6-141.8c-2.4-67.4-23-115.8-61.8-145.3C-1684.8-1175.3-1735.9-1190.3-1799.2-1190.6z"/>
					</g>
				</g>
			</g>
			<g transform="matrix( 1, 0, 0, 1, -2.35,-51.75) ">
				<g>
					<g id="girl003_00____girl003_girl003_00__________3_0_Layer1_0_FILL_1_">
						<path class="st13" d="M-1596.9-940.8c-6.2-8.9-14.6-13.4-25-13.4c-12.7,0-23.1,4.3-31.1,12.9c-6.9,7.4-13.1,19.2-18.6,35.1
							c0,0.7,0,1.4,0,2.1c0.6,9.7,1.7,18.1,3.5,25.2c5.4,22.8,16.4,34.3,33,34.3c6,0,11.9-2.1,17.8-6.3c5.4-3.9,10.3-9.4,14.8-16.3
							c4.3-6.6,7.7-13.9,10.1-21.8c2.5-8,3.8-15.6,3.8-23C-1588.6-923.2-1591.3-932.8-1596.9-940.8z"/>
					</g>
				</g>
			</g>
			<g transform="matrix( 1, 0, 0, 1, -590,-320.3) ">
				<g>
					<g id="girl003_00____girl003_girl003_00__________3_0_Layer1_1_FILL_1_">
						<path class="st12" d="M-1069.3-650.9c-0.8,0.9-1.6,1.7-2.5,2.4c-4.6,3.3-6.8,7.6-6.6,12.9c0.2,6.3,1.3,12.4,3.4,18.4
							c2.2,6.3,6.3,10.7,12.4,13.2c6.3,2.6,12.6,2.8,19,0.6c6.1-2.1,10.7-5.9,13.8-11.6c3.1-5.7,5.2-11.8,6.4-18.2
							c1.2-6.4,0.5-12.7-1.9-18.8c-2.6-6.6-7.3-10.5-14.1-11.7c-5-0.4-9.9,0.3-14.6,2.1C-1060-659.3-1065.1-655.7-1069.3-650.9z"/>
					</g>
				</g>
			</g>
			<g transform="matrix( 1, 0, 0, 1, -2.35,-51.75) ">
				<g>
					<g id="girl003_00____girl003_girl003_00__________3_0_Layer1_2_FILL_1_">
						<path class="st16" d="M-1655.2-967.7c-0.9,12.5-1.4,23.1-1.4,31.8c0,12.8,0.2,21.5,0.7,26.1c0.7,6.9,2.1,10.4,4.3,10.4
							c1.7,0,4-1.7,6.9-5.1c3.4-4.1,6.6-9.7,9.7-16.9c5.4-12.7,9.5-28.1,12.2-46.2c6.7-67.7,1-89.6-17.2-66
							C-1656.3-1039.4-1661.4-1017.4-1655.2-967.7z"/>
					</g>
				</g>
			</g>
			<g transform="matrix( -1, 0, 0, 1, -5.65,-51.4) ">
				<g>
					<g id="girl003_00____girl003_girl003_00__________3_0_Layer1_3_FILL_1_">
						<path class="st13" d="M1994.1-940.8c-6.2-8.9-14.6-13.4-25-13.4c-12.7,0-23.1,4.3-31.1,12.8c-6.9,7.4-13.1,19.2-18.6,35.2
							c0,0.7,0,1.4,0,2.1c0.6,9.7,1.8,18.1,3.5,25.2c5.4,22.8,16.4,34.3,33,34.3c6,0,11.9-2.1,17.8-6.3c5.4-3.9,10.3-9.4,14.8-16.3
							c4.3-6.6,7.7-13.8,10.1-21.8c2.5-8,3.8-15.6,3.8-22.9C2002.4-923.2,1999.6-932.8,1994.1-940.8z"/>
					</g>
				</g>
			</g>
			<g transform="matrix( -1, 0, 0, 1, 582,-319.95) ">
				<g>
					<g id="girl003_00____girl003_girl003_00__________3_0_Layer1_4_FILL_1_">
						<path class="st12" d="M2521.7-650.9c-0.8,0.9-1.6,1.7-2.5,2.3c-4.6,3.3-6.8,7.6-6.6,12.9c0.2,6.3,1.3,12.4,3.4,18.4
							c2.2,6.3,6.3,10.7,12.4,13.2c6.3,2.6,12.6,2.8,19,0.6c6.1-2.1,10.7-5.9,13.8-11.6c3.1-5.7,5.2-11.8,6.4-18.2
							c1.2-6.4,0.5-12.7-1.9-18.8c-2.6-6.6-7.3-10.5-14-11.7c-5-0.4-9.9,0.3-14.6,2.2C2530.9-659.3,2525.8-655.7,2521.7-650.9z"/>
					</g>
				</g>
			</g>
			<g transform="matrix( 1, 0, 0, 1, 2.3,-51.4) ">
				<g>
					<g id="girl003_00____girl003_girl003_00__________3_0_Layer1_5_FILL_1_">
						<path class="st16" d="M-1942.7-941.1c0-7.1-0.3-15.4-0.9-25l-9-69.6l-22.7,69.6c2.7,15.2,6.4,28.4,11.1,39.5
							c3.1,7.2,6.3,12.8,9.7,16.9c2.8,3.4,5.1,5.1,6.9,5.1c2.2,0,3.6-3.5,4.3-10.4C-1942.9-919.6-1942.7-928.3-1942.7-941.1z"/>
					</g>
				</g>
			</g>
			<g transform="matrix( 1, 0, 0, 1, -8.15,0.2) ">
				<g transform="matrix( 1, 0, 0, 1, 0,0) ">
					<g>
						<g id="girl003_00____girl003_girl003_00__________0_Layer0_0_FILL_1_">
							<path class="st13" d="M-1637.4-1070.8c0-27-5-50.5-15.1-70.4c-37.2-26.6-82.3-43.2-135.4-49.6c-55,4-103.2,21.6-144.6,52.6
								c-9.1,19.3-13.7,41.8-13.7,67.5c0,19.5,1.2,40.9,3.7,64.3c3.2,31.3,4.9,47.7,5,49.4c0.1,1.8,0.3,6.3,0.5,13.4
								c0.2,5.5,0.5,9.9,0.9,13.3c1.1,10.3,3.8,19.3,8.2,27.1c1,1.9,1.9,3.5,2.8,5c9.1,14.3,21.5,24.8,37.3,31.4
								c16.6,6.9,33.7,11.4,51.5,13.5c14.8,1.8,29.7,2.4,44.6,1.8c14.9,0.6,29.8,0,44.6-1.8c17.8-2.1,34.9-6.6,51.5-13.5
								c15.8-6.6,28.2-17.1,37.3-31.4c0.8-1.4,1.7-3.1,2.8-5c4.3-7.7,7-16.7,8.2-27.1c0.4-3.4,0.7-7.9,0.9-13.3
								c0.3-7.1,0.5-11.6,0.6-13.4c0.1-1.6,1.8-18.1,5-49.4C-1638.6-1029.9-1637.4-1051.3-1637.4-1070.8z"/>
						</g>
					</g>
				</g>
			</g>
			<g transform="matrix( 1, 0, 0, 1, 0,0) ">
				<g>
					<g id="girl003_00____girl003_girl003_00__________3_0_Layer1_7_FILL_1_">
						<path class="st13" d="M-1645.5-1070.6c0-27-5-50.5-15.1-70.4c-37.2-26.6-82.3-43.2-135.4-49.6c-55,4-103.2,21.6-144.6,52.6
							c-9.1,19.3-13.7,41.8-13.7,67.5c0,19.5,1.2,40.9,3.7,64.3c3.2,31.3,4.9,47.7,5,49.4c0.1,1.8,0.3,6.3,0.5,13.4
							c0.2,5.5,0.5,9.9,0.9,13.3c1.1,10.3,3.8,19.3,8.2,27.1c1,1.9,1.9,3.5,2.8,5c9.1,14.3,21.5,24.8,37.3,31.4
							c16.6,6.9,33.7,11.4,51.5,13.5c14.8,1.8,29.7,2.4,44.6,1.8c14.9,0.6,29.8,0,44.6-1.8c17.8-2.1,34.9-6.6,51.5-13.5
							c15.8-6.6,28.2-17.1,37.3-31.4c0.8-1.4,1.7-3.1,2.8-5c4.3-7.7,7-16.7,8.2-27.1c0.4-3.4,0.7-7.9,0.9-13.3
							c0.3-7.1,0.5-11.6,0.6-13.4c0.1-1.6,1.8-18.1,5-49.4C-1646.7-1029.7-1645.5-1051.1-1645.5-1070.6z"/>
					</g>
				</g>
			</g>
			<g transform="matrix( 1, 0, 0, 1, 0,0) ">
				<g>
					<g id="girl003_00____girl003_girl003_00__________3_0_Layer1_8_FILL_1_">
						<path class="st16" d="M-1704.7-1120.7c3.7,0.6,8.3,0.8,13.8,0.7c3.7-0.1,6.8-0.3,9.1-0.7c3.3-0.6,6.2-1.5,8.6-2.9
							c0.3-0.2,0.7-0.4,1-0.6c1.2,2.3,2.4,4.1,3.6,5.3c1.4,1.5,3.2,2.7,5.6,3.8c4.1,2,8.2,2.9,12.2,2.8c2.5-0.1,4.9-0.5,7.1-1.3
							c1.7-0.6,3.2-1.5,4.7-2.5c1.7-1.2,3.4-2.9,5.2-5c2.7-3.2,4.5-6.2,5.4-9.1c1.2-3.8,1.1-7.3-0.3-10.4c-0.9-2-2.4-3.6-4.4-4.8
							c-2-1.2-4.1-1.7-6.3-1.6c-0.4,0-0.9,0-1.4,0.1c-0.4-1.7-1.3-3.3-2.4-5c-1.3-1.8-3.1-3.8-5.5-5.9c-0.6-1.5-1.5-2.7-2.7-3.8
							c-1.3-1.1-2.7-1.9-4.4-2.4c-0.5-0.1-1-0.2-1.5-0.3c-12.8-9.1-27.7-17-44.8-23.8c-4.2-1.7-8.7-3.3-13.5-5
							c-12.5-4.3-27.1-8.5-43.7-12.6c-12.3-3-22.5-5.2-30.7-6.6c-11.3-1.8-21.7-2.7-31.2-2.5c-6.3,0.1-13.2,0.7-20.6,1.8
							c-5.5,0.8-12.4,2-20.5,3.5c-12.4,2.4-22.5,4.7-30.2,6.9c-10.9,3-20.6,6.6-29,10.7c-9.8,4.8-18.3,10.6-25.6,17.5
							c-8,7.5-14,15.8-17.9,24.8c-3.7,8.3-4.3,15.2-1.7,20.7c1.4,3,3.7,5.1,6.9,6.3c0.6,0.5,1.2,0.9,1.9,1.2c1,0.6,2.1,1.1,3.3,1.5
							c3.7,1.3,8,1.7,12.9,1.4c6.8-0.5,13.6-2.3,20.5-5.4c7.2-3.2,12.9-7.2,17.3-12.1c0.1,0.1,0.1,0.2,0.2,0.3
							c2.5,3.3,5.7,6.2,9.4,8.7c3.5,2.3,7.4,4.2,11.7,5.6c7.5,2.4,16,3.3,25.6,3c5.6-0.1,10.4-0.8,14.2-2c4-1.2,8.3-3.4,13-6.5
							c7.8-5.2,14.3-11.1,19.2-17.7c0.2,0.4,0.5,0.8,0.7,1.2c2,3.3,4.7,6.1,8.1,8.5c3.2,2.3,6.8,4,10.6,5c3.6,0.9,8.4,1.4,14.4,1.4
							c9.3-0.1,16.9-1.2,22.7-3.5c5-1.9,9.6-4.9,13.9-8.8c0.9-0.8,1.8-1.7,2.7-2.6c0.3,1.3,0.6,2.5,1.1,3.6c1.2,2.8,3.5,5.6,6.9,8.4
							c4.3,3.4,9,6.1,13.9,8C-1711.9-1122.3-1708.4-1121.3-1704.7-1120.7 M-1935.9-1152.4c-1,1.4-2,2.4-2.9,2.8
							c1.3-1.9,2.9-3.8,4.6-5.6C-1934.7-1154.3-1935.3-1153.4-1935.9-1152.4z"/>
					</g>
				</g>
			</g>
		</g>
		<g transform="matrix( 1, 0, 0, 1, -0.35,179.3) ">
			<g transform="matrix( 1, 0, 0, 1, 0,0) ">
				<g>
					<path id="girl003_00____girl003_girl003_00_________0_Layer0_0_1_STROKES_1_" class="st20" d="M-1820.5-1026.6
						c17.2,12.8,34.6,12.5,52.2-0.9"/>
				</g>
			</g>
		</g>
		<g transform="matrix( 1, 0, 0, 1, -0.35,149.8) ">
			<g transform="matrix( 0.504058837890625, 0, 0, 0.504058837890625, -294.95,-206.35) ">
				<g>
					<g id="girl003_00____girl003_girl003_00______0_Layer0_0_STROKES_1_FILL_1_">
						<path class="st1" d="M-2961.7-1616.6l-2-2.2l-0.5-0.4l-0.1-0.1l-0.2-0.1l-0.5-0.4l-0.1-0.1l0,0l-0.2,0l-0.5-0.4l-0.8-0.4
							c-0.6-0.4-1.4-0.8-2.3-1.1l-0.9-0.3l-0.3-0.1c-0.8-0.2-1.2-0.3-1.3-0.3l-0.3-0.1l-1-0.2l-3.5-0.4h-2.3l-3.6,0.4l-0.3,0.1
							l-0.3,0l-0.2,0.1h-0.1l-0.1,0l-2.1,0.6l-0.3,0.1l-0.3,0.1l-1.8,0.9h0l-0.1,0.1l-0.1,0.1l-0.3,0.2l-0.2,0.1l-0.1,0l-0.8,0.5
							l-0.2,0.2l-1.4,1.2l-1.4,1.8l-1,1.8c-0.3,0.7-0.6,1.3-0.7,1.7l-0.2,0.4l0,0.2l0,0.1v0.1l-0.3,1.5l-0.2,1.3v0.3l0,0.3v1.3
							l0.1,0.9l0.1,0.1l0,0l0.6-1.2l0.3-0.3l0.2-0.5l0.2-0.2l1.6-2.4l0-0.1l0,0l0.1-0.2l0.5-0.5l0.2-0.3l1.3-1.3l0.8-0.6l0-0.1
							l0.1,0l0.8-0.6l0.8-0.4l0.2-0.1l0.1-0.1l1.2-0.5l0.1,0h0l0.1-0.1l0.2,0l0.8-0.3l0.7-0.2l0.2-0.1l0.7-0.1h0.3l1.5-0.3h0.2
							l0.3,0h0.5l0.3,0l4.4,0.1h0.5l0.5,0.1h0.3l0.3,0.1l0.5,0l1.9,0.3l0.9,0.3l0.3,0.1l0.2,0l2.6,1l0.2,0.1l0.2,0.2l0.4,0.2l1.3,1
							l0.3,0.3l0.6,0.5l0,0.1l0.1,0.1l0.1,0.1l0.7,0.8l1.4,1.9l2.3,4.4l0.1,0l0.1-0.1l0.2-1.3v-2.6l-0.6-3.1l-0.1-0.2l-0.1-0.2
							l-0.2-0.4l0-0.3L-2961.7-1616.6z"/>
					</g>
				</g>
			</g>
		</g>
		<g transform="matrix( 1, 0, 0, 1, 88.25,166.4) ">
			<g transform="matrix( 1, 0, 0, 1, -680.95,-411.55) ">
				<g>
					<g id="girl003_00____girl003_girl003_00______0_Layer0_0_FILL_FL_3_">
						<path class="st12" d="M-1079.7-607.9c0-3-3.4-5.6-10.2-7.8c-6.8-2.1-15-3.2-24.6-3.2s-17.8,1.1-24.6,3.2
							c-6.8,2.2-10.2,4.8-10.2,7.8c0,3,3.4,5.6,10.2,7.8c6.8,2.2,15,3.2,24.6,3.2s17.8-1.1,24.6-3.2
							C-1083.1-602.3-1079.7-604.9-1079.7-607.9z"/>
					</g>
				</g>
			</g>
		</g>
		<g transform="matrix( 1, 0, 0, 1, -90.85,166.4) ">
			<g transform="matrix( 1, 0, 0, 1, -680.95,-411.55) ">
				<g>
					<g id="girl003_00____girl003_girl003_00______0_Layer0_0_FILL_FL_2_">
						<path class="st12" d="M-1079.7-607.9c0-3-3.4-5.6-10.2-7.8c-6.8-2.1-15-3.2-24.6-3.2c-9.6,0-17.8,1.1-24.6,3.2
							c-6.8,2.2-10.2,4.8-10.2,7.8c0,3,3.4,5.6,10.2,7.8c6.8,2.2,15,3.2,24.6,3.2c9.6,0,17.8-1.1,24.6-3.2
							C-1083.1-602.3-1079.7-604.9-1079.7-607.9z"/>
					</g>
				</g>
			</g>
		</g>
		<g transform="matrix( 1.686859130859375, 0, 0, 1.6790008544921875, -1019.55,-526.55) ">
			<g>
				<g id="girl003_00____girl003_girl003_00________3____0_Layer4_0_FILL_1_">
					<path class="st15" d="M-390.8-233.9c0-7.5-2.6-13.9-7.9-19.2c-5.3-5.3-11.6-7.9-19.1-7.9c-7.5,0-13.9,2.6-19.2,7.9
						c-5.3,5.3-7.9,11.7-7.9,19.2s2.6,13.9,7.9,19.1c5.3,5.3,11.7,7.9,19.2,7.9c7.5,0,13.9-2.6,19.1-7.9
						C-393.4-220-390.8-226.4-390.8-233.9z"/>
				</g>
			</g>
		</g>
		<g transform="matrix( -1.686859130859375, 0, 0, 1.6790008544921875, 1013.7,-526.55) ">
			<g>
				<g id="girl003_00____girl003_girl003_00________3____0_Layer4_1_FILL_1_">
					<path class="st15" d="M1738-233.9c0-7.5-2.6-13.9-7.9-19.2c-5.3-5.3-11.7-7.9-19.2-7.9c-7.5,0-13.9,2.6-19.2,7.9
						c-5.3,5.3-7.9,11.7-7.9,19.2s2.6,13.9,7.9,19.1c5.3,5.3,11.7,7.9,19.2,7.9c7.5,0,13.9-2.6,19.2-7.9
						C1735.3-220,1738-226.4,1738-233.9z"/>
				</g>
			</g>
		</g>
		<g transform="matrix( 1.3050994873046875, 0, 0, 1.4173583984375, -769.95,-423.9) ">
			<g>
				<g id="girl003_00____girl003_girl003_00________3____0_Layer3_0_MEMBER_0_FILL_1_">
					<path class="st11" d="M-707.6-345.1c0-7.1-2.5-13.1-7.5-18.1c-5-5-11-7.5-18-7.5c-7.1,0-13.1,2.5-18.1,7.5
						c-5,5-7.4,11-7.4,18.1s2.5,13.1,7.4,18.1c5,5,11,7.5,18.1,7.5c7.1,0,13.1-2.5,18-7.5C-710.1-332-707.6-338-707.6-345.1z"/>
				</g>
			</g>
		</g>
		<g transform="matrix( -1.24346923828125, 0, 0, 1.24346923828125, -21.35,-13.6) ">
			<g>
				<g id="girl003_00____girl003_girl003_00________3____0_Layer3_0_MEMBER_1_FILL_1_">
					<path class="st15" d="M1390.6-736c0-1.7-0.6-3.2-1.8-4.3c-1.2-1.2-2.7-1.8-4.4-1.8c-1.7,0-3.2,0.6-4.4,1.8
						c-1.2,1.2-1.8,2.7-1.8,4.3c0,1.7,0.6,3.2,1.8,4.4c1.2,1.2,2.7,1.8,4.4,1.8c1.7,0,3.2-0.6,4.4-1.8
						C1390-732.8,1390.6-734.3,1390.6-736z"/>
				</g>
			</g>
		</g>
		<g transform="matrix( -1.3050994873046875, 0, 0, 1.4173583984375, 764.1,-423.9) ">
			<g>
				<g id="girl003_00____girl003_girl003_00________3____0_Layer2_0_MEMBER_0_FILL_1_">
					<path class="st11" d="M2043.9-345.1c0-7.1-2.5-13.1-7.5-18.1c-5-5-11-7.5-18.1-7.5c-7.1,0-13.1,2.5-18.1,7.5
						c-5,5-7.5,11-7.5,18.1s2.5,13.1,7.5,18.1c5,5,11,7.5,18.1,7.5c7.1,0,13.1-2.5,18.1-7.5C2041.4-332,2043.9-338,2043.9-345.1z"/>
				</g>
			</g>
		</g>
		<g transform="matrix( 1.24346923828125, 0, 0, 1.24346923828125, 15.5,-13.6) ">
			<g>
				<g id="girl003_00____girl003_girl003_00________3____0_Layer2_0_MEMBER_1_FILL_1_">
					<path class="st15" d="M-1497.2-736c0-1.7-0.6-3.2-1.8-4.3c-1.2-1.2-2.7-1.8-4.4-1.8s-3.2,0.6-4.4,1.8c-1.2,1.2-1.8,2.7-1.8,4.3
						c0,1.7,0.6,3.2,1.8,4.4c1.2,1.2,2.7,1.8,4.4,1.8s3.2-0.6,4.4-1.8C-1497.8-732.8-1497.2-734.3-1497.2-736z"/>
				</g>
			</g>
		</g>
		<g transform="matrix( 1, 0, 0, 1, 71,77.5) ">
			<g transform="matrix( -1.24346923828125, 0, 0, 1.24346923828125, -90.05,-98.85) ">
				<g>
					<g id="girl003_00____girl003_girl003_00__________3_0_Layer3_0_STROKES_1_FILL_3_">
						<path class="st4" d="M1358.2-686.8l-2.4-0.2c-0.1,0-0.1,0-0.1,0.1l0,0l1,0.7l4,2l2.6,0.9c1.2,0.4,2.2,0.7,3,0.8l3.3,0.6
							c1,0.1,2.2,0.2,3.5,0.2l2.2,0l0.8-0.1h0.2l0.2,0l0.8-0.1l2.6-0.5c0.9-0.2,1.9-0.6,3-1.1l0.3-0.1l0.2-0.1l0,0l0.7-0.4l0.3-0.2
							l0.3-0.1l0.3-0.2l0.2,0l0.1-0.1c0.6-0.4,1.2-0.8,1.9-1.4l0.8-0.7l1.7-1.8l-0.1-0.1h-0.1l-1.1,0.4l-0.3,0.1l-0.8,0.3l-0.2,0
							l-3.4,1.1l-0.3,0l-0.3,0.1c0,0-0.2,0.1-0.6,0.2h-0.1l-0.2,0l-3.1,0.5h-0.4l-0.2,0h-0.1l-2.3,0.2h-0.4l-0.3,0h-4.3l-0.4,0h-0.8
							l-0.2,0h-0.2l-0.4,0h-0.7l-9.9-1l-0.2,0H1358.2z"/>
					</g>
				</g>
			</g>
			<g transform="matrix( 1.8548583984375, 0, 0, 1.8548583984375, -1199.3,-665) ">
				<g>
					<g id="girl003_00____girl003_girl003_00__________3_0_Layer2_0_STROKES_1_FILL_3_">
						<path class="st7" d="M-313.4-204.1l-3.1-0.9l-2.5-0.4l-0.2,0h-0.2l-0.7-0.1h-0.4l-0.3,0h-0.5c-1.3,0-2.2,0-2.9,0.1l-1.8,0.2
							l-0.4,0.1l-1.1,0.1l-0.3,0.1l-0.4,0l-1.7,0.5c-1,0.3-1.9,0.6-2.6,1l-0.2,0l-0.2,0.1l-0.3,0.1l-1.7,0.9
							c-0.7,0.3-1.4,0.8-2.2,1.4l-4.6,4.1l-2.7,3.8l0,0.2l-0.1,0.1l-0.7,1.3l-0.2,0.4l-0.2,0.3l-0.2,0.6c-0.1,0.1-0.1,0.2,0,0.2h0.1
							l1-1.1l5.2-4.7l0.4-0.2c1-0.8,2.2-1.5,3.5-2.2l1.3-0.7l0.2-0.1l0.2-0.2l2.4-0.9l1.1-0.4l0.3,0l0.3-0.1l0.3,0l0.9-0.2l3.1-0.5
							h0.3l1-0.1c1.1-0.1,2-0.1,2.5,0h0.1l-0.2,0h0l0.1,0h0.5l0.2,0h0.5l0.3,0h0.1l0.2,0.1l2.2,0.3l0.2,0h0.2l1.2,0.3l0.3,0.1l0.3,0
							l1.8,0.6l0.3,0l1.4,0.6c0.3,0.1,1,0.4,2.2,0.9l0.5,0.3l0.4,0.2l0.1,0.1l2,1.2l0.1,0.1l1.1,0.8l0.2,0.1l2.8,2.2l0.3,0.3
							l0.4,0.2l4.1,4.1h0.2v-0.2l-0.3-0.6l-0.2-0.3l-2.3-3.9l-0.6-0.7l-0.2-0.4l-2.6-2.9l-3-2.5l-0.6-0.3l-0.1-0.1l-0.2,0l-0.2-0.2
							l-1.1-0.7l-0.6-0.3l-0.3-0.2l-0.9-0.4c-0.7-0.3-1.5-0.7-2.6-1L-313.4-204.1z"/>
					</g>
				</g>
			</g>
			<g transform="matrix( -1.24346923828125, 0, 0, 1.24346923828125, -90.05,-90.75) ">
				<g>
					<g id="girl003_00____girl003_girl003_00__________3_0_Layer1_0_STROKES_1_FILL_3_">
						<path class="st7" d="M1344.2-766.6l-0.1,0v0.2l0,0.2l0,0v0.1l0.4,1.1l0.2,0.5l0.1,0.1l0.1,0.3l0.1,0.1l0,0.1l0.1,0.2l1,1.4
							l1.2,1.2l0.1,0.1l0.1,0l0.3,0.3l0.6,0.5l0.1,0.1l0.2,0l0.2,0.2l0.4,0.3l0.1,0l0.1,0.1l0.1,0l0.1,0.1l0.1-0.1v-0.2l0-0.1
							l-0.1-0.1v-0.1l-0.4-1l-0.2-0.5l-0.1-0.1l-0.2-0.3l0,0l0-0.1l-0.2-0.2l-0.2-0.4l-0.7-1l-1.2-1.3l-0.1-0.1l-0.1,0l-0.4-0.3
							l-0.6-0.4l-0.1-0.1l-0.1-0.1l-0.2-0.2l-0.4-0.2l-0.1-0.1l0,0L1344.2-766.6L1344.2-766.6z"/>
					</g>
				</g>
			</g>
			<g transform="matrix( -1.24346923828125, 0, 0, 1.24346923828125, -90.05,-90.75) ">
				<g>
					<g id="girl003_00____girl003_girl003_00__________3_0_Layer1_1_STROKES_1_FILL_3_">
						<path class="st7" d="M1366.8-775.4L1366.8-775.4l-0.2-0.1l-0.1,0.2l-0.1,0.2v0.2l-0.1,0.9v0.2l0,0.2l0.1,2.3l0,0.2v0.2
							l0.1,0.2v0.1l0,0.1l0.1,1l0.1,0.2v0.1l0,0.2l0.1,0.2l0.1,0.2l0.1,0.4l0.1,0.2l0,0.1v0.1l0.2,0.4l0.1,0.2l0,0.2l0.2,0.4
							l0.1,0.2l0.1,0.2l0.5,1l0.1,0.1l0.1,0.1l0.1,0l0.1-0.2l0.1-0.2v-0.2l0.1-0.9v-0.2l0-0.2l-0.1-2.3l0-0.2v-0.2l-0.1-0.3v-0.1
							l0-0.1l-0.1-1l-0.1-0.2v-0.1l0-0.2l-0.1-0.2l-0.1-0.2l-0.1-0.4l0-0.2l-0.1-0.1v-0.1l-0.1-0.4l-0.1-0.2l0-0.2l-0.2-0.4
							l-0.1-0.2l-0.1-0.2l-0.5-1L1366.8-775.4z"/>
					</g>
				</g>
			</g>
			<g transform="matrix( -1.24346923828125, 0, 0, 1.24346923828125, -90.05,-90.75) ">
				<g>
					<g id="girl003_00____girl003_girl003_00__________3_0_Layer1_2_STROKES_1_FILL_3_">
						<path class="st7" d="M1391.4-771.9L1391.4-771.9l-0.4,0.5l-0.2,0.2l-0.4,0.6l-0.1,0.2l-0.1,0.2l-0.2,0.4l-0.1,0.1l0,0.1
							l-0.1,0.2l-0.2,0.4l-0.1,0.2l-0.3,0.5l0,0.1l-0.9,2.4l0,0.2l0,0.1v0.1l-0.2,0.4l-0.1,0.8l-0.1,0.3l-0.1,1v0.5l0.1,0.1l0.2-0.2
							l0.1,0l0.1-0.1l0.4-0.5l0.3-0.2l0.4-0.7l0.1-0.2l0.2-0.2l0.2-0.3l0.1-0.1l0.1-0.1l0.1-0.2l0.3-0.4l0.1-0.2l0.3-0.5l0.9-2.5
							l0.1-0.2l0-0.1v-0.1l0.3-0.9l0-0.4l0.1-0.4l0.1-0.9v-0.5l-0.1-0.1L1391.4-771.9L1391.4-771.9z"/>
					</g>
				</g>
			</g>
			<g transform="matrix( 1, 0, 0, 1, 4.15,-61.25) ">
				<g transform="matrix( 1.01800537109375, 0.1243743896484375, -0.141387939453125, 1.1570892333984375, -637.7,-430.45) ">
					<g>
						<g id="girl003_00____girl003_girl003_00_______0_Layer0_0_STROKES_1_FILL_3_">
							<path class="st23" d="M-1201.8-389.2l-6.1,2.3l-7.6,4.3c-0.9,0.6-1.8,1.3-2.7,2l-0.9,0.7l-0.3,0.4l-0.9,0.8v0.1l0.1,0
								l7.4-3.3l11.2-3.7l1.4-0.3l0.4-0.1l4.2-0.7l0.4,0l2.2-0.2l0.8,0c1,0,2,0,2.9,0c1,0,2,0.1,2.9,0.1l1.5,0.2l0.4,0l0.4,0.1
								l2.1,0.3l0.2,0l0.6,0.2l0.3,0.1l3.1,0.8c1.5,0.4,3.2,1,5.1,1.7l2,0.8l0.1,0l0.3,0.1l2.2,1l0.3,0.1l6.3,3.3
								c0.5,0.3,1.1,0.7,1.8,1l0.7,0.4c0,0,0.1,0,0.1,0l0-0.1l-3.8-3.7l-2.3-1.8c-0.1-0.1-0.7-0.5-1.9-1.3l-2.1-1.4
								c-0.7-0.4-1.5-0.9-2.3-1.3c-2.1-1.1-3.8-1.8-5.3-2.3l-0.4-0.1l-1.9-0.6l-7-1.4c-1.4-0.1-2.5-0.2-3.2-0.2c-1.1,0-2.2,0-3.3,0
								l-3.2,0.3l-0.4,0.1l-2.7,0.5C-1200.7-389.5-1201.6-389.2-1201.8-389.2z"/>
						</g>
					</g>
				</g>
			</g>
		</g>
		<g transform="matrix( -1, 0, 0, 1, -76.85,77.5) ">
			<g transform="matrix( -1.24346923828125, 0, 0, 1.24346923828125, -90.05,-98.85) ">
				<g>
					<g id="girl003_00____girl003_girl003_00__________3_0_Layer3_0_STROKES_1_FILL_2_">
						<path class="st4" d="M-1529.7-686.8l-2.4-0.2c-0.1,0-0.1,0-0.1,0.1l0,0l1,0.7l4,2l2.7,0.9c1.2,0.4,2.2,0.7,3,0.8l3.3,0.6
							c1,0.1,2.2,0.2,3.5,0.2l2.2-0.1l0.9-0.1h0.2l0.2,0l0.9-0.1l2.6-0.5c0.9-0.2,1.9-0.6,3-1.1l0.4-0.1l0.2-0.1l0,0l0.8-0.4
							l0.3-0.2l0.3-0.1l0.3-0.2l0.1-0.1l0.1-0.1c0.6-0.4,1.3-0.8,2-1.4l0.8-0.7l1.7-1.8l-0.1-0.1h-0.1l-1.1,0.4l-0.3,0.1l-0.7,0.3
							l-0.2,0l-3.4,1.1l-0.3,0l-0.3,0.1c0,0-0.2,0.1-0.6,0.2h-0.2l-0.2,0l-3.1,0.5h-0.4l-0.2,0h-0.1l-2.3,0.2h-0.4l-0.3,0h-4.3
							l-0.4,0h-0.8l-0.2,0h-0.2l-0.4,0h-0.8l-9.9-1l-0.2,0H-1529.7z"/>
					</g>
				</g>
			</g>
			<g transform="matrix( 1.8548583984375, 0, 0, 1.8548583984375, -1199.3,-665) ">
				<g>
					<g id="girl003_00____girl003_girl003_00__________3_0_Layer2_0_STROKES_1_FILL_2_">
						<path class="st7" d="M1622.6-204.1l-3.1-0.9l-2.5-0.4l-0.2,0h-0.2l-0.7-0.1h-0.4l-0.3,0h-0.5c-1.3,0-2.2,0-2.9,0.1l-1.7,0.2
							l-0.4,0.1l-1.1,0.1l-0.3,0.1l-0.4,0l-1.7,0.5c-1,0.3-1.9,0.6-2.6,1l-0.2,0l-0.2,0.1l-0.3,0.1l-1.7,0.9
							c-0.7,0.3-1.4,0.8-2.2,1.4l-4.6,4.1l-2.7,3.8l-0.1,0.2l-0.1,0.1l-0.7,1.3l-0.2,0.4l-0.2,0.3l-0.2,0.6c-0.1,0.1-0.1,0.2,0,0.2
							h0.1l1-1.1l5.2-4.7l0.4-0.2c1-0.8,2.2-1.5,3.5-2.2l1.3-0.7l0.3-0.1l0.2-0.2l2.4-0.9l1.1-0.4l0.3,0l0.3-0.1l0.3,0l0.9-0.2
							l3.1-0.5h0.3l1-0.1c1.1-0.1,2-0.1,2.5,0h0.1l-0.2,0h0l0.1,0h0.5l0.1,0h0.5l0.3,0h0.2l0.2,0.1l2.2,0.3l0.1,0h0.2l1.2,0.3
							l0.3,0.1l0.3,0l1.8,0.6l0.3,0l1.4,0.6c0.3,0.1,1,0.4,2.2,0.9l0.5,0.3l0.4,0.2l0.1,0.1l2.1,1.2l0.1,0.1l1.1,0.8l0.2,0.1
							l2.9,2.2l0.3,0.3l0.4,0.2l4.1,4.1h0.1v-0.2l-0.2-0.6l-0.2-0.3l-2.2-3.9l-0.6-0.7l-0.2-0.4l-2.6-2.9l-3-2.5l-0.5-0.3l-0.1-0.1
							l-0.2,0l-0.2-0.2l-1.1-0.7l-0.6-0.3l-0.3-0.2l-0.9-0.4c-0.7-0.3-1.5-0.7-2.6-1L1622.6-204.1z"/>
					</g>
				</g>
			</g>
			<g transform="matrix( -1.24346923828125, 0, 0, 1.24346923828125, -90.05,-90.75) ">
				<g>
					<g id="girl003_00____girl003_girl003_00__________3_0_Layer1_0_STROKES_1_FILL_2_">
						<path class="st7" d="M-1543.6-766.6l-0.1,0v0.2l0,0.2l0.1,0v0.1l0.4,1.1l0.2,0.5l0.1,0.1l0.1,0.3l0.1,0l0,0.1l0.2,0.2l0.9,1.4
							l1.2,1.2l0.1,0.1l0.1,0l0.3,0.3l0.6,0.5l0.1,0.1l0.2,0l0.2,0.2l0.4,0.3l0.1,0l0,0.1l0.2,0l0.1,0.1l0.1-0.1v-0.2l-0.1-0.1
							l0-0.1v-0.1l-0.4-1l-0.3-0.5l-0.1-0.1l-0.2-0.3l0,0l-0.1-0.1l-0.2-0.2l-0.2-0.4l-0.7-1l-1.2-1.3l-0.1-0.1l-0.1,0l-0.3-0.3
							l-0.6-0.4l-0.1-0.1l-0.1-0.1l-0.2-0.2l-0.4-0.2l-0.1-0.1l-0.1,0L-1543.6-766.6L-1543.6-766.6z"/>
					</g>
				</g>
			</g>
			<g transform="matrix( -1.24346923828125, 0, 0, 1.24346923828125, -90.05,-90.75) ">
				<g>
					<g id="girl003_00____girl003_girl003_00__________3_0_Layer1_1_STROKES_1_FILL_2_">
						<path class="st7" d="M-1521-775.4L-1521-775.4l-0.2-0.1l-0.1,0.2l0,0.2v0.2l-0.1,0.9v0.2l0,0.2l0.1,2.3l0,0.2v0.2l0,0.2v0.1
							l0.1,0.1l0.1,1l0.1,0.2v0.1l0,0.2l0.1,0.2l0,0.2l0.2,0.4l0,0.2l0,0.1v0.1l0.2,0.4l0.1,0.2l0,0.2l0.1,0.4l0.1,0.2l0.1,0.2
							l0.5,1l0.1,0.1l0.1,0.1l0.1,0l0.1-0.2l0.1-0.2v-0.2l0.1-0.9v-0.2l0-0.2l-0.1-2.3l0-0.2v-0.2l-0.1-0.3v-0.1l0-0.1l-0.1-1
							l-0.1-0.2v-0.1l0-0.2l-0.1-0.2l0-0.2l-0.2-0.4l0-0.2l-0.1-0.1v-0.1l-0.1-0.4l-0.1-0.2l0-0.2l-0.2-0.4l-0.1-0.2l-0.1-0.2
							l-0.5-1L-1521-775.4z"/>
					</g>
				</g>
			</g>
			<g transform="matrix( -1.24346923828125, 0, 0, 1.24346923828125, -90.05,-90.75) ">
				<g>
					<g id="girl003_00____girl003_girl003_00__________3_0_Layer1_2_STROKES_1_FILL_2_">
						<path class="st7" d="M-1496.4-771.9L-1496.4-771.9l-0.4,0.5l-0.2,0.2l-0.5,0.6l-0.1,0.2l-0.1,0.2l-0.2,0.4l-0.1,0.1l0,0.1
							l-0.1,0.2l-0.2,0.4l-0.1,0.2l-0.3,0.5l0,0.1l-0.9,2.4l0,0.2l-0.1,0.1v0.1l-0.1,0.4l-0.1,0.8l-0.1,0.3l-0.1,1v0.5l0.1,0.1
							l0.2-0.2l0.1,0l0-0.1l0.3-0.5l0.3-0.2l0.4-0.7l0.1-0.2l0.2-0.2l0.2-0.3l0.1-0.1l0.1-0.1l0.1-0.2l0.2-0.4l0.1-0.2l0.3-0.5
							l1-2.5l0-0.2l0.1-0.1v-0.1l0.2-0.9l0-0.4l0.1-0.4l0.1-0.9v-0.5l-0.1-0.1L-1496.4-771.9L-1496.4-771.9z"/>
					</g>
				</g>
			</g>
			<g transform="matrix( 1, 0, 0, 1, 4.15,-61.25) ">
				<g transform="matrix( 1.01800537109375, 0.1243743896484375, -0.141387939453125, 1.1570892333984375, -637.7,-430.45) ">
					<g>
						<g id="girl003_00____girl003_girl003_00_______0_Layer0_0_STROKES_1_FILL_2_">
							<path class="st23" d="M2273.8-762.8l-6.1,2.3l-7.6,4.3c-0.9,0.6-1.8,1.3-2.7,2l-0.9,0.7l-0.4,0.4l-0.9,0.8l0,0.1l0.2,0
								l7.3-3.3l11.3-3.7l1.4-0.3l0.3-0.1l4.2-0.7l0.4,0l2.1-0.2l0.8,0c1,0,2,0,3,0c1,0,2,0.1,2.9,0.1l1.4,0.2l0.4,0l0.3,0.1
								l2.2,0.3l0.1,0l0.5,0.2l0.4,0l3.1,0.8c1.5,0.4,3.2,1,5.1,1.7l1.9,0.8l0.1,0l0.3,0.1l2.2,1l0.2,0.1l6.4,3.3
								c0.5,0.3,1.1,0.7,1.8,1l0.7,0.4c0,0,0.1,0,0.2,0v-0.1l-3.8-3.7l-2.4-1.8c-0.1-0.1-0.7-0.5-1.8-1.3l-2.1-1.4
								c-0.7-0.4-1.5-0.9-2.3-1.3c-2.1-1.1-3.8-1.9-5.3-2.3l-0.4-0.1l-1.9-0.6l-7-1.4c-1.4-0.1-2.5-0.2-3.2-0.2c-1.1,0-2.2,0-3.2,0
								l-3.2,0.3l-0.4,0.1l-2.8,0.5C2274.9-763.1,2273.9-762.8,2273.8-762.8z"/>
						</g>
					</g>
				</g>
			</g>
		</g>
	</g>
</g>
</svg>
