<?xml version="1.0" encoding="utf-8"?>
<!-- Generator: Adobe Illustrator 16.0.0, SVG Export Plug-In . SVG Version: 6.00 Build 0)  -->
<!DOCTYPE svg PUBLIC "-//W3C//DTD SVG 1.1//EN" "http://www.w3.org/Graphics/SVG/1.1/DTD/svg11.dtd">
<svg version="1.1" id="레이어_1" xmlns="http://www.w3.org/2000/svg" xmlns:xlink="http://www.w3.org/1999/xlink" x="0px"
	 y="0px" width="255.4px" height="247.3px" viewBox="0 0 255.4 247.3" style="enable-background:new 0 0 255.4 247.3;"
	 xml:space="preserve">
<style type="text/css">
<![CDATA[
	.st0{fill:#7B4320;}
	.st1{fill:#E5815C;}
	.st2{fill:none;stroke:#431E17;stroke-width:2.1999;stroke-linecap:round;stroke-linejoin:round;stroke-miterlimit:2.1999;}
	.st3{fill:#B352D7;}
	.st4{fill:#ECAA92;}
	.st5{fill:#581F15;}
	.st6{fill:none;stroke:#E5815C;stroke-width:3.2998;stroke-linecap:round;stroke-linejoin:round;stroke-miterlimit:2.1999;}
	.st7{fill:#270F0B;}
	.st8{fill:none;stroke:#EE6464;stroke-width:1.55;stroke-linecap:round;stroke-linejoin:round;stroke-miterlimit:2.0535;}
	.st9{fill:none;stroke:#2E0A0A;stroke-width:1.0999;stroke-linecap:round;stroke-linejoin:round;stroke-miterlimit:2.1999;}
	.st10{fill:#983232;}
	.st11{fill:#2E130E;}
	.st12{fill:#FFB79C;}
	.st13{fill:#FFD4B8;}
	.st14{fill:#FFECA3;}
	.st15{fill:#FFFFFF;}
	.st16{fill:#64331C;}
	.st17{fill:none;stroke:#ECAA92;stroke-width:2.1999;stroke-linecap:round;stroke-linejoin:round;stroke-miterlimit:2.1999;}
	.st18{fill:none;stroke:#270F0B;stroke-width:2.1999;stroke-linecap:round;stroke-linejoin:round;stroke-miterlimit:2.1999;}
	.st19{fill:none;stroke:#6633CC;stroke-width:5.4997;stroke-linecap:round;stroke-linejoin:round;stroke-miterlimit:2.1999;}
	.st20{fill:none;stroke:#EE6464;stroke-width:1.6499;stroke-linecap:round;stroke-linejoin:round;stroke-miterlimit:2.1999;}
	.st21{fill:#D20B0B;}
	.st22{fill:#742222;}
	.st23{fill:#431E17;}
]]>
</style>
<g>
	<g transform="matrix( 0.5499725341796875, 0, 0, 0.5499725341796875, 1464,658.55) ">
		<g transform="matrix( 1, 0, 0, 1, 0,0) ">
			<g>
				<g id="girl004_00____girl004_girl004_00________4_____0_Layer1_0_FILL">
					<path class="st0" d="M-2285.6-1127.5c-14.7-14.8-31.5-27.2-50.2-37.1c-18.7-9.9-38.4-16.7-58.9-20.4
						c-20.5-3.7-41.3-4.3-62.4-1.7c-21,2.7-41,8.4-60,17c-8.6,3.9-15.4,8-20.5,12.3c-4.9,4.2-8.6,8.8-10.9,13.8
						c-12.4,3.7-24.3,9.7-35.6,18c-12.9,9.5-24.2,21.3-33.8,35.3c-8.7,12.6-16.1,27.1-22.3,43.5c-5.2,13.8-9.7,29.5-13.6,47.2
						c-1.9,8.9-3.6,17.8-5.1,26.8c-0.2,1.2-0.4,2.4-0.5,3.6c-2.1,19.2-2.9,38.4-2.4,57.7c0.9,31.7,6.6,62.4,17.1,92.2
						c11.8,33.5,34.6,53.6,68.3,60.4c6.3,0.2,12.1-1,17.4-3.4c0.9-0.4,1.7-0.8,2.5-1.3c0.4,0.1,0.7,0.3,1.1,0.4
						c8,2.9,17.6,4.7,28.9,5.6c7.4,0.5,13.8,0.3,19-0.6c6.1-1,13-3.4,20.7-7.2c2.4-1.2,4.8-2.4,7.1-3.6c0.8,0.7,1.6,1.4,2.4,2.1
						c6.2,4.9,13.1,8.9,20.8,12c7.4,3,15.2,5.1,23.3,6.2c15.4,2,31.3,0.6,47.7-4.3c9.7-2.9,18.5-6.6,26.4-11.3
						c1.8,0.8,3.7,1.6,5.8,2.4c9.1,3.2,18.7,4.4,28.7,3.8c9.9-0.7,19.2-3.1,28-7.4c2-1,3.9-2,5.8-3.1c8-3.6,16.2-6.6,24.6-8.9
						c21.4-5.9,37.6-18.6,48.6-38.3c10.7-19.1,17.1-39.6,19.2-61.4c2-21.8,1.3-43.5-2.3-65.2c-1.2-8.1-2.6-16.7-4.4-25.7
						c-2.8-14.9-5.9-27.6-9.2-38.1c-2.4-7.5-5.5-15.8-9.2-24.8c-2.4-5.8-6-13.9-10.7-24.2c-4.5-10-8.2-17.6-11.2-22.7
						c-2.9-5-6.6-10.4-10.8-16c-3.1-4-7.2-9-12.3-14.9C-2275.8-1117.1-2281.4-1123.3-2285.6-1127.5z"/>
				</g>
			</g>
		</g>
	</g>
	<g transform="matrix( 0.5499725341796875, 0, 0, 0.5499725341796875, 1464,658.55) ">
		<g transform="matrix( 1, 0, 0, 1, 0.65,51.75) ">
			<g transform="matrix( 1, 0, 0, 1, -2.35,-51.75) ">
				<g>
					<g id="girl004_00____girl004_girl004_00__________4_0_Layer1_0_FILL">
						<path class="st13" d="M-2234.6-917.6c-6.2-8.9-14.6-13.4-25-13.4c-12.7,0-23.1,4.3-31.1,12.9c-6.9,7.4-13.1,19.1-18.6,35.2
							c0,0.7,0,1.4,0,2.1c0.6,9.7,1.7,18.1,3.4,25.2c5.4,22.8,16.4,34.3,33,34.3c6,0,11.9-2.1,17.8-6.4c5.4-3.9,10.3-9.3,14.8-16.2
							c4.3-6.6,7.7-13.9,10.1-21.8c2.5-8,3.8-15.6,3.8-22.9C-2226.3-900-2229.1-909.6-2234.6-917.6z"/>
					</g>
				</g>
			</g>
			<g transform="matrix( 1, 0, 0, 1, -590,-320.3) ">
				<g>
					<g id="girl004_00____girl004_girl004_00__________4_0_Layer1_1_FILL">
						<path class="st12" d="M-1707-627.8c-0.8,0.9-1.6,1.7-2.5,2.3c-4.6,3.3-6.8,7.6-6.6,13c0.2,6.3,1.3,12.4,3.4,18.4
							c2.2,6.3,6.3,10.7,12.4,13.2c6.3,2.6,12.6,2.8,19,0.6c6.1-2.1,10.7-5.9,13.8-11.6c3.1-5.7,5.2-11.8,6.4-18.2
							c1.2-6.4,0.5-12.7-1.9-18.8c-2.6-6.6-7.3-10.5-14.1-11.7c-5-0.4-9.9,0.3-14.6,2.2C-1697.8-636.1-1702.8-632.6-1707-627.8z"/>
					</g>
				</g>
			</g>
			<g transform="matrix( -1, 0, 0, 1, -5.65,-51.4) ">
				<g>
					<g id="girl004_00____girl004_girl004_00__________4_0_Layer1_2_FILL">
						<path class="st13" d="M2631.8-917.6c-6.2-8.9-14.6-13.4-25-13.4c-12.7,0-23.1,4.3-31.1,12.9c-6.9,7.4-13.1,19.2-18.6,35.1
							c0,0.7,0,1.4,0,2.1c0.6,9.7,1.8,18.1,3.5,25.2c5.4,22.8,16.4,34.3,33,34.3c6,0,11.9-2.1,17.8-6.3c5.4-3.9,10.3-9.4,14.8-16.3
							c4.3-6.6,7.7-13.9,10.1-21.8c2.5-8,3.8-15.6,3.8-23C2640.1-900,2637.3-909.6,2631.8-917.6z"/>
					</g>
				</g>
			</g>
			<g transform="matrix( -1, 0, 0, 1, 582,-319.95) ">
				<g>
					<g id="girl004_00____girl004_girl004_00__________4_0_Layer1_3_FILL">
						<path class="st12" d="M3159.4-627.8c-0.8,0.9-1.6,1.7-2.5,2.4c-4.6,3.3-6.8,7.6-6.6,12.9c0.2,6.3,1.3,12.4,3.4,18.4
							c2.2,6.3,6.3,10.7,12.4,13.2c6.3,2.6,12.6,2.8,19,0.6c6.1-2.1,10.7-5.9,13.8-11.6c3.1-5.7,5.2-11.8,6.4-18.2
							c1.2-6.4,0.5-12.7-1.9-18.8c-2.6-6.6-7.3-10.5-14-11.7c-5-0.4-9.9,0.3-14.6,2.1C3168.6-636.1,3163.6-632.6,3159.4-627.8z"/>
					</g>
				</g>
			</g>
			<g transform="matrix( 1, 0, 0, 1, 2.3,-51.4) ">
				<g>
					<g id="girl004_00____girl004_girl004_00__________4_0_Layer1_4_FILL">
						<path class="st0" d="M-2580.4-918c0-7.1-0.3-15.4-0.9-25.1l-9-69.6L-2613-943c2.7,15.2,6.4,28.4,11.1,39.5
							c3.1,7.2,6.3,12.8,9.7,16.9c2.8,3.4,5.1,5.2,6.9,5.2c2.2,0,3.6-3.5,4.3-10.4C-2580.6-896.5-2580.4-905.2-2580.4-918z"/>
					</g>
				</g>
			</g>
			<g transform="matrix( -1, 0, 0, 1, -15.55,-51.4) ">
				<g>
					<g id="girl004_00____girl004_girl004_00__________4_0_Layer1_5_FILL">
						<path class="st0" d="M2286-918c0-7.1-0.3-15.4-0.9-25.1l-9-69.6l-22.7,69.6c2.7,15.2,6.4,28.4,11.1,39.5
							c3.1,7.2,6.3,12.8,9.7,16.9c2.8,3.4,5.1,5.2,6.9,5.2c2.2,0,3.6-3.5,4.3-10.4C2285.8-896.5,2286-905.2,2286-918z"/>
					</g>
				</g>
			</g>
			<g transform="matrix( 1, 0, 0, 1, -8.15,0.2) ">
				<g transform="matrix( 1, 0, 0, 1, 0,0) ">
					<g>
						<g id="girl004_00____girl004_girl004_00__________0_Layer0_0_FILL">
							<path class="st13" d="M-2275.1-1047.6c0-27-5.1-50.5-15.1-70.5c-37.2-26.6-82.3-43.2-135.4-49.6c-55,4-103.2,21.6-144.6,52.6
								c-9.1,19.3-13.7,41.7-13.7,67.5c0,19.5,1.2,40.9,3.7,64.3c3.2,31.3,4.9,47.8,5,49.3c0.1,1.8,0.3,6.3,0.5,13.4
								c0.2,5.5,0.5,9.9,0.9,13.4c1.1,10.3,3.8,19.3,8.2,27c1,1.9,1.9,3.5,2.8,5c9.1,14.3,21.5,24.8,37.3,31.4
								c16.6,6.9,33.7,11.4,51.5,13.6c14.8,1.8,29.7,2.3,44.6,1.7c14.9,0.6,29.8,0,44.6-1.7c17.8-2.1,34.9-6.7,51.5-13.6
								c15.8-6.6,28.2-17.1,37.3-31.4c0.8-1.4,1.7-3.1,2.8-5c4.3-7.7,7-16.7,8.2-27c0.4-3.4,0.7-7.9,0.9-13.4
								c0.3-7.1,0.5-11.6,0.6-13.4c0.1-1.6,1.8-18,5-49.3C-2276.3-1006.7-2275.1-1028.1-2275.1-1047.6z"/>
						</g>
					</g>
				</g>
			</g>
			<g transform="matrix( 1, 0, 0, 1, 0,0) ">
				<g>
					<g id="girl004_00____girl004_girl004_00__________4_0_Layer1_7_FILL">
						<path class="st13" d="M-2283.2-1047.4c0-27-5.1-50.5-15.1-70.5c-37.2-26.6-82.3-43.2-135.4-49.6c-55,4-103.2,21.6-144.6,52.6
							c-9.1,19.3-13.7,41.7-13.7,67.5c0,19.5,1.2,40.9,3.7,64.3c3.2,31.3,4.9,47.8,5,49.3c0.1,1.8,0.3,6.3,0.5,13.4
							c0.2,5.5,0.5,9.9,0.9,13.4c1.1,10.3,3.8,19.3,8.2,27c1,1.9,1.9,3.5,2.8,5c9.1,14.3,21.5,24.8,37.3,31.4
							c16.6,6.9,33.7,11.4,51.5,13.6c14.8,1.8,29.7,2.3,44.6,1.7c14.9,0.6,29.8,0,44.6-1.7c17.8-2.1,34.9-6.7,51.5-13.6
							c15.8-6.6,28.2-17.1,37.3-31.4c0.8-1.4,1.7-3.1,2.8-5c4.3-7.7,7-16.7,8.2-27c0.4-3.4,0.7-7.9,0.9-13.4
							c0.3-7.1,0.5-11.6,0.6-13.4c0.1-1.6,1.8-18,5-49.3C-2284.5-1006.5-2283.2-1027.9-2283.2-1047.4z"/>
					</g>
				</g>
			</g>
			<g transform="matrix( 1, 0, 0, 1, 0,0) ">
				<g>
					<g id="girl004_00____girl004_girl004_00__________4_0_Layer1_8_FILL">
						<path class="st0" d="M-2610.1-1073.1c-1.4,6.8-2.3,12.8-2.6,18c-0.2,4.1-0.1,10.7,0.4,19.6l0.9,14.5c0.2,3,0.5,5.3,1,6.9
							c0.7,2.5,1.9,4.4,3.4,5.7c2,1.7,4.8,2.4,8.2,2.2c0.7-0.1,1.5-0.2,2.2-0.3c4.6-0.9,8.9-3.4,12.8-7.5c3.2-3.4,6.2-8.3,8.8-14.6
							c3.3-7.6,5.3-14.9,6.1-21.8c2.7-1.7,5.6-3.7,8.7-6c8.2-6.2,14.7-12.1,19.6-17.8c4.1-4.9,7.8-10.4,11-16.6
							c3.8-7.2,7.3-15.9,10.4-26.2c2.3-7.7,3.7-14.5,4.1-20.2c0-0.3,0-0.7,0-1c0.5-0.7,1-1.6,1.7-2.5c0.1-0.2,0.3-0.4,0.4-0.6
							c1.2-2.1,2-4,2.3-5.7c0.6-3.2,0-6.4-1.9-9.5c-1.9-3.1-4.4-5-7.6-5.9c-2.4-0.7-5.6-0.7-9.6-0.1c-7.1,1.2-14.1,3.4-21.1,6.8
							c-6.5,3.2-12.7,7.2-18.7,12.1c-7.7,6.3-14.5,13.5-20.4,21.6c-5.9,8.2-10.6,16.9-14,26.2
							C-2606.3-1089.5-2608.3-1081.9-2610.1-1073.1z"/>
					</g>
				</g>
			</g>
			<g transform="matrix( 1, 0, 0, 1, 0,-11.65) ">
				<g>
					<g id="girl004_00____girl004_girl004_00__________4_0_Layer1_9_FILL">
						<path class="st0" d="M-2335.5-1153.8c-1.6-1.5-3.7-3.3-6.3-5.7c-3.1-2.6-5.9-4.8-8.4-6.5c-5.2-3.5-11.4-6.5-18.7-9.2
							c-4.6-1.7-11.4-3.7-20.2-6c-8.8-2.4-15.7-4.1-20.6-5.3c-7.7-1.7-14.6-2.9-20.9-3.6c-15.8-1.8-29.8-0.6-41.8,3.6
							c-2.1,0.7-4.6,1.7-7.4,3c-1.6,0.7-4,1.8-7.2,3.2c-5.7,2.6-9.7,4.5-11.8,5.7c-2.4,1.3-4.5,2.2-6.5,2.8l-17.2,33.6
							c1.2,2.1,2.4,4.2,3.7,6.3c7.5,12.1,17.2,24.5,29.2,37.2c14.1,14.9,31.5,28.5,52.1,40.8c20.7,12.4,39.1,19.5,55.3,21.5
							c16.2,2,28.3,0.9,36.4-3.5c1.8,1.7,3.5,3.4,5.3,5.2c8.3,8.9,18.1,12.7,29.3,11.4c7.2-0.8,11.7-4.8,13.5-12
							c10.3,3.6,17.3,3.2,21-1.2c3.4-4,5.3-14.9,5.6-32.6c0.3-17.8-3-36.8-10-57C-2288-1142.2-2306.1-1152.8-2335.5-1153.8z"/>
					</g>
				</g>
			</g>
			<g transform="matrix( 1, 0, 0, 1, 0,0) ">
				<g>
					<g id="girl004_00____girl004_girl004_00__________4_0_Layer0_0_FILL_FL">
						<path class="st21" d="M-2384.2-1197.6c-15.9-5-32.2-7.8-48.9-8.3c-16.7-0.5-33.1,1.1-49.4,4.8c-17,3.9-33.3,9.7-49,17.5
							c-4,2.4-8.1,4.9-12.1,7.4c-14.9,9.1-27.8,20.4-38.6,34.1c-6.4,8.1-10.3,17.2-11.6,27.4l0.9,0.2c24.6-31.4,56.1-52.6,94.5-63.7
							c16.4-4.7,33.3-6.7,50.5-6c20.1,1,39.6,4.9,58.5,11.7c21.4,7.8,40.2,16.4,56.6,25.9c16.4,9.5,28.2,18.1,35.3,25.8
							c7.1,7.8,12.8,13.7,17.1,17.7c-0.2-10-6-21.8-17.3-35.4c-11.3-13.5-24.3-25.4-38.9-35.7
							C-2351.5-1184.4-2367.3-1192.2-2384.2-1197.6z"/>
					</g>
				</g>
			</g>
			<g transform="matrix( 1, 0, 0, 1, 1,-1.2) ">
				<g>
					<g id="girl004_00____girl004_girl004_00__________4_0_Layer0_1_FILL">
						<path class="st21" d="M-2392.9-1223.3c-2.7-3-5.2-5.4-7.5-7.3c-6.5-5.5-14.8-10-24.9-13.3c-9.9-3.3-19-4.5-27.4-3.8
							c-4.8,0.4-9.3,1.6-13.5,3.4c-4.5,1.9-8.3,4.5-11.5,7.7c-3.5,3.6-5.6,7.4-6.4,11.3c-0.5,2.2-0.5,4.4,0,6.6
							c0.5,2.3,1.4,4.2,2.8,5.9c1.4,1.7,3.7,3.3,7,5c7.6,3.7,17.3,6.8,29,9.2c13.5,2.3,23.6,4.2,30.3,5.7c7.7,1.7,17.9,4.5,30.5,8.4
							c1.6,0.5,2.8,0.9,3.6,1.3c0.6,0.3,1.2,0.6,1.7,1h10.6c0-3.5-0.6-7.1-1.8-10.6c-1.3-3.8-3.5-7.7-6.6-11.9
							c-1.4-1.8-4.3-5.4-8.9-10.6C-2390.4-1220.5-2392.7-1223.1-2392.9-1223.3 M-2432.7-1235c9.4,2.6,17.4,6.3,23.8,11.2
							c4,3.1,8.5,7.6,13.5,13.5c7.4,8.8,11.5,13.7,12.4,14.6c-3-0.7-7.6-1.9-13.8-3.8c-6-1.7-10.6-3-13.8-3.7
							c-6.8-1.6-17.1-3.4-30.9-5.7c-12.2-2.3-22-5.5-29.4-9.6c-1.1-0.6-1.8-1.2-2.2-1.8c-0.3-0.7-0.5-1.5-0.3-2.5
							c0.3-3.1,2.2-6,5.5-8.5c4.6-3.6,10.3-5.6,17-6C-2445.6-1237.5-2439.5-1236.8-2432.7-1235z"/>
					</g>
				</g>
			</g>
			<g transform="matrix( 1, 0, 0, 1, 3.15,13.15) ">
				<g>
					<g id="girl004_00____girl004_girl004_00__________4_0_Layer0_2_FILL">
						<path class="st21" d="M-2378.7-1203c-1.5,1.7-2.3,3.3-2.5,4.9c-0.1,1.1,0.2,2.2,0.7,3.2c0.5,1,1.2,1.9,2.1,2.7
							c0.8,0.6,1.7,1.3,2.8,1.9c0.1,0,1.1,0.5,3.1,1.5c6.8,3.2,16.3,8.8,28.5,16.7c12.4,8.2,21.9,13.9,28.4,17
							c4.3,2.1,8.1,3.5,11.4,4.3c2.2,0.5,4.7,0.9,7.5,1.1c2,0.1,4.5,0.2,7.6,0.2c4.5,0,8.1-0.1,10.9-0.6c4-0.6,7.3-1.7,10.1-3.3
							c4.4-2.5,7.2-6,8.5-10.3c1-3.1,1-6.5,0.1-10.4c-0.7-2.9-1.9-6.3-3.8-10.1c-2.4-4.9-4.9-9-7.4-12.4c-3.1-4.2-6.5-7.5-10.2-9.9
							c-2.4-1.6-5.3-3-8.5-4.3c-2.4-1-5.5-1.9-9.2-3c-13.7-3.8-25.8-5.6-36.3-5.5c-13.6,0.1-25.4,3.1-35.3,9.1
							C-2373.6-1207.9-2376.5-1205.6-2378.7-1203 M-2310.1-1203.5c4.7,1.3,11.1,3.8,19.2,7.5c3,1.4,5.2,2.6,6.5,3.8
							c1.4,1.3,2.6,3.1,3.8,5.6c1.9,3.7,3.2,7.7,4.1,11.8c0.8,4.2,0.5,7.4-0.9,9.6c-0.9,1.5-2.3,2.7-4.2,3.5
							c-1.7,0.7-3.5,1.1-5.6,1.2c-2.3,0.1-4.7-0.1-7.4-0.6c-2-0.4-4.4-1.1-7.3-2c-11.2-3.6-21.8-8.6-31.8-14.9
							c-10-6.3-19.1-13.7-27.3-22.1c10.3-4.2,22-6,35-5.5C-2320.1-1205.3-2314.8-1204.6-2310.1-1203.5z"/>
					</g>
				</g>
			</g>
			<g transform="matrix( 1, 0, 0, 1, 0,0) ">
				<g>
					<g id="girl004_00____girl004_girl004_00__________4_0_Layer0_3_FILL">
						<path class="st21" d="M-2369.8-1204.6c-6-1.7-10.6,0.1-13.9,5.3c-5.7,9.1-4.2,16.8,4.4,23.1c4.4,1.3,8.6,1.2,12.8-0.5
							c4.1-1.7,6.7-4.7,7.8-9C-2356.1-1195.5-2359.8-1201.8-2369.8-1204.6z"/>
					</g>
				</g>
			</g>
		</g>
		<g transform="matrix( 1, 0, 0, 1, -0.35,179.3) ">
			<g transform="matrix( 1, 0, 0, 1, 0,0) ">
				<g>
					<path id="girl004_00____girl004_girl004_00_________0_Layer0_0_1_STROKES" class="st20" d="M-2458.2-1003.5
						c17.2,12.8,34.6,12.5,52.2-0.8"/>
				</g>
			</g>
		</g>
		<g transform="matrix( 1, 0, 0, 1, -0.35,149.8) ">
			<g transform="matrix( 0.504058837890625, 0, 0, 0.504058837890625, -294.95,-206.35) ">
				<g>
					<g id="girl004_00____girl004_girl004_00______0_Layer0_0_STROKES_1_FILL">
						<path class="st1" d="M-4226.9-1570.6l-2-2.2l-0.5-0.4l-0.1-0.1l-0.2-0.1l-0.5-0.4l-0.1,0l0,0l-0.2-0.1l-0.5-0.4l-0.8-0.5
							c-0.6-0.4-1.4-0.8-2.3-1.1l-0.9-0.4l-0.3-0.1c-0.8-0.2-1.2-0.3-1.3-0.3l-0.3-0.1l-1-0.2l-3.5-0.4h-2.3l-3.6,0.4l-0.3,0.1
							l-0.3,0l-0.2,0h-0.1l-0.1,0l-2.1,0.7l-0.3,0.2l-0.3,0.1l-1.7,0.9h0l-0.1,0l-0.1,0.1l-0.3,0.1l-0.2,0.1l-0.1,0.1l-0.8,0.5
							l-0.2,0.2l-1.4,1.2l-1.4,1.8l-1,1.8c-0.3,0.7-0.6,1.3-0.7,1.8l-0.2,0.4l0,0.2l0,0.1v0.1l-0.3,1.5l-0.2,1.4v0.2l0,0.3v1.3
							l0.1,0.9l0.1,0.1l0-0.1l0.6-1.1l0.3-0.3l0.2-0.5l0.2-0.2l1.5-2.4l0-0.1l0,0l0.1-0.1l0.5-0.5l0.2-0.3l1.3-1.3l0.8-0.6l0-0.1
							l0.1,0l0.8-0.6l0.8-0.4l0.2-0.2l0.1,0l1.2-0.5l0.1,0h0l0.1,0l0.2,0l0.8-0.3l0.7-0.1l0.2-0.1l0.7-0.2h0.3l1.5-0.2h0.2l0.3,0
							h0.5l0.3,0l4.4,0.1h0.5l0.5,0.1h0.3l0.3,0l0.5,0l1.9,0.4l0.9,0.3l0.3,0.1l0.2,0.1l2.6,1l0.2,0.1l0.2,0.1l0.4,0.2l1.3,0.9
							l0.3,0.3l0.6,0.5l0,0.1l0.1,0l0.1,0.2l0.7,0.8l1.4,2l2.3,4.4l0.1,0l0.1-0.1l0.2-1.2v-2.6l-0.6-3.2l-0.1-0.2l-0.1-0.2l-0.2-0.5
							l0-0.3L-4226.9-1570.6z"/>
					</g>
				</g>
			</g>
		</g>
		<g transform="matrix( 1, 0, 0, 1, 88.25,166.4) ">
			<g transform="matrix( 1, 0, 0, 1, -680.95,-411.55) ">
				<g>
					<g id="girl004_00____girl004_girl004_00______0_Layer0_0_FILL_FL">
						<path class="st12" d="M-1717.4-584.7c0-3-3.4-5.6-10.2-7.8c-6.8-2.1-15-3.2-24.6-3.2c-9.6,0-17.8,1.1-24.6,3.2
							c-6.8,2.2-10.2,4.8-10.2,7.8s3.4,5.6,10.2,7.7c6.8,2.2,15,3.3,24.6,3.3c9.6,0,17.8-1.1,24.6-3.3
							C-1720.8-579.1-1717.4-581.7-1717.4-584.7z"/>
					</g>
				</g>
			</g>
		</g>
		<g transform="matrix( 1, 0, 0, 1, -90.85,166.4) ">
			<g transform="matrix( 1, 0, 0, 1, -680.95,-411.55) ">
				<g>
					<g id="girl004_00____girl004_girl004_00______0_Layer0_0_FILL_FL_1_">
						<path class="st12" d="M-1717.4-584.7c0-3-3.4-5.6-10.2-7.8c-6.8-2.1-15-3.2-24.6-3.2c-9.6,0-17.8,1.1-24.6,3.2
							c-6.8,2.2-10.2,4.8-10.2,7.8s3.4,5.6,10.2,7.7c6.8,2.2,15,3.3,24.6,3.3c9.6,0,17.8-1.1,24.6-3.3
							C-1720.8-579.1-1717.4-581.7-1717.4-584.7z"/>
					</g>
				</g>
			</g>
		</g>
		<g transform="matrix( 1.686859130859375, 0, 0, 1.6790008544921875, -1019.55,-526.55) ">
			<g>
				<g id="girl004_00____girl004_girl004_00________4____0_Layer5_0_FILL">
					<path class="st15" d="M-768.8-220.1c0-7.5-2.6-13.9-7.9-19.2c-5.3-5.3-11.6-7.9-19.1-7.9c-7.5,0-13.9,2.6-19.2,7.9
						c-5.3,5.3-7.9,11.7-7.9,19.2c0,7.5,2.6,13.9,7.9,19.2c5.3,5.3,11.7,8,19.2,8c7.5,0,13.9-2.7,19.1-8
						C-771.5-206.2-768.8-212.6-768.8-220.1z"/>
				</g>
			</g>
		</g>
		<g transform="matrix( -1.686859130859375, 0, 0, 1.6790008544921875, 1013.7,-526.55) ">
			<g>
				<g id="girl004_00____girl004_girl004_00________4____0_Layer5_1_FILL">
					<path class="st15" d="M2116-220.1c0-7.5-2.6-13.9-7.9-19.2c-5.3-5.3-11.7-7.9-19.2-7.9s-13.9,2.6-19.2,7.9
						c-5.3,5.3-7.9,11.7-7.9,19.2c0,7.5,2.6,13.9,7.9,19.2c5.3,5.3,11.7,8,19.2,8s13.9-2.7,19.2-8
						C2113.4-206.2,2116-212.6,2116-220.1z"/>
				</g>
			</g>
		</g>
		<g transform="matrix( 1.3050994873046875, 0, 0, 1.4173583984375, -769.95,-423.9) ">
			<g>
				<g id="girl004_00____girl004_girl004_00________4____0_Layer4_0_MEMBER_0_FILL">
					<path class="st11" d="M-1196.2-328.7c0-7.1-2.5-13.1-7.5-18.1c-5-5-11-7.4-18-7.4s-13.1,2.5-18.1,7.4c-5,5-7.4,11-7.4,18.1
						c0,7.1,2.5,13.1,7.4,18.1c5,5,11,7.5,18.1,7.5s13.1-2.5,18-7.5C-1198.7-315.6-1196.2-321.6-1196.2-328.7z"/>
				</g>
			</g>
		</g>
		<g transform="matrix( -1.24346923828125, 0, 0, 1.24346923828125, -21.35,-13.6) ">
			<g>
				<g id="girl004_00____girl004_girl004_00________4____0_Layer4_0_MEMBER_1_FILL">
					<path class="st15" d="M1903.5-717.4c0-1.7-0.6-3.2-1.8-4.3c-1.2-1.2-2.7-1.8-4.4-1.8c-1.7,0-3.2,0.6-4.4,1.8
						c-1.2,1.2-1.8,2.6-1.8,4.3c0,1.7,0.6,3.2,1.8,4.4c1.2,1.2,2.7,1.8,4.4,1.8c1.7,0,3.2-0.6,4.4-1.8
						C1902.9-714.2,1903.5-715.7,1903.5-717.4z"/>
				</g>
			</g>
		</g>
		<g transform="matrix( -1.3050994873046875, 0, 0, 1.4173583984375, 764.1,-423.9) ">
			<g>
				<g id="girl004_00____girl004_girl004_00________4____0_Layer3_0_MEMBER_0_FILL">
					<path class="st11" d="M2532.5-328.7c0-7.1-2.5-13.1-7.5-18.1c-5-5-11-7.4-18.1-7.4c-7.1,0-13.1,2.5-18.1,7.4
						c-5,5-7.5,11-7.5,18.1c0,7.1,2.5,13.1,7.5,18.1c5,5,11,7.5,18.1,7.5c7.1,0,13.1-2.5,18.1-7.5
						C2530-315.6,2532.5-321.6,2532.5-328.7z"/>
				</g>
			</g>
		</g>
		<g transform="matrix( 1.24346923828125, 0, 0, 1.24346923828125, 15.5,-13.6) ">
			<g>
				<g id="girl004_00____girl004_girl004_00________4____0_Layer3_0_MEMBER_1_FILL">
					<path class="st15" d="M-2010.1-717.4c0-1.7-0.6-3.2-1.8-4.3c-1.2-1.2-2.7-1.8-4.4-1.8c-1.7,0-3.2,0.6-4.4,1.8
						c-1.2,1.2-1.8,2.6-1.8,4.3c0,1.7,0.6,3.2,1.8,4.4c1.2,1.2,2.7,1.8,4.4,1.8c1.7,0,3.2-0.6,4.4-1.8
						C-2010.7-714.2-2010.1-715.7-2010.1-717.4z"/>
				</g>
			</g>
		</g>
		<g transform="matrix( 1, 0, 0, 1, 71,77.5) ">
			<g transform="matrix( -1.24346923828125, 0, 0, 1.24346923828125, -90.05,-98.85) ">
				<g>
					<g id="girl004_00____girl004_girl004_00__________4_0_Layer3_0_STROKES_1_FILL">
						<path class="st4" d="M1871-668.2l-2.4-0.2c-0.1,0-0.1,0-0.1,0.1l0,0.1l1,0.7l4,2l2.6,1c1.2,0.4,2.2,0.7,3,0.8l3.3,0.6
							c1,0.1,2.2,0.2,3.5,0.2l2.2,0l0.8-0.1h0.2l0.2,0l0.8-0.1l2.6-0.5c0.9-0.2,1.9-0.6,3-1l0.3-0.2l0.2,0l0.1-0.1l0.7-0.3l0.3-0.2
							l0.3-0.2l0.3-0.2l0.2,0l0.1-0.1c0.6-0.4,1.2-0.8,1.9-1.4l0.8-0.6l1.7-1.8l-0.1-0.1h-0.1l-1.1,0.4l-0.3,0.1l-0.8,0.3l-0.2,0
							l-3.4,1.1l-0.3,0.1l-0.3,0.1c0,0-0.2,0-0.6,0.1h-0.1l-0.2,0l-3.1,0.5h-0.4l-0.2,0h-0.1l-2.3,0.2h-0.4l-0.3,0.1h-4.3l-0.4-0.1
							h-0.8l-0.2,0h-0.2l-0.4-0.1h-0.7l-9.9-1l-0.2-0.1H1871z"/>
					</g>
				</g>
			</g>
			<g transform="matrix( 1.8548583984375, 0, 0, 1.8548583984375, -1199.3,-665) ">
				<g>
					<g id="girl004_00____girl004_girl004_00__________4_0_Layer2_0_STROKES_1_FILL">
						<path class="st7" d="M-657.2-191.6l-3.1-0.9l-2.5-0.4l-0.2,0h-0.2l-0.7-0.1h-0.4l-0.3,0h-0.5c-1.3,0-2.2,0-2.9,0.1l-1.7,0.2
							l-0.4,0.1l-1.1,0.2l-0.3,0.1l-0.4,0l-1.7,0.5c-1,0.3-1.9,0.6-2.6,0.9l-0.2,0.1l-0.2,0.1l-0.3,0.1l-1.7,0.9
							c-0.7,0.3-1.4,0.8-2.2,1.3l-4.6,4.2l-2.7,3.8l0,0.2l-0.1,0.1l-0.7,1.3l-0.2,0.4l-0.2,0.3l-0.2,0.6c-0.1,0.1-0.1,0.1,0,0.1h0.1
							l1-1.1l5.2-4.7l0.4-0.3c1-0.8,2.2-1.5,3.5-2.2l1.3-0.6l0.2-0.1l0.2-0.2l2.4-0.9l1.1-0.4l0.3,0l0.3-0.1l0.3,0l0.9-0.3l3.1-0.5
							h0.3l1-0.1c1.1-0.1,2-0.1,2.5-0.1h0.1l-0.2,0h0l0.1,0h0.5l0.2,0.1h0.5l0.3,0h0.1l0.2,0l2.2,0.3l0.2,0h0.2l1.2,0.2l0.3,0.1
							l0.3,0.1l1.8,0.5l0.3,0l1.4,0.5c0.3,0.1,1,0.4,2.2,0.9l0.5,0.3l0.4,0.2l0.1,0.1l2,1.1l0.1,0.1l1.1,0.7l0.2,0.1l2.8,2.2
							l0.3,0.3l0.4,0.2l4.1,4.1h0.2v-0.2l-0.3-0.6l-0.2-0.3l-2.3-3.9l-0.6-0.7l-0.2-0.4l-2.6-2.9l-2.9-2.5l-0.6-0.4l-0.1-0.1l-0.2,0
							l-0.2-0.2l-1.1-0.7l-0.6-0.3l-0.3-0.2l-0.9-0.4c-0.7-0.3-1.5-0.7-2.6-1.1L-657.2-191.6z"/>
					</g>
				</g>
			</g>
			<g transform="matrix( -1.24346923828125, 0, 0, 1.24346923828125, -90.05,-90.75) ">
				<g>
					<g id="girl004_00____girl004_girl004_00__________4_0_Layer1_0_STROKES_1_FILL">
						<path class="st7" d="M1857.1-747.9l-0.1,0.1v0.2l0,0.1l0.1,0.1v0.1l0.4,1l0.2,0.5l0.1,0.1l0.1,0.3l0.1,0.1l0,0.1l0.2,0.2
							l1,1.4l1.2,1.3l0.1,0.1l0.1,0l0.3,0.3l0.6,0.4l0.1,0.1l0.1,0.1l0.3,0.2l0.4,0.2l0.1,0.1l0,0l0.1,0.1l0.1,0l0.1,0v-0.2l0-0.2
							l-0.1,0v-0.1l-0.4-1.1l-0.2-0.5l-0.1-0.1l-0.1-0.3l-0.1,0l0-0.1l-0.1-0.2l-0.2-0.3l-0.7-1.1l-1.2-1.2l-0.1-0.1l-0.1,0
							l-0.4-0.3l-0.6-0.5l-0.1-0.1l-0.1,0l-0.3-0.2l-0.4-0.3l-0.1,0l-0.1-0.1L1857.1-747.9L1857.1-747.9z"/>
					</g>
				</g>
			</g>
			<g transform="matrix( -1.24346923828125, 0, 0, 1.24346923828125, -90.05,-90.75) ">
				<g>
					<g id="girl004_00____girl004_girl004_00__________4_0_Layer1_1_STROKES_1_FILL">
						<path class="st7" d="M1879.7-756.7L1879.7-756.7l-0.2-0.1l-0.1,0.2l-0.1,0.2v0.2l-0.1,0.9v0.2l-0.1,0.1l0.1,2.3l0,0.2v0.2
							l0.1,0.2v0.1l0.1,0.2l0.1,1l0.1,0.1v0.1l0,0.2l0.1,0.2l0.1,0.2l0.1,0.4l0.1,0.2l0,0.1v0.1l0.2,0.5l0.1,0.2l0,0.2l0.2,0.4
							l0.1,0.2l0.1,0.1l0.5,1l0.1,0.1l0.1,0.1l0.1,0l0.1-0.2l0-0.2v-0.2l0.1-0.9v-0.2l0-0.1l-0.1-2.3l-0.1-0.2v-0.2l0-0.2v-0.1
							l-0.1-0.2l-0.1-1l-0.1-0.1v-0.1l-0.1-0.2l-0.1-0.2l-0.1-0.2l-0.1-0.4l-0.1-0.2l0-0.1v-0.1l-0.2-0.5l-0.1-0.2l-0.1-0.2
							l-0.1-0.4l-0.1-0.2l-0.1-0.1l-0.5-1L1879.7-756.7z"/>
					</g>
				</g>
			</g>
			<g transform="matrix( -1.24346923828125, 0, 0, 1.24346923828125, -90.05,-90.75) ">
				<g>
					<g id="girl004_00____girl004_girl004_00__________4_0_Layer1_2_STROKES_1_FILL">
						<path class="st7" d="M1904.3-753.3L1904.3-753.3l-0.4,0.5l-0.3,0.2l-0.4,0.6l-0.1,0.2l-0.1,0.2l-0.2,0.3l-0.1,0.1l-0.1,0.2
							l-0.1,0.2l-0.3,0.4l-0.1,0.2l-0.3,0.5l-0.1,0.1l-0.9,2.3l-0.1,0.3l0,0.1v0.1l-0.1,0.4l-0.2,0.8l-0.1,0.4l-0.1,0.9v0.5l0.1,0.1
							l0.3-0.2l0.1-0.1l0.1-0.1l0.4-0.4l0.2-0.3l0.4-0.6l0.1-0.2l0.1-0.2l0.2-0.3l0.1-0.1l0.1-0.1l0.1-0.2l0.2-0.4l0.1-0.2l0.3-0.6
							l0.9-2.5l0-0.2l0.1-0.1v-0.1l0.3-0.9l0-0.4l0.1-0.3l0.1-1v-0.5l-0.1-0.1L1904.3-753.3L1904.3-753.3z"/>
					</g>
				</g>
			</g>
			<g transform="matrix( 1, 0, 0, 1, 4.15,-61.25) ">
				<g transform="matrix( 1.01800537109375, 0.1243743896484375, -0.141387939453125, 1.1570892333984375, -637.7,-430.45) ">
					<g>
						<g id="girl004_00____girl004_girl004_00_______0_Layer0_0_STROKES_1_FILL">
							<path class="st23" d="M-1816.3-303.1l-6.1,2.2l-7.6,4.3c-0.9,0.6-1.8,1.3-2.7,2l-0.9,0.7l-0.3,0.3l-0.9,0.8v0.2l0.1,0
								l7.4-3.3l11.2-3.6l1.4-0.2l0.4-0.1l4.2-0.7h0.4l2.2-0.2l0.8,0c1,0,2,0,2.9,0c1,0,2,0.1,2.9,0.2l1.5,0.2l0.4,0l0.4,0.1
								l2.1,0.4l0.1,0l0.6,0.1l0.3,0l3.1,0.8c1.5,0.4,3.2,1,5.1,1.7l2,0.8l0.1,0.1l0.3,0.1l2.1,1l0.3,0.2l6.3,3.3
								c0.5,0.3,1.1,0.7,1.8,1l0.7,0.4c0,0,0.1,0,0.1,0l0-0.1l-3.8-3.6l-2.3-1.9c-0.1-0.1-0.7-0.5-1.9-1.3l-2.1-1.3
								c-0.7-0.4-1.5-0.9-2.3-1.3c-2.1-1.1-3.8-1.8-5.3-2.4l-0.4-0.2l-1.9-0.6l-7-1.4c-1.4-0.1-2.5-0.2-3.2-0.2c-1.1,0-2.2,0-3.2,0
								l-3.2,0.3l-0.4,0.1l-2.7,0.4C-1815.2-303.4-1816.1-303.1-1816.3-303.1z"/>
						</g>
					</g>
				</g>
			</g>
		</g>
		<g transform="matrix( -1, 0, 0, 1, -76.85,77.5) ">
			<g transform="matrix( -1.24346923828125, 0, 0, 1.24346923828125, -90.05,-98.85) ">
				<g>
					<g id="girl004_00____girl004_girl004_00__________4_0_Layer3_0_STROKES_1_FILL_1_">
						<path class="st4" d="M-2042.5-668.2l-2.4-0.2c-0.1,0-0.1,0-0.1,0.1l0.1,0.1l1,0.7l4,2l2.7,1c1.2,0.4,2.2,0.7,3,0.8l3.3,0.6
							c1,0.1,2.2,0.2,3.5,0.2l2.2-0.1l0.9-0.1h0.2l0.2,0l0.9-0.1l2.6-0.5c0.9-0.2,1.9-0.6,3-1l0.4-0.2l0.2,0l0-0.1l0.8-0.3l0.3-0.2
							l0.3-0.2l0.3-0.2l0.2-0.1l0.1-0.1c0.6-0.4,1.3-0.8,2-1.4l0.8-0.6l1.7-1.8l-0.1-0.1h-0.1l-1.1,0.4l-0.3,0.1l-0.7,0.3l-0.2,0
							l-3.4,1.1l-0.3,0.1l-0.3,0.1c0,0-0.2,0-0.6,0.1h-0.1l-0.2,0l-3.1,0.5h-0.4l-0.2,0h-0.1l-2.3,0.2h-0.4l-0.3,0h-4.3l-0.4,0h-0.8
							l-0.2,0h-0.2l-0.4,0h-0.8l-9.9-1l-0.2-0.1H-2042.5z"/>
					</g>
				</g>
			</g>
			<g transform="matrix( 1.8548583984375, 0, 0, 1.8548583984375, -1199.3,-665) ">
				<g>
					<g id="girl004_00____girl004_girl004_00__________4_0_Layer2_0_STROKES_1_FILL_1_">
						<path class="st7" d="M1966.4-191.6l-3.1-0.9l-2.5-0.4l-0.2,0h-0.2l-0.7-0.1h-0.4l-0.3,0h-0.5c-1.3,0-2.2,0-2.9,0.1l-1.8,0.2
							l-0.4,0.1l-1.1,0.2l-0.3,0.1l-0.4,0l-1.7,0.5c-1,0.3-1.9,0.6-2.6,0.9l-0.2,0.1l-0.2,0.1l-0.3,0.1l-1.8,0.9
							c-0.7,0.3-1.4,0.8-2.2,1.3l-4.6,4.2l-2.7,3.8l-0.1,0.2l-0.1,0.1l-0.7,1.3l-0.2,0.4l-0.2,0.3l-0.2,0.6c-0.1,0.1-0.1,0.1,0,0.1
							h0.1l1-1.1l5.2-4.7l0.4-0.3c1-0.8,2.2-1.5,3.5-2.2l1.3-0.6l0.3-0.1l0.2-0.2l2.4-0.9l1.1-0.4l0.3,0l0.3-0.1l0.3,0l0.9-0.3
							l3.1-0.5h0.3l1-0.1c1.1-0.1,2-0.1,2.5-0.1h0.1l-0.2,0h0l0.1,0h0.5l0.1,0.1h0.5l0.3,0h0.2l0.2,0l2.2,0.3l0.1,0h0.2l1.2,0.2
							l0.3,0.1l0.3,0.1l1.8,0.5l0.3,0l1.4,0.5c0.3,0.1,1,0.4,2.2,0.9l0.5,0.3l0.4,0.2l0.1,0.1l2.1,1.1l0.1,0.1l1.1,0.7l0.2,0.1
							l2.9,2.2l0.3,0.3l0.4,0.2l4.1,4.1h0.1v-0.2l-0.2-0.6l-0.2-0.3l-2.2-3.9l-0.6-0.7l-0.2-0.4l-2.6-2.9l-3-2.5l-0.5-0.4l-0.1-0.1
							l-0.2,0l-0.2-0.2l-1.1-0.7l-0.6-0.3l-0.3-0.2l-0.9-0.4c-0.7-0.3-1.5-0.7-2.6-1.1L1966.4-191.6z"/>
					</g>
				</g>
			</g>
			<g transform="matrix( -1.24346923828125, 0, 0, 1.24346923828125, -90.05,-90.75) ">
				<g>
					<g id="girl004_00____girl004_girl004_00__________4_0_Layer1_0_STROKES_1_FILL_1_">
						<path class="st7" d="M-2056.5-747.9l-0.1,0.1v0.2l0.1,0.1l0.1,0.1v0.1l0.4,1l0.3,0.5l0.1,0.1l0.1,0.3l0.1,0l0,0.1l0.2,0.2
							l0.9,1.4l1.2,1.3l0.1,0.1l0.1,0l0.3,0.3l0.6,0.4l0.1,0.1l0.2,0.1l0.2,0.2l0.4,0.2l0.1,0.1l0.1,0l0.1,0.1l0.1,0l0.1,0v-0.2
							l-0.1-0.2l-0.1,0v-0.1l-0.4-1.1l-0.3-0.5l-0.1-0.1l-0.2-0.3l0,0l-0.1-0.1l-0.2-0.2l-0.2-0.3l-0.7-1.1l-1.2-1.2l-0.1-0.1
							l-0.1,0l-0.3-0.3l-0.6-0.5l-0.1-0.1l-0.2,0l-0.2-0.2l-0.4-0.3l-0.1,0l-0.1-0.1l-0.1,0L-2056.5-747.9z"/>
					</g>
				</g>
			</g>
			<g transform="matrix( -1.24346923828125, 0, 0, 1.24346923828125, -90.05,-90.75) ">
				<g>
					<g id="girl004_00____girl004_girl004_00__________4_0_Layer1_1_STROKES_1_FILL_1_">
						<path class="st7" d="M-2033.9-756.7l-0.1-0.1l-0.1-0.1l-0.1,0.2l-0.1,0.2v0.2l-0.1,0.9v0.2l0,0.1l0.1,2.3l0.1,0.2v0.2l0.1,0.2
							v0.1l0,0.2l0.1,1l0.1,0.1v0.1l0.1,0.2l0.1,0.2l0.1,0.2l0.1,0.4l0.1,0.2l0.1,0.1v0.1l0.1,0.5l0.1,0.2l0.1,0.2l0.1,0.4l0.1,0.2
							l0.1,0.1l0.5,1l0.1,0.1l0.1,0.1l0.1,0l0.1-0.2l0.1-0.2v-0.2l0.1-0.9v-0.2l0.1-0.1l-0.1-2.3l0-0.2v-0.2l-0.1-0.2v-0.1l-0.1-0.2
							l-0.1-1l-0.1-0.1v-0.1l0-0.2l-0.1-0.2l0-0.2l-0.2-0.4l0-0.2l-0.1-0.1v-0.1l-0.1-0.5l-0.1-0.2l0-0.2l-0.1-0.4l-0.1-0.2
							l-0.1-0.1l-0.5-1L-2033.9-756.7z"/>
					</g>
				</g>
			</g>
			<g transform="matrix( -1.24346923828125, 0, 0, 1.24346923828125, -90.05,-90.75) ">
				<g>
					<g id="girl004_00____girl004_girl004_00__________4_0_Layer1_2_STROKES_1_FILL_1_">
						<path class="st7" d="M-2009.3-753.3L-2009.3-753.3l-0.4,0.5l-0.2,0.2l-0.4,0.6l-0.1,0.2l-0.1,0.2l-0.2,0.3l-0.1,0.1l0,0.2
							l-0.1,0.2l-0.2,0.4l-0.1,0.2l-0.3,0.5l-0.1,0.1l-0.9,2.3l0,0.3l-0.1,0.1v0.1l-0.1,0.4l-0.1,0.8l-0.1,0.4l-0.1,0.9v0.5l0.1,0.1
							l0.3-0.2l0.1-0.1l0.1-0.1l0.3-0.4l0.3-0.3l0.4-0.6l0.1-0.2l0.2-0.2l0.2-0.3l0.1-0.1l0.1-0.1l0.1-0.2l0.3-0.4l0.1-0.2l0.3-0.6
							l0.9-2.5l0.1-0.2l0-0.1v-0.1l0.3-0.9l0.1-0.4l0.1-0.3l0.1-1v-0.5l-0.1-0.1L-2009.3-753.3L-2009.3-753.3z"/>
					</g>
				</g>
			</g>
			<g transform="matrix( 1, 0, 0, 1, 4.15,-61.25) ">
				<g transform="matrix( 1.01800537109375, 0.1243743896484375, -0.141387939453125, 1.1570892333984375, -637.7,-430.45) ">
					<g>
						<g id="girl004_00____girl004_girl004_00_______0_Layer0_0_STROKES_1_FILL_1_">
							<path class="st23" d="M2893.7-809.4l-6.1,2.2l-7.6,4.3c-0.9,0.6-1.8,1.3-2.7,2l-0.9,0.7l-0.4,0.3l-0.9,0.8v0.2l0.2,0l7.3-3.3
								l11.3-3.6l1.4-0.2l0.3-0.1l4.2-0.7l0.4,0l2.1-0.2l0.7,0c1,0,2,0,3,0c1,0,2,0.1,2.9,0.2l1.4,0.2l0.4,0l0.3,0.1l2.2,0.4l0.2,0
								l0.5,0.1l0.4,0l3.1,0.8c1.5,0.4,3.2,1,5.1,1.7l1.9,0.8l0.1,0.1l0.3,0.1l2.1,1l0.2,0.2l6.4,3.3c0.5,0.3,1.1,0.7,1.8,1l0.7,0.4
								c0,0,0.1,0,0.1,0l0-0.1l-3.8-3.6l-2.4-1.9c-0.1-0.1-0.7-0.5-1.8-1.3l-2.1-1.3c-0.7-0.4-1.5-0.9-2.3-1.3
								c-2.1-1.1-3.8-1.9-5.3-2.4l-0.4-0.2l-1.9-0.6l-7-1.4c-1.4-0.1-2.5-0.2-3.2-0.2c-1.1,0-2.2,0-3.2,0l-3.2,0.3l-0.4,0.1
								l-2.8,0.4C2894.8-809.7,2893.9-809.4,2893.7-809.4z"/>
						</g>
					</g>
				</g>
			</g>
		</g>
		<g transform="matrix( 1, 0, 0, 1, -2.05,99.1) ">
			<g transform="matrix( 1, 0, 0, 1, 7.4,-101.25) ">
				<g>
					<path id="girl004_00____girl004_girl004_00_______copy_0_Layer0_0_1_STROKES" class="st19" d="M-2452.6-895
						c0,16.9-6,31.4-18,43.3c-11.9,12-26.4,18-43.3,18c-16.9,0-31.3-6-43.3-18c-11.9-11.9-17.9-26.4-17.9-43.3
						c0-16.9,6-31.3,17.9-43.3c12-11.9,26.4-17.9,43.3-17.9c16.9,0,31.4,6,43.3,17.9C-2458.6-926.3-2452.6-911.9-2452.6-895z"/>
				</g>
			</g>
			<g transform="matrix( 1, 0, 0, 1, 153.85,-101.25) ">
				<g>
					<path id="girl004_00____girl004_girl004_00_______copy_0_Layer0_1_1_STROKES" class="st19" d="M-2452.6-895
						c0,16.9-6,31.4-18,43.3c-11.9,12-26.4,18-43.3,18c-16.9,0-31.3-6-43.3-18c-11.9-11.9-17.9-26.4-17.9-43.3
						c0-16.9,6-31.3,17.9-43.3c12-11.9,26.4-17.9,43.3-17.9c16.9,0,31.4,6,43.3,17.9C-2458.6-926.3-2452.6-911.9-2452.6-895z"/>
				</g>
			</g>
			<g transform="matrix( 1, 0, 0, 1, 2.05,-99.1) ">
				<g>
					<path id="girl004_00____girl004_girl004_00_______copy_0_Layer0_2_1_STROKES" class="st19" d="M-2445.1-891.5h18.2"/>
				</g>
			</g>
		</g>
	</g>
</g>
</svg>
