<?xml version="1.0" encoding="utf-8"?>
<!-- Generator: Adobe Illustrator 16.0.0, SVG Export Plug-In . SVG Version: 6.00 Build 0)  -->
<!DOCTYPE svg PUBLIC "-//W3C//DTD SVG 1.1//EN" "http://www.w3.org/Graphics/SVG/1.1/DTD/svg11.dtd">
<svg version="1.1" id="레이어_1" xmlns="http://www.w3.org/2000/svg" xmlns:xlink="http://www.w3.org/1999/xlink" x="0px"
	 y="0px" width="252px" height="216.8px" viewBox="0 0 252 216.8" style="enable-background:new 0 0 252 216.8;"
	 xml:space="preserve">
<style type="text/css">
<![CDATA[
	.st0{fill:#7B4320;}
	.st1{fill:#E5815C;}
	.st2{fill:none;stroke:#431E17;stroke-width:2.1999;stroke-linecap:round;stroke-linejoin:round;stroke-miterlimit:2.1999;}
	.st3{fill:#B352D7;}
	.st4{fill:#ECAA92;}
	.st5{fill:#581F15;}
	.st6{fill:none;stroke:#E5815C;stroke-width:3.2998;stroke-linecap:round;stroke-linejoin:round;stroke-miterlimit:2.1999;}
	.st7{fill:#270F0B;}
	.st8{fill:none;stroke:#EE6464;stroke-width:1.55;stroke-linecap:round;stroke-linejoin:round;stroke-miterlimit:2.0535;}
	.st9{fill:none;stroke:#2E0A0A;stroke-width:1.0999;stroke-linecap:round;stroke-linejoin:round;stroke-miterlimit:2.1999;}
	.st10{fill:#983232;}
	.st11{fill:#2E130E;}
	.st12{fill:#FFB79C;}
	.st13{fill:#FFD4B8;}
	.st14{fill:#FFECA3;}
	.st15{fill:#FFFFFF;}
	.st16{fill:#64331C;}
	.st17{fill:none;stroke:#ECAA92;stroke-width:2.1999;stroke-linecap:round;stroke-linejoin:round;stroke-miterlimit:2.1999;}
	.st18{fill:none;stroke:#270F0B;stroke-width:2.1999;stroke-linecap:round;stroke-linejoin:round;stroke-miterlimit:2.1999;}
	.st19{fill:none;stroke:#6633CC;stroke-width:5.4997;stroke-linecap:round;stroke-linejoin:round;stroke-miterlimit:2.1999;}
	.st20{fill:none;stroke:#EE6464;stroke-width:1.6499;stroke-linecap:round;stroke-linejoin:round;stroke-miterlimit:2.1999;}
	.st21{fill:#D20B0B;}
	.st22{fill:#742222;}
	.st23{fill:#431E17;}
]]>
</style>
<g transform="matrix( 0.51336669921875, 0, 0, 0.513519287109375, 514.9,671.9) ">
	<g transform="matrix( 1, 0, 0, 1, -3.95,-13.3) ">
		<g transform="matrix( 1, 0, 0, 1, 0,0) ">
			<g>
				<g id="girl01_00____girl01_girl01_00________5_0_Layer1_0_FILL">
					<path class="st10" d="M-757.6-1271.7c-63.7-0.4-115.6,16.9-155.4,51.8c-39.9,34.9-57.5,87.9-52.6,159.1
						c4.8,71.2,29.7,117.9,74.5,140.3c44.9,22.3,97.8,31.9,159,28.7c61.1-3.2,108.8-18.4,143.2-45.8c34.4-27.4,50.3-75,48-142.8
						c-2.4-67.8-23.2-116.5-62.2-146.2C-642.4-1256.4-693.8-1271.4-757.6-1271.7z"/>
				</g>
			</g>
		</g>
		<g transform="matrix( 1, 0, 0, 1, 0,0) ">
			<g>
				<g id="girl01_00____girl01_girl01_00________5_0_Layer0_0_FILL_FL">
					<path class="st14" d="M-634.3-1229.5c-0.1,5.2,0.5,10.3,2,15.3c1.4,5.1,3.6,9.8,6.4,14.1c2.6,4,6.3,8.4,11.1,13.1
						c3.5,3.5,6.5,6.1,9.1,7.9c4.1,2.9,8.6,5,13.6,6.3c5,1.3,9.9,1.7,14.9,1.3c4.7-0.5,8.6-1.7,11.7-3.6c1.8-1.1,3.3-2.5,4.6-4.1
						c1.3-1.7,2.2-3.5,2.6-5.5c0.5-2.4,0.3-5.8-0.6-10c-0.1-0.4-0.9-3.6-2.4-9.6c-1.5-5.3-2.8-9.2-4-11.6c-1.6-3.2-3.8-6.5-6.6-9.7
						c-5.7-6.8-12.3-12.7-19.8-17.6c-7.1-4.8-13.7-7.4-19.9-7.9c-3.8-0.3-7.4,0.2-10.7,1.6c-3.6,1.4-6.4,3.6-8.3,6.5
						C-633-1239.7-634.2-1235.2-634.3-1229.5z"/>
				</g>
			</g>
		</g>
		<g transform="matrix( 1, 0, 0, 1, 0,0) ">
			<g>
				<g id="girl01_00____girl01_girl01_00________5_0_Layer0_1_FILL">
					<path class="st10" d="M-606.3-1285.5c-5.9,4.1-10.4,9.1-13.6,15c-2.8,5-4.5,10.6-5.2,16.7c-0.7,5.8-0.4,11.6,0.8,17.6
						c2.1,10.3,7,20.9,14.6,31.8c5,7,9.9,12.2,14.8,15.7c4,2.9,8.6,5.1,13.7,6.7c4.8,1.5,9.9,2.2,15.1,2.3
						c9.8,0.1,19.6-2.2,29.6-6.9c5.1-2.4,9.1-5,12.1-7.9c2.8-2.6,5.4-6.1,8.1-10.5c3-4.9,5.1-9.4,6.3-13.6c1.3-4.5,1.9-9.2,1.8-14.1
						c-0.1-4.7-0.9-9.5-2.4-14.2c-2.5-8.3-6.9-16.7-13.3-25.4c-2.9-3.9-5.6-7-8.2-9.2c-3.8-3.3-8.9-6.1-15.2-8.4
						c-6.7-2.5-13.4-4.1-20-4.8c-7.1-0.7-13.9-0.3-20.3,1.1C-594.4-1292.2-600.7-1289.4-606.3-1285.5z"/>
				</g>
			</g>
		</g>
		<g transform="matrix( 1, 0, 0, 1, 0,0) ">
			<g>
				<g id="girl01_00____girl01_girl01_00________5_0_Layer0_2_FILL">
					<path class="st13" d="M-882.9-978.1c0-0.7,0.1-1.4,0.1-2.1c-5.5-16.1-11.7-27.9-18.7-35.4c-8.1-8.6-18.5-12.9-31.3-12.9
						c-10.5,0-18.9,4.5-25.2,13.5c-5.6,8.1-8.4,17.7-8.4,29.1c0,7.4,1.3,15.1,3.8,23.1c2.5,8,5.9,15.3,10.2,21.9
						c4.5,6.9,9.5,12.4,14.9,16.4c5.9,4.3,11.9,6.4,17.9,6.4c16.7,0,27.8-11.5,33.2-34.5C-884.7-959.9-883.5-968.4-882.9-978.1z"/>
				</g>
			</g>
		</g>
		<g transform="matrix( -1, 0, 0, 1, 583.65,-255.25) ">
			<g>
				<g id="girl01_00____girl01_girl01_00________5_0_Layer0_3_FILL">
					<path class="st12" d="M1481.3-738.4c-0.8,0.9-1.6,1.7-2.6,2.4c-4.6,3.3-6.8,7.6-6.6,13c0.2,6.3,1.3,12.5,3.4,18.5
						c2.2,6.3,6.4,10.8,12.5,13.3c6.3,2.6,12.7,2.8,19.1,0.6c6.2-2.1,10.8-6,13.8-11.7c3.1-5.8,5.3-11.9,6.4-18.3
						c1.2-6.4,0.5-12.7-1.9-18.9c-2.6-6.6-7.3-10.6-14.1-11.8c-5.1-0.4-10,0.3-14.7,2.2C1490.6-746.8,1485.5-743.2,1481.3-738.4z"/>
				</g>
			</g>
		</g>
		<g transform="matrix( 1, 0, 0, 1, 0,0) ">
			<g>
				<g id="girl01_00____girl01_girl01_00________5_0_Layer0_4_FILL">
					<path class="st10" d="M-898.3-1015.4c0-7.1-0.3-15.5-0.9-25.2l-9-70l-22.9,70c2.7,15.3,6.4,28.6,11.2,39.8
						c3.1,7.2,6.3,12.9,9.7,17c2.9,3.5,5.2,5.2,6.9,5.2c2.2,0,3.7-3.5,4.3-10.5C-898.6-993.8-898.3-1002.6-898.3-1015.4z"/>
				</g>
			</g>
		</g>
		<g transform="matrix( 1, 0, 0, 1, 0,0) ">
			<g>
				<g id="girl01_00____girl01_girl01_00________5_0_Layer0_5_FILL">
					<path class="st13" d="M-550.3-1015.1c-6.3-9-14.7-13.5-25.2-13.5c-12.8,0-23.2,4.3-31.3,12.9c-7,7.5-13.2,19.3-18.7,35.4
						c0,0.7,0,1.4,0.1,2.1c0.6,9.7,1.8,18.2,3.5,25.4c5.4,23,16.5,34.5,33.2,34.5c6,0,12-2.1,17.9-6.4c5.4-4,10.4-9.4,14.9-16.4
						c4.3-6.6,7.7-13.9,10.2-21.9c2.5-8,3.8-15.7,3.8-23.1C-541.9-997.3-544.7-1007-550.3-1015.1z"/>
				</g>
			</g>
		</g>
		<g transform="matrix( 1, 0, 0, 1, -583.7,-255.25) ">
			<g>
				<g id="girl01_00____girl01_girl01_00________5_0_Layer0_6_FILL">
					<path class="st12" d="M-27-738.4c-0.8,0.9-1.6,1.7-2.6,2.4c-4.6,3.3-6.8,7.6-6.6,13c0.2,6.3,1.3,12.5,3.4,18.5
						c2.2,6.3,6.4,10.8,12.5,13.3c6.3,2.6,12.7,2.8,19.1,0.6c6.2-2.1,10.8-6,13.8-11.7c3.1-5.8,5.3-11.9,6.4-18.3
						c1.2-6.4,0.5-12.7-1.9-18.9c-2.6-6.6-7.3-10.6-14.1-11.8c-5.1-0.4-10,0.3-14.7,2.2C-17.7-746.8-22.8-743.2-27-738.4z"/>
				</g>
			</g>
		</g>
		<g transform="matrix( 1, 0, 0, 1, 0,0) ">
			<g>
				<g id="girl01_00____girl01_girl01_00________5_0_Layer0_7_FILL">
					<path class="st10" d="M-588.7-995.6c5.5-12.8,9.6-28.3,12.3-46.6c6.8-68.1,1-90.2-17.3-66.4c-16.4-5.8-21.5,16.3-15.3,66.4
						c-0.9,12.6-1.4,23.3-1.4,32c0,12.9,0.2,21.6,0.7,26.3c0.7,7,2.1,10.5,4.3,10.5c1.7,0,4-1.7,6.9-5.2
						C-595-982.7-591.8-988.4-588.7-995.6z"/>
				</g>
			</g>
		</g>
		<g transform="matrix( 1, 0, 0, 1, 0,0) ">
			<g>
				<g id="girl01_00____girl01_girl01_00________5_0_Layer0_8_FILL">
					<path class="st13" d="M-613.9-1164.5c-37.4-26.8-82.8-43.4-136.2-49.9c-55.4,4.1-103.9,21.7-145.5,52.9
						c-9.2,19.4-13.8,42-13.8,67.9c0,19.6,1.2,41.2,3.7,64.7c3.3,31.5,4.9,48.1,5,49.7c0.1,1.8,0.3,6.3,0.6,13.5
						c0.2,5.5,0.5,10,0.9,13.4c1.1,10.4,3.9,19.4,8.2,27.2c1,1.9,2,3.5,2.8,5c0.2,0.3,0.4,0.6,0.6,0.9c9.1,14,21.5,24.2,37,30.7
						c16.7,6.9,33.9,11.5,51.8,13.6c14.9,1.8,29.9,2.4,44.9,1.8c9.5,0.4,19,0.3,28.5-0.3c5.5-0.3,10.9-0.8,16.4-1.5
						c17.9-2.1,35.2-6.7,51.8-13.6c15.9-6.6,28.4-17.2,37.5-31.6c0.8-1.4,1.7-3.1,2.8-5c4.3-7.8,7.1-16.9,8.2-27.2
						c0.4-3.5,0.7-7.9,0.9-13.4c0.3-7.2,0.5-11.7,0.6-13.5c0.1-1.6,1.8-18.2,5-49.7c2.4-23.5,3.7-45.1,3.7-64.7
						C-598.6-1120.8-603.7-1144.4-613.9-1164.5z"/>
				</g>
			</g>
		</g>
		<g transform="matrix( 1, 0, 0, 1, 0,0) ">
			<g>
				<g id="girl01_00____girl01_girl01_00________5_0_Layer0_9_FILL">
					<path class="st10" d="M-921.9-1147.3c-2.1,7.2-2.9,14.2-2.6,21.1c0.1,1.4,0.2,2.8,0.4,4c-0.6-0.7-1.1-1.6-1.3-2.7
						c-2.1-0.1-4.1,0.7-5.8,2.4c-1.7,1.6-2.6,3.6-2.6,5.7c0,1.6,0.6,3.2,1.6,4.8c0.9,1.4,2.2,2.6,3.7,3.5c2.5,1.4,5.7,2.3,9.8,2.6
						c1.4,0.1,2.7,0.2,4.1,0.2c3.4,0,6.6-0.3,9.8-1c8.1-1.5,16.2-5.2,24.4-11.2c1.9-1.3,3.6-2.8,5.3-4.2c5-4,9.4-8.6,13-13.9
						c6.3-9,10.2-19,11.8-29.9c5,14.2,12.4,26.9,22.2,38.3c16.5,19.3,37.4,30.6,62.7,34c0.2,0,0.3,0,0.5,0c3.2,0.8,6.4,0.7,9.5-0.3
						c0.2-0.1,0.3-0.2,0.5-0.3l-0.3-1.2l-9.7-7.8c-9.4-7.6-17-16.8-22.8-27.7c5.4,5.7,11.4,10.9,17.9,15.5c1.6,1.2,3.3,2.3,4.9,3.3
						c25,16,50.9,17.7,77.6,5.2c-15.6-8.2-28.1-19.8-37.5-34.7c4.6,3.3,10.7,7.7,18.4,13.3c7.7,5.6,22.8,10.9,45.2,15.8
						c22.5,5,44.7-0.5,66.7-16.4l7.1-8.4c1.3-1.9,2.2-3.8,2.6-5.7c1-4.1,0.1-8.6-2.6-13.4c-3.4-4.7-7.2-9-11.6-13
						c-16.1-14.7-33.5-27.8-52.2-39.3c-4.7-3.3-8.3-5.9-10.8-7.6c-5.3-3.7-10-6.7-14.1-9.1c-26.8-15.3-61.5-21.8-104.3-19.5
						c-16.5,0.9-31.1,3-43.7,6.2c-15.4,4-28.6,10-39.7,17.9c-6.5,4.6-14.1,11.4-22.8,20.4c-5.8,6-10.6,11.3-14.4,15.8
						c-5,6-9.1,11.8-12.4,17.5C-917.1-1160.5-920-1153.9-921.9-1147.3z"/>
				</g>
			</g>
		</g>
		<g transform="matrix( 1, 0, 0, 1, 0,0) ">
			<g>
				<g id="girl01_00____girl01_girl01_00________5_0_Layer0_10_FILL">
					<path class="st14" d="M-935.1-1225.5c-2.8,3.3-5,6.5-6.6,9.7c-1.2,2.4-2.5,6.3-4,11.6c-1.5,5.9-2.3,9.1-2.4,9.6
						c-0.9,4.3-1.1,7.6-0.6,10c0.4,1.9,1.3,3.8,2.6,5.5c1.2,1.6,2.8,3,4.6,4.1c3.1,1.9,7,3.1,11.7,3.6c5,0.5,10,0,14.9-1.3
						c5-1.3,9.5-3.5,13.6-6.3c2.5-1.7,5.5-4.3,9.1-7.9c4.8-4.7,8.5-9.1,11.1-13.1c2.9-4.4,5-9.1,6.4-14.1c1.4-5,2.1-10.1,2-15.3
						c-0.1-5.7-1.3-10.2-3.6-13.5c-1.9-2.9-4.7-5-8.3-6.5c-3.4-1.4-6.9-1.9-10.7-1.6c-6.1,0.5-12.8,3.2-19.9,7.9
						C-922.8-1238.2-929.4-1232.3-935.1-1225.5z"/>
				</g>
			</g>
		</g>
		<g transform="matrix( 1, 0, 0, 1, 0,0) ">
			<g>
				<g id="girl01_00____girl01_girl01_00________5_0_Layer0_11_FILL">
					<path class="st10" d="M-919.6-1293.7c-6.4-1.4-13.2-1.8-20.3-1.1c-6.6,0.7-13.3,2.3-20,4.8c-6.4,2.3-11.5,5.1-15.2,8.4
						c-2.6,2.2-5.3,5.2-8.2,9.2c-6.4,8.6-10.8,17.1-13.3,25.4c-1.4,4.7-2.2,9.5-2.4,14.2c-0.1,5,0.5,9.7,1.8,14.1
						c1.3,4.2,3.4,8.8,6.3,13.6c2.6,4.4,5.3,7.9,8.1,10.5c3,2.9,7,5.5,12.1,7.9c10,4.7,19.8,7,29.6,6.9c5.2,0,10.3-0.8,15.1-2.3
						c5.1-1.5,9.7-3.8,13.7-6.7c4.9-3.5,9.9-8.7,14.8-15.7c7.7-10.9,12.6-21.5,14.6-31.8c1.2-5.9,1.5-11.8,0.8-17.6
						c-0.7-6.1-2.4-11.7-5.2-16.7c-3.2-5.9-7.8-10.9-13.6-15C-906.5-1289.4-912.8-1292.2-919.6-1293.7z"/>
				</g>
			</g>
		</g>
	</g>
	<g transform="matrix( 1, 0, 0, 1, -0.35,179.3) ">
		<g transform="matrix( 1, 0, 0, 1, 0,0) ">
			<g>
				<path id="girl01_00____girl01_girl01_00_________0_Layer0_0_1_STROKES" class="st8" d="M-779.3-1113.6
					c17.3,12.9,34.8,12.6,52.5-0.9"/>
			</g>
		</g>
	</g>
	<g transform="matrix( 1, 0, 0, 1, -0.35,149.8) ">
		<g transform="matrix( 1, 0, 0, 1, 0,0) ">
			<g>
				<g id="girl01_00____girl01_girl01_00______5_0_Layer0_0_STROKES_1_FILL">
					<path class="st1" d="M-760.7-1126.1l-0.7,0.2l-0.4,0.2l-0.2,0l-2,1l-1.5,1c-0.1,0.1-0.3,0.2-0.5,0.4l-0.5,0.5
						c-0.8,0.8-1.4,1.6-1.9,2.4c-0.3,0.5-0.5,1-0.7,1.5l-0.2,0.4l-0.1,0.5l-0.2,0.4l-0.3,1.4l0,1c0,0.6,0,1.3,0.2,1.9l0.5,1.8
						l0.2,0.4l0.1,0.1l0,0v0.1l0.1,0.1l0.1,0.2l1.1,2l0.5,0.7l0.2,0.2l0.1,0.1l0.3,0.3c0.6,0.7,1.3,1.4,2.2,2l0.6,0.4l0.3,0.2
						l0.2,0.1l0.2,0l1.2,0.6l0.6,0.2l0.3,0l0.3,0.1l0.5,0.1l1.8,0.1l1.4-0.3l0.4-0.1l0.1-0.1l-0.1,0l-1.4-1.1l-0.3-0.3l-0.2-0.1
						l-0.1-0.2l-1.5-1.4l-0.6-0.8l-0.1-0.2l-0.3-0.4l-0.1-0.2c-0.3-0.5-0.6-1.1-1-1.8l-0.3-0.5l-0.9-2.3v0l-0.1,0l-0.3-1.2
						c-0.1-0.4-0.2-1-0.2-1.8l0.1-0.2v-0.3l0.1-0.5v-0.2l0.1-0.3l0.1-0.5c0.3-0.9,0.5-1.6,0.7-1.9l1.1-2.3l0.2-0.2l0.8-1.5l0.1-0.2
						l0.5-0.9l0.1-0.3l0.4-0.7l0-0.2h-0.1L-760.7-1126.1z"/>
				</g>
			</g>
		</g>
	</g>
	<g transform="matrix( 1.686859130859375, 0, 0, 1.6790008544921875, -1019.55,-526.55) ">
		<g>
			<g id="girl01_00____girl01_girl01_00________5____0_Layer4_0_FILL">
				<path class="st15" d="M227-286c0-7.5-2.7-14-8-19.3c-5.3-5.3-11.7-8-19.3-8c-7.5,0-14,2.7-19.3,8c-5.3,5.3-8,11.8-8,19.3
					c0,7.5,2.7,14,8,19.3c5.3,5.3,11.8,8,19.3,8c7.5,0,14-2.7,19.3-8C224.3-272,227-278.5,227-286z"/>
			</g>
		</g>
	</g>
	<g transform="matrix( -1.686859130859375, 0, 0, 1.6790008544921875, 1013.7,-526.55) ">
		<g>
			<g id="girl01_00____girl01_girl01_00________5____0_Layer4_1_FILL">
				<path class="st15" d="M1121.1-286c0-7.5-2.7-14-8-19.3c-5.3-5.3-11.7-8-19.3-8c-7.5,0-14,2.7-19.3,8c-5.3,5.3-8,11.8-8,19.3
					c0,7.5,2.7,14,8,19.3c5.3,5.3,11.8,8,19.3,8c7.5,0,14-2.7,19.3-8C1118.5-272,1121.1-278.5,1121.1-286z"/>
			</g>
		</g>
	</g>
	<g transform="matrix( 1.3050994873046875, 0, 0, 1.4173583984375, -769.95,-423.9) ">
		<g>
			<g id="girl01_00____girl01_girl01_00________5____0_Layer3_0_MEMBER_0_FILL">
				<path class="st11" d="M90.8-406.7c0-7.1-2.5-13.2-7.5-18.2c-5-5-11.1-7.5-18.2-7.5c-7.1,0-13.2,2.5-18.2,7.5
					c-5,5-7.5,11.1-7.5,18.2c0,7.1,2.5,13.2,7.5,18.2c5,5,11.1,7.5,18.2,7.5c7.1,0,13.2-2.5,18.2-7.5
					C88.3-393.6,90.8-399.6,90.8-406.7z"/>
			</g>
		</g>
	</g>
	<g transform="matrix( -1.24346923828125, 0, 0, 1.24346923828125, -21.35,-13.6) ">
		<g>
			<g id="girl01_00____girl01_girl01_00________5____0_Layer3_0_MEMBER_1_FILL">
				<path class="st15" d="M552.9-806.4c0-1.7-0.6-3.2-1.8-4.4c-1.2-1.2-2.7-1.8-4.4-1.8s-3.2,0.6-4.4,1.8c-1.2,1.2-1.8,2.7-1.8,4.4
					c0,1.7,0.6,3.2,1.8,4.4c1.2,1.2,2.7,1.8,4.4,1.8s3.2-0.6,4.4-1.8C552.3-803.2,552.9-804.7,552.9-806.4z"/>
			</g>
		</g>
	</g>
	<g transform="matrix( -1.3050994873046875, 0, 0, 1.4173583984375, 764.1,-423.9) ">
		<g>
			<g id="girl01_00____girl01_girl01_00________5____0_Layer2_0_MEMBER_0_FILL">
				<path class="st11" d="M1246.5-406.7c0-7.1-2.5-13.2-7.5-18.2c-5-5-11.1-7.5-18.2-7.5c-7.1,0-13.2,2.5-18.2,7.5
					c-5,5-7.5,11.1-7.5,18.2c0,7.1,2.5,13.2,7.5,18.2c5,5,11.1,7.5,18.2,7.5c7.1,0,13.2-2.5,18.2-7.5
					C1244-393.6,1246.5-399.6,1246.5-406.7z"/>
			</g>
		</g>
	</g>
	<g transform="matrix( 1.24346923828125, 0, 0, 1.24346923828125, 15.5,-13.6) ">
		<g>
			<g id="girl01_00____girl01_girl01_00________5____0_Layer2_0_MEMBER_1_FILL">
				<path class="st15" d="M-660-806.4c0-1.7-0.6-3.2-1.8-4.4c-1.2-1.2-2.7-1.8-4.4-1.8c-1.7,0-3.2,0.6-4.4,1.8
					c-1.2,1.2-1.8,2.7-1.8,4.4c0,1.7,0.6,3.2,1.8,4.4c1.2,1.2,2.7,1.8,4.4,1.8c1.7,0,3.2-0.6,4.4-1.8
					C-660.6-803.2-660-804.7-660-806.4z"/>
			</g>
		</g>
	</g>
	<g transform="matrix( 1, 0, 0, 1, 71,77.5) ">
		<g transform="matrix( -1.24346923828125, 0, 0, 1.24346923828125, -90.05,-98.85) ">
			<g>
				<g id="girl01_00____girl01_girl01_00__________5_0_Layer3_0_STROKES_1_FILL">
					<path class="st4" d="M520.3-756.9l-2.4-0.2c-0.1,0-0.1,0-0.1,0.1l0.1,0.1l1.1,0.7l4,2l2.7,1c1.2,0.4,2.2,0.7,3,0.8l3.3,0.6
						c1,0.1,2.2,0.2,3.5,0.2l2.2,0l0.9-0.1h0.3l0.2-0.1l0.9-0.1l2.6-0.6c0.9-0.2,1.9-0.6,3-1.1l0.4-0.1l0.2-0.1l0.1,0l0.8-0.4
						l0.3-0.2l0.3-0.2l0.3-0.2l0.2-0.1l0.2-0.1c0.6-0.4,1.3-0.8,2-1.4l0.8-0.7l1.7-1.8l-0.1-0.1h-0.1l-1.1,0.5l-0.4,0.1l-0.8,0.3
						l-0.2,0l-3.4,1.1l-0.3,0.1l-0.3,0.1c0,0-0.3,0-0.7,0.1H545l-0.2,0l-3.1,0.6h-0.4L541-756h-0.2l-2.3,0.2h-0.4l-0.4,0.1h-4.4
						l-0.4-0.1h-0.8l-0.2,0h-0.2l-0.4,0h-0.8l-10-1l-0.2-0.1H520.3z"/>
				</g>
			</g>
		</g>
		<g transform="matrix( 1.8548583984375, 0, 0, 1.8548583984375, -1199.3,-665) ">
			<g>
				<g id="girl01_00____girl01_girl01_00__________5_0_Layer2_0_STROKES_1_FILL">
					<path class="st7" d="M248.3-251.4l-3.1-0.9l-2.5-0.4l-0.2-0.1h-0.2l-0.7-0.1h-0.4l-0.4,0h-0.5c-1.3,0-2.2,0-2.9,0.1l-1.8,0.2
						l-0.4,0.1l-1.1,0.2l-0.4,0.1l-0.4,0l-1.7,0.5c-1,0.3-1.9,0.6-2.6,1l-0.2,0.1l-0.2,0.1l-0.3,0.1l-1.8,1
						c-0.7,0.3-1.4,0.8-2.2,1.4L220-244l-2.7,3.8l-0.1,0.1l-0.1,0.1l-0.7,1.3l-0.2,0.4l-0.2,0.3l-0.3,0.6c-0.1,0.1-0.1,0.2,0.1,0.2
						h0.1l1-1.1l5.3-4.7l0.4-0.3c1-0.8,2.2-1.5,3.6-2.3l1.3-0.7l0.3-0.1l0.3-0.2l2.5-1l1.2-0.4l0.3-0.1l0.3-0.1l0.3,0l0.9-0.3
						l3.1-0.5h0.3l1-0.1c1.1-0.1,2-0.1,2.6,0h0.1l-0.2,0h0l0.1,0h0.5l0.2,0h0.5l0.3,0.1h0.2l0.2,0.1l2.2,0.3l0.2,0h0.2l1.2,0.3
						l0.3,0.1l0.3,0.1l1.8,0.6l0.3,0l1.4,0.6c0.3,0.1,1,0.4,2.2,0.9l0.5,0.3l0.4,0.2l0.1,0.1l2.1,1.2l0.1,0.1l1.1,0.8l0.3,0.1
						l2.9,2.3l0.3,0.3l0.4,0.3l4.1,4.1h0.2v-0.1l-0.3-0.6l-0.2-0.3l-2.3-3.9l-0.6-0.7l-0.3-0.4l-2.6-2.9l-3-2.5l-0.6-0.4l-0.1-0.1
						l-0.2-0.1l-0.3-0.2l-1.1-0.7l-0.6-0.3l-0.3-0.2l-0.9-0.5c-0.7-0.3-1.5-0.7-2.6-1.1L248.3-251.4z"/>
				</g>
			</g>
		</g>
		<g transform="matrix( -1.24346923828125, 0, 0, 1.24346923828125, -90.05,-90.75) ">
			<g>
				<g id="girl01_00____girl01_girl01_00__________5_0_Layer1_0_STROKES_1_FILL">
					<path class="st7" d="M506.2-837.2l-0.2,0v0.2l0.1,0.1l0.1,0.1v0.1l0.4,1.1l0.3,0.5l0.1,0.2l0.2,0.4l0.1,0l0,0.1l0.2,0.2l1,1.4
						l1.2,1.3l0.1,0.1l0.1,0.1l0.4,0.4l0.6,0.5l0.1,0.1l0.2,0.1l0.3,0.2l0.4,0.3l0.1,0.1l0.1,0l0.2,0.1l0.1,0l0.2,0v-0.2l0-0.1
						l-0.1-0.1v-0.1l-0.4-1.1l-0.3-0.5l-0.1-0.1l-0.2-0.4l-0.1-0.1l-0.1-0.1l-0.2-0.2l-0.2-0.4l-0.8-1.1l-1.2-1.3l-0.1-0.2l-0.1,0
						l-0.4-0.4l-0.6-0.5l-0.1-0.1l-0.2-0.1l-0.3-0.2l-0.4-0.3l-0.1,0l-0.1-0.1l-0.2,0L506.2-837.2z"/>
				</g>
			</g>
		</g>
		<g transform="matrix( -1.24346923828125, 0, 0, 1.24346923828125, -90.05,-90.75) ">
			<g>
				<g id="girl01_00____girl01_girl01_00__________5_0_Layer1_1_STROKES_1_FILL">
					<path class="st7" d="M529-846l-0.1-0.1l-0.1,0l-0.1,0.2l-0.1,0.2v0.2l-0.1,0.9v0.2l-0.1,0.1l0.1,2.3l0,0.3v0.3l0.1,0.3v0.1
						l0.1,0.1l0.2,1l0.1,0.1v0.1l0.1,0.3l0.1,0.3l0.1,0.3l0.2,0.5l0,0.3l0.1,0.1v0.1l0.2,0.5l0.1,0.2l0.1,0.2l0.2,0.4l0.1,0.2
						l0.1,0.2l0.5,1l0.1,0.1l0.1,0.1l0.1,0.1l0.1-0.2l0.1-0.2v-0.2l0.1-0.9v-0.2l0.1-0.1l-0.1-2.3l0-0.3v-0.3l-0.1-0.3v-0.1
						l-0.1-0.1l-0.2-1l-0.1-0.1v-0.1l-0.1-0.3l-0.1-0.3l-0.1-0.3l-0.2-0.5l0-0.3l-0.1-0.1v-0.1l-0.2-0.5l-0.1-0.2l0-0.2l-0.2-0.4
						l-0.1-0.2l-0.1-0.2l-0.5-1L529-846z"/>
				</g>
			</g>
		</g>
		<g transform="matrix( -1.24346923828125, 0, 0, 1.24346923828125, -90.05,-90.75) ">
			<g>
				<g id="girl01_00____girl01_girl01_00__________5_0_Layer1_2_STROKES_1_FILL">
					<path class="st7" d="M553.7-842.5l0,0.1l-0.4,0.5l-0.3,0.3l-0.5,0.7l-0.1,0.2l-0.2,0.2l-0.2,0.4l-0.1,0.1l-0.1,0.1l-0.1,0.2
						l-0.3,0.4l-0.1,0.3l-0.3,0.6l-0.1,0.1l-0.9,2.4l-0.1,0.3l0,0.1v0.1l-0.2,0.5l-0.2,0.9l-0.1,0.4l-0.1,1v0.5l0.1,0.1l0.3-0.3
						l0.1,0l0.1-0.1l0.4-0.5l0.3-0.3l0.5-0.7l0.1-0.2l0.2-0.2l0.2-0.4l0.1-0.1l0.1-0.1l0.1-0.2l0.3-0.4l0.1-0.3l0.3-0.6l1-2.5
						l0.1-0.3l0-0.1v-0.1l0.3-0.9l0.1-0.4l0.1-0.4l0.1-1v-0.5l-0.1-0.1l-0.3,0.3L553.7-842.5z"/>
				</g>
			</g>
		</g>
		<g transform="matrix( 1, 0, 0, 1, 4.15,-61.25) ">
			<g transform="matrix( 1.01800537109375, 0.1243743896484375, -0.141387939453125, 1.1570892333984375, -637.7,-430.45) ">
				<g>
					<g id="girl01_00____girl01_girl01_00_______5_0_Layer0_0_STROKES_1_FILL">
						<path class="st23" d="M-203.9-572.6l-6.1,2.3l-7.6,4.4c-0.9,0.6-1.8,1.3-2.7,2l-1,0.8l-0.4,0.4l-0.9,0.8l0,0.2l0.2,0l7.4-3.4
							l11.3-3.7l1.4-0.3l0.4-0.1l4.3-0.7l0.4,0l2.2-0.2l0.8,0c1,0,2,0,3,0c1,0,2,0,3,0.2l1.5,0.2l0.4,0l0.4,0.1l2.2,0.4l0.2,0
							l0.6,0.2l0.4,0.1l3.1,0.8c1.5,0.4,3.2,1,5.1,1.7l2,0.8l0.1,0.1l0.3,0.1l2.2,1l0.3,0.2l6.4,3.3c0.5,0.3,1.1,0.7,1.8,1.1
							l0.7,0.4c0,0,0.1,0,0.2,0l0-0.1l-3.8-3.7l-2.4-1.9c-0.1-0.1-0.7-0.5-1.9-1.3l-2.1-1.4c-0.7-0.4-1.5-0.9-2.3-1.3
							c-2.1-1.1-3.9-1.9-5.3-2.4l-0.4-0.2l-1.9-0.6l-7-1.5c-1.4-0.1-2.5-0.2-3.2-0.2c-1.1,0-2.2,0-3.3,0l-3.2,0.3l-0.4,0.1l-2.8,0.5
							C-202.8-572.8-203.8-572.6-203.9-572.6z"/>
					</g>
				</g>
			</g>
		</g>
	</g>
	<g transform="matrix( -1, 0, 0, 1, -76.85,77.5) ">
		<g transform="matrix( -1.24346923828125, 0, 0, 1.24346923828125, -90.05,-98.85) ">
			<g>
				<g id="girl01_00____girl01_girl01_00__________5_0_Layer3_0_STROKES_1_FILL_1_">
					<path class="st4" d="M-692.7-756.9l-2.4-0.2c-0.1,0-0.1,0-0.1,0.1l0,0.1l1.1,0.7l4,2l2.7,1c1.2,0.4,2.2,0.7,3,0.8l3.3,0.6
						c1,0.1,2.2,0.2,3.5,0.2l2.2,0l0.9-0.1h0.3l0.2-0.1l0.9-0.1l2.6-0.6c0.9-0.2,1.9-0.6,3-1.1l0.4-0.1l0.2-0.1l0.1,0l0.8-0.4
						l0.3-0.2l0.3-0.2l0.3-0.2l0.2-0.1l0.2-0.1c0.6-0.4,1.3-0.8,2-1.4l0.8-0.7l1.7-1.8l0-0.1h-0.1l-1.1,0.5l-0.4,0.1l-0.8,0.3
						l-0.2,0l-3.4,1.1l-0.3,0.1l-0.3,0.1c0,0-0.3,0-0.7,0.1h-0.2l-0.2,0l-3.1,0.6h-0.4l-0.2,0.1h-0.2l-2.3,0.2h-0.4l-0.4,0.1h-4.4
						l-0.4-0.1h-0.8l-0.2,0h-0.2l-0.4,0h-0.8l-10-1l-0.2-0.1H-692.7z"/>
				</g>
			</g>
		</g>
		<g transform="matrix( 1.8548583984375, 0, 0, 1.8548583984375, -1199.3,-665) ">
			<g>
				<g id="girl01_00____girl01_girl01_00__________5_0_Layer2_0_STROKES_1_FILL_1_">
					<path class="st7" d="M1061.5-251.4l-3.1-0.9l-2.5-0.4l-0.2-0.1h-0.2l-0.7-0.1h-0.4l-0.4,0h-0.5c-1.3,0-2.2,0-2.9,0.1l-1.8,0.2
						l-0.4,0.1l-1.1,0.2l-0.4,0.1l-0.4,0l-1.7,0.5c-1,0.3-1.9,0.6-2.6,1l-0.2,0.1l-0.2,0.1l-0.3,0.1l-1.8,1
						c-0.7,0.3-1.4,0.8-2.2,1.4l-4.6,4.2l-2.7,3.8l-0.1,0.1l-0.1,0.1l-0.7,1.3l-0.2,0.4l-0.2,0.3l-0.3,0.6c-0.1,0.1-0.1,0.2,0.1,0.2
						h0.1l1-1.1l5.3-4.7l0.4-0.3c1-0.8,2.2-1.5,3.6-2.3l1.3-0.7l0.3-0.1l0.3-0.2l2.5-1l1.2-0.4l0.3-0.1l0.3-0.1l0.3,0l0.9-0.3
						l3.1-0.5h0.3l1-0.1c1.1-0.1,2-0.1,2.6,0h0l-0.2,0h0.1l0.1,0h0.5l0.2,0h0.5l0.3,0.1h0.2l0.2,0.1l2.2,0.3l0.2,0h0.2l1.2,0.3
						l0.3,0.1l0.3,0.1l1.8,0.6l0.3,0l1.4,0.6c0.3,0.1,1,0.4,2.2,0.9l0.5,0.3l0.4,0.2l0.1,0.1l2.1,1.2l0.1,0.1l1.1,0.8l0.3,0.1
						l2.9,2.3l0.3,0.3l0.4,0.3l4.1,4.1h0.2v-0.1l-0.3-0.6l-0.2-0.3l-2.3-3.9l-0.6-0.7l-0.3-0.4l-2.6-2.9l-3-2.5l-0.6-0.4l-0.1-0.1
						l-0.2-0.1l-0.3-0.2l-1.1-0.7l-0.6-0.3l-0.3-0.2l-0.9-0.5c-0.7-0.3-1.5-0.7-2.6-1.1L1061.5-251.4z"/>
				</g>
			</g>
		</g>
		<g transform="matrix( -1.24346923828125, 0, 0, 1.24346923828125, -90.05,-90.75) ">
			<g>
				<g id="girl01_00____girl01_girl01_00__________5_0_Layer1_0_STROKES_1_FILL_1_">
					<path class="st7" d="M-706.7-837.2l-0.2,0v0.2l0.1,0.1l0.1,0.1v0.1l0.4,1.1l0.3,0.5l0.1,0.2l0.2,0.4l0.1,0l0,0.1l0.2,0.2l1,1.4
						l1.2,1.3l0.1,0.1l0.1,0.1l0.4,0.4l0.6,0.5l0.1,0.1l0.2,0.1l0.3,0.2l0.4,0.3l0.1,0.1l0,0l0.2,0.1l0.1,0l0.2,0v-0.2l-0.1-0.1
						l0-0.1v-0.1l-0.4-1.1l-0.3-0.5l-0.1-0.1l-0.2-0.4l0-0.1l-0.1-0.1l-0.2-0.2l-0.2-0.4l-0.8-1.1l-1.2-1.3l-0.1-0.2l-0.1,0
						l-0.4-0.4l-0.6-0.5l-0.1-0.1l-0.2-0.1l-0.3-0.2l-0.4-0.3l-0.1,0l-0.1-0.1l-0.2,0L-706.7-837.2z"/>
				</g>
			</g>
		</g>
		<g transform="matrix( -1.24346923828125, 0, 0, 1.24346923828125, -90.05,-90.75) ">
			<g>
				<g id="girl01_00____girl01_girl01_00__________5_0_Layer1_1_STROKES_1_FILL_1_">
					<path class="st7" d="M-684-846l-0.1-0.1l-0.1,0l-0.1,0.2l0,0.2v0.2l-0.1,0.9v0.2l-0.1,0.1l0.1,2.3l0.1,0.3v0.3l0,0.3v0.1
						l0.1,0.1l0.2,1l0,0.1v0.1l0.1,0.3l0.1,0.3l0.1,0.3l0.2,0.5l0.1,0.3l0.1,0.1v0.1l0.2,0.5l0.1,0.2l0.1,0.2l0.2,0.4l0.1,0.2
						l0.1,0.2l0.5,1l0.1,0.1l0.1,0.1l0.1,0.1l0.1-0.2l0.1-0.2v-0.2l0.1-0.9v-0.2l0-0.1l-0.1-2.3l0-0.3v-0.3l-0.1-0.3v-0.1l-0.1-0.1
						l-0.2-1l0-0.1v-0.1l-0.1-0.3l-0.1-0.3l-0.1-0.3l-0.2-0.5l-0.1-0.3l-0.1-0.1v-0.1l-0.2-0.5l-0.1-0.2l-0.1-0.2l-0.2-0.4l-0.1-0.2
						l0-0.2l-0.5-1L-684-846z"/>
				</g>
			</g>
		</g>
		<g transform="matrix( -1.24346923828125, 0, 0, 1.24346923828125, -90.05,-90.75) ">
			<g>
				<g id="girl01_00____girl01_girl01_00__________5_0_Layer1_2_STROKES_1_FILL_1_">
					<path class="st7" d="M-659.2-842.5l-0.1,0.1l-0.4,0.5l-0.3,0.3l-0.5,0.7l-0.1,0.2l-0.2,0.2l-0.2,0.4l-0.1,0.1l-0.1,0.1
						l-0.1,0.2l-0.3,0.4l-0.1,0.3l-0.3,0.6l0,0.1l-0.9,2.4l0,0.3l-0.1,0.1v0.1l-0.2,0.5l-0.2,0.9l-0.1,0.4l-0.1,1v0.5l0.1,0.1
						l0.3-0.3l0.1,0l0.1-0.1l0.4-0.5l0.3-0.3l0.5-0.7l0.1-0.2l0.2-0.2l0.2-0.4l0.1-0.1l0.1-0.1l0.1-0.2l0.3-0.4l0.1-0.3l0.3-0.6
						l1-2.5l0.1-0.3l0-0.1v-0.1l0.3-0.9l0.1-0.4l0.1-0.4l0.1-1v-0.5l-0.1-0.1l-0.3,0.3L-659.2-842.5z"/>
				</g>
			</g>
		</g>
		<g transform="matrix( 1, 0, 0, 1, 4.15,-61.25) ">
			<g transform="matrix( 1.01800537109375, 0.1243743896484375, -0.141387939453125, 1.1570892333984375, -637.7,-430.45) ">
				<g>
					<g id="girl01_00____girl01_girl01_00_______5_0_Layer0_0_STROKES_1_FILL_1_">
						<path class="st23" d="M1255.9-729.5l-6.1,2.3l-7.6,4.4c-0.9,0.6-1.8,1.3-2.7,2l-1,0.8l-0.4,0.4l-0.9,0.8l0,0.2l0.2,0l7.4-3.4
							l11.3-3.7l1.4-0.3l0.4-0.1l4.3-0.7l0.4,0l2.2-0.2l0.8,0c1,0,2,0,3,0c1,0,2,0,3,0.2l1.5,0.2l0.4,0l0.4,0.1l2.2,0.4l0.2,0
							l0.6,0.2l0.4,0.1l3.1,0.8c1.5,0.4,3.2,1,5.1,1.7l2,0.8l0.1,0.1l0.3,0.1l2.2,1l0.3,0.2l6.4,3.3c0.5,0.3,1.1,0.7,1.8,1.1
							l0.7,0.4c0,0,0.1,0,0.2,0l0-0.1l-3.8-3.7l-2.4-1.9c-0.1-0.1-0.7-0.5-1.9-1.3l-2.1-1.4c-0.7-0.4-1.5-0.9-2.3-1.3
							c-2.1-1.1-3.9-1.9-5.3-2.4l-0.4-0.2l-1.9-0.6l-7-1.5c-1.4-0.1-2.5-0.2-3.2-0.2c-1.1,0-2.2,0-3.3,0l-3.2,0.3l-0.4,0.1l-2.8,0.5
							C1257-729.8,1256-729.5,1255.9-729.5z"/>
					</g>
				</g>
			</g>
		</g>
	</g>
</g>
</svg>
