<?xml version="1.0" encoding="utf-8"?>
<!-- Generator: Adobe Illustrator 25.0.1, SVG Export Plug-In . SVG Version: 6.00 Build 0)  -->
<svg version="1.1" id="레이어_1" xmlns="http://www.w3.org/2000/svg" xmlns:xlink="http://www.w3.org/1999/xlink" x="0px"
	 y="0px" width="206px" height="172.9px" viewBox="0 0 206 172.9" style="enable-background:new 0 0 206 172.9;"
	 xml:space="preserve">
<g>
	<g id="Layer_2_46_" transform="matrix( 0.54534912109375, 0, 0, 0.54534912109375, 589.65,576.55) ">
		<g>
			<g>
				<g>
					<path style="fill:#571F14;" d="M-732.2-1044.2c-2.2-1.7-4.5-3.2-6.9-4.7c-10.2-6-21.2-8.4-33-7.3c-11,0.8-20.6,4.9-28.7,12.2
						c-9.7,10.2-13.8,22.2-12.3,36c0.9,7.9,4.5,14.4,10.7,19.4c0.6,0.5,1.3,1,2,1.4c1.6,0.7,3.3,1.4,5,2c2.1,0.8,4.3,1.2,6.6,1.1
						c1.2-0.9,2.5-1.7,3.8-2.2c6.5-2.3,13-2,19.3,1c5.5,2.6,9.8,6.5,12.8,11.8c2.7,4.7,4.1,9.8,4.4,15.3c0.3,5.9-0.4,11.6-2.1,17.3
						c-0.5,1.7-1.3,3.3-2.2,4.8c0,0,0,0.1-0.1,0.1c-2.7,4.2-6.1,6.3-10.2,6.2l-0.1,0.1c0.3,0.1,1.1,0.2,2.2,0.3c1,0.1,1.6,0.1,2,0.1
						c2.2,0,4.3-0.4,6.2-1.3c2-1,3.7-2.2,5.3-3.8c1.9-2,3.3-4.3,4.4-6.9c0,0.4,0,0.8,0,1.2c0,2.6-0.5,5.1-1.5,7.4
						c-1.4,3-3.5,5.5-6.3,7.3c5,0.2,9.8-0.5,14.5-2.2c5.1-1.9,9.6-4.7,13.6-8.5c4-3.8,7.3-8.2,9.9-13c2.6-4.7,4.6-9.7,6.2-15
						c1.5-5.2,2.4-10.5,2.6-16c0.1-5.4-0.3-10.8-1.4-16.1c-1.1-5.4-2.6-10.8-4.4-16.1c-0.6-1.8-1.2-3.5-1.9-5.3
						C-716.5-1028.1-723.1-1037.1-732.2-1044.2z"/>
				</g>
			</g>
		</g>
	</g>
	<g id="Layer_1_236_" transform="matrix( 0.54534912109375, 0, 0, 0.54534912109375, 589.65,576.55) ">
		<g>
			<g>
				<g>
					<path style="fill:#A484BB;" d="M-803.6-1005.4c-4.3,0.5-7.8,2.5-10.6,5.9c-2.7,3.4-3.8,7.3-3.3,11.6c0.5,4.3,2.5,7.8,5.9,10.6
						c3.5,2.7,7.3,3.8,11.6,3.3c4.3-0.5,7.9-2.5,10.6-5.9c2.7-3.5,3.9-7.3,3.3-11.6c-0.5-4.3-2.5-7.9-5.9-10.6
						C-795.4-1004.8-799.3-1005.9-803.6-1005.4z"/>
				</g>
			</g>
		</g>
		<g>
			<g>
				<g>
					<path style="fill:#A484BB;" d="M-833.2-1023.1c-2.7,3.4-3.8,7.3-3.3,11.6c0.5,4.3,2.5,7.8,5.9,10.6c3.5,2.7,7.3,3.8,11.6,3.3
						c4.3-0.5,7.9-2.5,10.6-5.9c2.7-3.5,3.9-7.3,3.3-11.6c-0.5-4.3-2.5-7.9-5.9-10.6c-3.4-2.7-7.3-3.9-11.6-3.3
						C-827-1028.5-830.5-1026.6-833.2-1023.1z"/>
				</g>
			</g>
		</g>
	</g>
	<g id="Layer_1_232_" transform="matrix( 0.54534912109375, 0, 0, 0.54534912109375, 469.65,640) ">
		<g>
			<g>
				<g>
					<path style="fill:#571F14;" d="M-705.2-1144.5c-46.5-0.3-84.4,12.3-113.5,37.8c-29.1,25.4-41.9,64.2-38.4,116.1
						c3.5,52,21.7,86.1,54.4,102.3c32.7,16.3,71.4,23.3,116,21c44.6-2.3,79.5-13.4,104.5-33.4c25.1-20,36.7-54.7,35-104.2
						c-1.7-49.5-16.9-85.1-45.4-106.7C-621.1-1133.3-658.7-1144.3-705.2-1144.5z"/>
				</g>
			</g>
		</g>
		<g id="Layer_1_235_" transform="matrix( -1, 0, 0, 1, -173.35,120.05) ">
			<g>
				<g>
					<g>
						<path style="fill:#FAD2B7;" d="M686.9-1059.8c0-8.3-2-15.4-6.1-21.2c-4.6-6.6-10.7-9.8-18.4-9.8c-9.3,0-16.9,3.1-22.8,9.4
							c-5.1,5.5-9.6,14.1-13.7,25.8c0,0.5,0,1,0,1.5c0.4,7.1,1.3,13.3,2.5,18.5c4,16.8,12,25.2,24.2,25.2c4.4,0,8.8-1.6,13.1-4.7
							c4-2.9,7.6-6.9,10.9-11.9c3.2-4.8,5.6-10.2,7.5-16C686-1048.8,686.9-1054.4,686.9-1059.8 M658.6-1074.8
							c5,0.9,8.4,3.7,10.3,8.6c1.8,4.5,2.3,9.1,1.4,13.8c-0.9,4.7-2.4,9.2-4.7,13.4c-2.2,4.2-5.6,7-10.1,8.5
							c-4.7,1.6-9.4,1.5-14-0.4c-4.5-1.9-7.5-5.1-9.1-9.7c-1.5-4.4-2.3-8.9-2.5-13.5c-0.1-3.9,1.5-7.1,4.8-9.5
							c0.7-0.5,1.3-1.1,1.9-1.7c3.1-3.5,6.8-6.1,11.2-7.8C651.3-1074.6,654.9-1075.1,658.6-1074.8z"/>
						<path style="fill:#F5B39A;" d="M668.9-1066.2c-1.9-4.8-5.4-7.7-10.3-8.6c-3.7-0.3-7.3,0.2-10.7,1.6c-4.4,1.7-8.1,4.3-11.2,7.8
							c-0.6,0.7-1.2,1.2-1.9,1.7c-3.4,2.4-5,5.6-4.8,9.5c0.1,4.6,1,9.1,2.5,13.5c1.6,4.6,4.7,7.9,9.1,9.7c4.6,1.9,9.3,2,14,0.4
							c4.5-1.5,7.9-4.4,10.1-8.5c2.3-4.2,3.8-8.7,4.7-13.4C671.2-1057.1,670.7-1061.7,668.9-1066.2z"/>
					</g>
				</g>
			</g>
		</g>
		<g>
			<g>
				<g>
					<path style="fill:#571F14;" d="M-810.6-961.2c0-5.2-0.2-11.3-0.7-18.4h-23.3c2,11.2,4.7,20.9,8.2,29c2.3,5.3,4.6,9.4,7.1,12.4
						c2.1,2.5,3.8,3.8,5,3.8c1.6,0,2.7-2.5,3.2-7.6C-810.7-945.5-810.6-951.8-810.6-961.2z"/>
				</g>
			</g>
		</g>
		<g id="Layer_1_234_" transform="matrix( 1, 0, 0, 1, 165.4,120.05) ">
			<g>
				<g>
					<g>
						<path style="fill:#FAD2B7;" d="M-715.8-1059.8c0-8.3-2-15.4-6.1-21.2c-4.6-6.6-10.7-9.8-18.4-9.8c-9.3,0-16.9,3.1-22.8,9.4
							c-5.1,5.5-9.6,14.1-13.7,25.8c0,0.5,0,1,0,1.5c0.4,7.1,1.3,13.3,2.5,18.5c4,16.8,12,25.2,24.2,25.2c4.4,0,8.8-1.6,13.1-4.7
							c4-2.9,7.6-6.9,10.9-11.9c3.2-4.8,5.6-10.2,7.5-16C-716.8-1048.8-715.8-1054.4-715.8-1059.8 M-744.2-1074.8
							c5,0.9,8.4,3.7,10.3,8.6c1.8,4.5,2.3,9.1,1.4,13.8c-0.9,4.7-2.4,9.2-4.7,13.4c-2.2,4.2-5.6,7-10.1,8.5
							c-4.7,1.6-9.4,1.5-14-0.4c-4.5-1.9-7.5-5.1-9.1-9.7c-1.5-4.4-2.3-8.9-2.5-13.5c-0.1-3.9,1.5-7.1,4.8-9.5
							c0.7-0.5,1.3-1.1,1.9-1.7c3.1-3.5,6.8-6.1,11.2-7.8C-751.4-1074.6-747.9-1075.1-744.2-1074.8z"/>
						<path style="fill:#F5B39A;" d="M-733.8-1066.2c-1.9-4.8-5.4-7.7-10.3-8.6c-3.7-0.3-7.3,0.2-10.7,1.6
							c-4.4,1.7-8.1,4.3-11.2,7.8c-0.6,0.7-1.2,1.2-1.9,1.7c-3.4,2.4-5,5.6-4.8,9.5c0.1,4.6,1,9.1,2.5,13.5c1.6,4.6,4.7,7.9,9.1,9.7
							c4.6,1.9,9.3,2,14,0.4c4.5-1.5,7.9-4.4,10.1-8.5c2.3-4.2,3.8-8.7,4.7-13.4C-731.6-1057.1-732-1061.7-733.8-1066.2z"/>
					</g>
				</g>
			</g>
		</g>
		<g>
			<g>
				<g>
					<path style="fill:#571F14;" d="M-599.4-980.8c-0.7,9.2-1,17-1,23.4c0,9.4,0.2,15.8,0.5,19.2c0.5,5.1,1.5,7.6,3.2,7.6
						c1.3,0,3-1.3,5-3.8c2.5-3,4.8-7.2,7.1-12.4c4-9.3,7-20.7,9-34H-599.4z"/>
				</g>
			</g>
		</g>
		<g id="Layer_1_233_" transform="matrix( 1, 0, 0, 1, -7.5,51.95) ">
			<g>
				<g>
					<g>
						<path style="fill:#FAD2B7;" d="M-584.3-1070.3c0-19.8-3.7-37.1-11.1-51.8c-27.3-19.6-60.5-31.7-99.4-36.4
							c-40.4,3-75.8,15.8-106.2,38.6c-6.7,14.2-10.1,30.7-10.1,49.6c0,14.3,0.9,30.1,2.7,47.2c2.4,23,3.6,35.1,3.7,36.3
							c0.1,1.3,0.2,4.6,0.4,9.8c0.1,4,0.4,7.3,0.7,9.8c0.8,7.6,2.8,14.2,6,19.9c0.8,1.4,1.4,2.6,2,3.6c6.7,10.5,15.8,18.2,27.4,23.1
							c12.2,5.1,24.8,8.4,37.8,10c10.9,1.3,21.8,1.7,32.8,1.3c10.9,0.4,21.9,0,32.8-1.3c13.1-1.6,25.7-4.9,37.8-10
							c11.6-4.8,20.7-12.5,27.4-23.1c0.6-1.1,1.3-2.3,2-3.6c3.2-5.7,5.2-12.3,6-19.9c0.3-2.5,0.5-5.8,0.7-9.8
							c0.2-5.2,0.3-8.5,0.4-9.8c0.1-1.2,1.3-13.3,3.7-36.3C-585.2-1040.2-584.3-1056-584.3-1070.3z"/>
					</g>
				</g>
			</g>
		</g>
	</g>
	<g id="___15_" transform="matrix( 0.54534912109375, 0, 0, 0.54534912109375, 469.65,640) ">
		<g id="Layer_2_43_" transform="matrix( 1, 0, 0, 1, -0.35,179.3) ">
			<g>
				<g>
					<g>
						<path style="fill:#2D0A09;" d="M-682.2-1073.4c-0.3,0-0.6,0-0.8,0.2c-12.5,9.5-24.8,9.7-37,0.6c-0.2-0.2-0.5-0.3-0.8-0.2
							c-0.3,0.1-0.5,0.2-0.7,0.4c-0.2,0.2-0.3,0.5-0.2,0.8c0.1,0.3,0.2,0.6,0.4,0.7c13.1,9.8,26.3,9.6,39.7-0.6
							c0.2-0.2,0.4-0.4,0.4-0.7c0.1-0.3,0-0.6-0.2-0.8C-681.7-1073.2-681.9-1073.3-682.2-1073.4z"/>
					</g>
				</g>
			</g>
		</g>
	</g>
	<g id="__27_" transform="matrix( 0.54534912109375, 0, 0, 0.54534912109375, 469.65,640) ">
		<g id="Layer_1_231_" transform="matrix( 1, 0, 0, 1, -0.35,149.8) ">
			<g>
				<g>
					<g>
						<path style="fill:#DC7D5B;" d="M-700.9-1063.3l-0.5-0.1l-1.8,0l-0.3,0h-0.1l-0.1,0l-0.3,0l-0.3,0.1h-0.1l-0.7,0.2l-0.3,0.1
							l-0.3,0.1l-0.4,0.2l-0.1,0l-0.6,0.4l-0.1,0.1l-0.4,0.3l-0.8,0.8l-0.3,0.4l-0.4,0.7l0,0.1l-0.2,0.4l0,0.1l0,0.1l0,0.2l-0.1,0.4
							l-0.1,1.2l0,0.3v0.2l0.1,0.4l0.2,0.5l0.1,0.1l0.2-0.2l0.1-0.1l0.6-0.7l0.1-0.1l0.4-0.4l0.3-0.2l0.1-0.1l0.1-0.1l0,0l0.1,0
							l0.2-0.1l0,0l0.1,0l0.1,0l0.3-0.1l0.2,0l0.5-0.2h0.1l0.1,0l0.1,0h0.1l0.1,0h0.1l0.1,0h0.1l0.1,0h0.3l0.1,0h0.3l0.2,0h1l0.1,0
							h0.7l0.1,0h0.2l0.1,0h0.2l0.1,0h0.2l0.1,0h0.1l0.3,0.1h0.1l0.1,0h0.1l0.1,0l0.1,0h0.1l0.4,0.1h0.1l0.1,0l0,0l0.3,0.1l0.1,0.1
							l0.1,0l0,0l0.3,0.1l0.1,0.1l0.1,0.1l0.2,0.2l0,0l0.1,0l0.1,0.1l0.6,0.5l0.1,0.1l0.6,0.7l0.1,0.1l0.2,0.3c0,0.1,0,0.1,0.1,0v0
							l0.1-0.2l0.1-0.4l0-0.2c0.1-0.2,0.1-0.6,0.1-1.1l0-0.7l-0.1-0.3v-0.1l-0.4-1.2l-0.6-0.8l-0.1-0.1l0-0.1l-0.2-0.2l-0.1-0.1
							l-0.1-0.1l-0.2-0.2l-0.2-0.1l-0.2-0.2l-0.1-0.1l-1.3-0.7l-0.3-0.1l-0.1-0.1h0l-0.1,0l-0.8-0.2l-0.3,0L-700.9-1063.3z"/>
					</g>
				</g>
			</g>
		</g>
	</g>
	<g id="__26_" transform="matrix( 0.54534912109375, 0, 0, 0.54534912109375, 469.65,640) ">
		<g id="Layer_1_230_" transform="matrix( 1, 0, 0, 1, 88.25,166.4) ">
			<g transform="matrix( 1, 0, 0, 1, -680.95,-411.55) ">
				<g>
					<g>
						<path style="fill:#F5B39A;" d="M-19.3-651.4c0-2.2-2.5-4.1-7.5-5.7c-5-1.6-11-2.4-18.1-2.4c-7.1,0-13.1,0.8-18.1,2.4
							c-5,1.6-7.5,3.5-7.5,5.7c0,2.2,2.5,4.1,7.5,5.7c5,1.6,11,2.4,18.1,2.4c7.1,0,13.1-0.8,18.1-2.4
							C-21.8-647.2-19.3-649.1-19.3-651.4z"/>
					</g>
				</g>
			</g>
		</g>
	</g>
	<g id="__25_" transform="matrix( 0.54534912109375, 0, 0, 0.54534912109375, 469.65,640) ">
		<g id="Layer_1_229_" transform="matrix( 1, 0, 0, 1, -90.85,166.4) ">
			<g transform="matrix( 1, 0, 0, 1, -680.95,-411.55) ">
				<g>
					<g>
						<path style="fill:#F5B39A;" d="M28.2-651.4c0-2.2-2.5-4.1-7.5-5.7c-5-1.6-11-2.4-18.1-2.4c-7.1,0-13.1,0.8-18.1,2.4
							c-5,1.6-7.5,3.5-7.5,5.7c0,2.2,2.5,4.1,7.5,5.7c5,1.6,11,2.4,18.1,2.4c7.1,0,13.1-0.8,18.1-2.4
							C25.7-647.2,28.2-649.1,28.2-651.4z"/>
					</g>
				</g>
			</g>
		</g>
	</g>
	<g id="Layer_16_2_" transform="matrix( 0.54534912109375, 0, 0, 0.54534912109375, 469.65,640) ">
		<g transform="matrix( 1.686859130859375, 0, 0, 1.6790008544921875, -1019.55,-526.55) ">
			<g>
				<g>
					<path style="fill:#FFFFFF;" d="M238.8-249.3c0-5.5-1.9-10.2-5.8-14.1c-3.9-3.9-8.6-5.8-14.1-5.8c-5.5,0-10.2,1.9-14.1,5.8
						c-3.9,3.9-5.8,8.6-5.8,14.1c0,5.5,1.9,10.2,5.8,14.1c3.9,3.9,8.6,5.8,14.1,5.8c5.5,0,10.2-1.9,14.1-5.8
						C236.9-239.1,238.8-243.8,238.8-249.3z"/>
				</g>
			</g>
		</g>
	</g>
	<g id="Layer_15_11_" transform="matrix( 0.54534912109375, 0, 0, 0.54534912109375, 469.65,640) ">
		<g transform="matrix( 1.3050994873046875, 0, 0, 1.4173583984375, -769.95,-423.9) ">
			<g>
				<g>
					<path style="fill:#2E130D;" d="M109.2-364.5c0-5.2-1.8-9.6-5.5-13.3c-3.6-3.6-8.1-5.5-13.3-5.5s-9.6,1.8-13.3,5.5
						c-3.6,3.7-5.5,8.1-5.5,13.3c0,5.2,1.8,9.6,5.5,13.3c3.7,3.7,8.1,5.5,13.3,5.5s9.6-1.8,13.3-5.5
						C107.3-354.9,109.2-359.3,109.2-364.5z"/>
				</g>
			</g>
		</g>
	</g>
	<g id="Layer_14_11_" transform="matrix( 0.54534912109375, 0, 0, 0.54534912109375, 469.65,640) ">
		<g transform="matrix( -1.24346923828125, 0, 0, 1.24346923828125, -21.35,-13.6) ">
			<g>
				<g>
					<path style="fill:#FFFFFF;" d="M521.2-754.8c0-1.2-0.4-2.3-1.3-3.2c-0.9-0.9-2-1.3-3.2-1.3c-1.3,0-2.4,0.4-3.2,1.3
						c-0.9,0.9-1.3,1.9-1.3,3.2c0,1.3,0.4,2.4,1.3,3.2c0.9,0.9,2,1.3,3.2,1.3c1.3,0,2.4-0.4,3.2-1.3
						C520.7-752.5,521.2-753.6,521.2-754.8z"/>
				</g>
			</g>
		</g>
	</g>
	<g id="Layer_13_15_" transform="matrix( 0.54534912109375, 0, 0, 0.54534912109375, 469.65,640) ">
		<g transform="matrix( -1.686859130859375, 0, 0, 1.6790008544921875, 1013.7,-526.55) ">
			<g>
				<g>
					<path style="fill:#FFFFFF;" d="M1070.7-249.3c0-5.5-1.9-10.2-5.8-14.1c-3.9-3.9-8.6-5.8-14.1-5.8c-5.5,0-10.2,1.9-14.1,5.8
						c-3.9,3.9-5.8,8.6-5.8,14.1c0,5.5,1.9,10.2,5.8,14.1c3.9,3.9,8.6,5.8,14.1,5.8c5.5,0,10.2-1.9,14.1-5.8
						C1068.8-239.1,1070.7-243.8,1070.7-249.3z"/>
				</g>
			</g>
		</g>
	</g>
	<g id="Layer_12_15_" transform="matrix( 0.54534912109375, 0, 0, 0.54534912109375, 469.65,640) ">
		<g transform="matrix( -1.3050994873046875, 0, 0, 1.4173583984375, 764.1,-423.9) ">
			<g>
				<g>
					<path style="fill:#2E130D;" d="M1184.4-364.5c0-5.2-1.8-9.6-5.5-13.3c-3.6-3.6-8.1-5.5-13.3-5.5s-9.6,1.8-13.3,5.5
						c-3.6,3.7-5.5,8.1-5.5,13.3c0,5.2,1.8,9.6,5.5,13.3c3.7,3.7,8.1,5.5,13.3,5.5s9.6-1.8,13.3-5.5
						C1182.6-354.9,1184.4-359.3,1184.4-364.5z"/>
				</g>
			</g>
		</g>
	</g>
	<g id="Layer_11_15_" transform="matrix( 0.54534912109375, 0, 0, 0.54534912109375, 469.65,640) ">
		<g transform="matrix( 1.24346923828125, 0, 0, 1.24346923828125, 15.5,-13.6) ">
			<g>
				<g>
					<path style="fill:#FFFFFF;" d="M-607.4-754.8c0-1.2-0.4-2.3-1.3-3.2c-0.9-0.9-2-1.3-3.2-1.3s-2.4,0.4-3.2,1.3
						c-0.9,0.9-1.3,1.9-1.3,3.2c0,1.3,0.4,2.4,1.3,3.2c0.9,0.9,2,1.3,3.2,1.3s2.4-0.4,3.2-1.3C-607.8-752.5-607.4-753.6-607.4-754.8
						z"/>
				</g>
			</g>
		</g>
	</g>
	<g id="_______30_" transform="matrix( 0.54534912109375, 0, 0, 0.54534912109375, 469.65,640) ">
		<g id="Layer_5_34_" transform="matrix( 1, 0, 0, 1, 71,77.5) ">
		</g>
		<g id="Layer_3_40_" transform="matrix( 1, 0, 0, 1, 71,77.5) ">
			<g>
				<g>
					<g>
						<path style="fill:#E5A790;" d="M-716.6-989.4l-3,0.3h-0.4c-0.1,0-0.4,0-0.7,0l-1.1,0.1l-5.4-0.2l-0.7-0.1h-0.2l-0.2,0h-0.1
							l-0.2,0c-0.7-0.1-1.5-0.2-2.6-0.5l-0.5-0.1h-0.1l-0.1,0l-1.5-0.4l-0.1-0.1l-2.5-0.9l-0.2-0.1l-0.3-0.1l-1.6-0.7
							c-0.1-0.1-0.1-0.1-0.1,0v0.1l0.6,0.6l0.1,0l0,0.1l0.1,0.1l0.2,0.3l0.3,0.2l0.3,0.3l0.3,0.3c0,0,0.1,0.1,0.2,0.1l1.5,1.1
							l2.5,1.3l0.3,0.1c0.8,0.3,1.7,0.6,2.8,0.9l0.4,0.1l0.2,0.1l2.7,0.4h0.2l1.2,0.1h0.6l0.2,0h0.8c1.4,0,2.4-0.1,3.1-0.2l5.1-1
							l3-1l3.4-1.5l0.3-0.2l0.3-0.1l0.7-0.4l0-0.1l-0.1,0l-9.5,1.2H-716.6z"/>
					</g>
				</g>
			</g>
		</g>
		<g id="Layer_1_228_" transform="matrix( 1, 0, 0, 1, 71,77.5) ">
			<g>
				<g>
					<g>
						<path style="fill:#270E0A;" d="M-718.6-1057.6l-2.1-0.2l-0.1,0h-1.4l-0.1,0l-1.3,0l-0.3,0l-1,0l-0.1,0h-0.1l-3.6,0.5
							c-1.6,0.3-2.8,0.6-3.6,0.9l-3.7,1.3l-0.2,0.1l-0.8,0.3l-0.1,0.1l-0.1,0l-4,2.2l-0.7,0.5c-0.6,0.4-1.4,1-2.6,1.9l-3.5,3.2
							l-2.9,3.5l-3.4,5.3c-0.1,0.1-0.1,0.1,0,0.1c0,0,0,0,0.1,0l2.2-2.6c0.8-0.9,1.7-1.8,2.6-2.8l0.4-0.4l3.3-2.9
							c0.6-0.5,1.3-1.1,2.3-1.7l1.9-1.2l0.2-0.1l0.1-0.1l2.4-1.3l0.4-0.1l0.2-0.1l2.9-1.2l0.2-0.1l0.2,0l0.9-0.3l0.1,0l0.2,0
							l1.7-0.5l3.8-0.8c1.3-0.2,2.5-0.3,3.6-0.4l0.9-0.1h0.2l0.2,0l2.4,0l0.2,0l2.1,0.2h0.2l0.9,0.1c1.2,0.2,2.4,0.4,3.5,0.7l0.2,0
							l1.9,0.5l0.2,0.1l0.2,0l3.3,1.1l0.8,0.3l0.2,0.1l1.7,0.8l0.2,0.1l0.1,0l0.8,0.4l0.2,0.1l0.9,0.5l0.2,0.1l1.5,0.9
							c1.6,1,3.2,2.1,4.8,3.4l3.3,3l5.2,5.9c0,0,0.1,0,0.1,0v-0.1l-1.3-2.3l-4-5.4l-0.1-0.1l-0.2-0.3l-0.7-0.7l-0.3-0.2l-2.6-2.5
							l-0.9-0.7c0-0.1-0.1-0.2-0.3-0.3l-1.9-1.5c-0.5-0.4-1.5-1-2.8-1.9l-0.8-0.4l-0.1-0.1l-0.1,0l-0.2-0.1l-1.8-0.9l-0.1,0l-0.1,0
							c-1.2-0.6-2.3-1-3.4-1.4l-4.5-1.3l-0.3,0l-0.2-0.1l-3.5-0.6H-718.6z"/>
					</g>
				</g>
			</g>
		</g>
		<g id="Layer_4_25_" transform="matrix( 1, 0, 0, 1, 71,77.5) ">
			<g>
				<g>
					<g>
						<path style="fill:#270E0A;" d="M-696.3-1057.3L-696.3-1057.3l-0.1,0.1l-0.1,0l-0.1,0l-0.1,0.1l-0.7,0.5l-0.1,0.1l-0.3,0.2
							l-0.1,0.1l-0.1,0.1l-0.4,0.4l-0.1,0.1l-0.7,0.7l0,0.1l-0.6,0.7l0,0.1l-0.1,0.1l-0.6,0.8l-0.1,0.3l-0.1,0.1l-0.2,0.3l-0.3,0.6
							l-0.1,0.1l-0.4,0.9l0,0.1l0,0.1c0,0.1,0,0.1,0,0.1h0.1l0.1-0.1l0.1,0l0.1,0l0.1-0.1l0.7-0.5l0.1-0.1l0.3-0.2l0.1-0.1l0.1-0.1
							l0.4-0.4l0.1-0.1l0.7-0.7l0-0.1l0.6-0.7l0-0.1l0.1-0.1l0.6-0.8l0.1-0.3l0.1-0.1l0.2-0.3l0.3-0.6l0.1-0.1l0.4-0.9l0-0.1l0-0.1
							L-696.3-1057.3z"/>
					</g>
				</g>
			</g>
			<g>
				<g>
					<g>
						<path style="fill:#270E0A;" d="M-716.9-1065.5L-716.9-1065.5l-0.2,0.3l0,0.1l-0.4,1l0,0.1l-0.1,0.4l0,0.2l-0.1,0.2l-0.5,1.9
							v0.1l0,0.1l-0.1,0.9l0,0.1v0.1l-0.1,1.1v0.2l0,0.1v2.6l0,0.1v0.1l0,0.1l0.1,0.1l0,0l0.1-0.2l0-0.1l0.4-1l0-0.1l0.1-0.4l0-0.2
							l0.1-0.2l0.5-1.9v-0.1l0-0.1l0.1-0.9l0-0.1v-0.1l0.1-1.4l0-0.1v-0.1l0-0.4l0-2.1l0-0.1v-0.1L-716.9-1065.5L-716.9-1065.5z"/>
					</g>
				</g>
			</g>
			<g>
				<g>
					<g>
						<path style="fill:#270E0A;" d="M-739.8-1062.5v0.3l0,0.1v0.1l0.3,1.5l0.1,0.2l0.7,2.1l0.1,0.1l1.1,2.5l0.1,0.1l0.3,0.6
							l0.1,0.1l0.2,0.3l0.7,1l0,0.1l0.3,0.3c0,0,0,0,0.1,0v-0.3l0-0.1v-0.1l-0.3-1.5l-0.1-0.2l0-0.2l-0.6-1.9l-0.1-0.1l-1.1-2.5
							l-0.1-0.1l-0.3-0.6l-0.1-0.1l-0.2-0.3l-0.7-1l0-0.1l-0.3-0.3C-739.7-1062.5-739.8-1062.5-739.8-1062.5z"/>
					</g>
				</g>
			</g>
		</g>
		<g id="_30_" transform="matrix( 1, 0, 0, 1, 71,77.5) ">
			<g id="Layer_1_227_" transform="matrix( 1, 0, 0, 1, 4.15,-61.25) ">
				<g>
					<g>
						<g>
							<path style="fill:#431E16;" d="M-718.1-1030.4c-0.9-0.2-1.7-0.4-2.5-0.5c-0.6-0.1-1.4-0.2-2.5-0.3c-1.1,0-1.9-0.1-2.5,0h-0.6
								c-0.1,0-0.4,0-0.6,0l-3.6,0.5l-0.6,0.1l-0.3,0l-3.5,1l-5.2,2.3l-4.3,2.7l-1,0.8c-0.1,0-0.1,0,0,0.1h0.1l8.7-3.2l4.3-1
								c0.7-0.1,1.4-0.3,2.1-0.3l0.8-0.1h0.3l0.6-0.1h5l0.8,0.1h0.3l1.1,0.2c1.4,0.2,2.9,0.5,4.4,1l2.4,0.9l0.3,0.1l0.3,0.1l0.1,0.1
								l0.1,0l1.7,0.8l0.2,0.1l3.1,1.8c0.1,0,0.2,0.1,0.4,0.2l4.8,3.6l0.1,0.1l3.5,2.9h0.1v-0.1l-1-1.4l-3.5-4.2l-4.5-3.9l-4-2.5
								l-0.1,0l-0.3-0.1l-0.8-0.4l-0.3-0.1l-0.6-0.2c-0.5-0.2-0.9-0.4-1.2-0.4l-0.6-0.2l-0.3-0.1l-0.3-0.1L-718.1-1030.4z"/>
						</g>
					</g>
				</g>
			</g>
		</g>
	</g>
	<g id="_______29_" transform="matrix( 0.54534912109375, 0, 0, 0.54534912109375, 469.65,640) ">
		<g id="Layer_5_33_" transform="matrix( -1, 0, 0, 1, -76.85,77.5) ">
		</g>
		<g id="Layer_3_39_" transform="matrix( -1, 0, 0, 1, -76.85,77.5) ">
			<g>
				<g>
					<g>
						<path style="fill:#E5A790;" d="M686.7-989.4l-3,0.3h-0.4c-0.1,0-0.4,0-0.7,0l-1.1,0.1l-5.4-0.2l-0.7-0.1h-0.2l-0.2,0H675
							l-0.2,0c-0.7-0.1-1.5-0.2-2.6-0.5l-0.5-0.1h-0.1l-0.1,0l-1.5-0.4l-0.1-0.1l-2.5-0.9l-0.2-0.1l-0.3-0.1l-1.6-0.7
							c-0.1-0.1-0.1-0.1-0.1,0v0.1l0.6,0.6l0.1,0l0,0.1l0.1,0.1l0.2,0.3l0.3,0.2l0.3,0.3l0.3,0.3c0,0,0.1,0.1,0.2,0.1l1.5,1.1
							l2.5,1.3l0.3,0.1c0.8,0.3,1.7,0.6,2.8,0.9l0.4,0.1l0.2,0.1l2.7,0.4h0.2l1.2,0.1h0.6l0.2,0h0.8c1.4,0,2.4-0.1,3.1-0.2l5.1-1
							l3-1l3.4-1.5l0.3-0.2l0.3-0.1l0.7-0.4l0-0.1l-0.1,0l-9.5,1.2H686.7z"/>
					</g>
				</g>
			</g>
		</g>
		<g id="Layer_1_226_" transform="matrix( -1, 0, 0, 1, -76.85,77.5) ">
			<g>
				<g>
					<g>
						<path style="fill:#270E0A;" d="M684.7-1057.6l-2.1-0.2l-0.1,0h-1.4l-0.1,0l-1.3,0l-0.3,0l-1,0l-0.1,0h-0.1l-3.6,0.5
							c-1.6,0.3-2.8,0.6-3.6,0.9l-3.7,1.3l-0.2,0.1l-0.8,0.3l-0.1,0.1l-0.1,0l-4,2.2l-0.7,0.5c-0.6,0.4-1.4,1-2.6,1.9l-3.5,3.2
							l-2.9,3.5l-3.4,5.3c-0.1,0.1-0.1,0.1,0,0.1c0,0,0,0,0.1,0l2.2-2.6c0.8-0.9,1.7-1.8,2.6-2.8l0.4-0.4l3.3-2.9
							c0.6-0.5,1.3-1.1,2.3-1.7l1.9-1.2l0.2-0.1l0.1-0.1l2.4-1.3l0.4-0.1l0.2-0.1l2.9-1.2l0.2-0.1l0.2,0l0.9-0.3l0.1,0l0.2,0
							l1.7-0.5l3.8-0.8c1.3-0.2,2.5-0.3,3.6-0.4l0.9-0.1h0.2l0.2,0l2.4,0l0.2,0l2.1,0.2h0.2l0.9,0.1c1.2,0.2,2.4,0.4,3.5,0.7l0.2,0
							l1.9,0.5l0.2,0.1l0.2,0l3.3,1.1l0.8,0.3l0.2,0.1l1.7,0.8l0.2,0.1l0.1,0l0.8,0.4l0.2,0.1l0.9,0.5l0.2,0.1l1.5,0.9
							c1.6,1,3.2,2.1,4.8,3.4l3.3,3l5.2,5.9c0,0,0.1,0,0.1,0v-0.1l-1.3-2.3l-4-5.4l-0.1-0.1l-0.2-0.3l-0.7-0.7l-0.3-0.2l-2.6-2.5
							l-0.9-0.7c0-0.1-0.1-0.2-0.3-0.3l-1.9-1.5c-0.5-0.4-1.5-1-2.8-1.9l-0.8-0.4l-0.1-0.1l-0.1,0l-0.2-0.1l-1.8-0.9l-0.1,0l-0.1,0
							c-1.2-0.6-2.3-1-3.4-1.4l-4.5-1.3l-0.3,0l-0.2-0.1l-3.5-0.6H684.7z"/>
					</g>
				</g>
			</g>
		</g>
		<g id="Layer_4_24_" transform="matrix( -1, 0, 0, 1, -76.85,77.5) ">
			<g>
				<g>
					<g>
						<path style="fill:#270E0A;" d="M707.1-1057.3L707.1-1057.3l-0.1,0.1l-0.1,0l-0.1,0l-0.1,0.1l-0.7,0.5l-0.1,0.1l-0.3,0.2
							l-0.1,0.1l-0.1,0.1l-0.4,0.4l-0.1,0.1l-0.7,0.7l0,0.1l-0.6,0.7l0,0.1l-0.1,0.1l-0.6,0.8l-0.1,0.3l-0.1,0.1l-0.2,0.3l-0.3,0.6
							l-0.1,0.1l-0.4,0.9l0,0.1l0,0.1c0,0.1,0,0.1,0,0.1h0.1l0.1-0.1l0.1,0l0.1,0l0.1-0.1l0.7-0.5l0.1-0.1l0.3-0.2l0.1-0.1l0.1-0.1
							l0.4-0.4l0.1-0.1l0.7-0.7l0-0.1l0.6-0.7l0-0.1l0.1-0.1l0.6-0.8l0.1-0.3l0.1-0.1l0.2-0.3l0.3-0.6l0.1-0.1l0.4-0.9l0-0.1l0-0.1
							L707.1-1057.3z"/>
					</g>
				</g>
			</g>
			<g>
				<g>
					<g>
						<path style="fill:#270E0A;" d="M686.5-1065.5L686.5-1065.5l-0.2,0.3l0,0.1l-0.4,1l0,0.1l-0.1,0.4l0,0.2l-0.1,0.2l-0.5,1.9v0.1
							l0,0.1l-0.1,0.9l0,0.1v0.1l-0.1,1.1v0.2l0,0.1v2.6l0,0.1v0.1l0,0.1l0.1,0.1l0,0l0.1-0.2l0-0.1l0.4-1l0-0.1l0.1-0.4l0-0.2
							l0.1-0.2l0.5-1.9v-0.1l0-0.1l0.1-0.9l0-0.1v-0.1l0.1-1.4l0-0.1v-0.1l0-0.4l0-2.1l0-0.1v-0.1L686.5-1065.5L686.5-1065.5z"/>
					</g>
				</g>
			</g>
			<g>
				<g>
					<g>
						<path style="fill:#270E0A;" d="M663.5-1062.5v0.3l0,0.1v0.1l0.3,1.5l0.1,0.2l0.7,2.1l0.1,0.1l1.1,2.5l0.1,0.1l0.3,0.6l0.1,0.1
							l0.2,0.3l0.7,1l0,0.1l0.3,0.3c0,0,0,0,0.1,0v-0.3l0-0.1v-0.1l-0.3-1.5l-0.1-0.2l0-0.2l-0.6-1.9l-0.1-0.1l-1.1-2.5l-0.1-0.1
							l-0.3-0.6l-0.1-0.1l-0.2-0.3l-0.7-1l0-0.1l-0.3-0.3C663.6-1062.5,663.6-1062.5,663.5-1062.5z"/>
					</g>
				</g>
			</g>
		</g>
		<g id="_29_" transform="matrix( -1, 0, 0, 1, -76.85,77.5) ">
			<g id="Layer_1_225_" transform="matrix( 1, 0, 0, 1, 4.15,-61.25) ">
				<g>
					<g>
						<g>
							<path style="fill:#431E16;" d="M685.2-1030.4c-0.9-0.2-1.7-0.4-2.5-0.5c-0.6-0.1-1.4-0.2-2.5-0.3c-1.1,0-1.9-0.1-2.5,0h-0.6
								c-0.1,0-0.4,0-0.6,0l-3.6,0.5l-0.6,0.1l-0.3,0l-3.5,1l-5.2,2.3l-4.3,2.7l-1,0.8c-0.1,0-0.1,0,0,0.1h0.1l8.7-3.2l4.3-1
								c0.7-0.1,1.4-0.3,2.1-0.3l0.8-0.1h0.3l0.6-0.1h5l0.8,0.1h0.3l1.1,0.2c1.4,0.2,2.9,0.5,4.4,1l2.4,0.9l0.3,0.1l0.3,0.1l0.1,0.1
								l0.1,0l1.7,0.8l0.2,0.1l3.1,1.8c0.1,0,0.2,0.1,0.4,0.2l4.8,3.6l0.1,0.1l3.5,2.9h0.1v-0.1l-1-1.4l-3.5-4.2l-4.5-3.9l-4-2.5
								l-0.1,0l-0.3-0.1l-0.8-0.4l-0.3-0.1l-0.6-0.2c-0.5-0.2-0.9-0.4-1.2-0.4l-0.6-0.2l-0.3-0.1l-0.3-0.1L685.2-1030.4z"/>
						</g>
					</g>
				</g>
			</g>
		</g>
	</g>
	<g id="Layer_7_12_" transform="matrix( 0.54534912109375, 0, 0, 0.54534912109375, 469.65,640) ">
		<g id="Layer_1_224_" transform="matrix( 1, 0, 0, 1, 0.7,-55.3) ">
			<g>
				<g>
					<g>
						<path style="fill:#571F14;" d="M-656-1051.7c-7.4-1.5-14.9-2.4-22.4-2.7c-8.3-0.2-16.6-0.2-24.9-0.1
							c-7.2,0.1-14.3,0.3-21.4,0.4c-8.4,0.2-16.7,1.1-24.8,2.9c-5.4,1.2-10.5,3-15.2,5.5c-1.8,0.9-2.9,2.3-3.3,4.2
							c-0.2-1-0.4-2-0.7-3l-0.7,0.4l-0.8,5.3c-3.9-0.3-7.7,0.1-11.3,1.4c-9.7,3.4-18.2,9-25.5,16.6c-7.2,7.6-12.1,16.4-14.6,26.6
							c-1.2,3.7-2.3,7.4-3.2,11.2c-2.2,9.2-1.5,18,1.9,26.2c0.6,1.4,1.4,2.3,2.4,2.8c0.8,0.4,1.7,0.5,2.8,0.4
							c6.1-1,11.7-3.3,16.8-6.9c6.3-4.6,11.6-10,16.1-16.4c6.6-9.6,11.6-20.1,15-31.4c1.7-5.5,2.6-11,2.9-16.5
							c0.2,0.6,0.3,1.2,0.5,1.8c2.4,8.1,5.8,15.8,10,23c4.3,7.4,9.6,13.7,15.9,18.6c6.3,4.9,11.3,8.1,14.9,9.5
							c3.6,1.4,7.2,2.4,10.7,3.2c-6.4-5.1-11.9-10-16.6-14.8c0.7,0.5,1.3,1,2,1.5c4.7,3.6,9.9,6.2,15.5,7.7
							c10,2.7,20.2,4.2,30.6,4.5c13.9,0.4,26.8-3.1,38.6-10.7c2.4,1.9,5.1,3.5,8,4.6c6,2.4,12.2,4.2,18.4,5.5
							c8.8,2,17.6,1.7,26.4-0.9c1-0.3,1.9-0.6,2.8-1c4.4-1.8,7.8-4.7,10.2-8.5c0.2-0.4,0.1-0.6-0.3-0.7c-3.3-1-6.4,0.3-9.3,3.7
							c1.3-6.1,1.5-12.3,0.3-18.6c-1.4-7.9-3.8-15.5-7.2-22.8c-3.4-7.2-8.1-13.3-14.3-18.3c-6.4-5.2-13.7-8.5-21.9-9.9
							C-639.9-1048.7-647.9-1050.2-656-1051.7z"/>
					</g>
				</g>
			</g>
			<g>
				<g>
					
						<path style="fill:none;stroke:#7A2A1D;stroke-width:18.7;stroke-linecap:round;stroke-linejoin:round;stroke-miterlimit:2.1814;" d="
						M-756.1-1054.1c36,18.8,81.6,22.2,136.8,10.4"/>
				</g>
			</g>
		</g>
	</g>
</g>
</svg>
