<?xml version="1.0" encoding="utf-8"?>
<!-- Generator: Adobe Illustrator 25.0.1, SVG Export Plug-In . SVG Version: 6.00 Build 0)  -->
<svg version="1.1" id="레이어_1" xmlns="http://www.w3.org/2000/svg" xmlns:xlink="http://www.w3.org/1999/xlink" x="0px"
	 y="0px" width="259px" height="735.5px" viewBox="0 0 259 735.5" style="enable-background:new 0 0 259 735.5;"
	 xml:space="preserve">
<g id="_______" transform="matrix( 0.544921875, 0, 0, 0.544921875, 1728.85,710.5) ">
	<g id="Layer_1_83_" transform="matrix( 0.9699859619140625, 0, 0, 0.9699859619140625, -12.1,-605.65) ">
		<g>
			<g>
				<g>
					<path style="fill:#CD3625;" d="M-2989.7-712.2c-6.9-1.3-13.8-2.2-20.9-2.7c-6.9-0.4-13.9-0.3-20.9,0.1c-7,0.6-14,1.5-20.9,2.8
						c-5.5,0.9-11,2-16.5,3.2c-5.3,1.1-10.6,2.4-15.8,4c-5.1,1.4-10.1,3.1-14.9,5c-4.8,1.8-9.5,3.8-14.1,6c-4.6,2.2-9,4.7-13.3,7.3
						c-4.3,2.6-8.5,5.4-12.6,8.4c-4.1,3-8,6.1-11.7,9.4c-3.8,3.4-7.4,6.9-10.9,10.6c-3.2,3.4-6.2,6.8-9.1,10.4
						c-1.6,2.2-3.2,4.5-4.8,6.7c-10.6,16-19.6,32.8-27,50.3c-7.6,18.2-13.8,37-18.6,56.2c-5,20.1-7.9,40.5-8.7,61.1
						c-0.1,8.9,0.1,17.8,0.8,26.8c1.5,19.7,5,39.5,10.5,59.4c1.1,4.3,2.3,8.6,3.6,13.1c4.7,12.5,8.2,25.2,10.6,38.1
						c1.4,7.6,2.4,15.3,2.9,23.1c2.1,27.6-10.4,36.8-37.6,27.8c-8.5-2.8-14.2-8.4-17.2-16.9c2,13.8,7.3,26.2,16.1,37
						c36.6,45.4,84.2,71.4,142.7,78c48.4,5.7,95.6,2.3,141.7-10.3c18.1-4.2,35.1-10.9,51.1-20.1c18.5-10.7,35-24,49.4-39.9
						c13.4-14.8,25.1-30.8,35.1-48c5.8-10,11-20.3,15.6-30.9c3.6-8.4,6.8-17.1,9.7-25.9c6.5-19.9,11.9-40.2,16.2-60.7
						c3.7-17.9,6.4-35.9,8-53.9c1.7-19.4,1.5-38.8-0.7-58.1c-0.8-5.5-1.7-11-2.8-16.5c-1.4-6.7-3.1-13.2-5-19.5
						c-15.7-46.9-48.7-73.9-99.1-81.1c-30-27-60-45.4-90.1-55.1c-1.7-0.5-3.5-1.1-5.2-1.6C-2979.2-709.8-2984.4-711.1-2989.7-712.2z
						"/>
				</g>
			</g>
		</g>
	</g>
</g>
<g id="______copy_2_" transform="matrix( 0.544921875, 0, 0, 0.544921875, 1728.85,710.5) ">
	<g id="Layer_3_14_" transform="matrix( -1, 0, 0, 1, -74.5,321.9) ">
		<g>
			<g>
				<g>
					<path style="fill:#FFFFFF;" d="M2906.5-391.2l-33.6-4c0.9,45.6,0.5,77.9-1.2,96.7l36.3-5.7l37,10.8
						c-0.5-20.1-12.9-30-37.2-29.6L2906.5-391.2z"/>
				</g>
			</g>
		</g>
	</g>
	<g id="Layer_2_23_" transform="matrix( -1, 0, 0, 1, -74.5,321.9) ">
		<g>
			<g>
				<g>
					<path style="fill:#745791;" d="M2866.6-335.8l51.5-1.3l32.2-474.5l-96.8,0.8L2866.6-335.8z"/>
				</g>
			</g>
		</g>
	</g>
	<g id="Layer_1_84_" transform="matrix( -1, 0, 0, 1, -74.5,321.9) ">
		<g>
			<g>
				<g>
					<path style="fill:#FFFFFF;" d="M2961.8-280.6c0-0.5,0.1-1.1,0.1-1.7c0-3.9-0.4-7.6-1.1-11.2h-97.2c-0.8,3.6-1.2,7.3-1.2,11.2
						c0,0.6,0,1.2,0,1.7H2961.8z"/>
					<path style="fill:#FF7474;" d="M2960.7-293.5c-2-8.9-6.5-16.8-13.4-23.6c-9.7-9.6-21.5-14.4-35.2-14.4s-25.5,4.8-35.2,14.4
						c-6.9,6.9-11.4,14.7-13.4,23.6H2960.7z"/>
				</g>
			</g>
		</g>
	</g>
	<g id="Layer_4_11_" transform="matrix( -1, 0, 0, 1, -74.5,321.9) ">
		<g>
			<g>
				<g>
					<path style="fill:#60457B;" d="M2861.7-335.1c19.6,3.1,39.9,2.1,60.8-3.2l2.1-23.4c-21.4,7.6-42.7,9.9-64.1,6.8L2861.7-335.1z"
						/>
				</g>
			</g>
		</g>
	</g>
	<g id="Layer_3_15_" transform="matrix( 1, 0, 0, 1, 71.45,321.9) ">
		<g>
			<g>
				<g>
					<path style="fill:#FFFFFF;" d="M-2939.4-391.2l-33.6-4c0.9,45.6,0.5,77.9-1.1,96.7l36.3-5.7l36.9,10.8
						c-0.5-20.1-12.9-30-37.1-29.6L-2939.4-391.2z"/>
				</g>
			</g>
		</g>
	</g>
	<g id="Layer_2_24_" transform="matrix( 1, 0, 0, 1, 71.45,321.9) ">
		<g>
			<g>
				<g>
					<path style="fill:#745791;" d="M-2979.2-335.8l51.5-1.3l32.2-474.5l-96.9,0.8L-2979.2-335.8z"/>
				</g>
			</g>
		</g>
	</g>
	<g id="Layer_1_85_" transform="matrix( 1, 0, 0, 1, 71.45,321.9) ">
		<g>
			<g>
				<g>
					<path style="fill:#FFFFFF;" d="M-2884.1-280.6c0-0.5,0.1-1.1,0.1-1.7c0-3.9-0.4-7.6-1.2-11.2h-97.1c-0.8,3.6-1.2,7.3-1.2,11.2
						c0,0.6,0,1.2,0,1.7H-2884.1z"/>
					<path style="fill:#FF7474;" d="M-2885.2-293.5c-2-8.9-6.5-16.8-13.4-23.6c-9.7-9.6-21.5-14.4-35.2-14.4
						c-13.7,0-25.5,4.8-35.2,14.4c-6.9,6.9-11.4,14.7-13.3,23.6H-2885.2z"/>
				</g>
			</g>
		</g>
	</g>
	<g id="Layer_4_12_" transform="matrix( 1, 0, 0, 1, 71.45,321.9) ">
		<g>
			<g>
				<g>
					<path style="fill:#60457B;" d="M-2984.1-335.1c19.6,3.1,39.9,2.1,60.8-3.2l2.1-23.4c-21.4,7.6-42.7,9.9-64.1,6.8L-2984.1-335.1
						z"/>
				</g>
			</g>
		</g>
	</g>
	<g id="Layer_1_86_" transform="matrix( 1, 0, 0, 1, -0.75,-28.15) ">
		<g transform="matrix( 1, 0, 0, 1, 0.75,3.9) ">
			<g>
				<g>
					<path style="fill:#745791;" d="M-2895.9-477.2h-55.6v74.3c20.2-4.3,38.8-4.3,55.6,0V-477.2z"/>
				</g>
			</g>
			<g>
				
					<path style="fill:none;stroke:#2E0A0A;stroke-width:1.0898;stroke-linecap:round;stroke-linejoin:round;stroke-miterlimit:2.1797;" d="
					M-2895.9-402.9c-16.8-4.3-35.4-4.3-55.6,0"/>
			</g>
		</g>
	</g>
	<g id="Layer_1_87_" transform="matrix( -1, 0, 0, 1, 153.4,-198.2) ">
		<g>
			<g>
				<g>
					<path style="fill:#E0A077;" d="M2948.7-293.1c0.1,0.4,0.1,0.8,0.1,1.3c0,2.1-0.9,4.4-2.7,6.7c-1.8,2.4-2.7,4-2.7,4.8
						c0,0.9,0.5,2.1,1.4,3.5c0.1,0.2,0.3,0.4,0.5,0.6c4.1-1.5,7.7-3.6,10.6-6.2c0.1-0.1,0.3-0.3,0.4-0.3c-0.7-1.8-1.6-4.2-2.6-7.1
						c-0.3-1-1-2.4-1.9-4.4C2951.1-294,2950-293.6,2948.7-293.1z"/>
					<path style="fill:#FFD4B8;" d="M2957.1-339.2c-1.9,0.5-4,1-6.3,1.5c-12.9,3.7-19.4,6.8-19.4,9.3c0,1.3,3.2,5.3,9.7,12
						c0.1,0.2,2.6,2.7,7.5,7.6c-0.1,1-0.2,1.7-0.2,2.1c-0.1,3.5,0.6,6.7,2.1,9.6c0.5,1,0.9,1.9,1.3,2.8c0.9,2,1.6,3.5,1.9,4.4
						c1,2.9,1.9,5.3,2.6,7.1c-0.2,0.1-0.3,0.2-0.4,0.3c-3,2.6-6.5,4.7-10.6,6.2c0.9,1.3,1.6,2.1,1.9,2.6c-0.4-0.5-1-1.3-1.9-2.6
						c-0.2-0.2-0.3-0.4-0.5-0.6c-0.9-1.4-1.4-2.6-1.4-3.5c0-0.8,0.9-2.4,2.7-4.8c1.8-2.3,2.7-4.6,2.7-6.7c0-0.4,0-0.8-0.1-1.3
						c-0.2-0.7-0.5-1.4-0.9-2.1c-0.7-1-1.3-1.5-1.9-1.5c-0.7,0-2.6,1.4-5.7,4.1c-1.3,1.2-2.9,2.6-4.6,4c-1.1,1-1.6,2.2-1.6,3.5
						c0,1.4,0.3,2.8,0.8,4.3c0.7,1.9,2.3,4.7,4.6,8.5c1.8,3.5,3,5.6,3.8,6.3c0.9,0.9,3,1.4,6.3,1.4c2.2,0,3.7-0.1,4.6-0.4
						c1-0.3,2.2-0.8,3.6-1.5c2.1-1.2,4.5-2.8,7.4-4.8c-2.9,2-5.3,3.6-7.4,4.8c1.6,0.4,3,0.7,4.2,0.8c0.6,0.1,1.5,0.2,2.8,0.2
						c4.1,0,7.8-2,11.1-5.9c1-1.2,2.1-2.7,3.3-4.6c1-0.7,2.3-1.9,3.6-3.4c3.3-3.4,4.9-6.6,4.9-9.5c0-1.7-1-5.1-3.1-10.1
						c-1.1-2.8-9.7-16.4-25.6-40.6c-0.3-0.5-0.7-1-1-1.5L2957.1-339.2z"/>
				</g>
			</g>
			<g>
				
					<path style="fill:none;stroke:#FFB79C;stroke-width:1.0898;stroke-linecap:round;stroke-linejoin:round;stroke-miterlimit:2.1797;" d="
					M2945.3-276.3c0.9,1.3,1.6,2.1,1.9,2.6 M2965-271.3c-2.9,2-5.3,3.6-7.4,4.8"/>
			</g>
		</g>
		<g>
			<g>
				<g>
					<path style="fill:#FF7474;" d="M2982.2-547.4l-17.9-60.3c-5,3.6-9.5,7.6-13.5,12c-11,13.9-20.9,28.5-29.9,43.8
						c-1.2,2-2.4,4-3.7,6c-3.3,5.1-6.7,10.4-10.1,15.8c-12.4,19.5-24,39.6-34.8,60.3c-4.6,8.7-8.8,17.5-12.8,26.4
						c-0.8,2.3-1.2,4.1-1.3,5.4c-0.3,6.6,4.1,16.5,13.1,29.6c2.2,2.9,18.7,28.3,49.4,76c13.1-6.7,24.7-15.6,34.6-26.6
						c-11.3-20.1-19-33.3-23.1-39.7c-5.5-8.7-13.1-20.7-22.8-36c-0.2-0.1-0.5-0.2-0.8-0.3c-0.4-0.1-0.7-0.3-1-0.4
						c-0.7-0.2-1.3-0.4-1.7-0.4c-1.3-0.1-2.2-0.1-2.8,0c-6.5,0.3-10.5,0.5-11.9,0.6c1.4-0.1,5.3-0.3,11.9-0.6c0.5-0.1,1.4-0.1,2.8,0
						c0.4,0,1,0.1,1.7,0.4c0.1-0.2,0.3-0.4,0.4-0.6c0.8-1.3,3.7-5.4,8.6-12.1c4.9-6.8,12.4-17.8,22.6-33.1
						c6.7-10.3,18.4-23.2,35-38.7L2982.2-547.4z"/>
					<path style="fill:#FFFFFF;" d="M2935.5-309.7c14.3-6.4,25.6-14.5,33.9-24.4c-5.2-9.3-9.9-17.6-14.1-25
						c-9.9,11-21.4,19.9-34.6,26.6C2925.4-325.5,2930.3-317.8,2935.5-309.7z"/>
				</g>
			</g>
			<g>
				
					<path style="fill:none;stroke:#6F0000;stroke-width:1.0898;stroke-linecap:round;stroke-linejoin:round;stroke-miterlimit:2.1797;" d="
					M2907.7-435.5c-0.7-0.2-1.3-0.4-1.7-0.4c-1.3-0.1-2.2-0.1-2.8,0c-6.5,0.3-10.5,0.5-11.9,0.6"/>
			</g>
		</g>
	</g>
	<g id="Layer_1_88_" transform="matrix( 1, 0, 0, 1, -154,-198.2) ">
		<g>
			<g>
				<g>
					<path style="fill:#E0A077;" d="M-2897.1-293.1c0.1,0.4,0.1,0.8,0.1,1.3c0,2.1-0.9,4.4-2.7,6.7c-1.8,2.4-2.7,4-2.7,4.8
						c0,0.9,0.5,2.1,1.4,3.5c0.1,0.2,0.3,0.4,0.4,0.6c4.1-1.5,7.7-3.6,10.6-6.2c0.1-0.1,0.3-0.3,0.5-0.3c-0.7-1.8-1.6-4.2-2.6-7.1
						c-0.3-1-1-2.4-1.9-4.4C-2894.8-294-2895.8-293.6-2897.1-293.1z"/>
					<path style="fill:#FFD4B8;" d="M-2888.8-339.2c-1.9,0.5-4,1-6.3,1.5c-12.9,3.7-19.4,6.8-19.4,9.3c0,1.3,3.2,5.3,9.7,12
						c0.1,0.2,2.6,2.7,7.5,7.6c-0.1,1-0.2,1.7-0.2,2.1c-0.1,3.5,0.6,6.7,2.1,9.6c0.5,1,0.9,1.9,1.4,2.8c0.9,2,1.6,3.5,1.9,4.4
						c1,2.9,1.9,5.3,2.6,7.1c-0.2,0.1-0.3,0.2-0.5,0.3c-3,2.6-6.5,4.7-10.6,6.2c0.9,1.3,1.6,2.1,1.9,2.6c-0.4-0.5-1-1.3-1.9-2.6
						c-0.2-0.2-0.3-0.4-0.4-0.6c-0.9-1.4-1.4-2.6-1.4-3.5c0-0.8,0.9-2.4,2.7-4.8c1.8-2.3,2.7-4.6,2.7-6.7c0-0.4,0-0.8-0.1-1.3
						c-0.2-0.7-0.5-1.4-0.9-2.1c-0.7-1-1.3-1.5-1.9-1.5c-0.7,0-2.6,1.4-5.7,4.1c-1.3,1.2-2.9,2.6-4.6,4c-1.1,1-1.6,2.2-1.6,3.5
						c0,1.4,0.3,2.8,0.9,4.3c0.7,1.9,2.3,4.7,4.6,8.5c1.8,3.5,3,5.6,3.8,6.3c0.9,0.9,3,1.4,6.3,1.4c2.2,0,3.7-0.1,4.6-0.4
						c1-0.3,2.2-0.8,3.6-1.5c2.1-1.2,4.5-2.8,7.4-4.8c-2.9,2-5.3,3.6-7.4,4.8c1.6,0.4,3,0.7,4.1,0.8c0.6,0.1,1.5,0.2,2.8,0.2
						c4.1,0,7.8-2,11-5.9c1-1.2,2.1-2.7,3.3-4.6c1-0.7,2.3-1.9,3.7-3.4c3.3-3.4,4.9-6.6,4.9-9.5c0-1.7-1-5.1-3.1-10.1
						c-1.1-2.8-9.7-16.4-25.6-40.6c-0.3-0.5-0.7-1-1-1.5L-2888.8-339.2z"/>
				</g>
			</g>
			<g>
				
					<path style="fill:none;stroke:#FFB79C;stroke-width:1.0898;stroke-linecap:round;stroke-linejoin:round;stroke-miterlimit:2.1797;" d="
					M-2900.6-276.3c0.9,1.3,1.6,2.1,1.9,2.6 M-2880.8-271.3c-2.9,2-5.3,3.6-7.4,4.8"/>
			</g>
		</g>
		<g>
			<g>
				<g>
					<path style="fill:#FF7474;" d="M-2863.7-547.4l-17.9-60.3c-5,3.6-9.5,7.6-13.6,12c-11,13.9-20.9,28.5-29.8,43.8
						c-1.2,2-2.4,4-3.7,6c-3.3,5.1-6.7,10.4-10.1,15.8c-12.4,19.5-24,39.6-34.8,60.3c-4.6,8.7-8.8,17.5-12.8,26.4
						c-0.8,2.3-1.2,4.1-1.3,5.4c-0.3,6.6,4.1,16.5,13.1,29.6c2.2,2.9,18.7,28.3,49.4,76c13.1-6.7,24.7-15.6,34.6-26.6
						c-11.3-20.1-19-33.3-23.1-39.7c-5.5-8.7-13.1-20.7-22.9-36c-0.2-0.1-0.5-0.2-0.8-0.3c-0.4-0.1-0.7-0.3-1-0.4
						c-0.7-0.2-1.3-0.4-1.7-0.4c-1.3-0.1-2.2-0.1-2.8,0c-6.5,0.3-10.5,0.5-11.9,0.6c1.4-0.1,5.3-0.3,11.9-0.6c0.5-0.1,1.4-0.1,2.8,0
						c0.4,0,1,0.1,1.7,0.4c0.1-0.2,0.3-0.4,0.4-0.6c0.8-1.3,3.6-5.4,8.5-12.1c4.9-6.8,12.5-17.8,22.6-33.1
						c6.7-10.3,18.4-23.2,35-38.7L-2863.7-547.4z"/>
					<path style="fill:#FFFFFF;" d="M-2910.3-309.7c14.3-6.4,25.6-14.5,33.9-24.4c-5.2-9.3-9.9-17.6-14-25
						c-9.9,11-21.4,19.9-34.6,26.6C-2920.4-325.5-2915.5-317.8-2910.3-309.7z"/>
				</g>
			</g>
			<g>
				
					<path style="fill:none;stroke:#6F0000;stroke-width:1.0898;stroke-linecap:round;stroke-linejoin:round;stroke-miterlimit:2.1797;" d="
					M-2938.1-435.5c-0.7-0.2-1.3-0.4-1.7-0.4c-1.3-0.1-2.2-0.1-2.8,0c-6.5,0.3-10.5,0.5-11.9,0.6"/>
			</g>
		</g>
	</g>
	<g id="Layer_2_25_" transform="matrix( 1, 0, 0, 1, -1,-223.8) ">
		<g id="Layer_1_89_" transform="matrix( 1, 0, 0, 1, -3.6,-186.45) ">
			<g>
				<g>
					<g>
						<path style="fill:#E28F70;" d="M-2907.1-469.2l-15.8-1.4l-15.8,1.4l-2.9,26c12.9,3.6,25.4,3.6,37.6,0L-2907.1-469.2z"/>
						<path style="fill:#FFD4B8;" d="M-2872-418.2c0.6-0.5,1.2-1,1.8-1.5l-32.9-14.2l-1.1-9.3c-12.1,3.6-24.6,3.6-37.6,0l-1.1,9.3
							l-32.9,14.2c0.6,0.5,1.2,1,1.8,1.5l20.2,74.1l74.6,0.1L-2872-418.2z"/>
					</g>
				</g>
			</g>
		</g>
	</g>
	<g id="Layer_1_90_" transform="matrix( 1, 0, 0, 1, -1,-223.8) ">
		<g>
			<g>
				<g>
					<path style="fill:#FFFFFF;" d="M-3035.7-280.9v-24.2C-3037.1-294-3037.1-285.9-3035.7-280.9 M-2994.5-602.7
						c-9.5,3.5-18.1,7.5-25.8,11.9v317c8.6,1,17.2,1.9,25.8,2.6V-602.7 M-3035.7-580.6c-2.2,1.7-4.3,3.5-6.3,5.3l6.3,67.5V-580.6
						 M-2953.2-578.9c-9.2-3.6-17.8-9-25.8-16.1v325c8.6,0.6,17.2,1,25.8,1.3V-578.9 M-2813.9-300.5v21.8
						C-2812.8-282.8-2812.8-290-2813.9-300.5 M-2829.3-592.7c-7.9-3.6-16.5-7-26-10.1V-271c8.7-0.7,17.3-1.5,26-2.5V-592.7
						 M-2870.7-596.1c-7.2,8.4-15.8,14.5-25.8,18.3v309.1c8.6-0.3,17.2-0.7,25.8-1.2V-596.1 M-2912-574c-3.5,0.5-7.1,0.8-10.9,0.8
						c-5.1,0-10.1-0.5-14.9-1.4v306.2c8.6,0.1,17.2,0.1,25.8,0V-574 M-2803.8-578.1c-3.1-2.3-6.5-4.5-10.1-6.6v97.1L-2803.8-578.1z"
						/>
					<path style="fill:#FFD2D2;" d="M-3020.3-590.8c-5.6,3.2-10.7,6.6-15.4,10.2v72.9l13.2,141c-6.9,26.1-11.3,46.6-13.2,61.5v24.2
						c1.1,4,3.1,6.1,6.1,6.1c0.3,0,0.5,0.1,0.8,0.1c2.8,0.4,5.7,0.7,8.6,1V-590.8 M-2937.8-574.6c-5.3-0.9-10.4-2.4-15.4-4.3v310.2
						c5.1,0.2,10.3,0.3,15.4,0.4V-574.6 M-2988.7-604.7c-2,0.7-3.9,1.4-5.8,2v331.5c5.1,0.4,10.3,0.8,15.4,1.1v-325
						C-2982.4-598-2985.6-601.2-2988.7-604.7 M-2896.6-577.8c-4.8,1.8-9.9,3.1-15.4,3.8v305.7c5.1-0.1,10.3-0.2,15.4-0.4V-577.8
						 M-2863.8-605.5c-2.1,3.4-4.4,6.5-6.9,9.4v326.1c5.1-0.3,10.3-0.7,15.4-1.1v-331.8C-2858.1-603.7-2860.9-604.6-2863.8-605.5
						 M-2813.9-584.7c-4.7-2.8-9.9-5.5-15.4-8v319.2c3.3-0.3,6.7-0.7,10-1.2c0.5,0,0.9-0.1,1.3-0.1c1.9,0.3,3.3-1,4.1-3.9v-21.8
						c-1.7-16.1-6-39.8-12.9-71l12.9-116V-584.7z"/>
					<path style="fill:#FF7474;" d="M-2896.6-268.7c-5.1,0.2-10.3,0.3-15.4,0.4c-8.6,0.1-17.2,0.1-25.8,0
						c-5.1-0.1-10.3-0.2-15.4-0.4c-8.6-0.3-17.2-0.7-25.8-1.3c-5.1-0.3-10.3-0.7-15.4-1.1c-8.6-0.7-17.2-1.6-25.8-2.6
						c-2.9-0.3-5.7-0.6-8.6-1v22.2c2.8,0.4,5.7,0.8,8.6,1.1c8.6,1.1,17.2,2.1,25.8,2.9c5.1,0.5,10.3,0.9,15.4,1.3
						c8.6,0.6,17.2,1.1,25.8,1.4c5.1,0.2,10.3,0.4,15.4,0.5c8.6,0.1,17.2,0.1,25.8-0.1c5.1-0.1,10.3-0.2,15.4-0.4
						c8.6-0.3,17.2-0.8,25.8-1.4c5.1-0.4,10.3-0.8,15.4-1.3c8.6-0.8,17.3-1.7,26-2.8c3.3-0.4,6.7-0.8,10-1.3v-22.2
						c-3.3,0.4-6.7,0.8-10,1.2c-8.7,1-17.3,1.8-26,2.5c-5.1,0.4-10.3,0.8-15.4,1.1C-2879.3-269.4-2888-269-2896.6-268.7
						 M-2870.7-607.5c-3.3-0.9-6.8-1.8-10.3-2.7c-4.6,6.7-9.8,12-15.6,15.9c-4.7,3.1-9.9,5.3-15.4,6.5c-3.6,0.8-7.3,1.3-11.3,1.3
						c-5.1,0-9.9-0.6-14.6-1.8c-5.4-1.3-10.5-3.5-15.4-6.4c-6.4-3.8-12.3-9-17.7-15.5c-2.8,0.7-5.5,1.5-8.1,2.3
						c-3.3,1-6.5,2-9.7,3.1c3.1,3.5,6.3,6.8,9.7,9.7c8,7.1,16.6,12.5,25.8,16.1c5,2,10.1,3.4,15.4,4.3c4.8,0.9,9.8,1.3,14.9,1.4
						c3.8,0,7.4-0.3,10.9-0.8c5.5-0.7,10.6-2,15.4-3.8c10-3.8,18.6-9.8,25.8-18.3c2.5-2.9,4.8-6,6.9-9.4
						C-2866.1-606.2-2868.4-606.8-2870.7-607.5z"/>
				</g>
			</g>
		</g>
	</g>
</g>
<g id="_______8_" transform="matrix( 0.544921875, 0, 0, 0.544921875, 1728.85,710.5) ">
	<g id="Symbol_3" transform="matrix( 0.9699859619140625, 0, 0, 0.9699859619140625, -21.4,-614.8) ">
		<g id="Layer_1_91_" transform="matrix( 1, 0, 0, 1, 183.6,83.3) ">
			<g>
				<g>
					<g>
						<path style="fill:#FFD4B8;" d="M-2979.7-459.8c0-9.1-2.3-16.9-6.8-23.4c-5-7.2-11.8-10.9-20.3-10.9
							c-10.3,0-18.7,3.5-25.2,10.4c-5.6,6-10.7,15.5-15.1,28.5c0,0.5,0,1.1,0.1,1.7c0.5,7.8,1.4,14.6,2.8,20.5
							c4.4,18.5,13.3,27.8,26.8,27.8c4.9,0,9.7-1.7,14.4-5.2c4.4-3.2,8.4-7.5,12-13.1c3.5-5.4,6.2-11.3,8.2-17.6
							C-2980.7-447.6-2979.7-453.8-2979.7-459.8z"/>
					</g>
				</g>
			</g>
			<g transform="matrix( 0.810546875, 0, 0, 0.810546875, -610.35,-314.95) ">
				<g>
					<g>
						<path style="fill:#FFB79C;" d="M-2991.5-186.2c-0.8,0.9-1.6,1.7-2.6,2.4c-4.6,3.3-6.8,7.6-6.6,12.9c0.2,6.3,1.3,12.4,3.3,18.4
							c2.2,6.3,6.3,10.7,12.4,13.3c6.3,2.6,12.6,2.7,19,0.5c6.1-2.1,10.7-5.9,13.8-11.6c3.1-5.7,5.2-11.8,6.4-18.2
							c1.2-6.4,0.5-12.7-1.9-18.8c-2.6-6.6-7.3-10.5-14.1-11.7c-5-0.4-9.9,0.3-14.6,2.1C-2982.2-194.6-2987.3-191-2991.5-186.2z"/>
					</g>
				</g>
			</g>
		</g>
	</g>
	<g id="Symbol_3_1_" transform="matrix( 0.9699859619140625, 0, 0, 0.9699859619140625, -21.4,-614.8) ">
		<g id="Layer_1_92_" transform="matrix( -1, 0, 0, 1, -146.1,83.3) ">
			<g>
				<g>
					<g>
						<path style="fill:#FFD4B8;" d="M3047-459.8c0-9.1-2.3-16.9-6.8-23.4c-5-7.2-11.8-10.9-20.3-10.9c-10.3,0-18.7,3.5-25.2,10.4
							c-5.6,6-10.7,15.5-15.1,28.5c0,0.5,0,1.1,0.1,1.7c0.5,7.8,1.4,14.6,2.8,20.5c4.4,18.5,13.3,27.8,26.8,27.8
							c4.9,0,9.7-1.7,14.5-5.2c4.4-3.2,8.4-7.5,12-13.1c3.5-5.4,6.2-11.3,8.2-17.6C3046-447.6,3047-453.8,3047-459.8z"/>
					</g>
				</g>
			</g>
			<g transform="matrix( 0.810546875, 0, 0, 0.810546875, -610.35,-314.95) ">
				<g>
					<g>
						<path style="fill:#FFB79C;" d="M4443.9-186.2c-0.8,0.9-1.6,1.7-2.6,2.4c-4.6,3.3-6.8,7.6-6.6,12.9c0.2,6.3,1.3,12.4,3.4,18.4
							c2.2,6.3,6.3,10.7,12.4,13.3c6.3,2.6,12.6,2.7,19,0.5c6.1-2.1,10.7-5.9,13.8-11.6c3.1-5.7,5.2-11.8,6.4-18.2
							c1.2-6.4,0.5-12.7-1.9-18.8c-2.6-6.6-7.3-10.5-14-11.7c-5-0.4-9.9,0.3-14.6,2.1C4453.1-194.6,4448-191,4443.9-186.2z"/>
					</g>
				</g>
			</g>
		</g>
	</g>
	<g id="Symbol_9" transform="matrix( 0.9699859619140625, 0, 0, 0.9699859619140625, -21.4,-614.8) ">
		<g id="Layer_1_93_" transform="matrix( 1, 0, 0, 1, -144.05,71.6) ">
			<g>
				<g>
					<g>
						<path style="fill:#CD3625;" d="M-2996-455.7c0-7.6-0.3-16.5-0.9-26.8h-33.9c2.9,16.3,6.8,30.4,11.9,42.3
							c3.3,7.7,6.7,13.7,10.3,18c3,3.7,5.5,5.5,7.3,5.5c2.4,0,3.9-3.7,4.6-11.1C-2996.2-432.7-2996-442-2996-455.7z"/>
					</g>
				</g>
			</g>
		</g>
	</g>
	<g id="Symbol_4" transform="matrix( 0.9699859619140625, 0, 0, 0.9699859619140625, -21.4,-614.8) ">
		<g id="Layer_1_94_" transform="matrix( 1, 0, 0, 1, 182.4,71.45) ">
			<g>
				<g>
					<g>
						<path style="fill:#CD3625;" d="M-2984.8-505.5c0.8-11.3-0.1-22.5-2.9-33.5l-52.8-10.4c2.7,6,4.6,12.3,5.6,18.9
							c1.9,12.1,2.6,24.3,2.2,36.4c-0.4,12.6-1.5,25.2-3.1,37.7c-1.6,12-2.6,24.1-3.2,36.2c0,1.9-0.1,3.8-0.1,5.6
							c0,9.9,0.2,16.4,0.5,19.5c0.7,5.6,2.5,12.7,5.5,21.3c2.5,7.2,6.9,13.8,13.3,19.8c5.4,5.1,9.6,7.7,12.4,7.7
							c0.5,0,2-0.1,4.3-0.3c-4.3-1.8-8.1-6.4-11.4-13.8c-3.2-7.2-4.8-14.3-4.8-21.4c0-10.1,1.8-20.7,5.5-31.9
							c0.5-1.7,1.3-3.9,2.3-6.5c2.8-6.3,5.6-12.6,8.2-18.9c4.4-10.5,8.4-21.2,11.8-32.1c1.8-5.8,3.3-11.7,4.4-17.6
							c0-0.2,0.1-0.5,0.1-0.7C-2985.8-494.8-2985.2-500.1-2984.8-505.5z"/>
					</g>
				</g>
				<g>
					
						<path style="fill:none;stroke:#942013;stroke-width:1.0571;stroke-linecap:round;stroke-linejoin:round;stroke-miterlimit:2.1143;" d="
						M-2986.9-488.8c-1.1,6-2.6,11.8-4.4,17.6c-3.4,10.9-7.4,21.6-11.8,32.1c-2.6,6.3-5.4,12.6-8.2,18.9c-1,2.6-1.8,4.8-2.3,6.5
						c-3.7,11.2-5.5,21.9-5.5,31.9c0,7.1,1.6,14.2,4.8,21.4c3.3,7.4,7.1,12,11.4,13.8c-2.3,0.2-3.8,0.3-4.3,0.3
						c-2.8,0-7-2.6-12.4-7.7c-6.4-6-10.8-12.5-13.3-19.8c-3-8.7-4.8-15.8-5.5-21.3c-0.3-3.1-0.5-9.6-0.5-19.5c0-1.9,0-3.8,0.1-5.6
						c0.6-12.1,1.6-24.2,3.2-36.2c1.6-12.5,2.7-25.1,3.1-37.7c0.4-12.2-0.3-24.4-2.2-36.4c-1-6.6-2.9-12.9-5.6-18.9
						c-0.6-1.2-1.2-2.4-1.9-3.6"/>
				</g>
			</g>
		</g>
	</g>
	<g id="Symbol_5" transform="matrix( 0.9699859619140625, 0, 0, 0.9699859619140625, -21.4,-614.8) ">
		<g id="Layer_1_95_" transform="matrix( 1, 0, 0, 1, 18.5,16.05) ">
			<g>
				<g>
					<g>
						<path style="fill:#FFD4B8;" d="M-2864.6-578c-39.8-28.5-88-46.1-144.7-53c-1.5,0.1-3,0.3-4.5,0.4
							c-56.9,4.9-106.8,23.5-149.8,55.7c-0.1,0.1-0.1,0.1-0.2,0.2c-8.6,18.1-13.4,38.7-14.4,62c-0.1,3.3-0.2,6.7-0.2,10.1
							c0,20.8,1.3,43.7,3.9,68.7c0.8,8,1.6,15.1,2.2,21.4c1.9,20.2,5.9,38.3,11.8,54.3c2.5,6.5,5.3,12.9,8.6,19.1
							c6.2,11.7,14.1,22.2,23.7,31.4c9.6,9.2,20.3,16.6,32.3,22.4c12.5,6.1,25.6,10.5,39.2,13.1c12.7,2.6,25.6,3.9,38.6,4
							c14.1,0.2,28.1-0.8,42-3.1c14-2.4,27.5-6.4,40.7-11.9c13-5.5,24.8-13,35.2-22.6c10.3-9.6,18.7-20.6,25.2-33.1
							c10.9-20.2,17.8-44.8,20.6-73.6c0.6-6.2,1.4-13.4,2.2-21.4c2.6-25,3.9-47.9,3.9-68.7C-2848.4-531.5-2853.8-556.6-2864.6-578z"
							/>
					</g>
				</g>
				<g>
					
						<path style="fill:none;stroke:#2E0A0A;stroke-width:1.0571;stroke-linecap:round;stroke-linejoin:round;stroke-miterlimit:2.1143;" d="
						M-3162.2-578c-0.5,1-1,2-1.4,3"/>
				</g>
			</g>
		</g>
	</g>
	<g id="Symbol_2" transform="matrix( 0.9699859619140625, 0, 0, 0.9699859619140625, -21.4,-614.8) ">
		<g id="Layer_1_96_" transform="matrix( 1, 0, 0, 1, 144.25,-87.45) ">
			<g>
				<g>
					<g>
						<path style="fill:#CD3625;" d="M-2959.1-484.9l-45.3-40.2l-63.3,6.8c1.6,16.1,4.8,32,9.6,47.5c5.1,16.5,13,31.5,23.8,44.9
							c10.5,13.1,22.2,24.8,35.2,35.3c10.8,8.8,23,14.2,36.7,16.3L-2959.1-484.9z"/>
					</g>
				</g>
			</g>
		</g>
	</g>
	<g id="Symbol_7" transform="matrix( 0.9699859619140625, 0, 0, 0.9699859619140625, -21.4,-614.8) ">
		<g id="Layer_1_97_" transform="matrix( 1, 0, 0, 1, 129.55,93.75) ">
			<g transform="matrix( 0.603668212890625, 0, 0, 1.069122314453125, -411.05,-440) ">
				<g>
					<g>
						<path style="fill:#FFB79C;" d="M-4276-9c0-3-3.4-5.6-10.2-7.8c-6.8-2.1-15-3.2-24.6-3.2c-9.6,0-17.8,1.1-24.6,3.2
							c-6.8,2.2-10.2,4.8-10.2,7.8c0,3,3.4,5.6,10.2,7.8c6.8,2.2,15,3.2,24.6,3.3c9.6,0,17.8-1.1,24.6-3.3
							C-4279.4-3.4-4276-6-4276-9z"/>
					</g>
				</g>
			</g>
		</g>
	</g>
	<g id="Symbol_7_1_" transform="matrix( 0.9699859619140625, 0, 0, 0.9699859619140625, -21.4,-614.8) ">
		<g id="Layer_1_98_" transform="matrix( 1, 0, 0, 1, -89.3,93.75) ">
			<g transform="matrix( 0.603668212890625, 0, 0, 1.069122314453125, -411.05,-440) ">
				<g>
					<g>
						<path style="fill:#FFB79C;" d="M-4276-9c0-3-3.4-5.6-10.2-7.8c-6.8-2.1-15-3.2-24.6-3.2c-9.6,0-17.8,1.1-24.6,3.2
							c-6.8,2.2-10.2,4.8-10.2,7.8c0,3,3.4,5.6,10.2,7.8c6.8,2.2,15,3.2,24.6,3.3c9.6,0,17.8-1.1,24.6-3.3
							C-4279.4-3.4-4276-6-4276-9z"/>
					</g>
				</g>
			</g>
		</g>
	</g>
	<g id="Symbol_6" transform="matrix( 0.9699859619140625, 0, 0, 0.9699859619140625, -21.4,-614.8) ">
		<g id="Layer_1_99_" transform="matrix( 1, 0, 0, 1, 12.1,79.95) ">
			<g>
				<g>
					<g>
						<path style="fill:#E5815C;" d="M-3019.4-451c-0.8,0-1.5,0.3-2.1,0.9c-0.6,0.6-0.8,1.3-0.8,2.1l0.1,3.8l0.1,0.4v0.2l0.8,2.7
							l0.1,0.1l0.1,0.3l0.4,0.9l0.1,0.2l0.1,0.1l0.3,0.6l1.2,1.6l1.9,1.9l1.6,1.1l1.4,0.8h0.1v0h0l0.3,0.1l0.4,0.2l1.8,0.5l0.3,0.1
							l0.3,0.1l1.3,0.2h0.9l1.5-0.3l0.1-0.2l-0.1,0l-2-1l-1.8-1.2l-0.2-0.2l-0.2-0.1l-0.3-0.4l-0.2-0.2l-0.3-0.3h-0.1v0l-0.1-0.1
							l-0.2-0.1l-0.4-0.4l-1.1-1.4l-0.1-0.2l-0.3-0.4l-0.4-0.8l-0.9-2.1l0-0.1l-0.1-0.1l-0.4-1.5v-0.3l-0.1-0.7l0.1-1l2.1-0.4l0.1,0
							l0.1-0.1l0.3,0l0.7-0.3h0.1l0.1-0.1h0.1l0.1-0.1l0.1,0l0.1,0l1.6-1.1l0.4-0.4l0.2-0.2l0.2-0.2c0.5-0.5,1-1,1.3-1.6
							c0.4-0.5,0.7-1.1,0.9-1.8l0.4-0.9l0.6-2.8l0.1-2.6l-0.3-2.5v-0.2l-0.1-0.4v-0.1l0-0.1l-1-4l-0.5-1.6l-0.1-0.1l-0.1,0.1
							l-1.2,5.6l-0.1,0.1v0.1l-0.1,0.6c0,0.1-0.1,0.6-0.3,1.4l-1.1,3.4l-0.5,1.2l-0.2,0.3l-0.1,0.3l-1.4,1.7l-0.1,0.1l-0.1,0.1
							l-0.1,0l-0.1,0.1l-0.4,0.3l-0.1,0h0l-0.1,0.1l-0.1,0h-0.1l-0.1,0l-0.1,0.1h-0.1l-0.6,0.1h-0.1l-0.2,0h-0.3l-0.7,0.1
							L-3019.4-451z"/>
					</g>
				</g>
			</g>
		</g>
	</g>
	<g id="Symbol_1" transform="matrix( 0.9699859619140625, 0, 0, 0.9699859619140625, -21.4,-614.8) ">
		<g id="Layer_1_100_" transform="matrix( 1, 0, 0, 1, -55.8,-39.7) ">
			<g>
				<g>
					<g>
						<path style="fill:#A62516;" d="M-2877.4-548.8c4.8-6,8.9-12.3,12.3-19.1c-49,4.3-96,16.6-141.2,36.8
							c-35.4,15.9-66.3,37.8-92.7,65.8c-18,19.2-28.1,41.9-30.1,68.2c-1.4,17.6-0.2,34.9,3.4,52c1.5,7,4.1,13.5,7.9,19.6
							c4.4,7.1,10.4,12.3,18.1,15.5c-0.7-6.8-1.5-13.6-2.6-20.5c-3-20.8-0.2-40.8,8.3-59.9c8.7-19.7,21.6-36.1,38.6-49.2
							c17-13.1,35.4-23.7,55.2-31.9c18.4-7.6,36.4-15.7,54.1-24.3c18.7-9.1,35.8-20.6,51.2-34.7
							C-2888.5-536.1-2882.7-542.2-2877.4-548.8z"/>
					</g>
				</g>
			</g>
			<g>
				<g>
					<g>
						<path style="fill:#CD3625;" d="M-2852-572.2L-2852-572.2L-2852-572.2l-182.6-35.3c-20.2,6.1-39.1,15-56.6,26.7
							c-25.3,16.7-45.7,38.2-61.2,64.4c-6.4,10.8-11.5,22.2-15.3,34.1c-2.1,6.8-3.8,13.6-5,20.5c-3.3,24-2.5,47.7,2.4,71.1
							c6.2,34.7,23,62.8,50.4,84.1c12.9,10.1,27.6,14.9,44,14.6c-15.4-8.2-25.4-20.8-30.1-37.8c-5.6-20.3-5.4-40.6,0.8-60.9
							c3.2-10,8.2-19.4,14.9-28.2c12.8-16.8,28.1-31.1,45.8-42.9c10.6-6.9,21.5-13.1,32.8-18.5c17.1-8.3,36.4-16.4,57.8-24.1
							c21.4-7.8,41.2-16.7,59.5-26.8C-2876.3-541.3-2862.1-554.9-2852-572.2z"/>
					</g>
				</g>
			</g>
		</g>
	</g>
	<g id="Layer_18" transform="matrix( 0.9699859619140625, 0, 0, 0.9699859619140625, -21.4,-614.8) ">
		<g transform="matrix( -1.3472747802734375, 0, 0, 1.3409881591796875, 817.25,-462.3) ">
			<g>
				<g>
					<path style="fill:#FFFFFF;" d="M2910.2,38c0-7.5-2.6-13.9-7.9-19.2c-5.3-5.3-11.6-7.9-19.1-7.9s-13.9,2.6-19.2,7.9
						c-5.3,5.3-7.9,11.7-7.9,19.2s2.6,13.9,7.9,19.1c5.3,5.3,11.7,8,19.2,8s13.9-2.7,19.1-8C2907.6,51.8,2910.2,45.5,2910.2,38z"/>
				</g>
			</g>
		</g>
	</g>
	<g id="_8_" transform="matrix( 0.9699859619140625, 0, 0, 0.9699859619140625, -21.4,-614.8) ">
		<g transform="matrix( 1.3472747802734375, 0, 0, 1.3409881591796875, -778.65,-462.3) ">
			<g>
				<g>
					<path style="fill:#FFFFFF;" d="M-1563,38c0-7.5-2.7-13.9-7.9-19.2c-5.3-5.3-11.7-7.9-19.2-7.9s-13.9,2.6-19.2,7.9
						c-5.3,5.3-7.9,11.7-7.9,19.2s2.6,13.9,7.9,19.1c5.3,5.3,11.7,8,19.2,8s13.9-2.7,19.2-8C-1565.7,51.8-1563,45.5-1563,38z"/>
				</g>
			</g>
		</g>
		<g transform="matrix( 1.0423583984375, 0, 0, 1.13201904296875, -579.3,-380.35) ">
			<g>
				<g>
					<path style="fill:#2E130E;" d="M-2222.7-23c0-7.1-2.5-13.1-7.5-18.1c-5-5-11-7.5-18.1-7.5c-7.1,0-13.1,2.5-18.1,7.5
						c-5,5-7.4,11-7.4,18.1s2.5,13.1,7.4,18c5,5,11,7.5,18.1,7.5c7.1,0,13.1-2.5,18.1-7.5C-2225.2-9.9-2222.7-15.9-2222.7-23z"/>
				</g>
			</g>
		</g>
		<g transform="matrix( -0.993133544921875, 0, 0, 0.993133544921875, 18.6,-52.65) ">
			<g>
				<g>
					<path style="fill:#FFFFFF;" d="M2980.9-368.9c0-1.7-0.6-3.1-1.8-4.4c-1.2-1.2-2.7-1.8-4.4-1.8c-1.7,0-3.2,0.6-4.4,1.8
						c-1.2,1.2-1.8,2.7-1.8,4.4c0,1.7,0.6,3.2,1.8,4.4c1.2,1.2,2.7,1.8,4.4,1.8c1.7,0,3.2-0.6,4.4-1.8
						C2980.3-365.7,2980.9-367.2,2980.9-368.9z"/>
				</g>
			</g>
		</g>
		<g transform="matrix( -1.0423583984375, 0, 0, 1.13201904296875, 617.9,-380.35) ">
			<g>
				<g>
					<path style="fill:#2E130E;" d="M3559.1-23c0-7.1-2.5-13.1-7.5-18.1c-5-5-11-7.5-18.1-7.5c-7.1,0-13.1,2.5-18.1,7.5
						c-5,5-7.4,11-7.4,18.1s2.5,13.1,7.4,18c5,5,11,7.5,18.1,7.5c7.1,0,13.1-2.5,18.1-7.5C3556.6-9.9,3559.1-15.9,3559.1-23z"/>
				</g>
			</g>
		</g>
		<g transform="matrix( 0.993133544921875, 0, 0, 0.993133544921875, 20,-52.65) ">
			<g>
				<g>
					<path style="fill:#FFFFFF;" d="M-3087.5-368.9c0-1.7-0.6-3.1-1.8-4.4c-1.2-1.2-2.7-1.8-4.4-1.8s-3.2,0.6-4.4,1.8
						c-1.2,1.2-1.8,2.7-1.8,4.4c0,1.7,0.6,3.2,1.8,4.4c1.2,1.2,2.7,1.8,4.4,1.8s3.2-0.6,4.4-1.8
						C-3088.1-365.7-3087.5-367.2-3087.5-368.9z"/>
				</g>
			</g>
		</g>
	</g>
	<g id="Layer_30" transform="matrix( 0.9699859619140625, 0, 0, 0.9699859619140625, -21.4,-614.8) ">
		<g id="Layer_5_13_" transform="matrix( 1, 0, 0, 1, 96.35,19.65) ">
		</g>
		<g id="Layer_4_13_" transform="matrix( 1, 0, 0, 1, 96.35,19.65) ">
			<g>
				<g>
					<g>
						<path style="fill:#270F0B;" d="M-2998.6-464.4l-2.5-1.3c-1-0.5-2.3-1-3.7-1.5l-1-0.3l-0.3-0.1l-0.3,0l-0.4-0.2l-4.6-1.1
							l-0.6,0l-2-0.4h-0.3l-0.3,0l-1.1-0.1h-0.3l-0.3-0.1l-1,0c0,0-0.1,0-0.2,0h-2.1l-0.5,0h-0.3l-0.3,0.1l-2.6,0.2l-5.4,1.1h-0.1
							l-0.1,0l-1,0.3l-0.3,0l-2.6,0.9l-7.1,3.6l-0.2,0.1l-0.4,0.3l-2.8,2.1c-0.3,0.3-0.5,0.4-0.6,0.5l-4.7,4.9
							c-0.2,0.2-0.3,0.4-0.4,0.5l-4.7,7.3c-0.1,0.1-0.1,0.2,0.1,0.2h0.1l2.5-2.8c0.9-1,1.9-2,2.9-3.1l0.4-0.4l1-0.9
							c0-0.1,0.1-0.1,0.3-0.2l0.3-0.3l2.2-1.8c1.8-1.4,3.6-2.5,5.3-3.5l4.9-2.4l0.2,0l0.9-0.4l0.2-0.1l1.1-0.4l3.5-0.9l0.1-0.1h0.1
							l2.6-0.5c1.3-0.2,2.5-0.4,3.8-0.4l3.9-0.1c-0.2,0-0.2-0.1-0.1-0.1h0.1l0.1,0.1l1.3,0l0.1,0.1l0.9,0.1h0.2l3.6,0.6h0.2l7.1,1.9
							l0.4,0.2l0.8,0.3c1,0.4,2.1,0.9,3.3,1.5l1.2,0.6l0.2,0.1l0.2,0.1l7.8,5.4l2.5,2.3l5.8,6.3h0.1v-0.1l-1.9-3.3l-0.3-0.4
							l-0.1-0.2l-2.5-3.4c-0.1-0.1-0.2-0.3-0.4-0.5l-0.4-0.6l-0.3-0.3l-0.2-0.3l-4.7-4.7l-0.4-0.3l-0.5-0.4l-4.3-3l-0.2-0.1
							l-0.2-0.1l-0.9-0.5L-2998.6-464.4z"/>
					</g>
				</g>
			</g>
		</g>
		<g id="Layer_3_16_" transform="matrix( 1, 0, 0, 1, 96.35,19.65) ">
			<g>
				<g>
					<g>
						<path style="fill:#ECAA92;" d="M-3002.7-395.4l0.3-0.2l0.8-0.5l0.1-0.1l-0.1,0l-2.4,0.1l-0.2,0.1h-0.3l-10.9,1.1l-1.9,0.1
							l-0.4,0h-2.8l-0.4,0h-1.1l-0.8-0.1c-0.4,0-0.6,0-0.8,0l-0.7-0.1l-0.2,0h-0.2l-0.3-0.1c-0.2,0-1.1-0.2-2.8-0.4l-0.5-0.1h-0.1
							l-0.1,0l-0.6-0.2h-0.1l-0.5-0.1l-0.3,0l-2.9-0.9l-0.2-0.1l-0.2,0l-2.2-0.9c-0.1-0.1-0.1-0.1-0.1,0v0.1l1.6,1.8l0.2,0.1
							l0.5,0.5l2,1.4l0.1,0l0.1,0.1l0.3,0.1l0.4,0.3l0.2,0.1l0.8,0.4h0.1l0.5,0.3c0.9,0.4,1.9,0.8,3,1l0.8,0.2
							c0.4,0.1,0.7,0.1,0.9,0.1l1.7,0.3h0.2l0.2,0l3.1,0.1c1.5-0.1,2.7-0.1,3.4-0.3c0.7-0.1,1.3-0.1,1.7-0.3l1.6-0.3
							c1.3-0.3,2.3-0.6,2.9-0.8L-3002.7-395.4z"/>
					</g>
				</g>
			</g>
		</g>
		<g id="Layer_1_101_" transform="matrix( 1, 0, 0, 1, 96.35,19.65) ">
			<g>
				<g>
					<g>
						<path style="fill:#270F0B;" d="M-2995-464.1l-0.1,0.2l-0.2,0.3l-0.1,0.2l-0.1,0.2l-0.2,0.3l0,0.1l-0.1,0.1l-0.3,0.8v0.1
							l-0.1,0.1l-0.1,0.1v0.1c0,0.1,0,0.1,0.1,0.1h0.1l0.1-0.1l0.2,0l0.1,0l0.1-0.1l0.8-0.5l0.1-0.1l0.3-0.2l1.5-1.4l1-1.4l0.2-0.1
							l0.1-0.2l0.4-0.5l0.1-0.2l0.2-0.3l0.1-0.2l0.1-0.1l0.2-0.3l0-0.1l0.1-0.2l0.3-0.7v-0.1l0.1-0.1l0.1-0.1v-0.1
							c0-0.1,0-0.1-0.1-0.1h-0.1l-0.1,0.1l-0.2,0l-0.1,0l-0.1,0.1l-0.8,0.5l-0.1,0.1l-0.3,0.2l-2,2l-0.5,0.7l-0.2,0.1l-0.1,0.2
							L-2995-464.1z"/>
					</g>
				</g>
			</g>
			<g>
				<g>
					<g>
						<path style="fill:#270F0B;" d="M-3013.6-475.6l-0.3,0.9l0,0.1l-0.4,1.5l-0.1,0.1v0.1l-0.2,1v0.1l-0.1,0.1v0.3l0,0.3v0.3
							l-0.1,0.5v0.2l-0.1,0.1v1.6l0.1,0.1v0.4l0.1,0.5v0.2l0.1,0.2l0.1,0.1l0.1,0.1l0.1-0.2l0.1-0.1l0.5-1l0-0.1l0.1-0.2l0.4-1.2
							l0-0.1l0.4-1.5l0.1-0.1v-0.1l0.2-1v-0.1l0.1-0.1v-0.3l0-0.3v-0.3l0.1-0.5v-0.2l0.1-0.1v-1.6l-0.1-0.1v-0.4l-0.1-0.5v-0.2
							l-0.1-0.2l-0.1-0.1l-0.1-0.1l-0.1,0.1l-0.1,0.1l-0.5,1l-0.1,0.4L-3013.6-475.6z"/>
					</g>
				</g>
			</g>
			<g>
				<g>
					<g>
						<path style="fill:#270F0B;" d="M-3035.9-472.4l-0.1-0.2l-0.4-0.6l-0.3-0.3l-0.4-0.5l-0.1-0.1l-0.1,0l-0.2-0.2
							c0-0.1-0.1-0.1-0.2,0v0.6l0.1,0.9l0.1,0.2v0.2l0.3,1.3l0.1,0.1l0.3,1l0.2,0.5l0.1,0.1l0.1,0.1l1.1,2.5l0.1,0.1l0.1,0.1
							l0.3,0.5l0.1,0.2l0.4,0.6l0.3,0.3l0.4,0.5l0,0.1l0.1,0.1l0.2,0.2c0,0.1,0.1,0.1,0.2,0v-0.5l-0.2-1.1v-0.2l-0.3-1.3l0-0.1
							l-0.3-1l-0.2-0.5l-0.1-0.1l-0.1-0.1l-0.7-1.6l-0.2-0.3l-0.3-0.6l-0.1-0.1l-0.1-0.1L-3035.9-472.4z"/>
					</g>
				</g>
			</g>
		</g>
		<g id="Layer_2_26_" transform="matrix( 1, 0, 0, 1, 96.35,19.65) ">
			<g id="Layer_1_102_" transform="matrix( 1, 0, 0, 1, 2.55,-45.65) ">
				<g>
					<g>
						<g>
							<path style="fill:#431E17;" d="M-3012.1-455.4l5.1,1.6l0.2,0.1l8,3.3c2.3,1,4.3,1.9,6.1,2.9l9.4,5.1l0.5,0.3l6.6,3.8
								c0,0,0.1,0,0.1-0.1v-0.1l-3.5-4.2l-6.5-6.3l-8.2-5.9l-0.4-0.2l-1.1-0.8c-1.2-0.7-2.3-1.3-3.4-1.8l-0.4-0.3l-3.1-1.5
								c-2.6-1.1-5.1-2-7.6-2.6l-6.3-1.4l-7.4-0.4c-0.5,0-1.1,0-1.9,0.1c-2.4,0.1-4.8,0.5-7.3,1.1l-1.4,0.4l-0.2,0.1l-5.9,2.1
								l-5,2.8l-0.4,0.3l-0.4,0.3l-3.9,3.1l0,0.2h0.1l4.7-1.5l0.5-0.1c0.9-0.3,1.6-0.4,2.1-0.5l1.8-0.5h0.2l0.1,0l0.4-0.1l1.3-0.3
								l5.6-0.9h0.2l0.2,0h0.4c0.2,0,0.5-0.1,0.8-0.1c2.1-0.2,4.2-0.3,6.5-0.1c1.5,0.1,2.7,0.1,3.4,0.3h0.4l3,0.5h0.2l0.6,0.1l0.4,0
								l2.2,0.5C-3014.2-455.9-3013-455.6-3012.1-455.4z"/>
						</g>
					</g>
				</g>
			</g>
		</g>
		<g id="Layer_5_14_" transform="matrix( -1, 0, 0, 1, -57.75,19.65) ">
		</g>
		<g id="Layer_4_14_" transform="matrix( -1, 0, 0, 1, -57.75,19.65) ">
			<g>
				<g>
					<g>
						<path style="fill:#270F0B;" d="M3028.2-464.4l-2.5-1.3c-1-0.5-2.3-1-3.7-1.5l-1-0.3l-0.3-0.1l-0.3,0l-0.4-0.2l-4.6-1.1l-0.6,0
							l-2-0.4h-0.3l-0.3,0l-1.1-0.1h-0.3l-0.3-0.1l-1,0c0,0-0.1,0-0.2,0h-2.1l-0.5,0h-0.3l-0.3,0.1l-2.6,0.2l-5.3,1.1h-0.2l-0.1,0
							l-1,0.3l-0.3,0l-2.7,0.9l-7,3.6l-0.2,0.1l-0.4,0.3l-2.8,2.1c-0.3,0.3-0.5,0.4-0.6,0.5l-4.7,4.9c-0.2,0.2-0.3,0.4-0.4,0.5
							l-4.7,7.3c-0.1,0.1-0.1,0.2,0.1,0.2h0.1l2.4-2.8c0.9-1,1.9-2,3-3.1l0.4-0.4l1-0.9c0-0.1,0.1-0.1,0.3-0.2l0.3-0.3l2.1-1.8
							c1.8-1.4,3.6-2.5,5.3-3.5l4.9-2.4l0.2,0l0.9-0.4l0.2-0.1l1.1-0.4l3.6-0.9l0.1-0.1h0.1l2.6-0.5c1.3-0.2,2.5-0.4,3.8-0.4
							l3.8-0.1c-0.2,0-0.2-0.1-0.1-0.1h0l0.1,0.1l1.3,0l0.2,0.1l0.9,0.1h0.2l3.6,0.6h0.2l7.1,1.9l0.4,0.2l0.9,0.3
							c1,0.4,2.1,0.9,3.3,1.5l1.2,0.6l0.1,0.1l0.2,0.1l7.8,5.4l2.5,2.3l5.8,6.3h0.2v-0.1l-1.9-3.3l-0.3-0.4l-0.1-0.2l-2.5-3.4
							c-0.1-0.1-0.2-0.3-0.4-0.5l-0.4-0.6l-0.3-0.3l-0.2-0.3l-4.7-4.7l-0.3-0.3l-0.5-0.4l-4.3-3l-0.2-0.1l-0.2-0.1l-0.8-0.5
							L3028.2-464.4z"/>
					</g>
				</g>
			</g>
		</g>
		<g id="Layer_3_17_" transform="matrix( -1, 0, 0, 1, -57.75,19.65) ">
			<g>
				<g>
					<g>
						<path style="fill:#ECAA92;" d="M3024.1-395.4l0.3-0.2l0.8-0.5l0.1-0.1l-0.1,0l-2.4,0.1l-0.2,0.1h-0.3l-10.9,1.1l-2,0.1l-0.4,0
							h-2.8l-0.4,0h-1.2l-0.8-0.1c-0.4,0-0.6,0-0.8,0l-0.7-0.1l-0.2,0h-0.2l-0.4-0.1c-0.2,0-1.1-0.2-2.8-0.4l-0.5-0.1h0l-0.1,0
							l-0.6-0.2h-0.2l-0.4-0.1l-0.3,0l-2.8-0.9l-0.2-0.1l-0.2,0l-2.2-0.9c-0.1-0.1-0.1-0.1-0.1,0v0.1l1.6,1.8l0.2,0.1l0.6,0.5
							l1.9,1.4l0.2,0l0.1,0.1l0.3,0.1l0.4,0.3l0.2,0.1l0.8,0.4h0l0.6,0.3c0.9,0.4,1.9,0.8,3,1l0.8,0.2c0.4,0.1,0.6,0.1,0.8,0.1
							l1.7,0.3h0.2l0.2,0l3.1,0.1c1.5-0.1,2.7-0.1,3.4-0.3c0.7-0.1,1.3-0.1,1.6-0.3l1.6-0.3c1.3-0.3,2.3-0.6,2.9-0.8L3024.1-395.4z"
							/>
					</g>
				</g>
			</g>
		</g>
		<g id="Layer_1_103_" transform="matrix( -1, 0, 0, 1, -57.75,19.65) ">
			<g>
				<g>
					<g>
						<path style="fill:#270F0B;" d="M3031.8-464.1l-0.1,0.2l-0.2,0.3l-0.1,0.2l-0.1,0.2l-0.1,0.3l-0.1,0.1l-0.1,0.1l-0.3,0.8v0.1
							l-0.1,0.1l-0.1,0.1v0.1c0,0.1,0,0.1,0.1,0.1h0l0.1-0.1l0.1,0l0.1,0l0.1-0.1l0.8-0.5l0.1-0.1l0.3-0.2l1.4-1.4l1.1-1.4l0.1-0.1
							l0.1-0.2l0.4-0.5l0.1-0.2l0.2-0.3l0.1-0.2l0.1-0.1l0.1-0.3l0.1-0.1l0.1-0.2l0.3-0.7v-0.1l0-0.1l0.1-0.1v-0.1
							c0-0.1,0-0.1-0.1-0.1h-0.1l-0.1,0.1l-0.1,0l-0.1,0l-0.1,0.1l-0.8,0.5l-0.1,0.1l-0.3,0.2l-2,2l-0.5,0.7l-0.1,0.1l-0.1,0.2
							L3031.8-464.1z"/>
					</g>
				</g>
			</g>
			<g>
				<g>
					<g>
						<path style="fill:#270F0B;" d="M3013.2-475.6l-0.3,0.9l-0.1,0.1l-0.4,1.5l-0.1,0.1v0.1l-0.2,1v0.1l-0.1,0.1v0.3l-0.1,0.3v0.3
							l-0.1,0.5v0.2l0,0.1v1.6l0,0.1v0.4l0.1,0.5v0.2l0.1,0.2l0.1,0.1l0.1,0.1l0.2-0.2l0.1-0.1l0.5-1l0.1-0.1l0.1-0.2l0.3-1.2
							l0.1-0.1l0.4-1.5l0.1-0.1v-0.1l0.2-1v-0.1l0.1-0.1v-0.3l0.1-0.3v-0.3l0.1-0.5v-0.2l0.1-0.1v-1.6l-0.1-0.1v-0.4l-0.1-0.5v-0.2
							l-0.1-0.2l0-0.1l-0.1-0.1l-0.1,0.1l-0.1,0.1l-0.5,1l-0.1,0.4L3013.2-475.6z"/>
					</g>
				</g>
			</g>
			<g>
				<g>
					<g>
						<path style="fill:#270F0B;" d="M2990.9-472.4l-0.1-0.2l-0.4-0.6l-0.3-0.3l-0.4-0.5l-0.1-0.1l-0.1,0l-0.2-0.2
							c0-0.1,0-0.1-0.1,0v0.6l0.1,0.9l0,0.2v0.2l0.3,1.3l0.1,0.1l0.3,1l0.2,0.5l0.1,0.1l0.1,0.1l1.1,2.5l0.1,0.1l0,0.1l0.4,0.5
							l0.1,0.2l0.4,0.6l0.3,0.3l0.3,0.5l0.1,0.1l0.1,0.1l0.2,0.2c0,0.1,0.1,0.1,0.1,0v-0.5l-0.1-1.1v-0.2l-0.3-1.3l-0.1-0.1l-0.3-1
							l-0.2-0.5l0-0.1l-0.1-0.1l-0.7-1.6l-0.2-0.3l-0.3-0.6l-0.1-0.1l-0.1-0.1L2990.9-472.4z"/>
					</g>
				</g>
			</g>
		</g>
		<g id="Layer_2_27_" transform="matrix( -1, 0, 0, 1, -57.75,19.65) ">
			<g id="Layer_1_104_" transform="matrix( 1, 0, 0, 1, 2.55,-45.65) ">
				<g>
					<g>
						<g>
							<path style="fill:#431E17;" d="M3014.6-455.4l5.2,1.6l0.2,0.1l8,3.3c2.3,1,4.3,1.9,6.1,2.9l9.3,5.1l0.6,0.3l6.6,3.8
								c0,0,0.1,0,0.1-0.1v-0.1l-3.6-4.2l-6.5-6.3l-8.2-5.9l-0.4-0.2l-1.2-0.8c-1.2-0.7-2.3-1.3-3.3-1.8l-0.4-0.3l-3.1-1.5
								c-2.6-1.1-5.1-2-7.6-2.6l-6.4-1.4l-7.4-0.4c-0.5,0-1.1,0-1.9,0.1c-2.4,0.1-4.8,0.5-7.3,1.1l-1.4,0.4l-0.2,0.1l-5.9,2.1
								l-5,2.8l-0.4,0.3l-0.4,0.3l-3.9,3.1l-0.1,0.2h0.1l4.7-1.5l0.5-0.1c0.9-0.3,1.6-0.4,2.1-0.5l1.8-0.5h0.1l0.2,0l0.3-0.1
								l1.3-0.3l5.7-0.9h0.2l0.2,0h0.4c0.2,0,0.5-0.1,0.8-0.1c2.1-0.2,4.2-0.3,6.5-0.1c1.5,0.1,2.7,0.1,3.4,0.3h0.4l3.1,0.5h0.2
								l0.7,0.1l0.4,0l2.2,0.5C3012.6-455.9,3013.7-455.6,3014.6-455.4z"/>
						</g>
					</g>
				</g>
			</g>
		</g>
	</g>
	<g id="___4_" transform="matrix( 0.9699859619140625, 0, 0, 0.9699859619140625, -21.4,-614.8) ">
		<g id="Layer_1_105_" transform="matrix( 1, 0, 0, 1, 19.65,124) ">
			<g>
				<g>
					<g>
						<path style="fill:#2E0A0A;" d="M-3061.2-459.3l0.1,0.3l0.2,0.4l2.1,3.5l0.2,0.3l0.5,0.8l2.8,3.4c0.6,0.7,1.4,1.5,2.4,2.5
							l2.1,1.9l4.3,3.1l8.7,4.3l9.4,2.6c1.1,0.2,2.9,0.5,5.2,0.8c3.7,0.5,7.3,0.6,10.7,0.5h1l7.9-0.7h0.2l0.2-0.1l1.7-0.3h0.1l0.2,0
							l7-1.7c0.6-0.1,1.4-0.4,2.5-0.8l6.3-2.6l3.6-2l6.9-4.9l0.4-0.3l0.2-0.2l0.2-0.1l0.6-0.5l0.2-0.1l0.7-0.6
							c1.1-1.2,1.9-2,2.3-2.6l3.6-5.7l1.4-3.5c0.1-0.1,0.1-0.1,0-0.1c-0.1-0.1-0.1,0-0.1,0.1l-0.2,0.3l-2.5,3.6l-3.7,3.9
							c-0.7,0.6-1.5,1.3-2.5,2.1l-0.9,0.6l-0.2,0.1c-0.1,0.1-0.3,0.2-0.4,0.3l-0.1,0.1l-0.2,0.1l-6,3.5l-0.5,0.2l-1,0.5l-0.3,0.1
							l-0.3,0.2l-3,1.3l-0.3,0.1l-3.4,1.3l-0.3,0l-0.3,0.1l-4.8,1.4l-5.7,1l-0.2,0.1h-0.1l-1.5,0.2h-0.2l0,0.1h-0.4l-3.3,0.4h-0.3
							l-0.3,0l-1.3,0l-0.4,0.1l-2.8,0.1c-3,0.1-6.3,0-10-0.3l-7.6-1.1l-0.3-0.1l-2.9-0.6l-0.3-0.1l-0.3-0.1l-1.2-0.3l-0.3-0.1h-0.1
							l-0.1,0l-0.8-0.3l-0.3-0.1l-7.8-3l-0.2-0.1l-6.5-3.9c-0.6-0.4-1.5-1.1-2.6-2l-7.1-7.3h-0.1V-459.3z"/>
					</g>
				</g>
			</g>
		</g>
	</g>
	<g id="Layer_31" transform="matrix( 0.9699859619140625, 0, 0, 0.9699859619140625, -21.4,-614.8) ">
	</g>
</g>
</svg>
