<?xml version="1.0" encoding="utf-8"?>
<!-- Generator: Adobe Illustrator 25.0.1, SVG Export Plug-In . SVG Version: 6.00 Build 0)  -->
<svg version="1.1" id="레이어_1" xmlns="http://www.w3.org/2000/svg" xmlns:xlink="http://www.w3.org/1999/xlink" x="0px"
	 y="0px" width="291px" height="748.5px" viewBox="0 0 291 748.5" style="enable-background:new 0 0 291 748.5;"
	 xml:space="preserve">
<g id="_____" transform="matrix( 0.544921875, 0, 0, 0.544921875, 181.8,710.5) ">
	<g id="Layer_1_106_" transform="matrix( 1, 0, 0, 1, -3.6,-408) ">
		<g>
			<g>
				<g>
					<path style="fill:#E28F70;" d="M-33.5-443.2l-15.8-1.4l-15.8,1.4l-3,26c12.9,3.6,25.4,3.6,37.5,0L-33.5-443.2z"/>
					<path style="fill:#FFD4B8;" d="M1.6-392.2c0.6-0.5,1.2-1,1.8-1.5l-32.9-14.2l-1.1-9.3c-12.1,3.6-24.6,3.6-37.5,0l-1.1,9.3
						l-32.9,14.2c0.6,0.5,1.2,1,1.8,1.5L-80-318l74.5,0.1L1.6-392.2z"/>
				</g>
			</g>
		</g>
	</g>
</g>
<g id="_______copy_2" transform="matrix( 0.544921875, 0, 0, 0.544921875, 181.8,710.5) ">
	<g id="Layer_3_18_" transform="matrix( -1, 0, 0, 1, -74.5,321.9) ">
		<g>
			<g>
				<g>
					<path style="fill:#FFFFFF;" d="M32.8-365.2l-33.5-4c0.9,45.6,0.5,77.9-1.2,96.7l36.2-5.7l36.9,10.8
						c-0.5-20.1-12.9-30-37.1-29.6L32.8-365.2z"/>
				</g>
			</g>
		</g>
	</g>
	<g id="Layer_2_28_" transform="matrix( -1, 0, 0, 1, -74.5,321.9) ">
		<g>
			<g>
				<g>
					<path style="fill:#0C3C72;" d="M-11.4-300.2l59.5,1.3l28.5-486.7l-96.8,0.8L-11.4-300.2z"/>
				</g>
			</g>
		</g>
	</g>
	<g id="Layer_1_107_" transform="matrix( -1, 0, 0, 1, -74.5,321.9) ">
		<g>
			<g>
				<g>
					<path style="fill:#FFFFFF;" d="M88.1-254.6c0-0.5,0.1-1.1,0.1-1.7c0-3.9-0.4-7.6-1.2-11.2h-97.1c-0.8,3.6-1.2,7.3-1.2,11.2
						c0,0.6,0,1.2,0,1.7H88.1z"/>
					<path style="fill:#C4802E;" d="M87-267.5c-2-8.9-6.5-16.8-13.4-23.6c-9.7-9.6-21.5-14.4-35.2-14.4S13-300.7,3.2-291.1
						c-6.9,6.9-11.4,14.8-13.3,23.6H87z"/>
				</g>
			</g>
		</g>
	</g>
</g>
<g id="_______copy_2_1_" transform="matrix( 0.544921875, 0, 0, 0.544921875, 181.8,710.5) ">
	<g id="Layer_3_19_" transform="matrix( 1, 0, 0, 1, 71.45,321.9) ">
		<g>
			<g>
				<g>
					<path style="fill:#FFFFFF;" d="M-65.7-365.2l-33.5-4c0.9,45.6,0.5,77.9-1.2,96.7l36.2-5.7l36.9,10.8
						c-0.5-20.1-12.9-30-37.1-29.6L-65.7-365.2z"/>
				</g>
			</g>
		</g>
	</g>
	<g id="Layer_2_29_" transform="matrix( 1, 0, 0, 1, 71.45,321.9) ">
		<g>
			<g>
				<g>
					<path style="fill:#0C3C72;" d="M-110-300.2l59.5,1.3l28.5-486.7l-96.8,0.8L-110-300.2z"/>
				</g>
			</g>
		</g>
	</g>
	<g id="Layer_1_108_" transform="matrix( 1, 0, 0, 1, 71.45,321.9) ">
		<g>
			<g>
				<g>
					<path style="fill:#FFFFFF;" d="M-10.4-254.6c0-0.5,0.1-1.1,0.1-1.7c0-3.9-0.4-7.6-1.2-11.2h-97.1c-0.8,3.6-1.2,7.3-1.2,11.2
						c0,0.6,0,1.2,0,1.7H-10.4z"/>
					<path style="fill:#C4802E;" d="M-11.5-267.5c-2-8.9-6.5-16.8-13.4-23.6c-9.7-9.6-21.5-14.4-35.2-14.4s-25.5,4.8-35.2,14.4
						c-6.9,6.9-11.4,14.8-13.3,23.6H-11.5z"/>
				</g>
			</g>
		</g>
	</g>
</g>
<g id="Layer_6_5_" transform="matrix( 0.544921875, 0, 0, 0.544921875, 181.8,710.5) ">
	<g id="Layer_1_109_" transform="matrix( 1, 0, 0, 1, -0.75,-22.4) ">
		<g>
			<g>
				<g>
					<path style="fill:#0C3C72;" d="M-77.1-372.9c19.3-1.4,37.8-1.4,55.6,0v-74.3h-55.6V-372.9z"/>
				</g>
			</g>
			<g>
				
					<path style="fill:none;stroke:#001F43;stroke-width:1.0898;stroke-linecap:round;stroke-linejoin:round;stroke-miterlimit:2.1797;" d="
					M-21.5-372.9c-17.8-1.4-36.3-1.4-55.6,0"/>
			</g>
		</g>
	</g>
</g>
<g id="______copy_2" transform="matrix( 0.544921875, 0, 0, 0.544921875, 181.8,710.5) ">
	<g id="Layer_1_110_" transform="matrix( 1, 0, 0, 1, -154,-198.2) ">
		<g>
			<g>
				<g>
					<path style="fill:#FFD4B8;" d="M-15.1-313.1c-1.9,0.5-4,1-6.3,1.6c-12.9,3.7-19.3,6.8-19.3,9.3c0,1.3,3.2,5.3,9.7,12
						c0.1,0.2,2.6,2.7,7.5,7.5c-0.1,1-0.2,1.7-0.2,2.1c-0.1,3.5,0.6,6.7,2.1,9.6c0.5,1,1,1.9,1.4,2.8c0.9,2,1.6,3.5,1.9,4.5
						c1,2.9,1.9,5.3,2.6,7c-0.2,0.1-0.3,0.2-0.5,0.4c-3,2.6-6.5,4.6-10.6,6.1c0.9,1.3,1.6,2.1,1.9,2.6c-0.4-0.5-1-1.3-1.9-2.6
						c-0.2-0.2-0.3-0.4-0.5-0.6c-0.9-1.4-1.4-2.6-1.4-3.6c0-0.8,0.9-2.4,2.7-4.8c1.8-2.3,2.7-4.6,2.7-6.7c0-0.4,0-0.8-0.1-1.3
						c-0.2-0.7-0.5-1.4-0.9-2.1c-0.7-1-1.3-1.5-1.9-1.5c-0.7,0-2.6,1.4-5.7,4.2c-1.3,1.2-2.9,2.6-4.6,4c-1.1,1-1.6,2.2-1.6,3.5
						c0,1.4,0.3,2.8,0.8,4.3c0.7,1.9,2.3,4.7,4.6,8.5c1.8,3.5,3,5.6,3.7,6.3c0.9,0.9,3,1.4,6.2,1.4c2.2,0,3.7-0.1,4.6-0.4
						c1-0.3,2.2-0.8,3.6-1.5c2.1-1.2,4.5-2.8,7.4-4.8c-2.9,2-5.3,3.6-7.4,4.8c1.6,0.4,3,0.7,4.1,0.8c0.6,0.1,1.5,0.2,2.8,0.2
						c4.1,0,7.7-2,11-5.9c1-1.2,2.1-2.7,3.3-4.6c1-0.7,2.2-1.9,3.7-3.4c3.3-3.4,4.9-6.5,4.9-9.4c0-1.7-1-5.1-3.1-10.2
						c-1.1-2.8-9.7-16.3-25.6-40.6c-0.3-0.5-0.7-1-1-1.5L-15.1-313.1z"/>
					<path style="fill:#E0A077;" d="M-23.5-267.1c0.1,0.4,0.1,0.9,0.1,1.3c0,2.1-0.9,4.4-2.7,6.7c-1.8,2.4-2.7,4-2.7,4.8
						c0,0.9,0.5,2.1,1.4,3.6c0.1,0.2,0.3,0.4,0.5,0.6c4.1-1.5,7.7-3.6,10.6-6.1c0.1-0.1,0.3-0.3,0.5-0.4c-0.7-1.8-1.6-4.1-2.6-7
						c-0.3-1-1-2.5-1.9-4.5C-21.1-268-22.2-267.6-23.5-267.1z"/>
				</g>
			</g>
			<g>
				
					<path style="fill:none;stroke:#FFB79C;stroke-width:1.0898;stroke-linecap:round;stroke-linejoin:round;stroke-miterlimit:2.1797;" d="
					M-26.9-250.2c0.9,1.3,1.6,2.1,1.9,2.6 M-7.2-245.3c-2.9,2-5.3,3.6-7.4,4.8"/>
			</g>
		</g>
		<g>
			<g>
				<g>
					<path style="fill:#F0D680;" d="M10-521.4l-17.9-60.3c-5,3.6-9.5,7.6-13.5,12c-11,13.9-20.9,28.5-29.8,43.8c-1.2,2-2.4,4-3.7,6
						c-3.3,5.1-6.7,10.4-10.1,15.8c-12.4,19.5-24,39.6-34.7,60.2c-4.6,8.7-8.8,17.5-12.8,26.4c-0.8,2.3-1.2,4.1-1.3,5.4
						c-0.3,6.6,4.1,16.5,13.1,29.6c4.4,5.7,8.6,11.5,12.8,17.5c0.4,0.6,0.9,1.3,1.3,1.9c0.2,0.3,0.3,0.5,0.5,0.8
						c0.4,0.6,19.5,28,57.3,82.2c14.3-3.6,25.7-11.5,34.2-23.9c-17.2-28.4-27-44.4-29.3-48.1c-2.3-3.7-4.9-7.8-7.9-12.3
						c-0.7-1.1-1.5-2.2-2.2-3.3c-0.1-0.1-0.1-0.1-0.2-0.3c-2.8-4.1-5.5-8.1-8.3-12.1c-6.4-9.1-13.1-18.6-20.2-28.6
						c-0.2-0.1-0.5-0.2-0.8-0.3c-0.4-0.1-0.7-0.3-1-0.4c-0.7-0.2-1.3-0.3-1.7-0.3c-1.3-0.1-2.2-0.1-2.8,0
						c-6.5,0.3-10.5,0.5-11.8,0.6c1.4-0.1,5.3-0.3,11.8-0.6c0.5-0.1,1.5-0.1,2.8,0c0.4,0,1,0.1,1.7,0.3c0.1-0.2,0.3-0.4,0.4-0.6
						c0.8-1.3,3.6-5.4,8.5-12.1c4.9-6.8,12.4-17.8,22.5-33.1c6.7-10.3,18.4-23.2,35-38.8L10-521.4z"/>
				</g>
			</g>
			<g>
				
					<path style="fill:none;stroke:#AC923C;stroke-width:1.0898;stroke-linecap:round;stroke-linejoin:round;stroke-miterlimit:2.1797;" d="
					M-64.5-409.4c-0.7-0.2-1.3-0.3-1.7-0.3c-1.3-0.1-2.2-0.1-2.8,0c-6.5,0.3-10.5,0.5-11.8,0.6"/>
			</g>
		</g>
	</g>
</g>
<g id="______copy_2_1_" transform="matrix( 0.544921875, 0, 0, 0.544921875, 181.8,710.5) ">
	<g id="Layer_1_111_" transform="matrix( -1, 0, 0, 1, 153.4,-198.2) ">
		<g>
			<g>
				<g>
					<path style="fill:#FFD4B8;" d="M83.4-313.1c-1.9,0.5-4,1-6.3,1.6c-12.9,3.7-19.3,6.8-19.3,9.3c0,1.3,3.2,5.3,9.7,12
						c0.1,0.2,2.6,2.7,7.5,7.5c-0.1,1-0.2,1.7-0.2,2.1c-0.1,3.5,0.6,6.7,2.1,9.6c0.5,1,1,1.9,1.4,2.8c0.9,2,1.6,3.5,1.9,4.5
						c1,2.9,1.9,5.3,2.6,7c-0.2,0.1-0.3,0.2-0.4,0.4c-3,2.6-6.5,4.6-10.6,6.1c0.9,1.3,1.6,2.1,1.9,2.6c-0.4-0.5-1-1.3-1.9-2.6
						c-0.2-0.2-0.3-0.4-0.5-0.6c-0.9-1.4-1.4-2.6-1.4-3.6c0-0.8,0.9-2.4,2.7-4.8c1.8-2.3,2.7-4.6,2.7-6.7c0-0.4,0-0.8-0.1-1.3
						c-0.2-0.7-0.5-1.4-0.9-2.1c-0.7-1-1.3-1.5-1.9-1.5c-0.7,0-2.6,1.4-5.7,4.2c-1.3,1.2-2.9,2.6-4.6,4c-1.1,1-1.6,2.2-1.6,3.5
						c0,1.4,0.3,2.8,0.8,4.3c0.7,1.9,2.3,4.7,4.6,8.5c1.8,3.5,3,5.6,3.7,6.3c0.9,0.9,3,1.4,6.3,1.4c2.2,0,3.7-0.1,4.6-0.4
						c1-0.3,2.2-0.8,3.6-1.5c2.1-1.2,4.5-2.8,7.4-4.8c-2.9,2-5.3,3.6-7.4,4.8c1.6,0.4,3,0.7,4.2,0.8c0.6,0.1,1.5,0.2,2.8,0.2
						c4.1,0,7.7-2,11-5.9c1-1.2,2.1-2.7,3.3-4.6c1-0.7,2.3-1.9,3.7-3.4c3.3-3.4,4.9-6.5,4.9-9.4c0-1.7-1-5.1-3.1-10.2
						c-1.1-2.8-9.7-16.3-25.6-40.6c-0.3-0.5-0.7-1-1-1.5L83.4-313.1z"/>
					<path style="fill:#E0A077;" d="M75.1-267.1c0.1,0.4,0.1,0.9,0.1,1.3c0,2.1-0.9,4.4-2.7,6.7c-1.8,2.4-2.7,4-2.7,4.8
						c0,0.9,0.5,2.1,1.4,3.6c0.1,0.2,0.3,0.4,0.5,0.6c4.1-1.5,7.7-3.6,10.6-6.1c0.1-0.1,0.3-0.3,0.4-0.4c-0.7-1.8-1.6-4.1-2.6-7
						c-0.3-1-1-2.5-1.9-4.5C77.4-268,76.4-267.6,75.1-267.1z"/>
				</g>
			</g>
			<g>
				
					<path style="fill:none;stroke:#FFB79C;stroke-width:1.0898;stroke-linecap:round;stroke-linejoin:round;stroke-miterlimit:2.1797;" d="
					M71.6-250.2c0.9,1.3,1.6,2.1,1.9,2.6 M91.4-245.3c-2.9,2-5.3,3.6-7.4,4.8"/>
			</g>
		</g>
		<g>
			<g>
				<g>
					<path style="fill:#F0D680;" d="M108.5-521.4l-17.9-60.3c-5,3.6-9.5,7.6-13.5,12c-11,13.9-20.9,28.5-29.8,43.8
						c-1.2,2-2.4,4-3.7,6c-3.3,5.1-6.7,10.4-10.1,15.8C21-484.7,9.4-464.6-1.4-444c-4.6,8.7-8.8,17.5-12.7,26.4
						c-0.8,2.3-1.2,4.1-1.2,5.4c-0.3,6.6,4.1,16.5,13.1,29.6c4.4,5.7,8.6,11.5,12.7,17.5c0.4,0.6,0.9,1.3,1.3,1.9
						c0.2,0.3,0.3,0.5,0.5,0.8c0.4,0.6,19.5,28,57.3,82.2c14.3-3.6,25.7-11.5,34.2-23.9c-17.2-28.4-27-44.4-29.3-48.1
						c-2.3-3.7-4.9-7.8-7.9-12.3c-0.7-1.1-1.5-2.2-2.2-3.3c-0.1-0.1-0.1-0.1-0.2-0.3c-2.8-4.1-5.5-8.1-8.2-12.1
						c-6.4-9.1-13.1-18.6-20.2-28.6c-0.2-0.1-0.5-0.2-0.8-0.3c-0.4-0.1-0.7-0.3-1-0.4c-0.7-0.2-1.3-0.3-1.7-0.3
						c-1.3-0.1-2.2-0.1-2.8,0c-6.5,0.3-10.5,0.5-11.8,0.6c1.4-0.1,5.3-0.3,11.8-0.6c0.5-0.1,1.5-0.1,2.8,0c0.4,0,1,0.1,1.7,0.3
						c0.1-0.2,0.3-0.4,0.4-0.6c0.8-1.3,3.6-5.4,8.5-12.1C48-429,55.5-440,65.6-455.3c6.7-10.3,18.4-23.2,35-38.8L108.5-521.4z"/>
				</g>
			</g>
			<g>
				
					<path style="fill:none;stroke:#AC923C;stroke-width:1.0898;stroke-linecap:round;stroke-linejoin:round;stroke-miterlimit:2.1797;" d="
					M34.1-409.4c-0.7-0.2-1.3-0.3-1.7-0.3c-1.3-0.1-2.2-0.1-2.8,0c-6.5,0.3-10.5,0.5-11.8,0.6"/>
			</g>
		</g>
	</g>
</g>
<g id="______copy_2_2_" transform="matrix( 0.544921875, 0, 0, 0.544921875, 181.8,710.5) ">
	<g id="Layer_6_6_" transform="matrix( 1, 0, 0, 1, -1,-223.8) ">
		<g>
			<g>
				<g>
					<path style="fill:#D2BC73;" d="M54.7-228.8l-4.5-30.5l-201.9,4l-3.4,31.5c1,5.5,4.3,7.8,9.9,7.1c62.3,2.8,126.8,2.5,193.4-0.8
						C52-217.6,54.1-221.4,54.7-228.8z"/>
				</g>
			</g>
		</g>
	</g>
	<g id="__8_" transform="matrix( 1, 0, 0, 1, -1,-223.8) ">
	</g>
	<g id="Layer_3_20_" transform="matrix( 1, 0, 0, 1, -1,-223.8) ">
		<g id="Layer_1_112_" transform="matrix( 1, 0, 0, 1, -2.5,-184.7) ">
			<g>
				<g>
					<g>
						<path style="fill:#E28F70;" d="M-33.5-443.2l-15.8-1.4l-15.8,1.4l-3,26c12.9,3.6,25.4,3.6,37.5,0L-33.5-443.2z"/>
						<path style="fill:#FFD4B8;" d="M1.6-392.2c0.6-0.5,1.2-1,1.8-1.5l-32.9-14.2l-1.1-9.3c-12.1,3.6-24.6,3.6-37.5,0l-1.1,9.3
							l-32.9,14.2c0.6,0.5,1.2,1,1.8,1.5L-80-318l74.5,0.1L1.6-392.2z"/>
					</g>
				</g>
			</g>
		</g>
	</g>
	<g id="Layer_1_113_" transform="matrix( 1, 0, 0, 1, -1,-223.8) ">
		<g>
			<g>
				<g>
					<path style="fill:#FFECAF;" d="M64.3-303.2c-0.3-6.1-0.7-12.6-1.3-19.5h-228.7c-0.5,7-1,13.5-1.4,19.5H64.3 M-45.4-226.4
						c4.2-0.1,8.4-0.3,12.6-0.4c14.5-0.6,31.9-1.8,52.4-3.4c22,1,35.8-5.1,41.4-18.4h-225.9c6.1,13.5,20.9,19.9,44.4,19.3
						c20.5,1.1,37.9,1.9,52.4,2.6v0.3c4.7,0.1,9.3,0.2,13.9,0.1H-45.4 M56.9-377.1c-1.1-7.8-2.2-16-3.5-24.5h-211.5
						c-0.9,8.5-1.8,16.6-2.6,24.5H56.9 M58.6-456l3.3-29h-225.7l2.1,29H58.6 M68.3-539.5l1.5-12.5c-18.3-13.2-37.6-22.1-57.8-26.8
						c-23.6,12.1-44.3,18.8-62.3,19.9c-18.1-1.1-39-7.7-62.6-19.9c-20.2,4.7-38.7,14.5-55.4,29.6l0.7,9.8H68.3z"/>
					<path style="fill:#F0D680;" d="M64-264.3c1-10.1,1.1-23,0.3-38.8h-231.4c-0.8,13.7-1.1,25-0.9,33.9c-0.5,8.1,0.6,14.9,3.1,20.6
						H61C62.9-253.2,63.9-258.4,64-264.3 M63-322.7c-1.3-15.9-3.4-34.1-6.1-54.4h-217.7c-2.1,20.5-3.8,38.7-4.9,54.4H63 M53.4-401.6
						c-0.2-1.4-0.4-2.8-0.6-4.3l5.8-50.2h-220.2l3.7,51.3c-0.1,1.1-0.2,2.1-0.3,3.2H53.4 M62-485l6.3-54.5h-236l4,54.5H62z"/>
					<path style="fill:#3BB8AD;" d="M-45.4-226.4c4.2,0,8.4,0,12.6-0.1v-0.3C-37-226.6-41.2-226.5-45.4-226.4z"/>
				</g>
			</g>
		</g>
	</g>
	<g id="Layer_5_15_" transform="matrix( 1, 0, 0, 1, -1,-223.8) ">
		<g>
			<g>
				<g>
					<path style="fill:#FFFFFF;" d="M-45.2-518.1c1.7-1.6,2.5-3.7,2.5-6.1c0-2.4-0.8-4.4-2.5-6c-1.6-1.6-3.6-2.5-6-2.5
						c-2.4,0-4.4,0.8-6,2.5c-1.6,1.7-2.5,3.7-2.5,6c0,2.4,0.8,4.4,2.5,6.1c1.7,1.7,3.7,2.5,6,2.5C-48.8-515.6-46.8-516.4-45.2-518.1
						z"/>
				</g>
			</g>
		</g>
		<g>
			<g>
				<g>
					<path style="fill:#FFFFFF;" d="M-45.2-485.8c1.7-1.6,2.5-3.7,2.5-6.1c0-2.4-0.8-4.4-2.5-6c-1.6-1.6-3.6-2.5-6-2.5
						c-2.4,0-4.4,0.8-6,2.5c-1.6,1.7-2.5,3.7-2.5,6c0,2.4,0.8,4.4,2.5,6.1c1.7,1.7,3.7,2.5,6,2.5C-48.8-483.3-46.8-484.1-45.2-485.8
						z"/>
				</g>
			</g>
		</g>
	</g>
	<g id="Layer_2_30_" transform="matrix( 1, 0, 0, 1, -1,-223.8) ">
		<g>
			<g>
				<g>
					<path style="fill:#FFF7DE;" d="M-52-558.9c-19.9-8.7-30.5-18.9-31.8-30.6c-17.7,3.4-32.8,8.6-45.2,15.6
						c11.7,23.5,26.2,38.3,43.5,44.5C-74.4-527.5-63.3-537.3-52-558.9 M25-575.6c-13.6-6.5-27.8-10.9-42.4-13.2
						c-1.5,11.3-12.9,21.2-34.2,29.8c10.8,20.4,21.5,30.4,31.9,30.2C-3.5-532.3,11.4-547.9,25-575.6z"/>
				</g>
			</g>
		</g>
	</g>
</g>
<g id="_______9_" transform="matrix( 0.544921875, 0, 0, 0.544921875, 181.8,710.5) ">
	<g id="Symbol_15" transform="matrix( 1, 0, 0, 1, -21.75,-616.95) ">
		<g id="Layer_1_114_" transform="matrix( 1, 0, 0, 1, 4.4,-87.8) ">
			<g>
				<g>
					<g>
						<path style="fill:#311411;" d="M47.1-564.8c-3.5-3.3-6.9-6.1-10.3-8.5c-16.3-11.2-36-16.8-59-16.8c-10.7,0-22.3,1-34.7,3
							c-2.6,0.5-5.2,1-7.8,1.6c-15,2.7-29.7,6.6-43.9,11.8c-7.5,2.7-15,5.1-22.6,7c-20.8,5.7-41.8,7.1-63,4.2
							c-20-2.8-38.6-9.6-55.9-20.5c-7.4-4.7-15-9.3-22.8-13.8c-0.7,16.5,3.3,31.8,11.9,46.1c3.3,5.4,6.9,10.5,11,15.3
							c8,9.4,17.3,17.1,28.1,23.2c2.2,1.2,4.3,2.4,6.5,3.6c-14.9,9.1-30.6,16.5-47.3,22.1c-17,5.6-34.4,9.2-52.1,10.8l-0.2,0.6
							c12.1,9.5,25.7,16.1,40.9,19.7c11.9,2.9,24,4.9,36.3,6l-2.9,19.5c-2.6,10.4-6.8,18.9-12.6,25.4c-3.2,3.6-6.8,6.6-10.9,8.9
							c-2.1,1.2-4.1,2.2-6.3,3.2c2.7,0,8.5-1.3,17.4-3.8c4.5-1.3,7.9-2.3,10.3-3.1c-0.1,1-0.1,2.1-0.1,3.2c-0.4,7.6-0.6,14-0.6,19.1
							v1.8c0,24.4,1.9,42.9,5.8,55.6c1.5,4.9,3.7,10.5,6.6,16.8c1.7,3.6,4.5,9.6,8.6,18.1c1.3,2.8,3.6,6.1,7,9.9
							c0.1,0.2,0.3,0.3,0.4,0.5c-0.3,0.7-0.7,1.5-1.1,2.2c-1.8,3.8-2.6,7-2.6,9.6c0,3.6,0.7,6.3,2,8.2c1.3,1.9,3.6,3.4,6.8,4.5
							c2.6,0.9,7,1.9,13.1,2.9c8.3,1.4,15.2,2.6,20.7,3.6c12.1,2.2,21.3,4.7,27.6,7.5c5.2,3,9.1,5,11.5,6.2c4.1,2.1,10.1,3.5,18,4.4
							c10,1.1,25.7,1.6,47,1.6c36.7,0,69.6-1.6,98.7-4.8c3.1-0.3,6.1-0.7,9.1-1.1c18.3-1.8,36.3-4.8,54-9.2
							c23.2-5.7,42.2-17.8,56.8-36.2c14.4-18,24.4-38.2,29.9-60.7c3.2-12.3,6.4-27.7,9.7-46.3c8,4.1,14.7,6.1,20.2,6.1
							c2.9,0,5.4-0.4,7.4-1.3c1.7-0.6,2.8-1.4,3.4-2.4c-10.4-3.2-19-12.8-25.8-28.9c-0.1-0.1-0.1-0.3-0.2-0.4l-0.3-1.3
							c-2.6-8.8-5.2-17.5-7.7-26.3c-5.1-17.4-10.3-34.8-15.6-52.2c-5.6-18.3-15.9-33.3-31.1-45c-14.2-11-29.8-19.1-46.8-24.4
							C75.7-562.1,61.7-564.4,47.1-564.8z"/>
					</g>
				</g>
			</g>
		</g>
	</g>
	<g id="Symbol_12" transform="matrix( 1, 0, 0, 1, -21.75,-616.95) ">
		<g id="Layer_1_115_" transform="matrix( 1, 0, 0, 1, 183.6,83.3) ">
			<g>
				<g>
					<g>
						<path style="fill:#FFD4B8;" d="M-15.6-420.2c0-9.1-2.3-16.9-6.8-23.4c-5-7.2-11.8-10.9-20.2-10.9c-10.3,0-18.7,3.5-25.2,10.4
							c-5.6,6-10.7,15.5-15.1,28.5c0,0.5,0,1.1,0.1,1.7c0.5,7.8,1.4,14.7,2.8,20.5c4.4,18.5,13.3,27.8,26.7,27.8
							c4.9,0,9.7-1.7,14.4-5.1c4.4-3.2,8.4-7.6,12-13.2c3.5-5.4,6.2-11.3,8.2-17.6C-16.7-408.1-15.6-414.3-15.6-420.2z"/>
					</g>
				</g>
			</g>
			<g transform="matrix( 1, 0, 0, 1, -183.6,-83.3) ">
				<g>
					<g>
						<path style="fill:#FFB79C;" d="M136.7-353.4c-4.1-0.3-8,0.3-11.8,1.8c-4.8,1.9-8.9,4.8-12.3,8.6c-0.6,0.7-1.3,1.4-2.1,1.9
							c-3.7,2.6-5.5,6.1-5.3,10.5c0.2,5.1,1.1,10.1,2.7,14.9c1.8,5.1,5.2,8.7,10,10.8c5.1,2.1,10.2,2.2,15.4,0.5
							c5-1.7,8.7-4.8,11.1-9.4c2.5-4.7,4.3-9.6,5.2-14.8c0.9-5.2,0.4-10.3-1.6-15.3C146-349.3,142.2-352.5,136.7-353.4z"/>
					</g>
				</g>
			</g>
		</g>
	</g>
	<g id="Symbol_12_1_" transform="matrix( 1, 0, 0, 1, -21.75,-616.95) ">
		<g id="Layer_1_116_" transform="matrix( -1, 0, 0, 1, -152.6,83.3) ">
			<g>
				<g>
					<g>
						<path style="fill:#FFD4B8;" d="M82.9-420.2c0-9.1-2.3-16.9-6.8-23.4c-5-7.2-11.8-10.9-20.2-10.9c-10.3,0-18.7,3.5-25.2,10.4
							c-5.6,6-10.7,15.5-15.1,28.5c0,0.5,0,1.1,0.1,1.7c0.5,7.8,1.4,14.7,2.8,20.5c4.4,18.5,13.3,27.8,26.7,27.8
							c4.9,0,9.7-1.7,14.4-5.1c4.4-3.2,8.4-7.6,12-13.2c3.5-5.4,6.2-11.3,8.2-17.6C81.9-408.1,82.9-414.3,82.9-420.2z"/>
					</g>
				</g>
			</g>
			<g transform="matrix( 1, 0, 0, 1, -183.6,-83.3) ">
				<g>
					<g>
						<path style="fill:#FFB79C;" d="M235.3-353.4c-4.1-0.3-8,0.3-11.8,1.8c-4.8,1.9-8.9,4.8-12.3,8.6c-0.6,0.7-1.3,1.4-2.1,1.9
							c-3.7,2.6-5.5,6.1-5.4,10.5c0.2,5.1,1.1,10.1,2.7,14.9c1.8,5.1,5.2,8.7,10.1,10.8c5.1,2.1,10.2,2.2,15.4,0.5
							c5-1.7,8.7-4.8,11.1-9.4c2.5-4.7,4.3-9.6,5.2-14.8c0.9-5.2,0.4-10.3-1.6-15.3C244.6-349.3,240.8-352.5,235.3-353.4z"/>
					</g>
				</g>
			</g>
		</g>
	</g>
	<g id="Symbol_13" transform="matrix( 1, 0, 0, 1, -21.75,-616.95) ">
		<g id="Layer_1_117_" transform="matrix( 1, 0, 0, 1, -141.95,71.6) ">
			<g>
				<g>
					<g>
						<path style="fill:#311411;" d="M-31.9-416.2c0-7.6-0.3-16.5-0.9-26.8h-33.9c2.9,16.3,6.8,30.4,11.9,42.3
							c3.3,7.7,6.7,13.7,10.3,18c3,3.7,5.5,5.5,7.3,5.5c2.4,0,3.9-3.7,4.6-11.1C-32.1-393.2-31.9-402.5-31.9-416.2z"/>
					</g>
				</g>
			</g>
		</g>
	</g>
	<g id="Symbol_14" transform="matrix( 1, 0, 0, 1, -21.75,-616.95) ">
		<g id="Layer_1_118_" transform="matrix( 1, 0, 0, 1, 177.9,71.6) ">
			<g>
				<g>
					<g>
						<path style="fill:#311411;" d="M-43.7-400.7c5.1-11.9,9-26,11.9-42.3h-33.9c-0.6,10.3-0.9,19.2-0.9,26.8
							c0,13.7,0.3,23,0.8,27.9c0.7,7.4,2.2,11.1,4.6,11.1c1.8,0,4.3-1.8,7.3-5.5C-50.4-387.1-47-393.1-43.7-400.7z"/>
					</g>
				</g>
			</g>
		</g>
	</g>
	<g id="Layer_22" transform="matrix( 1, 0, 0, 1, -21.75,-616.95) ">
		<g id="Layer_1_119_" transform="matrix( 1, 0, 0, 1, 18.5,16.05) ">
			<g>
				<g>
					<g>
						<path style="fill:#FFD4B8;" d="M99.5-538.4c-39.8-28.5-88-46.2-144.7-53c-1.5,0.1-3,0.3-4.5,0.4
							c-56.9,4.9-106.8,23.5-149.8,55.7c-0.1,0.1-0.1,0.1-0.1,0.2c-8.6,18.1-13.4,38.7-14.4,62c-0.1,3.3-0.2,6.7-0.2,10.1
							c0,20.8,1.3,43.7,3.9,68.7c0.8,8,1.6,15.1,2.2,21.4c1.9,20.2,5.9,38.3,11.8,54.3c2.5,6.5,5.3,12.9,8.6,19.1
							c6.2,11.7,14.1,22.2,23.7,31.4c9.6,9.2,20.3,16.7,32.2,22.4c12.5,6.1,25.6,10.5,39.2,13.1c12.7,2.6,25.6,3.9,38.6,4.1
							c14.1,0.2,28.1-0.8,42-3.1c14-2.4,27.5-6.4,40.6-11.9c13-5.5,24.8-13,35.2-22.6c10.3-9.6,18.7-20.6,25.2-33.1
							c10.9-20.2,17.8-44.8,20.5-73.6c0.6-6.2,1.4-13.4,2.2-21.4c2.6-25,3.9-47.9,3.9-68.7C115.7-492,110.3-517.1,99.5-538.4z"/>
					</g>
				</g>
				<g>
					
						<path style="fill:none;stroke:#2E0A0A;stroke-width:1.0898;stroke-linecap:round;stroke-linejoin:round;stroke-miterlimit:2.1797;" d="
						M-198.1-538.4c-0.5,1-1,2-1.4,3"/>
				</g>
			</g>
		</g>
	</g>
	<g id="Symbol_11" transform="matrix( 1, 0, 0, 1, -21.75,-616.95) ">
		<g id="Layer_1_120_" transform="matrix( 1, 0, 0, 1, 20.25,82.15) ">
			<g>
				<g>
					<g>
						<path style="fill:#E5815C;" d="M-44.4-416.9l-2-0.6l-2.7-0.4c-0.9,0-1.6,0-2.1,0.1l-0.5,0.1l-1,0.2l-0.3,0.1l-0.5,0.1
							l-0.3,0.1l-0.3,0l-2.1,0.9l-1.6,1l-1.8,1.4l-1.7,1.8l-0.2,0.3l-0.3,0.3l-2,3.2l-0.8,1.7l-0.3,1l0,0.1h0.1l2.4-1.5l0.2-0.1
							l2.5-1.5l0.6-0.3l0.3-0.2l1.5-0.8l0.4-0.1l1.2-0.6l2.3-0.8l0.3,0l0.3-0.1l0.4,0l0.3-0.1h0.2l0.2-0.1l0.3,0h0.3l0.3,0h1.3
							c0.4,0,0.9,0,1.3,0.1l0.7,0.1l0.3,0.1l0.3,0.1l1,0.3l0.3,0.1l0.3,0.1l1.7,0.7l0.1,0l0.2,0.1l0.8,0.3l4.7,2.7l0.3,0.1l0.6,0.4
							l0.2,0.1l0.2,0.1l2.3,1.3l0.1-0.1v-0.1l-0.3-0.9l-0.1-0.3l-1.7-3.2c-0.1-0.1-0.2-0.3-0.4-0.5l-0.8-1.1l-1.5-1.8l-0.8-0.8
							l-0.2-0.1l-0.7-0.6l-0.2-0.2l-0.2-0.1L-41-415l-1.2-0.8L-44.4-416.9z"/>
					</g>
				</g>
			</g>
		</g>
	</g>
	<g id="___5_" transform="matrix( 1, 0, 0, 1, -21.75,-616.95) ">
		<g id="Layer_1_121_" transform="matrix( 1, 0, 0, 1, 20.95,122.1) ">
			<g>
				<g>
					<g>
						<path style="fill:#2E0A0A;" d="M-97.1-419.8l0.1,0.3l0.2,0.4l2.1,3.5l0.2,0.3l0.5,0.8l2.8,3.4c0.6,0.7,1.4,1.5,2.4,2.5
							l2.1,1.9l4.3,3.1l8.7,4.3l9.4,2.6c1.1,0.2,2.9,0.5,5.2,0.9c3.7,0.5,7.3,0.6,10.7,0.5h1l7.9-0.8h0.2l0.2-0.1l1.7-0.3h0.2l0.2,0
							l7-1.7c0.6-0.1,1.4-0.4,2.5-0.8l6.2-2.6l3.6-2l6.9-4.9l0.4-0.4l0.2-0.1l0.2-0.2l0.6-0.5l0.2-0.1l0.7-0.6
							c1.1-1.2,1.9-2,2.3-2.6l3.6-5.7l1.4-3.5c0.1-0.1,0.1-0.1,0-0.1c-0.1-0.1-0.1,0-0.1,0.1l-0.2,0.3l-2.5,3.6l-3.7,3.9
							c-0.7,0.6-1.5,1.3-2.5,2.1l-0.9,0.6l-0.2,0.1c-0.1,0.1-0.3,0.2-0.4,0.3l-0.1,0.1l-0.2,0.1l-6,3.5l-0.5,0.2l-1,0.5l-0.3,0.1
							l-0.3,0.1l-3,1.3l-0.3,0.1l-3.4,1.3l-0.3,0l-0.3,0.1l-4.8,1.4l-5.7,1l-0.2,0.1h-0.2l-1.5,0.2H-40l0,0.1h-0.4l-3.3,0.4H-44
							l-0.3,0l-1.3,0l-0.3,0.1l-2.8,0.1c-3,0.1-6.3,0-10-0.3l-7.5-1.1l-0.3-0.1l-2.9-0.6l-0.3-0.1l-0.3-0.1l-1.2-0.3l-0.3-0.1h-0.2
							l-0.1,0l-0.9-0.3l-0.3-0.1l-7.8-3l-0.2-0.1l-6.5-3.9c-0.6-0.4-1.5-1.1-2.6-2l-7.1-7.4h-0.1V-419.8z"/>
					</g>
				</g>
			</g>
		</g>
	</g>
	<g id="Symbol_16" transform="matrix( 1, 0, 0, 1, -21.75,-616.95) ">
		<g id="Layer_1_122_" transform="matrix( 1, 0, 0, 1, -20.25,-132.2) ">
			<g>
				<g>
					<g>
						<path style="fill:#311411;" d="M87.8-446.9c-10.6-22.6-26.1-33.3-46.5-32.1c-20.5,1.2-41.9,1.8-64.3,1.8
							c-13,0-25.5,0.7-37.6,2.2c-17.1,2-31.2,5.4-42.3,10c-17.4,7.1-32.1,14.4-44.2,21.8c-12.6,7.7-21,14.8-25.2,21.1
							c-3.9,5.9-6.7,11.6-8.5,17.1c-1.8,5.2-2.9,11.3-3.5,18.2c-0.4,5.2-0.7,13.2-0.7,24.1c0,8,0,14.8,0,20.4c0.2,0,0.3,0,0.5,0
							c0.1,0,0.3,0,0.5-0.1c1.2-0.1,2.5-0.2,3.7-0.4c2.3-0.3,4.7-0.7,7.1-1.2c5.3-1.1,10.4-2.4,15.5-3.9c5-1.5,10-3.4,15-5.5
							c3.9-1.7,7.8-3.5,11.7-5.3c3.7-1.8,7.4-3.7,11.1-5.6c3.1-1.6,6.3-3.3,9.4-4.9C-89-380.6-69.1-394.5-51-411
							c-0.2,1-0.6,1.9-1,2.8c-7.5,15.4-18,28.4-31.7,39c-1.6,1.4-3.3,2.8-4.8,4.2c-2.4,2-4.8,4-7.3,5.9c-2.4,1.9-4.9,3.8-7.4,5.6
							c-2.6,1.8-5.2,3.5-7.8,5.3c-2.6,1.7-5.3,3.3-8,4.9c-1.3,0.8-2.7,1.6-4.1,2.3c2.1-0.4,4.2-0.9,6.3-1.3
							c4.2-1.2,8.4-2.4,12.5-3.6c4.2-1.2,8.3-2.5,12.4-3.9c4.1-1.3,8.2-2.8,12.3-4.3c4.1-1.4,8.2-3,12.2-4.6c5-2,9.9-4.1,14.8-6.3
							c3.1-1.3,6.1-2.7,9.1-4.1l5.9-3c3.4-1.8,6.8-3.7,10.2-5.6c4.1-2.2,8.1-4.6,12.1-7c4-2.5,7.9-5.1,11.7-7.8
							c2.5-1.8,5.1-3.6,7.6-5.5c4-3,7.9-6.1,11.7-9.3c-2.8,5.6-6.1,10.9-10,15.9c-0.6,0.7-1.1,1.5-1.7,2.2c-2.3,3-4.8,5.9-7.4,8.6
							c-2.5,2.7-5.2,5.3-8,7.8c-2.8,2.5-5.7,4.8-8.7,6.9c-3,2.2-6.1,4.4-9.3,6.4c-2.1,1.4-4.2,2.7-6.4,4c-2.2,1.2-4.5,2.4-6.7,3.6
							c3.7-1.1,7.5-2.3,11.2-3.6c3.7-1.3,7.4-2.6,11-4.1c4.1-1.7,8.2-3.4,12.2-5.3c4-1.8,8-3.7,12-5.6c7-3.6,13.9-7.6,20.6-11.9
							c13.3-8.4,25.6-18,36.9-28.8C72.4-421.5,81.1-433.5,87.8-446.9z"/>
					</g>
				</g>
				<g>
					
						<path style="fill:none;stroke:#2E0A0A;stroke-width:1.0898;stroke-linecap:round;stroke-linejoin:round;stroke-miterlimit:2.1797;" d="
						M90.4-452.3c-0.4,1-0.9,1.9-1.3,2.9c-0.4,0.8-0.8,1.7-1.3,2.5c-6.6,13.4-15.4,25.4-26.2,35.8c-11.3,10.8-23.6,20.4-36.9,28.8
						c-6.7,4.3-13.6,8.2-20.6,11.9c-4,1.9-8,3.8-12,5.6c-4,1.9-8.1,3.6-12.2,5.3c-3.7,1.5-7.3,2.9-11,4.1c-3.8,1.2-7.5,2.4-11.2,3.6
						c2.2-1.2,4.5-2.4,6.7-3.6c2.2-1.2,4.3-2.6,6.4-4c3.2-2,6.3-4.2,9.3-6.4c3-2.2,5.9-4.5,8.7-6.9c2.8-2.5,5.5-5.1,8-7.8
						c2.6-2.8,5.1-5.6,7.4-8.6c0.6-0.7,1.1-1.5,1.7-2.2c3.9-5,7.2-10.3,10-15.9c-3.8,3.2-7.7,6.3-11.7,9.3c-2.5,1.9-5.1,3.7-7.6,5.5
						c-3.9,2.7-7.8,5.3-11.7,7.8c-4,2.5-8,4.8-12.1,7c-3.4,1.9-6.8,3.8-10.2,5.6l-5.9,3c-3,1.5-6.1,2.8-9.1,4.1
						c-4.9,2.2-9.8,4.3-14.8,6.3c-4,1.6-8.1,3.2-12.2,4.6c-4.1,1.5-8.2,3-12.3,4.3c-4.1,1.4-8.3,2.7-12.4,3.9
						c-4.1,1.2-8.3,2.4-12.5,3.6c-2.1,0.5-4.2,0.9-6.3,1.3c1.4-0.8,2.7-1.5,4.1-2.3c2.7-1.6,5.4-3.2,8-4.9c2.6-1.7,5.2-3.5,7.8-5.3
						c2.6-1.8,5-3.7,7.4-5.6c2.5-1.9,4.9-3.9,7.3-5.9c1.6-1.4,3.2-2.8,4.8-4.2c13.7-10.6,24.3-23.6,31.7-39c0.4-0.9,0.8-1.8,1-2.8
						c-18,16.5-37.9,30.4-59.6,41.8c-3.2,1.7-6.3,3.3-9.4,4.9c-3.7,1.9-7.4,3.8-11.1,5.6c-3.9,1.8-7.8,3.6-11.7,5.3
						c-5,2.1-10,4-15,5.5c-5.1,1.5-10.2,2.8-15.5,3.9c-2.4,0.5-4.7,0.9-7.1,1.2c-1.2,0.2-2.5,0.3-3.7,0.4c-0.2,0-0.3,0.1-0.5,0.1
						c-0.2,0-0.4,0-0.5,0"/>
				</g>
			</g>
		</g>
	</g>
	<g id="Symbol_17" transform="matrix( 1, 0, 0, 1, -21.75,-616.95) ">
		<g id="Layer_1_123_" transform="matrix( 1, 0, 0, 1, 147.55,-123.6) ">
			<g transform="matrix( 1.071685791015625, 0, 0, 1.071685791015625, -133.55,66) ">
				<g>
					<g>
						<path style="fill:#311411;" d="M80.1-500.5l-41,8c-0.2,7.3,0.1,14.4,1,21.3c2,15.9,6.5,31,13.5,45.3
							c7,14.2,16.9,25.8,29.5,34.7c1.6,1.1,3.3,2.2,5.1,3.1c-6.2-12.2-10.9-24.9-14-38c5.5,11.4,13.4,20.6,23.7,27.8
							c4.7,3.3,9.7,5.7,15,7.2l5.2-67.9L80.1-500.5z"/>
					</g>
				</g>
				<g transform="matrix( 0.93310546875, 0, 0, 0.93310546875, 124.6,-61.55) ">
					
						<path style="fill:none;stroke:#2E0A0A;stroke-width:1.0898;stroke-linecap:round;stroke-linejoin:round;stroke-miterlimit:2.1797;" d="
						M-12.5-353.2c0.9,0.3,1.8,0.5,2.8,0.8 M-91.6-461.7c-0.2,7.8,0.2,15.4,1.1,22.8c2.1,17,7,33.2,14.5,48.6
						c7.5,15.3,18.1,27.6,31.6,37.2c1.8,1.2,3.6,2.3,5.5,3.3c-6.7-13-11.7-26.6-15.1-40.8c5.9,12.2,14.3,22.1,25.5,29.7
						c5.1,3.5,10.4,6.1,16.1,7.7"/>
				</g>
			</g>
		</g>
	</g>
	<g id="Layer_20" transform="matrix( 1, 0, 0, 1, -21.75,-616.95) ">
		<g transform="matrix( 1.3472747802734375, 0, 0, 1.23388671875, -771,-419.65) ">
			<g>
				<g>
					<path style="fill:#FFFFFF;" d="M637,40.9c0-7.5-2.6-13.9-7.9-19.2c-5.3-5.3-11.7-7.9-19.2-7.9s-13.9,2.6-19.2,7.9
						c-5.3,5.3-7.9,11.7-7.9,19.2s2.6,13.9,7.9,19.1c5.3,5.3,11.7,8,19.2,8s13.9-2.7,19.2-8C634.4,54.8,637,48.4,637,40.9z"/>
				</g>
			</g>
		</g>
	</g>
	<g id="Layer_19" transform="matrix( 1, 0, 0, 1, -21.75,-616.95) ">
		<g>
			<g>
				<g>
					<path style="fill:#FFFFFF;" d="M-74.1-369.2c0-9.3-3.6-17.2-10.7-23.7c-7.1-6.5-15.8-9.8-25.8-9.8c-10.1,0-18.7,3.3-25.8,9.8
						c-7.1,6.5-10.7,14.4-10.7,23.7c0,9.3,3.6,17.1,10.7,23.6c7.1,6.5,15.7,9.8,25.8,9.8c10.1,0,18.7-3.3,25.8-9.8
						C-77.6-352-74.1-359.9-74.1-369.2z"/>
				</g>
			</g>
		</g>
	</g>
	<g id="Layer_28" transform="matrix( 1, 0, 0, 1, -21.75,-616.95) ">
		<g transform="matrix( 0.9395599365234375, 0, 0, 1.0203704833984375, -505.85,-339.55) ">
			<g>
				<g>
					<path style="fill:#2E130E;" d="M615.7-27.7c0-7.1-2.5-13.1-7.5-18.1c-5-5-11-7.5-18.1-7.5c-7.1,0-13.1,2.5-18.1,7.5
						c-5,5-7.5,11-7.5,18.1s2.5,13.1,7.5,18c5,5,11,7.5,18.1,7.5c7.1,0,13.1-2.5,18.1-7.5C613.2-14.6,615.7-20.6,615.7-27.7z"/>
				</g>
			</g>
		</g>
		<g transform="matrix( -0.8951873779296875, 0, 0, 0.8951873779296875, 33.05,-44.15) ">
			<g>
				<g>
					<path style="fill:#FFFFFF;" d="M1.8-374.3c0-1.7-0.6-3.2-1.8-4.4c-1.2-1.2-2.7-1.8-4.4-1.8s-3.2,0.6-4.4,1.8
						c-1.2,1.2-1.8,2.6-1.8,4.4c0,1.7,0.6,3.2,1.8,4.4c1.2,1.2,2.7,1.8,4.4,1.8s3.2-0.6,4.4-1.8S1.8-372.6,1.8-374.3z"/>
				</g>
			</g>
		</g>
		<g transform="matrix( -0.9395599365234375, 0, 0, 1.0203704833984375, 544.55,-339.55) ">
			<g>
				<g>
					<path style="fill:#2E130E;" d="M720.6-27.7c0-7.1-2.5-13.1-7.5-18.1c-5-5-11-7.5-18-7.5S682-50.8,677-45.8
						c-5,5-7.5,11-7.5,18.1s2.5,13.1,7.5,18c5,5,11,7.5,18.1,7.5s13.1-2.5,18-7.5C718.1-14.6,720.6-20.6,720.6-27.7z"/>
				</g>
			</g>
		</g>
		<g transform="matrix( 0.8951873779296875, 0, 0, 0.8951873779296875, 5.65,-44.15) ">
			<g>
				<g>
					<path style="fill:#FFFFFF;" d="M-108.4-374.3c0-1.7-0.6-3.2-1.8-4.4c-1.2-1.2-2.7-1.8-4.4-1.8c-1.7,0-3.2,0.6-4.4,1.8
						c-1.2,1.2-1.8,2.6-1.8,4.4c0,1.7,0.6,3.2,1.8,4.4c1.2,1.2,2.7,1.8,4.4,1.8c1.7,0,3.2-0.6,4.4-1.8
						C-109-371.1-108.4-372.6-108.4-374.3z"/>
				</g>
			</g>
		</g>
	</g>
	<g id="Layer_1_128_" transform="matrix( 1, 0, 0, 1, -21.75,-616.95) ">
		<g id="Layer_4_15_" transform="matrix( 1, 0, 0, 1, 100.3,16.85) ">
			<g>
				<g>
					<g>
						<path style="fill:#270F0B;" d="M-43.5-421.1l-0.5,0l-2-0.4h-0.3l-0.3,0l-1-0.1h-0.3l-0.3,0h-4l-0.3,0l-2.6,0.2l-5.3,1h-0.2
							l-0.1,0l-1,0.3l-0.3,0l-6.2,2.5l-3.5,2l-0.2,0.1l-0.4,0.3l-6.3,5.4l-0.3,0.3l-1.6,1.9c-0.2,0.2-0.3,0.4-0.4,0.5l-4.7,7.3
							c-0.1,0.1-0.1,0.1,0.1,0.1h0.1l2.5-2.8c0.9-1,1.9-2,2.9-3l0.4-0.5l1.3-1l0.3-0.3l2.2-1.8c2-1.4,3.8-2.6,5.3-3.5l4.8-2.4l0.2,0
							l0.8-0.4l0.2,0l1.1-0.4l3.5-1l0.1,0h0.1l2.5-0.5c1.3-0.2,2.5-0.4,3.8-0.5l5,0l0.2,0l0.9,0.1h0.2l3.6,0.5h0.2l7,2l0.4,0.2
							l0.9,0.3c1,0.4,2.1,0.9,3.2,1.5l5.4,3.1l6.4,5.3l0.4,0.4c1.4,1.4,2.4,2.5,3,3.1l2.5,2.8h0.1v-0.1l-4.7-7.3
							c-0.1-0.1-0.2-0.3-0.4-0.5l-0.4-0.6l-0.3-0.3l-0.2-0.3l-4.7-4.6l-0.4-0.3l-0.5-0.5l-4.2-3l-0.2-0.1l-0.2-0.1l-0.9-0.4
							l-0.1-0.1l-2.5-1.3c-1-0.5-2.3-1.1-3.7-1.6l-1-0.3l-0.3-0.1l-0.3,0l-0.5-0.2L-43.5-421.1z"/>
					</g>
				</g>
			</g>
		</g>
		<g id="Layer_3_21_" transform="matrix( 1, 0, 0, 1, 100.3,16.85) ">
			<g>
				<g>
					<g>
						<path style="fill:#ECAA92;" d="M-33.9-355.2l-2.4,0.1l-0.2,0h-0.3l-8.3,0.9c-0.3,0-0.6,0-0.8,0l-3.8,0.2l-0.4,0h-2.8l-0.4,0
							h-1.1l-0.8-0.1c-0.4,0-0.6,0-0.8-0.1l-0.7,0l-0.2,0H-57l-0.3-0.1c-0.2,0-1.1-0.2-2.8-0.4l-0.5-0.1h0l-0.1-0.1l-0.6-0.1h-0.2
							l-0.5-0.1l-0.3,0l-2.8-0.9l-0.2-0.1l-0.2-0.1l-2.2-0.9c-0.1-0.1-0.2-0.1-0.2,0.1v0.1l1.7,1.8l0.2,0.1l0.6,0.5l1.9,1.4l0.2,0.1
							l0.1,0.1l0.3,0.1l0.4,0.3l0.2,0.1l0.8,0.4h0l0.5,0.3c0.9,0.4,1.9,0.8,3,1l0.8,0.2c0.4,0.1,0.7,0.1,0.9,0.1l1.7,0.3h0.2
							l0.2,0.1l3.1,0.1c1.5-0.1,2.6-0.1,3.4-0.3c0.7-0.1,1.3-0.1,1.7-0.3l0.8-0.1l0.8-0.2c1.3-0.3,2.3-0.6,3-0.8l1.4-0.5l5.3-2.4
							l0.3-0.2l0.8-0.5L-33.9-355.2L-33.9-355.2z"/>
					</g>
				</g>
			</g>
		</g>
		<g id="Layer_2_31_" transform="matrix( 1, 0, 0, 1, 100.3,16.85) ">
			<g id="Layer_1_124_" transform="matrix( 1, 0, 0, 1, 0,-47.65) ">
				<g>
					<g>
						<g>
							<path style="fill:#431B1B;" d="M-35.2-420.4c-3-0.3-7.1-0.3-12.1,0c-8,0.4-14.3,1.2-18.9,2.3c-2.4,0.6-5.5,1.5-9.2,2.7
								c-3.7,1.2-6.3,2.2-8,3.1c-1.4,0.8-2.6,1.6-3.5,2.6c-1,1.2-1.5,2.5-1.5,3.8c0,1,0.2,1.9,0.8,2.7c0.5,0.8,0.9,1.1,1,1
								c0.2-0.2,0.3-0.2,0.3,0c0,0.2,2.9,0.2,8.7,0.1c5.8-0.1,14.9,0.3,27.3,1.1c15.5,1,25.6,1.5,30.2,1.5c2.4,0,4.2-0.2,5.5-0.6
								c2.1-0.6,3.4-1.8,4.2-3.5c0.5-1,0.6-2,0.3-3.3c-0.2-1.1-0.6-2.2-1.3-3.1c-1.1-1.4-2.8-2.8-5.3-4.2
								C-22.9-417.7-29-419.7-35.2-420.4z"/>
						</g>
					</g>
				</g>
			</g>
		</g>
		<g id="Layer_1_125_" transform="matrix( 1, 0, 0, 1, 100.3,16.85) ">
		</g>
		<g id="Layer_4_16_" transform="matrix( -1, 0, 0, 1, -61.6,16.85) ">
			<g>
				<g>
					<g>
						<path style="fill:#270F0B;" d="M55.1-421.1l-0.5,0l-2.1-0.4h-0.3l-0.3,0l-1-0.1h-0.3l-0.3,0h-4l-0.3,0l-2.6,0.2l-5.3,1H38
							l-0.1,0l-1,0.3l-0.3,0l-6.2,2.5l-3.5,2l-0.1,0.1l-0.4,0.3l-6.3,5.4l-0.3,0.3l-1.6,1.9c-0.2,0.2-0.3,0.4-0.4,0.5l-4.7,7.3
							c-0.1,0.1-0.1,0.1,0.1,0.1h0.1l2.5-2.8c0.9-1,1.9-2,2.9-3l0.4-0.5l1.3-1l0.3-0.3l2.2-1.8c2-1.4,3.8-2.6,5.3-3.5l4.8-2.4l0.2,0
							l0.8-0.4l0.2,0l1.1-0.4l3.6-1l0.1,0H39l2.6-0.5c1.3-0.2,2.5-0.4,3.8-0.5l5,0l0.2,0l1,0.1h0.2l3.6,0.5h0.2l7,2l0.4,0.2l0.8,0.3
							c1,0.4,2.1,0.9,3.3,1.5l5.4,3.1l6.4,5.3l0.4,0.4c1.4,1.4,2.4,2.5,2.9,3.1l2.4,2.8h0.2v-0.1l-4.7-7.3c-0.1-0.1-0.2-0.3-0.4-0.5
							l-0.4-0.6l-0.3-0.3l-0.2-0.3l-4.7-4.6l-0.4-0.3l-0.5-0.5l-4.2-3l-0.2-0.1l-0.2-0.1l-0.8-0.4l-0.1-0.1l-2.5-1.3
							c-1-0.5-2.3-1.1-3.7-1.6l-1-0.3l-0.3-0.1l-0.3,0l-0.4-0.2L55.1-421.1z"/>
					</g>
				</g>
			</g>
		</g>
		<g id="Layer_3_22_" transform="matrix( -1, 0, 0, 1, -61.6,16.85) ">
			<g>
				<g>
					<g>
						<path style="fill:#ECAA92;" d="M64.6-355.2l-2.4,0.1l-0.2,0h-0.3l-8.2,0.9c-0.3,0-0.6,0-0.8,0l-3.8,0.2l-0.4,0h-2.8l-0.4,0
							h-1.1l-0.8-0.1c-0.4,0-0.6,0-0.8-0.1l-0.7,0l-0.2,0h-0.2l-0.4-0.1c-0.2,0-1.1-0.2-2.8-0.4l-0.5-0.1h0l-0.1-0.1l-0.7-0.1H37
							l-0.4-0.1l-0.3,0l-2.8-0.9l-0.2-0.1l-0.2-0.1l-2.2-0.9c-0.1-0.1-0.1-0.1-0.1,0.1v0.1l1.6,1.8l0.2,0.1l0.5,0.5L35-353l0.2,0.1
							l0.2,0.1l0.3,0.1l0.5,0.3l0.1,0.1l0.8,0.4h0l0.6,0.3c0.9,0.4,1.9,0.8,3,1l0.8,0.2c0.4,0.1,0.6,0.1,0.8,0.1l1.7,0.3h0.2
							l0.2,0.1l3.1,0.1c1.5-0.1,2.6-0.1,3.4-0.3c0.7-0.1,1.3-0.1,1.6-0.3l0.9-0.1l0.8-0.2c1.3-0.3,2.3-0.6,2.9-0.8l1.4-0.5l5.3-2.4
							l0.2-0.2l0.8-0.5L64.6-355.2L64.6-355.2z"/>
					</g>
				</g>
			</g>
		</g>
		<g id="Layer_2_32_" transform="matrix( -1, 0, 0, 1, -61.6,16.85) ">
			<g id="Layer_1_126_" transform="matrix( 1, 0, 0, 1, 0,-47.65) ">
				<g>
					<g>
						<g>
							<path style="fill:#431B1B;" d="M63.4-420.4c-3-0.3-7.1-0.3-12.1,0c-8,0.4-14.3,1.2-18.9,2.3c-2.4,0.6-5.5,1.5-9.2,2.7
								c-3.7,1.2-6.3,2.2-8,3.1c-1.4,0.8-2.6,1.6-3.4,2.6c-1,1.2-1.5,2.5-1.5,3.8c0,1,0.2,1.9,0.8,2.7c0.5,0.8,0.9,1.1,1,1
								c0.2-0.2,0.3-0.2,0.3,0c0,0.2,2.9,0.2,8.6,0.1c5.8-0.1,14.9,0.3,27.3,1.1c15.5,1,25.6,1.5,30.2,1.5c2.4,0,4.2-0.2,5.5-0.6
								c2.1-0.6,3.4-1.8,4.2-3.5c0.5-1,0.6-2,0.3-3.3c-0.2-1.1-0.7-2.2-1.3-3.1c-1.1-1.4-2.8-2.8-5.3-4.2
								C75.7-417.7,69.6-419.7,63.4-420.4z"/>
						</g>
					</g>
				</g>
			</g>
		</g>
		<g id="Layer_1_127_" transform="matrix( -1, 0, 0, 1, -61.6,16.85) ">
		</g>
	</g>
</g>
</svg>
