<svg xmlns="http://www.w3.org/2000/svg" viewBox="0 0 258.81 728.66"><defs><style>.cls-1{fill:#cd3625;}.cls-2{fill:#721935;}.cls-3{fill:#952a4c;}.cls-4{fill:#312058;}.cls-5{fill:#49327e;}.cls-6{fill:#573e91;}.cls-7{fill:#ff9f7b;}.cls-8{fill:#ffd4b8;}.cls-9{fill:#f0427a;}.cls-10{fill:#cd3466;}.cls-11{fill:#405993;}.cls-12{fill:#b4932c;}.cls-13{fill:#fff2c9;}.cls-14{fill:#e5be43;}.cls-15{fill:#d9396d;}.cls-16{fill:#c22e5e;}.cls-17{fill:#ffb79c;}.cls-18{fill:#a62516;}.cls-19{fill:#f4b299;}.cls-20,.cls-23,.cls-24,.cls-25,.cls-26,.cls-27{fill:none;stroke-linecap:round;stroke-linejoin:round;}.cls-20{stroke:#db7c5a;stroke-width:3.2px;}.cls-21{fill:#fff;}.cls-22{fill:#2d120d;}.cls-23{stroke:#e06161;stroke-width:2.67px;}.cls-24,.cls-26{stroke:#260e09;}.cls-24{stroke-width:2.14px;}.cls-25{stroke:#e4a68f;stroke-width:2.14px;}.cls-26{stroke-width:1.07px;}.cls-27{stroke:#421d16;stroke-width:3.74px;}</style></defs><g id="레이어_2" data-name="레이어 2"><g id="레이어_1-2" data-name="레이어 1"><g id="레이어_2-2" data-name="레이어 2"><path class="cls-1" d="M142,1.57A103.86,103.86,0,0,0,130.94.14a96.17,96.17,0,0,0-11.13,0,95,95,0,0,0-11.12,1.53c-3,.49-5.87,1-8.77,1.67S94.31,4.67,91.5,5.51a70.49,70.49,0,0,0-7.93,2.71c-2.56.93-5.07,2-7.53,3.2a69.34,69.34,0,0,0-7.1,3.89c-2.31,1.38-4.53,2.86-6.69,4.43a77.77,77.77,0,0,0-6.21,5c-2,1.83-3.94,3.7-5.81,5.62-1.67,1.77-3.3,3.64-4.83,5.56q-1.24,1.79-2.51,3.55A159.51,159.51,0,0,0,28.51,66.28a214.23,214.23,0,0,0-9.9,29.84A161.58,161.58,0,0,0,14,128.62c-.05,4.73,0,9.46.39,14.24a171.2,171.2,0,0,0,5.56,31.61q.9,3.41,1.93,6.94a123.37,123.37,0,0,1,5.66,20.29c.74,4,1.23,8.13,1.57,12.27q1.71,22-20,14.82a13.59,13.59,0,0,1-9.11-9,39.5,39.5,0,0,0,8.57,19.7Q37.74,275.73,84.46,281a197.7,197.7,0,0,0,75.34-5.47,97.14,97.14,0,0,0,27.14-10.68,109.51,109.51,0,0,0,26.29-21.23A150.15,150.15,0,0,0,231.9,218.1a146.2,146.2,0,0,0,8.27-16.45c1.92-4.48,3.64-9.06,5.17-13.78A292.34,292.34,0,0,0,254,155.56a248.27,248.27,0,0,0,4.23-28.66A154.44,154.44,0,0,0,257.85,96c-.39-3-.89-5.86-1.48-8.76-.74-3.55-1.67-7-2.71-10.39Q241.18,39.44,201,33.68,177,12.11,153.05,4.33c-.93-.3-1.82-.59-2.75-.84C147.64,2.85,144.83,2.16,142,1.57Z"/><path class="cls-2" d="M61,724.66a10.79,10.79,0,0,1-1.63-5.19c.3,2.92,7.42,4.46,21.33,4.68a74,74,0,0,0,26.9-4.59c5.8-.82,10.39-2.28,13.74-4.34,0,1.2-.13,2.41-.18,3.69.52,2.19-4.33,4.12-14.59,5.84-8.45,2.75-18.19,4-29.35,3.9C70.1,728.53,64.65,727.2,61,724.66Z"/><path class="cls-3" d="M80.57,700.8c.08,0,.13,0,.21,0A56.25,56.25,0,0,0,89.84,698s0,0,.08,0l-.38-5.27,27.85.47-.09,4.25a15.4,15.4,0,0,1,1.76,3.26c1.55,3.69,2.32,8.49,2.28,14.46-3.35,2.06-7.94,3.52-13.74,4.33a74,74,0,0,1-26.9,4.6c-13.91-.22-21-1.76-21.33-4.68a6.19,6.19,0,0,1,0-.86Q58.69,705.9,80.57,700.8Z"/><path class="cls-4" d="M128.28,444.67l-5.36,172.66-1.58,81.31q-17.58,5.31-36-1.33C80.37,647.67,75.2,527,69.83,441.47Z"/><path class="cls-5" d="M84.55,697.6c-.29-4.14-.59-8.42-1-12.75Q82,667.12,79.19,647c1.37.34,2.8.64,4.23.93l5.17,51c-1.33-.44-2.66-.84-4-1.28m17.24-48.06c2.31,0,4.68-.15,7.09-.35l.44,51.81c-1.92.1-3.79.15-5.71.1l-1.82-51.56m-13-.79c2.12.29,4.28.49,6.4.64l3,51.31c-1.77-.19-3.49-.49-5.26-.83l-4.09-51.12m26.3-.25c1.87-.24,3.79-.59,5.66-.93l-2.12,52.15c-1.53.34-3.05.59-4.53.79Z"/><path class="cls-6" d="M95.29,649.34c2.12.15,4.33.2,6.5.15l1.82,51.56a48.81,48.81,0,0,1-5.37-.45l-2.95-51.26m-11.82-1.48c1.77.35,3.6.64,5.42.89L93,699.82c-1.18-.25-2.41-.54-3.64-.84-.25-.05-.49-.15-.69-.2l-5.17-50.92m37.33-.29,2.31-.45L122,698.93c-.1.05-.2.05-.29.1l-3,.74,2.12-52.2m-11.92,1.62c2.07-.15,4.14-.39,6.26-.69l-1,52.06c-1.62.24-3.2.39-4.83.49Z"/><path class="cls-2" d="M214.55,724.66a10.37,10.37,0,0,0,1.32-5.19c-.12,2.92-7.15,4.46-21,4.68a76.32,76.32,0,0,1-27.19-4.59c-5.84-.82-10.52-2.28-14-4.34.12,1.2.28,2.41.4,3.69-.39,2.19,4.58,4.12,14.93,5.84,8.62,2.75,18.44,4,29.59,3.9Q209.31,728.47,214.55,724.66Z"/><path class="cls-3" d="M193.56,700.8c-.09,0-.13,0-.22,0a59.22,59.22,0,0,1-9.22-2.79s0,0-.08,0l.07-5.27-27.83.47.34,4.25a14.89,14.89,0,0,0-1.56,3.26c-1.32,3.69-1.81,8.49-1.41,14.46,3.47,2.06,8.15,3.52,14,4.33a76.3,76.3,0,0,0,27.18,4.6c13.89-.22,20.93-1.76,21.05-4.68a4.94,4.94,0,0,0,0-.86Q215.76,705.9,193.56,700.8Z"/><path class="cls-4" d="M133.67,444.67l12.49,172.66,6.43,81.31a55.74,55.74,0,0,0,36-1.33c2-49.64,3.07-170.3,3.32-255.84Z"/><path class="cls-5" d="M189.37,697.6c0-4.14.09-8.42.22-12.75q.49-17.73,2.12-37.87c-1.36.34-2.77.64-4.18.93l-2.12,51c1.3-.44,2.65-.84,4-1.28m-20.11-48.06c-2.32,0-4.69-.15-7.11-.35L164.8,701c1.93.1,3.8.15,5.72.1l-1.26-51.56m12.9-.79c-2.1.29-4.25.49-6.36.64l.11,51.31c1.76-.19,3.47-.49,5.22-.83l1-51.12m-26.31-.25c-1.89-.24-3.83-.59-5.72-.93l5.24,52.15c1.54.34,3.09.59,4.57.79Z"/><path class="cls-6" d="M175.75,649.34c-2.11.15-4.32.2-6.49.15l1.26,51.56a47.87,47.87,0,0,0,5.34-.45l-.11-51.26m11.78-1.48c-1.76.35-3.56.64-5.37.89l-1,51.07c1.17-.25,2.38-.54,3.59-.84.25-.05.49-.15.68-.2l2.13-50.92m-37.4-.29-2.34-.45L152,698.93c.1.05.2.05.3.1l3.05.74-5.24-52.2m12.07,1.62c-2.08-.15-4.16-.39-6.3-.69l4.1,52.06c1.64.24,3.22.39,4.85.49Z"/><path class="cls-7" d="M58.43,382.65a25.71,25.71,0,0,0-2.56-2.27,4.54,4.54,0,0,0-1.18-.59,3,3,0,0,0-1.63,0,13,13,0,0,0-4.19,1.63,21.17,21.17,0,0,0-5.12,3.89,16.79,16.79,0,0,0-3.54,5.31,6.74,6.74,0,0,0-.64,3.6.22.22,0,0,0-.3.1c-.1.15-.05.34.15.54a6.28,6.28,0,0,1,.69.59,9.41,9.41,0,0,1,.79.59,7.91,7.91,0,0,1,1.13.89l3.79,3a2.49,2.49,0,0,0,.49.25,12,12,0,0,0,.45,3.54c.14.45.24.89.39,1.28.25.55.49,1.09.74,1.58a10.76,10.76,0,0,0,3.15,4,28,28,0,0,0,3.2,2.26,11.14,11.14,0,0,0-1.13.5,14.06,14.06,0,0,0-1.33.69c-.05.05-.1.05-.15.1a4.55,4.55,0,0,0-1,1,3.1,3.1,0,0,0-.64,2,7.21,7.21,0,0,0,1.47,4.33,9.16,9.16,0,0,0,3.75,3,12.44,12.44,0,0,0,4.33.64,5,5,0,0,0,.84-.05,21.77,21.77,0,0,0,7.14-1.28,5.33,5.33,0,0,0,3.25-3.1c.44-.05.84-.15,1.28-.2a7.43,7.43,0,0,0,4.83-2.91,9.52,9.52,0,0,0,.78-1.23,3.67,3.67,0,0,0,.4-1,4.59,4.59,0,0,0,.49-.25,8,8,0,0,0,2.86-4.14,9.91,9.91,0,0,0,.19-5,14.36,14.36,0,0,0-2.21-5,32.68,32.68,0,0,0-3.6-4.34,40.5,40.5,0,0,0-5.66-5,18.28,18.28,0,0,0-5.81-2.9c0-.05-.1-.2-.25-.4l-5.66-5.56m-2.71-.79a24.67,24.67,0,0,1,2.51,2.36l4.63,4.43a0,0,0,0,1,0,.05.67.67,0,0,0,.25.3,29.94,29.94,0,0,0,3.89,2A22,22,0,0,1,70.3,393a39.81,39.81,0,0,1,7.68,8,17.73,17.73,0,0,1,1.62,2.66,9,9,0,0,1,.84,5.37,7.5,7.5,0,0,1-2.26,4.53v-.1A7.38,7.38,0,0,0,76.9,410a.43.43,0,0,0-.45-.15c0,.05,0,.2,0,.35l.4,3.44a9.88,9.88,0,0,1,0,1c0,.1,0,.19-.1.29a16.83,16.83,0,0,1-1,1.58,6.7,6.7,0,0,1-4.77,3l-.4-2.07a8.79,8.79,0,0,0-.39,1,5.83,5.83,0,0,1-3.94,4,18.51,18.51,0,0,1-5.71.93,12.42,12.42,0,0,1-3.11-.1,6.71,6.71,0,0,1-2.06-.59,8.66,8.66,0,0,1-3.65-3.39,3.73,3.73,0,0,1,.05-4.09c.25-.25.49-.54.79-.79s.34-.25.49-.39l.74-.3c.44-.05.84-.15,1.28-.2a5,5,0,0,1,.69.2l1.77.89a1.44,1.44,0,0,1,.1,1.38,2.18,2.18,0,0,1-.79,1.13,2.55,2.55,0,0,1-1.23.54h-.1c-1.28,0-1.72.44-1.38,1.28l1.38.15a3.72,3.72,0,0,0,1.19-.4,3.8,3.8,0,0,0,1.47-1.23,3.9,3.9,0,0,0,.49-1.08,3.29,3.29,0,0,0,.35-.89,0,0,0,0,1,0-.05,18.18,18.18,0,0,1,1.87,1.14l1.82.93.15-.1s0,0-.1,0a12.19,12.19,0,0,1-1.62-1.73l-2-2c-1.78-1-3.2-1.77-4.24-2.36a15.29,15.29,0,0,1-3.25-2.37,15.84,15.84,0,0,1-3-4c-.2-.45-.45-.94-.64-1.48,0-.1-.45-1.28-1.23-3.65a.75.75,0,0,0,.09-.29.56.56,0,0,0-.39-.54c0-.05,0-.05,0-.1a.27.27,0,0,0-.2-.15l0,.1-.49-.35a2.87,2.87,0,0,1-.74-.59c-.19-.14-.54-.39-1-.74l-2.22-1.52c-.44-.3-.74-.49-.84-.54a3.63,3.63,0,0,1-.59-.3,2.22,2.22,0,0,1-.44-.25.53.53,0,0,0,.1-.34,9.63,9.63,0,0,1,1.67-4.73,17.84,17.84,0,0,1,2.91-3.84,17.07,17.07,0,0,1,2.16-1.77A14.92,14.92,0,0,1,52.57,381a3.71,3.71,0,0,1,1.62-.1A5.86,5.86,0,0,1,55.72,381.86Z"/><path class="cls-8" d="M58.28,384.22c-1-1-1.82-1.77-2.51-2.36a4.72,4.72,0,0,0-1.48-.84,3.08,3.08,0,0,0-1.62.1A15.92,15.92,0,0,0,47,384a21.57,21.57,0,0,0-2.16,1.77,19.62,19.62,0,0,0-2.91,3.84,9.47,9.47,0,0,0-1.67,4.73.68.68,0,0,1-.1.34c.15.1.29.15.44.25a2.58,2.58,0,0,0,.59.29c.1.05.4.25.84.55l2.22,1.52a7.58,7.58,0,0,1,1,.74,3.11,3.11,0,0,0,.74.59,2.07,2.07,0,0,1,.49.35l0-.1c.05-.05.15,0,.2.15s0,.05-.05.09a.75.75,0,0,1,.39.55.67.67,0,0,1-.1.29c.79,2.37,1.19,3.6,1.24,3.65A14.15,14.15,0,0,0,51.83,409a15,15,0,0,0,3.25,2.37c1,.59,2.41,1.38,4.24,2.36l2,2a11.3,11.3,0,0,0,1.63,1.72.17.17,0,0,0,.1.05l-.15.1L61,416.68c-.54-.35-1.13-.69-1.87-1.14l-.05,0a3.29,3.29,0,0,1-.35.89,3,3,0,0,1-.49,1.08,4.35,4.35,0,0,1-2.66,1.63L54.24,419c-.34-.84.1-1.28,1.38-1.28h.1a2.55,2.55,0,0,0,1.23-.54,2.26,2.26,0,0,0,.79-1.14,1.45,1.45,0,0,0-.1-1.37l-1.77-.89a5,5,0,0,0-.69-.2c-.44.05-.89.15-1.28.2l-.74.29a3,3,0,0,0-.49.4,5.88,5.88,0,0,0-.79.79,3.71,3.71,0,0,0-.05,4.08,8.72,8.72,0,0,0,3.64,3.4,7.07,7.07,0,0,0,2.07.59,12.36,12.36,0,0,0,3.1.1,20.2,20.2,0,0,0,5.72-.93,6,6,0,0,0,3.94-4,8.79,8.79,0,0,1,.39-1l.39,2.07a6.59,6.59,0,0,0,4.78-3c.35-.54.69-1,1-1.58a.63.63,0,0,1,.1-.29,9.88,9.88,0,0,0,0-1l-.4-3.45c0-.14,0-.29,0-.34a.41.41,0,0,1,.44.15,7.24,7.24,0,0,1,1.28,3.54v.1a7.65,7.65,0,0,0,2.27-4.53,9.84,9.84,0,0,0-.84-5.37,17.24,17.24,0,0,0-1.62-2.66,39.81,39.81,0,0,0-7.68-8,17.77,17.77,0,0,0-3.25-2.07,27.72,27.72,0,0,1-3.9-2,1.58,1.58,0,0,1-.24-.3,0,0,0,0,0,0-.05Z"/><path class="cls-9" d="M35.33,389.05l8.28,13.49c8.47-1.43,15.7-6.65,21.61-15.76l-5.91-12.65Q49.27,388,35.33,389.05Z"/><path class="cls-10" d="M64,269.92c-3.49,2.56-6.79,5.22-9.9,7.93s-5.61,5.12-7.58,7.09-3.59,3.7-5,5q-16.47,17.58-22.46,24.82c-4,4.82-6.45,7.73-7.34,8.81a39.09,39.09,0,0,0-3.35,6.8A19.88,19.88,0,0,0,7,339.11a21.57,21.57,0,0,0,1.23,5.32L35.38,389q14-1,23.93-14.92L42.82,338.82c2.16-3,5.37-6.95,9.65-12.07S63.21,316,71.92,309.86l1.63-45.4A48.07,48.07,0,0,0,64,269.92Z"/><path class="cls-7" d="M205.85,384a24.07,24.07,0,0,1,2.56-2.26,3.86,3.86,0,0,1,1.18-.59,3,3,0,0,1,1.62,0,13.3,13.3,0,0,1,4.24,1.62,21.17,21.17,0,0,1,5.12,3.89,16.81,16.81,0,0,1,3.55,5.32,6.71,6.71,0,0,1,.64,3.59c.15,0,.24,0,.29.1s0,.35-.14.54a5.64,5.64,0,0,0-.69.6,6.64,6.64,0,0,0-.79.59,7.28,7.28,0,0,0-1.13.88l-3.8,3a2.35,2.35,0,0,1-.49.24,12.34,12.34,0,0,1-.44,3.55c-.15.44-.25.89-.4,1.28-.24.54-.49,1.08-.73,1.58a10.83,10.83,0,0,1-3.16,4,28.51,28.51,0,0,1-3.2,2.27c.4.15.74.3,1.13.49s.89.45,1.33.69c.05.05.1.05.15.1a4.85,4.85,0,0,1,1,1,3.2,3.2,0,0,1,.64,2,7.18,7.18,0,0,1-1.48,4.34,9.11,9.11,0,0,1-3.74,3,12.23,12.23,0,0,1-4.34.64,4.91,4.91,0,0,1-.83-.05,21.43,21.43,0,0,1-7.14-1.28,5.3,5.3,0,0,1-3.25-3.1c-.45-.05-.84-.15-1.28-.2a7.39,7.39,0,0,1-4.83-2.9,11.2,11.2,0,0,1-.79-1.23,3.65,3.65,0,0,1-.39-1c-.15-.05-.3-.15-.5-.24a8.07,8.07,0,0,1-2.85-4.14,10,10,0,0,1-.2-5,14.44,14.44,0,0,1,2.22-5,32.64,32.64,0,0,1,3.59-4.33,40.4,40.4,0,0,1,5.67-5,18.32,18.32,0,0,1,5.81-2.91c0-.05.1-.2.24-.39l5.62-5.57m2.66-.79a26,26,0,0,0-2.52,2.37L201.37,390a0,0,0,0,0-.05.05.6.6,0,0,1-.25.29,28.76,28.76,0,0,1-3.89,2,22.58,22.58,0,0,0-3.25,2.07,39.58,39.58,0,0,0-7.68,8,17.75,17.75,0,0,0-1.63,2.66,9.07,9.07,0,0,0-.84,5.37,7.57,7.57,0,0,0,2.27,4.53v-.1a7.38,7.38,0,0,1,1.28-3.55.43.43,0,0,1,.44-.14s0,.19,0,.34l-.39,3.45a9.72,9.72,0,0,0-.05,1c.05.1.05.2.1.3a16.59,16.59,0,0,0,1,1.57,6.73,6.73,0,0,0,4.78,3l.39-2.07a8.74,8.74,0,0,1,.4,1,5.83,5.83,0,0,0,3.94,4,18.52,18.52,0,0,0,5.71.94,12.34,12.34,0,0,0,3.1-.1,7.39,7.39,0,0,0,2.07-.59,8.69,8.69,0,0,0,3.65-3.4,3.76,3.76,0,0,0-.05-4.09c-.25-.24-.5-.54-.79-.78s-.35-.25-.49-.4l-.74-.29c-.45,0-.84-.15-1.28-.2a4.66,4.66,0,0,0-.69.2l-1.78.88a1.47,1.47,0,0,0-.09,1.38,2.12,2.12,0,0,0,.78,1.13,2.52,2.52,0,0,0,1.23.55h.1c1.28,0,1.73.44,1.38,1.28l-1.38.14a3.72,3.72,0,0,1-1.18-.39,4.09,4.09,0,0,1-1.48-1.23,4.78,4.78,0,0,1-.49-1.08,3.38,3.38,0,0,1-.34-.89,0,0,0,0,0-.05-.05,18.29,18.29,0,0,0-1.87,1.13l-1.83.94-.14-.1c.05,0,.05-.05.09-.05A11.83,11.83,0,0,0,203,417l2-2c1.77-1,3.2-1.78,4.19-2.37a15.24,15.24,0,0,0,3.25-2.36,15.71,15.71,0,0,0,3-4c.2-.44.44-.94.64-1.48,0-.1.44-1.28,1.23-3.64a.71.71,0,0,1-.1-.3.58.58,0,0,1,.4-.54c0-.05-.05-.05-.05-.1a.25.25,0,0,1,.19-.14l.05.09a5.62,5.62,0,0,0,.5-.34,3.39,3.39,0,0,0,.73-.59c.2-.15.55-.4,1-.74l2.22-1.53c.44-.29.73-.49.83-.54a3.45,3.45,0,0,0,.59-.29,2,2,0,0,0,.45-.25.58.58,0,0,1-.1-.35,9.53,9.53,0,0,0-1.68-4.72,17.35,17.35,0,0,0-2.9-3.84,16.55,16.55,0,0,0-2.17-1.78,14.92,14.92,0,0,0-5.66-2.85,3.75,3.75,0,0,0-1.63-.1A10.36,10.36,0,0,0,208.51,383.16Z"/><path class="cls-8" d="M206,385.48c1-1,1.83-1.77,2.52-2.37a4.73,4.73,0,0,1,1.47-.83,3.12,3.12,0,0,1,1.63.1,16.09,16.09,0,0,1,5.66,2.85,19.51,19.51,0,0,1,2.17,1.78,19,19,0,0,1,2.9,3.84,9.38,9.38,0,0,1,1.68,4.72.72.72,0,0,0,.1.35c-.15.1-.3.15-.45.24a3,3,0,0,1-.59.3c-.1.05-.39.25-.83.54L220,398.53a6.24,6.24,0,0,0-1,.74,3.65,3.65,0,0,1-.74.59,2.16,2.16,0,0,0-.5.34l-.05-.1s-.14,0-.19.15,0,.05.05.1a.74.74,0,0,0-.4.54.71.71,0,0,0,.1.3c-.79,2.36-1.18,3.59-1.23,3.64-.2.49-.39,1-.64,1.48a15.17,15.17,0,0,1-6.25,6.35c-1,.59-2.42,1.38-4.19,2.37l-2,2a11.83,11.83,0,0,1-1.63,1.72.14.14,0,0,1-.09,0l.14.1,1.83-.94c.54-.34,1.13-.69,1.87-1.13l.05.05a3.2,3.2,0,0,0,.34.88,3.24,3.24,0,0,0,.49,1.09,4.26,4.26,0,0,0,2.66,1.62l1.38-.14c.35-.84-.1-1.29-1.38-1.29h-.1a2.41,2.41,0,0,1-1.23-.54,2.21,2.21,0,0,1-.78-1.13,1.5,1.5,0,0,1,.09-1.38l1.78-.88a4.66,4.66,0,0,1,.69-.2c.44.05.88.15,1.28.2l.74.29a5.21,5.21,0,0,1,.49.39,7.35,7.35,0,0,1,.79.79,3.76,3.76,0,0,1,.05,4.09,8.69,8.69,0,0,1-3.65,3.4,7.39,7.39,0,0,1-2.07.59,12.34,12.34,0,0,1-3.1.1,20.14,20.14,0,0,1-5.71-.94,6,6,0,0,1-3.94-4,8.74,8.74,0,0,0-.4-1l-.39,2.07a6.57,6.57,0,0,1-4.78-3c-.34-.54-.69-1-1-1.57a.71.71,0,0,0-.1-.3,9.72,9.72,0,0,1,.05-1l.39-3.45c0-.15,0-.3,0-.35a.44.44,0,0,0-.44.15,7.38,7.38,0,0,0-1.28,3.55v.1a7.74,7.74,0,0,1-2.27-4.53,9.92,9.92,0,0,1,.84-5.37,17.75,17.75,0,0,1,1.63-2.66,39.58,39.58,0,0,1,7.68-8,18.54,18.54,0,0,1,3.25-2.07,26,26,0,0,0,3.89-2,1.11,1.11,0,0,0,.25-.29,0,0,0,0,1,.05-.05Z"/><path class="cls-9" d="M228.89,390.35l-8.27,13.5c-8.47-1.43-15.71-6.65-21.62-15.76l5.91-12.66Q215,389.32,228.89,390.35Z"/><path class="cls-10" d="M200.28,271.23c3.5,2.56,6.8,5.22,9.9,7.93s5.61,5.12,7.58,7.09,3.6,3.69,5,5q16.47,17.58,22.45,24.82c4,4.83,6.46,7.73,7.34,8.82a39,39,0,0,1,3.35,6.79,19.94,19.94,0,0,1,1.43,8.72,22,22,0,0,1-1.23,5.32L228.89,390.3q-13.95-1-23.93-14.92l16.5-35.26c-2.17-2.95-5.37-6.94-9.65-12.06s-10.74-10.74-19.46-16.89l-1.62-45.41A48.14,48.14,0,0,1,200.28,271.23Z"/><path class="cls-8" d="M154,250.54l-10.25-3.2-1.18-18.61-12.95-2-13.15,1-1,19.46-8.87,2.85.2,41,44.37-.44Z"/><path class="cls-11" d="M161.85,432.58q-9.82-.66-29.11-1.18l-28.41-.74c-3.55-.1-6.26-.15-8-.15A134.87,134.87,0,0,0,75.42,432c-5.07.94-7.93,1.77-8.52,2.56s-1,2.61-1.13,5.47v.15a6.51,6.51,0,0,0,3.79,7.33A53.07,53.07,0,0,0,86,453l.69.15c4.23.74,7.43,1.33,9.55,1.72,3.89.74,6.84,1.33,8.81,1.68q28.37,5.16,62.45-.69c4.48-.79,8.22-1.58,11.33-2.42,4-1.13,7.53-2.21,10.44-3.3a23.22,23.22,0,0,0,5.71-2.66c.84-.68,1.38-3,1.52-6.94s.1-5.76-.24-5.47a5.94,5.94,0,0,1-1.58,1c-.69.34-2.07.34-4,0A230.47,230.47,0,0,0,161.85,432.58Z"/><path class="cls-12" d="M188.41,455.31l-.88-12.16a278,278,0,0,1-112.87,2.56l-1,11.32Q130.18,467.67,188.41,455.31Z"/><path class="cls-13" d="M149.9,248c-2.61,7-8.86,10.59-18.86,10.79h-.29c-10-.2-16.25-3.79-18.86-10.79a93.44,93.44,0,0,0-15.52,4.78,103.17,103.17,0,0,0,1.78,10.88,35.67,35.67,0,0,0,4.67,11.43,12.77,12.77,0,0,0,10.1,6.25,14.32,14.32,0,0,0,11-4.53,28.25,28.25,0,0,0,6-9.4c.25-.69.54-1.38.84-2.07v.29c.05-.15.09-.34.14-.49a0,0,0,0,1,.05-.05l.15.3c.3.69.59,1.37.84,2.06a28.19,28.19,0,0,0,6,9.41,14.14,14.14,0,0,0,11,4.53A12.81,12.81,0,0,0,159,275.17a35.47,35.47,0,0,0,4.68-11.43,103.17,103.17,0,0,0,1.78-10.88A92.69,92.69,0,0,0,149.9,248Z"/><path class="cls-14" d="M170,254.78c-1.53-.69-3-1.33-4.53-2a103.17,103.17,0,0,1-1.78,10.88A35.47,35.47,0,0,1,159,275.12a12.74,12.74,0,0,1-10.09,6.25,14.32,14.32,0,0,1-11-4.53,28.25,28.25,0,0,1-6-9.4c-.25-.69-.54-1.38-.84-2.07l-.15-.3a0,0,0,0,1,0,.05c0,.15-.09.35-.14.49v-.29c-.3.69-.59,1.38-.84,2.07a28.25,28.25,0,0,1-6,9.4,14.15,14.15,0,0,1-11,4.53,12.85,12.85,0,0,1-10.1-6.25,35.67,35.67,0,0,1-4.67-11.43,103.17,103.17,0,0,1-1.78-10.88c-1.52.64-3,1.28-4.53,2L74.65,445.66a277.13,277.13,0,0,0,112.88-2.56Z"/><path class="cls-13" d="M134.44,285.85a3.78,3.78,0,0,0-2.76-1.13,3.88,3.88,0,0,0-2.76,1.13,3.94,3.94,0,0,0,0,5.52,3.82,3.82,0,0,0,5.52,0,3.62,3.62,0,0,0,1.18-2.71A4,4,0,0,0,134.44,285.85Z"/><path class="cls-13" d="M134.44,308.73a3.78,3.78,0,0,0-2.76-1.13,3.9,3.9,0,0,0-2.76,6.64,3.8,3.8,0,0,0,5.52,0,3.59,3.59,0,0,0,1.18-2.7A3.94,3.94,0,0,0,134.44,308.73Z"/><path class="cls-9" d="M164.73,252a134.83,134.83,0,0,1-3.5,18.52c-3,17.33-5.37,34.52-6.89,51.46-.3,3.35-.55,6.7-.79,10q-2.45,33.31-2.42,88.2,0,28.95,4,38.26a13.27,13.27,0,0,0,5.37,6.4,14.55,14.55,0,0,0,3.69,1.38c1-.15,2-.34,3-.49-2.12-5.86-3.89-15.12-5.32-27.68a488.39,488.39,0,0,1-2.86-55.84c0-13.84.79-31,2.32-51.51q1.92-25.94,4.43-40.09,5.1-16.54,9.26-35.6A15.47,15.47,0,0,0,164.73,252Z"/><path class="cls-15" d="M200.09,271c-5.32-7.73-13.7-13-25.07-16q-4.14,19.05-9.26,35.6-2.5,14.19-4.43,40.09c-1.53,20.53-2.32,37.67-2.32,51.51a488.39,488.39,0,0,0,2.86,55.84q2.22,18.84,5.32,27.68a227.67,227.67,0,0,0,25.51-5.86q16.1-5.1,1.72-136.76Z"/><path class="cls-16" d="M172.83,360.93a3.2,3.2,0,0,1-.79-.59,3,3,0,0,1-.59-.79l-1.87-3.4-1.87,3.4a3,3,0,0,1-.6.79,3.15,3.15,0,0,1-.78.59l-3.4,1.87,3.4,1.87a3.61,3.61,0,0,1,1.38,1.38l1.87,3.4,1.87-3.4a3.13,3.13,0,0,1,.59-.79,3.2,3.2,0,0,1,.79-.59l3.4-1.87Z"/><path class="cls-16" d="M175.81,414.34a3.46,3.46,0,0,1-.79-.59,3.26,3.26,0,0,1-.59-.79l-1.86-3.39L170.71,413a3.5,3.5,0,0,1-1.37,1.38l-3.4,1.86,3.4,1.85a3.46,3.46,0,0,1,.78.6,3.08,3.08,0,0,1,.59.79l1.86,3.39,1.86-3.39a3.26,3.26,0,0,1,.59-.79,3.51,3.51,0,0,1,.79-.6l3.39-1.85Z"/><path class="cls-16" d="M189.3,446.61a3.2,3.2,0,0,1-.79-.59,3.33,3.33,0,0,1-.59-.79l-1.86-3.39-1.86,3.39a3.5,3.5,0,0,1-.58.79,3.78,3.78,0,0,1-.79.59l-3.4,1.86,3.4,1.86a3.7,3.7,0,0,1,.79.59,3.29,3.29,0,0,1,.58.79l1.86,3.39,1.86-3.39a3.54,3.54,0,0,1,.59-.79,3.46,3.46,0,0,1,.79-.59l3.39-1.86Z"/><path class="cls-16" d="M191.82,380.53a3.44,3.44,0,0,1-1.38-1.38l-1.86-3.4-1.86,3.4a3.5,3.5,0,0,1-1.37,1.38l-3.4,1.86,3.4,1.85a3.72,3.72,0,0,1,.78.59,3.46,3.46,0,0,1,.59.79l1.86,3.4,1.86-3.4a3.44,3.44,0,0,1,1.38-1.38l3.39-1.85Z"/><path class="cls-16" d="M182.87,327a3.44,3.44,0,0,1-1.38-1.38l-1.86-3.4-1.86,3.4a3.74,3.74,0,0,1-.58.79,3.78,3.78,0,0,1-.79.59l-3.4,1.86,3.4,1.85a3.78,3.78,0,0,1,.79.59,3.74,3.74,0,0,1,.58.79l1.86,3.4,1.86-3.4a3.44,3.44,0,0,1,1.38-1.38l3.4-1.85Z"/><path class="cls-16" d="M187.1,282.46a3.8,3.8,0,0,1-1.38-1.38l-1.85-3.4-1.86,3.4a3.72,3.72,0,0,1-.59.78,3.83,3.83,0,0,1-.79.6l-3.39,1.85,3.39,1.86a3.46,3.46,0,0,1,.79.59,3.78,3.78,0,0,1,.59.79l1.86,3.39,1.85-3.39a3.51,3.51,0,0,1,.6-.79,3.21,3.21,0,0,1,.78-.59l3.4-1.86Z"/><path class="cls-9" d="M97,252a134.83,134.83,0,0,0,3.5,18.52c3,17.33,5.37,34.52,6.89,51.46.3,3.35.55,6.7.79,10q2.44,33.31,2.41,88.2,0,28.95-4,38.26a13.27,13.27,0,0,1-5.37,6.4,14.55,14.55,0,0,1-3.69,1.38c-1-.15-2-.34-3-.49,2.12-5.86,3.89-15.12,5.32-27.68a488.39,488.39,0,0,0,2.86-55.84c0-13.84-.79-31-2.32-51.51q-1.92-25.94-4.43-40.09-5.1-16.54-9.26-35.6A15.31,15.31,0,0,1,97,252Z"/><path class="cls-15" d="M61.6,271c5.32-7.73,13.7-13,25.07-16q4.14,19.05,9.26,35.6,2.5,14.19,4.43,40.09c1.53,20.53,2.32,37.67,2.32,51.51a488.39,488.39,0,0,1-2.86,55.84q-2.22,18.84-5.32,27.68A227.67,227.67,0,0,1,69,459.89q-16.09-5.1-1.72-136.76Z"/><path class="cls-16" d="M88.91,360.93a3.2,3.2,0,0,0,.79-.59,3,3,0,0,0,.59-.79l1.87-3.4,1.87,3.4a3.2,3.2,0,0,0,.59.79,3.39,3.39,0,0,0,.79.59l3.4,1.87-3.4,1.87A3.44,3.44,0,0,0,94,366.05l-1.87,3.4-1.87-3.4a3.13,3.13,0,0,0-.59-.79,3.2,3.2,0,0,0-.79-.59l-3.4-1.87Z"/><path class="cls-16" d="M85.89,414.34a3.21,3.21,0,0,0,.78-.59,3.3,3.3,0,0,0,.6-.79l1.85-3.39L91,413a3.44,3.44,0,0,0,1.38,1.38l3.39,1.86-3.39,1.85a3.51,3.51,0,0,0-.79.6,3.33,3.33,0,0,0-.59.79l-1.86,3.39-1.85-3.39a3.3,3.3,0,0,0-.6-.79,3.25,3.25,0,0,0-.78-.6l-3.4-1.85Z"/><path class="cls-16" d="M72.4,446.61a3,3,0,0,0,.78-.59,3.11,3.11,0,0,0,.6-.79l1.85-3.39,1.86,3.39a3.44,3.44,0,0,0,1.38,1.38l3.39,1.86-3.39,1.86a3.46,3.46,0,0,0-.79.59,3.33,3.33,0,0,0-.59.79l-1.86,3.39-1.85-3.39a3.3,3.3,0,0,0-.6-.79,3.21,3.21,0,0,0-.78-.59L69,448.47Z"/><path class="cls-16" d="M69.88,380.53a3.61,3.61,0,0,0,1.38-1.38l1.85-3.4,1.86,3.4a3.78,3.78,0,0,0,.59.79,3.54,3.54,0,0,0,.79.59l3.39,1.86-3.39,1.85A3.44,3.44,0,0,0,75,385.62L73.11,389l-1.85-3.4a3.61,3.61,0,0,0-1.38-1.38l-3.4-1.85Z"/><path class="cls-16" d="M78.83,327a3.44,3.44,0,0,0,1.38-1.38l1.85-3.4,1.87,3.4a3.42,3.42,0,0,0,.58.79,3.78,3.78,0,0,0,.79.59l3.4,1.86-3.4,1.85a3.78,3.78,0,0,0-.79.59,3.42,3.42,0,0,0-.58.79l-1.87,3.4-1.85-3.4a3.44,3.44,0,0,0-1.38-1.38l-3.4-1.85Z"/><path class="cls-16" d="M74.59,282.46A3.61,3.61,0,0,0,76,281.08l1.86-3.4,1.86,3.4a3.68,3.68,0,0,0,.58.78,3.83,3.83,0,0,0,.79.6l3.4,1.85-3.4,1.86a3.46,3.46,0,0,0-.79.59,3.74,3.74,0,0,0-.58.79l-1.86,3.39L76,287.55a3.78,3.78,0,0,0-.59-.79,3.46,3.46,0,0,0-.79-.59l-3.4-1.86Z"/><path class="cls-8" d="M204.22,177.76a7.39,7.39,0,0,0,0,.92,66.65,66.65,0,0,0,1.47,10.9q3.48,14.79,14.21,14.77a12.9,12.9,0,0,0,7.67-2.76,25.87,25.87,0,0,0,6.38-7,39,39,0,0,0,4.4-9.38,33.42,33.42,0,0,0,1.63-9.9,21.29,21.29,0,0,0-3.59-12.46,12.54,12.54,0,0,0-10.78-5.78,17.52,17.52,0,0,0-13.41,5.54C209.25,165.79,206.57,170.86,204.22,177.76Z"/><path class="cls-17" d="M210.56,172a4.47,4.47,0,0,1-1.12,1,6.21,6.21,0,0,0-2.84,5.59,27.05,27.05,0,0,0,1.44,7.94,9.18,9.18,0,0,0,5.35,5.71,11.22,11.22,0,0,0,8.18.24,10.06,10.06,0,0,0,5.91-5,26,26,0,0,0,2.76-7.87,14.26,14.26,0,0,0-.84-8.1,7.64,7.64,0,0,0-6.07-5,14.19,14.19,0,0,0-6.31.92A17.09,17.09,0,0,0,210.56,172Z"/><path class="cls-8" d="M64.64,177.76a7.39,7.39,0,0,1,0,.92,65.5,65.5,0,0,1-1.48,10.9q-3.46,14.79-14.21,14.77a12.87,12.87,0,0,1-7.66-2.76,25.89,25.89,0,0,1-6.39-7,39.35,39.35,0,0,1-4.39-9.38,33,33,0,0,1-1.59-9.9,21.22,21.22,0,0,1,3.59-12.46,12.54,12.54,0,0,1,10.78-5.78,17.55,17.55,0,0,1,13.41,5.54C59.61,165.79,62.29,170.86,64.64,177.76Z"/><path class="cls-17" d="M58.34,172a4.47,4.47,0,0,0,1.12,1,6.2,6.2,0,0,1,2.83,5.59,27.37,27.37,0,0,1-1.43,7.94,9.18,9.18,0,0,1-5.35,5.71,11.25,11.25,0,0,1-8.19.24,10.24,10.24,0,0,1-5.94-5,26,26,0,0,1-2.76-7.87,14.09,14.09,0,0,1,.84-8.1,7.63,7.63,0,0,1,6.07-5,14.15,14.15,0,0,1,6.3.92A17,17,0,0,1,58.34,172Z"/><path class="cls-1" d="M233.19,162.93a79.57,79.57,0,0,0,2.31-9.43c0-.1.06-.21.06-.31a76.75,76.75,0,0,0,1.1-8.53,54.76,54.76,0,0,0-1.52-17.8l-28.07-5.52a37.44,37.44,0,0,1,3,10,104,104,0,0,1,1.15,19.38c-.21,6.74-.79,13.42-1.63,20.06-.84,6.37-1.42,12.79-1.68,19.27,0,1-.06,2-.06,3,0,5.26.11,8.68.27,10.37a54.64,54.64,0,0,0,3,11.37,25.33,25.33,0,0,0,7,10.48c2.9,2.74,5.11,4.11,6.58,4.11.26,0,1-.06,2.32-.16-2.32-1-4.32-3.37-6.06-7.32a28.35,28.35,0,0,1-2.58-11.37,55,55,0,0,1,3-17c.27-.89.69-2,1.27-3.47,1.47-3.32,2.94-6.69,4.37-10.06C229.29,174.41,231.4,168.72,233.19,162.93Z"/><path class="cls-8" d="M136.48,48.43c-.78,0-1.57.14-2.41.19Q88.71,52.54,54.39,78.27l-.1.1c-4.58,9.6-7.09,20.58-7.68,33,0,1.78-.1,3.55-.1,5.37a356,356,0,0,0,2.07,36.54q.66,6.36,1.18,11.38A114.08,114.08,0,0,0,56,193.5a92.58,92.58,0,0,0,4.58,10.15,65.85,65.85,0,0,0,29.74,28.56,84.06,84.06,0,0,0,20.83,7,111,111,0,0,0,20.54,2.17,131,131,0,0,0,22.35-1.62,100.32,100.32,0,0,0,21.62-6.31,63.73,63.73,0,0,0,18.72-12.06,65.69,65.69,0,0,0,13.39-17.58q8.72-16.19,10.93-39.15.53-5,1.19-11.38A358.67,358.67,0,0,0,222,116.73q0-23-8.61-40.09Q181.74,54,136.48,48.43Z"/><path class="cls-1" d="M172.29,53.35a126.39,126.39,0,0,0,5.07,25.26A71.87,71.87,0,0,0,190,102.5a122.54,122.54,0,0,0,18.72,18.76,40.2,40.2,0,0,0,19.5,8.67L230,71.08,205.92,49.71Z"/><path class="cls-18" d="M157.81,72.31a82,82,0,0,0,9.26-9.75,58.6,58.6,0,0,0,6.55-10.19A232,232,0,0,0,98.52,72a153.56,153.56,0,0,0-49.3,35,58.3,58.3,0,0,0-16,36.29A94.79,94.79,0,0,0,35,171a33.26,33.26,0,0,0,4.19,10.44,20.36,20.36,0,0,0,9.65,8.22c-.35-3.59-.79-7.24-1.38-10.88a56.64,56.64,0,0,1,4.43-31.86,65.9,65.9,0,0,1,20.54-26.15,129.21,129.21,0,0,1,29.35-16.94c9.8-4,19.35-8.32,28.76-12.9A115.37,115.37,0,0,0,157.81,72.31Z"/><path class="cls-1" d="M180.64,50h0L83.45,31.31A113.48,113.48,0,0,0,53.34,45.52,103.3,103.3,0,0,0,20.8,79.8,85,85,0,0,0,12.69,98,81.69,81.69,0,0,0,10,108.86a109.69,109.69,0,0,0,1.31,37.8q4.91,27.72,26.8,44.75a35.42,35.42,0,0,0,23.38,7.74,31.1,31.1,0,0,1-16-20.11,57.18,57.18,0,0,1,.42-32.43,50.42,50.42,0,0,1,8-15,99.63,99.63,0,0,1,24.33-22.85,148.7,148.7,0,0,1,17.37-9.84c9.16-4.43,19.38-8.69,30.75-12.85A212.29,212.29,0,0,0,158,71.79a58.27,58.27,0,0,0,22.64-21.85C180.64,50.05,180.64,50.05,180.64,50Z"/><path class="cls-19" d="M204.46,186.79q0-2.59-3.29-4.46a18.19,18.19,0,0,0-15.86,0q-3.28,1.86-3.28,4.46t3.28,4.42a17.83,17.83,0,0,0,15.86,0Q204.46,189.38,204.46,186.79Z"/><path class="cls-19" d="M87.61,186.79q0-2.59-3.29-4.46a16.19,16.19,0,0,0-7.93-1.82,16.17,16.17,0,0,0-7.93,1.82q-3.28,1.86-3.29,4.46t3.29,4.42a15.85,15.85,0,0,0,7.93,1.86,15.87,15.87,0,0,0,7.93-1.86Q87.61,189.38,87.61,186.79Z"/><path class="cls-20" d="M133,170.25c.06,1,.09,2.07.09,3.08q0,4.93-2.71,6.42a7,7,0,0,1-3.08.52v2a7.23,7.23,0,0,0,3.25,5.11,6,6,0,0,0,3.17,1.14"/><path class="cls-21" d="M75.86,157.14a19.41,19.41,0,0,1,19.49-19.4,19.34,19.34,0,0,1,19.5,19.4,18.65,18.65,0,0,1-5.68,13.71,19.57,19.57,0,0,1-27.59,0A18.58,18.58,0,0,1,75.86,157.14Z"/><path class="cls-21" d="M192.87,157.14a19.41,19.41,0,0,0-19.49-19.4,19.36,19.36,0,0,0-19.5,19.4,18.62,18.62,0,0,0,5.69,13.71,19.56,19.56,0,0,0,27.58,0A18.54,18.54,0,0,0,192.87,157.14Z"/><path class="cls-22" d="M186.61,159.83a15.61,15.61,0,0,0-4.17-11,13.49,13.49,0,0,0-20.12,0,16.47,16.47,0,0,0,0,21.86,13.44,13.44,0,0,0,20.12,0A15.49,15.49,0,0,0,186.61,159.83Z"/><path class="cls-21" d="M162.26,153.06a3.12,3.12,0,0,1,1-2.31,3.31,3.31,0,1,1-1,2.31Z"/><path class="cls-22" d="M82.12,159.83a15.61,15.61,0,0,1,4.17-11,13.49,13.49,0,0,1,20.12,0,16.47,16.47,0,0,1,0,21.86,13.44,13.44,0,0,1-20.12,0A15.49,15.49,0,0,1,82.12,159.83Z"/><path class="cls-21" d="M106.48,153.06a3.28,3.28,0,0,0-3.29-3.27,3.28,3.28,0,1,0,3.29,3.27Z"/><path class="cls-23" d="M109.05,197.68a23.8,23.8,0,0,0,13.28,10,39,39,0,0,0,16.24,1.43,31.26,31.26,0,0,0,15.78-5.88,17.08,17.08,0,0,0,5.71-6.91"/><path class="cls-24" d="M154.25,148.29q7.06-10.75,19.26-10.71,11.9.71,19,11.43"/><path class="cls-25" d="M181.74,175.76q-11.67,4-18.16-.95"/><path class="cls-26" d="M187.89,137l-3.1,3.85"/><path class="cls-26" d="M176,132.3l-1,5.72"/><path class="cls-26" d="M162.62,134.05l2.28,5.38"/><path class="cls-27" d="M157,120.7q18.2-10.47,39.77,8.06"/><path class="cls-24" d="M114.49,148.29q-7.08-10.75-19.26-10.71-11.91.71-19,11.43"/><path class="cls-25" d="M87,175.76q11.67,4,18.17-.95"/><path class="cls-26" d="M80.84,137,84,140.89"/><path class="cls-26" d="M92.77,132.3l1,5.72"/><path class="cls-26" d="M106.11,134.05l-2.28,5.38"/><path class="cls-27" d="M111.75,120.7Q93.56,110.23,72,128.76"/><path class="cls-19" d="M204.46,186.79q0-2.59-3.29-4.46a18.19,18.19,0,0,0-15.86,0q-3.28,1.86-3.28,4.46t3.28,4.42a17.83,17.83,0,0,0,15.86,0Q204.46,189.38,204.46,186.79Z"/><path class="cls-19" d="M87.61,186.79q0-2.59-3.29-4.46a16.19,16.19,0,0,0-7.93-1.82,16.17,16.17,0,0,0-7.93,1.82q-3.28,1.86-3.29,4.46t3.29,4.42a15.85,15.85,0,0,0,7.93,1.86,15.87,15.87,0,0,0,7.93-1.86Q87.61,189.38,87.61,186.79Z"/><path class="cls-20" d="M133,170.25c.06,1,.09,2.07.09,3.08q0,4.93-2.71,6.42a7,7,0,0,1-3.08.52v2a7.23,7.23,0,0,0,3.25,5.11,6,6,0,0,0,3.17,1.14"/><path class="cls-21" d="M75.86,157.14a19.41,19.41,0,0,1,19.49-19.4,19.34,19.34,0,0,1,19.5,19.4,18.65,18.65,0,0,1-5.68,13.71,19.57,19.57,0,0,1-27.59,0A18.58,18.58,0,0,1,75.86,157.14Z"/><path class="cls-21" d="M192.87,157.14a19.41,19.41,0,0,0-19.49-19.4,19.36,19.36,0,0,0-19.5,19.4,18.62,18.62,0,0,0,5.69,13.71,19.56,19.56,0,0,0,27.58,0A18.54,18.54,0,0,0,192.87,157.14Z"/><path class="cls-22" d="M186.61,159.83a15.61,15.61,0,0,0-4.17-11,13.49,13.49,0,0,0-20.12,0,16.47,16.47,0,0,0,0,21.86,13.44,13.44,0,0,0,20.12,0A15.49,15.49,0,0,0,186.61,159.83Z"/><path class="cls-21" d="M162.26,153.06a3.12,3.12,0,0,1,1-2.31,3.31,3.31,0,1,1-1,2.31Z"/><path class="cls-22" d="M82.12,159.83a15.61,15.61,0,0,1,4.17-11,13.49,13.49,0,0,1,20.12,0,16.47,16.47,0,0,1,0,21.86,13.44,13.44,0,0,1-20.12,0A15.49,15.49,0,0,1,82.12,159.83Z"/><path class="cls-21" d="M106.48,153.06a3.28,3.28,0,0,0-3.29-3.27,3.28,3.28,0,1,0,3.29,3.27Z"/><path class="cls-23" d="M109.05,197.68a23.8,23.8,0,0,0,13.28,10,39,39,0,0,0,16.24,1.43,31.26,31.26,0,0,0,15.78-5.88,17.08,17.08,0,0,0,5.71-6.91"/><path class="cls-24" d="M154.25,148.29q7.06-10.75,19.26-10.71,11.9.71,19,11.43"/><path class="cls-25" d="M181.74,175.76q-11.67,4-18.16-.95"/><path class="cls-26" d="M187.89,137l-3.1,3.85"/><path class="cls-26" d="M176,132.3l-1,5.72"/><path class="cls-26" d="M162.62,134.05l2.28,5.38"/><path class="cls-27" d="M157,120.7q18.2-10.47,39.77,8.06"/><path class="cls-24" d="M114.49,148.29q-7.08-10.75-19.26-10.71-11.91.71-19,11.43"/><path class="cls-25" d="M87,175.76q11.67,4,18.17-.95"/><path class="cls-26" d="M80.84,137,84,140.89"/><path class="cls-26" d="M92.77,132.3l1,5.72"/><path class="cls-26" d="M106.11,134.05l-2.28,5.38"/><path class="cls-27" d="M111.75,120.7Q93.56,110.23,72,128.76"/></g></g></g></svg>