<?xml version="1.0" encoding="utf-8"?>
<!-- Generator: Adobe Illustrator 25.2.0, SVG Export Plug-In . SVG Version: 6.00 Build 0)  -->
<svg version="1.1" id="레이어_1" xmlns="http://www.w3.org/2000/svg" xmlns:xlink="http://www.w3.org/1999/xlink" x="0px"
	 y="0px" width="252px" height="216.8px" viewBox="0 0 252 216.8" style="enable-background:new 0 0 252 216.8;"
	 xml:space="preserve">
<path style="fill:#983232;" d="M124,12.6c-32.5-0.2-59,8.6-79.4,26.5C24.2,56.9,15.3,84,17.8,120.3c2.5,36.3,15.1,60.2,38.1,71.6
	c22.9,11.4,50,16.3,81.2,14.7c31.2-1.6,55.6-9.4,73.1-23.4c17.5-14,25.7-38.3,24.5-72.9c-1.2-34.6-11.8-59.5-31.8-74.7
	S156.6,12.8,124,12.6z"/>
<path style="fill:#FF5FA3;" d="M186.9,34.1c-0.1,2.7,0.3,5.3,1,7.8c0.7,2.6,1.8,5,3.3,7.2c1.6,2.4,3.5,4.7,5.7,6.7
	c1.4,1.5,3,2.8,4.6,4c4.3,3,9.4,4.4,14.6,3.9c2.1-0.1,4.1-0.8,6-1.8c0.9-0.5,1.7-1.3,2.3-2.1c0.7-0.8,1.1-1.8,1.3-2.8
	c0.2-1.7,0.1-3.4-0.3-5.1c0-0.2-0.5-1.8-1.2-4.9c-0.5-2-1.2-4-2.1-5.9c-0.9-1.8-2.1-3.5-3.4-5c-2.9-3.5-6.3-6.5-10.1-9
	c-3-2.2-6.5-3.6-10.2-4.1c-1.9-0.2-3.7,0.1-5.5,0.8c-1.7,0.7-3.2,1.8-4.2,3.3C187.5,29.3,186.8,31.7,186.9,34.1z"/>
<path style="fill:#983232;" d="M201.2,5.6c-2.9,2-5.3,4.6-7,7.6c-1.4,2.6-2.3,5.5-2.7,8.5c-0.3,3-0.2,6,0.4,9
	c1.3,5.9,3.9,11.4,7.5,16.2c2.1,3.1,4.6,5.8,7.6,8c2.1,1.5,4.5,2.7,7,3.4c2.5,0.8,5.1,1.1,7.7,1.2c5.2,0,10.4-1.2,15.1-3.5
	c2.3-1,4.3-2.4,6.2-4c1.6-1.6,3-3.4,4.1-5.4c1.4-2.2,2.5-4.5,3.2-7c0.7-2.3,1-4.8,0.9-7.2c-0.1-2.5-0.5-4.9-1.2-7.3
	c-1.5-4.7-3.8-9.1-6.8-12.9c-1.2-1.7-2.6-3.3-4.2-4.7c-2.3-1.9-5-3.3-7.8-4.3c-3.3-1.3-6.7-2.1-10.2-2.4c-3.5-0.4-7-0.2-10.4,0.6
	C207.3,2.1,204.1,3.5,201.2,5.6z"/>
<path style="fill:#FFD4B8;" d="M60,162.5c0-0.4,0-0.7,0-1c-2.8-8.2-6-14.2-9.6-18.1c-4.1-4.4-10-6.8-16-6.6
	c-5.2-0.1-10.1,2.5-12.8,6.9c-2.9,4.4-4.4,9.6-4.3,14.8c0,4,0.7,8,1.9,11.8c1.2,3.9,3,7.7,5.2,11.2c2,3.2,4.6,6.1,7.6,8.3
	c2.6,2,5.8,3.2,9.1,3.3c8.5,0,14.2-5.9,17-17.6C59.1,171.2,59.7,166.9,60,162.5z"/>
<path style="fill:#FFB79C;" d="M52.5,154.6c0.4,0.5,0.8,0.9,1.3,1.2c2.2,1.4,3.5,4,3.4,6.7c-0.1,3.2-0.7,6.4-1.7,9.5
	c-1,3.1-3.3,5.6-6.4,6.8c-3.1,1.3-6.6,1.4-9.8,0.3c-3.1-1-5.6-3.1-7.1-6c-1.6-2.9-2.7-6.1-3.3-9.4c-0.6-3.2-0.3-6.6,1-9.7
	c1.1-3.2,3.9-5.5,7.2-6c2.6-0.2,5.1,0.2,7.5,1.1C47.7,150.2,50.4,152.1,52.5,154.6z"/>
<path style="fill:#983232;" d="M52.1,143.5c0-3.6-0.2-7.9-0.5-12.9L47,94.8l-11.7,35.8c1.1,7,3,13.8,5.7,20.3c1.2,3.1,2.9,6,5,8.7
	c1.5,1.8,2.6,2.6,3.5,2.6c1.1,0,1.9-1.8,2.2-5.3C52,154.5,52.1,150,52.1,143.5z"/>
<path style="fill:#FFD4B8;" d="M229.8,143.6c-2.8-4.4-7.7-7-12.8-6.9c-6-0.2-11.9,2.2-16,6.6c-3.6,3.8-6.7,9.8-9.6,18.1
	c0,0.3,0,0.7,0,1c0.2,4.4,0.8,8.7,1.8,13c2.8,11.7,8.4,17.6,17,17.6c3.3-0.1,6.5-1.2,9.1-3.3c3-2.3,5.6-5.1,7.6-8.3
	c2.2-3.5,4-7.2,5.2-11.2c1.2-3.8,1.9-7.8,1.9-11.8C234.2,153.2,232.7,148,229.8,143.6z"/>
<path style="fill:#FFB79C;" d="M198.9,154.6c-0.4,0.5-0.8,0.9-1.3,1.2c-2.2,1.4-3.5,4-3.4,6.7c0.1,3.2,0.7,6.4,1.7,9.5
	c1,3.1,3.3,5.6,6.4,6.8c3.1,1.3,6.6,1.4,9.8,0.3c3.1-1,5.6-3.1,7.1-6c1.6-2.9,2.7-6.1,3.3-9.4c0.6-3.2,0.3-6.6-1-9.7
	c-1.1-3.2-3.9-5.5-7.2-6c-2.6-0.2-5.1,0.2-7.5,1.1C203.7,150.2,201.1,152.1,198.9,154.6z"/>
<path style="fill:#983232;" d="M210.2,153.6c3.1-7.6,5.2-15.6,6.3-23.8c3.5-34.8,0.5-46.1-8.8-33.9c-8.4-3-11,8.3-7.8,33.9
	c-0.5,6.4-0.7,11.9-0.7,16.3c0,6.6,0.1,11.1,0.4,13.4c0.3,3.6,1,5.3,2.2,5.3c0.9,0,2.1-0.9,3.5-2.7
	C207.3,159.6,209,156.7,210.2,153.6z"/>
<path style="fill:#FFD4B8;" d="M197.4,67.3c-19.1-13.7-42.3-22.2-69.6-25.5c-28.3,2.1-53,11.1-74.3,27c-4.7,9.9-7,21.4-7,34.7
	c0.1,11,0.7,22.1,1.9,33c1.7,16.1,2.5,24.5,2.6,25.4c0,0.9,0.1,3.2,0.3,6.9c0.1,2.8,0.3,5.1,0.5,6.9c0.4,4.9,1.9,9.6,4.2,13.9
	l1.4,2.5c0.1,0.1,0.2,0.3,0.3,0.5c4.5,7,11.1,12.5,18.9,15.7c8.5,3.5,17.4,5.9,26.5,7c7.6,0.9,15.3,1.2,23,0.9
	c4.8,0.2,9.7,0.1,14.5-0.1c2.8-0.2,5.6-0.4,8.3-0.8c9.1-1.1,18-3.4,26.5-7c7.9-3.2,14.6-8.9,19.2-16.1l1.4-2.5
	c2.3-4.3,3.7-9,4.2-13.9c0.2-1.8,0.4-4.1,0.5-6.9c0.1-3.7,0.2-6,0.3-6.9c0-0.8,0.9-9.3,2.6-25.4c1.2-11,1.8-22,1.9-33
	C205.2,89.6,202.6,77.6,197.4,67.3z"/>
<path style="fill:#983232;" d="M40.1,76.1c-1,3.5-1.5,7.1-1.3,10.8c0,0.7,0.1,1.4,0.2,2.1c-0.3-0.4-0.6-0.9-0.7-1.4
	c-2.3,0-4.2,1.9-4.3,4.2c0,0.9,0.3,1.7,0.8,2.4c0.5,0.7,1.1,1.3,1.9,1.8c1.5,0.8,3.3,1.3,5,1.3c0.7,0,1.4,0.1,2.1,0.1
	c1.7,0,3.4-0.2,5-0.5c4.5-1,8.8-2.9,12.5-5.7c0.9-0.7,1.9-1.4,2.7-2.1c2.6-2,4.8-4.4,6.7-7.1c3.2-4.5,5.3-9.8,6-15.3
	C79.2,73.8,83,80.5,88,86.2c8.1,9.6,19.5,15.9,32,17.3h0.2c1.6,0.4,3.3,0.3,4.9-0.1c0.1-0.1,0.2-0.1,0.3-0.1l-0.2-0.6l-5-4
	c-4.8-3.9-8.8-8.7-11.6-14.2c2.8,2.9,5.8,5.6,9.1,7.9c0.8,0.6,1.7,1.2,2.5,1.7c12.8,8.2,26,9,39.7,2.6c-7.9-4.1-14.5-10.2-19.2-17.7
	c2.3,1.7,5.5,3.9,9.4,6.8s11.6,5.6,23.1,8.1c11.5,2.5,22.8-0.3,34.1-8.3l3.6-4.3c0.6-0.9,1.1-1.9,1.3-2.9c0.5-2.4,0-4.8-1.3-6.9
	c-1.7-2.4-3.7-4.7-5.9-6.7c-8.2-7.5-17.2-14.2-26.7-20.1c-2.4-1.7-4.2-3-5.5-3.9c-2.7-1.9-5.1-3.4-7.2-4.6
	c-13.7-7.8-31.4-11.1-53.2-9.9c-7.5,0.3-15,1.4-22.3,3.2c-7.3,1.8-14.1,4.9-20.3,9.1c-4.2,3.1-8.1,6.6-11.6,10.4
	c-3,3.1-5.4,5.8-7.4,8.1c-2.4,2.8-4.5,5.8-6.3,8.9C42.6,69.2,41.1,72.6,40.1,76.1z"/>
<path style="fill:#FF5FA3;" d="M33.3,36.2c-1.3,1.5-2.5,3.2-3.4,5c-0.9,1.9-1.6,3.9-2.1,5.9c-0.8,3-1.2,4.7-1.2,4.9
	c-0.4,1.7-0.5,3.4-0.3,5.1c0.2,1,0.7,2,1.3,2.8c0.6,0.8,1.4,1.5,2.3,2.1c1.8,1.1,3.9,1.7,6,1.8c5.2,0.5,10.4-0.9,14.6-3.9
	c1.7-1.2,3.2-2.5,4.6-4c2.1-2,4-4.3,5.7-6.7c1.5-2.2,2.6-4.7,3.3-7.2c0.7-2.5,1.1-5.2,1-7.8c0.1-2.4-0.6-4.8-1.8-6.9
	c-1-1.5-2.5-2.7-4.2-3.3c-1.7-0.7-3.6-1-5.5-0.8c-3.7,0.5-7.2,1.9-10.1,4.1C39.7,29.7,36.3,32.7,33.3,36.2z"/>
<path style="fill:#983232;" d="M41.2,1.4c-3.4-0.7-6.9-0.9-10.4-0.6C27.4,1.2,23.9,2,20.6,3.3c-2.8,1-5.5,2.4-7.8,4.3
	c-1.6,1.4-3,3-4.2,4.7c-3,3.9-5.3,8.3-6.8,12.9c-0.7,2.4-1.1,4.8-1.2,7.3c-0.1,2.4,0.2,4.9,0.9,7.2c0.8,2.4,1.9,4.8,3.2,7
	c1.1,2,2.5,3.8,4.1,5.4c1.8,1.7,3.9,3,6.2,4c4.7,2.3,9.9,3.5,15.1,3.5c2.6,0,5.2-0.4,7.7-1.2c2.5-0.7,4.9-1.9,7-3.4
	c3-2.2,5.5-4.9,7.6-8c3.6-4.8,6.1-10.4,7.5-16.2c0.6-3,0.7-6,0.4-9c-0.3-3-1.2-5.9-2.6-8.5c-1.7-3.1-4.1-5.7-7-7.6
	C47.9,3.6,44.7,2.2,41.2,1.4z"/>
<path style="fill:none;stroke:#EE6464;stroke-width:1.5444;stroke-linecap:round;stroke-linejoin:round;" d="M112.3,194.7
	c8.8,6.6,17.8,6.4,26.8-0.4"/>
<path style="fill:none;stroke:#E5815C;stroke-width:3.0783;stroke-linecap:round;stroke-linejoin:round;" d="M122.4,173.2
	c-3.2,2.3-4.3,4.7-3.3,7.1c0.7,2.2,2.5,3.8,4.7,4.2"/>
<path style="fill:#FFFFFF;" d="M185.4,157.7c0-12.9-10.5-23.4-23.5-23.4c0,0,0,0,0,0c-12.9-0.1-23.4,10.3-23.5,23.2
	c0,0.1,0,0.1,0,0.2c-0.1,6.2,2.4,12.2,6.8,16.5c9.2,9.1,24,9.1,33.2,0C183,169.9,185.5,164,185.4,157.7z"/>
<path style="fill:#FFFFFF;" d="M62.4,157.7c0-12.9,10.5-23.4,23.5-23.4c0,0,0,0,0,0c12.9-0.1,23.4,10.3,23.5,23.2c0,0.1,0,0.1,0,0.2
	c0.1,6.2-2.4,12.2-6.8,16.5c-9.2,9.1-24,9.1-33.2,0C64.8,169.9,62.3,164,62.4,157.7z"/>
<path style="fill:#2E130E;" d="M177.8,161c0.1-4.9-1.7-9.6-5-13.2c-6-6.7-16.2-7.3-22.9-1.3c-0.5,0.4-0.9,0.8-1.3,1.3
	c-6.7,7.5-6.7,18.8,0,26.3c5.9,6.7,16.1,7.3,22.8,1.4c0.5-0.4,1-0.9,1.4-1.4C176.1,170.6,177.9,165.9,177.8,161z"/>
<path style="fill:#FFFFFF;" d="M148.5,152.8c0-2.2,1.8-4,4-4c2.2,0,4,1.8,4,4c0,1-0.4,2.1-1.2,2.8c-0.7,0.8-1.8,1.2-2.8,1.1
	C150.3,156.8,148.5,155.1,148.5,152.8C148.5,152.9,148.5,152.9,148.5,152.8L148.5,152.8z"/>
<path style="fill:#2E130E;" d="M69.9,161c-0.1-4.9,1.7-9.6,5-13.2c6-6.7,16.2-7.3,22.9-1.3c0.5,0.4,0.9,0.8,1.3,1.3
	c6.7,7.5,6.7,18.8,0,26.3c-5.9,6.7-16.1,7.3-22.8,1.4c-0.5-0.4-1-0.9-1.4-1.4C71.6,170.6,69.8,165.9,69.9,161z"/>
<path style="fill:#FFFFFF;" d="M99.3,152.8c0-2.2-1.8-4-4-3.9c-1,0-2,0.4-2.8,1.1c-1.5,1.6-1.5,4.1,0,5.6c1.6,1.5,4.1,1.5,5.6,0
	C98.9,154.9,99.3,153.9,99.3,152.8z"/>
<path style="fill:none;stroke:#ECAA92;stroke-width:2.0557;stroke-linecap:round;stroke-linejoin:round;" d="M172,180.2
	c-9.4,3.2-16.7,2.8-21.9-1.1"/>
<path style="fill:none;stroke:#270F0B;stroke-width:2.0557;stroke-linecap:round;stroke-linejoin:round;" d="M138.8,147.1
	c5.7-8.7,13.4-13,23.2-12.9c9.6,0.6,17.2,5.2,22.9,13.8"/>
<path style="fill:none;stroke:#270F0B;stroke-width:1.0226;stroke-linecap:round;stroke-linejoin:round;" d="M179.4,133.5l-3.7,4.6"
	/>
<path style="fill:none;stroke:#270F0B;stroke-width:1.0226;stroke-linecap:round;stroke-linejoin:round;" d="M165,127.8l-1.2,6.9"/>
<path style="fill:none;stroke:#270F0B;stroke-width:1.0226;stroke-linecap:round;stroke-linejoin:round;" d="M148.9,129.9l2.7,6.5"
	/>
<path style="fill:none;stroke:#431E17;stroke-width:2.0557;stroke-linecap:round;stroke-linejoin:round;" d="M148.1,114.1
	c12.1-7.1,22.7-5.4,31.8,5.2"/>
<path style="fill:none;stroke:#ECAA92;stroke-width:2.0557;stroke-linecap:round;stroke-linejoin:round;" d="M75.8,180.2
	c9.4,3.2,16.7,2.8,21.9-1.1"/>
<path style="fill:none;stroke:#270F0B;stroke-width:2.0557;stroke-linecap:round;stroke-linejoin:round;" d="M109,147.1
	c-5.7-8.7-13.4-13-23.2-12.9c-9.6,0.6-17.2,5.2-22.9,13.8"/>
<path style="fill:none;stroke:#270F0B;stroke-width:1.0226;stroke-linecap:round;stroke-linejoin:round;" d="M68.4,133.5l3.7,4.6"/>
<path style="fill:none;stroke:#270F0B;stroke-width:1.0226;stroke-linecap:round;stroke-linejoin:round;" d="M82.8,127.8l1.3,6.9"/>
<path style="fill:none;stroke:#270F0B;stroke-width:1.0226;stroke-linecap:round;stroke-linejoin:round;" d="M98.9,129.9l-2.7,6.5"
	/>
<path style="fill:none;stroke:#431E17;stroke-width:2.0557;stroke-linecap:round;stroke-linejoin:round;" d="M99.6,114.1
	c-12.1-7.1-22.7-5.4-31.8,5.2"/>
</svg>
