<?xml version="1.0" encoding="utf-8"?>
<!-- Generator: Adobe Illustrator 25.2.0, SVG Export Plug-In . SVG Version: 6.00 Build 0)  -->
<svg version="1.1" id="레이어_2_1_" xmlns="http://www.w3.org/2000/svg" xmlns:xlink="http://www.w3.org/1999/xlink" x="0px"
	 y="0px" viewBox="0 0 291 748.5" style="enable-background:new 0 0 291 748.5;" xml:space="preserve">
<style type="text/css">
	.st0{fill:#190D05;}
	.st1{fill:#331A0C;}
	.st2{fill:#384E80;}
	.st3{fill:#FF9F7B;}
	.st4{fill:#FFD4B8;}
	.st5{fill:#B8ECF5;}
	.st6{fill:#75D5E5;}
	.st7{fill:#A1DDE7;}
	.st8{fill:#69B5C2;}
	.st9{fill:#405993;}
	.st10{fill:#4C67A6;}
	.st11{fill:#53B2C2;}
	.st12{fill:#6285D7;}
	.st13{fill:#311411;}
	.st14{fill:#FFB79C;}
	.st15{fill:none;stroke:#2E0A0A;stroke-width:0.53;stroke-linecap:round;stroke-linejoin:round;}
	.st16{fill:none;stroke:#DB7C5A;stroke-width:3.26;stroke-linecap:round;stroke-linejoin:round;}
	.st17{fill:none;stroke:#E06161;stroke-width:2.72;stroke-linecap:round;stroke-linejoin:round;}
	.st18{fill:#FFFFFF;}
	.st19{fill:#2D120D;}
	.st20{fill:none;stroke:#260E09;stroke-width:2.17;stroke-linecap:round;stroke-linejoin:round;}
	.st21{fill:none;stroke:#E4A68F;stroke-width:2.17;stroke-linecap:round;stroke-linejoin:round;}
	.st22{fill:#421A1A;}
</style>
<g id="레이어_2_2_">
	<g id="레이어_2-2">
		<path class="st0" d="M69.2,740.7c-1.1-1.8-1.8-3.9-1.9-6c0.3,3.4,8.6,5.2,24.8,5.5c11.6,0,22.1-1.8,31.4-5.4
			c6.8-0.9,12.1-2.6,16-5.1c0,1.4-0.1,2.8-0.2,4.3c0.6,2.5-5.1,4.8-17,6.8c-9.8,3.2-21.2,4.7-34.2,4.6
			C79.8,745.2,73.4,743.6,69.2,740.7z"/>
		<path class="st1" d="M92,713c0.1,0,0.1,0,0.2,0c3.6-0.8,7.1-1.8,10.5-3.3c0,0,0,0,0.1,0l-0.4-6.1l32.4,0.6l-0.1,5
			c0.8,1.2,1.5,2.5,2.1,3.8c1.8,4.3,2.7,9.9,2.6,16.8c-3.9,2.4-9.2,4.1-16,5.1c-9.3,3.6-19.8,5.3-31.4,5.3
			c-16.2-0.2-24.5-2.1-24.8-5.5c0-0.3,0-0.7,0-1C66.8,723.8,75,716.8,92,713z"/>
		<path class="st2" d="M98.7,710.1c-0.5-6-1-12-1.5-18c-5.5-69.2-9.2-151.7-11-215.7l63.4,3.8l-10.4,232.4
			C122.7,714.8,109.2,714,98.7,710.1z"/>
		<path class="st0" d="M247.1,740.7c1.1-1.8,1.6-3.9,1.7-6c-0.2,3.4-8.4,5.2-24.6,5.5c-10.8,0.2-21.4-1.7-31.5-5.4
			c-6.8-0.9-12.2-2.6-16.1-5.1c0.1,1.4,0.2,2.8,0.3,4.3c-0.5,2.5,5.2,4.8,17.2,6.8c9.9,3.2,21.4,4.7,34.3,4.6
			C236.7,745.2,242.9,743.6,247.1,740.7z"/>
		<path class="st1" d="M223.4,713c-0.1,0-0.1,0-0.2,0c-3.6-0.8-7.2-1.9-10.6-3.3c-0.1,0-0.1,0-0.1,0l0.2-6.1l-32.4,0.6l0.3,5
			c-0.8,1.2-1.4,2.5-2,3.8c-1.6,4.3-2.3,9.9-2.1,16.8c4,2.4,9.3,4.1,16.1,5.1c10.1,3.7,20.8,5.5,31.5,5.3
			c16.2-0.2,24.4-2.1,24.6-5.5c0-0.3,0-0.7,0-1C249,723.7,240.5,716.8,223.4,713z"/>
		<path class="st2" d="M216.6,710.1c0.3-6,0.6-12,0.9-18c3.2-69.2,4.6-151.7,4.3-215.7l-63.3,3.8l17.7,232.4
			C192.7,714.8,206.2,714,216.6,710.1z"/>
		<path class="st2" d="M96.8,454.5c-1,3.4-1.6,7-1.7,10.6c0.1,26.5,7.7,43.3,22.7,50.5c18.4,7.3,39.1,9,62.1,5.1
			c26.7-5.1,38.8-27.2,36.4-66.1L96.8,454.5z"/>
		<path class="st3" d="M75.9,412c-0.9-0.9-1.8-1.7-2.8-2.4c-0.4-0.3-0.8-0.5-1.3-0.6c-0.6-0.2-1.2-0.2-1.8,0
			c-1.6,0.3-3.1,0.9-4.5,1.8c-2.1,1.1-3.9,2.6-5.6,4.2c-1.6,1.7-2.9,3.6-3.8,5.7c-0.6,1.2-0.8,2.6-0.7,3.9c-0.1-0.1-0.2,0-0.3,0.1
			c0,0,0,0,0,0c-0.1,0.1,0,0.3,0.2,0.6c0.2,0.2,0.5,0.4,0.8,0.6c0.4,0.3,0.7,0.5,0.9,0.6c0.4,0.3,0.8,0.6,1.2,1l4.1,3.3
			c0.2,0.1,0.3,0.2,0.5,0.3c0,1.3,0.2,2.6,0.5,3.8c0.2,0.5,0.3,1,0.4,1.4c0.2,0.6,0.5,1.2,0.8,1.7c0.8,1.7,2,3.2,3.4,4.3
			c1.1,0.9,2.2,1.7,3.5,2.4c-0.4,0.1-0.8,0.3-1.2,0.5c-0.5,0.2-1,0.5-1.4,0.8c0,0-0.1,0-0.2,0.1c-0.4,0.3-0.7,0.6-1,1
			c-0.4,0.6-0.7,1.4-0.7,2.1c0,1.7,0.6,3.3,1.6,4.7c1,1.4,2.4,2.5,4.1,3.2c1.5,0.5,3.1,0.8,4.7,0.7c0.3,0,0.6,0,0.9,0
			c2.6,0,5.3-0.5,7.7-1.4c1.6-0.5,2.9-1.8,3.5-3.4c0.4,0,0.9-0.1,1.4-0.2c2.1-0.3,4-1.5,5.2-3.2c0.3-0.4,0.6-0.8,0.8-1.3
			c0.2-0.3,0.3-0.7,0.4-1.1c0.2-0.1,0.4-0.2,0.5-0.3c1.5-1.1,2.6-2.7,3.1-4.5c0.5-1.8,0.6-3.6,0.2-5.4c-0.4-2-1.2-3.8-2.4-5.5
			c-1.2-1.7-2.5-3.2-3.9-4.7c-1.9-2-4-3.8-6.2-5.5c-1.9-1.4-4-2.5-6.3-3.1c-0.1,0-0.2-0.2-0.3-0.4L75.9,412 M72.9,411.2
			c0.9,0.8,1.9,1.6,2.7,2.5l5,4.8 M80.6,418.6c0.1,0.1,0.1,0.2,0.2,0.3c1.4,0.8,2.8,1.5,4.2,2.1c1.2,0.7,2.4,1.4,3.5,2.3
			c3.2,2.5,6,5.4,8.3,8.7c0.7,0.9,1.3,1.9,1.9,2.9c0.9,1.8,1.2,3.8,0.9,5.8c-0.2,1.9-1.1,3.6-2.4,4.9v-0.1c-0.1-1.4-0.6-2.7-1.4-3.9
			c-0.1-0.2-0.3-0.2-0.5-0.2c0,0,0,0,0,0c0,0.1,0,0.3,0,0.4l0.4,3.8c0.1,0.6,0.1,0.9,0.1,1.1s-0.1,0.2-0.1,0.3
			c-0.3,0.6-0.7,1.2-1.1,1.7c-1.2,1.8-3,3-5.2,3.2l-0.4-2.3c-0.2,0.4-0.3,0.7-0.4,1.1c-0.6,2.1-2.2,3.7-4.3,4.3c-2,0.6-4.1,1-6.2,1
			c-1.1,0.1-2.2,0.1-3.4-0.1c-0.8-0.1-1.5-0.3-2.2-0.6c-1.7-0.8-3-2.1-3.9-3.6c-0.9-1.3-0.9-3.1,0-4.4c0.3-0.3,0.6-0.6,0.9-0.9
			l0.5-0.4c0.2-0.1,0.5-0.2,0.8-0.3c0.4,0,0.9-0.1,1.4-0.2c0.3,0,0.5,0.1,0.8,0.2c0.5,0.3,1.2,0.6,2,1c0.3,0.4,0.3,1,0.1,1.5
			c-0.1,0.5-0.4,0.9-0.8,1.2c-0.4,0.3-0.8,0.5-1.3,0.6H73c-1.4,0-1.9,0.5-1.5,1.4l1.5,0.1c0.4,0,0.9-0.2,1.3-0.4
			c0.6-0.3,1.1-0.7,1.6-1.3c0.2-0.4,0.4-0.8,0.5-1.2c0.2-0.3,0.3-0.6,0.4-1 M76.7,447.7c0.8,0.4,1.5,0.8,2,1.2l2,1l0.1-0.1
			c0,0,0,0-0.1,0c-0.6-0.6-1.2-1.2-1.8-1.9l-2.1-2.1c-1.9-1.1-3.5-1.9-4.6-2.5c-1.3-0.7-2.4-1.6-3.5-2.6c-1.3-1.3-2.4-2.7-3.2-4.3
			c-0.2-0.5-0.4-1-0.7-1.6c0-0.1-0.4-1.4-1.3-4c0.1-0.1,0.1-0.2,0.1-0.3c0-0.2-0.2-0.5-0.4-0.6c0,0,0,0,0-0.1s-0.1-0.2-0.2-0.1v0.1
			c-0.2-0.1-0.4-0.2-0.5-0.3c-0.3-0.2-0.5-0.4-0.8-0.6c-0.2-0.2-0.6-0.4-1.1-0.8l-2.4-1.7c-0.3-0.2-0.6-0.4-0.9-0.6
			c-0.2-0.1-0.4-0.2-0.6-0.3c-0.2-0.1-0.3-0.1-0.5-0.2c0.1-0.1,0.1-0.2,0.1-0.3c0.1-1.8,0.8-3.6,1.8-5.1c0.9-1.5,1.9-2.9,3.1-4.2
			c0.7-0.7,1.5-1.4,2.3-1.9c1.8-1.5,3.9-2.5,6.1-3.1c0.6-0.2,1.2-0.2,1.8-0.1c0.5,0.2,1,0.4,1.5,0.8L76.7,447.7z"/>
		<path class="st4" d="M75.7,413.7c-0.9-0.9-1.8-1.7-2.7-2.5c-0.5-0.4-1-0.7-1.6-0.9c-0.6-0.1-1.2-0.1-1.8,0.1
			c-2.2,0.6-4.3,1.7-6.1,3.1c-0.8,0.6-1.6,1.2-2.3,1.9c-1.2,1.2-2.3,2.7-3.1,4.2c-1.1,1.5-1.7,3.3-1.8,5.1c0,0.1,0,0.2-0.1,0.3
			c0.1,0.1,0.3,0.2,0.5,0.2c0.2,0.1,0.4,0.2,0.6,0.3c0.3,0.2,0.6,0.4,0.9,0.6l2.4,1.6c0.5,0.3,0.8,0.6,1.1,0.8
			c0.2,0.2,0.5,0.4,0.8,0.6c0.2,0.1,0.3,0.2,0.5,0.3l0-0.1c0,0,0.2,0,0.2,0.1s0,0,0,0.1c0.2,0.1,0.4,0.3,0.4,0.6
			c0,0.1-0.1,0.2-0.1,0.4c0.9,2.5,1.3,3.8,1.3,3.9c0.2,0.5,0.4,1.1,0.7,1.6c0.8,1.6,1.9,3.1,3.3,4.3c1.1,1,2.2,1.9,3.5,2.6
			c1.1,0.6,2.6,1.5,4.6,2.5l2.2,2.1c0.5,0.7,1.1,1.3,1.8,1.9c0,0,0.1,0,0.1,0l-0.2,0.1l-2-1c-0.6-0.3-1.3-0.8-2-1.2l-0.1,0
			c-0.1,0.4-0.2,0.7-0.4,1c-0.1,0.4-0.3,0.8-0.5,1.2c-0.4,0.6-1,1.1-1.6,1.3c-0.4,0.2-0.8,0.3-1.3,0.4l-1.5-0.1
			c-0.4-0.9,0.1-1.4,1.5-1.4H73c0.5-0.1,0.9-0.3,1.3-0.6c0.4-0.3,0.7-0.7,0.8-1.2c0.2-0.5,0.2-1-0.1-1.5c-0.7-0.4-1.4-0.7-1.9-1
			c-0.2-0.1-0.5-0.2-0.8-0.2c-0.5,0-0.9,0.1-1.4,0.2l-0.8,0.3c-0.2,0.1-0.4,0.2-0.5,0.4c-0.3,0.3-0.6,0.6-0.9,0.9
			c-0.9,1.3-0.9,3.1,0,4.4c0.9,1.6,2.3,2.9,4,3.6c0.7,0.3,1.5,0.5,2.2,0.6c1.1,0.2,2.2,0.2,3.4,0.1c2.1,0,4.2-0.4,6.2-1
			c2-0.7,3.5-2.3,4.1-4.3c0.1-0.4,0.2-0.8,0.4-1.1l0.4,2.3c2.1-0.3,4-1.5,5.2-3.3c0.4-0.6,0.7-1.1,1.1-1.7c0-0.1,0-0.2,0.1-0.3
			c0-0.1,0-0.5-0.1-1.1l-0.4-3.8c0-0.1,0-0.3,0-0.4c0.2,0,0.4,0,0.5,0.1c0.8,1.1,1.3,2.5,1.4,3.9v0.1c1.3-1.3,2.2-3.1,2.4-4.9
			c0.3-2-0.1-4-0.9-5.8c-0.5-1-1.1-1.9-1.7-2.9c-2.4-3.3-5.2-6.2-8.4-8.7c-1.1-0.9-2.2-1.6-3.5-2.3c-1.5-0.6-2.9-1.3-4.2-2.1
			c-0.1-0.1-0.2-0.2-0.2-0.3L75.7,413.7z"/>
		<path class="st5" d="M50.9,419l9,14.6c9.2-1.5,17-7.2,23.4-17l-6.4-13.7C69.6,412.9,61,418.3,50.9,419z"/>
		<path class="st6" d="M81.9,290.1c-3.8,2.8-7.4,5.6-10.7,8.6s-6.1,5.5-8.2,7.7s-3.9,4-5.4,5.5c-11.9,12.7-20,21.7-24.3,26.9
			s-7,8.4-8,9.5c-1.4,2.3-2.7,4.8-3.6,7.4c-1.2,3-1.8,6.2-1.6,9.4c0.2,2,0.7,3.9,1.3,5.7L50.9,419c10.1-0.7,18.7-6.1,25.9-16.1
			l-17.9-38.1c2.3-3.2,5.8-7.5,10.5-13s11.6-11.6,21.1-18.3l1.8-49.1C88.6,285.7,85.1,287.7,81.9,290.1z"/>
		<path class="st3" d="M235.5,413.5c0.9-0.9,1.8-1.7,2.8-2.4c0.4-0.3,0.8-0.5,1.3-0.6c0.6-0.1,1.2-0.1,1.8,0
			c1.6,0.3,3.2,0.9,4.6,1.8c2,1.1,3.9,2.5,5.6,4.2c1.6,1.7,2.9,3.6,3.9,5.8c0.6,1.2,0.8,2.6,0.7,3.9c0.1-0.1,0.2,0,0.3,0.1
			c0.1,0.1,0,0.3-0.1,0.6c-0.2,0.2-0.5,0.4-0.8,0.6c-0.4,0.3-0.7,0.5-0.9,0.6c-0.4,0.3-0.8,0.6-1.2,1l-4.1,3.3
			c-0.2,0.1-0.3,0.2-0.5,0.3c0,1.3-0.2,2.6-0.5,3.9c-0.1,0.5-0.3,1-0.4,1.4c-0.2,0.6-0.5,1.2-0.8,1.7c-0.8,1.7-2,3.2-3.4,4.3
			c-1.1,0.9-2.2,1.7-3.4,2.4c0.4,0.2,0.8,0.3,1.2,0.5c0.5,0.2,1,0.5,1.4,0.8c0,0,0.1,0,0.1,0.1c0.4,0.3,0.8,0.7,1.1,1.1
			c0.4,0.6,0.7,1.4,0.7,2.1c0,1.7-0.6,3.3-1.6,4.7c-1.1,1.4-2.5,2.5-4.1,3.2c-1.5,0.5-3.1,0.8-4.7,0.7c-0.3,0-0.6,0-0.9,0
			c-2.6,0-5.3-0.5-7.8-1.4c-1.6-0.5-2.9-1.8-3.5-3.4c-0.4,0-0.9-0.1-1.4-0.2c-2.1-0.3-4-1.5-5.2-3.2c-0.3-0.4-0.6-0.8-0.8-1.3
			c-0.2-0.3-0.3-0.7-0.4-1.1c-0.2-0.1-0.4-0.2-0.5-0.3c-1.5-1.1-2.6-2.7-3.1-4.5c-0.5-1.8-0.6-3.6-0.2-5.4c0.4-2,1.2-3.8,2.4-5.5
			c1.2-1.7,2.5-3.2,3.9-4.7c1.9-2,3.9-3.8,6.1-5.5c1.9-1.4,4-2.5,6.3-3.1c0.1,0,0.1-0.2,0.3-0.4L235.5,413.5 M238.4,412.6
			c-0.7,0.6-1.7,1.5-2.7,2.5l-5,4.8 M230.6,420c-0.1,0.1-0.1,0.2-0.2,0.3c-1.4,0.8-2.8,1.5-4.2,2.1c-1.2,0.7-2.4,1.4-3.5,2.3
			c-3.2,2.5-6,5.4-8.3,8.7c-0.7,0.9-1.3,1.9-1.8,2.9c-0.9,1.8-1.2,3.8-0.9,5.8c0.2,1.9,1.1,3.6,2.4,4.9V447c0.1-1.4,0.6-2.7,1.4-3.9
			c0.1-0.2,0.3-0.2,0.5-0.1s0.1,0.2,0.1,0.4l-0.4,3.8c-0.1,0.6-0.1,0.9-0.1,1.1s0.1,0.2,0.1,0.3c0.3,0.6,0.7,1.2,1.1,1.7
			c1.2,1.8,3,3,5.2,3.3l0.4-2.3c0.2,0.4,0.3,0.7,0.4,1.1c0.6,2.1,2.2,3.7,4.3,4.3c2,0.6,4.1,1,6.2,1c1.1,0.1,2.2,0.1,3.4-0.1
			c0.8-0.1,1.5-0.3,2.2-0.6c1.7-0.8,3-2.1,3.9-3.6c0.9-1.3,0.9-3.1,0-4.4c-0.3-0.3-0.6-0.6-0.9-0.9l-0.5-0.4
			c-0.2-0.1-0.5-0.2-0.8-0.3c-0.4,0-0.9-0.1-1.4-0.2c-0.3,0.1-0.5,0.1-0.8,0.2c-0.5,0.3-1.2,0.6-1.9,1c-0.3,0.4-0.3,1-0.1,1.5
			c0.1,0.5,0.4,0.9,0.8,1.2c0.4,0.3,0.8,0.5,1.3,0.6h0.1c1.4,0,1.9,0.5,1.5,1.4l-1.5,0.1c-0.4-0.1-0.9-0.2-1.3-0.4
			c-0.6-0.3-1.2-0.8-1.6-1.3c-0.2-0.4-0.4-0.8-0.5-1.2c-0.2-0.3-0.3-0.6-0.4-1l0,0c-0.8,0.4-1.5,0.8-2.1,1.2l-2,1l-0.1-0.1
			c0,0,0,0,0.1,0c0.6-0.6,1.2-1.2,1.8-1.9l2.1-2.1l4.6-2.5c1.3-0.7,2.4-1.6,3.5-2.6c1.3-1.3,2.4-2.7,3.3-4.3c0.2-0.5,0.4-1,0.7-1.6
			c0-0.1,0.4-1.4,1.3-3.9c-0.2-0.3-0.1-0.7,0.2-0.9c0,0,0.1,0,0.1-0.1c0,0-0.1,0-0.1-0.1s0.1-0.2,0.2-0.1v0.1
			c0.2-0.1,0.4-0.2,0.5-0.3c0.3-0.2,0.6-0.4,0.8-0.6c0.2-0.2,0.6-0.4,1.1-0.8l2.4-1.7c0.3-0.2,0.6-0.4,0.9-0.6
			c0.2-0.1,0.4-0.2,0.6-0.3c0.2-0.1,0.3-0.1,0.5-0.2c-0.1-0.1-0.1-0.2-0.1-0.3c-0.1-1.8-0.8-3.6-1.8-5.1c-0.9-1.5-1.9-2.9-3.1-4.2
			c-0.7-0.7-1.5-1.3-2.3-1.9c-1.8-1.5-3.9-2.5-6.2-3.2c-0.6-0.1-1.2-0.2-1.8-0.1c-0.5,0.2-1,0.5-1.4,0.8L230.6,420z"/>
		<path class="st4" d="M235.6,415.1c1.1-1.1,2-2,2.7-2.5c0.5-0.4,1-0.7,1.6-0.9c0.6-0.1,1.2-0.1,1.8,0.1c2.2,0.6,4.3,1.7,6.1,3.1
			c0.8,0.6,1.6,1.2,2.3,1.9c1.2,1.2,2.3,2.7,3.1,4.2c1,1.5,1.7,3.3,1.8,5.1c0,0.1,0,0.2,0.1,0.3c-0.1,0.1-0.3,0.2-0.5,0.2
			c-0.2,0.1-0.4,0.2-0.6,0.3c-0.3,0.2-0.6,0.4-0.9,0.6l-2.4,1.7c-0.5,0.3-0.8,0.6-1.1,0.8c-0.2,0.2-0.5,0.4-0.8,0.6
			c-0.2,0.1-0.4,0.2-0.5,0.3l-0.1-0.1c-0.1,0-0.1,0-0.2,0.1s0,0,0,0.1c-0.2,0.1-0.4,0.3-0.4,0.6c0,0.1,0,0.2,0.1,0.3
			c-0.9,2.5-1.3,3.9-1.3,4c-0.2,0.5-0.4,1.1-0.7,1.6c-0.8,1.6-1.9,3.1-3.3,4.3c-1.1,1-2.2,1.9-3.5,2.6c-1.1,0.6-2.6,1.5-4.6,2.5
			l-2.1,2.1c-0.5,0.7-1.1,1.3-1.8,1.9c0,0-0.1,0-0.1,0l0.1,0l2-1c0.6-0.3,1.3-0.8,2-1.2l0.1,0c0.1,0.4,0.2,0.7,0.4,1
			c0.1,0.4,0.3,0.8,0.5,1.2c0.4,0.6,1,1,1.6,1.3c0.4,0.2,0.8,0.3,1.3,0.4l1.5-0.1c0.4-0.9-0.1-1.4-1.5-1.4h-0.1
			c-0.5-0.1-1-0.3-1.3-0.6c-0.4-0.3-0.7-0.7-0.8-1.2c-0.2-0.5-0.2-1,0.1-1.5c0.7-0.4,1.4-0.7,1.9-1c0.2-0.1,0.5-0.2,0.8-0.2
			c0.5,0,0.9,0.1,1.4,0.2c0.3,0.1,0.5,0.2,0.8,0.3c0.2,0.1,0.4,0.2,0.5,0.4c0.3,0.3,0.6,0.6,0.9,0.9c0.9,1.3,0.9,3.1,0,4.4
			c-0.9,1.6-2.3,2.9-3.9,3.6c-0.7,0.3-1.5,0.5-2.2,0.6c-1.1,0.2-2.2,0.2-3.4,0.1c-2.1,0-4.2-0.4-6.2-1c-2-0.7-3.6-2.3-4.3-4.3
			c-0.1-0.4-0.2-0.8-0.4-1.1l-0.4,2.3c-2.1-0.3-4-1.5-5.2-3.3c-0.4-0.6-0.7-1.1-1.1-1.7c0-0.1,0-0.2-0.1-0.3c0-0.1,0-0.5,0-1.1
			l0.4-3.8c0-0.1,0-0.3,0-0.4c-0.2,0-0.4,0-0.5,0.1c-0.8,1.1-1.3,2.5-1.4,3.9v0.1c-1.3-1.3-2.2-3.1-2.4-4.9c-0.3-2,0-4,0.9-5.8
			c0.5-1,1.1-2,1.8-2.9c2.4-3.3,5.2-6.2,8.3-8.7c1.1-0.9,2.3-1.6,3.5-2.3c1.5-0.6,2.9-1.3,4.2-2.1c0.1-0.1,0.2-0.2,0.2-0.3
			L235.6,415.1z"/>
		<path class="st5" d="M260.4,420.4l-9,14.6c-9.2-1.5-17-7.2-23.4-17l6.5-13.7C241.7,414.3,250.4,419.7,260.4,420.4z"/>
		<path class="st6" d="M229.4,291.4c3.8,2.8,7.4,5.6,10.7,8.6s6.1,5.5,8.2,7.7s3.9,4,5.4,5.5c11.9,12.7,20,21.7,24.3,26.9
			s7,8.4,8,9.5c1.4,2.3,2.7,4.8,3.6,7.4c1.2,3,1.8,6.2,1.6,9.4c-0.2,2-0.6,3.9-1.3,5.8l-29.5,48.3c-10.1-0.7-18.7-6.1-25.9-16.1
			l17.9-38.2c-2.3-3.2-5.8-7.5-10.5-13s-11.6-11.6-21.1-18.3l-1.8-49.1C222.8,287.1,226.3,289.1,229.4,291.4z"/>
		<path class="st6" d="M190,312.8l6.2-39.4c-14.8-7.6-29.7-11-44.6-10.4c-12.4,0.6-25.8,4.1-40.2,10.5l0.3,39.1L190,312.8L190,312.8
			z"/>
		<path class="st7" d="M173.7,259.8c-4.8,7.9-11.2,12.3-19.3,13.2c-0.3,0-0.6,0-0.8,0c-0.5,0-1.1,0-1.6-0.1
			c-10.7-1-17.1-5.5-19.1-13.8l-12,9.9c3.2,11.4,7.5,20.8,12.7,28.1c1.5-2.9,3.3-5.9,5.3-9.1c2.6-4.3,5.7-8.3,9.3-11.9
			c2.9-1.6,6.1-1.5,9.5,0.1c3.8,3.7,7,7.8,9.7,12.3c2,3.2,3.7,5.9,5.1,8c5.3-6.5,9.6-15.5,12.9-27
			C182,265.6,178.1,262.3,173.7,259.8z"/>
		<path class="st8" d="M154.5,273c8-0.8,14.4-5.2,19.3-13.1c0.3-1.6-6.6-2.2-20.6-2.1c-8.9-0.6-15.6-0.2-20.3,1.3
			c2,8.2,8.4,12.9,19.1,13.8c0.5,0,1.1,0,1.6,0.1C153.9,272.9,154.2,272.9,154.5,273z"/>
		<path class="st4" d="M179.3,269l-11.1-3.5l-1.3-20.2l-14-2.2l-14.2,1.1l-1.1,21.1l-9.6,3.1l0.2,44.4l48-0.5L179.3,269z"/>
		<path class="st6" d="M190,312.8l5.2-38.9c-14.1-2.7-28.6-2.6-42.6,0.3c-15.5-3.6-29.3-3.3-41.2,1l0.3,37.5
			C137.6,334.3,163.7,334.3,190,312.8z"/>
		<path class="st9" d="M187.9,466.1c-7.1-0.5-17.6-0.9-31.5-1.3l-30.8-0.9c-3.8-0.1-6.8-0.1-8.7-0.1c-7.6,0-15.1,0.5-22.6,1.6
			c-5.5,1-8.6,2-9.2,2.8s-1.1,2.8-1.2,5.9v0.1c-0.7,3.3,1,6.7,4.1,8c5.6,2.9,11.6,4.9,17.8,5.9l0.8,0.1c4.6,0.8,8,1.5,10.3,1.9
			c4.2,0.8,7.4,1.4,9.5,1.8c20.4,3.7,43,3.5,67.6-0.7c4.8-0.8,8.9-1.7,12.3-2.6c4.4-1.2,8.1-2.4,11.4-3.5c2.2-0.7,4.3-1.6,6.2-2.9
			c0.9-0.7,1.5-3.3,1.7-7.5s0.1-6.2-0.2-5.9c-0.5,0.4-1.1,0.8-1.7,1.1c-0.8,0.4-2.2,0.4-4.4,0C208.9,468,198.4,466.7,187.9,466.1z"
			/>
		<path class="st9" d="M200.9,273.1c-2.8-0.8-5.8-1.5-9-2.1c-3.8,19.7-16.5,35.6-38,47.5c-21.3-12-33.8-27.8-37.7-47.5
			c-2.7,0.5-5.3,1.1-7.7,1.7c6.2,25.2,21.5,43,45.7,53.3C177.4,316.1,192.9,298.5,200.9,273.1z"/>
		<path class="st10" d="M229.2,291.3c-5.8-8.4-15.2-14.4-28.3-18.1c-8,25.4-23.5,43-46.6,52.9c-24.2-10.4-39.5-28.1-45.8-53.3
			c-13.7,3.7-23.6,9.8-29.6,18.5l6.1,56.3c-6.9,49.3-8.3,89.4-4.3,120.3c1.4,6.9,5.8,10.8,13.3,11.6c41.5,8,81.7,8.1,120.5,0.2
			c8.2-2.9,12.5-7.1,12.9-12.6c3.9-30.8,2.4-70.6-4.4-119.5L229.2,291.3z"/>
		<path class="st5" d="M167.4,288.3c2,3.2,3.7,5.9,5.1,8c5.3-6.5,9.6-15.5,12.9-27c-3.5-3.9-7.5-7.4-11.9-10.2
			c-4.7,8.3-11.1,12.9-19,13.7c-0.3,0-0.6,0-0.8,0c-0.5,0-1.1,0-1.6-0.1c-10.7-1-17.1-5.5-19.1-13.8l-12,9.9
			c3.2,11.5,7.4,20.9,12.7,28.1c1.5-2.9,3.3-5.9,5.3-9.1c2.6-4.3,5.7-8.3,9.3-11.9c2.9-1.6,6.1-1.5,9.5,0.1
			C161.4,279.7,164.6,283.8,167.4,288.3z"/>
		<path class="st11" d="M156.1,289.5c0-1.7-1.4-3-3-3c-1.7,0-3,1.4-3,3c0,1.7,1.4,3,3,3c0.8,0,1.5-0.3,2.1-0.9
			C155.8,291,156.1,290.3,156.1,289.5z"/>
		<path class="st11" d="M157,308.8c0-1.7-1.4-3-3-3s-3,1.4-3,3c0,1.7,1.4,3,3,3c0.8,0,1.5-0.3,2.1-0.9
			C156.7,310.4,157,309.6,157,308.8z"/>
		<path class="st12" d="M100.1,344.8L86.9,358l13.2,13.2l13.2-13.2L100.1,344.8z"/>
		<path class="st12" d="M127.2,344.8L114,358l13.2,13.2l13.2-13.2L127.2,344.8z"/>
		<path class="st12" d="M154.3,344.8L141.1,358l13.2,13.2l13.2-13.2L154.3,344.8z"/>
		<path class="st12" d="M181.3,344.8L168.1,358l13.2,13.2l13.2-13.2L181.3,344.8z"/>
		<path class="st12" d="M208.5,344.8L195.3,358l13.2,13.2l13.2-13.2L208.5,344.8z"/>
		<path class="st13" d="M197.4,20.4c-1.8-1.7-3.6-3.2-5.6-4.6c-8.9-6.1-19.7-9.2-32.2-9.2c-6.4,0-12.7,0.6-19,1.7l-4.2,0.9
			c-8.2,1.5-16.2,3.6-24,6.4c-4,1.5-8.2,2.8-12.4,3.8c-11.2,3.1-22.9,3.9-34.4,2.3c-10.9-1.5-21.3-5.3-30.5-11.2
			C31,7.9,26.8,5.4,22.6,3c-0.4,8.9,1.9,17.6,6.5,25.2c1.8,2.9,3.8,5.7,6,8.3c4.3,5.1,9.5,9.4,15.3,12.7c1.2,0.6,2.4,1.3,3.5,2
			c-8.1,5-16.8,9-25.8,12.1c-9.2,3-18.8,5-28.4,5.9l-0.1,0.3c6.6,5.2,14.2,8.9,22.4,10.8c6.5,1.6,13.1,2.7,19.8,3.3l-1.6,10.7
			c-1.2,5.1-3.5,9.9-6.9,13.9c-1.7,1.9-3.7,3.6-5.9,4.9c-1.1,0.6-2.3,1.2-3.4,1.8c1.5,0,4.6-0.7,9.5-2c2.5-0.7,4.3-1.3,5.6-1.7
			c0,0.5,0,1.1-0.1,1.8c-0.2,4.2-0.3,7.7-0.3,10.5v1c0,13.3,1,23.4,3.1,30.3c1,3.1,2.2,6.2,3.6,9.2c0.9,1.9,2.5,5.3,4.7,9.9
			c1,2,2.3,3.8,3.8,5.4c0.1,0.1,0.1,0.2,0.2,0.2c-0.2,0.4-0.4,0.8-0.6,1.2c-0.9,1.6-1.4,3.4-1.5,5.3c-0.1,1.5,0.3,3,1.1,4.3
			c0.9,1.2,2.2,2,3.7,2.4c2.3,0.7,4.7,1.2,7.2,1.6c4.5,0.7,8.3,1.4,11.3,1.9c6.6,1.2,11.6,2.5,15,4.1c2.9,1.6,5,2.8,6.3,3.4
			c3.1,1.4,6.4,2.2,9.8,2.4c5.4,0.6,14,0.9,25.7,0.9c18,0.1,36-0.8,53.9-2.6l5-0.6c9.9-0.9,19.8-2.6,29.5-5.1
			c12.3-2.9,23.2-9.8,31-19.8c7.8-9.7,13.3-21,16.3-33.1c1.7-6.7,3.5-15.1,5.3-25.3c4.3,2.2,8,3.4,11.1,3.4c1.4,0,2.8-0.2,4.1-0.7
			c0.7-0.2,1.4-0.7,1.8-1.3c-5.7-1.7-10.4-7-14.1-15.8c0-0.1,0-0.2-0.1-0.2l-0.2-0.7c-1.4-4.8-2.8-9.6-4.2-14.4
			c-2.8-9.5-5.6-19-8.5-28.5c-2.9-9.8-8.8-18.3-16.9-24.5c-7.6-6-16.3-10.5-25.6-13.3C212.9,21.9,205.2,20.6,197.4,20.4z"/>
		<path class="st4" d="M261,192.7c0.1-4.5-1.2-9-3.7-12.8c-2.4-3.8-6.6-6-11.1-5.9c-5.2-0.2-10.2,1.9-13.7,5.7
			c-3.1,3.3-5.9,8.5-8.2,15.5c0,0.3,0,0.6,0,0.9c0.2,3.8,0.7,7.5,1.5,11.1c2.4,10.1,7.3,15.1,14.6,15.1c2.9-0.1,5.6-1.1,7.9-2.8
			c2.6-2,4.8-4.4,6.6-7.2c1.9-3,3.4-6.2,4.5-9.6C260.4,199.6,260.9,196.2,261,192.7z"/>
		<path class="st14" d="M243.9,183.7c-2.2-0.2-4.4,0.2-6.4,1c-2.6,1-4.9,2.6-6.7,4.7c-0.3,0.4-0.7,0.7-1.1,1
			c-1.9,1.3-3.1,3.4-2.9,5.8c0.1,2.8,0.6,5.5,1.5,8.1c0.9,2.7,2.9,4.8,5.5,5.9c2.7,1.1,5.7,1.2,8.4,0.2c2.6-0.8,4.8-2.7,6.1-5.1
			c1.4-2.5,2.3-5.2,2.8-8c0.5-2.8,0.2-5.7-0.8-8.3C249.3,186.2,246.8,184.1,243.9,183.7z"/>
		<path class="st4" d="M40.7,192.7c-0.1-4.5,1.2-9,3.7-12.8c2.4-3.8,6.6-6,11-5.9c5.2-0.2,10.2,1.9,13.7,5.7
			c3.1,3.3,5.8,8.5,8.2,15.5c0,0.3,0,0.6,0,0.9c-0.2,3.8-0.7,7.5-1.5,11.1c-2.4,10.1-7.2,15.1-14.6,15.1c-2.9-0.1-5.6-1.1-7.9-2.8
			c-2.6-2-4.8-4.4-6.6-7.2c-1.9-3-3.4-6.2-4.5-9.6C41.3,199.6,40.8,196.2,40.7,192.7z"/>
		<path class="st14" d="M57.8,183.7c2.2-0.2,4.4,0.2,6.4,1c2.6,1,4.9,2.6,6.7,4.7c0.3,0.4,0.7,0.7,1.1,1c1.9,1.3,3.1,3.4,2.9,5.8
			c-0.1,2.8-0.6,5.5-1.4,8.1c-0.9,2.7-2.9,4.8-5.5,5.9c-2.7,1.1-5.7,1.2-8.4,0.2c-2.6-0.8-4.8-2.7-6.1-5.1c-1.4-2.5-2.3-5.2-2.8-8
			c-0.5-2.8-0.2-5.7,0.8-8.4C52.5,186.2,54.9,184.2,57.8,183.7z"/>
		<path class="st13" d="M74.4,188.6c0-4.1-0.2-9-0.5-14.6H55.3c1.3,7.9,3.5,15.6,6.5,23c1.4,3.5,3.3,6.8,5.6,9.8c1.7,2,3,3,4,3
			c1.3,0,2.2-2,2.5-6.1C74.3,201.1,74.4,196,74.4,188.6z"/>
		<path class="st13" d="M242.6,197c3-7.4,5.2-15.2,6.5-23.1h-18.5c-0.3,5.6-0.5,10.5-0.5,14.6c0,7.5,0.1,12.6,0.4,15.2
			c0.4,4,1.2,6,2.5,6c1,0,2.3-1,4-3C239.3,203.8,241.2,200.5,242.6,197z"/>
		<path class="st15" d="M249,174c-1.3,7.9-3.5,15.6-6.5,23.1c-1.4,3.5-3.3,6.8-5.6,9.8c-1.7,2-3,3-4,3c-1.3,0-2.1-2-2.5-6
			c-0.3-2.7-0.4-7.8-0.4-15.2c0-4.1,0.2-9,0.5-14.6"/>
		<path class="st4" d="M154.7,62.5c-0.8,0-1.7,0.1-2.4,0.2c-31,2.7-58.3,12.8-81.8,30.4l-0.1,0.1c-4.7,9.9-7.3,21.1-7.8,33.8
			c0,1.8-0.1,3.6-0.1,5.5c0.1,12.5,0.8,25.1,2.1,37.5c0.4,4.4,0.9,8.2,1.2,11.6c0.9,10.1,3,20.1,6.4,29.7c1.4,3.6,2.9,7,4.7,10.4
			c6.8,12.8,17.5,23.1,30.6,29.4c6.8,3.3,14,5.7,21.4,7.2c6.9,1.4,14,2.1,21.1,2.2c7.7,0.1,15.4-0.5,22.9-1.7
			c7.6-1.3,15.1-3.5,22.2-6.5c7.1-3,13.6-7.2,19.2-12.4c5.6-5.2,10.2-11.3,13.7-18c6-11.1,9.7-24.4,11.2-40.2
			c0.3-3.4,0.7-7.3,1.2-11.6c1.4-12.5,2.1-25,2.1-37.6c0-15.8-3-29.5-8.9-41.1C212,75.9,185.6,66.3,154.7,62.5z"/>
		<path class="st13" d="M206.1,60.5c-5.7-12.3-14.2-18.2-25.4-17.6s-22.9,0.9-35.1,1c-6.9,0-13.7,0.4-20.6,1.2
			c-9.3,1.1-17,2.9-23.1,5.5c-8.3,3.3-16.4,7.3-24.1,11.9c-6.9,4.2-11.5,8-13.7,11.5c-1.9,2.9-3.5,6.1-4.6,9.4
			c-1,3.2-1.7,6.6-1.9,9.9c-0.2,2.8-0.3,7.2-0.4,13.1c0,4.4,0,8.1,0,11.2c0.1,0,0.2-0.1,0.3-0.1c0.1,0,0.2,0,0.2,0
			c0.7,0,1.4-0.2,2-0.2c1.3-0.1,2.6-0.3,3.8-0.6c2.9-0.6,5.7-1.3,8.5-2.1c2.8-0.9,5.5-1.9,8.2-3c2.1-0.9,4.2-1.9,6.4-2.9s4-2,6-3.1
			c1.7-0.9,3.4-1.8,5.2-2.7c11.8-6.1,22.8-13.8,32.6-22.8c-0.1,0.5-0.3,1-0.5,1.5c-4.1,8.3-10,15.6-17.4,21.2
			c-0.9,0.8-1.8,1.6-2.6,2.3l-4,3.2c-1.3,1-2.7,2-4.1,3.1s-2.8,1.9-4.2,2.9s-2.9,1.8-4.4,2.7c-0.7,0.4-1.5,0.9-2.2,1.3
			c1.1-0.2,2.3-0.5,3.4-0.7c2.3-0.6,4.6-1.3,6.8-1.9s4.5-1.4,6.8-2.1s4.5-1.5,6.7-2.3s4.5-1.6,6.7-2.5c2.7-1.1,5.4-2.2,8.1-3.4
			c1.6-0.7,3.4-1.5,5-2.3l3.2-1.6c1.9-1,3.8-2,5.6-3.1c2.2-1.2,4.4-2.5,6.6-3.8s4.3-2.8,6.4-4.2c1.4-1,2.8-2,4.1-3
			c2.1-1.7,4.3-3.3,6.4-5.1c-1.5,3.1-3.4,6-5.5,8.7c-0.3,0.4-0.6,0.8-0.9,1.2c-1.3,1.7-2.6,3.2-4,4.7c-1.4,1.5-2.8,2.8-4.4,4.2
			c-1.5,1.4-3.1,2.6-4.8,3.8c-1.6,1.2-3.4,2.4-5.1,3.5c-1.2,0.8-2.3,1.5-3.5,2.1s-2.4,1.3-3.6,2c2-0.6,4.1-1.3,6.1-2s4-1.5,6-2.3
			c2.2-0.9,4.5-1.8,6.7-2.9l6.6-3.1c3.8-2,7.6-4.1,11.2-6.5c7.2-4.5,14-9.8,20.2-15.7C197.8,74.4,202.6,67.8,206.1,60.5z"/>
		<path class="st13" d="M246.1,76.6l-22.3-24.2l-24,4.7c-0.1,4.1,0.1,8.3,0.6,12.4c1.2,9.2,3.8,18.2,7.9,26.5
			c3.9,8.1,9.9,15.1,17.2,20.3c1,0.6,1.9,1.3,3,1.8c-3.6-7.1-6.4-14.5-8.2-22.3c3.1,6.5,7.9,12.1,13.9,16.3c2.7,1.9,5.6,3.3,8.8,4.2
			L246.1,76.6z"/>
		<path class="st16" d="M145.2,199.7c5.4-6.8,11-6.7,16.8,0.3"/>
		<path class="st17" d="M128,213.7c3.1,4.9,7.9,8.6,13.5,10.2c5.3,1.6,11,2.1,16.5,1.4c5.8-0.5,11.4-2.6,16.1-6
			c2.5-1.8,4.5-4.2,5.8-7"/>
		<path class="st18" d="M216.7,175c0-4.9-2.1-9.6-5.8-12.9c-8-7.1-20-7.1-28.1,0c-7.1,6.3-7.8,17.1-1.5,24.2c0.5,0.5,0.9,1,1.5,1.5
			c8,7.1,20.1,7.1,28.1,0C214.7,184.6,216.8,179.9,216.7,175z"/>
		<path class="st18" d="M89.5,175c0-4.9,2.1-9.6,5.8-12.9c8-7.1,20-7.1,28.1,0c7.1,6.3,7.8,17.1,1.5,24.2c-0.5,0.5-0.9,1-1.5,1.5
			c-8,7.1-20,7.1-28,0C91.6,184.6,89.4,179.9,89.5,175z"/>
		<path class="st19" d="M208.8,175.7c0.1-3.7-1.3-7.3-3.8-10c-4.6-5.1-12.4-5.5-17.5-1c-0.3,0.3-0.7,0.6-1,1c-5,5.7-5,14.3,0,20
			c4.5,5.1,12.3,5.6,17.4,1.1c0.4-0.3,0.7-0.7,1.1-1.1C207.5,183,208.9,179.4,208.8,175.7z"/>
		<path class="st18" d="M186.5,169.5c0-1.7,1.4-3,3-3c1.7,0,3,1.4,3,3s-1.4,3-3,3c-0.8,0-1.5-0.3-2.1-0.9
			C186.8,171.1,186.4,170.3,186.5,169.5z"/>
		<path class="st19" d="M97.4,175.7c-0.1-3.7,1.3-7.3,3.8-10c4.5-5.1,12.4-5.5,17.5-1c0.3,0.3,0.7,0.6,1,1c5,5.7,5,14.3,0,20
			c-4.5,5.1-12.3,5.6-17.4,1.1c-0.4-0.3-0.7-0.7-1.1-1.1C98.7,183,97.3,179.4,97.4,175.7z"/>
		<path class="st18" d="M119.8,169.5c0-1.7-1.4-3-3-3c-1.7,0-3,1.4-3,3s1.4,3,3,3c0.8,0,1.5-0.3,2.1-0.9
			C119.5,171.1,119.8,170.3,119.8,169.5z"/>
		<path class="st20" d="M177.5,167.5c4.8-7.3,11.3-11,19.6-10.9c8.1,0.5,14.5,4.4,19.3,11.6"/>
		<path class="st21" d="M205.4,191.7c-7.9,2.7-14.1,2.3-18.5-1"/>
		<path class="st22" d="M214.7,133.8c-3.1-1.8-6.5-3-10-3.4c-2.2-0.2-4.4-0.2-6.6,0c-3.4,0.1-6.9,0.5-10.3,1.2c-1.3,0.3-3,0.8-5,1.5
			c-1.5,0.5-2.9,1-4.4,1.7c-0.7,0.4-1.3,0.9-1.9,1.4c-0.5,0.5-0.8,1.3-0.8,2c0,0.5,0.1,1,0.4,1.5c0.3,0.4,0.5,0.6,0.6,0.5
			s0.1-0.1,0.2,0c1.6,0.1,3.1,0.2,4.7,0.1c3.1-0.1,8.1,0.1,14.9,0.6c8.4,0.6,13.9,0.8,16.4,0.8c1,0,2-0.1,3-0.4
			c1-0.2,1.8-0.9,2.3-1.9c0.3-0.6,0.3-1.2,0.2-1.8c-0.1-0.6-0.4-1.2-0.7-1.7C216.8,135.1,215.8,134.3,214.7,133.8z"/>
		<path class="st20" d="M128.8,167.5c-4.8-7.3-11.3-11-19.6-10.9c-8.1,0.5-14.5,4.4-19.3,11.6"/>
		<path class="st21" d="M100.8,191.7c7.9,2.7,14.1,2.3,18.5-1"/>
		<path class="st22" d="M91.6,133.8c3.1-1.8,6.5-3,10-3.4c2.2-0.2,4.4-0.2,6.6,0c3.4,0.1,6.9,0.5,10.3,1.2c1.3,0.3,3,0.8,5,1.5
			c1.5,0.5,2.9,1,4.3,1.7c0.7,0.4,1.3,0.9,1.9,1.4c0.5,0.5,0.8,1.3,0.9,2c0,0.5-0.1,1-0.4,1.5c-0.3,0.4-0.5,0.6-0.6,0.5
			s-0.1-0.1-0.2,0c-1.6,0.1-3.1,0.2-4.7,0.1c-3.1-0.1-8.1,0.1-14.8,0.6c-8.4,0.6-13.9,0.8-16.4,0.8c-1,0-2-0.1-3-0.4
			c-1-0.2-1.8-0.9-2.2-1.9c-0.3-0.5-0.3-1.2-0.2-1.8c0.1-0.6,0.4-1.2,0.7-1.7C89.5,135.1,90.4,134.3,91.6,133.8z"/>
	</g>
</g>
</svg>
