<?xml version="1.0" encoding="utf-8"?>
<!-- Generator: Adobe Illustrator 25.2.0, SVG Export Plug-In . SVG Version: 6.00 Build 0)  -->
<svg version="1.1" id="레이어_2_1_" xmlns="http://www.w3.org/2000/svg" xmlns:xlink="http://www.w3.org/1999/xlink" x="0px"
	 y="0px" width="236.7px" height="228.8px" viewBox="0 0 236.7 228.8" style="enable-background:new 0 0 236.7 228.8;"
	 xml:space="preserve">
<path style="fill:#983232;" d="M6.2,70.7c-0.3,0.9-0.6,1.7-0.9,2.6c-1.1,3-2,6.1-2.8,9.2c-2.6,10.9-2.6,22.4,0,33.3
	c1.4,3.8,3.9,7.2,7.1,9.8c2,1.7,4.3,3.1,6.8,4.1c9,35.1,22.6,59.2,40.8,72.2c19.1,13.6,43.4,19.2,73.1,16.6s51.7-12.8,66.2-30.8
	c12.3-15.2,21.4-36.2,27.2-62.9c5.4-3.9,9.2-9.7,10.7-16.2c0.5-2.2,0.7-4.4,0.8-6.6c0-0.9,0-1.8,0-2.8c-0.4-13.8-3.9-27.4-10.1-39.7
	c-13.4-26.9-37.6-46.8-66.6-54.6c-30.8-8.5-57.1-2.7-79,17.4c-0.9,1.1-1.8,2.3-2.6,3.5l-1.6,2.4c-1.6-0.5-3.2-0.8-4.9-0.9
	C39.2,26.3,17.8,40.8,6.2,70.7z"/>
<path style="fill:#FFD4B8;" d="M49.8,171c0-0.4,0-0.8,0-1.1c-3-8.7-6.3-15.1-10.1-19.2c-4.4-4.7-10.6-7.2-17-7
	c-5.5-0.1-10.7,2.7-13.6,7.3c-3.1,4.7-4.7,10.2-4.5,15.8c0,4.3,0.7,8.5,2,12.5c1.3,4.2,3.2,8.2,5.5,11.9c2.1,3.4,4.9,6.4,8.1,8.9
	c2.8,2.2,6.2,3.4,9.7,3.5c9.1,0,15.1-6.2,18-18.7C49,180.3,49.6,175.6,49.8,171z"/>
<path style="fill:#FFB79C;" d="M41.9,162.6c0.4,0.5,0.9,0.9,1.4,1.3c2.4,1.5,3.8,4.2,3.6,7.1c-0.1,3.4-0.7,6.8-1.8,10
	c-1.1,3.3-3.5,5.9-6.8,7.2c-3.3,1.4-7,1.5-10.4,0.3c-3.2-1-5.9-3.3-7.5-6.3c-1.7-3.1-2.9-6.5-3.5-10c-0.6-3.4-0.3-7,1-10.3
	c1.2-3.4,4.1-5.8,7.7-6.4c2.7-0.2,5.4,0.2,8,1.2C36.8,158,39.6,160,41.9,162.6z"/>
<path style="fill:#983232;" d="M41.5,150.8c0-3.9-0.2-8.4-0.5-13.7l-4.9-38l-12.4,38c1.2,7.4,3.2,14.6,6.1,21.5
	c1.3,3.3,3.1,6.4,5.3,9.2c1.5,1.9,2.8,2.8,3.7,2.8c1.2,0,2-1.9,2.3-5.7C41.4,162.5,41.5,157.8,41.5,150.8z"/>
<path style="fill:#FFD4B8;" d="M230.1,151c-3-4.6-8.1-7.4-13.6-7.3c-6.4-0.2-12.6,2.3-17,7c-3.8,4.1-7.2,10.4-10.1,19.2
	c0,0.4,0,0.7,0,1.1c0.2,4.6,0.9,9.2,1.9,13.8c3,12.4,9,18.7,18,18.7c3.5-0.1,6.9-1.3,9.7-3.5c3.2-2.4,5.9-5.4,8.1-8.9
	c2.4-3.7,4.3-7.7,5.5-11.9c1.3-4,2-8.3,2-12.5C234.8,161.1,233.2,155.6,230.1,151z"/>
<path style="fill:#FFB79C;" d="M197.4,162.6c-0.4,0.5-0.9,0.9-1.4,1.3c-2.4,1.5-3.8,4.2-3.6,7.1c0.1,3.4,0.7,6.8,1.8,10
	c1.1,3.3,3.6,5.9,6.8,7.2c3.3,1.4,7,1.5,10.4,0.3c3.2-1,5.9-3.3,7.5-6.3c1.7-3.1,2.9-6.5,3.5-10c0.6-3.4,0.3-7-1-10.3
	c-1.2-3.4-4.1-5.9-7.7-6.4c-2.7-0.2-5.4,0.2-8,1.2C202.4,158,199.6,160,197.4,162.6z"/>
<path style="fill:#983232;" d="M209.3,161.5c3.3-8.1,5.5-16.6,6.6-25.2c3.7-36.9,0.6-48.9-9.4-36c-8.9-3.1-11.7,8.8-8.3,36
	c-0.5,6.8-0.7,12.6-0.7,17.3c0,7,0.1,11.7,0.4,14.2c0.4,3.8,1.1,5.7,2.3,5.7c0.9,0,2.2-0.9,3.7-2.8
	C206.2,167.9,208,164.8,209.3,161.5z"/>
<path style="fill:#FFD4B8;" d="M195.7,70c-20.3-14.5-44.9-23.6-73.8-27.1c-30,2.2-56.3,11.8-78.9,28.7c-5,10.5-7.5,22.8-7.5,36.8
	c0.1,11.7,0.7,23.4,2,35.1c1.8,17.1,2.7,26,2.7,26.9s0.2,3.3,0.3,7.3c0.1,3,0.3,5.4,0.5,7.3c0.5,5.2,2,10.2,4.4,14.8l1.5,2.7
	c4.8,7.7,11.9,13.7,20.3,17.1c9,3.7,18.4,6.2,28.1,7.4c16.2,1.3,32.5,1.3,48.7,0c9.7-1.2,19.1-3.6,28.1-7.4
	c8.4-3.4,15.5-9.4,20.3-17.1l1.5-2.7c2.4-4.6,3.9-9.6,4.4-14.8c0.2-1.9,0.4-4.3,0.5-7.3c0.1-3.9,0.2-6.3,0.3-7.3
	c0.1-0.9,1-9.8,2.7-26.9c1.3-11.7,1.9-23.4,2-35.1C203.9,93.7,201.2,80.9,195.7,70z"/>
<path style="fill:#983232;" d="M73.5,64c-1.1-0.8-2-1.4-2.6-1.8c-1-0.6-2.3-2.4-3.9-5.3s-4-3.6-7.2-2.2c-3.6,1.7-6.8,3.9-9.7,6.5
	c-3.3,2.9-6.2,5.5-8.9,8c-2.2,2-4.2,4.3-6,6.6c-6.7,8.6-10.5,16.7-11.2,24.5c-0.4,3.2-0.1,6.4,0.9,9.5c0.6,1.5,1.4,2.9,2.4,4.1
	c1,1.2,2.3,2.2,3.8,2.9c0.9,0.4,1.9,0.7,2.9,0.9c3.5,0.5,7.7-0.5,12.5-3.1c7.1-3.8,13.5-8.9,18.7-15.1c5.3-6.1,9.4-13.1,12.2-20.7
	c0.7-1.8,1.1-3.6,1.4-5.5c0-0.1,0-0.1,0-0.2c0.2-1.8-0.2-3.5-1-5.1c-0.5-0.8-1.2-1.6-1.9-2.2C75.1,65.1,74.4,64.6,73.5,64z"/>
<path style="fill:#742222;" d="M92.7,43.8c-2.9-0.2-5.9,0.5-8.5,1.9c-1.7,1-3,2.4-4.1,4.1c-1.2,2.1-1.9,4.5-2.1,6.9
	c-0.4,3,0.4,7.2,2.3,12.7c0.3,1,0.6,1.8,0.9,2.6c3.9-1.6,7.9-2.8,11.9-3.8c7.3-1.9,14.8-3,22.3-3.3c-1.3-2.3-2.3-4.2-3.1-5.5
	c-2.3-3.8-5-7.4-8.1-10.6c-1.3-1.3-2.7-2.4-4.4-3.3C97.5,44.3,95.1,43.8,92.7,43.8z"/>
<path style="fill:#983232;" d="M140.6,33.5c-7.2-2.4-12.2-4-14.7-4.8c-13.6-4.2-24.3-6.3-31.9-6.3c-3.3,0-6.6,0.5-9.8,1.4
	c-2.6,0.7-4.3,4.1-4.9,10.1s-3.9,8-9.6,5.7c-5.8-2.3-8.7,0.5-8.7,8.3c0,7.8,2.3,13.8,7,18.1c1.7,1.5,3.6,2.7,5.7,3.6
	c1.8,1,3.5,2.1,5,3.5c0.6-0.3,1.3-0.7,2-1c-0.1-0.2-0.2-0.3-0.2-0.5c-0.5-1.2-0.5-1,0.3,0.5l0.6-0.2c-0.2-0.7-0.5-1.6-0.9-2.6
	c-1.9-5.5-2.6-9.8-2.3-12.7c0.2-2.4,0.9-4.8,2.1-6.9c1-1.7,2.4-3.1,4.1-4.1c2.6-1.4,5.5-2.1,8.5-1.9c2.5,0,4.9,0.5,7.1,1.6
	c1.6,0.9,3.1,2,4.4,3.3c3.1,3.2,5.9,6.7,8.1,10.6c0.8,1.4,1.9,3.2,3.1,5.5c1,1.8,2.1,4,3.3,6.4c2.7,5.3,4.9,9.2,6.5,11.8
	c2.3,3.8,5.1,7.3,8.3,10.4c1.2,1.1,3,2.6,5.3,4.4c2,1.6,4.1,3.1,6.4,4.3c3.5,1.6,7.2,2.6,11.1,2.9c3.8,0.4,7.6,0.4,11.4,0.1
	c3.6-0.3,7.1-1.1,10.4-2.2c0.3,0.8,0.6,1.6,0.9,2.4c1.7,4.4,4.1,8.6,7.1,12.3c3,3.7,7,6.6,11.5,8.2c2.6,0.9,5.4,1.4,8.1,1.6
	c0.8,0.1,1.6,0.1,2.4,0.2c2.8,0.1,5.5-0.1,8.2-0.8c2.5-0.6,4.9-1.8,6.9-3.5v-5h-0.6c-0.1-1.3-0.2-2.6-0.3-4
	c-0.2-1.9-0.3-3.8-0.5-5.8c-0.6-6.3-1.6-12.6-3.1-18.8c-4.3-18.5-11.6-31-21.9-37.5c-6-3.7-12.4-6.7-19.1-8.7
	c-5.3-1.7-14.2-4-26.6-6.7C149.1,36.3,145.6,35.2,140.6,33.5z"/>
<path style="fill:none;stroke:#EE6464;stroke-width:1.6393;stroke-linecap:round;stroke-linejoin:round;" d="M107.9,202
	c9.4,7,18.9,6.8,28.5-0.5"/>
<path style="fill:none;stroke:#E5815C;stroke-width:3.2676;stroke-linecap:round;stroke-linejoin:round;" d="M118.6,179.1
	c-3.3,2.5-4.5,5-3.5,7.5c0.7,2.3,2.6,4,5,4.4"/>
<path style="fill:#FFFFFF;" d="M185.5,162.7c0-13.7-11.2-24.8-24.9-24.8c0,0,0,0,0,0c-13.7-0.1-24.8,10.9-24.9,24.6
	c0,0.1,0,0.1,0,0.2c-0.1,6.6,2.5,13,7.3,17.5c9.8,9.7,25.5,9.7,35.3,0C182.9,175.7,185.6,169.3,185.5,162.7z"/>
<path style="fill:#FFFFFF;" d="M54.9,162.7c0-13.7,11.2-24.8,24.9-24.8c0,0,0,0,0,0c13.7-0.1,24.8,10.9,24.9,24.6c0,0.1,0,0.1,0,0.2
	c0.1,6.6-2.5,13-7.3,17.5c-9.8,9.7-25.5,9.7-35.3,0C57.5,175.7,54.8,169.3,54.9,162.7z"/>
<path style="fill:#2E130E;" d="M177.4,166.2c0.1-5.2-1.8-10.2-5.3-14c-6.3-7.1-17.2-7.7-24.4-1.4c-0.5,0.4-0.9,0.9-1.4,1.4
	c-7.1,8-7.1,20,0,27.9c6.3,7.1,17.1,7.8,24.2,1.5c0.5-0.5,1-1,1.5-1.5C175.6,176.3,177.6,171.3,177.4,166.2z"/>
<path style="fill:#FFFFFF;" d="M146.3,157.5c0-2.3,1.9-4.2,4.2-4.2c2.3,0,4.2,1.9,4.2,4.2c0,1.1-0.4,2.2-1.2,3
	c-0.8,0.8-1.9,1.2-3,1.2C148.2,161.7,146.3,159.9,146.3,157.5C146.3,157.6,146.3,157.5,146.3,157.5L146.3,157.5z"/>
<path style="fill:#2E130E;" d="M62.9,166.2c-0.1-5.2,1.8-10.2,5.3-14c6.3-7.1,17.2-7.7,24.4-1.4c0.5,0.4,0.9,0.9,1.4,1.4
	c7.1,8,7.1,20,0,27.9c-6.3,7.1-17.1,7.8-24.2,1.5c-0.5-0.5-1-1-1.5-1.5C64.7,176.3,62.8,171.3,62.9,166.2z"/>
<path style="fill:#FFFFFF;" d="M94.1,157.5c0-2.3-1.9-4.2-4.3-4.2c-1.1,0-2.1,0.4-2.9,1.2c-1.6,1.6-1.6,4.3,0,6c1.6,1.6,4.3,1.6,6,0
	C93.6,159.7,94.1,158.6,94.1,157.5z"/>
<path style="fill:none;stroke:#ECAA92;stroke-width:2.1821;stroke-linecap:round;stroke-linejoin:round;" d="M171.2,186.5
	c-10,3.4-17.7,3-23.3-1.2"/>
<path style="fill:none;stroke:#270F0B;stroke-width:2.1821;stroke-linecap:round;stroke-linejoin:round;" d="M136,151.4
	c6-9.2,14.3-13.7,24.6-13.7c10.2,0.6,18.3,5.5,24.3,14.6"/>
<path style="fill:none;stroke:#431E17;stroke-width:2.1821;stroke-linecap:round;stroke-linejoin:round;" d="M139.5,116.6
	c11.6-8.6,22.7-8,33.4,1.7"/>
<path style="fill:none;stroke:#ECAA92;stroke-width:2.1821;stroke-linecap:round;stroke-linejoin:round;" d="M69.2,186.5
	c9.9,3.4,17.7,3,23.3-1.2"/>
<path style="fill:none;stroke:#270F0B;stroke-width:2.1821;stroke-linecap:round;stroke-linejoin:round;" d="M104.3,151.4
	c-6-9.2-14.2-13.7-24.6-13.7c-10.1,0.6-18.2,5.5-24.3,14.6"/>
<path style="fill:none;stroke:#431E17;stroke-width:2.1821;stroke-linecap:round;stroke-linejoin:round;" d="M100.9,116.6
	c-11.6-8.6-22.7-8-33.4,1.7"/>
</svg>
