<?xml version="1.0" encoding="utf-8"?>
<!-- Generator: Adobe Illustrator 25.2.0, SVG Export Plug-In . SVG Version: 6.00 Build 0)  -->
<svg version="1.1" id="레이어_2_1_" xmlns="http://www.w3.org/2000/svg" xmlns:xlink="http://www.w3.org/1999/xlink" x="0px"
	 y="0px" width="163px" height="180.3px" viewBox="0 0 163 180.3" style="enable-background:new 0 0 163 180.3;"
	 xml:space="preserve">
<g>
	<path style="fill:#581F15;" d="M139.6,46.4C124.9,35.6,105.6,30.1,81.6,30c-24-0.1-43.5,6.2-58.6,18.9C7.9,61.6,3.4,81,9.4,107.1
		s15.6,43.9,28.8,53.3c13.2,9.5,30.1,13.3,50.8,11.5c20.6-1.8,35.9-8.9,46-21.4c10-12.5,17-30.3,21-53.4
		C159.8,74.1,154.4,57.1,139.6,46.4z"/>
	<path style="fill:#FFD4B8;" d="M4.8,125c2.1-3.2,5.6-5.1,9.5-5.1c4.4-0.2,8.7,1.6,11.8,4.9c2.7,2.8,5,7.3,7.1,13.3
		c0,0.3,0,0.5,0,0.8c-0.2,3.2-0.6,6.4-1.3,9.6c-2.1,8.6-6.2,13-12.5,13c-2.4-0.1-4.8-0.9-6.7-2.4c-2.2-1.7-4.1-3.8-5.6-6.2
		c-1.7-2.6-2.9-5.3-3.8-8.2c-0.9-2.8-1.4-5.7-1.4-8.7C1.5,132,2.6,128.2,4.8,125z"/>
	<path style="fill:#FFB79C;" d="M27.5,133.1c0.3,0.3,0.6,0.6,1,0.9c1.7,1.1,2.6,2.9,2.5,4.9c-0.1,2.4-0.5,4.7-1.3,7
		c-0.7,2.3-2.5,4.1-4.7,5c-2.3,1-4.9,1-7.2,0.2c-2.2-0.7-4.1-2.3-5.2-4.4c-1.2-2.2-2-4.5-2.4-6.9c-0.4-2.4-0.2-4.9,0.7-7.1
		c0.8-2.4,2.9-4.1,5.3-4.4c1.9-0.2,3.8,0.1,5.5,0.8C24,129.9,26,131.3,27.5,133.1z"/>
	<path style="fill:#581F15;" d="M27.3,124.9c0-2.7-0.1-5.8-0.3-9.5L23.5,89l-8.6,26.4c0.8,5.1,2.2,10.1,4.2,15
		c0.9,2.3,2.1,4.4,3.7,6.4c1.1,1.3,1.9,2,2.6,2c0.8,0,1.4-1.3,1.6-3.9C27.2,133,27.3,129.7,27.3,124.9z"/>
	<path style="fill:#FFD4B8;" d="M158.2,125c-2.1-3.2-5.6-5.1-9.5-5.1c-4.4-0.2-8.7,1.6-11.8,4.9c-2.6,2.8-5,7.3-7,13.3
		c0,0.3,0,0.5,0,0.8c0.2,3.2,0.6,6.4,1.3,9.6c2.1,8.6,6.2,13,12.5,13c2.4-0.1,4.8-0.9,6.7-2.4c2.2-1.7,4.1-3.8,5.6-6.2
		c1.7-2.6,3-5.3,3.8-8.2c0.9-2.8,1.4-5.7,1.4-8.7C161.5,132,160.4,128.2,158.2,125z"/>
	<path style="fill:#FFB79C;" d="M135.5,133.1c-0.3,0.3-0.6,0.6-1,0.9c-1.7,1.1-2.6,2.9-2.5,4.9c0.1,2.4,0.5,4.7,1.3,7
		c0.7,2.3,2.5,4.1,4.7,5c2.3,1,4.9,1,7.2,0.2c2.2-0.7,4.1-2.3,5.2-4.4c1.2-2.2,2-4.5,2.4-6.9c0.4-2.4,0.2-4.9-0.7-7.1
		c-0.8-2.4-2.9-4.1-5.3-4.4c-1.9-0.2-3.8,0.1-5.5,0.8C139,129.9,137,131.3,135.5,133.1z"/>
	<path style="fill:#581F15;" d="M136.1,114.8c-0.3,4.7-0.5,8.8-0.5,12c0,4.9,0.1,8.2,0.3,9.9c0.3,2.6,0.8,3.9,1.6,3.9
		c0.7,0,1.5-0.7,2.6-2c1.5-2,2.7-4.1,3.7-6.4c2.3-5.6,3.8-11.5,4.6-17.5c2.6-25.6,0.4-34-6.5-25C135.7,87.7,133.8,96,136.1,114.8z"
		/>
	<path style="fill:#FFD4B8;" d="M134.3,68.8C120.2,58.7,103.1,52.4,83.1,50C62.2,51.5,44,58.2,28.3,69.9c-3.5,7.3-5.2,15.8-5.2,25.5
		c0,8.1,0.5,16.3,1.4,24.4c1.2,11.8,1.9,18.1,1.9,18.7c0,0.6,0.1,2.3,0.2,5.1c0.1,2.1,0.2,3.8,0.3,5.1c0.3,3.6,1.4,7.1,3.1,10.2
		l1,1.9c3.3,5.3,8.3,9.5,14.1,11.9c6.2,2.6,12.8,4.3,19.5,5.1c5.6,0.7,11.3,0.9,16.9,0.7c5.6,0.2,11.3,0,16.9-0.7
		c6.7-0.8,13.3-2.5,19.5-5.1c5.8-2.4,10.8-6.5,14.1-11.9l1-1.9c1.7-3.2,2.7-6.7,3.1-10.2c0.2-1.3,0.3-3,0.3-5.1
		c0.1-2.7,0.2-4.4,0.2-5.1c0-0.6,0.7-6.8,1.9-18.7c0.9-8.1,1.3-16.2,1.4-24.4C140,85.2,138.1,76.3,134.3,68.8z"/>
	<path style="fill:#581F15;" d="M89.5,5.4c-0.9-0.4-1.8-0.8-2.7-1.2c-3.5-1.4-7.2-2.2-11-2.4c-4.6-0.2-9.3,0.6-13.6,2.4
		c-2.5,1.1-4.9,2.4-7.1,4.1c-8.1,6.1-12.4,14.3-12.7,24.5c-3.3-0.8-6.8-1.2-10.2-0.9c-6.3,0.3-12.2,2.8-16.7,7.2
		c-5,4.6-7.6,11.3-7.1,18c0.3,3,1,5.9,2.4,8.6c0.2,0.3,0.3,0.7,0.5,1c1.8,3.4,4.5,6.4,7.6,8.7c1,0.8,2.2,1.4,3.4,1.8
		c3.3,1.1,6.3,0.1,9.1-2.9c2.4,1.5,5.1,2.5,8,2.8c4.7,0.5,9.3-0.9,13-3.8c4.4-3.3,7.1-8.5,7.3-14c0.7,1.9,1.9,3.7,3.3,5.2
		c4.2,4.3,10,6.5,16,6.2c5-0.1,9.8-2.1,13.4-5.6c2.7,2.8,6.4,4.4,10.3,4.4c6.6,0.3,12-2,16.1-6.8c0.6,4.7,3.2,9,7.2,11.6
		c4.1,3,9.1,4.4,14.1,4.2c1.7-0.1,3.4-0.4,5.1-0.8c4.1-1,7.8-3.5,10.3-6.9c0.1-0.2,0.2-0.3,0.4-0.5c2.3-3.3,3.5-7.3,3.3-11.4
		c-0.3-7.8-3.8-13.8-10.5-17.9c-5.9-3.7-11.9-4-17.7-0.7c-0.1-1.3-0.4-2.5-0.8-3.8c-1.1-3.6-3.2-6.8-6.2-9.1
		c-5.7-4.6-11.6-5.1-17.8-1.5c-0.6-3.5-2.1-6.8-4.2-9.7C98.7,11.4,94.4,7.8,89.5,5.4z"/>
	<path style="fill:none;stroke:#EE6464;stroke-width:1.1381;stroke-linecap:round;stroke-linejoin:round;" d="M73.4,160.4
		c6.5,4.9,13.1,4.8,19.8-0.3"/>
	<path style="fill:none;stroke:#E5815C;stroke-width:2.2686;stroke-linecap:round;stroke-linejoin:round;" d="M79.4,153
		c0.2-1.6,1.5-2.7,3.1-2.6c2.2,0,3.4,0.9,3.6,2.8"/>
	<path style="fill:#FFFFFF;" d="M127.2,133.1c0-9.5-7.8-17.3-17.3-17.2c0,0,0,0,0,0c-9.5-0.1-17.2,7.6-17.3,17.1c0,0.1,0,0.1,0,0.2
		c-0.1,4.6,1.8,9,5,12.2c6.8,6.7,17.7,6.7,24.5,0C125.4,142.1,127.3,137.7,127.2,133.1z"/>
	<path style="fill:#FFFFFF;" d="M36.6,133.1c0-9.5,7.8-17.3,17.3-17.2c0,0,0,0,0,0c9.5-0.1,17.2,7.6,17.3,17.1c0,0.1,0,0.1,0,0.2
		c0.1,4.6-1.8,9-5.1,12.2c-6.8,6.7-17.7,6.7-24.5,0C38.3,142.1,36.5,137.7,36.6,133.1z"/>
	<path style="fill:#2E130E;" d="M121.6,135.5c0.1-3.6-1.3-7.1-3.7-9.7c-4.4-4.9-12-5.4-16.9-1c-0.3,0.3-0.7,0.6-1,1
		c-4.9,5.5-4.9,13.9,0,19.4c4.4,4.9,11.9,5.4,16.8,1.1c0.4-0.3,0.7-0.7,1.1-1.1C120.4,142.6,121.7,139.1,121.6,135.5z"/>
	<path style="fill:#FFFFFF;" d="M100,129.5c0-1.6,1.3-2.9,2.9-2.9s2.9,1.3,2.9,2.9c0,0.8-0.3,1.5-0.9,2.1c-0.5,0.6-1.3,0.9-2.1,0.8
		C101.3,132.5,100,131.2,100,129.5C100,129.6,100,129.5,100,129.5L100,129.5z"/>
	<path style="fill:#2E130E;" d="M42.1,135.5c-0.1-3.6,1.3-7.1,3.7-9.7c4.4-4.9,12-5.4,16.9-1c0.3,0.3,0.7,0.6,1,1
		c4.9,5.5,4.9,13.9,0,19.4c-4.4,4.9-11.9,5.4-16.8,1.1c-0.4-0.3-0.7-0.7-1.1-1.1C43.4,142.6,42.1,139.1,42.1,135.5z"/>
	<path style="fill:#FFFFFF;" d="M63.8,129.5c0-1.6-1.3-2.9-3-2.9c-0.8,0-1.5,0.3-2,0.8c-1.1,1.1-1.1,3,0,4.1c1.1,1.1,3,1.1,4.1,0
		C63.5,131.1,63.8,130.3,63.8,129.5z"/>
	<path style="fill:none;stroke:#ECAA92;stroke-width:1.5149;stroke-linecap:round;stroke-linejoin:round;" d="M117.3,149.7
		c-6.9,2.4-12.3,2.1-16.1-0.8"/>
	<path style="fill:none;stroke:#270F0B;stroke-width:1.5149;stroke-linecap:round;stroke-linejoin:round;" d="M92.9,125.3
		c4.2-6.4,9.9-9.5,17.1-9.5c7.1,0.4,12.7,3.8,16.9,10.2"/>
	<path style="fill:none;stroke:#431E17;stroke-width:1.5149;stroke-linecap:round;stroke-linejoin:round;" d="M95.3,101.1
		c8-6,15.8-5.6,23.2,1.2"/>
	<path style="fill:none;stroke:#ECAA92;stroke-width:1.5149;stroke-linecap:round;stroke-linejoin:round;" d="M46.5,149.7
		c6.9,2.4,12.3,2.1,16.1-0.8"/>
	<path style="fill:none;stroke:#270F0B;stroke-width:1.5149;stroke-linecap:round;stroke-linejoin:round;" d="M70.9,125.3
		c-4.2-6.4-9.9-9.5-17.1-9.5c-7,0.4-12.7,3.8-16.9,10.2"/>
	<path style="fill:none;stroke:#431E17;stroke-width:1.5149;stroke-linecap:round;stroke-linejoin:round;" d="M68.5,101.1
		c-8-6-15.8-5.6-23.2,1.2"/>
</g>
</svg>
