<?xml version="1.0" encoding="utf-8"?>
<!-- Generator: Adobe Illustrator 25.2.0, SVG Export Plug-In . SVG Version: 6.00 Build 0)  -->
<svg version="1.1" id="레이어_1" xmlns="http://www.w3.org/2000/svg" xmlns:xlink="http://www.w3.org/1999/xlink" x="0px"
	 y="0px" width="319.6px" height="215.1px" viewBox="0 0 319.6 215.1" style="enable-background:new 0 0 319.6 215.1;"
	 xml:space="preserve">
<g id="레이어_1_1_">
</g>
<path style="fill:#64331C;" d="M294.5,37.8c-0.7-1.1-1.5-2.2-2.4-3.1c-1.7-1.8-3.7-3.2-5.9-4.2c-2.9-1.1-6-1.8-9.2-1.8
	c-3.8-0.3-7.6,0.1-11.2,1.4c-1.7,0.7-3.3,1.7-4.7,2.9c-1.4,1.2-2.6,2.6-3.5,4.2c-0.9,1.6-1.6,3.3-1.9,5.1c-0.3,1.8-0.4,3.7-0.1,5.5
	c0.3,2.1,1,4.2,1.9,6.1c1,2.1,2.3,4,3.8,5.7c2,2.1,4.5,3.7,7.3,4.7c2.8,1,5.7,1.5,8.6,1.5c0.4,0,0.9,0,1.3,0
	c-0.2,0.7-0.4,1.3-0.5,1.8c-0.8,3.8-0.2,7.7,1.9,11c1,1.6,2.3,2.9,3.8,3.9c1.3,0.8,2.7,1.4,4.2,1.7c-1.3,1.5-2.2,3.3-2.8,5.3
	c-0.4,1.7-0.6,3.4-0.6,5.1c-0.1,1.4,0,2.9,0.2,4.3c0.3,1,0.8,2,1.4,2.9c0.9,1.3,1.9,2.5,3.1,3.5c-0.9,1.6-1.6,3.3-2,5.1
	c-0.4,1.9-0.5,3.8-0.3,5.7c0.2,1.8,0.6,3.6,1.4,5.2c0.4,0.8,0.8,1.5,1.3,2.1c1.6,1.9,3.6,3.4,5.9,4.3c-0.5,0.4-1,0.8-1.4,1.3
	c-1,1-1.7,2.3-2.1,3.7c-0.3,1.2-0.4,2.4-0.4,3.7c-0.1,2.1,0.1,4.1,0.6,6.1c0.4,1.3,1.1,2.5,2,3.5c0.9,1,1.9,1.9,3.1,2.6
	c1.3,0.7,2.6,1.3,4.1,1.7c-0.4,2.2-0.7,3.9-0.8,5c-0.2,1.7-0.4,3.5-0.4,5.2c-0.1,3.5,0.6,7,2.2,10.2c0.7,1.3,1.6,2.6,2.5,3.8
	c0.7,0.9,1.4,1.7,2.2,2.5c1,0.8,2.1,1.5,3.3,2c1.3,0.5,2.5,0.8,3.9,1.1c1,0.3,2,0.3,3-0.1c0.5-0.3,0.9-0.7,1.2-1.2
	c0.3-0.5,0.4-1.1,0.5-1.7c0-0.6,0-1.1-0.1-1.7c-0.1-0.8-0.2-1.3-0.2-1.7c-0.1-1.3-0.1-2.7,0-4c0.1-1.3,0.1-2.7,0-4
	c-0.7-5.2-2.9-10-6.2-14c-0.6-0.6-1.2-1.2-1.9-1.7c1.6-0.6,3.1-1.5,4.3-2.7c1.8-1.9,2.9-4.4,3.1-7c0.3-1.9,0.2-3.8-0.3-5.7
	c-0.4-1.8-1.3-3.6-2.5-5c-0.9-1.1-2.1-2.1-3.3-2.8c-0.5-0.3-1-0.5-1.6-0.8c0.1-0.1,0.3-0.3,0.5-0.4c1-0.8,1.9-1.6,2.7-2.6
	c0.7-1,1.2-2.2,1.7-3.3c0.5-1.2,0.9-2.5,1.1-3.8c0.5-2.8,0.1-5.7-1.2-8.3c-0.9-1.8-2.2-3.4-3.8-4.7c0.5-0.7,1-1.4,1.4-2.2
	c1.6-2.7,2.3-5.8,2-8.9c-0.1-1.7-0.6-3.3-1.4-4.8c-1.1-1.9-2.7-3.5-4.5-4.8c-1.1-0.8-2.2-1.5-3.4-2c0.4-0.4,0.9-0.9,1.3-1.3
	c1.3-1.4,2.3-3.1,3-4.9c0.6-1.6,0.9-3.3,1.2-5.1c0.5-2.3,0.6-4.7,0.4-7.1c-0.3-1.9-1.1-3.7-2.3-5.3c-1.2-1.6-2.7-2.9-4.4-3.9
	c-2.3-1.4-4.9-2.3-7.6-2.7c0.1-0.6,0.2-1.2,0.2-1.9c0.2-2.5-0.1-4.9-0.9-7.2C295.6,39.8,295.1,38.8,294.5,37.8z"/>
<path style="fill:#FF7C17;" d="M307.1,149.2c-0.8,0.3-1.7,0.5-2.6,0.5c-0.3,0-1.3,0-2.9-0.2c-0.9-0.1-1.9,0-2.8,0.3
	c-0.4,0.2-0.8,0.5-1.1,0.8c-0.2,0.4-0.3,0.9-0.3,1.4c0.1,0.7,0.4,1.3,0.9,1.7c0.5,0.5,1,0.9,1.7,1.1c0.6,0.2,1.3,0.4,1.9,0.4
	c0.7,0,1.3,0,2,0c0.7,0,1.4-0.1,2-0.2c2.7-0.3,5.4-1.2,7.8-2.4c0.5-0.3,1-0.6,1.5-1c0.5-0.4,0.8-1,0.8-1.6c0-0.5-0.1-0.9-0.3-1.3
	c-0.1-0.4-0.4-0.8-0.8-1.1c-0.7-0.3-1.5-0.3-2.2,0C310.9,148.1,309.1,148.6,307.1,149.2z"/>
<path style="fill:#FF7C17;" d="M266.7,34.1c-1.1-1.3-2.4-2.4-3.8-3.3c-1.3-1-2.8-1.7-4.4-2.2c-1.6-0.5-3.2-0.6-4.8-0.4
	c-1.6,0.2-3.2,0.8-4.5,1.8c-1.3,1-2.3,2.4-2.8,3.9c-0.3,1.3-0.4,2.7-0.1,4.1c0.3,1.4,0.6,2.7,1.1,4.1c1.5,4.9,3.6,11,6.1,18.4
	c0.7,2.2,1.6,4.4,2.6,6.6c1,1.9,2.2,3.6,3.6,5.1c1.3,1.5,2.9,2.6,4.7,3.3c2.2,0.8,4.5,0.7,6.6-0.3c1-0.5,2-1.1,2.8-1.9
	c0.8-0.8,1.4-1.8,1.9-2.8c0.8-2.1,1.2-4.3,1-6.5c-0.2-7.5-2-14.9-5.2-21.7C270.4,39.3,268.7,36.6,266.7,34.1z"/>
<path style="fill:#64331C;" d="M62,37.2c-0.9-1.6-2.1-3-3.5-4.2c-1.4-1.2-3-2.2-4.7-2.9c-3.6-1.3-7.4-1.8-11.2-1.4
	c-3.1,0.1-6.2,0.7-9.2,1.8c-2.3,1-4.3,2.4-5.9,4.2c-0.9,1-1.7,2-2.4,3.1c-0.6,1-1,2-1.4,3.1c-0.8,2.3-1.1,4.8-0.9,7.2
	c0,0.6,0.1,1.3,0.2,1.9c-2.7,0.4-5.3,1.3-7.6,2.7c-1.7,1-3.2,2.3-4.4,3.9c-1.2,1.5-2,3.4-2.3,5.3c-0.3,2.4-0.1,4.8,0.4,7.1
	c0.2,1.7,0.6,3.4,1.2,5.1c0.7,1.8,1.7,3.5,3,4.9c0.4,0.5,0.8,0.9,1.3,1.3c-1.2,0.5-2.3,1.2-3.4,2c-1.8,1.3-3.4,2.9-4.5,4.8
	c-0.8,1.5-1.2,3.1-1.4,4.8c-0.3,3.1,0.4,6.2,2,8.9c0.4,0.8,0.9,1.5,1.4,2.2c-1.6,1.3-2.8,2.9-3.8,4.7c-1.3,2.5-1.8,5.4-1.2,8.3
	c0.2,1.3,0.6,2.6,1.1,3.8c0.4,1.2,1,2.3,1.7,3.3c0.8,1,1.7,1.8,2.7,2.6l0.5,0.4c-0.5,0.2-1.1,0.5-1.6,0.8c-1.3,0.7-2.4,1.7-3.3,2.8
	c-1.2,1.5-2.1,3.2-2.5,5c-0.5,1.9-0.6,3.8-0.3,5.7c0.2,2.6,1.3,5.1,3.1,7c1.2,1.2,2.7,2.2,4.3,2.7c-0.7,0.5-1.4,1-1.9,1.7
	c-1.7,2-3.2,4.3-4.2,6.8c-1.1,2.3-1.7,4.7-2,7.2c-0.1,1.3-0.1,2.7,0,4c0.1,1.3,0.1,2.7,0,4c0,0.4-0.1,1-0.2,1.7
	c-0.1,0.6-0.1,1.1-0.1,1.7c0,0.6,0.2,1.2,0.5,1.7c0.2,0.5,0.6,0.9,1.1,1.2c1,0.3,2,0.4,3,0.1c1.3-0.3,2.6-0.6,3.8-1.1
	c1.2-0.4,2.3-1.1,3.3-2c0.8-0.8,1.5-1.6,2.2-2.5c0.9-1.2,1.8-2.5,2.5-3.8c1.6-3.2,2.3-6.7,2.2-10.2c0-1.8-0.1-3.5-0.4-5.2
	c-0.2-1.1-0.4-2.8-0.8-5c1.4-0.4,2.8-0.9,4.1-1.7c1.2-0.7,2.2-1.6,3.1-2.6c0.9-1,1.5-2.2,2-3.5c0.5-2,0.7-4.1,0.6-6.1
	c0-1.2-0.1-2.5-0.4-3.7c-0.4-1.4-1.1-2.6-2.1-3.7c-0.4-0.5-0.9-0.9-1.4-1.3c0.4-0.2,0.8-0.3,1.2-0.5c1.8-0.9,3.4-2.2,4.7-3.8
	c0.5-0.7,1-1.4,1.3-2.1c0.8-1.6,1.2-3.4,1.4-5.2c0.2-1.9,0.1-3.8-0.3-5.7c-0.4-1.8-1-3.5-2-5.1c1.2-1,2.3-2.2,3.1-3.5
	c0.6-0.9,1.1-1.9,1.4-2.9c0.3-1.4,0.4-2.9,0.2-4.3c0-1.7-0.2-3.4-0.6-5.1c-0.6-2-1.5-3.8-2.8-5.3c1.5-0.4,2.9-1,4.2-1.7
	c1.5-1,2.9-2.4,3.8-3.9c2-3.3,2.7-7.2,1.9-11c-0.1-0.6-0.3-1.2-0.5-1.8c0.4,0,0.8,0,1.3,0c2.9,0.1,5.9-0.4,8.6-1.5
	c2.8-1,5.3-2.6,7.4-4.6c1.6-1.7,2.8-3.6,3.8-5.7c0.9-1.9,1.6-4,1.9-6.1c0.3-1.8,0.2-3.7-0.1-5.5C63.6,40.5,63,38.8,62,37.2z"/>
<path style="fill:#FF7C17;" d="M12.6,149.2c0.8,0.3,1.7,0.5,2.6,0.5c0.3,0,1.3,0,2.9-0.2c0.9-0.1,1.9,0,2.8,0.3
	c0.4,0.2,0.8,0.5,1.1,0.8c0.2,0.4,0.3,0.9,0.2,1.4c-0.1,0.7-0.4,1.3-0.9,1.7c-0.5,0.5-1,0.9-1.7,1.1c-0.6,0.2-1.3,0.4-1.9,0.4
	c-0.7,0-1.3,0-2,0c-0.7,0-1.4-0.1-2-0.2c-2.7-0.3-5.4-1.2-7.8-2.4c-0.5-0.3-1-0.6-1.5-1c-0.5-0.4-0.8-1-0.8-1.6
	c0-0.5,0.1-0.9,0.3-1.3c0.1-0.4,0.4-0.8,0.8-1.1c0.7-0.3,1.5-0.3,2.2,0C8.8,148.1,10.6,148.6,12.6,149.2z"/>
<path style="fill:#FF7C17;" d="M53,34.1c1.1-1.3,2.4-2.4,3.8-3.3c1.3-1,2.8-1.7,4.4-2.2c1.6-0.5,3.2-0.6,4.9-0.4
	c1.6,0.2,3.2,0.8,4.5,1.8c1.3,1,2.3,2.3,2.8,3.9c0.3,1.3,0.4,2.7,0.1,4.1c-0.3,1.4-0.6,2.7-1.1,4.1c-1.5,4.9-3.6,11-6.1,18.4
	c-0.7,2.2-1.6,4.4-2.6,6.6c-1,1.9-2.2,3.6-3.6,5.1c-1.3,1.5-2.9,2.6-4.7,3.3c-2.2,0.8-4.5,0.7-6.6-0.3c-1-0.5-2-1.1-2.8-1.9
	c-0.8-0.8-1.5-1.8-1.9-2.8c-0.8-2.1-1.2-4.3-1-6.5c0.2-7.5,2-14.9,5.2-21.7C49.4,39.3,51,36.6,53,34.1z"/>
<path style="fill:#64331C;" d="M158.4,1.4c-34.5-0.2-62.6,9.2-84.2,28.1S43.2,77,45.7,115.6c2.6,38.5,16.1,63.8,40.4,75.9
	c24.3,12.1,53,17.3,86.1,15.6c33.1-1.7,59-10,77.6-24.8s27.2-40.6,25.9-77.3c-1.3-36.7-12.5-63.1-33.7-79.2S193,1.5,158.4,1.4z"/>
<path style="fill:#FFD4B8;" d="M266.2,137.5c-3-4.6-8.1-7.4-13.6-7.3c-6.4-0.2-12.6,2.3-16.9,7c-3.8,4.1-7.2,10.4-10.1,19.2
	c0,0.4,0,0.7,0,1.1c0.2,4.6,0.9,9.2,1.9,13.8c3,12.4,8.9,18.7,18,18.7c3.5-0.1,6.9-1.3,9.7-3.5c3.2-2.4,5.9-5.4,8.1-8.9
	c2.4-3.7,4.2-7.7,5.5-11.9c1.3-4,2-8.3,2-12.5C270.8,147.6,269.3,142.1,266.2,137.5z"/>
<path style="fill:#FFB79C;" d="M233.4,149.1c-0.4,0.5-0.9,0.9-1.4,1.3c-2.4,1.5-3.8,4.2-3.6,7.1c0.1,3.4,0.7,6.8,1.8,10
	c1.1,3.3,3.5,5.9,6.8,7.2c3.3,1.4,7,1.5,10.4,0.3c3.2-1,5.9-3.3,7.5-6.3c1.7-3.1,2.9-6.5,3.5-10c0.6-3.4,0.3-7-1-10.2
	c-1.2-3.4-4.1-5.8-7.7-6.4c-2.7-0.2-5.4,0.2-8,1.2C238.5,144.5,235.7,146.5,233.4,149.1z"/>
<path style="fill:#64331C;" d="M234.4,122.8c-0.5,6.8-0.7,12.6-0.7,17.3c0,7,0.1,11.7,0.4,14.2c0.4,3.8,1.1,5.7,2.3,5.7
	c0.9,0,2.2-0.9,3.7-2.8c2.2-2.8,3.9-5.9,5.3-9.2c3.3-8.1,5.5-16.6,6.6-25.2c3.7-36.9,0.6-48.9-9.4-35.9
	C233.8,83.7,231,95.7,234.4,122.8z"/>
<path style="fill:#FFD4B8;" d="M47.9,137.7c3-4.6,8.1-7.4,13.6-7.3c6.4-0.2,12.6,2.3,17,7c3.8,4.1,7.1,10.4,10.1,19.2
	c0,0.4,0,0.8,0,1.1c-0.2,4.6-0.9,9.2-1.9,13.8c-3,12.5-8.9,18.7-18,18.7c-3.5-0.1-6.9-1.3-9.7-3.5c-3.2-2.4-5.9-5.4-8.1-8.9
	c-2.4-3.7-4.2-7.7-5.5-11.9c-1.3-4-2-8.3-2-12.5C43.2,147.8,44.8,142.3,47.9,137.7z"/>
<path style="fill:#FFB79C;" d="M80.6,149.3c0.4,0.5,0.9,0.9,1.4,1.3c2.4,1.5,3.8,4.2,3.6,7.1c-0.1,3.4-0.7,6.8-1.8,10
	c-1.1,3.3-3.5,5.9-6.8,7.2c-3.3,1.4-7,1.5-10.4,0.3c-3.2-1-5.9-3.3-7.5-6.3c-1.7-3.1-2.9-6.5-3.5-10c-0.6-3.4-0.3-7,1-10.2
	c1.2-3.4,4.1-5.8,7.7-6.4c2.7-0.2,5.4,0.2,8,1.2C75.6,144.7,78.4,146.7,80.6,149.3z"/>
<path style="fill:#64331C;" d="M80.3,137.5c0-3.9-0.2-8.4-0.5-13.7l-4.9-37.9l-12.4,37.9c1.2,7.4,3.2,14.6,6.1,21.5
	c1.3,3.3,3.1,6.4,5.3,9.2c1.5,1.9,2.8,2.8,3.7,2.8c1.2,0,2-1.9,2.3-5.7C80.1,149.2,80.3,144.5,80.3,137.5z"/>
<path style="fill:#FFD4B8;" d="M241,95c0-14.7-2.8-27.5-8.3-38.4c-20.3-14.5-44.9-23.5-73.8-27c-30,2.2-56.3,11.8-78.8,28.7
	c-5,10.5-7.5,22.7-7.5,36.8c0.1,11.7,0.7,23.4,2,35c1.8,17.1,2.7,26,2.7,26.9c0.1,1,0.2,3.4,0.3,7.3c0.1,3,0.3,5.4,0.5,7.3
	c0.5,5.2,2,10.2,4.4,14.7l1.5,2.7c4.8,7.7,11.9,13.7,20.3,17.1c9,3.7,18.4,6.2,28.1,7.4c16.2,1.3,32.4,1.3,48.6,0
	c9.7-1.2,19.1-3.6,28.1-7.4c8.4-3.4,15.5-9.4,20.3-17.1l1.5-2.7c2.4-4.6,3.9-9.6,4.4-14.7c0.2-1.9,0.4-4.3,0.5-7.3
	c0.1-3.9,0.2-6.3,0.3-7.3c0.1-0.9,1-9.8,2.7-26.9C240.2,118.4,240.9,106.7,241,95z"/>
<path style="fill:#64331C;" d="M208.7,67.7c2.5,0.3,5,0.5,7.5,0.4c1.7,0,3.3-0.1,5-0.4c1.6-0.3,3.2-0.8,4.7-1.6
	c0.2-0.1,0.4-0.2,0.5-0.4c0.5,1,1.2,2,1.9,2.9c0.9,0.9,1.9,1.6,3.1,2.1c2.1,1,4.3,1.6,6.6,1.5c1.3,0,2.6-0.3,3.9-0.7
	c0.9-0.3,1.8-0.8,2.6-1.4c1.1-0.8,2-1.7,2.9-2.8c1.3-1.4,2.3-3.1,3-4.9c0.7-1.8,0.6-3.9-0.2-5.7c-0.5-1.1-1.4-2-2.4-2.6
	c-1-0.6-2.2-0.9-3.4-0.9h-0.7c-0.3-1-0.7-1.9-1.3-2.7c-0.9-1.2-1.9-2.3-3-3.2c-0.3-0.8-0.8-1.5-1.5-2.1c-0.7-0.6-1.5-1.1-2.4-1.3
	c-0.3-0.1-0.5-0.1-0.8-0.2c-7.6-5.3-15.8-9.6-24.4-12.9c-2.2-0.9-4.7-1.8-7.3-2.7c-6.8-2.3-14.7-4.6-23.8-6.9
	c-6.7-1.7-12.3-2.9-16.7-3.6c-5.6-1-11.3-1.4-17-1.4c-3.8,0.1-7.5,0.4-11.3,1c-3,0.4-6.7,1.1-11.2,1.9c-6.8,1.3-12.3,2.6-16.5,3.7
	c-5.4,1.5-10.7,3.4-15.8,5.8c-5.1,2.5-9.8,5.7-13.9,9.5c-4.1,3.8-7.5,8.4-9.8,13.5c-2,4.5-2.3,8.3-0.9,11.3c0.8,1.6,2.1,2.8,3.8,3.4
	c0.3,0.2,0.7,0.5,1,0.7c0.6,0.3,1.2,0.6,1.8,0.8c2.3,0.7,4.6,1,7,0.8c3.9-0.3,7.7-1.3,11.2-2.9c3.6-1.5,6.8-3.8,9.4-6.6l0.1,0.2
	c1.4,1.9,3.2,3.5,5.1,4.7c2,1.3,4.1,2.3,6.4,3c4.5,1.3,9.2,1.9,13.9,1.6c2.6,0,5.2-0.4,7.7-1.1c2.5-0.8,4.9-2,7.1-3.5
	c4-2.6,7.6-5.9,10.5-9.7l0.4,0.6c1.1,1.8,2.7,3.4,4.4,4.6c1.7,1.2,3.7,2.2,5.8,2.7c2.6,0.6,5.2,0.8,7.8,0.8
	c4.2,0.1,8.4-0.5,12.4-1.9c2.8-1.1,5.4-2.7,7.6-4.8c0.5-0.5,1-0.9,1.5-1.4c0.1,0.7,0.3,1.3,0.6,2c0.9,1.8,2.2,3.4,3.8,4.5
	C199.2,64.7,203.8,66.7,208.7,67.7 M82.7,50.3c-0.4,0.6-0.9,1.2-1.5,1.6c0.8-1.1,1.6-2.1,2.5-3.1C83.3,49.3,83,49.8,82.7,50.3z"/>
<path style="fill:none;stroke:#EE6464;stroke-width:1.6379;stroke-linecap:round;stroke-linejoin:round;" d="M145,188.4
	c9.4,7,18.9,6.8,28.4-0.5"/>
<path style="fill:none;stroke:#E5815C;stroke-width:3.2647;stroke-linecap:round;stroke-linejoin:round;" d="M153.8,178
	c0.2-2.2,2.2-3.9,4.4-3.8c3.1,0,4.9,1.3,5.2,4"/>
<path style="fill:#FFB79C;" d="M225.9,185.3c0-1.7-1.8-3.1-5.5-4.3c-8.8-2.3-18-2.3-26.8,0c-3.7,1.2-5.5,2.6-5.5,4.3
	c0,1.7,1.8,3.1,5.5,4.2c8.8,2.4,18,2.4,26.8,0C224.1,188.4,225.9,187,225.9,185.3z"/>
<path style="fill:#FFB79C;" d="M128.3,185.3c0-1.7-1.8-3.1-5.5-4.3c-8.8-2.3-18-2.3-26.8,0c-3.7,1.2-5.5,2.6-5.5,4.3
	c0,1.7,1.8,3.1,5.5,4.2c8.8,2.4,18,2.4,26.8,0C126.5,188.4,128.3,187,128.3,185.3z"/>
<path style="fill:#FFFFFF;" d="M197.6,124.4c-6.6-0.1-13,2.5-17.7,7.2c-9.9,9.7-10,25.6-0.3,35.5c9.7,9.9,25.6,10,35.5,0.3
	c9.9-9.7,10-25.6,0.3-35.5C210.7,127.1,204.3,124.4,197.6,124.4z"/>
<path style="fill:#FFFFFF;" d="M92.1,149.2c0-13.7,11.2-24.8,24.9-24.8c0,0,0,0,0.1,0c13.7-0.1,24.8,10.9,24.9,24.6
	c0,0.1,0,0.1,0,0.2c0.1,6.6-2.5,12.9-7.3,17.5c-9.8,9.7-25.5,9.7-35.3,0C94.6,162.2,92,155.8,92.1,149.2z"/>
<path style="fill:#2E130E;" d="M214.5,152.7c0.1-5.2-1.8-10.2-5.3-14c-6.3-7.1-17.2-7.7-24.3-1.4c-0.5,0.4-0.9,0.9-1.4,1.4
	c-7.1,8-7.1,20,0,27.9c6.3,7.1,17.1,7.8,24.2,1.5c0.5-0.5,1-1,1.5-1.5C212.7,162.9,214.6,157.8,214.5,152.7z"/>
<path style="fill:#FFFFFF;" d="M183.4,144c0-2.3,1.9-4.2,4.2-4.2c2.3,0,4.2,1.9,4.2,4.2c0,1.1-0.4,2.2-1.2,3c-0.8,0.8-1.9,1.2-3,1.2
	C185.3,148.2,183.4,146.4,183.4,144C183.4,144.1,183.4,144,183.4,144z"/>
<path style="fill:#2E130E;" d="M100.1,152.7c-0.1-5.2,1.8-10.2,5.3-14c6.3-7.1,17.2-7.7,24.3-1.4c0.5,0.4,0.9,0.9,1.4,1.4
	c7.1,8,7.1,20,0,27.9c-6.3,7.1-17.1,7.8-24.2,1.5c-0.5-0.5-1-1-1.5-1.5C101.9,162.9,99.9,157.8,100.1,152.7z"/>
<path style="fill:#FFFFFF;" d="M131.2,144c0-2.3-1.9-4.2-4.3-4.2c-1.1,0-2.1,0.4-2.9,1.2c-1.6,1.6-1.6,4.3,0,5.9
	c1.6,1.6,4.3,1.6,5.9,0C130.8,146.2,131.2,145.1,131.2,144z"/>
<path style="fill:none;stroke:#ECAA92;stroke-width:2.1802;stroke-linecap:round;stroke-linejoin:round;" d="M208.3,173
	c-9.9,3.4-17.7,3-23.2-1.2"/>
<path style="fill:none;stroke:#270F0B;stroke-width:2.1802;stroke-linecap:round;stroke-linejoin:round;" d="M173.1,138
	c6-9.2,14.2-13.7,24.6-13.7c10.1,0.6,18.2,5.5,24.3,14.6"/>
<path style="fill:none;stroke:#270F0B;stroke-width:1.0846;stroke-linecap:round;stroke-linejoin:round;" d="M216.1,123.5l-4,4.9"/>
<path style="fill:none;stroke:#270F0B;stroke-width:1.0846;stroke-linecap:round;stroke-linejoin:round;" d="M200.9,117.5l-1.3,7.3"
	/>
<path style="fill:none;stroke:#270F0B;stroke-width:1.0846;stroke-linecap:round;stroke-linejoin:round;" d="M183.8,119.7l2.9,6.9"
	/>
<path style="fill:none;stroke:#431E17;stroke-width:2.1802;stroke-linecap:round;stroke-linejoin:round;" d="M183,103
	c12.9-7.5,24.1-5.7,33.7,5.5"/>
<path style="fill:none;stroke:#ECAA92;stroke-width:2.1802;stroke-linecap:round;stroke-linejoin:round;" d="M106.3,173
	c9.9,3.4,17.7,3,23.2-1.2"/>
<path style="fill:none;stroke:#270F0B;stroke-width:2.1802;stroke-linecap:round;stroke-linejoin:round;" d="M141.4,138
	c-6-9.2-14.2-13.7-24.6-13.7c-10.1,0.6-18.2,5.5-24.3,14.6"/>
<path style="fill:none;stroke:#270F0B;stroke-width:1.0846;stroke-linecap:round;stroke-linejoin:round;" d="M98.4,123.5l4,4.9"/>
<path style="fill:none;stroke:#270F0B;stroke-width:1.0846;stroke-linecap:round;stroke-linejoin:round;" d="M113.7,117.5l1.3,7.3"
	/>
<path style="fill:none;stroke:#270F0B;stroke-width:1.0846;stroke-linecap:round;stroke-linejoin:round;" d="M130.7,119.7l-2.9,6.9"
	/>
<path style="fill:none;stroke:#431E17;stroke-width:2.1802;stroke-linecap:round;stroke-linejoin:round;" d="M131.6,103
	c-12.9-7.5-24.1-5.7-33.7,5.5"/>
</svg>
