<?xml version="1.0" encoding="utf-8"?>
<!-- Generator: Adobe Illustrator 25.2.0, SVG Export Plug-In . SVG Version: 6.00 Build 0)  -->
<svg version="1.1" id="레이어_2_1_" xmlns="http://www.w3.org/2000/svg" xmlns:xlink="http://www.w3.org/1999/xlink" x="0px"
	 y="0px" width="255.4px" height="247.3px" viewBox="0 0 255.4 247.3" style="enable-background:new 0 0 255.4 247.3;"
	 xml:space="preserve">
<path style="fill:#7B4320;" d="M206.4,36.1C173.1,2.7,122.5-6.5,79.6,13.1c-4,1.7-7.8,4-11.2,6.7c-2.5,2.1-4.5,4.6-6,7.5
	c-7,2.1-13.6,5.5-19.5,9.9c-7.2,5.4-13.5,11.9-18.5,19.4c-5,7.4-9.1,15.4-12.2,23.8c-3.1,8.4-5.6,17-7.4,25.8
	c-1.1,4.9-2,9.8-2.8,14.7c-0.1,0.6-0.2,1.3-0.3,2c-1.2,10.5-1.6,21-1.3,31.6c0.4,17.2,3.6,34.2,9.4,50.5c6.5,18.3,18.9,29.4,37.4,33
	c3.3,0.1,6.5-0.5,9.5-1.9c0.5-0.2,0.9-0.4,1.4-0.7l0.6,0.2c5.1,1.7,10.4,2.7,15.8,3c3.5,0.3,7,0.2,10.4-0.3
	c3.9-0.8,7.7-2.1,11.3-3.9c1.3-0.6,2.6-1.3,3.9-2c0.4,0.4,0.9,0.8,1.3,1.1c3.5,2.7,7.3,5,11.4,6.6c4.1,1.7,8.4,2.8,12.8,3.3
	c14.1,1.6,28.3-1.4,40.6-8.5c1,0.5,2.1,0.9,3.2,1.3c5,1.7,10.4,2.4,15.7,2.1c5.3-0.3,10.5-1.7,15.3-4c1.1-0.5,2.1-1.1,3.2-1.7
	c4.4-2,8.9-3.6,13.5-4.9c11.4-3,21.1-10.6,26.6-21c5.8-10.3,9.4-21.8,10.5-33.6c1.1-11.9,0.7-23.9-1.3-35.7
	c-0.6-4.4-1.4-9.1-2.4-14.1c-1.3-7-3-14-5-20.9c-1.3-4.1-3-8.7-5-13.6c-1.3-3.2-3.3-7.6-5.9-13.2c-2.5-5.6-4.5-9.6-6.1-12.4
	c-1.8-3-3.8-5.9-5.9-8.7c-1.7-2.2-3.9-5-6.7-8.2C211.7,41.8,208.7,38.4,206.4,36.1z"/>
<path style="fill:#FFD4B8;" d="M237.4,149.5c-3-4.7-8.2-7.4-13.7-7.3c-6.4-0.2-12.6,2.3-17,7c-3.8,4.1-7.2,10.5-10.2,19.2
	c0,0.4,0,0.7,0,1.1c0.2,4.7,0.9,9.3,1.9,13.8c3,12.5,9,18.7,18.1,18.8c3.5-0.1,7-1.3,9.8-3.5c3.2-2.4,6-5.5,8.1-8.9
	c2.4-3.7,4.3-7.7,5.6-11.9c1.3-4.1,2-8.3,2-12.6C242.1,159.7,240.5,154.2,237.4,149.5z"/>
<path style="fill:#FFB79C;" d="M204.5,161.1c-0.4,0.5-0.9,0.9-1.4,1.3c-2.4,1.5-3.8,4.3-3.6,7.1c0.1,3.4,0.7,6.8,1.8,10.1
	c1.1,3.3,3.6,6,6.8,7.2c3.3,1.4,7,1.5,10.4,0.3c3.3-1,6-3.3,7.5-6.3c1.7-3.1,2.9-6.5,3.5-10c0.6-3.5,0.3-7-1-10.3
	c-1.2-3.4-4.1-5.9-7.7-6.4c-2.7-0.2-5.5,0.2-8,1.2C209.6,156.5,206.8,158.5,204.5,161.1z"/>
<path style="fill:#7B4320;" d="M205.5,134.8c-0.5,6.8-0.7,12.7-0.7,17.4c0,7,0.1,11.8,0.4,14.3c0.4,3.8,1.2,5.7,2.4,5.7
	c0.9,0,2.2-0.9,3.7-2.8c2.2-2.8,4-5.9,5.3-9.3c3.3-8.1,5.5-16.6,6.7-25.3c3.7-37.1,0.6-49.1-9.4-36.1
	C204.9,95.5,202.1,107.5,205.5,134.8z"/>
<path style="fill:#FFD4B8;" d="M18.1,149.7c3-4.7,8.2-7.4,13.7-7.3c6.4-0.2,12.6,2.3,17,7c3.8,4.1,7.2,10.5,10.2,19.2
	c0,0.4,0,0.8,0,1.1c-0.2,4.7-0.9,9.3-1.9,13.8c-3,12.5-9,18.8-18.1,18.8c-3.5-0.1-7-1.3-9.8-3.5c-3.2-2.4-6-5.5-8.1-8.9
	c-2.4-3.7-4.3-7.7-5.6-11.9c-1.3-4.1-2-8.3-2.1-12.6C13.4,159.9,15,154.3,18.1,149.7z"/>
<path style="fill:#FFB79C;" d="M51,161.3c0.4,0.5,0.9,0.9,1.4,1.3c2.4,1.5,3.8,4.3,3.6,7.1c-0.1,3.4-0.7,6.8-1.8,10.1
	c-1.1,3.3-3.6,6-6.8,7.2c-3.3,1.4-7,1.5-10.4,0.3c-3.2-1-6-3.3-7.5-6.4c-1.7-3.1-2.9-6.5-3.5-10c-0.6-3.5-0.3-7,1-10.3
	c1.2-3.4,4.1-5.9,7.7-6.4c2.7-0.2,5.5,0.2,8,1.2C45.9,156.7,48.7,158.7,51,161.3z"/>
<path style="fill:#7B4320;" d="M50.6,149.5c0-3.9-0.2-8.4-0.5-13.7l-4.9-38.1l-12.5,38.1c1.2,7.4,3.2,14.7,6.1,21.6
	c1.3,3.3,3.1,6.4,5.3,9.3c1.6,1.9,2.8,2.8,3.7,2.8c1.2,0,2-1.9,2.4-5.7C50.5,161.3,50.6,156.5,50.6,149.5z"/>
<path style="fill:#FFD4B8;" d="M212,106.7c0-14.8-2.8-27.6-8.3-38.6c-20.4-14.6-45.1-23.6-74.1-27.2c-30.1,2.2-56.5,11.8-79.2,28.8
	c-5,10.5-7.5,22.8-7.5,36.9c0.1,11.8,0.7,23.5,2,35.2c1.8,17.1,2.7,26.1,2.7,27c0.1,1,0.2,3.4,0.3,7.3c0.1,3,0.3,5.4,0.5,7.3
	c0.5,5.2,2,10.2,4.4,14.8l1.5,2.7c4.8,7.7,12,13.7,20.4,17.2c9,3.8,18.5,6.3,28.2,7.4c8.1,1,16.3,1.3,24.5,1c8.2,0.3,16.3,0,24.5-1
	c9.7-1.2,19.2-3.7,28.2-7.4c8.4-3.5,15.6-9.5,20.4-17.2l1.5-2.7c2.5-4.6,4-9.6,4.4-14.8c0.2-1.9,0.4-4.3,0.5-7.3
	c0.1-3.9,0.2-6.4,0.3-7.3c0.1-0.9,1-9.9,2.7-27C211.4,130.3,212,118.5,212,106.7z"/>
<path style="fill:#7B4320;" d="M33.1,92.7c-0.7,3.2-1.2,6.5-1.4,9.9c-0.1,3.6,0,7.2,0.2,10.8l0.5,8c0.1,1.3,0.2,2.6,0.5,3.8
	c0.3,1.2,0.9,2.3,1.9,3.1c1.3,1,2.9,1.4,4.4,1.2c0.4,0,0.8-0.1,1.2-0.2c2.7-0.6,5.2-2,7-4.1c2.1-2.4,3.7-5.1,4.8-8
	c1.7-3.8,2.8-7.8,3.3-11.9c1.5-0.9,3.1-2,4.8-3.3c3.9-2.8,7.5-6.1,10.7-9.7c2.3-2.8,4.4-5.9,6.1-9.1c2.4-4.6,4.2-9.4,5.7-14.3
	c1.1-3.6,1.9-7.3,2.2-11c0-0.2,0-0.4,0-0.5c0.3-0.4,0.6-0.9,0.9-1.4l0.2-0.4c0.6-1,1-2,1.3-3.1c0.3-1.8,0-3.6-1-5.2
	c-0.9-1.6-2.4-2.7-4.2-3.2c-1.7-0.4-3.5-0.4-5.3-0.1c-4,0.7-7.9,1.9-11.6,3.7c-3.7,1.8-7.1,4-10.2,6.6c-4.2,3.4-8,7.4-11.1,11.8
	c-3.2,4.4-5.8,9.2-7.7,14.3C35,84.3,33.9,88.4,33.1,92.7z"/>
<path style="fill:#7B4320;" d="M183.4,42.1l-3.5-3.1c-1.5-1.3-3-2.5-4.6-3.6c-3.2-2.1-6.6-3.8-10.2-5c-2.5-0.9-6.2-2-11-3.3
	c-4.8-1.3-8.6-2.2-11.3-2.9c-3.8-0.9-7.6-1.5-11.4-2c-8.7-1-16.3-0.3-22.9,2c-1.1,0.4-2.5,0.9-4,1.6c-0.9,0.4-2.2,1-4,1.8
	c-3.1,1.4-5.3,2.5-6.5,3.1c-1.1,0.6-2.3,1.1-3.6,1.5L81,50.7c0.6,1.1,1.3,2.3,2,3.5c4.6,7.3,10,14.1,16,20.3
	c8.4,8.7,18,16.2,28.5,22.3c11.3,6.8,21.4,10.7,30.3,11.8c8.9,1.1,15.5,0.5,20-1.9c1,0.9,1.9,1.9,2.9,2.8c4.6,4.9,9.9,6.9,16,6.2
	c3.7-0.2,6.8-2.9,7.4-6.6c5.6,2,9.4,1.7,11.5-0.7c1.9-2.2,2.9-8.1,3-17.9c0-10.6-1.9-21.2-5.4-31.2
	C209.4,48.4,199.5,42.7,183.4,42.1z"/>
<path style="fill:#49D265;" d="M139,20.7c-3-0.4-6-0.6-9.1-0.7c-9.1-0.3-18.2,0.6-27.1,2.6C93.6,24.7,84.6,28,76,32.2l-6.7,4
	c-8.1,4.9-15.2,11.2-21.1,18.6c-3.5,4.3-5.7,9.5-6.3,15l0.5,0.1c13-16.9,31.2-29.1,51.7-34.8c9-2.6,18.3-3.7,27.7-3.3
	c5.8,0.1,11.5,0.7,17.2,1.7c29,5.3,55.3,20.4,74.5,42.8c-4.4-15.8-13.7-28.5-28-38.1C171.6,28.7,155.7,22.7,139,20.7z"/>
<path style="fill:#7BFF96;" d="M201.8,57c0.2-0.1,0-1.1-0.5-3c-0.5-1.9-0.8-3-0.8-3.2c-0.8-3.3-1.8-6.6-3.1-9.8
	c-1.2-3.2-2.8-6.2-4.7-9.1c-1-1.5-2.2-2.9-3.5-4.2c-1.4-1.4-3-2.7-4.7-3.7c-4-2.4-7.5-2.4-10.5-0.2c-1.2,0.9-2,2.2-2.4,3.6
	c-0.4,1.4-0.6,2.9-0.5,4.4l0.1,0.7c0.1,0.7,0.3,1.4,0.5,2.1c0.8,2.5,1.9,5,3.3,7.2c2.4,3.6,5.3,6.8,8.6,9.5c5,4,10.5,7.3,16.4,9.8
	l-0.2-2c-2.8-1.9-5.5-3.9-8.1-6.1c-5.8-4.9-9.9-9.2-12.1-13.1s-3.1-6.9-2.6-9.2c0.1-0.6,0.4-1.2,0.9-1.7c0.1-0.1,0.3-0.3,0.4-0.4
	l0.2-0.1c1.2-0.5,2.4-0.3,3.5,0.3c1.1,0.6,2.1,1.3,3,2.2c1,0.9,1.9,2,2.6,3.1c0.6,0.9,1.4,2,2.1,3.4c2,3.5,3.8,6.8,5.5,9.9
	c1,2,2,3.7,2.7,5.3c1.6,3.2,2.3,4.8,2.2,4.9L201.8,57z"/>
<path style="fill:#7BFF96;" d="M201.4,61.1l-0.4-1.1c-0.4-0.2-0.7-0.3-1.1-0.4c-1-0.2-2.1-0.3-3.1-0.3c-3.6,0.1-7.5,1.6-11.7,4.4
	c-0.2,0.1-0.5,0.4-0.9,0.7l-5,3.7c-1.7,1.3-3.5,2.4-5.4,3.4c-4.3,2.3-8.3,3.2-11.9,2.6l0.1,0.1c0.3,0.2,0.6,0.4,0.9,0.5
	c2.5,1,5.1,2,7.8,2.7v0.4c0,0.4-0.1,0.8-0.2,1.1c-0.2,1.1-0.6,2.1-1.2,3c0.6,0.2,1.1,0.2,1.7,0.1c0.6,0,1.2-0.1,1.7-0.3
	c1.5-0.5,2.9-1.2,4.2-2.2c0.8-0.6,2-1.7,3.6-3.2l5.2-5.1c2.1-2,3.8-3.6,5.3-4.9c1.5-1.3,3.1-2.6,4.8-3.7
	C197.4,61.7,199.4,61.1,201.4,61.1z"/>
<path style="fill:#B1FFC1;" d="M193.3,61.4c-0.2-0.1-0.5-0.2-0.7-0.1c-2.2,0.7-4.2,1.8-6,3.3c-1.2,1-3,2.5-5.2,4.6
	c-0.2,0.1-0.3,0.4-0.3,0.6c0,0.2,0.1,0.4,0.3,0.6c0.2,0.2,0.4,0.3,0.6,0.3c0.3,0,0.5-0.1,0.7-0.2c2.1-1.9,3.8-3.4,4.9-4.3
	c1.6-1.4,3.5-2.4,5.6-3.1c0.2-0.1,0.4-0.2,0.5-0.5c0.1-0.2,0.1-0.4,0-0.6C193.6,61.7,193.4,61.5,193.3,61.4z"/>
<path style="fill:#B1FFC1;" d="M176,73.8c-0.2-0.1-0.5-0.1-0.7,0.1c-0.9,0.5-1.9,1-2.9,1.4c-0.2,0.1-0.4,0.2-0.5,0.5
	c-0.1,0.2-0.1,0.4-0.1,0.7c0.1,0.2,0.2,0.4,0.4,0.5c0.2,0.1,0.5,0.1,0.7,0c1.1-0.5,2.2-1,3.3-1.6c0.2-0.1,0.4-0.3,0.4-0.5
	c0-0.2,0-0.4-0.1-0.6C176.3,74,176.2,73.9,176,73.8z"/>
<path style="fill:#B1FFC1;" d="M189.2,30.8c0-0.3-0.1-0.5-0.2-0.7c-1.3-1.6-2.9-3-4.6-4.1c-1.7-1.1-3.8-1.6-5.9-1.3
	c-1.6,0.2-3,1-4,2.2c-1,1.2-1.5,2.8-1.3,4.3c0,0.3,0.1,0.5,0.3,0.6c0.2,0.1,0.4,0.2,0.6,0.2c0.2,0,0.4-0.1,0.6-0.2
	c0.2-0.2,0.2-0.4,0.2-0.7c-0.3-1.5,0.5-3.1,1.8-3.9c0.6-0.4,1.3-0.7,2.1-0.8c0.8-0.1,1.6-0.1,2.3,0.1c1.3,0.3,2.6,1,3.6,1.8
	c1,0.9,2,1.9,2.9,2.9c0.1,0.2,0.4,0.3,0.6,0.3c0.2,0,0.4-0.1,0.6-0.3C189,31.2,189.1,31,189.2,30.8z"/>
<path style="fill:#7BFF96;" d="M204.1,57.9c0-0.2,0.9-0.7,2.6-1.6l2.9-1.4c3-1.5,6.2-2.9,9.4-4c3.2-1.1,6.6-1.9,9.9-2.3
	c1.8-0.2,3.6-0.2,5.4-0.1c2,0.1,4,0.5,5.9,1.1c4.4,1.5,6.7,4.1,7,7.8c0.1,1.5-0.3,2.9-1.1,4.2c-0.8,1.2-1.8,2.3-3,3.2l-0.6,0.4
	c-0.6,0.4-1.2,0.7-1.9,1c-2.4,1.1-5,1.8-7.6,2.1c-4.3,0.5-8.6,0.4-12.8-0.4c-6.3-1.2-12.4-3.2-18.2-6.1l1.7-1.1
	c3.2,0.9,6.5,1.7,9.9,2.2c7.5,1.3,13.4,1.5,17.9,0.7c4.4-0.8,7.3-2.2,8.6-4c0.4-0.5,0.6-1.1,0.7-1.8c0-0.2,0-0.4,0-0.5V57
	c-0.4-1.2-1.3-2.1-2.5-2.5c-1.1-0.5-2.4-0.8-3.6-0.9c-1.3-0.1-2.7-0.1-4,0c-1.1,0.1-2.4,0.3-4,0.6c-4,0.7-7.6,1.5-11.1,2.2
	c-2.2,0.5-4.1,1-5.8,1.4c-3.5,0.9-5.2,1.4-5.1,1.6L204.1,57.9z"/>
<path style="fill:#7BFF96;" d="M201.3,60.9l1.1-0.4c0.3,0.2,0.7,0.4,1,0.6c0.8,0.6,1.6,1.4,2.2,2.2c2.3,2.9,3.7,6.8,4.2,11.8
	c0,0.3,0,0.6,0.1,1.1c0.1,1.3,0.3,3.3,0.5,6.2c0.2,2.1,0.5,4.2,0.9,6.3c1,4.8,3,8.3,5.8,10.8h-0.2c-0.3-0.1-0.7-0.2-1-0.4
	c-2.4-1.3-4.8-2.6-7.1-4.1l-0.3,0.3c-0.3,0.3-0.5,0.6-0.7,0.9c-0.7,0.8-1.2,1.8-1.5,2.8c-0.5-0.3-0.9-0.7-1.2-1.2
	c-0.3-0.5-0.6-1-0.9-1.5c-0.6-1.5-1-3-1-4.6c0-1,0-2.6,0.1-4.8c0.2-3.2,0.4-5.6,0.5-7.2c0.2-2.9,0.3-5.3,0.2-7.2c0-2-0.1-4-0.3-6.1
	C203.4,64.3,202.6,62.4,201.3,60.9z"/>
<path style="fill:#B1FFC1;" d="M206.3,67.3c0.2,0.1,0.4,0.2,0.5,0.5c0.9,2.1,1.4,4.4,1.4,6.7c0.1,1.5,0,3.9-0.1,6.9
	c0,0.2-0.1,0.5-0.3,0.6c-0.2,0.1-0.4,0.2-0.6,0.1c-0.2,0-0.4-0.1-0.6-0.3c-0.2-0.2-0.3-0.4-0.3-0.7c0.1-2.9,0.1-5,0.1-6.5
	c0-2.2-0.5-4.3-1.3-6.3c-0.1-0.2-0.1-0.5,0-0.7c0.1-0.2,0.3-0.4,0.5-0.4C205.9,67.2,206.1,67.2,206.3,67.3z"/>
<path style="fill:#B1FFC1;" d="M208.2,88.5c0.2,0.1,0.4,0.3,0.4,0.6c0.2,1,0.5,2.1,0.8,3.1c0.1,0.2,0.1,0.5,0,0.7
	c-0.1,0.2-0.2,0.4-0.5,0.5c-0.2,0.1-0.5,0.1-0.7,0c-0.2-0.1-0.4-0.2-0.5-0.5c-0.4-1.2-0.7-2.4-0.9-3.5c-0.1-0.2,0-0.5,0.1-0.7
	c0.1-0.2,0.3-0.3,0.6-0.3C207.8,88.3,208,88.4,208.2,88.5z"/>
<path style="fill:#B1FFC1;" d="M232.3,50.5c0.2-0.2,0.4-0.3,0.7-0.3c2.1,0,4.1,0.2,6.1,0.9c2,0.6,3.7,1.9,4.8,3.6
	c0.8,1.3,1.2,2.9,0.9,4.4c-0.2,1.6-1.1,2.9-2.4,3.8c-0.2,0.1-0.5,0.2-0.7,0.1c-0.2-0.1-0.4-0.2-0.6-0.4c-0.1-0.2-0.2-0.4-0.2-0.6
	c0-0.2,0.2-0.5,0.4-0.6c1.3-0.8,2-2.4,1.8-3.9c-0.1-0.7-0.4-1.4-0.8-2.1c-0.4-0.7-0.9-1.2-1.6-1.7c-1.1-0.8-2.4-1.3-3.8-1.6
	c-1.4-0.2-2.7-0.3-4.1-0.3c-0.2,0-0.5-0.1-0.6-0.3c-0.1-0.2-0.2-0.4-0.1-0.6C232,50.8,232.1,50.6,232.3,50.5z"/>
<path style="fill:#14B835;" d="M205.4,54.6c-1.2-0.8-2.5-1.3-3.9-1.5c-0.8-0.2-1.6-0.1-2.4,0.3c-0.7,0.3-1.4,0.9-1.8,1.6
	c-0.8,1-1.3,2.3-1.2,3.6c0,0.2,0,0.4,0.1,0.7c0.1,0.4,0.3,0.8,0.5,1.1c0.3,0.3,0.6,0.7,0.9,1c1.6,1.4,3.5,2.4,5.6,2.8
	c0.8,0.2,1.6,0.1,2.3-0.3c0.7-0.4,1.3-1,1.7-1.7c0.4-0.7,0.7-1.4,1-2.1c0.2-0.8,0.2-1.6,0-2.3C207.6,56.3,206.6,55.2,205.4,54.6z"/>
<path style="fill:#18CB3C;" d="M199.9,55.6c1,0.2,2,0.5,2.9,0.8c1,0.4,1.8,1.1,2.3,1.9c0.1,0.2,0.3,0.4,0.6,0.4c0.2,0,0.4,0,0.6-0.1
	c0.2-0.1,0.3-0.3,0.4-0.5c0.1-0.2,0-0.5-0.1-0.7c-0.7-1.1-1.6-1.9-2.8-2.5c-1.2-0.5-2.4-0.9-3.6-1.1c-0.2-0.1-0.5,0-0.7,0.1
	c-0.2,0.1-0.3,0.3-0.3,0.6c-0.1,0.2,0,0.4,0.1,0.6C199.5,55.4,199.7,55.6,199.9,55.6z"/>
<path style="fill:none;stroke:#EE6464;stroke-width:1.6455;stroke-linecap:round;stroke-linejoin:round;" d="M115.7,200.6
	c9.4,7,18.9,6.9,28.6-0.5"/>
<path style="fill:none;stroke:#E5815C;stroke-width:3.2798;stroke-linecap:round;stroke-linejoin:round;" d="M124.5,190.2
	c0.2-2.2,2.2-3.9,4.4-3.8c3.1,0,4.9,1.3,5.2,4"/>
<path style="fill:#FFB79C;" d="M197,197.5c0-1.7-1.9-3.1-5.6-4.3c-8.8-2.3-18.1-2.3-26.9,0c-3.7,1.2-5.6,2.6-5.6,4.3
	s1.9,3.1,5.6,4.2c8.8,2.4,18.1,2.4,26.9,0C195.1,200.6,197,199.2,197,197.5z"/>
<path style="fill:#FFB79C;" d="M98.9,197.5c0-1.7-1.9-3.1-5.6-4.3c-8.8-2.3-18.1-2.3-26.9,0c-3.7,1.2-5.6,2.6-5.6,4.3
	c0,1.7,1.9,3.1,5.6,4.2c8.8,2.4,18.1,2.4,26.9,0C97,200.6,98.9,199.2,98.9,197.5z"/>
<path style="fill:#FFFFFF;" d="M193.5,161.2c0-13.8-11.2-24.9-25-24.9c0,0,0,0,0,0c-13.7-0.1-24.9,11-25,24.7c0,0.1,0,0.1,0,0.2
	c-0.1,6.6,2.5,13,7.3,17.6c9.8,9.7,25.6,9.7,35.4,0C190.9,174.3,193.6,167.9,193.5,161.2z"/>
<path style="fill:#FFFFFF;" d="M62.5,161.2c0-13.8,11.2-24.9,25-24.9c0,0,0,0,0,0c13.7-0.1,24.9,11,25,24.7c0,0.1,0,0.1,0,0.2
	c0.1,6.6-2.5,13-7.3,17.6c-9.8,9.7-25.6,9.7-35.4,0C65,174.3,62.4,167.9,62.5,161.2z"/>
<path style="fill:#2E130E;" d="M185.5,164.7c0.1-5.2-1.8-10.2-5.4-14c-6.4-7.1-17.3-7.8-24.4-1.4c-0.5,0.4-1,0.9-1.4,1.4
	c-7.1,8-7.1,20,0,28.1c6.3,7.1,17.2,7.8,24.3,1.5c0.5-0.5,1-1,1.5-1.5C183.7,174.9,185.6,169.9,185.5,164.7z"/>
<path style="fill:#FFFFFF;" d="M154.2,156c0-2.3,1.9-4.2,4.2-4.2c2.3,0,4.2,1.9,4.2,4.2c0,1.1-0.4,2.2-1.2,3c-0.8,0.8-1.9,1.2-3,1.2
	C156.1,160.3,154.2,158.4,154.2,156C154.2,156.1,154.2,156.1,154.2,156L154.2,156z"/>
<path style="fill:#2E130E;" d="M70.5,164.7c-0.1-5.2,1.8-10.2,5.4-14c6.4-7.1,17.3-7.8,24.4-1.4c0.5,0.4,1,0.9,1.4,1.4
	c7.1,8,7.1,20,0,28.1c-6.3,7.1-17.2,7.8-24.3,1.5c-0.5-0.5-1-1-1.5-1.5C72.3,174.9,70.4,169.9,70.5,164.7z"/>
<path style="fill:#FFFFFF;" d="M101.8,156c0-2.3-1.9-4.2-4.3-4.2c-1.1,0-2.2,0.5-2.9,1.2c-1.6,1.7-1.6,4.3,0,6c1.7,1.6,4.3,1.6,6,0
	C101.3,158.2,101.8,157.2,101.8,156z"/>
<path style="fill:none;stroke:#ECAA92;stroke-width:2.1902;stroke-linecap:round;stroke-linejoin:round;" d="M179.2,185.2
	c-10,3.4-17.8,3-23.3-1.2"/>
<path style="fill:none;stroke:#270F0B;stroke-width:2.1902;stroke-linecap:round;stroke-linejoin:round;" d="M143.9,149.9
	c6.1-9.2,14.3-13.8,24.7-13.8c10.2,0.6,18.3,5.5,24.4,14.7"/>
<path style="fill:none;stroke:#270F0B;stroke-width:1.0896;stroke-linecap:round;stroke-linejoin:round;" d="M187.1,135.5l-4,4.9"/>
<path style="fill:none;stroke:#270F0B;stroke-width:1.0896;stroke-linecap:round;stroke-linejoin:round;" d="M171.8,129.4l-1.3,7.4"
	/>
<path style="fill:none;stroke:#270F0B;stroke-width:1.0896;stroke-linecap:round;stroke-linejoin:round;" d="M154.7,131.6l2.9,6.9"
	/>
<path style="fill:none;stroke:#431E17;stroke-width:2.1902;stroke-linecap:round;stroke-linejoin:round;" d="M153.8,114.8
	c12.9-7.6,24.2-5.7,33.9,5.6"/>
<path style="fill:none;stroke:#ECAA92;stroke-width:2.1902;stroke-linecap:round;stroke-linejoin:round;" d="M76.8,185.2
	c10,3.4,17.8,3,23.3-1.2"/>
<path style="fill:none;stroke:#270F0B;stroke-width:2.1902;stroke-linecap:round;stroke-linejoin:round;" d="M112.1,149.9
	c-6.1-9.2-14.3-13.8-24.7-13.8c-10.2,0.6-18.3,5.5-24.4,14.7"/>
<path style="fill:none;stroke:#270F0B;stroke-width:1.0896;stroke-linecap:round;stroke-linejoin:round;" d="M68.9,135.5l4,4.9"/>
<path style="fill:none;stroke:#270F0B;stroke-width:1.0896;stroke-linecap:round;stroke-linejoin:round;" d="M84.2,129.4l1.3,7.4"/>
<path style="fill:none;stroke:#270F0B;stroke-width:1.0896;stroke-linecap:round;stroke-linejoin:round;" d="M101.3,131.6l-2.9,6.9"
	/>
<path style="fill:none;stroke:#431E17;stroke-width:2.1902;stroke-linecap:round;stroke-linejoin:round;" d="M102.2,114.8
	c-12.9-7.6-24.2-5.7-33.9,5.6"/>
<path style="fill:none;stroke:#6633CC;stroke-width:5.47;stroke-linecap:round;stroke-linejoin:round;" d="M121.9,160.7
	c0,18.5-15,33.5-33.5,33.5c-18.5,0-33.5-15-33.5-33.5c0-18.5,15-33.5,33.5-33.5c8.9,0,17.4,3.5,23.7,9.8
	C118.5,143.2,122,151.8,121.9,160.7z"/>
<path style="fill:none;stroke:#6633CC;stroke-width:5.47;stroke-linecap:round;stroke-linejoin:round;" d="M202.1,160.7
	c0,18.5-15,33.5-33.5,33.5c-18.5,0-33.5-15-33.5-33.5s15-33.5,33.5-33.5c8.9,0,17.4,3.5,23.7,9.8
	C198.7,143.2,202.2,151.8,202.1,160.7z"/>
<path style="fill:none;stroke:#6633CC;stroke-width:5.47;stroke-linecap:round;stroke-linejoin:round;" d="M123,163.8h9.9"/>
</svg>
