<?xml version="1.0" encoding="utf-8"?>
<!-- Generator: Adobe Illustrator 25.2.0, SVG Export Plug-In . SVG Version: 6.00 Build 0)  -->
<svg version="1.1" id="레이어_1" xmlns="http://www.w3.org/2000/svg" xmlns:xlink="http://www.w3.org/1999/xlink" x="0px"
	 y="0px" width="206px" height="172.9px" viewBox="0 0 206 172.9" style="enable-background:new 0 0 206 172.9;"
	 xml:space="preserve">
<g id="레이어_2_1_">
	<g transform="matrix( 0.4924774169921875, 0, 0, 0.4924774169921875, 853.65,835.05) ">
		<g transform="matrix( 1, 0, 0, 1, 0,-221.3) ">
			<g transform="matrix( 1, 0, 0, 1, 0.65,51.75) ">
				<g transform="matrix( 1, 0, 0, 1, 0,0) ">
					<g>
						<g>
							<path style="fill:#581F15;" d="M-1386.7-1525.7c-12.4-0.1-23.6,3.7-33.4,11.3c-11.9,10.7-17.6,23.8-17,39.5
								c0.3,9,3.8,16.6,10.3,22.8c0.7,0.7,1.4,1.3,2.1,1.8c1.8,0.9,3.6,1.8,5.4,2.7c2.4,1.1,4.8,1.7,7.3,1.8c1.5-0.9,3-1.6,4.5-2.2
								c7.6-2,14.8-1.1,21.7,2.8c5.9,3.4,10.4,8.2,13.4,14.4c2.6,5.5,3.8,11.4,3.6,17.6c-0.2,6.6-1.5,13-3.9,19.3
								c-0.7,1.9-1.7,3.6-2.9,5.2l-0.1,0.1c-3.5,4.5-7.5,6.6-12,6.1l-0.2,0.1c0.4,0.2,1.2,0.4,2.5,0.6c1.1,0.2,1.8,0.3,2.2,0.3
								c2.5,0.2,4.8-0.1,7.1-1c2.3-0.9,4.4-2.2,6.2-3.8c2.3-2.1,4.1-4.5,5.6-7.4c0,0.5-0.1,0.9-0.1,1.4c-0.2,3-1,5.7-2.4,8.3
								c-1.8,3.3-4.4,5.9-7.7,7.7c5.6,0.7,11.1,0.3,16.5-1.2c5.9-1.6,11.3-4.4,16-8.4c4.8-4,8.9-8.6,12.2-13.8
								c3.3-5.1,6.1-10.5,8.3-16.3c2.2-5.7,3.6-11.6,4.3-17.8c0.6-6.1,0.6-12.2-0.2-18.3c-0.8-6.2-1.9-12.3-3.5-18.5
								c-0.6-2-1.1-4-1.8-6.1c-3.9-12.4-10.6-23.1-20.2-31.9c-2.3-2.1-4.8-4.1-7.4-5.9C-1361.1-1522.2-1373.3-1525.9-1386.7-1525.7z
								"/>
						</g>
					</g>
				</g>
				<g transform="matrix( 1, 0, 0, 1, -7.15,-56.9) ">
					<g>
						<g>
							<path style="fill:#AD2222;" d="M-1434.2-1429.8c-2.1,1.7-3,3.5-2.9,5.2c0.1,1.3,0.7,2.6,2,3.8c0.7,0.7,1.9,1.6,3.5,2.8
								c0.9,0.8,2,1.9,3.3,3.5c1.5,1.8,2.6,3,3.2,3.6c0.9,1,2.5,2.4,4.7,4.2c1.7,1.5,4.4,4.5,8.3,8.9c3.4,3.9,6.3,6.7,8.7,8.6
								c2.6,2,4.8,2.6,6.6,1.9c1.1-0.4,2-1.3,2.7-2.6c0.8-1.4,1.1-3.2,1.1-5.2c0-1.5-0.3-3.3-0.9-5.4c-0.9-3.6-2-6.5-3.2-8.7
								c-1.1-2.1-2.9-4.6-5.4-7.4c-3-3.5-5.6-6.3-7.9-8.3c-3.1-2.8-6.2-4.9-9.3-6.3c-3.1-1.4-5.8-1.9-8.3-1.5
								C-1430.1-1432.5-1432.2-1431.5-1434.2-1429.8z"/>
						</g>
					</g>
				</g>
				<g transform="matrix( 1, 0, 0, 1, -7.15,-56.9) ">
					<g>
						<g>
							<path style="fill:#CB2C2C;" d="M-1442.9-1424.5c-1.2,0.9-2.4,2.2-3.7,4c-1.2,1.7-1.8,3.2-1.8,4.4c0,1,0.5,2.1,1.3,3.1
								c0.5,0.7,1.4,1.5,2.5,2.4c2.4,1.9,6.1,4.8,10.9,8.6c4.3,3.4,7.9,6.4,10.8,8.9c1.7,1.5,4.1,3.7,7.3,6.6
								c2.9,2.6,5.4,4.7,7.5,6.3c1.9,1.4,3.4,2.2,4.7,2.4c1.6,0.2,3.2-0.2,4.6-1.4c1.4-1,2.4-2.4,3-4.1c1.4-3.8,0.7-8.5-1.9-14.2
								c-2.4-5.2-5.7-9.9-9.7-14.3c-3.9-4.2-8.4-7.8-13.5-10.9c-3.9-2.4-7.6-3.8-10.9-4.3c-2-0.3-4-0.3-5.9,0.1
								C-1439.6-1426.4-1441.4-1425.6-1442.9-1424.5z"/>
						</g>
					</g>
				</g>
			</g>
		</g>
	</g>
</g>
<path style="fill:#581F15;" d="M86.9,11.9C61,11.8,39.9,18.8,23.7,33C7.5,47.2,0.4,68.7,2.3,97.6c2,28.9,12.1,47.9,30.3,57
	c18.2,9.1,39.8,13,64.6,11.7c24.8-1.3,44.2-7.5,58.2-18.6s20.4-30.5,19.5-58c-1-27.5-9.4-47.4-25.3-59.4S112.8,12.1,86.9,11.9z"/>
<path style="fill:#FFD4B8;" d="M3.9,114.1c2.2-3.5,6.1-5.6,10.2-5.5c4.8-0.2,9.4,1.7,12.7,5.2c2.8,3,5.4,7.8,7.6,14.4
	c0,0.3,0,0.6,0,0.8c-0.2,3.5-0.6,6.9-1.4,10.3c-2.2,9.3-6.7,14-13.5,14c-2.6-0.1-5.2-1-7.3-2.6c-2.4-1.8-4.5-4.1-6-6.6
	c-1.8-2.8-3.2-5.8-4.2-8.9c-1-3-1.5-6.2-1.5-9.4C0.4,121.7,1.6,117.6,3.9,114.1z"/>
<path style="fill:#FFB79C;" d="M28.5,122.8c0.3,0.4,0.7,0.7,1,1c1.8,1.2,2.8,3.2,2.7,5.3c-0.1,2.6-0.5,5.1-1.4,7.5
	c-0.8,2.5-2.7,4.5-5.1,5.4c-2.5,1.1-5.2,1.1-7.8,0.2c-2.4-0.8-4.4-2.5-5.6-4.7c-1.3-2.3-2.1-4.9-2.6-7.5c-0.5-2.6-0.2-5.3,0.8-7.7
	c0.9-2.5,3.1-4.4,5.7-4.8c2-0.2,4.1,0.1,6,0.9C24.7,119.4,26.8,120.9,28.5,122.8z"/>
<path style="fill:#FFD4B8;" d="M169.7,114.1c-2.2-3.5-6.1-5.6-10.2-5.5c-4.8-0.2-9.4,1.7-12.7,5.2c-2.8,3-5.4,7.8-7.6,14.4
	c0,0.3,0,0.6,0,0.8c0.2,3.5,0.7,6.9,1.4,10.3c2.2,9.3,6.7,14,13.5,14c2.6-0.1,5.2-1,7.3-2.6c2.4-1.8,4.5-4.1,6.1-6.6
	c1.8-2.8,3.2-5.8,4.2-8.9c1-3,1.5-6.2,1.6-9.4C173.2,121.7,172,117.6,169.7,114.1z"/>
<path style="fill:#FFB79C;" d="M145.1,122.8c-0.3,0.4-0.7,0.7-1,1c-1.8,1.2-2.8,3.2-2.7,5.3c0.1,2.6,0.5,5.1,1.4,7.5
	c0.8,2.5,2.7,4.5,5.1,5.4c2.5,1.1,5.2,1.1,7.8,0.2c2.4-0.8,4.5-2.5,5.6-4.7c1.3-2.3,2.2-4.9,2.6-7.5c0.5-2.6,0.2-5.3-0.8-7.7
	c-0.9-2.5-3.1-4.4-5.7-4.8c-2-0.2-4.1,0.1-6,0.9C148.9,119.4,146.8,120.9,145.1,122.8z"/>
<path style="fill:#581F15;" d="M145.3,116.1c0,5.2,0.1,8.8,0.3,10.7c0.3,2.8,0.9,4.3,1.8,4.3c0.7,0,1.7-0.7,2.8-2.1
	c1.6-2.1,3-4.4,4-6.9c2.4-6.1,4.1-12.4,5-18.9h-13.2C145.4,108.2,145.3,112.6,145.3,116.1z"/>
<path style="fill:#FFD4B8;" d="M150,82.2c0-11-2.1-20.6-6.2-28.8c-15.2-10.9-33.7-17.7-55.4-20.3C66,34.7,46.2,41.9,29.3,54.6
	c-3.7,7.9-5.6,17.1-5.6,27.6c0,8.8,0.5,17.6,1.5,26.3c1.3,12.8,2,19.5,2,20.2c0,0.7,0.1,2.6,0.2,5.5c0.1,2.2,0.2,4.1,0.4,5.5
	c0.4,3.9,1.5,7.6,3.3,11.1l1.1,2c3.6,5.8,9,10.3,15.3,12.8c6.7,2.8,13.8,4.7,21.1,5.5c6.1,0.7,12.2,1,18.3,0.7
	c6.1,0.2,12.2,0,18.3-0.7c7.2-0.9,14.3-2.7,21.1-5.5c6.3-2.6,11.6-7.1,15.3-12.8l1.1-2c1.8-3.4,3-7.2,3.3-11.1
	c0.2-1.4,0.3-3.2,0.4-5.5c0.1-2.9,0.2-4.7,0.2-5.5c0-0.6,0.7-7.4,2-20.2C149.5,99.8,150,91,150,82.2z"/>
<path style="fill:#581F15;" d="M140.3,40.8c-3.5-2.9-7.7-4.7-12.2-5.5c-4.5-0.8-8.9-1.6-13.4-2.5c-4.1-0.8-8.3-1.3-12.5-1.5
	c-4.6-0.1-9.3-0.1-13.9,0l-11.9,0.2c-4.6,0.1-9.3,0.6-13.8,1.6c-2.9,0.6-5.8,1.6-8.5,3c-0.9,0.5-1.6,1.3-1.9,2.3
	c-0.1-0.6-0.2-1.1-0.4-1.7L51.5,37L51,40c-2.1-0.2-4.3,0.1-6.3,0.8c-5.4,1.9-10.3,5.1-14.2,9.3c-4,4.1-6.8,9.2-8.1,14.8
	c-0.7,2-1.3,4.2-1.8,6.2c-1.2,4.9-0.8,10,1.1,14.6c0.2,0.7,0.7,1.2,1.3,1.6c0.5,0.2,1,0.3,1.5,0.2c3.4-0.5,6.6-1.8,9.4-3.8
	c3.5-2.5,6.5-5.6,8.9-9.1c3.7-5.3,6.5-11.2,8.4-17.4c0.9-3,1.5-6.1,1.7-9.2c0.1,0.3,0.2,0.7,0.3,1c1.3,4.5,3.2,8.7,5.5,12.8
	c2.3,4,5.2,7.5,8.8,10.4c3.5,2.8,6.3,4.5,8.3,5.3c1.9,0.7,3.9,1.3,6,1.8c-3.2-2.5-6.3-5.3-9.2-8.2l1.1,0.8c2.6,2,5.5,3.4,8.6,4.3
	c5.5,1.5,11.3,2.3,17,2.5c7.6,0.3,15.1-1.8,21.4-5.9c1.3,1.1,2.8,1.9,4.4,2.5c3.3,1.3,6.8,2.3,10.3,3.1c4.9,1.1,9.9,1,14.7-0.5
	c0.5-0.2,1.1-0.3,1.6-0.5c2.3-0.9,4.3-2.6,5.7-4.7c0.1-0.2,0.1-0.3-0.2-0.4c-1.9-0.6-3.6,0.1-5.2,2c0.8-3.4,0.8-6.9,0.2-10.3
	c-0.8-4.4-2.1-8.6-4-12.7C146.4,47.1,143.7,43.6,140.3,40.8z"/>
<path style="fill:none;stroke:#7E2A1B;stroke-width:14.0278;stroke-linecap:round;stroke-linejoin:round;" d="M58.9,31.5
	c20.1,10.5,45.4,12.4,76.1,5.8"/>
<path style="fill:none;stroke:#EE6464;stroke-width:1.2292;stroke-linecap:round;stroke-linejoin:round;" d="M76.8,152.3
	c7,5.2,14.2,5.1,21.3-0.3"/>
<path style="fill:none;stroke:#E5815C;stroke-width:2.4501;stroke-linecap:round;stroke-linejoin:round;" d="M83.4,144.5
	c0.2-1.7,1.6-2.9,3.3-2.8c2.4,0,3.6,1,3.9,3"/>
<path style="fill:#FFB79C;" d="M137.5,150c0-1.2-1.4-2.3-4.2-3.2c-6.6-1.7-13.5-1.7-20.1,0c-2.8,0.9-4.2,2-4.2,3.2s1.4,2.3,4.2,3.2
	c6.6,1.8,13.5,1.8,20.1,0C136.2,152.3,137.5,151.2,137.5,150z"/>
<path style="fill:#FFB79C;" d="M64.3,150c0-1.2-1.4-2.3-4.2-3.2c-6.6-1.7-13.5-1.7-20.1,0c-2.8,0.9-4.2,2-4.2,3.2s1.4,2.3,4.2,3.2
	c6.6,1.8,13.5,1.8,20.1,0C62.9,152.3,64.3,151.2,64.3,150z"/>
<path style="fill:#FFFFFF;" d="M135,122.9c0-10.3-8.4-18.6-18.7-18.6c0,0,0,0,0,0c-10.3-0.1-18.6,8.2-18.7,18.4c0,0.1,0,0.1,0,0.2
	c-0.1,5,1.9,9.7,5.4,13.2c7.3,7.3,19.1,7.3,26.5,0C133,132.6,135,127.9,135,122.9z"/>
<path style="fill:#FFFFFF;" d="M37.1,122.9c0-10.3,8.4-18.6,18.7-18.6c0,0,0,0,0,0c10.3-0.1,18.6,8.2,18.7,18.4c0,0.1,0,0.1,0,0.2
	c0.1,5-1.9,9.7-5.4,13.2c-7.3,7.3-19.1,7.3-26.5,0C39,132.6,37,127.9,37.1,122.9z"/>
<path style="fill:#2E130E;" d="M129,125.5c0.1-3.9-1.4-7.6-4-10.5c-4.8-5.3-12.9-5.8-18.3-1c-0.4,0.3-0.7,0.7-1,1
	c-5.3,6-5.3,15,0,21c4.7,5.3,12.8,5.8,18.2,1.1c0.4-0.4,0.8-0.7,1.1-1.1C127.6,133.1,129,129.4,129,125.5z"/>
<path style="fill:#FFFFFF;" d="M105.6,119c0-1.7,1.4-3.2,3.2-3.2c1.7,0,3.2,1.4,3.2,3.2c0,0.8-0.3,1.6-0.9,2.2
	c-0.6,0.6-1.4,0.9-2.2,0.9C107,122.2,105.6,120.8,105.6,119C105.6,119,105.6,119,105.6,119z"/>
<path style="fill:#2E130E;" d="M43.1,125.5c-0.1-3.9,1.4-7.6,4-10.5c4.8-5.3,12.9-5.8,18.3-1c0.4,0.3,0.7,0.7,1,1c5.3,6,5.3,15,0,21
	c-4.7,5.3-12.8,5.8-18.2,1.1c-0.4-0.4-0.8-0.7-1.1-1.1C44.4,133.1,43,129.4,43.1,125.5z"/>
<path style="fill:#FFFFFF;" d="M66.4,119c0-1.7-1.4-3.2-3.2-3.1c-0.8,0-1.6,0.3-2.2,0.9c-1.2,1.2-1.2,3.2,0,4.5
	c1.2,1.2,3.2,1.2,4.5,0C66.1,120.6,66.4,119.8,66.4,119z"/>
<path style="fill:none;stroke:#ECAA92;stroke-width:1.6362;stroke-linecap:round;stroke-linejoin:round;" d="M124.3,140.8
	c-7.5,2.5-13.3,2.2-17.4-0.9"/>
<path style="fill:none;stroke:#270F0B;stroke-width:1.6362;stroke-linecap:round;stroke-linejoin:round;" d="M97.9,114.5
	c4.5-6.9,10.7-10.3,18.5-10.3c7.6,0.5,13.7,4.1,18.2,11"/>
<path style="fill:none;stroke:#270F0B;stroke-width:0.8139;stroke-linecap:round;stroke-linejoin:round;" d="M130.2,103.6l-3,3.7"/>
<path style="fill:none;stroke:#270F0B;stroke-width:0.8139;stroke-linecap:round;stroke-linejoin:round;" d="M118.7,99.1l-1,5.5"/>
<path style="fill:none;stroke:#270F0B;stroke-width:0.8139;stroke-linecap:round;stroke-linejoin:round;" d="M105.9,100.8l2.2,5.2"
	/>
<path style="fill:none;stroke:#431E17;stroke-width:1.6362;stroke-linecap:round;stroke-linejoin:round;" d="M105.3,88.2
	c9.7-5.7,18.1-4.3,25.3,4.2"/>
<path style="fill:none;stroke:#ECAA92;stroke-width:1.6362;stroke-linecap:round;stroke-linejoin:round;" d="M47.8,140.8
	c7.5,2.5,13.3,2.2,17.4-0.9"/>
<path style="fill:none;stroke:#270F0B;stroke-width:1.6362;stroke-linecap:round;stroke-linejoin:round;" d="M74.1,114.5
	c-4.5-6.9-10.7-10.3-18.5-10.3c-7.6,0.5-13.7,4.1-18.2,11"/>
<path style="fill:none;stroke:#270F0B;stroke-width:0.8139;stroke-linecap:round;stroke-linejoin:round;" d="M41.8,103.6l3,3.7"/>
<path style="fill:none;stroke:#270F0B;stroke-width:0.8139;stroke-linecap:round;stroke-linejoin:round;" d="M53.3,99.1l1,5.5"/>
<path style="fill:none;stroke:#270F0B;stroke-width:0.8139;stroke-linecap:round;stroke-linejoin:round;" d="M66.1,100.8l-2.2,5.2"
	/>
<path style="fill:none;stroke:#431E17;stroke-width:1.6362;stroke-linecap:round;stroke-linejoin:round;" d="M66.8,88.2
	c-9.7-5.7-18.1-4.3-25.3,4.2"/>
</svg>
