<?xml version="1.0" encoding="utf-8"?>
<!-- Generator: Adobe Illustrator 25.2.0, SVG Export Plug-In . SVG Version: 6.00 Build 0)  -->
<svg version="1.1" id="레이어_2_1_" xmlns="http://www.w3.org/2000/svg" xmlns:xlink="http://www.w3.org/1999/xlink" x="0px"
	 y="0px" width="173px" height="171px" viewBox="0 0 173 171" style="enable-background:new 0 0 173 171;" xml:space="preserve">
<path style="fill:#230D09;" d="M85.8,11.9C60.1,11.7,39.3,18.5,23.1,32S-0.1,66.6,1.9,94.9c1.9,28.3,11.9,47.4,30.1,57.1
	s39.5,13.9,64,12.6c24.6-1.3,43.8-8.3,57.6-21.1c13.8-12.8,20.2-32.1,19.3-58c-0.9-25.9-9.3-44.6-25-56.2
	C132.1,17.8,111.4,12,85.8,11.9z"/>
<path style="fill:none;stroke:#2E0A0A;stroke-width:0.8055;stroke-linecap:round;stroke-linejoin:round;" d="M172.9,85.5
	c1,25.9-5.5,45.3-19.3,58c-13.8,12.8-33,19.8-57.6,21.1c-24.6,1.3-45.9-3-64.1-12.7c-18.1-9.7-28.2-28.7-30-57.1
	C-0.1,66.6,7,45.7,23.2,32.1c16.1-13.6,37-20.3,62.6-20.2c25.6,0.1,46.3,6,62.1,17.5C163.6,40.9,171.9,59.6,172.9,85.5z"/>
<path style="fill:#230D09;" d="M89.4,0.1c-0.7,0.2-1.3,0.5-1.8,0.9c-1.1,1-1.9,2.5-2,4c-0.1,1.5,0.1,3.1,0.6,4.5
	c0.3,0.8,0.6,1.6,1,2.3c0.3,0.6,0.6,1.2,1,1.8c0.4,0.6,0.6,1.1,0.8,1.4c0.2,0.2,0.3,0.5,0.5,0.7l0.3,0.7c0.3,0.5,0.8,0.8,1.4,0.8
	c0.5-0.1,0.9-0.3,1.2-0.7c0.5,0.1,1,0,1.5-0.1c2.6-0.8,5-2,7.2-3.6c0.3-0.2,0.6-0.5,0.9-0.7c0.6-0.5,1.2-1,1.6-1.6
	c0.4-0.6,0.7-1.3,0.8-2c0.1-0.6,0.1-1.2-0.1-1.8c-0.2-0.5-0.4-0.9-0.7-1.3c-0.3-0.4-0.8-0.8-1.2-1.1c-0.6-0.3-1.4-0.5-2.1-0.4
	c-1,0-1.9,0.3-2.7,0.8c-0.5,0.3-1,0.7-1.5,1.2c-0.6,0.5-1.1,1.1-1.5,1.8c0-1.6-0.3-3.2-0.9-4.7c-0.4-1.2-1.3-2.2-2.5-2.6
	C90.7,0,90-0.1,89.4,0.1z"/>
<path style="fill:none;stroke:#2E0A0A;stroke-width:0.8055;stroke-linecap:round;stroke-linejoin:round;" d="M87.3,11.8
	c-0.4-0.7-0.7-1.5-1-2.3c-0.6-1.4-0.8-3-0.6-4.5c0.1-1.5,0.9-3,2-4c0.5-0.4,1.1-0.7,1.8-0.9c0.6-0.2,1.3-0.2,2,0.1
	c1.2,0.5,2.1,1.4,2.5,2.6c0.6,1.5,0.9,3.1,0.9,4.7c0.5-0.6,1-1.2,1.5-1.8c0.5-0.4,1-0.8,1.5-1.2c0.8-0.5,1.7-0.8,2.7-0.8
	c0.7,0,1.4,0.1,2.1,0.4c0.5,0.3,0.9,0.7,1.2,1.1c0.3,0.4,0.6,0.8,0.7,1.3c0.2,0.6,0.2,1.2,0.1,1.8c-0.1,0.7-0.4,1.4-0.8,2
	c-0.5,0.6-1,1.1-1.6,1.6c-0.3,0.2-0.6,0.5-0.9,0.7"/>
<path style="fill:#FFD4B8;" d="M3.7,113.4c2.2-3.4,6-5.5,10.1-5.4c4.8-0.2,9.3,1.7,12.6,5.2c2.8,3,5.3,7.8,7.5,14.2
	c0,0.3,0,0.6,0,0.8c-0.2,3.4-0.6,6.9-1.4,10.2c-2.2,9.2-6.6,13.9-13.4,13.9c-2.6-0.1-5.1-1-7.2-2.6c-2.4-1.8-4.4-4-6-6.6
	c-1.8-2.7-3.2-5.7-4.1-8.8c-1-3-1.5-6.1-1.5-9.3C0.2,121,1.4,116.9,3.7,113.4z"/>
<path style="fill:#FFB79C;" d="M28,122.1c0.3,0.4,0.7,0.7,1,1c1.8,1.1,2.8,3.1,2.7,5.2c-0.1,2.5-0.5,5-1.4,7.4
	c-0.8,2.4-2.6,4.4-5,5.4c-2.4,1-5.2,1.1-7.7,0.2c-2.4-0.8-4.4-2.5-5.6-4.7c-1.3-2.3-2.1-4.8-2.6-7.4c-0.5-2.6-0.2-5.2,0.8-7.6
	c0.9-2.5,3.1-4.3,5.7-4.7c2-0.2,4,0.1,5.9,0.9C24.2,118.6,26.3,120.1,28,122.1z"/>
<path style="fill:#230D09;" d="M27.7,113.3c0-2.9-0.1-6.2-0.4-10.1L23.7,75l-9.2,28.2c0.9,5.5,2.4,10.8,4.5,16
	c1,2.5,2.3,4.8,3.9,6.8c1.2,1.4,2.1,2.1,2.8,2.1c0.9,0,1.5-1.4,1.7-4.2C27.6,122,27.7,118.5,27.7,113.3z"/>
<path style="fill:none;stroke:#2E0A0A;stroke-width:0.8055;stroke-linecap:round;stroke-linejoin:round;" d="M14.5,103.2
	c0.9,5.5,2.4,10.8,4.5,16c1,2.5,2.3,4.8,3.9,6.8c1.2,1.4,2.1,2.1,2.8,2.1c0.9,0,1.5-1.4,1.7-4.2c0.2-1.9,0.3-5.4,0.3-10.6
	c0-2.9-0.1-6.2-0.4-10.1"/>
<path style="fill:#FFD4B8;" d="M167.7,113.4c-2.2-3.4-6-5.5-10.1-5.4c-4.7-0.2-9.3,1.7-12.6,5.2c-2.8,3-5.3,7.8-7.5,14.2
	c0,0.3,0,0.6,0,0.8c0.2,3.4,0.6,6.9,1.4,10.2c2.2,9.2,6.6,13.9,13.4,13.9c2.6-0.1,5.1-1,7.2-2.6c2.4-1.8,4.4-4,6-6.6
	c1.8-2.7,3.1-5.7,4.1-8.8c1-3,1.5-6.1,1.5-9.3C171.1,121,170,116.9,167.7,113.4z"/>
<path style="fill:#FFB79C;" d="M143.4,122.1c-0.3,0.4-0.6,0.7-1,1c-1.8,1.1-2.8,3.1-2.7,5.2c0.1,2.5,0.5,5,1.4,7.4
	c0.8,2.4,2.6,4.4,5,5.4c2.4,1,5.2,1.1,7.7,0.2c2.4-0.8,4.4-2.5,5.6-4.7c1.3-2.3,2.1-4.8,2.6-7.4c0.5-2.6,0.2-5.2-0.8-7.6
	c-0.9-2.5-3.1-4.3-5.7-4.7c-2-0.2-4,0.1-5.9,0.9C147.1,118.6,145,120.1,143.4,122.1z"/>
<path style="fill:#230D09;" d="M144.1,102.5c-0.4,5.1-0.5,9.4-0.5,12.9c0,5.2,0.1,8.7,0.3,10.6c0.3,2.8,0.8,4.2,1.7,4.2
	c0.7,0,1.6-0.7,2.8-2.1c1.6-2.1,2.9-4.4,3.9-6.8c2.4-6,4.1-12.3,4.9-18.7c2.7-27.4,0.4-36.3-7-26.7
	C143.6,73.5,141.6,82.4,144.1,102.5z"/>
<path style="fill:none;stroke:#2E0A0A;stroke-width:0.8055;stroke-linecap:round;stroke-linejoin:round;" d="M157.2,102.5
	c-0.9,6.4-2.5,12.7-4.9,18.7c-1,2.4-2.3,4.8-3.9,6.8c-1.1,1.4-2.1,2.1-2.8,2.1c-0.9,0-1.5-1.4-1.7-4.2c-0.2-1.9-0.3-5.4-0.3-10.6
	c0-3.5,0.2-7.8,0.5-12.9"/>
<path style="fill:#FFD4B8;" d="M142.1,53.3c-15.1-10.8-33.3-17.5-54.8-20.1C65.1,34.9,45.5,42,28.8,54.5c-3.7,7.8-5.5,16.9-5.5,27.3
	c0,8.7,0.5,17.4,1.5,26c1.3,12.7,2,19.3,2,20s0.1,2.5,0.2,5.4c0.1,2.2,0.2,4,0.4,5.4c0.4,3.8,1.5,7.6,3.3,10.9l1.1,2
	c3.6,5.7,8.9,10.2,15.1,12.7c6.7,2.8,13.7,4.6,20.8,5.5c6,0.7,12,1,18.1,0.7c6,0.2,12.1,0,18.1-0.7c7.2-0.9,14.2-2.7,20.8-5.5
	c6.2-2.6,11.5-7,15.1-12.7l1.1-2c1.8-3.4,2.9-7.1,3.3-10.9c0.2-1.4,0.3-3.2,0.4-5.4c0.1-2.9,0.2-4.7,0.2-5.4c0-0.6,0.7-7.3,2-20
	c0.9-8.6,1.4-17.3,1.5-26C148.3,70.9,146.2,61.4,142.1,53.3z"/>
<path style="fill:#230D09;" d="M140.6,39.6c-1-0.8-1.9-1.7-2.8-2.6c-0.9-0.9-1.8-1.8-2.9-2.7c-0.7-0.6-1.5-1.1-2.3-1.4
	c-3.2-1.4-6.6-2.4-10.1-2.9c-6.8-1.2-13.7-1.9-20.5-2.2c-2.6-0.1-5.1-0.2-7.7-0.2c-3.5-0.1-7-0.1-10.5-0.1h-8.6
	c-3,0-6.1,0.2-9.2,0.5c-3.5,0.5-7,1.1-10.5,1.9c-4,0.9-8,2.1-12,3.3c-2.8,0.9-5.5,2.2-8.1,3.7c-2.1,1.2-4.1,2.5-6.1,3.9
	c-1.5,1-3,2.2-4.3,3.5c-2.1,2.1-3.8,4.6-5,7.3c-0.3,0.7-0.6,1.3-0.8,2c-0.6,1.8-1.1,3.7-1.5,5.5c-0.4,2.3-0.6,4.6-0.4,6.9
	c0.3,3.7,1.6,7.3,3.8,10.3c0.2,0.2,0.3,0.4,0.5,0.6c0.6,0.7,1.4,1.4,2.2,1.9c2.6,1.8,6,2.2,9,1.1c2.7-1,5.1-2.7,6.7-5.1
	c0.9,0.1,1.7,0.2,2.6,0.2c2.6,0,5.1-0.7,7.3-2.1c2.2-1.6,4-3.8,5.2-6.3c1.5-2.9,2.2-6.6,2.2-11.1c1.3,4.4,3.2,8.7,5.8,12.6
	c1.4,2.1,3.5,3.7,5.9,4.3C70,73,71.6,72.8,73,72c0.9-0.5,1.7-1.3,2-2.3l0.5,0.6c1.4,1.8,3.4,3,5.7,3.4c0.7,0.1,1.4,0.1,2.1-0.1
	c1.8-0.4,3.4-1.6,4.2-3.3l0.5-1c0.5,0.6,1.1,1.1,1.7,1.6c2.2,1.8,4.9,2.8,7.7,2.8c0.9,0,1.8-0.2,2.6-0.6c2.2-1.1,3.9-3.1,4.6-5.4
	c1.4,1.6,3.3,2.8,5.4,3.3c1.6,0.4,3.3,0.3,4.8-0.4c2.3-1,4-2.8,4.9-5.1c1.3-3.4,2.3-6.9,3-10.5c0.4,1.5,1,3.1,1.6,4.6
	c1.4,3.4,3.7,6.4,6.6,8.6c2.8,2.3,6.3,3.4,9.9,3.3c2.3-0.2,4.4-0.9,6.4-2.1c0.8-0.4,1.5-0.9,2.3-1.4l0.9-0.6c0.7-0.4,1.2-1,1.6-1.6
	c0.5-0.8,0.4-1.8-0.2-2.5c0-0.4-0.1-0.9-0.1-1.3c-0.3-1.4-0.7-2.8-1.1-4.2c-0.9-3.2-2-6.4-3.3-9.5c-0.7-1.9-1.8-3.7-3.2-5.2
	C142.9,41.8,141.8,40.7,140.6,39.6z"/>
<path style="fill:none;stroke:#2E0A0A;stroke-width:0.8055;stroke-linecap:round;stroke-linejoin:round;" d="M149.4,68
	c-0.8,0.5-1.5,1-2.3,1.4c-1.9,1.2-4.1,1.9-6.4,2.1c-3.6,0.2-7.1-1-9.9-3.3c-2.9-2.3-5.2-5.2-6.6-8.6c-0.6-1.5-1.1-3-1.6-4.6
	c-0.7,3.6-1.7,7.1-3,10.5c-0.8,2.3-2.6,4.2-4.9,5.1c-1.5,0.7-3.2,0.8-4.8,0.4c-2.1-0.5-4-1.7-5.4-3.3c-0.7,2.4-2.4,4.4-4.6,5.4
	c-0.8,0.4-1.7,0.6-2.6,0.6c-2.8,0-5.5-1-7.7-2.8c-0.6-0.5-1.2-1.1-1.7-1.6l-0.5,1c-0.8,1.7-2.4,2.9-4.2,3.3
	c-0.7,0.1-1.4,0.2-2.1,0.1c-2.3-0.4-4.3-1.6-5.7-3.4L75,69.6c-0.4,1-1.1,1.8-2,2.3c-1.4,0.8-3,0.9-4.5,0.5c-2.4-0.6-4.5-2.2-5.9-4.3
	c-2.5-3.9-4.5-8.1-5.8-12.6c0,4.5-0.7,8.2-2.2,11.1c-1.2,2.5-3,4.7-5.2,6.3c-2.2,1.4-4.7,2.1-7.3,2.1c-0.9,0-1.8-0.1-2.6-0.2
	c-1.7,2.4-4,4.1-6.7,5.1c-3,1.1-6.3,0.7-9-1.1c-0.8-0.5-1.6-1.2-2.2-1.9"/>
<path style="fill:none;stroke:#481B13;stroke-width:13.8822;stroke-linecap:round;stroke-linejoin:round;" d="M58.1,31.7
	c19.9,10.3,45,12.2,75.4,5.7"/>
<path style="fill:none;stroke:#EE6464;stroke-width:1.2164;stroke-linecap:round;stroke-linejoin:round;" d="M75.8,151.3
	c7,5.2,14,5.1,21.1-0.3"/>
<path style="fill:none;stroke:#E5815C;stroke-width:2.4247;stroke-linecap:round;stroke-linejoin:round;" d="M82.3,143.5
	c0.2-1.7,1.6-2.9,3.3-2.8c2.3,0,3.6,1,3.8,3"/>
<path style="fill:#FFB79C;" d="M135.9,149c0-1.2-1.4-2.3-4.1-3.2c-6.5-1.7-13.4-1.7-19.9,0c-2.7,0.9-4.1,1.9-4.1,3.2
	c0,1.2,1.4,2.3,4.1,3.1c6.5,1.8,13.4,1.8,19.9,0C134.5,151.2,135.9,150.2,135.9,149z"/>
<path style="fill:#FFB79C;" d="M63.4,149c0-1.2-1.4-2.3-4.1-3.2c-6.5-1.7-13.4-1.7-19.9,0c-2.7,0.9-4.1,1.9-4.1,3.2
	c0,1.2,1.4,2.3,4.1,3.1c6.5,1.8,13.4,1.8,19.9,0C62,151.2,63.4,150.2,63.4,149z"/>
<path style="fill:#FFFFFF;" d="M133.3,122.1c0-10.2-8.3-18.4-18.5-18.4c0,0,0,0,0,0c-10.1-0.1-18.4,8.1-18.5,18.3c0,0.1,0,0.1,0,0.2
	c-0.1,4.9,1.9,9.6,5.4,13c7.2,7.2,18.9,7.2,26.2,0C131.4,131.8,133.4,127,133.3,122.1z"/>
<path style="fill:#FFFFFF;" d="M36.5,122.1c0-10.2,8.3-18.4,18.5-18.4c0,0,0,0,0,0c10.1-0.1,18.4,8.1,18.5,18.3c0,0.1,0,0.1,0,0.2
	c0.1,4.9-1.9,9.6-5.4,13c-7.2,7.2-18.9,7.2-26.2,0C38.4,131.8,36.4,127,36.5,122.1z"/>
<path style="fill:#2E130E;" d="M127.4,124.7c0.1-3.8-1.3-7.6-4-10.4c-4.7-5.3-12.8-5.7-18.1-1c-0.4,0.3-0.7,0.7-1,1
	c-5.3,5.9-5.3,14.8,0,20.7c4.7,5.3,12.7,5.8,18,1.1c0.4-0.4,0.8-0.7,1.1-1.1C126.1,132.3,127.5,128.5,127.4,124.7z"/>
<path style="fill:#FFFFFF;" d="M104.3,118.3c0-1.7,1.4-3.1,3.1-3.1s3.1,1.4,3.1,3.1c0,0.8-0.3,1.6-0.9,2.2c-0.6,0.6-1.4,0.9-2.2,0.9
	C105.7,121.4,104.3,120,104.3,118.3C104.3,118.3,104.3,118.3,104.3,118.3L104.3,118.3z"/>
<path style="fill:#2E130E;" d="M42.4,124.7c-0.1-3.8,1.3-7.6,4-10.4c4.7-5.3,12.8-5.7,18.1-1c0.4,0.3,0.7,0.7,1,1
	c5.3,5.9,5.3,14.8,0,20.7c-4.7,5.3-12.7,5.8-18,1.1c-0.4-0.4-0.8-0.7-1.1-1.1C43.7,132.3,42.3,128.5,42.4,124.7z"/>
<path style="fill:#FFFFFF;" d="M65.6,118.3c0-1.7-1.4-3.1-3.2-3.1c-0.8,0-1.6,0.3-2.2,0.9c-1.2,1.2-1.2,3.2,0,4.4
	c1.2,1.2,3.2,1.2,4.4,0C65.2,119.9,65.6,119.1,65.6,118.3z"/>
<path style="fill:none;stroke:#ECAA92;stroke-width:1.6192;stroke-linecap:round;stroke-linejoin:round;" d="M122.8,139.8
	c-7.4,2.5-13.1,2.2-17.3-0.9"/>
<path style="fill:none;stroke:#270F0B;stroke-width:1.6192;stroke-linecap:round;stroke-linejoin:round;" d="M96.7,113.8
	c4.5-6.8,10.6-10.2,18.3-10.2c7.5,0.4,13.5,4.1,18,10.8"/>
<path style="fill:none;stroke:#431E17;stroke-width:1.6192;stroke-linecap:round;stroke-linejoin:round;" d="M99.2,87.9
	c8.6-6.4,16.8-6,24.8,1.2"/>
<path style="fill:none;stroke:#ECAA92;stroke-width:1.6192;stroke-linecap:round;stroke-linejoin:round;" d="M47,139.8
	c7.4,2.5,13.1,2.2,17.3-0.9"/>
<path style="fill:none;stroke:#270F0B;stroke-width:1.6192;stroke-linecap:round;stroke-linejoin:round;" d="M73.1,113.8
	c-4.5-6.8-10.6-10.2-18.3-10.2c-7.5,0.4-13.5,4.1-18,10.8"/>
<path style="fill:none;stroke:#431E17;stroke-width:1.6192;stroke-linecap:round;stroke-linejoin:round;" d="M70.6,87.9
	c-8.6-6.4-16.8-6-24.8,1.2"/>
<path style="fill:none;stroke:#FF642A;stroke-width:4.0438;stroke-linecap:round;stroke-linejoin:round;" d="M80.4,121.7
	c0,13.7-11.1,24.8-24.8,24.8c-13.7,0-24.8-11.1-24.8-24.8s11.1-24.8,24.8-24.8c6.6,0,12.9,2.6,17.5,7.3
	C77.9,108.8,80.5,115.1,80.4,121.7z"/>
<path style="fill:none;stroke:#FF642A;stroke-width:4.0438;stroke-linecap:round;stroke-linejoin:round;" d="M139.7,121.7
	c0,13.7-11.1,24.8-24.8,24.8c-13.7,0-24.8-11.1-24.8-24.8c0-13.7,11.1-24.8,24.8-24.8c6.6,0,12.9,2.6,17.5,7.3
	C137.2,108.8,139.8,115.1,139.7,121.7z"/>
<path style="fill:none;stroke:#FF642A;stroke-width:4.0438;stroke-linecap:round;stroke-linejoin:round;" d="M81.2,124h7.3"/>
</svg>
