<?xml version="1.0" encoding="utf-8"?>
<!-- Generator: Adobe Illustrator 25.2.0, SVG Export Plug-In . SVG Version: 6.00 Build 0)  -->
<svg version="1.1" id="레이어_2_1_" xmlns="http://www.w3.org/2000/svg" xmlns:xlink="http://www.w3.org/1999/xlink" x="0px"
	 y="0px" width="175px" height="157.6px" viewBox="0 0 175 157.6" style="enable-background:new 0 0 175 157.6;"
	 xml:space="preserve">
<path style="fill:#5B2911;" d="M149.1,150.4c14.9-8.4,22.7-22.2,23.6-41.6H3.2c-0.6,19.7,4.7,33.2,16,40.6
	C65.7,138.9,109,139.2,149.1,150.4z"/>
<path style="fill:#A15029;" d="M31.9,20.1C18.2,33.2,10.1,49.9,7.6,69.9C5.1,90,3.8,100.3,3.8,100.6c-0.3,2.8-0.5,5.6-0.6,8.2h169.4
	c0.1-3.1,0.1-6.2-0.1-9.3c-0.3-4.3-2.4-16.6-6.5-36.9c-4-20.2-13.1-35.6-27.2-46C124.7,6.2,106.7,0.9,85,0.7
	C63.3,0.5,45.5,6.9,31.9,20.1z"/>
<path style="fill:#A15029;" d="M11.9,52.3C7.8,64,5,73.7,3.4,81.5C1.7,90.3,0.9,99.1,1,108c-0.1,7.2,0.8,14.3,2.6,21.3
	c1.8,6.2,4.3,11.2,7.7,14.9c3.2,3.5,7.9,6.5,14.2,9c5.3,2.1,9.5,3.1,12.5,3.1c2.9,0.1,5.8-0.1,8.6-0.5c1.4-0.2,2.8-0.8,4-1.6
	l-1.5-0.7c-6.2-2.7-11.2-8.6-15.2-18c-3.7-8.8-5.7-17.2-6.1-25.3c-0.4-8.2-0.1-16.4,0.8-24.6c0.9-7.8,1.9-16.5,3.1-26.1L11.9,52.3z"
	/>
<path style="fill:#A15029;" d="M171.6,82.7c-1.6-7.8-4.4-17.5-8.5-29.2l-19.9,7.2c1.2,9.6,2.3,18.3,3.1,26.1
	c0.9,8.2,1.2,16.4,0.8,24.6c-0.4,8.1-2.4,16.5-6.1,25.2c-3.9,9.3-9,15.3-15.2,18l-1.5,0.7c1.2,0.8,2.5,1.4,4,1.6
	c2.9,0.4,5.8,0.6,8.6,0.5c3,0,7.2-1,12.5-3.1c6.3-2.5,11.1-5.5,14.2-9c3.4-3.7,5.9-8.6,7.7-14.9c1.8-6.9,2.7-14.1,2.6-21.3
	C174.1,100.3,173.3,91.4,171.6,82.7z"/>
<path style="fill:#FFD4B8;" d="M157.1,93c-1.9-3-5.3-4.8-8.9-4.8c-4.2-0.1-8.2,1.5-11,4.6c-2.5,2.6-4.7,6.8-6.6,12.5
	c0,0.2,0,0.5,0,0.7c0.2,3,0.6,6,1.2,9c1.9,8.1,5.8,12.1,11.7,12.1c2.3-0.1,4.5-0.8,6.3-2.3c2.1-1.6,3.9-3.5,5.3-5.8
	c1.5-2.4,2.8-5,3.6-7.7c0.9-2.6,1.3-5.4,1.3-8.1C160.2,99.6,159.1,96,157.1,93z"/>
<path style="fill:#FFB79C;" d="M135.8,100.5c-0.3,0.3-0.6,0.6-0.9,0.8c-1.6,1-2.4,2.8-2.3,4.6c0.1,2.2,0.5,4.4,1.2,6.5
	c0.7,2.1,2.3,3.9,4.4,4.7c2.1,0.9,4.5,1,6.7,0.2c2.1-0.7,3.9-2.1,4.9-4.1c1.1-2,1.9-4.2,2.3-6.5c0.4-2.2,0.2-4.6-0.7-6.7
	c-0.8-2.2-2.7-3.8-5-4.1c-1.8-0.1-3.5,0.1-5.2,0.8C139.1,97.5,137.3,98.8,135.8,100.5z"/>
<path style="fill:#A15029;" d="M136.4,83.4c-0.3,4.4-0.5,8.2-0.5,11.3c0,4.5,0.1,7.6,0.2,9.3c0.2,2.5,0.7,3.7,1.5,3.7
	c0.6,0,1.4-0.6,2.4-1.8c1.4-1.8,2.6-3.8,3.4-6c2.1-5.3,3.6-10.8,4.3-16.4c2.4-24,0.4-31.8-6.1-23.4C136,58,134.2,65.8,136.4,83.4z"
	/>
<path style="fill:#FFD4B8;" d="M15.1,93.1c1.9-3,5.3-4.8,8.9-4.8c4.2-0.1,8.2,1.5,11,4.6c2.5,2.6,4.7,6.8,6.6,12.5
	c0,0.2,0,0.5,0,0.7c-0.2,3-0.6,6-1.2,9c-1.9,8.1-5.8,12.2-11.7,12.1c-2.3-0.1-4.5-0.8-6.3-2.3c-2.1-1.6-3.9-3.5-5.2-5.8
	c-1.6-2.4-2.8-5-3.6-7.7c-0.9-2.6-1.3-5.4-1.3-8.1C12,99.7,13.1,96.1,15.1,93.1z"/>
<path style="fill:#FFB79C;" d="M36.4,100.7c0.3,0.3,0.6,0.6,0.9,0.8c1.5,1,2.4,2.8,2.3,4.6c-0.1,2.2-0.5,4.4-1.2,6.5
	c-0.7,2.1-2.3,3.9-4.4,4.7c-2.1,0.9-4.5,1-6.7,0.2c-2.1-0.7-3.9-2.2-4.9-4.1c-1.1-2-1.9-4.2-2.3-6.5c-0.4-2.2-0.2-4.6,0.7-6.7
	c0.8-2.2,2.7-3.8,5-4.1c1.8-0.1,3.5,0.1,5.2,0.8C33.1,97.7,34.9,99,36.4,100.7z"/>
<path style="fill:#A15029;" d="M36.1,93c0-2.5-0.1-5.5-0.3-8.9l-3.2-24.7l-8.1,24.7c0.8,4.8,2.1,9.5,3.9,14c0.9,2.1,2,4.2,3.4,6
	c1,1.2,1.8,1.8,2.4,1.8c0.8,0,1.3-1.2,1.5-3.7C36,100.6,36.1,97.5,36.1,93z"/>
<path style="fill:#FFD4B8;" d="M140.7,65.3c0-9.6-1.8-17.9-5.4-25c-13.2-9.4-29.2-15.3-48-17.6C67.8,24.2,50.7,30.4,36,41.4
	c-3.2,6.8-4.8,14.8-4.9,23.9c0,7.6,0.5,15.2,1.3,22.8c1.2,11.1,1.7,16.9,1.8,17.5c0,0.6,0.1,2.2,0.2,4.8c0.1,1.9,0.2,3.5,0.3,4.7
	c0.3,3.4,1.3,6.6,2.9,9.6l1,1.8c3.1,5,7.8,8.9,13.2,11.1c5.8,2.4,12,4.1,18.3,4.8c5.3,0.6,10.6,0.8,15.8,0.6
	c5.3,0.2,10.6,0,15.8-0.6c6.3-0.7,12.4-2.4,18.3-4.8c5.5-2.2,10.1-6.1,13.2-11.1l1-1.8c1.6-3,2.6-6.2,2.9-9.6
	c0.1-1.2,0.2-2.8,0.3-4.7c0.1-2.5,0.2-4.1,0.2-4.8c0-0.6,0.6-6.4,1.8-17.5C140.3,80.5,140.7,72.9,140.7,65.3z"/>
<path style="fill:#A15029;" d="M142.3,46.1c-0.2-0.8-0.6-1.6-1.1-2.3c-0.7-1.2-1.4-2.3-2.3-3.4c-1.2-1.6-2.8-2.9-4.5-3.9
	c-9.6-5.8-17.4-10-23.5-12.4c-8.1-3.3-16.7-4.9-25.5-5c-4.4,0.1-8.9,0.6-13.2,1.4c-5.8,1-10,1.9-12.7,2.9c-3.9,1.3-7.6,2.9-11.3,4.6
	C46,29.1,44,30.3,42,31.7c-2.6,1.7-4,2.6-4.4,2.8c-2.7,1.5-4.8,3.7-6.2,6.5c-1.3,2.8-2.2,5.7-2.7,8.8c-0.3,2.1-0.5,4.2-0.6,6.4
	c-0.1,3-0.2,5.7-0.4,8c2.1,0.5,4.2,0.8,6.3,1.1c1.7,0.2,3.3,0.4,4.9,0.5c2.1,0.1,4.1,0.2,6.2,0.1c0-0.4,0-0.7,0-1.1s0-0.6,0-1
	c0.1-1,0.3-2,0.4-3c0.1,0.5,0.3,1,0.4,1.5c0.3,1.2,0.7,2.4,1.2,3.5l0.9,0c1.9-0.1,3.7-0.3,5.6-0.5l3.8-0.6c1.6-0.3,3.2-0.6,4.7-1
	c0-0.1-0.1-0.3-0.1-0.4c-0.3-2.4-0.4-4.8-0.3-7.2c0.1-1.3,0.1-2.7,0.2-4c0-0.6,0.1-1.3,0.3-1.9c0.1,1.7,0.3,3.4,0.7,5.1
	c0.3,1.4,0.7,2.9,1.2,4.4c0.6,1.8,1.4,3.5,2.3,5.2c0.5,0,1,0,1.4,0c1.3-0.1,2.5-0.4,3.8-0.7c-0.4-1.7-0.8-3.4-1.1-5
	c-0.4-2.1-0.6-4.3-0.7-6.4c-0.1-2.1,0-4.2,0.2-6.3c0.2-2.2,0.5-4.4,1-6.6c0.2,1.7,0.4,3.3,0.6,5c0.2,1.9,0.5,3.9,0.8,5.9
	c0.3,2.1,0.7,4.2,1.3,6.2c0.6,2.2,1.3,4.4,2.1,6.5c0.2,0.5,0.4,1,0.6,1.6l2.8,0.4c-0.6-1.7-1.1-3.5-1.4-5.3
	c-0.3-1.4-0.4-2.8-0.4-4.2v-2.2c0.2,1.8,0.5,3.6,1.1,5.3c0.6,1.8,1.3,3.5,2.1,5.1c0.2,0.5,0.5,1,0.7,1.4c1.5,0.1,3.1,0.2,4.6,0.2
	c1.3,0,2.7,0,4.1-0.1c0.2,0,0.4,0,0.6-0.1c1.6-0.1,3.1-0.3,4.6-0.6l0.9-0.2c0.8-2.2,1.5-4.4,2-6.7c0.6-2.6,1.1-5.1,1.4-7.7
	c0.2-2,0.4-4,0.6-6.1c0.1-1.2,0.1-2.5,0.2-3.7c0-0.3,0-0.7,0-1c0.4,2.3,0.8,4.5,1,6.8c0.2,2.1,0.3,4.2,0.2,6.3
	c-0.1,2.2-0.3,4.3-0.7,6.4c-0.3,1.7-0.7,3.4-1.1,5c1.2,0.4,2.5,0.6,3.8,0.7c0.5,0,1,0,1.4,0c0.9-1.7,1.7-3.4,2.3-5.2
	c0.5-1.4,0.9-3,1.2-4.4c0.4-1.7,0.6-3.4,0.7-5.1c0.2,0.6,0.3,1.2,0.3,1.9c0.1,1.3,0.1,2.6,0.2,4c0.1,2.4,0,4.8-0.3,7.2
	c0,0.1,0,0.3-0.1,0.4c1.6,0.4,3.2,0.7,4.7,1l3.8,0.6c1.9,0.2,3.7,0.4,5.6,0.5l0.9,0c0.5-1.1,0.9-2.3,1.2-3.5c0.1-0.5,0.3-1,0.4-1.5
	c0.2,1,0.3,2,0.4,3c0,0.3,0,0.6,0,1c0,0.3,0,0.7,0,1.1c2.1,0,4.2,0,6.2-0.1c1.6-0.1,3.3-0.3,4.9-0.5c2-0.3,4-0.6,5.9-1
	c0-0.1,0-0.2,0-0.3c-0.1-0.5-0.1-1.3-0.1-2.4c0-1.3-0.2-3.5-0.6-6.6c-0.4-3-0.5-4.8-0.5-5.3C142.4,48.4,142.4,47.3,142.3,46.1z"/>
<path style="fill:#2CAEAB;" d="M138.6,35.2c-4.4-8.2-11.4-14.7-19.8-18.6c-8.7-4.2-18.2-6.6-27.9-7c-9.5-0.6-19,0.6-28.1,3.3
	c-9.4,2.8-17.6,8.4-23.7,16.1l-3.7,5.1c2.1-1.3,4.2-2.5,6.3-3.6c8.1-4.3,16.7-7.5,25.7-9.3c10.7-2.2,21.6-2.7,32.5-1.3
	C113.9,21.7,127.2,27,138.6,35.2z"/>
<path style="fill:#51247B;" d="M107.5,19.1l1.3-3.3L93,7.4c-0.3-0.1-0.6-0.2-0.9-0.2c-0.6-0.1-1.2-0.1-1.7,0.1C89.9,7.5,89.4,8,89,9
	c-0.3,0.9-0.6,1.9-0.8,2.9c-0.1,0.7-0.2,1.4-0.3,2.2c-0.1,1-0.1,2-0.1,3.1c-0.1,2.1,0.2,4.2,1,6.2l0.1,0.3c0.1,0.3,0.3,0.5,0.5,0.7
	c0.7,0.6,1.8,0.8,3.2,0.6c2-0.3,4-0.8,6-1.4C101.7,22.3,104.7,20.8,107.5,19.1z"/>
<path style="fill:#401964;" d="M107.5,18.4l0.2,0c-0.9-0.5-1.9-0.8-2.9-0.9c-1.1-0.1-2.1-0.1-3.2,0.1c-0.4,0-0.7,0.2-1,0.4
	c-0.3,0.2-0.5,0.6-0.5,1c0,0.4,0.2,0.9,0.6,1.1c0.3,0.3,0.8,0.4,1.2,0.4c0.3,0,0.6,0,0.9-0.1c0.2,0,0.5-0.1,0.9-0.2
	c0.7-0.2,1.3-0.4,2-0.7C106.3,19.2,106.9,18.9,107.5,18.4z"/>
<path style="fill:#67329A;" d="M106,7.4c-0.9-1.6-1.9-3.1-3-4.6c-0.4-0.6-0.9-1.2-1.4-1.7c-0.5-0.5-1.1-1-1.8-1.3
	c-0.8-0.4-1.7-0.5-2.5-0.1c-0.8,0.4-1.6,0.9-2.2,1.6c-0.8,0.9-1.5,1.8-2.1,2.9c-0.4,0.8-1,1.9-1.6,3.2c-0.5,1.1-0.9,2.2-1.2,3.3
	c-0.3,1-0.4,2-0.5,3c0,0.6,0,1.1,0.1,1.7c0.1,0.6,0.4,1.1,0.8,1.4c0.8,0.5,1.8,0.9,2.8,1.1c0.4,0.1,0.9,0.2,1.5,0.2l1.4,0.2
	c2.1,0.3,4.1,0.5,6.2,0.5h1.6c1,0,1.9-0.1,2.9-0.3l1.9-4.8C108.2,11.5,107.1,9.4,106,7.4z"/>
<path style="fill:#452069;" d="M108.6,14.2l0.2-0.4c-0.7-1.3-1.5-2.7-2.6-4.4c-1.7-2.8-3.7-5.4-6-7.8c-0.4-0.4-0.8-0.7-1.2-1
	c-0.8-0.5-1.3-0.3-1.3,0.6v0.2c0,0.2,0.1,0.4,0.1,0.5c0.3,0.8,0.7,1.6,1.2,2.3C100.8,6.9,104,10.3,108.6,14.2z"/>
<path style="fill:#452069;" d="M108.3,17L108.3,17c0.1-0.3,0.1-0.6,0.1-0.8c0-0.3-0.1-0.5-0.2-0.8c-0.3-0.2-0.5-0.5-0.7-0.7
	c-0.5-0.4-1-0.8-1.5-1.2c-0.7-0.5-1.5-0.9-2.3-1.3c-0.7-0.3-1.4-0.5-2.2-0.4c-0.7,0.1-1.2,0.7-1.2,1.4c0,0.4,0.1,0.7,0.3,1
	c0.2,0.3,0.5,0.5,0.8,0.7c1,0.7,2.2,1.1,3.4,1.4C105.9,16.7,107.1,16.9,108.3,17z"/>
<path style="fill:#51247B;" d="M130.7,23.5c-0.3-0.5-0.7-1-1.2-1.3c-0.2-0.1-0.3-0.2-0.5-0.3l-0.2-0.1l-17.2-5l-1.3,3.3
	c0.8,3.2,1.9,6.3,3.4,9.3c1,1.8,2.1,3.6,3.3,5.2c0.8,1.1,1.7,1.7,2.7,1.8c0.4,0.1,0.8,0,1.1-0.3c1.9-0.9,3.6-2.2,5-3.8
	c0.7-0.7,1.4-1.5,2-2.3c0.5-0.6,0.9-1.1,1.3-1.7c0.5-0.8,1-1.7,1.4-2.6C130.9,25.1,130.9,24.3,130.7,23.5z"/>
<path style="fill:#401964;" d="M112.2,23.6c0.2,0.3,0.4,0.6,0.5,0.8c0.2,0.3,0.4,0.5,0.6,0.7c0.3,0.3,0.7,0.5,1.2,0.5
	c0.4,0.1,0.9-0.1,1.2-0.4c0.3-0.3,0.4-0.7,0.3-1.1c0-0.4-0.2-0.7-0.5-1c-0.7-0.8-1.4-1.5-2.2-2.2c-0.8-0.7-1.7-1.1-2.7-1.4l0.1,0.1
	c0.1,0.7,0.3,1.4,0.5,2C111.5,22.4,111.8,23,112.2,23.6z"/>
<path style="fill:#67329A;" d="M127,11.4c-0.7,0-1.5,0.1-2.2,0.2c-1.8,0.3-3.6,0.7-5.3,1.2c-2.2,0.7-4.4,1.4-6.6,2.3l-1.9,4.8
	c0.6,0.8,1.2,1.5,1.9,2.2c0.4,0.4,0.8,0.8,1.2,1.1c1.5,1.4,3.1,2.8,4.8,4l1.2,0.9c0.5,0.3,0.9,0.6,1.2,0.9c0.8,0.6,1.8,0.9,2.7,1.2
	c0.6,0.1,1.1-0.1,1.6-0.4c0.5-0.3,0.9-0.7,1.2-1.2c0.7-0.8,1.2-1.6,1.7-2.5c0.6-1,1.1-2.1,1.4-3.2c0.5-1.4,0.8-2.5,1.1-3.4
	c0.3-1.1,0.5-2.3,0.5-3.5c0-0.9-0.1-1.8-0.4-2.7c-0.3-0.8-1-1.4-1.9-1.6C128.4,11.4,127.7,11.4,127,11.4z"/>
<path style="fill:#452069;" d="M129.1,14.5c0.2-0.1,0.4-0.2,0.6-0.4c0.6-0.7,0.4-1.2-0.5-1.4c-0.4-0.1-0.7-0.1-1.1-0.1h-0.5
	c-3.3,0.1-6.5,0.6-9.7,1.4c-1.2,0.3-2.4,0.6-3.5,1l-1.4,0.4l-0.2,0.4c6,0.4,10.6,0.2,13.8-0.5C127.5,15.1,128.3,14.9,129.1,14.5z"/>
<path style="fill:#452069;" d="M119.4,21.1c0.5-0.5,0.6-1.3,0.2-1.9c-0.5-0.6-1.1-1-1.8-1.2c-1.4-0.5-2.9-0.8-4.5-1
	c-0.3,0-0.7,0-1,0c-0.3,0-0.5,0.2-0.7,0.4c-0.1,0.1-0.3,0.4-0.6,0.6h0.1c1,0.8,2,1.5,3,2.2c1,0.7,2.2,1.1,3.4,1.4
	c0.3,0.1,0.7,0.1,1.1,0C118.8,21.6,119.1,21.4,119.4,21.1z"/>
<path style="fill:#7B3DB6;" d="M113.7,15c-0.4-0.2-0.9-0.5-1.3-0.7c-0.9-0.4-1.9-0.7-2.9-0.7c-0.3,0-0.5,0-0.8,0.2
	c-0.5,0.3-0.9,0.7-1.2,1.2c-0.3,0.5-0.5,1.1-0.7,1.6c-0.1,0.3-0.2,0.7-0.3,1c-0.1,0.3-0.1,0.7,0,1c0.1,0.2,0.2,0.4,0.3,0.6
	c0.2,0.2,0.3,0.3,0.5,0.5c0.1,0.1,0.3,0.2,0.4,0.3l0.5,0.2c0.6,0.3,1.2,0.5,1.8,0.7c0.5,0.1,0.8,0.2,1.1,0.3
	c0.3,0.1,0.6,0.1,0.7,0.1c0.2,0,0.5,0,0.7-0.1c0.2-0.1,0.4-0.2,0.5-0.4c0.1-0.2,0.3-0.4,0.4-0.6c0.5-0.9,0.9-1.8,1.1-2.7
	c0.2-0.5,0.2-1,0-1.4C114.6,15.7,114.2,15.3,113.7,15z"/>
<path style="fill:#7B3DB6;" d="M96.1,2.3c-0.1,0-0.3,0.1-0.3,0.2C93,5.9,91.3,10.2,91,14.7c0,0.1,0,0.3,0.1,0.4
	c0.1,0.1,0.2,0.1,0.3,0.2c0.1,0,0.2,0,0.3-0.1c0.1-0.1,0.2-0.2,0.2-0.3c0.3-4.3,1.9-8.4,4.6-11.8c0.1-0.1,0.1-0.2,0.1-0.4
	c0-0.1-0.1-0.2-0.2-0.3C96.4,2.3,96.3,2.3,96.1,2.3z"/>
<path style="fill:#7B3DB6;" d="M128.5,22.8c0.5-1.2,0.9-2.3,1.1-3.1c0.3-1,0.6-2.1,0.7-3.2c0-0.1,0-0.3-0.1-0.4
	c-0.1-0.1-0.2-0.1-0.3-0.2c-0.1,0-0.2,0-0.4,0.1c-0.1,0.1-0.2,0.2-0.2,0.3c-0.1,0.9-0.3,1.9-0.6,2.8c-0.2,0.7-0.5,1.6-1,2.7
	c-0.3,0.8-0.7,1.7-1.1,2.4c-0.4,0.8-1,1.5-1.7,2.1c-0.1,0.1-0.2,0.2-0.2,0.3c0,0.1,0,0.2,0.1,0.3c0.1,0.1,0.2,0.2,0.3,0.2
	c0.1,0,0.3,0,0.4-0.1c0.7-0.6,1.2-1.3,1.7-2C127.8,24.4,128.2,23.6,128.5,22.8z"/>
<path style="fill:#8B48CB;" d="M109.5,15.7c0.6-0.1,1.1,0,1.7,0.2c0.5,0.2,1,0.6,1.3,1c0.1,0.1,0.2,0.2,0.3,0.2c0.1,0,0.2,0,0.3-0.1
	c0.1-0.1,0.2-0.2,0.2-0.3c0-0.1,0-0.3-0.1-0.4c-0.9-1.2-2.4-1.8-3.9-1.6c-0.1,0-0.3,0.1-0.3,0.2c-0.1,0.2-0.1,0.5,0.1,0.7
	C109.2,15.7,109.4,15.7,109.5,15.7z"/>
<path style="fill:#67329A;" d="M89.6,17.2c-0.1,0.1-0.2,0.2-0.2,0.3c-0.1,0.8-0.1,1.6,0.1,2.4c0.1,0.8,0.4,1.5,0.9,2.2
	c0.1,0.1,0.2,0.2,0.3,0.2c0.1,0,0.2,0,0.3-0.1c0.1-0.1,0.2-0.2,0.2-0.3c0-0.1,0-0.3-0.1-0.4c-0.4-0.5-0.6-1.2-0.7-1.8
	c-0.1-0.7-0.1-1.3,0-2c0-0.3-0.2-0.5-0.5-0.5C89.9,17,89.7,17.1,89.6,17.2z"/>
<path style="fill:#67329A;" d="M124.2,30.6c-0.1,0-0.3,0.1-0.3,0.2c-0.9,1.1-2,2-3.3,2.7c-0.1,0.1-0.2,0.2-0.2,0.3
	c0,0.1,0,0.2,0,0.4c0,0.1,0.1,0.2,0.2,0.3c0.1,0.1,0.3,0.1,0.4,0c1.4-0.8,2.6-1.8,3.7-3c0.1-0.1,0.1-0.2,0.1-0.4
	c0-0.1-0.1-0.2-0.2-0.3C124.4,30.6,124.3,30.6,124.2,30.6z"/>
<path style="fill:none;stroke:#EE6464;stroke-width:1.0659;stroke-linecap:round;stroke-linejoin:round;" d="M78.3,126.1
	c6.1,4.6,12.3,4.5,18.5-0.3"/>
<path style="fill:none;stroke:#E5815C;stroke-width:2.1246;stroke-linecap:round;stroke-linejoin:round;" d="M84,119.4
	c0.2-1.5,1.4-2.5,2.9-2.4c2,0,3.2,0.8,3.4,2.6"/>
<path style="fill:#FFB79C;" d="M130.9,124.1c0-1.1-1.2-2-3.6-2.8c-5.7-1.5-11.7-1.5-17.5,0c-2.4,0.8-3.6,1.7-3.6,2.8s1.2,2,3.6,2.7
	c5.7,1.5,11.7,1.5,17.5,0C129.7,126.1,130.9,125.2,130.9,124.1z"/>
<path style="fill:#FFB79C;" d="M67.4,124.1c0-1.1-1.2-2-3.6-2.8c-5.7-1.5-11.7-1.5-17.5,0c-2.4,0.8-3.6,1.7-3.6,2.8s1.2,2,3.6,2.7
	c5.7,1.5,11.7,1.5,17.5,0C66.2,126.1,67.4,125.2,67.4,124.1z"/>
<path style="fill:#FFFFFF;" d="M128.7,100.6c0-8.9-7.3-16.2-16.2-16.1c0,0,0,0,0,0c-8.9-0.1-16.2,7.1-16.2,16c0,0,0,0.1,0,0.1
	c-0.1,4.3,1.6,8.4,4.7,11.4c6.3,6.3,16.6,6.3,22.9,0C127,109,128.8,104.9,128.7,100.6z"/>
<path style="fill:#FFFFFF;" d="M43.8,100.6c0-8.9,7.3-16.2,16.2-16.1c0,0,0,0,0,0c8.9-0.1,16.2,7.1,16.2,16c0,0,0,0.1,0,0.1
	c0.1,4.3-1.6,8.4-4.7,11.4c-6.3,6.3-16.6,6.3-22.9,0C45.5,109,43.7,104.9,43.8,100.6z"/>
<path style="fill:#2E130E;" d="M123.5,102.9c0.1-3.4-1.2-6.6-3.5-9.1c-4.1-4.6-11.2-5-15.8-0.9c-0.3,0.3-0.6,0.6-0.9,0.9
	c-4.6,5.2-4.6,13,0,18.2c4.1,4.6,11.1,5.1,15.7,1c0.3-0.3,0.7-0.6,1-1C122.3,109.5,123.5,106.2,123.5,102.9z"/>
<path style="fill:#FFFFFF;" d="M103.2,97.2c0-1.5,1.2-2.7,2.7-2.7c1.5,0,2.7,1.2,2.7,2.7c0,0.7-0.3,1.4-0.8,1.9
	c-0.5,0.5-1.2,0.8-1.9,0.8C104.5,100,103.2,98.8,103.2,97.2C103.2,97.3,103.2,97.2,103.2,97.2z"/>
<path style="fill:#2E130E;" d="M49,102.9c-0.1-3.4,1.2-6.6,3.5-9.1c4.1-4.6,11.2-5,15.8-0.9c0.3,0.3,0.6,0.6,0.9,0.9
	c4.6,5.2,4.6,13,0,18.2c-4.1,4.6-11.1,5.1-15.7,1c-0.3-0.3-0.7-0.6-1-1C50.2,109.5,48.9,106.2,49,102.9z"/>
<path style="fill:#FFFFFF;" d="M69.3,97.2c0-1.5-1.3-2.7-2.8-2.7c-0.7,0-1.4,0.3-1.9,0.8c-1.1,1.1-1.1,2.8,0,3.9
	c1.1,1.1,2.8,1.1,3.9,0C69,98.7,69.3,98,69.3,97.2z"/>
<path style="fill:none;stroke:#ECAA92;stroke-width:1.4188;stroke-linecap:round;stroke-linejoin:round;" d="M119.4,116.1
	c-6.5,2.2-11.5,1.9-15.1-0.8"/>
<path style="fill:none;stroke:#270F0B;stroke-width:1.4188;stroke-linecap:round;stroke-linejoin:round;" d="M96.6,93.3
	c3.9-6,9.3-8.9,16-8.9c6.6,0.4,11.9,3.6,15.8,9.5"/>
<path style="fill:none;stroke:#270F0B;stroke-width:0.7058;stroke-linecap:round;stroke-linejoin:round;" d="M124.5,83.9l-2.6,3.2"
	/>
<path style="fill:none;stroke:#270F0B;stroke-width:0.7058;stroke-linecap:round;stroke-linejoin:round;" d="M114.6,80l-0.9,4.8"/>
<path style="fill:none;stroke:#270F0B;stroke-width:0.7058;stroke-linecap:round;stroke-linejoin:round;" d="M103.5,81.4l1.9,4.5"/>
<path style="fill:none;stroke:#431E17;stroke-width:1.4188;stroke-linecap:round;stroke-linejoin:round;" d="M103,70.5
	c8.4-4.9,15.7-3.7,21.9,3.6"/>
<path style="fill:none;stroke:#ECAA92;stroke-width:1.4188;stroke-linecap:round;stroke-linejoin:round;" d="M53.1,116.1
	c6.5,2.2,11.5,1.9,15.1-0.8"/>
<path style="fill:none;stroke:#270F0B;stroke-width:1.4188;stroke-linecap:round;stroke-linejoin:round;" d="M75.9,93.3
	c-3.9-6-9.3-8.9-16-8.9c-6.6,0.4-11.9,3.6-15.8,9.5"/>
<path style="fill:none;stroke:#270F0B;stroke-width:0.7058;stroke-linecap:round;stroke-linejoin:round;" d="M48,83.9l2.6,3.2"/>
<path style="fill:none;stroke:#270F0B;stroke-width:0.7058;stroke-linecap:round;stroke-linejoin:round;" d="M57.9,80l0.9,4.8"/>
<path style="fill:none;stroke:#270F0B;stroke-width:0.7058;stroke-linecap:round;stroke-linejoin:round;" d="M69,81.4l-1.9,4.5"/>
<path style="fill:none;stroke:#431E17;stroke-width:1.4188;stroke-linecap:round;stroke-linejoin:round;" d="M69.5,70.5
	c-8.4-4.9-15.7-3.7-21.9,3.6"/>
</svg>
