<?xml version="1.0" encoding="utf-8"?>
<!-- Generator: Adobe Illustrator 25.2.0, SVG Export Plug-In . SVG Version: 6.00 Build 0)  -->
<svg version="1.1" id="레이어_2_1_" xmlns="http://www.w3.org/2000/svg" xmlns:xlink="http://www.w3.org/1999/xlink" x="0px"
	 y="0px" width="232px" height="218px" viewBox="0 0 232 218" style="enable-background:new 0 0 232 218;" xml:space="preserve">
<path style="fill:#7B4320;" d="M115.5,9.3C76.3-1.2,46.9,4.1,27.2,25.1c-19.6,21-25,50.5-16,88.6s23.1,63.9,42.3,77.6
	C72.8,205,97.3,210.6,127,208c29.8-2.6,52-12.9,66.5-30.9c14.5-18,24.6-44,30.2-78.1c5.6-34-2.4-61.1-24.1-81.2S149.8-5.1,115.5,9.3
	z"/>
<path style="fill:#FFD4B8;" d="M5.2,140.1c3-4.7,8.2-7.4,13.7-7.3c6.4-0.2,12.6,2.3,17,7c3.8,4.1,7.2,10.5,10.2,19.3
	c0,0.4,0,0.7,0,1.1c-0.2,4.7-0.9,9.3-1.9,13.8c-3,12.5-9,18.8-18.1,18.8c-3.5-0.1-7-1.3-9.8-3.5c-3.2-2.4-6-5.5-8.1-8.9
	c-2.4-3.7-4.3-7.7-5.6-11.9c-1.3-4.1-2-8.3-2-12.6C0.5,150.3,2.1,144.8,5.2,140.1z"/>
<path style="fill:#FFB79C;" d="M38.1,151.8c0.4,0.5,0.9,0.9,1.4,1.3c2.4,1.5,3.8,4.3,3.6,7.1c-0.1,3.4-0.7,6.8-1.8,10.1
	c-1.1,3.3-3.6,6-6.8,7.3c-3.3,1.4-7,1.5-10.4,0.3c-3.3-1-6-3.3-7.5-6.4c-1.7-3.1-2.9-6.5-3.5-10c-0.6-3.5-0.3-7,1-10.3
	c1.2-3.4,4.1-5.9,7.7-6.4c2.7-0.2,5.5,0.2,8,1.2C33,147.1,35.9,149.1,38.1,151.8z"/>
<path style="fill:#7B4320;" d="M37.7,139.9c0-3.9-0.2-8.5-0.5-13.7L32.3,88l-12.5,38.1c1.2,7.4,3.2,14.7,6.1,21.6
	c1.3,3.3,3.1,6.4,5.3,9.3c1.5,1.9,2.8,2.8,3.8,2.8c1.2,0,2-1.9,2.4-5.7C37.6,151.7,37.7,146.9,37.7,139.9z"/>
<path style="fill:#FFD4B8;" d="M227.3,140.1c-3-4.7-8.2-7.4-13.7-7.3c-6.4-0.2-12.6,2.3-17.1,7c-3.8,4.1-7.2,10.5-10.2,19.3
	c0,0.4,0,0.7,0,1.1c0.2,4.7,0.9,9.3,1.9,13.8c3,12.5,9,18.8,18.1,18.8c3.5-0.1,7-1.3,9.8-3.5c3.2-2.4,6-5.5,8.1-8.9
	c2.4-3.7,4.3-7.7,5.6-11.9c1.3-4.1,2-8.3,2.1-12.6C232,150.3,230.4,144.8,227.3,140.1z"/>
<path style="fill:#FFB79C;" d="M194.4,151.8c-0.4,0.5-0.9,0.9-1.4,1.3c-2.4,1.5-3.8,4.3-3.6,7.1c0.1,3.4,0.7,6.8,1.8,10.1
	c1.1,3.3,3.6,6,6.8,7.3c3.3,1.4,7,1.5,10.4,0.3c3.3-1,6-3.3,7.5-6.4c1.7-3.1,2.9-6.5,3.5-10c0.6-3.5,0.3-7-1-10.3
	c-1.2-3.4-4.1-5.9-7.7-6.4c-2.7-0.2-5.5,0.2-8,1.2C199.5,147.1,196.6,149.2,194.4,151.8z"/>
<path style="fill:#7B4320;" d="M195.3,125.3c-0.5,6.9-0.7,12.7-0.7,17.4c0,7,0.1,11.8,0.4,14.3c0.4,3.8,1.2,5.7,2.4,5.7
	c0.9,0,2.2-0.9,3.8-2.8c2.2-2.8,4-5.9,5.3-9.3c3.3-8.1,5.5-16.7,6.7-25.4c3.7-37.1,0.6-49.2-9.4-36.2
	C194.7,86,191.9,98.1,195.3,125.3z"/>
<path style="fill:#FFD4B8;" d="M192.7,58.7c-20.4-14.6-45.1-23.7-74.2-27.2c-30.2,2.2-56.6,11.8-79.3,28.8c-5,10.6-7.5,22.9-7.5,37
	c0.1,11.8,0.7,23.5,2,35.3c1.8,17.1,2.7,26.2,2.7,27c0.1,0.9,0.2,3.3,0.3,7.3c0.1,3,0.3,5.4,0.5,7.3c0.5,5.2,2,10.2,4.5,14.8
	l1.5,2.7c4.8,7.7,12,13.8,20.4,17.2c9,3.8,18.5,6.3,28.2,7.4c8.1,1,16.3,1.3,24.5,1c8.2,0.3,16.4,0,24.5-1
	c9.7-1.2,19.2-3.7,28.2-7.4c8.4-3.5,15.6-9.5,20.4-17.2l1.5-2.7c2.5-4.6,4-9.6,4.5-14.8c0.2-1.9,0.4-4.3,0.5-7.3
	c0.1-3.9,0.2-6.4,0.3-7.3c0.1-0.9,1-9.9,2.7-27c1.3-11.7,1.9-23.5,2-35.3C201,82.5,198.2,69.7,192.7,58.7z"/>
<path style="fill:#7B4320;" d="M105.5,17.7c-7.7,0.9-15.4,2.2-22.9,4.1C69,25.1,58.4,29.3,50.9,34.4C41.5,40.6,34.6,50,31.4,60.9
	c-2.7,8.7-4.1,21.3-4.1,37.6c0,3.3,0.2,6.6,0.6,9.8c0.1,1.1,0.3,2.2,0.4,3.5c0.6-0.4,1.3-0.9,1.9-1.3c1.5-1.1,3-2.3,4.4-3.6
	c5.6-5.2,11-12.7,16.3-22.5c7.4,1.1,14.8,1.6,22.3,1.7c4.8,0.1,9.6-0.1,14.4-0.6c5.1-0.5,10.2-1,15.3-1.7c1.2-2.6,2.1-5.2,2.9-7.9
	c1.2-4,2-8.1,2.4-12.2c0.3-2.6,0.4-5.1,0.4-7.7l2.7,28.7l3.6-0.3c0.8-1.4,1.4-2.9,1.9-4.5c0.8-2.7,1.5-5.5,2-8.3
	c1.1-6.4,1.6-13,1.5-19.5c1.3,3.8,2.4,7.6,3.3,11.5c0.8,3.3,1.3,6.6,1.7,9.9c0.3,2.9,0.5,5.9,0.7,8.8c2.6,0.3,5.2,0.5,7.8,0.5h7.4
	c4.1,0,8.2-0.3,12.2-1c0.1-1.3,0.1-2.6,0-3.9c0-0.9-0.1-1.7-0.3-2.6c-0.3-1.9-0.6-3.9-1-5.8c-0.5-2.7-1.1-5.4-1.6-8.2
	c1.6,2,3.1,4.1,4.5,6.1c1.3,2,2.6,4.1,3.7,6.2c1,1.9,1.9,3.9,2.6,6l12.7-0.3V63.9l9.3,14.7c2.6,3.6,5.4,7,8.3,10.3
	c3,3.5,6.4,6.7,10,9.6c0.9,0.7,1.9,1.4,2.9,2c0.1-0.2,0.2-0.4,0.4-0.6c0.8-1.2,1.6-2.5,2.3-3.7c2-3.4,3.1-7.3,3.1-11.3
	c0-2.2-0.9-6-2.8-11.5c-3-9-4.9-14.7-5.6-17.3c-1.4-4.1-3.7-7.9-6.7-11.1c-3-3.5-6.5-6.7-10.3-9.4c-5.6-4-14.3-8-26.2-12.1
	c-13.4-4.6-24.9-6.8-34.4-6.8C118,16.7,111.7,17,105.5,17.7z"/>
<path style="fill:none;stroke:#EE6464;stroke-width:1.6473;stroke-linecap:round;stroke-linejoin:round;" d="M104.5,191.3
	c9.4,7,19,6.9,28.6-0.5"/>
<path style="fill:none;stroke:#E5815C;stroke-width:3.2835;stroke-linecap:round;stroke-linejoin:round;" d="M115.3,166.7
	c0,0.4,0.3,1.5,0.6,3.1c0.4,1.6,0.6,2.8,0.7,3.5v2.4h-0.5c-0.3-0.1-0.5-0.2-0.8-0.2c-0.4-0.1-0.8-0.2-1.3-0.2
	c-0.7,0-1.4,0.3-1.9,0.8c-0.6,0.7-1,1.6-0.9,2.5c0,1.2,0.8,2.3,2.3,3.3c0.8,0.6,1.7,1,2.7,1.2"/>
<path style="fill:#FFFFFF;" d="M182.4,151.9c0-13.8-11.2-25-25-24.9c0,0,0,0,0,0c-13.7-0.1-25,11-25.1,24.7c0,0.1,0,0.1,0,0.2
	c-0.1,6.6,2.5,13,7.3,17.6c9.8,9.7,25.7,9.7,35.5,0C179.8,164.9,182.5,158.5,182.4,151.9z"/>
<path style="fill:#FFFFFF;" d="M51.2,151.9c0-13.8,11.2-25,25-24.9c0,0,0,0,0,0c13.7-0.1,25,11,25.1,24.7c0,0.1,0,0.1,0,0.2
	c0.1,6.6-2.5,13-7.3,17.6c-9.8,9.7-25.7,9.7-35.5,0C53.8,164.9,51.1,158.5,51.2,151.9z"/>
<path style="fill:#2E130E;" d="M174.3,155.3c0.1-5.2-1.8-10.2-5.4-14.1c-6.4-7.1-17.3-7.8-24.5-1.4c-0.5,0.4-1,0.9-1.4,1.4
	c-7.1,8-7.1,20.1,0,28.1c6.3,7.1,17.2,7.8,24.3,1.5c0.5-0.5,1-1,1.5-1.5C172.5,165.6,174.5,160.5,174.3,155.3z"/>
<path style="fill:#FFFFFF;" d="M143,146.7c0-2.3,1.9-4.2,4.2-4.2c2.3,0,4.2,1.9,4.2,4.2c0,1.1-0.4,2.2-1.2,3c-0.8,0.8-1.9,1.3-3,1.2
	C144.9,150.9,143.1,149,143,146.7C143,146.7,143,146.7,143,146.7L143,146.7z"/>
<path style="fill:#2E130E;" d="M59.3,155.3c-0.1-5.2,1.8-10.2,5.4-14.1c6.4-7.1,17.3-7.8,24.5-1.4c0.5,0.4,1,0.9,1.4,1.4
	c7.1,8,7.1,20.1,0,28.1c-6.3,7.1-17.2,7.8-24.3,1.5c-0.5-0.5-1-1-1.5-1.5C61.1,165.6,59.1,160.5,59.3,155.3z"/>
<path style="fill:#FFFFFF;" d="M90.6,146.7c0-2.3-1.9-4.2-4.3-4.2c-1.1,0-2.2,0.5-2.9,1.2c-1.6,1.7-1.6,4.3,0,6c1.7,1.6,4.3,1.6,6,0
	C90.1,148.9,90.6,147.8,90.6,146.7z"/>
<path style="fill:none;stroke:#ECAA92;stroke-width:2.1927;stroke-linecap:round;stroke-linejoin:round;" d="M168.1,175.8
	c-10,3.4-17.8,3-23.4-1.2"/>
<path style="fill:none;stroke:#270F0B;stroke-width:2.1927;stroke-linecap:round;stroke-linejoin:round;" d="M132.7,140.6
	c6.1-9.2,14.3-13.8,24.8-13.8c10.2,0.6,18.3,5.5,24.4,14.7"/>
<path style="fill:none;stroke:#431E17;stroke-width:2.1927;stroke-linecap:round;stroke-linejoin:round;" d="M136.2,105.5
	c11.6-8.6,22.8-8.1,33.6,1.7"/>
<path style="fill:none;stroke:#ECAA92;stroke-width:2.1927;stroke-linecap:round;stroke-linejoin:round;" d="M65.5,175.8
	c10,3.4,17.8,3,23.4-1.2"/>
<path style="fill:none;stroke:#270F0B;stroke-width:2.1927;stroke-linecap:round;stroke-linejoin:round;" d="M100.9,140.6
	c-6.1-9.2-14.3-13.8-24.8-13.8c-10.2,0.6-18.3,5.5-24.4,14.7"/>
<path style="fill:none;stroke:#431E17;stroke-width:2.1927;stroke-linecap:round;stroke-linejoin:round;" d="M97.4,105.5
	c-11.6-8.6-22.8-8.1-33.6,1.7"/>
</svg>
