<svg xmlns="http://www.w3.org/2000/svg" viewBox="0 0 822 92"><defs><style>.cls-1{fill:#2a8c8c;}.cls-2{fill:#fff;}.cls-3{fill:#2b8c8c;}</style></defs><g id="Layer_1" data-name="Layer 1"><rect class="cls-1" x="1" y="1" width="240" height="90" rx="20"/><path class="cls-1" d="M221,92H21A21.024,21.024,0,0,1,0,71V21A21.024,21.024,0,0,1,21,0H221a21.024,21.024,0,0,1,21,21V71A21.024,21.024,0,0,1,221,92ZM21,2A19.021,19.021,0,0,0,2,21V71A19.021,19.021,0,0,0,21,90H221a19.021,19.021,0,0,0,19-19V21A19.021,19.021,0,0,0,221,2Z"/><rect class="cls-2" x="241" y="1" width="580" height="90" rx="20"/><path class="cls-3" d="M801,92H261a21.024,21.024,0,0,1-21-21V21A21.024,21.024,0,0,1,261,0H801a21.024,21.024,0,0,1,21,21V71A21.024,21.024,0,0,1,801,92ZM261,2a19.021,19.021,0,0,0-19,19V71a19.021,19.021,0,0,0,19,19H801a19.021,19.021,0,0,0,19-19V21A19.021,19.021,0,0,0,801,2Z"/></g></svg>