<?xml version="1.0" encoding="utf-8"?>
<!-- Generator: Adobe Illustrator 25.2.0, SVG Export Plug-In . SVG Version: 6.00 Build 0)  -->
<svg version="1.1" id="레이어_1" xmlns="http://www.w3.org/2000/svg" xmlns:xlink="http://www.w3.org/1999/xlink" x="0px"
	 y="0px" viewBox="0 0 1600 900" style="enable-background:new 0 0 1600 900;" xml:space="preserve">
<polyline style="fill:#9CE3D1;" points="1600,0 1600,900 0,900 0,0 "/>
<path style="fill:#33C4AB;" d="M1580,900.1H20v-697c0-30.4,24.6-55,55-55h1450c30.4,0,55,24.6,55,55V900.1z"/>
<path style="fill-rule:evenodd;clip-rule:evenodd;fill:#33C4AB;" d="M362.2,150l24.2-107.5c4.1-18.4,20.2-31.2,39-31.2h749
	c18.8,0,34.9,12.8,39,31.2l24.2,107.5L362.2,150z"/>
<g>
	<path style="fill:#FFFFFF;" d="M30,900.1v-692c0-27.6,22.4-50,50-50h1440c27.6,0,50,22.4,50,50v692"/>
</g>
<path style="fill-rule:evenodd;clip-rule:evenodd;fill:#FFFFFF;" d="M1175.6,20.5h-749c-14,0-26.2,9.7-29.3,23.4l-26,126.3h859.5
	l-26-126.3C1201.8,30.2,1189.7,20.5,1175.6,20.5z"/>
<g>
	<g>
		<path style="fill:#006666;" d="M515.1,88.2c2.1-0.8,3.7-2.3,4.7-4.6c1.1-2.3,1.6-5.5,1.6-9.6v-1.8c0-1.9,0.5-3.3,1.6-4.2
			c1.1-0.9,2.3-1.4,3.9-1.4c1.5,0,2.9,0.5,4,1.4c1.1,0.9,1.7,2.3,1.7,4.2V74c0,0.8,0,1.6-0.1,2.4c0,0.8-0.1,1.5-0.2,2.2
			c3.6,0.7,6.3,2.5,8.1,5.4c1.8,2.9,2.4,7,2,12.5h-10.7c0.4-1.9,0.4-3.6,0.1-5.1c-0.3-1.5-0.9-2.6-1.8-3.4c-1.3,2.8-3,4.9-5,6.5
			c-2.1,1.6-4.4,2.5-7,2.9c-1.5,0.2-2.8,0-3.9-0.7c-1.1-0.7-1.8-1.7-1.9-2.9C511.6,91,512.6,89.2,515.1,88.2z M527.7,122
			c-2.1,0-3.9-0.3-5.4-0.9c-1.5-0.6-2.8-1.4-3.8-2.4c-1-1-1.8-2.2-2.3-3.6c-0.5-1.4-0.8-2.9-0.8-4.5c0-1.6,0.2-3.1,0.8-4.5
			c0.5-1.4,1.3-2.6,2.3-3.6c1-1,2.3-1.8,3.8-2.4c1.5-0.6,3.3-0.9,5.4-0.9h27.8c2,0,3.8,0.3,5.4,0.9c1.5,0.6,2.8,1.4,3.8,2.4
			s1.8,2.2,2.3,3.6c0.5,1.4,0.8,2.9,0.8,4.6c0,1.6-0.3,3.2-0.8,4.6c-0.5,1.4-1.3,2.6-2.3,3.6c-1,1-2.3,1.8-3.8,2.3
			c-1.5,0.6-3.3,0.8-5.4,0.8H527.7z M552.4,113.6c1.3,0,2.2-0.3,2.6-1c0.4-0.6,0.7-1.3,0.7-2c0-0.7-0.2-1.3-0.7-1.9
			c-0.4-0.6-1.3-0.9-2.6-0.9h-21.5c-1.3,0-2.2,0.3-2.6,0.9c-0.4,0.6-0.7,1.2-0.7,1.9c0,0.7,0.2,1.3,0.7,2c0.4,0.6,1.3,1,2.6,1H552.4
			z M557,86.9h-2.7v10.3h-10.4V70.6c0-1.7,0.5-2.9,1.5-3.8c1-0.9,2.2-1.3,3.6-1.3c1.4,0,2.6,0.4,3.6,1.3c1.1,0.9,1.6,2.1,1.6,3.8
			v7.3h2.7v-7.3c0-1.7,0.5-2.9,1.6-3.8c1.1-0.9,2.3-1.3,3.7-1.3c1.4,0,2.6,0.4,3.7,1.3c1.1,0.9,1.6,2.1,1.6,3.8v26.5H557V86.9z"/>
		<path style="fill:#006666;" d="M574.8,88.5c2.2,0,4.3-0.1,6.3-0.4c1.9-0.3,3.6-0.8,5.1-1.6c1.4-0.8,2.6-1.7,3.4-2.9
			c0.8-1.2,1.2-2.7,1.2-4.4v-1.2c0-0.9-0.5-1.3-1.4-1.3h-13.8c-0.9,0-1.6-0.1-2.2-0.4c-0.6-0.3-1.1-0.6-1.5-1.1
			c-0.4-0.4-0.7-0.9-0.9-1.5c-0.2-0.6-0.3-1.1-0.3-1.7s0.1-1.2,0.3-1.7c0.2-0.6,0.5-1.1,0.9-1.5c0.4-0.4,0.9-0.8,1.5-1
			c0.6-0.3,1.4-0.4,2.2-0.4h18.2c3.3,0,5.6,0.7,6.8,2c1.3,1.3,1.9,3.4,1.9,6.1v3.5c0,3.7-0.8,6.8-2.3,9.4c-1.5,2.6-3.6,4.6-6.1,6.2
			c-2.6,1.6-5.6,2.7-9,3.3s-7,0.8-10.8,0.5c-1.4-0.1-2.5-0.6-3.5-1.6c-0.9-1-1.4-2.3-1.3-3.9c0.1-1.4,0.6-2.5,1.6-3.2
			C572.2,88.8,573.4,88.5,574.8,88.5z M577,109.8c-1.7,0-3-0.4-3.9-1.3c-0.9-0.9-1.4-2-1.4-3.4c0-1.4,0.5-2.5,1.4-3.4
			c0.9-0.9,2.2-1.3,3.9-1.3h35.9c1.9,0,3.4,0.1,4.6,0.4c1.2,0.3,2.1,0.8,2.7,1.5c0.6,0.7,1.1,1.7,1.3,2.9c0.2,1.2,0.3,2.7,0.3,4.5
			v12.3h-12v-10.6c0-1-0.5-1.4-1.4-1.4H577z M609.2,71.5c0-2,0.6-3.4,1.8-4.4c1.2-1,2.6-1.5,4.2-1.5c1.6,0,2.9,0.5,4.1,1.5
			c1.2,1,1.8,2.5,1.8,4.4v5.1h1.9c0.9,0,1.7,0.2,2.3,0.5c0.6,0.3,1.1,0.7,1.4,1.2c0.4,0.5,0.6,1,0.8,1.6c0.2,0.6,0.2,1.2,0.2,1.8
			s-0.1,1.2-0.2,1.8c-0.2,0.6-0.4,1.2-0.8,1.7c-0.4,0.5-0.9,0.9-1.5,1.2c-0.6,0.3-1.4,0.5-2.2,0.5h-1.9V98h-11.9V71.5z"/>
		<path style="fill:#006666;" d="M688.2,110.5c0.9,0,1.7,0.1,2.4,0.4c0.7,0.3,1.2,0.7,1.6,1.2s0.7,1,0.9,1.7
			c0.2,0.6,0.3,1.2,0.3,1.8c0,0.6-0.1,1.3-0.3,1.9c-0.2,0.6-0.5,1.1-0.9,1.6s-1,0.9-1.6,1.1c-0.6,0.3-1.4,0.4-2.3,0.4h-45.8
			c-0.9,0-1.7-0.1-2.3-0.4c-0.6-0.3-1.2-0.7-1.6-1.1s-0.7-1-0.9-1.6c-0.2-0.6-0.3-1.2-0.3-1.9c0-0.6,0.1-1.2,0.3-1.8
			c0.2-0.6,0.5-1.2,0.9-1.7s1-0.9,1.6-1.2c0.7-0.3,1.4-0.4,2.4-0.4H688.2z M675.6,100.6c0.9-2,1.6-4.5,2.1-7.3
			c0.5-2.8,0.8-6.3,0.8-10.4v-3.8c0-0.4-0.1-0.8-0.4-1.1c-0.3-0.3-0.6-0.4-1.1-0.4h-32.6c-0.9,0-1.7-0.1-2.4-0.4
			c-0.7-0.3-1.2-0.7-1.6-1.2c-0.4-0.5-0.7-1.1-1-1.7c-0.2-0.6-0.3-1.2-0.3-1.8c0-0.6,0.1-1.2,0.3-1.8c0.2-0.6,0.5-1.2,1-1.6
			c0.4-0.5,1-0.9,1.6-1.2c0.7-0.3,1.4-0.5,2.4-0.5h36.7c1.8,0,3.2,0.2,4.4,0.5c1.2,0.3,2.1,0.9,2.9,1.6c0.7,0.7,1.2,1.6,1.5,2.7
			c0.3,1.1,0.4,2.4,0.4,3.8V83c0,4.9-0.3,9.1-1,12.6c-0.6,3.5-1.5,6.4-2.7,8.7c-0.4,0.8-0.9,1.5-1.6,2c-0.7,0.6-1.4,1-2.2,1.3
			c-0.8,0.3-1.6,0.4-2.5,0.4c-0.9,0-1.7-0.2-2.5-0.5c-1.3-0.6-2.2-1.5-2.6-2.8C674.9,103.3,675,102,675.6,100.6z"/>
		<path style="fill:#006666;" d="M702.5,121.9c-1.3,0-2.4-0.2-3.4-0.6c-1-0.4-1.8-1-2.4-1.7c-0.6-0.7-1.1-1.5-1.4-2.4
			c-0.3-0.9-0.4-1.9-0.4-2.9V114c0-2.1,0.6-3.8,1.8-5.2c1.2-1.3,3.1-2,5.8-2h32.1v-1.1c0-0.6-0.4-1-1.3-1H699c-1.1,0-2-0.3-2.6-1
			c-0.6-0.7-0.9-1.4-0.9-2.2c0-0.8,0.3-1.6,0.8-2.3c0.5-0.7,1.4-1.1,2.6-1.1h16.3v-2.6h-17.7c-1.6,0-2.7-0.4-3.3-1.1
			c-0.7-0.8-1-1.7-1-2.8c0-1,0.3-2,1-2.8c0.6-0.8,1.8-1.2,3.4-1.2h47.5c1.6,0,2.7,0.4,3.4,1.2c0.6,0.8,1,1.8,1,2.8
			c0,1.1-0.3,2-1,2.8c-0.7,0.8-1.8,1.1-3.3,1.1h-17.7v2.6h12.8c2.6,0,4.3,0.5,5.3,1.4c1,0.9,1.4,2.3,1.4,4.2v9.3h-38
			c-0.4,0-0.7,0.1-0.9,0.3c-0.2,0.2-0.2,0.4-0.2,0.8c0,0.3,0.1,0.6,0.2,0.8c0.2,0.2,0.5,0.3,0.9,0.3h36.4c1.2,0,2,0.4,2.5,1.1
			c0.5,0.7,0.8,1.5,0.8,2.3c0,0.7-0.2,1.5-0.7,2.2c-0.5,0.8-1.3,1.1-2.5,1.1H702.5z M703.5,85.2c-1.6,0-3-0.1-4-0.4
			c-1-0.3-1.8-0.7-2.4-1.3c-0.6-0.6-0.9-1.5-1.1-2.6c-0.2-1.1-0.3-2.4-0.3-4v-2.3c0-1.6,0.1-2.9,0.3-4c0.2-1.1,0.6-1.9,1.1-2.6
			c0.6-0.6,1.4-1.1,2.4-1.3c1-0.3,2.3-0.4,4-0.4h35.6c1.6,0,3,0.1,4,0.4c1,0.3,1.8,0.7,2.4,1.3c0.6,0.6,0.9,1.5,1.1,2.6
			c0.2,1.1,0.3,2.4,0.3,4v10.6H703.5z M707.7,76.1c0,0.6,0,0.9,0.1,1.1c0.1,0.2,0.4,0.3,1,0.3H735v-2.1c0-0.5-0.1-0.8-0.1-1.1
			c-0.1-0.2-0.4-0.3-1-0.3h-25.1c-0.6,0-0.9,0.1-1,0.3c-0.1,0.2-0.1,0.6-0.1,1.1V76.1z"/>
		<path style="fill:#006666;" d="M771.3,110.9v-8.5h-7.9c-4,0-7-0.9-9-2.8c-2-1.9-3-4.4-3-7.6v-1.1c0-3.2,1-5.8,3-7.7
			c2-1.9,5-2.8,9-2.8h26.3v-1.8c0-0.4-0.1-0.8-0.3-1.1c-0.2-0.4-0.6-0.5-1.3-0.5h-31.4c-1.4,0-2.6-0.5-3.4-1.5
			c-0.8-1-1.2-2.1-1.2-3.3c0-1.2,0.4-2.3,1.2-3.3c0.8-1,2-1.5,3.4-1.5h34.7c2.1,0,3.8,0.2,5.2,0.7c1.4,0.5,2.4,1.1,3.2,1.9
			c0.8,0.8,1.4,1.8,1.7,3c0.3,1.2,0.5,2.5,0.5,3.9v12.7h-35.8c-1.4,0-2,0.6-2,1.7v0.3c0,1.1,0.7,1.7,2,1.7h32.5
			c0.8,0,1.5,0.1,2.1,0.4c0.6,0.3,1.1,0.6,1.4,1.1c0.4,0.4,0.6,0.9,0.8,1.5c0.2,0.6,0.2,1.1,0.2,1.7c0,1.2-0.4,2.2-1.1,3.2
			c-0.7,1-1.9,1.4-3.5,1.4h-15.4v8.5h16.9c0.9,0,1.7,0.1,2.3,0.4c0.6,0.3,1.2,0.7,1.6,1.1c0.4,0.5,0.7,1,0.9,1.6
			c0.2,0.6,0.3,1.2,0.3,1.8c0,1.2-0.4,2.4-1.2,3.4c-0.8,1-2.1,1.5-3.9,1.5h-46.1c-1.8,0-3.1-0.5-3.9-1.5c-0.8-1-1.2-2.1-1.2-3.4
			c0-0.6,0.1-1.2,0.3-1.8c0.2-0.6,0.5-1.1,0.9-1.6c0.4-0.5,0.9-0.8,1.6-1.1c0.6-0.3,1.4-0.4,2.3-0.4H771.3z"/>
		<path style="fill:#006666;" d="M848.9,67.6c0.8,0,1.4,0.2,2,0.5s1,0.7,1.3,1.1c0.3,0.4,0.6,1,0.7,1.5c0.1,0.6,0.2,1.1,0.2,1.6
			c0,0.5-0.1,1-0.2,1.6c-0.2,0.5-0.4,1-0.7,1.5c-0.3,0.5-0.8,0.8-1.3,1.1c-0.5,0.3-1.2,0.4-2,0.4h-15.2c-1.1,0-1.7,0.5-1.7,1.4v8.3
			c0,0.6,0.1,1,0.4,1.2c0.3,0.2,0.7,0.3,1.3,0.3h17.5c0.8,0,1.4,0.1,2,0.4c0.6,0.3,1,0.6,1.3,1.1c0.3,0.4,0.6,0.9,0.7,1.5
			c0.2,0.5,0.2,1.1,0.2,1.6c0,0.6-0.1,1.1-0.2,1.6c-0.2,0.5-0.4,1-0.7,1.5c-0.3,0.5-0.8,0.8-1.3,1.1c-0.6,0.3-1.2,0.4-2,0.4h-22.5
			c-1.7,0-3.1-0.1-4.1-0.4c-1.1-0.3-2-0.8-2.6-1.4c-0.7-0.7-1.1-1.5-1.4-2.6c-0.3-1.1-0.4-2.4-0.4-3.9V75.9c0-1.6,0.1-2.9,0.4-3.9
			c0.3-1.1,0.7-1.9,1.4-2.6c0.7-0.7,1.5-1.1,2.6-1.4c1.1-0.3,2.5-0.4,4.1-0.4H848.9z M831.6,121.9c-1.7,0-3.1-0.2-4.2-0.5
			c-1.1-0.3-2-0.8-2.6-1.5c-0.6-0.7-1.1-1.6-1.3-2.7c-0.3-1.1-0.4-2.5-0.4-4.1v-6.3c0-2,0.6-3.5,1.8-4.5c1.2-1,2.7-1.4,4.4-1.4
			s3.1,0.5,4.3,1.4s1.7,2.5,1.7,4.5v4.3c0,0.7,0.1,1.1,0.3,1.3c0.2,0.2,0.6,0.2,1.3,0.2h31.4c1.8,0,3.1,0.5,3.9,1.4
			c0.8,0.9,1.1,2,1.1,3.2c0,1.2-0.4,2.3-1.2,3.3c-0.8,0.9-2.1,1.4-3.9,1.4H831.6z M859.5,71.5c0-2,0.6-3.4,1.7-4.4
			c1.2-1,2.5-1.5,4.1-1.5c1.6,0,2.9,0.5,4.1,1.5c1.2,1,1.8,2.5,1.8,4.4v9.1h1.9c0.9,0,1.7,0.2,2.3,0.5c0.6,0.3,1.1,0.7,1.4,1.2
			c0.4,0.5,0.6,1.1,0.8,1.7c0.2,0.6,0.2,1.2,0.2,1.8s-0.1,1.2-0.2,1.8c-0.2,0.6-0.4,1.2-0.8,1.7c-0.4,0.5-0.8,0.9-1.5,1.2
			c-0.6,0.3-1.4,0.5-2.2,0.5h-1.9v17h-11.8V71.5z"/>
		<path style="fill:#006666;" d="M890.9,107.7c0.2,0.7,0.4,1.4,0.4,2.2v1.4c0,0.7,0.1,1.1,0.3,1.3c0.2,0.2,0.6,0.3,1.3,0.3h32.6
			c1.8,0,3.1,0.4,3.9,1.4c0.8,0.9,1.1,1.9,1.1,3.1s-0.4,2.2-1.2,3.1c-0.8,0.9-2.1,1.4-3.9,1.4h-37.9c-1.7,0-3.1-0.2-4.2-0.5
			c-1.1-0.3-2-0.8-2.6-1.5c-0.6-0.7-1.1-1.6-1.4-2.7c-0.3-1.1-0.4-2.5-0.4-4.1v-3.2c0-2,0.6-3.5,1.8-4.5c1.2-0.9,2.6-1.4,4.3-1.4
			c0.9,0,1.8,0.2,2.6,0.5v-6.2h-8.2c-1.8,0-3.1-0.4-3.8-1.3c-0.8-0.9-1.1-1.9-1.1-3.1c0-1.2,0.4-2.3,1.1-3.2c0.8-0.9,2-1.4,3.8-1.4
			h30.4c1.8,0,3.1,0.5,3.8,1.4c0.8,0.9,1.1,2,1.1,3.2c0,1.2-0.4,2.2-1.1,3.1c-0.8,0.9-2,1.3-3.8,1.3h-10.6v9.4H890.9z M887.4,86.6
			c-1.9,0-3.6-0.2-5-0.8c-1.4-0.5-2.6-1.2-3.5-2c-0.9-0.9-1.6-1.9-2-3.1c-0.4-1.2-0.7-2.6-0.7-4s0.2-2.8,0.7-4
			c0.4-1.2,1.1-2.3,2-3.2c0.9-0.9,2.1-1.6,3.5-2.1c1.4-0.5,3.1-0.8,5-0.8h13.9c1.9,0,3.6,0.3,5,0.8c1.4,0.5,2.5,1.2,3.4,2.1
			c0.9,0.9,1.6,1.9,2,3.2c0.4,1.2,0.7,2.5,0.7,4c0,2.9-0.9,5.2-2.7,7.1c-1.8,1.9-4.6,2.8-8.4,2.8H887.4z M890,74.9
			c-0.9,0-1.6,0.1-1.9,0.4c-0.4,0.3-0.5,0.8-0.5,1.4c0,0.6,0.2,1.1,0.5,1.4c0.4,0.3,1,0.5,1.9,0.5h8.7c0.9,0,1.6-0.2,1.9-0.5
			c0.4-0.3,0.5-0.8,0.5-1.4c0-0.6-0.2-1.1-0.5-1.4c-0.4-0.3-1-0.4-1.9-0.4H890z M917.1,108.5h-9.1c-1.7,0-3-0.4-3.7-1.2
			c-0.7-0.8-1.1-1.7-1.1-2.9c0-1.2,0.4-2.1,1.1-2.9c0.7-0.8,2-1.2,3.7-1.2h9.1v-29c0-1.9,0.6-3.4,1.8-4.4c1.2-1,2.6-1.5,4.1-1.5
			c0.8,0,1.5,0.1,2.2,0.4c0.7,0.3,1.4,0.6,1.9,1.1c0.6,0.5,1,1.1,1.4,1.8c0.3,0.7,0.5,1.6,0.5,2.5v39h-11.9V108.5z"/>
		<path style="fill:#006666;" d="M967.4,77v1.1c0,1-0.1,2-0.2,3c4.5,0.2,7.8,1.6,10,4.1c2.2,2.5,3.2,6.3,3.1,11.5h-11.2
			c0.2-2.3-0.2-4-1.2-5.2c-1-1.2-2.3-1.8-4-1.8c-1.7,2.4-3.9,4.2-6.4,5.5c-2.6,1.3-5.2,2-8,2c-1.5,0.1-2.8-0.3-3.8-1.1
			c-1.1-0.8-1.6-1.9-1.7-3.3c-0.1-1.4,0.2-2.5,0.9-3.4c0.7-0.9,1.6-1.4,2.8-1.6c2.7-0.4,4.8-1.5,6.2-3.3c1.4-1.8,2.2-3.9,2.2-6.4V77
			h-7.3c-0.7,0-1.3-0.2-1.9-0.5c-0.5-0.3-1-0.7-1.3-1.1c-0.4-0.5-0.6-1-0.8-1.5c-0.2-0.6-0.3-1.1-0.3-1.7c0-0.5,0.1-1.1,0.2-1.6
			c0.2-0.6,0.4-1.1,0.8-1.6s0.8-0.9,1.4-1.2c0.6-0.3,1.2-0.4,2-0.4h26.8c0.8,0,1.4,0.1,2,0.4c0.6,0.3,1,0.7,1.4,1.2
			c0.4,0.5,0.6,1,0.8,1.6c0.2,0.6,0.2,1.1,0.2,1.6c0,0.6-0.1,1.1-0.3,1.7c-0.2,0.6-0.5,1.1-0.8,1.5c-0.4,0.5-0.8,0.8-1.3,1.1
			s-1.2,0.5-1.9,0.5H967.4z M959.4,122c-2.1,0-3.9-0.3-5.4-0.9c-1.5-0.6-2.8-1.4-3.8-2.4c-1-1-1.8-2.2-2.3-3.6
			c-0.5-1.4-0.8-2.9-0.8-4.5c0-1.6,0.2-3.1,0.8-4.5c0.5-1.4,1.3-2.6,2.3-3.6c1-1,2.3-1.8,3.8-2.4c1.5-0.6,3.4-0.9,5.4-0.9h26.9
			c2,0,3.8,0.3,5.4,0.9c1.5,0.6,2.8,1.4,3.8,2.4c1,1,1.8,2.2,2.3,3.6c0.5,1.4,0.8,2.9,0.8,4.6c0,1.6-0.3,3.2-0.8,4.6
			c-0.5,1.4-1.3,2.6-2.3,3.6c-1,1-2.3,1.8-3.8,2.3c-1.5,0.6-3.3,0.8-5.4,0.8H959.4z M983.1,113.7c1.3,0,2.2-0.3,2.6-1
			c0.4-0.7,0.7-1.3,0.7-2c0-0.7-0.2-1.3-0.7-1.9c-0.4-0.6-1.3-0.9-2.6-0.9h-20.5c-1.3,0-2.2,0.3-2.6,0.9c-0.4,0.6-0.7,1.3-0.7,1.9
			c0,0.7,0.2,1.4,0.7,2c0.4,0.7,1.3,1,2.6,1H983.1z M986.1,86.3h-3.4c-0.9,0-1.7-0.1-2.3-0.4c-0.6-0.3-1.1-0.6-1.5-1.1
			c-0.4-0.4-0.7-1-0.8-1.6c-0.2-0.6-0.2-1.2-0.2-1.8s0.1-1.2,0.2-1.8c0.2-0.6,0.4-1.1,0.8-1.6c0.4-0.5,0.8-0.8,1.5-1.1
			c0.6-0.3,1.4-0.4,2.3-0.4h3.4v-5.2c0-1.9,0.6-3.4,1.8-4.4c1.2-1,2.6-1.5,4.1-1.5c0.8,0,1.5,0.1,2.2,0.4c0.7,0.3,1.4,0.6,1.9,1.1
			c0.6,0.5,1,1.1,1.3,1.8s0.5,1.6,0.5,2.5v25.8h-11.9V86.3z"/>
		<path style="fill:#006666;" d="M1013.3,106.9c0,1,0.2,1.7,0.6,2.1c0.4,0.3,1.1,0.5,2.2,0.5h17.7c0.9,0,1.7,0.1,2.3,0.4
			c0.6,0.3,1.2,0.7,1.6,1.1c0.4,0.5,0.7,1,0.9,1.6c0.2,0.6,0.3,1.2,0.3,1.8c0,1.2-0.4,2.4-1.2,3.4c-0.8,1-2.1,1.5-3.9,1.5h-22.1
			c-1.9,0-3.5-0.2-4.8-0.5s-2.4-0.9-3.2-1.7c-0.8-0.8-1.4-1.8-1.8-3.1c-0.4-1.3-0.6-2.9-0.6-4.8V98.2c0-1.9,0.2-3.5,0.6-4.7
			c0.4-1.3,1-2.3,1.8-3.1c0.8-0.8,1.9-1.4,3.2-1.7c1.3-0.3,2.9-0.5,4.8-0.5h10.7v-8.7c0-0.4-0.1-0.8-0.3-1.1
			c-0.2-0.4-0.6-0.5-1.3-0.5h-13.8c-0.9,0-1.7-0.1-2.3-0.4c-0.6-0.3-1.2-0.7-1.6-1.1c-0.4-0.5-0.7-1-0.9-1.6
			c-0.2-0.6-0.3-1.2-0.3-1.8s0.1-1.2,0.3-1.8c0.2-0.6,0.5-1.1,0.9-1.6s1-0.9,1.6-1.2c0.6-0.3,1.4-0.5,2.3-0.5h17
			c2.1,0,3.8,0.2,5.1,0.5c1.3,0.3,2.4,0.8,3.2,1.6c0.8,0.7,1.4,1.7,1.7,2.8c0.3,1.2,0.5,2.6,0.5,4.3v21H1016c-1,0-1.8,0.2-2.2,0.5
			c-0.4,0.3-0.6,1-0.6,2.1V106.9z M1042.1,121.9V71.5c0-2,0.6-3.4,1.8-4.4c1.2-1,2.6-1.5,4.2-1.5c1.6,0,3,0.5,4.2,1.5
			c1.2,1,1.8,2.5,1.8,4.4v50.4H1042.1z"/>
		<path style="fill:#006666;" d="M1073.9,65.3c1.9,0,3.4,0.5,4.5,1.6c1.1,1.1,1.7,2.6,1.7,4.5v0.5h8.4c1.5,0,2.6,0.5,3.4,1.4
			c0.8,0.9,1.1,2,1.1,3.3c0,1.3-0.4,2.4-1.2,3.3c-0.8,0.9-1.9,1.4-3.3,1.4h-0.1c0.3,0.8,0.6,1.6,0.8,2.5c0.2,0.9,0.3,1.8,0.3,2.8
			v18.7c0,2.6-0.4,4.9-1.2,6.9c-0.8,1.9-1.9,3.5-3.3,4.8c-1.4,1.3-3,2.2-4.9,2.8c-1.9,0.6-4,0.9-6.2,0.9c-2.2,0-4.2-0.3-6.1-0.9
			c-1.9-0.6-3.5-1.6-4.9-2.8c-1.4-1.3-2.5-2.9-3.3-4.8c-0.8-1.9-1.2-4.2-1.2-6.9V86.6c0-2,0.3-3.7,1-5.3c-1.4,0-2.5-0.5-3.3-1.4
			c-0.8-0.9-1.2-2-1.2-3.3c0-1.3,0.4-2.4,1.1-3.3c0.7-0.9,1.8-1.4,3.3-1.4h8.3v-0.5c0-1.9,0.5-3.4,1.6-4.5
			C1070.4,65.9,1071.9,65.3,1073.9,65.3z M1073.9,111c1.2,0,2.2-0.5,3.1-1.4s1.3-2.3,1.3-4.2V86.2c0-2-0.4-3.3-1.3-4.1
			c-0.9-0.8-1.9-1.2-3.1-1.2c-1.2,0-2.2,0.4-3,1.2c-0.9,0.8-1.3,2.2-1.3,4.1v19.3c0,1.9,0.4,3.3,1.3,4.2S1072.7,111,1073.9,111z
			 M1096.6,71.3c0-1.9,0.6-3.4,1.8-4.4c1.2-1,2.6-1.5,4.1-1.5c0.8,0,1.5,0.1,2.2,0.4c0.7,0.3,1.3,0.6,1.9,1.1s1,1.1,1.3,1.8
			s0.5,1.6,0.5,2.5v15.2h2c0.9,0,1.7,0.2,2.3,0.5c0.6,0.3,1.1,0.7,1.4,1.2c0.4,0.5,0.6,1.1,0.8,1.7c0.2,0.6,0.2,1.2,0.2,1.8
			s-0.1,1.2-0.2,1.8c-0.2,0.6-0.4,1.2-0.8,1.7c-0.4,0.5-0.9,0.9-1.5,1.2c-0.6,0.3-1.4,0.5-2.2,0.5h-2v24.9h-11.9V71.3z"/>
		<path style="fill:#006666;" d="M1117.2,109.5c2.5-0.2,4.8-0.7,6.9-1.5c2.1-0.7,3.8-1.9,5.2-3.4c1.4-1.5,2.5-3.5,3.3-6
			c0.8-2.5,1.2-5.6,1.2-9.2v-9.7c0-0.4-0.1-0.8-0.4-1.1c-0.3-0.3-0.6-0.4-1.1-0.4h-13.7c-0.9,0-1.7-0.1-2.4-0.4
			c-0.7-0.3-1.2-0.7-1.6-1.2c-0.4-0.5-0.8-1-1-1.6c-0.2-0.6-0.3-1.2-0.3-1.9c0-0.6,0.1-1.2,0.3-1.8c0.2-0.6,0.5-1.2,1-1.7
			c0.4-0.5,1-0.9,1.6-1.2c0.7-0.3,1.5-0.5,2.4-0.5h17.8c3.4,0,5.8,0.8,7.3,2.3c1.4,1.5,2.2,3.7,2.2,6.5v12.9c0,5.4-0.7,9.9-2.1,13.7
			c-1.4,3.8-3.4,6.8-5.9,9.2s-5.4,4.2-8.7,5.3c-3.3,1.1-6.9,1.7-10.8,1.8c-0.7,0-1.4-0.1-2.2-0.3c-0.7-0.2-1.3-0.5-1.9-0.9
			c-0.5-0.4-1-0.9-1.3-1.6c-0.3-0.6-0.5-1.4-0.4-2.3c0.1-1.3,0.5-2.4,1.2-3.2C1114.6,110.2,1115.7,109.7,1117.2,109.5z
			 M1154.3,121.9V71.5c0-2,0.6-3.4,1.8-4.4c1.2-1,2.6-1.5,4.2-1.5c1.6,0,3,0.5,4.2,1.5c1.2,1,1.8,2.5,1.8,4.4v50.4H1154.3z"/>
	</g>
</g>
<g>
	<g>
		<g>
			<path style="fill:#1E9191;" d="M424.4,107.8l29.3-17.6c0.9-0.5,2.1-0.5,3,0l29.3,17.6c0.4,0.2,0.4,0.8,0,1l-29.3,17.6
				c-0.9,0.5-2.1,0.5-3,0l-29.3-17.6C424,108.6,424,108.1,424.4,107.8z"/>
			<path style="fill:#42A6A6;" d="M424.4,96.3l29.3-17.6c0.9-0.5,2.1-0.5,3,0l29.3,17.6c0.4,0.2,0.4,0.8,0,1l-29.3,17.6
				c-0.9,0.5-2.1,0.5-3,0l-29.3-17.6C424,97.1,424,96.5,424.4,96.3z"/>
			<path style="fill:#75C2C2;" d="M424.4,84.8l29.3-17.6c0.9-0.5,2.1-0.5,3,0l29.3,17.6c0.4,0.2,0.4,0.8,0,1l-29.3,17.6
				c-0.9,0.5-2.1,0.5-3,0l-29.3-17.6C424,85.5,424,85,424.4,84.8z"/>
		</g>
		<path style="fill:#1E9191;" d="M451.6,78v-1.8c0-1.1,0.1-2.1,0.4-2.8c0.3-0.7,0.8-1.3,1.6-1.8c0.6-0.4,1.2-0.7,1.7-1.1
			c0.5-0.3,0.9-0.6,1.2-0.9c0.5-0.4,0.8-0.8,0.9-1.2c0.2-0.4,0.2-0.8,0.2-1.3c0-0.7-0.2-1.2-0.7-1.6c-0.5-0.4-1-0.6-1.7-0.6
			c-0.7,0-1.3,0.2-1.8,0.5c-0.5,0.3-0.9,0.8-1.1,1.4c-0.2,0.7-0.6,1.2-1.2,1.6c-0.6,0.4-1.3,0.5-2.1,0.5c-0.3,0-0.7-0.1-1-0.2
			c-0.3-0.1-0.6-0.3-0.8-0.5c-0.2-0.2-0.4-0.5-0.5-0.9c-0.1-0.3-0.2-0.7-0.2-1.2c0-0.9,0.3-1.7,0.7-2.5c0.5-0.8,1.1-1.4,1.9-2
			c0.8-0.6,1.7-1,2.7-1.3c1-0.3,2.1-0.5,3.3-0.5c1.2,0,2.3,0.2,3.3,0.5c1,0.3,1.9,0.8,2.6,1.4c0.7,0.6,1.3,1.4,1.7,2.3
			c0.4,0.9,0.6,2,0.6,3.3c0,1-0.1,1.9-0.4,2.6c-0.2,0.7-0.6,1.4-1.1,2c-0.4,0.5-1,1-1.7,1.5c-0.7,0.5-1.3,1-2.1,1.5
			c-0.4,0.3-0.7,0.6-0.8,0.9c-0.1,0.3-0.2,0.6-0.2,1V78H451.6z M451.4,82.3c0-0.9,0.3-1.6,0.8-2.2c0.5-0.5,1.3-0.8,2.3-0.8
			c1,0,1.8,0.3,2.3,0.8c0.5,0.5,0.8,1.3,0.8,2.1c0,0.9-0.3,1.6-0.8,2.1c-0.5,0.5-1.3,0.8-2.3,0.8c-1,0-1.8-0.3-2.3-0.8
			C451.7,83.9,451.4,83.2,451.4,82.3z"/>
	</g>
	<g>
		<path style="fill:#1E9191;" d="M471.1,69c0-10.6-10.2-18.7-21.3-15.2c-4.8,1.5-8.4,5.3-9.9,10c-2.9,9.5,2.7,18.3,11.1,20.6
			l3.3,3.7c0.4,0.5,1.2,0.5,1.7,0l3.3-3.7C466.1,82.7,471.1,76.4,471.1,69z"/>
		<circle style="fill:#FFFFFF;" cx="455.1" cy="69.8" r="2.1"/>
		<circle style="fill:#FFFFFF;" cx="463.7" cy="69.8" r="2.1"/>
		<circle style="fill:#FFFFFF;" cx="446.6" cy="69.8" r="2.1"/>
	</g>
</g>
<g>
</g>
<g>
</g>
<g>
</g>
<g>
</g>
<g>
</g>
<g>
</g>
<g>
</g>
<g>
</g>
<g>
</g>
<g>
</g>
<g>
</g>
<g>
</g>
<g>
</g>
<g>
</g>
<g>
</g>
</svg>
