<?xml version="1.0" encoding="utf-8"?>
<!-- Generator: Adobe Illustrator 25.1.0, SVG Export Plug-In . SVG Version: 6.00 Build 0)  -->
<svg version="1.1" id="레이어_1" xmlns="http://www.w3.org/2000/svg" xmlns:xlink="http://www.w3.org/1999/xlink" x="0px"
	 y="0px" viewBox="0 0 1600 901.5" style="enable-background:new 0 0 1600 901.5;" xml:space="preserve">
<style type="text/css">
	.st0{fill:#9CE3D1;}
	.st1{fill:#33C4AB;}
	.st2{fill:#FFFFFF;}
	.st3{fill-rule:evenodd;clip-rule:evenodd;fill:#33C4AB;}
	.st4{fill-rule:evenodd;clip-rule:evenodd;fill:#FFFFFF;}
	.st5{fill:#F5F5F5;}
	.st6{fill:#1D9191;}
	.st7{fill:#2E9999;}
	.st8{fill:#72BFB9;}
	.st9{fill:#006666;}
</style>
<g id="레이어_2_1_">
	<g id="레이어_1-2">
		<rect y="0" class="st0" width="1600" height="900"/>
		<path class="st1" d="M1580,900.1H20V204.6c0-30.4,24.6-55,55-55l0,0h1450c30.4,0,55,24.6,55,55l0,0V900.1z"/>
		<path class="st2" d="M1570,901.5H30V210c0-27.6,22.4-50,50-50l0,0h1440c27.6,0,50,22.4,50,50l0,0V901.5z"/>
		<g>
			<path class="st3" d="M1137.7,42.5c-4-18.3-20.3-31.3-39-31.2H800H501.3c-18.7-0.1-35,12.9-39,31.2L438.1,150H800h361.9
				L1137.7,42.5z"/>
			<path class="st4" d="M1128,44.7c-3-13.7-15.2-23.5-29.2-23.4H800H501.2c-14-0.1-26.2,9.7-29.2,23.4L446,171h354h354L1128,44.7z"
				/>
		</g>
		<path class="st2" d="M475.4,75.4c0,0,11.5-1.8,18.5,1.5L475.4,75.4z"/>
		<path class="st5" d="M494.3,76c-2.9-1.4-7-2.1-11.9-2.1c-2.4,0-4.8,0.2-7.2,0.5c-0.6,0.1-1,0.7-0.9,1.3c0.1,0.5,0.6,0.9,1.1,0.9
			h0.2c2.3-0.3,4.7-0.5,7-0.5c4.6,0,8.2,0.6,10.8,1.9c0.1,0.1,0.3,0.1,0.5,0.1c0.6,0,1-0.4,1.1-0.9c0-0.2,0-0.3-0.1-0.5
			C494.8,76.4,494.6,76.1,494.3,76z"/>
		<path class="st5" d="M527,75.6c0.1-0.6-0.3-1.2-0.9-1.3c-2.4-0.4-4.8-0.5-7.2-0.5c-4.9,0-9,0.7-11.9,2.1c-0.3,0.1-0.5,0.3-0.6,0.6
			c-0.2,0.5,0,1.1,0.5,1.3c0.2,0.1,0.3,0.1,0.5,0.1c0.2,0,0.3,0,0.5-0.1c2.6-1.3,6.3-1.9,10.8-1.9c2.3,0,4.7,0.2,7,0.5h0.2
			C526.4,76.6,526.9,76.2,527,75.6z"/>
		<g>
			<path class="st6" d="M589.2,120.4h3.2c2.2,0.1,4.3-1.1,5.5-3h22.6c3.3,0.1,6-2.6,6.1-5.9c0,0,0,0,0,0V77.3
				c-0.1-3.3-2.8-6-6.1-5.9c0,0,0,0,0,0h-31.3V120.4z"/>
			<path class="st7" d="M589.2,71.3h-31.5c-3.3-0.1-6,2.6-6.1,5.9c0,0,0,0,0,0v34.2c0.1,3.3,2.8,6,6.1,5.9c0,0,0,0,0,0h22.7
				c1.2,1.9,3.3,3.1,5.5,3h3.3V71.3z"/>
			<path class="st8" d="M563.1,112.1c-2.4,0.8-5-0.5-5.8-2.9c-0.2-0.6-0.3-1.2-0.2-1.8V76.3c0-3.5,2.3-7.5,6-8.2
				c6.6-1,13.4-0.6,19.9,1c3.5,1,5.9,4.8,6,8.3v28.9c0.1,2.7-2,4.9-4.7,5c-0.4,0-0.9,0-1.3-0.1C576.4,110.2,569.6,110.5,563.1,112.1
				z"/>
			<path class="st8" d="M615.1,112.5c2.4,0.8,5-0.5,5.8-2.9c0.2-0.6,0.3-1.2,0.2-1.8V76.7c0-3.5-2.3-7.5-6-8.2
				c-6.6-1-13.4-0.6-19.9,1c-3.5,1-5.9,4.8-6,8.3v28.9c-0.1,3.3,2.8,5.4,6,4.9C601.8,110.5,608.6,110.9,615.1,112.5z"/>
			<path class="st2" d="M564,82c0,0,11.5-2,18.5,1.3L564,82z"/>
			<path class="st2" d="M564,89c0,0,11.5-2.2,18.5,1.1L564,89z"/>
			<path class="st2" d="M572.3,100.6c2.9-0.4,8-0.2,10.2,0.9L572.3,100.6z"/>
			<path class="st5" d="M582.9,82.3c-3.5-1.5-7.4-2.1-11.2-2c-2.6,0-5.3,0.2-7.9,0.6c-0.3,0.1-0.5,0.2-0.7,0.5
				c-0.2,0.2-0.2,0.5-0.2,0.8c0.1,0.5,0.6,0.9,1.1,0.9h0.2c2.5-0.4,5.1-0.6,7.6-0.6c3.5-0.1,7,0.5,10.2,1.8c0.1,0.1,0.3,0.1,0.5,0.1
				c0.4,0,0.8-0.2,1-0.6C583.7,83.2,583.5,82.6,582.9,82.3z"/>
			<path class="st5" d="M582.9,89.1c-2.7-1.3-6.3-1.9-10.6-1.9c-2.9,0-5.7,0.3-8.5,0.8c-0.6,0.1-1,0.7-0.9,1.3
				c0.1,0.5,0.6,0.9,1.1,0.9h0.2c2.7-0.5,5.5-0.7,8.2-0.7c3.3-0.1,6.6,0.5,9.6,1.7c0.1,0.1,0.3,0.1,0.5,0.1c0.4,0,0.8-0.2,1-0.6
				C583.8,90.1,583.5,89.4,582.9,89.1z"/>
			<path class="st5" d="M615.6,83.9c0.1-0.3,0-0.6-0.2-0.8c-0.2-0.2-0.4-0.4-0.7-0.5c-2.6-0.4-5.3-0.6-7.9-0.6
				c-3.8-0.1-7.7,0.5-11.2,2c-0.5,0.2-0.8,0.9-0.6,1.4c0,0,0,0.1,0.1,0.1c0.2,0.4,0.6,0.6,1,0.6c0.2,0,0.3,0,0.5-0.1
				c2.5-1.2,5.9-1.8,10.2-1.8c2.5,0,5.1,0.2,7.6,0.6h0.2C615.1,84.7,615.5,84.4,615.6,83.9z"/>
			<path class="st5" d="M615.5,92.5c0.1-0.6-0.3-1.2-0.9-1.3c-2.8-0.5-5.6-0.8-8.5-0.8c-4.4,0-8,0.6-10.6,1.9
				c-0.5,0.2-0.8,0.9-0.6,1.4c0,0,0,0.1,0.1,0.1c0.2,0.4,0.6,0.6,1,0.6c0.2,0,0.3,0,0.5-0.1c3-1.2,6.3-1.8,9.6-1.7
				c2.7,0,5.5,0.3,8.2,0.7h0.2C615,93.4,615.4,93,615.5,92.5C615.5,92.5,615.5,92.5,615.5,92.5z"/>
			<path class="st5" d="M615.5,100.9c0.1-0.6-0.3-1.2-0.9-1.3c-2.8-0.5-5.6-0.8-8.5-0.8c-4.4,0-8,0.6-10.6,1.9
				c-0.5,0.2-0.8,0.9-0.6,1.4c0,0,0,0.1,0.1,0.1c0.2,0.4,0.6,0.6,1,0.6c0.2,0,0.3,0,0.5-0.1c3-1.2,6.3-1.8,9.6-1.7
				c2.7,0,5.5,0.3,8.2,0.7h0.2C615,101.8,615.4,101.4,615.5,100.9C615.5,100.9,615.5,100.9,615.5,100.9z"/>
			<path class="st5" d="M583,100.6c-1.6-0.8-4.4-1.2-7.7-1.2c-1.1,0-2.1,0.1-3.2,0.2c-0.6,0-1,0.5-0.9,1.1c0,0,0,0.1,0,0.1
				c0.1,0.6,0.5,1,1.1,1h0.2c1-0.1,1.9-0.2,2.9-0.2c2.3-0.1,4.5,0.3,6.7,1c0.2,0.1,0.3,0.1,0.5,0.1c0.4,0,0.8-0.2,1-0.6
				C583.7,101.5,583.5,100.9,583,100.6z"/>
			<path class="st9" d="M695.4,110.6c0.8,0,1.6,0.1,2.4,0.4c0.6,0.3,1.2,0.7,1.6,1.2c0.4,0.5,0.7,1,0.9,1.7c0.2,0.6,0.3,1.2,0.3,1.8
				c0,0.6-0.1,1.3-0.3,1.9c-0.2,0.6-0.5,1.1-0.9,1.6c-0.4,0.5-1,0.9-1.6,1.1c-0.7,0.3-1.5,0.4-2.3,0.4h-45.8c-0.8,0-1.6-0.1-2.3-0.4
				c-0.6-0.3-1.1-0.6-1.6-1.1c-0.4-0.5-0.7-1-0.9-1.6c-0.2-0.6-0.3-1.2-0.3-1.9c0-0.6,0.1-1.2,0.3-1.8c0.2-0.6,0.5-1.2,0.9-1.7
				c0.4-0.5,1-0.9,1.6-1.2c0.7-0.3,1.6-0.5,2.4-0.4H695.4z M678.5,72.8c-0.1,1.9-0.3,3.7-0.8,5.5c2.6,0.1,5.1,0.6,7.5,1.5
				c2.5,0.9,4.8,2.3,6.7,4.1c2.1,2,3.8,4.4,5,7c1.4,3.2,2.3,6.5,2.4,10h-12.2c-0.2-1.9-0.8-3.8-1.7-5.5c-0.8-1.5-1.9-2.9-3.2-4.1
				c-1.3-1.1-2.7-1.9-4.3-2.5c-1.6-0.6-3.4-0.8-5.1-0.8c-1.4,1.9-2.9,3.6-4.6,5.2c-1.7,1.5-3.5,2.8-5.4,4c-1.9,1.1-3.8,2-5.9,2.6
				c-1.9,0.6-4,1-6,1c-1.4,0.1-2.7-0.3-3.8-1.2c-1.1-0.8-1.8-2.1-1.8-3.4c-0.5-2.8,1.4-5.4,4.2-5.9c0,0,0,0,0.1,0
				c2-0.5,3.9-1.2,5.7-2.2c1.9-1,3.5-2.4,5-3.9c1.5-1.6,2.8-3.5,3.7-5.5c1-2.2,1.7-4.5,2-6.9c0.1-1.7,0.9-3.2,2.3-4.2
				c1.3-0.9,2.9-1.3,4.5-1.2c1.6,0.1,3.1,0.7,4.2,1.9C678.1,69.5,678.7,71.1,678.5,72.8L678.5,72.8z"/>
			<path class="st9" d="M751.5,110.6c0.8,0,1.6,0.1,2.4,0.4c0.6,0.3,1.2,0.7,1.6,1.2c0.4,0.5,0.7,1,0.9,1.7c0.2,0.6,0.3,1.2,0.3,1.8
				c0,0.6-0.1,1.3-0.3,1.9c-0.2,0.6-0.5,1.1-0.9,1.6c-0.4,0.5-1,0.9-1.6,1.1c-0.7,0.3-1.5,0.4-2.3,0.4h-45.9c-0.8,0-1.6-0.1-2.3-0.4
				c-0.6-0.3-1.2-0.6-1.6-1.1c-0.4-0.5-0.7-1-0.9-1.6c-0.2-0.6-0.3-1.2-0.3-1.9c0-0.6,0.1-1.2,0.3-1.8c0.2-0.6,0.5-1.2,0.9-1.7
				c0.4-0.5,1-0.9,1.6-1.2c0.7-0.3,1.6-0.5,2.4-0.4H751.5z M734.6,72.8c-0.1,1.9-0.3,3.7-0.8,5.5c2.6,0.1,5.1,0.6,7.5,1.5
				c2.5,0.9,4.8,2.3,6.7,4.1c2.1,2,3.8,4.4,5,7c1.4,3.2,2.2,6.5,2.4,10h-12.2c-0.2-1.9-0.8-3.8-1.7-5.6c-0.8-1.5-1.9-2.9-3.2-4.1
				c-1.3-1.1-2.7-1.9-4.3-2.5c-1.6-0.6-3.4-0.8-5.1-0.8c-1.4,1.9-2.9,3.6-4.6,5.2c-1.7,1.5-3.5,2.8-5.4,4c-1.9,1.1-3.8,2-5.9,2.6
				c-1.9,0.6-4,1-6,1c-1.4,0.1-2.7-0.3-3.8-1.2c-1.1-0.8-1.8-2.1-1.9-3.4c-0.4-2.8,1.5-5.4,4.3-5.9c0,0,0,0,0,0
				c2-0.5,3.9-1.2,5.7-2.2c1.9-1,3.5-2.4,5-3.9c1.5-1.6,2.8-3.5,3.7-5.5c1-2.2,1.7-4.5,2-6.9c0.1-1.7,1-3.2,2.3-4.2
				c1.3-0.9,2.9-1.3,4.5-1.2c1.6,0.1,3.1,0.7,4.2,1.9C734.3,69.5,734.8,71.1,734.6,72.8z"/>
			<path class="st9" d="M778.5,111v-8.5h-7.8c-4,0-7-0.9-9-2.8c-2-2-3.1-4.8-3-7.7V91c-0.1-2.9,1-5.7,3-7.7c2-1.9,5-2.8,9-2.8H797
				v-1.8c0-0.4-0.1-0.8-0.3-1.1c-0.3-0.4-0.8-0.6-1.3-0.5H764c-1.3,0.1-2.6-0.5-3.4-1.5c-1.6-1.9-1.6-4.7,0-6.6
				c0.8-1,2.1-1.6,3.4-1.5h34.7c1.7,0,3.5,0.2,5.2,0.7c1.2,0.4,2.3,1,3.2,1.9c0.8,0.8,1.4,1.9,1.7,3c0.4,1.3,0.5,2.6,0.5,3.9v12.7
				h-35.8c-1.3,0-2,0.6-2,1.7v0.3c0,1.1,0.7,1.7,2,1.7h32.5c0.7,0,1.5,0.1,2.1,0.4c0.5,0.3,1,0.6,1.4,1.1c0.4,0.4,0.6,0.9,0.8,1.5
				c0.2,0.5,0.2,1.1,0.2,1.7c0,1.2-0.4,2.3-1.1,3.2c-0.9,1-2.2,1.6-3.5,1.4h-15.4v8.5h16.9c0.8,0,1.6,0.1,2.3,0.4
				c0.6,0.3,1.1,0.6,1.6,1.1c0.4,0.5,0.7,1,0.9,1.6c0.2,0.6,0.3,1.2,0.3,1.8c0,1.2-0.4,2.4-1.2,3.4c-1,1.1-2.4,1.6-3.9,1.5h-46.1
				c-1.5,0.1-2.9-0.4-3.9-1.5c-0.8-1-1.2-2.1-1.2-3.4c0-0.6,0.1-1.2,0.3-1.8c0.2-0.6,0.5-1.1,0.9-1.6c0.4-0.5,1-0.9,1.6-1.1
				c0.7-0.3,1.5-0.4,2.3-0.4H778.5z"/>
			<path class="st9" d="M830.4,101.2c-1.4,0.1-2.8-0.4-3.8-1.4c-0.8-0.9-1.2-2-1.1-3.2c0-1.1,0.4-2.2,1.1-3.1c1-0.9,2.4-1.4,3.8-1.3
				h8.6v-2.6c-3.8,0-6.6-0.9-8.4-2.7c-1.8-1.9-2.8-4.4-2.7-7c0-0.8,0.2-1.7,0.5-2.5c-1.9-0.4-3.2-2.1-3-4c0-1.1,0.4-2.2,1.1-3
				c1-0.8,2.2-1.3,3.5-1.2h8.6c0.1-1.3,0.8-2.6,1.9-3.3c1.2-0.8,2.6-1.1,4-1.1c1.4-0.1,2.9,0.3,4.1,1.1c1.1,0.8,1.7,2,1.8,3.4h8.6
				c1.3-0.1,2.5,0.3,3.5,1.2c0.8,0.8,1.3,1.9,1.2,3.1c0.1,1.9-1.1,3.5-2.9,3.9c0.3,0.8,0.5,1.7,0.5,2.5c0.1,2.6-0.9,5.1-2.7,7
				c-1.8,1.8-4.6,2.7-8.4,2.7v2.6h9.5c1.4-0.1,2.8,0.3,3.8,1.2c0.8,0.8,1.2,1.9,1.2,3.1c0,1.2-0.4,2.3-1.2,3.2c-1,1-2.4,1.5-3.8,1.4
				H830.4z M833.9,113.1c-1.4,0.1-2.7-0.3-3.8-1.2c-0.9-0.9-1.3-2-1.3-3.3c-0.1-1.2,0.4-2.4,1.3-3.2c1.1-0.8,2.4-1.3,3.8-1.2h36.7
				c1.5,0,2.9,0.1,4.4,0.4c1,0.2,1.9,0.7,2.6,1.5c0.7,0.8,1.1,1.8,1.3,2.8c0.2,1.4,0.3,2.9,0.3,4.3v8.6h-12v-7.5
				c0.1-0.6-0.4-1.2-1-1.3c-0.1,0-0.2,0-0.3,0H833.9z M848,82.5c1.5,0.1,2.7-1,2.8-2.5c0-0.1,0-0.1,0-0.2c0-0.7-0.3-1.3-0.7-1.8
				c-0.6-0.5-1.3-0.8-2.1-0.8h-6.7c-0.8-0.1-1.5,0.2-2.1,0.8c-0.5,0.5-0.7,1.1-0.7,1.8c0,0.7,0.3,1.3,0.7,1.8
				c0.5,0.6,1.3,0.9,2.1,0.8H848z M866.6,71.5c-0.1-1.7,0.5-3.3,1.8-4.4c2.4-2,5.9-2,8.3,0c1.2,1.1,1.9,2.7,1.8,4.4v7h1.9
				c0.8,0,1.6,0.2,2.2,0.5c0.6,0.3,1,0.7,1.4,1.2c0.4,0.5,0.6,1.1,0.8,1.7c0.3,1.2,0.3,2.5,0,3.7c-0.2,0.6-0.4,1.2-0.8,1.7
				c-0.4,0.5-0.9,0.9-1.4,1.2c-0.7,0.3-1.5,0.5-2.2,0.4h-1.9v13.5h-11.9V71.5z"/>
			<path class="st9" d="M900.1,98.7c-2.4,0-4.7-0.3-7-0.8c-2-0.5-3.8-1.4-5.4-2.6c-1.5-1.2-2.7-2.7-3.5-4.4c-0.9-2-1.3-4.1-1.3-6.3
				v-4c-0.1-2.2,0.4-4.3,1.3-6.3c0.8-1.7,2-3.2,3.5-4.4c1.6-1.2,3.4-2.1,5.4-2.6c4.6-1.1,9.4-1.1,14,0c2,0.5,3.8,1.4,5.4,2.6
				c1.5,1.2,2.7,2.7,3.5,4.4c0.9,2,1.3,4.2,1.3,6.3v4c0.1,2.2-0.4,4.3-1.3,6.3c-0.8,1.7-2,3.2-3.5,4.4c-1.6,1.2-3.4,2.1-5.4,2.6
				C904.8,98.4,902.5,98.7,900.1,98.7z M894.9,121.9c-1.4,0-2.8-0.1-4.2-0.5c-1-0.3-1.9-0.8-2.6-1.5c-0.7-0.8-1.2-1.7-1.4-2.7
				c-0.3-1.3-0.4-2.7-0.4-4.1V107c-0.1-1.7,0.5-3.4,1.8-4.5c1.2-1,2.8-1.5,4.3-1.4c1.5,0,3.1,0.5,4.3,1.4c1.2,1.2,1.9,2.8,1.7,4.5
				v4.1c0,0.7,0.1,1.1,0.3,1.3c0.4,0.2,0.9,0.3,1.3,0.2h32.6c1.8,0,3.1,0.5,3.9,1.4c0.7,0.9,1.1,2,1.1,3.2c0,1.2-0.4,2.4-1.2,3.3
				c-1,1-2.4,1.5-3.9,1.4H894.9z M900.1,89.9c1.4,0.1,2.8-0.3,3.9-1.1c1.1-0.9,1.6-2.3,1.5-3.7v-5c0.1-1.4-0.4-2.8-1.5-3.7
				c-2.4-1.6-5.4-1.6-7.8,0c-1.1,0.9-1.6,2.3-1.5,3.7v5c-0.1,1.4,0.4,2.8,1.5,3.7C897.4,89.6,898.7,89.9,900.1,89.9L900.1,89.9z
				 M924.1,71.6c-0.1-1.7,0.6-3.3,1.8-4.4c1.2-1,2.7-1.5,4.2-1.5c0.8,0,1.5,0.1,2.2,0.4c0.7,0.2,1.4,0.6,2,1.1
				c0.5,0.5,1,1.2,1.3,1.9c0.4,0.8,0.5,1.7,0.5,2.6V108h-12.1L924.1,71.6z"/>
			<path class="st9" d="M955.9,65.4c1.7-0.1,3.3,0.5,4.5,1.6c1.1,1.2,1.7,2.8,1.7,4.5V72h8.4c1.3-0.1,2.5,0.4,3.4,1.4
				c0.8,0.9,1.2,2.1,1.1,3.3c0,1.2-0.4,2.4-1.2,3.3c-0.8,0.9-2.1,1.5-3.3,1.4h-0.1c0.3,0.8,0.6,1.6,0.8,2.5c0.2,0.9,0.3,1.9,0.3,2.8
				v18.7c0.1,2.3-0.4,4.7-1.2,6.9c-1.4,3.7-4.4,6.5-8.2,7.6c-2,0.6-4.1,0.9-6.2,0.9c-2.1,0-4.1-0.3-6.1-0.9c-3.7-1.2-6.7-4-8.2-7.6
				c-0.8-2.2-1.3-4.5-1.2-6.9V86.7c0-1.8,0.3-3.6,1-5.3c-1.3,0.1-2.5-0.4-3.3-1.4c-0.8-0.9-1.2-2.1-1.2-3.3c0-1.2,0.4-2.4,1.1-3.3
				c0.8-1,2.1-1.5,3.3-1.4h8.3v-0.5c-0.1-1.7,0.5-3.3,1.6-4.5C952.6,65.9,954.3,65.3,955.9,65.4z M955.9,111.1
				c1.2,0,2.3-0.5,3.1-1.3c1-1.2,1.4-2.7,1.3-4.2V86.2c0-2-0.4-3.3-1.3-4.1c-0.8-0.8-1.9-1.2-3.1-1.2c-1.1,0-2.2,0.4-3,1.2
				c-0.9,0.8-1.3,2.2-1.3,4.1v19.3c-0.1,1.5,0.3,3,1.3,4.2C953.7,110.6,954.8,111.1,955.9,111.1z M978.7,71.4
				c-0.1-1.7,0.6-3.3,1.8-4.3c1.2-1,2.6-1.5,4.1-1.5c0.8,0,1.5,0.1,2.2,0.4c0.7,0.2,1.3,0.6,1.9,1.1c0.6,0.5,1,1.1,1.3,1.8
				c0.3,0.8,0.5,1.7,0.5,2.5v15.2h2c0.8,0,1.6,0.1,2.3,0.5c0.6,0.3,1.1,0.7,1.5,1.2c0.4,0.5,0.6,1.1,0.8,1.7c0.3,1.2,0.3,2.5,0,3.7
				c-0.2,0.6-0.4,1.2-0.8,1.7c-0.4,0.5-0.9,0.9-1.5,1.2c-0.7,0.3-1.4,0.5-2.2,0.5h-2v24.9h-11.9L978.7,71.4z"/>
			<path class="st9" d="M999.3,109.6c2.3-0.2,4.7-0.7,6.9-1.5c2-0.7,3.8-1.9,5.2-3.4c1.6-1.7,2.7-3.8,3.3-6c0.8-3,1.2-6.1,1.2-9.2
				v-9.7c0-0.4-0.1-0.8-0.4-1.1c-0.3-0.3-0.7-0.4-1.1-0.4h-13.7c-0.8,0-1.6-0.1-2.4-0.4c-0.6-0.3-1.2-0.7-1.6-1.2
				c-0.4-0.5-0.8-1-1-1.7c-0.2-0.6-0.3-1.2-0.3-1.9c0-0.6,0.1-1.2,0.3-1.8c0.2-0.6,0.6-1.2,1-1.7c0.5-0.5,1-0.9,1.6-1.2
				c0.7-0.3,1.6-0.5,2.4-0.5h17.8c3.4,0,5.8,0.8,7.3,2.3c1.5,1.8,2.3,4.1,2.2,6.5v12.9c0.1,4.7-0.6,9.3-2.1,13.7
				c-1.2,3.5-3.2,6.6-5.8,9.2c-2.5,2.4-5.5,4.2-8.7,5.3c-3.5,1.1-7.1,1.8-10.8,1.8c-0.7,0-1.5-0.1-2.2-0.3c-0.7-0.2-1.3-0.5-1.9-0.9
				c-0.5-0.4-1-1-1.3-1.6c-0.3-0.7-0.5-1.5-0.4-2.3c0-1.2,0.5-2.3,1.2-3.2C996.8,110.2,998,109.6,999.3,109.6z M1036.4,121.9V71.5
				c-0.1-1.7,0.6-3.3,1.8-4.4c2.4-2,6-2,8.4,0c1.3,1.1,1.9,2.8,1.8,4.4v50.4H1036.4z"/>
		</g>
	</g>
</g>
</svg>
