<?xml version="1.0" encoding="utf-8"?>
<!-- Generator: Adobe Illustrator 25.2.0, SVG Export Plug-In . SVG Version: 6.00 Build 0)  -->
<svg version="1.1" id="레이어_1" xmlns="http://www.w3.org/2000/svg" xmlns:xlink="http://www.w3.org/1999/xlink" x="0px"
	 y="0px" viewBox="0 0 1600 900" style="enable-background:new 0 0 1600 900;" xml:space="preserve">
<rect style="fill:#9CE3D1;" width="1600" height="900"/>
<g>
	<path style="fill:#33C4AB;" d="M1580,900.1H20V204.6c0-30.4,24.6-55,55-55h1450c30.4,0,55,24.6,55,55V900.1z"/>
	<path style="fill-rule:evenodd;clip-rule:evenodd;fill:#33C4AB;" d="M362.2,150l24.2-107.5c4.1-18.4,20.2-31.2,39-31.2h749
		c18.8,0,34.9,12.8,39,31.2l24.2,107.5L362.2,150z"/>
</g>
<g>
	<path style="fill:#FFFFFF;" d="M1570,901.5H30V210c0-27.6,22.4-50,50-50h1440c27.6,0,50,22.4,50,50V901.5z"/>
</g>
<path style="fill-rule:evenodd;clip-rule:evenodd;fill:#FFFFFF;" d="M1174.5,21.3h-749c-14,0-26.2,9.7-29.3,23.4l-26,126.3h859.5
	l-26-126.3C1200.7,31,1188.6,21.3,1174.5,21.3z"/>
<g>
	<g>
		<path style="fill:#006666;" d="M563.5,110.1V91.6c0-2,0.5-3.3,1.6-4.2c1.1-0.8,2.4-1.2,4.1-1.2c1.6,0,2.9,0.4,4,1.3
			c1.1,0.8,1.7,2.2,1.7,4.1v18.5h14.6c1.8,0,3.1,0.5,3.9,1.5c0.8,1,1.1,2.1,1.1,3.3c0,1.3-0.4,2.4-1.2,3.4c-0.8,1-2.1,1.5-3.9,1.5
			h-28.6c-1.8,0-3.1-0.5-3.9-1.5c-0.8-1-1.2-2.1-1.2-3.4c0-1.2,0.4-2.3,1.2-3.3c0.8-1,2.1-1.5,3.9-1.5H563.5z M579,98.7
			c0.6-1.8,1-4,1.3-6.6c0.3-2.5,0.4-5.7,0.4-9.5V79c0-1-0.5-1.4-1.4-1.4h-17.4c-0.9,0-1.6-0.1-2.3-0.4c-0.6-0.3-1.2-0.7-1.6-1.2
			c-0.4-0.5-0.7-1-0.9-1.6c-0.2-0.6-0.3-1.2-0.3-1.9c0-0.6,0.1-1.3,0.3-1.9c0.2-0.6,0.5-1.1,0.9-1.6c0.4-0.5,1-0.9,1.6-1.2
			c0.6-0.3,1.4-0.4,2.3-0.4h21.4c1.7,0,3.1,0.2,4.2,0.5c1.1,0.3,2.1,0.8,2.8,1.5c0.7,0.7,1.2,1.5,1.5,2.6c0.3,1,0.4,2.3,0.4,3.7v7.1
			c0,4.5-0.2,8.3-0.6,11.3c-0.4,3-1,5.6-1.8,7.9c-0.3,0.8-0.7,1.5-1.3,2c-0.6,0.5-1.2,1-2,1.3c-0.7,0.3-1.5,0.5-2.4,0.5
			c-0.9,0-1.7-0.1-2.6-0.3c-1.4-0.4-2.3-1.3-2.7-2.6C578.5,101.4,578.6,100.1,579,98.7z M596.6,71.3c0-1.9,0.6-3.4,1.8-4.4
			c1.2-1,2.6-1.5,4.1-1.5c0.8,0,1.5,0.1,2.2,0.4c0.7,0.3,1.3,0.6,1.9,1.1s1,1.1,1.3,1.8c0.3,0.7,0.5,1.6,0.5,2.5v15.2h2
			c0.9,0,1.7,0.2,2.3,0.5c0.6,0.3,1.1,0.7,1.4,1.2c0.4,0.5,0.6,1.1,0.8,1.7c0.2,0.6,0.2,1.2,0.2,1.8s-0.1,1.2-0.2,1.8
			c-0.2,0.6-0.4,1.2-0.8,1.7c-0.4,0.5-0.9,0.9-1.5,1.2c-0.6,0.3-1.4,0.5-2.2,0.5h-2v24.9h-11.9V71.3z"/>
		<path style="fill:#006666;" d="M630.1,98.9c-2.1,0-4.1-0.2-6.1-0.8c-1.9-0.5-3.6-1.3-5-2.3s-2.6-2.3-3.5-3.9
			c-0.9-1.6-1.3-3.5-1.3-5.6v-3.5c0-1.4,0.4-2.7,1.1-4c-1.5,0-2.6-0.4-3.3-1.3c-0.7-0.9-1.1-1.8-1.1-2.9s0.4-2.1,1.1-3
			c0.7-0.9,1.9-1.4,3.3-1.4h8.7c0-1.7,0.6-3,1.7-4c1.1-0.9,2.5-1.4,4.3-1.4c1.8,0,3.2,0.5,4.3,1.4s1.7,2.3,1.7,4h8.6
			c1.5,0,2.6,0.5,3.3,1.4c0.7,0.9,1.1,1.9,1.1,3s-0.3,2.1-1,2.9c-0.7,0.9-1.8,1.3-3.3,1.3h-0.1c0.8,1.3,1.1,2.6,1.1,4v3.5
			c0,2.2-0.4,4-1.3,5.6c-0.9,1.6-2,2.9-3.4,3.9c-1.4,1-3.1,1.8-5,2.3C634.3,98.7,632.2,98.9,630.1,98.9z M620.6,110.8
			c-1.7,0-3-0.4-3.9-1.3c-0.9-0.9-1.4-2-1.4-3.4c0-1.4,0.5-2.5,1.4-3.4c0.9-0.9,2.2-1.3,3.9-1.3h35.9c1.9,0,3.4,0.1,4.6,0.4
			c1.2,0.3,2.1,0.8,2.7,1.5c0.6,0.7,1.1,1.7,1.3,2.9c0.2,1.2,0.3,2.7,0.3,4.5v11.3h-12v-9.7c0-1-0.5-1.4-1.4-1.4H620.6z M630.1,90.4
			c1.2,0,2.4-0.4,3.4-1.1c1-0.7,1.5-1.8,1.5-3.3v-3.1c0-1.4-0.5-2.5-1.5-3.3c-1-0.7-2.2-1.1-3.4-1.1c-1.2,0-2.4,0.4-3.4,1.1
			c-1,0.7-1.5,1.8-1.5,3.3V86c0,1.4,0.5,2.5,1.5,3.3C627.8,90,628.9,90.4,630.1,90.4z M652.9,71.5c0-2,0.6-3.4,1.8-4.4
			c1.2-1,2.6-1.5,4.2-1.5c1.6,0,2.9,0.5,4.1,1.5s1.8,2.5,1.8,4.4v5.4h1.9c0.9,0,1.7,0.2,2.3,0.5c0.6,0.3,1.1,0.7,1.4,1.2
			c0.4,0.5,0.6,1,0.8,1.6c0.2,0.6,0.2,1.2,0.2,1.8c0,0.6-0.1,1.2-0.2,1.8c-0.2,0.6-0.4,1.2-0.8,1.7c-0.4,0.5-0.9,0.9-1.5,1.2
			c-0.6,0.3-1.4,0.4-2.2,0.4h-1.9v12h-11.9V71.5z"/>
		<path style="fill:#006666;" d="M718.9,110.6c0.9,0,1.7,0.2,2.4,0.5c0.7,0.3,1.2,0.7,1.6,1.2c0.4,0.5,0.7,1,0.9,1.6
			c0.2,0.6,0.3,1.2,0.3,1.8c0,0.6-0.1,1.3-0.3,1.9c-0.2,0.6-0.5,1.1-0.9,1.6s-1,0.9-1.6,1.1c-0.6,0.3-1.4,0.4-2.3,0.4h-45.8
			c-0.9,0-1.7-0.1-2.3-0.4c-0.6-0.3-1.2-0.7-1.6-1.1s-0.7-1-0.9-1.6c-0.2-0.6-0.3-1.2-0.3-1.9c0-0.6,0.1-1.2,0.3-1.8
			c0.2-0.6,0.5-1.1,0.9-1.6c0.4-0.5,1-0.9,1.6-1.2c0.7-0.3,1.4-0.5,2.4-0.5H718.9z M669.7,82.9c0-2.1,0.4-4.1,1.1-6
			c0.7-1.9,1.8-3.6,3.2-5.1c1.4-1.5,3.1-2.6,5.1-3.5c2-0.9,4.3-1.3,6.8-1.3H706c2.5,0,4.8,0.4,6.8,1.3c2,0.9,3.7,2.1,5.2,3.5
			c1.4,1.5,2.5,3.2,3.2,5.1c0.7,1.9,1.1,3.9,1.1,6v1.5c0,2.1-0.4,4.1-1.1,6c-0.7,1.9-1.8,3.6-3.2,5.1c-1.4,1.5-3.1,2.6-5.2,3.5
			c-2,0.9-4.3,1.3-6.8,1.3h-20.1c-2.5,0-4.8-0.4-6.8-1.3c-2-0.9-3.7-2-5.1-3.5c-1.4-1.5-2.5-3.1-3.2-5.1c-0.7-1.9-1.1-3.9-1.1-6
			V82.9z M709.9,82.8c0-1.7-0.7-3.1-1.9-4.3c-1.3-1.1-3-1.7-5-1.7H689c-2,0-3.7,0.6-5,1.7c-1.3,1.1-1.9,2.6-1.9,4.3v1.7
			c0,1.7,0.6,3.1,1.9,4.3c1.3,1.1,2.9,1.7,5,1.7h13.9c2,0,3.7-0.6,5-1.7c1.3-1.1,1.9-2.6,1.9-4.3V82.8z"/>
		<path style="fill:#006666;" d="M746,110.9v-8.5h-7.9c-4,0-7-0.9-9-2.8c-2-1.9-3-4.4-3-7.6v-1.1c0-3.2,1-5.8,3-7.7
			c2-1.9,5-2.8,9-2.8h26.3v-1.8c0-0.4-0.1-0.8-0.3-1.1c-0.2-0.4-0.6-0.5-1.3-0.5h-31.4c-1.4,0-2.6-0.5-3.4-1.5
			c-0.8-1-1.2-2.1-1.2-3.3c0-1.2,0.4-2.3,1.2-3.3c0.8-1,2-1.5,3.4-1.5h34.7c2.1,0,3.8,0.2,5.2,0.7c1.4,0.5,2.4,1.1,3.2,1.9
			c0.8,0.8,1.4,1.8,1.7,3c0.3,1.2,0.5,2.5,0.5,3.9v12.7h-35.8c-1.4,0-2,0.6-2,1.7v0.3c0,1.1,0.7,1.7,2,1.7h32.5
			c0.8,0,1.5,0.1,2.1,0.4c0.6,0.3,1.1,0.6,1.4,1.1c0.4,0.4,0.6,0.9,0.8,1.5c0.2,0.6,0.2,1.1,0.2,1.7c0,1.2-0.4,2.2-1.1,3.2
			c-0.7,1-1.9,1.4-3.5,1.4h-15.4v8.5h16.9c0.9,0,1.7,0.1,2.3,0.4c0.6,0.3,1.2,0.7,1.6,1.1c0.4,0.5,0.7,1,0.9,1.6
			c0.2,0.6,0.3,1.2,0.3,1.8c0,1.2-0.4,2.4-1.2,3.4c-0.8,1-2.1,1.5-3.9,1.5h-46.1c-1.8,0-3.1-0.5-3.9-1.5c-0.8-1-1.2-2.1-1.2-3.4
			c0-0.6,0.1-1.2,0.3-1.8c0.2-0.6,0.5-1.1,0.9-1.6c0.4-0.5,0.9-0.8,1.6-1.1c0.6-0.3,1.4-0.4,2.3-0.4H746z"/>
		<path style="fill:#006666;" d="M793.4,109.7c1.6-1.4,2.8-3,3.9-4.7c1-1.7,1.8-3.8,2.4-6.2c0.6-2.4,1-5.2,1.3-8.4
			c0.2-3.2,0.4-7,0.4-11.4V73c0-1.9,0.5-3.3,1.6-4.3c1.1-0.9,2.4-1.4,4-1.4c1.5,0,2.8,0.5,4,1.4c1.1,1,1.7,2.4,1.7,4.2v6
			c0,4.8-0.2,9.2-0.7,13.1c1.8,0.9,3.5,2,4.9,3.4c1.4,1.4,2.6,3.1,3.5,5.2c0.9,2.1,1.6,4.6,1.9,7.5c0.4,2.9,0.4,6.3,0.2,10.2h-10.9
			c0.5-3.6,0.5-6.5,0.2-8.9c-0.3-2.4-1-4.3-2.1-5.8c-1,3.5-2.3,6.4-3.8,8.8c-1.5,2.3-3.2,4.1-5,5.4c-0.6,0.4-1.2,0.7-1.9,1
			c-0.7,0.2-1.5,0.4-2.2,0.4c-0.8,0-1.5-0.1-2.2-0.4c-0.7-0.3-1.3-0.7-1.9-1.3c-0.5-0.6-0.8-1.2-1-1.9c-0.2-0.7-0.2-1.4-0.1-2.1
			c0.1-0.7,0.3-1.4,0.7-2C792.3,110.8,792.8,110.3,793.4,109.7z M824.7,92.6h-4.9c-0.9,0-1.7-0.1-2.3-0.4c-0.6-0.3-1.1-0.7-1.6-1.2
			c-0.4-0.5-0.7-1.1-0.9-1.7c-0.2-0.6-0.3-1.2-0.3-1.8c0-0.6,0.1-1.2,0.3-1.8c0.2-0.6,0.5-1.2,0.9-1.6c0.4-0.5,0.9-0.9,1.6-1.2
			c0.6-0.3,1.4-0.5,2.3-0.5h4.9V70.6c0-1.7,0.5-2.9,1.5-3.8c1-0.9,2.2-1.3,3.6-1.3c1.4,0,2.6,0.4,3.6,1.3c1.1,0.9,1.6,2.1,1.6,3.8
			v51.2h-10.3V92.6z M837.8,70.6c0-1.7,0.5-2.9,1.6-3.8c1.1-0.9,2.3-1.3,3.7-1.3c0.7,0,1.3,0.1,2,0.3c0.6,0.2,1.2,0.6,1.7,1
			c0.5,0.4,0.9,1,1.2,1.6c0.3,0.6,0.5,1.4,0.5,2.2v51.2h-10.7V70.6z"/>
		<path style="fill:#006666;" d="M852.1,87.2c3.1-0.9,5.4-2.5,7-4.9c1.5-2.4,2.3-5.8,2.3-10.2v-0.4c0-1,0.2-1.8,0.5-2.5
			c0.3-0.7,0.8-1.3,1.4-1.7c0.6-0.5,1.2-0.8,2-1c0.7-0.2,1.5-0.3,2.3-0.3c1.6,0,2.9,0.5,4,1.5c1.1,0.9,1.7,2.3,1.7,4.1v0.4
			c0,1,0,1.9-0.1,2.8c-0.1,0.9-0.2,1.7-0.3,2.6c2.1,0.3,4,0.8,5.7,1.7c1.7,0.8,3.2,2,4.4,3.5c1.2,1.5,2.1,3.3,2.7,5.5
			c0.6,2.2,0.9,4.7,0.8,7.6h-11.6c0.2-2.6-0.1-4.7-1-6.2c-0.8-1.5-2.2-2.5-4-2.9c-1.7,3.1-3.9,5.5-6.4,7.2c-2.6,1.7-5.3,2.7-8.1,3
			c-1.6,0.2-2.9-0.1-4-0.9c-1.1-0.7-1.8-1.6-2-2.7c-0.4-1.4-0.3-2.6,0.2-3.8C850.1,88.2,850.9,87.5,852.1,87.2z M852.8,110.3
			c0-1.6,0.3-3.1,0.8-4.6c0.5-1.4,1.3-2.7,2.3-3.8c1-1.1,2.3-1.9,3.9-2.5c1.6-0.6,3.4-0.9,5.5-0.9h25.4c2,0,3.8,0.3,5.4,0.9
			s2.9,1.4,3.9,2.5c1,1.1,1.8,2.3,2.3,3.8c0.5,1.4,0.8,3,0.8,4.6c0,1.6-0.3,3.2-0.8,4.6c-0.5,1.4-1.3,2.7-2.3,3.8
			c-1,1.1-2.3,1.9-3.9,2.5c-1.6,0.6-3.4,0.9-5.4,0.9h-25.4c-2.1,0-3.9-0.3-5.5-0.9c-1.6-0.6-2.8-1.5-3.9-2.5c-1-1.1-1.8-2.3-2.3-3.7
			C853,113.4,852.8,111.9,852.8,110.3z M865,110.3c0,0.8,0.2,1.5,0.7,2.2c0.5,0.7,1.4,1.1,2.7,1.1h19c1.3,0,2.2-0.4,2.7-1.1
			c0.5-0.7,0.7-1.5,0.7-2.2c0-0.8-0.2-1.5-0.7-2.2c-0.5-0.7-1.4-1.1-2.7-1.1h-19c-1.3,0-2.2,0.4-2.7,1.1
			C865.2,108.8,865,109.5,865,110.3z M890.2,71.5c0-2,0.6-3.4,1.8-4.4c1.2-1,2.6-1.5,4.2-1.5c1.6,0,2.9,0.5,4.1,1.5
			c1.2,1,1.8,2.5,1.8,4.4v4.9h1.9c0.9,0,1.7,0.2,2.3,0.5c0.6,0.3,1.1,0.7,1.4,1.2c0.4,0.5,0.6,1,0.8,1.7c0.2,0.6,0.2,1.2,0.2,1.8
			c0,0.6-0.1,1.2-0.2,1.8c-0.2,0.6-0.4,1.2-0.8,1.7c-0.4,0.5-0.9,0.9-1.5,1.2c-0.6,0.3-1.4,0.4-2.2,0.4H902v10.4h-11.9V71.5z"/>
		<path style="fill:#006666;" d="M919.4,79.4c0-2.4,0.4-4.4,1.2-6.1c0.8-1.7,2-3,3.5-4.1c1.5-1.1,3.3-1.8,5.4-2.3
			c2.1-0.5,4.4-0.7,7-0.7c2.6,0,4.9,0.2,7,0.7c2.1,0.5,3.9,1.3,5.4,2.3c1.5,1.1,2.7,2.4,3.5,4.1c0.8,1.7,1.2,3.7,1.2,6.1V81
			c0,2.4-0.4,4.4-1.2,6.1c-0.8,1.7-2,3-3.5,4.1c-1.5,1.1-3.3,1.8-5.4,2.3c-2.1,0.5-4.4,0.7-7,0.7c-2.6,0-4.9-0.2-7-0.7
			c-2.1-0.5-3.9-1.2-5.4-2.3c-1.5-1.1-2.7-2.4-3.5-4.1c-0.8-1.7-1.2-3.7-1.2-6.1V79.4z M929.3,121.9c-1.4,0-2.6-0.2-3.6-0.6
			c-1.1-0.4-2-1-2.7-1.7c-0.7-0.7-1.3-1.6-1.6-2.5c-0.4-1-0.5-2-0.5-3.1v-1c0-2.3,0.7-4.1,2.2-5.4c1.4-1.3,3.5-2,6.3-2h6.7v-1.1
			c0-0.6-0.4-1-1.3-1h-10c-1.2,0-2-0.4-2.5-1.1c-0.5-0.7-0.8-1.5-0.8-2.4c0-0.9,0.3-1.7,0.8-2.4c0.5-0.7,1.4-1.1,2.5-1.1h14.6
			c2.6,0,4.5,0.4,5.6,1.4c1.1,0.9,1.7,2.5,1.7,4.9v10h-13.4c-0.9,0-1.4,0.3-1.4,0.9v0.2c0,0.6,0.5,1,1.4,1h12.5c1.2,0,2,0.4,2.6,1.1
			c0.5,0.8,0.8,1.6,0.8,2.5c0,0.8-0.3,1.6-0.8,2.4c-0.5,0.8-1.4,1.1-2.6,1.1H929.3z M931.3,81.4c0,1.5,0.5,2.6,1.4,3.3
			c1,0.7,2.2,1,3.8,1c1.6,0,2.9-0.3,3.8-1c1-0.7,1.4-1.8,1.4-3.3V79c0-1.5-0.5-2.6-1.4-3.3c-1-0.7-2.2-1.1-3.8-1.1
			c-1.6,0-2.9,0.4-3.8,1.1c-1,0.7-1.4,1.8-1.4,3.3V81.4z M953,106c-1.7,0-2.9-0.4-3.7-1.3c-0.8-0.9-1.2-2-1.2-3.4
			c0-1.4,0.4-2.5,1.2-3.4c0.8-0.9,2-1.3,3.7-1.3h11.2c1.9,0,3.4,0.1,4.6,0.4c1.2,0.3,2.1,0.8,2.7,1.5c0.6,0.7,1.1,1.7,1.3,2.9
			c0.2,1.2,0.3,2.7,0.3,4.5v16.1h-11.4v-14.5c0-1-0.5-1.4-1.4-1.4H953z M960.5,71.5c0-2,0.6-3.4,1.8-4.4c1.2-1,2.6-1.5,4.2-1.5
			c0.8,0,1.5,0.1,2.2,0.4c0.7,0.3,1.4,0.6,2,1.1c0.6,0.5,1,1.1,1.3,1.9c0.3,0.7,0.5,1.6,0.5,2.6v23h-12.1V71.5z"/>
		<path style="fill:#006666;" d="M979.7,109.5c2.5-0.2,4.8-0.7,6.9-1.5c2.1-0.7,3.8-1.9,5.2-3.4c1.4-1.5,2.5-3.5,3.3-6
			c0.8-2.5,1.2-5.6,1.2-9.2v-9.7c0-0.4-0.1-0.8-0.4-1.1c-0.3-0.3-0.6-0.4-1.1-0.4h-13.7c-0.9,0-1.7-0.1-2.4-0.4
			c-0.7-0.3-1.2-0.7-1.6-1.2c-0.4-0.5-0.8-1-1-1.6c-0.2-0.6-0.3-1.2-0.3-1.9c0-0.6,0.1-1.2,0.3-1.8c0.2-0.6,0.5-1.2,1-1.7
			c0.4-0.5,1-0.9,1.6-1.2c0.7-0.3,1.4-0.5,2.4-0.5h17.8c3.4,0,5.8,0.8,7.3,2.3c1.4,1.5,2.2,3.7,2.2,6.5v12.9c0,5.4-0.7,9.9-2.1,13.7
			c-1.4,3.8-3.4,6.8-5.8,9.2c-2.5,2.4-5.4,4.2-8.7,5.3c-3.3,1.1-6.9,1.7-10.8,1.8c-0.7,0-1.4-0.1-2.2-0.3c-0.7-0.2-1.3-0.5-1.9-0.9
			c-0.5-0.4-1-0.9-1.3-1.6c-0.3-0.6-0.5-1.4-0.4-2.3c0.1-1.3,0.5-2.4,1.2-3.2C977,110.2,978.2,109.7,979.7,109.5z M1016.8,121.9
			V71.5c0-2,0.6-3.4,1.8-4.4c1.2-1,2.6-1.5,4.2-1.5c1.6,0,3,0.5,4.2,1.5c1.2,1,1.8,2.5,1.8,4.4v50.4H1016.8z"/>
		<path style="fill:#006666;" d="M1031.9,112.5c0-1.9,0.6-3.4,1.7-4.4c1.1-1.1,2.7-1.6,4.7-1.6c2,0,3.6,0.6,4.7,1.6
			c1.1,1.1,1.7,2.6,1.7,4.4c0,1.8-0.6,3.3-1.7,4.4s-2.7,1.6-4.7,1.6c-2,0-3.6-0.5-4.7-1.6C1032.4,115.9,1031.9,114.4,1031.9,112.5z
			 M1032.2,103.6V71.9c0-1,0.2-1.8,0.5-2.6c0.3-0.7,0.8-1.4,1.3-1.9c0.6-0.5,1.2-0.9,2-1.1c0.7-0.3,1.5-0.4,2.3-0.4
			c0.8,0,1.5,0.1,2.2,0.4c0.7,0.3,1.4,0.6,2,1.1c0.6,0.5,1,1.1,1.4,1.9c0.3,0.7,0.5,1.6,0.5,2.6v31.7H1032.2z"/>
	</g>
</g>
<g>
	<g>
		<g>
			<g>
				<g>
					<g>
						<g>
							<path style="fill:#1D9191;" d="M500.6,120.4h3.2c2.4,0,4.5-1.2,5.5-3h22.6c3.4,0,6.1-2.7,6.1-5.9V77.3c0-3.3-2.7-5.9-6.1-5.9
								h-25.3c-1,0-3.7,0-6,0V120.4z"/>
						</g>
					</g>
				</g>
			</g>
		</g>
	</g>
	<g>
		<g>
			<g>
				<g>
					<g>
						<g>
							<path style="fill:#2E9999;" d="M500.6,71.3c-2.7,0-5,0-6.2,0h-25.3c-3.4,0-6.1,2.7-6.1,5.9v34.2c0,3.3,2.7,5.9,6.1,5.9h22.7
								c1,1.8,3.1,3,5.5,3h3.3V71.3z"/>
						</g>
					</g>
				</g>
			</g>
		</g>
	</g>
	<g>
		<g>
			<g>
				<g>
					<g>
						<g>
							<g>
								<path style="fill:#72BFB9;" d="M474.5,112.1c-3.3,1-6.1-1.4-6-4.7c0-10.4,0-20.8,0-31.1c0-3.5,2.3-7.5,6-8.2
									c6.8-1,13.2-0.6,19.9,1c3.5,1,5.9,4.8,6,8.3c0,9.6,0,19.3,0,28.9c0.1,3.3-2.8,5.5-6,4.9
									C487.6,110.2,481.2,110.5,474.5,112.1z"/>
							</g>
						</g>
					</g>
				</g>
			</g>
		</g>
	</g>
	<g>
		<g>
			<g>
				<g>
					<g>
						<g>
							<g>
								<path style="fill:#72BFB9;" d="M526.5,112.5c3.3,1,6.1-1.4,6-4.7c0-10.4,0-20.8,0-31.1c0-3.5-2.3-7.5-6-8.2
									c-6.8-1-13.2-0.6-19.9,1c-3.5,1-5.9,4.8-6,8.3c0,9.6,0,19.3,0,28.9c-0.1,3.3,2.8,5.4,6,4.9
									C513.4,110.5,519.8,110.9,526.5,112.5z"/>
							</g>
						</g>
					</g>
				</g>
			</g>
		</g>
	</g>
	<g>
		<g>
			<g>
				<g>
					<g>
						<path style="fill:#FFFFFF;" d="M475.4,75.4c0,0,11.5-1.8,18.5,1.5L475.4,75.4z"/>
					</g>
				</g>
			</g>
		</g>
	</g>
	<g>
		<g>
			<g>
				<g>
					<g>
						<path style="fill:#FFFFFF;" d="M475.4,82c0,0,11.5-2,18.5,1.3L475.4,82z"/>
					</g>
				</g>
			</g>
		</g>
	</g>
	<g>
		<g>
			<g>
				<g>
					<g>
						<path style="fill:#FFFFFF;" d="M475.4,89c0,0,11.5-2.2,18.5,1.1L475.4,89z"/>
					</g>
				</g>
			</g>
		</g>
	</g>
	<g>
		<g>
			<g>
				<g>
					<g>
						<path style="fill:#FFFFFF;" d="M483.7,100.6c2.9-0.4,8-0.2,10.2,0.9L483.7,100.6z"/>
					</g>
				</g>
			</g>
		</g>
	</g>
	<path style="fill:#F5F5F5;" d="M494.3,76c-2.9-1.4-7-2.1-11.9-2.1c-3.9,0-6.9,0.5-7.2,0.5c-0.6,0.1-1,0.7-0.9,1.3
		c0.1,0.5,0.5,0.9,1.1,0.9c0.1,0,0.1,0,0.2,0c0,0,3.1-0.5,7-0.5c4.6,0,8.2,0.6,10.8,1.9c0.1,0.1,0.3,0.1,0.5,0.1
		c0.4,0,0.8-0.2,1-0.6c0.1-0.3,0.1-0.6,0-0.8C494.8,76.3,494.6,76.1,494.3,76z"/>
	<path style="fill:#F5F5F5;" d="M494.3,82.3c-2.8-1.3-6.6-2-11.2-2c-4.3,0-7.8,0.6-7.9,0.6c-0.3,0.1-0.5,0.2-0.7,0.5
		c-0.2,0.2-0.2,0.5-0.2,0.8c0.1,0.5,0.6,0.9,1.1,0.9c0.1,0,0.1,0,0.2,0c0.1,0,3.6-0.6,7.6-0.6c4.2,0,7.7,0.6,10.2,1.8
		c0.1,0.1,0.3,0.1,0.5,0.1c0.4,0,0.8-0.2,1-0.6C495.1,83.2,494.9,82.6,494.3,82.3z"/>
	<path style="fill:#F5F5F5;" d="M494.3,89.1c-2.7-1.3-6.3-1.9-10.6-1.9c-4.5,0-8.1,0.7-8.5,0.8c-0.6,0.1-1,0.7-0.9,1.3
		c0.1,0.5,0.6,0.9,1.1,0.9c0.1,0,0.1,0,0.2,0c0,0,3.8-0.7,8.2-0.7c4,0,7.2,0.6,9.6,1.7c0.1,0.1,0.3,0.1,0.5,0.1c0.4,0,0.8-0.2,1-0.6
		C495.1,90,494.9,89.3,494.3,89.1z"/>
	<path style="fill:#F5F5F5;" d="M527,75.6c0.1-0.6-0.3-1.2-0.9-1.3c-0.3-0.1-3.4-0.5-7.2-0.5c-4.9,0-9,0.7-11.9,2.1
		c-0.3,0.1-0.5,0.3-0.6,0.6c-0.1,0.3-0.1,0.6,0,0.8c0.2,0.4,0.6,0.6,1,0.6c0.2,0,0.3,0,0.5-0.1c2.6-1.3,6.3-1.9,10.8-1.9
		c3.9,0,6.9,0.5,7,0.5c0.1,0,0.1,0,0.2,0C526.4,76.6,526.9,76.2,527,75.6z"/>
	<path style="fill:#F5F5F5;" d="M527,83.9c0.1-0.3,0-0.6-0.2-0.8c-0.2-0.2-0.4-0.4-0.7-0.5c-0.1,0-3.6-0.6-7.9-0.6
		c-4.6,0-8.4,0.7-11.2,2c-0.6,0.3-0.8,0.9-0.5,1.5c0.2,0.4,0.6,0.6,1,0.6c0.2,0,0.3,0,0.5-0.1c2.5-1.2,5.9-1.8,10.2-1.8
		c4.1,0,7.5,0.6,7.6,0.6c0.1,0,0.1,0,0.2,0C526.4,84.8,526.9,84.4,527,83.9z"/>
	<path style="fill:#F5F5F5;" d="M526.9,92.5c0.1-0.6-0.3-1.2-0.9-1.3c-0.4-0.1-4.1-0.8-8.5-0.8c-4.4,0-8,0.6-10.6,1.9
		c-0.6,0.3-0.8,0.9-0.5,1.5c0.2,0.4,0.6,0.6,1,0.6c0.2,0,0.3,0,0.5-0.1c2.4-1.1,5.6-1.7,9.6-1.7c4.4,0,8.1,0.7,8.2,0.7
		c0.1,0,0.1,0,0.2,0C526.4,93.4,526.8,93,526.9,92.5z"/>
	<path style="fill:#F5F5F5;" d="M526.9,100.9c0.1-0.6-0.3-1.2-0.9-1.3c-0.4-0.1-4.1-0.8-8.5-0.8c-4.4,0-8,0.6-10.6,1.9
		c-0.6,0.3-0.8,0.9-0.5,1.5c0.2,0.4,0.6,0.6,1,0.6c0.2,0,0.3,0,0.5-0.1c2.4-1.1,5.6-1.7,9.6-1.7c4.4,0,8.1,0.7,8.2,0.7
		c0.1,0,0.1,0,0.2,0C526.4,101.8,526.8,101.4,526.9,100.9z"/>
	<path style="fill:#F5F5F5;" d="M494.4,100.6c-1.6-0.8-4.4-1.2-7.7-1.2c-1.2,0-2.3,0.1-3.2,0.2c-0.6,0.1-1,0.6-0.9,1.2
		c0.1,0.5,0.5,1,1.1,1c0.1,0,0.1,0,0.2,0c0.8-0.1,1.8-0.2,2.9-0.2c2.3,0,5.2,0.3,6.7,1c0.2,0.1,0.3,0.1,0.5,0.1c0.4,0,0.8-0.2,1-0.6
		C495.1,101.5,494.9,100.9,494.4,100.6z"/>
</g>
<g>
</g>
<g>
</g>
<g>
</g>
<g>
</g>
<g>
</g>
<g>
</g>
<g>
</g>
<g>
</g>
<g>
</g>
<g>
</g>
<g>
</g>
<g>
</g>
<g>
</g>
<g>
</g>
<g>
</g>
</svg>
