<?xml version="1.0" encoding="utf-8"?>
<!-- Generator: Adobe Illustrator 25.1.0, SVG Export Plug-In . SVG Version: 6.00 Build 0)  -->
<svg version="1.1" id="레이어_1" xmlns="http://www.w3.org/2000/svg" xmlns:xlink="http://www.w3.org/1999/xlink" x="0px"
	 y="0px" viewBox="0 0 60 60" style="enable-background:new 0 0 60 60;" xml:space="preserve">
<style type="text/css">
	.st0{fill:#BA589D;}
	.st1{fill:#FFFFFF;}
</style>
<g id="레이어_1_1_">
</g>
<g>
	<path class="st0" d="M60,0H0v60h60V0z"/>
</g>
<g>
	<path class="st1" d="M41.3,18.7L41.3,18.7c1,1,1,2.6,0,3.5L22.2,41.3c-1,1-2.6,1-3.5,0l0,0c-1-1-1-2.6,0-3.5l19.1-19.1
		C38.8,17.7,40.3,17.7,41.3,18.7z"/>
	<path class="st1" d="M18.7,18.7L18.7,18.7c1-1,2.6-1,3.5,0l19.1,19.1c1,1,1,2.6,0,3.5l0,0c-1,1-2.6,1-3.5,0L18.7,22.2
		C17.7,21.2,17.7,19.6,18.7,18.7z"/>
</g>
</svg>
