<?xml version="1.0" encoding="utf-8"?>
<!-- Generator: Adobe Illustrator 23.0.0, SVG Export Plug-In . SVG Version: 6.00 Build 0)  -->
<svg version="1.1" id="레이어_1" xmlns="http://www.w3.org/2000/svg" xmlns:xlink="http://www.w3.org/1999/xlink" x="0px"
	 y="0px" width="19.5px" height="28.6px" viewBox="0 0 19.5 28.6" style="enable-background:new 0 0 19.5 28.6;"
	 xml:space="preserve">
<path style="fill:#FFFFFF;" d="M16.3,0c0,5.3-6.3,4.7-6.3,4.7l0,0c0,0,0,0,0,0c-5.3,0-9.6,4.3-9.6,9.6s4.3,9.6,9.6,9.6
	c0.1,0,0.2,0,0.3,0c1.3,0,6,0.1,6,4.8v-7.1c2-1.8,3.3-4.3,3.3-7.2c0-2.8-1.2-5.4-3.2-7.1V0z"/>
<path style="fill:#32D8BC;" d="M10,9c2.9,0,5.3,2.4,5.3,5.3s-2.4,5.3-5.3,5.3c-2.9,0-5.3-2.4-5.3-5.3S7.1,9,10,9"/>
<g>
</g>
<g>
</g>
<g>
</g>
<g>
</g>
<g>
</g>
</svg>
