<?xml version="1.0" encoding="utf-8"?>
<!-- Generator: Adobe Illustrator 25.2.0, SVG Export Plug-In . SVG Version: 6.00 Build 0)  -->
<svg version="1.1" id="레이어_1" xmlns="http://www.w3.org/2000/svg" xmlns:xlink="http://www.w3.org/1999/xlink" x="0px"
	 y="0px" viewBox="0 0 1353.6 216.2" style="enable-background:new 0 0 1353.6 216.2;" xml:space="preserve">
<g>
	<g>
		<path style="fill:#BFBAAC;" d="M1270.2,156.3H97.8c-41.9,0-75.9-34-75.9-75.9v0C21.9,39.5,55.1,6.3,96,6.3h1174.2
			c40.9,0,74.1,33.2,74.1,74.1v1.7C1344.4,123.1,1311.2,156.3,1270.2,156.3z"/>
		<path style="fill:#ECE7D9;" d="M1279.4,150.5l-1162.4,0c-41.9,0-75.9-34-75.9-75.9v0c0-40.9,33.2-74.1,74.1-74.1l1164.1,0
			c40.9,0,74.1,33.2,74.1,74.1v1.7C1353.6,117.3,1320.4,150.5,1279.4,150.5z"/>
	</g>
	<g>
		<g>
			<circle style="fill:#BFBAAC;" cx="108.1" cy="108.1" r="108.1"/>
			<circle style="fill:#FFFFFF;" cx="108.1" cy="108.1" r="90.3"/>
		</g>
		<g>
			<path style="fill:#83E8D3;" d="M75.7,166.2c-0.3,0.3-2.4,5.3-2.4,5.3s-10.7,9.4-7.8,18.9c2.9,9.4,16.8,12.8,30.8,10.3
				c0.6-0.1,7.3-2,9.6-5.6l5.9,0.2c0,0,0.4,6.1,14.3,4.9c14-1.2,19.8-1.6,20.8-10.5c1-8.9-3.6-15.8-10-19l0.5-3.1L75.7,166.2z"/>
			<path style="fill:#1CB594;" d="M115.6,188c0-1.2-0.3-2.3-0.7-3.4c-0.4-1.1-1.1-2-1.9-2.8c-1.7-1.7-3.7-2.6-6.1-2.5
				c-2.4,0-4.4,0.9-6.1,2.6c-0.8,0.8-1.4,1.7-1.8,2.8c-0.4,1.1-0.7,2.2-0.7,3.4v0.5l4.7,0v-0.5c0-1.1,0.4-2,1.1-2.8
				c0.8-0.8,1.7-1.2,2.8-1.2c1.1,0,2,0.4,2.8,1.1c0.8,0.8,1.2,1.7,1.2,2.8v0.5h4.7V188"/>
			<g>
				<g>
					<path style="fill:#FFFFFF;" d="M77.9,65.2c-0.7-0.4-1.3-0.7-1.9-0.9c-3.6-1.2-6.3,0.2-8.1,4.3c-1.2,3.4-1.5,7-0.7,10.9
						c0.8,3.9,2.3,7.7,4.7,11.5c7.7-0.9,14.4-3.7,20-8.4C88.2,74.5,83.5,68.7,77.9,65.2"/>
					<path style="fill:#47D7AC;" d="M71.9,92.1c-0.4,0-0.8-0.2-1-0.6c-2.4-3.9-4-7.8-4.8-11.8c-0.8-4.1-0.6-8,0.7-11.6
						c2.6-6,6.6-6,9.6-5c0.7,0.2,1.4,0.6,2.2,1c5.8,3.6,10.7,9.6,14.5,17.8c0.2,0.5,0.1,1.1-0.3,1.5C86.9,88.3,80,91.2,72,92.1
						L71.9,92.1 M73.5,65.1c-1.6,0-3.2,0.9-4.5,4c-1.1,3.1-1.3,6.5-0.6,10.2c0.7,3.5,2.1,7,4.1,10.4c6.8-0.9,12.8-3.4,17.8-7.5
						c-3.5-7.3-7.9-12.6-13.1-15.9c-0.6-0.3-1.1-0.6-1.7-0.8C74.9,65.3,74.2,65.1,73.5,65.1z"/>
					<path style="fill:#FFFFFF;" d="M148.7,79.6c0.8-3.9,0.6-7.5-0.7-10.9c-1.7-4.1-4.4-5.5-8.1-4.2c-0.6,0.2-1.3,0.5-1.9,0.9
						c-5.6,3.5-10.3,9.3-14,17.2c5.6,4.7,12.3,7.6,20,8.4C146.4,87.2,148,83.4,148.7,79.6"/>
					<path style="fill:#47D7AC;" d="M144.1,92.2l-0.1,0c-7.9-0.9-14.9-3.9-20.7-8.7c-0.4-0.4-0.6-1-0.3-1.5
						c3.8-8.2,8.7-14.2,14.5-17.8c0.8-0.5,1.5-0.8,2.2-1c2.9-1,7-1,9.6,4.9c1.3,3.7,1.6,7.6,0.7,11.6c-0.8,4-2.4,8-4.8,11.8
						C144.9,92,144.5,92.2,144.1,92.2 M125.6,82.2c5.1,4,11,6.5,17.8,7.5c2-3.4,3.4-6.9,4.1-10.3c0.7-3.6,0.5-7.1-0.6-10.3
						c-1.9-4.4-4.5-4.2-6.5-3.5c-0.6,0.2-1.1,0.4-1.7,0.8C133.5,69.6,129.1,74.9,125.6,82.2z"/>
					<path style="fill:#FFFFFF;" d="M155.4,96.9c-4.5-9-11.7-15.7-21.7-20c-8.3-3.3-16.5-4.9-24.8-5c-0.1,0-0.2,0-0.4,0
						s-0.2,0-0.4,0c-0.1,0-0.2,0-0.4,0c-8.3,0.1-16.5,1.7-24.8,5c-10.9,4.7-18.5,12.2-22.9,22.5c-2.4,5.9-3.8,12.7-4.2,20.4
						c-0.1,3.6-0.6,6.9-1.4,9.7c-4.6,14-2.1,24.8,7.7,32.1c1,0.8,2.1,1.5,3.2,2.2l0.1,0.1c1,0.6,1.9,1.2,2.9,1.7
						c7.8,4.4,16.5,7.1,25.9,8.3c0.6,0.1,1.3,0.1,1.9,0.2c3.8,0.5,7.7,0.8,11.5,0.8c0.4,0,0.7,0,1.1,0c3.9,0,7.7-0.3,11.5-0.8
						c0.7-0.1,1.3-0.1,1.9-0.2c4-0.5,7.8-1.3,11.5-2.3c5.1-1.5,9.9-3.4,14.4-6c1-0.6,2.1-1.2,3-1.8c1.2-0.7,2.2-1.4,3.2-2.2
						c9.8-7.4,12.3-18.1,7.7-32.1c-0.9-2.8-1.4-6.1-1.4-9.7C160.4,111,158.6,103.3,155.4,96.9"/>
					<path style="fill:#83E8D3;" d="M160.6,155.3c4.5-6.7,5.1-15.3,1.6-25.8c-0.9-2.8-1.4-6.1-1.4-9.7c-0.1-1.8-0.2-3.5-0.4-5.1
						c0.2-0.1,0.3-0.3,0.5-0.4c0.4-0.3,0.4-0.9,0.1-1.2c-0.3-0.4-0.9-0.4-1.2-0.1c-3.4,3.1-6.4,6.2-8.7,9.4c-2.6,3.4-3.3,8-2,13.6
						c0.2,0.9,0.5,1.7,0.8,2.5c2.1,6.2,5.3,12.3,9.6,18.1c0.2,0.2,0.4,0.4,0.7,0.4c0.2,0,0.4-0.1,0.5-0.2c0.4-0.3,0.5-0.8,0.2-1.2
						C160.7,155.5,160.7,155.4,160.6,155.3z"/>
					<path style="fill:#83E8D3;" d="M65.8,122.4c-2.3-3.2-5.2-6.3-8.7-9.4c-0.4-0.3-0.9-0.3-1.2,0.1c-0.3,0.4-0.3,0.9,0.1,1.2
						c0.2,0.1,0.3,0.3,0.5,0.4c-0.2,1.7-0.3,3.4-0.4,5.2c-0.1,3.6-0.6,6.9-1.4,9.7c-3.4,10.5-2.9,19.1,1.7,25.8
						c-0.1,0.1-0.1,0.2-0.2,0.3c-0.3,0.4-0.2,0.9,0.2,1.2c0.2,0.1,0.3,0.2,0.5,0.2c0.3,0,0.5-0.1,0.7-0.4c4.3-5.9,7.5-12,9.6-18.1
						c0.3-0.8,0.6-1.7,0.8-2.6C69.1,130.4,68.4,125.8,65.8,122.4z"/>
					<path style="fill:#47D7AC;" d="M107.8,176.2c-3.9,0-7.8-0.3-11.7-0.9c-0.6-0.1-1.3-0.1-1.9-0.2c-9.5-1.2-18.4-4-26.3-8.5
						c-1-0.5-2-1.1-2.9-1.7l-0.2-0.1c-1.2-0.7-2.3-1.4-3.3-2.2c-10.2-7.7-12.9-19-8.1-33.5c0.8-2.7,1.3-5.8,1.4-9.3
						C55.1,112,56.5,105,59,99c4.4-10.6,12.3-18.4,23.5-23.2c8.4-3.3,16.9-5,25.3-5.1h1.1c8.4,0.1,16.9,1.8,25.3,5.1
						c10.3,4.4,17.8,11.3,22.4,20.6c3.2,6.6,5.1,14.4,5.5,23.4c0.1,3.5,0.6,6.7,1.4,9.4c4.8,14.5,2,25.8-8.1,33.5
						c-1,0.8-2.1,1.5-3.3,2.2c-1,0.6-2,1.2-3.1,1.8c-4.6,2.6-9.5,4.6-14.7,6.1c-3.7,1.1-7.6,1.9-11.6,2.4c-0.7,0.1-1.3,0.1-2,0.2
						c-3.8,0.5-7.7,0.8-11.6,0.9H107.8 M107.8,73.2c-8.1,0.1-16.3,1.7-24.4,4.9c-10.5,4.5-18,11.8-22.2,21.8
						c-2.4,5.7-3.8,12.4-4.1,20c-0.1,3.7-0.6,7.1-1.5,10l0,0c-4.5,13.6-2.1,23.7,7.3,30.8c1,0.7,2,1.4,3.1,2.1
						c0.1,0.1,0.2,0.1,0.2,0.2c0.9,0.6,1.8,1.1,2.8,1.6c7.7,4.3,16.2,7,25.4,8.2c0.6,0.1,1.3,0.1,1.9,0.2c3.8,0.5,7.6,0.8,11.4,0.8
						h1.1c3.8,0,7.6-0.3,11.3-0.8c0.7-0.1,1.3-0.1,2-0.2c3.9-0.5,7.6-1.3,11.2-2.3c5-1.4,9.7-3.4,14.2-5.9c1-0.6,2-1.1,3-1.8
						c1.1-0.7,2.2-1.4,3.1-2.1c9.4-7.1,11.8-17.1,7.3-30.8c-0.9-2.9-1.4-6.3-1.5-10c-0.4-8.6-2.1-16.2-5.2-22.4
						c-4.3-8.7-11.4-15.3-21.1-19.4c-8.1-3.2-16.3-4.9-24.3-4.9H107.8z M54.5,129.5L54.5,129.5L54.5,129.5z"/>
					<path d="M93.8,132.5c0.9-1.6,1.3-3.6,1.3-5.9c0-2.3-0.4-4.3-1.3-5.9c-0.9-1.6-1.9-2.4-3.2-2.4c-1.2,0-2.3,0.8-3.2,2.4
						c-0.9,1.7-1.3,3.6-1.3,5.9c0,2.3,0.4,4.3,1.3,5.9c0.9,1.7,1.9,2.5,3.2,2.5C91.9,135,93,134.2,93.8,132.5"/>
					<path style="fill:#83E8D3;" d="M93,110.7L93,110.7c0.7,0.2,1.3,0,1.9-0.5c0.6-0.4,0.9-0.9,1-1.6c0.1-0.7,0-1.3-0.4-1.9
						c-0.4-0.5-0.8-0.9-1.5-1l-9.5-1.7c-0.7-0.1-1.3,0-1.8,0.4c-0.6,0.4-0.9,1-1,1.7c-0.1,0.7,0,1.3,0.4,1.8c0.4,0.5,0.8,0.9,1.3,1
						l0.2,0L93,110.7"/>
					<path style="fill:#47D7AC;" d="M93.4,111.6c-0.2,0-0.4,0-0.6,0l-0.2-0.1l-9.2-1.6c-0.1,0-0.3,0-0.4-0.1
						c-0.7-0.2-1.3-0.7-1.8-1.4c-0.5-0.7-0.7-1.6-0.5-2.5c0.2-0.9,0.6-1.7,1.4-2.2c0.8-0.5,1.6-0.7,2.5-0.6l9.5,1.7
						c0.9,0.2,1.6,0.7,2.1,1.4c0.5,0.8,0.7,1.7,0.6,2.5c-0.2,0.9-0.6,1.7-1.4,2.2C94.8,111.4,94.1,111.6,93.4,111.6 M92.9,111.5
						L92.9,111.5L92.9,111.5z M92.9,111.5L92.9,111.5L92.9,111.5z M92.4,111.3L92.4,111.3L92.4,111.3z M93.3,109.8
						c0.4,0,0.7-0.1,1-0.3l0.1-0.1c0.3-0.2,0.5-0.5,0.6-1c0.1-0.4,0-0.9-0.3-1.3c-0.2-0.4-0.5-0.6-0.9-0.6l-9.4-1.7
						c-0.4-0.1-0.8,0-1.1,0.3c-0.4,0.3-0.6,0.6-0.7,1.1c-0.1,0.5,0,0.8,0.2,1.2c0.2,0.4,0.5,0.6,0.9,0.7l0,0l0.1,0l9.3,1.7
						L93.3,109.8z M83.8,108.2L83.8,108.2L83.8,108.2z M83.6,108.1L83.6,108.1L83.6,108.1z"/>
					<path d="M121.6,126.6c0,2.3,0.4,4.3,1.3,5.9c0.9,1.7,1.9,2.5,3.2,2.5c1.2,0,2.3-0.8,3.2-2.5c0.9-1.6,1.3-3.6,1.3-5.9
						c0-2.3-0.4-4.3-1.3-5.9c-0.9-1.6-1.9-2.4-3.2-2.4c-1.2,0-2.3,0.8-3.2,2.4C122,122.3,121.6,124.3,121.6,126.6"/>
					<path style="fill:#83E8D3;" d="M134.1,104.4c-0.5-0.4-1.1-0.5-1.8-0.4l-9.5,1.7c-0.6,0.1-1.1,0.5-1.5,1
						c-0.4,0.6-0.5,1.2-0.4,1.9c0.1,0.7,0.5,1.2,1,1.6c0.6,0.4,1.2,0.6,1.8,0.5l0.1,0l9.4-1.7l0.2,0c0.5-0.2,1-0.5,1.3-1
						c0.4-0.5,0.5-1.2,0.4-1.8C135,105.4,134.6,104.9,134.1,104.4"/>
					<path style="fill:#47D7AC;" d="M123.3,111.6c-0.7,0-1.4-0.2-1.9-0.7c-0.8-0.5-1.2-1.2-1.4-2.2c-0.2-0.9,0-1.7,0.6-2.5
						c0.5-0.7,1.2-1.2,2-1.4l9.5-1.7c0.9-0.1,1.7,0.1,2.5,0.6c0.8,0.6,1.2,1.3,1.4,2.2c0.2,0.9,0,1.8-0.5,2.5
						c-0.5,0.7-1,1.1-1.8,1.3c-0.1,0-0.3,0.1-0.4,0.1l-9.2,1.6l-0.2,0.1C123.7,111.6,123.5,111.6,123.3,111.6 M123.8,111.5
						L123.8,111.5L123.8,111.5z M123.8,111.5L123.8,111.5L123.8,111.5z M124.4,111.3L124.4,111.3L124.4,111.3z M132.7,104.9l-0.3,0
						l-9.4,1.7c-0.4,0.1-0.7,0.3-0.9,0.6c-0.3,0.4-0.4,0.8-0.3,1.3c0.1,0.5,0.3,0.8,0.6,1l0.1,0.1c0.3,0.3,0.7,0.4,1,0.3l0.2-0.1
						l9.3-1.7l0.1,0l0,0c0.3-0.1,0.6-0.3,0.9-0.7c0.2-0.4,0.3-0.7,0.2-1.2c-0.1-0.5-0.3-0.8-0.7-1.1
						C133.3,105,133,104.9,132.7,104.9z M133,108.2L133,108.2L133,108.2z"/>
					<path d="M108.4,151.6c-2.5,0-4.8-0.6-6.6-1.9c-1.4-1-2.3-2.1-2.6-3.5c-0.1-0.4,0.1-0.9,0.6-1c0.4-0.1,0.9,0.1,1,0.6
						c0.3,1,0.9,1.8,2,2.6c1.5,1.1,3.5,1.6,5.7,1.6c2.2,0,4.1-0.6,5.6-1.6c1.1-0.8,1.8-1.6,2-2.6c0.1-0.4,0.6-0.7,1-0.6
						c0.4,0.1,0.7,0.6,0.6,1c-0.4,1.3-1.3,2.5-2.7,3.5C113.2,150.9,110.9,151.6,108.4,151.6"/>
				</g>
			</g>
			
				<path style="fill:none;stroke:#47D7AC;stroke-width:1.4217;stroke-linecap:round;stroke-linejoin:round;stroke-miterlimit:10;" d="
				M131.6,181.8c0,0-0.5,3.4-7.2,4.2c-6.7,0.8-13.1,1.3-13,8.7c0.1,7.4,15.8,7.6,27.4,4.1c0,0,10.9-2.8,7.9-14.8
				c0,0-1.9-9.6-9.4-12.1"/>
			<path style="fill:#83E8D3;" d="M73.1,170.7c-0.2-0.1-10,7.5-8.5,17.6c1.5,10.5,12.8,15.2,30.1,13.2c17.3-2,11.8-12.9,8.2-14.6
				c-2.5-1.2-7-1.4-15.6-1c-7.3,0.3-7-2.3-7-2.3"/>
			
				<path style="fill:none;stroke:#47D7AC;stroke-width:1.4217;stroke-linecap:round;stroke-linejoin:round;stroke-miterlimit:10;" d="
				M74.5,169.9c-0.2-0.1-11.4,8.3-9.9,18.4c1.5,10.5,12.8,15.2,30.1,13.2c17.3-2,11.8-12.9,8.2-14.6c-2.5-1.2-7-1.4-15.6-1
				c-7.3,0.3-7-2.3-7-2.3"/>
		</g>
	</g>
</g>
<g>
</g>
<g>
</g>
<g>
</g>
<g>
</g>
<g>
</g>
<g>
</g>
<g>
</g>
<g>
</g>
<g>
</g>
<g>
</g>
<g>
</g>
<g>
</g>
<g>
</g>
<g>
</g>
<g>
</g>
</svg>
