<?xml version="1.0" encoding="utf-8"?>
<!-- Generator: Adobe Illustrator 25.2.0, SVG Export Plug-In . SVG Version: 6.00 Build 0)  -->
<svg version="1.1" id="레이어_1" xmlns="http://www.w3.org/2000/svg" xmlns:xlink="http://www.w3.org/1999/xlink" x="0px"
	 y="0px" viewBox="0 0 1440 184.6" style="enable-background:new 0 0 1440 184.6;" xml:space="preserve">
<g>
	<path style="fill:#F2E7D9;" d="M1440,106.6V25c0-13.8-11.2-25-25-25H25C11.2,0,0,11.2,0,25v81.6c17.9,0.1,18,24,35.9,24
		c18,0,18-24,36-24c18,0,18,24,36,24s18-24,36-24c18,0,18,24,36,24c18,0,18-24,36-24c18,0,18,24,36,24s18-24,36-24c18,0,18,24,36,24
		s18-24,36-24c18,0,18,24,36,24s18-24,36-24s18,24,36,24s18-24,36-24s18,24,36,24c18,0,18-24,36-24c18,0,18,24,36,24
		c18,0,18-24,36-24c18,0,18,24,36,24c18,0,18-24,36-24s18,24,36,24c18,0,18-24,36-24c18,0,18,24,36,24c18,0,18-24,36-24
		c18,0,18,24,36,24c18,0,18-24,36-24c18,0,18,24,36,24c18,0,18-24,36-24c18,0,18,24,36,24s18-24,36-24c18,0,18,24,36,24
		c18,0,18-24,36-24c18,0,18,24,36,24c18,0,18-24,36-24c18,0,18,24,36,24s18-24,36-24c18,0,18,24,36,24c18,0,18-24,36-24
		c18,0,18,24,36,24C1422,130.6,1422,106.6,1440,106.6L1440,106.6z"/>
	<g>
		<g>
			<path style="fill:#F2E7D9;" d="M839.1,177.5c-12.2,3.7-26.9,4.3-39.7,4.9c-27.6,1.4-55.3,2.2-83,2.2c-21.1,0-42.2-0.6-63.2-1.9
				c-10.9-0.7-21.9-1.1-32.8-2.5c-15-1.9-30.6-3.7-36.3-20.4c-5.8-16.9-5.6-38.5-5.6-56.2c0-16.5,1.9-33.1,4.6-49.3
				c2.1-12.3,6.5-21.3,19.3-24.3c17.2-4,34.4-6.1,52.1-6.2c20.6-0.1,41.2-1.1,61.9-1.1c26.5,0,53,0.4,79.4,2.4
				c13.2,1,26.4,3.8,39.5,5.7c17,2.5,21.4,14,23.1,29.9c1.5,14.2,3,28.6,3,42.9c0,18.6-1.7,38.2-6.1,56.3
				C853.2,169.2,848.3,174.8,839.1,177.5z"/>
			<g>
				<path style="fill:#878179;" d="M706.7,119.4c-3.4,0-5.9-0.7-7.5-2.2c-1.6-1.4-2.4-3.4-2.4-5.8c0-0.5,0.1-1,0.3-1.6
					c-0.8-0.3-1.4-0.7-1.9-1.3c-0.5-0.6-0.7-1.3-0.7-2.2c0-1.1,0.4-2,1.1-2.7c0.7-0.7,1.8-1,3.1-1h8c0.2-1.3,0.8-2.2,1.8-2.8
					c1-0.6,2.2-0.9,3.6-0.9c1.4,0,2.6,0.3,3.6,0.9c1,0.6,1.5,1.5,1.8,2.8h8c1.3,0,2.3,0.3,3.1,1c0.7,0.7,1.1,1.6,1.1,2.7
					c0,0.9-0.2,1.6-0.7,2.2c-0.5,0.6-1.1,1-1.9,1.2c0.2,0.5,0.3,1.1,0.3,1.7c0,2.4-0.8,4.3-2.4,5.8c-1.6,1.4-4.1,2.2-7.5,2.2h-0.3
					v2.2h8.9c1.6,0,2.7,0.3,3.4,1c0.7,0.7,1,1.5,1,2.5c0,1-0.3,1.9-1,2.7c-0.7,0.8-1.8,1.1-3.4,1.1h-27.2c-1.6,0-2.7-0.4-3.4-1.1
					c-0.7-0.8-1-1.6-1-2.7c0-1,0.3-1.8,1-2.5c0.7-0.7,1.8-1,3.4-1h8.1v-2.2H706.7z M704.5,151c-2.3,0-4-0.6-5.1-1.9
					c-1.1-1.2-1.7-2.8-1.7-4.6v-0.3c0-1.9,0.6-3.3,1.7-4.4c1.1-1,2.8-1.6,5.1-1.6h27.7v-1c0-0.3-0.1-0.5-0.2-0.7
					c-0.1-0.1-0.4-0.2-0.8-0.2h-30c-1,0-1.7-0.3-2.2-0.9c-0.5-0.6-0.7-1.3-0.7-1.9c0-0.7,0.2-1.4,0.7-2s1.2-0.9,2.2-0.9h36.4
					c2.3,0,3.8,0.4,4.7,1.2c0.8,0.8,1.3,2,1.3,3.6v7.7h-33c-0.4,0-0.6,0.1-0.8,0.3c-0.1,0.2-0.2,0.4-0.2,0.6c0,0.6,0.3,0.9,1,0.9
					h31.4c1,0,1.7,0.3,2.2,1c0.4,0.6,0.6,1.3,0.6,2.1c0,0.6-0.2,1.3-0.6,1.9c-0.4,0.7-1.1,1-2.2,1H704.5z M715.3,113.2
					c0.8,0,1.5-0.2,1.8-0.6c0.4-0.4,0.6-0.9,0.6-1.4c0-0.6-0.2-1.1-0.6-1.4c-0.4-0.3-1-0.5-1.8-0.5h-6.5c-0.8,0-1.5,0.2-1.8,0.5
					c-0.4,0.3-0.6,0.8-0.6,1.4c0,0.5,0.2,1,0.6,1.4s1,0.6,1.8,0.6H715.3z M732.2,104.9c0-1.8,0.5-3.1,1.6-4.1
					c1.1-0.9,2.3-1.4,3.8-1.4c1.4,0,2.7,0.5,3.8,1.4c1.1,0.9,1.6,2.3,1.6,4v4.8h1.7c0.8,0,1.5,0.1,2.1,0.4c0.5,0.3,1,0.7,1.3,1.1
					c0.3,0.4,0.6,0.9,0.7,1.5c0.1,0.6,0.2,1.1,0.2,1.7s-0.1,1.1-0.2,1.7s-0.4,1.1-0.7,1.5c-0.3,0.5-0.8,0.8-1.3,1.1
					c-0.6,0.3-1.3,0.4-2.1,0.4H743v10.2h-10.9V104.9z"/>
				<path style="fill:#878179;" d="M764.2,107.8c-0.5,0-0.9,0.1-1.1,0.2c-0.2,0.2-0.3,0.5-0.3,0.9v0.8c0,0.5,0.1,0.8,0.3,1
					s0.6,0.2,1.1,0.2h30.7c1.4,0,2.4,0.4,3,1.2c0.6,0.8,0.9,1.7,0.9,2.6c0,1-0.3,1.8-0.9,2.6c-0.6,0.8-1.6,1.1-3,1.1h-14.2v3.1h15.9
					c0.8,0,1.4,0.1,2,0.4c0.5,0.2,1,0.5,1.3,0.9c0.3,0.4,0.6,0.8,0.7,1.3c0.1,0.5,0.2,1,0.2,1.5c0,1.1-0.3,2-1,2.8
					c-0.7,0.8-1.8,1.2-3.3,1.2h-42.8c-1.5,0-2.6-0.4-3.3-1.2c-0.7-0.8-1-1.8-1-2.8c0-0.5,0.1-1,0.2-1.5c0.1-0.5,0.4-0.9,0.7-1.3
					c0.3-0.4,0.8-0.7,1.3-0.9c0.5-0.2,1.2-0.4,2-0.4h15.9v-3.1H759c-1.5,0-2.7-0.1-3.6-0.3c-0.9-0.2-1.7-0.6-2.2-1.1
					c-0.5-0.5-0.9-1.2-1.1-2.1c-0.2-0.9-0.3-2-0.3-3.4v-4.3c0-1.4,0.1-2.5,0.3-3.5c0.2-0.9,0.6-1.6,1.1-2.2c0.5-0.5,1.3-0.9,2.2-1.1
					c0.9-0.2,2.1-0.3,3.6-0.3h35.7c1.4,0,2.4,0.4,3,1.2c0.6,0.8,0.9,1.7,0.9,2.6c0,1-0.3,1.9-0.9,2.7c-0.6,0.8-1.6,1.2-3,1.2H764.2z
					 M789.1,132.5c1.7,0,3.2,0.2,4.5,0.7c1.3,0.5,2.3,1.1,3.2,2c0.8,0.8,1.5,1.8,1.9,3c0.4,1.1,0.6,2.4,0.6,3.7
					c0,1.3-0.2,2.5-0.6,3.7c-0.4,1.1-1.1,2.1-1.9,3c-0.8,0.8-1.9,1.5-3.2,2c-1.3,0.5-2.8,0.7-4.5,0.7h-27.9c-1.7,0-3.2-0.2-4.5-0.7
					c-1.3-0.5-2.3-1.1-3.2-2c-0.8-0.8-1.5-1.8-1.9-3c-0.4-1.1-0.6-2.4-0.6-3.7c0-1.3,0.2-2.5,0.6-3.7c0.4-1.1,1.1-2.1,1.9-3
					c0.8-0.8,1.9-1.5,3.2-2c1.3-0.5,2.8-0.7,4.5-0.7H789.1z M785.8,143.7c0.9,0,1.5-0.2,1.9-0.5c0.3-0.4,0.5-0.8,0.5-1.3
					c0-0.5-0.2-1-0.5-1.3c-0.3-0.4-1-0.5-1.9-0.5h-21.3c-0.9,0-1.5,0.2-1.9,0.5c-0.3,0.4-0.5,0.8-0.5,1.3c0,0.5,0.2,1,0.5,1.3
					c0.3,0.4,1,0.5,1.9,0.5H785.8z"/>
				<path style="fill:#878179;" d="M803.7,125.1c0-0.5,0.1-1.1,0.2-1.6c0.2-0.5,0.4-1,0.8-1.5c0.3-0.4,0.8-0.8,1.4-1.1
					s1.3-0.4,2.1-0.4h5.9v-5.8c0-1.8,0.5-3.1,1.5-4c1-0.8,2.2-1.3,3.5-1.3c1.4,0,2.5,0.4,3.5,1.3c1,0.8,1.5,2.2,1.5,4v5.8h5.9
					c0.8,0,1.5,0.1,2.1,0.4c0.6,0.3,1,0.6,1.4,1.1c0.3,0.4,0.6,0.9,0.8,1.5c0.2,0.5,0.2,1.1,0.2,1.6s-0.1,1.1-0.2,1.7
					c-0.2,0.6-0.4,1.1-0.8,1.5c-0.4,0.5-0.8,0.8-1.4,1.1s-1.2,0.4-2,0.4h-5.9v5.8c0,1.8-0.5,3.1-1.5,4c-1,0.8-2.2,1.3-3.5,1.3
					c-1.4,0-2.5-0.4-3.5-1.3c-1-0.8-1.5-2.2-1.5-4v-5.8h-5.9c-0.8,0-1.5-0.1-2.1-0.4s-1-0.7-1.4-1.1c-0.3-0.5-0.6-1-0.8-1.5
					C803.8,126.2,803.7,125.7,803.7,125.1z"/>
			</g>
			<g id="XMLID_1_">
				<g>
					<path style="fill:#FF8875;" d="M725.3,66.8v11.9c0,2.4-2,4.3-4.5,4.3h-5V62.5h5C723.2,62.5,725.3,64.4,725.3,66.8z"/>
					<rect x="709" y="62.5" style="fill:#FFDB93;" width="6.7" height="20.5"/>
					<polygon style="fill:#06C7CA;" points="606.9,66.8 606.9,78.8 597,72.8 					"/>
					<polygon style="fill:#06C7CA;" points="646.6,62.5 646.6,72.8 621.1,72.8 613.8,62.5 					"/>
					<polygon style="fill:#06C7CA;" points="646.6,72.8 646.6,83.1 632.9,83.1 613.8,83.1 621.1,72.8 					"/>
					<polygon style="fill:#06C7CA;" points="709,83 709,83.1 693.9,83.1 693.9,72.8 693.9,72.8 709,72.8 					"/>
					<path style="fill:#06C7CA;" d="M709,62.5l0,10.3h-15.1h0v-9.2c0-0.4,0-0.8-0.1-1.1H709z"/>
					<path style="fill:#FFE5D4;" d="M646.6,83.1V72.8V62.5V61c0-3.3,2.6-5.9,5.9-5.9c3.3,0,5.9,2.6,5.9,5.9v13.6h0V61.2
						c0-3.3,2.6-5.9,5.9-5.9c3.3,0,5.9,2.6,5.9,5.9v13.4h0V61.2c0-3.3,2.7-5.9,5.9-5.9c3.3,0,5.9,2.6,5.9,5.9v13.4h0v-11
						c0-3.3,2.6-5.9,5.9-5.9c2.9,0,5.3,2.1,5.8,4.8c0.1,0.4,0.1,0.7,0.1,1.1v9.2v10.3v8.2c-2.3,8.9-11.9,15.6-13.5,16.7v44.3h-33.2
						v-43.9l-12.3-10.2l0,0c-1.2-1.1-2-2.6-2-4.4v-9.5v-1.3H646.6z"/>
				</g>
				<g>
					<path style="fill:#878179;" d="M619.9,73.6l-7.4-10.3c-0.3-0.4-0.4-1-0.1-1.5c0.3-0.5,0.8-0.8,1.3-0.8h32.9v2.9h-30l5.7,8
						L619.9,73.6z"/>
					<path style="fill:#878179;" d="M710.5,72.8l-2.9,0l0-8.8h-13.8l0-2.9H709c0.4,0,0.8,0.2,1,0.4c0.3,0.3,0.4,0.6,0.4,1
						L710.5,72.8z"/>
					<rect x="613.8" y="81.6" style="fill:#878179;" width="32.9" height="2.9"/>
					<rect x="621.1" y="71.3" style="fill:#878179;" width="25.5" height="2.9"/>
					<path style="fill:#878179;" d="M709,84.6h-15.1v-2.9h13.6l0-7.4h-13.6v-2.9H709c0.8,0,1.5,0.7,1.5,1.5l0,10.3
						C710.5,83.9,709.8,84.6,709,84.6z"/>
					<path style="fill:#878179;" d="M715.7,84.4H709c-0.8,0-1.5-0.7-1.5-1.5V62.5c0-0.8,0.7-1.5,1.5-1.5h6.7v2.9h-5.2v17.6h5.2V84.4
						z"/>
					<path style="fill:#878179;" d="M720.7,84.4h-5c-0.8,0-1.5-0.7-1.5-1.5V62.5c0-0.8,0.7-1.5,1.5-1.5h5c3.3,0,6,2.6,6,5.8v11.9
						C726.7,81.8,724,84.4,720.7,84.4z M717.1,81.5h3.6c1.7,0,3.1-1.3,3.1-2.9V66.8c0-1.6-1.4-2.9-3.1-2.9h-3.6V81.5z"/>
					<path style="fill:#878179;" d="M613.8,84.6c-0.3,0-0.5-0.1-0.8-0.2l-16.7-10.3c-0.4-0.3-0.7-0.7-0.7-1.3s0.3-1,0.7-1.3
						L613,61.3c0.7-0.4,1.5-0.2,2,0.4l7.4,10.2c0.4,0.5,0.4,1.2,0,1.7L615,83.9C614.7,84.3,614.2,84.6,613.8,84.6z M599.9,72.8
						l13.5,8.3l6-8.3l-6-8.2L599.9,72.8z"/>
					<rect x="605.4" y="66.7" style="fill:#878179;" width="2.9" height="12.1"/>
					<path style="fill:#878179;" d="M680.4,153.8h-33.2c-0.8,0-1.5-0.7-1.5-1.5v-43.2l-11.8-9.8c-0.1-0.1-0.1-0.1-0.2-0.2
						c-1.5-1.4-2.3-3.3-2.3-5.3v-9.5h2.9v9.5c0,1.2,0.5,2.4,1.5,3.3c0,0,0.1,0.1,0.1,0.1l12.2,10.1c0.3,0.3,0.5,0.7,0.5,1.1v42.4
						h30.3V108c0-0.5,0.2-0.9,0.7-1.2c1.8-1.2,10.6-7.4,12.8-15.7V63.6c0-0.3,0-0.6-0.1-0.9c-0.4-2.1-2.2-3.6-4.4-3.6
						c-2.4,0-4.4,2-4.4,4.4v11c0,0.8-0.7,1.5-1.5,1.5c-0.8,0-1.5-0.7-1.5-1.5V61.2c0-2.4-2-4.4-4.4-4.4c-2.4,0-4.4,2-4.4,4.4v13.4
						c0,0.8-0.7,1.5-1.5,1.5c-0.8,0-1.5-0.7-1.5-1.5V61.2c0-2.4-2-4.4-4.4-4.4c-2.4,0-4.4,2-4.4,4.4v13.4c0,0.8-0.7,1.5-1.5,1.5
						s-1.5-0.7-1.5-1.5V61c0-2.4-2-4.4-4.4-4.4c-2.4,0-4.4,2-4.4,4.4v27.1c0,0.8-0.7,1.5-1.5,1.5H643v-2.9h2.2V61
						c0-4.1,3.3-7.4,7.4-7.4c2.5,0,4.6,1.2,6,3.1c1.3-1.7,3.5-2.9,5.8-2.9c2.4,0,4.6,1.2,5.9,3c1.3-1.8,3.5-3,5.9-3
						c3,0,5.6,1.8,6.8,4.4c1.3-1.3,3.1-2,5.1-2c3.5,0,6.6,2.5,7.2,6c0.1,0.5,0.1,0.9,0.1,1.4v27.7c0,0.1,0,0.2,0,0.4
						c-2.2,8.6-10.6,15.1-13.5,17.1v43.5C681.9,153.1,681.2,153.8,680.4,153.8z"/>
				</g>
			</g>
		</g>
	</g>
	<g>
		<g style="opacity:8.000000e-02;">
			<path style="fill:#878179;" d="M40.1,33.1c0-0.5,0.1-1.1,0.2-1.6s0.4-1,0.8-1.5c0.3-0.4,0.8-0.8,1.4-1.1c0.6-0.3,1.2-0.4,2-0.4
				h5.9v-5.7c0-1.8,0.5-3.1,1.5-3.9c1-0.8,2.2-1.3,3.5-1.3c1.3,0,2.5,0.4,3.5,1.3c1,0.8,1.5,2.1,1.5,3.9v5.7h5.9
				c0.8,0,1.5,0.1,2,0.4c0.6,0.3,1,0.6,1.4,1.1c0.3,0.4,0.6,0.9,0.8,1.5c0.2,0.5,0.2,1.1,0.2,1.6c0,0.5-0.1,1.1-0.2,1.7
				c-0.2,0.6-0.4,1.1-0.8,1.5c-0.4,0.5-0.8,0.8-1.4,1.1c-0.5,0.3-1.2,0.4-2,0.4h-5.9v5.7c0,1.8-0.5,3.1-1.5,3.9
				c-1,0.8-2.2,1.3-3.5,1.3c-1.3,0-2.5-0.4-3.5-1.3c-1-0.8-1.5-2.1-1.5-3.9v-5.7h-5.9c-0.8,0-1.5-0.1-2-0.4c-0.6-0.3-1-0.7-1.4-1.1
				c-0.3-0.5-0.6-1-0.8-1.5S40.1,33.6,40.1,33.1z"/>
		</g>
		<g style="opacity:0.1;">
			<path style="fill:#878179;" d="M138.8,66c0-0.5,0.1-1.1,0.2-1.6c0.2-0.5,0.4-1,0.8-1.5c0.3-0.4,0.8-0.8,1.4-1.1
				c0.6-0.3,1.2-0.4,2-0.4h5.9v-5.7c0-1.8,0.5-3.1,1.5-3.9c1-0.8,2.2-1.3,3.5-1.3c1.3,0,2.5,0.4,3.5,1.3c1,0.8,1.5,2.1,1.5,3.9v5.7
				h5.9c0.8,0,1.5,0.1,2,0.4c0.6,0.3,1,0.6,1.4,1.1c0.3,0.4,0.6,0.9,0.8,1.5c0.2,0.5,0.2,1.1,0.2,1.6c0,0.5-0.1,1.1-0.2,1.7
				c-0.2,0.6-0.4,1.1-0.8,1.5c-0.4,0.5-0.8,0.8-1.4,1.1c-0.5,0.3-1.2,0.4-2,0.4h-5.9v5.7c0,1.8-0.5,3.1-1.5,3.9
				c-1,0.8-2.2,1.3-3.5,1.3c-1.3,0-2.5-0.4-3.5-1.3c-1-0.8-1.5-2.1-1.5-3.9v-5.7h-5.9c-0.8,0-1.5-0.1-2-0.4c-0.6-0.3-1-0.7-1.4-1.1
				c-0.3-0.5-0.6-1-0.8-1.5S138.8,66.5,138.8,66z"/>
		</g>
		<g style="opacity:0.2;">
			<path style="fill:#878179;" d="M249.1,28.2c0-0.5,0.1-1.1,0.2-1.6s0.4-1,0.8-1.5c0.3-0.4,0.8-0.8,1.4-1.1c0.6-0.3,1.2-0.4,2-0.4
				h5.9v-5.7c0-1.8,0.5-3.1,1.5-3.9c1-0.8,2.2-1.3,3.5-1.3c1.3,0,2.5,0.4,3.5,1.3c1,0.8,1.5,2.1,1.5,3.9v5.7h5.9
				c0.8,0,1.5,0.1,2,0.4c0.6,0.3,1,0.6,1.4,1.1c0.3,0.4,0.6,0.9,0.8,1.5c0.2,0.5,0.2,1.1,0.2,1.6c0,0.5-0.1,1.1-0.2,1.7
				c-0.2,0.6-0.4,1.1-0.8,1.5c-0.4,0.5-0.8,0.8-1.4,1.1c-0.5,0.3-1.2,0.4-2,0.4h-5.9v5.7c0,1.8-0.5,3.1-1.5,3.9
				c-1,0.8-2.2,1.3-3.5,1.3c-1.3,0-2.5-0.4-3.5-1.3c-1-0.8-1.5-2.1-1.5-3.9v-5.7h-5.9c-0.8,0-1.5-0.1-2-0.4c-0.6-0.3-1-0.7-1.4-1.1
				c-0.3-0.5-0.6-1-0.8-1.5S249.1,28.7,249.1,28.2z"/>
		</g>
		<g style="opacity:0.1;">
			<path style="fill:#878179;" d="M375.2,82.4c0-0.5,0.1-1.1,0.2-1.6s0.4-1,0.8-1.5c0.3-0.4,0.8-0.8,1.4-1.1c0.6-0.3,1.2-0.4,2-0.4
				h5.9v-5.7c0-1.8,0.5-3.1,1.5-3.9c1-0.8,2.2-1.3,3.5-1.3c1.3,0,2.5,0.4,3.5,1.3c1,0.8,1.5,2.1,1.5,3.9v5.7h5.9
				c0.8,0,1.5,0.1,2,0.4c0.6,0.3,1,0.6,1.4,1.1c0.3,0.4,0.6,0.9,0.8,1.5c0.2,0.5,0.2,1.1,0.2,1.6c0,0.5-0.1,1.1-0.2,1.7
				c-0.2,0.6-0.4,1.1-0.8,1.5c-0.4,0.5-0.8,0.8-1.4,1.1c-0.5,0.3-1.2,0.4-2,0.4h-5.9v5.7c0,1.8-0.5,3.1-1.5,3.9
				c-1,0.8-2.2,1.3-3.5,1.3c-1.3,0-2.5-0.4-3.5-1.3c-1-0.8-1.5-2.1-1.5-3.9v-5.7h-5.9c-0.8,0-1.5-0.1-2-0.4c-0.6-0.3-1-0.7-1.4-1.1
				c-0.3-0.5-0.6-1-0.8-1.5S375.2,83,375.2,82.4z"/>
		</g>
		<g style="opacity:0.2;">
			<path style="fill:#878179;" d="M489.2,44.7c0-0.5,0.1-1.1,0.2-1.6s0.4-1,0.8-1.5c0.3-0.4,0.8-0.8,1.4-1.1c0.6-0.3,1.2-0.4,2-0.4
				h5.9v-5.7c0-1.8,0.5-3.1,1.5-3.9c1-0.8,2.2-1.3,3.5-1.3c1.3,0,2.5,0.4,3.5,1.3c1,0.8,1.5,2.1,1.5,3.9v5.7h5.9
				c0.8,0,1.5,0.1,2,0.4c0.6,0.3,1,0.6,1.4,1.1c0.3,0.4,0.6,0.9,0.8,1.5c0.2,0.5,0.2,1.1,0.2,1.6c0,0.5-0.1,1.1-0.2,1.7
				c-0.2,0.6-0.4,1.1-0.8,1.5c-0.4,0.5-0.8,0.8-1.4,1.1c-0.5,0.3-1.2,0.4-2,0.4h-5.9v5.7c0,1.8-0.5,3.1-1.5,3.9
				c-1,0.8-2.2,1.3-3.5,1.3c-1.3,0-2.5-0.4-3.5-1.3c-1-0.8-1.5-2.1-1.5-3.9v-5.7h-5.9c-0.8,0-1.5-0.1-2-0.4c-0.6-0.3-1-0.7-1.4-1.1
				c-0.3-0.5-0.6-1-0.8-1.5S489.2,45.2,489.2,44.7z"/>
		</g>
		<g style="opacity:8.000000e-02;">
			<path style="fill:#878179;" d="M748.1,30.6c0-0.5,0.1-1.1,0.2-1.6s0.4-1,0.8-1.5c0.3-0.4,0.8-0.8,1.4-1.1c0.6-0.3,1.2-0.4,2-0.4
				h5.9v-5.7c0-1.8,0.5-3.1,1.5-3.9c1-0.8,2.2-1.3,3.5-1.3c1.3,0,2.5,0.4,3.5,1.3c1,0.8,1.5,2.1,1.5,3.9v5.7h5.9
				c0.8,0,1.5,0.1,2,0.4c0.6,0.3,1,0.6,1.4,1.1c0.3,0.4,0.6,0.9,0.8,1.5c0.2,0.5,0.2,1.1,0.2,1.6c0,0.5-0.1,1.1-0.2,1.7
				c-0.2,0.6-0.4,1.1-0.8,1.5c-0.4,0.5-0.8,0.8-1.4,1.1c-0.5,0.3-1.2,0.4-2,0.4h-5.9v5.7c0,1.8-0.5,3.1-1.5,3.9
				c-1,0.8-2.2,1.3-3.5,1.3c-1.3,0-2.5-0.4-3.5-1.3c-1-0.8-1.5-2.1-1.5-3.9v-5.7h-5.9c-0.8,0-1.5-0.1-2-0.4c-0.6-0.3-1-0.7-1.4-1.1
				c-0.3-0.5-0.6-1-0.8-1.5S748.1,31.2,748.1,30.6z"/>
		</g>
		<g style="opacity:0.1;">
			<path style="fill:#878179;" d="M888.9,69c0-0.5,0.1-1.1,0.2-1.6s0.4-1,0.8-1.5c0.3-0.4,0.8-0.8,1.4-1.1c0.6-0.3,1.2-0.4,2-0.4
				h5.9v-5.7c0-1.8,0.5-3.1,1.5-3.9c1-0.8,2.2-1.3,3.5-1.3c1.3,0,2.5,0.4,3.5,1.3c1,0.8,1.5,2.1,1.5,3.9v5.7h5.9
				c0.8,0,1.5,0.1,2,0.4c0.6,0.3,1,0.6,1.4,1.1c0.3,0.4,0.6,0.9,0.8,1.5c0.2,0.5,0.2,1.1,0.2,1.6c0,0.5-0.1,1.1-0.2,1.7
				c-0.2,0.6-0.4,1.1-0.8,1.5c-0.4,0.5-0.8,0.8-1.4,1.1c-0.5,0.3-1.2,0.4-2,0.4h-5.9v5.7c0,1.8-0.5,3.1-1.5,3.9
				c-1,0.8-2.2,1.3-3.5,1.3c-1.3,0-2.5-0.4-3.5-1.3c-1-0.8-1.5-2.1-1.5-3.9v-5.7h-5.9c-0.8,0-1.5-0.1-2-0.4c-0.6-0.3-1-0.7-1.4-1.1
				c-0.3-0.5-0.6-1-0.8-1.5S888.9,69.6,888.9,69z"/>
		</g>
		<g style="opacity:0.2;">
			<path style="fill:#878179;" d="M1048.6,25.8c0-0.5,0.1-1.1,0.2-1.6s0.4-1,0.8-1.5c0.3-0.4,0.8-0.8,1.4-1.1c0.6-0.3,1.2-0.4,2-0.4
				h5.9v-5.7c0-1.8,0.5-3.1,1.5-3.9c1-0.8,2.2-1.3,3.5-1.3c1.3,0,2.5,0.4,3.5,1.3c1,0.8,1.5,2.1,1.5,3.9v5.7h5.9
				c0.8,0,1.5,0.1,2,0.4c0.6,0.3,1,0.6,1.4,1.1c0.3,0.4,0.6,0.9,0.8,1.5c0.2,0.5,0.2,1.1,0.2,1.6c0,0.5-0.1,1.1-0.2,1.7
				c-0.2,0.6-0.4,1.1-0.8,1.5c-0.4,0.5-0.8,0.8-1.4,1.1c-0.5,0.3-1.2,0.4-2,0.4h-5.9v5.7c0,1.8-0.5,3.1-1.5,3.9
				c-1,0.8-2.2,1.3-3.5,1.3c-1.3,0-2.5-0.4-3.5-1.3c-1-0.8-1.5-2.1-1.5-3.9v-5.7h-5.9c-0.8,0-1.5-0.1-2-0.4c-0.6-0.3-1-0.7-1.4-1.1
				c-0.3-0.5-0.6-1-0.8-1.5S1048.6,26.3,1048.6,25.8z"/>
		</g>
		<g style="opacity:8.000000e-02;">
			<path style="fill:#878179;" d="M1199.1,89.1c0-0.5,0.1-1.1,0.2-1.6s0.4-1,0.8-1.5c0.3-0.4,0.8-0.8,1.4-1.1c0.6-0.3,1.2-0.4,2-0.4
				h5.9v-5.7c0-1.8,0.5-3.1,1.5-3.9c1-0.8,2.2-1.3,3.5-1.3c1.3,0,2.5,0.4,3.5,1.3c1,0.8,1.5,2.1,1.5,3.9v5.7h5.9
				c0.8,0,1.5,0.1,2,0.4c0.6,0.3,1,0.6,1.4,1.1c0.3,0.4,0.6,0.9,0.8,1.5c0.2,0.5,0.2,1.1,0.2,1.6c0,0.5-0.1,1.1-0.2,1.7
				c-0.2,0.6-0.4,1.1-0.8,1.5c-0.4,0.5-0.8,0.8-1.4,1.1c-0.5,0.3-1.2,0.4-2,0.4h-5.9v5.7c0,1.8-0.5,3.1-1.5,3.9
				c-1,0.8-2.2,1.3-3.5,1.3c-1.3,0-2.5-0.4-3.5-1.3c-1-0.8-1.5-2.1-1.5-3.9v-5.7h-5.9c-0.8,0-1.5-0.1-2-0.4c-0.6-0.3-1-0.7-1.4-1.1
				c-0.3-0.5-0.6-1-0.8-1.5S1199.1,89.7,1199.1,89.1z"/>
		</g>
		<g style="opacity:0.1;">
			<path style="fill:#878179;" d="M1319.7,49.5c0-0.5,0.1-1.1,0.2-1.6s0.4-1,0.8-1.5c0.3-0.4,0.8-0.8,1.4-1.1c0.6-0.3,1.2-0.4,2-0.4
				h5.9v-5.7c0-1.8,0.5-3.1,1.5-3.9c1-0.8,2.2-1.3,3.5-1.3c1.3,0,2.5,0.4,3.5,1.3c1,0.8,1.5,2.1,1.5,3.9v5.7h5.9
				c0.8,0,1.5,0.1,2,0.4c0.6,0.3,1,0.6,1.4,1.1c0.3,0.4,0.6,0.9,0.8,1.5c0.2,0.5,0.2,1.1,0.2,1.6c0,0.5-0.1,1.1-0.2,1.7
				c-0.2,0.6-0.4,1.1-0.8,1.5c-0.4,0.5-0.8,0.8-1.4,1.1c-0.5,0.3-1.2,0.4-2,0.4h-5.9V60c0,1.8-0.5,3.1-1.5,3.9
				c-1,0.8-2.2,1.3-3.5,1.3c-1.3,0-2.5-0.4-3.5-1.3c-1-0.8-1.5-2.1-1.5-3.9v-5.7h-5.9c-0.8,0-1.5-0.1-2-0.4c-0.6-0.3-1-0.7-1.4-1.1
				c-0.3-0.5-0.6-1-0.8-1.5S1319.7,50.1,1319.7,49.5z"/>
		</g>
	</g>
</g>
<g>
</g>
<g>
</g>
<g>
</g>
<g>
</g>
<g>
</g>
<g>
</g>
<g>
</g>
<g>
</g>
<g>
</g>
<g>
</g>
<g>
</g>
<g>
</g>
<g>
</g>
<g>
</g>
<g>
</g>
</svg>
