<?xml version="1.0" encoding="utf-8"?>
<!-- Generator: Adobe Illustrator 25.2.0, SVG Export Plug-In . SVG Version: 6.00 Build 0)  -->
<svg version="1.1" id="레이어_1" xmlns="http://www.w3.org/2000/svg" xmlns:xlink="http://www.w3.org/1999/xlink" x="0px"
	 y="0px" viewBox="0 0 1357.7 217" style="enable-background:new 0 0 1357.7 217;" xml:space="preserve">
<g>
	<g>
		<path style="fill:#FA7D92;" d="M1272.9,157.2H100.4c-41.9,0-75.9-34-75.9-75.9l0,0c0-40.9,33.2-74.1,74.1-74.1h1174.2
			c40.9,0,74.1,33.2,74.1,74.1V83C1347,124.1,1313.8,157.2,1272.9,157.2z"/>
		<path style="fill:#FFFFFF;stroke:#FA7D92;stroke-width:3;stroke-miterlimit:10;" d="M1282.1,151.5H109.6
			c-41.9,0-75.9-34-75.9-75.9l0,0c0-40.9,33.2-74.1,74.1-74.1H1282c40.9,0,74.1,33.2,74.1,74.1v1.7
			C1356.2,118.3,1323,151.5,1282.1,151.5z"/>
	</g>
	<g>
		<g>
			<circle style="fill:#FA7D92;" cx="108.1" cy="108.9" r="108.1"/>
			<circle style="fill:#FFFFFF;" cx="108.1" cy="108.9" r="90.3"/>
		</g>
		<g>
			<g>
				<defs>
					<circle id="SVGID_1_" cx="107.4" cy="122.5" r="78.9"/>
				</defs>
				<clipPath id="SVGID_2_">
					<use xlink:href="#SVGID_1_"  style="overflow:visible;"/>
				</clipPath>
				<g style="clip-path:url(#SVGID_2_);">
					<path style="fill:#83E8D3;" d="M123.5,165.7c1.1,1.9,3.5,4.9,4.4,6.7c0.7,1.4,1.4,2.8,2,4.2c1.1,1.2,2.2,2.3,3.5,3.2
						c1.4,1,2.9,1.9,4.6,2.5c5.7,2,12.5,1.8,16.9-2.8c5-5.2,6.9-13.1,6.9-20.2c0-5.4-1-16.4-8.2-17.1c-1.7-0.2-1.2,2.5-2.6,3.5
						c-4,3-5.5,8.2-6.4,12.9c-0.6,2.8-1.6,4.3-1.7,7.2c-2.1-1-5.6-2.6-7.7-3.5c-0.5-0.2-1-0.5-1.6-0.4c-0.5,0-1,0.3-1.4,0.6
						c-1.9,1.1-4.3,1.4-6.2,2.5C125.5,165.3,124.1,165.4,123.5,165.7z"/>
					<g>
						<path style="fill:#47D7AC;" d="M144.3,167.6c0.3,0,0.6-0.2,0.8-0.5c0.2-0.5,0-1-0.4-1.2l-9-4.4c-0.5-0.2-1,0-1.2,0.4
							c-0.2,0.5,0,1,0.4,1.2l9,4.4C144,167.6,144.2,167.6,144.3,167.6z"/>
					</g>
					<g>
						<path style="fill:#83E8D3;" d="M109.7,204l0.5,24.4c1.4,0.7,2.2,1.8,2.5,3.3c0.3,2.2-1.4,3.5-5.1,3.8
							c-3.6,0.4-6.9,0.5-9.9,0.4c-3.3-0.1-4.7-2.3-4.2-6.7l-2.5-24L109.7,204L109.7,204z"/>
						<path style="fill:#47D7AC;" d="M89.8,205.3l0.3,3l0.3,3.3l0,0l0.4,3.9l0.1,1.1l0,0l1.2,12.7c-0.3,2.8,0.1,4.8,1.3,6.2
							c0.9,1.1,2.3,1.7,4.1,1.7c1.9,0.1,4,0,6.3-0.1c1.2-0.1,2.5-0.2,3.7-0.3c2.7-0.3,4.5-1,5.5-2.2c0.3-0.4,0.5-0.8,0.7-1.3
							c0.1-0.5,0.2-1.1,0.1-1.7c-0.1-0.8-0.4-1.6-0.9-2.2c-0.4-0.6-0.9-1.1-1.6-1.6l-0.2-8.9v-2.8v-0.7v-0.2v-0.9v-0.6l-0.1-7.4l0,0
							v-2.2c0-0.2,0-0.3-0.1-0.5l0,0c-0.2-0.4-0.6-0.7-1.1-0.7c-0.7,0-1.2,0.6-1.2,1.2l0,0l0.2,10.3v0.5v0.1l0,0l0,0v0.2v0.3
							l0.1,3.4l0.2,9.5c0,0.4,0.3,0.8,0.6,1c1.1,0.6,1.7,1.3,1.8,2.4c0.1,0.6-0.1,0.9-0.3,1.1c-0.4,0.5-1.3,1.1-3.8,1.3
							c-3.6,0.4-6.8,0.5-9.7,0.4c-1.1,0-1.9-0.3-2.3-0.9c-0.7-0.8-1-2.3-0.7-4.4c0-0.1,0-0.2,0-0.3l-1.2-11.9l-0.1-0.8l-0.1-1.1
							l-0.3-3l-0.2-1.6l0,0l-0.6-5.6l0,0c-0.1-0.7-0.6-1.1-1.3-1.1C90.3,204,89.8,204.6,89.8,205.3z"/>
						<path style="fill:#83E8D3;" d="M130.6,202.8l0.5,24.4c1.4,0.7,2.2,1.8,2.5,3.3c0.3,2.2-1.4,3.5-5.1,3.8
							c-3.6,0.4-6.9,0.5-9.9,0.4c-3.3-0.1-4.7-2.3-4.2-6.7l-2.3-24.1L130.6,202.8L130.6,202.8z"/>
						<path style="fill:#47D7AC;" d="M110.7,204l0.2,2.2l0,0l0.7,7.3l0.1,0.7l0.1,0.9v0.2l0.1,0.6l0.3,2.8l0.9,9.2
							c-0.1,0.5-0.1,0.9-0.1,1.3c0,1.6,0.2,2.9,0.8,3.9c0.2,0.4,0.4,0.7,0.7,1c0.9,1.1,2.3,1.7,4.1,1.7c1.9,0.1,4,0,6.3-0.1
							c1.2-0.1,2.5-0.2,3.7-0.3c2.7-0.3,4.5-1,5.5-2.2c0.7-0.8,0.9-1.8,0.7-3c-0.2-1.6-1.1-2.9-2.5-3.8l-0.2-12.4v-1.1v-1.3
							l-0.1-3.7l0,0l-0.1-3.6v-1.5c0-0.7-0.6-1.2-1.2-1.2c-0.7,0-1.2,0.6-1.2,1.2l0,0l0.1,4.1l0.1,2.8v0.3l0.1,3.1v0.2v0.8l0.3,13
							c0,0.4,0.3,0.8,0.6,1c1.1,0.6,1.7,1.3,1.8,2.4c0.1,0.6-0.1,0.9-0.3,1.1c-0.4,0.5-1.3,1.1-3.8,1.3c-3.6,0.3-6.8,0.5-9.7,0.4
							c-1.1,0-1.8-0.3-2.3-0.9c-0.7-0.8-1-2.3-0.7-4.5v-0.2l-0.9-9.4l-0.3-2.8l-0.1-0.6v-0.2l-0.1-0.9l-0.1-0.7l-0.9-9.5l0,0
							c-0.1-0.7-0.6-1.1-1.3-1.1c-0.5,0.1-0.9,0.4-1,0.8l0,0C110.7,203.7,110.7,203.9,110.7,204z"/>
						<path style="fill:#83E8D3;" d="M106.8,161.5l-0.4-7.4l11.3-0.7c4.8,7,8.7,13.5,11.8,19.5c2.2,4.3,4.9,9.2,6,12.9
							c3.3,11.3,0.2,18.6-7.3,23.8l-7.9-3.3l-3.6,8c-2,0.2-3.7,0.3-5,0.5c-0.5,0-1,0.1-1.5,0.1H110c-1.3,0-2.5,0-3.7,0l-4.6-7.7
							l-8.5,4.6c-0.5-0.3-1-0.6-1.5-0.9c-7-4.4-9.5-12.1-7.8-22.9c0.6-3.8,1.8-7.9,3.5-12.5l12.9-13.6L106.8,161.5"/>
						<path style="fill:#47D7AC;" d="M90.5,211.5L90.5,211.5l0.4,4l0.1,1.1l0,0l1.2,12.7v0.1c0.1,0.6,0.5,1,1.1,1.1
							c0.1,0,0.1,0,0.2,0l0,0c0.6-0.1,1-0.5,1.1-1c0-0.1,0-0.2,0-0.3l-1.2-11.9l-0.1-0.8l-0.1-1.1l-0.3-3l-0.2-1.6l0,0l0,0
							c0-0.2-0.1-0.3-0.2-0.5c-0.1-0.1-0.2-0.3-0.3-0.4l0,0c-0.3-0.2-0.5-0.3-0.8-0.5c-0.5-0.3-0.9-0.7-1.3-1
							c-5-4.3-6.6-10.9-5.1-20.1c0.6-3.7,1.7-7.8,3.4-12.3c0.2-0.6-0.1-1.3-0.7-1.5s-1.3,0.1-1.5,0.7c-1.7,4.6-2.9,8.9-3.5,12.7
							C80.8,198.8,83.5,206.8,90.5,211.5z"/>
						<path style="fill:#83E8D3;" d="M66.2,195.2c1.9-3.4,4-6.7,6.3-10c5.4-7.9,11.8-15.6,19.1-23l7.8,3.5c-3.2,7-6.1,13.2-8.7,18.4
							c-4.2,8.6-7.4,14.9-9.6,18.7c-1.3,2.2-2.7,4-4.3,5.5c-1.7,1.5-3.4,2.4-5,2.6c-1.5,0.2-2.9,0-4.4-0.8
							C62.5,207.1,62.1,202.2,66.2,195.2"/>
						<path style="fill:#47D7AC;" d="M71.1,212.2c0.2,0,0.5,0,0.7-0.1c1.9-0.3,3.8-1.3,5.7-2.9c1.7-1.6,3.2-3.5,4.5-5.8
							c2.2-3.8,5.5-10.1,9.7-18.7c0.3-0.6,0-1.3-0.6-1.6s-1.3,0-1.6,0.6c-4.1,8.6-7.4,14.8-9.6,18.6c-1.2,2.1-2.6,3.9-4.1,5.3
							c-1.5,1.3-3,2.1-4.4,2.3c-1.2,0.2-2.4,0-3.6-0.7c-1.6-1-6.1-3.9-0.7-13.3c1.9-3.4,4-6.7,6.2-10c5.3-7.8,11.7-15.5,18.9-22.8
							c0.5-0.5,0.5-1.2,0-1.7s-1.2-0.5-1.7,0c-7.3,7.4-13.8,15.2-19.2,23.2c-2.3,3.3-4.4,6.7-6.3,10.1c-5.5,9.4-2.2,14.2,1.6,16.5
							h0.1C68.1,211.9,69.6,212.3,71.1,212.2"/>
						<path style="fill:#3FD8B1;" d="M108.7,214.8c0-0.2,0-0.3,0.1-0.5c0.2-0.4,0.5-0.7,1-0.7l1.7-0.1c0.1,0,0.1,0,0.2,0
							c0.4,0,0.8-0.1,1.2-0.1c0.4,0,0.8-0.1,1.2-0.1c0.7-0.1,1.5-0.1,2.4-0.2c0.5-0.1,1,0.3,1.2,0.8c0.1,0.1,0.1,0.2,0.1,0.3
							s0,0.2,0,0.2c0,0.2-0.1,0.4-0.2,0.5c-0.2,0.3-0.5,0.5-0.9,0.5c-0.9,0.1-1.7,0.2-2.4,0.2c-0.4,0-0.8,0.1-1.2,0.1
							c-0.4,0-0.8,0.1-1.2,0.1c-0.1,0-0.1,0-0.2,0l-1.7,0.1c-0.4,0-0.9-0.2-1.1-0.6c-0.1-0.1-0.1-0.2-0.1-0.3
							S108.8,214.9,108.7,214.8L108.7,214.8L108.7,214.8C108.7,214.9,108.7,214.9,108.7,214.8z"/>
						<path style="fill:#1CB594;" d="M105.6,189.8c-0.1-1.4,0.1-2.7,0.6-4c0.4-1.3,1.1-2.4,2-3.4c1.9-2.1,4.2-3.3,7-3.4
							c2.8-0.2,5.2,0.7,7.3,2.6c1,0.9,1.8,1.9,2.3,3.1c0.6,1.2,0.9,2.5,1,3.9v0.6l-5.5,0.3v-0.6c-0.1-1.3-0.6-2.4-1.5-3.2
							c-1-0.9-2.1-1.2-3.3-1.2c-1.3,0.1-2.3,0.6-3.2,1.5c-0.9,0.9-1.3,2.1-1.2,3.4v0.5l-5.5,0.3L105.6,189.8"/>
					</g>
					<g>
						<path style="fill:#FFFFFF;" d="M111.1,71.4c0.7-3.8,2.2-7,4.5-9.6c3-3.1,6-3.4,8.8-0.9c0.5,0.4,1,0.9,1.4,1.5
							c3.1,4.2,5,9.4,5.9,15.7c0,0.3,0.1,0.6,0.1,0.9v0.2c0,0.3,0,0.5,0.1,0.8c0,0.3,0.1,0.6,0.1,0.9c0.1,0.7,0.1,1.3,0.2,2
							c-0.7,0.2-1.4,0.4-2,0.6c-0.5,0.1-1,0.2-1.5,0.4c-0.2,0-0.4,0.1-0.6,0.1h-0.2c-4,0.8-8.1,0.8-12.3,0.2h-0.1h-0.3
							c-1.3-0.2-2.6-0.5-4-0.9c-0.2-1-0.3-2-0.4-3c0-0.1,0-0.2,0-0.3c0-0.1,0-0.2,0-0.3C110.5,76.9,110.6,74.1,111.1,71.4"/>
						<path style="fill:#47D7AC;" d="M132,81.2c-0.6,0-1.2-0.4-1.3-1.1l-0.1-0.8l-0.1-1c-0.9-6.1-2.8-11.2-5.7-15.2
							c-0.4-0.5-0.8-1-1.3-1.3c-1.6-1.4-3.8-2.5-7.1,0.8c-2.2,2.4-3.6,5.5-4.2,9c-0.5,2.6-0.6,5.3-0.4,8v0.2c0,0.2,0.1,0.4,0,0.7
							c-0.1,0.7-0.7,1.1-1.3,1c-0.6-0.1-1.1-0.6-1-1.2v-0.2v-0.3c-0.3-3-0.1-5.9,0.4-8.7c0.7-4,2.3-7.4,4.8-10.2
							c4.4-4.4,8.1-3,10.4-1c0.6,0.4,1.1,1,1.6,1.7c3.2,4.3,5.2,9.8,6.1,16.2l0.1,0.9v0.1l0.1,0.9C133.2,80.5,132.7,81.1,132,81.2
							L132,81.2"/>
						<path style="fill:#FFFFFF;" d="M53.4,93.4c0.3-0.5,0.6-0.9,1-1.4c7-9.6,16.2-16.1,27.4-19.5c3.5-1,7.4-1.8,11.6-2.5
							c0.9-0.1,1.8-0.3,2.7-0.3c2-0.2,4.1-0.3,6.1-0.3c0.1,0,0.2,0,0.3,0c0.1,0,0.3,0,0.4,0s0.2,0,0.3,0c8,0.2,16,1.8,24,5.1
							c11,4.7,18.6,12.3,22.7,22.9c0.1,0.2,0.1,0.3,0.2,0.5c0.4,1,0.7,2,1,3c0.1,0.2,0.1,0.4,0.1,0.5v0.1c1.2,4.2,1.9,8.7,2.2,13.6
							c0.1,3.4,0.6,6.5,1.4,9.2c1.5,4.3,2.2,8.2,2.2,11.8c0,0.9,0,1.8-0.1,2.6c0,0.1,0,0.3,0,0.4c0,0.7-0.1,1.3-0.3,1.9
							c-0.3,1.6-0.8,3.1-1.5,4.6c-0.3,0.5-0.6,1.1-0.9,1.6c0,0.1-0.1,0.2-0.2,0.3c-1.5,2.6-3.6,4.9-6.4,7c-0.9,0.7-1.9,1.4-3,2.1
							c-0.9,0.6-1.9,1.2-2.9,1.7c-7.5,4.1-15.8,6.7-24.8,7.8c-0.6,0.1-1.2,0.2-1.8,0.2c-3.7,0.5-7.4,0.8-11.2,0.8
							c-0.3,0-0.7,0-1.1,0c-1.6,0-3.3-0.1-5-0.1c-2.4-0.2-4.6-0.4-6.8-0.6c-0.3-0.1-0.6-0.1-0.9-0.1c-4.7-0.7-9.1-1.7-13.2-3.1
							l-0.2-0.1c-3.5-1.3-6.7-2.8-9.7-4.6c-0.5-0.3-1-0.6-1.5-1c-4.4-2.9-8.1-6.5-11.3-10.7c-2.5-3.3-4.5-7-6.2-11.1
							c-1.8-4.7-2.8-9.4-3.1-14s0.2-9.1,1.4-13.6c0.8-2.9,1.9-5.8,3.2-8.6c0.3-0.7,0.7-1.3,1-1.9c0.3-0.5,0.5-1,0.8-1.6
							c0.2-0.4,0.5-0.7,0.7-1.1c0.2-0.3,0.4-0.6,0.6-0.9C53.1,94,53.3,93.7,53.4,93.4"/>
						<path style="fill:#47D7AC;" d="M43.9,122c0.3,4.7,1.4,9.6,3.2,14.4c1.7,4.2,3.8,8,6.3,11.4c3.2,4.3,7.1,8,11.6,10.9
							c0.5,0.3,1,0.7,1.5,1c3.1,1.8,6.4,3.4,9.9,4.7l0.2,0.1c4.1,1.4,8.6,2.5,13.4,3.2c0.3,0,0.6,0.1,0.8,0.1h0.1
							c2.2,0.3,4.5,0.5,6.9,0.6c1.7,0.1,3.4,0.1,5,0.1c0.3,0,0.7,0,1,0h0.1c1.5,0,3-0.1,4.5-0.2c2.3-0.1,4.5-0.4,6.8-0.7
							c0.6-0.1,1.2-0.2,1.8-0.2c3.4-0.4,6.6-1,9.8-1.8c3.6-0.9,7.1-2.2,10.5-3.6c1.7-0.7,3.3-1.5,4.9-2.4c1-0.6,2-1.2,3-1.7
							c1.1-0.7,2.1-1.4,3.1-2.1c2.9-2.1,5.1-4.6,6.6-7.3c0.1-0.2,0.2-0.3,0.3-0.5c0.3-0.5,0.6-1,0.8-1.6c0.7-1.6,1.2-3.2,1.6-4.9
							c0.2-0.7,0.3-1.4,0.3-2.1c0-0.2,0.1-0.4,0-0.6c0.1-0.9,0.1-1.8,0.1-2.7c0-3.7-0.8-7.8-2.3-12.1c-0.8-2.6-1.3-5.5-1.4-8.8
							c-0.3-5-1-9.6-2.2-13.9l-0.1-0.2c0-0.2-0.1-0.4-0.1-0.5c-0.3-1.1-0.7-2.1-1-3.1c-0.1-0.2-0.1-0.4-0.2-0.6
							c-4.2-10.8-12-18.7-23.3-23.5c-8.1-3.3-16.3-5-24.4-5.2h-0.2c-0.2,0-0.3,0-0.5,0s-0.3,0-0.5,0c-2,0-4.1,0.1-6.1,0.3
							c-0.9,0.1-1.8,0.2-2.8,0.3c-4.2,0.6-8.2,1.5-11.8,2.5c-11.1,3.5-20.5,10.2-27.7,20c-0.3,0.5-0.7,0.9-1,1.4l-0.1,0.1
							c-0.1,0.2-0.3,0.5-0.4,0.7c-0.2,0.3-0.5,0.7-0.6,1l-0.7,1v0.1c-0.3,0.5-0.6,1-0.9,1.6c-0.4,0.7-0.7,1.3-1,2
							c-1.4,2.9-2.5,5.9-3.3,8.8C44.2,112.6,43.7,117.3,43.9,122z M46.3,121.9c-0.2-4.4,0.2-8.8,1.4-13.2c0.8-2.8,1.8-5.7,3.2-8.4
							c0.3-0.6,0.7-1.3,1-1.9c0.3-0.5,0.5-1,0.8-1.5l0.7-1l0.1-0.1c0.1-0.3,0.3-0.5,0.5-0.7c0.2-0.3,0.4-0.6,0.6-1
							c0.3-0.4,0.6-0.9,0.9-1.3c6.8-9.4,15.9-15.8,26.8-19c3.5-1,7.3-1.8,11.5-2.4c0.9-0.1,1.8-0.3,2.6-0.3c2-0.2,4-0.3,6-0.3
							c0.1,0,0.3,0.1,0.4,0c0.1,0,0.1,0,0.2,0s0.3,0,0.5,0c7.8,0.2,15.7,1.8,23.5,5c10.7,4.6,18.1,12,22,22.2l0.1,0.1
							c0.1,0.1,0.1,0.2,0.1,0.3v0.1c0.4,0.9,0.7,1.9,1,2.9c0,0.2,0.1,0.3,0.1,0.4l0.1,0.2l0,0c1.2,4,1.9,8.5,2.2,13.4
							c0.1,3.5,0.6,6.7,1.5,9.4l0,0c1.4,4.1,2.1,7.9,2.2,11.4c0,0.9,0,1.7-0.1,2.5v0.2v0.1v0.2c0,0.6-0.1,1.1-0.3,1.7v0.1
							c-0.3,1.5-0.8,3-1.4,4.3c-0.2,0.5-0.5,1-0.8,1.5l-0.1,0.2l-0.1,0.2c-1.4,2.4-3.4,4.7-6.1,6.6c-0.9,0.7-1.9,1.4-2.9,2
							c-0.9,0.6-1.9,1.1-2.9,1.7c-7.3,4-15.5,6.5-24.4,7.6c-0.6,0.1-1.2,0.2-1.9,0.3c-3.6,0.5-7.3,0.8-11,0.8c-0.3,0-0.7,0-1.1,0
							c-1.6,0-3.3-0.1-4.9-0.2c-2.3-0.2-4.6-0.4-6.7-0.6c-0.3,0-0.6-0.1-0.9-0.1c-4.6-0.7-9-1.7-12.9-3l-0.2-0.1
							c-3.4-1.2-6.6-2.7-9.5-4.4c-0.5-0.3-1-0.6-1.4-0.9c-4.2-2.8-8-6.3-11-10.4c-2.4-3.2-4.4-6.9-6-10.8
							C47.6,130.9,46.6,126.4,46.3,121.9z"/>
						<path style="fill:#FFFFFF;" d="M60.1,78c-1-3.7-1-7.2,0-10.6c1.4-4.1,4-5.6,7.5-4.6c0.6,0.1,1.2,0.4,1.9,0.7
							C74,66,78,69.9,81.6,75.2c0.2,0.3,0.3,0.5,0.5,0.8l0.1,0.1c0.1,0.2,0.3,0.4,0.4,0.7c0.2,0.3,0.3,0.5,0.5,0.8
							c0.3,0.6,0.7,1.2,1,1.8c-0.5,0.5-1,1-1.6,1.4c-0.4,0.3-0.8,0.6-1.2,1c-0.2,0.1-0.3,0.3-0.5,0.4l-0.1,0.1
							c-3.3,2.4-7,4.2-11,5.4h-0.1l-0.3,0.1c-1.3,0.4-2.6,0.6-4,0.9c-0.6-0.8-1.1-1.7-1.6-2.5l-0.3-0.5C61.9,83.2,60.8,80.6,60.1,78
							"/>
						<path style="fill:#47D7AC;" d="M63.7,87.5c0.2,0,0.4-0.1,0.5-0.2c0.6-0.3,0.8-1.1,0.4-1.6l-0.3-0.5c-1.4-2.4-2.4-4.9-3.1-7.4
							c-0.9-3.5-0.9-6.8,0-9.9c1.6-4.4,4.1-4.3,6.1-3.8c0.6,0.1,1.1,0.4,1.7,0.7c4.3,2.3,8.2,6.1,11.6,11.3c0.2,0.2,0.3,0.5,0.5,0.7
							l0.1,0.1c0.1,0.2,0.3,0.4,0.4,0.6c0.3,0.6,1.1,0.8,1.6,0.4c0.6-0.3,0.8-1.1,0.4-1.6c-0.1-0.2-0.3-0.5-0.4-0.7v-0.1v-0.1
							c-0.2-0.3-0.3-0.5-0.5-0.8c-3.6-5.5-7.8-9.5-12.5-12.1c-0.8-0.4-1.5-0.7-2.2-0.9c-2.9-0.8-6.8-0.6-8.9,5.3
							c-1.1,3.6-1.1,7.4,0,11.3c0.7,2.7,1.8,5.4,3.3,8l0.3,0.5C62.9,87.3,63.3,87.5,63.7,87.5"/>
						<path style="fill:#83E8D3;" d="M46.2,109.9c0.1-0.5,0.2-1,0.4-1.6c0.3-1,0.6-2,1-3c-0.4-0.1-0.7-0.6-0.6-1
							c0.1-0.5,0.6-0.7,1.1-0.6c8.4,2.4,15.8,6.5,22,12.2c3.1,2.9,5,5.5,5.6,7.8s0.7,5,0.1,8.1c-0.2,0.8-0.4,1.7-0.6,2.5
							c-1.7,6.1-4.4,12.2-8.2,18c-0.6,0.9-1.6,2.3-3,4.2c-0.2,0.2-0.4,0.3-0.6,0.3c-0.2,0-0.4,0-0.6-0.2c-0.4-0.3-0.4-0.8-0.1-1.2
							l0,0c-3.1-2.4-5.8-5.2-8.2-8.4c-2.5-3.3-4.5-7-6.2-11.1c-1.8-4.7-2.8-9.4-3.1-14C44.9,117.9,45.2,113.9,46.2,109.9z"/>
						<path style="fill:#47D7AC;" d="M63.4,157.2c0.3,0,0.7-0.2,0.9-0.5c0.4-0.5,0.3-1.3-0.2-1.7c-3.2-2.5-6.1-5.4-8.6-8.7
							c-2.4-3.2-4.4-6.9-6-10.8c-1.7-4.5-2.8-9.1-3.1-13.6c-0.2-3.9,0.1-7.8,1-11.7c0.1-0.5,0.3-1,0.4-1.5c0.3-1.2,0.7-2.5,1.2-3.7
							l0,0l0,0c0.1-0.2,0.1-0.4,0.2-0.5c0.2-0.6-0.1-1.3-0.7-1.5c-0.6-0.2-1.3,0.1-1.5,0.7c-0.1,0.2-0.1,0.4-0.2,0.6
							c-0.5,1.3-0.9,2.6-1.2,3.9c-0.1,0.5-0.3,1.1-0.4,1.6c-0.9,4.1-1.3,8.2-1.1,12.4c0.3,4.7,1.4,9.6,3.2,14.3
							c1.7,4.2,3.8,8,6.3,11.4c2.6,3.5,5.7,6.5,9.1,9.2C62.8,157.1,63.1,157.2,63.4,157.2"/>
						<path style="fill:#333333;" d="M129.8,125.2c-0.9-1.5-1.5-3.4-1.6-5.6s0.2-4.2,0.9-5.8c0.7-1.6,1.7-2.5,2.9-2.5
							c1.2-0.1,2.3,0.7,3.2,2.2c1,1.5,1.5,3.4,1.6,5.7c0.1,2.2-0.2,4.2-1,5.8c-0.7,1.7-1.7,2.5-2.9,2.6
							C131.8,127.5,130.7,126.7,129.8,125.2"/>
						<path style="fill:#83E8D3;" d="M129.6,103.9L129.6,103.9c-0.7,0.3-1.3,0.2-1.9-0.1c-0.6-0.2-1-0.7-1.2-1.4
							c-0.2-0.6-0.2-1.2,0.1-1.9c0.3-0.6,0.7-1,1.3-1.2l8.8-3.1c0.6-0.2,1.2-0.2,1.8,0.1c0.6,0.3,1,0.8,1.2,1.4s0.2,1.2-0.1,1.8
							c-0.3,0.6-0.6,0.9-1.1,1.2l-0.2,0.1L129.6,103.9"/>
						<path style="fill:#47D7AC;" d="M129,105c-0.6,0-1.1-0.1-1.7-0.4c-0.8-0.3-1.4-1-1.7-1.8c-0.3-0.8-0.2-1.7,0.1-2.5
							c0.3-0.8,0.9-1.3,1.8-1.7l8.8-3.1c0.8-0.3,1.6-0.2,2.4,0.2c0.8,0.4,1.4,1.1,1.7,1.9c0.3,0.9,0.3,1.7-0.1,2.5
							c-0.3,0.7-0.8,1.2-1.5,1.6c-0.1,0.1-0.2,0.1-0.4,0.1l-8.5,3l-0.2,0.1C129.5,104.9,129.2,105,129,105 M129.7,104.8L129.7,104.8
							L129.7,104.8z M130.2,104.5L130.2,104.5L130.2,104.5z M129.3,103.2l8.6-3.1h0.1l0,0c0.3-0.2,0.6-0.4,0.7-0.8
							c0.2-0.4,0.2-0.7,0-1.2c-0.1-0.4-0.4-0.7-0.8-0.9c-0.4-0.2-0.8-0.2-1.1-0.1l-8.7,3.1c-0.4,0.2-0.6,0.4-0.8,0.8
							c-0.2,0.5-0.2,0.9-0.1,1.3s0.4,0.7,0.7,0.8h0.1c0.4,0.2,0.7,0.2,1,0.2L129.3,103.2z M137.9,100.2L137.9,100.2L137.9,100.2z"/>
						<path style="fill:#333333;" d="M104,121c0.1,2.2-0.2,4.2-1,5.8c-0.7,1.7-1.7,2.5-2.9,2.6c-1.2,0.1-2.3-0.7-3.2-2.2
							c-1-1.5-1.5-3.4-1.6-5.6s0.2-4.2,0.9-5.8c0.7-1.6,1.7-2.5,2.9-2.5c1.2-0.1,2.3,0.7,3.2,2.2C103.3,116.9,103.9,118.8,104,121"
							/>
						<path style="fill:#83E8D3;" d="M90.7,100.3c0.5-0.4,1.1-0.6,1.7-0.5l9.2,1.1c0.6,0.1,1.1,0.4,1.5,0.9c0.4,0.6,0.6,1.2,0.5,1.8
							c-0.1,0.7-0.4,1.2-0.9,1.6c-0.5,0.5-1.1,0.7-1.7,0.6h-0.1l-9.1-1.1h-0.2c-0.5-0.1-1-0.4-1.4-0.9s-0.6-1.1-0.5-1.8
							C89.9,101.3,90.2,100.8,90.7,100.3"/>
						<path style="fill:#47D7AC;" d="M101.5,106.6c-0.2,0-0.4,0-0.5,0h-0.2l-9-1c-0.1,0-0.3,0-0.4-0.1c-0.7-0.2-1.3-0.6-1.8-1.2
							c-0.5-0.7-0.8-1.5-0.7-2.4c0.1-0.9,0.5-1.6,1.2-2.2c0.7-0.5,1.5-0.8,2.3-0.7l9.3,1.1c0.8,0.1,1.5,0.6,2,1.2
							c0.6,0.7,0.8,1.6,0.7,2.4c-0.1,0.9-0.5,1.7-1.2,2.2C102.8,106.3,102.1,106.6,101.5,106.6 M101,106.6L101,106.6L101,106.6z
							 M101,106.6L101,106.6L101,106.6z M100.5,106.4L100.5,106.4L100.5,106.4z M91.2,101c-0.4,0.3-0.5,0.7-0.6,1.1
							c0,0.4,0,0.8,0.3,1.1c0.3,0.3,0.5,0.5,0.9,0.6l0,0h0.1l9.1,1.1h0.2c0.3,0,0.7-0.1,1-0.4l0.1-0.1c0.3-0.2,0.5-0.5,0.5-1
							c0-0.4-0.1-0.8-0.4-1.2c-0.2-0.3-0.5-0.5-0.9-0.6l-9.2-1H92C91.8,100.7,91.5,100.8,91.2,101z M92,103.9L92,103.9L92,103.9z"/>
						<path style="fill:#83E8D3;" d="M148.5,115.4c0.5-1.9,1.6-4.7,3.4-8.5c0.2-0.4,0.7-0.6,1.1-0.4c0.4,0.2,0.6,0.7,0.4,1.1
							c-0.2,0.4-0.4,0.8-0.5,1.2c0.3,2.1,0.5,4.3,0.7,6.5c0.1,3.4,0.6,6.5,1.4,9.2c0.3,1,0.6,1.9,0.9,2.9c0.4,0.4,0.7,0.8,1.1,1.3
							c0.3,0.4,0.3,0.9-0.1,1.2c-0.1,0.1-0.3,0.2-0.5,0.2c-0.3,0-0.5-0.1-0.7-0.3c-2.3-2.6-4.2-4.8-5.6-6.6
							C148.3,120.9,147.7,118.3,148.5,115.4z"/>
						<path style="fill:#47D7AC;" d="M156.4,130.3h0.2c0.6-0.1,1-0.8,0.9-1.4c-0.4-1.5-0.8-3.2-1.4-4.8c-0.8-2.5-1.3-5.5-1.4-8.8
							c-0.1-2.9-0.5-5.6-0.9-8.2c-0.1-0.7-0.7-1.1-1.4-1s-1.1,0.7-1,1.4c0.4,2.5,0.7,5.2,0.9,7.9c0.1,3.5,0.6,6.7,1.5,9.5
							c0.5,1.6,1,3.1,1.3,4.6C155.3,129.9,155.8,130.3,156.4,130.3"/>
						
							<path style="fill:none;stroke:#333333;stroke-width:1.1267;stroke-linecap:round;stroke-linejoin:round;stroke-miterlimit:10;" d="
							M125.4,138.3c0,0-2.9,5.9-8.8,0.5"/>
					</g>
					<path style="fill:#83E8D3;" d="M149.1,183.2c2.4-0.5,4.6-1.7,6.4-3.6c5-5.2,6.9-13.1,6.9-20.2c0-5.4-1-16.4-8.2-17.1
						c-1.7-0.2-3.4,0.5-4.7,1.5c-4,3-5.5,8.2-6.4,12.9c-0.5,2.6-0.7,5.1-0.8,7.8c0,0.3,0,0.5,0,0.8c-0.2-0.1-0.4-0.2-0.6-0.3
						C141.3,167.6,140,179.6,149.1,183.2z"/>
					<g>
						<path style="fill:#47D7AC;" d="M146,185.3c6.6-0.4,9.2-3.1,9.6-3.6c7.1-6.5,8.1-16.7,8.1-22.2c0-6.7-1.3-18.1-9.6-19
							c-2.1-0.2-3.8,0.8-5.3,1.9c-4.6,3.3-6.3,9-7.3,14c-0.6,3.1-1,10.6-1.1,13.7c0,0.5,0.4,0.9,0.9,0.9s0.9-0.4,0.9-0.9
							c0.1-3.3,0.5-10.6,1.1-13.4c1-4.7,2.5-9.9,6.6-12.9c1.4-1,2.6-1.7,4.1-1.5c7.1,0.7,7.9,12.2,7.9,17.2c0,8.9-2.7,16.5-7.6,20.9
							l-0.1,0.1c0,0-2.3,2.7-8.9,3c-4.6,0.2-7.8-1-11.4-4.4c-0.4-0.3-1-0.3-1.3,0.1c-0.3,0.4-0.3,0.9,0.1,1.3c4,3.6,7.6,5,12.7,4.8
							C145.7,185.3,145.9,185.3,146,185.3z"/>
					</g>
					<g>
						<path style="fill:#1CB594;" d="M117,125.9c0.1,0,0.3,0,0.4-0.1c2.1-0.6,3.8-0.7,5.1-0.3c0.7,0.2,1.4-0.2,1.6-0.9
							c0.2-0.7-0.2-1.4-0.9-1.6c-1.8-0.6-4.1-0.5-6.6,0.3c-0.7,0.2-1.1,0.9-0.9,1.6C116,125.6,116.5,125.9,117,125.9"/>
						<path style="fill:#1CB594;" d="M141.6,143.3c-4.7-0.1-8.9-1.8-12.5-5c-4.4-3.8-6.8-8.6-7.1-14.4c-0.3-5.8,1.5-11,5.4-15.4
							c3.9-4.4,8.8-7,14.5-7.5c5.8-0.5,11,1.1,15.4,4.9c4.3,3.8,6.7,8.6,7,14.4s-1.5,11-5.4,15.4s-8.8,6.9-14.6,7.5
							C143.4,143.3,142.5,143.3,141.6,143.3 M142.1,103.7c-5.1,0.5-9.3,2.6-12.8,6.6s-5,8.4-4.7,13.6l0,0c0.3,5.1,2.3,9.2,6.2,12.5
							c3.8,3.3,8.2,4.7,13.3,4.3c5.2-0.5,9.4-2.6,12.9-6.6c3.4-4,5-8.4,4.7-13.6c-0.3-5.1-2.3-9.2-6.1-12.6
							c-3.2-2.8-6.8-4.2-10.9-4.3C143.8,103.6,143,103.6,142.1,103.7z"/>
						<path style="fill:#FFFFFF;" d="M141.8,140.9c-4.2-0.1-7.9-1.6-11.2-4.4c-3.9-3.3-6-7.6-6.3-12.8c-0.3-5.1,1.3-9.7,4.8-13.7
							c3.4-3.9,7.8-6.2,12.9-6.6c5.2-0.5,9.8,1,13.7,4.3c3.8,3.3,5.9,7.6,6.2,12.8c0.3,5.1-1.3,9.7-4.8,13.7
							c-3.4,3.9-7.8,6.2-13,6.6C143.4,140.9,142.6,140.9,141.8,140.9 M142.2,104.7c-4.8,0.4-8.8,2.5-12,6.2s-4.7,8-4.5,12.8l0,0
							c0.2,4.8,2.2,8.8,5.8,11.8c3.6,3.1,7.8,4.5,12.6,4c4.8-0.4,8.9-2.5,12.1-6.2c3.2-3.7,4.7-8,4.4-12.8s-2.2-8.7-5.7-11.8
							c-3-2.6-6.5-4-10.4-4.1C143.7,104.6,143,104.6,142.2,104.7z"/>
						<path style="fill:#1CB594;" d="M94.9,147.3c-4.7-0.1-9-1.8-12.6-5c-4.4-3.8-6.7-8.6-7.1-14.4c-0.3-5.8,1.5-11,5.4-15.4
							s8.8-7,14.6-7.5c5.8-0.5,11,1.1,15.4,4.9c4.3,3.8,6.7,8.6,7,14.4s-1.5,11-5.4,15.4s-8.8,7-14.6,7.5
							C96.6,147.3,95.7,147.3,94.9,147.3 M95.4,107.6c-5.2,0.5-9.4,2.6-12.8,6.6c-3.5,4-5,8.4-4.7,13.5l0,0
							c0.3,5.1,2.3,9.2,6.1,12.5c3.8,3.3,8.2,4.7,13.3,4.3c5.2-0.5,9.4-2.6,12.9-6.6c3.4-4,5-8.4,4.7-13.6
							c-0.3-5.1-2.3-9.2-6.1-12.6c-3.2-2.8-6.8-4.2-11-4.3C97,107.5,96.2,107.5,95.4,107.6z"/>
						<path style="fill:#FFFFFF;" d="M95,144.9c-4.2-0.1-7.9-1.6-11.2-4.4c-3.9-3.3-6-7.6-6.3-12.8c-0.3-5.1,1.3-9.7,4.8-13.7
							c3.4-3.9,7.8-6.2,12.9-6.6c5.2-0.5,9.8,1,13.7,4.3c3.8,3.3,5.9,7.6,6.2,12.8c0.3,5.1-1.3,9.7-4.8,13.7
							c-3.4,3.9-7.8,6.2-13,6.6C96.6,144.9,95.8,144.9,95,144.9 M95.4,108.8c-4.8,0.4-8.8,2.5-12,6.2s-4.7,8-4.5,12.8l0,0
							c0.2,4.8,2.2,8.8,5.8,11.8c3.6,3.1,7.8,4.5,12.6,4c4.8-0.4,8.9-2.5,12.1-6.2s4.7-8,4.4-12.8c-0.3-4.8-2.2-8.7-5.7-11.8
							c-3-2.6-6.5-4-10.4-4.1C97,108.7,96.2,108.7,95.4,108.8z"/>
					</g>
					<g>
						<path style="fill:#47D7AC;" d="M128.1,211.2c0.1,0,0.3,0,0.4-0.1c0.3-0.2,8.5-4.3,9.7-14.7c1.2-10.2-7.8-24.8-8.2-25.5
							c-0.3-0.5-0.9-0.6-1.3-0.3c-0.5,0.3-0.6,0.9-0.3,1.4c0.1,0.1,9,14.6,7.9,24.2c-1.1,9.3-8.3,13-8.6,13.2
							c-0.5,0.2-0.7,0.8-0.4,1.3C127.3,211,127.7,211.2,128.1,211.2z"/>
					</g>
				</g>
			</g>
		</g>
	</g>
</g>
</svg>
