<?xml version="1.0" encoding="utf-8"?>
<!-- Generator: Adobe Illustrator 25.1.0, SVG Export Plug-In . SVG Version: 6.00 Build 0)  -->
<svg version="1.1" id="레이어_1" xmlns="http://www.w3.org/2000/svg" xmlns:xlink="http://www.w3.org/1999/xlink" x="0px"
	 y="0px" viewBox="0 0 115.5 55" style="enable-background:new 0 0 115.5 55;" xml:space="preserve">
<style type="text/css">
	.st0{fill-rule:evenodd;clip-rule:evenodd;fill:#007ED8;}
	.st1{fill:#FFFAD6;}
</style>
<path id="Rounded_Rectangle_1" class="st0" d="M84.4,0H30.7c-7.2,0-16.2,5.8-18.1,13L0,55h115.5l-13-42C100.2,4.8,91.5,0,84.4,0z"/>
<g>
	<path class="st1" d="M90.5,24.1c-0.7,0-1.3-0.4-1.4-1.1c-2.1-7.5-10.1-11.9-16.7-11.9c-0.8,0-1.5-0.7-1.5-1.5s0.7-1.5,1.5-1.5
		c7.7,0,17.1,5.3,19.6,14.1c0.2,0.8-0.2,1.6-1,1.8C90.7,24.1,90.6,24.1,90.5,24.1z"/>
	<path class="st1" d="M93.1,35.9c-0.7,0-1.3-0.5-1.5-1.1l-0.7-2.9C90.7,31,91.2,30.2,92,30c0.8-0.2,1.6,0.3,1.8,1.1l0.7,2.9
		c0.2,0.8-0.3,1.6-1.1,1.8C93.3,35.8,93.2,35.9,93.1,35.9z"/>
</g>
</svg>
