<?xml version="1.0" encoding="utf-8"?>
<!-- Generator: Adobe Illustrator 25.2.0, SVG Export Plug-In . SVG Version: 6.00 Build 0)  -->
<svg version="1.1" id="레이어_1" xmlns="http://www.w3.org/2000/svg" xmlns:xlink="http://www.w3.org/1999/xlink" x="0px"
	 y="0px" viewBox="0 0 1600 900" style="enable-background:new 0 0 1600 900;" xml:space="preserve">
<g>
	<path style="fill:#33C4AB;" d="M1580,900.1H20V204.6c0-30.4,24.6-55,55-55h1450c30.4,0,55,24.6,55,55V900.1z"/>
	<path style="fill-rule:evenodd;clip-rule:evenodd;fill:#33C4AB;" d="M362.2,150l24.2-107.5c4.1-18.4,20.2-31.2,39-31.2h749
		c18.8,0,34.9,12.8,39,31.2l24.2,107.5L362.2,150z"/>
</g>
<g>
	<path style="fill:#FFFFFF;" d="M1570,901.5H30V210c0-27.6,22.4-50,50-50h1440c27.6,0,50,22.4,50,50V901.5z"/>
</g>
<path style="fill-rule:evenodd;clip-rule:evenodd;fill:#FFFFFF;" d="M1174.5,21.3h-749c-14,0-26.2,9.7-29.3,23.4l-26,125.3h859.5
	l-26-125.3C1200.7,31,1188.6,21.3,1174.5,21.3z"/>
<g>
	<g>
		<path style="fill:#006666;" d="M497.4,99.2c-1.8,0-3.5-0.2-5.1-0.8c-1.6-0.5-3-1.2-4.3-2.2c-1.2-1-2.2-2.2-2.9-3.8
			s-1.1-3.3-1.1-5.3V82c0-1.3,0.2-2.4,0.7-3.5c-1.1-0.2-2-0.7-2.5-1.4c-0.5-0.7-0.8-1.6-0.8-2.6c0-1.1,0.3-2,1-2.9
			c0.7-0.9,1.8-1.3,3.3-1.3h6.2c0-1.8,0.5-3.1,1.5-4c1-0.9,2.3-1.3,3.9-1.3c1.6,0,2.8,0.4,3.8,1.3c1,0.9,1.5,2.2,1.6,4h6.1
			c1.5,0,2.6,0.4,3.3,1.3c0.7,0.9,1,1.8,1,2.9c0,1-0.2,1.8-0.7,2.6c-0.5,0.7-1.3,1.2-2.5,1.4c0.5,1.1,0.8,2.3,0.8,3.5v5.1
			c0,2-0.4,3.8-1.1,5.3s-1.7,2.8-2.9,3.8c-1.2,1-2.6,1.8-4.3,2.2C501,98.9,499.2,99.2,497.4,99.2z M491.1,110.8
			c-1.7,0-3-0.4-3.9-1.3c-0.9-0.9-1.4-2-1.4-3.4c0-1.4,0.5-2.5,1.4-3.4c0.9-0.9,2.2-1.3,3.9-1.3h38.4c1.9,0,3.4,0.1,4.6,0.4
			c1.2,0.3,2.1,0.8,2.7,1.5c0.6,0.7,1.1,1.7,1.3,2.9c0.2,1.2,0.3,2.7,0.3,4.5v11.3h-12.1v-9.7c0-1-0.5-1.4-1.4-1.4H491.1z
			 M497.4,90.8c0.8,0,1.5-0.3,2.2-0.8c0.7-0.5,1-1.5,1-2.8V82c0-1.3-0.3-2.2-1-2.8c-0.7-0.5-1.4-0.8-2.2-0.8c-0.8,0-1.5,0.3-2.2,0.8
			s-1,1.5-1,2.8v5.2c0,1.3,0.3,2.2,1,2.8S496.6,90.8,497.4,90.8z M527.6,86.9h-2.8v11.9h-10.4V70.6c0-1.7,0.5-2.9,1.6-3.8
			c1-0.9,2.3-1.3,3.7-1.3c1.4,0,2.6,0.4,3.6,1.3c1.1,0.9,1.6,2.1,1.6,3.8v7.1h2.8v-7.1c0-1.7,0.5-2.9,1.6-3.8c1-0.9,2.3-1.3,3.7-1.3
			c1.4,0,2.6,0.4,3.7,1.3c1.1,0.9,1.6,2.1,1.6,3.8v28.3h-10.5V86.9z"/>
		<path style="fill:#006666;" d="M541.7,87.2c3.1-0.9,5.4-2.6,7.1-5.1s2.4-5.8,2.4-10.1v-0.4c0-1,0.2-1.8,0.5-2.5
			c0.4-0.7,0.8-1.3,1.4-1.7c0.6-0.5,1.2-0.8,2-1c0.8-0.2,1.5-0.3,2.3-0.3c1.6,0,2.9,0.5,4.1,1.5c1.2,0.9,1.7,2.3,1.7,4.1v0.4
			c0,0.9,0,1.8-0.1,2.6c-0.1,0.8-0.2,1.6-0.3,2.4c2.2,0.3,4.1,0.9,5.9,1.7c1.8,0.9,3.2,2,4.5,3.5c1.2,1.5,2.1,3.4,2.8,5.6
			c0.6,2.2,0.8,4.8,0.7,7.8H565c0.3-2.7,0-4.9-0.9-6.4c-0.9-1.6-2.3-2.6-4.2-3c-1.8,3.1-4,5.6-6.6,7.4c-2.7,1.8-5.4,2.8-8.3,3.1
			c-0.8,0.1-1.5,0-2.2-0.1c-0.7-0.2-1.3-0.4-1.8-0.7c-0.5-0.3-1-0.7-1.3-1.2c-0.4-0.5-0.6-1-0.7-1.5c-0.4-1.4-0.3-2.6,0.2-3.8
			C539.7,88.3,540.5,87.5,541.7,87.2z M551.3,121.9c-1.8,0-3.3-0.1-4.4-0.5c-1.1-0.3-2-0.8-2.6-1.5c-0.6-0.7-1-1.6-1.3-2.8
			c-0.2-1.2-0.3-2.6-0.3-4.4v-4.9c0-1.7,0.1-3.2,0.3-4.4c0.2-1.2,0.6-2.1,1.3-2.8c0.6-0.7,1.5-1.2,2.6-1.5c1.1-0.3,2.6-0.5,4.4-0.5
			H585c1.8,0,3.3,0.1,4.4,0.5c1.1,0.3,2,0.8,2.6,1.5c0.6,0.7,1,1.6,1.3,2.8c0.2,1.2,0.3,2.6,0.3,4.4v14H551.3z M554.6,111.8
			c0,0.7,0.1,1.2,0.3,1.4c0.2,0.2,0.6,0.3,1.2,0.3h25.7v-4.7c0-0.7-0.1-1.1-0.3-1.3c-0.2-0.2-0.6-0.3-1.2-0.3H556
			c-0.6,0-1,0.1-1.2,0.3c-0.2,0.2-0.3,0.6-0.3,1.3V111.8z M581.1,71.5c0-2,0.6-3.4,1.8-4.4c1.2-1,2.6-1.5,4.2-1.5
			c0.8,0,1.5,0.1,2.2,0.4c0.7,0.3,1.4,0.6,2,1.1c0.6,0.5,1,1.1,1.3,1.9c0.3,0.7,0.5,1.6,0.5,2.6v25.1h-12.1V71.5z"/>
		<path style="fill:#006666;" d="M631.6,77v1.1c0,1-0.1,2-0.2,3c4.5,0.2,7.8,1.6,10,4.1c2.2,2.5,3.2,6.3,3.1,11.5h-11.2
			c0.2-2.3-0.2-4-1.2-5.2c-1-1.2-2.3-1.8-4-1.8c-1.7,2.4-3.9,4.2-6.5,5.5c-2.6,1.3-5.2,2-8,2c-1.5,0.1-2.8-0.3-3.8-1.1
			c-1.1-0.8-1.6-1.9-1.7-3.3c-0.1-1.4,0.2-2.5,0.9-3.4c0.7-0.9,1.6-1.4,2.8-1.6c2.7-0.4,4.8-1.5,6.2-3.3c1.4-1.8,2.2-3.9,2.2-6.4V77
			h-7.3c-0.7,0-1.4-0.2-1.9-0.5s-1-0.7-1.3-1.1c-0.4-0.5-0.6-1-0.8-1.5c-0.2-0.6-0.3-1.1-0.3-1.7c0-0.5,0.1-1.1,0.2-1.6
			c0.2-0.6,0.4-1.1,0.8-1.6c0.4-0.5,0.8-0.9,1.4-1.2c0.6-0.3,1.2-0.4,2-0.4h26.8c0.8,0,1.4,0.1,2,0.4c0.6,0.3,1,0.7,1.4,1.2
			c0.4,0.5,0.6,1,0.8,1.6c0.2,0.6,0.2,1.1,0.2,1.6c0,0.6-0.1,1.1-0.3,1.7c-0.2,0.6-0.5,1.1-0.8,1.5c-0.4,0.5-0.8,0.8-1.3,1.1
			c-0.5,0.3-1.2,0.5-1.9,0.5H631.6z M623.7,122c-2.1,0-3.9-0.3-5.4-0.9c-1.5-0.6-2.8-1.4-3.8-2.4c-1-1-1.8-2.2-2.3-3.6
			c-0.5-1.4-0.8-2.9-0.8-4.5c0-1.6,0.2-3.1,0.8-4.5c0.5-1.4,1.3-2.6,2.3-3.6c1-1,2.3-1.8,3.8-2.4c1.5-0.6,3.3-0.9,5.4-0.9h26.9
			c2,0,3.8,0.3,5.4,0.9c1.5,0.6,2.8,1.4,3.8,2.4s1.8,2.2,2.3,3.6c0.5,1.4,0.8,2.9,0.8,4.6c0,1.6-0.3,3.2-0.8,4.6
			c-0.5,1.4-1.3,2.6-2.3,3.6c-1,1-2.3,1.8-3.8,2.3c-1.5,0.6-3.3,0.8-5.4,0.8H623.7z M647.4,113.7c1.3,0,2.2-0.3,2.6-1
			c0.4-0.7,0.7-1.3,0.7-2c0-0.7-0.2-1.3-0.7-1.9c-0.4-0.6-1.3-0.9-2.6-0.9h-20.5c-1.3,0-2.2,0.3-2.6,0.9c-0.4,0.6-0.7,1.3-0.7,1.9
			c0,0.7,0.2,1.4,0.7,2c0.4,0.7,1.3,1,2.6,1H647.4z M650.3,86.3h-3.4c-0.9,0-1.7-0.1-2.3-0.4c-0.6-0.3-1.1-0.6-1.5-1.1
			c-0.4-0.4-0.7-1-0.8-1.6c-0.2-0.6-0.2-1.2-0.2-1.8s0.1-1.2,0.2-1.8c0.2-0.6,0.4-1.1,0.8-1.6c0.4-0.5,0.8-0.8,1.5-1.1
			c0.6-0.3,1.4-0.4,2.3-0.4h3.4v-5.2c0-1.9,0.6-3.4,1.8-4.4c1.2-1,2.6-1.5,4.1-1.5c0.8,0,1.5,0.1,2.2,0.4c0.7,0.3,1.4,0.6,1.9,1.1
			c0.6,0.5,1,1.1,1.3,1.8c0.3,0.7,0.5,1.6,0.5,2.5v25.8h-11.9V86.3z"/>
		<path style="fill:#006666;" d="M677.5,106.9c0,1,0.2,1.7,0.6,2.1c0.4,0.3,1.1,0.5,2.2,0.5H698c0.9,0,1.7,0.1,2.3,0.4
			c0.6,0.3,1.2,0.7,1.6,1.1c0.4,0.5,0.7,1,0.9,1.6c0.2,0.6,0.3,1.2,0.3,1.8c0,1.2-0.4,2.4-1.2,3.4c-0.8,1-2.1,1.5-3.9,1.5h-22.1
			c-1.9,0-3.5-0.2-4.8-0.5c-1.3-0.4-2.4-0.9-3.2-1.7c-0.8-0.8-1.4-1.8-1.8-3.1c-0.4-1.3-0.6-2.9-0.6-4.8V98.2c0-1.9,0.2-3.5,0.6-4.7
			c0.4-1.3,1-2.3,1.8-3.1c0.8-0.8,1.9-1.4,3.2-1.7c1.3-0.3,2.9-0.5,4.8-0.5h10.7v-8.7c0-0.4-0.1-0.8-0.3-1.1
			c-0.2-0.4-0.6-0.5-1.3-0.5h-13.8c-0.9,0-1.7-0.1-2.3-0.4c-0.6-0.3-1.2-0.7-1.6-1.1c-0.4-0.5-0.7-1-0.9-1.6
			c-0.2-0.6-0.3-1.2-0.3-1.8s0.1-1.2,0.3-1.8c0.2-0.6,0.5-1.1,0.9-1.6s1-0.9,1.6-1.2c0.6-0.3,1.4-0.5,2.3-0.5h17
			c2.1,0,3.8,0.2,5.1,0.5c1.3,0.3,2.4,0.8,3.2,1.6c0.8,0.7,1.4,1.7,1.7,2.8c0.3,1.2,0.5,2.6,0.5,4.3v21h-18.4c-1,0-1.8,0.2-2.2,0.5
			c-0.4,0.3-0.6,1-0.6,2.1V106.9z M706.4,121.9V71.5c0-2,0.6-3.4,1.8-4.4c1.2-1,2.6-1.5,4.2-1.5c1.6,0,3,0.5,4.2,1.5
			c1.2,1,1.8,2.5,1.8,4.4v50.4H706.4z"/>
	</g>
</g>
<g>
	<path style="fill-rule:evenodd;clip-rule:evenodd;fill:#FFFFFF;" d="M439.2,64.1c15.8,0,28.5,12.8,28.5,28.5s-12.8,28.5-28.5,28.5
		s-28.5-12.8-28.5-28.5S423.5,64.1,439.2,64.1z"/>
	<path style="fill-rule:evenodd;clip-rule:evenodd;fill:#CAC3B5;" d="M463.2,77.1c2.9,4.5,4.6,9.8,4.6,15.6c0,0.5,0,1,0,1.5
		l-6.6,1.8l-7.7-5.3l-9,2.4c-0.6,0.2-1.1,0-1.6-0.3l-2.3,0.6c-0.5,0.1-1.1-0.2-1.2-0.7l0,0c-0.1-0.5,0.2-1.1,0.7-1.2l2.3-0.6
		c0.2-0.5,0.6-0.9,1.2-1.1l9-2.4l4-8.4L463.2,77.1z"/>
	<path style="fill-rule:evenodd;clip-rule:evenodd;fill:#1E9191;" d="M439.2,76.6c4.4,0,8.4,1.8,11.3,4.7c2.9,2.9,4.7,6.9,4.7,11.3
		s-1.8,8.4-4.7,11.3c-2.9,2.9-6.9,4.7-11.3,4.7c-4.4,0-8.4-1.8-11.3-4.7c-2.9-2.9-4.7-6.9-4.7-11.3s1.8-8.4,4.7-11.3
		C430.8,78.4,434.8,76.6,439.2,76.6L439.2,76.6z M446.8,85.1c-1.9-1.9-4.6-3.1-7.6-3.1c-3,0-5.6,1.2-7.6,3.1
		c-1.9,1.9-3.1,4.6-3.1,7.6c0,3,1.2,5.6,3.1,7.6c1.9,1.9,4.6,3.1,7.6,3.1c3,0,5.6-1.2,7.6-3.1c1.9-1.9,3.1-4.6,3.1-7.6
		C450,89.7,448.8,87,446.8,85.1z"/>
	<path style="fill-rule:evenodd;clip-rule:evenodd;fill:#1E9191;" d="M439.2,67.6c6.9,0,13.2,2.8,17.7,7.3
		c4.5,4.5,7.3,10.8,7.3,17.7s-2.8,13.2-7.3,17.7c-4.5,4.5-10.8,7.3-17.7,7.3c-6.9,0-13.2-2.8-17.7-7.3c-4.5-4.5-7.3-10.8-7.3-17.7
		s2.8-13.2,7.3-17.7C426.1,70.4,432.3,67.6,439.2,67.6L439.2,67.6z M453.2,78.7c-3.6-3.6-8.5-5.8-14-5.8c-5.5,0-10.4,2.2-14,5.8
		c-3.6,3.6-5.8,8.5-5.8,14s2.2,10.4,5.8,14c3.6,3.6,8.5,5.8,14,5.8c5.5,0,10.4-2.2,14-5.8c3.6-3.6,5.8-8.5,5.8-14
		S456.8,82.3,453.2,78.7z"/>
	<path style="fill-rule:evenodd;clip-rule:evenodd;fill:#1E9191;" d="M439.2,87.5c2.9,0,5.2,2.3,5.2,5.2c0,2.9-2.3,5.2-5.2,5.2
		c-2.9,0-5.2-2.3-5.2-5.2C434.1,89.8,436.4,87.5,439.2,87.5z"/>
	<path style="fill-rule:evenodd;clip-rule:evenodd;fill:#0B7373;" d="M453.5,85.3c1,2,1.6,4.2,1.7,6.5l-1.8-1.2l-3.5,0.9
		c-0.1-1.2-0.4-2.3-0.9-3.4l3.5-0.9L453.5,85.3z"/>
	<path style="fill-rule:evenodd;clip-rule:evenodd;fill:#0B7373;" d="M459.6,78.1c3,4.1,4.7,9.1,4.7,14.6c0,0.8,0,1.7-0.1,2.5
		l-3,0.8l-2.2-1.5c0-0.6,0.1-1.1,0.1-1.7c0-4.2-1.3-8.1-3.6-11.3l1.2-2.5L459.6,78.1z"/>
	<path style="fill-rule:evenodd;clip-rule:evenodd;fill:#0B7373;" d="M443.5,89.7c0.6,0.8,0.9,1.8,0.9,2.9c0,0.1,0,0.3,0,0.4
		c-0.6,0.1-1.1,0-1.5-0.3l-2.3,0.6c-0.5,0.1-1.1-0.2-1.2-0.7l0,0c-0.1-0.5,0.2-1.1,0.7-1.2l2.3-0.6C442.5,90.3,443,89.9,443.5,89.7z
		"/>
	<polygon style="fill-rule:evenodd;clip-rule:evenodd;fill:#80D1C2;" points="450.1,83.8 460.9,72.9 470.7,73.7 459.9,84.5 	"/>
	<polygon style="fill-rule:evenodd;clip-rule:evenodd;fill:#80D1C2;" points="448.1,81.8 459,71 458.2,61.2 447.4,72 	"/>
	<path style="fill-rule:evenodd;clip-rule:evenodd;fill:#FFFFFF;" d="M439.3,91.1l9.5-9.5c0.4-0.4,1-0.4,1.4,0l0,0
		c0.4,0.4,0.4,1,0,1.4l-9.5,9.5c-0.4,0.4-1,0.4-1.4,0l0,0C438.9,92.2,438.9,91.5,439.3,91.1z"/>
	<path style="fill-rule:evenodd;clip-rule:evenodd;fill:#FFFFFF;" d="M441.5,88l21.7-21.7c0.7-0.7,1.8-0.7,2.5,0l0,0
		c0.7,0.7,0.7,1.8,0,2.5l-21.7,21.7c-0.7,0.7-1.8,0.7-2.5,0v0C440.8,89.7,440.8,88.6,441.5,88z"/>
</g>
<g>
</g>
<g>
</g>
<g>
</g>
<g>
</g>
<g>
</g>
<g>
</g>
<g>
</g>
<g>
</g>
<g>
</g>
<g>
</g>
<g>
</g>
<g>
</g>
<g>
</g>
<g>
</g>
<g>
</g>
</svg>
