<?xml version="1.0" encoding="utf-8"?>
<!-- Generator: Adobe Illustrator 25.1.0, SVG Export Plug-In . SVG Version: 6.00 Build 0)  -->
<svg version="1.1" id="레이어_1" xmlns="http://www.w3.org/2000/svg" xmlns:xlink="http://www.w3.org/1999/xlink" x="0px"
	 y="0px" viewBox="0 0 1600 900" style="enable-background:new 0 0 1600 900;" xml:space="preserve">
<style type="text/css">
	.st0{fill:#FFFFFF;}
	.st1{fill:#CCEEFF;}
	.st2{fill:#49AAF1;}
	.st3{fill-rule:evenodd;clip-rule:evenodd;fill:#49AAF1;}
	.st4{fill-rule:evenodd;clip-rule:evenodd;fill:#FFFFFF;}
</style>
<rect y="0" class="st0" width="1600" height="900"/>
<rect x="0.5" y="2.4" class="st0" width="1600" height="900"/>
<rect x="1.5" y="2.4" class="st1" width="1600" height="900"/>
<path class="st2" d="M1581.5,902.5H21.5V207c0-30.4,24.6-55,55-55h1450c30.4,0,55,24.6,55,55V902.5z"/>
<g>
	<path class="st0" d="M1571.5,903.8H31.5V212.4c0-27.6,22.4-50,50-50h1440c27.6,0,50,22.4,50,50V903.8z"/>
</g>
<g>
	<g>
		<path class="st3" d="M273,153l24.2-107.5c4.1-18.4,20.2-31.2,39-31.2h919c18.8,0,34.9,12.8,39,31.2l24.2,107.5H273z"/>
		<path class="st4" d="M1255.3,24.3h-919c-14,0-26.2,9.7-29.3,23.4L278.8,170l1034.2,2l-28.4-124.3
			C1281.5,34.1,1269.3,24.3,1255.3,24.3z"/>
	</g>
</g>
</svg>
