<?xml version="1.0" encoding="utf-8"?>
<!-- Generator: Adobe Illustrator 25.2.0, SVG Export Plug-In . SVG Version: 6.00 Build 0)  -->
<svg version="1.1" id="레이어_1" xmlns="http://www.w3.org/2000/svg" xmlns:xlink="http://www.w3.org/1999/xlink" x="0px"
	 y="0px" viewBox="0 0 104.1 28.5" style="enable-background:new 0 0 104.1 28.5;" xml:space="preserve">
<g>
	<g>
		<path style="fill:#333333;stroke:#323333;stroke-width:5;stroke-linecap:round;stroke-linejoin:round;stroke-miterlimit:10;" d="
			M3.7,12.1c0.9-0.3,1.5-1,1.9-1.9C6,9.3,6.3,7.9,6.3,6.3V5.6c0-0.8,0.2-1.4,0.7-1.7c0.4-0.4,1-0.6,1.6-0.6s1.2,0.2,1.6,0.6
			s0.7,1,0.7,1.7v0.7c0,0.3,0,0.7,0,1s0,0.6-0.1,0.9c1.5,0.3,2.6,1,3.3,2.2s1,2.9,0.8,5.1h-4.4c0.1-0.8,0.2-1.5,0-2.1
			c-0.1-0.6-0.4-1.1-0.8-1.4c-0.5,1.1-1.2,2-2.1,2.7c-0.7,0.6-1.7,1-2.7,1.2c-0.6,0.1-1.2,0-1.6-0.3c-0.5-0.3-0.7-0.7-0.8-1.2
			C2.3,13.2,2.7,12.5,3.7,12.1z M8.9,26c-0.9,0-1.6-0.1-2.2-0.4c-0.6-0.2-1.2-0.6-1.6-1s-0.7-0.9-0.9-1.5c-0.3-0.5-0.4-1.1-0.4-1.8
			s0.1-1.3,0.3-1.9c0.2-0.6,0.5-1.1,0.9-1.5s0.9-0.8,1.6-1c0.6-0.2,1.4-0.4,2.2-0.4h11.4c0.8,0,1.6,0.1,2.2,0.4s1.2,0.6,1.6,1
			s0.7,0.9,0.9,1.5c0.2,0.6,0.3,1.2,0.3,1.9s-0.1,1.3-0.3,1.9c-0.2,0.6-0.5,1.1-0.9,1.5s-0.9,0.7-1.6,1c-0.6,0.2-1.4,0.3-2.2,0.3
			C20.2,26,8.9,26,8.9,26z M19.1,22.5c0.5,0,0.9-0.1,1.1-0.4s0.3-0.5,0.3-0.8s-0.1-0.5-0.3-0.8s-0.5-0.4-1.1-0.4h-8.8
			c-0.5,0-0.9,0.1-1.1,0.4c-0.2,0.3-0.3,0.5-0.3,0.8s0.1,0.6,0.3,0.8c0.2,0.3,0.5,0.4,1.1,0.4C10.2,22.5,19.1,22.5,19.1,22.5z
			 M21,11.5h-1.1v4.2h-4.3V4.8c0-0.7,0.2-1.2,0.6-1.6c0.4-0.4,0.9-0.5,1.5-0.5s1.1,0.2,1.5,0.5c0.4,0.4,0.7,0.9,0.7,1.6v3H21v-3
			c0-0.7,0.2-1.2,0.7-1.6c0.4-0.4,0.9-0.5,1.5-0.5s1.1,0.2,1.5,0.5c0.4,0.4,0.7,0.9,0.7,1.6v10.9H21V11.5z"/>
		<path style="fill:#333333;stroke:#323333;stroke-width:5;stroke-linecap:round;stroke-linejoin:round;stroke-miterlimit:10;" d="
			M28.7,12.2c0.9,0,1.8,0,2.6-0.2c0.8-0.1,1.5-0.3,2.1-0.7c0.6-0.3,1.1-0.7,1.4-1.2c0.3-0.5,0.5-1.1,0.5-1.8V7.8
			c0-0.4-0.2-0.5-0.6-0.5H29c-0.4,0-0.7-0.1-0.9-0.2c-0.3-0.1-0.5-0.2-0.6-0.4c-0.2-0.2-0.3-0.4-0.4-0.6S27,5.6,27,5.4
			s0-0.5,0.1-0.7s0.2-0.4,0.4-0.6c0.2-0.2,0.4-0.3,0.6-0.4s0.6-0.2,0.9-0.2h7.5c1.3,0,2.3,0.3,2.8,0.8C39.8,4.9,40,5.7,40,6.8v1.4
			c0,1.5-0.3,2.8-0.9,3.8s-1.5,1.9-2.5,2.6c-1.1,0.7-2.3,1.1-3.7,1.3c-1.4,0.2-2.9,0.3-4.4,0.2c-0.6,0-1-0.3-1.4-0.7
			c-0.4-0.4-0.6-0.9-0.5-1.6c0-0.6,0.2-1,0.6-1.3S28.1,12.2,28.7,12.2z M29.6,20.9c-0.7,0-1.2-0.2-1.6-0.5s-0.6-0.8-0.6-1.4
			s0.2-1,0.6-1.4s0.9-0.5,1.6-0.5h14.8c0.8,0,1.4,0.1,1.9,0.2s0.8,0.3,1.1,0.6s0.4,0.7,0.5,1.2s0.1,1.1,0.1,1.8V26H43v-4.4
			c0-0.4-0.2-0.6-0.6-0.6L29.6,20.9L29.6,20.9z M42.9,5.2c0-0.8,0.2-1.4,0.7-1.8s1.1-0.6,1.7-0.6c0.6,0,1.2,0.2,1.7,0.6
			s0.7,1,0.7,1.8v2.1h0.8c0.4,0,0.7,0.1,0.9,0.2S49.8,7.8,50,8c0.1,0.2,0.3,0.4,0.3,0.7c0.1,0.3,0.1,0.5,0.1,0.8
			c0,0.2,0,0.5-0.1,0.8S50.1,10.8,50,11s-0.3,0.4-0.6,0.5s-0.6,0.2-0.9,0.2h-0.8v4.6h-4.9L42.9,5.2L42.9,5.2z"/>
		<path style="fill:#333333;stroke:#323333;stroke-width:5;stroke-linecap:round;stroke-linejoin:round;stroke-miterlimit:10;" d="
			M58,22.5c-0.7,0-1.2-0.2-1.5-0.5c-0.4-0.3-0.5-0.8-0.5-1.3c0-0.6,0.2-1,0.5-1.3c0.4-0.3,0.9-0.5,1.5-0.5H64v-1.6H57
			c-0.7,0-1.3-0.2-1.6-0.6S55,15.9,55,15.4s0.2-0.9,0.5-1.3s0.8-0.6,1.6-0.6h19c0.7,0,1.3,0.2,1.6,0.6c0.3,0.4,0.5,0.8,0.5,1.3
			s-0.2,0.9-0.5,1.3s-0.8,0.6-1.5,0.6h-7v1.5h4.5c0.7,0,1.3,0.1,1.8,0.2s0.8,0.3,1.1,0.6s0.4,0.6,0.5,1.1s0.1,1.1,0.1,1.8V26h-4.9
			v-2.9c0-0.4-0.2-0.5-0.5-0.5L58,22.5L58,22.5z M56.9,9c0.5-0.2,0.9-0.4,1.2-0.7c0.3-0.3,0.6-0.6,0.8-1s0.3-0.8,0.4-1.2
			c0.1-0.4,0.1-0.9,0.1-1.4c0-0.8,0.3-1.3,0.8-1.6s1-0.5,1.7-0.5c0.6,0,1.2,0.2,1.6,0.5s0.7,0.9,0.7,1.6c0,0.4,0,0.7-0.1,1.1
			c0.8,0.1,1.5,0.3,2.2,0.6s1.1,0.8,1.6,1.4c0.6-0.7,0.9-1.8,0.9-3.2c0-0.8,0.3-1.3,0.8-1.6s1-0.5,1.7-0.5s1.2,0.2,1.6,0.5
			s0.7,0.9,0.7,1.6c0,0.2,0,0.4,0,0.6s0,0.4-0.1,0.6c0.7,0.1,1.3,0.4,1.9,0.7c0.6,0.3,1,0.8,1.4,1.3s0.7,1.2,0.9,1.9
			c0.2,0.7,0.3,1.6,0.2,2.6h-4.4c0.1-0.8,0.1-1.4-0.1-1.9s-0.6-0.9-1.1-1.1c-0.7,1-1.5,1.9-2.5,2.5s-2,0.9-3,1
			c-0.6,0-1.1-0.1-1.5-0.3c-0.4-0.2-0.6-0.6-0.7-1c0-0.1-0.1-0.3-0.1-0.4s0-0.3,0-0.4c-0.2-0.8-0.6-1.3-1.3-1.4
			c-0.6,1-1.3,1.8-2.2,2.4s-1.9,0.9-3,1c-0.6,0-1.1,0-1.6-0.3s-0.7-0.6-0.8-1.1s-0.1-1,0.2-1.4C56,9.4,56.4,9.2,56.9,9z"/>
		<path style="fill:#333333;stroke:#323333;stroke-width:5;stroke-linecap:round;stroke-linejoin:round;stroke-miterlimit:10;" d="
			M81.5,22.5c-0.7,0-1.2-0.2-1.5-0.5c-0.4-0.3-0.5-0.8-0.5-1.3c0-0.6,0.2-1,0.5-1.3c0.4-0.3,0.9-0.5,1.5-0.5h5.9v-1.6h-6.9
			c-0.7,0-1.3-0.2-1.6-0.6s-0.5-0.8-0.5-1.3s0.2-0.9,0.5-1.3s0.8-0.6,1.6-0.6h19c0.7,0,1.3,0.2,1.6,0.6c0.3,0.4,0.5,0.8,0.5,1.3
			s-0.2,0.9-0.5,1.3s-0.8,0.6-1.6,0.6h-7v1.5H97c0.7,0,1.3,0.1,1.8,0.2s0.8,0.3,1.1,0.6c0.3,0.3,0.4,0.6,0.5,1.1s0.1,1.1,0.1,1.8V26
			h-4.9v-2.9c0-0.4-0.2-0.5-0.5-0.5L81.5,22.5L81.5,22.5z M80.2,9c0.5-0.2,0.9-0.4,1.2-0.7c0.3-0.3,0.6-0.6,0.8-1
			c0.2-0.4,0.3-0.8,0.4-1.2c0.1-0.4,0.1-0.9,0.1-1.4c0-0.8,0.3-1.3,0.8-1.6s1-0.5,1.7-0.5c0.6,0,1.2,0.2,1.6,0.5s0.7,0.9,0.7,1.6
			c0,0.4,0,0.7-0.1,1.1c0.8,0.1,1.5,0.3,2.2,0.6s1.1,0.8,1.6,1.4c0.6-0.7,0.9-1.8,0.9-3.2c0-0.8,0.3-1.3,0.8-1.6
			c0.5-0.3,1-0.5,1.7-0.5s1.2,0.2,1.6,0.5s0.7,0.9,0.7,1.6c0,0.2,0,0.4,0,0.6s0,0.4-0.1,0.6c0.7,0.1,1.3,0.4,1.9,0.7
			c0.6,0.3,1,0.8,1.4,1.3s0.7,1.2,0.9,1.9c0.2,0.7,0.3,1.6,0.2,2.6h-4.4c0.1-0.8,0.1-1.4-0.1-1.9s-0.6-0.9-1.1-1.1
			c-0.7,1-1.5,1.9-2.5,2.5s-2,0.9-3,1c-0.6,0-1.1-0.1-1.5-0.3c-0.4-0.2-0.6-0.6-0.7-1c0-0.1-0.1-0.3-0.1-0.4s0-0.3,0-0.4
			c-0.2-0.8-0.6-1.3-1.3-1.4c-0.6,1-1.3,1.8-2.2,2.4c-0.9,0.6-1.9,0.9-3,1c-0.6,0-1.1,0-1.6-0.3s-0.7-0.6-0.8-1.1
			c-0.1-0.5-0.1-1,0.2-1.4S79.8,9.2,80.2,9z"/>
	</g>
	<g>
		<path style="fill:#FFFFFF;" d="M3.5,11.9c0.9-0.3,1.5-1,1.9-1.9s0.7-2.3,0.7-3.9V5.3c0-0.8,0.2-1.4,0.7-1.7C7.2,3.2,7.8,3,8.4,3
			s1.2,0.2,1.6,0.6s0.7,1,0.7,1.7V6c0,0.3,0,0.7,0,1s0,0.6-0.1,0.9c1.5,0.3,2.6,1,3.3,2.2c0.7,1.2,1,2.9,0.8,5.1h-4.4
			c0.1-0.8,0.2-1.5,0-2.1c-0.1-0.6-0.4-1.1-0.8-1.4c-0.5,1.1-1.2,2-2.1,2.7c-0.8,0.7-1.8,1-2.9,1.2c-0.6,0.1-1.2,0-1.6-0.3
			c-0.5-0.3-0.7-0.7-0.8-1.2C2.1,13,2.5,12.3,3.5,11.9z M8.8,25.8c-0.9,0-1.6-0.1-2.2-0.4c-0.6-0.2-1.2-0.6-1.6-1s-0.7-0.9-0.9-1.5
			c-0.2-0.6-0.3-1.2-0.3-1.9c0-0.7,0.1-1.3,0.3-1.9C4.2,18.5,4.6,18,5,17.6s0.9-0.8,1.6-1c0.6-0.2,1.4-0.4,2.2-0.4h11.4
			c0.8,0,1.6,0.1,2.2,0.4s1.2,0.6,1.6,1s0.7,0.9,0.9,1.5c0.2,0.6,0.3,1.2,0.3,1.9s-0.1,1.3-0.3,1.9c-0.2,0.6-0.5,1.1-0.9,1.5
			s-0.9,0.7-1.6,1c-0.6,0.2-1.4,0.3-2.2,0.3L8.8,25.8L8.8,25.8z M18.9,22.3c0.5,0,0.9-0.1,1.1-0.4s0.3-0.5,0.3-0.8s-0.1-0.5-0.3-0.8
			s-0.5-0.4-1.1-0.4H10c-0.5,0-0.9,0.1-1.1,0.4c-0.2,0.2-0.3,0.5-0.3,0.8s0.1,0.6,0.3,0.8c0.2,0.3,0.5,0.4,1.1,0.4
			C10,22.3,18.9,22.3,18.9,22.3z M20.8,11.3h-1.1v4.2h-4.3V4.6c0-0.7,0.2-1.2,0.6-1.6c0.4-0.4,0.9-0.5,1.5-0.5S18.6,2.7,19,3
			c0.4,0.4,0.7,0.9,0.7,1.6v3h1.1v-3c0-0.7,0.2-1.2,0.7-1.6c0.4-0.4,0.9-0.5,1.5-0.5s1.1,0.2,1.5,0.5c0.4,0.4,0.7,0.9,0.7,1.6v10.9
			h-4.3v-4.2H20.8z"/>
		<path style="fill:#FFFFFF;" d="M28.5,12c0.9,0,1.8,0,2.6-0.2c0.8-0.1,1.5-0.3,2.1-0.7c0.6-0.3,1.1-0.7,1.4-1.2
			c0.3-0.5,0.5-1.1,0.5-1.8V7.6c0-0.4-0.2-0.5-0.6-0.5h-5.7c-0.4,0-0.7-0.1-0.9-0.2c-0.3-0.1-0.5-0.2-0.6-0.4
			c-0.2-0.2-0.3-0.4-0.4-0.6s-0.1-0.5-0.1-0.7s0-0.5,0.1-0.7s0.2-0.4,0.4-0.6c0.2-0.2,0.4-0.3,0.6-0.4s0.6-0.2,0.9-0.2h7.5
			c1.3,0,2.3,0.3,2.8,0.8c0.5,0.6,0.8,1.4,0.8,2.5V8c0,1.5-0.3,2.8-0.9,3.8s-1.5,1.9-2.5,2.6c-1.1,0.7-2.3,1.1-3.7,1.3
			c-1.4,0.2-2.9,0.3-4.4,0.2c-0.6,0-1-0.3-1.4-0.7c-0.4-0.4-0.6-0.9-0.5-1.6c0-0.6,0.2-1,0.6-1.3S27.9,12,28.5,12z M29.4,20.7
			c-0.7,0-1.2-0.2-1.6-0.5s-0.6-0.8-0.6-1.4s0.2-1,0.6-1.4s0.9-0.5,1.6-0.5h14.8c0.8,0,1.4,0.1,1.9,0.2s0.8,0.3,1.1,0.6
			s0.4,0.7,0.5,1.2s0.1,1.1,0.1,1.8v5.1h-4.9v-4.5c0-0.4-0.2-0.6-0.6-0.6H29.4z M42.7,5c0-0.8,0.2-1.4,0.7-1.8s1.1-0.6,1.7-0.6
			c0.6,0,1.2,0.2,1.7,0.6s0.7,1,0.7,1.8v2.1h0.8c0.4,0,0.7,0.1,0.9,0.2s0.4,0.3,0.6,0.5c0.1,0.2,0.3,0.4,0.3,0.7
			c0.1,0.3,0.1,0.5,0.1,0.8c0,0.2,0,0.5-0.1,0.8s-0.2,0.5-0.3,0.7s-0.3,0.4-0.6,0.5c-0.2,0-0.5,0-0.9,0h-0.8v4.6h-4.9V5H42.7z"/>
		<path style="fill:#FFFFFF;" d="M58,22.3c-0.7,0-1.2-0.2-1.5-0.5C56,21.5,56,21,56,20.5c0-0.6,0.2-1,0.5-1.3
			c0.4-0.3,0.9-0.5,1.5-0.5h5.9v-1.5H57c-0.7,0-1.3-0.2-1.6-0.6s-0.5-0.8-0.5-1.3s0.2-0.9,0.5-1.3s0.8-0.6,1.6-0.6h19
			c0.7,0,1.3,0.2,1.6,0.6c0.3,0.4,0.5,0.8,0.5,1.3s-0.2,0.9-0.5,1.3s-0.8,0.6-1.6,0.6h-7v1.5h4.5c0.7,0,1.3,0.1,1.8,0.2
			s0.8,0.3,1.1,0.6s0.4,0.6,0.5,1.1s0.1,1.1,0.1,1.8v3.5h-5V23c0-0.4-0.2-0.5-0.5-0.5H58V22.3z M56.7,8.8c0.5-0.2,0.9-0.4,1.2-0.7
			c0.3-0.3,0.6-0.6,0.8-1s0.3-0.8,0.4-1.2c0.1-0.4,0.1-0.9,0.1-1.4c0-0.8,0.3-1.3,0.8-1.6s1-0.5,1.7-0.5c0.6,0,1.2,0.2,1.6,0.5
			S64,3.8,64,4.5c0,0.4,0,0.7-0.1,1.1c0.8,0.1,1.5,0.3,2.2,0.6s1.1,0.8,1.6,1.4c0.6-0.7,0.9-1.8,0.9-3.2c0-0.8,0.3-1.3,0.8-1.6
			s1-0.5,1.7-0.5s1.2,0.2,1.6,0.5s0.7,0.9,0.7,1.6c0,0.2,0,0.4,0,0.6s0,0.4-0.1,0.6c0.7,0.1,1.3,0.4,1.9,0.7c0.6,0.3,1,0.8,1.4,1.3
			s0.7,1.2,0.9,1.9c0.2,0.7,0.3,1.6,0.2,2.6h-4.4c0.1-0.8,0.1-1.4-0.1-1.9S72.5,9.3,72,9.1c-0.7,1-1.5,1.9-2.5,2.5s-2,0.9-3,1
			c-0.6,0-1.1-0.1-1.5-0.3c-0.4-0.2-0.6-0.6-0.7-1c0-0.1-0.1-0.3-0.1-0.4s0-0.3,0-0.4c-0.2-0.8-0.6-1.3-1.3-1.4
			c-0.6,1-1.3,1.8-2.2,2.4s-1.9,0.9-3,1c-0.6,0-1.1,0-1.6-0.3s-0.7-0.6-0.8-1.1s-0.1-1,0.2-1.4C55.8,9.3,56.2,9,56.7,8.8z"/>
		<path style="fill:#FFFFFF;" d="M81.3,22.3c-0.7,0-1.2-0.2-1.5-0.5c-0.4-0.3-0.5-0.8-0.5-1.3c0-0.6,0.2-1,0.5-1.3
			c0.4-0.3,0.9-0.5,1.5-0.5h5.9v-1.5h-6.9c-0.7,0-1.3-0.2-1.6-0.6s-0.5-0.8-0.5-1.3s0.2-0.9,0.5-1.3s0.8-0.6,1.6-0.6h19
			c0.7,0,1.3,0.2,1.6,0.6c0.3,0.4,0.5,0.8,0.5,1.3s-0.2,0.9-0.5,1.3s-0.8,0.6-1.6,0.6h-7v1.5h4.5c0.7,0,1.3,0.1,1.8,0.2
			s0.8,0.3,1.1,0.6c0.3,0.3,0.4,0.6,0.5,1.1s0.1,1.1,0.1,1.8v3.5h-4.9V23c0-0.4-0.2-0.5-0.5-0.5H81.3V22.3z M80,8.8
			c0.5-0.2,0.9-0.4,1.2-0.7c0.3-0.3,0.6-0.6,0.8-1c0.2-0.4,0.3-0.8,0.4-1.2c0.1-0.4,0.1-0.9,0.1-1.4c0-0.8,0.3-1.3,0.8-1.6
			s1-0.5,1.7-0.5c0.6,0,1.2,0.2,1.6,0.5s0.7,0.9,0.7,1.6c0,0.4,0,0.7-0.1,1.1c0.8,0.1,1.5,0.3,2.2,0.6S90.5,7,91,7.6
			c0.6-0.7,0.9-1.8,0.9-3.2c0-0.8,0.3-1.3,0.8-1.6c0.5-0.3,1-0.5,1.7-0.5s1.2,0.2,1.6,0.5s0.7,0.9,0.7,1.6c0,0.2,0,0.4,0,0.6
			s0,0.4-0.1,0.6c0.7,0.1,1.3,0.4,1.9,0.7c0.6,0.3,1,0.8,1.4,1.3s0.7,1.2,0.9,1.9c0.2,0.7,0.3,1.6,0.2,2.6h-4.4
			c0.1-0.8,0.1-1.4-0.1-1.9s-0.6-0.9-1.1-1.1c-0.7,1-1.5,1.9-2.5,2.5s-2,0.9-3,1c-0.6,0-1.1-0.1-1.5-0.3c-0.4-0.2-0.6-0.6-0.7-1
			c0-0.1-0.1-0.3-0.1-0.4s0-0.3,0-0.4c-0.2-0.8-0.6-1.3-1.3-1.4c-0.6,1-1.3,1.8-2.2,2.4c-0.9,0.6-1.9,0.9-3,1c-0.6,0-1.1,0-1.6-0.3
			s-0.7-0.6-0.8-1.1c-0.1-0.5-0.1-1,0.2-1.4S79.5,9,80,8.8z"/>
	</g>
</g>
</svg>
