<?xml version="1.0" encoding="utf-8"?>
<!-- Generator: Adobe Illustrator 25.2.0, SVG Export Plug-In . SVG Version: 6.00 Build 0)  -->
<svg version="1.1" id="레이어_1" xmlns="http://www.w3.org/2000/svg" xmlns:xlink="http://www.w3.org/1999/xlink" x="0px"
	 y="0px" viewBox="0 0 39.5 28.9" style="enable-background:new 0 0 39.5 28.9;" xml:space="preserve">
<g>
	<g>
		<path style="fill:#FFFFFF;stroke:#FFFFFF;stroke-miterlimit:10;" d="M39,1.1C39,1,39,1,39,1.1c0-0.1,0-0.1,0-0.1c0,0,0,0,0,0
			c0,0,0-0.1,0-0.1c0,0,0,0,0,0c0,0,0,0,0,0c0,0,0,0,0-0.1c0,0,0,0,0,0c0,0,0,0,0,0c0,0,0,0,0,0c0,0,0,0-0.1,0c0,0,0,0-0.1,0
			c0,0,0,0-0.1,0c0,0,0,0,0,0c0,0,0,0-0.1,0c0,0,0,0,0,0L6.9,3.3c-0.2,0-0.3,0.1-0.4,0.3c-0.1,0.2,0,0.4,0.1,0.5l4.8,4.6l1.8,12
			c0,0,0,0,0,0c0,0.1,0.1,0.2,0.1,0.2c0,0,0,0,0,0c0.1,0.1,0.2,0.1,0.3,0.1c0,0,0,0,0.1,0c0,0,0,0,0,0c0.1,0,0.1,0,0.2-0.1l4.1-3.2
			l3.8,5.9c0.1,0.1,0.2,0.2,0.4,0.2c0,0,0,0,0,0c0.1,0,0.3-0.1,0.4-0.2L39,1.2c0,0,0,0,0,0C39,1.2,39,1.1,39,1.1
			C39,1.1,39,1.1,39,1.1z M33.7,1.8l-3.2,0.9L12,7.9L8,4.1L33.7,1.8z M13.8,18.4l-1.4-9.6l6-1.7l16.3-4.6L15.5,12.7c0,0,0,0,0,0
			c0,0,0,0,0,0c-0.1,0.1-0.1,0.1-0.1,0.2c0,0,0,0,0,0L13.8,18.4z M14.5,19.4l1.4-5.1l1.7,2.7L14.5,19.4z M22.2,22.5l-3.5-5.4l0,0
			l-0.5-0.8l0,0l-1.9-3l17.9-9.5h0l1.6-0.9L37,2.3l-0.8,1.1h0L22.2,22.5z"/>
		<path style="fill:#FFFFFF;stroke:#FFFFFF;stroke-miterlimit:10;" d="M8.9,13c-0.1-0.2-0.4-0.3-0.6-0.2l-0.1,0
			c-2.3,1.3-4.6,2.6-6.1,4.8c-1.4,2-2.3,4.8-0.9,6.5c-0.1,1.1,0.2,2,0.8,2.7c0.8,0.9,2.2,1.5,3.9,1.5c0.1,0,0.2,0,0.3,0
			c0.3,0,0.4-0.2,0.4-0.5c0-0.3-0.2-0.4-0.5-0.4c-1.6,0.1-2.8-0.4-3.5-1.1c-0.3-0.4-0.5-0.8-0.6-1.3c0.9,0.5,2.4,0.4,3.4-0.3
			c0.8-0.5,1.1-1.2,1-2c-0.2-1.1-0.9-1.8-1.9-1.8c-1.2,0-2.5,0.9-3.1,2.1c-0.7-1.8,1.1-4.4,1.3-4.7c1.4-2,3.6-3.3,5.8-4.5l0.1,0
			C8.9,13.5,9,13.2,8.9,13z M4.7,21.8c0.2,0,0.8,0,1,1c0.1,0.4-0.1,0.8-0.6,1.1c-0.8,0.5-2.1,0.5-2.6,0.1C2.3,24,2.3,24,2.2,23.9
			C2.4,22.9,3.6,21.8,4.7,21.8z"/>
	</g>
</g>
<g>
</g>
<g>
</g>
<g>
</g>
<g>
</g>
<g>
</g>
<g>
</g>
<g>
</g>
<g>
</g>
<g>
</g>
<g>
</g>
<g>
</g>
<g>
</g>
<g>
</g>
<g>
</g>
<g>
</g>
</svg>
