<?xml version="1.0" encoding="utf-8"?>
<!-- Generator: Adobe Illustrator 25.2.0, SVG Export Plug-In . SVG Version: 6.00 Build 0)  -->
<svg version="1.1" id="레이어_1" xmlns="http://www.w3.org/2000/svg" xmlns:xlink="http://www.w3.org/1999/xlink" x="0px"
	 y="0px" viewBox="0 0 40 32.4" style="enable-background:new 0 0 40 32.4;" xml:space="preserve">
<g>
	<g>
		<path style="fill:#FFFFFF;" d="M39.7,7c-1-4.3-4.9-7-9.2-7C25.9,0,22,2.2,20.4,6.9c-0.8,2.4-0.8,4.8-1.3,6.1
			c-0.4,1.2-0.9,1.8-1.8-0.1c-2.3-5-5.9-7.5-9.9-7.7C4.2,5,1,7.3,0.2,10.9C-1.4,18.4,6,24.1,13.6,21.3c1.1-0.4,2.1-0.9,2.9-1
			c1.2-0.2,1.7,0.3,1.8,1.3c0.1,1.9,0,6.3,0.1,9.8c0.1,1.4,2.6,1.5,2.6,0.1c0-1.8-0.5-5.8-0.5-10.2c0-1.1,0.2-1.8,1.5-1.7
			c1.4,0.1,2.4,0.6,6.2,0.7C35,20.4,41.4,14.3,39.7,7z M15.9,16.6c-2.6-1.3-6.1-2.7-9.9-3.5c-1.4-0.3-1.4-1.9,0.2-1.8
			c3.3,0.2,7.6,2.4,10.2,4.3C16.8,16.1,16.7,16.8,15.9,16.6z M34.3,6.9c-6,2.8-8.8,5.4-11.9,8.5c-0.8,0.7-1.5,0.1-1-0.7
			c2-3.8,7.5-8.4,11.8-9.8C35.4,4.2,35.7,6.3,34.3,6.9z"/>
	</g>
</g>
<g>
</g>
<g>
</g>
<g>
</g>
<g>
</g>
<g>
</g>
<g>
</g>
<g>
</g>
<g>
</g>
<g>
</g>
<g>
</g>
<g>
</g>
<g>
</g>
<g>
</g>
<g>
</g>
<g>
</g>
</svg>
