<svg xmlns="http://www.w3.org/2000/svg" viewBox="0 0 62 50"><defs><style>.cls-1{fill:#fff;}.cls-2{fill:teal;}.cls-3{fill:#ace6e6;}.cls-3,.cls-4{stroke:teal;stroke-miterlimit:10;stroke-width:2px;}.cls-4{fill:#ade6e6;}</style></defs><g id="Layer_2" data-name="Layer 2"><g id="Layer_1-2" data-name="Layer 1"><rect class="cls-1" x="9.51" y="4.29" width="42.97" height="17.47"/><path class="cls-2" d="M51.24,5.54v15H10.76v-15H51.24M53.74,3H8.26V23H53.74V3Z"/><rect class="cls-2" x="10.76" y="13.02" width="8.09" height="7.48"/><path class="cls-3" d="M10.76,2.58V43.27H4.7V2.58A1.59,1.59,0,0,1,6.29,1H9.17A1.58,1.58,0,0,1,10.76,2.58Z"/><path class="cls-3" d="M57.29,2.58V43.27h-6V2.58A1.58,1.58,0,0,1,52.83,1h2.88A1.57,1.57,0,0,1,57.29,2.58Z"/><rect class="cls-2" x="18.86" y="5.54" width="8.09" height="7.48"/><rect class="cls-2" x="35.05" y="5.54" width="8.09" height="7.48"/><rect class="cls-2" x="26.95" y="13.02" width="8.09" height="7.48"/><rect class="cls-2" x="43.14" y="13.02" width="8.09" height="7.48"/><path class="cls-4" d="M14.47,45.51V49H1V45.51a2.23,2.23,0,0,1,2.24-2.24h9A2.23,2.23,0,0,1,14.47,45.51Z"/><path class="cls-4" d="M61,45.51V49H47.53V45.51a2.23,2.23,0,0,1,2.25-2.24h9A2.23,2.23,0,0,1,61,45.51Z"/></g></g></svg>