<?xml version="1.0" encoding="utf-8"?>
<!-- Generator: Adobe Illustrator 25.2.0, SVG Export Plug-In . SVG Version: 6.00 Build 0)  -->
<svg version="1.1" id="레이어_1" xmlns="http://www.w3.org/2000/svg" xmlns:xlink="http://www.w3.org/1999/xlink" x="0px"
	 y="0px" viewBox="0 0 158.7 110" style="enable-background:new 0 0 158.7 110;" xml:space="preserve">
<g>
	<path style="fill:#FFFFFF;" d="M89.1,87.2c-1.4,0-2-0.7-2-2c0-1.4,0.7-2.1,2-2.1H93c0.8,0,1.1-0.2,1.1-1.1v-1.8
		c0-0.5,0.1-0.9,0.3-1.3c-0.7-0.3-1.4-0.7-1.9-1.3c-1-1-1.6-2.3-1.6-3.9c0-0.8,0.3-1.8,0.5-2.3c0.2-0.6,0-0.7-0.5-0.7h-1.4
		c-1.3,0-1.9-0.6-1.9-1.9c0-1.3,0.7-1.9,1.9-1.9h3.7c0.8,0,0.9-0.3,0.9-1v-3c0-1.4,0.8-2.1,2.3-2.1c1.5,0,2.3,0.7,2.3,2.2V66
		c0,0.8,0.1,1,0.9,1h3.3c1.2,0,1.8,0.6,1.9,1.9c0,1.3-0.6,1.9-1.9,1.9h-1.2c-0.6,0-0.7,0.2-0.5,0.8c0.4,0.6,0.5,1.4,0.5,2.2
		c0,1.6-0.5,2.9-1.6,3.9c-0.6,0.6-1.2,1-1.8,1.3c0.2,0.3,0.3,0.7,0.3,1.3V82c0,0.9,0.4,1.1,1.1,1.1h3.8c1.3,0,1.9,0.7,2,2.1
		c0,1.3-0.6,2-2,2 M112.3,97.1c0,1.9-0.7,2.5-2.3,2.5h-4.8c-0.5,0-0.7,0.2-0.7,0.7v1.2c0,0.5,0.2,0.7,0.7,0.7h4c1.2,0,1.8,0.7,1.8,2
		s-0.6,2-1.8,2h-6.4c-1.8,0-2.7-0.9-2.7-2.9v-5.3c0-1.5,0.9-2.5,2.6-2.5h4.4c0.6,0,0.8-0.3,0.8-0.7v-1c0-0.6-0.1-0.8-0.8-0.8h-3.5
		c-1.3,0-1.9-0.7-1.9-2c0-1.3,0.6-2,1.9-2h5.9c2.3,0,2.8,0.9,2.8,2.6V97.1z M114.7,77.3c-0.7,0-1,0.3-1,1.2v4c0,1.6-0.7,2.5-2.2,2.4
		c-1.4,0-2.2-0.8-2.2-2.4V67.7c0-1.6,0.7-2.4,2.2-2.4c1.4,0,2.2,0.8,2.2,2.4V72c0,0.9,0.3,1.2,1,1.2h3.9c1.2,0,1.8,0.7,1.8,2
		s-0.6,2-1.8,2H114.7z M97.6,73.7c0-0.7-0.5-1.3-1.2-1.3s-1.2,0.6-1.2,1.3c0,0.7,0.5,1.4,1.2,1.4S97.6,74.5,97.6,73.7 M132.3,67.5
		c-2.5,0-3.3-1-3.3-3.3v-7.2c0-2,0.8-3.1,3.3-3.1h8.7c1.3,0,1.9,0.7,2,2c0,1.3-0.6,2-2,2h-6.4c-0.7,0-1,0.3-1,1.2v3
		c0,0.7,0.3,1.1,1,1.1h7.1c1.3,0,2,0.7,2.1,2.1c0,1.4-0.6,2.1-2.1,2.1H132.3z M124,77.5c-1.4,0-2-0.7-2-2c0-1.4,0.7-2.1,2-2.1h9.1
		c0.9,0,1.2-0.2,1.2-1.1v-1.8c0-1.4,0.7-2.2,2.2-2.2c1.5,0,2.2,0.7,2.2,2.2v1.8c0,0.9,0.5,1.1,1.2,1.1h9.1c1.3,0,1.9,0.7,1.9,2.1
		c0,1.3-0.6,2-1.9,2H124z M143.2,86.5c0,1.9-0.6,3.4-1.9,4.7c-1.3,1.3-2.9,1.9-4.8,1.9c-1.8,0-3.3-0.7-4.6-1.9
		c-1.3-1.3-1.9-2.8-1.9-4.7c0-2,0.6-3.5,1.9-4.8s2.8-1.9,4.6-1.9c1.9,0,3.5,0.6,4.8,1.9C142.5,82.9,143.2,84.5,143.2,86.5
		 M138.8,86.5c0-1.3-1.1-2.5-2.4-2.5c-1.1,0-2.3,1.1-2.3,2.5c0,1.3,1.1,2.4,2.3,2.4C137.8,88.8,138.8,87.8,138.8,86.5"/>
	<path style="fill:#FFFFFF;" d="M11.6,29c-1.9,0-2.7-0.9-2.7-2.7v-4.7c0-1.1,0.6-1.7,1.7-1.7c1.1,0,1.7,0.5,1.7,1.7v3.5
		c0,0.6,0.2,0.9,0.8,0.9h5.1c1,0,1.5,0.5,1.5,1.5c0,1-0.5,1.5-1.5,1.5 M5.1,36.3c-1,0-1.5-0.5-1.5-1.5c0-1,0.5-1.5,1.5-1.5h6.7
		c0.7,0,0.9-0.2,0.9-0.8v-1.3c0-1.1,0.5-1.6,1.6-1.6c1.1,0,1.6,0.5,1.6,1.6v1.3c0,0.6,0.4,0.8,0.9,0.8h6.7c1,0,1.4,0.5,1.4,1.5
		c0,1-0.5,1.5-1.4,1.5H5.1z M19.5,44.2c0,1.3-0.6,1.7-1.8,1.7h-4.9c-0.3,0-0.5,0.3-0.5,0.5v0.9c0,0.4,0.2,0.5,0.5,0.5h6.3
		c0.9,0,1.4,0.5,1.4,1.5c0,1-0.5,1.5-1.4,1.5h-8c-1.4,0-2-0.6-2-2.1v-3.9c0-1.2,0.6-1.7,2-1.7h4.6c0.4,0,0.6-0.2,0.6-0.5v-0.8
		c0-0.4-0.1-0.5-0.6-0.5H11c-1,0-1.4-0.5-1.4-1.5c0-1,0.5-1.5,1.4-1.5h6.4c1.7,0,2.1,0.7,2.1,2V44.2z M40,36.3c0,1.7-0.5,3-1.6,3.9
		c-1.1,1-2.4,1.4-3.8,1.4c-1.5,0-2.8-0.5-3.9-1.4c-1.1-1-1.6-2.3-1.6-3.9c0-1.7,0.5-3,1.6-4c1.1-1,2.4-1.4,3.9-1.4
		c1.5,0,2.7,0.5,3.8,1.5C39.5,33.4,40,34.7,40,36.3 M36.7,36.3c0-1.3-0.9-2.3-2.1-2.3c-1.3,0-2.3,1-2.3,2.3c0,1.3,1,2.3,2.3,2.3
		C35.7,38.6,36.7,37.7,36.7,36.3 M48.9,40.8c0,1.3-0.5,1.9-1.6,1.8c-1,0-1.6-0.6-1.6-1.8v-14c0-1.2,0.5-1.7,1.6-1.8
		c1.1,0,1.6,0.5,1.6,1.8V40.8z M69.8,25.4c0,1.2-0.5,2-2,2h-6.1c-0.5,0-0.7,0.2-0.7,0.6v1.7c0,0.4,0.1,0.6,0.7,0.6h5.7
		c1,0,1.4,0.5,1.5,1.5c0,1-0.5,1.5-1.5,1.5H60c-1.6,0-2.1-0.5-2.1-2v-4.9c0-1.4,0.7-2.1,2.1-2.1h5.9c0.5,0,0.7-0.2,0.7-0.7v-2.1
		c0-0.4-0.2-0.7-0.7-0.7h-5.6c-1,0-1.5-0.5-1.5-1.5c0-1,0.5-1.5,1.5-1.5h7.6c1.5,0,2,0.8,2,2V25.4z M54.4,42.1c-1,0-1.5-0.5-1.5-1.5
		c0-1,0.5-1.5,1.5-1.5h6.5c0.7,0,0.9-0.1,0.9-0.8v-2.9c0-1,0.5-1.6,1.6-1.6c1.1,0,1.6,0.5,1.6,1.6v2.9c0,0.5,0.3,0.8,0.9,0.8h6.9
		c1,0,1.4,0.5,1.4,1.5c0,1-0.5,1.5-1.4,1.5H54.4z M100.4,26.2c1,0.6,1.2,1.3,0.6,2.1c-0.6,0.9-1.3,1-2.2,0.5l-3.1-1.7
		c-0.4-0.3-0.6-0.2-1,0l-3.3,2.1c-1,0.7-1.8,0.5-2.5-0.3c-0.6-0.9-0.5-1.6,0.5-2.2l3.2-2.1c0.4-0.3,0.6-0.5,0.6-1.3v-1
		c0-0.4-0.1-0.5-0.5-0.5h-2.3c-0.9,0-1.4-0.5-1.4-1.5c0-1,0.5-1.5,1.4-1.5h8.6c1,0,1.4,0.5,1.5,1.5c0,1-0.5,1.5-1.5,1.5H97
		c-0.3,0-0.4,0.1-0.4,0.5v1c0,0.4,0.1,0.7,0.6,1L100.4,26.2z M85.8,34.3c-1,0-1.5-0.5-1.5-1.5c0-1,0.5-1.5,1.5-1.5h18.5
		c1,0,1.4,0.5,1.4,1.5c0,1-0.5,1.5-1.4,1.5H85.8z M100.2,42.8c0,1.3-0.6,1.7-1.8,1.7h-4.9c-0.3,0-0.5,0.3-0.5,0.5v1.1
		c0,0.3,0.2,0.5,0.5,0.5h6.3c0.9,0,1.4,0.5,1.4,1.5c0,1-0.5,1.5-1.4,1.5h-8c-1.4,0-2-0.6-2-2.1v-4.1c0-1.2,0.6-1.7,2-1.7h4.6
		c0.4,0,0.6-0.2,0.6-0.5v-0.9c0-0.4-0.1-0.5-0.6-0.5h-4.6c-1,0-1.4-0.5-1.4-1.5c0-1,0.5-1.5,1.4-1.5h6.4c1.7,0,2.1,0.7,2.1,2V42.8z
		 M120.2,39.2c0,1.1-0.5,1.6-1.6,1.6c-1.1,0-1.6-0.5-1.6-1.6v-4.3c0-0.4-0.2-0.8-0.8-0.8h-4.8c-1,0-1.5-0.5-1.5-1.5
		c0-1,0.5-1.5,1.5-1.5h6.5c1.7,0,2.3,0.8,2.3,2.3V39.2z M129.6,40.8c0,1.3-0.5,1.9-1.6,1.8c-1,0-1.6-0.6-1.6-1.8v-14
		c0-1.2,0.5-1.7,1.6-1.8c1.1,0,1.6,0.5,1.6,1.8V40.8z M141.6,29c-1.9,0-2.7-0.9-2.7-2.7v-4.7c0-1.1,0.6-1.7,1.7-1.7s1.7,0.5,1.7,1.7
		v3.5c0,0.6,0.2,0.9,0.8,0.9h5.1c1,0,1.5,0.5,1.5,1.5c0,1-0.5,1.5-1.5,1.5H141.6z M135.1,34.3c-1,0-1.5-0.5-1.5-1.5
		c0-1,0.5-1.5,1.5-1.5h18.5c1,0,1.4,0.5,1.4,1.5c0,1-0.5,1.5-1.4,1.5H135.1z M141.8,45.4c-1.7,0-2.5-0.8-2.5-2.5v-4.6
		c0-1.1,0.5-1.6,1.6-1.7c1.1,0,1.6,0.5,1.6,1.7v3.3c0,0.6,0.2,0.8,0.6,0.8h4.6c1,0,1.4,0.5,1.4,1.5c0,1-0.5,1.5-1.4,1.5H141.8z"/>
	<path style="fill:#006666;" d="M158.7,32.7c0-3.1-2.1-5.2-5.1-5.2h-0.2l0-0.2c-0.1-2.8-2-4.7-4.6-5C144.4,13,133.2-3,107.4,0.5
		C85.9,3.5,85.6,11.8,71,15.1c-0.9-0.5-1.9-0.9-3.2-0.9h-7.6c-1.9,0-3.1,0.8-3.8,1.5c-0.2,0.2-0.4,0.5-0.6,0.8l-0.3,0
		c-12.5,0-24.1,3-32.4,9.3c-0.7-2.1-2.5-3.5-4.9-3.5h-2.2v-0.7c0-2-0.9-3.3-1.6-4c-0.7-0.7-2-1.5-3.9-1.4c-3.1,0.1-5.2,2.3-5.2,5.4
		v4.7c0,1.2,0.3,2.4,0.7,3.3H5.1c-2.9,0-5,2.1-5.1,5.1c-0.1,1.9,0.7,3.1,1.4,3.8C2,39.2,3.2,40,5.1,40H6c0,0.6,0.1,1.2,0.3,1.7
		c-0.6,0.9-0.9,1.9-0.9,3.1v3.9c0,3.2,1.9,5.4,4.9,5.7c0.1,2.5,0.3,5.2,0.8,8c5.2,29.4,40,40.1,62.7,40.1c8.2,0,15.7-0.4,22.6-1.3
		v2.2c0,4.1,2.4,6.6,6.4,6.6h6.4c3.2,0,5.5-2.4,5.5-5.7c0-0.9-0.2-1.8-0.5-2.5c1.1-1.1,1.8-2.7,1.8-4.7v-0.5c4-1.5,7.8-3.3,11.3-5.6
		c0.5,1,1.1,2,2,2.8c2,1.9,4.4,2.9,7.2,2.9c2.8,0,5.3-1,7.3-2.9c2-1.9,3.1-4.5,3.1-7.3c0-2-0.5-3.8-1.4-5.3h3.6
		c3.3,0,5.6-2.4,5.6-5.7c0-3.4-2.3-5.8-5.6-5.8h-2c5.9-10.7,7.5-21.5,6.2-31.7h0.4C156.6,37.9,158.7,35.8,158.7,32.7"/>
	<path style="fill:#FFFFFF;" d="M89.1,87.2c-1.4,0-2-0.7-2-2c0-1.4,0.7-2.1,2-2.1H93c0.8,0,1.1-0.2,1.1-1.1v-1.8
		c0-0.5,0.1-0.9,0.3-1.3c-0.7-0.3-1.4-0.7-1.9-1.3c-1-1-1.6-2.3-1.6-3.9c0-0.8,0.3-1.8,0.5-2.3c0.2-0.6,0-0.7-0.5-0.7h-1.4
		c-1.3,0-1.9-0.6-1.9-1.9c0-1.3,0.7-1.9,1.9-1.9h3.7c0.8,0,0.9-0.3,0.9-1v-3c0-1.4,0.8-2.1,2.3-2.1c1.5,0,2.3,0.7,2.3,2.2V66
		c0,0.8,0.1,1,0.9,1h3.3c1.2,0,1.8,0.6,1.9,1.9c0,1.3-0.6,1.9-1.9,1.9h-1.2c-0.6,0-0.7,0.2-0.5,0.8c0.4,0.6,0.5,1.4,0.5,2.2
		c0,1.6-0.5,2.9-1.6,3.9c-0.6,0.6-1.2,1-1.8,1.3c0.2,0.3,0.3,0.7,0.3,1.3V82c0,0.9,0.4,1.1,1.1,1.1h3.8c1.3,0,1.9,0.7,2,2.1
		c0,1.3-0.6,2-2,2 M112.3,97.1c0,1.9-0.7,2.5-2.3,2.5h-4.8c-0.5,0-0.7,0.2-0.7,0.7v1.2c0,0.5,0.2,0.7,0.7,0.7h4c1.2,0,1.8,0.7,1.8,2
		s-0.6,2-1.8,2h-6.4c-1.8,0-2.7-0.9-2.7-2.9v-5.3c0-1.5,0.9-2.5,2.6-2.5h4.4c0.6,0,0.8-0.3,0.8-0.7v-1c0-0.6-0.1-0.8-0.8-0.8h-3.5
		c-1.3,0-1.9-0.7-1.9-2c0-1.3,0.6-2,1.9-2h5.9c2.3,0,2.8,0.9,2.8,2.6V97.1z M114.7,77.3c-0.7,0-1,0.3-1,1.2v4c0,1.6-0.7,2.5-2.2,2.4
		c-1.4,0-2.2-0.8-2.2-2.4V67.7c0-1.6,0.7-2.4,2.2-2.4c1.4,0,2.2,0.8,2.2,2.4V72c0,0.9,0.3,1.2,1,1.2h3.9c1.2,0,1.8,0.7,1.8,2
		s-0.6,2-1.8,2H114.7z M97.6,73.7c0-0.7-0.5-1.3-1.2-1.3s-1.2,0.6-1.2,1.3c0,0.7,0.5,1.4,1.2,1.4S97.6,74.5,97.6,73.7 M132.3,67.5
		c-2.5,0-3.3-1-3.3-3.3v-7.2c0-2,0.8-3.1,3.3-3.1h8.7c1.3,0,1.9,0.7,2,2c0,1.3-0.6,2-2,2h-6.4c-0.7,0-1,0.3-1,1.2v3
		c0,0.7,0.3,1.1,1,1.1h7.1c1.3,0,2,0.7,2.1,2.1c0,1.4-0.6,2.1-2.1,2.1H132.3z M124,77.5c-1.4,0-2-0.7-2-2c0-1.4,0.7-2.1,2-2.1h9.1
		c0.9,0,1.2-0.2,1.2-1.1v-1.8c0-1.4,0.7-2.2,2.2-2.2c1.5,0,2.2,0.7,2.2,2.2v1.8c0,0.9,0.5,1.1,1.2,1.1h9.1c1.3,0,1.9,0.7,1.9,2.1
		c0,1.3-0.6,2-1.9,2H124z M143.2,86.5c0,1.9-0.6,3.4-1.9,4.7c-1.3,1.3-2.9,1.9-4.8,1.9c-1.8,0-3.3-0.7-4.6-1.9
		c-1.3-1.3-1.9-2.8-1.9-4.7c0-2,0.6-3.5,1.9-4.8s2.8-1.9,4.6-1.9c1.9,0,3.5,0.6,4.8,1.9C142.5,82.9,143.2,84.5,143.2,86.5
		 M138.8,86.5c0-1.3-1.1-2.5-2.4-2.5c-1.1,0-2.3,1.1-2.3,2.5c0,1.3,1.1,2.4,2.3,2.4C137.8,88.8,138.8,87.8,138.8,86.5"/>
	<path style="fill:#FFFFFF;" d="M11.6,29c-1.9,0-2.7-0.9-2.7-2.7v-4.7c0-1.1,0.6-1.7,1.7-1.7c1.1,0,1.7,0.5,1.7,1.7v3.5
		c0,0.6,0.2,0.9,0.8,0.9h5.1c1,0,1.5,0.5,1.5,1.5c0,1-0.5,1.5-1.5,1.5 M5.1,36.3c-1,0-1.5-0.5-1.5-1.5c0-1,0.5-1.5,1.5-1.5h6.7
		c0.7,0,0.9-0.2,0.9-0.8v-1.3c0-1.1,0.5-1.6,1.6-1.6c1.1,0,1.6,0.5,1.6,1.6v1.3c0,0.6,0.4,0.8,0.9,0.8h6.7c1,0,1.4,0.5,1.4,1.5
		c0,1-0.5,1.5-1.4,1.5H5.1z M19.5,44.2c0,1.3-0.6,1.7-1.8,1.7h-4.9c-0.3,0-0.5,0.3-0.5,0.5v0.9c0,0.4,0.2,0.5,0.5,0.5h6.3
		c0.9,0,1.4,0.5,1.4,1.5c0,1-0.5,1.5-1.4,1.5h-8c-1.4,0-2-0.6-2-2.1v-3.9c0-1.2,0.6-1.7,2-1.7h4.6c0.4,0,0.6-0.2,0.6-0.5v-0.8
		c0-0.4-0.1-0.5-0.6-0.5H11c-1,0-1.4-0.5-1.4-1.5c0-1,0.5-1.5,1.4-1.5h6.4c1.7,0,2.1,0.7,2.1,2V44.2z M40,36.3c0,1.7-0.5,3-1.6,3.9
		c-1.1,1-2.4,1.4-3.8,1.4c-1.5,0-2.8-0.5-3.9-1.4c-1.1-1-1.6-2.3-1.6-3.9c0-1.7,0.5-3,1.6-4c1.1-1,2.4-1.4,3.9-1.4
		c1.5,0,2.7,0.5,3.8,1.5C39.5,33.4,40,34.7,40,36.3 M36.7,36.3c0-1.3-0.9-2.3-2.1-2.3c-1.3,0-2.3,1-2.3,2.3c0,1.3,1,2.3,2.3,2.3
		C35.7,38.6,36.7,37.7,36.7,36.3 M48.9,40.8c0,1.3-0.5,1.9-1.6,1.8c-1,0-1.6-0.6-1.6-1.8v-14c0-1.2,0.5-1.7,1.6-1.8
		c1.1,0,1.6,0.5,1.6,1.8V40.8z M69.8,25.4c0,1.2-0.5,2-2,2h-6.1c-0.5,0-0.7,0.2-0.7,0.6v1.7c0,0.4,0.1,0.6,0.7,0.6h5.7
		c1,0,1.4,0.5,1.5,1.5c0,1-0.5,1.5-1.5,1.5H60c-1.6,0-2.1-0.5-2.1-2v-4.9c0-1.4,0.7-2.1,2.1-2.1h5.9c0.5,0,0.7-0.2,0.7-0.7v-2.1
		c0-0.4-0.2-0.7-0.7-0.7h-5.6c-1,0-1.5-0.5-1.5-1.5c0-1,0.5-1.5,1.5-1.5h7.6c1.5,0,2,0.8,2,2V25.4z M54.4,42.1c-1,0-1.5-0.5-1.5-1.5
		c0-1,0.5-1.5,1.5-1.5h6.5c0.7,0,0.9-0.1,0.9-0.8v-2.9c0-1,0.5-1.6,1.6-1.6c1.1,0,1.6,0.5,1.6,1.6v2.9c0,0.5,0.3,0.8,0.9,0.8h6.9
		c1,0,1.4,0.5,1.4,1.5c0,1-0.5,1.5-1.4,1.5H54.4z M100.4,26.2c1,0.6,1.2,1.3,0.6,2.1c-0.6,0.9-1.3,1-2.2,0.5l-3.1-1.7
		c-0.4-0.3-0.6-0.2-1,0l-3.3,2.1c-1,0.7-1.8,0.5-2.5-0.3c-0.6-0.9-0.5-1.6,0.5-2.2l3.2-2.1c0.4-0.3,0.6-0.5,0.6-1.3v-1
		c0-0.4-0.1-0.5-0.5-0.5h-2.3c-0.9,0-1.4-0.5-1.4-1.5c0-1,0.5-1.5,1.4-1.5h8.6c1,0,1.4,0.5,1.5,1.5c0,1-0.5,1.5-1.5,1.5H97
		c-0.3,0-0.4,0.1-0.4,0.5v1c0,0.4,0.1,0.7,0.6,1L100.4,26.2z M85.8,34.3c-1,0-1.5-0.5-1.5-1.5c0-1,0.5-1.5,1.5-1.5h18.5
		c1,0,1.4,0.5,1.4,1.5c0,1-0.5,1.5-1.4,1.5H85.8z M100.2,42.8c0,1.3-0.6,1.7-1.8,1.7h-4.9c-0.3,0-0.5,0.3-0.5,0.5v1.1
		c0,0.3,0.2,0.5,0.5,0.5h6.3c0.9,0,1.4,0.5,1.4,1.5c0,1-0.5,1.5-1.4,1.5h-8c-1.4,0-2-0.6-2-2.1v-4.1c0-1.2,0.6-1.7,2-1.7h4.6
		c0.4,0,0.6-0.2,0.6-0.5v-0.9c0-0.4-0.1-0.5-0.6-0.5h-4.6c-1,0-1.4-0.5-1.4-1.5c0-1,0.5-1.5,1.4-1.5h6.4c1.7,0,2.1,0.7,2.1,2V42.8z
		 M120.2,39.2c0,1.1-0.5,1.6-1.6,1.6c-1.1,0-1.6-0.5-1.6-1.6v-4.3c0-0.4-0.2-0.8-0.8-0.8h-4.8c-1,0-1.5-0.5-1.5-1.5
		c0-1,0.5-1.5,1.5-1.5h6.5c1.7,0,2.3,0.8,2.3,2.3V39.2z M129.6,40.8c0,1.3-0.5,1.9-1.6,1.8c-1,0-1.6-0.6-1.6-1.8v-14
		c0-1.2,0.5-1.7,1.6-1.8c1.1,0,1.6,0.5,1.6,1.8V40.8z M141.6,29c-1.9,0-2.7-0.9-2.7-2.7v-4.7c0-1.1,0.6-1.7,1.7-1.7s1.7,0.5,1.7,1.7
		v3.5c0,0.6,0.2,0.9,0.8,0.9h5.1c1,0,1.5,0.5,1.5,1.5c0,1-0.5,1.5-1.5,1.5H141.6z M135.1,34.3c-1,0-1.5-0.5-1.5-1.5
		c0-1,0.5-1.5,1.5-1.5h18.5c1,0,1.4,0.5,1.4,1.5c0,1-0.5,1.5-1.4,1.5H135.1z M141.8,45.4c-1.7,0-2.5-0.8-2.5-2.5v-4.6
		c0-1.1,0.5-1.6,1.6-1.7c1.1,0,1.6,0.5,1.6,1.7v3.3c0,0.6,0.2,0.8,0.6,0.8h4.6c1,0,1.4,0.5,1.4,1.5c0,1-0.5,1.5-1.4,1.5H141.8z"/>
	<path style="fill:#FFFFFF;" d="M71.5,59.1l-9.4,7.8l0.8,7.1c0,0.3-0.1,0.6-0.4,0.7l0,0c-0.3,0.1-0.5,0-0.7-0.2L58.2,71l-8.6,12.2
		l-0.3,0.2l-0.3,0l-0.6-0.4L34.7,55v0l0,0l0,0l0-0.1l0,0l0,0l0-0.1l0,0c0-0.1,0-0.2,0.1-0.3l0,0l0,0l0,0c0.1-0.2,0.4-0.4,0.7-0.3h0
		l35.7,3.9c0.3,0,0.5,0.2,0.6,0.5C71.8,58.6,71.7,58.9,71.5,59.1 M61.3,72.2L60.7,67l-18-8.2l15.8,10.6l0.1,0.1L61.3,72.2z
		 M49.2,81.5l8-11.3L37,56.6L49.2,81.5z M39.4,55.8l21.8,10l8.1-6.7L39.4,55.8z"/>
	<path style="fill:#FFFFFF;" d="M75.5,84.1l-0.3,0c-1.4-0.5-2.7-1.1-3.9-1.7c-0.4-0.2-0.6-0.7-0.3-1.1c0.2-0.4,0.7-0.6,1.1-0.3
		c1.2,0.6,2.4,1.2,3.7,1.6c0.4,0.2,0.6,0.6,0.5,1C76.2,83.9,75.9,84.1,75.5,84.1"/>
	<path style="fill:#FFFFFF;" d="M68.2,80.2L67.7,80c-0.6-0.4-1.1-0.9-1.7-1.4c-0.7-0.5-1.2-1-1.4-1.2c-0.2-0.2-0.4-0.7-0.1-1.1
		c0.3-0.4,0.8-0.4,1.1-0.2c0.2,0.2,0.8,0.7,1.4,1.2c0.5,0.4,1,0.9,1.6,1.3c0.4,0.3,0.4,0.8,0.2,1.1C68.6,80,68.4,80.2,68.2,80.2
		 M83.7,85.8c-0.2,0-1.6-0.1-2.2-0.2c-0.5-0.1-1.3-0.2-2.1-0.4c-0.4-0.1-0.7-0.5-0.6-1c0.1-0.4,0.5-0.7,1-0.6c0.8,0.2,1.5,0.3,2,0.3
		c0.6,0.1,1.9,0.1,2.1,0.2c0.3,0,0.7,0.3,0.6,0.9C84.5,85.6,83.9,85.8,83.7,85.8"/>
</g>
<g>
</g>
<g>
</g>
<g>
</g>
<g>
</g>
<g>
</g>
<g>
</g>
<g>
</g>
<g>
</g>
<g>
</g>
<g>
</g>
<g>
</g>
<g>
</g>
<g>
</g>
<g>
</g>
<g>
</g>
</svg>
