<?xml version="1.0" encoding="utf-8"?>
<!-- Generator: Adobe Illustrator 25.2.0, SVG Export Plug-In . SVG Version: 6.00 Build 0)  -->
<svg version="1.1" id="레이어_1" xmlns="http://www.w3.org/2000/svg" xmlns:xlink="http://www.w3.org/1999/xlink" x="0px"
	 y="0px" viewBox="0 0 65 67.9" style="enable-background:new 0 0 65 67.9;" xml:space="preserve">
<g>
	<path style="fill-rule:evenodd;clip-rule:evenodd;fill:#008080;" d="M32.5,0C14.6,0,0,12.5,0,28c0,15.5,14.6,28,32.5,28
		S65,43.5,65,28C65,12.5,50.4,0,32.5,0z M32.5,51.4c-15,0-27.2-10.5-27.2-23.4c0-12.9,12.2-23.4,27.2-23.4c15,0,27.2,10.5,27.2,23.4
		C59.7,40.9,47.5,51.4,32.5,51.4z"/>
	<circle style="fill-rule:evenodd;clip-rule:evenodd;fill:#008080;" cx="6.7" cy="63.9" r="4"/>
	<g>
		<path style="fill:#008080;" d="M28.4,34.2v-2c0-1.3,0.1-2.3,0.4-3.2c0.3-0.8,0.9-1.5,1.8-2.1c0.7-0.4,1.4-0.8,2-1.2
			c0.6-0.4,1-0.7,1.4-1c0.5-0.5,0.9-0.9,1.1-1.4c0.2-0.4,0.3-0.9,0.3-1.5c0-0.8-0.3-1.4-0.8-1.8c-0.5-0.4-1.2-0.7-1.9-0.7
			c-0.8,0-1.5,0.2-2.1,0.6c-0.6,0.4-1,0.9-1.2,1.6c-0.2,0.8-0.7,1.4-1.3,1.8c-0.6,0.4-1.4,0.6-2.4,0.5c-0.4,0-0.7-0.1-1.1-0.3
			c-0.4-0.1-0.7-0.4-0.9-0.6c-0.3-0.3-0.5-0.6-0.6-1c-0.2-0.4-0.2-0.8-0.2-1.4c0-1,0.3-2,0.8-2.9c0.5-0.9,1.2-1.6,2.1-2.3
			c0.9-0.6,1.9-1.2,3.1-1.5c1.2-0.4,2.4-0.6,3.8-0.6c1.4,0,2.7,0.2,3.8,0.5c1.2,0.3,2.2,0.9,3,1.6c0.8,0.7,1.5,1.6,2,2.6
			c0.5,1.1,0.7,2.3,0.7,3.7c0,1.1-0.1,2.1-0.4,2.9c-0.3,0.8-0.7,1.6-1.3,2.3c-0.5,0.6-1.1,1.2-1.9,1.7c-0.7,0.6-1.5,1.1-2.4,1.7
			c-0.5,0.3-0.8,0.6-0.9,1c-0.1,0.3-0.2,0.7-0.2,1.2v1.5H28.4z M28.2,39.2c0-1,0.3-1.9,0.9-2.5c0.6-0.6,1.5-0.9,2.6-0.9
			c1.1,0,2,0.3,2.6,0.9c0.6,0.6,0.9,1.4,0.9,2.5c0,1-0.3,1.8-0.9,2.5c-0.6,0.6-1.5,0.9-2.6,0.9c-1.1,0-2-0.3-2.6-0.9
			C28.5,41,28.2,40.2,28.2,39.2z"/>
	</g>
	<path style="fill-rule:evenodd;clip-rule:evenodd;fill:#008080;" d="M17.6,47.6c-3.3,0.3-5.9,3.1-5.9,6.5c0,3.6,2.9,6.5,6.5,6.5
		s6.5-2.9,6.5-6.5c0-1.5-0.5-2.9-1.4-4C21.3,49.4,19.4,48.6,17.6,47.6z"/>
</g>
<g>
</g>
<g>
</g>
<g>
</g>
<g>
</g>
<g>
</g>
<g>
</g>
<g>
</g>
<g>
</g>
<g>
</g>
<g>
</g>
<g>
</g>
<g>
</g>
<g>
</g>
<g>
</g>
<g>
</g>
</svg>
