<?xml version="1.0" encoding="utf-8"?>
<!-- Generator: Adobe Illustrator 25.2.0, SVG Export Plug-In . SVG Version: 6.00 Build 0)  -->
<svg version="1.1" id="레이어_1" xmlns="http://www.w3.org/2000/svg" xmlns:xlink="http://www.w3.org/1999/xlink" x="0px"
	 y="0px" viewBox="0 0 60 60" style="enable-background:new 0 0 60 60;" xml:space="preserve">
<g>
	<path style="fill-rule:evenodd;clip-rule:evenodd;fill:#FFFFFF;" d="M28.5,2.9c15.8,0,28.5,12.8,28.5,28.5S44.3,60,28.5,60
		S0,47.2,0,31.5S12.8,2.9,28.5,2.9z"/>
	<path style="fill-rule:evenodd;clip-rule:evenodd;fill:#CAC3B5;" d="M52.5,15.9c2.9,4.5,4.6,9.8,4.6,15.6c0,0.5,0,1,0,1.5l-6.6,1.8
		l-7.7-5.3l-9,2.4c-0.6,0.2-1.1,0-1.6-0.3l-2.3,0.6c-0.5,0.1-1.1-0.2-1.2-0.7l0,0c-0.1-0.5,0.2-1.1,0.7-1.2l2.3-0.6
		c0.2-0.5,0.6-0.9,1.2-1.1l9-2.4l4-8.4L52.5,15.9z"/>
	<path style="fill-rule:evenodd;clip-rule:evenodd;fill:#1E9191;" d="M28.5,15.4c4.4,0,8.4,1.8,11.3,4.7c2.9,2.9,4.7,6.9,4.7,11.3
		s-1.8,8.4-4.7,11.3c-2.9,2.9-6.9,4.7-11.3,4.7s-8.4-1.8-11.3-4.7c-2.9-2.9-4.7-6.9-4.7-11.3s1.8-8.4,4.7-11.3
		C20.1,17.2,24.1,15.4,28.5,15.4L28.5,15.4z M36.1,23.9c-1.9-1.9-4.6-3.1-7.6-3.1c-3,0-5.6,1.2-7.6,3.1c-1.9,1.9-3.1,4.6-3.1,7.6
		c0,3,1.2,5.6,3.1,7.6c1.9,1.9,4.6,3.1,7.6,3.1c3,0,5.6-1.2,7.6-3.1c1.9-1.9,3.1-4.6,3.1-7.6C39.3,28.5,38.1,25.8,36.1,23.9z"/>
	<path style="fill-rule:evenodd;clip-rule:evenodd;fill:#1E9191;" d="M28.5,6.4c6.9,0,13.2,2.8,17.7,7.3c4.5,4.5,7.3,10.8,7.3,17.7
		s-2.8,13.2-7.3,17.7c-4.5,4.5-10.8,7.3-17.7,7.3c-6.9,0-13.2-2.8-17.7-7.3c-4.5-4.5-7.3-10.8-7.3-17.7s2.8-13.2,7.3-17.7
		C15.4,9.2,21.6,6.4,28.5,6.4L28.5,6.4z M42.5,17.5c-3.6-3.6-8.5-5.8-14-5.8c-5.5,0-10.4,2.2-14,5.8c-3.6,3.6-5.8,8.5-5.8,14
		s2.2,10.4,5.8,14c3.6,3.6,8.5,5.8,14,5.8c5.5,0,10.4-2.2,14-5.8c3.6-3.6,5.8-8.5,5.8-14S46.1,21.1,42.5,17.5z"/>
	<path style="fill-rule:evenodd;clip-rule:evenodd;fill:#1E9191;" d="M28.5,26.3c2.9,0,5.2,2.3,5.2,5.2c0,2.9-2.3,5.2-5.2,5.2
		c-2.9,0-5.2-2.3-5.2-5.2C23.4,28.6,25.7,26.3,28.5,26.3z"/>
	<path style="fill-rule:evenodd;clip-rule:evenodd;fill:#0B7373;" d="M42.8,24.1c1,2,1.6,4.2,1.7,6.5l-1.8-1.2l-3.5,0.9
		c-0.1-1.2-0.4-2.3-0.9-3.4l3.5-0.9L42.8,24.1z"/>
	<path style="fill-rule:evenodd;clip-rule:evenodd;fill:#0B7373;" d="M48.9,16.9c3,4.1,4.7,9.1,4.7,14.6c0,0.8,0,1.7-0.1,2.5l-3,0.8
		l-2.2-1.5c0-0.6,0.1-1.1,0.1-1.7c0-4.2-1.3-8.1-3.6-11.3l1.2-2.5L48.9,16.9z"/>
	<path style="fill-rule:evenodd;clip-rule:evenodd;fill:#0B7373;" d="M32.8,28.5c0.6,0.8,0.9,1.8,0.9,2.9c0,0.1,0,0.3,0,0.4
		c-0.6,0.1-1.1,0-1.5-0.3l-2.3,0.6c-0.5,0.1-1.1-0.2-1.2-0.7l0,0c-0.1-0.5,0.2-1.1,0.7-1.2l2.3-0.6C31.8,29.1,32.3,28.7,32.8,28.5z"
		/>
	<polygon style="fill-rule:evenodd;clip-rule:evenodd;fill:#80D1C2;" points="39.4,22.6 50.2,11.7 60,12.5 49.2,23.3 	"/>
	<polygon style="fill-rule:evenodd;clip-rule:evenodd;fill:#80D1C2;" points="37.4,20.6 48.3,9.8 47.5,0 36.7,10.8 	"/>
	<path style="fill-rule:evenodd;clip-rule:evenodd;fill:#FFFFFF;" d="M28.6,29.9l9.5-9.5c0.4-0.4,1-0.4,1.4,0l0,0
		c0.4,0.4,0.4,1,0,1.4l-9.5,9.5c-0.4,0.4-1,0.4-1.4,0l0,0C28.2,31,28.2,30.3,28.6,29.9z"/>
	<path style="fill-rule:evenodd;clip-rule:evenodd;fill:#FFFFFF;" d="M30.8,26.8L52.5,5.1c0.7-0.7,1.8-0.7,2.5,0l0,0
		c0.7,0.7,0.7,1.8,0,2.5L33.2,29.2c-0.7,0.7-1.8,0.7-2.5,0v0C30.1,28.5,30.1,27.4,30.8,26.8z"/>
</g>
<g>
</g>
<g>
</g>
<g>
</g>
<g>
</g>
<g>
</g>
<g>
</g>
<g>
</g>
<g>
</g>
<g>
</g>
<g>
</g>
<g>
</g>
<g>
</g>
<g>
</g>
<g>
</g>
<g>
</g>
</svg>
